  0
SECTION
  2
HEADER
  9
$ACADVER
  1
AC1032
  9
$ACADMAINTVER
 90
      204
  9
$DWGCODEPAGE
  3
ANSI_1252
  9
$LASTSAVEDBY
  1
duda-
  9
$REQUIREDVERSIONS
160
                 0
  9
$INSBASE
 10
0.0
 20
0.0
 30
0.0
  9
$EXTMIN
 10
-8356.084258341835
 20
4411.753714276944
 30
0.0
  9
$EXTMAX
 10
-3936.084258341754
 20
23981.75371427699
 30
0.0
  9
$LIMMIN
 10
0.0
 20
0.0
  9
$LIMMAX
 10
12.0
 20
9.0
  9
$ORTHOMODE
 70
     0
  9
$REGENMODE
 70
     1
  9
$FILLMODE
 70
     1
  9
$QTEXTMODE
 70
     0
  9
$MIRRTEXT
 70
     0
  9
$LTSCALE
 40
1.0
  9
$ATTMODE
 70
     1
  9
$TEXTSIZE
 40
0.2
  9
$TRACEWID
 40
0.05
  9
$TEXTSTYLE
  7
Standard
  9
$CLAYER
  8
0
  9
$CELTYPE
  6
ByLayer
  9
$CECOLOR
 62
   256
  9
$CELTSCALE
 40
1.0
  9
$DISPSILH
 70
     0
  9
$DIMSCALE
 40
1.0
  9
$DIMASZ
 40
0.18
  9
$DIMEXO
 40
0.0625
  9
$DIMDLI
 40
0.38
  9
$DIMRND
 40
0.0
  9
$DIMDLE
 40
0.0
  9
$DIMEXE
 40
0.18
  9
$DIMTP
 40
0.0
  9
$DIMTM
 40
0.0
  9
$DIMTXT
 40
0.18
  9
$DIMCEN
 40
0.09
  9
$DIMTSZ
 40
0.0
  9
$DIMTOL
 70
     0
  9
$DIMLIM
 70
     0
  9
$DIMTIH
 70
     1
  9
$DIMTOH
 70
     1
  9
$DIMSE1
 70
     0
  9
$DIMSE2
 70
     0
  9
$DIMTAD
 70
     0
  9
$DIMZIN
 70
     0
  9
$DIMBLK
  1

  9
$DIMASO
 70
     1
  9
$DIMSHO
 70
     1
  9
$DIMPOST
  1

  9
$DIMAPOST
  1

  9
$DIMALT
 70
     0
  9
$DIMALTD
 70
     2
  9
$DIMALTF
 40
25.4
  9
$DIMLFAC
 40
1.0
  9
$DIMTOFL
 70
     0
  9
$DIMTVP
 40
0.0
  9
$DIMTIX
 70
     0
  9
$DIMSOXD
 70
     0
  9
$DIMSAH
 70
     0
  9
$DIMBLK1
  1

  9
$DIMBLK2
  1

  9
$DIMSTYLE
  2
Standard
  9
$DIMCLRD
 70
     0
  9
$DIMCLRE
 70
     0
  9
$DIMCLRT
 70
     0
  9
$DIMTFAC
 40
1.0
  9
$DIMGAP
 40
0.09
  9
$DIMJUST
 70
     0
  9
$DIMSD1
 70
     0
  9
$DIMSD2
 70
     0
  9
$DIMTOLJ
 70
     1
  9
$DIMTZIN
 70
     0
  9
$DIMALTZ
 70
     0
  9
$DIMALTTZ
 70
     0
  9
$DIMUPT
 70
     0
  9
$DIMDEC
 70
     4
  9
$DIMTDEC
 70
     4
  9
$DIMALTU
 70
     2
  9
$DIMALTTD
 70
     2
  9
$DIMTXSTY
  7
Standard
  9
$DIMAUNIT
 70
     0
  9
$DIMADEC
 70
     0
  9
$DIMALTRND
 40
0.0
  9
$DIMAZIN
 70
     0
  9
$DIMDSEP
 70
    46
  9
$DIMATFIT
 70
     3
  9
$DIMFRAC
 70
     0
  9
$DIMLDRBLK
  1

  9
$DIMLUNIT
 70
     2
  9
$DIMLWD
 70
    -2
  9
$DIMLWE
 70
    -2
  9
$DIMTMOVE
 70
     0
  9
$DIMFXL
 40
1.0
  9
$DIMFXLON
 70
     0
  9
$DIMJOGANG
 40
0.7853981633974483
  9
$DIMTFILL
 70
     0
  9
$DIMTFILLCLR
 70
     0
  9
$DIMARCSYM
 70
     0
  9
$DIMLTYPE
  6

  9
$DIMLTEX1
  6

  9
$DIMLTEX2
  6

  9
$DIMTXTDIRECTION
 70
     0
  9
$LUNITS
 70
     2
  9
$LUPREC
 70
     4
  9
$SKETCHINC
 40
0.1
  9
$FILLETRAD
 40
0.0
  9
$AUNITS
 70
     0
  9
$AUPREC
 70
     0
  9
$MENU
  1
.
  9
$ELEVATION
 40
0.0
  9
$PELEVATION
 40
0.0
  9
$THICKNESS
 40
0.0
  9
$LIMCHECK
 70
     0
  9
$CHAMFERA
 40
0.0
  9
$CHAMFERB
 40
0.0
  9
$CHAMFERC
 40
0.0
  9
$CHAMFERD
 40
0.0
  9
$SKPOLY
 70
     0
  9
$TDCREATE
 40
2460730.578796296
  9
$TDUCREATE
 40
2460730.703796297
  9
$TDUPDATE
 40
2460738.985092593
  9
$TDUUPDATE
 40
2460739.110092593
  9
$TDINDWG
 40
0.0266550926
  9
$TDUSRTIMER
 40
0.0266550926
  9
$USRTIMER
 70
     1
  9
$ANGBASE
 50
0.0
  9
$ANGDIR
 70
     0
  9
$PDMODE
 70
     0
  9
$PDSIZE
 40
0.0
  9
$PLINEWID
 40
0.0
  9
$SPLFRAME
 70
     0
  9
$SPLINETYPE
 70
     6
  9
$SPLINESEGS
 70
     8
  9
$HANDSEED
  5
27C
  9
$SURFTAB1
 70
     6
  9
$SURFTAB2
 70
     6
  9
$SURFTYPE
 70
     6
  9
$SURFU
 70
     6
  9
$SURFV
 70
     6
  9
$UCSBASE
  2

  9
$UCSNAME
  2

  9
$UCSORG
 10
0.0
 20
0.0
 30
0.0
  9
$UCSXDIR
 10
1.0
 20
0.0
 30
0.0
  9
$UCSYDIR
 10
0.0
 20
1.0
 30
0.0
  9
$UCSORTHOREF
  2

  9
$UCSORTHOVIEW
 70
     0
  9
$UCSORGTOP
 10
0.0
 20
0.0
 30
0.0
  9
$UCSORGBOTTOM
 10
0.0
 20
0.0
 30
0.0
  9
$UCSORGLEFT
 10
0.0
 20
0.0
 30
0.0
  9
$UCSORGRIGHT
 10
0.0
 20
0.0
 30
0.0
  9
$UCSORGFRONT
 10
0.0
 20
0.0
 30
0.0
  9
$UCSORGBACK
 10
0.0
 20
0.0
 30
0.0
  9
$PUCSBASE
  2

  9
$PUCSNAME
  2

  9
$PUCSORG
 10
0.0
 20
0.0
 30
0.0
  9
$PUCSXDIR
 10
1.0
 20
0.0
 30
0.0
  9
$PUCSYDIR
 10
0.0
 20
1.0
 30
0.0
  9
$PUCSORTHOREF
  2

  9
$PUCSORTHOVIEW
 70
     0
  9
$PUCSORGTOP
 10
0.0
 20
0.0
 30
0.0
  9
$PUCSORGBOTTOM
 10
0.0
 20
0.0
 30
0.0
  9
$PUCSORGLEFT
 10
0.0
 20
0.0
 30
0.0
  9
$PUCSORGRIGHT
 10
0.0
 20
0.0
 30
0.0
  9
$PUCSORGFRONT
 10
0.0
 20
0.0
 30
0.0
  9
$PUCSORGBACK
 10
0.0
 20
0.0
 30
0.0
  9
$USERI1
 70
     0
  9
$USERI2
 70
     0
  9
$USERI3
 70
     0
  9
$USERI4
 70
     0
  9
$USERI5
 70
     0
  9
$USERR1
 40
0.0
  9
$USERR2
 40
0.0
  9
$USERR3
 40
0.0
  9
$USERR4
 40
0.0
  9
$USERR5
 40
0.0
  9
$WORLDVIEW
 70
     1
  9
$SHADEDGE
 70
     3
  9
$SHADEDIF
 70
    70
  9
$TILEMODE
 70
     1
  9
$MAXACTVP
 70
    64
  9
$PINSBASE
 10
0.0
 20
0.0
 30
0.0
  9
$PLIMCHECK
 70
     0
  9
$PEXTMIN
 10
64.27901684485153
 20
59.47287840171589
 30
-0.0015258207003583
  9
$PEXTMAX
 10
274.3012221009852
 20
356.5108803466415
 30
0.0000000349246037
  9
$PLIMMIN
 10
64.27901684485153
 20
59.47287840171589
  9
$PLIMMAX
 10
484.5984757423225
 20
356.6684553999278
  9
$UNITMODE
 70
     0
  9
$VISRETAIN
 70
     1
  9
$PLINEGEN
 70
     0
  9
$PSLTSCALE
 70
     0
  9
$TREEDEPTH
 70
  3020
  9
$CMLSTYLE
  2
Standard
  9
$CMLJUST
 70
     0
  9
$CMLSCALE
 40
1.0
  9
$PROXYGRAPHICS
 70
     1
  9
$MEASUREMENT
 70
     1
  9
$CELWEIGHT
370
    -1
  9
$ENDCAPS
280
     0
  9
$JOINSTYLE
280
     0
  9
$LWDISPLAY
290
     0
  9
$INSUNITS
 70
     4
  9
$HYPERLINKBASE
  1

  9
$STYLESHEET
  1

  9
$XEDIT
290
     1
  9
$CEPSNTYPE
380
     0
  9
$PSTYLEMODE
290
     1
  9
$FINGERPRINTGUID
  2
{BD7F5C61-F296-5243-AA23-6E89014FA4C6}
  9
$VERSIONGUID
  2
{9B2421F1-B92A-9443-96E8-0264E3B134B2}
  9
$EXTNAMES
290
     1
  9
$PSVPSCALE
 40
0.0
  9
$OLESTARTUP
290
     0
  9
$SORTENTS
280
   127
  9
$INDEXCTL
280
     0
  9
$HIDETEXT
280
     1
  9
$XCLIPFRAME
280
     2
  9
$HALOGAP
280
     0
  9
$OBSCOLOR
 70
   257
  9
$OBSLTYPE
280
     0
  9
$INTERSECTIONDISPLAY
280
     0
  9
$INTERSECTIONCOLOR
 70
   257
  9
$DIMASSOC
280
     2
  9
$PROJECTNAME
  1

  9
$CAMERADISPLAY
290
     0
  9
$LENSLENGTH
 40
50.0
  9
$CAMERAHEIGHT
 40
0.0
  9
$STEPSPERSEC
 40
2.0
  9
$STEPSIZE
 40
6.0
  9
$3DDWFPREC
 40
2.0
  9
$PSOLWIDTH
 40
0.25
  9
$PSOLHEIGHT
 40
4.0
  9
$LOFTANG1
 40
1.570796326794896
  9
$LOFTANG2
 40
1.570796326794896
  9
$LOFTMAG1
 40
0.0
  9
$LOFTMAG2
 40
0.0
  9
$LOFTPARAM
 70
     7
  9
$LOFTNORMALS
280
     1
  9
$LATITUDE
 40
0.0
  9
$LONGITUDE
 40
0.0
  9
$NORTHDIRECTION
 40
0.0
  9
$TIMEZONE
 70
     0
  9
$LIGHTGLYPHDISPLAY
280
     1
  9
$TILEMODELIGHTSYNCH
280
     1
  9
$CMATERIAL
347
11
  9
$SOLIDHIST
280
     0
  9
$SHOWHIST
280
     1
  9
$DWFFRAME
280
     2
  9
$DGNFRAME
280
     0
  9
$REALWORLDSCALE
290
     1
  9
$INTERFERECOLOR
 62
     1
  9
$INTERFEREOBJVS
345
33
  9
$INTERFEREVPVS
346
30
  9
$CSHADOW
280
     0
  9
$SHADOWPLANELOCATION
 40
0.0
  0
ENDSEC
  0
SECTION
  2
CLASSES
  0
CLASS
  1
ACDBDICTIONARYWDFLT
  2
AcDbDictionaryWithDefault
  3
ObjectDBX Classes
 90
        0
 91
        1
280
     0
281
     0
  0
CLASS
  1
MATERIAL
  2
AcDbMaterial
  3
ObjectDBX Classes
 90
     1153
 91
        3
280
     0
281
     0
  0
CLASS
  1
VISUALSTYLE
  2
AcDbVisualStyle
  3
ObjectDBX Classes
 90
     4095
 91
       24
280
     0
281
     0
  0
CLASS
  1
SCALE
  2
AcDbScale
  3
ObjectDBX Classes
 90
     1153
 91
       17
280
     0
281
     0
  0
CLASS
  1
TABLESTYLE
  2
AcDbTableStyle
  3
ObjectDBX Classes
 90
     4095
 91
        1
280
     0
281
     0
  0
CLASS
  1
MLEADERSTYLE
  2
AcDbMLeaderStyle
  3
ACDB_MLEADERSTYLE_CLASS
 90
     4095
 91
        1
280
     0
281
     0
  0
CLASS
  1
ACDBSECTIONVIEWSTYLE
  2
AcDbSectionViewStyle
  3
ObjectDBX Classes
 90
     1025
 91
        2
280
     0
281
     0
  0
CLASS
  1
ACDBDETAILVIEWSTYLE
  2
AcDbDetailViewStyle
  3
ObjectDBX Classes
 90
     1025
 91
        2
280
     0
281
     0
  0
CLASS
  1
RASTERVARIABLES
  2
AcDbRasterVariables
  3
ISM
 90
        0
 91
        1
280
     0
281
     0
  0
CLASS
  1
DICTIONARYVAR
  2
AcDbDictionaryVar
  3
ObjectDBX Classes
 90
        0
 91
        5
280
     0
281
     0
  0
CLASS
  1
SORTENTSTABLE
  2
AcDbSortentsTable
  3
ObjectDBX Classes
 90
        0
 91
        1
280
     0
281
     0
  0
CLASS
  1
SUN
  2
AcDbSun
  3
SCENEOE
 90
     1153
 91
        1
280
     0
281
     0
  0
CLASS
  1
RAPIDRTRENDERSETTINGS
  2
AcDbRapidRTRenderSettings
  3
ObjectDBX Classes
 90
     1024
 91
        7
280
     0
281
     0
  0
CLASS
  1
CELLSTYLEMAP
  2
AcDbCellStyleMap
  3
ObjectDBX Classes
 90
     1152
 91
        1
280
     0
281
     0
  0
ENDSEC
  0
SECTION
  2
TABLES
  0
TABLE
  2
VPORT
  5
8
330
0
100
AcDbSymbolTable
 70
     1
  0
VPORT
  5
57
330
8
100
AcDbSymbolTableRecord
100
AcDbViewportTableRecord
  2
*Active
 70
     0
 10
0.0
 20
0.0
 11
1.0
 21
1.0
 12
-21307.74188286392
 22
7628.022230685949
 13
0.0
 23
0.0
 14
1.0
 24
1.0
 15
0.0
 25
0.0
 16
0.0
 26
0.0
 36
1.0
 17
0.0
 27
0.0
 37
0.0
 40
32835.79577422385
 41
2.531208499335989
 42
50.0
 43
0.0
 44
0.0
 50
0.0
 51
0.0
 71
     0
 72
  1000
 73
     1
 74
     1
 75
     0
 76
     0
 77
     0
 78
     0
281
     0
 65
     1
110
0.0
120
0.0
130
0.0
111
1.0
121
0.0
131
0.0
112
0.0
122
1.0
132
0.0
 79
     0
146
0.0
348
2F
 60
     3
 61
     5
292
     1
282
     1
141
0.0
142
0.0
 63
   250
421
  3355443
361
1B6
1001
ACAD_NAV_VCDISPLAY
1070
     3
  0
ENDTAB
  0
TABLE
  2
LTYPE
  5
5
330
0
100
AcDbSymbolTable
 70
     1
  0
LTYPE
  5
5B
330
5
100
AcDbSymbolTableRecord
100
AcDbLinetypeTableRecord
  2
ByBlock
 70
     0
  3

 72
    65
 73
     0
 40
0.0
  0
LTYPE
  5
5C
330
5
100
AcDbSymbolTableRecord
100
AcDbLinetypeTableRecord
  2
ByLayer
 70
     0
  3

 72
    65
 73
     0
 40
0.0
  0
LTYPE
  5
5D
330
5
100
AcDbSymbolTableRecord
100
AcDbLinetypeTableRecord
  2
Continuous
 70
     0
  3
Solid line
 72
    65
 73
     0
 40
0.0
  0
ENDTAB
  0
TABLE
  2
LAYER
  5
2
102
{ACAD_XDICTIONARY
360
1D3
102
}
330
0
100
AcDbSymbolTable
 70
     7
  0
LAYER
  5
54
330
2
100
AcDbSymbolTableRecord
100
AcDbLayerTableRecord
  2
0
 70
     0
 62
   250
  6
Continuous
370
    25
390
F
347
21
348
0
  0
LAYER
  5
83
330
2
100
AcDbSymbolTableRecord
100
AcDbLayerTableRecord
  2
A-POR-___-___-EXI
 70
     0
 62
   250
  6
Continuous
370
    25
390
F
347
21
348
0
  0
LAYER
  5
12C
330
2
100
AcDbSymbolTableRecord
100
AcDbLayerTableRecord
  2
A-JAN-___-___-EXI
 70
     0
 62
   250
  6
Continuous
370
    25
390
F
347
21
348
0
  0
LAYER
  5
139
330
2
100
AcDbSymbolTableRecord
100
AcDbLayerTableRecord
  2
A-ALV-___-___-EXI
 70
     0
 62
   250
  6
Continuous
370
    35
390
F
347
21
348
0
  0
LAYER
  5
19F
330
2
100
AcDbSymbolTableRecord
100
AcDbLayerTableRecord
  2
A-ESC-___-___-EXI
 70
     0
 62
   250
  6
Continuous
370
    25
390
F
347
21
348
0
  0
LAYER
  5
1A5
330
2
100
AcDbSymbolTableRecord
100
AcDbLayerTableRecord
  2
A-PIL-___-___-EXI
 70
     0
 62
   250
  6
Continuous
370
    25
390
F
347
21
348
0
  0
LAYER
  5
1A7
330
2
100
AcDbSymbolTableRecord
100
AcDbLayerTableRecord
  2
A-VEG-___-___-EXI
 70
     0
 62
   250
  6
Continuous
370
    25
390
F
347
21
348
0
  0
ENDTAB
  0
TABLE
  2
STYLE
  5
3
330
0
100
AcDbSymbolTable
 70
     2
  0
STYLE
  5
55
330
3
100
AcDbSymbolTableRecord
100
AcDbTextStyleTableRecord
  2
Standard
 70
     0
 40
0.0
 41
1.0
 50
0.0
 71
     0
 42
0.2
  3
txt
  4

  0
STYLE
  5
5A
330
3
100
AcDbSymbolTableRecord
100
AcDbTextStyleTableRecord
  2
Annotative
 70
     0
 40
0.0
 41
1.0
 50
0.0
 71
     0
 42
0.2
  3
txt
  4

1001
AcadAnnotative
1000
AnnotativeData
1002
{
1070
     1
1070
     1
1002
}
  0
ENDTAB
  0
TABLE
  2
VIEW
  5
6
330
0
100
AcDbSymbolTable
 70
     0
  0
ENDTAB
  0
TABLE
  2
UCS
  5
7
330
0
100
AcDbSymbolTable
 70
     0
  0
ENDTAB
  0
TABLE
  2
APPID
  5
9
330
0
100
AcDbSymbolTable
 70
     5
  0
APPID
  5
56
330
9
100
AcDbSymbolTableRecord
100
AcDbRegAppTableRecord
  2
ACAD
 70
     0
  0
APPID
  5
5E
330
9
100
AcDbSymbolTableRecord
100
AcDbRegAppTableRecord
  2
AcadAnnotative
 70
     0
  0
APPID
  5
78
330
9
100
AcDbSymbolTableRecord
100
AcDbRegAppTableRecord
  2
REVIT
 70
     0
  0
APPID
  5
1C6
330
9
100
AcDbSymbolTableRecord
100
AcDbRegAppTableRecord
  2
ACAD_PSEXT
 70
     0
  0
APPID
  5
1ED
330
9
100
AcDbSymbolTableRecord
100
AcDbRegAppTableRecord
  2
ACAD_NAV_VCDISPLAY
 70
     0
  0
ENDTAB
  0
TABLE
  2
DIMSTYLE
  5
A
330
0
100
AcDbSymbolTable
 70
     2
100
AcDbDimStyleTable
 71
     0
  0
DIMSTYLE
105
58
330
A
100
AcDbSymbolTableRecord
100
AcDbDimStyleTableRecord
  2
Standard
 70
     0
340
55
  0
DIMSTYLE
105
59
330
A
100
AcDbSymbolTableRecord
100
AcDbDimStyleTableRecord
  2
Annotative
 70
     0
340
55
1001
AcadAnnotative
1000
AnnotativeData
1002
{
1070
     1
1070
     1
1002
}
  0
ENDTAB
  0
TABLE
  2
BLOCK_RECORD
  5
1
330
0
100
AcDbSymbolTable
 70
     7
  0
BLOCK_RECORD
  5
70
102
{ACAD_XDICTIONARY
360
1B4
102
}
330
1
100
AcDbSymbolTableRecord
100
AcDbBlockTableRecord
  2
*Model_Space
340
73
 70
     0
280
     1
281
     0
  0
BLOCK_RECORD
  5
6C
330
1
100
AcDbSymbolTableRecord
100
AcDbBlockTableRecord
  2
*Paper_Space
340
6F
 70
     0
280
     1
281
     0
  0
BLOCK_RECORD
  5
12B
330
1
100
AcDbSymbolTableRecord
100
AcDbBlockTableRecord
  2
porta multiplas_original - Simples - 70 cm-22829854-Planta baixa - Térreo_
340
0
 70
     0
280
     1
281
     0
  0
BLOCK_RECORD
  5
13E
330
1
100
AcDbSymbolTableRecord
100
AcDbBlockTableRecord
  2
porta multiplas_original - Simples - 70 cm-22829574-Planta baixa - Térreo_
340
0
 70
     0
280
     1
281
     0
  0
BLOCK_RECORD
  5
14F
330
1
100
AcDbSymbolTableRecord
100
AcDbBlockTableRecord
  2
porta multiplas_original - Simples - 80 cm-22829765-Planta baixa - Térreo_
340
0
 70
     0
280
     1
281
     0
  0
BLOCK_RECORD
  5
160
330
1
100
AcDbSymbolTableRecord
100
AcDbBlockTableRecord
  2
porta multiplas_original - Simples - 80 cm-22829748-Planta baixa - Térreo_
340
0
 70
     0
280
     1
281
     0
  0
BLOCK_RECORD
  5
171
330
1
100
AcDbSymbolTableRecord
100
AcDbBlockTableRecord
  2
porta multiplas_original - Simples - 60 cm-22829243-Planta baixa - Térreo_
340
0
 70
     0
280
     1
281
     0
  0
BLOCK_RECORD
  5
183
330
1
100
AcDbSymbolTableRecord
100
AcDbBlockTableRecord
  2
porta multiplas_original - Simples - 60 cm-22829012-Planta baixa - Térreo_
340
0
 70
     0
280
     1
281
     0
  0
BLOCK_RECORD
  5
1A6
330
1
100
AcDbSymbolTableRecord
100
AcDbBlockTableRecord
  2
SVG - A4-22853593-Não nomeada
340
0
102
{BLKREFS
331
1AE
102
}
 70
     0
280
     1
281
     0
  0
ENDTAB
  0
ENDSEC
  0
SECTION
  2
BLOCKS
  0
BLOCK
  5
71
330
70
100
AcDbEntity
  8
0
100
AcDbBlockBegin
  2
*Model_Space
 70
     0
 10
0.0
 20
0.0
 30
0.0
  3
*Model_Space
  1

  0
ENDBLK
  5
72
330
70
100
AcDbEntity
  8
0
100
AcDbBlockEnd
  0
BLOCK
  5
6D
330
6C
100
AcDbEntity
 67
     1
  8
0
100
AcDbBlockBegin
  2
*Paper_Space
 70
     0
 10
0.0
 20
0.0
 30
0.0
  3
*Paper_Space
  1

  0
ENDBLK
  5
6E
330
6C
100
AcDbEntity
 67
     1
  8
0
100
AcDbBlockEnd
  0
BLOCK
  5
13B
330
12B
100
AcDbEntity
  8
0
100
AcDbBlockBegin
  2
porta multiplas_original - Simples - 70 cm-22829854-Planta baixa - Térreo_
 70
     0
 10
0.0
 20
0.0
 30
0.0
  3
porta multiplas_original - Simples - 70 cm-22829854-Planta baixa - Térreo_
  1

  0
LINE
  5
12D
330
12B
100
AcDbEntity
  8
A-JAN-___-___-EXI
100
AcDbLine
 10
379.9999999999916
 20
-220.0000000000026
 30
0.0
 11
379.9999999999916
 21
220.0000000009629
 31
0.0
1001
REVIT
1002
{
1070
     1
1000
22828814
1002
}
1002
{
1070
     5
1000
22369135
1002
}
  0
LINE
  5
12E
330
12B
100
AcDbEntity
  8
A-JAN-___-___-EXI
100
AcDbLine
 10
379.9999999999916
 20
220.0000000009629
 30
0.0
 11
349.9999999999919
 21
220.0000000009628
 31
0.0
1001
REVIT
1002
{
1070
     1
1000
22828814
1002
}
1002
{
1070
     5
1000
22369135
1002
}
  0
LINE
  5
12F
330
12B
100
AcDbEntity
  8
A-JAN-___-___-EXI
100
AcDbLine
 10
349.9999999999919
 20
220.0000000009628
 30
0.0
 11
349.9999999999919
 21
-220.0000000000027
 31
0.0
1001
REVIT
1002
{
1070
     1
1000
22828814
1002
}
1002
{
1070
     5
1000
22369135
1002
}
  0
LINE
  5
130
330
12B
100
AcDbEntity
  8
A-JAN-___-___-EXI
100
AcDbLine
 10
349.9999999999919
 20
-220.0000000000027
 30
0.0
 11
379.9999999999916
 21
-220.0000000000026
 31
0.0
1001
REVIT
1002
{
1070
     1
1000
22828814
1002
}
1002
{
1070
     5
1000
22369135
1002
}
  0
LINE
  5
131
330
12B
100
AcDbEntity
  8
A-JAN-___-___-EXI
100
AcDbLine
 10
-380.0000000000078
 20
-220.0000000000044
 30
0.0
 11
-350.0000000000071
 21
-220.0000000000043
 31
0.0
1001
REVIT
1002
{
1070
     1
1000
22828814
1002
}
1002
{
1070
     5
1000
22369135
1002
}
  0
LINE
  5
132
330
12B
100
AcDbEntity
  8
A-JAN-___-___-EXI
100
AcDbLine
 10
-350.0000000000071
 20
-220.0000000000043
 30
0.0
 11
-350.0000000000071
 21
220.0000000009612
 31
0.0
1001
REVIT
1002
{
1070
     1
1000
22828814
1002
}
1002
{
1070
     5
1000
22369135
1002
}
  0
LINE
  5
133
330
12B
100
AcDbEntity
  8
A-JAN-___-___-EXI
100
AcDbLine
 10
-350.0000000000071
 20
220.0000000009612
 30
0.0
 11
-380.0000000000078
 21
220.0000000009611
 31
0.0
1001
REVIT
1002
{
1070
     1
1000
22828814
1002
}
1002
{
1070
     5
1000
22369135
1002
}
  0
LINE
  5
134
330
12B
100
AcDbEntity
  8
A-JAN-___-___-EXI
100
AcDbLine
 10
-380.0000000000078
 20
220.0000000009611
 30
0.0
 11
-380.0000000000078
 21
-220.0000000000044
 31
0.0
1001
REVIT
1002
{
1070
     1
1000
22828814
1002
}
1002
{
1070
     5
1000
22369135
1002
}
  0
LINE
  5
135
330
12B
100
AcDbEntity
  8
A-JAN-___-___-EXI
100
AcDbLine
 10
-318.0000000000078
 20
916.0000000009612
 30
0.0
 11
-348.0000000000075
 21
916.0000000009612
 31
0.0
1001
REVIT
1002
{
1070
     1
1000
22828814
1002
}
1002
{
1070
     5
1000
22369135
1002
}
  0
LINE
  5
136
330
12B
100
AcDbEntity
  8
A-JAN-___-___-EXI
100
AcDbLine
 10
-348.0000000000075
 20
916.0000000009612
 30
0.0
 11
-348.0000000000075
 21
220.0000000009612
 31
0.0
1001
REVIT
1002
{
1070
     1
1000
22828814
1002
}
1002
{
1070
     5
1000
22369135
1002
}
  0
LINE
  5
137
330
12B
100
AcDbEntity
  8
A-JAN-___-___-EXI
100
AcDbLine
 10
-348.0000000000075
 20
220.0000000009612
 30
0.0
 11
-318.0000000000078
 21
220.0000000009613
 31
0.0
1001
REVIT
1002
{
1070
     1
1000
22828814
1002
}
1002
{
1070
     5
1000
22369135
1002
}
  0
LINE
  5
138
330
12B
100
AcDbEntity
  8
A-JAN-___-___-EXI
100
AcDbLine
 10
-318.0000000000078
 20
220.0000000009613
 30
0.0
 11
-318.0000000000078
 21
916.0000000009612
 31
0.0
1001
REVIT
1002
{
1070
     1
1000
22828814
1002
}
1002
{
1070
     5
1000
22369135
1002
}
  0
ARC
  5
13A
330
12B
100
AcDbEntity
  8
A-ALV-___-___-EXI
100
AcDbCircle
 10
-348.0000000000075
 20
220.0000000009612
 30
0.0
 40
696.0000000000012
100
AcDbArc
 50
0.0000000000000191
 51
90.00000000000005
1001
REVIT
1002
{
1070
     1
1000
22828814
1002
}
1002
{
1070
     5
1000
22369135
1002
}
1002
{
1070
     3
1000
-2000027
1002
}
  0
ENDBLK
  5
13C
330
12B
100
AcDbEntity
  8
0
100
AcDbBlockEnd
  0
BLOCK
  5
14C
330
13E
100
AcDbEntity
  8
0
100
AcDbBlockBegin
  2
porta multiplas_original - Simples - 70 cm-22829574-Planta baixa - Térreo_
 70
     0
 10
0.0
 20
0.0
 30
0.0
  3
porta multiplas_original - Simples - 70 cm-22829574-Planta baixa - Térreo_
  1

  0
LINE
  5
13F
330
13E
100
AcDbEntity
  8
A-JAN-___-___-EXI
100
AcDbLine
 10
-380.0000000000078
 20
-75.0000000000027
 30
0.0
 11
-350.0000000000071
 21
-75.00000000000262
 31
0.0
1001
REVIT
1002
{
1070
     1
1000
22828953
1002
}
1002
{
1070
     5
1000
22369135
1002
}
  0
LINE
  5
140
330
13E
100
AcDbEntity
  8
A-JAN-___-___-EXI
100
AcDbLine
 10
-350.0000000000071
 20
-75.00000000000262
 30
0.0
 11
-350.0000000000071
 21
74.99999999998492
 31
0.0
1001
REVIT
1002
{
1070
     1
1000
22828953
1002
}
1002
{
1070
     5
1000
22369135
1002
}
  0
LINE
  5
141
330
13E
100
AcDbEntity
  8
A-JAN-___-___-EXI
100
AcDbLine
 10
-350.0000000000071
 20
74.99999999998492
 30
0.0
 11
-380.0000000000078
 21
74.99999999998485
 31
0.0
1001
REVIT
1002
{
1070
     1
1000
22828953
1002
}
1002
{
1070
     5
1000
22369135
1002
}
  0
LINE
  5
142
330
13E
100
AcDbEntity
  8
A-JAN-___-___-EXI
100
AcDbLine
 10
-380.0000000000078
 20
74.99999999998485
 30
0.0
 11
-380.0000000000078
 21
-75.0000000000027
 31
0.0
1001
REVIT
1002
{
1070
     1
1000
22828953
1002
}
1002
{
1070
     5
1000
22369135
1002
}
  0
LINE
  5
143
330
13E
100
AcDbEntity
  8
A-JAN-___-___-EXI
100
AcDbLine
 10
379.9999999999916
 20
-75.00000000000092
 30
0.0
 11
379.9999999999916
 21
74.9999999999823
 31
0.0
1001
REVIT
1002
{
1070
     1
1000
22828953
1002
}
1002
{
1070
     5
1000
22369135
1002
}
  0
LINE
  5
144
330
13E
100
AcDbEntity
  8
A-JAN-___-___-EXI
100
AcDbLine
 10
379.9999999999916
 20
74.9999999999823
 30
0.0
 11
349.9999999999919
 21
74.99999999998223
 31
0.0
1001
REVIT
1002
{
1070
     1
1000
22828953
1002
}
1002
{
1070
     5
1000
22369135
1002
}
  0
LINE
  5
145
330
13E
100
AcDbEntity
  8
A-JAN-___-___-EXI
100
AcDbLine
 10
349.9999999999919
 20
74.99999999998223
 30
0.0
 11
349.9999999999919
 21
-75.00000000000099
 31
0.0
1001
REVIT
1002
{
1070
     1
1000
22828953
1002
}
1002
{
1070
     5
1000
22369135
1002
}
  0
LINE
  5
146
330
13E
100
AcDbEntity
  8
A-JAN-___-___-EXI
100
AcDbLine
 10
349.9999999999919
 20
-75.00000000000099
 30
0.0
 11
379.9999999999916
 21
-75.00000000000092
 31
0.0
1001
REVIT
1002
{
1070
     1
1000
22828953
1002
}
1002
{
1070
     5
1000
22369135
1002
}
  0
LINE
  5
147
330
13E
100
AcDbEntity
  8
A-JAN-___-___-EXI
100
AcDbLine
 10
-318.0000000000078
 20
770.9999999999827
 30
0.0
 11
-348.0000000000086
 21
770.9999999999827
 31
0.0
1001
REVIT
1002
{
1070
     1
1000
22828953
1002
}
1002
{
1070
     5
1000
22369135
1002
}
  0
LINE
  5
148
330
13E
100
AcDbEntity
  8
A-JAN-___-___-EXI
100
AcDbLine
 10
-348.0000000000086
 20
770.9999999999827
 30
0.0
 11
-348.0000000000086
 21
74.99999999998492
 31
0.0
1001
REVIT
1002
{
1070
     1
1000
22828953
1002
}
1002
{
1070
     5
1000
22369135
1002
}
  0
LINE
  5
149
330
13E
100
AcDbEntity
  8
A-JAN-___-___-EXI
100
AcDbLine
 10
-348.0000000000086
 20
74.99999999998492
 30
0.0
 11
-318.0000000000078
 21
74.99999999998499
 31
0.0
1001
REVIT
1002
{
1070
     1
1000
22828953
1002
}
1002
{
1070
     5
1000
22369135
1002
}
  0
LINE
  5
14A
330
13E
100
AcDbEntity
  8
A-JAN-___-___-EXI
100
AcDbLine
 10
-318.0000000000078
 20
74.99999999998499
 30
0.0
 11
-318.0000000000078
 21
770.9999999999827
 31
0.0
1001
REVIT
1002
{
1070
     1
1000
22828953
1002
}
1002
{
1070
     5
1000
22369135
1002
}
  0
ARC
  5
14B
330
13E
100
AcDbEntity
  8
A-ALV-___-___-EXI
100
AcDbCircle
 10
-348.0000000000086
 20
74.99999999998492
 30
0.0
 40
696.0000000000004
100
AcDbArc
 50
0.0000000000000191
 51
90.00000000000003
1001
REVIT
1002
{
1070
     1
1000
22828953
1002
}
1002
{
1070
     5
1000
22369135
1002
}
1002
{
1070
     3
1000
-2000027
1002
}
  0
ENDBLK
  5
14D
330
13E
100
AcDbEntity
  8
0
100
AcDbBlockEnd
  0
BLOCK
  5
15D
330
14F
100
AcDbEntity
  8
0
100
AcDbBlockBegin
  2
porta multiplas_original - Simples - 80 cm-22829765-Planta baixa - Térreo_
 70
     0
 10
0.0
 20
0.0
 30
0.0
  3
porta multiplas_original - Simples - 80 cm-22829765-Planta baixa - Térreo_
  1

  0
LINE
  5
150
330
14F
100
AcDbEntity
  8
A-JAN-___-___-EXI
100
AcDbLine
 10
399.9999999999914
 20
74.99999999999968
 30
0.0
 11
429.999999999992
 21
74.99999999999975
 31
0.0
1001
REVIT
1002
{
1070
     1
1000
22829022
1002
}
1002
{
1070
     5
1000
22369145
1002
}
  0
LINE
  5
151
330
14F
100
AcDbEntity
  8
A-JAN-___-___-EXI
100
AcDbLine
 10
399.9999999999914
 20
-74.99999999998355
 30
0.0
 11
399.9999999999914
 21
74.99999999999968
 31
0.0
1001
REVIT
1002
{
1070
     1
1000
22829022
1002
}
1002
{
1070
     5
1000
22369145
1002
}
  0
LINE
  5
152
330
14F
100
AcDbEntity
  8
A-JAN-___-___-EXI
100
AcDbLine
 10
429.999999999992
 20
-74.99999999998347
 30
0.0
 11
399.9999999999914
 21
-74.99999999998355
 31
0.0
1001
REVIT
1002
{
1070
     1
1000
22829022
1002
}
1002
{
1070
     5
1000
22369145
1002
}
  0
LINE
  5
153
330
14F
100
AcDbEntity
  8
A-JAN-___-___-EXI
100
AcDbLine
 10
429.999999999992
 20
74.99999999999975
 30
0.0
 11
429.999999999992
 21
-74.99999999998347
 31
0.0
1001
REVIT
1002
{
1070
     1
1000
22829022
1002
}
1002
{
1070
     5
1000
22369145
1002
}
  0
LINE
  5
154
330
14F
100
AcDbEntity
  8
A-JAN-___-___-EXI
100
AcDbLine
 10
-430.0000000000072
 20
-74.99999999998983
 30
0.0
 11
-430.0000000000072
 21
74.99999999999772
 31
0.0
1001
REVIT
1002
{
1070
     1
1000
22829022
1002
}
1002
{
1070
     5
1000
22369145
1002
}
  0
LINE
  5
155
330
14F
100
AcDbEntity
  8
A-JAN-___-___-EXI
100
AcDbLine
 10
-400.0000000000076
 20
-74.99999999998975
 30
0.0
 11
-430.0000000000072
 21
-74.99999999998983
 31
0.0
1001
REVIT
1002
{
1070
     1
1000
22829022
1002
}
1002
{
1070
     5
1000
22369145
1002
}
  0
LINE
  5
156
330
14F
100
AcDbEntity
  8
A-JAN-___-___-EXI
100
AcDbLine
 10
-400.0000000000076
 20
74.99999999999781
 30
0.0
 11
-400.0000000000076
 21
-74.99999999998975
 31
0.0
1001
REVIT
1002
{
1070
     1
1000
22829022
1002
}
1002
{
1070
     5
1000
22369145
1002
}
  0
LINE
  5
157
330
14F
100
AcDbEntity
  8
A-JAN-___-___-EXI
100
AcDbLine
 10
-430.0000000000072
 20
74.99999999999772
 30
0.0
 11
-400.0000000000076
 21
74.99999999999781
 31
0.0
1001
REVIT
1002
{
1070
     1
1000
22829022
1002
}
1002
{
1070
     5
1000
22369145
1002
}
  0
LINE
  5
158
330
14F
100
AcDbEntity
  8
A-JAN-___-___-EXI
100
AcDbLine
 10
-368.0000000000084
 20
-74.99999999998967
 30
0.0
 11
-368.0000000000084
 21
-870.9999999999906
 31
0.0
1001
REVIT
1002
{
1070
     1
1000
22829022
1002
}
1002
{
1070
     5
1000
22369145
1002
}
  0
LINE
  5
159
330
14F
100
AcDbEntity
  8
A-JAN-___-___-EXI
100
AcDbLine
 10
-398.0000000000081
 20
-74.99999999998975
 30
0.0
 11
-368.0000000000084
 21
-74.99999999998967
 31
0.0
1001
REVIT
1002
{
1070
     1
1000
22829022
1002
}
1002
{
1070
     5
1000
22369145
1002
}
  0
LINE
  5
15A
330
14F
100
AcDbEntity
  8
A-JAN-___-___-EXI
100
AcDbLine
 10
-398.0000000000091
 20
-870.9999999999906
 30
0.0
 11
-398.0000000000091
 21
-74.99999999998975
 31
0.0
1001
REVIT
1002
{
1070
     1
1000
22829022
1002
}
1002
{
1070
     5
1000
22369145
1002
}
  0
LINE
  5
15B
330
14F
100
AcDbEntity
  8
A-JAN-___-___-EXI
100
AcDbLine
 10
-368.0000000000084
 20
-870.9999999999906
 30
0.0
 11
-398.0000000000091
 21
-870.9999999999906
 31
0.0
1001
REVIT
1002
{
1070
     1
1000
22829022
1002
}
1002
{
1070
     5
1000
22369145
1002
}
  0
ARC
  5
15C
330
14F
100
AcDbEntity
  8
A-ALV-___-___-EXI
100
AcDbCircle
 10
-398.0000000000081
 20
-74.99999999998975
 30
0.0
 40
796.000000000001
100
AcDbArc
 50
269.9999999999998
 51
0.0000000000001018
1001
REVIT
1002
{
1070
     1
1000
22829022
1002
}
1002
{
1070
     5
1000
22369145
1002
}
1002
{
1070
     3
1000
-2000027
1002
}
  0
ENDBLK
  5
15E
330
14F
100
AcDbEntity
  8
0
100
AcDbBlockEnd
  0
BLOCK
  5
16E
330
160
100
AcDbEntity
  8
0
100
AcDbBlockBegin
  2
porta multiplas_original - Simples - 80 cm-22829748-Planta baixa - Térreo_
 70
     0
 10
0.0
 20
0.0
 30
0.0
  3
porta multiplas_original - Simples - 80 cm-22829748-Planta baixa - Térreo_
  1

  0
LINE
  5
161
330
160
100
AcDbEntity
  8
A-JAN-___-___-EXI
100
AcDbLine
 10
429.999999999992
 20
-75.00000000000079
 30
0.0
 11
429.999999999992
 21
74.99999999998242
 31
0.0
1001
REVIT
1002
{
1070
     1
1000
22829088
1002
}
1002
{
1070
     5
1000
22369145
1002
}
  0
LINE
  5
162
330
160
100
AcDbEntity
  8
A-JAN-___-___-EXI
100
AcDbLine
 10
429.999999999992
 20
74.99999999998242
 30
0.0
 11
399.9999999999914
 21
74.99999999998235
 31
0.0
1001
REVIT
1002
{
1070
     1
1000
22829088
1002
}
1002
{
1070
     5
1000
22369145
1002
}
  0
LINE
  5
163
330
160
100
AcDbEntity
  8
A-JAN-___-___-EXI
100
AcDbLine
 10
399.9999999999914
 20
74.99999999998235
 30
0.0
 11
399.9999999999914
 21
-75.00000000000088
 31
0.0
1001
REVIT
1002
{
1070
     1
1000
22829088
1002
}
1002
{
1070
     5
1000
22369145
1002
}
  0
LINE
  5
164
330
160
100
AcDbEntity
  8
A-JAN-___-___-EXI
100
AcDbLine
 10
399.9999999999914
 20
-75.00000000000088
 30
0.0
 11
429.999999999992
 21
-75.00000000000079
 31
0.0
1001
REVIT
1002
{
1070
     1
1000
22829088
1002
}
1002
{
1070
     5
1000
22369145
1002
}
  0
LINE
  5
165
330
160
100
AcDbEntity
  8
A-JAN-___-___-EXI
100
AcDbLine
 10
-430.0000000000072
 20
-75.00000000000283
 30
0.0
 11
-400.0000000000076
 21
-75.00000000000274
 31
0.0
1001
REVIT
1002
{
1070
     1
1000
22829088
1002
}
1002
{
1070
     5
1000
22369145
1002
}
  0
LINE
  5
166
330
160
100
AcDbEntity
  8
A-JAN-___-___-EXI
100
AcDbLine
 10
-400.0000000000076
 20
-75.00000000000274
 30
0.0
 11
-400.0000000000076
 21
74.99999999998481
 31
0.0
1001
REVIT
1002
{
1070
     1
1000
22829088
1002
}
1002
{
1070
     5
1000
22369145
1002
}
  0
LINE
  5
167
330
160
100
AcDbEntity
  8
A-JAN-___-___-EXI
100
AcDbLine
 10
-400.0000000000076
 20
74.99999999998481
 30
0.0
 11
-430.0000000000072
 21
74.99999999998474
 31
0.0
1001
REVIT
1002
{
1070
     1
1000
22829088
1002
}
1002
{
1070
     5
1000
22369145
1002
}
  0
LINE
  5
168
330
160
100
AcDbEntity
  8
A-JAN-___-___-EXI
100
AcDbLine
 10
-430.0000000000072
 20
74.99999999998474
 30
0.0
 11
-430.0000000000072
 21
-75.00000000000283
 31
0.0
1001
REVIT
1002
{
1070
     1
1000
22829088
1002
}
1002
{
1070
     5
1000
22369145
1002
}
  0
LINE
  5
169
330
160
100
AcDbEntity
  8
A-JAN-___-___-EXI
100
AcDbLine
 10
-368.0000000000084
 20
870.9999999999835
 30
0.0
 11
-398.0000000000091
 21
870.9999999999835
 31
0.0
1001
REVIT
1002
{
1070
     1
1000
22829088
1002
}
1002
{
1070
     5
1000
22369145
1002
}
  0
LINE
  5
16A
330
160
100
AcDbEntity
  8
A-JAN-___-___-EXI
100
AcDbLine
 10
-398.0000000000091
 20
870.9999999999835
 30
0.0
 11
-398.0000000000091
 21
74.99999999998481
 31
0.0
1001
REVIT
1002
{
1070
     1
1000
22829088
1002
}
1002
{
1070
     5
1000
22369145
1002
}
  0
LINE
  5
16B
330
160
100
AcDbEntity
  8
A-JAN-___-___-EXI
100
AcDbLine
 10
-398.0000000000081
 20
74.99999999998481
 30
0.0
 11
-368.0000000000084
 21
74.9999999999849
 31
0.0
1001
REVIT
1002
{
1070
     1
1000
22829088
1002
}
1002
{
1070
     5
1000
22369145
1002
}
  0
LINE
  5
16C
330
160
100
AcDbEntity
  8
A-JAN-___-___-EXI
100
AcDbLine
 10
-368.0000000000084
 20
74.9999999999849
 30
0.0
 11
-368.0000000000084
 21
870.9999999999835
 31
0.0
1001
REVIT
1002
{
1070
     1
1000
22829088
1002
}
1002
{
1070
     5
1000
22369145
1002
}
  0
ARC
  5
16D
330
160
100
AcDbEntity
  8
A-ALV-___-___-EXI
100
AcDbCircle
 10
-398.0000000000081
 20
74.99999999998481
 30
0.0
 40
796.0000000000008
100
AcDbArc
 50
0.0000000000000318
 51
90.00000000000003
1001
REVIT
1002
{
1070
     1
1000
22829088
1002
}
1002
{
1070
     5
1000
22369145
1002
}
1002
{
1070
     3
1000
-2000027
1002
}
  0
ENDBLK
  5
16F
330
160
100
AcDbEntity
  8
0
100
AcDbBlockEnd
  0
BLOCK
  5
17F
330
171
100
AcDbEntity
  8
0
100
AcDbBlockBegin
  2
porta multiplas_original - Simples - 60 cm-22829243-Planta baixa - Térreo_
 70
     0
 10
0.0
 20
0.0
 30
0.0
  3
porta multiplas_original - Simples - 60 cm-22829243-Planta baixa - Térreo_
  1

  0
LINE
  5
172
330
171
100
AcDbEntity
  8
A-JAN-___-___-EXI
100
AcDbLine
 10
299.9999999999925
 20
220.0000000000011
 30
0.0
 11
329.9999999999921
 21
220.0000000000012
 31
0.0
1001
REVIT
1002
{
1070
     1
1000
22829198
1002
}
1002
{
1070
     5
1000
22369133
1002
}
  0
LINE
  5
173
330
171
100
AcDbEntity
  8
A-JAN-___-___-EXI
100
AcDbLine
 10
299.9999999999925
 20
-220.0000000009644
 30
0.0
 11
299.9999999999925
 21
220.0000000000011
 31
0.0
1001
REVIT
1002
{
1070
     1
1000
22829198
1002
}
1002
{
1070
     5
1000
22369133
1002
}
  0
LINE
  5
174
330
171
100
AcDbEntity
  8
A-JAN-___-___-EXI
100
AcDbLine
 10
329.9999999999921
 20
-220.0000000009643
 30
0.0
 11
299.9999999999925
 21
-220.0000000009644
 31
0.0
1001
REVIT
1002
{
1070
     1
1000
22829198
1002
}
1002
{
1070
     5
1000
22369133
1002
}
  0
LINE
  5
175
330
171
100
AcDbEntity
  8
A-JAN-___-___-EXI
100
AcDbLine
 10
329.9999999999921
 20
220.0000000000012
 30
0.0
 11
329.9999999999921
 21
-220.0000000009643
 31
0.0
1001
REVIT
1002
{
1070
     1
1000
22829198
1002
}
1002
{
1070
     5
1000
22369133
1002
}
  0
LINE
  5
176
330
171
100
AcDbEntity
  8
A-JAN-___-___-EXI
100
AcDbLine
 10
-330.0000000000073
 20
-220.0000000009659
 30
0.0
 11
-330.0000000000073
 21
219.9999999999997
 31
0.0
1001
REVIT
1002
{
1070
     1
1000
22829198
1002
}
1002
{
1070
     5
1000
22369133
1002
}
  0
LINE
  5
177
330
171
100
AcDbEntity
  8
A-JAN-___-___-EXI
100
AcDbLine
 10
-300.0000000000076
 20
-220.0000000009658
 30
0.0
 11
-330.0000000000073
 21
-220.0000000009659
 31
0.0
1001
REVIT
1002
{
1070
     1
1000
22829198
1002
}
1002
{
1070
     5
1000
22369133
1002
}
  0
LINE
  5
178
330
171
100
AcDbEntity
  8
A-JAN-___-___-EXI
100
AcDbLine
 10
-300.0000000000076
 20
219.9999999999997
 30
0.0
 11
-300.0000000000076
 21
-220.0000000009658
 31
0.0
1001
REVIT
1002
{
1070
     1
1000
22829198
1002
}
1002
{
1070
     5
1000
22369133
1002
}
  0
LINE
  5
179
330
171
100
AcDbEntity
  8
A-JAN-___-___-EXI
100
AcDbLine
 10
-330.0000000000073
 20
219.9999999999997
 30
0.0
 11
-300.0000000000076
 21
219.9999999999997
 31
0.0
1001
REVIT
1002
{
1070
     1
1000
22829198
1002
}
1002
{
1070
     5
1000
22369133
1002
}
  0
LINE
  5
17A
330
171
100
AcDbEntity
  8
A-JAN-___-___-EXI
100
AcDbLine
 10
-268.0000000000084
 20
-220.0000000009657
 30
0.0
 11
-268.0000000000084
 21
-816.0000000009645
 31
0.0
1001
REVIT
1002
{
1070
     1
1000
22829198
1002
}
1002
{
1070
     5
1000
22369133
1002
}
  0
LINE
  5
17B
330
171
100
AcDbEntity
  8
A-JAN-___-___-EXI
100
AcDbLine
 10
-298.0000000000081
 20
-220.0000000009658
 30
0.0
 11
-268.0000000000084
 21
-220.0000000009657
 31
0.0
1001
REVIT
1002
{
1070
     1
1000
22829198
1002
}
1002
{
1070
     5
1000
22369133
1002
}
  0
LINE
  5
17C
330
171
100
AcDbEntity
  8
A-JAN-___-___-EXI
100
AcDbLine
 10
-298.0000000000081
 20
-816.0000000009645
 30
0.0
 11
-298.0000000000081
 21
-220.0000000009658
 31
0.0
1001
REVIT
1002
{
1070
     1
1000
22829198
1002
}
1002
{
1070
     5
1000
22369133
1002
}
  0
LINE
  5
17D
330
171
100
AcDbEntity
  8
A-JAN-___-___-EXI
100
AcDbLine
 10
-268.0000000000084
 20
-816.0000000009645
 30
0.0
 11
-298.0000000000081
 21
-816.0000000009645
 31
0.0
1001
REVIT
1002
{
1070
     1
1000
22829198
1002
}
1002
{
1070
     5
1000
22369133
1002
}
  0
ARC
  5
17E
330
171
100
AcDbEntity
  8
A-ALV-___-___-EXI
100
AcDbCircle
 10
-298.0000000000081
 20
-220.0000000009658
 30
0.0
 40
596.0
100
AcDbArc
 50
269.9999999999997
 51
0.0000000000000636
1001
REVIT
1002
{
1070
     1
1000
22829198
1002
}
1002
{
1070
     5
1000
22369133
1002
}
1002
{
1070
     3
1000
-2000027
1002
}
  0
ENDBLK
  5
180
330
171
100
AcDbEntity
  8
0
100
AcDbBlockEnd
  0
BLOCK
  5
191
330
183
100
AcDbEntity
  8
0
100
AcDbBlockBegin
  2
porta multiplas_original - Simples - 60 cm-22829012-Planta baixa - Térreo_
 70
     0
 10
0.0
 20
0.0
 30
0.0
  3
porta multiplas_original - Simples - 60 cm-22829012-Planta baixa - Térreo_
  1

  0
LINE
  5
184
330
183
100
AcDbEntity
  8
A-JAN-___-___-EXI
100
AcDbLine
 10
-330.0000000000073
 20
-75.00000000000259
 30
0.0
 11
-300.0000000000076
 21
-75.00000000000252
 31
0.0
1001
REVIT
1002
{
1070
     1
1000
22829323
1002
}
1002
{
1070
     5
1000
22369133
1002
}
  0
LINE
  5
185
330
183
100
AcDbEntity
  8
A-JAN-___-___-EXI
100
AcDbLine
 10
-300.0000000000076
 20
-75.00000000000252
 30
0.0
 11
-300.0000000000076
 21
74.99999999998504
 31
0.0
1001
REVIT
1002
{
1070
     1
1000
22829323
1002
}
1002
{
1070
     5
1000
22369133
1002
}
  0
LINE
  5
186
330
183
100
AcDbEntity
  8
A-JAN-___-___-EXI
100
AcDbLine
 10
-300.0000000000076
 20
74.99999999998504
 30
0.0
 11
-330.0000000000073
 21
74.99999999998497
 31
0.0
1001
REVIT
1002
{
1070
     1
1000
22829323
1002
}
1002
{
1070
     5
1000
22369133
1002
}
  0
LINE
  5
187
330
183
100
AcDbEntity
  8
A-JAN-___-___-EXI
100
AcDbLine
 10
-330.0000000000073
 20
74.99999999998497
 30
0.0
 11
-330.0000000000073
 21
-75.00000000000259
 31
0.0
1001
REVIT
1002
{
1070
     1
1000
22829323
1002
}
1002
{
1070
     5
1000
22369133
1002
}
  0
LINE
  5
188
330
183
100
AcDbEntity
  8
A-JAN-___-___-EXI
100
AcDbLine
 10
329.9999999999921
 20
-75.00000000000103
 30
0.0
 11
329.9999999999921
 21
74.9999999999822
 31
0.0
1001
REVIT
1002
{
1070
     1
1000
22829323
1002
}
1002
{
1070
     5
1000
22369133
1002
}
  0
LINE
  5
189
330
183
100
AcDbEntity
  8
A-JAN-___-___-EXI
100
AcDbLine
 10
329.9999999999921
 20
74.9999999999822
 30
0.0
 11
299.9999999999914
 21
74.99999999998212
 31
0.0
1001
REVIT
1002
{
1070
     1
1000
22829323
1002
}
1002
{
1070
     5
1000
22369133
1002
}
  0
LINE
  5
18A
330
183
100
AcDbEntity
  8
A-JAN-___-___-EXI
100
AcDbLine
 10
299.9999999999914
 20
74.99999999998212
 30
0.0
 11
299.9999999999914
 21
-75.00000000000111
 31
0.0
1001
REVIT
1002
{
1070
     1
1000
22829323
1002
}
1002
{
1070
     5
1000
22369133
1002
}
  0
LINE
  5
18B
330
183
100
AcDbEntity
  8
A-JAN-___-___-EXI
100
AcDbLine
 10
299.9999999999914
 20
-75.00000000000111
 30
0.0
 11
329.9999999999921
 21
-75.00000000000103
 31
0.0
1001
REVIT
1002
{
1070
     1
1000
22829323
1002
}
1002
{
1070
     5
1000
22369133
1002
}
  0
LINE
  5
18C
330
183
100
AcDbEntity
  8
A-JAN-___-___-EXI
100
AcDbLine
 10
-268.0000000000084
 20
670.9999999999838
 30
0.0
 11
-298.0000000000091
 21
670.9999999999837
 31
0.0
1001
REVIT
1002
{
1070
     1
1000
22829323
1002
}
1002
{
1070
     5
1000
22369133
1002
}
  0
LINE
  5
18D
330
183
100
AcDbEntity
  8
A-JAN-___-___-EXI
100
AcDbLine
 10
-298.0000000000091
 20
670.9999999999837
 30
0.0
 11
-298.0000000000091
 21
74.99999999998505
 31
0.0
1001
REVIT
1002
{
1070
     1
1000
22829323
1002
}
1002
{
1070
     5
1000
22369133
1002
}
  0
LINE
  5
18E
330
183
100
AcDbEntity
  8
A-JAN-___-___-EXI
100
AcDbLine
 10
-298.0000000000091
 20
74.99999999998505
 30
0.0
 11
-268.0000000000084
 21
74.99999999998512
 31
0.0
1001
REVIT
1002
{
1070
     1
1000
22829323
1002
}
1002
{
1070
     5
1000
22369133
1002
}
  0
LINE
  5
18F
330
183
100
AcDbEntity
  8
A-JAN-___-___-EXI
100
AcDbLine
 10
-268.0000000000084
 20
74.99999999998512
 30
0.0
 11
-268.0000000000084
 21
670.9999999999838
 31
0.0
1001
REVIT
1002
{
1070
     1
1000
22829323
1002
}
1002
{
1070
     5
1000
22369133
1002
}
  0
ARC
  5
190
330
183
100
AcDbEntity
  8
A-ALV-___-___-EXI
100
AcDbCircle
 10
-298.0000000000091
 20
74.99999999998505
 30
0.0
 40
596.0000000000007
100
AcDbArc
 50
0.0000000000000191
 51
90.00000000000003
1001
REVIT
1002
{
1070
     1
1000
22829323
1002
}
1002
{
1070
     5
1000
22369133
1002
}
1002
{
1070
     3
1000
-2000027
1002
}
  0
ENDBLK
  5
192
330
183
100
AcDbEntity
  8
0
100
AcDbBlockEnd
  0
BLOCK
  5
1AC
330
1A6
100
AcDbEntity
  8
0
100
AcDbBlockBegin
  2
SVG - A4-22853593-Não nomeada
 70
     0
 10
0.0
 20
0.0
 30
0.0
  3
SVG - A4-22853593-Não nomeada
  1

  0
LINE
  5
1A8
330
1A6
100
AcDbEntity
  8
A-VEG-___-___-EXI
100
AcDbLine
 10
64.29285070883699
 20
356.4999999999859
 30
0.0
 11
64.29285070883699
 21
59.49999999998593
 31
0.0
1001
REVIT
1002
{
1070
     1
1000
22853614
1002
}
1002
{
1070
     5
1000
22853593
1002
}
1002
{
1070
     3
1000
-2000281
1002
}
  0
LINE
  5
1A9
330
1A6
100
AcDbEntity
  8
A-VEG-___-___-EXI
100
AcDbLine
 10
64.29285070883699
 20
59.49999999998593
 30
0.0
 11
274.292850708837
 21
59.49999999998593
 31
0.0
1001
REVIT
1002
{
1070
     1
1000
22853614
1002
}
1002
{
1070
     5
1000
22853593
1002
}
1002
{
1070
     3
1000
-2000281
1002
}
  0
LINE
  5
1AA
330
1A6
100
AcDbEntity
  8
A-VEG-___-___-EXI
100
AcDbLine
 10
274.292850708837
 20
59.49999999998593
 30
0.0
 11
274.292850708837
 21
356.4999999999859
 31
0.0
1001
REVIT
1002
{
1070
     1
1000
22853614
1002
}
1002
{
1070
     5
1000
22853593
1002
}
1002
{
1070
     3
1000
-2000281
1002
}
  0
LINE
  5
1AB
330
1A6
100
AcDbEntity
  8
A-VEG-___-___-EXI
100
AcDbLine
 10
274.292850708837
 20
356.4999999999859
 30
0.0
 11
64.29285070883699
 21
356.4999999999859
 31
0.0
1001
REVIT
1002
{
1070
     1
1000
22853614
1002
}
1002
{
1070
     5
1000
22853593
1002
}
1002
{
1070
     3
1000
-2000281
1002
}
  0
ENDBLK
  5
1AD
330
1A6
100
AcDbEntity
  8
0
100
AcDbBlockEnd
  0
ENDSEC
  0
SECTION
  2
ENTITIES
  0
HATCH
  5
8E
330
70
100
AcDbEntity
  8
A-ALV-___-___-EXI
 62
    11
100
AcDbHatch
 10
0.0
 20
0.0
 30
0.0
210
0.0
220
0.0
230
1.0
  2
SOLID
 70
     1
 71
     0
 91
        2
 92
        1
 93
        4
 72
     1
 10
-8156.08425834182
 20
20211.75371427695
 11
-5746.084258341755
 21
20211.75371427696
 72
     1
 10
-5746.084258341755
 20
20211.75371427696
 11
-5746.084258341755
 21
20361.75371427695
 72
     1
 10
-5746.084258341755
 20
20361.75371427695
 11
-8156.08425834182
 21
20361.75371427695
 72
     1
 10
-8156.08425834182
 20
20361.75371427695
 11
-8156.08425834182
 21
20211.75371427695
 97
        0
 92
        1
 93
        4
 72
     1
 10
-4986.084258341757
 20
20211.75371427695
 11
-4236.084258341754
 21
20211.75371427695
 72
     1
 10
-4236.084258341754
 20
20211.75371427695
 11
-4236.084258341754
 21
20361.75371427695
 72
     1
 10
-4236.084258341754
 20
20361.75371427695
 11
-4986.084258341757
 21
20361.75371427695
 72
     1
 10
-4986.084258341757
 20
20361.75371427695
 11
-4986.084258341757
 21
20211.75371427695
 97
        0
 75
     0
 76
     1
 98
        1
 10
0.0
 20
0.0
450
        0
451
        0
460
0.0
461
0.0
452
        0
462
0.0
453
        0
470

1001
REVIT
1002
{
1070
     1
1000
22613433
1002
}
1002
{
1070
     5
1000
3324767
1002
}
1002
{
1070
     2
1000
-2000011
1002
}
1002
{
1070
     3
1000
-2000588
1002
}
  0
HATCH
  5
94
330
70
100
AcDbEntity
  8
A-ALV-___-___-EXI
 62
    11
100
AcDbHatch
 10
0.0
 20
0.0
 30
0.0
210
0.0
220
0.0
230
1.0
  2
SOLID
 70
     1
 71
     0
 91
        1
 92
        1
 93
        5
 72
     1
 10
-4236.08425834176
 20
10601.75371427696
 11
-4236.084258341757
 21
10751.75371427696
 72
     1
 10
-4236.084258341757
 20
10751.75371427696
 11
-6936.084258341793
 21
10751.75371427696
 72
     1
 10
-6936.084258341793
 20
10751.75371427696
 11
-6936.084258341796
 21
10601.75371427696
 72
     1
 10
-6936.084258341796
 20
10601.75371427696
 11
-6145.998166023803
 21
10601.75371427696
 72
     1
 10
-6145.998166023803
 20
10601.75371427696
 11
-4236.08425834176
 21
10601.75371427696
 97
        0
 75
     0
 76
     1
 98
        1
 10
0.0
 20
0.0
450
        0
451
        0
460
0.0
461
0.0
452
        0
462
0.0
453
        0
470

1001
REVIT
1002
{
1070
     1
1000
22613679
1002
}
1002
{
1070
     5
1000
3324767
1002
}
1002
{
1070
     2
1000
-2000011
1002
}
1002
{
1070
     3
1000
-2000588
1002
}
  0
HATCH
  5
9D
330
70
100
AcDbEntity
  8
A-ALV-___-___-EXI
 62
    11
100
AcDbHatch
 10
0.0
 20
0.0
 30
0.0
210
0.0
220
0.0
230
1.0
  2
SOLID
 70
     1
 71
     0
 91
        2
 92
        1
 93
        4
 72
     1
 10
-8146.084258341794
 20
8251.753714276949
 11
-8146.084258341792
 21
8401.753714276951
 72
     1
 10
-8146.084258341792
 20
8401.753714276951
 11
-8156.084258341792
 21
8401.753714276951
 72
     1
 10
-8156.084258341792
 20
8401.753714276951
 11
-8156.084258341792
 21
8251.753714276949
 72
     1
 10
-8156.084258341792
 20
8251.753714276949
 11
-8146.084258341794
 21
8251.753714276949
 97
        0
 92
        1
 93
        4
 72
     1
 10
-7386.084258341792
 20
8251.753714276953
 11
-4236.084258341763
 21
8251.753714276958
 72
     1
 10
-4236.084258341763
 20
8251.753714276958
 11
-4236.084258341763
 21
8401.753714276958
 72
     1
 10
-4236.084258341763
 20
8401.753714276958
 11
-7386.084258341795
 21
8401.753714276953
 72
     1
 10
-7386.084258341795
 20
8401.753714276953
 11
-7386.084258341792
 21
8251.753714276953
 97
        0
 75
     0
 76
     1
 98
        1
 10
0.0
 20
0.0
450
        0
451
        0
460
0.0
461
0.0
452
        0
462
0.0
453
        0
470

1001
REVIT
1002
{
1070
     1
1000
22616309
1002
}
1002
{
1070
     5
1000
3324767
1002
}
1002
{
1070
     2
1000
-2000011
1002
}
1002
{
1070
     3
1000
-2000588
1002
}
  0
HATCH
  5
A2
330
70
100
AcDbEntity
  8
A-ALV-___-___-EXI
 62
    11
100
AcDbHatch
 10
0.0
 20
0.0
 30
0.0
210
0.0
220
0.0
230
1.0
  2
SOLID
 70
     1
 71
     0
 91
        1
 92
        1
 93
        4
 72
     1
 10
-4236.084258341764
 20
4411.753714276947
 11
-4236.084258341764
 21
4851.753714276943
 72
     1
 10
-4236.084258341764
 20
4851.753714276943
 11
-4616.084258341765
 21
4851.753714276944
 72
     1
 10
-4616.084258341765
 20
4851.753714276944
 11
-4616.084258341765
 21
4411.753714276945
 72
     1
 10
-4616.084258341765
 20
4411.753714276945
 11
-4236.084258341764
 21
4411.753714276947
 97
        0
 75
     0
 76
     1
 98
        1
 10
0.0
 20
0.0
450
        0
451
        0
460
0.0
461
0.0
452
        0
462
0.0
453
        0
470

1001
REVIT
1002
{
1070
     1
1000
22643473
1002
}
1002
{
1070
     5
1000
22422765
1002
}
1002
{
1070
     2
1000
-2000011
1002
}
1002
{
1070
     3
1000
-2000588
1002
}
  0
HATCH
  5
B0
330
70
100
AcDbEntity
  8
A-ALV-___-___-EXI
 62
    11
100
AcDbHatch
 10
0.0
 20
0.0
 30
0.0
210
0.0
220
0.0
230
1.0
  2
SOLID
 70
     1
 71
     0
 91
        3
 92
        1
 93
        4
 72
     1
 10
-7086.084258341793
 20
8401.753714276953
 11
-6936.084258341788
 21
8401.753714276956
 72
     1
 10
-6936.084258341788
 20
8401.753714276956
 11
-6936.084258341789
 21
8821.753714276949
 72
     1
 10
-6936.084258341789
 20
8821.753714276949
 11
-7086.084258341795
 21
8821.753714276956
 72
     1
 10
-7086.084258341795
 20
8821.753714276956
 11
-7086.084258341793
 21
8401.753714276953
 97
        0
 92
        1
 93
        5
 72
     1
 10
-7086.084258341796
 20
9681.75371427695
 11
-6936.084258341792
 21
9681.753714276954
 72
     1
 10
-6936.084258341792
 20
9681.753714276954
 11
-6936.084258341797
 21
13481.75371427694
 72
     1
 10
-6936.084258341797
 20
13481.75371427694
 11
-7086.084258341798
 21
13481.75371427694
 72
     1
 10
-7086.084258341798
 20
13481.75371427694
 11
-7086.084258341795
 21
11779.92783540624
 72
     1
 10
-7086.084258341795
 20
11779.92783540624
 11
-7086.084258341796
 21
9681.75371427695
 97
        0
 92
        1
 93
        4
 72
     1
 10
-7086.084258341803
 20
14341.75371427694
 11
-6936.084258341804
 21
14341.75371427694
 72
     1
 10
-6936.084258341804
 20
14341.75371427694
 11
-6936.084258341807
 21
15541.75371427694
 72
     1
 10
-6936.084258341807
 20
15541.75371427694
 11
-7086.08425834181
 21
15541.75371427694
 72
     1
 10
-7086.08425834181
 20
15541.75371427694
 11
-7086.084258341803
 21
14341.75371427694
 97
        0
 75
     0
 76
     1
 98
        1
 10
0.0
 20
0.0
450
        0
451
        0
460
0.0
461
0.0
452
        0
462
0.0
453
        0
470

1001
REVIT
1002
{
1070
     1
1000
22643874
1002
}
1002
{
1070
     5
1000
3324767
1002
}
1002
{
1070
     2
1000
-2000011
1002
}
1002
{
1070
     3
1000
-2000588
1002
}
  0
HATCH
  5
BB
330
70
100
AcDbEntity
  8
A-ALV-___-___-EXI
 62
    11
100
AcDbHatch
 10
0.0
 20
0.0
 30
0.0
210
0.0
220
0.0
230
1.0
  2
SOLID
 70
     1
 71
     0
 91
        2
 92
        1
 93
        5
 72
     1
 10
-8156.08425834181
 20
15541.75371427693
 11
-7766.084258341807
 21
15541.75371427693
 72
     1
 10
-7766.084258341807
 20
15541.75371427693
 11
-7766.08425834181
 21
15981.75371427693
 72
     1
 10
-7766.08425834181
 20
15981.75371427693
 11
-8156.084258341811
 21
15981.75371427693
 72
     1
 10
-8156.084258341811
 20
15981.75371427693
 11
-8156.08425834181
 21
15863.67783540623
 72
     1
 10
-8156.08425834181
 20
15863.67783540623
 11
-8156.08425834181
 21
15541.75371427693
 97
        0
 92
        1
 93
        5
 72
     1
 10
-7106.084258341809
 20
15541.75371427694
 11
-4236.084258341758
 21
15541.75371427694
 72
     1
 10
-4236.084258341758
 20
15541.75371427694
 11
-4236.08425834176
 21
15981.75371427694
 72
     1
 10
-4236.08425834176
 20
15981.75371427694
 11
-7106.084258341809
 21
15981.75371427694
 72
     1
 10
-7106.084258341809
 20
15981.75371427694
 11
-7106.084258341808
 21
15863.67783540624
 72
     1
 10
-7106.084258341808
 20
15863.67783540624
 11
-7106.084258341809
 21
15541.75371427694
 97
        0
 75
     0
 76
     1
 98
        1
 10
0.0
 20
0.0
450
        0
451
        0
460
0.0
461
0.0
452
        0
462
0.0
453
        0
470

1001
REVIT
1002
{
1070
     1
1000
22643926
1002
}
1002
{
1070
     5
1000
22422765
1002
}
1002
{
1070
     2
1000
-2000011
1002
}
1002
{
1070
     3
1000
-2000588
1002
}
  0
HATCH
  5
C1
330
70
100
AcDbEntity
  8
A-ALV-___-___-EXI
 62
    11
100
AcDbHatch
 10
0.0
 20
0.0
 30
0.0
210
0.0
220
0.0
230
1.0
  2
SOLID
 70
     1
 71
     0
 91
        1
 92
        1
 93
        5
 72
     1
 10
-8356.084258341782
 20
4411.753714276948
 11
-8156.084258341783
 21
4411.753714276947
 72
     1
 10
-8156.084258341783
 20
4411.753714276947
 11
-8156.084258341829
 21
23831.75371427698
 72
     1
 10
-8156.084258341829
 20
23831.75371427698
 11
-8356.084258341828
 21
23831.75371427699
 72
     1
 10
-8356.084258341828
 20
23831.75371427699
 11
-8356.084258341789
 21
7696.17783540624
 72
     1
 10
-8356.084258341789
 20
7696.17783540624
 11
-8356.084258341782
 21
4411.753714276948
 97
        0
 75
     0
 76
     1
 98
        1
 10
0.0
 20
0.0
450
        0
451
        0
460
0.0
461
0.0
452
        0
462
0.0
453
        0
470

1001
REVIT
1002
{
1070
     1
1000
22644297
1002
}
1002
{
1070
     5
1000
22554474
1002
}
1002
{
1070
     2
1000
-2000011
1002
}
1002
{
1070
     3
1000
-2000588
1002
}
  0
HATCH
  5
C6
330
70
100
AcDbEntity
  8
A-ALV-___-___-EXI
 62
    11
100
AcDbHatch
 10
0.0
 20
0.0
 30
0.0
210
0.0
220
0.0
230
1.0
  2
SOLID
 70
     1
 71
     0
 91
        1
 92
        1
 93
        4
 72
     1
 10
-3936.084258341767
 20
4411.753714276948
 11
-3936.084258341754
 21
23981.75371427699
 72
     1
 10
-3936.084258341754
 20
23981.75371427698
 11
-4236.084258341753
 21
23981.75371427698
 72
     1
 10
-4236.084258341753
 20
23981.75371427698
 11
-4236.084258341764
 21
4411.753714276946
 72
     1
 10
-4236.084258341764
 20
4411.753714276947
 11
-3936.084258341767
 21
4411.753714276948
 97
        0
 75
     0
 76
     1
 98
        1
 10
0.0
 20
0.0
450
        0
451
        0
460
0.0
461
0.0
452
        0
462
0.0
453
        0
470

1001
REVIT
1002
{
1070
     1
1000
22647316
1002
}
1002
{
1070
     5
1000
22542561
1002
}
1002
{
1070
     2
1000
-2000011
1002
}
1002
{
1070
     3
1000
-2000588
1002
}
  0
HATCH
  5
D4
330
70
100
AcDbEntity
  8
A-ALV-___-___-EXI
 62
    11
100
AcDbHatch
 10
0.0
 20
0.0
 30
0.0
210
0.0
220
0.0
230
1.0
  2
SOLID
 70
     1
 71
     0
 91
        3
 92
        1
 93
        4
 72
     1
 10
-4236.084258341753
 20
23831.75371427697
 11
-4236.084258341753
 21
23981.75371427698
 72
     1
 10
-4236.084258341753
 20
23981.75371427698
 11
-5776.08425834175
 21
23981.75371427698
 72
     1
 10
-5776.08425834175
 20
23981.75371427698
 11
-5776.08425834175
 21
23831.75371427698
 72
     1
 10
-5776.08425834175
 20
23831.75371427698
 11
-4236.084258341753
 21
23831.75371427697
 97
        0
 92
        1
 93
        4
 72
     1
 10
-6831.084258341815
 20
23831.75371427699
 11
-6436.084258341752
 21
23831.75371427698
 72
     1
 10
-6436.084258341752
 20
23831.75371427698
 11
-6436.084258341752
 21
23981.75371427698
 72
     1
 10
-6436.084258341752
 20
23981.75371427698
 11
-6831.084258341816
 21
23981.75371427698
 72
     1
 10
-6831.084258341816
 20
23981.75371427698
 11
-6831.084258341815
 21
23831.75371427699
 97
        0
 92
        1
 93
        5
 72
     1
 10
-8156.084258341829
 20
23831.75371427698
 11
-7691.084258341813
 21
23831.75371427698
 72
     1
 10
-7691.084258341813
 20
23831.75371427698
 11
-7691.084258341816
 21
23981.75371427698
 72
     1
 10
-7691.084258341816
 20
23981.75371427698
 11
-8356.084258341828
 21
23981.75371427698
 72
     1
 10
-8356.084258341828
 20
23981.75371427698
 11
-8356.084258341828
 21
23831.75371427699
 72
     1
 10
-8356.084258341828
 20
23831.75371427699
 11
-8156.084258341829
 21
23831.75371427698
 97
        0
 75
     0
 76
     1
 98
        1
 10
0.0
 20
0.0
450
        0
451
        0
460
0.0
461
0.0
452
        0
462
0.0
453
        0
470

1001
REVIT
1002
{
1070
     1
1000
22648687
1002
}
1002
{
1070
     5
1000
3324767
1002
}
1002
{
1070
     2
1000
-2000011
1002
}
1002
{
1070
     3
1000
-2000588
1002
}
  0
HATCH
  5
DD
330
70
100
AcDbEntity
  8
A-ALV-___-___-EXI
 62
    11
100
AcDbHatch
 10
0.0
 20
0.0
 30
0.0
210
0.0
220
0.0
230
1.0
  2
SOLID
 70
     1
 71
     0
 91
        2
 92
        1
 93
        4
 72
     1
 10
-8156.084258341783
 20
4411.753714276947
 11
-8006.084258341786
 21
4411.753714276947
 72
     1
 10
-8006.084258341786
 20
4411.753714276947
 11
-8006.084258341786
 21
4851.753714276943
 72
     1
 10
-8006.084258341786
 20
4851.753714276943
 11
-8156.084258341786
 21
4851.753714276942
 72
     1
 10
-8156.084258341786
 20
4851.753714276942
 11
-8156.084258341783
 21
4411.753714276947
 97
        0
 92
        1
 93
        4
 72
     1
 10
-5376.084258341766
 20
4411.75371427695
 11
-5376.084258341768
 21
4851.753714276945
 72
     1
 10
-5376.084258341768
 20
4851.753714276945
 11
-7246.084258341792
 21
4851.753714276945
 72
     1
 10
-7246.084258341792
 20
4851.753714276945
 11
-7246.084258341788
 21
4411.75371427695
 72
     1
 10
-7246.084258341788
 20
4411.75371427695
 11
-5376.084258341766
 21
4411.75371427695
 97
        0
 75
     0
 76
     1
 98
        1
 10
0.0
 20
0.0
450
        0
451
        0
460
0.0
461
0.0
452
        0
462
0.0
453
        0
470

1001
REVIT
1002
{
1070
     1
1000
22828609
1002
}
1002
{
1070
     5
1000
22422765
1002
}
1002
{
1070
     2
1000
-2000011
1002
}
1002
{
1070
     3
1000
-2000588
1002
}
  0
LINE
  5
E3
330
70
100
AcDbEntity
  8
A-POR-___-___-EXI
 62
   250
100
AcDbLine
 10
-5016.084258341763
 20
20211.75371427693
 30
0.0
 11
-5018.084258341763
 21
20211.75371427693
 31
0.0
1001
REVIT
1002
{
1070
     1
1000
22613433
1002
}
1002
{
1070
     5
1000
3324767
1002
}
1002
{
1070
     2
1000
-2000011
1002
}
  0
LINE
  5
E4
330
70
100
AcDbEntity
  8
A-POR-___-___-EXI
 62
   250
100
AcDbLine
 10
-5048.08425834176
 20
20211.75371427693
 30
0.0
 11
-5716.084258341765
 21
20211.75371427694
 31
0.0
1001
REVIT
1002
{
1070
     1
1000
22613433
1002
}
1002
{
1070
     5
1000
3324767
1002
}
1002
{
1070
     2
1000
-2000011
1002
}
  0
LINE
  5
E5
330
70
100
AcDbEntity
  8
A-POR-___-___-EXI
 62
   250
100
AcDbLine
 10
-5716.084258341762
 20
20361.75371427694
 30
0.0
 11
-5016.084258341763
 21
20361.75371427694
 31
0.0
1001
REVIT
1002
{
1070
     1
1000
22613433
1002
}
1002
{
1070
     5
1000
3324767
1002
}
1002
{
1070
     2
1000
-2000011
1002
}
  0
LINE
  5
ED
330
70
100
AcDbEntity
  8
A-POR-___-___-EXI
 62
   250
100
AcDbLine
 10
-8116.084258341793
 20
8401.753714276946
 30
0.0
 11
-8114.084258341794
 21
8401.753714276946
 31
0.0
1001
REVIT
1002
{
1070
     1
1000
22616309
1002
}
1002
{
1070
     5
1000
3324767
1002
}
1002
{
1070
     2
1000
-2000011
1002
}
  0
LINE
  5
EE
330
70
100
AcDbEntity
  8
A-POR-___-___-EXI
 62
   250
100
AcDbLine
 10
-8084.084258341794
 20
8401.753714276946
 30
0.0
 11
-7416.084258341793
 21
8401.753714276948
 31
0.0
1001
REVIT
1002
{
1070
     1
1000
22616309
1002
}
1002
{
1070
     5
1000
3324767
1002
}
1002
{
1070
     2
1000
-2000011
1002
}
  0
LINE
  5
EF
330
70
100
AcDbEntity
  8
A-POR-___-___-EXI
 62
   250
100
AcDbLine
 10
-7416.084258341793
 20
8251.753714276947
 30
0.0
 11
-8116.084258341793
 21
8251.753714276945
 31
0.0
1001
REVIT
1002
{
1070
     1
1000
22616309
1002
}
1002
{
1070
     5
1000
3324767
1002
}
1002
{
1070
     2
1000
-2000011
1002
}
  0
LINE
  5
F5
330
70
100
AcDbEntity
  8
A-ALV-___-___-EXI
 62
     7
370
    35
100
AcDbLine
 10
-7086.084258341812
 20
13481.75371427693
 30
0.0
 11
-7086.084258341805
 21
9681.753714276947
 31
0.0
1001
REVIT
1002
{
1070
     1
1000
22643874
1002
}
1002
{
1070
     5
1000
3324767
1002
}
1002
{
1070
     2
1000
-2000011
1002
}
  0
LINE
  5
FA
330
70
100
AcDbEntity
  8
A-POR-___-___-EXI
 62
   250
100
AcDbLine
 10
-7086.084258341798
 20
8851.753714276965
 30
0.0
 11
-7086.084258341805
 21
9651.753714276949
 31
0.0
1001
REVIT
1002
{
1070
     1
1000
22643874
1002
}
1002
{
1070
     5
1000
3324767
1002
}
1002
{
1070
     2
1000
-2000011
1002
}
  0
LINE
  5
FB
330
70
100
AcDbEntity
  8
A-POR-___-___-EXI
 62
   250
100
AcDbLine
 10
-7086.084258341812
 20
13511.75371427693
 30
0.0
 11
-7086.084258341813
 21
14311.75371427693
 31
0.0
1001
REVIT
1002
{
1070
     1
1000
22643874
1002
}
1002
{
1070
     5
1000
3324767
1002
}
1002
{
1070
     2
1000
-2000011
1002
}
  0
LINE
  5
FC
330
70
100
AcDbEntity
  8
A-POR-___-___-EXI
 62
   250
100
AcDbLine
 10
-6936.084258341813
 20
14311.75371427693
 30
0.0
 11
-6936.084258341813
 21
14309.75371427693
 31
0.0
1001
REVIT
1002
{
1070
     1
1000
22643874
1002
}
1002
{
1070
     5
1000
3324767
1002
}
1002
{
1070
     2
1000
-2000011
1002
}
  0
LINE
  5
FD
330
70
100
AcDbEntity
  8
A-POR-___-___-EXI
 62
   250
100
AcDbLine
 10
-6936.084258341813
 20
14279.75371427693
 30
0.0
 11
-6936.084258341811
 21
13511.75371427693
 31
0.0
1001
REVIT
1002
{
1070
     1
1000
22643874
1002
}
1002
{
1070
     5
1000
3324767
1002
}
1002
{
1070
     2
1000
-2000011
1002
}
  0
LINE
  5
FE
330
70
100
AcDbEntity
  8
A-POR-___-___-EXI
 62
   250
100
AcDbLine
 10
-6936.084258341804
 20
9651.753714276951
 30
0.0
 11
-6936.084258341797
 21
8883.753714276956
 31
0.0
1001
REVIT
1002
{
1070
     1
1000
22643874
1002
}
1002
{
1070
     5
1000
3324767
1002
}
1002
{
1070
     2
1000
-2000011
1002
}
  0
LINE
  5
FF
330
70
100
AcDbEntity
  8
A-POR-___-___-EXI
 62
   250
100
AcDbLine
 10
-6936.084258341797
 20
8853.753714276953
 30
0.0
 11
-6936.084258341797
 21
8851.753714276954
 31
0.0
1001
REVIT
1002
{
1070
     1
1000
22643874
1002
}
1002
{
1070
     5
1000
3324767
1002
}
1002
{
1070
     2
1000
-2000011
1002
}
  0
LINE
  5
105
330
70
100
AcDbEntity
  8
A-POR-___-___-EXI
 62
   250
100
AcDbLine
 10
-7136.084258341812
 20
15541.75371427693
 30
0.0
 11
-7704.084258341812
 21
15541.75371427692
 31
0.0
1001
REVIT
1002
{
1070
     1
1000
22643926
1002
}
1002
{
1070
     5
1000
22422765
1002
}
1002
{
1070
     2
1000
-2000011
1002
}
  0
LINE
  5
106
330
70
100
AcDbEntity
  8
A-POR-___-___-EXI
 62
   250
100
AcDbLine
 10
-7734.084258341813
 20
15541.75371427692
 30
0.0
 11
-7736.084258341811
 21
15541.75371427692
 31
0.0
1001
REVIT
1002
{
1070
     1
1000
22643926
1002
}
1002
{
1070
     5
1000
22422765
1002
}
1002
{
1070
     2
1000
-2000011
1002
}
  0
LINE
  5
107
330
70
100
AcDbEntity
  8
A-POR-___-___-EXI
 62
   250
100
AcDbLine
 10
-7736.084258341813
 20
15981.75371427692
 30
0.0
 11
-7136.084258341814
 21
15981.75371427693
 31
0.0
1001
REVIT
1002
{
1070
     1
1000
22643926
1002
}
1002
{
1070
     5
1000
22422765
1002
}
1002
{
1070
     2
1000
-2000011
1002
}
  0
LINE
  5
118
330
70
100
AcDbEntity
  8
A-ALV-___-___-EXI
 62
     7
370
    35
100
AcDbLine
 10
-6436.084258341761
 20
23981.75371427696
 30
0.0
 11
-6831.084258341824
 21
23981.75371427696
 31
0.0
1001
REVIT
1002
{
1070
     1
1000
22648687
1002
}
1002
{
1070
     5
1000
3324767
1002
}
1002
{
1070
     2
1000
-2000011
1002
}
  0
LINE
  5
119
330
70
100
AcDbEntity
  8
A-ALV-___-___-EXI
 62
     7
370
    35
100
AcDbLine
 10
-6831.084258341822
 20
23831.75371427696
 30
0.0
 11
-6436.084258341761
 21
23831.75371427696
 31
0.0
1001
REVIT
1002
{
1070
     1
1000
22648687
1002
}
1002
{
1070
     5
1000
3324767
1002
}
1002
{
1070
     2
1000
-2000011
1002
}
  0
LINE
  5
11D
330
70
100
AcDbEntity
  8
A-POR-___-___-EXI
 62
   250
100
AcDbLine
 10
-7661.08425834182
 20
23981.75371427697
 30
0.0
 11
-6861.08425834182
 21
23981.75371427696
 31
0.0
1001
REVIT
1002
{
1070
     1
1000
22648687
1002
}
1002
{
1070
     5
1000
3324767
1002
}
1002
{
1070
     2
1000
-2000011
1002
}
  0
LINE
  5
11E
330
70
100
AcDbEntity
  8
A-POR-___-___-EXI
 62
   250
100
AcDbLine
 10
-6406.084258341756
 20
23981.75371427696
 30
0.0
 11
-5806.084258341758
 21
23981.75371427696
 31
0.0
1001
REVIT
1002
{
1070
     1
1000
22648687
1002
}
1002
{
1070
     5
1000
3324767
1002
}
1002
{
1070
     2
1000
-2000011
1002
}
  0
LINE
  5
11F
330
70
100
AcDbEntity
  8
A-POR-___-___-EXI
 62
   250
100
AcDbLine
 10
-5806.084258341758
 20
23831.75371427696
 30
0.0
 11
-5808.084258341756
 21
23831.75371427696
 31
0.0
1001
REVIT
1002
{
1070
     1
1000
22648687
1002
}
1002
{
1070
     5
1000
3324767
1002
}
1002
{
1070
     2
1000
-2000011
1002
}
  0
LINE
  5
120
330
70
100
AcDbEntity
  8
A-POR-___-___-EXI
 62
   250
100
AcDbLine
 10
-5838.084258341756
 20
23831.75371427696
 30
0.0
 11
-6406.084258341755
 21
23831.75371427696
 31
0.0
1001
REVIT
1002
{
1070
     1
1000
22648687
1002
}
1002
{
1070
     5
1000
3324767
1002
}
1002
{
1070
     2
1000
-2000011
1002
}
  0
LINE
  5
121
330
70
100
AcDbEntity
  8
A-POR-___-___-EXI
 62
   250
100
AcDbLine
 10
-6861.08425834182
 20
23831.75371427696
 30
0.0
 11
-7629.084258341819
 21
23831.75371427697
 31
0.0
1001
REVIT
1002
{
1070
     1
1000
22648687
1002
}
1002
{
1070
     5
1000
3324767
1002
}
1002
{
1070
     2
1000
-2000011
1002
}
  0
LINE
  5
122
330
70
100
AcDbEntity
  8
A-POR-___-___-EXI
 62
   250
100
AcDbLine
 10
-7659.084258341819
 20
23831.75371427697
 30
0.0
 11
-7661.084258341817
 21
23831.75371427697
 31
0.0
1001
REVIT
1002
{
1070
     1
1000
22648687
1002
}
1002
{
1070
     5
1000
3324767
1002
}
1002
{
1070
     2
1000
-2000011
1002
}
  0
LINE
  5
124
330
70
100
AcDbEntity
  8
A-ALV-___-___-EXI
 62
     7
370
    35
100
AcDbLine
 10
-7246.084258341799
 20
4411.75371427695
 30
0.0
 11
-5376.084258341776
 21
4411.75371427695
 31
0.0
1001
REVIT
1002
{
1070
     1
1000
22828609
1002
}
1002
{
1070
     5
1000
22422765
1002
}
1002
{
1070
     2
1000
-2000011
1002
}
  0
LINE
  5
128
330
70
100
AcDbEntity
  8
A-POR-___-___-EXI
 62
   250
100
AcDbLine
 10
-7976.084258341794
 20
4851.753714276945
 30
0.0
 11
-7974.084258341794
 21
4851.753714276945
 31
0.0
1001
REVIT
1002
{
1070
     1
1000
22828609
1002
}
1002
{
1070
     5
1000
22422765
1002
}
1002
{
1070
     2
1000
-2000011
1002
}
  0
LINE
  5
129
330
70
100
AcDbEntity
  8
A-POR-___-___-EXI
 62
   250
100
AcDbLine
 10
-7944.084258341796
 20
4851.753714276945
 30
0.0
 11
-7276.084258341794
 21
4851.753714276949
 31
0.0
1001
REVIT
1002
{
1070
     1
1000
22828609
1002
}
1002
{
1070
     5
1000
22422765
1002
}
1002
{
1070
     2
1000
-2000011
1002
}
  0
LINE
  5
12A
330
70
100
AcDbEntity
  8
A-POR-___-___-EXI
 62
   250
100
AcDbLine
 10
-7276.084258341796
 20
4411.75371427695
 30
0.0
 11
-7976.084258341794
 21
4411.753714276946
 31
0.0
1001
REVIT
1002
{
1070
     1
1000
22828609
1002
}
1002
{
1070
     5
1000
22422765
1002
}
1002
{
1070
     2
1000
-2000011
1002
}
  0
LWPOLYLINE
  5
1D8
330
70
100
AcDbEntity
  8
A-JAN-___-___-EXI
100
AcDbPolyline
 90
        4
 70
     1
 43
0.0
 10
-4616.084258341778
 20
5491.753714276949
 10
-4546.084258341778
 20
5491.753714276949
 10
-4546.084258341777
 20
4851.753714276946
 10
-4616.084258341776
 20
4851.753714276946
1001
REVIT
1002
{
1070
     1
1000
22851244
1002
}
1002
{
1070
     2
1000
-2000051
1002
}
1002
{
1070
     3
1000
-2000042
1002
}
  0
LWPOLYLINE
  5
1DA
330
70
100
AcDbEntity
  8
A-ALV-___-___-EXI
 62
     7
370
    35
100
AcDbPolyline
 90
        4
 70
     0
 43
0.0
 10
-8006.084258341797
 20
4851.753714276945
 10
-8156.084258341792
 20
4851.753714276942
 10
-8156.084258341799
 20
8251.753714276945
 10
-8146.084258341799
 20
8251.753714276945
1001
REVIT
1002
{
1070
     1
1000
22828609
1002
}
1002
{
1070
     5
1000
22422765
1002
}
1002
{
1070
     2
1000
-2000011
1002
}
  0
LWPOLYLINE
  5
1DB
330
70
100
AcDbEntity
  8
A-ALV-___-___-EXI
 62
     7
370
    35
100
AcDbPolyline
 90
        4
 70
     0
 43
0.0
 10
-5746.084258341767
 20
20361.75371427694
 10
-8156.084258341827
 20
20361.75371427693
 10
-8156.084258341834
 20
23831.75371427696
 10
-7691.084258341823
 20
23831.75371427696
1001
REVIT
1002
{
1070
     1
1000
22648687
1002
}
1002
{
1070
     5
1000
3324767
1002
}
1002
{
1070
     2
1000
-2000011
1002
}
  0
LWPOLYLINE
  5
1DC
330
70
100
AcDbEntity
  8
A-ALV-___-___-EXI
 62
     7
370
    35
100
AcDbPolyline
 90
        4
 70
     0
 43
0.0
 10
-7691.084258341824
 20
23981.75371427696
 10
-8356.084258341835
 20
23981.75371427696
 10
-8356.084258341791
 20
4411.753714276948
 10
-8006.084258341797
 20
4411.753714276946
1001
REVIT
1002
{
1070
     1
1000
22648687
1002
}
1002
{
1070
     5
1000
3324767
1002
}
1002
{
1070
     2
1000
-2000011
1002
}
  0
LWPOLYLINE
  5
1DD
330
70
100
AcDbEntity
  8
A-ALV-___-___-EXI
 62
     7
370
    35
100
AcDbPolyline
 90
        4
 70
     0
 43
0.0
 10
-5776.08425834176
 20
23831.75371427696
 10
-4236.084258341763
 20
23831.75371427696
 10
-4236.084258341764
 20
20361.75371427693
 10
-4986.084258341766
 20
20361.75371427694
1001
REVIT
1002
{
1070
     1
1000
22648687
1002
}
1002
{
1070
     5
1000
3324767
1002
}
1002
{
1070
     2
1000
-2000011
1002
}
  0
LWPOLYLINE
  5
1DE
330
70
100
AcDbEntity
  8
A-ALV-___-___-EXI
 62
     7
370
    35
100
AcDbPolyline
 90
        6
 70
     0
 43
0.0
 10
-6936.084258341804
 20
9681.75371427695
 10
-6936.084258341804
 20
10601.75371427695
 10
-4236.084258341777
 20
10601.75371427695
 10
-4236.084258341776
 20
8401.753714276955
 10
-6936.084258341799
 20
8401.753714276951
 10
-6936.084258341797
 20
8821.753714276949
1001
REVIT
1002
{
1070
     1
1000
22647316
1002
}
1002
{
1070
     5
1000
22542561
1002
}
1002
{
1070
     2
1000
-2000011
1002
}
  0
LWPOLYLINE
  5
1DF
330
70
100
AcDbEntity
  8
A-ALV-___-___-EXI
 62
     7
370
    35
100
AcDbPolyline
 90
        6
 70
     0
 43
0.0
 10
-6936.084258341811
 20
14341.75371427693
 10
-6936.084258341814
 20
15541.75371427693
 10
-4236.084258341771
 20
15541.75371427693
 10
-4236.084258341775
 20
10751.75371427695
 10
-6936.084258341804
 20
10751.75371427695
 10
-6936.084258341811
 20
13481.75371427693
1001
REVIT
1002
{
1070
     1
1000
22647316
1002
}
1002
{
1070
     5
1000
22542561
1002
}
1002
{
1070
     2
1000
-2000011
1002
}
  0
LWPOLYLINE
  5
1E0
330
70
100
AcDbEntity
  8
A-ALV-___-___-EXI
 62
     7
370
    35
100
AcDbPolyline
 90
        4
 70
     0
 43
0.0
 10
-4986.084258341766
 20
20211.75371427693
 10
-4236.084258341767
 20
20211.75371427693
 10
-4236.084258341772
 20
15981.75371427693
 10
-7106.084258341818
 20
15981.75371427693
1001
REVIT
1002
{
1070
     1
1000
22647316
1002
}
1002
{
1070
     5
1000
22542561
1002
}
1002
{
1070
     2
1000
-2000011
1002
}
  0
LWPOLYLINE
  5
1E1
330
70
100
AcDbEntity
  8
A-ALV-___-___-EXI
 62
     7
370
    35
100
AcDbPolyline
 90
        4
 70
     0
 43
0.0
 10
-7766.084258341819
 20
15981.75371427692
 10
-8156.084258341822
 20
15981.75371427692
 10
-8156.084258341829
 20
20211.75371427693
 10
-5746.084258341767
 20
20211.75371427694
1001
REVIT
1002
{
1070
     1
1000
22644297
1002
}
1002
{
1070
     5
1000
22554474
1002
}
1002
{
1070
     2
1000
-2000011
1002
}
  0
LWPOLYLINE
  5
1E2
330
70
100
AcDbEntity
  8
A-ALV-___-___-EXI
 62
     7
370
    35
100
AcDbPolyline
 90
        4
 70
     0
 43
0.0
 10
-8146.084258341799
 20
8401.753714276946
 10
-8156.084258341801
 20
8401.753714276946
 10
-8156.084258341818
 20
15541.75371427692
 10
-7766.084258341816
 20
15541.75371427692
1001
REVIT
1002
{
1070
     1
1000
22644297
1002
}
1002
{
1070
     5
1000
22554474
1002
}
1002
{
1070
     2
1000
-2000011
1002
}
  0
LWPOLYLINE
  5
1E3
330
70
100
AcDbEntity
  8
A-ALV-___-___-EXI
 62
     7
370
    35
100
AcDbPolyline
 90
        3
 70
     0
 43
0.0
 10
-7106.084258341816
 20
15541.75371427693
 10
-7086.084258341817
 20
15541.75371427693
 10
-7086.084258341812
 20
14341.75371427693
1001
REVIT
1002
{
1070
     1
1000
22643926
1002
}
1002
{
1070
     5
1000
22422765
1002
}
1002
{
1070
     2
1000
-2000011
1002
}
  0
LWPOLYLINE
  5
1E4
330
70
100
AcDbEntity
  8
A-ALV-___-___-EXI
 62
     7
370
    35
100
AcDbPolyline
 90
        3
 70
     0
 43
0.0
 10
-7086.084258341798
 20
8821.753714276947
 10
-7086.0842583418
 20
8401.753714276948
 10
-7386.0842583418
 20
8401.753714276948
1001
REVIT
1002
{
1070
     1
1000
22643874
1002
}
1002
{
1070
     5
1000
3324767
1002
}
1002
{
1070
     2
1000
-2000011
1002
}
  0
LINE
  5
1F5
330
70
100
AcDbEntity
  8
A-POR-___-___-EXI
100
AcDbLine
 10
-7246.084258341799
 20
4411.753714276946
 30
0.0
 11
-7246.084258341799
 21
4851.753714277911
 31
0.0
1001
REVIT
1002
{
1070
     1
1000
22828814
1002
}
1002
{
1070
     5
1000
22369135
1002
}
  0
LINE
  5
1F6
330
70
100
AcDbEntity
  8
A-POR-___-___-EXI
100
AcDbLine
 10
-7246.084258341799
 20
4851.753714277911
 30
0.0
 11
-7276.084258341798
 21
4851.753714277911
 31
0.0
1001
REVIT
1002
{
1070
     1
1000
22828814
1002
}
1002
{
1070
     5
1000
22369135
1002
}
  0
LINE
  5
1F7
330
70
100
AcDbEntity
  8
A-POR-___-___-EXI
100
AcDbLine
 10
-7276.084258341798
 20
4851.753714277911
 30
0.0
 11
-7276.084258341798
 21
4411.753714276946
 31
0.0
1001
REVIT
1002
{
1070
     1
1000
22828814
1002
}
1002
{
1070
     5
1000
22369135
1002
}
  0
LINE
  5
1F8
330
70
100
AcDbEntity
  8
A-POR-___-___-EXI
100
AcDbLine
 10
-7276.084258341798
 20
4411.753714276946
 30
0.0
 11
-7246.084258341799
 21
4411.753714276946
 31
0.0
1001
REVIT
1002
{
1070
     1
1000
22828814
1002
}
1002
{
1070
     5
1000
22369135
1002
}
  0
LINE
  5
1F9
330
70
100
AcDbEntity
  8
A-POR-___-___-EXI
100
AcDbLine
 10
-8006.084258341799
 20
4411.753714276944
 30
0.0
 11
-7976.084258341797
 21
4411.753714276944
 31
0.0
1001
REVIT
1002
{
1070
     1
1000
22828814
1002
}
1002
{
1070
     5
1000
22369135
1002
}
  0
LINE
  5
1FA
330
70
100
AcDbEntity
  8
A-POR-___-___-EXI
100
AcDbLine
 10
-7976.084258341797
 20
4411.753714276944
 30
0.0
 11
-7976.084258341797
 21
4851.753714277911
 31
0.0
1001
REVIT
1002
{
1070
     1
1000
22828814
1002
}
1002
{
1070
     5
1000
22369135
1002
}
  0
LINE
  5
1FB
330
70
100
AcDbEntity
  8
A-POR-___-___-EXI
100
AcDbLine
 10
-7976.084258341797
 20
4851.753714277911
 30
0.0
 11
-8006.084258341799
 21
4851.753714277911
 31
0.0
1001
REVIT
1002
{
1070
     1
1000
22828814
1002
}
1002
{
1070
     5
1000
22369135
1002
}
  0
LINE
  5
1FC
330
70
100
AcDbEntity
  8
A-POR-___-___-EXI
100
AcDbLine
 10
-8006.084258341799
 20
4851.753714277911
 30
0.0
 11
-8006.084258341799
 21
4411.753714276944
 31
0.0
1001
REVIT
1002
{
1070
     1
1000
22828814
1002
}
1002
{
1070
     5
1000
22369135
1002
}
  0
LINE
  5
1FD
330
70
100
AcDbEntity
  8
A-POR-___-___-EXI
100
AcDbLine
 10
-7944.084258341797
 20
5547.75371427791
 30
0.0
 11
-7974.084258341797
 21
5547.75371427791
 31
0.0
1001
REVIT
1002
{
1070
     1
1000
22828814
1002
}
1002
{
1070
     5
1000
22369135
1002
}
  0
LINE
  5
1FE
330
70
100
AcDbEntity
  8
A-POR-___-___-EXI
100
AcDbLine
 10
-7974.084258341797
 20
5547.75371427791
 30
0.0
 11
-7974.084258341797
 21
4851.753714277911
 31
0.0
1001
REVIT
1002
{
1070
     1
1000
22828814
1002
}
1002
{
1070
     5
1000
22369135
1002
}
  0
LINE
  5
1FF
330
70
100
AcDbEntity
  8
A-POR-___-___-EXI
100
AcDbLine
 10
-7974.084258341797
 20
4851.753714277911
 30
0.0
 11
-7944.084258341797
 21
4851.753714277911
 31
0.0
1001
REVIT
1002
{
1070
     1
1000
22828814
1002
}
1002
{
1070
     5
1000
22369135
1002
}
  0
LINE
  5
200
330
70
100
AcDbEntity
  8
A-POR-___-___-EXI
100
AcDbLine
 10
-7944.084258341797
 20
4851.753714277911
 30
0.0
 11
-7944.084258341797
 21
5547.75371427791
 31
0.0
1001
REVIT
1002
{
1070
     1
1000
22828814
1002
}
1002
{
1070
     5
1000
22369135
1002
}
  0
ARC
  5
201
330
70
100
AcDbEntity
  8
A-POR-___-___-EXI
100
AcDbCircle
 10
-7974.084258341797
 20
4851.753714277911
 30
0.0
 40
696.0000000000012
100
AcDbArc
 50
0.0
 51
90.0
1001
REVIT
1002
{
1070
     1
1000
22828814
1002
}
1002
{
1070
     5
1000
22369135
1002
}
1002
{
1070
     3
1000
-2000027
1002
}
  0
LINE
  5
202
330
70
100
AcDbEntity
  8
A-POR-___-___-EXI
100
AcDbLine
 10
-8146.084258341801
 20
8251.753714276947
 30
0.0
 11
-8116.0842583418
 21
8251.753714276947
 31
0.0
1001
REVIT
1002
{
1070
     1
1000
22828953
1002
}
1002
{
1070
     5
1000
22369135
1002
}
  0
LINE
  5
203
330
70
100
AcDbEntity
  8
A-POR-___-___-EXI
100
AcDbLine
 10
-8116.0842583418
 20
8251.753714276947
 30
0.0
 11
-8116.0842583418
 21
8401.753714276933
 31
0.0
1001
REVIT
1002
{
1070
     1
1000
22828953
1002
}
1002
{
1070
     5
1000
22369135
1002
}
  0
LINE
  5
204
330
70
100
AcDbEntity
  8
A-POR-___-___-EXI
100
AcDbLine
 10
-8116.0842583418
 20
8401.753714276933
 30
0.0
 11
-8146.084258341801
 21
8401.753714276933
 31
0.0
1001
REVIT
1002
{
1070
     1
1000
22828953
1002
}
1002
{
1070
     5
1000
22369135
1002
}
  0
LINE
  5
205
330
70
100
AcDbEntity
  8
A-POR-___-___-EXI
100
AcDbLine
 10
-8146.084258341801
 20
8401.753714276933
 30
0.0
 11
-8146.084258341801
 21
8251.753714276947
 31
0.0
1001
REVIT
1002
{
1070
     1
1000
22828953
1002
}
1002
{
1070
     5
1000
22369135
1002
}
  0
LINE
  5
206
330
70
100
AcDbEntity
  8
A-POR-___-___-EXI
100
AcDbLine
 10
-7386.0842583418
 20
8251.753714276947
 30
0.0
 11
-7386.0842583418
 21
8401.753714276932
 31
0.0
1001
REVIT
1002
{
1070
     1
1000
22828953
1002
}
1002
{
1070
     5
1000
22369135
1002
}
  0
LINE
  5
207
330
70
100
AcDbEntity
  8
A-POR-___-___-EXI
100
AcDbLine
 10
-7386.0842583418
 20
8401.753714276932
 30
0.0
 11
-7416.0842583418
 21
8401.753714276932
 31
0.0
1001
REVIT
1002
{
1070
     1
1000
22828953
1002
}
1002
{
1070
     5
1000
22369135
1002
}
  0
LINE
  5
208
330
70
100
AcDbEntity
  8
A-POR-___-___-EXI
100
AcDbLine
 10
-7416.0842583418
 20
8401.753714276932
 30
0.0
 11
-7416.0842583418
 21
8251.753714276947
 31
0.0
1001
REVIT
1002
{
1070
     1
1000
22828953
1002
}
1002
{
1070
     5
1000
22369135
1002
}
  0
LINE
  5
209
330
70
100
AcDbEntity
  8
A-POR-___-___-EXI
100
AcDbLine
 10
-7416.0842583418
 20
8251.753714276947
 30
0.0
 11
-7386.0842583418
 21
8251.753714276947
 31
0.0
1001
REVIT
1002
{
1070
     1
1000
22828953
1002
}
1002
{
1070
     5
1000
22369135
1002
}
  0
LINE
  5
20A
330
70
100
AcDbEntity
  8
A-POR-___-___-EXI
100
AcDbLine
 10
-8084.084258341801
 20
9097.753714276931
 30
0.0
 11
-8114.084258341801
 21
9097.753714276931
 31
0.0
1001
REVIT
1002
{
1070
     1
1000
22828953
1002
}
1002
{
1070
     5
1000
22369135
1002
}
  0
LINE
  5
20B
330
70
100
AcDbEntity
  8
A-POR-___-___-EXI
100
AcDbLine
 10
-8114.084258341801
 20
9097.753714276931
 30
0.0
 11
-8114.084258341801
 21
8401.753714276933
 31
0.0
1001
REVIT
1002
{
1070
     1
1000
22828953
1002
}
1002
{
1070
     5
1000
22369135
1002
}
  0
LINE
  5
20C
330
70
100
AcDbEntity
  8
A-POR-___-___-EXI
100
AcDbLine
 10
-8114.084258341801
 20
8401.753714276933
 30
0.0
 11
-8084.084258341801
 21
8401.753714276933
 31
0.0
1001
REVIT
1002
{
1070
     1
1000
22828953
1002
}
1002
{
1070
     5
1000
22369135
1002
}
  0
LINE
  5
20D
330
70
100
AcDbEntity
  8
A-POR-___-___-EXI
100
AcDbLine
 10
-8084.084258341801
 20
8401.753714276933
 30
0.0
 11
-8084.084258341801
 21
9097.753714276931
 31
0.0
1001
REVIT
1002
{
1070
     1
1000
22828953
1002
}
1002
{
1070
     5
1000
22369135
1002
}
  0
ARC
  5
20E
330
70
100
AcDbEntity
  8
A-POR-___-___-EXI
100
AcDbCircle
 10
-8114.084258341801
 20
8401.753714276933
 30
0.0
 40
696.0000000000004
100
AcDbArc
 50
0.0
 51
90.0
1001
REVIT
1002
{
1070
     1
1000
22828953
1002
}
1002
{
1070
     5
1000
22369135
1002
}
1002
{
1070
     3
1000
-2000027
1002
}
  0
LINE
  5
20F
330
70
100
AcDbEntity
  8
A-POR-___-___-EXI
100
AcDbLine
 10
-7086.084258341803
 20
9651.753714276948
 30
0.0
 11
-7086.084258341803
 21
9681.75371427695
 31
0.0
1001
REVIT
1002
{
1070
     1
1000
22829022
1002
}
1002
{
1070
     5
1000
22369145
1002
}
  0
LINE
  5
210
330
70
100
AcDbEntity
  8
A-POR-___-___-EXI
100
AcDbLine
 10
-6936.084258341819
 20
9651.753714276948
 30
0.0
 11
-7086.084258341803
 21
9651.753714276948
 31
0.0
1001
REVIT
1002
{
1070
     1
1000
22829022
1002
}
1002
{
1070
     5
1000
22369145
1002
}
  0
LINE
  5
211
330
70
100
AcDbEntity
  8
A-POR-___-___-EXI
100
AcDbLine
 10
-6936.084258341819
 20
9681.75371427695
 30
0.0
 11
-6936.084258341819
 21
9651.753714276948
 31
0.0
1001
REVIT
1002
{
1070
     1
1000
22829022
1002
}
1002
{
1070
     5
1000
22369145
1002
}
  0
LINE
  5
212
330
70
100
AcDbEntity
  8
A-POR-___-___-EXI
100
AcDbLine
 10
-7086.084258341803
 20
9681.75371427695
 30
0.0
 11
-6936.084258341819
 21
9681.75371427695
 31
0.0
1001
REVIT
1002
{
1070
     1
1000
22829022
1002
}
1002
{
1070
     5
1000
22369145
1002
}
  0
LINE
  5
213
330
70
100
AcDbEntity
  8
A-POR-___-___-EXI
100
AcDbLine
 10
-6936.084258341811
 20
8821.753714276949
 30
0.0
 11
-7086.084258341798
 21
8821.753714276949
 31
0.0
1001
REVIT
1002
{
1070
     1
1000
22829022
1002
}
1002
{
1070
     5
1000
22369145
1002
}
  0
LINE
  5
214
330
70
100
AcDbEntity
  8
A-POR-___-___-EXI
100
AcDbLine
 10
-6936.084258341811
 20
8851.753714276949
 30
0.0
 11
-6936.084258341811
 21
8821.753714276949
 31
0.0
1001
REVIT
1002
{
1070
     1
1000
22829022
1002
}
1002
{
1070
     5
1000
22369145
1002
}
  0
LINE
  5
215
330
70
100
AcDbEntity
  8
A-POR-___-___-EXI
100
AcDbLine
 10
-7086.084258341799
 20
8851.753714276949
 30
0.0
 11
-6936.084258341811
 21
8851.753714276949
 31
0.0
1001
REVIT
1002
{
1070
     1
1000
22829022
1002
}
1002
{
1070
     5
1000
22369145
1002
}
  0
LINE
  5
216
330
70
100
AcDbEntity
  8
A-POR-___-___-EXI
100
AcDbLine
 10
-7086.084258341798
 20
8821.753714276949
 30
0.0
 11
-7086.084258341799
 21
8851.753714276949
 31
0.0
1001
REVIT
1002
{
1070
     1
1000
22829022
1002
}
1002
{
1070
     5
1000
22369145
1002
}
  0
LINE
  5
217
330
70
100
AcDbEntity
  8
A-POR-___-___-EXI
100
AcDbLine
 10
-6936.084258341811
 20
8883.753714276947
 30
0.0
 11
-6140.08425834181
 21
8883.75371427695
 31
0.0
1001
REVIT
1002
{
1070
     1
1000
22829022
1002
}
1002
{
1070
     5
1000
22369145
1002
}
  0
LINE
  5
218
330
70
100
AcDbEntity
  8
A-POR-___-___-EXI
100
AcDbLine
 10
-6936.084258341811
 20
8853.753714276949
 30
0.0
 11
-6936.084258341811
 21
8883.753714276947
 31
0.0
1001
REVIT
1002
{
1070
     1
1000
22829022
1002
}
1002
{
1070
     5
1000
22369145
1002
}
  0
LINE
  5
219
330
70
100
AcDbEntity
  8
A-POR-___-___-EXI
100
AcDbLine
 10
-6140.08425834181
 20
8853.753714276949
 30
0.0
 11
-6936.084258341811
 21
8853.753714276946
 31
0.0
1001
REVIT
1002
{
1070
     1
1000
22829022
1002
}
1002
{
1070
     5
1000
22369145
1002
}
  0
LINE
  5
21A
330
70
100
AcDbEntity
  8
A-POR-___-___-EXI
100
AcDbLine
 10
-6140.08425834181
 20
8883.75371427695
 30
0.0
 11
-6140.08425834181
 21
8853.753714276949
 31
0.0
1001
REVIT
1002
{
1070
     1
1000
22829022
1002
}
1002
{
1070
     5
1000
22369145
1002
}
  0
ARC
  5
21B
330
70
100
AcDbEntity
  8
A-POR-___-___-EXI
100
AcDbCircle
 10
-6936.084258341811
 20
8853.753714276949
 30
0.0
 40
796.000000000001
100
AcDbArc
 50
0.0
 51
90.0
1001
REVIT
1002
{
1070
     1
1000
22829022
1002
}
1002
{
1070
     5
1000
22369145
1002
}
1002
{
1070
     3
1000
-2000027
1002
}
  0
LINE
  5
21C
330
70
100
AcDbEntity
  8
A-POR-___-___-EXI
100
AcDbLine
 10
-7086.084258341813
 20
13481.75371427693
 30
0.0
 11
-6936.08425834183
 21
13481.75371427693
 31
0.0
1001
REVIT
1002
{
1070
     1
1000
22829088
1002
}
1002
{
1070
     5
1000
22369145
1002
}
  0
LINE
  5
21D
330
70
100
AcDbEntity
  8
A-POR-___-___-EXI
100
AcDbLine
 10
-6936.08425834183
 20
13481.75371427693
 30
0.0
 11
-6936.08425834183
 21
13511.75371427693
 31
0.0
1001
REVIT
1002
{
1070
     1
1000
22829088
1002
}
1002
{
1070
     5
1000
22369145
1002
}
  0
LINE
  5
21E
330
70
100
AcDbEntity
  8
A-POR-___-___-EXI
100
AcDbLine
 10
-6936.08425834183
 20
13511.75371427693
 30
0.0
 11
-7086.084258341813
 21
13511.75371427693
 31
0.0
1001
REVIT
1002
{
1070
     1
1000
22829088
1002
}
1002
{
1070
     5
1000
22369145
1002
}
  0
LINE
  5
21F
330
70
100
AcDbEntity
  8
A-POR-___-___-EXI
100
AcDbLine
 10
-7086.084258341813
 20
13511.75371427693
 30
0.0
 11
-7086.084258341813
 21
13481.75371427693
 31
0.0
1001
REVIT
1002
{
1070
     1
1000
22829088
1002
}
1002
{
1070
     5
1000
22369145
1002
}
  0
LINE
  5
220
330
70
100
AcDbEntity
  8
A-POR-___-___-EXI
100
AcDbLine
 10
-7086.084258341816
 20
14341.75371427693
 30
0.0
 11
-7086.084258341816
 21
14311.75371427693
 31
0.0
1001
REVIT
1002
{
1070
     1
1000
22829088
1002
}
1002
{
1070
     5
1000
22369145
1002
}
  0
LINE
  5
221
330
70
100
AcDbEntity
  8
A-POR-___-___-EXI
100
AcDbLine
 10
-7086.084258341816
 20
14311.75371427693
 30
0.0
 11
-6936.084258341828
 21
14311.75371427693
 31
0.0
1001
REVIT
1002
{
1070
     1
1000
22829088
1002
}
1002
{
1070
     5
1000
22369145
1002
}
  0
LINE
  5
222
330
70
100
AcDbEntity
  8
A-POR-___-___-EXI
100
AcDbLine
 10
-6936.084258341828
 20
14311.75371427693
 30
0.0
 11
-6936.084258341828
 21
14341.75371427693
 31
0.0
1001
REVIT
1002
{
1070
     1
1000
22829088
1002
}
1002
{
1070
     5
1000
22369145
1002
}
  0
LINE
  5
223
330
70
100
AcDbEntity
  8
A-POR-___-___-EXI
100
AcDbLine
 10
-6936.084258341828
 20
14341.75371427693
 30
0.0
 11
-7086.084258341816
 21
14341.75371427693
 31
0.0
1001
REVIT
1002
{
1070
     1
1000
22829088
1002
}
1002
{
1070
     5
1000
22369145
1002
}
  0
LINE
  5
224
330
70
100
AcDbEntity
  8
A-POR-___-___-EXI
100
AcDbLine
 10
-6140.084258341829
 20
14279.75371427693
 30
0.0
 11
-6140.084258341829
 21
14309.75371427693
 31
0.0
1001
REVIT
1002
{
1070
     1
1000
22829088
1002
}
1002
{
1070
     5
1000
22369145
1002
}
  0
LINE
  5
225
330
70
100
AcDbEntity
  8
A-POR-___-___-EXI
100
AcDbLine
 10
-6140.084258341829
 20
14309.75371427693
 30
0.0
 11
-6936.084258341828
 21
14309.75371427693
 31
0.0
1001
REVIT
1002
{
1070
     1
1000
22829088
1002
}
1002
{
1070
     5
1000
22369145
1002
}
  0
LINE
  5
226
330
70
100
AcDbEntity
  8
A-POR-___-___-EXI
100
AcDbLine
 10
-6936.084258341828
 20
14309.75371427693
 30
0.0
 11
-6936.084258341828
 21
14279.75371427693
 31
0.0
1001
REVIT
1002
{
1070
     1
1000
22829088
1002
}
1002
{
1070
     5
1000
22369145
1002
}
  0
LINE
  5
227
330
70
100
AcDbEntity
  8
A-POR-___-___-EXI
100
AcDbLine
 10
-6936.084258341828
 20
14279.75371427693
 30
0.0
 11
-6140.084258341829
 21
14279.75371427693
 31
0.0
1001
REVIT
1002
{
1070
     1
1000
22829088
1002
}
1002
{
1070
     5
1000
22369145
1002
}
  0
ARC
  5
228
330
70
100
AcDbEntity
  8
A-POR-___-___-EXI
100
AcDbCircle
 10
-6936.084258341828
 20
14309.75371427693
 30
0.0
 40
796.0000000000011
100
AcDbArc
 50
270.0
 51
0.0
1001
REVIT
1002
{
1070
     1
1000
22829088
1002
}
1002
{
1070
     5
1000
22369145
1002
}
1002
{
1070
     3
1000
-2000027
1002
}
  0
LINE
  5
229
330
70
100
AcDbEntity
  8
A-POR-___-___-EXI
100
AcDbLine
 10
-7136.084258341816
 20
15981.75371427692
 30
0.0
 11
-7106.084258341818
 21
15981.75371427692
 31
0.0
1001
REVIT
1002
{
1070
     1
1000
22829198
1002
}
1002
{
1070
     5
1000
22369133
1002
}
  0
LINE
  5
22A
330
70
100
AcDbEntity
  8
A-POR-___-___-EXI
100
AcDbLine
 10
-7136.084258341816
 20
15541.75371427596
 30
0.0
 11
-7136.084258341816
 21
15981.75371427692
 31
0.0
1001
REVIT
1002
{
1070
     1
1000
22829198
1002
}
1002
{
1070
     5
1000
22369133
1002
}
  0
LINE
  5
22B
330
70
100
AcDbEntity
  8
A-POR-___-___-EXI
100
AcDbLine
 10
-7106.084258341818
 20
15541.75371427596
 30
0.0
 11
-7136.084258341816
 21
15541.75371427596
 31
0.0
1001
REVIT
1002
{
1070
     1
1000
22829198
1002
}
1002
{
1070
     5
1000
22369133
1002
}
  0
LINE
  5
22C
330
70
100
AcDbEntity
  8
A-POR-___-___-EXI
100
AcDbLine
 10
-7106.084258341818
 20
15981.75371427692
 30
0.0
 11
-7106.084258341818
 21
15541.75371427596
 31
0.0
1001
REVIT
1002
{
1070
     1
1000
22829198
1002
}
1002
{
1070
     5
1000
22369133
1002
}
  0
LINE
  5
22D
330
70
100
AcDbEntity
  8
A-POR-___-___-EXI
100
AcDbLine
 10
-7766.084258341816
 20
15541.75371427596
 30
0.0
 11
-7766.084258341816
 21
15981.75371427692
 31
0.0
1001
REVIT
1002
{
1070
     1
1000
22829198
1002
}
1002
{
1070
     5
1000
22369133
1002
}
  0
LINE
  5
22E
330
70
100
AcDbEntity
  8
A-POR-___-___-EXI
100
AcDbLine
 10
-7736.084258341816
 20
15541.75371427596
 30
0.0
 11
-7766.084258341816
 21
15541.75371427596
 31
0.0
1001
REVIT
1002
{
1070
     1
1000
22829198
1002
}
1002
{
1070
     5
1000
22369133
1002
}
  0
LINE
  5
22F
330
70
100
AcDbEntity
  8
A-POR-___-___-EXI
100
AcDbLine
 10
-7736.084258341816
 20
15981.75371427692
 30
0.0
 11
-7736.084258341816
 21
15541.75371427596
 31
0.0
1001
REVIT
1002
{
1070
     1
1000
22829198
1002
}
1002
{
1070
     5
1000
22369133
1002
}
  0
LINE
  5
230
330
70
100
AcDbEntity
  8
A-POR-___-___-EXI
100
AcDbLine
 10
-7766.084258341816
 20
15981.75371427692
 30
0.0
 11
-7736.084258341816
 21
15981.75371427692
 31
0.0
1001
REVIT
1002
{
1070
     1
1000
22829198
1002
}
1002
{
1070
     5
1000
22369133
1002
}
  0
LINE
  5
231
330
70
100
AcDbEntity
  8
A-POR-___-___-EXI
100
AcDbLine
 10
-7704.084258341817
 20
15541.75371427596
 30
0.0
 11
-7704.084258341817
 21
14945.75371427596
 31
0.0
1001
REVIT
1002
{
1070
     1
1000
22829198
1002
}
1002
{
1070
     5
1000
22369133
1002
}
  0
LINE
  5
232
330
70
100
AcDbEntity
  8
A-POR-___-___-EXI
100
AcDbLine
 10
-7734.084258341816
 20
15541.75371427596
 30
0.0
 11
-7704.084258341817
 21
15541.75371427596
 31
0.0
1001
REVIT
1002
{
1070
     1
1000
22829198
1002
}
1002
{
1070
     5
1000
22369133
1002
}
  0
LINE
  5
233
330
70
100
AcDbEntity
  8
A-POR-___-___-EXI
100
AcDbLine
 10
-7734.084258341816
 20
14945.75371427596
 30
0.0
 11
-7734.084258341816
 21
15541.75371427596
 31
0.0
1001
REVIT
1002
{
1070
     1
1000
22829198
1002
}
1002
{
1070
     5
1000
22369133
1002
}
  0
LINE
  5
234
330
70
100
AcDbEntity
  8
A-POR-___-___-EXI
100
AcDbLine
 10
-7704.084258341817
 20
14945.75371427596
 30
0.0
 11
-7734.084258341816
 21
14945.75371427596
 31
0.0
1001
REVIT
1002
{
1070
     1
1000
22829198
1002
}
1002
{
1070
     5
1000
22369133
1002
}
  0
ARC
  5
235
330
70
100
AcDbEntity
  8
A-POR-___-___-EXI
100
AcDbCircle
 10
-7734.084258341816
 20
15541.75371427596
 30
0.0
 40
596.0
100
AcDbArc
 50
270.0
 51
0.0
1001
REVIT
1002
{
1070
     1
1000
22829198
1002
}
1002
{
1070
     5
1000
22369133
1002
}
1002
{
1070
     3
1000
-2000027
1002
}
  0
LINE
  5
236
330
70
100
AcDbEntity
  8
A-POR-___-___-EXI
100
AcDbLine
 10
-4986.084258341766
 20
20361.75371427694
 30
0.0
 11
-5016.084258341766
 21
20361.75371427694
 31
0.0
1001
REVIT
1002
{
1070
     1
1000
22828953
1002
}
1002
{
1070
     5
1000
22369135
1002
}
  0
LINE
  5
237
330
70
100
AcDbEntity
  8
A-POR-___-___-EXI
100
AcDbLine
 10
-5016.084258341766
 20
20361.75371427694
 30
0.0
 11
-5016.084258341766
 21
20211.75371427695
 31
0.0
1001
REVIT
1002
{
1070
     1
1000
22828953
1002
}
1002
{
1070
     5
1000
22369135
1002
}
  0
LINE
  5
238
330
70
100
AcDbEntity
  8
A-POR-___-___-EXI
100
AcDbLine
 10
-5016.084258341766
 20
20211.75371427695
 30
0.0
 11
-4986.084258341766
 21
20211.75371427695
 31
0.0
1001
REVIT
1002
{
1070
     1
1000
22828953
1002
}
1002
{
1070
     5
1000
22369135
1002
}
  0
LINE
  5
239
330
70
100
AcDbEntity
  8
A-POR-___-___-EXI
100
AcDbLine
 10
-4986.084258341766
 20
20211.75371427695
 30
0.0
 11
-4986.084258341766
 21
20361.75371427694
 31
0.0
1001
REVIT
1002
{
1070
     1
1000
22828953
1002
}
1002
{
1070
     5
1000
22369135
1002
}
  0
LINE
  5
23A
330
70
100
AcDbEntity
  8
A-POR-___-___-EXI
100
AcDbLine
 10
-5746.084258341767
 20
20361.75371427694
 30
0.0
 11
-5746.084258341767
 21
20211.75371427696
 31
0.0
1001
REVIT
1002
{
1070
     1
1000
22828953
1002
}
1002
{
1070
     5
1000
22369135
1002
}
  0
LINE
  5
23B
330
70
100
AcDbEntity
  8
A-POR-___-___-EXI
100
AcDbLine
 10
-5746.084258341767
 20
20211.75371427696
 30
0.0
 11
-5716.084258341766
 21
20211.75371427696
 31
0.0
1001
REVIT
1002
{
1070
     1
1000
22828953
1002
}
1002
{
1070
     5
1000
22369135
1002
}
  0
LINE
  5
23C
330
70
100
AcDbEntity
  8
A-POR-___-___-EXI
100
AcDbLine
 10
-5716.084258341766
 20
20211.75371427696
 30
0.0
 11
-5716.084258341766
 21
20361.75371427694
 31
0.0
1001
REVIT
1002
{
1070
     1
1000
22828953
1002
}
1002
{
1070
     5
1000
22369135
1002
}
  0
LINE
  5
23D
330
70
100
AcDbEntity
  8
A-POR-___-___-EXI
100
AcDbLine
 10
-5716.084258341766
 20
20361.75371427694
 30
0.0
 11
-5746.084258341767
 21
20361.75371427694
 31
0.0
1001
REVIT
1002
{
1070
     1
1000
22828953
1002
}
1002
{
1070
     5
1000
22369135
1002
}
  0
LINE
  5
23E
330
70
100
AcDbEntity
  8
A-POR-___-___-EXI
100
AcDbLine
 10
-5048.084258341766
 20
19515.75371427695
 30
0.0
 11
-5018.084258341766
 21
19515.75371427695
 31
0.0
1001
REVIT
1002
{
1070
     1
1000
22828953
1002
}
1002
{
1070
     5
1000
22369135
1002
}
  0
LINE
  5
23F
330
70
100
AcDbEntity
  8
A-POR-___-___-EXI
100
AcDbLine
 10
-5018.084258341766
 20
19515.75371427695
 30
0.0
 11
-5018.084258341766
 21
20211.75371427695
 31
0.0
1001
REVIT
1002
{
1070
     1
1000
22828953
1002
}
1002
{
1070
     5
1000
22369135
1002
}
  0
LINE
  5
240
330
70
100
AcDbEntity
  8
A-POR-___-___-EXI
100
AcDbLine
 10
-5018.084258341766
 20
20211.75371427695
 30
0.0
 11
-5048.084258341766
 21
20211.75371427695
 31
0.0
1001
REVIT
1002
{
1070
     1
1000
22828953
1002
}
1002
{
1070
     5
1000
22369135
1002
}
  0
LINE
  5
241
330
70
100
AcDbEntity
  8
A-POR-___-___-EXI
100
AcDbLine
 10
-5048.084258341766
 20
20211.75371427695
 30
0.0
 11
-5048.084258341766
 21
19515.75371427695
 31
0.0
1001
REVIT
1002
{
1070
     1
1000
22828953
1002
}
1002
{
1070
     5
1000
22369135
1002
}
  0
ARC
  5
242
330
70
100
AcDbEntity
  8
A-POR-___-___-EXI
100
AcDbCircle
 10
-5018.084258341766
 20
20211.75371427695
 30
0.0
 40
696.0000000000004
100
AcDbArc
 50
180.0
 51
270.0
1001
REVIT
1002
{
1070
     1
1000
22828953
1002
}
1002
{
1070
     5
1000
22369135
1002
}
1002
{
1070
     3
1000
-2000027
1002
}
  0
LINE
  5
243
330
70
100
AcDbEntity
  8
A-POR-___-___-EXI
100
AcDbLine
 10
-5776.084258341762
 20
23981.75371427696
 30
0.0
 11
-5806.084258341762
 21
23981.75371427696
 31
0.0
1001
REVIT
1002
{
1070
     1
1000
22829323
1002
}
1002
{
1070
     5
1000
22369133
1002
}
  0
LINE
  5
244
330
70
100
AcDbEntity
  8
A-POR-___-___-EXI
100
AcDbLine
 10
-5806.084258341762
 20
23981.75371427696
 30
0.0
 11
-5806.084258341762
 21
23831.75371427697
 31
0.0
1001
REVIT
1002
{
1070
     1
1000
22829323
1002
}
1002
{
1070
     5
1000
22369133
1002
}
  0
LINE
  5
245
330
70
100
AcDbEntity
  8
A-POR-___-___-EXI
100
AcDbLine
 10
-5806.084258341762
 20
23831.75371427697
 30
0.0
 11
-5776.084258341762
 21
23831.75371427697
 31
0.0
1001
REVIT
1002
{
1070
     1
1000
22829323
1002
}
1002
{
1070
     5
1000
22369133
1002
}
  0
LINE
  5
246
330
70
100
AcDbEntity
  8
A-POR-___-___-EXI
100
AcDbLine
 10
-5776.084258341762
 20
23831.75371427697
 30
0.0
 11
-5776.084258341762
 21
23981.75371427696
 31
0.0
1001
REVIT
1002
{
1070
     1
1000
22829323
1002
}
1002
{
1070
     5
1000
22369133
1002
}
  0
LINE
  5
247
330
70
100
AcDbEntity
  8
A-POR-___-___-EXI
100
AcDbLine
 10
-6436.084258341761
 20
23981.75371427696
 30
0.0
 11
-6436.084258341761
 21
23831.75371427697
 31
0.0
1001
REVIT
1002
{
1070
     1
1000
22829323
1002
}
1002
{
1070
     5
1000
22369133
1002
}
  0
LINE
  5
248
330
70
100
AcDbEntity
  8
A-POR-___-___-EXI
100
AcDbLine
 10
-6436.084258341761
 20
23831.75371427697
 30
0.0
 11
-6406.08425834176
 21
23831.75371427697
 31
0.0
1001
REVIT
1002
{
1070
     1
1000
22829323
1002
}
1002
{
1070
     5
1000
22369133
1002
}
  0
LINE
  5
249
330
70
100
AcDbEntity
  8
A-POR-___-___-EXI
100
AcDbLine
 10
-6406.08425834176
 20
23831.75371427697
 30
0.0
 11
-6406.08425834176
 21
23981.75371427696
 31
0.0
1001
REVIT
1002
{
1070
     1
1000
22829323
1002
}
1002
{
1070
     5
1000
22369133
1002
}
  0
LINE
  5
24A
330
70
100
AcDbEntity
  8
A-POR-___-___-EXI
100
AcDbLine
 10
-6406.08425834176
 20
23981.75371427696
 30
0.0
 11
-6436.084258341761
 21
23981.75371427696
 31
0.0
1001
REVIT
1002
{
1070
     1
1000
22829323
1002
}
1002
{
1070
     5
1000
22369133
1002
}
  0
LINE
  5
24B
330
70
100
AcDbEntity
  8
A-POR-___-___-EXI
100
AcDbLine
 10
-5838.084258341761
 20
23235.75371427697
 30
0.0
 11
-5808.08425834176
 21
23235.75371427697
 31
0.0
1001
REVIT
1002
{
1070
     1
1000
22829323
1002
}
1002
{
1070
     5
1000
22369133
1002
}
  0
LINE
  5
24C
330
70
100
AcDbEntity
  8
A-POR-___-___-EXI
100
AcDbLine
 10
-5808.08425834176
 20
23235.75371427697
 30
0.0
 11
-5808.08425834176
 21
23831.75371427697
 31
0.0
1001
REVIT
1002
{
1070
     1
1000
22829323
1002
}
1002
{
1070
     5
1000
22369133
1002
}
  0
LINE
  5
24D
330
70
100
AcDbEntity
  8
A-POR-___-___-EXI
100
AcDbLine
 10
-5808.08425834176
 20
23831.75371427697
 30
0.0
 11
-5838.084258341761
 21
23831.75371427697
 31
0.0
1001
REVIT
1002
{
1070
     1
1000
22829323
1002
}
1002
{
1070
     5
1000
22369133
1002
}
  0
LINE
  5
24E
330
70
100
AcDbEntity
  8
A-POR-___-___-EXI
100
AcDbLine
 10
-5838.084258341761
 20
23831.75371427697
 30
0.0
 11
-5838.084258341761
 21
23235.75371427697
 31
0.0
1001
REVIT
1002
{
1070
     1
1000
22829323
1002
}
1002
{
1070
     5
1000
22369133
1002
}
  0
ARC
  5
24F
330
70
100
AcDbEntity
  8
A-POR-___-___-EXI
100
AcDbCircle
 10
-5808.08425834176
 20
23831.75371427697
 30
0.0
 40
596.0000000000007
100
AcDbArc
 50
180.0
 51
270.0
1001
REVIT
1002
{
1070
     1
1000
22829323
1002
}
1002
{
1070
     5
1000
22369133
1002
}
1002
{
1070
     3
1000
-2000027
1002
}
  0
LINE
  5
250
330
70
100
AcDbEntity
  8
A-POR-___-___-EXI
100
AcDbLine
 10
-6861.084258341826
 20
23981.75371427696
 30
0.0
 11
-6831.084258341824
 21
23981.75371427696
 31
0.0
1001
REVIT
1002
{
1070
     1
1000
22829022
1002
}
1002
{
1070
     5
1000
22369145
1002
}
  0
LINE
  5
251
330
70
100
AcDbEntity
  8
A-POR-___-___-EXI
100
AcDbLine
 10
-6861.084258341826
 20
23831.75371427698
 30
0.0
 11
-6861.084258341826
 21
23981.75371427696
 31
0.0
1001
REVIT
1002
{
1070
     1
1000
22829022
1002
}
1002
{
1070
     5
1000
22369145
1002
}
  0
LINE
  5
252
330
70
100
AcDbEntity
  8
A-POR-___-___-EXI
100
AcDbLine
 10
-6831.084258341824
 20
23831.75371427698
 30
0.0
 11
-6861.084258341826
 21
23831.75371427698
 31
0.0
1001
REVIT
1002
{
1070
     1
1000
22829022
1002
}
1002
{
1070
     5
1000
22369145
1002
}
  0
LINE
  5
253
330
70
100
AcDbEntity
  8
A-POR-___-___-EXI
100
AcDbLine
 10
-6831.084258341824
 20
23981.75371427696
 30
0.0
 11
-6831.084258341824
 21
23831.75371427698
 31
0.0
1001
REVIT
1002
{
1070
     1
1000
22829022
1002
}
1002
{
1070
     5
1000
22369145
1002
}
  0
LINE
  5
254
330
70
100
AcDbEntity
  8
A-POR-___-___-EXI
100
AcDbLine
 10
-7691.084258341823
 20
23831.75371427697
 30
0.0
 11
-7691.084258341823
 21
23981.75371427696
 31
0.0
1001
REVIT
1002
{
1070
     1
1000
22829022
1002
}
1002
{
1070
     5
1000
22369145
1002
}
  0
LINE
  5
255
330
70
100
AcDbEntity
  8
A-POR-___-___-EXI
100
AcDbLine
 10
-7661.084258341823
 20
23831.75371427697
 30
0.0
 11
-7691.084258341823
 21
23831.75371427697
 31
0.0
1001
REVIT
1002
{
1070
     1
1000
22829022
1002
}
1002
{
1070
     5
1000
22369145
1002
}
  0
LINE
  5
256
330
70
100
AcDbEntity
  8
A-POR-___-___-EXI
100
AcDbLine
 10
-7661.084258341823
 20
23981.75371427696
 30
0.0
 11
-7661.084258341823
 21
23831.75371427697
 31
0.0
1001
REVIT
1002
{
1070
     1
1000
22829022
1002
}
1002
{
1070
     5
1000
22369145
1002
}
  0
LINE
  5
257
330
70
100
AcDbEntity
  8
A-POR-___-___-EXI
100
AcDbLine
 10
-7691.084258341823
 20
23981.75371427696
 30
0.0
 11
-7661.084258341823
 21
23981.75371427696
 31
0.0
1001
REVIT
1002
{
1070
     1
1000
22829022
1002
}
1002
{
1070
     5
1000
22369145
1002
}
  0
LINE
  5
258
330
70
100
AcDbEntity
  8
A-POR-___-___-EXI
100
AcDbLine
 10
-7629.084258341824
 20
23831.75371427697
 30
0.0
 11
-7629.084258341824
 21
23035.75371427697
 31
0.0
1001
REVIT
1002
{
1070
     1
1000
22829022
1002
}
1002
{
1070
     5
1000
22369145
1002
}
  0
LINE
  5
259
330
70
100
AcDbEntity
  8
A-POR-___-___-EXI
100
AcDbLine
 10
-7659.084258341825
 20
23831.75371427697
 30
0.0
 11
-7629.084258341824
 21
23831.75371427697
 31
0.0
1001
REVIT
1002
{
1070
     1
1000
22829022
1002
}
1002
{
1070
     5
1000
22369145
1002
}
  0
LINE
  5
25A
330
70
100
AcDbEntity
  8
A-POR-___-___-EXI
100
AcDbLine
 10
-7659.084258341825
 20
23035.75371427697
 30
0.0
 11
-7659.084258341825
 21
23831.75371427697
 31
0.0
1001
REVIT
1002
{
1070
     1
1000
22829022
1002
}
1002
{
1070
     5
1000
22369145
1002
}
  0
LINE
  5
25B
330
70
100
AcDbEntity
  8
A-POR-___-___-EXI
100
AcDbLine
 10
-7629.084258341824
 20
23035.75371427697
 30
0.0
 11
-7659.084258341825
 21
23035.75371427697
 31
0.0
1001
REVIT
1002
{
1070
     1
1000
22829022
1002
}
1002
{
1070
     5
1000
22369145
1002
}
  0
ARC
  5
25C
330
70
100
AcDbEntity
  8
A-POR-___-___-EXI
100
AcDbCircle
 10
-7659.084258341825
 20
23831.75371427697
 30
0.0
 40
796.000000000001
100
AcDbArc
 50
270.0
 51
0.0
1001
REVIT
1002
{
1070
     1
1000
22829022
1002
}
1002
{
1070
     5
1000
22369145
1002
}
1002
{
1070
     3
1000
-2000027
1002
}
  0
LINE
  5
25D
330
70
100
AcDbEntity
  8
A-ALV-___-___-EXI
100
AcDbLine
 10
-7246.084258341799
 20
4851.753714276949
 30
0.0
 11
-5376.084258341776
 21
4851.753714276949
 31
0.0
1001
REVIT
1002
{
1070
     1
1000
22851240
1002
}
1002
{
1070
     2
1000
-2000051
1002
}
1002
{
1070
     3
1000
-2000042
1002
}
  0
LINE
  5
25E
330
70
100
AcDbEntity
  8
A-ALV-___-___-EXI
100
AcDbLine
 10
-5376.084258341776
 20
4851.753714276949
 30
0.0
 11
-5376.084258341776
 21
4411.75371427695
 31
0.0
1001
REVIT
1002
{
1070
     1
1000
22851240
1002
}
1002
{
1070
     2
1000
-2000051
1002
}
1002
{
1070
     3
1000
-2000042
1002
}
  0
LINE
  5
25F
330
70
100
AcDbEntity
  8
A-JAN-___-___-EXI
100
AcDbLine
 10
-5376.084258341776
 20
4411.75371427695
 30
0.0
 11
-4616.084258341776
 21
4411.753714276946
 31
0.0
1001
REVIT
1002
{
1070
     1
1000
22851240
1002
}
1002
{
1070
     2
1000
-2000051
1002
}
1002
{
1070
     3
1000
-2000042
1002
}
  0
LINE
  5
260
330
70
100
AcDbEntity
  8
A-ALV-___-___-EXI
100
AcDbLine
 10
-4616.084258341776
 20
4411.753714276946
 30
0.0
 11
-4616.084258341776
 21
4851.753714276946
 31
0.0
1001
REVIT
1002
{
1070
     1
1000
22851240
1002
}
1002
{
1070
     2
1000
-2000051
1002
}
1002
{
1070
     3
1000
-2000042
1002
}
  0
LINE
  5
261
330
70
100
AcDbEntity
  8
A-ALV-___-___-EXI
100
AcDbLine
 10
-4616.084258341776
 20
4851.753714276946
 30
0.0
 11
-4236.084258341776
 21
4851.753714276948
 31
0.0
1001
REVIT
1002
{
1070
     1
1000
22851240
1002
}
1002
{
1070
     2
1000
-2000051
1002
}
1002
{
1070
     3
1000
-2000042
1002
}
  0
LINE
  5
262
330
70
100
AcDbEntity
  8
A-ALV-___-___-EXI
100
AcDbLine
 10
-4236.084258341776
 20
4851.753714276948
 30
0.0
 11
-4236.084258341773
 21
8251.753714276954
 31
0.0
1001
REVIT
1002
{
1070
     1
1000
22851240
1002
}
1002
{
1070
     2
1000
-2000051
1002
}
1002
{
1070
     3
1000
-2000042
1002
}
  0
LINE
  5
263
330
70
100
AcDbEntity
  8
A-ALV-___-___-EXI
100
AcDbLine
 10
-4236.084258341773
 20
8251.753714276954
 30
0.0
 11
-7386.084258341799
 21
8251.753714276947
 31
0.0
1001
REVIT
1002
{
1070
     1
1000
22851240
1002
}
1002
{
1070
     2
1000
-2000051
1002
}
1002
{
1070
     3
1000
-2000042
1002
}
  0
LINE
  5
264
330
70
100
AcDbEntity
  8
A-ALV-___-___-EXI
100
AcDbLine
 10
-4616.084258341776
 20
4411.753714276946
 30
0.0
 11
-4616.084258341776
 21
4851.753714276946
 31
0.0
1001
REVIT
1002
{
1070
     1
1000
22851238
1002
}
1002
{
1070
     2
1000
-2000051
1002
}
1002
{
1070
     3
1000
-2000042
1002
}
  0
LINE
  5
265
330
70
100
AcDbEntity
  8
A-JAN-___-___-EXI
100
AcDbLine
 10
-4616.084258341776
 20
4851.753714276946
 30
0.0
 11
-5376.084258341776
 21
4851.753714276949
 31
0.0
1001
REVIT
1002
{
1070
     1
1000
22851238
1002
}
1002
{
1070
     2
1000
-2000051
1002
}
1002
{
1070
     3
1000
-2000042
1002
}
  0
LINE
  5
266
330
70
100
AcDbEntity
  8
A-ALV-___-___-EXI
100
AcDbLine
 10
-5376.084258341776
 20
4851.753714276949
 30
0.0
 11
-5376.084258341776
 21
4411.75371427695
 31
0.0
1001
REVIT
1002
{
1070
     1
1000
22851238
1002
}
1002
{
1070
     2
1000
-2000051
1002
}
1002
{
1070
     3
1000
-2000042
1002
}
  0
LINE
  5
267
330
70
100
AcDbEntity
  8
A-JAN-___-___-EXI
100
AcDbLine
 10
-5376.084258341776
 20
4411.75371427695
 30
0.0
 11
-4616.084258341776
 21
4411.753714276946
 31
0.0
1001
REVIT
1002
{
1070
     1
1000
22851238
1002
}
1002
{
1070
     2
1000
-2000051
1002
}
1002
{
1070
     3
1000
-2000042
1002
}
  0
LINE
  5
268
330
70
100
AcDbEntity
  8
A-ALV-___-___-EXI
100
AcDbLine
 10
-4616.084258341776
 20
4411.753714276946
 30
0.0
 11
-3936.084258341779
 21
4411.753714276948
 31
0.0
1001
REVIT
1002
{
1070
     1
1000
22851238
1002
}
1002
{
1070
     2
1000
-2000051
1002
}
1002
{
1070
     3
1000
-2000042
1002
}
  0
LINE
  5
269
330
70
100
AcDbEntity
  8
A-ALV-___-___-EXI
100
AcDbLine
 10
-3936.084258341779
 20
4411.753714276948
 30
0.0
 11
-3936.084258341765
 21
23981.75371427696
 31
0.0
1001
REVIT
1002
{
1070
     1
1000
22851238
1002
}
1002
{
1070
     2
1000
-2000051
1002
}
1002
{
1070
     3
1000
-2000042
1002
}
  0
LINE
  5
26A
330
70
100
AcDbEntity
  8
A-ALV-___-___-EXI
100
AcDbLine
 10
-3936.084258341765
 20
23981.75371427696
 30
0.0
 11
-5776.08425834176
 21
23981.75371427696
 31
0.0
1001
REVIT
1002
{
1070
     1
1000
22851238
1002
}
1002
{
1070
     2
1000
-2000051
1002
}
1002
{
1070
     3
1000
-2000042
1002
}
  0
VIEWPORT
  5
1A0
330
6C
100
AcDbEntity
 67
     1
  8
A-ESC-___-___-EXI
100
AcDbViewport
 10
169.6670646466294
 20
206.180758788693
 30
0.0
 40
44.20000000000091
 41
195.9000000000002
 68
     2
 69
     2
 12
-6146.084258341807
 22
14196.75371427695
 13
0.0
 23
0.0
 14
0.0
 24
0.0
 15
0.0
 25
0.0
 16
0.0
 26
0.0
 36
1.0
 17
0.0
 27
0.0
 37
0.0
 42
0.0
 43
0.0
 44
0.0
 45
19590.00000000002
 50
0.0
 51
0.0
 72
  1000
 90
    32768
  1

281
     0
 71
     1
 74
     1
110
0.0
120
0.0
130
0.0
111
1.0
121
0.0
131
0.0
112
0.0
122
1.0
132
0.0
 79
     0
146
0.0
170
     0
 61
     5
292
     1
282
     1
141
0.0
142
0.0
 63
   250
421
  3355443
  0
VIEWPORT
  5
1A2
330
6C
100
AcDbEntity
 67
     1
  8
0
100
AcDbViewport
 10
13.68724279835391
 20
4.5
 30
0.0
 40
31.37448559670782
 41
12.0
 68
     1
 69
     1
 12
13.68724279835391
 22
4.5
 13
0.0
 23
0.0
 14
0.0
 24
0.0
 15
0.0
 25
0.0
 16
0.0
 26
0.0
 36
1.0
 17
0.0
 27
0.0
 37
0.0
 42
50.0
 43
0.0
 44
0.0
 45
12.0
 50
0.0
 51
0.0
 72
   100
 90
    32800
  1

281
     0
 71
     1
 74
     1
110
0.0
120
0.0
130
0.0
111
1.0
121
0.0
131
0.0
112
0.0
122
1.0
132
0.0
 79
     0
146
0.0
170
     0
 61
     5
348
2F
292
     1
282
     1
141
0.0
142
0.0
 63
   250
421
  3355443
  0
INSERT
  5
1AE
330
6C
100
AcDbEntity
 67
     1
  8
A-PIL-___-___-EXI
100
AcDbBlockReference
  2
SVG - A4-22853593-Não nomeada
 10
0.0
 20
0.0
 30
0.0
1001
REVIT
1002
{
1070
     1
1000
22853614
1002
}
1002
{
1070
     5
1000
22853593
1002
}
1002
{
1070
     2
1000
-2000280
1002
}
  0
ENDSEC
  0
SECTION
  2
OBJECTS
  0
DICTIONARY
  5
C
330
0
100
AcDbDictionary
281
     1
  3
ACAD_CIP_PREVIOUS_PRODUCT_INFO
350
79
  3
ACAD_COLOR
350
63
  3
ACAD_DETAILVIEWSTYLE
350
6A
  3
ACAD_GROUP
350
D
  3
ACAD_IMAGE_VARS
350
7A
  3
ACAD_LAYOUT
350
62
  3
ACAD_MATERIAL
350
10
  3
ACAD_MLEADERSTYLE
350
66
  3
ACAD_MLINESTYLE
350
5F
  3
ACAD_PLOTSETTINGS
350
61
  3
ACAD_PLOTSTYLENAME
350
E
  3
ACAD_RENDER_ACTIVE_RAPIDRT_SETTINGS
350
1CE
  3
ACAD_RENDER_RAPIDRT_SETTINGS
350
1C7
  3
ACAD_SCALELIST
350
42
  3
ACAD_SECTIONVIEWSTYLE
350
68
  3
ACAD_TABLESTYLE
350
64
  3
ACAD_VISUALSTYLE
350
29
  3
ACDB_RECOMPOSE_DATA
350
27B
  3
AcDbVariableDictionary
350
1B7
  3
REVIT_DICTIONARY
350
1AF
  0
SUN
  5
1B6
330
57
100
AcDbSun
 90
        1
290
     1
 63
     7
421
 16777215
 40
0.3
291
     1
 91
  2460364
 92
 50008000
292
     0
 70
     1
 71
   128
280
     1
  0
DICTIONARY
  5
1D3
330
2
100
AcDbDictionary
280
     1
281
     1
  3
ACAD_LAYERSTATES
360
1D4
  0
DICTIONARY
  5
1B4
330
70
100
AcDbDictionary
280
     1
281
     1
  3
ACAD_SORTENTS
360
1B5
  0
XRECORD
  5
79
102
{ACAD_REACTORS
330
C
102
}
330
C
100
AcDbXrecord
280
     1
300
ACD
300
2022
300

  0
DICTIONARY
  5
63
102
{ACAD_REACTORS
330
C
102
}
330
C
100
AcDbDictionary
281
     1
  0
DICTIONARY
  5
6A
102
{ACAD_REACTORS
330
C
102
}
330
C
100
AcDbDictionary
281
     1
  3
Imperial24
350
6B
  3
Metric50
350
1BF
  0
DICTIONARY
  5
D
102
{ACAD_REACTORS
330
C
102
}
330
C
100
AcDbDictionary
281
     1
  0
RASTERVARIABLES
  5
7A
102
{ACAD_REACTORS
330
C
102
}
330
C
100
AcDbRasterVariables
 90
        0
 70
     0
 71
     1
 72
     1
  0
DICTIONARY
  5
62
102
{ACAD_REACTORS
330
C
102
}
330
C
100
AcDbDictionary
281
     1
  3
Layout1
350
6F
  3
Model
350
73
  0
DICTIONARY
  5
10
102
{ACAD_REACTORS
330
C
102
}
330
C
100
AcDbDictionary
281
     1
  3
ByBlock
350
19
  3
ByLayer
350
11
  3
Global
350
21
  0
DICTIONARY
  5
66
102
{ACAD_REACTORS
330
C
102
}
330
C
100
AcDbDictionary
281
     1
  3
Standard
350
67
  0
DICTIONARY
  5
5F
102
{ACAD_REACTORS
330
C
102
}
330
C
100
AcDbDictionary
281
     1
  3
Standard
350
60
  0
DICTIONARY
  5
61
102
{ACAD_REACTORS
330
C
102
}
330
C
100
AcDbDictionary
281
     1
  0
ACDBDICTIONARYWDFLT
  5
E
102
{ACAD_REACTORS
330
C
102
}
330
C
100
AcDbDictionary
281
     1
  3
Normal
350
F
100
AcDbDictionaryWithDefault
340
F
  0
RAPIDRTRENDERSETTINGS
  5
1CE
102
{ACAD_REACTORS
330
C
102
}
330
C
100
AcDbRenderSettings
 90
        2
  1
Médio
290
     1
290
     0
290
     1
290
     1
  1

  1
Aplica 5 níveis de renderização
 90
        0
100
AcDbRapidRTRenderSettings
 90
        3
 70
     0
 90
        5
 90
        1
 70
     1
 70
     2
 40
3.0
 40
3.0
290
     1
  0
DICTIONARY
  5
1C7
102
{ACAD_REACTORS
330
C
102
}
330
C
100
AcDbDictionary
281
     1
  3
Alto
350
1CA
  3
Baixo
350
1C8
  3
Médio
350
1C9
  3
Qualidade de curta duração
350
1CB
  3
Qualidade de longa duração
350
1CD
  3
Qualidade de média duração
350
1CC
  0
DICTIONARY
  5
42
102
{ACAD_REACTORS
330
C
102
}
330
C
100
AcDbDictionary
281
     1
  3
A0
350
43
  3
A1
350
44
  3
A2
350
45
  3
A3
350
46
  3
A4
350
47
  3
A5
350
48
  3
A6
350
49
  3
A7
350
4A
  3
A8
350
4B
  3
A9
350
4C
  3
B0
350
4D
  3
B1
350
4E
  3
B2
350
4F
  3
B3
350
50
  3
B4
350
51
  3
B5
350
52
  3
B6
350
53
  0
DICTIONARY
  5
68
102
{ACAD_REACTORS
330
C
102
}
330
C
100
AcDbDictionary
281
     1
  3
Imperial24
350
69
  3
Metric50
350
1BE
  0
DICTIONARY
  5
64
102
{ACAD_REACTORS
330
C
102
}
330
C
100
AcDbDictionary
281
     1
  3
Standard
350
65
  0
DICTIONARY
  5
29
102
{ACAD_REACTORS
330
C
102
}
330
C
100
AcDbDictionary
281
     1
  3
2dWireframe
350
2F
  3
Basic
350
2E
  3
Brighten
350
35
  3
ColorChange
350
39
  3
Conceptual
350
32
  3
Dim
350
34
  3
EdgeColorOff
350
41
  3
Facepattern
350
38
  3
Flat
350
2A
  3
FlatWithEdges
350
2B
  3
Gouraud
350
2C
  3
GouraudWithEdges
350
2D
  3
Hidden
350
31
  3
JitterOff
350
3F
  3
Linepattern
350
37
  3
OverhangOff
350
40
  3
Realistic
350
33
  3
Shaded
350
3E
  3
Shaded with edges
350
3D
  3
Shades of Gray
350
3A
  3
Sketchy
350
3B
  3
Thicken
350
36
  3
Wireframe
350
30
  3
X-Ray
350
3C
  0
XRECORD
  5
27B
102
{ACAD_REACTORS
330
C
102
}
330
C
100
AcDbXrecord
280
     1
 90
        1
330
65
  0
DICTIONARY
  5
1B7
102
{ACAD_REACTORS
330
C
102
}
330
C
100
AcDbDictionary
281
     1
  3
CANNOSCALE
350
1BC
  3
CMLEADERSTYLE
350
1B9
  3
CTABLESTYLE
350
1B8
  3
CVIEWDETAILSTYLE
350
1BA
  3
CVIEWSECTIONSTYLE
350
1BB
  0
DICTIONARY
  5
1AF
102
{ACAD_REACTORS
330
C
102
}
330
C
100
AcDbDictionary
281
     1
  3
DRAWING_TOOL
350
1B3
  3
REVIT_CATEGORY_MAPPING
350
1B1
  3
REVIT_SUB_CATEGORY_MAPPING
350
1B2
  3
REVIT_TYPE_MAPPING
350
1B0
  0
DICTIONARY
  5
1D4
102
{ACAD_REACTORS
330
1D3
102
}
330
1D3
100
AcDbDictionary
281
     1
  0
SORTENTSTABLE
  5
1B5
102
{ACAD_REACTORS
330
1B4
102
}
330
1B4
100
AcDbSortentsTable
330
70
331
1D8
  5
24F
331
1DA
  5
258
331
1DB
  5
259
331
1DC
  5
25A
331
1DD
  5
25B
331
1DE
  5
25D
331
1DF
  5
25E
331
1E0
  5
25F
331
1E1
  5
260
331
1E2
  5
261
331
1E3
  5
262
331
1E4
  5
263
331
1F5
  5
1D8
331
1F6
  5
1D9
331
1F7
  5
1DA
331
1F8
  5
1DB
331
1F9
  5
1DC
331
1FA
  5
1DD
331
1FB
  5
1DE
331
1FC
  5
1DF
331
1FD
  5
1E0
331
1FE
  5
1E1
331
1FF
  5
1E2
331
200
  5
1E3
331
201
  5
1E4
331
202
  5
1E5
331
203
  5
1F5
331
204
  5
1F6
331
205
  5
1F7
331
206
  5
1F8
331
207
  5
1F9
331
208
  5
1FA
331
209
  5
1FB
331
20A
  5
1FC
331
20B
  5
1FD
331
20C
  5
1FE
331
20D
  5
1FF
331
20E
  5
200
331
20F
  5
201
331
210
  5
202
331
211
  5
203
331
212
  5
204
331
213
  5
205
331
214
  5
206
331
215
  5
207
331
216
  5
208
331
217
  5
209
331
218
  5
20A
331
219
  5
20B
331
21A
  5
20C
331
21B
  5
20D
331
21C
  5
20E
331
21D
  5
20F
331
21E
  5
210
331
21F
  5
211
331
220
  5
212
331
221
  5
213
331
222
  5
214
331
223
  5
215
331
224
  5
216
331
225
  5
217
331
226
  5
218
331
227
  5
219
331
228
  5
21A
331
229
  5
21B
331
22A
  5
21C
331
22B
  5
21D
331
22C
  5
21E
331
22D
  5
21F
331
22E
  5
220
331
22F
  5
221
331
230
  5
222
331
231
  5
223
331
232
  5
224
331
233
  5
225
331
234
  5
226
331
235
  5
227
331
236
  5
228
331
237
  5
229
331
238
  5
22A
331
239
  5
22B
331
23A
  5
22C
331
23B
  5
22D
331
23C
  5
22E
331
23D
  5
22F
331
23E
  5
230
331
23F
  5
231
331
240
  5
232
331
241
  5
233
331
242
  5
234
331
243
  5
235
331
244
  5
236
331
245
  5
237
331
246
  5
238
331
247
  5
239
331
248
  5
23A
331
249
  5
23B
331
24A
  5
23C
331
24B
  5
23D
331
24C
  5
23E
331
24D
  5
23F
331
24E
  5
240
331
24F
  5
241
331
250
  5
242
331
251
  5
243
331
252
  5
244
331
253
  5
245
331
254
  5
246
331
255
  5
247
331
256
  5
248
331
257
  5
249
331
258
  5
24A
331
259
  5
24B
331
25A
  5
24C
331
25B
  5
24D
331
25C
  5
24E
331
25D
  5
251
331
25E
  5
252
331
25F
  5
253
331
260
  5
254
331
261
  5
255
331
262
  5
256
331
263
  5
257
  0
ACDBDETAILVIEWSTYLE
  5
6B
102
{ACAD_REACTORS
330
6A
102
}
330
6A
100
AcDbModelDocViewStyle
 70
     0
  3
Imperial24
290
     1
300
Imperial24
 90
        0
100
AcDbDetailViewStyle
 70
     0
 71
     0
 90
        3
 71
     1
340
55
 62
   256
 40
0.24
340
0
 62
   256
 40
0.24
300

 40
0.36
280
     3
 71
     2
340
5D
 90
       25
 62
   256
 71
     3
340
55
 62
   256
 40
0.24
 90
        1
 40
0.75
 90
        1
300
%<\AcVar ViewType \f "%tc1">% %<\AcVar ViewDetailId>%\PSCALE %<\AcVar ViewScale \f "%sn">%
 71
     4
340
5D
 90
       25
 62
   256
340
5D
 90
       25
 62
   256
280
     0
  0
ACDBDETAILVIEWSTYLE
  5
1BF
102
{ACAD_REACTORS
330
6A
102
}
330
6A
100
AcDbModelDocViewStyle
 70
     0
  3
Metric50
290
     1
300
Metric50
 90
        0
100
AcDbDetailViewStyle
 70
     0
 71
     0
 90
        3
 71
     1
340
55
 62
   256
 40
5.0
340
0
 62
   256
 40
5.0
300

 40
0.0
280
     1
 71
     2
340
5D
 90
       25
 62
   256
 71
     3
340
55
 62
   256
 40
5.0
 90
        0
 40
15.0
 90
        1
300
%<\AcVar ViewDetailId>% (%<\AcVar ViewScale \f "%sn">%)
 71
     4
340
5D
 90
       25
 62
   256
340
5D
 90
       25
 62
   256
280
     0
  0
LAYOUT
  5
6F
102
{ACAD_REACTORS
330
62
102
}
330
62
100
AcDbPlotSettings
  1

  2
PDF24
  4
A4
  6

 40
0.0
 41
0.0
 42
0.1113433837890625
 43
0.0
 44
210.0
 45
297.0
 46
0.0
 47
0.0
 48
0.0
 49
0.0
140
0.0
141
0.0
142
1.0
143
1.415217033324818
 70
   688
 72
     1
 73
     1
 74
     1
  7

 75
     0
147
0.7066054014702363
 76
     0
 77
     2
 78
   300
148
-64.27901684485153
149
-59.47287840171589
100
AcDbLayout
  1
Layout1
 70
     0
 71
     1
 10
64.27901684485153
 20
59.47287840171589
 11
484.5984757423225
 21
356.6684553999278
 12
0.0
 22
0.0
 32
0.0
 14
64.27901684485153
 24
59.47287840171589
 34
-0.0015258207003583
 15
274.3012221009852
 25
356.5108803466415
 35
0.0000000349246037
146
0.0
 13
0.0
 23
0.0
 33
0.0
 16
1.0
 26
0.0
 36
0.0
 17
0.0
 27
1.0
 37
0.0
 76
     0
330
6C
331
1A2
1001
ACAD_PSEXT
1000
PDF24
1000
PDF24
1000
\\.\pipe\PDFPrint
1000
PDF24 Printer
1070
     0
  0
LAYOUT
  5
73
102
{ACAD_REACTORS
330
62
102
}
330
62
100
AcDbPlotSettings
  1

  2

  4

  6

 40
0.0
 41
0.0
 42
0.0
 43
0.0
 44
0.0
 45
0.0
 46
0.0
 47
0.0
 48
0.0
 49
0.0
140
0.0
141
0.0
142
1.0
143
1.0
 70
  1712
 72
     0
 73
     0
 74
     0
  7

 75
     0
147
1.0
 76
     0
 77
     2
 78
   300
148
0.0
149
0.0
100
AcDbLayout
  1
Model
 70
     1
 71
     0
 10
0.0
 20
0.0
 11
12.0
 21
9.0
 12
0.0
 22
0.0
 32
0.0
 14
0.0
 24
0.0
 34
0.0
 15
0.0
 25
0.0
 35
0.0
146
0.0
 13
0.0
 23
0.0
 33
0.0
 16
1.0
 26
0.0
 36
0.0
 17
0.0
 27
1.0
 37
0.0
 76
     0
330
70
331
57
  0
MATERIAL
  5
19
102
{ACAD_XDICTIONARY
360
1A
102
}
102
{ACAD_REACTORS
330
10
102
}
330
10
100
AcDbMaterial
  1
ByBlock
 72
     0
 43
0.0208333333333333
 43
0.0
 43
0.0
 43
0.0
 43
0.0
 43
0.0208333333333333
 43
0.0
 43
0.0
 43
0.0
 43
0.0
 43
1.0
 43
0.0
 43
0.0
 43
0.0
 43
0.0
 43
1.0
 77
     0
 47
0.0208333333333333
 47
0.0
 47
0.0
 47
0.0
 47
0.0
 47
0.0208333333333333
 47
0.0
 47
0.0
 47
0.0
 47
0.0
 47
1.0
 47
0.0
 47
0.0
 47
0.0
 47
0.0
 47
1.0
171
     0
 49
0.0208333333333333
 49
0.0
 49
0.0
 49
0.0
 49
0.0
 49
0.0208333333333333
 49
0.0
 49
0.0
 49
0.0
 49
0.0
 49
1.0
 49
0.0
 49
0.0
 49
0.0
 49
0.0
 49
1.0
175
     0
142
0.0208333333333333
142
0.0
142
0.0
142
0.0
142
0.0
142
0.0208333333333333
142
0.0
142
0.0
142
0.0
142
0.0
142
1.0
142
0.0
142
0.0
142
0.0
142
0.0
142
1.0
179
     0
144
0.0208333333333333
144
0.0
144
0.0
144
0.0
144
0.0
144
0.0208333333333333
144
0.0
144
0.0
144
0.0
144
0.0
144
1.0
144
0.0
144
0.0
144
0.0
144
0.0
144
1.0
147
0.0208333333333333
147
0.0
147
0.0
147
0.0
147
0.0
147
0.0208333333333333
147
0.0
147
0.0
147
0.0
147
0.0
147
1.0
147
0.0
147
0.0
147
0.0
147
0.0
147
1.0
  0
MATERIAL
  5
11
102
{ACAD_XDICTIONARY
360
12
102
}
102
{ACAD_REACTORS
330
10
102
}
330
10
100
AcDbMaterial
  1
ByLayer
 72
     0
 43
0.0208333333333333
 43
0.0
 43
0.0
 43
0.0
 43
0.0
 43
0.0208333333333333
 43
0.0
 43
0.0
 43
0.0
 43
0.0
 43
1.0
 43
0.0
 43
0.0
 43
0.0
 43
0.0
 43
1.0
 77
     0
 47
0.0208333333333333
 47
0.0
 47
0.0
 47
0.0
 47
0.0
 47
0.0208333333333333
 47
0.0
 47
0.0
 47
0.0
 47
0.0
 47
1.0
 47
0.0
 47
0.0
 47
0.0
 47
0.0
 47
1.0
171
     0
 49
0.0208333333333333
 49
0.0
 49
0.0
 49
0.0
 49
0.0
 49
0.0208333333333333
 49
0.0
 49
0.0
 49
0.0
 49
0.0
 49
1.0
 49
0.0
 49
0.0
 49
0.0
 49
0.0
 49
1.0
175
     0
142
0.0208333333333333
142
0.0
142
0.0
142
0.0
142
0.0
142
0.0208333333333333
142
0.0
142
0.0
142
0.0
142
0.0
142
1.0
142
0.0
142
0.0
142
0.0
142
0.0
142
1.0
179
     0
144
0.0208333333333333
144
0.0
144
0.0
144
0.0
144
0.0
144
0.0208333333333333
144
0.0
144
0.0
144
0.0
144
0.0
144
1.0
144
0.0
144
0.0
144
0.0
144
0.0
144
1.0
147
0.0208333333333333
147
0.0
147
0.0
147
0.0
147
0.0
147
0.0208333333333333
147
0.0
147
0.0
147
0.0
147
0.0
147
1.0
147
0.0
147
0.0
147
0.0
147
0.0
147
1.0
  0
MATERIAL
  5
21
102
{ACAD_XDICTIONARY
360
22
102
}
102
{ACAD_REACTORS
330
10
102
}
330
10
100
AcDbMaterial
  1
Global
 72
     0
 43
0.0208333333333333
 43
0.0
 43
0.0
 43
0.0
 43
0.0
 43
0.0208333333333333
 43
0.0
 43
0.0
 43
0.0
 43
0.0
 43
1.0
 43
0.0
 43
0.0
 43
0.0
 43
0.0
 43
1.0
 77
     0
 47
0.0208333333333333
 47
0.0
 47
0.0
 47
0.0
 47
0.0
 47
0.0208333333333333
 47
0.0
 47
0.0
 47
0.0
 47
0.0
 47
1.0
 47
0.0
 47
0.0
 47
0.0
 47
0.0
 47
1.0
171
     0
 49
0.0208333333333333
 49
0.0
 49
0.0
 49
0.0
 49
0.0
 49
0.0208333333333333
 49
0.0
 49
0.0
 49
0.0
 49
0.0
 49
1.0
 49
0.0
 49
0.0
 49
0.0
 49
0.0
 49
1.0
175
     0
142
0.0208333333333333
142
0.0
142
0.0
142
0.0
142
0.0
142
0.0208333333333333
142
0.0
142
0.0
142
0.0
142
0.0
142
1.0
142
0.0
142
0.0
142
0.0
142
0.0
142
1.0
179
     0
144
0.0208333333333333
144
0.0
144
0.0
144
0.0
144
0.0
144
0.0208333333333333
144
0.0
144
0.0
144
0.0
144
0.0
144
1.0
144
0.0
144
0.0
144
0.0
144
0.0
144
1.0
147
0.0208333333333333
147
0.0
147
0.0
147
0.0
147
0.0
147
0.0208333333333333
147
0.0
147
0.0
147
0.0
147
0.0
147
1.0
147
0.0
147
0.0
147
0.0
147
0.0
147
1.0
  0
MLEADERSTYLE
  5
67
102
{ACAD_REACTORS
330
66
102
}
330
66
100
AcDbMLeaderStyle
179
     2
170
     2
171
     1
172
     0
 90
        2
 40
0.0
 41
0.0
173
     1
 91
-1056964608
340
5B
 92
       -2
290
     1
 42
0.09
291
     1
 43
0.36
  3
Standard
 44
0.18
300

342
55
174
     1
178
     6
175
     1
176
     0
 93
-1056964608
 45
0.18
292
     0
297
     0
 46
0.18
 94
-1056964608
 47
1.0
 49
1.0
140
1.0
293
     1
141
0.0
294
     1
177
     0
142
1.0
295
     1
296
     0
143
0.125
271
     0
272
     9
273
     9
298
     1
  0
MLINESTYLE
  5
60
102
{ACAD_REACTORS
330
5F
102
}
330
5F
100
AcDbMlineStyle
  2
STANDARD
 70
     0
  3

 62
   256
 51
90.0
 52
90.0
 71
     2
 49
0.5
 62
   256
  6
BYLAYER
 49
-0.5
 62
   256
  6
BYLAYER
  0
ACDBPLACEHOLDER
  5
F
102
{ACAD_REACTORS
330
E
102
}
330
E
  0
RAPIDRTRENDERSETTINGS
  5
1CA
102
{ACAD_REACTORS
330
1C7
102
}
330
1C7
100
AcDbRenderSettings
 90
        2
  1
Alto
290
     1
290
     0
290
     1
290
     1
  1

  1
Aplica 10 níveis de renderização
 90
        2
100
AcDbRapidRTRenderSettings
 90
        3
 70
     0
 90
       10
 90
        1
 70
     2
 70
     2
 40
3.0
 40
3.0
290
     1
  0
RAPIDRTRENDERSETTINGS
  5
1C8
102
{ACAD_REACTORS
330
1C7
102
}
330
1C7
100
AcDbRenderSettings
 90
        2
  1
Baixo
290
     1
290
     0
290
     1
290
     1
  1

  1
Aplica 1 nível de renderização
 90
        0
100
AcDbRapidRTRenderSettings
 90
        3
 70
     0
 90
        1
 90
        1
 70
     0
 70
     2
 40
3.0
 40
3.0
290
     1
  0
RAPIDRTRENDERSETTINGS
  5
1C9
102
{ACAD_REACTORS
330
1C7
102
}
330
1C7
100
AcDbRenderSettings
 90
        2
  1
Médio
290
     1
290
     0
290
     1
290
     1
  1

  1
Aplica 5 níveis de renderização
 90
        1
100
AcDbRapidRTRenderSettings
 90
        3
 70
     0
 90
        5
 90
        1
 70
     1
 70
     2
 40
3.0
 40
3.0
290
     1
  0
RAPIDRTRENDERSETTINGS
  5
1CB
102
{ACAD_REACTORS
330
1C7
102
}
330
1C7
100
AcDbRenderSettings
 90
        2
  1
Qualidade de curta duração
290
     1
290
     0
290
     1
290
     1
  1

  1
Renderiza por 10 minutos
 90
        3
100
AcDbRapidRTRenderSettings
 90
        3
 70
     1
 90
        1
 90
       10
 70
     1
 70
     2
 40
3.0
 40
3.0
290
     1
  0
RAPIDRTRENDERSETTINGS
  5
1CD
102
{ACAD_REACTORS
330
1C7
102
}
330
1C7
100
AcDbRenderSettings
 90
        2
  1
Qualidade de longa duração
290
     1
290
     0
290
     1
290
     1
  1

  1
Renderiza por 12 horas
 90
        5
100
AcDbRapidRTRenderSettings
 90
        3
 70
     1
 90
        1
 90
      720
 70
     2
 70
     2
 40
3.0
 40
3.0
290
     1
  0
RAPIDRTRENDERSETTINGS
  5
1CC
102
{ACAD_REACTORS
330
1C7
102
}
330
1C7
100
AcDbRenderSettings
 90
        2
  1
Qualidade de média duração
290
     1
290
     0
290
     1
290
     1
  1

  1
Renderiza por 60 minutos
 90
        4
100
AcDbRapidRTRenderSettings
 90
        3
 70
     1
 90
        1
 90
       60
 70
     2
 70
     2
 40
3.0
 40
3.0
290
     1
  0
SCALE
  5
43
102
{ACAD_REACTORS
330
42
102
}
330
42
100
AcDbScale
 70
     0
300
1:1
140
1.0
141
1.0
290
     1
  0
SCALE
  5
44
102
{ACAD_REACTORS
330
42
102
}
330
42
100
AcDbScale
 70
     0
300
1/128" = 1'-0"
140
0.0078125
141
12.0
290
     0
  0
SCALE
  5
45
102
{ACAD_REACTORS
330
42
102
}
330
42
100
AcDbScale
 70
     0
300
1/64" = 1'-0"
140
0.015625
141
12.0
290
     0
  0
SCALE
  5
46
102
{ACAD_REACTORS
330
42
102
}
330
42
100
AcDbScale
 70
     0
300
1/32" = 1'-0"
140
0.03125
141
12.0
290
     0
  0
SCALE
  5
47
102
{ACAD_REACTORS
330
42
102
}
330
42
100
AcDbScale
 70
     0
300
1/16" = 1'-0"
140
0.0625
141
12.0
290
     0
  0
SCALE
  5
48
102
{ACAD_REACTORS
330
42
102
}
330
42
100
AcDbScale
 70
     0
300
3/32" = 1'-0"
140
0.09375
141
12.0
290
     0
  0
SCALE
  5
49
102
{ACAD_REACTORS
330
42
102
}
330
42
100
AcDbScale
 70
     0
300
1/8" = 1'-0"
140
0.125
141
12.0
290
     0
  0
SCALE
  5
4A
102
{ACAD_REACTORS
330
42
102
}
330
42
100
AcDbScale
 70
     0
300
3/16" = 1'-0"
140
0.1875
141
12.0
290
     0
  0
SCALE
  5
4B
102
{ACAD_REACTORS
330
42
102
}
330
42
100
AcDbScale
 70
     0
300
1/4" = 1'-0"
140
0.25
141
12.0
290
     0
  0
SCALE
  5
4C
102
{ACAD_REACTORS
330
42
102
}
330
42
100
AcDbScale
 70
     0
300
3/8" = 1'-0"
140
0.375
141
12.0
290
     0
  0
SCALE
  5
4D
102
{ACAD_REACTORS
330
42
102
}
330
42
100
AcDbScale
 70
     0
300
1/2" = 1'-0"
140
0.5
141
12.0
290
     0
  0
SCALE
  5
4E
102
{ACAD_REACTORS
330
42
102
}
330
42
100
AcDbScale
 70
     0
300
3/4" = 1'-0"
140
0.75
141
12.0
290
     0
  0
SCALE
  5
4F
102
{ACAD_REACTORS
330
42
102
}
330
42
100
AcDbScale
 70
     0
300
1" = 1'-0"
140
1.0
141
12.0
290
     0
  0
SCALE
  5
50
102
{ACAD_REACTORS
330
42
102
}
330
42
100
AcDbScale
 70
     0
300
1-1/2" = 1'-0"
140
1.5
141
12.0
290
     0
  0
SCALE
  5
51
102
{ACAD_REACTORS
330
42
102
}
330
42
100
AcDbScale
 70
     0
300
3" = 1'-0"
140
3.0
141
12.0
290
     0
  0
SCALE
  5
52
102
{ACAD_REACTORS
330
42
102
}
330
42
100
AcDbScale
 70
     0
300
6" = 1'-0"
140
6.0
141
12.0
290
     0
  0
SCALE
  5
53
102
{ACAD_REACTORS
330
42
102
}
330
42
100
AcDbScale
 70
     0
300
1'-0" = 1'-0"
140
12.0
141
12.0
290
     0
  0
ACDBSECTIONVIEWSTYLE
  5
69
102
{ACAD_REACTORS
330
68
102
}
330
68
100
AcDbModelDocViewStyle
 70
     0
  3
Imperial24
290
     1
300
Imperial24
 90
        0
100
AcDbSectionViewStyle
 70
     0
 71
     0
 90
       78
 71
     1
340
55
 62
   256
 40
0.24
340
0
340
0
 62
   256
 40
0.24
300
I, O, Q, S, X, Z
 40
0.48
 90
        3
 40
0.18
 90
        1
 71
     2
340
5D
 90
       25
 62
   256
340
5D
 90
       50
 62
   256
 40
0.24
 40
0.0
 40
0.24
 71
     3
340
55
 62
   256
 40
0.24
 90
        1
 40
0.75
 90
        1
300
%<\AcVar ViewType \f "%tc1">% %<\AcVar ViewSectionStartId>%-%<\AcVar ViewSectionEndId>%\PSCALE %<\AcVar ViewScale \f "%sn">%
 71
     4
 62
   256
 62
   257
300
ANSI31
 40
1.0
 90
        0
290
     0
290
     0
 90
        6
 40
0.0
 40
1.570796326794896
 40
0.2617993877991494
 40
1.308996938995747
 40
-0.2617993877991494
 40
1.832595714594046
  0
ACDBSECTIONVIEWSTYLE
  5
1BE
102
{ACAD_REACTORS
330
68
102
}
330
68
100
AcDbModelDocViewStyle
 70
     0
  3
Metric50
290
     1
300
Metric50
 90
        0
100
AcDbSectionViewStyle
 70
     0
 71
     0
 90
      102
 71
     1
340
55
 62
   256
 40
5.0
340
0
340
0
 62
   256
 40
5.0
300
I, O, Q, S, X, Z
 40
10.0
 90
        0
 40
2.5
 90
        0
 71
     2
340
5D
 90
       25
 62
   256
340
5D
 90
       50
 62
   256
 40
5.0
 40
2.5
 40
5.0
 71
     3
340
55
 62
   256
 40
5.0
 90
        0
 40
15.0
 90
        1
300
%<\AcVar ViewSectionStartId>%-%<\AcVar ViewSectionEndId>% (%<\AcVar ViewScale \f "%sn">%)
 71
     4
 62
   256
 62
   257
300
ANSI31
 40
1.0
 90
        0
290
     0
290
     0
 90
        6
 40
0.0
 40
1.570796326794896
 40
0.2617993877991494
 40
1.308996938995747
 40
-0.2617993877991494
 40
1.832595714594046
  0
TABLESTYLE
  5
65
102
{ACAD_XDICTIONARY
360
279
102
}
102
{ACAD_REACTORS
330
64
102
}
330
64
100
AcDbTableStyle
280
     0
  3
Standard
 70
     0
 71
     0
 40
0.06
 41
0.06
280
     0
281
     0
  7
Standard
140
0.18
170
     2
 62
     0
 63
     7
283
     0
 90
      512
 91
        0
  1

274
    -2
284
     1
 64
     0
275
    -2
285
     1
 65
     0
276
    -2
286
     1
 66
     0
277
    -2
287
     1
 67
     0
278
    -2
288
     1
 68
     0
279
    -2
289
     1
 69
     0
  7
Standard
140
0.25
170
     5
 62
     0
 63
     7
283
     0
 90
      512
 91
        0
  1

274
    -2
284
     1
 64
     0
275
    -2
285
     1
 65
     0
276
    -2
286
     1
 66
     0
277
    -2
287
     1
 67
     0
278
    -2
288
     1
 68
     0
279
    -2
289
     1
 69
     0
  7
Standard
140
0.18
170
     5
 62
     0
 63
     7
283
     0
 90
      512
 91
        0
  1

274
    -2
284
     1
 64
     0
275
    -2
285
     1
 65
     0
276
    -2
286
     1
 66
     0
277
    -2
287
     1
 67
     0
278
    -2
288
     1
 68
     0
279
    -2
289
     1
 69
     0
  0
VISUALSTYLE
  5
2F
102
{ACAD_REACTORS
330
29
102
}
330
29
100
AcDbVisualStyle
  2
2dWireframe
 70
     4
177
     3
291
     0
 70
    58
 90
        0
176
     1
 90
        2
176
     1
 90
        0
176
     1
 90
        0
176
     1
 40
0.6
176
     1
 40
30.0
176
     1
 62
     7
420
 16777215
176
     1
 90
        1
176
     1
 90
        4
176
     1
 62
     7
176
     1
 62
   257
176
     1
 90
        1
176
     1
 90
        1
176
     1
 40
1.0
176
     1
 90
        0
176
     1
 62
   257
176
     1
 40
1.0
176
     1
 90
        1
176
     1
 90
        6
176
     1
 90
        2
176
     1
 62
     7
176
     1
 90
        5
176
     1
 90
        0
176
     1
 90
        0
176
     1
290
     0
176
     1
 90
        1
176
     1
 40
0.0
176
     1
 90
        0
176
     1
290
     1
176
     1
290
     1
176
     1
290
     0
176
     1
290
     0
176
     1
290
     0
176
     1
290
     0
176
     1
290
     0
176
     1
290
     0
176
     1
290
     0
176
     1
 90
       50
176
     1
 40
0.0
176
     1
 40
1.0
176
     1
 90
        0
176
     1
 62
    18
420
        0
176
     1
 90
       50
176
     1
 90
        3
176
     1
 62
     5
420
      255
176
     1
290
     0
176
     1
 90
       50
176
     1
 90
       50
176
     1
 90
       50
176
     1
290
     0
176
     1
 90
       50
176
     1
 62
   256
176
     0
 40
1.0
176
     0
 90
        2
176
     1
  1
strokes_ogs.tif
176
     1
290
     0
176
     1
 40
1.0
176
     1
 40
1.0
176
     1
  0
VISUALSTYLE
  5
2E
102
{ACAD_REACTORS
330
29
102
}
330
29
100
AcDbVisualStyle
  2
Basic
 70
     7
177
     3
291
     1
 70
    58
 90
        1
176
     1
 90
        0
176
     1
 90
        1
176
     1
 90
        0
176
     1
 40
0.6
176
     1
 40
30.0
176
     1
 62
     7
420
 16777215
176
     1
 90
        0
176
     1
 90
        4
176
     1
 62
     7
176
     1
 62
   257
176
     1
 90
        1
176
     1
 90
        1
176
     1
 40
1.0
176
     1
 90
        8
176
     1
 62
     7
176
     1
 40
1.0
176
     1
 90
        1
176
     1
 90
        6
176
     1
 90
        2
176
     1
 62
     7
176
     1
 90
        5
176
     1
 90
        0
176
     1
 90
        0
176
     1
290
     0
176
     1
 90
        1
176
     1
 40
0.0
176
     1
 90
        0
176
     1
290
     0
176
     1
290
     1
176
     1
290
     1
176
     1
290
     0
176
     1
290
     0
176
     1
290
     0
176
     1
290
     0
176
     1
290
     0
176
     1
290
     0
176
     1
 90
       50
176
     1
 40
0.0
176
     1
 40
1.0
176
     1
 90
        0
176
     1
 62
    18
420
        0
176
     1
 90
       50
176
     1
 90
        3
176
     1
 62
     5
420
      255
176
     1
290
     0
176
     1
 90
       50
176
     1
 90
       50
176
     1
 90
       50
176
     1
290
     0
176
     1
 90
       50
176
     1
 62
   256
176
     0
 40
1.0
176
     0
 90
        2
176
     1
  1
strokes_ogs.tif
176
     1
290
     0
176
     1
 40
1.0
176
     1
 40
1.0
176
     1
  0
VISUALSTYLE
  5
35
102
{ACAD_REACTORS
330
29
102
}
330
29
100
AcDbVisualStyle
  2
Brighten
 70
    12
177
     3
291
     1
 70
    58
 90
        2
176
     1
 90
        2
176
     1
 90
        0
176
     1
 90
        0
176
     1
 40
0.6
176
     1
 40
30.0
176
     1
 62
     7
420
 16777215
176
     1
 90
        1
176
     1
 90
        4
176
     1
 62
     7
176
     1
 62
   257
176
     1
 90
        1
176
     1
 90
        1
176
     1
 40
1.0
176
     1
 90
        8
176
     1
 62
     7
176
     1
 40
1.0
176
     1
 90
        1
176
     1
 90
        6
176
     1
 90
        2
176
     1
 62
     7
176
     1
 90
        5
176
     1
 90
        0
176
     1
 90
        0
176
     1
290
     0
176
     1
 90
        1
176
     1
 40
50.0
176
     1
 90
        0
176
     1
290
     0
176
     1
290
     1
176
     1
290
     1
176
     1
290
     0
176
     1
290
     0
176
     1
290
     0
176
     1
290
     0
176
     1
290
     0
176
     1
290
     0
176
     1
 90
       50
176
     1
 40
0.0
176
     1
 40
1.0
176
     1
 90
        0
176
     1
 62
    18
420
        0
176
     1
 90
       50
176
     1
 90
        3
176
     1
 62
     5
420
      255
176
     1
290
     0
176
     1
 90
       50
176
     1
 90
       50
176
     1
 90
       50
176
     1
290
     0
176
     1
 90
       50
176
     1
 62
   256
176
     0
 40
1.0
176
     0
 90
        2
176
     1
  1
strokes_ogs.tif
176
     1
290
     0
176
     1
 40
1.0
176
     1
 40
1.0
176
     1
  0
VISUALSTYLE
  5
39
102
{ACAD_REACTORS
330
29
102
}
330
29
100
AcDbVisualStyle
  2
ColorChange
 70
    16
177
     3
291
     1
 70
    58
 90
        2
176
     1
 90
        2
176
     1
 90
        3
176
     1
 90
        0
176
     1
 40
0.6
176
     1
 40
30.0
176
     1
 62
     8
420
  8421504
176
     1
 90
        1
176
     1
 90
        4
176
     1
 62
     7
176
     1
 62
   257
176
     1
 90
        1
176
     1
 90
        1
176
     1
 40
1.0
176
     1
 90
        8
176
     1
 62
     8
420
  8421504
176
     1
 40
1.0
176
     1
 90
        1
176
     1
 90
        6
176
     1
 90
        2
176
     1
 62
     7
176
     1
 90
        5
176
     1
 90
        0
176
     1
 90
        0
176
     1
290
     0
176
     1
 90
        1
176
     1
 40
0.0
176
     1
 90
        0
176
     1
290
     0
176
     1
290
     1
176
     1
290
     1
176
     1
290
     0
176
     1
290
     0
176
     1
290
     0
176
     1
290
     0
176
     1
290
     0
176
     1
290
     0
176
     1
 90
       50
176
     1
 40
0.0
176
     1
 40
1.0
176
     1
 90
        0
176
     1
 62
    18
420
        0
176
     1
 90
       50
176
     1
 90
        3
176
     1
 62
     5
420
      255
176
     1
290
     0
176
     1
 90
       50
176
     1
 90
       50
176
     1
 90
       50
176
     1
290
     0
176
     1
 90
       50
176
     1
 62
   256
176
     0
 40
1.0
176
     0
 90
        2
176
     1
  1
strokes_ogs.tif
176
     1
290
     0
176
     1
 40
1.0
176
     1
 40
1.0
176
     1
  0
VISUALSTYLE
  5
32
102
{ACAD_REACTORS
330
29
102
}
330
29
100
AcDbVisualStyle
  2
Conceptual
 70
     9
177
     3
291
     0
 70
    58
 90
        3
176
     1
 90
        2
176
     1
 90
        0
176
     1
 90
        0
176
     1
 40
0.6
176
     1
 40
30.0
176
     1
 62
     7
420
 16777215
176
     1
 90
        2
176
     1
 90
        2
176
     1
 62
     7
176
     1
 62
   257
176
     1
 90
        1
176
     1
 90
        1
176
     1
 40
179.0
176
     1
 90
        8
176
     1
 62
     7
176
     1
 40
1.0
176
     1
 90
        1
176
     1
 90
        6
176
     1
 90
        2
176
     1
 62
     7
176
     1
 90
        3
176
     1
 90
        0
176
     1
 90
        0
176
     1
290
     0
176
     1
 90
        1
176
     1
 40
0.0
176
     1
 90
        0
176
     1
290
     0
176
     1
290
     1
176
     1
290
     1
176
     1
290
     0
176
     1
290
     0
176
     1
290
     0
176
     1
290
     0
176
     1
290
     0
176
     1
290
     0
176
     1
 90
       50
176
     1
 40
0.0
176
     1
 40
1.0
176
     1
 90
        0
176
     1
 62
    18
420
        0
176
     1
 90
       50
176
     1
 90
        3
176
     1
 62
     5
420
      255
176
     1
290
     0
176
     1
 90
       50
176
     1
 90
       50
176
     1
 90
       50
176
     1
290
     0
176
     1
 90
       50
176
     1
 62
   256
176
     0
 40
1.0
176
     0
 90
        2
176
     1
  1
strokes_ogs.tif
176
     1
290
     0
176
     1
 40
1.0
176
     1
 40
1.0
176
     1
  0
VISUALSTYLE
  5
34
102
{ACAD_REACTORS
330
29
102
}
330
29
100
AcDbVisualStyle
  2
Dim
 70
    11
177
     3
291
     1
 70
    58
 90
        2
176
     1
 90
        2
176
     1
 90
        0
176
     1
 90
        0
176
     1
 40
0.6
176
     1
 40
30.0
176
     1
 62
     7
420
 16777215
176
     1
 90
        1
176
     1
 90
        4
176
     1
 62
     7
176
     1
 62
   257
176
     1
 90
        1
176
     1
 90
        1
176
     1
 40
1.0
176
     1
 90
        8
176
     1
 62
     7
176
     1
 40
1.0
176
     1
 90
        1
176
     1
 90
        6
176
     1
 90
        2
176
     1
 62
     7
176
     1
 90
        5
176
     1
 90
        0
176
     1
 90
        0
176
     1
290
     0
176
     1
 90
        1
176
     1
 40
-50.0
176
     1
 90
        0
176
     1
290
     0
176
     1
290
     1
176
     1
290
     1
176
     1
290
     0
176
     1
290
     0
176
     1
290
     0
176
     1
290
     0
176
     1
290
     0
176
     1
290
     0
176
     1
 90
       50
176
     1
 40
0.0
176
     1
 40
1.0
176
     1
 90
        0
176
     1
 62
    18
420
        0
176
     1
 90
       50
176
     1
 90
        3
176
     1
 62
     5
420
      255
176
     1
290
     0
176
     1
 90
       50
176
     1
 90
       50
176
     1
 90
       50
176
     1
290
     0
176
     1
 90
       50
176
     1
 62
   256
176
     0
 40
1.0
176
     0
 90
        2
176
     1
  1
strokes_ogs.tif
176
     1
290
     0
176
     1
 40
1.0
176
     1
 40
1.0
176
     1
  0
VISUALSTYLE
  5
41
102
{ACAD_REACTORS
330
29
102
}
330
29
100
AcDbVisualStyle
  2
EdgeColorOff
 70
    22
177
     3
291
     1
 70
    58
 90
        2
176
     0
 90
        2
176
     0
 90
        0
176
     0
 90
        0
176
     0
 40
0.6
176
     0
 40
30.0
176
     0
 62
     7
420
 16777215
176
     0
 90
        1
176
     0
 90
        4
176
     0
 62
     7
176
     0
 62
   257
176
     0
 90
        1
176
     0
 90
        1
176
     0
 40
1.0
176
     0
 90
        8
176
     2
 62
     7
176
     0
 40
1.0
176
     0
 90
        1
176
     0
 90
        6
176
     0
 90
        2
176
     0
 62
     7
176
     0
 90
        5
176
     0
 90
        0
176
     0
 90
        0
176
     0
290
     0
176
     0
 90
        1
176
     0
 40
0.0
176
     0
 90
        0
176
     0
290
     0
176
     0
290
     1
176
     0
290
     1
176
     0
290
     0
176
     0
290
     0
176
     0
290
     0
176
     0
290
     0
176
     0
290
     0
176
     0
290
     0
176
     0
 90
       50
176
     0
 40
0.0
176
     0
 40
1.0
176
     0
 90
        0
176
     0
 62
    18
420
        0
176
     0
 90
       50
176
     0
 90
        3
176
     0
 62
     5
420
      255
176
     0
290
     0
176
     0
 90
       50
176
     0
 90
       50
176
     0
 90
       50
176
     0
290
     0
176
     0
 90
       50
176
     0
 62
   256
176
     0
 40
1.0
176
     0
 90
        2
176
     0
  1
strokes_ogs.tif
176
     0
290
     0
176
     0
 40
1.0
176
     0
 40
1.0
176
     0
  0
VISUALSTYLE
  5
38
102
{ACAD_REACTORS
330
29
102
}
330
29
100
AcDbVisualStyle
  2
Facepattern
 70
    15
177
     3
291
     1
 70
    58
 90
        2
176
     1
 90
        2
176
     1
 90
        0
176
     1
 90
        0
176
     1
 40
0.6
176
     1
 40
30.0
176
     1
 62
     7
420
 16777215
176
     1
 90
        1
176
     1
 90
        4
176
     1
 62
     7
176
     1
 62
   257
176
     1
 90
        1
176
     1
 90
        1
176
     1
 40
1.0
176
     1
 90
        8
176
     1
 62
     7
176
     1
 40
1.0
176
     1
 90
        1
176
     1
 90
        6
176
     1
 90
        2
176
     1
 62
     7
176
     1
 90
        5
176
     1
 90
        0
176
     1
 90
        0
176
     1
290
     0
176
     1
 90
        1
176
     1
 40
0.0
176
     1
 90
        0
176
     1
290
     0
176
     1
290
     1
176
     1
290
     1
176
     1
290
     0
176
     1
290
     0
176
     1
290
     0
176
     1
290
     0
176
     1
290
     0
176
     1
290
     0
176
     1
 90
       50
176
     1
 40
0.0
176
     1
 40
1.0
176
     1
 90
        0
176
     1
 62
    18
420
        0
176
     1
 90
       50
176
     1
 90
        3
176
     1
 62
     5
420
      255
176
     1
290
     0
176
     1
 90
       50
176
     1
 90
       50
176
     1
 90
       50
176
     1
290
     0
176
     1
 90
       50
176
     1
 62
   256
176
     0
 40
1.0
176
     0
 90
        2
176
     1
  1
strokes_ogs.tif
176
     1
290
     0
176
     1
 40
1.0
176
     1
 40
1.0
176
     1
  0
VISUALSTYLE
  5
2A
102
{ACAD_REACTORS
330
29
102
}
330
29
100
AcDbVisualStyle
  2
Flat
 70
     0
177
     3
291
     1
 70
    58
 90
        2
176
     1
 90
        1
176
     1
 90
        1
176
     1
 90
        2
176
     1
 40
0.6
176
     1
 40
30.0
176
     1
 62
     7
420
 16777215
176
     1
 90
        0
176
     1
 90
        0
176
     1
 62
     7
176
     1
 62
   257
176
     1
 90
        1
176
     1
 90
        1
176
     1
 40
1.0
176
     1
 90
        8
176
     1
 62
     7
176
     1
 40
1.0
176
     1
 90
        1
176
     1
 90
        6
176
     1
 90
        2
176
     1
 62
     7
176
     1
 90
        5
176
     1
 90
        0
176
     1
 90
        0
176
     1
290
     0
176
     1
 90
       13
176
     1
 40
0.0
176
     1
 90
        0
176
     1
290
     0
176
     1
290
     1
176
     1
290
     1
176
     1
290
     0
176
     1
290
     0
176
     1
290
     0
176
     1
290
     0
176
     1
290
     0
176
     1
290
     0
176
     1
 90
       50
176
     1
 40
0.0
176
     1
 40
1.0
176
     1
 90
        0
176
     1
 62
    18
420
        0
176
     1
 90
       50
176
     1
 90
        3
176
     1
 62
     5
420
      255
176
     1
290
     0
176
     1
 90
       50
176
     1
 90
       50
176
     1
 90
       50
176
     1
290
     0
176
     1
 90
       50
176
     1
 62
   256
176
     0
 40
1.0
176
     0
 90
        2
176
     1
  1
strokes_ogs.tif
176
     1
290
     0
176
     1
 40
1.0
176
     1
 40
1.0
176
     1
  0
VISUALSTYLE
  5
2B
102
{ACAD_REACTORS
330
29
102
}
330
29
100
AcDbVisualStyle
  2
FlatWithEdges
 70
     1
177
     3
291
     1
 70
    58
 90
        2
176
     1
 90
        1
176
     1
 90
        1
176
     1
 90
        2
176
     1
 40
0.6
176
     1
 40
30.0
176
     1
 62
     7
420
 16777215
176
     1
 90
        1
176
     1
 90
        0
176
     1
 62
     7
176
     1
 62
   257
176
     1
 90
        1
176
     1
 90
        1
176
     1
 40
1.0
176
     1
 90
        0
176
     1
 62
   257
176
     1
 40
1.0
176
     1
 90
        1
176
     1
 90
        6
176
     1
 90
        2
176
     1
 62
     7
176
     1
 90
        5
176
     1
 90
        0
176
     1
 90
        0
176
     1
290
     0
176
     1
 90
       13
176
     1
 40
0.0
176
     1
 90
        0
176
     1
290
     0
176
     1
290
     1
176
     1
290
     1
176
     1
290
     0
176
     1
290
     0
176
     1
290
     0
176
     1
290
     0
176
     1
290
     0
176
     1
290
     0
176
     1
 90
       50
176
     1
 40
0.0
176
     1
 40
1.0
176
     1
 90
        0
176
     1
 62
    18
420
        0
176
     1
 90
       50
176
     1
 90
        3
176
     1
 62
     5
420
      255
176
     1
290
     0
176
     1
 90
       50
176
     1
 90
       50
176
     1
 90
       50
176
     1
290
     0
176
     1
 90
       50
176
     1
 62
   256
176
     0
 40
1.0
176
     0
 90
        2
176
     1
  1
strokes_ogs.tif
176
     1
290
     0
176
     1
 40
1.0
176
     1
 40
1.0
176
     1
  0
VISUALSTYLE
  5
2C
102
{ACAD_REACTORS
330
29
102
}
330
29
100
AcDbVisualStyle
  2
Gouraud
 70
     2
177
     3
291
     1
 70
    58
 90
        2
176
     1
 90
        2
176
     1
 90
        1
176
     1
 90
        2
176
     1
 40
0.6
176
     1
 40
30.0
176
     1
 62
     7
420
 16777215
176
     1
 90
        0
176
     1
 90
        0
176
     1
 62
     7
176
     1
 62
   257
176
     1
 90
        1
176
     1
 90
        1
176
     1
 40
1.0
176
     1
 90
        0
176
     1
 62
     7
176
     1
 40
1.0
176
     1
 90
        1
176
     1
 90
        6
176
     1
 90
        2
176
     1
 62
     7
176
     1
 90
        5
176
     1
 90
        0
176
     1
 90
        0
176
     1
290
     0
176
     1
 90
       13
176
     1
 40
0.0
176
     1
 90
        0
176
     1
290
     0
176
     1
290
     1
176
     1
290
     1
176
     1
290
     0
176
     1
290
     0
176
     1
290
     0
176
     1
290
     0
176
     1
290
     0
176
     1
290
     0
176
     1
 90
       50
176
     1
 40
0.0
176
     1
 40
1.0
176
     1
 90
        0
176
     1
 62
    18
420
        0
176
     1
 90
       50
176
     1
 90
        3
176
     1
 62
     5
420
      255
176
     1
290
     0
176
     1
 90
       50
176
     1
 90
       50
176
     1
 90
       50
176
     1
290
     0
176
     1
 90
       50
176
     1
 62
   256
176
     0
 40
1.0
176
     0
 90
        2
176
     1
  1
strokes_ogs.tif
176
     1
290
     0
176
     1
 40
1.0
176
     1
 40
1.0
176
     1
  0
VISUALSTYLE
  5
2D
102
{ACAD_REACTORS
330
29
102
}
330
29
100
AcDbVisualStyle
  2
GouraudWithEdges
 70
     3
177
     3
291
     1
 70
    58
 90
        2
176
     1
 90
        2
176
     1
 90
        1
176
     1
 90
        2
176
     1
 40
0.6
176
     1
 40
30.0
176
     1
 62
     7
420
 16777215
176
     1
 90
        1
176
     1
 90
        0
176
     1
 62
     7
176
     1
 62
   257
176
     1
 90
        1
176
     1
 90
        1
176
     1
 40
1.0
176
     1
 90
        0
176
     1
 62
   257
176
     1
 40
1.0
176
     1
 90
        1
176
     1
 90
        6
176
     1
 90
        2
176
     1
 62
     7
176
     1
 90
        5
176
     1
 90
        0
176
     1
 90
        0
176
     1
290
     0
176
     1
 90
       13
176
     1
 40
0.0
176
     1
 90
        0
176
     1
290
     0
176
     1
290
     1
176
     1
290
     1
176
     1
290
     0
176
     1
290
     0
176
     1
290
     0
176
     1
290
     0
176
     1
290
     0
176
     1
290
     0
176
     1
 90
       50
176
     1
 40
0.0
176
     1
 40
1.0
176
     1
 90
        0
176
     1
 62
    18
420
        0
176
     1
 90
       50
176
     1
 90
        3
176
     1
 62
     5
420
      255
176
     1
290
     0
176
     1
 90
       50
176
     1
 90
       50
176
     1
 90
       50
176
     1
290
     0
176
     1
 90
       50
176
     1
 62
   256
176
     0
 40
1.0
176
     0
 90
        2
176
     1
  1
strokes_ogs.tif
176
     1
290
     0
176
     1
 40
1.0
176
     1
 40
1.0
176
     1
  0
VISUALSTYLE
  5
31
102
{ACAD_REACTORS
330
29
102
}
330
29
100
AcDbVisualStyle
  2
Hidden
 70
     6
177
     3
291
     0
 70
    58
 90
        1
176
     1
 90
        2
176
     1
 90
        2
176
     1
 90
        0
176
     1
 40
0.6
176
     1
 40
30.0
176
     1
 62
     7
420
 16777215
176
     1
 90
        2
176
     1
 90
        2
176
     1
 62
     7
176
     1
 62
   257
176
     1
 90
        2
176
     1
 90
        1
176
     1
 40
40.0
176
     1
 90
        0
176
     1
 62
   257
176
     1
 40
1.0
176
     1
 90
        1
176
     1
 90
        6
176
     1
 90
        2
176
     1
 62
     7
176
     1
 90
        3
176
     1
 90
        0
176
     1
 90
        0
176
     1
290
     0
176
     1
 90
        1
176
     1
 40
0.0
176
     1
 90
        0
176
     1
290
     0
176
     1
290
     1
176
     1
290
     1
176
     1
290
     0
176
     1
290
     0
176
     1
290
     0
176
     1
290
     0
176
     1
290
     0
176
     1
290
     0
176
     1
 90
       50
176
     1
 40
0.0
176
     1
 40
1.0
176
     1
 90
        0
176
     1
 62
    18
420
        0
176
     1
 90
       50
176
     1
 90
        3
176
     1
 62
     5
420
      255
176
     1
290
     0
176
     1
 90
       50
176
     1
 90
       50
176
     1
 90
       50
176
     1
290
     0
176
     1
 90
       50
176
     1
 62
   256
176
     0
 40
1.0
176
     0
 90
        2
176
     1
  1
strokes_ogs.tif
176
     1
290
     0
176
     1
 40
1.0
176
     1
 40
1.0
176
     1
  0
VISUALSTYLE
  5
3F
102
{ACAD_REACTORS
330
29
102
}
330
29
100
AcDbVisualStyle
  2
JitterOff
 70
    20
177
     3
291
     1
 70
    58
 90
        2
176
     0
 90
        2
176
     0
 90
        0
176
     0
 90
        0
176
     0
 40
0.6
176
     0
 40
30.0
176
     0
 62
     7
420
 16777215
176
     0
 90
        1
176
     0
 90
        4
176
     0
 62
     7
176
     0
 62
   257
176
     0
 90
        1
176
     0
 90
        1
176
     0
 40
1.0
176
     0
 90
       10
176
     2
 62
     7
176
     0
 40
1.0
176
     0
 90
        1
176
     0
 90
        6
176
     0
 90
        2
176
     0
 62
     7
176
     0
 90
        5
176
     0
 90
        0
176
     0
 90
        0
176
     0
290
     0
176
     0
 90
        1
176
     0
 40
0.0
176
     0
 90
        0
176
     0
290
     0
176
     0
290
     1
176
     0
290
     1
176
     0
290
     0
176
     0
290
     0
176
     0
290
     0
176
     0
290
     0
176
     0
290
     0
176
     0
290
     0
176
     0
 90
       50
176
     0
 40
0.0
176
     0
 40
1.0
176
     0
 90
        0
176
     0
 62
    18
420
        0
176
     0
 90
       50
176
     0
 90
        3
176
     0
 62
     5
420
      255
176
     0
290
     0
176
     0
 90
       50
176
     0
 90
       50
176
     0
 90
       50
176
     0
290
     0
176
     0
 90
       50
176
     0
 62
   256
176
     0
 40
1.0
176
     0
 90
        2
176
     0
  1
strokes_ogs.tif
176
     0
290
     0
176
     0
 40
1.0
176
     0
 40
1.0
176
     0
  0
VISUALSTYLE
  5
37
102
{ACAD_REACTORS
330
29
102
}
330
29
100
AcDbVisualStyle
  2
Linepattern
 70
    14
177
     3
291
     1
 70
    58
 90
        2
176
     1
 90
        2
176
     1
 90
        0
176
     1
 90
        0
176
     1
 40
0.6
176
     1
 40
30.0
176
     1
 62
     7
420
 16777215
176
     1
 90
        1
176
     1
 90
        4
176
     1
 62
     7
176
     1
 62
   257
176
     1
 90
        7
176
     1
 90
        7
176
     1
 40
1.0
176
     1
 90
        8
176
     1
 62
     7
176
     1
 40
1.0
176
     1
 90
        1
176
     1
 90
        6
176
     1
 90
        2
176
     1
 62
     7
176
     1
 90
        5
176
     1
 90
        0
176
     1
 90
        0
176
     1
290
     0
176
     1
 90
        1
176
     1
 40
0.0
176
     1
 90
        0
176
     1
290
     0
176
     1
290
     1
176
     1
290
     1
176
     1
290
     0
176
     1
290
     0
176
     1
290
     0
176
     1
290
     0
176
     1
290
     0
176
     1
290
     0
176
     1
 90
       50
176
     1
 40
0.0
176
     1
 40
1.0
176
     1
 90
        0
176
     1
 62
    18
420
        0
176
     1
 90
       50
176
     1
 90
        3
176
     1
 62
     5
420
      255
176
     1
290
     0
176
     1
 90
       50
176
     1
 90
       50
176
     1
 90
       50
176
     1
290
     0
176
     1
 90
       50
176
     1
 62
   256
176
     0
 40
1.0
176
     0
 90
        2
176
     1
  1
strokes_ogs.tif
176
     1
290
     0
176
     1
 40
1.0
176
     1
 40
1.0
176
     1
  0
VISUALSTYLE
  5
40
102
{ACAD_REACTORS
330
29
102
}
330
29
100
AcDbVisualStyle
  2
OverhangOff
 70
    21
177
     3
291
     1
 70
    58
 90
        2
176
     0
 90
        2
176
     0
 90
        0
176
     0
 90
        0
176
     0
 40
0.6
176
     0
 40
30.0
176
     0
 62
     7
420
 16777215
176
     0
 90
        1
176
     0
 90
        4
176
     0
 62
     7
176
     0
 62
   257
176
     0
 90
        1
176
     0
 90
        1
176
     0
 40
1.0
176
     0
 90
        9
176
     2
 62
     7
176
     0
 40
1.0
176
     0
 90
        1
176
     0
 90
        6
176
     0
 90
        2
176
     0
 62
     7
176
     0
 90
        5
176
     0
 90
        0
176
     0
 90
        0
176
     0
290
     0
176
     0
 90
        1
176
     0
 40
0.0
176
     0
 90
        0
176
     0
290
     0
176
     0
290
     1
176
     0
290
     1
176
     0
290
     0
176
     0
290
     0
176
     0
290
     0
176
     0
290
     0
176
     0
290
     0
176
     0
290
     0
176
     0
 90
       50
176
     0
 40
0.0
176
     0
 40
1.0
176
     0
 90
        0
176
     0
 62
    18
420
        0
176
     0
 90
       50
176
     0
 90
        3
176
     0
 62
     5
420
      255
176
     0
290
     0
176
     0
 90
       50
176
     0
 90
       50
176
     0
 90
       50
176
     0
290
     0
176
     0
 90
       50
176
     0
 62
   256
176
     0
 40
1.0
176
     0
 90
        2
176
     0
  1
strokes_ogs.tif
176
     0
290
     0
176
     0
 40
1.0
176
     0
 40
1.0
176
     0
  0
VISUALSTYLE
  5
33
102
{ACAD_REACTORS
330
29
102
}
330
29
100
AcDbVisualStyle
  2
Realistic
 70
     8
177
     3
291
     0
 70
    58
 90
        2
176
     1
 90
        3
176
     1
 90
        0
176
     1
 90
        2
176
     1
 40
0.6
176
     1
 40
30.0
176
     1
 62
     7
420
 16777215
176
     1
 90
        0
176
     1
 90
        0
176
     1
 62
     7
176
     1
 62
   257
176
     1
 90
        1
176
     1
 90
        1
176
     1
 40
1.0
176
     1
 90
        8
176
     1
 62
   257
176
     1
 40
1.0
176
     1
 90
        1
176
     1
 90
        6
176
     1
 90
        2
176
     1
 62
     7
176
     1
 90
        3
176
     1
 90
        0
176
     1
 90
        0
176
     1
290
     0
176
     1
 90
       13
176
     1
 40
0.0
176
     1
 90
        0
176
     1
290
     0
176
     1
290
     1
176
     1
290
     1
176
     1
290
     0
176
     1
290
     0
176
     1
290
     0
176
     1
290
     0
176
     1
290
     0
176
     1
290
     0
176
     1
 90
       50
176
     1
 40
0.0
176
     1
 40
1.0
176
     1
 90
        0
176
     1
 62
    18
420
        0
176
     1
 90
       50
176
     1
 90
        3
176
     1
 62
     5
420
      255
176
     1
290
     0
176
     1
 90
       50
176
     1
 90
       50
176
     1
 90
       50
176
     1
290
     0
176
     1
 90
       50
176
     1
 62
   256
176
     0
 40
1.0
176
     0
 90
        2
176
     1
  1
strokes_ogs.tif
176
     1
290
     0
176
     1
 40
1.0
176
     1
 40
1.0
176
     1
  0
VISUALSTYLE
  5
3E
102
{ACAD_REACTORS
330
29
102
}
330
29
100
AcDbVisualStyle
  2
Shaded
 70
    27
177
     3
291
     0
 70
    58
 90
        2
176
     1
 90
        2
176
     1
 90
        1
176
     1
 90
        2
176
     1
 40
0.6
176
     1
 40
30.0
176
     1
 62
     7
420
 16777215
176
     1
 90
        0
176
     1
 90
        4
176
     1
 62
     7
176
     1
 62
   257
176
     1
 90
        1
176
     1
 90
        1
176
     1
 40
1.0
176
     1
 90
        8
176
     1
 62
   257
176
     1
 40
1.0
176
     1
 90
        1
176
     1
 90
        6
176
     1
 90
        2
176
     1
 62
     8
420
  7895160
176
     1
 90
        3
176
     1
 90
        0
176
     1
 90
        0
176
     1
290
     0
176
     1
 90
        5
176
     1
 40
0.0
176
     1
 90
        0
176
     1
290
     0
176
     1
290
     1
176
     1
290
     1
176
     1
290
     0
176
     1
290
     0
176
     1
290
     0
176
     1
290
     0
176
     1
290
     0
176
     1
290
     0
176
     1
 90
       50
176
     1
 40
0.0
176
     1
 40
1.0
176
     1
 90
        0
176
     1
 62
    18
420
        0
176
     1
 90
       50
176
     1
 90
        3
176
     1
 62
     5
420
      255
176
     1
290
     0
176
     1
 90
       50
176
     1
 90
       50
176
     1
 90
       50
176
     1
290
     0
176
     1
 90
       50
176
     1
 62
   256
176
     0
 40
1.0
176
     0
 90
        2
176
     1
  1
strokes_ogs.tif
176
     1
290
     0
176
     1
 40
1.0
176
     1
 40
1.0
176
     1
  0
VISUALSTYLE
  5
3D
102
{ACAD_REACTORS
330
29
102
}
330
29
100
AcDbVisualStyle
  2
Shaded with edges
 70
    26
177
     3
291
     0
 70
    58
 90
        2
176
     1
 90
        2
176
     1
 90
        1
176
     1
 90
        2
176
     1
 40
0.6
176
     1
 40
30.0
176
     1
 62
     7
420
 16777215
176
     1
 90
        1
176
     1
 90
        2
176
     1
 62
     7
176
     1
 62
   257
176
     1
 90
        2
176
     1
 90
        1
176
     1
 40
1.0
176
     1
 90
        8
176
     1
 62
   257
176
     1
 40
1.0
176
     1
 90
        1
176
     1
 90
        6
176
     1
 90
        2
176
     1
 62
     7
176
     1
 90
        3
176
     1
 90
        0
176
     1
 90
        0
176
     1
290
     0
176
     1
 90
        5
176
     1
 40
0.0
176
     1
 90
        0
176
     1
290
     0
176
     1
290
     1
176
     1
290
     1
176
     1
290
     0
176
     1
290
     0
176
     1
290
     0
176
     1
290
     0
176
     1
290
     0
176
     1
290
     0
176
     1
 90
       50
176
     1
 40
0.0
176
     1
 40
1.0
176
     1
 90
        0
176
     1
 62
    18
420
        0
176
     1
 90
       50
176
     1
 90
        3
176
     1
 62
     5
420
      255
176
     1
290
     0
176
     1
 90
       50
176
     1
 90
       50
176
     1
 90
       50
176
     1
290
     0
176
     1
 90
       50
176
     1
 62
   256
176
     0
 40
1.0
176
     0
 90
        2
176
     1
  1
strokes_ogs.tif
176
     1
290
     0
176
     1
 40
1.0
176
     1
 40
1.0
176
     1
  0
VISUALSTYLE
  5
3A
102
{ACAD_REACTORS
330
29
102
}
330
29
100
AcDbVisualStyle
  2
Shades of Gray
 70
    23
177
     3
291
     0
 70
    58
 90
        2
176
     1
 90
        2
176
     1
 90
        3
176
     1
 90
        0
176
     1
 40
0.6
176
     1
 40
30.0
176
     1
 62
     7
420
 16777215
176
     1
 90
        2
176
     1
 90
        2
176
     1
 62
     7
176
     1
 62
     7
176
     1
 90
        1
176
     1
 90
        1
176
     1
 40
40.0
176
     1
 90
        8
176
     1
 62
     7
176
     1
 40
1.0
176
     1
 90
        1
176
     1
 90
        6
176
     1
 90
        2
176
     1
 62
     7
176
     1
 90
        3
176
     1
 90
        0
176
     1
 90
        0
176
     1
290
     0
176
     1
 90
        1
176
     1
 40
0.0
176
     1
 90
        0
176
     1
290
     0
176
     1
290
     1
176
     1
290
     1
176
     1
290
     0
176
     1
290
     0
176
     1
290
     0
176
     1
290
     0
176
     1
290
     0
176
     1
290
     0
176
     1
 90
       50
176
     1
 40
0.0
176
     1
 40
1.0
176
     1
 90
        0
176
     1
 62
    18
420
        0
176
     1
 90
       50
176
     1
 90
        3
176
     1
 62
     5
420
      255
176
     1
290
     0
176
     1
 90
       50
176
     1
 90
       50
176
     1
 90
       50
176
     1
290
     0
176
     1
 90
       50
176
     1
 62
   256
176
     0
 40
1.0
176
     0
 90
        2
176
     1
  1
strokes_ogs.tif
176
     1
290
     0
176
     1
 40
1.0
176
     1
 40
1.0
176
     1
  0
VISUALSTYLE
  5
3B
102
{ACAD_REACTORS
330
29
102
}
330
29
100
AcDbVisualStyle
  2
Sketchy
 70
    24
177
     3
291
     0
 70
    58
 90
        1
176
     1
 90
        2
176
     1
 90
        2
176
     1
 90
        0
176
     1
 40
0.6
176
     1
 40
30.0
176
     1
 62
     7
420
 16777215
176
     1
 90
        2
176
     1
 90
        2
176
     1
 62
     7
176
     1
 62
     7
176
     1
 90
        1
176
     1
 90
        1
176
     1
 40
40.0
176
     1
 90
       11
176
     1
 62
     7
176
     1
 40
1.0
176
     1
 90
        1
176
     1
 90
        6
176
     1
 90
        2
176
     1
 62
     7
176
     1
 90
        6
176
     1
 90
        0
176
     1
 90
        0
176
     1
290
     0
176
     1
 90
        1
176
     1
 40
0.0
176
     1
 90
        0
176
     1
290
     0
176
     1
290
     1
176
     1
290
     1
176
     1
290
     0
176
     1
290
     0
176
     1
290
     0
176
     1
290
     0
176
     1
290
     0
176
     1
290
     0
176
     1
 90
       50
176
     1
 40
0.0
176
     1
 40
1.0
176
     1
 90
        0
176
     1
 62
    18
420
        0
176
     1
 90
       50
176
     1
 90
        3
176
     1
 62
     5
420
      255
176
     1
290
     0
176
     1
 90
       50
176
     1
 90
       50
176
     1
 90
       50
176
     1
290
     0
176
     1
 90
       50
176
     1
 62
   256
176
     0
 40
1.0
176
     0
 90
        2
176
     1
  1
strokes_ogs.tif
176
     1
290
     0
176
     1
 40
1.0
176
     1
 40
1.0
176
     1
  0
VISUALSTYLE
  5
36
102
{ACAD_REACTORS
330
29
102
}
330
29
100
AcDbVisualStyle
  2
Thicken
 70
    13
177
     3
291
     1
 70
    58
 90
        2
176
     1
 90
        2
176
     1
 90
        0
176
     1
 90
        0
176
     1
 40
0.6
176
     1
 40
30.0
176
     1
 62
     7
420
 16777215
176
     1
 90
        1
176
     1
 90
        4
176
     1
 62
     7
176
     1
 62
   257
176
     1
 90
        1
176
     1
 90
        1
176
     1
 40
1.0
176
     1
 90
       12
176
     1
 62
     7
176
     1
 40
1.0
176
     1
 90
        1
176
     1
 90
        6
176
     1
 90
        2
176
     1
 62
     7
176
     1
 90
        5
176
     1
 90
        0
176
     1
 90
        0
176
     1
290
     0
176
     1
 90
        1
176
     1
 40
0.0
176
     1
 90
        0
176
     1
290
     0
176
     1
290
     1
176
     1
290
     1
176
     1
290
     0
176
     1
290
     0
176
     1
290
     0
176
     1
290
     0
176
     1
290
     0
176
     1
290
     0
176
     1
 90
       50
176
     1
 40
0.0
176
     1
 40
1.0
176
     1
 90
        0
176
     1
 62
    18
420
        0
176
     1
 90
       50
176
     1
 90
        3
176
     1
 62
     5
420
      255
176
     1
290
     0
176
     1
 90
       50
176
     1
 90
       50
176
     1
 90
       50
176
     1
290
     0
176
     1
 90
       50
176
     1
 62
   256
176
     0
 40
1.0
176
     0
 90
        2
176
     1
  1
strokes_ogs.tif
176
     1
290
     0
176
     1
 40
1.0
176
     1
 40
1.0
176
     1
  0
VISUALSTYLE
  5
30
102
{ACAD_REACTORS
330
29
102
}
330
29
100
AcDbVisualStyle
  2
Wireframe
 70
     5
177
     3
291
     0
 70
    58
 90
        0
176
     1
 90
        2
176
     1
 90
        0
176
     1
 90
        0
176
     1
 40
0.6
176
     1
 40
30.0
176
     1
 62
     7
420
 16777215
176
     1
 90
        1
176
     1
 90
        4
176
     1
 62
     7
176
     1
 62
   257
176
     1
 90
        1
176
     1
 90
        1
176
     1
 40
1.0
176
     1
 90
        0
176
     1
 62
   257
176
     1
 40
1.0
176
     1
 90
        1
176
     1
 90
        6
176
     1
 90
        2
176
     1
 62
     7
176
     1
 90
        3
176
     1
 90
        0
176
     1
 90
        0
176
     1
290
     0
176
     1
 90
        1
176
     1
 40
0.0
176
     1
 90
        0
176
     1
290
     0
176
     1
290
     1
176
     1
290
     1
176
     1
290
     0
176
     1
290
     0
176
     1
290
     0
176
     1
290
     0
176
     1
290
     0
176
     1
290
     0
176
     1
 90
       50
176
     1
 40
0.0
176
     1
 40
1.0
176
     1
 90
        0
176
     1
 62
    18
420
        0
176
     1
 90
       50
176
     1
 90
        3
176
     1
 62
     5
420
      255
176
     1
290
     0
176
     1
 90
       50
176
     1
 90
       50
176
     1
 90
       50
176
     1
290
     0
176
     1
 90
       50
176
     1
 62
   256
176
     0
 40
1.0
176
     0
 90
        2
176
     1
  1
strokes_ogs.tif
176
     1
290
     0
176
     1
 40
1.0
176
     1
 40
1.0
176
     1
  0
VISUALSTYLE
  5
3C
102
{ACAD_REACTORS
330
29
102
}
330
29
100
AcDbVisualStyle
  2
X-Ray
 70
    25
177
     3
291
     0
 70
    58
 90
        2
176
     1
 90
        2
176
     1
 90
        1
176
     1
 90
        1
176
     1
 40
0.5
176
     1
 40
30.0
176
     1
 62
     7
420
 16777215
176
     1
 90
        1
176
     1
 90
        0
176
     1
 62
     7
176
     1
 62
   257
176
     1
 90
        1
176
     1
 90
        1
176
     1
 40
1.0
176
     1
 90
        8
176
     1
 62
     7
176
     1
 40
1.0
176
     1
 90
        1
176
     1
 90
        6
176
     1
 90
        2
176
     1
 62
     7
176
     1
 90
        3
176
     1
 90
        0
176
     1
 90
        0
176
     1
290
     0
176
     1
 90
       13
176
     1
 40
0.0
176
     1
 90
        0
176
     1
290
     0
176
     1
290
     1
176
     1
290
     1
176
     1
290
     0
176
     1
290
     0
176
     1
290
     0
176
     1
290
     0
176
     1
290
     0
176
     1
290
     0
176
     1
 90
       50
176
     1
 40
0.0
176
     1
 40
1.0
176
     1
 90
        0
176
     1
 62
    18
420
        0
176
     1
 90
       50
176
     1
 90
        3
176
     1
 62
     5
420
      255
176
     1
290
     0
176
     1
 90
       50
176
     1
 90
       50
176
     1
 90
       50
176
     1
290
     0
176
     1
 90
       50
176
     1
 62
   256
176
     0
 40
1.0
176
     0
 90
        2
176
     1
  1
strokes_ogs.tif
176
     1
290
     0
176
     1
 40
1.0
176
     1
 40
1.0
176
     1
  0
DICTIONARYVAR
  5
1BC
102
{ACAD_REACTORS
330
1B7
102
}
330
1B7
100
DictionaryVariables
280
     0
  1
1:1
  0
DICTIONARYVAR
  5
1B9
102
{ACAD_REACTORS
330
1B7
102
}
330
1B7
100
DictionaryVariables
280
     0
  1
STANDARD
  0
DICTIONARYVAR
  5
1B8
102
{ACAD_REACTORS
330
1B7
102
}
330
1B7
100
DictionaryVariables
280
     0
  1
STANDARD
  0
DICTIONARYVAR
  5
1BA
102
{ACAD_REACTORS
330
1B7
102
}
330
1B7
100
DictionaryVariables
280
     0
  1
Imperial24
  0
DICTIONARYVAR
  5
1BB
102
{ACAD_REACTORS
330
1B7
102
}
330
1B7
100
DictionaryVariables
280
     0
  1
Imperial24
  0
XRECORD
  5
1B3
102
{ACAD_REACTORS
330
1AF
102
}
330
1AF
100
AcDbXrecord
280
     1
  1
BUILDING_ID
  1
Casa à rua Tomaz Araújo, 185, Acarí, Rio Grande do Norte
  1
FLOOR_ID
  1
22853609
  0
XRECORD
  5
1B1
102
{ACAD_REACTORS
330
1AF
102
}
330
1AF
100
AcDbXrecord
280
     1
  1
-2000011
  1
Paredes
  1
-2000023
  1
Portas
  1
-2000051
  1
Linhas
  1
-2000280
  1
Blocos de margens e carimbo
  0
XRECORD
  5
1B2
102
{ACAD_REACTORS
330
1AF
102
}
330
1AF
100
AcDbXrecord
280
     1
  1
-2000027
  1
Abertura
  1
-2000042
  1
<Linhas finas>
  1
-2000066
  1
<Separação de ambiente>
  1
-2000281
  1
<Linhas finas>
  1
-2000588
  1
Padrão de corte
  0
XRECORD
  5
1B0
102
{ACAD_REACTORS
330
1AF
102
}
330
1AF
100
AcDbXrecord
280
     1
  1
22369133
  1
porta multiplas_original : Simples - 60 cm
  1
22369135
  1
porta multiplas_original : Simples - 70 cm
  1
22369145
  1
porta multiplas_original : Simples - 80 cm
  1
22422765
  1
Parede básica : 40 : 40
  1
22542561
  1
Parede básica : 30 : 30
  1
22554474
  1
Parede básica : 20 : 20
  1
22853593
  1
SVG : A4
  1
3324767
  1
Parede básica : 00_PAREDE_GENERICA_15_CM : 00_PAREDE_GENERICA_15_CM
  0
DICTIONARY
  5
1A
330
19
100
AcDbDictionary
280
     1
281
     1
  3
BUMPTILE
360
1C
  3
DIFFUSETILE
360
1B
  3
OPACITYTILE
360
1F
  3
REFLECTIONTILE
360
1E
  3
REFRACTIONTILE
360
20
  3
SPECULARTILE
360
1D
  0
DICTIONARY
  5
12
330
11
100
AcDbDictionary
280
     1
281
     1
  3
BUMPTILE
360
14
  3
DIFFUSETILE
360
13
  3
OPACITYTILE
360
17
  3
REFLECTIONTILE
360
16
  3
REFRACTIONTILE
360
18
  3
SPECULARTILE
360
15
  0
DICTIONARY
  5
22
330
21
100
AcDbDictionary
280
     1
281
     1
  3
BUMPTILE
360
24
  3
DIFFUSETILE
360
23
  3
OPACITYTILE
360
27
  3
REFLECTIONTILE
360
26
  3
REFRACTIONTILE
360
28
  3
SPECULARTILE
360
25
  0
DICTIONARY
  5
279
330
65
100
AcDbDictionary
280
     1
281
     1
  3
ACAD_ROUNDTRIP_2008_TABLESTYLE_CELLSTYLEMAP
360
27A
  0
XRECORD
  5
1C
102
{ACAD_REACTORS
330
1A
102
}
330
1A
100
AcDbXrecord
280
     1
270
     1
271
     1
  0
XRECORD
  5
1B
102
{ACAD_REACTORS
330
1A
102
}
330
1A
100
AcDbXrecord
280
     1
270
     1
271
     1
  0
XRECORD
  5
1F
102
{ACAD_REACTORS
330
1A
102
}
330
1A
100
AcDbXrecord
280
     1
270
     1
271
     1
  0
XRECORD
  5
1E
102
{ACAD_REACTORS
330
1A
102
}
330
1A
100
AcDbXrecord
280
     1
270
     1
271
     1
  0
XRECORD
  5
20
102
{ACAD_REACTORS
330
1A
102
}
330
1A
100
AcDbXrecord
280
     1
270
     1
271
     1
  0
XRECORD
  5
1D
102
{ACAD_REACTORS
330
1A
102
}
330
1A
100
AcDbXrecord
280
     1
270
     1
271
     1
  0
XRECORD
  5
14
102
{ACAD_REACTORS
330
12
102
}
330
12
100
AcDbXrecord
280
     1
270
     1
271
     1
  0
XRECORD
  5
13
102
{ACAD_REACTORS
330
12
102
}
330
12
100
AcDbXrecord
280
     1
270
     1
271
     1
  0
XRECORD
  5
17
102
{ACAD_REACTORS
330
12
102
}
330
12
100
AcDbXrecord
280
     1
270
     1
271
     1
  0
XRECORD
  5
16
102
{ACAD_REACTORS
330
12
102
}
330
12
100
AcDbXrecord
280
     1
270
     1
271
     1
  0
XRECORD
  5
18
102
{ACAD_REACTORS
330
12
102
}
330
12
100
AcDbXrecord
280
     1
270
     1
271
     1
  0
XRECORD
  5
15
102
{ACAD_REACTORS
330
12
102
}
330
12
100
AcDbXrecord
280
     1
270
     1
271
     1
  0
XRECORD
  5
24
102
{ACAD_REACTORS
330
22
102
}
330
22
100
AcDbXrecord
280
     1
270
     1
271
     1
  0
XRECORD
  5
23
102
{ACAD_REACTORS
330
22
102
}
330
22
100
AcDbXrecord
280
     1
270
     1
271
     1
  0
XRECORD
  5
27
102
{ACAD_REACTORS
330
22
102
}
330
22
100
AcDbXrecord
280
     1
270
     1
271
     1
  0
XRECORD
  5
26
102
{ACAD_REACTORS
330
22
102
}
330
22
100
AcDbXrecord
280
     1
270
     1
271
     1
  0
XRECORD
  5
28
102
{ACAD_REACTORS
330
22
102
}
330
22
100
AcDbXrecord
280
     1
270
     1
271
     1
  0
XRECORD
  5
25
102
{ACAD_REACTORS
330
22
102
}
330
22
100
AcDbXrecord
280
     1
270
     1
271
     1
  0
CELLSTYLEMAP
  5
27A
102
{ACAD_REACTORS
330
279
102
}
330
279
100
AcDbCellStyleMap
 90
        3
300
CELLSTYLE
  1
TABLEFORMAT_BEGIN
 90
        5
170
     1
 91
        0
 92
    32768
 62
   257
 93
        1
300
CONTENTFORMAT
  1
CONTENTFORMAT_BEGIN
 90
        0
 91
        0
 92
      512
 93
        0
300

 40
0.0
140
1.0
 94
        5
 62
     0
340
55
144
0.25
309
CONTENTFORMAT_END
171
     0
 94
        0
309
TABLEFORMAT_END
  1
CELLSTYLE_BEGIN
 90
        1
 91
        1
300
_TITLE
309
CELLSTYLE_END
300
CELLSTYLE
  1
TABLEFORMAT_BEGIN
 90
        5
170
     1
 91
        0
 92
        0
 62
   257
 93
        1
300
CONTENTFORMAT
  1
CONTENTFORMAT_BEGIN
 90
        0
 91
        0
 92
      512
 93
        0
300

 40
0.0
140
1.0
 94
        5
 62
     0
340
55
144
0.18
309
CONTENTFORMAT_END
171
     0
 94
        0
309
TABLEFORMAT_END
  1
CELLSTYLE_BEGIN
 90
        2
 91
        1
300
_HEADER
309
CELLSTYLE_END
300
CELLSTYLE
  1
TABLEFORMAT_BEGIN
 90
        5
170
     1
 91
        0
 92
        0
 62
   257
 93
        1
300
CONTENTFORMAT
  1
CONTENTFORMAT_BEGIN
 90
        0
 91
        0
 92
      512
 93
        0
300

 40
0.0
140
1.0
 94
        2
 62
     0
340
55
144
0.18
309
CONTENTFORMAT_END
171
     0
 94
        0
309
TABLEFORMAT_END
  1
CELLSTYLE_BEGIN
 90
        3
 91
        2
300
_DATA
309
CELLSTYLE_END
  0
ENDSEC
  0
SECTION
  2
ACDSDATA
 70
     2
 71
     8
  0
ACDSSCHEMA
 90
        0
  1
AcDb_Thumbnail_Schema
  2
AcDbDs::ID
280
    10
 91
        8
  2
Thumbnail_Data
280
    15
 91
        0
101
ACDSRECORD
 95
        0
 90
        1
  2
AcDbDs::TreatedAsObjectData
280
     1
291
     1
101
ACDSRECORD
 95
        0
 90
        2
  2
AcDbDs::Legacy
280
     1
291
     1
101
ACDSRECORD
  1
AcDbDs::ID
 90
        3
  2
AcDs:Indexable
280
     1
291
     1
101
ACDSRECORD
  1
AcDbDs::ID
 90
        4
  2
AcDbDs::HandleAttribute
280
     7
282
     1
  0
ACDSSCHEMA
 90
        1
  1
AcDbDs::TreatedAsObjectDataSchema
  2
AcDbDs::TreatedAsObjectData
280
     1
 91
        0
  0
ACDSSCHEMA
 90
        2
  1
AcDbDs::LegacySchema
  2
AcDbDs::Legacy
280
     1
 91
        0
  0
ACDSSCHEMA
 90
        3
  1
AcDbDs::IndexedPropertySchema
  2
AcDs:Indexable
280
     1
 91
        0
  0
ACDSSCHEMA
 90
        4
  1
AcDbDs::HandleAttributeSchema
  2
AcDbDs::HandleAttribute
280
     7
 91
        1
284
     1
  0
ACDSRECORD
 90
        0
  2
AcDbDs::ID
280
    10
320
6F
  2
Thumbnail_Data
280
    15
 94
     1273
310
89504E470D0A1A0A0000000D4948445200000100000000B5080300000087DCD12600000300504C5445FFFFFFFFFFFFFFFFFF0000000000000000000000000000000000000000000000000000330000660000990000CC0000FF0033000033330033660033990033CC0033FF0066000066330066660066990066CC0066FF0099
310
000099330099660099990099CC0099FF00CC0000CC3300CC6600CC9900CCCC00CCFF00FF0000FF3300FF6600FF9900FFCC00FFFF3300003300333300663300993300CC3300FF3333003333333333663333993333CC3333FF3366003366333366663366993366CC3366FF3399003399333399663399993399CC3399FF33CC00
310
33CC3333CC6633CC9933CCCC33CCFF33FF0033FF3333FF6633FF9933FFCC33FFFF6600006600336600666600996600CC6600FF6633006633336633666633996633CC6633FF6666006666336666666666996666CC6666FF6699006699336699666699996699CC6699FF66CC0066CC3366CC6666CC9966CCCC66CCFF66FF0066
310
FF3366FF6666FF9966FFCC66FFFF9900009900339900669900999900CC9900FF9933009933339933669933999933CC9933FF9966009966339966669966999966CC9966FF9999009999339999669999999999CC9999FF99CC0099CC3399CC6699CC9999CCCC99CCFF99FF0099FF3399FF6699FF9999FFCC99FFFFCC0000CC00
310
33CC0066CC0099CC00CCCC00FFCC3300CC3333CC3366CC3399CC33CCCC33FFCC6600CC6633CC6666CC6699CC66CCCC66FFCC9900CC9933CC9966CC9999CC99CCCC99FFCCCC00CCCC33CCCC66CCCC99CCCCCCCCCCFFCCFF00CCFF33CCFF66CCFF99CCFFCCCCFFFFFF0000FF0033FF0066FF0099FF00CCFF00FFFF3300FF3333
310
FF3366FF3399FF33CCFF33FFFF6600FF6633FF6666FF6699FF66CCFF66FFFF9900FF9933FF9966FF9999FF99CCFF99FFFFCC00FFCC33FFCC66FFCC99FFCCCCFFCCFFFFFF00FFFF33FFFF66FFFF99FFFFCCFFFFFF0000000D0D0D1A1A1A2828283535354343435050505D5D5D6B6B6B787878868686939393A1A1A1AEAEAEBB
310
BBBBC9C9C9D6D6D6E4E4E4F1F1F1FFFFFF000000000000000000000000000000000000000000000000000000000000AD4AB4E4000001B44944415478DAEDDD4B6EC230140550EFD80BEB56B28037CE388B28F98148DA8EAA5AEA3D57042131403E8A1DB0F14B5BC2D3FAD88C07189B3EF6E301000000000000000000000000
310
00000000000000000000000000000000000000C077F9F8211900F323B51EB53EB6977BA61880D6AA3D8F3ADF8804783CC5021C0DAF508057BB5B6C17880668000000000000000000000000000000401AC05BAA8E495200A95DE09C2005103B08563AC03147EC32080000000000000000000000000000000000000000807F0A
310
303FD742DE1203304DDB52C0740B809C2EB06F1649ED02F3BA49A06E63611640B57080960DB0B51700806C80DA137E065403100D50D183E075F364DE20E83208000000000000000000000000000000008803085E1C05A00B0000606D307E5A3C7D61C4D258EEE2E8B15B3E1860AF9990FB0789BD6646F055600708FE1E5067
310
F19CD41F43F100364C00000000000000000000000000008044808A07F8E2465BBD679D01950E7013001005702921D2B704D510B956D0589BD1734A68A4DF75F65703000000000000000000000000000000000000000000000000000000000080BF025886A62FA3D3FAD80C07F804F4F621B01FEF44850000000049454E44AE
310
426082
  0
ACDSRECORD
 90
        0
  2
AcDbDs::ID
280
    10
320
73
  2
Thumbnail_Data
280
    15
 94
     1012
310
89504E470D0A1A0A0000000D494844520000010000000065080300000095E2CD0900000300504C5445FFFFFFFFFFFFFFFFFF0000000000000000000000000000000000000000000000000000330000660000990000CC0000FF0033000033330033660033990033CC0033FF0066000066330066660066990066CC0066FF0099
310
000099330099660099990099CC0099FF00CC0000CC3300CC6600CC9900CCCC00CCFF00FF0000FF3300FF6600FF9900FFCC00FFFF3300003300333300663300993300CC3300FF3333003333333333663333993333CC3333FF3366003366333366663366993366CC3366FF3399003399333399663399993399CC3399FF33CC00
310
33CC3333CC6633CC9933CCCC33CCFF33FF0033FF3333FF6633FF9933FFCC33FFFF6600006600336600666600996600CC6600FF6633006633336633666633996633CC6633FF6666006666336666666666996666CC6666FF6699006699336699666699996699CC6699FF66CC0066CC3366CC6666CC9966CCCC66CCFF66FF0066
310
FF3366FF6666FF9966FFCC66FFFF9900009900339900669900999900CC9900FF9933009933339933669933999933CC9933FF9966009966339966669966999966CC9966FF9999009999339999669999999999CC9999FF99CC0099CC3399CC6699CC9999CCCC99CCFF99FF0099FF3399FF6699FF9999FFCC99FFFFCC0000CC00
310
33CC0066CC0099CC00CCCC00FFCC3300CC3333CC3366CC3399CC33CCCC33FFCC6600CC6633CC6666CC6699CC66CCCC66FFCC9900CC9933CC9966CC9999CC99CCCC99FFCCCC00CCCC33CCCC66CCCC99CCCCCCCCCCFFCCFF00CCFF33CCFF66CCFF99CCFFCCCCFFFFFF0000FF0033FF0066FF0099FF00CCFF00FFFF3300FF3333
310
FF3366FF3399FF33CCFF33FFFF6600FF6633FF6666FF6699FF66CCFF66FFFF9900FF9933FF9966FF9999FF99CCFF99FFFFCC00FFCC33FFCC66FFCC99FFCCCCFFCCFFFFFF00FFFF33FFFF66FFFF99FFFFCCFFFFFF0000000D0D0D1A1A1A2828283535354343435050505D5D5D6B6B6B787878868686939393A1A1A1AEAEAEBB
310
BBBBC9C9C9D6D6D6E4E4E4F1F1F1FFFFFF000000000000000000000000000000000000000000000000000000000000AD4AB4E4000000AF4944415478DAEDDA410AC2301040D1B9FFD93C454EA218900896AEE5BFB7A95DF663D26975E63FAC6F9323C0BEEA7DE9D100E74931C00820800002082040780E3009C6031C1FDA7B
310
C0B2090A20800002082080000208E06148805A80F61298788011E0B308C2012C010104104000010410A03B09A67F1B14C0121020BF09BA0B8403E45F89F98FD0C58900020820800002240621017EC53009961E861E2FEFA36FC000000000000000000000DC7A021DB378987A6F995B0000000049454E44AE426082
  0
ENDSEC
  0
EOF
