  0
SECTION
  2
HEADER
  9
$ACADVER
  1
AC1032
  9
$ACADMAINTVER
 90
      204
  9
$DWGCODEPAGE
  3
ANSI_1252
  9
$LASTSAVEDBY
  1
duda-
  9
$REQUIREDVERSIONS
160
                 0
  9
$INSBASE
 10
0.0
 20
0.0
 30
0.0
  9
$EXTMIN
 10
-2165.549961536626
 20
-34486.89579013031
 30
0.0
  9
$EXTMAX
 10
8134.310871724192
 20
-17630.32451066616
 30
0.0
  9
$LIMMIN
 10
0.0
 20
0.0
  9
$LIMMAX
 10
12.0
 20
9.0
  9
$ORTHOMODE
 70
     0
  9
$REGENMODE
 70
     1
  9
$FILLMODE
 70
     1
  9
$QTEXTMODE
 70
     0
  9
$MIRRTEXT
 70
     0
  9
$LTSCALE
 40
1.0
  9
$ATTMODE
 70
     1
  9
$TEXTSIZE
 40
0.2
  9
$TRACEWID
 40
0.05
  9
$TEXTSTYLE
  7
Standard
  9
$CLAYER
  8
0
  9
$CELTYPE
  6
ByLayer
  9
$CECOLOR
 62
   256
  9
$CELTSCALE
 40
1.0
  9
$DISPSILH
 70
     0
  9
$DIMSCALE
 40
1.0
  9
$DIMASZ
 40
0.18
  9
$DIMEXO
 40
0.0625
  9
$DIMDLI
 40
0.38
  9
$DIMRND
 40
0.0
  9
$DIMDLE
 40
0.0
  9
$DIMEXE
 40
0.18
  9
$DIMTP
 40
0.0
  9
$DIMTM
 40
0.0
  9
$DIMTXT
 40
0.18
  9
$DIMCEN
 40
0.09
  9
$DIMTSZ
 40
0.0
  9
$DIMTOL
 70
     0
  9
$DIMLIM
 70
     0
  9
$DIMTIH
 70
     1
  9
$DIMTOH
 70
     1
  9
$DIMSE1
 70
     0
  9
$DIMSE2
 70
     0
  9
$DIMTAD
 70
     0
  9
$DIMZIN
 70
     0
  9
$DIMBLK
  1

  9
$DIMASO
 70
     1
  9
$DIMSHO
 70
     1
  9
$DIMPOST
  1

  9
$DIMAPOST
  1

  9
$DIMALT
 70
     0
  9
$DIMALTD
 70
     2
  9
$DIMALTF
 40
25.4
  9
$DIMLFAC
 40
1.0
  9
$DIMTOFL
 70
     0
  9
$DIMTVP
 40
0.0
  9
$DIMTIX
 70
     0
  9
$DIMSOXD
 70
     0
  9
$DIMSAH
 70
     0
  9
$DIMBLK1
  1

  9
$DIMBLK2
  1

  9
$DIMSTYLE
  2
Standard
  9
$DIMCLRD
 70
     0
  9
$DIMCLRE
 70
     0
  9
$DIMCLRT
 70
     0
  9
$DIMTFAC
 40
1.0
  9
$DIMGAP
 40
0.09
  9
$DIMJUST
 70
     0
  9
$DIMSD1
 70
     0
  9
$DIMSD2
 70
     0
  9
$DIMTOLJ
 70
     1
  9
$DIMTZIN
 70
     0
  9
$DIMALTZ
 70
     0
  9
$DIMALTTZ
 70
     0
  9
$DIMUPT
 70
     0
  9
$DIMDEC
 70
     4
  9
$DIMTDEC
 70
     4
  9
$DIMALTU
 70
     2
  9
$DIMALTTD
 70
     2
  9
$DIMTXSTY
  7
Standard
  9
$DIMAUNIT
 70
     0
  9
$DIMADEC
 70
     0
  9
$DIMALTRND
 40
0.0
  9
$DIMAZIN
 70
     0
  9
$DIMDSEP
 70
    46
  9
$DIMATFIT
 70
     3
  9
$DIMFRAC
 70
     0
  9
$DIMLDRBLK
  1

  9
$DIMLUNIT
 70
     2
  9
$DIMLWD
 70
    -2
  9
$DIMLWE
 70
    -2
  9
$DIMTMOVE
 70
     0
  9
$DIMFXL
 40
1.0
  9
$DIMFXLON
 70
     0
  9
$DIMJOGANG
 40
0.7853981633974483
  9
$DIMTFILL
 70
     0
  9
$DIMTFILLCLR
 70
     0
  9
$DIMARCSYM
 70
     0
  9
$DIMLTYPE
  6

  9
$DIMLTEX1
  6

  9
$DIMLTEX2
  6

  9
$DIMTXTDIRECTION
 70
     0
  9
$LUNITS
 70
     2
  9
$LUPREC
 70
     4
  9
$SKETCHINC
 40
0.1
  9
$FILLETRAD
 40
0.0
  9
$AUNITS
 70
     0
  9
$AUPREC
 70
     0
  9
$MENU
  1
.
  9
$ELEVATION
 40
0.0
  9
$PELEVATION
 40
0.0
  9
$THICKNESS
 40
0.0
  9
$LIMCHECK
 70
     0
  9
$CHAMFERA
 40
0.0
  9
$CHAMFERB
 40
0.0
  9
$CHAMFERC
 40
0.0
  9
$CHAMFERD
 40
0.0
  9
$SKPOLY
 70
     0
  9
$TDCREATE
 40
2460730.640972222
  9
$TDUCREATE
 40
2460730.765972222
  9
$TDUPDATE
 40
2460739.028611111
  9
$TDUUPDATE
 40
2460739.153611111
  9
$TDINDWG
 40
0.0286921296
  9
$TDUSRTIMER
 40
0.0286921296
  9
$USRTIMER
 70
     1
  9
$ANGBASE
 50
0.0
  9
$ANGDIR
 70
     0
  9
$PDMODE
 70
     0
  9
$PDSIZE
 40
0.0
  9
$PLINEWID
 40
0.0
  9
$SPLFRAME
 70
     0
  9
$SPLINETYPE
 70
     6
  9
$SPLINESEGS
 70
     8
  9
$HANDSEED
  5
277
  9
$SURFTAB1
 70
     6
  9
$SURFTAB2
 70
     6
  9
$SURFTYPE
 70
     6
  9
$SURFU
 70
     6
  9
$SURFV
 70
     6
  9
$UCSBASE
  2

  9
$UCSNAME
  2

  9
$UCSORG
 10
0.0
 20
0.0
 30
0.0
  9
$UCSXDIR
 10
1.0
 20
0.0
 30
0.0
  9
$UCSYDIR
 10
0.0
 20
1.0
 30
0.0
  9
$UCSORTHOREF
  2

  9
$UCSORTHOVIEW
 70
     0
  9
$UCSORGTOP
 10
0.0
 20
0.0
 30
0.0
  9
$UCSORGBOTTOM
 10
0.0
 20
0.0
 30
0.0
  9
$UCSORGLEFT
 10
0.0
 20
0.0
 30
0.0
  9
$UCSORGRIGHT
 10
0.0
 20
0.0
 30
0.0
  9
$UCSORGFRONT
 10
0.0
 20
0.0
 30
0.0
  9
$UCSORGBACK
 10
0.0
 20
0.0
 30
0.0
  9
$PUCSBASE
  2

  9
$PUCSNAME
  2

  9
$PUCSORG
 10
0.0
 20
0.0
 30
0.0
  9
$PUCSXDIR
 10
1.0
 20
0.0
 30
0.0
  9
$PUCSYDIR
 10
0.0
 20
1.0
 30
0.0
  9
$PUCSORTHOREF
  2

  9
$PUCSORTHOVIEW
 70
     0
  9
$PUCSORGTOP
 10
0.0
 20
0.0
 30
0.0
  9
$PUCSORGBOTTOM
 10
0.0
 20
0.0
 30
0.0
  9
$PUCSORGLEFT
 10
0.0
 20
0.0
 30
0.0
  9
$PUCSORGRIGHT
 10
0.0
 20
0.0
 30
0.0
  9
$PUCSORGFRONT
 10
0.0
 20
0.0
 30
0.0
  9
$PUCSORGBACK
 10
0.0
 20
0.0
 30
0.0
  9
$USERI1
 70
     0
  9
$USERI2
 70
     0
  9
$USERI3
 70
     0
  9
$USERI4
 70
     0
  9
$USERI5
 70
     0
  9
$USERR1
 40
0.0
  9
$USERR2
 40
0.0
  9
$USERR3
 40
0.0
  9
$USERR4
 40
0.0
  9
$USERR5
 40
0.0
  9
$WORLDVIEW
 70
     1
  9
$SHADEDGE
 70
     3
  9
$SHADEDIF
 70
    70
  9
$TILEMODE
 70
     1
  9
$MAXACTVP
 70
    64
  9
$PINSBASE
 10
0.0
 20
0.0
 30
0.0
  9
$PLIMCHECK
 70
     0
  9
$PEXTMIN
 10
64.27901684485153
 20
59.47287840171589
 30
-0.0015258207003583
  9
$PEXTMAX
 10
274.3012221009852
 20
356.5108803466415
 30
0.0000000349246037
  9
$PLIMMIN
 10
64.27901684485153
 20
59.47287840171589
  9
$PLIMMAX
 10
484.5984757423225
 20
356.6684553999278
  9
$UNITMODE
 70
     0
  9
$VISRETAIN
 70
     1
  9
$PLINEGEN
 70
     0
  9
$PSLTSCALE
 70
     0
  9
$TREEDEPTH
 70
  3020
  9
$CMLSTYLE
  2
Standard
  9
$CMLJUST
 70
     0
  9
$CMLSCALE
 40
1.0
  9
$PROXYGRAPHICS
 70
     1
  9
$MEASUREMENT
 70
     1
  9
$CELWEIGHT
370
    -1
  9
$ENDCAPS
280
     0
  9
$JOINSTYLE
280
     0
  9
$LWDISPLAY
290
     0
  9
$INSUNITS
 70
     4
  9
$HYPERLINKBASE
  1

  9
$STYLESHEET
  1

  9
$XEDIT
290
     1
  9
$CEPSNTYPE
380
     0
  9
$PSTYLEMODE
290
     1
  9
$FINGERPRINTGUID
  2
{0FA670C4-2C7B-CC42-8D93-2EA3CF85C73D}
  9
$VERSIONGUID
  2
{937B8406-6518-0A4C-ACE8-0D24808FF8B6}
  9
$EXTNAMES
290
     1
  9
$PSVPSCALE
 40
0.0
  9
$OLESTARTUP
290
     0
  9
$SORTENTS
280
   127
  9
$INDEXCTL
280
     0
  9
$HIDETEXT
280
     1
  9
$XCLIPFRAME
280
     2
  9
$HALOGAP
280
     0
  9
$OBSCOLOR
 70
   257
  9
$OBSLTYPE
280
     0
  9
$INTERSECTIONDISPLAY
280
     0
  9
$INTERSECTIONCOLOR
 70
   257
  9
$DIMASSOC
280
     2
  9
$PROJECTNAME
  1

  9
$CAMERADISPLAY
290
     0
  9
$LENSLENGTH
 40
50.0
  9
$CAMERAHEIGHT
 40
0.0
  9
$STEPSPERSEC
 40
2.0
  9
$STEPSIZE
 40
6.0
  9
$3DDWFPREC
 40
2.0
  9
$PSOLWIDTH
 40
0.25
  9
$PSOLHEIGHT
 40
4.0
  9
$LOFTANG1
 40
1.570796326794896
  9
$LOFTANG2
 40
1.570796326794896
  9
$LOFTMAG1
 40
0.0
  9
$LOFTMAG2
 40
0.0
  9
$LOFTPARAM
 70
     7
  9
$LOFTNORMALS
280
     1
  9
$LATITUDE
 40
0.0
  9
$LONGITUDE
 40
0.0
  9
$NORTHDIRECTION
 40
0.0
  9
$TIMEZONE
 70
     0
  9
$LIGHTGLYPHDISPLAY
280
     1
  9
$TILEMODELIGHTSYNCH
280
     1
  9
$CMATERIAL
347
11
  9
$SOLIDHIST
280
     0
  9
$SHOWHIST
280
     1
  9
$DWFFRAME
280
     2
  9
$DGNFRAME
280
     0
  9
$REALWORLDSCALE
290
     1
  9
$INTERFERECOLOR
 62
     1
  9
$INTERFEREOBJVS
345
33
  9
$INTERFEREVPVS
346
30
  9
$CSHADOW
280
     0
  9
$SHADOWPLANELOCATION
 40
0.0
  0
ENDSEC
  0
SECTION
  2
CLASSES
  0
CLASS
  1
ACDBDICTIONARYWDFLT
  2
AcDbDictionaryWithDefault
  3
ObjectDBX Classes
 90
        0
 91
        1
280
     0
281
     0
  0
CLASS
  1
MATERIAL
  2
AcDbMaterial
  3
ObjectDBX Classes
 90
     1153
 91
        3
280
     0
281
     0
  0
CLASS
  1
VISUALSTYLE
  2
AcDbVisualStyle
  3
ObjectDBX Classes
 90
     4095
 91
       24
280
     0
281
     0
  0
CLASS
  1
SCALE
  2
AcDbScale
  3
ObjectDBX Classes
 90
     1153
 91
       17
280
     0
281
     0
  0
CLASS
  1
TABLESTYLE
  2
AcDbTableStyle
  3
ObjectDBX Classes
 90
     4095
 91
        1
280
     0
281
     0
  0
CLASS
  1
MLEADERSTYLE
  2
AcDbMLeaderStyle
  3
ACDB_MLEADERSTYLE_CLASS
 90
     4095
 91
        1
280
     0
281
     0
  0
CLASS
  1
ACDBSECTIONVIEWSTYLE
  2
AcDbSectionViewStyle
  3
ObjectDBX Classes
 90
     1025
 91
        2
280
     0
281
     0
  0
CLASS
  1
ACDBDETAILVIEWSTYLE
  2
AcDbDetailViewStyle
  3
ObjectDBX Classes
 90
     1025
 91
        2
280
     0
281
     0
  0
CLASS
  1
RASTERVARIABLES
  2
AcDbRasterVariables
  3
ISM
 90
        0
 91
        1
280
     0
281
     0
  0
CLASS
  1
DICTIONARYVAR
  2
AcDbDictionaryVar
  3
ObjectDBX Classes
 90
        0
 91
        5
280
     0
281
     0
  0
CLASS
  1
SORTENTSTABLE
  2
AcDbSortentsTable
  3
ObjectDBX Classes
 90
        0
 91
        1
280
     0
281
     0
  0
CLASS
  1
SUN
  2
AcDbSun
  3
SCENEOE
 90
     1153
 91
        1
280
     0
281
     0
  0
CLASS
  1
RAPIDRTRENDERSETTINGS
  2
AcDbRapidRTRenderSettings
  3
ObjectDBX Classes
 90
     1024
 91
        7
280
     0
281
     0
  0
CLASS
  1
CELLSTYLEMAP
  2
AcDbCellStyleMap
  3
ObjectDBX Classes
 90
     1152
 91
        1
280
     0
281
     0
  0
ENDSEC
  0
SECTION
  2
TABLES
  0
TABLE
  2
VPORT
  5
8
330
0
100
AcDbSymbolTable
 70
     1
  0
VPORT
  5
57
330
8
100
AcDbSymbolTableRecord
100
AcDbViewportTableRecord
  2
*Active
 70
     0
 10
0.0
 20
0.0
 11
1.0
 21
1.0
 12
-1625.214786418779
 22
-28606.37087707724
 13
0.0
 23
0.0
 14
1.0
 24
1.0
 15
0.0
 25
0.0
 16
0.0
 26
0.0
 36
1.0
 17
0.0
 27
0.0
 37
0.0
 40
27950.51779950844
 41
2.531208499335989
 42
50.0
 43
0.0
 44
0.0
 50
0.0
 51
0.0
 71
     0
 72
  1000
 73
     1
 74
     1
 75
     0
 76
     0
 77
     0
 78
     0
281
     0
 65
     1
110
0.0
120
0.0
130
0.0
111
1.0
121
0.0
131
0.0
112
0.0
122
1.0
132
0.0
 79
     0
146
0.0
348
2F
 60
     3
 61
     5
292
     1
282
     1
141
0.0
142
0.0
 63
   250
421
  3355443
361
21B
1001
ACAD_NAV_VCDISPLAY
1070
     3
  0
ENDTAB
  0
TABLE
  2
LTYPE
  5
5
330
0
100
AcDbSymbolTable
 70
     1
  0
LTYPE
  5
5B
330
5
100
AcDbSymbolTableRecord
100
AcDbLinetypeTableRecord
  2
ByBlock
 70
     0
  3

 72
    65
 73
     0
 40
0.0
  0
LTYPE
  5
5C
330
5
100
AcDbSymbolTableRecord
100
AcDbLinetypeTableRecord
  2
ByLayer
 70
     0
  3

 72
    65
 73
     0
 40
0.0
  0
LTYPE
  5
5D
330
5
100
AcDbSymbolTableRecord
100
AcDbLinetypeTableRecord
  2
Continuous
 70
     0
  3
Solid line
 72
    65
 73
     0
 40
0.0
  0
ENDTAB
  0
TABLE
  2
LAYER
  5
2
102
{ACAD_XDICTIONARY
360
230
102
}
330
0
100
AcDbSymbolTable
 70
     4
  0
LAYER
  5
54
330
2
100
AcDbSymbolTableRecord
100
AcDbLayerTableRecord
  2
0
 70
     0
 62
   250
  6
Continuous
370
    25
390
F
347
21
348
0
  0
LAYER
  5
204
330
2
100
AcDbSymbolTableRecord
100
AcDbLayerTableRecord
  2
A-COB-___-___-EXI
 70
     0
 62
   250
  6
Continuous
370
    25
390
F
347
21
348
0
  0
LAYER
  5
20A
330
2
100
AcDbSymbolTableRecord
100
AcDbLayerTableRecord
  2
A-ALV-___-___-EXI
 70
     0
 62
   250
  6
Continuous
370
    25
390
F
347
21
348
0
  0
LAYER
  5
20C
330
2
100
AcDbSymbolTableRecord
100
AcDbLayerTableRecord
  2
A-POR-___-___-EXI
 70
     0
 62
   250
  6
Continuous
370
    25
390
F
347
21
348
0
  0
ENDTAB
  0
TABLE
  2
STYLE
  5
3
330
0
100
AcDbSymbolTable
 70
     2
  0
STYLE
  5
55
330
3
100
AcDbSymbolTableRecord
100
AcDbTextStyleTableRecord
  2
Standard
 70
     0
 40
0.0
 41
1.0
 50
0.0
 71
     0
 42
0.2
  3
txt
  4

  0
STYLE
  5
5A
330
3
100
AcDbSymbolTableRecord
100
AcDbTextStyleTableRecord
  2
Annotative
 70
     0
 40
0.0
 41
1.0
 50
0.0
 71
     0
 42
0.2
  3
txt
  4

1001
AcadAnnotative
1000
AnnotativeData
1002
{
1070
     1
1070
     1
1002
}
  0
ENDTAB
  0
TABLE
  2
VIEW
  5
6
330
0
100
AcDbSymbolTable
 70
     0
  0
ENDTAB
  0
TABLE
  2
UCS
  5
7
330
0
100
AcDbSymbolTable
 70
     0
  0
ENDTAB
  0
TABLE
  2
APPID
  5
9
330
0
100
AcDbSymbolTable
 70
     5
  0
APPID
  5
56
330
9
100
AcDbSymbolTableRecord
100
AcDbRegAppTableRecord
  2
ACAD
 70
     0
  0
APPID
  5
5E
330
9
100
AcDbSymbolTableRecord
100
AcDbRegAppTableRecord
  2
AcadAnnotative
 70
     0
  0
APPID
  5
78
330
9
100
AcDbSymbolTableRecord
100
AcDbRegAppTableRecord
  2
REVIT
 70
     0
  0
APPID
  5
22B
330
9
100
AcDbSymbolTableRecord
100
AcDbRegAppTableRecord
  2
ACAD_PSEXT
 70
     0
  0
APPID
  5
25E
330
9
100
AcDbSymbolTableRecord
100
AcDbRegAppTableRecord
  2
ACAD_NAV_VCDISPLAY
 70
     0
  0
ENDTAB
  0
TABLE
  2
DIMSTYLE
  5
A
330
0
100
AcDbSymbolTable
 70
     2
100
AcDbDimStyleTable
 71
     0
  0
DIMSTYLE
105
58
330
A
100
AcDbSymbolTableRecord
100
AcDbDimStyleTableRecord
  2
Standard
 70
     0
340
55
  0
DIMSTYLE
105
59
330
A
100
AcDbSymbolTableRecord
100
AcDbDimStyleTableRecord
  2
Annotative
 70
     0
340
55
1001
AcadAnnotative
1000
AnnotativeData
1002
{
1070
     1
1070
     1
1002
}
  0
ENDTAB
  0
TABLE
  2
BLOCK_RECORD
  5
1
330
0
100
AcDbSymbolTable
 70
     1
  0
BLOCK_RECORD
  5
70
102
{ACAD_XDICTIONARY
360
219
102
}
330
1
100
AcDbSymbolTableRecord
100
AcDbBlockTableRecord
  2
*Model_Space
340
73
 70
     0
280
     1
281
     0
  0
BLOCK_RECORD
  5
6C
330
1
100
AcDbSymbolTableRecord
100
AcDbBlockTableRecord
  2
*Paper_Space
340
6F
 70
     0
280
     1
281
     0
  0
BLOCK_RECORD
  5
20B
330
1
100
AcDbSymbolTableRecord
100
AcDbBlockTableRecord
  2
SVG - A4-22917881-Não nomeada
340
0
102
{BLKREFS
331
213
102
}
 70
     0
280
     1
281
     0
  0
ENDTAB
  0
ENDSEC
  0
SECTION
  2
BLOCKS
  0
BLOCK
  5
71
330
70
100
AcDbEntity
  8
0
100
AcDbBlockBegin
  2
*Model_Space
 70
     0
 10
0.0
 20
0.0
 30
0.0
  3
*Model_Space
  1

  0
ENDBLK
  5
72
330
70
100
AcDbEntity
  8
0
100
AcDbBlockEnd
  0
BLOCK
  5
6D
330
6C
100
AcDbEntity
 67
     1
  8
0
100
AcDbBlockBegin
  2
*Paper_Space
 70
     0
 10
0.0
 20
0.0
 30
0.0
  3
*Paper_Space
  1

  0
ENDBLK
  5
6E
330
6C
100
AcDbEntity
 67
     1
  8
0
100
AcDbBlockEnd
  0
BLOCK
  5
211
330
20B
100
AcDbEntity
  8
0
100
AcDbBlockBegin
  2
SVG - A4-22917881-Não nomeada
 70
     0
 10
0.0
 20
0.0
 30
0.0
  3
SVG - A4-22917881-Não nomeada
  1

  0
LINE
  5
20D
330
20B
100
AcDbEntity
  8
A-POR-___-___-EXI
100
AcDbLine
 10
64.29285070883699
 20
356.4999999999859
 30
0.0
 11
64.29285070883699
 21
59.49999999998593
 31
0.0
1001
REVIT
1002
{
1070
     1
1000
22917914
1002
}
1002
{
1070
     5
1000
22917881
1002
}
1002
{
1070
     3
1000
-2000281
1002
}
  0
LINE
  5
20E
330
20B
100
AcDbEntity
  8
A-POR-___-___-EXI
100
AcDbLine
 10
64.29285070883699
 20
59.49999999998593
 30
0.0
 11
274.292850708837
 21
59.49999999998593
 31
0.0
1001
REVIT
1002
{
1070
     1
1000
22917914
1002
}
1002
{
1070
     5
1000
22917881
1002
}
1002
{
1070
     3
1000
-2000281
1002
}
  0
LINE
  5
20F
330
20B
100
AcDbEntity
  8
A-POR-___-___-EXI
100
AcDbLine
 10
274.292850708837
 20
59.49999999998593
 30
0.0
 11
274.292850708837
 21
356.4999999999859
 31
0.0
1001
REVIT
1002
{
1070
     1
1000
22917914
1002
}
1002
{
1070
     5
1000
22917881
1002
}
1002
{
1070
     3
1000
-2000281
1002
}
  0
LINE
  5
210
330
20B
100
AcDbEntity
  8
A-POR-___-___-EXI
100
AcDbLine
 10
274.292850708837
 20
356.4999999999859
 30
0.0
 11
64.29285070883699
 21
356.4999999999859
 31
0.0
1001
REVIT
1002
{
1070
     1
1000
22917914
1002
}
1002
{
1070
     5
1000
22917881
1002
}
1002
{
1070
     3
1000
-2000281
1002
}
  0
ENDBLK
  5
212
330
20B
100
AcDbEntity
  8
0
100
AcDbBlockEnd
  0
ENDSEC
  0
SECTION
  2
ENTITIES
  0
LINE
  5
82
330
70
100
AcDbEntity
  8
A-COB-___-___-EXI
100
AcDbLine
 10
1280.957823102834
 20
-23863.9506740131
 30
0.0
 11
1280.957823102834
 21
-21219.78263017559
 31
0.0
1001
REVIT
1002
{
1070
     1
1000
22914476
1002
}
1002
{
1070
     2
1000
-2000051
1002
}
1002
{
1070
     3
1000
22909121
1002
}
  0
LINE
  5
83
330
70
100
AcDbEntity
  8
A-COB-___-___-EXI
100
AcDbLine
 10
1580.905635575652
 20
-23863.9506740131
 30
0.0
 11
1580.905635575652
 21
-21219.78263017559
 31
0.0
1001
REVIT
1002
{
1070
     1
1000
22914477
1002
}
1002
{
1070
     2
1000
-2000051
1002
}
1002
{
1070
     3
1000
22909121
1002
}
  0
LINE
  5
84
330
70
100
AcDbEntity
  8
A-COB-___-___-EXI
100
AcDbLine
 10
1881.67975056217
 20
-23863.9506740131
 30
0.0
 11
1881.67975056217
 21
-21219.78263017559
 31
0.0
1001
REVIT
1002
{
1070
     1
1000
22914478
1002
}
1002
{
1070
     2
1000
-2000051
1002
}
1002
{
1070
     3
1000
22909121
1002
}
  0
LINE
  5
85
330
70
100
AcDbEntity
  8
A-COB-___-___-EXI
100
AcDbLine
 10
2179.974958007589
 20
-23863.9506740131
 30
0.0
 11
2179.974958007589
 21
-21219.78263017559
 31
0.0
1001
REVIT
1002
{
1070
     1
1000
22914479
1002
}
1002
{
1070
     2
1000
-2000051
1002
}
1002
{
1070
     3
1000
22909121
1002
}
  0
LINE
  5
86
330
70
100
AcDbEntity
  8
A-COB-___-___-EXI
100
AcDbLine
 10
2479.922770480407
 20
-23863.9506740131
 30
0.0
 11
2479.922770480407
 21
-21219.78263017559
 31
0.0
1001
REVIT
1002
{
1070
     1
1000
22914480
1002
}
1002
{
1070
     2
1000
-2000051
1002
}
1002
{
1070
     3
1000
22909121
1002
}
  0
LINE
  5
87
330
70
100
AcDbEntity
  8
A-COB-___-___-EXI
100
AcDbLine
 10
2780.696885466925
 20
-23863.9506740131
 30
0.0
 11
2780.696885466925
 21
-21219.78263017559
 31
0.0
1001
REVIT
1002
{
1070
     1
1000
22914481
1002
}
1002
{
1070
     2
1000
-2000051
1002
}
1002
{
1070
     3
1000
22909121
1002
}
  0
LINE
  5
88
330
70
100
AcDbEntity
  8
A-COB-___-___-EXI
100
AcDbLine
 10
3080.644697939743
 20
-23863.9506740131
 30
0.0
 11
3080.644697939743
 21
-21219.78263017559
 31
0.0
1001
REVIT
1002
{
1070
     1
1000
22914482
1002
}
1002
{
1070
     2
1000
-2000051
1002
}
1002
{
1070
     3
1000
22909121
1002
}
  0
LINE
  5
89
330
70
100
AcDbEntity
  8
A-COB-___-___-EXI
100
AcDbLine
 10
3378.939905385163
 20
-23863.9506740131
 30
0.0
 11
3378.939905385163
 21
-21219.78263017559
 31
0.0
1001
REVIT
1002
{
1070
     1
1000
22914483
1002
}
1002
{
1070
     2
1000
-2000051
1002
}
1002
{
1070
     3
1000
22909121
1002
}
  0
LINE
  5
8A
330
70
100
AcDbEntity
  8
A-COB-___-___-EXI
100
AcDbLine
 10
3679.71402037168
 20
-23863.9506740131
 30
0.0
 11
3679.71402037168
 21
-21219.78263017559
 31
0.0
1001
REVIT
1002
{
1070
     1
1000
22914484
1002
}
1002
{
1070
     2
1000
-2000051
1002
}
1002
{
1070
     3
1000
22909121
1002
}
  0
LINE
  5
8B
330
70
100
AcDbEntity
  8
A-COB-___-___-EXI
100
AcDbLine
 10
3979.661832844499
 20
-23863.9506740131
 30
0.0
 11
3979.661832844499
 21
-21219.78263017559
 31
0.0
1001
REVIT
1002
{
1070
     1
1000
22914485
1002
}
1002
{
1070
     2
1000
-2000051
1002
}
1002
{
1070
     3
1000
22909121
1002
}
  0
LINE
  5
90
330
70
100
AcDbEntity
  8
A-COB-___-___-EXI
100
AcDbLine
 10
4878.678967749252
 20
-23863.9506740131
 30
0.0
 11
4878.678967749252
 21
-21219.78263017559
 31
0.0
1001
REVIT
1002
{
1070
     1
1000
22914490
1002
}
1002
{
1070
     2
1000
-2000051
1002
}
1002
{
1070
     3
1000
22909121
1002
}
  0
LINE
  5
91
330
70
100
AcDbEntity
  8
A-COB-___-___-EXI
100
AcDbLine
 10
5179.453082735769
 20
-23863.9506740131
 30
0.0
 11
5179.453082735769
 21
-21219.78263017559
 31
0.0
1001
REVIT
1002
{
1070
     1
1000
22914491
1002
}
1002
{
1070
     2
1000
-2000051
1002
}
1002
{
1070
     3
1000
22909121
1002
}
  0
LINE
  5
92
330
70
100
AcDbEntity
  8
A-COB-___-___-EXI
100
AcDbLine
 10
5479.400895208588
 20
-23863.9506740131
 30
0.0
 11
5479.400895208588
 21
-21219.78263017559
 31
0.0
1001
REVIT
1002
{
1070
     1
1000
22914492
1002
}
1002
{
1070
     2
1000
-2000051
1002
}
1002
{
1070
     3
1000
22909121
1002
}
  0
LINE
  5
93
330
70
100
AcDbEntity
  8
A-COB-___-___-EXI
100
AcDbLine
 10
5777.696102654008
 20
-23863.9506740131
 30
0.0
 11
5777.696102654008
 21
-21219.78263017559
 31
0.0
1001
REVIT
1002
{
1070
     1
1000
22914493
1002
}
1002
{
1070
     2
1000
-2000051
1002
}
1002
{
1070
     3
1000
22909121
1002
}
  0
LINE
  5
94
330
70
100
AcDbEntity
  8
A-COB-___-___-EXI
100
AcDbLine
 10
6078.470217640525
 20
-23863.9506740131
 30
0.0
 11
6078.470217640525
 21
-21219.78263017559
 31
0.0
1001
REVIT
1002
{
1070
     1
1000
22914494
1002
}
1002
{
1070
     2
1000
-2000051
1002
}
1002
{
1070
     3
1000
22909121
1002
}
  0
LINE
  5
95
330
70
100
AcDbEntity
  8
A-COB-___-___-EXI
100
AcDbLine
 10
6378.418030113344
 20
-23863.9506740131
 30
0.0
 11
6378.418030113344
 21
-21219.78263017559
 31
0.0
1001
REVIT
1002
{
1070
     1
1000
22914495
1002
}
1002
{
1070
     2
1000
-2000051
1002
}
1002
{
1070
     3
1000
22909121
1002
}
  0
LINE
  5
96
330
70
100
AcDbEntity
  8
A-COB-___-___-EXI
100
AcDbLine
 10
6679.19214509986
 20
-23863.9506740131
 30
0.0
 11
6679.19214509986
 21
-21219.78263017559
 31
0.0
1001
REVIT
1002
{
1070
     1
1000
22914496
1002
}
1002
{
1070
     2
1000
-2000051
1002
}
1002
{
1070
     3
1000
22909121
1002
}
  0
LINE
  5
97
330
70
100
AcDbEntity
  8
A-COB-___-___-EXI
100
AcDbLine
 10
6977.487352545278
 20
-23863.9506740131
 30
0.0
 11
6977.487352545278
 21
-21219.78263017559
 31
0.0
1001
REVIT
1002
{
1070
     1
1000
22914497
1002
}
1002
{
1070
     2
1000
-2000051
1002
}
1002
{
1070
     3
1000
22909121
1002
}
  0
LINE
  5
98
330
70
100
AcDbEntity
  8
A-COB-___-___-EXI
100
AcDbLine
 10
7277.435165018094
 20
-23863.9506740131
 30
0.0
 11
7277.435165018094
 21
-21219.78263017559
 31
0.0
1001
REVIT
1002
{
1070
     1
1000
22914498
1002
}
1002
{
1070
     2
1000
-2000051
1002
}
1002
{
1070
     3
1000
22909121
1002
}
  0
LINE
  5
99
330
70
100
AcDbEntity
  8
A-COB-___-___-EXI
100
AcDbLine
 10
7578.209280004614
 20
-23863.9506740131
 30
0.0
 11
7578.209280004614
 21
-21219.78263017559
 31
0.0
1001
REVIT
1002
{
1070
     1
1000
22914499
1002
}
1002
{
1070
     2
1000
-2000051
1002
}
1002
{
1070
     3
1000
22909121
1002
}
  0
LINE
  5
9A
330
70
100
AcDbEntity
  8
A-COB-___-___-EXI
100
AcDbLine
 10
-2070.525172461215
 20
-34486.89579013031
 30
0.0
 11
-2070.525172461215
 21
-23863.9506740131
 31
0.0
1001
REVIT
1002
{
1070
     1
1000
22914500
1002
}
1002
{
1070
     2
1000
-2000051
1002
}
1002
{
1070
     3
1000
22909121
1002
}
  0
LINE
  5
9B
330
70
100
AcDbEntity
  8
A-COB-___-___-EXI
100
AcDbLine
 10
-1879.649291796695
 20
-34486.89579013031
 30
0.0
 11
-1879.649291796695
 21
-23863.9506740131
 31
0.0
1001
REVIT
1002
{
1070
     1
1000
22914501
1002
}
1002
{
1070
     2
1000
-2000051
1002
}
1002
{
1070
     3
1000
22909121
1002
}
  0
LINE
  5
9C
330
70
100
AcDbEntity
  8
A-COB-___-___-EXI
100
AcDbLine
 10
-1691.252318673272
 20
-34486.89579013031
 30
0.0
 11
-1691.252318673272
 21
-23863.9506740131
 31
0.0
1001
REVIT
1002
{
1070
     1
1000
22914502
1002
}
1002
{
1070
     2
1000
-2000051
1002
}
1002
{
1070
     3
1000
22909121
1002
}
  0
LINE
  5
9D
330
70
100
AcDbEntity
  8
A-COB-___-___-EXI
100
AcDbLine
 10
-1501.20274052245
 20
-34486.89579013031
 30
0.0
 11
-1501.20274052245
 21
-23863.9506740131
 31
0.0
1001
REVIT
1002
{
1070
     1
1000
22914503
1002
}
1002
{
1070
     2
1000
-2000051
1002
}
1002
{
1070
     3
1000
22909121
1002
}
  0
LINE
  5
9E
330
70
100
AcDbEntity
  8
A-COB-___-___-EXI
100
AcDbLine
 10
-1310.326859857929
 20
-34486.89579013031
 30
0.0
 11
-1310.326859857929
 21
-23863.9506740131
 31
0.0
1001
REVIT
1002
{
1070
     1
1000
22914504
1002
}
1002
{
1070
     2
1000
-2000051
1002
}
1002
{
1070
     3
1000
22909121
1002
}
  0
LINE
  5
9F
330
70
100
AcDbEntity
  8
A-COB-___-___-EXI
100
AcDbLine
 10
-1120.277281707108
 20
-34486.89579013031
 30
0.0
 11
-1120.277281707108
 21
-23863.9506740131
 31
0.0
1001
REVIT
1002
{
1070
     1
1000
22914505
1002
}
1002
{
1070
     2
1000
-2000051
1002
}
1002
{
1070
     3
1000
22909121
1002
}
  0
LINE
  5
A0
330
70
100
AcDbEntity
  8
A-COB-___-___-EXI
100
AcDbLine
 10
-931.8803085836854
 20
-34486.89579013031
 30
0.0
 11
-931.8803085836854
 21
-23863.9506740131
 31
0.0
1001
REVIT
1002
{
1070
     1
1000
22914506
1002
}
1002
{
1070
     2
1000
-2000051
1002
}
1002
{
1070
     3
1000
22909121
1002
}
  0
LINE
  5
A1
330
70
100
AcDbEntity
  8
A-COB-___-___-EXI
100
AcDbLine
 10
-741.8307304328641
 20
-34486.89579013031
 30
0.0
 11
-741.8307304328641
 21
-23863.9506740131
 31
0.0
1001
REVIT
1002
{
1070
     1
1000
22914507
1002
}
1002
{
1070
     2
1000
-2000051
1002
}
1002
{
1070
     3
1000
22909121
1002
}
  0
LINE
  5
A2
330
70
100
AcDbEntity
  8
A-COB-___-___-EXI
100
AcDbLine
 10
-550.9548497683433
 20
-34486.89579013031
 30
0.0
 11
-550.9548497683433
 21
-23863.9506740131
 31
0.0
1001
REVIT
1002
{
1070
     1
1000
22914508
1002
}
1002
{
1070
     2
1000
-2000051
1002
}
1002
{
1070
     3
1000
22909121
1002
}
  0
LINE
  5
A3
330
70
100
AcDbEntity
  8
A-COB-___-___-EXI
100
AcDbLine
 10
-360.9052716175215
 20
-34486.89579013031
 30
0.0
 11
-360.9052716175215
 21
-23863.9506740131
 31
0.0
1001
REVIT
1002
{
1070
     1
1000
22914509
1002
}
1002
{
1070
     2
1000
-2000051
1002
}
1002
{
1070
     3
1000
22909121
1002
}
  0
LINE
  5
A4
330
70
100
AcDbEntity
  8
A-COB-___-___-EXI
100
AcDbLine
 10
-170.8556934667012
 20
-34486.89579013031
 30
0.0
 11
-170.8556934667012
 21
-23863.9506740131
 31
0.0
1001
REVIT
1002
{
1070
     1
1000
22914510
1002
}
1002
{
1070
     2
1000
-2000051
1002
}
1002
{
1070
     3
1000
22909121
1002
}
  0
LINE
  5
A5
330
70
100
AcDbEntity
  8
A-COB-___-___-EXI
100
AcDbLine
 10
17.54127965672237
 20
-34486.89579013031
 30
0.0
 11
17.54127965672237
 21
-23863.9506740131
 31
0.0
1001
REVIT
1002
{
1070
     1
1000
22914511
1002
}
1002
{
1070
     2
1000
-2000051
1002
}
1002
{
1070
     3
1000
22909121
1002
}
  0
LINE
  5
A6
330
70
100
AcDbEntity
  8
A-COB-___-___-EXI
100
AcDbLine
 10
208.4171603212432
 20
-34486.89579013031
 30
0.0
 11
208.4171603212432
 21
-23863.9506740131
 31
0.0
1001
REVIT
1002
{
1070
     1
1000
22914512
1002
}
1002
{
1070
     2
1000
-2000051
1002
}
1002
{
1070
     3
1000
22909121
1002
}
  0
LINE
  5
A7
330
70
100
AcDbEntity
  8
A-COB-___-___-EXI
100
AcDbLine
 10
398.4667384720634
 20
-34486.89579013031
 30
0.0
 11
398.4667384720634
 21
-23863.9506740131
 31
0.0
1001
REVIT
1002
{
1070
     1
1000
22914513
1002
}
1002
{
1070
     2
1000
-2000051
1002
}
1002
{
1070
     3
1000
22909121
1002
}
  0
LINE
  5
A8
330
70
100
AcDbEntity
  8
A-COB-___-___-EXI
100
AcDbLine
 10
588.5163166228858
 20
-34486.89579013031
 30
0.0
 11
588.5163166228858
 21
-23863.9506740131
 31
0.0
1001
REVIT
1002
{
1070
     1
1000
22914514
1002
}
1002
{
1070
     2
1000
-2000051
1002
}
1002
{
1070
     3
1000
22909121
1002
}
  0
LINE
  5
A9
330
70
100
AcDbEntity
  8
A-COB-___-___-EXI
100
AcDbLine
 10
776.9132897463083
 20
-34486.89579013031
 30
0.0
 11
776.9132897463083
 21
-23863.9506740131
 31
0.0
1001
REVIT
1002
{
1070
     1
1000
22914515
1002
}
1002
{
1070
     2
1000
-2000051
1002
}
1002
{
1070
     3
1000
22909121
1002
}
  0
LINE
  5
AA
330
70
100
AcDbEntity
  8
A-COB-___-___-EXI
100
AcDbLine
 10
967.789170410829
 20
-34486.89579013031
 30
0.0
 11
967.789170410829
 21
-23863.9506740131
 31
0.0
1001
REVIT
1002
{
1070
     1
1000
22914516
1002
}
1002
{
1070
     2
1000
-2000051
1002
}
1002
{
1070
     3
1000
22909121
1002
}
  0
LINE
  5
AB
330
70
100
AcDbEntity
  8
A-COB-___-___-EXI
100
AcDbLine
 10
1157.83874856165
 20
-34486.89579013031
 30
0.0
 11
1157.83874856165
 21
-23863.9506740131
 31
0.0
1001
REVIT
1002
{
1070
     1
1000
22914517
1002
}
1002
{
1070
     2
1000
-2000051
1002
}
1002
{
1070
     3
1000
22909121
1002
}
  0
LINE
  5
AC
330
70
100
AcDbEntity
  8
A-COB-___-___-EXI
100
AcDbLine
 10
1347.888326712472
 20
-34486.89579013031
 30
0.0
 11
1347.888326712472
 21
-23863.9506740131
 31
0.0
1001
REVIT
1002
{
1070
     1
1000
22914518
1002
}
1002
{
1070
     2
1000
-2000051
1002
}
1002
{
1070
     3
1000
22909121
1002
}
  0
LINE
  5
AD
330
70
100
AcDbEntity
  8
A-COB-___-___-EXI
100
AcDbLine
 10
1538.764207376991
 20
-34486.89579013031
 30
0.0
 11
1538.764207376991
 21
-23863.9506740131
 31
0.0
1001
REVIT
1002
{
1070
     1
1000
22914519
1002
}
1002
{
1070
     2
1000
-2000051
1002
}
1002
{
1070
     3
1000
22909121
1002
}
  0
LINE
  5
AE
330
70
100
AcDbEntity
  8
A-COB-___-___-EXI
100
AcDbLine
 10
1727.161180500415
 20
-34486.89579013031
 30
0.0
 11
1727.161180500415
 21
-23863.9506740131
 31
0.0
1001
REVIT
1002
{
1070
     1
1000
22914520
1002
}
1002
{
1070
     2
1000
-2000051
1002
}
1002
{
1070
     3
1000
22909121
1002
}
  0
LINE
  5
AF
330
70
100
AcDbEntity
  8
A-COB-___-___-EXI
100
AcDbLine
 10
1917.210758651235
 20
-34486.89579013031
 30
0.0
 11
1917.210758651235
 21
-23863.9506740131
 31
0.0
1001
REVIT
1002
{
1070
     1
1000
22914521
1002
}
1002
{
1070
     2
1000
-2000051
1002
}
1002
{
1070
     3
1000
22909121
1002
}
  0
LINE
  5
B0
330
70
100
AcDbEntity
  8
A-COB-___-___-EXI
100
AcDbLine
 10
2107.260336802058
 20
-34486.89579013031
 30
0.0
 11
2107.260336802058
 21
-23863.9506740131
 31
0.0
1001
REVIT
1002
{
1070
     1
1000
22914522
1002
}
1002
{
1070
     2
1000
-2000051
1002
}
1002
{
1070
     3
1000
22909121
1002
}
  0
LINE
  5
B1
330
70
100
AcDbEntity
  8
A-COB-___-___-EXI
100
AcDbLine
 10
2298.136217466579
 20
-34486.89579013031
 30
0.0
 11
2298.136217466579
 21
-23863.9506740131
 31
0.0
1001
REVIT
1002
{
1070
     1
1000
22914523
1002
}
1002
{
1070
     2
1000
-2000051
1002
}
1002
{
1070
     3
1000
22909121
1002
}
  0
LINE
  5
B2
330
70
100
AcDbEntity
  8
A-COB-___-___-EXI
100
AcDbLine
 10
2486.53319059
 20
-34486.89579013031
 30
0.0
 11
2486.53319059
 21
-23863.9506740131
 31
0.0
1001
REVIT
1002
{
1070
     1
1000
22914524
1002
}
1002
{
1070
     2
1000
-2000051
1002
}
1002
{
1070
     3
1000
22909121
1002
}
  0
LINE
  5
BA
330
70
100
AcDbEntity
  8
A-COB-___-___-EXI
100
AcDbLine
 10
3057.508227556166
 20
-26975.80594060437
 30
0.0
 11
3057.508227556166
 21
-23863.9506740131
 31
0.0
1001
REVIT
1002
{
1070
     1
1000
22914532
1002
}
1002
{
1070
     2
1000
-2000051
1002
}
1002
{
1070
     3
1000
22909121
1002
}
  0
LINE
  5
C0
330
70
100
AcDbEntity
  8
A-COB-___-___-EXI
100
AcDbLine
 10
3435.954778830409
 20
-27318.72148378955
 30
0.0
 11
3435.954778830409
 21
-23863.9506740131
 31
0.0
1001
REVIT
1002
{
1070
     1
1000
22914538
1002
}
1002
{
1070
     2
1000
-2000051
1002
}
1002
{
1070
     3
1000
22909121
1002
}
  0
LINE
  5
C2
330
70
100
AcDbEntity
  8
A-COB-___-___-EXI
100
AcDbLine
 10
3626.83065949493
 20
-34486.89579013031
 30
0.0
 11
3626.83065949493
 21
-23863.9506740131
 31
0.0
1001
REVIT
1002
{
1070
     1
1000
22914540
1002
}
1002
{
1070
     2
1000
-2000051
1002
}
1002
{
1070
     3
1000
22909121
1002
}
  0
LINE
  5
C3
330
70
100
AcDbEntity
  8
A-COB-___-___-EXI
100
AcDbLine
 10
3816.880237645751
 20
-34486.89579013031
 30
0.0
 11
3816.880237645751
 21
-23863.9506740131
 31
0.0
1001
REVIT
1002
{
1070
     1
1000
22914541
1002
}
1002
{
1070
     2
1000
-2000051
1002
}
1002
{
1070
     3
1000
22909121
1002
}
  0
LINE
  5
C4
330
70
100
AcDbEntity
  8
A-COB-___-___-EXI
100
AcDbLine
 10
4006.929815796571
 20
-34486.89579013031
 30
0.0
 11
4006.929815796571
 21
-23863.9506740131
 31
0.0
1001
REVIT
1002
{
1070
     1
1000
22914542
1002
}
1002
{
1070
     2
1000
-2000051
1002
}
1002
{
1070
     3
1000
22909121
1002
}
  0
LINE
  5
C5
330
70
100
AcDbEntity
  8
A-COB-___-___-EXI
100
AcDbLine
 10
4195.326788919994
 20
-34486.89579013031
 30
0.0
 11
4195.326788919994
 21
-23863.9506740131
 31
0.0
1001
REVIT
1002
{
1070
     1
1000
22914543
1002
}
1002
{
1070
     2
1000
-2000051
1002
}
1002
{
1070
     3
1000
22909121
1002
}
  0
LINE
  5
C6
330
70
100
AcDbEntity
  8
A-COB-___-___-EXI
100
AcDbLine
 10
4386.202669584514
 20
-34486.89579013031
 30
0.0
 11
4386.202669584514
 21
-23863.9506740131
 31
0.0
1001
REVIT
1002
{
1070
     1
1000
22914544
1002
}
1002
{
1070
     2
1000
-2000051
1002
}
1002
{
1070
     3
1000
22909121
1002
}
  0
LINE
  5
C7
330
70
100
AcDbEntity
  8
A-COB-___-___-EXI
100
AcDbLine
 10
4576.252247735337
 20
-34486.89579013031
 30
0.0
 11
4576.252247735337
 21
-23863.9506740131
 31
0.0
1001
REVIT
1002
{
1070
     1
1000
22914545
1002
}
1002
{
1070
     2
1000
-2000051
1002
}
1002
{
1070
     3
1000
22909121
1002
}
  0
LINE
  5
C8
330
70
100
AcDbEntity
  8
A-COB-___-___-EXI
100
AcDbLine
 10
4766.301825886157
 20
-34486.89579013031
 30
0.0
 11
4766.301825886157
 21
-23863.9506740131
 31
0.0
1001
REVIT
1002
{
1070
     1
1000
22914546
1002
}
1002
{
1070
     2
1000
-2000051
1002
}
1002
{
1070
     3
1000
22909121
1002
}
  0
LINE
  5
C9
330
70
100
AcDbEntity
  8
A-COB-___-___-EXI
100
AcDbLine
 10
4957.177706550679
 20
-34486.89579013031
 30
0.0
 11
4957.177706550679
 21
-23863.9506740131
 31
0.0
1001
REVIT
1002
{
1070
     1
1000
22914547
1002
}
1002
{
1070
     2
1000
-2000051
1002
}
1002
{
1070
     3
1000
22909121
1002
}
  0
LINE
  5
CA
330
70
100
AcDbEntity
  8
A-COB-___-___-EXI
100
AcDbLine
 10
5145.574679674103
 20
-34486.89579013031
 30
0.0
 11
5145.574679674103
 21
-23863.9506740131
 31
0.0
1001
REVIT
1002
{
1070
     1
1000
22914548
1002
}
1002
{
1070
     2
1000
-2000051
1002
}
1002
{
1070
     3
1000
22909121
1002
}
  0
LINE
  5
CB
330
70
100
AcDbEntity
  8
A-COB-___-___-EXI
100
AcDbLine
 10
5335.624257824923
 20
-34486.89579013031
 30
0.0
 11
5335.624257824923
 21
-23863.9506740131
 31
0.0
1001
REVIT
1002
{
1070
     1
1000
22914549
1002
}
1002
{
1070
     2
1000
-2000051
1002
}
1002
{
1070
     3
1000
22909121
1002
}
  0
LINE
  5
CC
330
70
100
AcDbEntity
  8
A-COB-___-___-EXI
100
AcDbLine
 10
5525.673835975744
 20
-34486.89579013031
 30
0.0
 11
5525.673835975744
 21
-23863.9506740131
 31
0.0
1001
REVIT
1002
{
1070
     1
1000
22914550
1002
}
1002
{
1070
     2
1000
-2000051
1002
}
1002
{
1070
     3
1000
22909121
1002
}
  0
LINE
  5
CD
330
70
100
AcDbEntity
  8
A-COB-___-___-EXI
100
AcDbLine
 10
5716.549716640265
 20
-34486.89579013031
 30
0.0
 11
5716.549716640265
 21
-23863.9506740131
 31
0.0
1001
REVIT
1002
{
1070
     1
1000
22914551
1002
}
1002
{
1070
     2
1000
-2000051
1002
}
1002
{
1070
     3
1000
22909121
1002
}
  0
LINE
  5
CE
330
70
100
AcDbEntity
  8
A-COB-___-___-EXI
100
AcDbLine
 10
5904.946689763688
 20
-34486.89579013031
 30
0.0
 11
5904.946689763688
 21
-23863.9506740131
 31
0.0
1001
REVIT
1002
{
1070
     1
1000
22914552
1002
}
1002
{
1070
     2
1000
-2000051
1002
}
1002
{
1070
     3
1000
22909121
1002
}
  0
LINE
  5
CF
330
70
100
AcDbEntity
  8
A-COB-___-___-EXI
100
AcDbLine
 10
6094.99626791451
 20
-34486.89579013031
 30
0.0
 11
6094.99626791451
 21
-23863.9506740131
 31
0.0
1001
REVIT
1002
{
1070
     1
1000
22914553
1002
}
1002
{
1070
     2
1000
-2000051
1002
}
1002
{
1070
     3
1000
22909121
1002
}
  0
LINE
  5
D0
330
70
100
AcDbEntity
  8
A-COB-___-___-EXI
100
AcDbLine
 10
6285.04584606533
 20
-34486.89579013031
 30
0.0
 11
6285.04584606533
 21
-23863.9506740131
 31
0.0
1001
REVIT
1002
{
1070
     1
1000
22914554
1002
}
1002
{
1070
     2
1000
-2000051
1002
}
1002
{
1070
     3
1000
22909121
1002
}
  0
LINE
  5
D1
330
70
100
AcDbEntity
  8
A-COB-___-___-EXI
100
AcDbLine
 10
6475.921726729851
 20
-34486.89579013031
 30
0.0
 11
6475.921726729851
 21
-23863.9506740131
 31
0.0
1001
REVIT
1002
{
1070
     1
1000
22914555
1002
}
1002
{
1070
     2
1000
-2000051
1002
}
1002
{
1070
     3
1000
22909121
1002
}
  0
LINE
  5
D2
330
70
100
AcDbEntity
  8
A-COB-___-___-EXI
100
AcDbLine
 10
6665.971304880672
 20
-34486.89579013031
 30
0.0
 11
6665.971304880672
 21
-23863.9506740131
 31
0.0
1001
REVIT
1002
{
1070
     1
1000
22914556
1002
}
1002
{
1070
     2
1000
-2000051
1002
}
1002
{
1070
     3
1000
22909121
1002
}
  0
LINE
  5
D3
330
70
100
AcDbEntity
  8
A-COB-___-___-EXI
100
AcDbLine
 10
6854.368278004095
 20
-34486.89579013031
 30
0.0
 11
6854.368278004095
 21
-23863.9506740131
 31
0.0
1001
REVIT
1002
{
1070
     1
1000
22914557
1002
}
1002
{
1070
     2
1000
-2000051
1002
}
1002
{
1070
     3
1000
22909121
1002
}
  0
LINE
  5
D4
330
70
100
AcDbEntity
  8
A-COB-___-___-EXI
100
AcDbLine
 10
7045.244158668615
 20
-34486.89579013031
 30
0.0
 11
7045.244158668615
 21
-23863.9506740131
 31
0.0
1001
REVIT
1002
{
1070
     1
1000
22914558
1002
}
1002
{
1070
     2
1000
-2000051
1002
}
1002
{
1070
     3
1000
22909121
1002
}
  0
LINE
  5
D5
330
70
100
AcDbEntity
  8
A-COB-___-___-EXI
100
AcDbLine
 10
7235.293736819437
 20
-34486.89579013031
 30
0.0
 11
7235.293736819437
 21
-23863.9506740131
 31
0.0
1001
REVIT
1002
{
1070
     1
1000
22914559
1002
}
1002
{
1070
     2
1000
-2000051
1002
}
1002
{
1070
     3
1000
22909121
1002
}
  0
LINE
  5
D6
330
70
100
AcDbEntity
  8
A-COB-___-___-EXI
100
AcDbLine
 10
7425.34331497026
 20
-34486.89579013031
 30
0.0
 11
7425.34331497026
 21
-23863.9506740131
 31
0.0
1001
REVIT
1002
{
1070
     1
1000
22914560
1002
}
1002
{
1070
     2
1000
-2000051
1002
}
1002
{
1070
     3
1000
22909121
1002
}
  0
LINE
  5
D7
330
70
100
AcDbEntity
  8
A-COB-___-___-EXI
100
AcDbLine
 10
7613.74028809368
 20
-34486.89579013031
 30
0.0
 11
7613.74028809368
 21
-23863.9506740131
 31
0.0
1001
REVIT
1002
{
1070
     1
1000
22914561
1002
}
1002
{
1070
     2
1000
-2000051
1002
}
1002
{
1070
     3
1000
22909121
1002
}
  0
LINE
  5
D8
330
70
100
AcDbEntity
  8
A-COB-___-___-EXI
100
AcDbLine
 10
7804.616168758203
 20
-34486.89579013031
 30
0.0
 11
7804.616168758203
 21
-23863.9506740131
 31
0.0
1001
REVIT
1002
{
1070
     1
1000
22914562
1002
}
1002
{
1070
     2
1000
-2000051
1002
}
1002
{
1070
     3
1000
22909121
1002
}
  0
LINE
  5
D9
330
70
100
AcDbEntity
  8
A-COB-___-___-EXI
100
AcDbLine
 10
7994.665746909024
 20
-34486.89579013031
 30
0.0
 11
7994.665746909024
 21
-23863.9506740131
 31
0.0
1001
REVIT
1002
{
1070
     1
1000
22914563
1002
}
1002
{
1070
     2
1000
-2000051
1002
}
1002
{
1070
     3
1000
22909121
1002
}
  0
LINE
  5
DA
330
70
100
AcDbEntity
  8
A-COB-___-___-EXI
100
AcDbLine
 10
-2165.549961536626
 20
-17655.93988859083
 30
0.0
 11
1043.809001671157
 21
-17655.93988859083
 31
0.0
1001
REVIT
1002
{
1070
     1
1000
22914564
1002
}
1002
{
1070
     2
1000
-2000051
1002
}
1002
{
1070
     3
1000
22909121
1002
}
  0
LINE
  5
DB
330
70
100
AcDbEntity
  8
A-COB-___-___-EXI
100
AcDbLine
 10
-2165.549961536626
 20
-17845.98946674165
 30
0.0
 11
1043.809001671157
 21
-17845.98946674165
 31
0.0
1001
REVIT
1002
{
1070
     1
1000
22914565
1002
}
1002
{
1070
     2
1000
-2000051
1002
}
1002
{
1070
     3
1000
22909121
1002
}
  0
LINE
  5
DC
330
70
100
AcDbEntity
  8
A-COB-___-___-EXI
100
AcDbLine
 10
-2165.549961536626
 20
-18034.38643986507
 30
0.0
 11
1043.809001671157
 21
-18034.38643986507
 31
0.0
1001
REVIT
1002
{
1070
     1
1000
22914566
1002
}
1002
{
1070
     2
1000
-2000051
1002
}
1002
{
1070
     3
1000
22909121
1002
}
  0
LINE
  5
DD
330
70
100
AcDbEntity
  8
A-COB-___-___-EXI
100
AcDbLine
 10
-2165.549961536626
 20
-18224.4360180159
 30
0.0
 11
1043.809001671157
 21
-18224.4360180159
 31
0.0
1001
REVIT
1002
{
1070
     1
1000
22914567
1002
}
1002
{
1070
     2
1000
-2000051
1002
}
1002
{
1070
     3
1000
22909121
1002
}
  0
LINE
  5
DE
330
70
100
AcDbEntity
  8
A-COB-___-___-EXI
100
AcDbLine
 10
-2165.549961536626
 20
-18415.31189868042
 30
0.0
 11
1043.809001671157
 21
-18415.31189868042
 31
0.0
1001
REVIT
1002
{
1070
     1
1000
22914568
1002
}
1002
{
1070
     2
1000
-2000051
1002
}
1002
{
1070
     3
1000
22909121
1002
}
  0
LINE
  5
DF
330
70
100
AcDbEntity
  8
A-COB-___-___-EXI
100
AcDbLine
 10
-2165.549961536626
 20
-18605.36147683124
 30
0.0
 11
1043.809001671157
 21
-18605.36147683124
 31
0.0
1001
REVIT
1002
{
1070
     1
1000
22914569
1002
}
1002
{
1070
     2
1000
-2000051
1002
}
1002
{
1070
     3
1000
22909121
1002
}
  0
LINE
  5
E0
330
70
100
AcDbEntity
  8
A-COB-___-___-EXI
100
AcDbLine
 10
-2165.549961536626
 20
-18793.75844995466
 30
0.0
 11
1043.809001671157
 21
-18793.75844995466
 31
0.0
1001
REVIT
1002
{
1070
     1
1000
22914570
1002
}
1002
{
1070
     2
1000
-2000051
1002
}
1002
{
1070
     3
1000
22909121
1002
}
  0
LINE
  5
E1
330
70
100
AcDbEntity
  8
A-COB-___-___-EXI
100
AcDbLine
 10
-2165.549961536626
 20
-18983.80802810548
 30
0.0
 11
1043.809001671157
 21
-18983.80802810548
 31
0.0
1001
REVIT
1002
{
1070
     1
1000
22914571
1002
}
1002
{
1070
     2
1000
-2000051
1002
}
1002
{
1070
     3
1000
22909121
1002
}
  0
LINE
  5
E2
330
70
100
AcDbEntity
  8
A-COB-___-___-EXI
100
AcDbLine
 10
-2165.549961536626
 20
-19174.68390877001
 30
0.0
 11
1043.809001671157
 21
-19174.68390877001
 31
0.0
1001
REVIT
1002
{
1070
     1
1000
22914572
1002
}
1002
{
1070
     2
1000
-2000051
1002
}
1002
{
1070
     3
1000
22909121
1002
}
  0
LINE
  5
E3
330
70
100
AcDbEntity
  8
A-COB-___-___-EXI
100
AcDbLine
 10
-2165.549961536626
 20
-19364.73348692083
 30
0.0
 11
1043.809001671157
 21
-19364.73348692083
 31
0.0
1001
REVIT
1002
{
1070
     1
1000
22914573
1002
}
1002
{
1070
     2
1000
-2000051
1002
}
1002
{
1070
     3
1000
22909121
1002
}
  0
LINE
  5
E4
330
70
100
AcDbEntity
  8
A-COB-___-___-EXI
100
AcDbLine
 10
-2165.549961536626
 20
-19553.13046004425
 30
0.0
 11
1043.809001671157
 21
-19553.13046004425
 31
0.0
1001
REVIT
1002
{
1070
     1
1000
22914574
1002
}
1002
{
1070
     2
1000
-2000051
1002
}
1002
{
1070
     3
1000
22909121
1002
}
  0
LINE
  5
E5
330
70
100
AcDbEntity
  8
A-COB-___-___-EXI
100
AcDbLine
 10
-2165.549961536626
 20
-19743.18003819506
 30
0.0
 11
1043.809001671157
 21
-19743.18003819506
 31
0.0
1001
REVIT
1002
{
1070
     1
1000
22914575
1002
}
1002
{
1070
     2
1000
-2000051
1002
}
1002
{
1070
     3
1000
22909121
1002
}
  0
LINE
  5
E6
330
70
100
AcDbEntity
  8
A-COB-___-___-EXI
100
AcDbLine
 10
-2165.549961536626
 20
-19934.05591885959
 30
0.0
 11
1043.809001671157
 21
-19934.05591885959
 31
0.0
1001
REVIT
1002
{
1070
     1
1000
22914576
1002
}
1002
{
1070
     2
1000
-2000051
1002
}
1002
{
1070
     3
1000
22909121
1002
}
  0
LINE
  5
E7
330
70
100
AcDbEntity
  8
A-COB-___-___-EXI
100
AcDbLine
 10
-2165.549961536626
 20
-20124.10549701041
 30
0.0
 11
1043.809001671157
 21
-20124.10549701041
 31
0.0
1001
REVIT
1002
{
1070
     1
1000
22914577
1002
}
1002
{
1070
     2
1000
-2000051
1002
}
1002
{
1070
     3
1000
22909121
1002
}
  0
LINE
  5
F2
330
70
100
AcDbEntity
  8
A-COB-___-___-EXI
100
AcDbLine
 10
-2165.549961536626
 20
-21261.92405837425
 30
0.0
 11
1043.809001671157
 21
-21261.92405837425
 31
0.0
1001
REVIT
1002
{
1070
     1
1000
22914588
1002
}
1002
{
1070
     2
1000
-2000051
1002
}
1002
{
1070
     3
1000
22909121
1002
}
  0
LINE
  5
F3
330
70
100
AcDbEntity
  8
A-COB-___-___-EXI
100
AcDbLine
 10
-2165.549961536626
 20
-21452.79993903877
 30
0.0
 11
1043.809001671157
 21
-21452.79993903877
 31
0.0
1001
REVIT
1002
{
1070
     1
1000
22914589
1002
}
1002
{
1070
     2
1000
-2000051
1002
}
1002
{
1070
     3
1000
22909121
1002
}
  0
LINE
  5
F4
330
70
100
AcDbEntity
  8
A-COB-___-___-EXI
100
AcDbLine
 10
-2165.549961536626
 20
-21642.84951718959
 30
0.0
 11
1043.809001671157
 21
-21642.84951718959
 31
0.0
1001
REVIT
1002
{
1070
     1
1000
22914590
1002
}
1002
{
1070
     2
1000
-2000051
1002
}
1002
{
1070
     3
1000
22909121
1002
}
  0
LINE
  5
F5
330
70
100
AcDbEntity
  8
A-COB-___-___-EXI
100
AcDbLine
 10
-2165.549961536626
 20
-21831.24649031301
 30
0.0
 11
1043.809001671157
 21
-21831.24649031301
 31
0.0
1001
REVIT
1002
{
1070
     1
1000
22914591
1002
}
1002
{
1070
     2
1000
-2000051
1002
}
1002
{
1070
     3
1000
22909121
1002
}
  0
LINE
  5
F6
330
70
100
AcDbEntity
  8
A-COB-___-___-EXI
100
AcDbLine
 10
-2165.549961536626
 20
-22021.29606846383
 30
0.0
 11
1043.809001671157
 21
-22021.29606846383
 31
0.0
1001
REVIT
1002
{
1070
     1
1000
22914592
1002
}
1002
{
1070
     2
1000
-2000051
1002
}
1002
{
1070
     3
1000
22909121
1002
}
  0
LINE
  5
F7
330
70
100
AcDbEntity
  8
A-COB-___-___-EXI
100
AcDbLine
 10
-2165.549961536626
 20
-22212.17194912835
 30
0.0
 11
1043.809001671157
 21
-22212.17194912835
 31
0.0
1001
REVIT
1002
{
1070
     1
1000
22914593
1002
}
1002
{
1070
     2
1000
-2000051
1002
}
1002
{
1070
     3
1000
22909121
1002
}
  0
LINE
  5
F8
330
70
100
AcDbEntity
  8
A-COB-___-___-EXI
100
AcDbLine
 10
-2165.549961536626
 20
-22402.22152727918
 30
0.0
 11
1043.809001671157
 21
-22402.22152727918
 31
0.0
1001
REVIT
1002
{
1070
     1
1000
22914594
1002
}
1002
{
1070
     2
1000
-2000051
1002
}
1002
{
1070
     3
1000
22909121
1002
}
  0
LINE
  5
F9
330
70
100
AcDbEntity
  8
A-COB-___-___-EXI
100
AcDbLine
 10
-2165.549961536626
 20
-22593.09740794369
 30
0.0
 11
1043.809001671157
 21
-22593.09740794369
 31
0.0
1001
REVIT
1002
{
1070
     1
1000
22914595
1002
}
1002
{
1070
     2
1000
-2000051
1002
}
1002
{
1070
     3
1000
22909121
1002
}
  0
LINE
  5
FA
330
70
100
AcDbEntity
  8
A-COB-___-___-EXI
100
AcDbLine
 10
-2165.549961536626
 20
-22780.66807855342
 30
0.0
 11
1043.809001671157
 21
-22780.66807855342
 31
0.0
1001
REVIT
1002
{
1070
     1
1000
22914596
1002
}
1002
{
1070
     2
1000
-2000051
1002
}
1002
{
1070
     3
1000
22909121
1002
}
  0
LINE
  5
FB
330
70
100
AcDbEntity
  8
A-COB-___-___-EXI
100
AcDbLine
 10
-2165.549961536626
 20
-22971.54395921793
 30
0.0
 11
1043.809001671157
 21
-22971.54395921793
 31
0.0
1001
REVIT
1002
{
1070
     1
1000
22914597
1002
}
1002
{
1070
     2
1000
-2000051
1002
}
1002
{
1070
     3
1000
22909121
1002
}
  0
LINE
  5
FC
330
70
100
AcDbEntity
  8
A-COB-___-___-EXI
100
AcDbLine
 10
-2165.549961536626
 20
-23161.59353736876
 30
0.0
 11
1043.809001671157
 21
-23161.59353736876
 31
0.0
1001
REVIT
1002
{
1070
     1
1000
22914598
1002
}
1002
{
1070
     2
1000
-2000051
1002
}
1002
{
1070
     3
1000
22909121
1002
}
  0
LINE
  5
FD
330
70
100
AcDbEntity
  8
A-COB-___-___-EXI
100
AcDbLine
 10
-2165.549961536626
 20
-23352.46941803328
 30
0.0
 11
1043.809001671157
 21
-23352.46941803328
 31
0.0
1001
REVIT
1002
{
1070
     1
1000
22914599
1002
}
1002
{
1070
     2
1000
-2000051
1002
}
1002
{
1070
     3
1000
22909121
1002
}
  0
LINE
  5
FE
330
70
100
AcDbEntity
  8
A-COB-___-___-EXI
100
AcDbLine
 10
-2165.549961536626
 20
-23540.040088643
 30
0.0
 11
1043.809001671157
 21
-23540.040088643
 31
0.0
1001
REVIT
1002
{
1070
     1
1000
22914600
1002
}
1002
{
1070
     2
1000
-2000051
1002
}
1002
{
1070
     3
1000
22909121
1002
}
  0
LINE
  5
FF
330
70
100
AcDbEntity
  8
A-COB-___-___-EXI
100
AcDbLine
 10
-2165.549961536626
 20
-23730.91596930752
 30
0.0
 11
1043.809001671157
 21
-23730.91596930752
 31
0.0
1001
REVIT
1002
{
1070
     1
1000
22914601
1002
}
1002
{
1070
     2
1000
-2000051
1002
}
1002
{
1070
     3
1000
22909121
1002
}
  0
LINE
  5
105
330
70
100
AcDbEntity
  8
A-COB-___-___-EXI
100
AcDbLine
 10
-2165.549961536626
 20
-29135.76071141415
 30
0.0
 11
8070.685578169351
 21
-29135.76071141415
 31
0.0
1001
REVIT
1002
{
1070
     1
1000
22914608
1002
}
1002
{
1070
     2
1000
-2000051
1002
}
1002
{
1070
     3
1000
22909121
1002
}
  0
LINE
  5
106
330
70
100
AcDbEntity
  8
A-COB-___-___-EXI
100
AcDbLine
 10
-2165.549961536626
 20
-33963.01999644501
 30
0.0
 11
-1634.237445228025
 21
-33963.01999644501
 31
0.0
1001
REVIT
1002
{
1070
     1
1000
22914636
1002
}
1002
{
1070
     2
1000
-2000051
1002
}
1002
{
1070
     3
1000
22909121
1002
}
  0
LINE
  5
107
330
70
100
AcDbEntity
  8
A-COB-___-___-EXI
100
AcDbLine
 10
-1454.929799755294
 20
-33963.01999644501
 30
0.0
 11
-735.2203103232698
 21
-33963.01999644501
 31
0.0
1001
REVIT
1002
{
1070
     1
1000
22914638
1002
}
1002
{
1070
     2
1000
-2000051
1002
}
1002
{
1070
     3
1000
22909121
1002
}
  0
LINE
  5
108
330
70
100
AcDbEntity
  8
A-COB-___-___-EXI
100
AcDbLine
 10
-555.9126648505387
 20
-33963.01999644501
 30
0.0
 11
163.7968245814847
 21
-33963.01999644501
 31
0.0
1001
REVIT
1002
{
1070
     1
1000
22914640
1002
}
1002
{
1070
     2
1000
-2000051
1002
}
1002
{
1070
     3
1000
22909121
1002
}
  0
LINE
  5
109
330
70
100
AcDbEntity
  8
A-COB-___-___-EXI
100
AcDbLine
 10
343.1044700542157
 20
-33963.01999644501
 30
0.0
 11
1062.813959486239
 21
-33963.01999644501
 31
0.0
1001
REVIT
1002
{
1070
     1
1000
22914642
1002
}
1002
{
1070
     2
1000
-2000051
1002
}
1002
{
1070
     3
1000
22909121
1002
}
  0
LINE
  5
10A
330
70
100
AcDbEntity
  8
A-COB-___-___-EXI
100
AcDbLine
 10
1242.121604958971
 20
-33963.01999644501
 30
0.0
 11
1963.483699418393
 21
-33963.01999644501
 31
0.0
1001
REVIT
1002
{
1070
     1
1000
22914644
1002
}
1002
{
1070
     2
1000
-2000051
1002
}
1002
{
1070
     3
1000
22909121
1002
}
  0
LINE
  5
10B
330
70
100
AcDbEntity
  8
A-COB-___-___-EXI
100
AcDbLine
 10
2143.617647404824
 20
-33963.01999644501
 30
0.0
 11
2862.500834323146
 21
-33963.01999644501
 31
0.0
1001
REVIT
1002
{
1070
     1
1000
22914646
1002
}
1002
{
1070
     2
1000
-2000051
1002
}
1002
{
1070
     3
1000
22909121
1002
}
  0
LINE
  5
10C
330
70
100
AcDbEntity
  8
A-COB-___-___-EXI
100
AcDbLine
 10
3042.634782309578
 20
-33963.01999644501
 30
0.0
 11
3761.517969227901
 21
-33963.01999644501
 31
0.0
1001
REVIT
1002
{
1070
     1
1000
22914648
1002
}
1002
{
1070
     2
1000
-2000051
1002
}
1002
{
1070
     3
1000
22909121
1002
}
  0
LINE
  5
10D
330
70
100
AcDbEntity
  8
A-COB-___-___-EXI
100
AcDbLine
 10
3941.651917214333
 20
-33963.01999644501
 30
0.0
 11
4660.535104132656
 21
-33963.01999644501
 31
0.0
1001
REVIT
1002
{
1070
     1
1000
22914650
1002
}
1002
{
1070
     2
1000
-2000051
1002
}
1002
{
1070
     3
1000
22909121
1002
}
  0
LINE
  5
10E
330
70
100
AcDbEntity
  8
A-COB-___-___-EXI
100
AcDbLine
 10
4840.669052119087
 20
-33963.01999644501
 30
0.0
 11
5562.031146578509
 21
-33963.01999644501
 31
0.0
1001
REVIT
1002
{
1070
     1
1000
22914652
1002
}
1002
{
1070
     2
1000
-2000051
1002
}
1002
{
1070
     3
1000
22909121
1002
}
  0
LINE
  5
10F
330
70
100
AcDbEntity
  8
A-COB-___-___-EXI
100
AcDbLine
 10
5742.165094564939
 20
-33963.01999644501
 30
0.0
 11
6461.048281483264
 21
-33963.01999644501
 31
0.0
1001
REVIT
1002
{
1070
     1
1000
22914654
1002
}
1002
{
1070
     2
1000
-2000051
1002
}
1002
{
1070
     3
1000
22909121
1002
}
  0
LINE
  5
110
330
70
100
AcDbEntity
  8
A-COB-___-___-EXI
100
AcDbLine
 10
6641.182229469696
 20
-33963.01999644501
 30
0.0
 11
7360.065416388021
 21
-33963.01999644501
 31
0.0
1001
REVIT
1002
{
1070
     1
1000
22914656
1002
}
1002
{
1070
     2
1000
-2000051
1002
}
1002
{
1070
     3
1000
22909121
1002
}
  0
LINE
  5
111
330
70
100
AcDbEntity
  8
A-COB-___-___-EXI
100
AcDbLine
 10
7540.19936437445
 20
-33963.01999644501
 30
0.0
 11
8070.685578169351
 21
-33963.01999644501
 31
0.0
1001
REVIT
1002
{
1070
     1
1000
22914658
1002
}
1002
{
1070
     2
1000
-2000051
1002
}
1002
{
1070
     3
1000
22909121
1002
}
  0
LINE
  5
112
330
70
100
AcDbEntity
  8
A-COB-___-___-EXI
100
AcDbLine
 10
-2165.549961536626
 20
-24539.03982770536
 30
0.0
 11
-1608.622067303349
 21
-24539.03982770536
 31
0.0
1001
REVIT
1002
{
1070
     1
1000
22914659
1002
}
1002
{
1070
     2
1000
-2000051
1002
}
1002
{
1070
     3
1000
22909121
1002
}
  0
LINE
  5
113
330
70
100
AcDbEntity
  8
A-COB-___-___-EXI
100
AcDbLine
 10
-1426.83551428952
 20
-24539.03982770536
 30
0.0
 11
-707.9523273711958
 21
-24539.03982770536
 31
0.0
1001
REVIT
1002
{
1070
     1
1000
22914661
1002
}
1002
{
1070
     2
1000
-2000051
1002
}
1002
{
1070
     3
1000
22909121
1002
}
  0
LINE
  5
114
330
70
100
AcDbEntity
  8
A-COB-___-___-EXI
100
AcDbLine
 10
-527.8183793847651
 20
-24539.03982770536
 30
0.0
 11
191.0648075335598
 21
-24539.03982770536
 31
0.0
1001
REVIT
1002
{
1070
     1
1000
22914663
1002
}
1002
{
1070
     2
1000
-2000051
1002
}
1002
{
1070
     3
1000
22909121
1002
}
  0
LINE
  5
115
330
70
100
AcDbEntity
  8
A-COB-___-___-EXI
100
AcDbLine
 10
371.1987555199898
 20
-24539.03982770536
 30
0.0
 11
1090.081942438314
 21
-24539.03982770536
 31
0.0
1001
REVIT
1002
{
1070
     1
1000
22914665
1002
}
1002
{
1070
     2
1000
-2000051
1002
}
1002
{
1070
     3
1000
22909121
1002
}
  0
LINE
  5
116
330
70
100
AcDbEntity
  8
A-COB-___-___-EXI
100
AcDbLine
 10
1270.215890424745
 20
-24539.03982770536
 30
0.0
 11
1989.099077343068
 21
-24539.03982770536
 31
0.0
1001
REVIT
1002
{
1070
     1
1000
22914667
1002
}
1002
{
1070
     2
1000
-2000051
1002
}
1002
{
1070
     3
1000
22909121
1002
}
  0
LINE
  5
117
330
70
100
AcDbEntity
  8
A-COB-___-___-EXI
100
AcDbLine
 10
2170.885630356898
 20
-24539.03982770536
 30
0.0
 11
2890.595119788921
 21
-24539.03982770536
 31
0.0
1001
REVIT
1002
{
1070
     1
1000
22914669
1002
}
1002
{
1070
     2
1000
-2000051
1002
}
1002
{
1070
     3
1000
22909121
1002
}
  0
LINE
  5
118
330
70
100
AcDbEntity
  8
A-COB-___-___-EXI
100
AcDbLine
 10
3069.902765261653
 20
-24539.03982770536
 30
0.0
 11
3789.612254693676
 21
-24539.03982770536
 31
0.0
1001
REVIT
1002
{
1070
     1
1000
22914671
1002
}
1002
{
1070
     2
1000
-2000051
1002
}
1002
{
1070
     3
1000
22909121
1002
}
  0
LINE
  5
119
330
70
100
AcDbEntity
  8
A-COB-___-___-EXI
100
AcDbLine
 10
3968.919900166407
 20
-24539.03982770536
 30
0.0
 11
4688.629389598431
 21
-24539.03982770536
 31
0.0
1001
REVIT
1002
{
1070
     1
1000
22914673
1002
}
1002
{
1070
     2
1000
-2000051
1002
}
1002
{
1070
     3
1000
22909121
1002
}
  0
LINE
  5
11A
330
70
100
AcDbEntity
  8
A-COB-___-___-EXI
100
AcDbLine
 10
4867.937035071161
 20
-24539.03982770536
 30
0.0
 11
5589.299129530584
 21
-24539.03982770536
 31
0.0
1001
REVIT
1002
{
1070
     1
1000
22914675
1002
}
1002
{
1070
     2
1000
-2000051
1002
}
1002
{
1070
     3
1000
22909121
1002
}
  0
LINE
  5
11B
330
70
100
AcDbEntity
  8
A-COB-___-___-EXI
100
AcDbLine
 10
5769.433077517016
 20
-24539.03982770536
 30
0.0
 11
6488.316264435337
 21
-24539.03982770536
 31
0.0
1001
REVIT
1002
{
1070
     1
1000
22914677
1002
}
1002
{
1070
     2
1000
-2000051
1002
}
1002
{
1070
     3
1000
22909121
1002
}
  0
LINE
  5
11C
330
70
100
AcDbEntity
  8
A-COB-___-___-EXI
100
AcDbLine
 10
6668.45021242177
 20
-24539.03982770536
 30
0.0
 11
7387.333399340093
 21
-24539.03982770536
 31
0.0
1001
REVIT
1002
{
1070
     1
1000
22914679
1002
}
1002
{
1070
     2
1000
-2000051
1002
}
1002
{
1070
     3
1000
22909121
1002
}
  0
LINE
  5
11D
330
70
100
AcDbEntity
  8
A-COB-___-___-EXI
100
AcDbLine
 10
7567.467347326524
 20
-24539.03982770536
 30
0.0
 11
8123.568939046101
 21
-24539.03982770536
 31
0.0
1001
REVIT
1002
{
1070
     1
1000
22914681
1002
}
1002
{
1070
     2
1000
-2000051
1002
}
1002
{
1070
     3
1000
22909121
1002
}
  0
LINE
  5
11E
330
70
100
AcDbEntity
  8
A-COB-___-___-EXI
100
AcDbLine
 10
8070.685578169351
 20
-31549.39035392957
 30
0.0
 11
7540.199364374449
 21
-31549.39035392957
 31
0.0
1001
REVIT
1002
{
1070
     1
1000
22914682
1002
}
1002
{
1070
     2
1000
-2000051
1002
}
1002
{
1070
     3
1000
22909121
1002
}
  0
LINE
  5
11F
330
70
100
AcDbEntity
  8
A-COB-___-___-EXI
100
AcDbLine
 10
7360.065416388021
 20
-31549.39035392957
 30
0.0
 11
6641.182229469696
 21
-31549.39035392957
 31
0.0
1001
REVIT
1002
{
1070
     1
1000
22914684
1002
}
1002
{
1070
     2
1000
-2000051
1002
}
1002
{
1070
     3
1000
22909121
1002
}
  0
LINE
  5
120
330
70
100
AcDbEntity
  8
A-COB-___-___-EXI
100
AcDbLine
 10
6461.048281483264
 20
-31549.39035392957
 30
0.0
 11
5742.165094564939
 21
-31549.39035392957
 31
0.0
1001
REVIT
1002
{
1070
     1
1000
22914686
1002
}
1002
{
1070
     2
1000
-2000051
1002
}
1002
{
1070
     3
1000
22909121
1002
}
  0
LINE
  5
121
330
70
100
AcDbEntity
  8
A-COB-___-___-EXI
100
AcDbLine
 10
5562.031146578511
 20
-31549.39035392957
 30
0.0
 11
4840.669052119087
 21
-31549.39035392957
 31
0.0
1001
REVIT
1002
{
1070
     1
1000
22914688
1002
}
1002
{
1070
     2
1000
-2000051
1002
}
1002
{
1070
     3
1000
22909121
1002
}
  0
LINE
  5
122
330
70
100
AcDbEntity
  8
A-COB-___-___-EXI
100
AcDbLine
 10
4660.535104132656
 20
-31549.39035392957
 30
0.0
 11
3941.651917214333
 21
-31549.39035392957
 31
0.0
1001
REVIT
1002
{
1070
     1
1000
22914690
1002
}
1002
{
1070
     2
1000
-2000051
1002
}
1002
{
1070
     3
1000
22909121
1002
}
  0
LINE
  5
123
330
70
100
AcDbEntity
  8
A-COB-___-___-EXI
100
AcDbLine
 10
3761.517969227901
 20
-31549.39035392957
 30
0.0
 11
3042.634782309578
 21
-31549.39035392957
 31
0.0
1001
REVIT
1002
{
1070
     1
1000
22914692
1002
}
1002
{
1070
     2
1000
-2000051
1002
}
1002
{
1070
     3
1000
22909121
1002
}
  0
LINE
  5
124
330
70
100
AcDbEntity
  8
A-COB-___-___-EXI
100
AcDbLine
 10
2862.500834323147
 20
-31549.39035392957
 30
0.0
 11
2143.617647404824
 21
-31549.39035392957
 31
0.0
1001
REVIT
1002
{
1070
     1
1000
22914694
1002
}
1002
{
1070
     2
1000
-2000051
1002
}
1002
{
1070
     3
1000
22909121
1002
}
  0
LINE
  5
125
330
70
100
AcDbEntity
  8
A-COB-___-___-EXI
100
AcDbLine
 10
1963.483699418391
 20
-31549.39035392957
 30
0.0
 11
1242.12160495897
 21
-31549.39035392957
 31
0.0
1001
REVIT
1002
{
1070
     1
1000
22914696
1002
}
1002
{
1070
     2
1000
-2000051
1002
}
1002
{
1070
     3
1000
22909121
1002
}
  0
LINE
  5
126
330
70
100
AcDbEntity
  8
A-COB-___-___-EXI
100
AcDbLine
 10
1062.813959486239
 20
-31549.39035392957
 30
0.0
 11
343.1044700542158
 21
-31549.39035392957
 31
0.0
1001
REVIT
1002
{
1070
     1
1000
22914698
1002
}
1002
{
1070
     2
1000
-2000051
1002
}
1002
{
1070
     3
1000
22909121
1002
}
  0
LINE
  5
127
330
70
100
AcDbEntity
  8
A-COB-___-___-EXI
100
AcDbLine
 10
163.7968245814848
 20
-31549.39035392957
 30
0.0
 11
-555.9126648505386
 21
-31549.39035392957
 31
0.0
1001
REVIT
1002
{
1070
     1
1000
22914700
1002
}
1002
{
1070
     2
1000
-2000051
1002
}
1002
{
1070
     3
1000
22909121
1002
}
  0
LINE
  5
128
330
70
100
AcDbEntity
  8
A-COB-___-___-EXI
100
AcDbLine
 10
-735.22031032327
 20
-31549.39035392957
 30
0.0
 11
-1454.929799755294
 21
-31549.39035392957
 31
0.0
1001
REVIT
1002
{
1070
     1
1000
22914702
1002
}
1002
{
1070
     2
1000
-2000051
1002
}
1002
{
1070
     3
1000
22909121
1002
}
  0
LINE
  5
129
330
70
100
AcDbEntity
  8
A-COB-___-___-EXI
100
AcDbLine
 10
-1634.237445228025
 20
-31549.39035392957
 30
0.0
 11
-2165.549961536626
 21
-31549.39035392957
 31
0.0
1001
REVIT
1002
{
1070
     1
1000
22914704
1002
}
1002
{
1070
     2
1000
-2000051
1002
}
1002
{
1070
     3
1000
22909121
1002
}
  0
LINE
  5
12A
330
70
100
AcDbEntity
  8
A-COB-___-___-EXI
100
AcDbLine
 10
-2165.549961536626
 20
-26836.16081578921
 30
0.0
 11
-1623.495512549935
 21
-26836.16081578921
 31
0.0
1001
REVIT
1002
{
1070
     1
1000
22914705
1002
}
1002
{
1070
     2
1000
-2000051
1002
}
1002
{
1070
     3
1000
22909121
1002
}
  0
LINE
  5
12B
330
70
100
AcDbEntity
  8
A-COB-___-___-EXI
100
AcDbLine
 10
-1444.187867077204
 20
-26836.16081578921
 30
0.0
 11
-724.4783776451802
 21
-26836.16081578921
 31
0.0
1001
REVIT
1002
{
1070
     1
1000
22914706
1002
}
1002
{
1070
     2
1000
-2000051
1002
}
1002
{
1070
     3
1000
22909121
1002
}
  0
LINE
  5
12C
330
70
100
AcDbEntity
  8
A-COB-___-___-EXI
100
AcDbLine
 10
-545.1707321724487
 20
-26836.16081578921
 30
0.0
 11
174.5387572595747
 21
-26836.16081578921
 31
0.0
1001
REVIT
1002
{
1070
     1
1000
22914707
1002
}
1002
{
1070
     2
1000
-2000051
1002
}
1002
{
1070
     3
1000
22909121
1002
}
  0
LINE
  5
12D
330
70
100
AcDbEntity
  8
A-COB-___-___-EXI
100
AcDbLine
 10
353.8464027323056
 20
-26836.16081578921
 30
0.0
 11
1073.555892164329
 21
-26836.16081578921
 31
0.0
1001
REVIT
1002
{
1070
     1
1000
22914709
1002
}
1002
{
1070
     2
1000
-2000051
1002
}
1002
{
1070
     3
1000
22909121
1002
}
  0
LINE
  5
12E
330
70
100
AcDbEntity
  8
A-COB-___-___-EXI
100
AcDbLine
 10
1252.86353763706
 20
-26836.16081578921
 30
0.0
 11
1974.225632096483
 21
-26836.16081578921
 31
0.0
1001
REVIT
1002
{
1070
     1
1000
22914711
1002
}
1002
{
1070
     2
1000
-2000051
1002
}
1002
{
1070
     3
1000
22909121
1002
}
  0
LINE
  5
12F
330
70
100
AcDbEntity
  8
A-COB-___-___-EXI
100
AcDbLine
 10
2154.359580082913
 20
-26836.16081578921
 30
0.0
 11
2873.242767001237
 21
-26836.16081578921
 31
0.0
1001
REVIT
1002
{
1070
     1
1000
22914713
1002
}
1002
{
1070
     2
1000
-2000051
1002
}
1002
{
1070
     3
1000
22909121
1002
}
  0
LINE
  5
131
330
70
100
AcDbEntity
  8
A-COB-___-___-EXI
100
AcDbLine
 10
3952.393849892424
 20
-26836.16081578921
 30
0.0
 11
4671.277036810748
 21
-26836.16081578921
 31
0.0
1001
REVIT
1002
{
1070
     1
1000
22914716
1002
}
1002
{
1070
     2
1000
-2000051
1002
}
1002
{
1070
     3
1000
22909121
1002
}
  0
LINE
  5
132
330
70
100
AcDbEntity
  8
A-COB-___-___-EXI
100
AcDbLine
 10
4851.410984797176
 20
-26836.16081578921
 30
0.0
 11
5572.7730792566
 21
-26836.16081578921
 31
0.0
1001
REVIT
1002
{
1070
     1
1000
22914717
1002
}
1002
{
1070
     2
1000
-2000051
1002
}
1002
{
1070
     3
1000
22909121
1002
}
  0
LINE
  5
133
330
70
100
AcDbEntity
  8
A-COB-___-___-EXI
100
AcDbLine
 10
5752.080724729331
 20
-26836.16081578921
 30
0.0
 11
6471.790214161353
 21
-26836.16081578921
 31
0.0
1001
REVIT
1002
{
1070
     1
1000
22914718
1002
}
1002
{
1070
     2
1000
-2000051
1002
}
1002
{
1070
     3
1000
22909121
1002
}
  0
LINE
  5
134
330
70
100
AcDbEntity
  8
A-COB-___-___-EXI
100
AcDbLine
 10
6651.097859634086
 20
-26836.16081578921
 30
0.0
 11
7370.807349066111
 21
-26836.16081578921
 31
0.0
1001
REVIT
1002
{
1070
     1
1000
22914719
1002
}
1002
{
1070
     2
1000
-2000051
1002
}
1002
{
1070
     3
1000
22909121
1002
}
  0
LINE
  5
135
330
70
100
AcDbEntity
  8
A-COB-___-___-EXI
100
AcDbLine
 10
7550.114994538842
 20
-26836.16081578921
 30
0.0
 11
8092.169443525532
 21
-26836.16081578921
 31
0.0
1001
REVIT
1002
{
1070
     1
1000
22914721
1002
}
1002
{
1070
     2
1000
-2000051
1002
}
1002
{
1070
     3
1000
22909121
1002
}
  0
LINE
  5
139
330
70
100
AcDbEntity
  8
A-ALV-___-___-EXI
100
AcDbLine
 10
7583.99339760051
 20
-17788.9745932964
 30
0.0
 11
1043.809001671158
 21
-17788.9745932964
 31
0.0
1001
REVIT
1002
{
1070
     1
1000
22915812
1002
}
1002
{
1070
     2
1000
-2000051
1002
}
1002
{
1070
     3
1000
22909121
1002
}
  0
LINE
  5
1AF
330
70
100
AcDbEntity
  8
A-COB-___-___-EXI
100
AcDbLine
 10
7726.117429956777
 20
-24913.35486641112
 30
0.0
 11
7719.507009847183
 21
-25294.28032522645
 31
0.0
1001
REVIT
1002
{
1070
     1
1000
22915930
1002
}
1002
{
1070
     2
1000
-2000051
1002
}
1002
{
1070
     3
1000
22909121
1002
}
  0
LINE
  5
1B0
330
70
100
AcDbEntity
  8
A-COB-___-___-EXI
100
AcDbLine
 10
7715.375497278685
 20
-25484.32990337727
 30
0.0
 11
7708.765077169092
 21
-25865.25536219262
 31
0.0
1001
REVIT
1002
{
1070
     1
1000
22915931
1002
}
1002
{
1070
     2
1000
-2000051
1002
}
1002
{
1070
     3
1000
22909121
1002
}
  0
LINE
  5
1B1
330
70
100
AcDbEntity
  8
A-COB-___-___-EXI
100
AcDbLine
 10
7704.633564600595
 20
-26055.30494034344
 30
0.0
 11
7698.849447004701
 21
-26434.57779413138
 31
0.0
1001
REVIT
1002
{
1070
     1
1000
22915932
1002
}
1002
{
1070
     2
1000
-2000051
1002
}
1002
{
1070
     3
1000
22909121
1002
}
  0
LINE
  5
1B2
330
70
100
AcDbEntity
  8
A-COB-___-___-EXI
100
AcDbLine
 10
7696.370539463604
 20
-26624.6273722822
 30
0.0
 11
7688.10751432661
 21
-27005.55283109754
 31
0.0
1001
REVIT
1002
{
1070
     1
1000
22915933
1002
}
1002
{
1070
     2
1000
-2000051
1002
}
1002
{
1070
     3
1000
22909121
1002
}
  0
LINE
  5
1B3
330
70
100
AcDbEntity
  8
A-COB-___-___-EXI
100
AcDbLine
 10
7685.628606785513
 20
-27195.60240924836
 30
0.0
 11
7679.844489189619
 21
-27576.52786806371
 31
0.0
1001
REVIT
1002
{
1070
     1
1000
22915934
1002
}
1002
{
1070
     2
1000
-2000051
1002
}
1002
{
1070
     3
1000
22909121
1002
}
  0
LINE
  5
1B6
330
70
100
AcDbEntity
  8
A-COB-___-___-EXI
100
AcDbLine
 10
7670.755161538929
 20
-28606.92710264664
 30
0.0
 11
7670.755161538929
 21
-28987.02625894828
 31
0.0
1001
REVIT
1002
{
1070
     1
1000
22915937
1002
}
1002
{
1070
     2
1000
-2000051
1002
}
1002
{
1070
     3
1000
22909121
1002
}
  0
LINE
  5
1B7
330
70
100
AcDbEntity
  8
A-COB-___-___-EXI
100
AcDbLine
 10
7670.755161538929
 20
-29177.90213961281
 30
0.0
 11
7670.755161538929
 21
-29558.82759842814
 31
0.0
1001
REVIT
1002
{
1070
     1
1000
22915938
1002
}
1002
{
1070
     2
1000
-2000051
1002
}
1002
{
1070
     3
1000
22909121
1002
}
  0
LINE
  5
1B8
330
70
100
AcDbEntity
  8
A-COB-___-___-EXI
100
AcDbLine
 10
7670.755161538929
 20
-29748.87717657896
 30
0.0
 11
7670.755161538929
 21
-30129.80263539431
 31
0.0
1001
REVIT
1002
{
1070
     1
1000
22915939
1002
}
1002
{
1070
     2
1000
-2000051
1002
}
1002
{
1070
     3
1000
22909121
1002
}
  0
LINE
  5
1B9
330
70
100
AcDbEntity
  8
A-COB-___-___-EXI
100
AcDbLine
 10
7670.755161538929
 20
-30319.85221354513
 30
0.0
 11
7670.755161538929
 21
-30700.77767236047
 31
0.0
1001
REVIT
1002
{
1070
     1
1000
22915940
1002
}
1002
{
1070
     2
1000
-2000051
1002
}
1002
{
1070
     3
1000
22909121
1002
}
  0
LINE
  5
1BA
330
70
100
AcDbEntity
  8
A-COB-___-___-EXI
100
AcDbLine
 10
7670.755161538929
 20
-30890.82725051129
 30
0.0
 11
7670.755161538929
 21
-31271.75270932663
 31
0.0
1001
REVIT
1002
{
1070
     1
1000
22915941
1002
}
1002
{
1070
     2
1000
-2000051
1002
}
1002
{
1070
     3
1000
22909121
1002
}
  0
LINE
  5
1BB
330
70
100
AcDbEntity
  8
A-COB-___-___-EXI
100
AcDbLine
 10
7670.755161538929
 20
-31462.62858999115
 30
0.0
 11
7670.755161538929
 21
-31842.72774629279
 31
0.0
1001
REVIT
1002
{
1070
     1
1000
22915942
1002
}
1002
{
1070
     2
1000
-2000051
1002
}
1002
{
1070
     3
1000
22909121
1002
}
  0
LINE
  5
1BC
330
70
100
AcDbEntity
  8
A-COB-___-___-EXI
100
AcDbLine
 10
7670.755161538929
 20
-32033.60362695732
 30
0.0
 11
7670.755161538929
 21
-32414.52908577266
 31
0.0
1001
REVIT
1002
{
1070
     1
1000
22915943
1002
}
1002
{
1070
     2
1000
-2000051
1002
}
1002
{
1070
     3
1000
22909121
1002
}
  0
LINE
  5
1BD
330
70
100
AcDbEntity
  8
A-COB-___-___-EXI
100
AcDbLine
 10
7670.755161538929
 20
-32604.57866392348
 30
0.0
 11
7670.755161538929
 21
-32985.50412273883
 31
0.0
1001
REVIT
1002
{
1070
     1
1000
22915944
1002
}
1002
{
1070
     2
1000
-2000051
1002
}
1002
{
1070
     3
1000
22909121
1002
}
  0
LINE
  5
1BE
330
70
100
AcDbEntity
  8
A-COB-___-___-EXI
100
AcDbLine
 10
7670.755161538929
 20
-33175.55370088964
 30
0.0
 11
7670.755161538929
 21
-33556.47915970498
 31
0.0
1001
REVIT
1002
{
1070
     1
1000
22915945
1002
}
1002
{
1070
     2
1000
-2000051
1002
}
1002
{
1070
     3
1000
22909121
1002
}
  0
LINE
  5
1C1
330
70
100
AcDbEntity
  8
A-COB-___-___-EXI
100
AcDbLine
 10
7141.921552771425
 20
-34087.79167601359
 30
0.0
 11
6760.996093956082
 21
-34087.79167601359
 31
0.0
1001
REVIT
1002
{
1070
     1
1000
22915948
1002
}
1002
{
1070
     2
1000
-2000051
1002
}
1002
{
1070
     3
1000
22909121
1002
}
  0
LINE
  5
1C2
330
70
100
AcDbEntity
  8
A-COB-___-___-EXI
100
AcDbLine
 10
6570.946515805262
 20
-34087.79167601359
 30
0.0
 11
6190.02105698992
 21
-34087.79167601359
 31
0.0
1001
REVIT
1002
{
1070
     1
1000
22915949
1002
}
1002
{
1070
     2
1000
-2000051
1002
}
1002
{
1070
     3
1000
22909121
1002
}
  0
LINE
  5
1C3
330
70
100
AcDbEntity
  8
A-COB-___-___-EXI
100
AcDbLine
 10
5999.9714788391
 20
-34087.79167601359
 30
0.0
 11
5619.046020023756
 21
-34087.79167601359
 31
0.0
1001
REVIT
1002
{
1070
     1
1000
22915950
1002
}
1002
{
1070
     2
1000
-2000051
1002
}
1002
{
1070
     3
1000
22909121
1002
}
  0
LINE
  5
1C4
330
70
100
AcDbEntity
  8
A-COB-___-___-EXI
100
AcDbLine
 10
5428.996441872936
 20
-34087.79167601359
 30
0.0
 11
5048.070983057593
 21
-34087.79167601359
 31
0.0
1001
REVIT
1002
{
1070
     1
1000
22915951
1002
}
1002
{
1070
     2
1000
-2000051
1002
}
1002
{
1070
     3
1000
22909121
1002
}
  0
LINE
  5
1C5
330
70
100
AcDbEntity
  8
A-COB-___-___-EXI
100
AcDbLine
 10
4857.195102393072
 20
-34087.79167601359
 30
0.0
 11
4474.617038550333
 21
-34087.79167601359
 31
0.0
1001
REVIT
1002
{
1070
     1
1000
22915952
1002
}
1002
{
1070
     2
1000
-2000051
1002
}
1002
{
1070
     3
1000
22909121
1002
}
  0
LINE
  5
1C6
330
70
100
AcDbEntity
  8
A-COB-___-___-EXI
100
AcDbLine
 10
4284.567460399511
 20
-34087.79167601359
 30
0.0
 11
3903.64200158417
 21
-34087.79167601359
 31
0.0
1001
REVIT
1002
{
1070
     1
1000
22915953
1002
}
1002
{
1070
     2
1000
-2000051
1002
}
1002
{
1070
     3
1000
22909121
1002
}
  0
LINE
  5
1C7
330
70
100
AcDbEntity
  8
A-COB-___-___-EXI
100
AcDbLine
 10
3713.592423433347
 20
-34087.79167601359
 30
0.0
 11
3332.666964618006
 21
-34087.79167601359
 31
0.0
1001
REVIT
1002
{
1070
     1
1000
22915954
1002
}
1002
{
1070
     2
1000
-2000051
1002
}
1002
{
1070
     3
1000
22909121
1002
}
  0
LINE
  5
1C8
330
70
100
AcDbEntity
  8
A-COB-___-___-EXI
100
AcDbLine
 10
3141.791083953484
 20
-34087.79167601359
 30
0.0
 11
2761.691927651842
 21
-34087.79167601359
 31
0.0
1001
REVIT
1002
{
1070
     1
1000
22915955
1002
}
1002
{
1070
     2
1000
-2000051
1002
}
1002
{
1070
     3
1000
22909121
1002
}
  0
LINE
  5
1C9
330
70
100
AcDbEntity
  8
A-COB-___-___-EXI
100
AcDbLine
 10
2570.816046987323
 20
-34087.79167601359
 30
0.0
 11
2189.890588171981
 21
-34087.79167601359
 31
0.0
1001
REVIT
1002
{
1070
     1
1000
22915956
1002
}
1002
{
1070
     2
1000
-2000051
1002
}
1002
{
1070
     3
1000
22909121
1002
}
  0
LINE
  5
1CA
330
70
100
AcDbEntity
  8
A-COB-___-___-EXI
100
AcDbLine
 10
1999.841010021159
 20
-34087.79167601359
 30
0.0
 11
1618.915551205817
 21
-34087.79167601359
 31
0.0
1001
REVIT
1002
{
1070
     1
1000
22915957
1002
}
1002
{
1070
     2
1000
-2000051
1002
}
1002
{
1070
     3
1000
22909121
1002
}
  0
LINE
  5
1CB
330
70
100
AcDbEntity
  8
A-COB-___-___-EXI
100
AcDbLine
 10
1428.865973054995
 20
-34087.79167601359
 30
0.0
 11
1047.940514239653
 21
-34087.79167601359
 31
0.0
1001
REVIT
1002
{
1070
     1
1000
22915958
1002
}
1002
{
1070
     2
1000
-2000051
1002
}
1002
{
1070
     3
1000
22909121
1002
}
  0
LINE
  5
1CC
330
70
100
AcDbEntity
  8
A-COB-___-___-EXI
100
AcDbLine
 10
857.8909360888319
 20
-34087.79167601359
 30
0.0
 11
476.9654772734901
 21
-34087.79167601359
 31
0.0
1001
REVIT
1002
{
1070
     1
1000
22915959
1002
}
1002
{
1070
     2
1000
-2000051
1002
}
1002
{
1070
     3
1000
22909121
1002
}
  0
LINE
  5
1CD
330
70
100
AcDbEntity
  8
A-COB-___-___-EXI
100
AcDbLine
 10
286.0895966089691
 20
-34087.79167601359
 30
0.0
 11
-94.00955969267341
 21
-34087.79167601359
 31
0.0
1001
REVIT
1002
{
1070
     1
1000
22915960
1002
}
1002
{
1070
     2
1000
-2000051
1002
}
1002
{
1070
     3
1000
22909121
1002
}
  0
LINE
  5
1CE
330
70
100
AcDbEntity
  8
A-COB-___-___-EXI
100
AcDbLine
 10
-284.8854403571932
 20
-34087.79167601359
 30
0.0
 11
-665.8108991725359
 21
-34087.79167601359
 31
0.0
1001
REVIT
1002
{
1070
     1
1000
22915961
1002
}
1002
{
1070
     2
1000
-2000051
1002
}
1002
{
1070
     3
1000
22909121
1002
}
  0
LINE
  5
1CF
330
70
100
AcDbEntity
  8
A-COB-___-___-EXI
100
AcDbLine
 10
-855.8604773233566
 20
-34087.79167601359
 30
0.0
 11
-1236.785936138698
 21
-34087.79167601359
 31
0.0
1001
REVIT
1002
{
1070
     1
1000
22915962
1002
}
1002
{
1070
     2
1000
-2000051
1002
}
1002
{
1070
     3
1000
22909121
1002
}
  0
LINE
  5
1D2
330
70
100
AcDbEntity
  8
A-COB-___-___-EXI
100
AcDbLine
 10
-1765.619544906201
 20
-33453.19134549258
 30
0.0
 11
-1765.619544906201
 21
-33072.26588667724
 31
0.0
1001
REVIT
1002
{
1070
     1
1000
22915965
1002
}
1002
{
1070
     2
1000
-2000051
1002
}
1002
{
1070
     3
1000
22909121
1002
}
  0
LINE
  5
1D3
330
70
100
AcDbEntity
  8
A-COB-___-___-EXI
100
AcDbLine
 10
-1765.619544906201
 20
-32881.39000601272
 30
0.0
 11
-1765.619544906201
 21
-32501.29084971108
 31
0.0
1001
REVIT
1002
{
1070
     1
1000
22915966
1002
}
1002
{
1070
     2
1000
-2000051
1002
}
1002
{
1070
     3
1000
22909121
1002
}
  0
LINE
  5
1D4
330
70
100
AcDbEntity
  8
A-COB-___-___-EXI
100
AcDbLine
 10
-1765.619544906201
 20
-32310.41496904656
 30
0.0
 11
-1765.619544906201
 21
-31929.48951023121
 31
0.0
1001
REVIT
1002
{
1070
     1
1000
22915967
1002
}
1002
{
1070
     2
1000
-2000051
1002
}
1002
{
1070
     3
1000
22909121
1002
}
  0
LINE
  5
1D5
330
70
100
AcDbEntity
  8
A-COB-___-___-EXI
100
AcDbLine
 10
-1765.619544906201
 20
-31739.43993208039
 30
0.0
 11
-1765.619544906201
 21
-31358.51447326506
 31
0.0
1001
REVIT
1002
{
1070
     1
1000
22915968
1002
}
1002
{
1070
     2
1000
-2000051
1002
}
1002
{
1070
     3
1000
22909121
1002
}
  0
LINE
  5
1D6
330
70
100
AcDbEntity
  8
A-COB-___-___-EXI
100
AcDbLine
 10
-1765.619544906201
 20
-31168.46489511423
 30
0.0
 11
-1765.619544906201
 21
-30787.53943629889
 31
0.0
1001
REVIT
1002
{
1070
     1
1000
22915969
1002
}
1002
{
1070
     2
1000
-2000051
1002
}
1002
{
1070
     3
1000
22909121
1002
}
  0
LINE
  5
1D7
330
70
100
AcDbEntity
  8
A-COB-___-___-EXI
100
AcDbLine
 10
-1765.619544906201
 20
-30597.48985814807
 30
0.0
 11
-1765.619544906201
 21
-30216.56439933272
 31
0.0
1001
REVIT
1002
{
1070
     1
1000
22915970
1002
}
1002
{
1070
     2
1000
-2000051
1002
}
1002
{
1070
     3
1000
22909121
1002
}
  0
LINE
  5
1D8
330
70
100
AcDbEntity
  8
A-COB-___-___-EXI
100
AcDbLine
 10
-1765.619544906201
 20
-30025.68851866821
 30
0.0
 11
-1765.619544906201
 21
-29645.58936236656
 31
0.0
1001
REVIT
1002
{
1070
     1
1000
22915971
1002
}
1002
{
1070
     2
1000
-2000051
1002
}
1002
{
1070
     3
1000
22909121
1002
}
  0
LINE
  5
1D9
330
70
100
AcDbEntity
  8
A-COB-___-___-EXI
100
AcDbLine
 10
-1765.619544906201
 20
-29454.71348170204
 30
0.0
 11
-1765.619544906201
 21
-28805.23970593445
 31
0.0
1001
REVIT
1002
{
1070
     1
1000
22915972
1002
}
1002
{
1070
     2
1000
-2000051
1002
}
1002
{
1070
     3
1000
22909121
1002
}
  0
LINE
  5
1DA
330
70
100
AcDbEntity
  8
A-COB-___-___-EXI
100
AcDbLine
 10
-1765.619544906201
 20
-28615.19012778363
 30
0.0
 11
-1765.619544906201
 21
-28234.26466896829
 31
0.0
1001
REVIT
1002
{
1070
     1
1000
22915973
1002
}
1002
{
1070
     2
1000
-2000051
1002
}
1002
{
1070
     3
1000
22909121
1002
}
  0
LINE
  5
1DB
330
70
100
AcDbEntity
  8
A-COB-___-___-EXI
100
AcDbLine
 10
-1765.619544906201
 20
-28044.21509081747
 30
0.0
 11
-1765.619544906201
 21
-27663.28963200213
 31
0.0
1001
REVIT
1002
{
1070
     1
1000
22915974
1002
}
1002
{
1070
     2
1000
-2000051
1002
}
1002
{
1070
     3
1000
22909121
1002
}
  0
LINE
  5
1DC
330
70
100
AcDbEntity
  8
A-COB-___-___-EXI
100
AcDbLine
 10
-1765.619544906201
 20
-27473.2400538513
 30
0.0
 11
-1765.619544906201
 21
-27092.31459503596
 31
0.0
1001
REVIT
1002
{
1070
     1
1000
22915975
1002
}
1002
{
1070
     2
1000
-2000051
1002
}
1002
{
1070
     3
1000
22909121
1002
}
  0
LINE
  5
1DD
330
70
100
AcDbEntity
  8
A-COB-___-___-EXI
100
AcDbLine
 10
-1765.619544906201
 20
-26901.43871437144
 30
0.0
 11
-1765.619544906201
 21
-26521.3395580698
 31
0.0
1001
REVIT
1002
{
1070
     1
1000
22915976
1002
}
1002
{
1070
     2
1000
-2000051
1002
}
1002
{
1070
     3
1000
22909121
1002
}
  0
LINE
  5
1DE
330
70
100
AcDbEntity
  8
A-COB-___-___-EXI
100
AcDbLine
 10
-1765.619544906201
 20
-26330.46367740528
 30
0.0
 11
-1765.619544906201
 21
-25949.53821858994
 31
0.0
1001
REVIT
1002
{
1070
     1
1000
22915977
1002
}
1002
{
1070
     2
1000
-2000051
1002
}
1002
{
1070
     3
1000
22909121
1002
}
  0
LINE
  5
1DF
330
70
100
AcDbEntity
  8
A-COB-___-___-EXI
100
AcDbLine
 10
-1765.619544906201
 20
-25759.48864043911
 30
0.0
 11
-1765.619544906201
 21
-25378.56318162378
 31
0.0
1001
REVIT
1002
{
1070
     1
1000
22915978
1002
}
1002
{
1070
     2
1000
-2000051
1002
}
1002
{
1070
     3
1000
22909121
1002
}
  0
LINE
  5
1E0
330
70
100
AcDbEntity
  8
A-COB-___-___-EXI
100
AcDbLine
 10
-1765.619544906201
 20
-25188.51360347295
 30
0.0
 11
-1765.619544906201
 21
-24807.58814465761
 31
0.0
1001
REVIT
1002
{
1070
     1
1000
22915979
1002
}
1002
{
1070
     2
1000
-2000051
1002
}
1002
{
1070
     3
1000
22909121
1002
}
  0
LINE
  5
1E1
330
70
100
AcDbEntity
  8
A-COB-___-___-EXI
100
AcDbLine
 10
-1765.619544906201
 20
-24617.53856650679
 30
0.0
 11
-1765.619544906201
 21
-24414.26814813679
 31
0.0
1001
REVIT
1002
{
1070
     1
1000
22915980
1002
}
1002
{
1070
     2
1000
-2000051
1002
}
1002
{
1070
     3
1000
22909121
1002
}
  0
LINE
  5
1E3
330
70
100
AcDbEntity
  8
A-COB-___-___-EXI
100
AcDbLine
 10
7174.147350805696
 20
-24414.26814813679
 30
0.0
 11
6793.221891990353
 21
-24414.26814813679
 31
0.0
1001
REVIT
1002
{
1070
     1
1000
22915982
1002
}
1002
{
1070
     2
1000
-2000051
1002
}
1002
{
1070
     3
1000
22909121
1002
}
  0
LINE
  5
1E4
330
70
100
AcDbEntity
  8
A-COB-___-___-EXI
100
AcDbLine
 10
6602.346011325831
 20
-24414.26814813679
 30
0.0
 11
6222.246855024191
 21
-24414.26814813679
 31
0.0
1001
REVIT
1002
{
1070
     1
1000
22915983
1002
}
1002
{
1070
     2
1000
-2000051
1002
}
1002
{
1070
     3
1000
22909121
1002
}
  0
LINE
  5
1E5
330
70
100
AcDbEntity
  8
A-COB-___-___-EXI
100
AcDbLine
 10
6031.370974359668
 20
-24414.26814813679
 30
0.0
 11
5650.445515544326
 21
-24414.26814813679
 31
0.0
1001
REVIT
1002
{
1070
     1
1000
22915984
1002
}
1002
{
1070
     2
1000
-2000051
1002
}
1002
{
1070
     3
1000
22909121
1002
}
  0
LINE
  5
1E6
330
70
100
AcDbEntity
  8
A-COB-___-___-EXI
100
AcDbLine
 10
5460.395937393504
 20
-24414.26814813679
 30
0.0
 11
5079.470478578162
 21
-24414.26814813679
 31
0.0
1001
REVIT
1002
{
1070
     1
1000
22915985
1002
}
1002
{
1070
     2
1000
-2000051
1002
}
1002
{
1070
     3
1000
22909121
1002
}
  0
LINE
  5
1E7
330
70
100
AcDbEntity
  8
A-COB-___-___-EXI
100
AcDbLine
 10
4889.420900427342
 20
-24414.26814813679
 30
0.0
 11
4508.495441612001
 21
-24414.26814813679
 31
0.0
1001
REVIT
1002
{
1070
     1
1000
22915986
1002
}
1002
{
1070
     2
1000
-2000051
1002
}
1002
{
1070
     3
1000
22909121
1002
}
  0
LINE
  5
1E8
330
70
100
AcDbEntity
  8
A-COB-___-___-EXI
100
AcDbLine
 10
4318.445863461178
 20
-24414.26814813679
 30
0.0
 11
3937.520404645837
 21
-24414.26814813679
 31
0.0
1001
REVIT
1002
{
1070
     1
1000
22915987
1002
}
1002
{
1070
     2
1000
-2000051
1002
}
1002
{
1070
     3
1000
22909121
1002
}
  0
LINE
  5
1E9
330
70
100
AcDbEntity
  8
A-COB-___-___-EXI
100
AcDbLine
 10
3746.644523981317
 20
-24414.26814813679
 30
0.0
 11
3366.545367679672
 21
-24414.26814813679
 31
0.0
1001
REVIT
1002
{
1070
     1
1000
22915988
1002
}
1002
{
1070
     2
1000
-2000051
1002
}
1002
{
1070
     3
1000
22909121
1002
}
  0
LINE
  5
1EA
330
70
100
AcDbEntity
  8
A-COB-___-___-EXI
100
AcDbLine
 10
3175.669487015153
 20
-24414.26814813679
 30
0.0
 11
2794.744028199811
 21
-24414.26814813679
 31
0.0
1001
REVIT
1002
{
1070
     1
1000
22915989
1002
}
1002
{
1070
     2
1000
-2000051
1002
}
1002
{
1070
     3
1000
22909121
1002
}
  0
LINE
  5
1EB
330
70
100
AcDbEntity
  8
A-COB-___-___-EXI
100
AcDbLine
 10
2604.69445004899
 20
-24414.26814813679
 30
0.0
 11
2223.768991233647
 21
-24414.26814813679
 31
0.0
1001
REVIT
1002
{
1070
     1
1000
22915990
1002
}
1002
{
1070
     2
1000
-2000051
1002
}
1002
{
1070
     3
1000
22909121
1002
}
  0
LINE
  5
1EC
330
70
100
AcDbEntity
  8
A-COB-___-___-EXI
100
AcDbLine
 10
2033.719413082827
 20
-24414.26814813679
 30
0.0
 11
1652.793954267485
 21
-24414.26814813679
 31
0.0
1001
REVIT
1002
{
1070
     1
1000
22915991
1002
}
1002
{
1070
     2
1000
-2000051
1002
}
1002
{
1070
     3
1000
22909121
1002
}
  0
LINE
  5
1ED
330
70
100
AcDbEntity
  8
A-COB-___-___-EXI
100
AcDbLine
 10
1460.265468575566
 20
-24414.26814813679
 30
0.0
 11
1079.340009760224
 21
-24414.26814813679
 31
0.0
1001
REVIT
1002
{
1070
     1
1000
22915992
1002
}
1002
{
1070
     2
1000
-2000051
1002
}
1002
{
1070
     3
1000
22909121
1002
}
  0
LINE
  5
1EE
330
70
100
AcDbEntity
  8
A-COB-___-___-EXI
100
AcDbLine
 10
889.2904316094027
 20
-24414.26814813679
 30
0.0
 11
508.3649727940608
 21
-24414.26814813679
 31
0.0
1001
REVIT
1002
{
1070
     1
1000
22915993
1002
}
1002
{
1070
     2
1000
-2000051
1002
}
1002
{
1070
     3
1000
22909121
1002
}
  0
LINE
  5
1EF
330
70
100
AcDbEntity
  8
A-COB-___-___-EXI
100
AcDbLine
 10
318.3153946432392
 20
-24414.26814813679
 30
0.0
 11
-62.61006417210266
 21
-24414.26814813679
 31
0.0
1001
REVIT
1002
{
1070
     1
1000
22915994
1002
}
1002
{
1070
     2
1000
-2000051
1002
}
1002
{
1070
     3
1000
22909121
1002
}
  0
LINE
  5
1F0
330
70
100
AcDbEntity
  8
A-COB-___-___-EXI
100
AcDbLine
 10
-252.6596423229237
 20
-24414.26814813679
 30
0.0
 11
-633.5851011382664
 21
-24414.26814813679
 31
0.0
1001
REVIT
1002
{
1070
     1
1000
22915995
1002
}
1002
{
1070
     2
1000
-2000051
1002
}
1002
{
1070
     3
1000
22909121
1002
}
  0
LINE
  5
1F1
330
70
100
AcDbEntity
  8
A-COB-___-___-EXI
100
AcDbLine
 10
-824.4609818027861
 20
-24414.26814813679
 30
0.0
 11
-1204.560138104429
 21
-24414.26814813679
 31
0.0
1001
REVIT
1002
{
1070
     1
1000
22915996
1002
}
1002
{
1070
     2
1000
-2000051
1002
}
1002
{
1070
     3
1000
22909121
1002
}
  0
LINE
  5
1F2
330
70
100
AcDbEntity
  8
A-COB-___-___-EXI
100
AcDbLine
 10
7734.380455093767
 20
-23863.9506740131
 30
0.0
 11
7734.380455093767
 21
-21219.78263017559
 31
0.0
1001
REVIT
1002
{
1070
     1
1000
22915997
1002
}
1002
{
1070
     2
1000
-2000051
1002
}
1002
{
1070
     3
1000
22909121
1002
}
  0
LINE
  5
1F4
330
70
100
AcDbEntity
  8
A-ALV-___-___-EXI
100
AcDbLine
 10
7583.99339760051
 20
-21219.78263017559
 30
0.0
 11
7583.99339760051
 21
-17630.32451066616
 31
0.0
1001
REVIT
1002
{
1070
     1
1000
22915999
1002
}
1002
{
1070
     2
1000
-2000051
1002
}
1002
{
1070
     3
1000
22909121
1002
}
  0
LINE
  5
1F5
330
70
100
AcDbEntity
  8
A-COB-___-___-EXI
100
AcDbLine
 10
-1765.619544906201
 20
-17638.58753580315
 30
0.0
 11
-1765.619544906201
 21
-18076.52786806374
 31
0.0
1001
REVIT
1002
{
1070
     1
1000
22916000
1002
}
1002
{
1070
     2
1000
-2000051
1002
}
1002
{
1070
     3
1000
22909121
1002
}
  0
LINE
  5
1F6
330
70
100
AcDbEntity
  8
A-COB-___-___-EXI
100
AcDbLine
 10
-1765.619544906201
 20
-18266.57744621456
 30
0.0
 11
-1765.619544906201
 21
-18645.8503000025
 31
0.0
1001
REVIT
1002
{
1070
     1
1000
22916001
1002
}
1002
{
1070
     2
1000
-2000051
1002
}
1002
{
1070
     3
1000
22909121
1002
}
  0
LINE
  5
1F7
330
70
100
AcDbEntity
  8
A-COB-___-___-EXI
100
AcDbLine
 10
-1765.619544906201
 20
-18835.89987815333
 30
0.0
 11
-1765.619544906201
 21
-19216.82533696866
 31
0.0
1001
REVIT
1002
{
1070
     1
1000
22916002
1002
}
1002
{
1070
     2
1000
-2000051
1002
}
1002
{
1070
     3
1000
22909121
1002
}
  0
LINE
  5
1F8
330
70
100
AcDbEntity
  8
A-COB-___-___-EXI
100
AcDbLine
 10
-1765.619544906201
 20
-19406.87491511949
 30
0.0
 11
-1765.619544906201
 21
-19787.80037393483
 31
0.0
1001
REVIT
1002
{
1070
     1
1000
22916003
1002
}
1002
{
1070
     2
1000
-2000051
1002
}
1002
{
1070
     3
1000
22909121
1002
}
  0
LINE
  5
1F9
330
70
100
AcDbEntity
  8
A-COB-___-___-EXI
100
AcDbLine
 10
-1765.619544906201
 20
-19977.84995208565
 30
0.0
 11
-1765.619544906201
 21
-20358.775410901
 31
0.0
1001
REVIT
1002
{
1070
     1
1000
22916004
1002
}
1002
{
1070
     2
1000
-2000051
1002
}
1002
{
1070
     3
1000
22909121
1002
}
  0
LINE
  5
1FA
330
70
100
AcDbEntity
  8
A-COB-___-___-EXI
100
AcDbLine
 10
-1765.619544906201
 20
-20549.65129156551
 30
0.0
 11
-1765.619544906201
 21
-20929.75044786716
 31
0.0
1001
REVIT
1002
{
1070
     1
1000
22916005
1002
}
1002
{
1070
     2
1000
-2000051
1002
}
1002
{
1070
     3
1000
22909121
1002
}
  0
LINE
  5
1FB
330
70
100
AcDbEntity
  8
A-COB-___-___-EXI
100
AcDbLine
 10
-1765.619544906201
 20
-21120.62632853168
 30
0.0
 11
-1765.619544906201
 21
-21501.55178734701
 31
0.0
1001
REVIT
1002
{
1070
     1
1000
22916006
1002
}
1002
{
1070
     2
1000
-2000051
1002
}
1002
{
1070
     3
1000
22909121
1002
}
  0
LINE
  5
1FC
330
70
100
AcDbEntity
  8
A-COB-___-___-EXI
100
AcDbLine
 10
-1765.619544906201
 20
-21691.60136549784
 30
0.0
 11
-1765.619544906201
 21
-22072.52682431319
 31
0.0
1001
REVIT
1002
{
1070
     1
1000
22916007
1002
}
1002
{
1070
     2
1000
-2000051
1002
}
1002
{
1070
     3
1000
22909121
1002
}
  0
LINE
  5
1FD
330
70
100
AcDbEntity
  8
A-COB-___-___-EXI
100
AcDbLine
 10
-1765.619544906201
 20
-22262.576402464
 30
0.0
 11
-1765.619544906201
 21
-22643.50186127935
 31
0.0
1001
REVIT
1002
{
1070
     1
1000
22916008
1002
}
1002
{
1070
     2
1000
-2000051
1002
}
1002
{
1070
     3
1000
22909121
1002
}
  0
LINE
  5
1FE
330
70
100
AcDbEntity
  8
A-COB-___-___-EXI
100
AcDbLine
 10
-1765.619544906201
 20
-22833.55143943016
 30
0.0
 11
-1765.619544906201
 21
-23214.4768982455
 31
0.0
1001
REVIT
1002
{
1070
     1
1000
22916009
1002
}
1002
{
1070
     2
1000
-2000051
1002
}
1002
{
1070
     3
1000
22909121
1002
}
  0
LINE
  5
1FF
330
70
100
AcDbEntity
  8
A-COB-___-___-EXI
100
AcDbLine
 10
-1765.619544906201
 20
-23405.35277891003
 30
0.0
 11
-1765.619544906201
 21
-23785.45193521167
 31
0.0
1001
REVIT
1002
{
1070
     1
1000
22916010
1002
}
1002
{
1070
     2
1000
-2000051
1002
}
1002
{
1070
     3
1000
22909121
1002
}
  0
LWPOLYLINE
  5
23D
330
70
100
AcDbEntity
  8
A-ALV-___-___-EXI
100
AcDbPolyline
 90
        5
 70
     0
 43
0.0
 10
1043.809001671157
 20
-21219.78263017559
 10
7734.380455093767
 20
-21219.78263017559
 10
7734.380455093767
 20
-17638.58753580315
 10
1043.809001671158
 20
-17638.58753580315
 10
-2165.549961536626
 20
-17638.58753580315
1001
REVIT
1002
{
1070
     1
1000
22916064
1002
}
1002
{
1070
     2
1000
-2000051
1002
}
1002
{
1070
     3
1000
22909121
1002
}
  0
LWPOLYLINE
  5
23E
330
70
100
AcDbEntity
  8
A-COB-___-___-EXI
100
AcDbPolyline
 90
        9
 70
     0
 43
0.0
 10
1043.809001671157
 20
-23863.9506740131
 10
1043.809001671157
 20
-17638.58753580315
 10
-2165.549961536626
 20
-17638.58753580315
 10
-2165.549961536626
 20
-23863.9506740131
 10
8134.310871724192
 20
-23863.9506740131
 10
8070.685578169351
 20
-28321.02643290671
 10
8070.685578169351
 20
-34486.89579013031
 10
-2165.549961536626
 20
-34486.89579013031
 10
-2165.549961536626
 20
-23863.9506740131
1001
REVIT
1002
{
1070
     1
1000
22916063
1002
}
1002
{
1070
     2
1000
-2000051
1002
}
1002
{
1070
     3
1000
22909121
1002
}
  0
LWPOLYLINE
  5
23F
330
70
100
AcDbEntity
  8
A-COB-___-___-EXI
100
AcDbPolyline
 90
        3
 70
     0
 43
0.0
 10
-1765.619544906201
 20
-23976.32781587619
 10
-1765.619544906201
 20
-24414.26814813679
 10
-1395.436018768949
 20
-24414.26814813679
1001
REVIT
1002
{
1070
     1
1000
22916011
1002
}
1002
{
1070
     2
1000
-2000051
1002
}
1002
{
1070
     3
1000
22909121
1002
}
  0
LWPOLYLINE
  5
240
330
70
100
AcDbEntity
  8
A-COB-___-___-EXI
100
AcDbPolyline
 90
        3
 70
     0
 43
0.0
 10
-1426.83551428952
 20
-34087.79167601359
 10
-1765.619544906201
 20
-34087.79167601359
 10
-1765.619544906201
 20
-33643.2409236434
1001
REVIT
1002
{
1070
     1
1000
22915964
1002
}
1002
{
1070
     2
1000
-2000051
1002
}
1002
{
1070
     3
1000
22909121
1002
}
  0
LWPOLYLINE
  5
241
330
70
100
AcDbEntity
  8
A-COB-___-___-EXI
100
AcDbPolyline
 90
        3
 70
     0
 43
0.0
 10
7670.755161538929
 20
-33746.5287378558
 10
7670.755161538929
 20
-34087.79167601359
 10
7332.797433435944
 20
-34087.79167601359
1001
REVIT
1002
{
1070
     1
1000
22915947
1002
}
1002
{
1070
     2
1000
-2000051
1002
}
1002
{
1070
     3
1000
22909121
1002
}
  0
LWPOLYLINE
  5
242
330
70
100
AcDbEntity
  8
A-COB-___-___-EXI
100
AcDbPolyline
 90
        3
 70
     0
 43
0.0
 10
7674.886674107423
 20
-27766.57744621453
 10
7670.755161538929
 20
-28075.61458633828
 10
7670.755161538929
 20
-28416.05122198212
1001
REVIT
1002
{
1070
     1
1000
22915936
1002
}
1002
{
1070
     2
1000
-2000051
1002
}
1002
{
1070
     3
1000
22909121
1002
}
  0
LWPOLYLINE
  5
243
330
70
100
AcDbEntity
  8
A-COB-___-___-EXI
100
AcDbPolyline
 90
        3
 70
     0
 43
0.0
 10
7364.196928956515
 20
-24414.26814813679
 10
7734.380455093767
 20
-24414.26814813679
 10
7727.770034984175
 20
-24723.30528826029
1001
REVIT
1002
{
1070
     1
1000
22915929
1002
}
1002
{
1070
     2
1000
-2000051
1002
}
1002
{
1070
     3
1000
22909121
1002
}
  0
LWPOLYLINE
  5
244
330
70
100
AcDbEntity
  8
A-COB-___-___-EXI
100
AcDbPolyline
 90
       24
 70
     1
 43
0.0
 10
3023.629824494495
 20
-21477.58901444974
 10
3006.277471706813
 20
-21484.19943455933
 10
2989.751421432829
 20
-21486.67834210043
 10
2970.746463617747
 20
-21484.19943455933
 10
2953.394110830063
 20
-21480.06792199084
 10
2936.868060556078
 20
-21473.45750188125
 10
2921.994615309492
 20
-21463.54187171685
 10
2911.252682631401
 20
-21450.32103149767
 10
2900.510749953312
 20
-21435.44758625108
 10
2894.726632357417
 20
-21418.9215359771
 10
2890.595119788921
 20
-21401.56918318941
 10
2890.595119788921
 20
-21393.30615805242
 10
2890.595119788921
 20
-21401.56918318941
 10
2894.726632357417
 20
-21418.9215359771
 10
2900.510749953312
 20
-21435.44758625108
 10
2911.252682631401
 20
-21450.32103149767
 10
2921.994615309492
 20
-21463.54187171685
 10
2936.868060556078
 20
-21473.45750188125
 10
2953.394110830063
 20
-21480.06792199084
 10
2970.746463617747
 20
-21484.19943455933
 10
2989.751421432829
 20
-21486.67834210043
 10
3006.277471706813
 20
-21484.19943455933
 10
3023.629824494495
 20
-21477.58901444974
 10
3031.892849631488
 20
-21471.80489685385
1001
REVIT
1002
{
1070
     1
1000
22915927
1002
}
1002
{
1070
     2
1000
-2000051
1002
}
1002
{
1070
     3
1000
22909121
1002
}
  0
LWPOLYLINE
  5
245
330
70
100
AcDbEntity
  8
A-COB-___-___-EXI
100
AcDbPolyline
 90
       22
 70
     1
 43
0.0
 10
2953.394110830061
 20
-21304.89178908661
 10
2970.746463617747
 20
-21299.93397400441
 10
2989.751421432829
 20
-21298.28136897701
 10
3006.277471706813
 20
-21302.41288154551
 10
3023.629824494495
 20
-21306.54439411399
 10
3038.503269741083
 20
-21317.28632679209
 10
3050.897807446571
 20
-21328.02825947018
 10
3064.118647665758
 20
-21342.90170471677
 10
3069.902765261653
 20
-21357.77514996335
 10
3076.513185371247
 20
-21374.30120023734
 10
3078.992092912345
 20
-21393.30615805242
 10
3076.513185371247
 20
-21374.30120023734
 10
3069.902765261653
 20
-21357.77514996335
 10
3064.118647665758
 20
-21342.90170471677
 10
3050.897807446571
 20
-21328.02825947018
 10
3038.503269741083
 20
-21317.28632679209
 10
3023.629824494495
 20
-21306.54439411399
 10
3006.277471706813
 20
-21302.41288154551
 10
2989.751421432829
 20
-21298.28136897701
 10
2970.746463617747
 20
-21299.93397400441
 10
2953.39411083006
 20
-21304.89178908661
 10
2936.868060556078
 20
-21310.6759066825
1001
REVIT
1002
{
1070
     1
1000
22915903
1002
}
1002
{
1070
     2
1000
-2000051
1002
}
1002
{
1070
     3
1000
22909121
1002
}
  0
LWPOLYLINE
  5
246
330
70
100
AcDbEntity
  8
A-COB-___-___-EXI
100
AcDbPolyline
 90
       24
 70
     1
 43
0.0
 10
5860.326354023928
 20
-21477.58901444974
 10
5842.974001236247
 20
-21484.19943455933
 10
5823.969043421164
 20
-21486.67834210043
 10
5807.44299314718
 20
-21484.19943455933
 10
5790.090640359494
 20
-21480.06792199084
 10
5773.56459008551
 20
-21473.45750188125
 10
5758.691144838926
 20
-21463.54187171685
 10
5746.296607133437
 20
-21450.32103149767
 10
5737.207279482746
 20
-21435.44758625108
 10
5731.42316188685
 20
-21418.9215359771
 10
5727.291649318355
 20
-21401.56918318941
 10
5727.291649318355
 20
-21393.30615805242
 10
5727.291649318355
 20
-21401.56918318941
 10
5731.42316188685
 20
-21418.9215359771
 10
5737.207279482746
 20
-21435.44758625108
 10
5746.296607133437
 20
-21450.32103149767
 10
5758.691144838926
 20
-21463.54187171685
 10
5773.56459008551
 20
-21473.45750188125
 10
5790.090640359494
 20
-21480.06792199084
 10
5807.44299314718
 20
-21484.19943455933
 10
5823.969043421164
 20
-21486.67834210043
 10
5842.974001236247
 20
-21484.19943455933
 10
5860.326354023928
 20
-21477.58901444974
 10
5866.936774133523
 20
-21471.80489685385
1001
REVIT
1002
{
1070
     1
1000
22915881
1002
}
1002
{
1070
     2
1000
-2000051
1002
}
1002
{
1070
     3
1000
22909121
1002
}
  0
LWPOLYLINE
  5
247
330
70
100
AcDbEntity
  8
A-COB-___-___-EXI
100
AcDbPolyline
 90
        8
 70
     1
 43
0.0
 10
5790.090640359494
 20
-21304.89178908661
 10
5807.44299314718
 20
-21299.93397400441
 10
5823.969043421164
 20
-21298.28136897701
 10
5842.974001236212
 20
-21302.4128815455
 10
5823.969043421164
 20
-21298.28136897701
 10
5807.44299314718
 20
-21299.93397400441
 10
5790.090640359494
 20
-21304.89178908661
 10
5773.56459008551
 20
-21310.6759066825
1001
REVIT
1002
{
1070
     1
1000
22915857
1002
}
1002
{
1070
     2
1000
-2000051
1002
}
1002
{
1070
     3
1000
22909121
1002
}
  0
LWPOLYLINE
  5
248
330
70
100
AcDbEntity
  8
A-COB-___-___-EXI
100
AcDbPolyline
 90
       14
 70
     1
 43
0.0
 10
5860.326354023928
 20
-21306.54439411399
 10
5875.199799270514
 20
-21317.28632679209
 10
5887.594336976004
 20
-21328.02825947018
 10
5898.336269654094
 20
-21342.90170471677
 10
5906.599294791085
 20
-21357.77514996335
 10
5913.209714900681
 20
-21374.30120023734
 10
5913.209714900681
 20
-21393.30615805242
 10
5913.209714900681
 20
-21374.30120023734
 10
5906.599294791085
 20
-21357.77514996335
 10
5898.336269654094
 20
-21342.90170471677
 10
5887.594336976004
 20
-21328.02825947018
 10
5875.199799270514
 20
-21317.28632679209
 10
5860.326354023928
 20
-21306.54439411399
 10
5842.974001236316
 20
-21302.41288154552
1001
REVIT
1002
{
1070
     1
1000
22915853
1002
}
1002
{
1070
     2
1000
-2000051
1002
}
1002
{
1070
     3
1000
22909121
1002
}
  0
LWPOLYLINE
  5
249
330
70
100
AcDbEntity
  8
A-COB-___-___-EXI
100
AcDbPolyline
 90
       13
 70
     0
 43
0.0
 10
7548.462389511442
 20
-21393.30615805242
 10
7548.462389511442
 20
-21401.56918318941
 10
7552.593902079938
 20
-21418.9215359771
 10
7559.204322189533
 20
-21435.44758625108
 10
7567.467347326524
 20
-21450.32103149767
 10
7579.861885032013
 20
-21463.54187171685
 10
7594.7353302786
 20
-21473.45750188125
 10
7612.087683066285
 20
-21480.06792199084
 10
7628.613733340269
 20
-21484.19943455933
 10
7645.966086127952
 20
-21486.67834210043
 10
7664.971043943033
 20
-21484.19943455933
 10
7681.497094217016
 20
-21477.58901444974
 10
7688.107514326611
 20
-21471.80489685385
1001
REVIT
1002
{
1070
     1
1000
22915835
1002
}
1002
{
1070
     2
1000
-2000051
1002
}
1002
{
1070
     3
1000
22909121
1002
}
  0
LWPOLYLINE
  5
24A
330
70
100
AcDbEntity
  8
A-COB-___-___-EXI
100
AcDbPolyline
 90
       12
 70
     0
 43
0.0
 10
7734.380455093767
 20
-21393.30615805242
 10
7734.380455093767
 20
-21374.30120023734
 10
7727.770034984175
 20
-21357.77514996335
 10
7719.507009847183
 20
-21342.90170471677
 10
7708.765077169093
 20
-21328.02825947018
 10
7696.370539463604
 20
-21317.28632679209
 10
7681.497094217016
 20
-21306.54439411399
 10
7664.971043943059
 20
-21302.41288154551
 10
7645.966086127952
 20
-21298.28136897701
 10
7628.613733340269
 20
-21299.93397400441
 10
7612.087683066324
 20
-21304.89178908659
 10
7594.7353302786
 20
-21310.6759066825
1001
REVIT
1002
{
1070
     1
1000
22915823
1002
}
1002
{
1070
     2
1000
-2000051
1002
}
1002
{
1070
     3
1000
22909121
1002
}
  0
LWPOLYLINE
  5
24B
330
70
100
AcDbEntity
  8
A-COB-___-___-EXI
100
AcDbPolyline
 90
        4
 70
     0
 43
0.0
 10
3053.376714987667
 20
-26836.16081578921
 10
3057.508227556166
 20
-26836.16081578921
 10
3057.508227556166
 20
-31075.33689414452
 10
3057.508227556166
 20
-34486.89579013031
1001
REVIT
1002
{
1070
     1
1000
22914715
1002
}
1002
{
1070
     2
1000
-2000051
1002
}
1002
{
1070
     3
1000
22909121
1002
}
  0
LWPOLYLINE
  5
24C
330
70
100
AcDbEntity
  8
A-COB-___-___-EXI
100
AcDbPolyline
 90
        3
 70
     0
 43
0.0
 10
-2165.549961536626
 20
-21071.87448022342
 10
-300.7575506406183
 20
-21071.87448022342
 10
1043.809001671157
 20
-21071.87448022342
1001
REVIT
1002
{
1070
     1
1000
22914587
1002
}
1002
{
1070
     2
1000
-2000051
1002
}
1002
{
1070
     3
1000
22909121
1002
}
  0
LWPOLYLINE
  5
24D
330
70
100
AcDbEntity
  8
A-COB-___-___-EXI
100
AcDbPolyline
 90
        3
 70
     0
 43
0.0
 10
-2165.549961536626
 20
-20883.4775071
 10
-469.0150426209879
 20
-20883.4775071
 10
1043.809001671157
 20
-20883.4775071
1001
REVIT
1002
{
1070
     1
1000
22914585
1002
}
1002
{
1070
     2
1000
-2000051
1002
}
1002
{
1070
     3
1000
22909121
1002
}
  0
LWPOLYLINE
  5
24E
330
70
100
AcDbEntity
  8
A-COB-___-___-EXI
100
AcDbPolyline
 90
        3
 70
     0
 43
0.0
 10
-2165.549961536626
 20
-20693.42792894918
 10
-457.4195141296739
 20
-20693.42792894918
 10
1043.809001671157
 20
-20693.42792894918
1001
REVIT
1002
{
1070
     1
1000
22914583
1002
}
1002
{
1070
     2
1000
-2000051
1002
}
1002
{
1070
     3
1000
22909121
1002
}
  0
LWPOLYLINE
  5
24F
330
70
100
AcDbEntity
  8
A-COB-___-___-EXI
100
AcDbPolyline
 90
        3
 70
     0
 43
0.0
 10
-2165.549961536626
 20
-20502.55204828466
 10
-326.8318270690664
 20
-20502.55204828466
 10
1043.809001671157
 20
-20502.55204828466
1001
REVIT
1002
{
1070
     1
1000
22914581
1002
}
1002
{
1070
     2
1000
-2000051
1002
}
1002
{
1070
     3
1000
22909121
1002
}
  0
LWPOLYLINE
  5
250
330
70
100
AcDbEntity
  8
A-COB-___-___-EXI
100
AcDbPolyline
 90
        3
 70
     0
 43
0.0
 10
-2165.549961536626
 20
-20312.50247013384
 10
-490.7055920116691
 20
-20312.50247013384
 10
1043.809001671157
 20
-20312.50247013384
1001
REVIT
1002
{
1070
     1
1000
22914579
1002
}
1002
{
1070
     2
1000
-2000051
1002
}
1002
{
1070
     3
1000
22909121
1002
}
  0
LWPOLYLINE
  5
251
330
70
100
AcDbEntity
  8
A-COB-___-___-EXI
100
AcDbPolyline
 90
        3
 70
     0
 43
0.0
 10
3435.954778830409
 20
-34486.89579013031
 10
3435.954778830409
 20
-30908.17976488808
 10
3435.954778830409
 20
-27341.85795417312
1001
REVIT
1002
{
1070
     1
1000
22914539
1002
}
1002
{
1070
     2
1000
-2000051
1002
}
1002
{
1070
     3
1000
22909121
1002
}
  0
LWPOLYLINE
  5
252
330
70
100
AcDbEntity
  8
A-COB-___-___-EXI
100
AcDbPolyline
 90
        4
 70
     0
 43
0.0
 10
3247.557805706986
 20
-34486.89579013031
 10
3247.557805706986
 20
-31001.93271021927
 10
3247.557805706986
 20
-27188.51512500768
 10
3247.557805706986
 20
-23863.9506740131
1001
REVIT
1002
{
1070
     1
1000
22914536
1002
}
1002
{
1070
     2
1000
-2000051
1002
}
1002
{
1070
     3
1000
22909121
1002
}
  0
LWPOLYLINE
  5
253
330
70
100
AcDbEntity
  8
A-COB-___-___-EXI
100
AcDbPolyline
 90
        4
 70
     0
 43
0.0
 10
2867.458649405343
 20
-34486.89579013031
 10
2867.458649405343
 20
-31029.13309433854
 10
2867.458649405343
 20
-27090.00764638749
 10
2867.458649405343
 20
-23863.9506740131
1001
REVIT
1002
{
1070
     1
1000
22914530
1002
}
1002
{
1070
     2
1000
-2000051
1002
}
1002
{
1070
     3
1000
22909121
1002
}
  0
LWPOLYLINE
  5
254
330
70
100
AcDbEntity
  8
A-COB-___-___-EXI
100
AcDbPolyline
 90
        4
 70
     0
 43
0.0
 10
2676.582768740822
 20
-34486.89579013031
 10
2676.582768740822
 20
-31014.81424665746
 10
2676.582768740822
 20
-27024.88851522055
 10
2676.582768740822
 20
-23863.9506740131
1001
REVIT
1002
{
1070
     1
1000
22914527
1002
}
1002
{
1070
     2
1000
-2000051
1002
}
1002
{
1070
     3
1000
22909121
1002
}
  0
LWPOLYLINE
  5
255
330
70
100
AcDbEntity
  8
A-COB-___-___-EXI
100
AcDbPolyline
 90
        3
 70
     0
 43
0.0
 10
4578.731155276432
 20
-23863.9506740131
 10
4578.731155276432
 20
-22078.81319997845
 10
4578.731155276432
 20
-21219.78263017559
1001
REVIT
1002
{
1070
     1
1000
22914489
1002
}
1002
{
1070
     2
1000
-2000051
1002
}
1002
{
1070
     3
1000
22909121
1002
}
  0
LWPOLYLINE
  5
256
330
70
100
AcDbEntity
  8
A-COB-___-___-EXI
100
AcDbPolyline
 90
        3
 70
     0
 43
0.0
 10
4280.435947831015
 20
-23863.9506740131
 10
4280.435947831015
 20
-22071.54816617237
 10
4280.435947831015
 20
-21219.78263017559
1001
REVIT
1002
{
1070
     1
1000
22914487
1002
}
1002
{
1070
     2
1000
-2000051
1002
}
1002
{
1070
     3
1000
22909121
1002
}
  0
VIEWPORT
  5
205
330
6C
100
AcDbEntity
 67
     1
  8
A-COB-___-___-EXI
100
AcDbViewport
 10
168.2370092623835
 20
205.7532684283589
 30
0.0
 40
135.9378196290804
 41
219.0057187291832
 68
     2
 69
     2
 12
2863.783426147998
 22
-25917.86192297353
 13
0.0
 23
0.0
 14
0.0
 24
0.0
 15
0.0
 25
0.0
 16
0.0
 26
0.0
 36
1.0
 17
0.0
 27
0.0
 37
0.0
 42
0.0
 43
0.0
 44
0.0
 45
21900.57187291832
 50
0.0
 51
0.0
 72
  1000
 90
    32768
  1

281
     0
 71
     1
 74
     1
110
0.0
120
0.0
130
0.0
111
1.0
121
0.0
131
0.0
112
0.0
122
1.0
132
0.0
 79
     0
146
0.0
170
     0
 61
     5
292
     1
282
     1
141
0.0
142
0.0
 63
   250
421
  3355443
  0
VIEWPORT
  5
207
330
6C
100
AcDbEntity
 67
     1
  8
0
100
AcDbViewport
 10
13.68724279835391
 20
4.5
 30
0.0
 40
31.37448559670782
 41
12.0
 68
     1
 69
     1
 12
13.68724279835391
 22
4.5
 13
0.0
 23
0.0
 14
0.0
 24
0.0
 15
0.0
 25
0.0
 16
0.0
 26
0.0
 36
1.0
 17
0.0
 27
0.0
 37
0.0
 42
50.0
 43
0.0
 44
0.0
 45
12.0
 50
0.0
 51
0.0
 72
   100
 90
    32800
  1

281
     0
 71
     1
 74
     1
110
0.0
120
0.0
130
0.0
111
1.0
121
0.0
131
0.0
112
0.0
122
1.0
132
0.0
 79
     0
146
0.0
170
     0
 61
     5
348
2F
292
     1
282
     1
141
0.0
142
0.0
 63
   250
421
  3355443
  0
INSERT
  5
213
330
6C
100
AcDbEntity
 67
     1
  8
A-ALV-___-___-EXI
100
AcDbBlockReference
  2
SVG - A4-22917881-Não nomeada
 10
0.0
 20
0.0
 30
0.0
1001
REVIT
1002
{
1070
     1
1000
22917914
1002
}
1002
{
1070
     5
1000
22917881
1002
}
1002
{
1070
     2
1000
-2000280
1002
}
  0
ENDSEC
  0
SECTION
  2
OBJECTS
  0
DICTIONARY
  5
C
330
0
100
AcDbDictionary
281
     1
  3
ACAD_CIP_PREVIOUS_PRODUCT_INFO
350
79
  3
ACAD_COLOR
350
63
  3
ACAD_DETAILVIEWSTYLE
350
6A
  3
ACAD_GROUP
350
D
  3
ACAD_IMAGE_VARS
350
7A
  3
ACAD_LAYOUT
350
62
  3
ACAD_MATERIAL
350
10
  3
ACAD_MLEADERSTYLE
350
66
  3
ACAD_MLINESTYLE
350
5F
  3
ACAD_PLOTSETTINGS
350
61
  3
ACAD_PLOTSTYLENAME
350
E
  3
ACAD_RENDER_ACTIVE_RAPIDRT_SETTINGS
350
23C
  3
ACAD_RENDER_RAPIDRT_SETTINGS
350
235
  3
ACAD_SCALELIST
350
42
  3
ACAD_SECTIONVIEWSTYLE
350
68
  3
ACAD_TABLESTYLE
350
64
  3
ACAD_VISUALSTYLE
350
29
  3
ACDB_RECOMPOSE_DATA
350
276
  3
AcDbVariableDictionary
350
21C
  3
REVIT_DICTIONARY
350
214
  0
SUN
  5
21B
330
57
100
AcDbSun
 90
        1
290
     1
 63
     7
421
 16777215
 40
0.3
291
     1
 91
  2460364
 92
 55381000
292
     0
 70
     1
 71
   128
280
     1
  0
DICTIONARY
  5
230
330
2
100
AcDbDictionary
280
     1
281
     1
  3
ACAD_LAYERSTATES
360
231
  0
DICTIONARY
  5
219
330
70
100
AcDbDictionary
280
     1
281
     1
  3
ACAD_SORTENTS
360
21A
  0
XRECORD
  5
79
102
{ACAD_REACTORS
330
C
102
}
330
C
100
AcDbXrecord
280
     1
300
ACD
300
2022
300

  0
DICTIONARY
  5
63
102
{ACAD_REACTORS
330
C
102
}
330
C
100
AcDbDictionary
281
     1
  0
DICTIONARY
  5
6A
102
{ACAD_REACTORS
330
C
102
}
330
C
100
AcDbDictionary
281
     1
  3
Imperial24
350
6B
  3
Metric50
350
224
  0
DICTIONARY
  5
D
102
{ACAD_REACTORS
330
C
102
}
330
C
100
AcDbDictionary
281
     1
  0
RASTERVARIABLES
  5
7A
102
{ACAD_REACTORS
330
C
102
}
330
C
100
AcDbRasterVariables
 90
        0
 70
     0
 71
     1
 72
     1
  0
DICTIONARY
  5
62
102
{ACAD_REACTORS
330
C
102
}
330
C
100
AcDbDictionary
281
     1
  3
Layout1
350
6F
  3
Model
350
73
  0
DICTIONARY
  5
10
102
{ACAD_REACTORS
330
C
102
}
330
C
100
AcDbDictionary
281
     1
  3
ByBlock
350
19
  3
ByLayer
350
11
  3
Global
350
21
  0
DICTIONARY
  5
66
102
{ACAD_REACTORS
330
C
102
}
330
C
100
AcDbDictionary
281
     1
  3
Standard
350
67
  0
DICTIONARY
  5
5F
102
{ACAD_REACTORS
330
C
102
}
330
C
100
AcDbDictionary
281
     1
  3
Standard
350
60
  0
DICTIONARY
  5
61
102
{ACAD_REACTORS
330
C
102
}
330
C
100
AcDbDictionary
281
     1
  0
ACDBDICTIONARYWDFLT
  5
E
102
{ACAD_REACTORS
330
C
102
}
330
C
100
AcDbDictionary
281
     1
  3
Normal
350
F
100
AcDbDictionaryWithDefault
340
F
  0
RAPIDRTRENDERSETTINGS
  5
23C
102
{ACAD_REACTORS
330
C
102
}
330
C
100
AcDbRenderSettings
 90
        2
  1
Médio
290
     1
290
     0
290
     1
290
     1
  1

  1
Aplica 5 níveis de renderização
 90
        0
100
AcDbRapidRTRenderSettings
 90
        3
 70
     0
 90
        5
 90
        1
 70
     1
 70
     2
 40
3.0
 40
3.0
290
     1
  0
DICTIONARY
  5
235
102
{ACAD_REACTORS
330
C
102
}
330
C
100
AcDbDictionary
281
     1
  3
Alto
350
238
  3
Baixo
350
236
  3
Médio
350
237
  3
Qualidade de curta duração
350
239
  3
Qualidade de longa duração
350
23B
  3
Qualidade de média duração
350
23A
  0
DICTIONARY
  5
42
102
{ACAD_REACTORS
330
C
102
}
330
C
100
AcDbDictionary
281
     1
  3
A0
350
43
  3
A1
350
44
  3
A2
350
45
  3
A3
350
46
  3
A4
350
47
  3
A5
350
48
  3
A6
350
49
  3
A7
350
4A
  3
A8
350
4B
  3
A9
350
4C
  3
B0
350
4D
  3
B1
350
4E
  3
B2
350
4F
  3
B3
350
50
  3
B4
350
51
  3
B5
350
52
  3
B6
350
53
  0
DICTIONARY
  5
68
102
{ACAD_REACTORS
330
C
102
}
330
C
100
AcDbDictionary
281
     1
  3
Imperial24
350
69
  3
Metric50
350
223
  0
DICTIONARY
  5
64
102
{ACAD_REACTORS
330
C
102
}
330
C
100
AcDbDictionary
281
     1
  3
Standard
350
65
  0
DICTIONARY
  5
29
102
{ACAD_REACTORS
330
C
102
}
330
C
100
AcDbDictionary
281
     1
  3
2dWireframe
350
2F
  3
Basic
350
2E
  3
Brighten
350
35
  3
ColorChange
350
39
  3
Conceptual
350
32
  3
Dim
350
34
  3
EdgeColorOff
350
41
  3
Facepattern
350
38
  3
Flat
350
2A
  3
FlatWithEdges
350
2B
  3
Gouraud
350
2C
  3
GouraudWithEdges
350
2D
  3
Hidden
350
31
  3
JitterOff
350
3F
  3
Linepattern
350
37
  3
OverhangOff
350
40
  3
Realistic
350
33
  3
Shaded
350
3E
  3
Shaded with edges
350
3D
  3
Shades of Gray
350
3A
  3
Sketchy
350
3B
  3
Thicken
350
36
  3
Wireframe
350
30
  3
X-Ray
350
3C
  0
XRECORD
  5
276
102
{ACAD_REACTORS
330
C
102
}
330
C
100
AcDbXrecord
280
     1
 90
        1
330
65
  0
DICTIONARY
  5
21C
102
{ACAD_REACTORS
330
C
102
}
330
C
100
AcDbDictionary
281
     1
  3
CANNOSCALE
350
221
  3
CMLEADERSTYLE
350
21E
  3
CTABLESTYLE
350
21D
  3
CVIEWDETAILSTYLE
350
21F
  3
CVIEWSECTIONSTYLE
350
220
  0
DICTIONARY
  5
214
102
{ACAD_REACTORS
330
C
102
}
330
C
100
AcDbDictionary
281
     1
  3
DRAWING_TOOL
350
218
  3
REVIT_CATEGORY_MAPPING
350
216
  3
REVIT_SUB_CATEGORY_MAPPING
350
217
  3
REVIT_TYPE_MAPPING
350
215
  0
DICTIONARY
  5
231
102
{ACAD_REACTORS
330
230
102
}
330
230
100
AcDbDictionary
281
     1
  0
SORTENTSTABLE
  5
21A
102
{ACAD_REACTORS
330
219
102
}
330
219
100
AcDbSortentsTable
330
70
  0
ACDBDETAILVIEWSTYLE
  5
6B
102
{ACAD_REACTORS
330
6A
102
}
330
6A
100
AcDbModelDocViewStyle
 70
     0
  3
Imperial24
290
     1
300
Imperial24
 90
        0
100
AcDbDetailViewStyle
 70
     0
 71
     0
 90
        3
 71
     1
340
55
 62
   256
 40
0.24
340
0
 62
   256
 40
0.24
300

 40
0.36
280
     3
 71
     2
340
5D
 90
       25
 62
   256
 71
     3
340
55
 62
   256
 40
0.24
 90
        1
 40
0.75
 90
        1
300
%<\AcVar ViewType \f "%tc1">% %<\AcVar ViewDetailId>%\PSCALE %<\AcVar ViewScale \f "%sn">%
 71
     4
340
5D
 90
       25
 62
   256
340
5D
 90
       25
 62
   256
280
     0
  0
ACDBDETAILVIEWSTYLE
  5
224
102
{ACAD_REACTORS
330
6A
102
}
330
6A
100
AcDbModelDocViewStyle
 70
     0
  3
Metric50
290
     1
300
Metric50
 90
        0
100
AcDbDetailViewStyle
 70
     0
 71
     0
 90
        3
 71
     1
340
55
 62
   256
 40
5.0
340
0
 62
   256
 40
5.0
300

 40
0.0
280
     1
 71
     2
340
5D
 90
       25
 62
   256
 71
     3
340
55
 62
   256
 40
5.0
 90
        0
 40
15.0
 90
        1
300
%<\AcVar ViewDetailId>% (%<\AcVar ViewScale \f "%sn">%)
 71
     4
340
5D
 90
       25
 62
   256
340
5D
 90
       25
 62
   256
280
     0
  0
LAYOUT
  5
6F
102
{ACAD_REACTORS
330
62
102
}
330
62
100
AcDbPlotSettings
  1

  2
PDF24
  4
A4
  6

 40
0.0
 41
0.0
 42
0.1113433837890625
 43
0.0
 44
210.0
 45
297.0
 46
0.0
 47
0.0
 48
0.0
 49
0.0
140
0.0
141
0.0
142
1.0
143
1.415217033324818
 70
   688
 72
     1
 73
     1
 74
     1
  7

 75
     0
147
0.7066054014702363
 76
     0
 77
     2
 78
   300
148
-64.27901684485153
149
-59.47287840171589
100
AcDbLayout
  1
Layout1
 70
     0
 71
     1
 10
64.27901684485153
 20
59.47287840171589
 11
484.5984757423225
 21
356.6684553999278
 12
0.0
 22
0.0
 32
0.0
 14
64.27901684485153
 24
59.47287840171589
 34
-0.0015258207003583
 15
274.3012221009852
 25
356.5108803466415
 35
0.0000000349246037
146
0.0
 13
0.0
 23
0.0
 33
0.0
 16
1.0
 26
0.0
 36
0.0
 17
0.0
 27
1.0
 37
0.0
 76
     0
330
6C
331
207
1001
ACAD_PSEXT
1000
PDF24
1000
PDF24
1000
\\.\pipe\PDFPrint
1000
PDF24 Printer
1070
     0
  0
LAYOUT
  5
73
102
{ACAD_REACTORS
330
62
102
}
330
62
100
AcDbPlotSettings
  1

  2

  4

  6

 40
0.0
 41
0.0
 42
0.0
 43
0.0
 44
0.0
 45
0.0
 46
0.0
 47
0.0
 48
0.0
 49
0.0
140
0.0
141
0.0
142
1.0
143
1.0
 70
  1712
 72
     0
 73
     0
 74
     0
  7

 75
     0
147
1.0
 76
     0
 77
     2
 78
   300
148
0.0
149
0.0
100
AcDbLayout
  1
Model
 70
     1
 71
     0
 10
0.0
 20
0.0
 11
12.0
 21
9.0
 12
0.0
 22
0.0
 32
0.0
 14
0.0
 24
0.0
 34
0.0
 15
0.0
 25
0.0
 35
0.0
146
0.0
 13
0.0
 23
0.0
 33
0.0
 16
1.0
 26
0.0
 36
0.0
 17
0.0
 27
1.0
 37
0.0
 76
     0
330
70
331
57
  0
MATERIAL
  5
19
102
{ACAD_XDICTIONARY
360
1A
102
}
102
{ACAD_REACTORS
330
10
102
}
330
10
100
AcDbMaterial
  1
ByBlock
 72
     0
 43
0.0208333333333333
 43
0.0
 43
0.0
 43
0.0
 43
0.0
 43
0.0208333333333333
 43
0.0
 43
0.0
 43
0.0
 43
0.0
 43
1.0
 43
0.0
 43
0.0
 43
0.0
 43
0.0
 43
1.0
 77
     0
 47
0.0208333333333333
 47
0.0
 47
0.0
 47
0.0
 47
0.0
 47
0.0208333333333333
 47
0.0
 47
0.0
 47
0.0
 47
0.0
 47
1.0
 47
0.0
 47
0.0
 47
0.0
 47
0.0
 47
1.0
171
     0
 49
0.0208333333333333
 49
0.0
 49
0.0
 49
0.0
 49
0.0
 49
0.0208333333333333
 49
0.0
 49
0.0
 49
0.0
 49
0.0
 49
1.0
 49
0.0
 49
0.0
 49
0.0
 49
0.0
 49
1.0
175
     0
142
0.0208333333333333
142
0.0
142
0.0
142
0.0
142
0.0
142
0.0208333333333333
142
0.0
142
0.0
142
0.0
142
0.0
142
1.0
142
0.0
142
0.0
142
0.0
142
0.0
142
1.0
179
     0
144
0.0208333333333333
144
0.0
144
0.0
144
0.0
144
0.0
144
0.0208333333333333
144
0.0
144
0.0
144
0.0
144
0.0
144
1.0
144
0.0
144
0.0
144
0.0
144
0.0
144
1.0
147
0.0208333333333333
147
0.0
147
0.0
147
0.0
147
0.0
147
0.0208333333333333
147
0.0
147
0.0
147
0.0
147
0.0
147
1.0
147
0.0
147
0.0
147
0.0
147
0.0
147
1.0
  0
MATERIAL
  5
11
102
{ACAD_XDICTIONARY
360
12
102
}
102
{ACAD_REACTORS
330
10
102
}
330
10
100
AcDbMaterial
  1
ByLayer
 72
     0
 43
0.0208333333333333
 43
0.0
 43
0.0
 43
0.0
 43
0.0
 43
0.0208333333333333
 43
0.0
 43
0.0
 43
0.0
 43
0.0
 43
1.0
 43
0.0
 43
0.0
 43
0.0
 43
0.0
 43
1.0
 77
     0
 47
0.0208333333333333
 47
0.0
 47
0.0
 47
0.0
 47
0.0
 47
0.0208333333333333
 47
0.0
 47
0.0
 47
0.0
 47
0.0
 47
1.0
 47
0.0
 47
0.0
 47
0.0
 47
0.0
 47
1.0
171
     0
 49
0.0208333333333333
 49
0.0
 49
0.0
 49
0.0
 49
0.0
 49
0.0208333333333333
 49
0.0
 49
0.0
 49
0.0
 49
0.0
 49
1.0
 49
0.0
 49
0.0
 49
0.0
 49
0.0
 49
1.0
175
     0
142
0.0208333333333333
142
0.0
142
0.0
142
0.0
142
0.0
142
0.0208333333333333
142
0.0
142
0.0
142
0.0
142
0.0
142
1.0
142
0.0
142
0.0
142
0.0
142
0.0
142
1.0
179
     0
144
0.0208333333333333
144
0.0
144
0.0
144
0.0
144
0.0
144
0.0208333333333333
144
0.0
144
0.0
144
0.0
144
0.0
144
1.0
144
0.0
144
0.0
144
0.0
144
0.0
144
1.0
147
0.0208333333333333
147
0.0
147
0.0
147
0.0
147
0.0
147
0.0208333333333333
147
0.0
147
0.0
147
0.0
147
0.0
147
1.0
147
0.0
147
0.0
147
0.0
147
0.0
147
1.0
  0
MATERIAL
  5
21
102
{ACAD_XDICTIONARY
360
22
102
}
102
{ACAD_REACTORS
330
10
102
}
330
10
100
AcDbMaterial
  1
Global
 72
     0
 43
0.0208333333333333
 43
0.0
 43
0.0
 43
0.0
 43
0.0
 43
0.0208333333333333
 43
0.0
 43
0.0
 43
0.0
 43
0.0
 43
1.0
 43
0.0
 43
0.0
 43
0.0
 43
0.0
 43
1.0
 77
     0
 47
0.0208333333333333
 47
0.0
 47
0.0
 47
0.0
 47
0.0
 47
0.0208333333333333
 47
0.0
 47
0.0
 47
0.0
 47
0.0
 47
1.0
 47
0.0
 47
0.0
 47
0.0
 47
0.0
 47
1.0
171
     0
 49
0.0208333333333333
 49
0.0
 49
0.0
 49
0.0
 49
0.0
 49
0.0208333333333333
 49
0.0
 49
0.0
 49
0.0
 49
0.0
 49
1.0
 49
0.0
 49
0.0
 49
0.0
 49
0.0
 49
1.0
175
     0
142
0.0208333333333333
142
0.0
142
0.0
142
0.0
142
0.0
142
0.0208333333333333
142
0.0
142
0.0
142
0.0
142
0.0
142
1.0
142
0.0
142
0.0
142
0.0
142
0.0
142
1.0
179
     0
144
0.0208333333333333
144
0.0
144
0.0
144
0.0
144
0.0
144
0.0208333333333333
144
0.0
144
0.0
144
0.0
144
0.0
144
1.0
144
0.0
144
0.0
144
0.0
144
0.0
144
1.0
147
0.0208333333333333
147
0.0
147
0.0
147
0.0
147
0.0
147
0.0208333333333333
147
0.0
147
0.0
147
0.0
147
0.0
147
1.0
147
0.0
147
0.0
147
0.0
147
0.0
147
1.0
  0
MLEADERSTYLE
  5
67
102
{ACAD_REACTORS
330
66
102
}
330
66
100
AcDbMLeaderStyle
179
     2
170
     2
171
     1
172
     0
 90
        2
 40
0.0
 41
0.0
173
     1
 91
-1056964608
340
5B
 92
       -2
290
     1
 42
0.09
291
     1
 43
0.36
  3
Standard
 44
0.18
300

342
55
174
     1
178
     6
175
     1
176
     0
 93
-1056964608
 45
0.18
292
     0
297
     0
 46
0.18
 94
-1056964608
 47
1.0
 49
1.0
140
1.0
293
     1
141
0.0
294
     1
177
     0
142
1.0
295
     1
296
     0
143
0.125
271
     0
272
     9
273
     9
298
     1
  0
MLINESTYLE
  5
60
102
{ACAD_REACTORS
330
5F
102
}
330
5F
100
AcDbMlineStyle
  2
STANDARD
 70
     0
  3

 62
   256
 51
90.0
 52
90.0
 71
     2
 49
0.5
 62
   256
  6
BYLAYER
 49
-0.5
 62
   256
  6
BYLAYER
  0
ACDBPLACEHOLDER
  5
F
102
{ACAD_REACTORS
330
E
102
}
330
E
  0
RAPIDRTRENDERSETTINGS
  5
238
102
{ACAD_REACTORS
330
235
102
}
330
235
100
AcDbRenderSettings
 90
        2
  1
Alto
290
     1
290
     0
290
     1
290
     1
  1

  1
Aplica 10 níveis de renderização
 90
        2
100
AcDbRapidRTRenderSettings
 90
        3
 70
     0
 90
       10
 90
        1
 70
     2
 70
     2
 40
3.0
 40
3.0
290
     1
  0
RAPIDRTRENDERSETTINGS
  5
236
102
{ACAD_REACTORS
330
235
102
}
330
235
100
AcDbRenderSettings
 90
        2
  1
Baixo
290
     1
290
     0
290
     1
290
     1
  1

  1
Aplica 1 nível de renderização
 90
        0
100
AcDbRapidRTRenderSettings
 90
        3
 70
     0
 90
        1
 90
        1
 70
     0
 70
     2
 40
3.0
 40
3.0
290
     1
  0
RAPIDRTRENDERSETTINGS
  5
237
102
{ACAD_REACTORS
330
235
102
}
330
235
100
AcDbRenderSettings
 90
        2
  1
Médio
290
     1
290
     0
290
     1
290
     1
  1

  1
Aplica 5 níveis de renderização
 90
        1
100
AcDbRapidRTRenderSettings
 90
        3
 70
     0
 90
        5
 90
        1
 70
     1
 70
     2
 40
3.0
 40
3.0
290
     1
  0
RAPIDRTRENDERSETTINGS
  5
239
102
{ACAD_REACTORS
330
235
102
}
330
235
100
AcDbRenderSettings
 90
        2
  1
Qualidade de curta duração
290
     1
290
     0
290
     1
290
     1
  1

  1
Renderiza por 10 minutos
 90
        3
100
AcDbRapidRTRenderSettings
 90
        3
 70
     1
 90
        1
 90
       10
 70
     1
 70
     2
 40
3.0
 40
3.0
290
     1
  0
RAPIDRTRENDERSETTINGS
  5
23B
102
{ACAD_REACTORS
330
235
102
}
330
235
100
AcDbRenderSettings
 90
        2
  1
Qualidade de longa duração
290
     1
290
     0
290
     1
290
     1
  1

  1
Renderiza por 12 horas
 90
        5
100
AcDbRapidRTRenderSettings
 90
        3
 70
     1
 90
        1
 90
      720
 70
     2
 70
     2
 40
3.0
 40
3.0
290
     1
  0
RAPIDRTRENDERSETTINGS
  5
23A
102
{ACAD_REACTORS
330
235
102
}
330
235
100
AcDbRenderSettings
 90
        2
  1
Qualidade de média duração
290
     1
290
     0
290
     1
290
     1
  1

  1
Renderiza por 60 minutos
 90
        4
100
AcDbRapidRTRenderSettings
 90
        3
 70
     1
 90
        1
 90
       60
 70
     2
 70
     2
 40
3.0
 40
3.0
290
     1
  0
SCALE
  5
43
102
{ACAD_REACTORS
330
42
102
}
330
42
100
AcDbScale
 70
     0
300
1:1
140
1.0
141
1.0
290
     1
  0
SCALE
  5
44
102
{ACAD_REACTORS
330
42
102
}
330
42
100
AcDbScale
 70
     0
300
1/128" = 1'-0"
140
0.0078125
141
12.0
290
     0
  0
SCALE
  5
45
102
{ACAD_REACTORS
330
42
102
}
330
42
100
AcDbScale
 70
     0
300
1/64" = 1'-0"
140
0.015625
141
12.0
290
     0
  0
SCALE
  5
46
102
{ACAD_REACTORS
330
42
102
}
330
42
100
AcDbScale
 70
     0
300
1/32" = 1'-0"
140
0.03125
141
12.0
290
     0
  0
SCALE
  5
47
102
{ACAD_REACTORS
330
42
102
}
330
42
100
AcDbScale
 70
     0
300
1/16" = 1'-0"
140
0.0625
141
12.0
290
     0
  0
SCALE
  5
48
102
{ACAD_REACTORS
330
42
102
}
330
42
100
AcDbScale
 70
     0
300
3/32" = 1'-0"
140
0.09375
141
12.0
290
     0
  0
SCALE
  5
49
102
{ACAD_REACTORS
330
42
102
}
330
42
100
AcDbScale
 70
     0
300
1/8" = 1'-0"
140
0.125
141
12.0
290
     0
  0
SCALE
  5
4A
102
{ACAD_REACTORS
330
42
102
}
330
42
100
AcDbScale
 70
     0
300
3/16" = 1'-0"
140
0.1875
141
12.0
290
     0
  0
SCALE
  5
4B
102
{ACAD_REACTORS
330
42
102
}
330
42
100
AcDbScale
 70
     0
300
1/4" = 1'-0"
140
0.25
141
12.0
290
     0
  0
SCALE
  5
4C
102
{ACAD_REACTORS
330
42
102
}
330
42
100
AcDbScale
 70
     0
300
3/8" = 1'-0"
140
0.375
141
12.0
290
     0
  0
SCALE
  5
4D
102
{ACAD_REACTORS
330
42
102
}
330
42
100
AcDbScale
 70
     0
300
1/2" = 1'-0"
140
0.5
141
12.0
290
     0
  0
SCALE
  5
4E
102
{ACAD_REACTORS
330
42
102
}
330
42
100
AcDbScale
 70
     0
300
3/4" = 1'-0"
140
0.75
141
12.0
290
     0
  0
SCALE
  5
4F
102
{ACAD_REACTORS
330
42
102
}
330
42
100
AcDbScale
 70
     0
300
1" = 1'-0"
140
1.0
141
12.0
290
     0
  0
SCALE
  5
50
102
{ACAD_REACTORS
330
42
102
}
330
42
100
AcDbScale
 70
     0
300
1-1/2" = 1'-0"
140
1.5
141
12.0
290
     0
  0
SCALE
  5
51
102
{ACAD_REACTORS
330
42
102
}
330
42
100
AcDbScale
 70
     0
300
3" = 1'-0"
140
3.0
141
12.0
290
     0
  0
SCALE
  5
52
102
{ACAD_REACTORS
330
42
102
}
330
42
100
AcDbScale
 70
     0
300
6" = 1'-0"
140
6.0
141
12.0
290
     0
  0
SCALE
  5
53
102
{ACAD_REACTORS
330
42
102
}
330
42
100
AcDbScale
 70
     0
300
1'-0" = 1'-0"
140
12.0
141
12.0
290
     0
  0
ACDBSECTIONVIEWSTYLE
  5
69
102
{ACAD_REACTORS
330
68
102
}
330
68
100
AcDbModelDocViewStyle
 70
     0
  3
Imperial24
290
     1
300
Imperial24
 90
        0
100
AcDbSectionViewStyle
 70
     0
 71
     0
 90
       78
 71
     1
340
55
 62
   256
 40
0.24
340
0
340
0
 62
   256
 40
0.24
300
I, O, Q, S, X, Z
 40
0.48
 90
        3
 40
0.18
 90
        1
 71
     2
340
5D
 90
       25
 62
   256
340
5D
 90
       50
 62
   256
 40
0.24
 40
0.0
 40
0.24
 71
     3
340
55
 62
   256
 40
0.24
 90
        1
 40
0.75
 90
        1
300
%<\AcVar ViewType \f "%tc1">% %<\AcVar ViewSectionStartId>%-%<\AcVar ViewSectionEndId>%\PSCALE %<\AcVar ViewScale \f "%sn">%
 71
     4
 62
   256
 62
   257
300
ANSI31
 40
1.0
 90
        0
290
     0
290
     0
 90
        6
 40
0.0
 40
1.570796326794896
 40
0.2617993877991494
 40
1.308996938995747
 40
-0.2617993877991494
 40
1.832595714594046
  0
ACDBSECTIONVIEWSTYLE
  5
223
102
{ACAD_REACTORS
330
68
102
}
330
68
100
AcDbModelDocViewStyle
 70
     0
  3
Metric50
290
     1
300
Metric50
 90
        0
100
AcDbSectionViewStyle
 70
     0
 71
     0
 90
      102
 71
     1
340
55
 62
   256
 40
5.0
340
0
340
0
 62
   256
 40
5.0
300
I, O, Q, S, X, Z
 40
10.0
 90
        0
 40
2.5
 90
        0
 71
     2
340
5D
 90
       25
 62
   256
340
5D
 90
       50
 62
   256
 40
5.0
 40
2.5
 40
5.0
 71
     3
340
55
 62
   256
 40
5.0
 90
        0
 40
15.0
 90
        1
300
%<\AcVar ViewSectionStartId>%-%<\AcVar ViewSectionEndId>% (%<\AcVar ViewScale \f "%sn">%)
 71
     4
 62
   256
 62
   257
300
ANSI31
 40
1.0
 90
        0
290
     0
290
     0
 90
        6
 40
0.0
 40
1.570796326794896
 40
0.2617993877991494
 40
1.308996938995747
 40
-0.2617993877991494
 40
1.832595714594046
  0
TABLESTYLE
  5
65
102
{ACAD_XDICTIONARY
360
274
102
}
102
{ACAD_REACTORS
330
64
102
}
330
64
100
AcDbTableStyle
280
     0
  3
Standard
 70
     0
 71
     0
 40
0.06
 41
0.06
280
     0
281
     0
  7
Standard
140
0.18
170
     2
 62
     0
 63
     7
283
     0
 90
      512
 91
        0
  1

274
    -2
284
     1
 64
     0
275
    -2
285
     1
 65
     0
276
    -2
286
     1
 66
     0
277
    -2
287
     1
 67
     0
278
    -2
288
     1
 68
     0
279
    -2
289
     1
 69
     0
  7
Standard
140
0.25
170
     5
 62
     0
 63
     7
283
     0
 90
      512
 91
        0
  1

274
    -2
284
     1
 64
     0
275
    -2
285
     1
 65
     0
276
    -2
286
     1
 66
     0
277
    -2
287
     1
 67
     0
278
    -2
288
     1
 68
     0
279
    -2
289
     1
 69
     0
  7
Standard
140
0.18
170
     5
 62
     0
 63
     7
283
     0
 90
      512
 91
        0
  1

274
    -2
284
     1
 64
     0
275
    -2
285
     1
 65
     0
276
    -2
286
     1
 66
     0
277
    -2
287
     1
 67
     0
278
    -2
288
     1
 68
     0
279
    -2
289
     1
 69
     0
  0
VISUALSTYLE
  5
2F
102
{ACAD_REACTORS
330
29
102
}
330
29
100
AcDbVisualStyle
  2
2dWireframe
 70
     4
177
     3
291
     0
 70
    58
 90
        0
176
     1
 90
        2
176
     1
 90
        0
176
     1
 90
        0
176
     1
 40
0.6
176
     1
 40
30.0
176
     1
 62
     7
420
 16777215
176
     1
 90
        1
176
     1
 90
        4
176
     1
 62
     7
176
     1
 62
   257
176
     1
 90
        1
176
     1
 90
        1
176
     1
 40
1.0
176
     1
 90
        0
176
     1
 62
   257
176
     1
 40
1.0
176
     1
 90
        1
176
     1
 90
        6
176
     1
 90
        2
176
     1
 62
     7
176
     1
 90
        5
176
     1
 90
        0
176
     1
 90
        0
176
     1
290
     0
176
     1
 90
        1
176
     1
 40
0.0
176
     1
 90
        0
176
     1
290
     1
176
     1
290
     1
176
     1
290
     0
176
     1
290
     0
176
     1
290
     0
176
     1
290
     0
176
     1
290
     0
176
     1
290
     0
176
     1
290
     0
176
     1
 90
       50
176
     1
 40
0.0
176
     1
 40
1.0
176
     1
 90
        0
176
     1
 62
    18
420
        0
176
     1
 90
       50
176
     1
 90
        3
176
     1
 62
     5
420
      255
176
     1
290
     0
176
     1
 90
       50
176
     1
 90
       50
176
     1
 90
       50
176
     1
290
     0
176
     1
 90
       50
176
     1
 62
   256
176
     0
 40
1.0
176
     0
 90
        2
176
     1
  1
strokes_ogs.tif
176
     1
290
     0
176
     1
 40
1.0
176
     1
 40
1.0
176
     1
  0
VISUALSTYLE
  5
2E
102
{ACAD_REACTORS
330
29
102
}
330
29
100
AcDbVisualStyle
  2
Basic
 70
     7
177
     3
291
     1
 70
    58
 90
        1
176
     1
 90
        0
176
     1
 90
        1
176
     1
 90
        0
176
     1
 40
0.6
176
     1
 40
30.0
176
     1
 62
     7
420
 16777215
176
     1
 90
        0
176
     1
 90
        4
176
     1
 62
     7
176
     1
 62
   257
176
     1
 90
        1
176
     1
 90
        1
176
     1
 40
1.0
176
     1
 90
        8
176
     1
 62
     7
176
     1
 40
1.0
176
     1
 90
        1
176
     1
 90
        6
176
     1
 90
        2
176
     1
 62
     7
176
     1
 90
        5
176
     1
 90
        0
176
     1
 90
        0
176
     1
290
     0
176
     1
 90
        1
176
     1
 40
0.0
176
     1
 90
        0
176
     1
290
     0
176
     1
290
     1
176
     1
290
     1
176
     1
290
     0
176
     1
290
     0
176
     1
290
     0
176
     1
290
     0
176
     1
290
     0
176
     1
290
     0
176
     1
 90
       50
176
     1
 40
0.0
176
     1
 40
1.0
176
     1
 90
        0
176
     1
 62
    18
420
        0
176
     1
 90
       50
176
     1
 90
        3
176
     1
 62
     5
420
      255
176
     1
290
     0
176
     1
 90
       50
176
     1
 90
       50
176
     1
 90
       50
176
     1
290
     0
176
     1
 90
       50
176
     1
 62
   256
176
     0
 40
1.0
176
     0
 90
        2
176
     1
  1
strokes_ogs.tif
176
     1
290
     0
176
     1
 40
1.0
176
     1
 40
1.0
176
     1
  0
VISUALSTYLE
  5
35
102
{ACAD_REACTORS
330
29
102
}
330
29
100
AcDbVisualStyle
  2
Brighten
 70
    12
177
     3
291
     1
 70
    58
 90
        2
176
     1
 90
        2
176
     1
 90
        0
176
     1
 90
        0
176
     1
 40
0.6
176
     1
 40
30.0
176
     1
 62
     7
420
 16777215
176
     1
 90
        1
176
     1
 90
        4
176
     1
 62
     7
176
     1
 62
   257
176
     1
 90
        1
176
     1
 90
        1
176
     1
 40
1.0
176
     1
 90
        8
176
     1
 62
     7
176
     1
 40
1.0
176
     1
 90
        1
176
     1
 90
        6
176
     1
 90
        2
176
     1
 62
     7
176
     1
 90
        5
176
     1
 90
        0
176
     1
 90
        0
176
     1
290
     0
176
     1
 90
        1
176
     1
 40
50.0
176
     1
 90
        0
176
     1
290
     0
176
     1
290
     1
176
     1
290
     1
176
     1
290
     0
176
     1
290
     0
176
     1
290
     0
176
     1
290
     0
176
     1
290
     0
176
     1
290
     0
176
     1
 90
       50
176
     1
 40
0.0
176
     1
 40
1.0
176
     1
 90
        0
176
     1
 62
    18
420
        0
176
     1
 90
       50
176
     1
 90
        3
176
     1
 62
     5
420
      255
176
     1
290
     0
176
     1
 90
       50
176
     1
 90
       50
176
     1
 90
       50
176
     1
290
     0
176
     1
 90
       50
176
     1
 62
   256
176
     0
 40
1.0
176
     0
 90
        2
176
     1
  1
strokes_ogs.tif
176
     1
290
     0
176
     1
 40
1.0
176
     1
 40
1.0
176
     1
  0
VISUALSTYLE
  5
39
102
{ACAD_REACTORS
330
29
102
}
330
29
100
AcDbVisualStyle
  2
ColorChange
 70
    16
177
     3
291
     1
 70
    58
 90
        2
176
     1
 90
        2
176
     1
 90
        3
176
     1
 90
        0
176
     1
 40
0.6
176
     1
 40
30.0
176
     1
 62
     8
420
  8421504
176
     1
 90
        1
176
     1
 90
        4
176
     1
 62
     7
176
     1
 62
   257
176
     1
 90
        1
176
     1
 90
        1
176
     1
 40
1.0
176
     1
 90
        8
176
     1
 62
     8
420
  8421504
176
     1
 40
1.0
176
     1
 90
        1
176
     1
 90
        6
176
     1
 90
        2
176
     1
 62
     7
176
     1
 90
        5
176
     1
 90
        0
176
     1
 90
        0
176
     1
290
     0
176
     1
 90
        1
176
     1
 40
0.0
176
     1
 90
        0
176
     1
290
     0
176
     1
290
     1
176
     1
290
     1
176
     1
290
     0
176
     1
290
     0
176
     1
290
     0
176
     1
290
     0
176
     1
290
     0
176
     1
290
     0
176
     1
 90
       50
176
     1
 40
0.0
176
     1
 40
1.0
176
     1
 90
        0
176
     1
 62
    18
420
        0
176
     1
 90
       50
176
     1
 90
        3
176
     1
 62
     5
420
      255
176
     1
290
     0
176
     1
 90
       50
176
     1
 90
       50
176
     1
 90
       50
176
     1
290
     0
176
     1
 90
       50
176
     1
 62
   256
176
     0
 40
1.0
176
     0
 90
        2
176
     1
  1
strokes_ogs.tif
176
     1
290
     0
176
     1
 40
1.0
176
     1
 40
1.0
176
     1
  0
VISUALSTYLE
  5
32
102
{ACAD_REACTORS
330
29
102
}
330
29
100
AcDbVisualStyle
  2
Conceptual
 70
     9
177
     3
291
     0
 70
    58
 90
        3
176
     1
 90
        2
176
     1
 90
        0
176
     1
 90
        0
176
     1
 40
0.6
176
     1
 40
30.0
176
     1
 62
     7
420
 16777215
176
     1
 90
        2
176
     1
 90
        2
176
     1
 62
     7
176
     1
 62
   257
176
     1
 90
        1
176
     1
 90
        1
176
     1
 40
179.0
176
     1
 90
        8
176
     1
 62
     7
176
     1
 40
1.0
176
     1
 90
        1
176
     1
 90
        6
176
     1
 90
        2
176
     1
 62
     7
176
     1
 90
        3
176
     1
 90
        0
176
     1
 90
        0
176
     1
290
     0
176
     1
 90
        1
176
     1
 40
0.0
176
     1
 90
        0
176
     1
290
     0
176
     1
290
     1
176
     1
290
     1
176
     1
290
     0
176
     1
290
     0
176
     1
290
     0
176
     1
290
     0
176
     1
290
     0
176
     1
290
     0
176
     1
 90
       50
176
     1
 40
0.0
176
     1
 40
1.0
176
     1
 90
        0
176
     1
 62
    18
420
        0
176
     1
 90
       50
176
     1
 90
        3
176
     1
 62
     5
420
      255
176
     1
290
     0
176
     1
 90
       50
176
     1
 90
       50
176
     1
 90
       50
176
     1
290
     0
176
     1
 90
       50
176
     1
 62
   256
176
     0
 40
1.0
176
     0
 90
        2
176
     1
  1
strokes_ogs.tif
176
     1
290
     0
176
     1
 40
1.0
176
     1
 40
1.0
176
     1
  0
VISUALSTYLE
  5
34
102
{ACAD_REACTORS
330
29
102
}
330
29
100
AcDbVisualStyle
  2
Dim
 70
    11
177
     3
291
     1
 70
    58
 90
        2
176
     1
 90
        2
176
     1
 90
        0
176
     1
 90
        0
176
     1
 40
0.6
176
     1
 40
30.0
176
     1
 62
     7
420
 16777215
176
     1
 90
        1
176
     1
 90
        4
176
     1
 62
     7
176
     1
 62
   257
176
     1
 90
        1
176
     1
 90
        1
176
     1
 40
1.0
176
     1
 90
        8
176
     1
 62
     7
176
     1
 40
1.0
176
     1
 90
        1
176
     1
 90
        6
176
     1
 90
        2
176
     1
 62
     7
176
     1
 90
        5
176
     1
 90
        0
176
     1
 90
        0
176
     1
290
     0
176
     1
 90
        1
176
     1
 40
-50.0
176
     1
 90
        0
176
     1
290
     0
176
     1
290
     1
176
     1
290
     1
176
     1
290
     0
176
     1
290
     0
176
     1
290
     0
176
     1
290
     0
176
     1
290
     0
176
     1
290
     0
176
     1
 90
       50
176
     1
 40
0.0
176
     1
 40
1.0
176
     1
 90
        0
176
     1
 62
    18
420
        0
176
     1
 90
       50
176
     1
 90
        3
176
     1
 62
     5
420
      255
176
     1
290
     0
176
     1
 90
       50
176
     1
 90
       50
176
     1
 90
       50
176
     1
290
     0
176
     1
 90
       50
176
     1
 62
   256
176
     0
 40
1.0
176
     0
 90
        2
176
     1
  1
strokes_ogs.tif
176
     1
290
     0
176
     1
 40
1.0
176
     1
 40
1.0
176
     1
  0
VISUALSTYLE
  5
41
102
{ACAD_REACTORS
330
29
102
}
330
29
100
AcDbVisualStyle
  2
EdgeColorOff
 70
    22
177
     3
291
     1
 70
    58
 90
        2
176
     0
 90
        2
176
     0
 90
        0
176
     0
 90
        0
176
     0
 40
0.6
176
     0
 40
30.0
176
     0
 62
     7
420
 16777215
176
     0
 90
        1
176
     0
 90
        4
176
     0
 62
     7
176
     0
 62
   257
176
     0
 90
        1
176
     0
 90
        1
176
     0
 40
1.0
176
     0
 90
        8
176
     2
 62
     7
176
     0
 40
1.0
176
     0
 90
        1
176
     0
 90
        6
176
     0
 90
        2
176
     0
 62
     7
176
     0
 90
        5
176
     0
 90
        0
176
     0
 90
        0
176
     0
290
     0
176
     0
 90
        1
176
     0
 40
0.0
176
     0
 90
        0
176
     0
290
     0
176
     0
290
     1
176
     0
290
     1
176
     0
290
     0
176
     0
290
     0
176
     0
290
     0
176
     0
290
     0
176
     0
290
     0
176
     0
290
     0
176
     0
 90
       50
176
     0
 40
0.0
176
     0
 40
1.0
176
     0
 90
        0
176
     0
 62
    18
420
        0
176
     0
 90
       50
176
     0
 90
        3
176
     0
 62
     5
420
      255
176
     0
290
     0
176
     0
 90
       50
176
     0
 90
       50
176
     0
 90
       50
176
     0
290
     0
176
     0
 90
       50
176
     0
 62
   256
176
     0
 40
1.0
176
     0
 90
        2
176
     0
  1
strokes_ogs.tif
176
     0
290
     0
176
     0
 40
1.0
176
     0
 40
1.0
176
     0
  0
VISUALSTYLE
  5
38
102
{ACAD_REACTORS
330
29
102
}
330
29
100
AcDbVisualStyle
  2
Facepattern
 70
    15
177
     3
291
     1
 70
    58
 90
        2
176
     1
 90
        2
176
     1
 90
        0
176
     1
 90
        0
176
     1
 40
0.6
176
     1
 40
30.0
176
     1
 62
     7
420
 16777215
176
     1
 90
        1
176
     1
 90
        4
176
     1
 62
     7
176
     1
 62
   257
176
     1
 90
        1
176
     1
 90
        1
176
     1
 40
1.0
176
     1
 90
        8
176
     1
 62
     7
176
     1
 40
1.0
176
     1
 90
        1
176
     1
 90
        6
176
     1
 90
        2
176
     1
 62
     7
176
     1
 90
        5
176
     1
 90
        0
176
     1
 90
        0
176
     1
290
     0
176
     1
 90
        1
176
     1
 40
0.0
176
     1
 90
        0
176
     1
290
     0
176
     1
290
     1
176
     1
290
     1
176
     1
290
     0
176
     1
290
     0
176
     1
290
     0
176
     1
290
     0
176
     1
290
     0
176
     1
290
     0
176
     1
 90
       50
176
     1
 40
0.0
176
     1
 40
1.0
176
     1
 90
        0
176
     1
 62
    18
420
        0
176
     1
 90
       50
176
     1
 90
        3
176
     1
 62
     5
420
      255
176
     1
290
     0
176
     1
 90
       50
176
     1
 90
       50
176
     1
 90
       50
176
     1
290
     0
176
     1
 90
       50
176
     1
 62
   256
176
     0
 40
1.0
176
     0
 90
        2
176
     1
  1
strokes_ogs.tif
176
     1
290
     0
176
     1
 40
1.0
176
     1
 40
1.0
176
     1
  0
VISUALSTYLE
  5
2A
102
{ACAD_REACTORS
330
29
102
}
330
29
100
AcDbVisualStyle
  2
Flat
 70
     0
177
     3
291
     1
 70
    58
 90
        2
176
     1
 90
        1
176
     1
 90
        1
176
     1
 90
        2
176
     1
 40
0.6
176
     1
 40
30.0
176
     1
 62
     7
420
 16777215
176
     1
 90
        0
176
     1
 90
        0
176
     1
 62
     7
176
     1
 62
   257
176
     1
 90
        1
176
     1
 90
        1
176
     1
 40
1.0
176
     1
 90
        8
176
     1
 62
     7
176
     1
 40
1.0
176
     1
 90
        1
176
     1
 90
        6
176
     1
 90
        2
176
     1
 62
     7
176
     1
 90
        5
176
     1
 90
        0
176
     1
 90
        0
176
     1
290
     0
176
     1
 90
       13
176
     1
 40
0.0
176
     1
 90
        0
176
     1
290
     0
176
     1
290
     1
176
     1
290
     1
176
     1
290
     0
176
     1
290
     0
176
     1
290
     0
176
     1
290
     0
176
     1
290
     0
176
     1
290
     0
176
     1
 90
       50
176
     1
 40
0.0
176
     1
 40
1.0
176
     1
 90
        0
176
     1
 62
    18
420
        0
176
     1
 90
       50
176
     1
 90
        3
176
     1
 62
     5
420
      255
176
     1
290
     0
176
     1
 90
       50
176
     1
 90
       50
176
     1
 90
       50
176
     1
290
     0
176
     1
 90
       50
176
     1
 62
   256
176
     0
 40
1.0
176
     0
 90
        2
176
     1
  1
strokes_ogs.tif
176
     1
290
     0
176
     1
 40
1.0
176
     1
 40
1.0
176
     1
  0
VISUALSTYLE
  5
2B
102
{ACAD_REACTORS
330
29
102
}
330
29
100
AcDbVisualStyle
  2
FlatWithEdges
 70
     1
177
     3
291
     1
 70
    58
 90
        2
176
     1
 90
        1
176
     1
 90
        1
176
     1
 90
        2
176
     1
 40
0.6
176
     1
 40
30.0
176
     1
 62
     7
420
 16777215
176
     1
 90
        1
176
     1
 90
        0
176
     1
 62
     7
176
     1
 62
   257
176
     1
 90
        1
176
     1
 90
        1
176
     1
 40
1.0
176
     1
 90
        0
176
     1
 62
   257
176
     1
 40
1.0
176
     1
 90
        1
176
     1
 90
        6
176
     1
 90
        2
176
     1
 62
     7
176
     1
 90
        5
176
     1
 90
        0
176
     1
 90
        0
176
     1
290
     0
176
     1
 90
       13
176
     1
 40
0.0
176
     1
 90
        0
176
     1
290
     0
176
     1
290
     1
176
     1
290
     1
176
     1
290
     0
176
     1
290
     0
176
     1
290
     0
176
     1
290
     0
176
     1
290
     0
176
     1
290
     0
176
     1
 90
       50
176
     1
 40
0.0
176
     1
 40
1.0
176
     1
 90
        0
176
     1
 62
    18
420
        0
176
     1
 90
       50
176
     1
 90
        3
176
     1
 62
     5
420
      255
176
     1
290
     0
176
     1
 90
       50
176
     1
 90
       50
176
     1
 90
       50
176
     1
290
     0
176
     1
 90
       50
176
     1
 62
   256
176
     0
 40
1.0
176
     0
 90
        2
176
     1
  1
strokes_ogs.tif
176
     1
290
     0
176
     1
 40
1.0
176
     1
 40
1.0
176
     1
  0
VISUALSTYLE
  5
2C
102
{ACAD_REACTORS
330
29
102
}
330
29
100
AcDbVisualStyle
  2
Gouraud
 70
     2
177
     3
291
     1
 70
    58
 90
        2
176
     1
 90
        2
176
     1
 90
        1
176
     1
 90
        2
176
     1
 40
0.6
176
     1
 40
30.0
176
     1
 62
     7
420
 16777215
176
     1
 90
        0
176
     1
 90
        0
176
     1
 62
     7
176
     1
 62
   257
176
     1
 90
        1
176
     1
 90
        1
176
     1
 40
1.0
176
     1
 90
        0
176
     1
 62
     7
176
     1
 40
1.0
176
     1
 90
        1
176
     1
 90
        6
176
     1
 90
        2
176
     1
 62
     7
176
     1
 90
        5
176
     1
 90
        0
176
     1
 90
        0
176
     1
290
     0
176
     1
 90
       13
176
     1
 40
0.0
176
     1
 90
        0
176
     1
290
     0
176
     1
290
     1
176
     1
290
     1
176
     1
290
     0
176
     1
290
     0
176
     1
290
     0
176
     1
290
     0
176
     1
290
     0
176
     1
290
     0
176
     1
 90
       50
176
     1
 40
0.0
176
     1
 40
1.0
176
     1
 90
        0
176
     1
 62
    18
420
        0
176
     1
 90
       50
176
     1
 90
        3
176
     1
 62
     5
420
      255
176
     1
290
     0
176
     1
 90
       50
176
     1
 90
       50
176
     1
 90
       50
176
     1
290
     0
176
     1
 90
       50
176
     1
 62
   256
176
     0
 40
1.0
176
     0
 90
        2
176
     1
  1
strokes_ogs.tif
176
     1
290
     0
176
     1
 40
1.0
176
     1
 40
1.0
176
     1
  0
VISUALSTYLE
  5
2D
102
{ACAD_REACTORS
330
29
102
}
330
29
100
AcDbVisualStyle
  2
GouraudWithEdges
 70
     3
177
     3
291
     1
 70
    58
 90
        2
176
     1
 90
        2
176
     1
 90
        1
176
     1
 90
        2
176
     1
 40
0.6
176
     1
 40
30.0
176
     1
 62
     7
420
 16777215
176
     1
 90
        1
176
     1
 90
        0
176
     1
 62
     7
176
     1
 62
   257
176
     1
 90
        1
176
     1
 90
        1
176
     1
 40
1.0
176
     1
 90
        0
176
     1
 62
   257
176
     1
 40
1.0
176
     1
 90
        1
176
     1
 90
        6
176
     1
 90
        2
176
     1
 62
     7
176
     1
 90
        5
176
     1
 90
        0
176
     1
 90
        0
176
     1
290
     0
176
     1
 90
       13
176
     1
 40
0.0
176
     1
 90
        0
176
     1
290
     0
176
     1
290
     1
176
     1
290
     1
176
     1
290
     0
176
     1
290
     0
176
     1
290
     0
176
     1
290
     0
176
     1
290
     0
176
     1
290
     0
176
     1
 90
       50
176
     1
 40
0.0
176
     1
 40
1.0
176
     1
 90
        0
176
     1
 62
    18
420
        0
176
     1
 90
       50
176
     1
 90
        3
176
     1
 62
     5
420
      255
176
     1
290
     0
176
     1
 90
       50
176
     1
 90
       50
176
     1
 90
       50
176
     1
290
     0
176
     1
 90
       50
176
     1
 62
   256
176
     0
 40
1.0
176
     0
 90
        2
176
     1
  1
strokes_ogs.tif
176
     1
290
     0
176
     1
 40
1.0
176
     1
 40
1.0
176
     1
  0
VISUALSTYLE
  5
31
102
{ACAD_REACTORS
330
29
102
}
330
29
100
AcDbVisualStyle
  2
Hidden
 70
     6
177
     3
291
     0
 70
    58
 90
        1
176
     1
 90
        2
176
     1
 90
        2
176
     1
 90
        0
176
     1
 40
0.6
176
     1
 40
30.0
176
     1
 62
     7
420
 16777215
176
     1
 90
        2
176
     1
 90
        2
176
     1
 62
     7
176
     1
 62
   257
176
     1
 90
        2
176
     1
 90
        1
176
     1
 40
40.0
176
     1
 90
        0
176
     1
 62
   257
176
     1
 40
1.0
176
     1
 90
        1
176
     1
 90
        6
176
     1
 90
        2
176
     1
 62
     7
176
     1
 90
        3
176
     1
 90
        0
176
     1
 90
        0
176
     1
290
     0
176
     1
 90
        1
176
     1
 40
0.0
176
     1
 90
        0
176
     1
290
     0
176
     1
290
     1
176
     1
290
     1
176
     1
290
     0
176
     1
290
     0
176
     1
290
     0
176
     1
290
     0
176
     1
290
     0
176
     1
290
     0
176
     1
 90
       50
176
     1
 40
0.0
176
     1
 40
1.0
176
     1
 90
        0
176
     1
 62
    18
420
        0
176
     1
 90
       50
176
     1
 90
        3
176
     1
 62
     5
420
      255
176
     1
290
     0
176
     1
 90
       50
176
     1
 90
       50
176
     1
 90
       50
176
     1
290
     0
176
     1
 90
       50
176
     1
 62
   256
176
     0
 40
1.0
176
     0
 90
        2
176
     1
  1
strokes_ogs.tif
176
     1
290
     0
176
     1
 40
1.0
176
     1
 40
1.0
176
     1
  0
VISUALSTYLE
  5
3F
102
{ACAD_REACTORS
330
29
102
}
330
29
100
AcDbVisualStyle
  2
JitterOff
 70
    20
177
     3
291
     1
 70
    58
 90
        2
176
     0
 90
        2
176
     0
 90
        0
176
     0
 90
        0
176
     0
 40
0.6
176
     0
 40
30.0
176
     0
 62
     7
420
 16777215
176
     0
 90
        1
176
     0
 90
        4
176
     0
 62
     7
176
     0
 62
   257
176
     0
 90
        1
176
     0
 90
        1
176
     0
 40
1.0
176
     0
 90
       10
176
     2
 62
     7
176
     0
 40
1.0
176
     0
 90
        1
176
     0
 90
        6
176
     0
 90
        2
176
     0
 62
     7
176
     0
 90
        5
176
     0
 90
        0
176
     0
 90
        0
176
     0
290
     0
176
     0
 90
        1
176
     0
 40
0.0
176
     0
 90
        0
176
     0
290
     0
176
     0
290
     1
176
     0
290
     1
176
     0
290
     0
176
     0
290
     0
176
     0
290
     0
176
     0
290
     0
176
     0
290
     0
176
     0
290
     0
176
     0
 90
       50
176
     0
 40
0.0
176
     0
 40
1.0
176
     0
 90
        0
176
     0
 62
    18
420
        0
176
     0
 90
       50
176
     0
 90
        3
176
     0
 62
     5
420
      255
176
     0
290
     0
176
     0
 90
       50
176
     0
 90
       50
176
     0
 90
       50
176
     0
290
     0
176
     0
 90
       50
176
     0
 62
   256
176
     0
 40
1.0
176
     0
 90
        2
176
     0
  1
strokes_ogs.tif
176
     0
290
     0
176
     0
 40
1.0
176
     0
 40
1.0
176
     0
  0
VISUALSTYLE
  5
37
102
{ACAD_REACTORS
330
29
102
}
330
29
100
AcDbVisualStyle
  2
Linepattern
 70
    14
177
     3
291
     1
 70
    58
 90
        2
176
     1
 90
        2
176
     1
 90
        0
176
     1
 90
        0
176
     1
 40
0.6
176
     1
 40
30.0
176
     1
 62
     7
420
 16777215
176
     1
 90
        1
176
     1
 90
        4
176
     1
 62
     7
176
     1
 62
   257
176
     1
 90
        7
176
     1
 90
        7
176
     1
 40
1.0
176
     1
 90
        8
176
     1
 62
     7
176
     1
 40
1.0
176
     1
 90
        1
176
     1
 90
        6
176
     1
 90
        2
176
     1
 62
     7
176
     1
 90
        5
176
     1
 90
        0
176
     1
 90
        0
176
     1
290
     0
176
     1
 90
        1
176
     1
 40
0.0
176
     1
 90
        0
176
     1
290
     0
176
     1
290
     1
176
     1
290
     1
176
     1
290
     0
176
     1
290
     0
176
     1
290
     0
176
     1
290
     0
176
     1
290
     0
176
     1
290
     0
176
     1
 90
       50
176
     1
 40
0.0
176
     1
 40
1.0
176
     1
 90
        0
176
     1
 62
    18
420
        0
176
     1
 90
       50
176
     1
 90
        3
176
     1
 62
     5
420
      255
176
     1
290
     0
176
     1
 90
       50
176
     1
 90
       50
176
     1
 90
       50
176
     1
290
     0
176
     1
 90
       50
176
     1
 62
   256
176
     0
 40
1.0
176
     0
 90
        2
176
     1
  1
strokes_ogs.tif
176
     1
290
     0
176
     1
 40
1.0
176
     1
 40
1.0
176
     1
  0
VISUALSTYLE
  5
40
102
{ACAD_REACTORS
330
29
102
}
330
29
100
AcDbVisualStyle
  2
OverhangOff
 70
    21
177
     3
291
     1
 70
    58
 90
        2
176
     0
 90
        2
176
     0
 90
        0
176
     0
 90
        0
176
     0
 40
0.6
176
     0
 40
30.0
176
     0
 62
     7
420
 16777215
176
     0
 90
        1
176
     0
 90
        4
176
     0
 62
     7
176
     0
 62
   257
176
     0
 90
        1
176
     0
 90
        1
176
     0
 40
1.0
176
     0
 90
        9
176
     2
 62
     7
176
     0
 40
1.0
176
     0
 90
        1
176
     0
 90
        6
176
     0
 90
        2
176
     0
 62
     7
176
     0
 90
        5
176
     0
 90
        0
176
     0
 90
        0
176
     0
290
     0
176
     0
 90
        1
176
     0
 40
0.0
176
     0
 90
        0
176
     0
290
     0
176
     0
290
     1
176
     0
290
     1
176
     0
290
     0
176
     0
290
     0
176
     0
290
     0
176
     0
290
     0
176
     0
290
     0
176
     0
290
     0
176
     0
 90
       50
176
     0
 40
0.0
176
     0
 40
1.0
176
     0
 90
        0
176
     0
 62
    18
420
        0
176
     0
 90
       50
176
     0
 90
        3
176
     0
 62
     5
420
      255
176
     0
290
     0
176
     0
 90
       50
176
     0
 90
       50
176
     0
 90
       50
176
     0
290
     0
176
     0
 90
       50
176
     0
 62
   256
176
     0
 40
1.0
176
     0
 90
        2
176
     0
  1
strokes_ogs.tif
176
     0
290
     0
176
     0
 40
1.0
176
     0
 40
1.0
176
     0
  0
VISUALSTYLE
  5
33
102
{ACAD_REACTORS
330
29
102
}
330
29
100
AcDbVisualStyle
  2
Realistic
 70
     8
177
     3
291
     0
 70
    58
 90
        2
176
     1
 90
        3
176
     1
 90
        0
176
     1
 90
        2
176
     1
 40
0.6
176
     1
 40
30.0
176
     1
 62
     7
420
 16777215
176
     1
 90
        0
176
     1
 90
        0
176
     1
 62
     7
176
     1
 62
   257
176
     1
 90
        1
176
     1
 90
        1
176
     1
 40
1.0
176
     1
 90
        8
176
     1
 62
   257
176
     1
 40
1.0
176
     1
 90
        1
176
     1
 90
        6
176
     1
 90
        2
176
     1
 62
     7
176
     1
 90
        3
176
     1
 90
        0
176
     1
 90
        0
176
     1
290
     0
176
     1
 90
       13
176
     1
 40
0.0
176
     1
 90
        0
176
     1
290
     0
176
     1
290
     1
176
     1
290
     1
176
     1
290
     0
176
     1
290
     0
176
     1
290
     0
176
     1
290
     0
176
     1
290
     0
176
     1
290
     0
176
     1
 90
       50
176
     1
 40
0.0
176
     1
 40
1.0
176
     1
 90
        0
176
     1
 62
    18
420
        0
176
     1
 90
       50
176
     1
 90
        3
176
     1
 62
     5
420
      255
176
     1
290
     0
176
     1
 90
       50
176
     1
 90
       50
176
     1
 90
       50
176
     1
290
     0
176
     1
 90
       50
176
     1
 62
   256
176
     0
 40
1.0
176
     0
 90
        2
176
     1
  1
strokes_ogs.tif
176
     1
290
     0
176
     1
 40
1.0
176
     1
 40
1.0
176
     1
  0
VISUALSTYLE
  5
3E
102
{ACAD_REACTORS
330
29
102
}
330
29
100
AcDbVisualStyle
  2
Shaded
 70
    27
177
     3
291
     0
 70
    58
 90
        2
176
     1
 90
        2
176
     1
 90
        1
176
     1
 90
        2
176
     1
 40
0.6
176
     1
 40
30.0
176
     1
 62
     7
420
 16777215
176
     1
 90
        0
176
     1
 90
        4
176
     1
 62
     7
176
     1
 62
   257
176
     1
 90
        1
176
     1
 90
        1
176
     1
 40
1.0
176
     1
 90
        8
176
     1
 62
   257
176
     1
 40
1.0
176
     1
 90
        1
176
     1
 90
        6
176
     1
 90
        2
176
     1
 62
     8
420
  7895160
176
     1
 90
        3
176
     1
 90
        0
176
     1
 90
        0
176
     1
290
     0
176
     1
 90
        5
176
     1
 40
0.0
176
     1
 90
        0
176
     1
290
     0
176
     1
290
     1
176
     1
290
     1
176
     1
290
     0
176
     1
290
     0
176
     1
290
     0
176
     1
290
     0
176
     1
290
     0
176
     1
290
     0
176
     1
 90
       50
176
     1
 40
0.0
176
     1
 40
1.0
176
     1
 90
        0
176
     1
 62
    18
420
        0
176
     1
 90
       50
176
     1
 90
        3
176
     1
 62
     5
420
      255
176
     1
290
     0
176
     1
 90
       50
176
     1
 90
       50
176
     1
 90
       50
176
     1
290
     0
176
     1
 90
       50
176
     1
 62
   256
176
     0
 40
1.0
176
     0
 90
        2
176
     1
  1
strokes_ogs.tif
176
     1
290
     0
176
     1
 40
1.0
176
     1
 40
1.0
176
     1
  0
VISUALSTYLE
  5
3D
102
{ACAD_REACTORS
330
29
102
}
330
29
100
AcDbVisualStyle
  2
Shaded with edges
 70
    26
177
     3
291
     0
 70
    58
 90
        2
176
     1
 90
        2
176
     1
 90
        1
176
     1
 90
        2
176
     1
 40
0.6
176
     1
 40
30.0
176
     1
 62
     7
420
 16777215
176
     1
 90
        1
176
     1
 90
        2
176
     1
 62
     7
176
     1
 62
   257
176
     1
 90
        2
176
     1
 90
        1
176
     1
 40
1.0
176
     1
 90
        8
176
     1
 62
   257
176
     1
 40
1.0
176
     1
 90
        1
176
     1
 90
        6
176
     1
 90
        2
176
     1
 62
     7
176
     1
 90
        3
176
     1
 90
        0
176
     1
 90
        0
176
     1
290
     0
176
     1
 90
        5
176
     1
 40
0.0
176
     1
 90
        0
176
     1
290
     0
176
     1
290
     1
176
     1
290
     1
176
     1
290
     0
176
     1
290
     0
176
     1
290
     0
176
     1
290
     0
176
     1
290
     0
176
     1
290
     0
176
     1
 90
       50
176
     1
 40
0.0
176
     1
 40
1.0
176
     1
 90
        0
176
     1
 62
    18
420
        0
176
     1
 90
       50
176
     1
 90
        3
176
     1
 62
     5
420
      255
176
     1
290
     0
176
     1
 90
       50
176
     1
 90
       50
176
     1
 90
       50
176
     1
290
     0
176
     1
 90
       50
176
     1
 62
   256
176
     0
 40
1.0
176
     0
 90
        2
176
     1
  1
strokes_ogs.tif
176
     1
290
     0
176
     1
 40
1.0
176
     1
 40
1.0
176
     1
  0
VISUALSTYLE
  5
3A
102
{ACAD_REACTORS
330
29
102
}
330
29
100
AcDbVisualStyle
  2
Shades of Gray
 70
    23
177
     3
291
     0
 70
    58
 90
        2
176
     1
 90
        2
176
     1
 90
        3
176
     1
 90
        0
176
     1
 40
0.6
176
     1
 40
30.0
176
     1
 62
     7
420
 16777215
176
     1
 90
        2
176
     1
 90
        2
176
     1
 62
     7
176
     1
 62
     7
176
     1
 90
        1
176
     1
 90
        1
176
     1
 40
40.0
176
     1
 90
        8
176
     1
 62
     7
176
     1
 40
1.0
176
     1
 90
        1
176
     1
 90
        6
176
     1
 90
        2
176
     1
 62
     7
176
     1
 90
        3
176
     1
 90
        0
176
     1
 90
        0
176
     1
290
     0
176
     1
 90
        1
176
     1
 40
0.0
176
     1
 90
        0
176
     1
290
     0
176
     1
290
     1
176
     1
290
     1
176
     1
290
     0
176
     1
290
     0
176
     1
290
     0
176
     1
290
     0
176
     1
290
     0
176
     1
290
     0
176
     1
 90
       50
176
     1
 40
0.0
176
     1
 40
1.0
176
     1
 90
        0
176
     1
 62
    18
420
        0
176
     1
 90
       50
176
     1
 90
        3
176
     1
 62
     5
420
      255
176
     1
290
     0
176
     1
 90
       50
176
     1
 90
       50
176
     1
 90
       50
176
     1
290
     0
176
     1
 90
       50
176
     1
 62
   256
176
     0
 40
1.0
176
     0
 90
        2
176
     1
  1
strokes_ogs.tif
176
     1
290
     0
176
     1
 40
1.0
176
     1
 40
1.0
176
     1
  0
VISUALSTYLE
  5
3B
102
{ACAD_REACTORS
330
29
102
}
330
29
100
AcDbVisualStyle
  2
Sketchy
 70
    24
177
     3
291
     0
 70
    58
 90
        1
176
     1
 90
        2
176
     1
 90
        2
176
     1
 90
        0
176
     1
 40
0.6
176
     1
 40
30.0
176
     1
 62
     7
420
 16777215
176
     1
 90
        2
176
     1
 90
        2
176
     1
 62
     7
176
     1
 62
     7
176
     1
 90
        1
176
     1
 90
        1
176
     1
 40
40.0
176
     1
 90
       11
176
     1
 62
     7
176
     1
 40
1.0
176
     1
 90
        1
176
     1
 90
        6
176
     1
 90
        2
176
     1
 62
     7
176
     1
 90
        6
176
     1
 90
        0
176
     1
 90
        0
176
     1
290
     0
176
     1
 90
        1
176
     1
 40
0.0
176
     1
 90
        0
176
     1
290
     0
176
     1
290
     1
176
     1
290
     1
176
     1
290
     0
176
     1
290
     0
176
     1
290
     0
176
     1
290
     0
176
     1
290
     0
176
     1
290
     0
176
     1
 90
       50
176
     1
 40
0.0
176
     1
 40
1.0
176
     1
 90
        0
176
     1
 62
    18
420
        0
176
     1
 90
       50
176
     1
 90
        3
176
     1
 62
     5
420
      255
176
     1
290
     0
176
     1
 90
       50
176
     1
 90
       50
176
     1
 90
       50
176
     1
290
     0
176
     1
 90
       50
176
     1
 62
   256
176
     0
 40
1.0
176
     0
 90
        2
176
     1
  1
strokes_ogs.tif
176
     1
290
     0
176
     1
 40
1.0
176
     1
 40
1.0
176
     1
  0
VISUALSTYLE
  5
36
102
{ACAD_REACTORS
330
29
102
}
330
29
100
AcDbVisualStyle
  2
Thicken
 70
    13
177
     3
291
     1
 70
    58
 90
        2
176
     1
 90
        2
176
     1
 90
        0
176
     1
 90
        0
176
     1
 40
0.6
176
     1
 40
30.0
176
     1
 62
     7
420
 16777215
176
     1
 90
        1
176
     1
 90
        4
176
     1
 62
     7
176
     1
 62
   257
176
     1
 90
        1
176
     1
 90
        1
176
     1
 40
1.0
176
     1
 90
       12
176
     1
 62
     7
176
     1
 40
1.0
176
     1
 90
        1
176
     1
 90
        6
176
     1
 90
        2
176
     1
 62
     7
176
     1
 90
        5
176
     1
 90
        0
176
     1
 90
        0
176
     1
290
     0
176
     1
 90
        1
176
     1
 40
0.0
176
     1
 90
        0
176
     1
290
     0
176
     1
290
     1
176
     1
290
     1
176
     1
290
     0
176
     1
290
     0
176
     1
290
     0
176
     1
290
     0
176
     1
290
     0
176
     1
290
     0
176
     1
 90
       50
176
     1
 40
0.0
176
     1
 40
1.0
176
     1
 90
        0
176
     1
 62
    18
420
        0
176
     1
 90
       50
176
     1
 90
        3
176
     1
 62
     5
420
      255
176
     1
290
     0
176
     1
 90
       50
176
     1
 90
       50
176
     1
 90
       50
176
     1
290
     0
176
     1
 90
       50
176
     1
 62
   256
176
     0
 40
1.0
176
     0
 90
        2
176
     1
  1
strokes_ogs.tif
176
     1
290
     0
176
     1
 40
1.0
176
     1
 40
1.0
176
     1
  0
VISUALSTYLE
  5
30
102
{ACAD_REACTORS
330
29
102
}
330
29
100
AcDbVisualStyle
  2
Wireframe
 70
     5
177
     3
291
     0
 70
    58
 90
        0
176
     1
 90
        2
176
     1
 90
        0
176
     1
 90
        0
176
     1
 40
0.6
176
     1
 40
30.0
176
     1
 62
     7
420
 16777215
176
     1
 90
        1
176
     1
 90
        4
176
     1
 62
     7
176
     1
 62
   257
176
     1
 90
        1
176
     1
 90
        1
176
     1
 40
1.0
176
     1
 90
        0
176
     1
 62
   257
176
     1
 40
1.0
176
     1
 90
        1
176
     1
 90
        6
176
     1
 90
        2
176
     1
 62
     7
176
     1
 90
        3
176
     1
 90
        0
176
     1
 90
        0
176
     1
290
     0
176
     1
 90
        1
176
     1
 40
0.0
176
     1
 90
        0
176
     1
290
     0
176
     1
290
     1
176
     1
290
     1
176
     1
290
     0
176
     1
290
     0
176
     1
290
     0
176
     1
290
     0
176
     1
290
     0
176
     1
290
     0
176
     1
 90
       50
176
     1
 40
0.0
176
     1
 40
1.0
176
     1
 90
        0
176
     1
 62
    18
420
        0
176
     1
 90
       50
176
     1
 90
        3
176
     1
 62
     5
420
      255
176
     1
290
     0
176
     1
 90
       50
176
     1
 90
       50
176
     1
 90
       50
176
     1
290
     0
176
     1
 90
       50
176
     1
 62
   256
176
     0
 40
1.0
176
     0
 90
        2
176
     1
  1
strokes_ogs.tif
176
     1
290
     0
176
     1
 40
1.0
176
     1
 40
1.0
176
     1
  0
VISUALSTYLE
  5
3C
102
{ACAD_REACTORS
330
29
102
}
330
29
100
AcDbVisualStyle
  2
X-Ray
 70
    25
177
     3
291
     0
 70
    58
 90
        2
176
     1
 90
        2
176
     1
 90
        1
176
     1
 90
        1
176
     1
 40
0.5
176
     1
 40
30.0
176
     1
 62
     7
420
 16777215
176
     1
 90
        1
176
     1
 90
        0
176
     1
 62
     7
176
     1
 62
   257
176
     1
 90
        1
176
     1
 90
        1
176
     1
 40
1.0
176
     1
 90
        8
176
     1
 62
     7
176
     1
 40
1.0
176
     1
 90
        1
176
     1
 90
        6
176
     1
 90
        2
176
     1
 62
     7
176
     1
 90
        3
176
     1
 90
        0
176
     1
 90
        0
176
     1
290
     0
176
     1
 90
       13
176
     1
 40
0.0
176
     1
 90
        0
176
     1
290
     0
176
     1
290
     1
176
     1
290
     1
176
     1
290
     0
176
     1
290
     0
176
     1
290
     0
176
     1
290
     0
176
     1
290
     0
176
     1
290
     0
176
     1
 90
       50
176
     1
 40
0.0
176
     1
 40
1.0
176
     1
 90
        0
176
     1
 62
    18
420
        0
176
     1
 90
       50
176
     1
 90
        3
176
     1
 62
     5
420
      255
176
     1
290
     0
176
     1
 90
       50
176
     1
 90
       50
176
     1
 90
       50
176
     1
290
     0
176
     1
 90
       50
176
     1
 62
   256
176
     0
 40
1.0
176
     0
 90
        2
176
     1
  1
strokes_ogs.tif
176
     1
290
     0
176
     1
 40
1.0
176
     1
 40
1.0
176
     1
  0
DICTIONARYVAR
  5
221
102
{ACAD_REACTORS
330
21C
102
}
330
21C
100
DictionaryVariables
280
     0
  1
1:1
  0
DICTIONARYVAR
  5
21E
102
{ACAD_REACTORS
330
21C
102
}
330
21C
100
DictionaryVariables
280
     0
  1
STANDARD
  0
DICTIONARYVAR
  5
21D
102
{ACAD_REACTORS
330
21C
102
}
330
21C
100
DictionaryVariables
280
     0
  1
STANDARD
  0
DICTIONARYVAR
  5
21F
102
{ACAD_REACTORS
330
21C
102
}
330
21C
100
DictionaryVariables
280
     0
  1
Imperial24
  0
DICTIONARYVAR
  5
220
102
{ACAD_REACTORS
330
21C
102
}
330
21C
100
DictionaryVariables
280
     0
  1
Imperial24
  0
XRECORD
  5
218
102
{ACAD_REACTORS
330
214
102
}
330
214
100
AcDbXrecord
280
     1
  1
BUILDING_ID
  1
Casa à rua Rua 07 de Setembro, n° 86, Centro Natividade, TO
  1
FLOOR_ID
  1
22917909
  0
XRECORD
  5
216
102
{ACAD_REACTORS
330
214
102
}
330
214
100
AcDbXrecord
280
     1
  1
-2000051
  1
Linhas
  1
-2000280
  1
Blocos de margens e carimbo
  0
XRECORD
  5
217
102
{ACAD_REACTORS
330
214
102
}
330
214
100
AcDbXrecord
280
     1
  1
-2000281
  1
<Linhas finas>
  1
22909121
  1
0
  0
XRECORD
  5
215
102
{ACAD_REACTORS
330
214
102
}
330
214
100
AcDbXrecord
280
     1
  1
22917881
  1
SVG : A4
  0
DICTIONARY
  5
1A
330
19
100
AcDbDictionary
280
     1
281
     1
  3
BUMPTILE
360
1C
  3
DIFFUSETILE
360
1B
  3
OPACITYTILE
360
1F
  3
REFLECTIONTILE
360
1E
  3
REFRACTIONTILE
360
20
  3
SPECULARTILE
360
1D
  0
DICTIONARY
  5
12
330
11
100
AcDbDictionary
280
     1
281
     1
  3
BUMPTILE
360
14
  3
DIFFUSETILE
360
13
  3
OPACITYTILE
360
17
  3
REFLECTIONTILE
360
16
  3
REFRACTIONTILE
360
18
  3
SPECULARTILE
360
15
  0
DICTIONARY
  5
22
330
21
100
AcDbDictionary
280
     1
281
     1
  3
BUMPTILE
360
24
  3
DIFFUSETILE
360
23
  3
OPACITYTILE
360
27
  3
REFLECTIONTILE
360
26
  3
REFRACTIONTILE
360
28
  3
SPECULARTILE
360
25
  0
DICTIONARY
  5
274
330
65
100
AcDbDictionary
280
     1
281
     1
  3
ACAD_ROUNDTRIP_2008_TABLESTYLE_CELLSTYLEMAP
360
275
  0
XRECORD
  5
1C
102
{ACAD_REACTORS
330
1A
102
}
330
1A
100
AcDbXrecord
280
     1
270
     1
271
     1
  0
XRECORD
  5
1B
102
{ACAD_REACTORS
330
1A
102
}
330
1A
100
AcDbXrecord
280
     1
270
     1
271
     1
  0
XRECORD
  5
1F
102
{ACAD_REACTORS
330
1A
102
}
330
1A
100
AcDbXrecord
280
     1
270
     1
271
     1
  0
XRECORD
  5
1E
102
{ACAD_REACTORS
330
1A
102
}
330
1A
100
AcDbXrecord
280
     1
270
     1
271
     1
  0
XRECORD
  5
20
102
{ACAD_REACTORS
330
1A
102
}
330
1A
100
AcDbXrecord
280
     1
270
     1
271
     1
  0
XRECORD
  5
1D
102
{ACAD_REACTORS
330
1A
102
}
330
1A
100
AcDbXrecord
280
     1
270
     1
271
     1
  0
XRECORD
  5
14
102
{ACAD_REACTORS
330
12
102
}
330
12
100
AcDbXrecord
280
     1
270
     1
271
     1
  0
XRECORD
  5
13
102
{ACAD_REACTORS
330
12
102
}
330
12
100
AcDbXrecord
280
     1
270
     1
271
     1
  0
XRECORD
  5
17
102
{ACAD_REACTORS
330
12
102
}
330
12
100
AcDbXrecord
280
     1
270
     1
271
     1
  0
XRECORD
  5
16
102
{ACAD_REACTORS
330
12
102
}
330
12
100
AcDbXrecord
280
     1
270
     1
271
     1
  0
XRECORD
  5
18
102
{ACAD_REACTORS
330
12
102
}
330
12
100
AcDbXrecord
280
     1
270
     1
271
     1
  0
XRECORD
  5
15
102
{ACAD_REACTORS
330
12
102
}
330
12
100
AcDbXrecord
280
     1
270
     1
271
     1
  0
XRECORD
  5
24
102
{ACAD_REACTORS
330
22
102
}
330
22
100
AcDbXrecord
280
     1
270
     1
271
     1
  0
XRECORD
  5
23
102
{ACAD_REACTORS
330
22
102
}
330
22
100
AcDbXrecord
280
     1
270
     1
271
     1
  0
XRECORD
  5
27
102
{ACAD_REACTORS
330
22
102
}
330
22
100
AcDbXrecord
280
     1
270
     1
271
     1
  0
XRECORD
  5
26
102
{ACAD_REACTORS
330
22
102
}
330
22
100
AcDbXrecord
280
     1
270
     1
271
     1
  0
XRECORD
  5
28
102
{ACAD_REACTORS
330
22
102
}
330
22
100
AcDbXrecord
280
     1
270
     1
271
     1
  0
XRECORD
  5
25
102
{ACAD_REACTORS
330
22
102
}
330
22
100
AcDbXrecord
280
     1
270
     1
271
     1
  0
CELLSTYLEMAP
  5
275
102
{ACAD_REACTORS
330
274
102
}
330
274
100
AcDbCellStyleMap
 90
        3
300
CELLSTYLE
  1
TABLEFORMAT_BEGIN
 90
        5
170
     1
 91
        0
 92
    32768
 62
   257
 93
        1
300
CONTENTFORMAT
  1
CONTENTFORMAT_BEGIN
 90
        0
 91
        0
 92
      512
 93
        0
300

 40
0.0
140
1.0
 94
        5
 62
     0
340
55
144
0.25
309
CONTENTFORMAT_END
171
     0
 94
        0
309
TABLEFORMAT_END
  1
CELLSTYLE_BEGIN
 90
        1
 91
        1
300
_TITLE
309
CELLSTYLE_END
300
CELLSTYLE
  1
TABLEFORMAT_BEGIN
 90
        5
170
     1
 91
        0
 92
        0
 62
   257
 93
        1
300
CONTENTFORMAT
  1
CONTENTFORMAT_BEGIN
 90
        0
 91
        0
 92
      512
 93
        0
300

 40
0.0
140
1.0
 94
        5
 62
     0
340
55
144
0.18
309
CONTENTFORMAT_END
171
     0
 94
        0
309
TABLEFORMAT_END
  1
CELLSTYLE_BEGIN
 90
        2
 91
        1
300
_HEADER
309
CELLSTYLE_END
300
CELLSTYLE
  1
TABLEFORMAT_BEGIN
 90
        5
170
     1
 91
        0
 92
        0
 62
   257
 93
        1
300
CONTENTFORMAT
  1
CONTENTFORMAT_BEGIN
 90
        0
 91
        0
 92
      512
 93
        0
300

 40
0.0
140
1.0
 94
        2
 62
     0
340
55
144
0.18
309
CONTENTFORMAT_END
171
     0
 94
        0
309
TABLEFORMAT_END
  1
CELLSTYLE_BEGIN
 90
        3
 91
        2
300
_DATA
309
CELLSTYLE_END
  0
ENDSEC
  0
SECTION
  2
ACDSDATA
 70
     2
 71
     8
  0
ACDSSCHEMA
 90
        0
  1
AcDb_Thumbnail_Schema
  2
AcDbDs::ID
280
    10
 91
        8
  2
Thumbnail_Data
280
    15
 91
        0
101
ACDSRECORD
 95
        0
 90
        1
  2
AcDbDs::TreatedAsObjectData
280
     1
291
     1
101
ACDSRECORD
 95
        0
 90
        2
  2
AcDbDs::Legacy
280
     1
291
     1
101
ACDSRECORD
  1
AcDbDs::ID
 90
        3
  2
AcDs:Indexable
280
     1
291
     1
101
ACDSRECORD
  1
AcDbDs::ID
 90
        4
  2
AcDbDs::HandleAttribute
280
     7
282
     1
  0
ACDSSCHEMA
 90
        1
  1
AcDbDs::TreatedAsObjectDataSchema
  2
AcDbDs::TreatedAsObjectData
280
     1
 91
        0
  0
ACDSSCHEMA
 90
        2
  1
AcDbDs::LegacySchema
  2
AcDbDs::Legacy
280
     1
 91
        0
  0
ACDSSCHEMA
 90
        3
  1
AcDbDs::IndexedPropertySchema
  2
AcDs:Indexable
280
     1
 91
        0
  0
ACDSSCHEMA
 90
        4
  1
AcDbDs::HandleAttributeSchema
  2
AcDbDs::HandleAttribute
280
     7
 91
        1
284
     1
  0
ACDSRECORD
 90
        0
  2
AcDbDs::ID
280
    10
320
6F
  2
Thumbnail_Data
280
    15
 94
     1172
310
89504E470D0A1A0A0000000D4948445200000100000000B5080300000087DCD12600000300504C5445FFFFFFFFFFFFFFFFFF0000000000000000000000000000000000000000000000000000330000660000990000CC0000FF0033000033330033660033990033CC0033FF0066000066330066660066990066CC0066FF0099
310
000099330099660099990099CC0099FF00CC0000CC3300CC6600CC9900CCCC00CCFF00FF0000FF3300FF6600FF9900FFCC00FFFF3300003300333300663300993300CC3300FF3333003333333333663333993333CC3333FF3366003366333366663366993366CC3366FF3399003399333399663399993399CC3399FF33CC00
310
33CC3333CC6633CC9933CCCC33CCFF33FF0033FF3333FF6633FF9933FFCC33FFFF6600006600336600666600996600CC6600FF6633006633336633666633996633CC6633FF6666006666336666666666996666CC6666FF6699006699336699666699996699CC6699FF66CC0066CC3366CC6666CC9966CCCC66CCFF66FF0066
310
FF3366FF6666FF9966FFCC66FFFF9900009900339900669900999900CC9900FF9933009933339933669933999933CC9933FF9966009966339966669966999966CC9966FF9999009999339999669999999999CC9999FF99CC0099CC3399CC6699CC9999CCCC99CCFF99FF0099FF3399FF6699FF9999FFCC99FFFFCC0000CC00
310
33CC0066CC0099CC00CCCC00FFCC3300CC3333CC3366CC3399CC33CCCC33FFCC6600CC6633CC6666CC6699CC66CCCC66FFCC9900CC9933CC9966CC9999CC99CCCC99FFCCCC00CCCC33CCCC66CCCC99CCCCCCCCCCFFCCFF00CCFF33CCFF66CCFF99CCFFCCCCFFFFFF0000FF0033FF0066FF0099FF00CCFF00FFFF3300FF3333
310
FF3366FF3399FF33CCFF33FFFF6600FF6633FF6666FF6699FF66CCFF66FFFF9900FF9933FF9966FF9999FF99CCFF99FFFFCC00FFCC33FFCC66FFCC99FFCCCCFFCCFFFFFF00FFFF33FFFF66FFFF99FFFFCCFFFFFF0000000D0D0D1A1A1A2828283535354343435050505D5D5D6B6B6B787878868686939393A1A1A1AEAEAEBB
310
BBBBC9C9C9D6D6D6E4E4E4F1F1F1FFFFFF000000000000000000000000000000000000000000000000000000000000AD4AB4E40000014F4944415478DAEDD9510AC2300C06E01CC7DBF5605EAD875044C6F441362C0B69BF7F82750F0EBF25D0CCE88B275A6EF20172D3722F0F000000000000000000000000000000000000
310
0000000000003C731F9F6200C32F0500000000000000000000000000000000A80370FB2B00260538F8F50000CC00F07A7DFD301500000000000000D807A80000000000000060BD7D8087A2F13EF6CBEDCC6EB92440ECCF4D0F103F970000000030E73E400500000000000000EB029C7F22501A20B6FBFEF17EE823002D0040
310
0B00000000000000000000000000C08CD3609806B500000000000000000000000000FC396A1AD402000000000000000000000000300DAA000000000000000000000000000000601C06A005544031805101000000000000000000000000800A00E3530BE0B200000000000000000000000000000000000000000000C0C5003D
310
35AD67275A6ED2011EC9BB8A2CF799F9E40000000049454E44AE426082
  0
ACDSRECORD
 90
        0
  2
AcDbDs::ID
280
    10
320
73
  2
Thumbnail_Data
280
    15
 94
      972
310
89504E470D0A1A0A0000000D494844520000010000000065080300000095E2CD0900000300504C5445FFFFFFFFFFFFFFFFFF0000000000000000000000000000000000000000000000000000330000660000990000CC0000FF0033000033330033660033990033CC0033FF0066000066330066660066990066CC0066FF0099
310
000099330099660099990099CC0099FF00CC0000CC3300CC6600CC9900CCCC00CCFF00FF0000FF3300FF6600FF9900FFCC00FFFF3300003300333300663300993300CC3300FF3333003333333333663333993333CC3333FF3366003366333366663366993366CC3366FF3399003399333399663399993399CC3399FF33CC00
310
33CC3333CC6633CC9933CCCC33CCFF33FF0033FF3333FF6633FF9933FFCC33FFFF6600006600336600666600996600CC6600FF6633006633336633666633996633CC6633FF6666006666336666666666996666CC6666FF6699006699336699666699996699CC6699FF66CC0066CC3366CC6666CC9966CCCC66CCFF66FF0066
310
FF3366FF6666FF9966FFCC66FFFF9900009900339900669900999900CC9900FF9933009933339933669933999933CC9933FF9966009966339966669966999966CC9966FF9999009999339999669999999999CC9999FF99CC0099CC3399CC6699CC9999CCCC99CCFF99FF0099FF3399FF6699FF9999FFCC99FFFFCC0000CC00
310
33CC0066CC0099CC00CCCC00FFCC3300CC3333CC3366CC3399CC33CCCC33FFCC6600CC6633CC6666CC6699CC66CCCC66FFCC9900CC9933CC9966CC9999CC99CCCC99FFCCCC00CCCC33CCCC66CCCC99CCCCCCCCCCFFCCFF00CCFF33CCFF66CCFF99CCFFCCCCFFFFFF0000FF0033FF0066FF0099FF00CCFF00FFFF3300FF3333
310
FF3366FF3399FF33CCFF33FFFF6600FF6633FF6666FF6699FF66CCFF66FFFF9900FF9933FF9966FF9999FF99CCFF99FFFFCC00FFCC33FFCC66FFCC99FFCCCCFFCCFFFFFF00FFFF33FFFF66FFFF99FFFFCCFFFFFF0000000D0D0D1A1A1A2828283535354343435050505D5D5D6B6B6B787878868686939393A1A1A1AEAEAEBB
310
BBBBC9C9C9D6D6D6E4E4E4F1F1F1FFFFFF000000000000000000000000000000000000000000000000000000000000AD4AB4E4000000874944415478DAEDDAB10900201004C1EBBF4C2B311704A30FBCD94C301A14544C24499224CDB71EAA01B84D01000000000000000000000080CB500340CE0100000000000000A0F720
310
F43501000000000000000040ED9310005BC00A00000000000000000000000000000000000000000000000000000000D0F15F5E9224499224499224499246DA65D8BC7D892739430000000049454E44AE426082
  0
ENDSEC
  0
EOF
