  0
SECTION
  2
HEADER
  9
$ACADVER
  1
AC1032
  9
$ACADMAINTVER
 90
      204
  9
$DWGCODEPAGE
  3
ANSI_1252
  9
$LASTSAVEDBY
  1
duda-
  9
$REQUIREDVERSIONS
160
                 0
  9
$INSBASE
 10
0.0
 20
0.0
 30
0.0
  9
$EXTMIN
 10
1930.178818063895
 20
-23680.06226651701
 30
0.0
  9
$EXTMAX
 10
13869.21089456369
 20
-5655.359500519415
 30
0.0
  9
$LIMMIN
 10
0.0
 20
0.0
  9
$LIMMAX
 10
12.0
 20
9.0
  9
$ORTHOMODE
 70
     0
  9
$REGENMODE
 70
     1
  9
$FILLMODE
 70
     1
  9
$QTEXTMODE
 70
     0
  9
$MIRRTEXT
 70
     0
  9
$LTSCALE
 40
1.0
  9
$ATTMODE
 70
     1
  9
$TEXTSIZE
 40
0.2
  9
$TRACEWID
 40
0.05
  9
$TEXTSTYLE
  7
Standard
  9
$CLAYER
  8
0
  9
$CELTYPE
  6
ByLayer
  9
$CECOLOR
 62
   256
  9
$CELTSCALE
 40
1.0
  9
$DISPSILH
 70
     0
  9
$DIMSCALE
 40
1.0
  9
$DIMASZ
 40
0.18
  9
$DIMEXO
 40
0.0625
  9
$DIMDLI
 40
0.38
  9
$DIMRND
 40
0.0
  9
$DIMDLE
 40
0.0
  9
$DIMEXE
 40
0.18
  9
$DIMTP
 40
0.0
  9
$DIMTM
 40
0.0
  9
$DIMTXT
 40
0.18
  9
$DIMCEN
 40
0.09
  9
$DIMTSZ
 40
0.0
  9
$DIMTOL
 70
     0
  9
$DIMLIM
 70
     0
  9
$DIMTIH
 70
     1
  9
$DIMTOH
 70
     1
  9
$DIMSE1
 70
     0
  9
$DIMSE2
 70
     0
  9
$DIMTAD
 70
     0
  9
$DIMZIN
 70
     0
  9
$DIMBLK
  1

  9
$DIMASO
 70
     1
  9
$DIMSHO
 70
     1
  9
$DIMPOST
  1

  9
$DIMAPOST
  1

  9
$DIMALT
 70
     0
  9
$DIMALTD
 70
     2
  9
$DIMALTF
 40
25.4
  9
$DIMLFAC
 40
1.0
  9
$DIMTOFL
 70
     0
  9
$DIMTVP
 40
0.0
  9
$DIMTIX
 70
     0
  9
$DIMSOXD
 70
     0
  9
$DIMSAH
 70
     0
  9
$DIMBLK1
  1

  9
$DIMBLK2
  1

  9
$DIMSTYLE
  2
Standard
  9
$DIMCLRD
 70
     0
  9
$DIMCLRE
 70
     0
  9
$DIMCLRT
 70
     0
  9
$DIMTFAC
 40
1.0
  9
$DIMGAP
 40
0.09
  9
$DIMJUST
 70
     0
  9
$DIMSD1
 70
     0
  9
$DIMSD2
 70
     0
  9
$DIMTOLJ
 70
     1
  9
$DIMTZIN
 70
     0
  9
$DIMALTZ
 70
     0
  9
$DIMALTTZ
 70
     0
  9
$DIMUPT
 70
     0
  9
$DIMDEC
 70
     4
  9
$DIMTDEC
 70
     4
  9
$DIMALTU
 70
     2
  9
$DIMALTTD
 70
     2
  9
$DIMTXSTY
  7
Standard
  9
$DIMAUNIT
 70
     0
  9
$DIMADEC
 70
     0
  9
$DIMALTRND
 40
0.0
  9
$DIMAZIN
 70
     0
  9
$DIMDSEP
 70
    46
  9
$DIMATFIT
 70
     3
  9
$DIMFRAC
 70
     0
  9
$DIMLDRBLK
  1

  9
$DIMLUNIT
 70
     2
  9
$DIMLWD
 70
    -2
  9
$DIMLWE
 70
    -2
  9
$DIMTMOVE
 70
     0
  9
$DIMFXL
 40
1.0
  9
$DIMFXLON
 70
     0
  9
$DIMJOGANG
 40
0.7853981633974483
  9
$DIMTFILL
 70
     0
  9
$DIMTFILLCLR
 70
     0
  9
$DIMARCSYM
 70
     0
  9
$DIMLTYPE
  6

  9
$DIMLTEX1
  6

  9
$DIMLTEX2
  6

  9
$DIMTXTDIRECTION
 70
     0
  9
$LUNITS
 70
     2
  9
$LUPREC
 70
     4
  9
$SKETCHINC
 40
0.1
  9
$FILLETRAD
 40
0.0
  9
$AUNITS
 70
     0
  9
$AUPREC
 70
     0
  9
$MENU
  1
.
  9
$ELEVATION
 40
0.0
  9
$PELEVATION
 40
0.0
  9
$THICKNESS
 40
0.0
  9
$LIMCHECK
 70
     0
  9
$CHAMFERA
 40
0.0
  9
$CHAMFERB
 40
0.0
  9
$CHAMFERC
 40
0.0
  9
$CHAMFERD
 40
0.0
  9
$SKPOLY
 70
     0
  9
$TDCREATE
 40
2460730.507037037
  9
$TDUCREATE
 40
2460730.632037037
  9
$TDUPDATE
 40
2460738.919189815
  9
$TDUUPDATE
 40
2460739.044189815
  9
$TDINDWG
 40
0.0187268519
  9
$TDUSRTIMER
 40
0.0187268519
  9
$USRTIMER
 70
     1
  9
$ANGBASE
 50
0.0
  9
$ANGDIR
 70
     0
  9
$PDMODE
 70
     0
  9
$PDSIZE
 40
0.0
  9
$PLINEWID
 40
0.0
  9
$SPLFRAME
 70
     0
  9
$SPLINETYPE
 70
     6
  9
$SPLINESEGS
 70
     8
  9
$HANDSEED
  5
5DC
  9
$SURFTAB1
 70
     6
  9
$SURFTAB2
 70
     6
  9
$SURFTYPE
 70
     6
  9
$SURFU
 70
     6
  9
$SURFV
 70
     6
  9
$UCSBASE
  2

  9
$UCSNAME
  2

  9
$UCSORG
 10
0.0
 20
0.0
 30
0.0
  9
$UCSXDIR
 10
1.0
 20
0.0
 30
0.0
  9
$UCSYDIR
 10
0.0
 20
1.0
 30
0.0
  9
$UCSORTHOREF
  2

  9
$UCSORTHOVIEW
 70
     0
  9
$UCSORGTOP
 10
0.0
 20
0.0
 30
0.0
  9
$UCSORGBOTTOM
 10
0.0
 20
0.0
 30
0.0
  9
$UCSORGLEFT
 10
0.0
 20
0.0
 30
0.0
  9
$UCSORGRIGHT
 10
0.0
 20
0.0
 30
0.0
  9
$UCSORGFRONT
 10
0.0
 20
0.0
 30
0.0
  9
$UCSORGBACK
 10
0.0
 20
0.0
 30
0.0
  9
$PUCSBASE
  2

  9
$PUCSNAME
  2

  9
$PUCSORG
 10
0.0
 20
0.0
 30
0.0
  9
$PUCSXDIR
 10
1.0
 20
0.0
 30
0.0
  9
$PUCSYDIR
 10
0.0
 20
1.0
 30
0.0
  9
$PUCSORTHOREF
  2

  9
$PUCSORTHOVIEW
 70
     0
  9
$PUCSORGTOP
 10
0.0
 20
0.0
 30
0.0
  9
$PUCSORGBOTTOM
 10
0.0
 20
0.0
 30
0.0
  9
$PUCSORGLEFT
 10
0.0
 20
0.0
 30
0.0
  9
$PUCSORGRIGHT
 10
0.0
 20
0.0
 30
0.0
  9
$PUCSORGFRONT
 10
0.0
 20
0.0
 30
0.0
  9
$PUCSORGBACK
 10
0.0
 20
0.0
 30
0.0
  9
$USERI1
 70
     0
  9
$USERI2
 70
     0
  9
$USERI3
 70
     0
  9
$USERI4
 70
     0
  9
$USERI5
 70
     0
  9
$USERR1
 40
0.0
  9
$USERR2
 40
0.0
  9
$USERR3
 40
0.0
  9
$USERR4
 40
0.0
  9
$USERR5
 40
0.0
  9
$WORLDVIEW
 70
     1
  9
$SHADEDGE
 70
     3
  9
$SHADEDIF
 70
    70
  9
$TILEMODE
 70
     1
  9
$MAXACTVP
 70
    64
  9
$PINSBASE
 10
0.0
 20
0.0
 30
0.0
  9
$PLIMCHECK
 70
     0
  9
$PEXTMIN
 10
64.26619069154469
 20
59.4864836275533
 30
-0.0015258207003583
  9
$PEXTMAX
 10
274.3104757081685
 20
356.518806219265
 30
0.0000000349246037
  9
$PLIMMIN
 10
64.27901684485153
 20
59.47287840171589
  9
$PLIMMAX
 10
484.5984757423225
 20
356.6684553999278
  9
$UNITMODE
 70
     0
  9
$VISRETAIN
 70
     1
  9
$PLINEGEN
 70
     0
  9
$PSLTSCALE
 70
     0
  9
$TREEDEPTH
 70
  3020
  9
$CMLSTYLE
  2
Standard
  9
$CMLJUST
 70
     0
  9
$CMLSCALE
 40
1.0
  9
$PROXYGRAPHICS
 70
     1
  9
$MEASUREMENT
 70
     1
  9
$CELWEIGHT
370
    -1
  9
$ENDCAPS
280
     0
  9
$JOINSTYLE
280
     0
  9
$LWDISPLAY
290
     0
  9
$INSUNITS
 70
     4
  9
$HYPERLINKBASE
  1

  9
$STYLESHEET
  1

  9
$XEDIT
290
     1
  9
$CEPSNTYPE
380
     0
  9
$PSTYLEMODE
290
     1
  9
$FINGERPRINTGUID
  2
{03ADCF56-5A45-4E49-BD94-67F4316BAC36}
  9
$VERSIONGUID
  2
{21EC496C-E08F-2049-AFC4-2A8709D558D0}
  9
$EXTNAMES
290
     1
  9
$PSVPSCALE
 40
0.0
  9
$OLESTARTUP
290
     0
  9
$SORTENTS
280
   127
  9
$INDEXCTL
280
     0
  9
$HIDETEXT
280
     1
  9
$XCLIPFRAME
280
     2
  9
$HALOGAP
280
     0
  9
$OBSCOLOR
 70
   257
  9
$OBSLTYPE
280
     0
  9
$INTERSECTIONDISPLAY
280
     0
  9
$INTERSECTIONCOLOR
 70
   257
  9
$DIMASSOC
280
     2
  9
$PROJECTNAME
  1

  9
$CAMERADISPLAY
290
     0
  9
$LENSLENGTH
 40
50.0
  9
$CAMERAHEIGHT
 40
0.0
  9
$STEPSPERSEC
 40
2.0
  9
$STEPSIZE
 40
6.0
  9
$3DDWFPREC
 40
2.0
  9
$PSOLWIDTH
 40
0.25
  9
$PSOLHEIGHT
 40
4.0
  9
$LOFTANG1
 40
1.570796326794896
  9
$LOFTANG2
 40
1.570796326794896
  9
$LOFTMAG1
 40
0.0
  9
$LOFTMAG2
 40
0.0
  9
$LOFTPARAM
 70
     7
  9
$LOFTNORMALS
280
     1
  9
$LATITUDE
 40
0.0
  9
$LONGITUDE
 40
0.0
  9
$NORTHDIRECTION
 40
0.0
  9
$TIMEZONE
 70
     0
  9
$LIGHTGLYPHDISPLAY
280
     1
  9
$TILEMODELIGHTSYNCH
280
     1
  9
$CMATERIAL
347
11
  9
$SOLIDHIST
280
     0
  9
$SHOWHIST
280
     1
  9
$DWFFRAME
280
     2
  9
$DGNFRAME
280
     0
  9
$REALWORLDSCALE
290
     1
  9
$INTERFERECOLOR
 62
     1
  9
$INTERFEREOBJVS
345
33
  9
$INTERFEREVPVS
346
30
  9
$CSHADOW
280
     0
  9
$SHADOWPLANELOCATION
 40
0.0
  0
ENDSEC
  0
SECTION
  2
CLASSES
  0
CLASS
  1
ACDBDICTIONARYWDFLT
  2
AcDbDictionaryWithDefault
  3
ObjectDBX Classes
 90
        0
 91
        1
280
     0
281
     0
  0
CLASS
  1
MATERIAL
  2
AcDbMaterial
  3
ObjectDBX Classes
 90
     1153
 91
        3
280
     0
281
     0
  0
CLASS
  1
VISUALSTYLE
  2
AcDbVisualStyle
  3
ObjectDBX Classes
 90
     4095
 91
       24
280
     0
281
     0
  0
CLASS
  1
SCALE
  2
AcDbScale
  3
ObjectDBX Classes
 90
     1153
 91
       17
280
     0
281
     0
  0
CLASS
  1
TABLESTYLE
  2
AcDbTableStyle
  3
ObjectDBX Classes
 90
     4095
 91
        1
280
     0
281
     0
  0
CLASS
  1
MLEADERSTYLE
  2
AcDbMLeaderStyle
  3
ACDB_MLEADERSTYLE_CLASS
 90
     4095
 91
        1
280
     0
281
     0
  0
CLASS
  1
ACDBSECTIONVIEWSTYLE
  2
AcDbSectionViewStyle
  3
ObjectDBX Classes
 90
     1025
 91
        2
280
     0
281
     0
  0
CLASS
  1
ACDBDETAILVIEWSTYLE
  2
AcDbDetailViewStyle
  3
ObjectDBX Classes
 90
     1025
 91
        2
280
     0
281
     0
  0
CLASS
  1
RASTERVARIABLES
  2
AcDbRasterVariables
  3
ISM
 90
        0
 91
        1
280
     0
281
     0
  0
CLASS
  1
DICTIONARYVAR
  2
AcDbDictionaryVar
  3
ObjectDBX Classes
 90
        0
 91
        5
280
     0
281
     0
  0
CLASS
  1
SORTENTSTABLE
  2
AcDbSortentsTable
  3
ObjectDBX Classes
 90
        0
 91
        1
280
     0
281
     0
  0
CLASS
  1
SUN
  2
AcDbSun
  3
SCENEOE
 90
     1153
 91
        1
280
     0
281
     0
  0
CLASS
  1
RAPIDRTRENDERSETTINGS
  2
AcDbRapidRTRenderSettings
  3
ObjectDBX Classes
 90
     1024
 91
        7
280
     0
281
     0
  0
CLASS
  1
CELLSTYLEMAP
  2
AcDbCellStyleMap
  3
ObjectDBX Classes
 90
     1152
 91
        1
280
     0
281
     0
  0
ENDSEC
  0
SECTION
  2
TABLES
  0
TABLE
  2
VPORT
  5
8
330
0
100
AcDbSymbolTable
 70
     1
  0
VPORT
  5
57
330
8
100
AcDbSymbolTableRecord
100
AcDbViewportTableRecord
  2
*Active
 70
     0
 10
0.0
 20
0.0
 11
1.0
 21
1.0
 12
8113.742735427237
 22
-20198.50817485516
 13
0.0
 23
0.0
 14
1.0
 24
1.0
 15
0.0
 25
0.0
 16
0.0
 26
0.0
 36
1.0
 17
0.0
 27
0.0
 37
0.0
 40
31429.338595015
 41
2.531208499335989
 42
50.0
 43
0.0
 44
0.0
 50
0.0
 51
0.0
 71
     0
 72
  1000
 73
     1
 74
     1
 75
     0
 76
     0
 77
     0
 78
     0
281
     0
 65
     1
110
0.0
120
0.0
130
0.0
111
1.0
121
0.0
131
0.0
112
0.0
122
1.0
132
0.0
 79
     0
146
0.0
348
2F
 60
     3
 61
     5
292
     1
282
     1
141
0.0
142
0.0
 63
   250
421
  3355443
361
24A
1001
ACAD_NAV_VCDISPLAY
1070
     3
  0
ENDTAB
  0
TABLE
  2
LTYPE
  5
5
330
0
100
AcDbSymbolTable
 70
     1
  0
LTYPE
  5
5B
330
5
100
AcDbSymbolTableRecord
100
AcDbLinetypeTableRecord
  2
ByBlock
 70
     0
  3

 72
    65
 73
     0
 40
0.0
  0
LTYPE
  5
5C
330
5
100
AcDbSymbolTableRecord
100
AcDbLinetypeTableRecord
  2
ByLayer
 70
     0
  3

 72
    65
 73
     0
 40
0.0
  0
LTYPE
  5
5D
330
5
100
AcDbSymbolTableRecord
100
AcDbLinetypeTableRecord
  2
Continuous
 70
     0
  3
Solid line
 72
    65
 73
     0
 40
0.0
  0
ENDTAB
  0
TABLE
  2
LAYER
  5
2
102
{ACAD_XDICTIONARY
360
267
102
}
330
0
100
AcDbSymbolTable
 70
     6
  0
LAYER
  5
54
330
2
100
AcDbSymbolTableRecord
100
AcDbLayerTableRecord
  2
0
 70
     0
 62
   250
  6
Continuous
370
    25
390
F
347
21
348
0
  0
LAYER
  5
13B
330
2
100
AcDbSymbolTableRecord
100
AcDbLayerTableRecord
  2
A-JAN-___-___-EXI
 70
     0
 62
   250
  6
Continuous
370
    25
390
F
347
21
348
0
  0
LAYER
  5
148
330
2
100
AcDbSymbolTableRecord
100
AcDbLayerTableRecord
  2
A-POR-___-___-EXI
 70
     0
 62
   250
  6
Continuous
370
    25
390
F
347
21
348
0
  0
LAYER
  5
233
330
2
100
AcDbSymbolTableRecord
100
AcDbLayerTableRecord
  2
A-ALV-___-___-EXI
 70
     0
 62
   250
  6
Continuous
370
    35
390
F
347
21
348
0
  0
LAYER
  5
239
330
2
100
AcDbSymbolTableRecord
100
AcDbLayerTableRecord
  2
A-PIL-___-___-EXI
 70
     0
 62
   250
  6
Continuous
370
    35
390
F
347
21
348
0
  0
LAYER
  5
23B
330
2
100
AcDbSymbolTableRecord
100
AcDbLayerTableRecord
  2
A-PIS-___-___-EXI
 70
     0
 62
   250
  6
Continuous
370
    25
390
F
347
21
348
0
  0
ENDTAB
  0
TABLE
  2
STYLE
  5
3
330
0
100
AcDbSymbolTable
 70
     2
  0
STYLE
  5
55
330
3
100
AcDbSymbolTableRecord
100
AcDbTextStyleTableRecord
  2
Standard
 70
     0
 40
0.0
 41
1.0
 50
0.0
 71
     0
 42
0.2
  3
txt
  4

  0
STYLE
  5
5A
330
3
100
AcDbSymbolTableRecord
100
AcDbTextStyleTableRecord
  2
Annotative
 70
     0
 40
0.0
 41
1.0
 50
0.0
 71
     0
 42
0.2
  3
txt
  4

1001
AcadAnnotative
1000
AnnotativeData
1002
{
1070
     1
1070
     1
1002
}
  0
ENDTAB
  0
TABLE
  2
VIEW
  5
6
330
0
100
AcDbSymbolTable
 70
     0
  0
ENDTAB
  0
TABLE
  2
UCS
  5
7
330
0
100
AcDbSymbolTable
 70
     0
  0
ENDTAB
  0
TABLE
  2
APPID
  5
9
330
0
100
AcDbSymbolTable
 70
     6
  0
APPID
  5
56
330
9
100
AcDbSymbolTableRecord
100
AcDbRegAppTableRecord
  2
ACAD
 70
     0
  0
APPID
  5
5E
330
9
100
AcDbSymbolTableRecord
100
AcDbRegAppTableRecord
  2
AcadAnnotative
 70
     0
  0
APPID
  5
78
330
9
100
AcDbSymbolTableRecord
100
AcDbRegAppTableRecord
  2
REVIT
 70
     0
  0
APPID
  5
25A
330
9
100
AcDbSymbolTableRecord
100
AcDbRegAppTableRecord
  2
ACAD_PSEXT
 70
     0
  0
APPID
  5
29B
330
9
100
AcDbSymbolTableRecord
100
AcDbRegAppTableRecord
  2
ACAD_NAV_VCDISPLAY
 70
     0
  0
APPID
  5
2C9
330
9
100
AcDbSymbolTableRecord
100
AcDbRegAppTableRecord
  2
ACAD_EXEMPT_FROM_CAD_STANDARDS
 70
     0
  0
ENDTAB
  0
TABLE
  2
DIMSTYLE
  5
A
330
0
100
AcDbSymbolTable
 70
     2
100
AcDbDimStyleTable
 71
     0
  0
DIMSTYLE
105
58
330
A
100
AcDbSymbolTableRecord
100
AcDbDimStyleTableRecord
  2
Standard
 70
     0
340
55
  0
DIMSTYLE
105
59
330
A
100
AcDbSymbolTableRecord
100
AcDbDimStyleTableRecord
  2
Annotative
 70
     0
340
55
1001
AcadAnnotative
1000
AnnotativeData
1002
{
1070
     1
1070
     1
1002
}
  0
ENDTAB
  0
TABLE
  2
BLOCK_RECORD
  5
1
330
0
100
AcDbSymbolTable
 70
     6
  0
BLOCK_RECORD
  5
70
102
{ACAD_XDICTIONARY
360
248
102
}
330
1
100
AcDbSymbolTableRecord
100
AcDbBlockTableRecord
  2
*Model_Space
340
73
 70
     0
280
     1
281
     0
  0
BLOCK_RECORD
  5
6C
330
1
100
AcDbSymbolTableRecord
100
AcDbBlockTableRecord
  2
*Paper_Space
340
6F
 70
     0
280
     1
281
     0
  0
BLOCK_RECORD
  5
13A
330
1
100
AcDbSymbolTableRecord
100
AcDbBlockTableRecord
  2
porta multiplas_original - Simples - 80 cm-22452103-Planta baixa - Térreo_
340
0
 70
     0
280
     1
281
     0
  0
BLOCK_RECORD
  5
14D
330
1
100
AcDbSymbolTableRecord
100
AcDbBlockTableRecord
  2
porta multiplas_original - Simples - 80 cm-22452102-Planta baixa - Térreo_
340
0
 70
     0
280
     1
281
     0
  0
BLOCK_RECORD
  5
15E
330
1
100
AcDbSymbolTableRecord
100
AcDbBlockTableRecord
  2
porta multiplas_original - Simples - 80 cm-22451920-Planta baixa - Térreo_
340
0
 70
     0
280
     1
281
     0
  0
BLOCK_RECORD
  5
16F
330
1
100
AcDbSymbolTableRecord
100
AcDbBlockTableRecord
  2
porta multiplas_original - Simples - 80 cm-22452034-Planta baixa - Térreo_
340
0
 70
     0
280
     1
281
     0
  0
BLOCK_RECORD
  5
1A8
330
1
100
AcDbSymbolTableRecord
100
AcDbBlockTableRecord
  2
porta multiplas_original - Simples - 80 cm-22452035-Planta baixa - Térreo_
340
0
 70
     0
280
     1
281
     0
  0
BLOCK_RECORD
  5
23A
330
1
100
AcDbSymbolTableRecord
100
AcDbBlockTableRecord
  2
SVG - A4-22486380-Não nomeada
340
0
102
{BLKREFS
331
242
102
}
 70
     0
280
     1
281
     0
  0
ENDTAB
  0
ENDSEC
  0
SECTION
  2
BLOCKS
  0
BLOCK
  5
71
330
70
100
AcDbEntity
  8
0
100
AcDbBlockBegin
  2
*Model_Space
 70
     0
 10
0.0
 20
0.0
 30
0.0
  3
*Model_Space
  1

  0
ENDBLK
  5
72
330
70
100
AcDbEntity
  8
0
100
AcDbBlockEnd
  0
BLOCK
  5
6D
330
6C
100
AcDbEntity
 67
     1
  8
0
100
AcDbBlockBegin
  2
*Paper_Space
 70
     0
 10
0.0
 20
0.0
 30
0.0
  3
*Paper_Space
  1

  0
ENDBLK
  5
6E
330
6C
100
AcDbEntity
 67
     1
  8
0
100
AcDbBlockEnd
  0
BLOCK
  5
14A
330
13A
100
AcDbEntity
  8
0
100
AcDbBlockBegin
  2
porta multiplas_original - Simples - 80 cm-22452103-Planta baixa - Térreo_
 70
     0
 10
0.0
 20
0.0
 30
0.0
  3
porta multiplas_original - Simples - 80 cm-22452103-Planta baixa - Térreo_
  1

  0
LINE
  5
13C
330
13A
100
AcDbEntity
  8
A-JAN-___-___-EXI
100
AcDbLine
 10
429.9999999999932
 20
-110.0000000000002
 30
0.0
 11
429.9999999999932
 21
110.0000000009611
 31
0.0
1001
REVIT
1002
{
1070
     1
1000
22423829
1002
}
1002
{
1070
     5
1000
22369145
1002
}
  0
LINE
  5
13D
330
13A
100
AcDbEntity
  8
A-JAN-___-___-EXI
100
AcDbLine
 10
429.9999999999932
 20
110.0000000009611
 30
0.0
 11
399.9999999999914
 21
110.0000000009611
 31
0.0
1001
REVIT
1002
{
1070
     1
1000
22423829
1002
}
1002
{
1070
     5
1000
22369145
1002
}
  0
LINE
  5
13E
330
13A
100
AcDbEntity
  8
A-JAN-___-___-EXI
100
AcDbLine
 10
399.9999999999914
 20
110.0000000009611
 30
0.0
 11
399.9999999999914
 21
-110.0000000000003
 31
0.0
1001
REVIT
1002
{
1070
     1
1000
22423829
1002
}
1002
{
1070
     5
1000
22369145
1002
}
  0
LINE
  5
13F
330
13A
100
AcDbEntity
  8
A-JAN-___-___-EXI
100
AcDbLine
 10
399.9999999999914
 20
-110.0000000000003
 30
0.0
 11
429.9999999999932
 21
-110.0000000000002
 31
0.0
1001
REVIT
1002
{
1070
     1
1000
22423829
1002
}
1002
{
1070
     5
1000
22369145
1002
}
  0
LINE
  5
140
330
13A
100
AcDbEntity
  8
A-JAN-___-___-EXI
100
AcDbLine
 10
-430.0000000000061
 20
-109.9999999999996
 30
0.0
 11
-400.0000000000087
 21
-109.9999999999995
 31
0.0
1001
REVIT
1002
{
1070
     1
1000
22423829
1002
}
1002
{
1070
     5
1000
22369145
1002
}
  0
LINE
  5
141
330
13A
100
AcDbEntity
  8
A-JAN-___-___-EXI
100
AcDbLine
 10
-400.0000000000087
 20
-109.9999999999995
 30
0.0
 11
-400.0000000000087
 21
110.0000000009618
 31
0.0
1001
REVIT
1002
{
1070
     1
1000
22423829
1002
}
1002
{
1070
     5
1000
22369145
1002
}
  0
LINE
  5
142
330
13A
100
AcDbEntity
  8
A-JAN-___-___-EXI
100
AcDbLine
 10
-400.0000000000087
 20
110.0000000009618
 30
0.0
 11
-430.0000000000061
 21
110.0000000009618
 31
0.0
1001
REVIT
1002
{
1070
     1
1000
22423829
1002
}
1002
{
1070
     5
1000
22369145
1002
}
  0
LINE
  5
143
330
13A
100
AcDbEntity
  8
A-JAN-___-___-EXI
100
AcDbLine
 10
-430.0000000000061
 20
110.0000000009618
 30
0.0
 11
-430.0000000000061
 21
-109.9999999999996
 31
0.0
1001
REVIT
1002
{
1070
     1
1000
22423829
1002
}
1002
{
1070
     5
1000
22369145
1002
}
  0
LINE
  5
144
330
13A
100
AcDbEntity
  8
A-JAN-___-___-EXI
100
AcDbLine
 10
-368.0000000000073
 20
906.0000000009639
 30
0.0
 11
-398.0000000000091
 21
906.0000000009639
 31
0.0
1001
REVIT
1002
{
1070
     1
1000
22423829
1002
}
1002
{
1070
     5
1000
22369145
1002
}
  0
LINE
  5
145
330
13A
100
AcDbEntity
  8
A-JAN-___-___-EXI
100
AcDbLine
 10
-398.0000000000091
 20
906.0000000009639
 30
0.0
 11
-398.0000000000091
 21
110.000000000964
 31
0.0
1001
REVIT
1002
{
1070
     1
1000
22423829
1002
}
1002
{
1070
     5
1000
22369145
1002
}
  0
LINE
  5
146
330
13A
100
AcDbEntity
  8
A-JAN-___-___-EXI
100
AcDbLine
 10
-398.0000000000091
 20
110.000000000964
 30
0.0
 11
-368.0000000000073
 21
110.000000000964
 31
0.0
1001
REVIT
1002
{
1070
     1
1000
22423829
1002
}
1002
{
1070
     5
1000
22369145
1002
}
  0
LINE
  5
147
330
13A
100
AcDbEntity
  8
A-JAN-___-___-EXI
100
AcDbLine
 10
-368.0000000000073
 20
110.000000000964
 30
0.0
 11
-368.0000000000073
 21
906.0000000009639
 31
0.0
1001
REVIT
1002
{
1070
     1
1000
22423829
1002
}
1002
{
1070
     5
1000
22369145
1002
}
  0
ARC
  5
149
330
13A
100
AcDbEntity
  8
A-POR-___-___-EXI
100
AcDbCircle
 10
-398.0000000000091
 20
110.000000000964
 30
0.0
 40
795.9999999999999
100
AcDbArc
 50
359.9999999999996
 51
89.99999999999998
1001
REVIT
1002
{
1070
     1
1000
22423829
1002
}
1002
{
1070
     5
1000
22369145
1002
}
1002
{
1070
     3
1000
-2000027
1002
}
  0
ENDBLK
  5
14B
330
13A
100
AcDbEntity
  8
0
100
AcDbBlockEnd
  0
BLOCK
  5
15B
330
14D
100
AcDbEntity
  8
0
100
AcDbBlockBegin
  2
porta multiplas_original - Simples - 80 cm-22452102-Planta baixa - Térreo_
 70
     0
 10
0.0
 20
0.0
 30
0.0
  3
porta multiplas_original - Simples - 80 cm-22452102-Planta baixa - Térreo_
  1

  0
LINE
  5
14E
330
14D
100
AcDbEntity
  8
A-JAN-___-___-EXI
100
AcDbLine
 10
-430.0000000000061
 20
-110.0000000009611
 30
0.0
 11
-430.0000000000061
 21
110.0000000000002
 31
0.0
1001
REVIT
1002
{
1070
     1
1000
22423925
1002
}
1002
{
1070
     5
1000
22369145
1002
}
  0
LINE
  5
14F
330
14D
100
AcDbEntity
  8
A-JAN-___-___-EXI
100
AcDbLine
 10
-400.0000000000087
 20
-110.0000000009611
 30
0.0
 11
-430.0000000000061
 21
-110.0000000009611
 31
0.0
1001
REVIT
1002
{
1070
     1
1000
22423925
1002
}
1002
{
1070
     5
1000
22369145
1002
}
  0
LINE
  5
150
330
14D
100
AcDbEntity
  8
A-JAN-___-___-EXI
100
AcDbLine
 10
-400.0000000000087
 20
110.0000000000002
 30
0.0
 11
-400.0000000000087
 21
-110.0000000009611
 31
0.0
1001
REVIT
1002
{
1070
     1
1000
22423925
1002
}
1002
{
1070
     5
1000
22369145
1002
}
  0
LINE
  5
151
330
14D
100
AcDbEntity
  8
A-JAN-___-___-EXI
100
AcDbLine
 10
-430.0000000000061
 20
110.0000000000002
 30
0.0
 11
-400.0000000000087
 21
110.0000000000002
 31
0.0
1001
REVIT
1002
{
1070
     1
1000
22423925
1002
}
1002
{
1070
     5
1000
22369145
1002
}
  0
LINE
  5
152
330
14D
100
AcDbEntity
  8
A-JAN-___-___-EXI
100
AcDbLine
 10
399.9999999999914
 20
109.9999999999995
 30
0.0
 11
429.9999999999932
 21
109.9999999999995
 31
0.0
1001
REVIT
1002
{
1070
     1
1000
22423925
1002
}
1002
{
1070
     5
1000
22369145
1002
}
  0
LINE
  5
153
330
14D
100
AcDbEntity
  8
A-JAN-___-___-EXI
100
AcDbLine
 10
399.9999999999914
 20
-110.0000000009619
 30
0.0
 11
399.9999999999914
 21
109.9999999999995
 31
0.0
1001
REVIT
1002
{
1070
     1
1000
22423925
1002
}
1002
{
1070
     5
1000
22369145
1002
}
  0
LINE
  5
154
330
14D
100
AcDbEntity
  8
A-JAN-___-___-EXI
100
AcDbLine
 10
429.9999999999932
 20
-110.0000000009618
 30
0.0
 11
399.9999999999914
 21
-110.0000000009619
 31
0.0
1001
REVIT
1002
{
1070
     1
1000
22423925
1002
}
1002
{
1070
     5
1000
22369145
1002
}
  0
LINE
  5
155
330
14D
100
AcDbEntity
  8
A-JAN-___-___-EXI
100
AcDbLine
 10
429.9999999999932
 20
109.9999999999995
 30
0.0
 11
429.9999999999932
 21
-110.0000000009618
 31
0.0
1001
REVIT
1002
{
1070
     1
1000
22423925
1002
}
1002
{
1070
     5
1000
22369145
1002
}
  0
LINE
  5
156
330
14D
100
AcDbEntity
  8
A-JAN-___-___-EXI
100
AcDbLine
 10
-368.0000000000073
 20
-110.0000000009632
 30
0.0
 11
-368.0000000000029
 21
-906.0000000009631
 31
0.0
1001
REVIT
1002
{
1070
     1
1000
22423925
1002
}
1002
{
1070
     5
1000
22369145
1002
}
  0
LINE
  5
157
330
14D
100
AcDbEntity
  8
A-JAN-___-___-EXI
100
AcDbLine
 10
-398.0000000000091
 20
-110.0000000009633
 30
0.0
 11
-368.0000000000073
 21
-110.0000000009632
 31
0.0
1001
REVIT
1002
{
1070
     1
1000
22423925
1002
}
1002
{
1070
     5
1000
22369145
1002
}
  0
LINE
  5
158
330
14D
100
AcDbEntity
  8
A-JAN-___-___-EXI
100
AcDbLine
 10
-398.0000000000048
 20
-906.0000000009631
 30
0.0
 11
-398.0000000000091
 21
-110.0000000009633
 31
0.0
1001
REVIT
1002
{
1070
     1
1000
22423925
1002
}
1002
{
1070
     5
1000
22369145
1002
}
  0
LINE
  5
159
330
14D
100
AcDbEntity
  8
A-JAN-___-___-EXI
100
AcDbLine
 10
-368.0000000000029
 20
-906.0000000009631
 30
0.0
 11
-398.0000000000048
 21
-906.0000000009631
 31
0.0
1001
REVIT
1002
{
1070
     1
1000
22423925
1002
}
1002
{
1070
     5
1000
22369145
1002
}
  0
ARC
  5
15A
330
14D
100
AcDbEntity
  8
A-POR-___-___-EXI
100
AcDbCircle
 10
-398.0000000000091
 20
-110.0000000009633
 30
0.0
 40
795.9999999999978
100
AcDbArc
 50
269.9999999999998
 51
0.0000000000001209
1001
REVIT
1002
{
1070
     1
1000
22423925
1002
}
1002
{
1070
     5
1000
22369145
1002
}
1002
{
1070
     3
1000
-2000027
1002
}
  0
ENDBLK
  5
15C
330
14D
100
AcDbEntity
  8
0
100
AcDbBlockEnd
  0
BLOCK
  5
16C
330
15E
100
AcDbEntity
  8
0
100
AcDbBlockBegin
  2
porta multiplas_original - Simples - 80 cm-22451920-Planta baixa - Térreo_
 70
     0
 10
0.0
 20
0.0
 30
0.0
  3
porta multiplas_original - Simples - 80 cm-22451920-Planta baixa - Térreo_
  1

  0
LINE
  5
15F
330
15E
100
AcDbEntity
  8
A-JAN-___-___-EXI
100
AcDbLine
 10
429.9999999999932
 20
-200.0000000000003
 30
0.0
 11
429.9999999999932
 21
200.0000000009613
 31
0.0
1001
REVIT
1002
{
1070
     1
1000
22424017
1002
}
1002
{
1070
     5
1000
22369145
1002
}
  0
LINE
  5
160
330
15E
100
AcDbEntity
  8
A-JAN-___-___-EXI
100
AcDbLine
 10
429.9999999999932
 20
200.0000000009613
 30
0.0
 11
399.9999999999914
 21
200.0000000009612
 31
0.0
1001
REVIT
1002
{
1070
     1
1000
22424017
1002
}
1002
{
1070
     5
1000
22369145
1002
}
  0
LINE
  5
161
330
15E
100
AcDbEntity
  8
A-JAN-___-___-EXI
100
AcDbLine
 10
399.9999999999914
 20
200.0000000009612
 30
0.0
 11
399.9999999999914
 21
-200.0000000000004
 31
0.0
1001
REVIT
1002
{
1070
     1
1000
22424017
1002
}
1002
{
1070
     5
1000
22369145
1002
}
  0
LINE
  5
162
330
15E
100
AcDbEntity
  8
A-JAN-___-___-EXI
100
AcDbLine
 10
399.9999999999914
 20
-200.0000000000004
 30
0.0
 11
429.9999999999932
 21
-200.0000000000003
 31
0.0
1001
REVIT
1002
{
1070
     1
1000
22424017
1002
}
1002
{
1070
     5
1000
22369145
1002
}
  0
LINE
  5
163
330
15E
100
AcDbEntity
  8
A-JAN-___-___-EXI
100
AcDbLine
 10
-430.0000000000061
 20
-199.9999999999997
 30
0.0
 11
-400.0000000000087
 21
-199.9999999999997
 31
0.0
1001
REVIT
1002
{
1070
     1
1000
22424017
1002
}
1002
{
1070
     5
1000
22369145
1002
}
  0
LINE
  5
164
330
15E
100
AcDbEntity
  8
A-JAN-___-___-EXI
100
AcDbLine
 10
-400.0000000000087
 20
-199.9999999999997
 30
0.0
 11
-400.0000000000087
 21
200.0000000009619
 31
0.0
1001
REVIT
1002
{
1070
     1
1000
22424017
1002
}
1002
{
1070
     5
1000
22369145
1002
}
  0
LINE
  5
165
330
15E
100
AcDbEntity
  8
A-JAN-___-___-EXI
100
AcDbLine
 10
-400.0000000000087
 20
200.0000000009619
 30
0.0
 11
-430.0000000000061
 21
200.0000000009619
 31
0.0
1001
REVIT
1002
{
1070
     1
1000
22424017
1002
}
1002
{
1070
     5
1000
22369145
1002
}
  0
LINE
  5
166
330
15E
100
AcDbEntity
  8
A-JAN-___-___-EXI
100
AcDbLine
 10
-430.0000000000061
 20
200.0000000009619
 30
0.0
 11
-430.0000000000061
 21
-199.9999999999997
 31
0.0
1001
REVIT
1002
{
1070
     1
1000
22424017
1002
}
1002
{
1070
     5
1000
22369145
1002
}
  0
LINE
  5
167
330
15E
100
AcDbEntity
  8
A-JAN-___-___-EXI
100
AcDbLine
 10
-368.0000000000073
 20
996.0000000009641
 30
0.0
 11
-398.0000000000091
 21
996.0000000009641
 31
0.0
1001
REVIT
1002
{
1070
     1
1000
22424017
1002
}
1002
{
1070
     5
1000
22369145
1002
}
  0
LINE
  5
168
330
15E
100
AcDbEntity
  8
A-JAN-___-___-EXI
100
AcDbLine
 10
-398.0000000000091
 20
996.0000000009641
 30
0.0
 11
-398.0000000000091
 21
200.0000000009641
 31
0.0
1001
REVIT
1002
{
1070
     1
1000
22424017
1002
}
1002
{
1070
     5
1000
22369145
1002
}
  0
LINE
  5
169
330
15E
100
AcDbEntity
  8
A-JAN-___-___-EXI
100
AcDbLine
 10
-398.0000000000091
 20
200.0000000009641
 30
0.0
 11
-368.0000000000073
 21
200.0000000009642
 31
0.0
1001
REVIT
1002
{
1070
     1
1000
22424017
1002
}
1002
{
1070
     5
1000
22369145
1002
}
  0
LINE
  5
16A
330
15E
100
AcDbEntity
  8
A-JAN-___-___-EXI
100
AcDbLine
 10
-368.0000000000073
 20
200.0000000009642
 30
0.0
 11
-368.0000000000073
 21
996.0000000009641
 31
0.0
1001
REVIT
1002
{
1070
     1
1000
22424017
1002
}
1002
{
1070
     5
1000
22369145
1002
}
  0
ARC
  5
16B
330
15E
100
AcDbEntity
  8
A-POR-___-___-EXI
100
AcDbCircle
 10
-398.0000000000091
 20
200.0000000009641
 30
0.0
 40
795.9999999999999
100
AcDbArc
 50
359.9999999999996
 51
89.99999999999998
1001
REVIT
1002
{
1070
     1
1000
22424017
1002
}
1002
{
1070
     5
1000
22369145
1002
}
1002
{
1070
     3
1000
-2000027
1002
}
  0
ENDBLK
  5
16D
330
15E
100
AcDbEntity
  8
0
100
AcDbBlockEnd
  0
BLOCK
  5
17D
330
16F
100
AcDbEntity
  8
0
100
AcDbBlockBegin
  2
porta multiplas_original - Simples - 80 cm-22452034-Planta baixa - Térreo_
 70
     0
 10
0.0
 20
0.0
 30
0.0
  3
porta multiplas_original - Simples - 80 cm-22452034-Planta baixa - Térreo_
  1

  0
LINE
  5
170
330
16F
100
AcDbEntity
  8
A-JAN-___-___-EXI
100
AcDbLine
 10
429.9999999999932
 20
-220.0000000000001
 30
0.0
 11
429.9999999999932
 21
220.0000000009621
 31
0.0
1001
REVIT
1002
{
1070
     1
1000
22424240
1002
}
1002
{
1070
     5
1000
22369145
1002
}
  0
LINE
  5
171
330
16F
100
AcDbEntity
  8
A-JAN-___-___-EXI
100
AcDbLine
 10
429.9999999999932
 20
220.0000000009621
 30
0.0
 11
399.9999999999914
 21
220.0000000009621
 31
0.0
1001
REVIT
1002
{
1070
     1
1000
22424240
1002
}
1002
{
1070
     5
1000
22369145
1002
}
  0
LINE
  5
172
330
16F
100
AcDbEntity
  8
A-JAN-___-___-EXI
100
AcDbLine
 10
399.9999999999914
 20
220.0000000009621
 30
0.0
 11
399.9999999999914
 21
-220.0000000000002
 31
0.0
1001
REVIT
1002
{
1070
     1
1000
22424240
1002
}
1002
{
1070
     5
1000
22369145
1002
}
  0
LINE
  5
173
330
16F
100
AcDbEntity
  8
A-JAN-___-___-EXI
100
AcDbLine
 10
399.9999999999914
 20
-220.0000000000002
 30
0.0
 11
429.9999999999932
 21
-220.0000000000001
 31
0.0
1001
REVIT
1002
{
1070
     1
1000
22424240
1002
}
1002
{
1070
     5
1000
22369145
1002
}
  0
LINE
  5
174
330
16F
100
AcDbEntity
  8
A-JAN-___-___-EXI
100
AcDbLine
 10
-430.0000000000061
 20
-219.9999999999995
 30
0.0
 11
-400.0000000000087
 21
-219.9999999999995
 31
0.0
1001
REVIT
1002
{
1070
     1
1000
22424240
1002
}
1002
{
1070
     5
1000
22369145
1002
}
  0
LINE
  5
175
330
16F
100
AcDbEntity
  8
A-JAN-___-___-EXI
100
AcDbLine
 10
-400.0000000000087
 20
-219.9999999999995
 30
0.0
 11
-400.0000000000087
 21
220.0000000009628
 31
0.0
1001
REVIT
1002
{
1070
     1
1000
22424240
1002
}
1002
{
1070
     5
1000
22369145
1002
}
  0
LINE
  5
176
330
16F
100
AcDbEntity
  8
A-JAN-___-___-EXI
100
AcDbLine
 10
-400.0000000000087
 20
220.0000000009628
 30
0.0
 11
-430.0000000000061
 21
220.0000000009628
 31
0.0
1001
REVIT
1002
{
1070
     1
1000
22424240
1002
}
1002
{
1070
     5
1000
22369145
1002
}
  0
LINE
  5
177
330
16F
100
AcDbEntity
  8
A-JAN-___-___-EXI
100
AcDbLine
 10
-430.0000000000061
 20
220.0000000009628
 30
0.0
 11
-430.0000000000061
 21
-219.9999999999995
 31
0.0
1001
REVIT
1002
{
1070
     1
1000
22424240
1002
}
1002
{
1070
     5
1000
22369145
1002
}
  0
LINE
  5
178
330
16F
100
AcDbEntity
  8
A-JAN-___-___-EXI
100
AcDbLine
 10
-368.0000000000073
 20
1016.000000000964
 30
0.0
 11
-398.0000000000091
 21
1016.000000000964
 31
0.0
1001
REVIT
1002
{
1070
     1
1000
22424240
1002
}
1002
{
1070
     5
1000
22369145
1002
}
  0
LINE
  5
179
330
16F
100
AcDbEntity
  8
A-JAN-___-___-EXI
100
AcDbLine
 10
-398.0000000000091
 20
1016.000000000964
 30
0.0
 11
-398.0000000000091
 21
220.0000000009639
 31
0.0
1001
REVIT
1002
{
1070
     1
1000
22424240
1002
}
1002
{
1070
     5
1000
22369145
1002
}
  0
LINE
  5
17A
330
16F
100
AcDbEntity
  8
A-JAN-___-___-EXI
100
AcDbLine
 10
-398.0000000000091
 20
220.0000000009639
 30
0.0
 11
-368.0000000000073
 21
220.000000000964
 31
0.0
1001
REVIT
1002
{
1070
     1
1000
22424240
1002
}
1002
{
1070
     5
1000
22369145
1002
}
  0
LINE
  5
17B
330
16F
100
AcDbEntity
  8
A-JAN-___-___-EXI
100
AcDbLine
 10
-368.0000000000073
 20
220.000000000964
 30
0.0
 11
-368.0000000000073
 21
1016.000000000964
 31
0.0
1001
REVIT
1002
{
1070
     1
1000
22424240
1002
}
1002
{
1070
     5
1000
22369145
1002
}
  0
ARC
  5
17C
330
16F
100
AcDbEntity
  8
A-POR-___-___-EXI
100
AcDbCircle
 10
-398.0000000000091
 20
220.0000000009639
 30
0.0
 40
796.0000000000023
100
AcDbArc
 50
359.9999999999995
 51
89.99999999999982
1001
REVIT
1002
{
1070
     1
1000
22424240
1002
}
1002
{
1070
     5
1000
22369145
1002
}
1002
{
1070
     3
1000
-2000027
1002
}
  0
ENDBLK
  5
17E
330
16F
100
AcDbEntity
  8
0
100
AcDbBlockEnd
  0
BLOCK
  5
1B6
330
1A8
100
AcDbEntity
  8
0
100
AcDbBlockBegin
  2
porta multiplas_original - Simples - 80 cm-22452035-Planta baixa - Térreo_
 70
     0
 10
0.0
 20
0.0
 30
0.0
  3
porta multiplas_original - Simples - 80 cm-22452035-Planta baixa - Térreo_
  1

  0
LINE
  5
1A9
330
1A8
100
AcDbEntity
  8
A-JAN-___-___-EXI
100
AcDbLine
 10
399.9999999999914
 20
199.9999999999996
 30
0.0
 11
429.9999999999932
 21
199.9999999999997
 31
0.0
1001
REVIT
1002
{
1070
     1
1000
22451621
1002
}
1002
{
1070
     5
1000
22369145
1002
}
  0
LINE
  5
1AA
330
1A8
100
AcDbEntity
  8
A-JAN-___-___-EXI
100
AcDbLine
 10
399.9999999999914
 20
-200.000000000962
 30
0.0
 11
399.9999999999914
 21
199.9999999999996
 31
0.0
1001
REVIT
1002
{
1070
     1
1000
22451621
1002
}
1002
{
1070
     5
1000
22369145
1002
}
  0
LINE
  5
1AB
330
1A8
100
AcDbEntity
  8
A-JAN-___-___-EXI
100
AcDbLine
 10
429.9999999999932
 20
-200.0000000009619
 30
0.0
 11
399.9999999999914
 21
-200.000000000962
 31
0.0
1001
REVIT
1002
{
1070
     1
1000
22451621
1002
}
1002
{
1070
     5
1000
22369145
1002
}
  0
LINE
  5
1AC
330
1A8
100
AcDbEntity
  8
A-JAN-___-___-EXI
100
AcDbLine
 10
429.9999999999932
 20
199.9999999999997
 30
0.0
 11
429.9999999999932
 21
-200.0000000009619
 31
0.0
1001
REVIT
1002
{
1070
     1
1000
22451621
1002
}
1002
{
1070
     5
1000
22369145
1002
}
  0
LINE
  5
1AD
330
1A8
100
AcDbEntity
  8
A-JAN-___-___-EXI
100
AcDbLine
 10
-430.0000000000061
 20
-200.0000000009613
 30
0.0
 11
-430.0000000000061
 21
200.0000000000003
 31
0.0
1001
REVIT
1002
{
1070
     1
1000
22451621
1002
}
1002
{
1070
     5
1000
22369145
1002
}
  0
LINE
  5
1AE
330
1A8
100
AcDbEntity
  8
A-JAN-___-___-EXI
100
AcDbLine
 10
-400.0000000000087
 20
-200.0000000009613
 30
0.0
 11
-430.0000000000061
 21
-200.0000000009613
 31
0.0
1001
REVIT
1002
{
1070
     1
1000
22451621
1002
}
1002
{
1070
     5
1000
22369145
1002
}
  0
LINE
  5
1AF
330
1A8
100
AcDbEntity
  8
A-JAN-___-___-EXI
100
AcDbLine
 10
-400.0000000000087
 20
200.0000000000003
 30
0.0
 11
-400.0000000000087
 21
-200.0000000009613
 31
0.0
1001
REVIT
1002
{
1070
     1
1000
22451621
1002
}
1002
{
1070
     5
1000
22369145
1002
}
  0
LINE
  5
1B0
330
1A8
100
AcDbEntity
  8
A-JAN-___-___-EXI
100
AcDbLine
 10
-430.0000000000061
 20
200.0000000000003
 30
0.0
 11
-400.0000000000087
 21
200.0000000000003
 31
0.0
1001
REVIT
1002
{
1070
     1
1000
22451621
1002
}
1002
{
1070
     5
1000
22369145
1002
}
  0
LINE
  5
1B1
330
1A8
100
AcDbEntity
  8
A-JAN-___-___-EXI
100
AcDbLine
 10
-368.0000000000073
 20
-200.0000000009634
 30
0.0
 11
-368.0000000000029
 21
-996.0000000009632
 31
0.0
1001
REVIT
1002
{
1070
     1
1000
22451621
1002
}
1002
{
1070
     5
1000
22369145
1002
}
  0
LINE
  5
1B2
330
1A8
100
AcDbEntity
  8
A-JAN-___-___-EXI
100
AcDbLine
 10
-398.0000000000091
 20
-200.0000000009634
 30
0.0
 11
-368.0000000000073
 21
-200.0000000009634
 31
0.0
1001
REVIT
1002
{
1070
     1
1000
22451621
1002
}
1002
{
1070
     5
1000
22369145
1002
}
  0
LINE
  5
1B3
330
1A8
100
AcDbEntity
  8
A-JAN-___-___-EXI
100
AcDbLine
 10
-398.0000000000048
 20
-996.0000000009632
 30
0.0
 11
-398.0000000000091
 21
-200.0000000009634
 31
0.0
1001
REVIT
1002
{
1070
     1
1000
22451621
1002
}
1002
{
1070
     5
1000
22369145
1002
}
  0
LINE
  5
1B4
330
1A8
100
AcDbEntity
  8
A-JAN-___-___-EXI
100
AcDbLine
 10
-368.0000000000029
 20
-996.0000000009632
 30
0.0
 11
-398.0000000000048
 21
-996.0000000009632
 31
0.0
1001
REVIT
1002
{
1070
     1
1000
22451621
1002
}
1002
{
1070
     5
1000
22369145
1002
}
  0
ARC
  5
1B5
330
1A8
100
AcDbEntity
  8
A-POR-___-___-EXI
100
AcDbCircle
 10
-398.0000000000091
 20
-200.0000000009634
 30
0.0
 40
795.9999999999978
100
AcDbArc
 50
269.9999999999998
 51
0.0000000000001209
1001
REVIT
1002
{
1070
     1
1000
22451621
1002
}
1002
{
1070
     5
1000
22369145
1002
}
1002
{
1070
     3
1000
-2000027
1002
}
  0
ENDBLK
  5
1B7
330
1A8
100
AcDbEntity
  8
0
100
AcDbBlockEnd
  0
BLOCK
  5
240
330
23A
100
AcDbEntity
  8
0
100
AcDbBlockBegin
  2
SVG - A4-22486380-Não nomeada
 70
     0
 10
0.0
 20
0.0
 30
0.0
  3
SVG - A4-22486380-Não nomeada
  1

  0
LINE
  5
23C
330
23A
100
AcDbEntity
  8
A-PIS-___-___-EXI
100
AcDbLine
 10
64.29285070883699
 20
356.4999999999859
 30
0.0
 11
64.29285070883699
 21
59.49999999998593
 31
0.0
1001
REVIT
1002
{
1070
     1
1000
22486395
1002
}
1002
{
1070
     5
1000
22486380
1002
}
1002
{
1070
     3
1000
-2000281
1002
}
  0
LINE
  5
23D
330
23A
100
AcDbEntity
  8
A-PIS-___-___-EXI
100
AcDbLine
 10
64.29285070883699
 20
59.49999999998593
 30
0.0
 11
274.292850708837
 21
59.49999999998593
 31
0.0
1001
REVIT
1002
{
1070
     1
1000
22486395
1002
}
1002
{
1070
     5
1000
22486380
1002
}
1002
{
1070
     3
1000
-2000281
1002
}
  0
LINE
  5
23E
330
23A
100
AcDbEntity
  8
A-PIS-___-___-EXI
100
AcDbLine
 10
274.292850708837
 20
59.49999999998593
 30
0.0
 11
274.292850708837
 21
356.4999999999859
 31
0.0
1001
REVIT
1002
{
1070
     1
1000
22486395
1002
}
1002
{
1070
     5
1000
22486380
1002
}
1002
{
1070
     3
1000
-2000281
1002
}
  0
LINE
  5
23F
330
23A
100
AcDbEntity
  8
A-PIS-___-___-EXI
100
AcDbLine
 10
274.292850708837
 20
356.4999999999859
 30
0.0
 11
64.29285070883699
 21
356.4999999999859
 31
0.0
1001
REVIT
1002
{
1070
     1
1000
22486395
1002
}
1002
{
1070
     5
1000
22486380
1002
}
1002
{
1070
     3
1000
-2000281
1002
}
  0
ENDBLK
  5
241
330
23A
100
AcDbEntity
  8
0
100
AcDbBlockEnd
  0
ENDSEC
  0
SECTION
  2
ENTITIES
  0
HATCH
  5
8C
330
70
100
AcDbEntity
  8
A-ALV-___-___-EXI
 62
    11
100
AcDbHatch
 10
0.0
 20
0.0
 30
0.0
210
0.0
220
0.0
230
1.0
  2
SOLID
 70
     1
 71
     0
 91
        1
 92
        1
 93
        5
 72
     1
 10
13469.21089456364
 20
-10795.35950051941
 11
13869.21089456364
 21
-10795.35950051942
 72
     1
 10
13869.21089456364
 20
-10795.35950051942
 11
13869.21089456363
 21
-9095.359500519418
 72
     1
 10
13869.21089456363
 20
-9095.359500519418
 11
13469.21089456364
 21
-9095.359500519418
 72
     1
 10
13469.21089456364
 20
-9095.359500519418
 11
13469.21089456364
 21
-9535.359500519417
 72
     1
 10
13469.21089456364
 20
-9535.359500519417
 11
13469.21089456364
 21
-10795.35950051941
 97
        0
 75
     0
 76
     1
 98
        1
 10
0.0
 20
0.0
450
        0
451
        0
460
0.0
461
0.0
452
        0
462
0.0
453
        0
470

1001
REVIT
1002
{
1070
     1
1000
22422673
1002
}
1002
{
1070
     5
1000
22450565
1002
}
1002
{
1070
     2
1000
-2000011
1002
}
1002
{
1070
     3
1000
-2000588
1002
}
  0
HATCH
  5
95
330
70
100
AcDbEntity
  8
A-ALV-___-___-EXI
 62
    11
100
AcDbHatch
 10
0.0
 20
0.0
 30
0.0
210
0.0
220
0.0
230
1.0
  2
SOLID
 70
     1
 71
     0
 91
        2
 92
        1
 93
        4
 72
     1
 10
1930.178818063899
 20
-9535.35950051944
 11
6809.210894563648
 21
-9535.359500519433
 72
     1
 10
6809.210894563648
 20
-9535.359500519433
 11
6809.21089456365
 21
-9095.359500519432
 72
     1
 10
6809.21089456365
 20
-9095.359500519432
 11
1930.1788180639
 21
-9095.359500519439
 72
     1
 10
1930.178818063899
 20
-9095.359500519439
 11
1930.178818063899
 21
-9535.35950051944
 97
        0
 92
        1
 93
        4
 72
     1
 10
7669.210894563647
 20
-9535.35950051943
 11
8490.17881806391
 21
-9535.359500519428
 72
     1
 10
8490.17881806391
 20
-9535.359500519428
 11
8490.178818063913
 21
-9095.359500519426
 72
     1
 10
8490.178818063913
 20
-9095.359500519426
 11
7669.210894563649
 21
-9095.359500519426
 72
     1
 10
7669.210894563649
 20
-9095.359500519426
 11
7669.210894563647
 21
-9535.35950051943
 97
        0
 75
     0
 76
     1
 98
        1
 10
0.0
 20
0.0
450
        0
451
        0
460
0.0
461
0.0
452
        0
462
0.0
453
        0
470

1001
REVIT
1002
{
1070
     1
1000
22422674
1002
}
1002
{
1070
     5
1000
22422765
1002
}
1002
{
1070
     2
1000
-2000011
1002
}
1002
{
1070
     3
1000
-2000588
1002
}
  0
HATCH
  5
9A
330
70
100
AcDbEntity
  8
A-ALV-___-___-EXI
 62
    11
100
AcDbHatch
 10
0.0
 20
0.0
 30
0.0
210
0.0
220
0.0
230
1.0
  2
SOLID
 70
     1
 71
     0
 91
        1
 92
        1
 93
        4
 72
     1
 10
6489.210894563666
 20
-21045.35950051945
 11
6489.210894563661
 21
-19165.35950051944
 72
     1
 10
6489.210894563661
 20
-19165.35950051944
 11
6049.210894563657
 21
-19165.35950051945
 72
     1
 10
6049.210894563657
 20
-19165.35950051945
 11
6049.210894563664
 21
-21045.35950051945
 72
     1
 10
6049.210894563664
 20
-21045.35950051945
 11
6489.210894563666
 21
-21045.35950051945
 97
        0
 75
     0
 76
     1
 98
        1
 10
0.0
 20
0.0
450
        0
451
        0
460
0.0
461
0.0
452
        0
462
0.0
453
        0
470

1001
REVIT
1002
{
1070
     1
1000
22422675
1002
}
1002
{
1070
     5
1000
22422765
1002
}
1002
{
1070
     2
1000
-2000011
1002
}
1002
{
1070
     3
1000
-2000588
1002
}
  0
HATCH
  5
A5
330
70
100
AcDbEntity
  8
A-ALV-___-___-EXI
 62
    11
100
AcDbHatch
 10
0.0
 20
0.0
 30
0.0
210
0.0
220
0.0
230
1.0
  2
SOLID
 70
     1
 71
     0
 91
        2
 92
        1
 93
        5
 72
     1
 10
9831.357190891695
 20
-21045.35950051944
 11
12349.21089456366
 21
-21045.35950051944
 72
     1
 10
12349.21089456366
 20
-21045.35950051944
 11
12349.21089456366
 21
-20645.35950051944
 72
     1
 10
12349.21089456366
 20
-20645.35950051944
 11
9831.357190891695
 21
-20645.35950051944
 72
     1
 10
9831.357190891695
 20
-20645.35950051944
 11
9831.357190891695
 21
-20814.81176744955
 72
     1
 10
9831.357190891695
 20
-20814.81176744955
 11
9831.357190891695
 21
-21045.35950051944
 97
        0
 92
        1
 93
        5
 72
     1
 10
13209.21089456366
 20
-21045.35950051944
 11
13869.21089456366
 21
-21045.35950051944
 72
     1
 10
13869.21089456366
 20
-21045.35950051944
 11
13869.21089456366
 21
-20645.35950051944
 72
     1
 10
13869.21089456366
 20
-20645.35950051944
 11
13209.21089456366
 21
-20645.35950051944
 72
     1
 10
13209.21089456366
 20
-20645.35950051944
 11
13209.21089456366
 21
-20814.81176744956
 72
     1
 10
13209.21089456366
 20
-20814.81176744956
 11
13209.21089456366
 21
-21045.35950051944
 97
        0
 75
     0
 76
     1
 98
        1
 10
0.0
 20
0.0
450
        0
451
        0
460
0.0
461
0.0
452
        0
462
0.0
453
        0
470

1001
REVIT
1002
{
1070
     1
1000
22422676
1002
}
1002
{
1070
     5
1000
22450565
1002
}
1002
{
1070
     2
1000
-2000011
1002
}
1002
{
1070
     3
1000
-2000588
1002
}
  0
HATCH
  5
AF
330
70
100
AcDbEntity
  8
A-ALV-___-___-EXI
 62
    11
100
AcDbHatch
 10
0.0
 20
0.0
 30
0.0
210
0.0
220
0.0
230
1.0
  2
SOLID
 70
     1
 71
     0
 91
        2
 92
        1
 93
        4
 72
     1
 10
13469.21089456365
 20
-17075.35950051942
 11
13469.21089456365
 21
-16855.35950051942
 72
     1
 10
13469.21089456365
 20
-16855.35950051942
 11
10379.21089456366
 21
-16855.35950051942
 72
     1
 10
10379.21089456366
 20
-16855.35950051942
 11
10379.21089456367
 21
-17075.35950051942
 72
     1
 10
10379.21089456367
 20
-17075.35950051942
 11
13469.21089456365
 21
-17075.35950051942
 97
        0
 92
        1
 93
        5
 72
     1
 10
8560.220677647526
 20
-17075.35950051942
 11
9519.210894563666
 21
-17075.35950051943
 72
     1
 10
9519.210894563666
 20
-17075.35950051943
 11
9519.210894563665
 21
-16855.35950051943
 72
     1
 10
9519.210894563665
 20
-16855.35950051943
 11
6489.210894563651
 21
-16855.35950051942
 72
     1
 10
6489.210894563651
 20
-16855.35950051942
 11
6489.210894563655
 21
-17075.35950051943
 72
     1
 10
6489.210894563655
 20
-17075.35950051943
 11
8560.220677647526
 21
-17075.35950051942
 97
        0
 75
     0
 76
     1
 98
        1
 10
0.0
 20
0.0
450
        0
451
        0
460
0.0
461
0.0
452
        0
462
0.0
453
        0
470

1001
REVIT
1002
{
1070
     1
1000
22422884
1002
}
1002
{
1070
     5
1000
17583107
1002
}
1002
{
1070
     2
1000
-2000011
1002
}
1002
{
1070
     3
1000
-2000588
1002
}
  0
HATCH
  5
B4
330
70
100
AcDbEntity
  8
A-ALV-___-___-EXI
 62
    11
100
AcDbHatch
 10
0.0
 20
0.0
 30
0.0
210
0.0
220
0.0
230
1.0
  2
SOLID
 70
     1
 71
     0
 91
        1
 92
        1
 93
        4
 72
     1
 10
10869.21089456368
 20
-13635.35950051942
 11
13469.21089456365
 21
-13635.35950051941
 72
     1
 10
13469.21089456365
 20
-13635.35950051941
 11
13469.21089456365
 21
-13415.35950051941
 72
     1
 10
13469.21089456365
 20
-13415.35950051941
 11
10869.21089456368
 21
-13415.35950051941
 72
     1
 10
10869.21089456368
 20
-13415.35950051941
 11
10869.21089456368
 21
-13635.35950051942
 97
        0
 75
     0
 76
     1
 98
        1
 10
0.0
 20
0.0
450
        0
451
        0
460
0.0
461
0.0
452
        0
462
0.0
453
        0
470

1001
REVIT
1002
{
1070
     1
1000
22423244
1002
}
1002
{
1070
     5
1000
17583107
1002
}
1002
{
1070
     2
1000
-2000011
1002
}
1002
{
1070
     3
1000
-2000588
1002
}
  0
HATCH
  5
C2
330
70
100
AcDbEntity
  8
A-ALV-___-___-EXI
 62
    11
100
AcDbHatch
 10
0.0
 20
0.0
 30
0.0
210
0.0
220
0.0
230
1.0
  2
SOLID
 70
     1
 71
     0
 91
        3
 92
        1
 93
        4
 72
     1
 10
10869.21089456367
 20
-16855.35950051943
 11
10869.21089456367
 21
-14895.35950051944
 72
     1
 10
10869.21089456367
 20
-14895.35950051944
 11
10649.21089456367
 21
-14895.35950051943
 72
     1
 10
10649.21089456367
 20
-14895.35950051943
 11
10649.21089456366
 21
-16855.35950051942
 72
     1
 10
10649.21089456366
 20
-16855.35950051942
 11
10869.21089456367
 21
-16855.35950051943
 97
        0
 92
        1
 93
        5
 72
     1
 10
10649.21089456367
 20
-14035.35950051943
 11
10869.21089456367
 21
-14035.35950051943
 72
     1
 10
10869.21089456367
 20
-14035.35950051943
 11
10869.21089456368
 21
-11215.35950051942
 72
     1
 10
10869.21089456368
 20
-11215.35950051942
 11
10649.21089456368
 21
-11215.35950051942
 72
     1
 10
10649.21089456368
 20
-11215.35950051942
 11
10649.21089456367
 21
-12756.78631471891
 72
     1
 10
10649.21089456367
 20
-12756.78631471891
 11
10649.21089456367
 21
-14035.35950051943
 97
        0
 92
        1
 93
        4
 72
     1
 10
10869.21089456367
 20
-10355.35950051942
 11
10869.21089456368
 21
-9535.359500519422
 72
     1
 10
10869.21089456368
 20
-9535.359500519422
 11
10649.21089456368
 21
-9535.359500519426
 72
     1
 10
10649.21089456368
 20
-9535.359500519426
 11
10649.21089456367
 21
-10355.35950051941
 72
     1
 10
10649.21089456367
 20
-10355.35950051941
 11
10869.21089456367
 21
-10355.35950051942
 97
        0
 75
     0
 76
     1
 98
        1
 10
0.0
 20
0.0
450
        0
451
        0
460
0.0
461
0.0
452
        0
462
0.0
453
        0
470

1001
REVIT
1002
{
1070
     1
1000
22423324
1002
}
1002
{
1070
     5
1000
17583107
1002
}
1002
{
1070
     2
1000
-2000011
1002
}
1002
{
1070
     3
1000
-2000588
1002
}
  0
HATCH
  5
C7
330
70
100
AcDbEntity
  8
A-ALV-___-___-EXI
 62
    11
100
AcDbHatch
 10
0.0
 20
0.0
 30
0.0
210
0.0
220
0.0
230
1.0
  2
SOLID
 70
     1
 71
     0
 91
        1
 92
        1
 93
        4
 72
     1
 10
13869.21089456365
 20
-14875.35950051942
 11
13869.21089456364
 21
-11335.35950051942
 72
     1
 10
13869.21089456364
 20
-11335.35950051942
 11
13469.21089456364
 21
-11335.35950051941
 72
     1
 10
13469.21089456364
 20
-11335.35950051941
 11
13469.21089456364
 21
-14875.35950051942
 72
     1
 10
13469.21089456364
 20
-14875.35950051942
 11
13869.21089456365
 21
-14875.35950051942
 97
        0
 75
     0
 76
     1
 98
        1
 10
0.0
 20
0.0
450
        0
451
        0
460
0.0
461
0.0
452
        0
462
0.0
453
        0
470

1001
REVIT
1002
{
1070
     1
1000
22426384
1002
}
1002
{
1070
     5
1000
22450565
1002
}
1002
{
1070
     2
1000
-2000011
1002
}
1002
{
1070
     3
1000
-2000588
1002
}
  0
HATCH
  5
CD
330
70
100
AcDbEntity
  8
A-ALV-___-___-EXI
 62
    11
100
AcDbHatch
 10
0.0
 20
0.0
 30
0.0
210
0.0
220
0.0
230
1.0
  2
SOLID
 70
     1
 71
     0
 91
        1
 92
        1
 93
        5
 72
     1
 10
13469.21089456365
 20
-18295.35950051942
 11
13869.21089456366
 21
-18295.35950051943
 72
     1
 10
13869.21089456366
 20
-18295.35950051943
 11
13869.21089456365
 21
-15655.35950051943
 72
     1
 10
13869.21089456365
 20
-15655.35950051943
 11
13469.21089456365
 21
-15656.51457548392
 72
     1
 10
13469.21089456365
 20
-15656.51457548392
 11
13469.21089456365
 21
-17075.35950051942
 72
     1
 10
13469.21089456365
 20
-17075.35950051942
 11
13469.21089456365
 21
-18295.35950051942
 97
        0
 75
     0
 76
     1
 98
        1
 10
0.0
 20
0.0
450
        0
451
        0
460
0.0
461
0.0
452
        0
462
0.0
453
        0
470

1001
REVIT
1002
{
1070
     1
1000
22426586
1002
}
1002
{
1070
     5
1000
22450565
1002
}
1002
{
1070
     2
1000
-2000011
1002
}
1002
{
1070
     3
1000
-2000588
1002
}
  0
HATCH
  5
D3
330
70
100
AcDbEntity
  8
A-ALV-___-___-EXI
 62
    11
100
AcDbHatch
 10
0.0
 20
0.0
 30
0.0
210
0.0
220
0.0
230
1.0
  2
SOLID
 70
     1
 71
     0
 91
        1
 92
        1
 93
        5
 72
     1
 10
13469.21089456366
 20
-20645.35950051944
 11
13869.21089456366
 21
-20645.35950051944
 72
     1
 10
13869.21089456366
 20
-20645.35950051944
 11
13869.21089456366
 21
-19075.35950051943
 72
     1
 10
13869.21089456366
 20
-19075.35950051943
 11
13469.21089456365
 21
-19075.35950051943
 72
     1
 10
13469.21089456365
 20
-19075.35950051943
 11
13469.21089456365
 21
-19105.35950051943
 72
     1
 10
13469.21089456365
 20
-19105.35950051943
 11
13469.21089456366
 21
-20645.35950051944
 97
        0
 75
     0
 76
     1
 98
        1
 10
0.0
 20
0.0
450
        0
451
        0
460
0.0
461
0.0
452
        0
462
0.0
453
        0
470

1001
REVIT
1002
{
1070
     1
1000
22426668
1002
}
1002
{
1070
     5
1000
22450565
1002
}
1002
{
1070
     2
1000
-2000011
1002
}
1002
{
1070
     3
1000
-2000588
1002
}
  0
HATCH
  5
DD
330
70
100
AcDbEntity
  8
A-ALV-___-___-EXI
 62
    11
100
AcDbHatch
 10
0.0
 20
0.0
 30
0.0
210
0.0
220
0.0
230
1.0
  2
SOLID
 70
     1
 71
     0
 91
        2
 92
        1
 93
        4
 72
     1
 10
7219.210894563659
 20
-21045.35950051944
 11
7219.210894563659
 21
-20645.35950051944
 72
     1
 10
7219.210894563659
 20
-20645.35950051944
 11
6489.210894563666
 21
-20645.35950051944
 72
     1
 10
6489.210894563666
 20
-20645.35950051944
 11
6489.210894563666
 21
-21045.35950051945
 72
     1
 10
6489.210894563666
 20
-21045.35950051945
 11
7219.210894563659
 21
-21045.35950051944
 97
        0
 92
        1
 93
        5
 72
     1
 10
9831.357190891695
 20
-21045.35950051944
 11
9831.357190891695
 21
-20645.35950051944
 72
     1
 10
9831.357190891695
 20
-20645.35950051944
 11
8079.21089456366
 21
-20645.35950051944
 72
     1
 10
8079.21089456366
 20
-20645.35950051944
 11
8079.21089456366
 21
-21045.35950051944
 72
     1
 10
8079.21089456366
 20
-21045.35950051944
 11
8560.220677647528
 21
-21045.35950051944
 72
     1
 10
8560.220677647528
 20
-21045.35950051944
 11
9831.357190891695
 21
-21045.35950051944
 97
        0
 75
     0
 76
     1
 98
        1
 10
0.0
 20
0.0
450
        0
451
        0
460
0.0
461
0.0
452
        0
462
0.0
453
        0
470

1001
REVIT
1002
{
1070
     1
1000
22426935
1002
}
1002
{
1070
     5
1000
22450565
1002
}
1002
{
1070
     2
1000
-2000011
1002
}
1002
{
1070
     3
1000
-2000588
1002
}
  0
HATCH
  5
E2
330
70
100
AcDbEntity
  8
A-ALV-___-___-EXI
 62
    11
100
AcDbHatch
 10
0.0
 20
0.0
 30
0.0
210
0.0
220
0.0
230
1.0
  2
SOLID
 70
     1
 71
     0
 91
        1
 92
        1
 93
        4
 72
     1
 10
6049.210894563646
 20
-11535.35950051943
 11
6489.210894563647
 21
-11535.35950051943
 72
     1
 10
6489.210894563647
 20
-11535.35950051943
 11
6489.210894563638
 21
-9535.359500519433
 72
     1
 10
6489.210894563638
 20
-9535.359500519433
 11
6049.210894563639
 21
-9535.359500519431
 72
     1
 10
6049.210894563639
 20
-9535.359500519431
 11
6049.210894563646
 21
-11535.35950051943
 97
        0
 75
     0
 76
     1
 98
        1
 10
0.0
 20
0.0
450
        0
451
        0
460
0.0
461
0.0
452
        0
462
0.0
453
        0
470

1001
REVIT
1002
{
1070
     1
1000
22427154
1002
}
1002
{
1070
     5
1000
22422765
1002
}
1002
{
1070
     2
1000
-2000011
1002
}
1002
{
1070
     3
1000
-2000588
1002
}
  0
HATCH
  5
EB
330
70
100
AcDbEntity
  8
A-ALV-___-___-EXI
 62
    11
100
AcDbHatch
 10
0.0
 20
0.0
 30
0.0
210
0.0
220
0.0
230
1.0
  2
SOLID
 70
     1
 71
     0
 91
        2
 92
        1
 93
        4
 72
     1
 10
8070.178818063904
 20
-9095.359500519426
 11
8070.178818063906
 21
-8455.359500519429
 72
     1
 10
8070.178818063906
 20
-8455.359500519429
 11
7670.178818063904
 21
-8455.359500519429
 72
     1
 10
7670.178818063904
 20
-8455.359500519429
 11
7670.178818063902
 21
-9095.359500519426
 72
     1
 10
7670.178818063902
 20
-9095.359500519426
 11
8070.178818063904
 21
-9095.359500519426
 97
        0
 92
        1
 93
        4
 72
     1
 10
8070.178818063904
 20
-7595.359500519427
 11
8070.178818063912
 21
-5655.359500519423
 72
     1
 10
8070.178818063912
 20
-5655.359500519423
 11
7670.178818063908
 21
-5655.359500519422
 72
     1
 10
7670.178818063908
 20
-5655.359500519422
 11
7670.178818063902
 21
-7595.359500519427
 72
     1
 10
7670.178818063902
 20
-7595.359500519427
 11
8070.178818063904
 21
-7595.359500519427
 97
        0
 75
     0
 76
     1
 98
        1
 10
0.0
 20
0.0
450
        0
451
        0
460
0.0
461
0.0
452
        0
462
0.0
453
        0
470

1001
REVIT
1002
{
1070
     1
1000
22451261
1002
}
1002
{
1070
     5
1000
22450565
1002
}
1002
{
1070
     2
1000
-2000011
1002
}
1002
{
1070
     3
1000
-2000588
1002
}
  0
HATCH
  5
F1
330
70
100
AcDbEntity
  8
A-ALV-___-___-EXI
 62
    11
100
AcDbHatch
 10
0.0
 20
0.0
 30
0.0
210
0.0
220
0.0
230
1.0
  2
SOLID
 70
     1
 71
     0
 91
        1
 92
        1
 93
        5
 72
     1
 10
7670.178818063908
 20
-6055.359500519424
 11
7670.178818063911
 21
-5655.359500519422
 72
     1
 10
7670.178818063911
 20
-5655.359500519422
 11
1930.178818063903
 21
-5655.359500519415
 72
     1
 10
1930.178818063903
 20
-5655.359500519415
 11
1930.178818063903
 21
-6055.359500519415
 72
     1
 10
1930.178818063903
 20
-6055.359500519415
 11
2330.178818063899
 21
-6055.359500519415
 72
     1
 10
2330.178818063899
 20
-6055.359500519415
 11
7670.178818063908
 21
-6055.359500519424
 97
        0
 75
     0
 76
     1
 98
        1
 10
0.0
 20
0.0
450
        0
451
        0
460
0.0
461
0.0
452
        0
462
0.0
453
        0
470

1001
REVIT
1002
{
1070
     1
1000
22451320
1002
}
1002
{
1070
     5
1000
22450565
1002
}
1002
{
1070
     2
1000
-2000011
1002
}
1002
{
1070
     3
1000
-2000588
1002
}
  0
HATCH
  5
F6
330
70
100
AcDbEntity
  8
A-ALV-___-___-EXI
 62
    11
100
AcDbHatch
 10
0.0
 20
0.0
 30
0.0
210
0.0
220
0.0
230
1.0
  2
SOLID
 70
     1
 71
     0
 91
        1
 92
        1
 93
        4
 72
     1
 10
1930.178818063895
 20
-7055.359500519415
 11
2330.178818063895
 21
-7055.359500519412
 72
     1
 10
2330.178818063895
 20
-7055.359500519412
 11
2330.178818063899
 21
-6055.359500519415
 72
     1
 10
2330.178818063899
 20
-6055.359500519415
 11
1930.178818063903
 21
-6055.359500519415
 72
     1
 10
1930.178818063903
 20
-6055.359500519415
 11
1930.178818063895
 21
-7055.359500519415
 97
        0
 75
     0
 76
     1
 98
        1
 10
0.0
 20
0.0
450
        0
451
        0
460
0.0
461
0.0
452
        0
462
0.0
453
        0
470

1001
REVIT
1002
{
1070
     1
1000
22451358
1002
}
1002
{
1070
     5
1000
22450565
1002
}
1002
{
1070
     2
1000
-2000011
1002
}
1002
{
1070
     3
1000
-2000588
1002
}
  0
HATCH
  5
FC
330
70
100
AcDbEntity
  8
A-ALV-___-___-EXI
 62
    11
100
AcDbHatch
 10
0.0
 20
0.0
 30
0.0
210
0.0
220
0.0
230
1.0
  2
SOLID
 70
     1
 71
     0
 91
        1
 92
        1
 93
        5
 72
     1
 10
6049.210894563663
 20
-18435.35950051944
 11
6489.210894563662
 21
-18435.35950051944
 72
     1
 10
6489.210894563662
 20
-18435.35950051944
 11
6489.210894563647
 21
-12275.35950051943
 72
     1
 10
6489.210894563647
 20
-12275.35950051943
 11
6049.210894563643
 21
-12275.35950051944
 72
     1
 10
6049.210894563643
 20
-12275.35950051944
 11
6049.210894563663
 21
-18375.35950051944
 72
     1
 10
6049.210894563663
 20
-18375.35950051944
 11
6049.210894563663
 21
-18435.35950051944
 97
        0
 75
     0
 76
     1
 98
        1
 10
0.0
 20
0.0
450
        0
451
        0
460
0.0
461
0.0
452
        0
462
0.0
453
        0
470

1001
REVIT
1002
{
1070
     1
1000
22452449
1002
}
1002
{
1070
     5
1000
22422765
1002
}
1002
{
1070
     2
1000
-2000011
1002
}
1002
{
1070
     3
1000
-2000588
1002
}
  0
HATCH
  5
101
330
70
100
AcDbEntity
  8
A-ALV-___-___-EXI
 62
    11
100
AcDbHatch
 10
0.0
 20
0.0
 30
0.0
210
0.0
220
0.0
230
1.0
  2
SOLID
 70
     1
 71
     0
 91
        1
 92
        1
 93
        4
 72
     1
 10
9469.210894563632
 20
-9535.359500519428
 11
13469.21089456364
 21
-9535.359500519417
 72
     1
 10
13469.21089456364
 20
-9535.359500519417
 11
13469.21089456364
 21
-9095.359500519418
 72
     1
 10
13469.21089456364
 20
-9095.359500519418
 11
9469.210894563634
 21
-9095.359500519426
 72
     1
 10
9469.210894563634
 20
-9095.359500519426
 11
9469.210894563632
 21
-9535.359500519428
 97
        0
 75
     0
 76
     1
 98
        1
 10
0.0
 20
0.0
450
        0
451
        0
460
0.0
461
0.0
452
        0
462
0.0
453
        0
470

1001
REVIT
1002
{
1070
     1
1000
22452887
1002
}
1002
{
1070
     5
1000
22422765
1002
}
1002
{
1070
     2
1000
-2000011
1002
}
1002
{
1070
     3
1000
-2000588
1002
}
  0
HATCH
  5
106
330
70
100
AcDbEntity
  8
A-ALV-___-___-EXI
 62
    11
100
AcDbHatch
 10
0.0
 20
0.0
 30
0.0
210
0.0
220
0.0
230
1.0
  2
SOLID
 70
     1
 71
     0
 91
        1
 92
        1
 93
        4
 72
     1
 10
1930.178818063899
 20
-9095.359500519439
 11
2330.178818063899
 21
-9095.359500519439
 72
     1
 10
2330.178818063899
 20
-9095.359500519439
 11
2330.178818063895
 21
-7618.903643095916
 72
     1
 10
2330.178818063895
 20
-7618.903643095916
 11
1930.178818063895
 21
-7618.903643095918
 72
     1
 10
1930.178818063895
 20
-7618.903643095918
 11
1930.178818063899
 21
-9095.359500519439
 97
        0
 75
     0
 76
     1
 98
        1
 10
0.0
 20
0.0
450
        0
451
        0
460
0.0
461
0.0
452
        0
462
0.0
453
        0
470

1001
REVIT
1002
{
1070
     1
1000
22453732
1002
}
1002
{
1070
     5
1000
22450565
1002
}
1002
{
1070
     2
1000
-2000011
1002
}
1002
{
1070
     3
1000
-2000588
1002
}
  0
LINE
  5
110
330
70
100
AcDbEntity
  8
A-ALV-___-___-EXI
 62
     7
370
    35
100
AcDbLine
 10
7669.210894563666
 20
-9535.359500519428
 30
0.0
 11
8430.178818063929
 21
-9535.359500519428
 31
0.0
1001
REVIT
1002
{
1070
     1
1000
22422674
1002
}
1002
{
1070
     5
1000
22422765
1002
}
1002
{
1070
     2
1000
-2000011
1002
}
  0
LINE
  5
114
330
70
100
AcDbEntity
  8
A-POR-___-___-EXI
 62
   250
100
AcDbLine
 10
7639.210894563667
 20
-9535.359500519428
 30
0.0
 11
7637.210894563665
 21
-9535.359500519428
 31
0.0
1001
REVIT
1002
{
1070
     1
1000
22422674
1002
}
1002
{
1070
     5
1000
22422765
1002
}
1002
{
1070
     2
1000
-2000011
1002
}
  0
LINE
  5
115
330
70
100
AcDbEntity
  8
A-POR-___-___-EXI
 62
   250
100
AcDbLine
 10
7607.210894563666
 20
-9535.35950051943
 30
0.0
 11
6839.210894563668
 21
-9535.35950051943
 31
0.0
1001
REVIT
1002
{
1070
     1
1000
22422674
1002
}
1002
{
1070
     5
1000
22422765
1002
}
1002
{
1070
     2
1000
-2000011
1002
}
  0
LINE
  5
11E
330
70
100
AcDbEntity
  8
A-ALV-___-___-EXI
 62
     7
370
    35
100
AcDbLine
 10
12349.21089456367
 20
-20645.35950051942
 30
0.0
 11
8079.210894563678
 21
-20645.35950051944
 31
0.0
1001
REVIT
1002
{
1070
     1
1000
22422676
1002
}
1002
{
1070
     5
1000
22450565
1002
}
1002
{
1070
     2
1000
-2000011
1002
}
  0
LINE
  5
11F
330
70
100
AcDbEntity
  8
A-ALV-___-___-EXI
 62
     7
370
    35
100
AcDbLine
 10
8079.210894563678
 20
-21045.35950051943
 30
0.0
 11
12349.21089456367
 21
-21045.35950051942
 31
0.0
1001
REVIT
1002
{
1070
     1
1000
22422676
1002
}
1002
{
1070
     5
1000
22450565
1002
}
1002
{
1070
     2
1000
-2000011
1002
}
  0
LINE
  5
120
330
70
100
AcDbEntity
  8
A-POR-___-___-EXI
 62
   250
100
AcDbLine
 10
12379.21089456367
 20
-20645.35950051942
 30
0.0
 11
13147.21089456367
 21
-20645.35950051942
 31
0.0
1001
REVIT
1002
{
1070
     1
1000
22422676
1002
}
1002
{
1070
     5
1000
22450565
1002
}
1002
{
1070
     2
1000
-2000011
1002
}
  0
LINE
  5
121
330
70
100
AcDbEntity
  8
A-POR-___-___-EXI
 62
   250
100
AcDbLine
 10
13177.21089456367
 20
-20645.35950051942
 30
0.0
 11
13179.21089456367
 21
-20645.35950051942
 31
0.0
1001
REVIT
1002
{
1070
     1
1000
22422676
1002
}
1002
{
1070
     5
1000
22450565
1002
}
1002
{
1070
     2
1000
-2000011
1002
}
  0
LINE
  5
122
330
70
100
AcDbEntity
  8
A-POR-___-___-EXI
 62
   250
100
AcDbLine
 10
13179.21089456367
 20
-21045.35950051942
 30
0.0
 11
12379.21089456367
 21
-21045.35950051942
 31
0.0
1001
REVIT
1002
{
1070
     1
1000
22422676
1002
}
1002
{
1070
     5
1000
22450565
1002
}
1002
{
1070
     2
1000
-2000011
1002
}
  0
LINE
  5
128
330
70
100
AcDbEntity
  8
A-POR-___-___-EXI
 62
   250
100
AcDbLine
 10
9549.210894563682
 20
-16855.35950051942
 30
0.0
 11
10317.21089456368
 21
-16855.35950051942
 31
0.0
1001
REVIT
1002
{
1070
     1
1000
22422884
1002
}
1002
{
1070
     5
1000
17583107
1002
}
1002
{
1070
     2
1000
-2000011
1002
}
  0
LINE
  5
129
330
70
100
AcDbEntity
  8
A-POR-___-___-EXI
 62
   250
100
AcDbLine
 10
10347.21089456368
 20
-16855.35950051942
 30
0.0
 11
10349.21089456368
 21
-16855.35950051942
 31
0.0
1001
REVIT
1002
{
1070
     1
1000
22422884
1002
}
1002
{
1070
     5
1000
17583107
1002
}
1002
{
1070
     2
1000
-2000011
1002
}
  0
LINE
  5
12A
330
70
100
AcDbEntity
  8
A-POR-___-___-EXI
 62
   250
100
AcDbLine
 10
10349.21089456368
 20
-17075.35950051942
 30
0.0
 11
9549.210894563678
 21
-17075.35950051942
 31
0.0
1001
REVIT
1002
{
1070
     1
1000
22422884
1002
}
1002
{
1070
     5
1000
17583107
1002
}
1002
{
1070
     2
1000
-2000011
1002
}
  0
LINE
  5
12F
330
70
100
AcDbEntity
  8
A-ALV-___-___-EXI
 62
     7
370
    35
100
AcDbLine
 10
10649.21089456369
 20
-11215.35950051941
 30
0.0
 11
10649.21089456369
 21
-14035.35950051943
 31
0.0
1001
REVIT
1002
{
1070
     1
1000
22423324
1002
}
1002
{
1070
     5
1000
17583107
1002
}
1002
{
1070
     2
1000
-2000011
1002
}
  0
LINE
  5
134
330
70
100
AcDbEntity
  8
A-POR-___-___-EXI
 62
   250
100
AcDbLine
 10
10649.21089456368
 20
-14865.35950051943
 30
0.0
 11
10649.21089456369
 21
-14065.35950051942
 31
0.0
1001
REVIT
1002
{
1070
     1
1000
22423324
1002
}
1002
{
1070
     5
1000
17583107
1002
}
1002
{
1070
     2
1000
-2000011
1002
}
  0
LINE
  5
135
330
70
100
AcDbEntity
  8
A-POR-___-___-EXI
 62
   250
100
AcDbLine
 10
10649.21089456369
 20
-11185.35950051941
 30
0.0
 11
10649.21089456369
 21
-10385.35950051941
 31
0.0
1001
REVIT
1002
{
1070
     1
1000
22423324
1002
}
1002
{
1070
     5
1000
17583107
1002
}
1002
{
1070
     2
1000
-2000011
1002
}
  0
LINE
  5
136
330
70
100
AcDbEntity
  8
A-POR-___-___-EXI
 62
   250
100
AcDbLine
 10
10869.21089456368
 20
-10385.35950051941
 30
0.0
 11
10869.21089456368
 21
-10387.35950051941
 31
0.0
1001
REVIT
1002
{
1070
     1
1000
22423324
1002
}
1002
{
1070
     5
1000
17583107
1002
}
1002
{
1070
     2
1000
-2000011
1002
}
  0
LINE
  5
137
330
70
100
AcDbEntity
  8
A-POR-___-___-EXI
 62
   250
100
AcDbLine
 10
10869.21089456368
 20
-10417.35950051942
 30
0.0
 11
10869.21089456369
 21
-11185.35950051941
 31
0.0
1001
REVIT
1002
{
1070
     1
1000
22423324
1002
}
1002
{
1070
     5
1000
17583107
1002
}
1002
{
1070
     2
1000
-2000011
1002
}
  0
LINE
  5
138
330
70
100
AcDbEntity
  8
A-POR-___-___-EXI
 62
   250
100
AcDbLine
 10
10869.21089456368
 20
-14065.35950051943
 30
0.0
 11
10869.21089456368
 21
-14067.35950051943
 31
0.0
1001
REVIT
1002
{
1070
     1
1000
22423324
1002
}
1002
{
1070
     5
1000
17583107
1002
}
1002
{
1070
     2
1000
-2000011
1002
}
  0
LINE
  5
139
330
70
100
AcDbEntity
  8
A-POR-___-___-EXI
 62
   250
100
AcDbLine
 10
10869.21089456368
 20
-14097.35950051942
 30
0.0
 11
10869.21089456368
 21
-14865.35950051943
 31
0.0
1001
REVIT
1002
{
1070
     1
1000
22423324
1002
}
1002
{
1070
     5
1000
17583107
1002
}
1002
{
1070
     2
1000
-2000011
1002
}
  0
LINE
  5
191
330
70
100
AcDbEntity
  8
A-POR-___-___-EXI
 62
   250
100
AcDbLine
 10
7249.21089456368
 20
-20645.35950051944
 30
0.0
 11
7251.21089456368
 21
-20645.35950051944
 31
0.0
1001
REVIT
1002
{
1070
     1
1000
22426935
1002
}
1002
{
1070
     5
1000
22450565
1002
}
1002
{
1070
     2
1000
-2000011
1002
}
  0
LINE
  5
192
330
70
100
AcDbEntity
  8
A-POR-___-___-EXI
 62
   250
100
AcDbLine
 10
7281.210894563679
 20
-20645.35950051944
 30
0.0
 11
8049.21089456368
 21
-20645.35950051944
 31
0.0
1001
REVIT
1002
{
1070
     1
1000
22426935
1002
}
1002
{
1070
     5
1000
22450565
1002
}
1002
{
1070
     2
1000
-2000011
1002
}
  0
LINE
  5
19F
330
70
100
AcDbEntity
  8
A-POR-___-___-EXI
 62
   250
100
AcDbLine
 10
8070.17881806392
 20
-7625.359500519429
 30
0.0
 11
8070.178818063924
 21
-8425.35950051943
 31
0.0
1001
REVIT
1002
{
1070
     1
1000
22451261
1002
}
1002
{
1070
     5
1000
22450565
1002
}
1002
{
1070
     2
1000
-2000011
1002
}
  0
LINE
  5
1A0
330
70
100
AcDbEntity
  8
A-POR-___-___-EXI
 62
   250
100
AcDbLine
 10
7670.178818063924
 20
-8425.359500519427
 30
0.0
 11
7670.17881806392
 21
-7657.359500519428
 31
0.0
1001
REVIT
1002
{
1070
     1
1000
22451261
1002
}
1002
{
1070
     5
1000
22450565
1002
}
1002
{
1070
     2
1000
-2000011
1002
}
  0
LINE
  5
1A1
330
70
100
AcDbEntity
  8
A-POR-___-___-EXI
 62
   250
100
AcDbLine
 10
7670.17881806392
 20
-7627.359500519427
 30
0.0
 11
7670.17881806392
 21
-7625.359500519429
 31
0.0
1001
REVIT
1002
{
1070
     1
1000
22451261
1002
}
1002
{
1070
     5
1000
22450565
1002
}
1002
{
1070
     2
1000
-2000011
1002
}
  0
LINE
  5
1BE
330
70
100
AcDbEntity
  8
A-JAN-___-___-EXI
 62
     7
370
    35
100
AcDbLine
 10
6049.210894563682
 20
-18435.35950051943
 30
0.0
 11
6489.210894563682
 21
-18435.35950051943
 31
0.0
1001
REVIT
1002
{
1070
     1
1000
22452449
1002
}
1002
{
1070
     5
1000
22422765
1002
}
1002
{
1070
     2
1000
-2000011
1002
}
  0
LINE
  5
2EE
330
70
100
AcDbEntity
  8
A-POR-___-___-EXI
100
AcDbLine
 10
7219.210894563679
 20
-21045.35950051943
 30
0.0
 11
7249.210894563676
 21
-21045.35950051943
 31
0.0
1001
REVIT
1002
{
1070
     1
1000
22424017
1002
}
1002
{
1070
     5
1000
22369145
1002
}
  0
LINE
  5
32B
330
70
100
AcDbEntity
  8
A-JAN-___-___-EXI
  6
Continuous
 62
     8
100
AcDbLine
 10
2483.213908629987
 20
-7618.903643095916
 30
0.0
 11
2543.213908629989
 21
-7558.903643095916
 31
0.0
1001
REVIT
1002
{
1070
     1
1000
22483499
1002
}
1002
{
1070
     5
1000
383807
1002
}
1002
{
1070
     2
1000
-2002000
1002
}
  0
LINE
  5
32C
330
70
100
AcDbEntity
  8
A-JAN-___-___-EXI
  6
Continuous
 62
     8
100
AcDbLine
 10
2766.056621104608
 20
-7618.903643095915
 30
0.0
 11
2770.178818063893
 21
-7614.781446136631
 31
0.0
1001
REVIT
1002
{
1070
     1
1000
22483499
1002
}
1002
{
1070
     5
1000
383807
1002
}
1002
{
1070
     2
1000
-2002000
1002
}
  0
LINE
  5
32D
330
70
100
AcDbEntity
  8
A-JAN-___-___-EXI
  6
Continuous
 62
     8
100
AcDbLine
 10
6492.533402102894
 20
-11529.18009891234
 30
0.0
 11
6528.147272566478
 21
-11493.56622844876
 31
0.0
1001
REVIT
1002
{
1070
     1
1000
22483499
1002
}
1002
{
1070
     5
1000
383807
1002
}
1002
{
1070
     2
1000
-2002000
1002
}
  0
LINE
  5
32E
330
70
100
AcDbEntity
  8
A-JAN-___-___-EXI
  6
Continuous
 62
     8
100
AcDbLine
 10
8430.178818063913
 20
-9591.534682951325
 30
0.0
 11
8486.354000495808
 21
-9535.35950051943
 31
0.0
1001
REVIT
1002
{
1070
     1
1000
22483499
1002
}
1002
{
1070
     5
1000
383807
1002
}
1002
{
1070
     2
1000
-2002000
1002
}
  0
LINE
  5
32F
330
70
100
AcDbEntity
  8
A-JAN-___-___-EXI
  6
Continuous
 62
     8
100
AcDbLine
 10
6770.989985041099
 20
-11533.56622844876
 30
0.0
 11
6810.9899850411
 21
-11493.56622844876
 31
0.0
1001
REVIT
1002
{
1070
     1
1000
22483499
1002
}
1002
{
1070
     5
1000
383807
1002
}
1002
{
1070
     2
1000
-2002000
1002
}
  0
LINE
  5
330
330
70
100
AcDbEntity
  8
A-JAN-___-___-EXI
  6
Continuous
 62
     8
100
AcDbLine
 10
8430.178818063913
 20
-9874.37739542595
 30
0.0
 11
8490.178818063913
 21
-9814.37739542595
 31
0.0
1001
REVIT
1002
{
1070
     1
1000
22483499
1002
}
1002
{
1070
     5
1000
383807
1002
}
1002
{
1070
     2
1000
-2002000
1002
}
  0
LINE
  5
331
330
70
100
AcDbEntity
  8
A-JAN-___-___-EXI
  6
Continuous
 62
     8
100
AcDbLine
 10
8430.178818063911
 20
-10157.22010790056
 30
0.0
 11
8490.17881806391
 21
-10097.22010790056
 31
0.0
1001
REVIT
1002
{
1070
     1
1000
22483499
1002
}
1002
{
1070
     5
1000
383807
1002
}
1002
{
1070
     2
1000
-2002000
1002
}
  0
LINE
  5
332
330
70
100
AcDbEntity
  8
A-JAN-___-___-EXI
  6
Continuous
 62
     8
100
AcDbLine
 10
13155.94021423448
 20
-11371.15567369699
 30
0.0
 11
13191.73638741205
 21
-11335.35950051942
 31
0.0
1001
REVIT
1002
{
1070
     1
1000
22483499
1002
}
1002
{
1070
     5
1000
383807
1002
}
1002
{
1070
     2
1000
-2002000
1002
}
  0
LINE
  5
333
330
70
100
AcDbEntity
  8
A-JAN-___-___-EXI
  6
Continuous
 62
     8
100
AcDbLine
 10
13438.7829267091
 20
-11371.15567369699
 30
0.0
 11
13469.21089456364
 21
-11340.72770584245
 31
0.0
1001
REVIT
1002
{
1070
     1
1000
22483499
1002
}
1002
{
1070
     5
1000
383807
1002
}
1002
{
1070
     2
1000
-2002000
1002
}
  0
LINE
  5
334
330
70
100
AcDbEntity
  8
A-JAN-___-___-EXI
  6
Continuous
 62
     8
100
AcDbLine
 10
6657.421812361274
 20
-18435.35950051944
 30
0.0
 11
6717.421812361272
 21
-18375.35950051944
 31
0.0
1001
REVIT
1002
{
1070
     1
1000
22483499
1002
}
1002
{
1070
     5
1000
383807
1002
}
1002
{
1070
     2
1000
-2002000
1002
}
  0
LINE
  5
335
330
70
100
AcDbEntity
  8
A-JAN-___-___-EXI
  6
Continuous
 62
     8
100
AcDbLine
 10
6940.264524835891
 20
-18435.35950051944
 30
0.0
 11
7000.26452483589
 21
-18375.35950051945
 31
0.0
1001
REVIT
1002
{
1070
     1
1000
22483499
1002
}
1002
{
1070
     5
1000
383807
1002
}
1002
{
1070
     2
1000
-2002000
1002
}
  0
LINE
  5
336
330
70
100
AcDbEntity
  8
A-JAN-___-___-EXI
  6
Continuous
 62
     8
100
AcDbLine
 10
13081.05694070291
 20
-15688.67963434785
 30
0.0
 11
13113.22199956683
 21
-15656.51457548393
 31
0.0
1001
REVIT
1002
{
1070
     1
1000
22483499
1002
}
1002
{
1070
     5
1000
383807
1002
}
1002
{
1070
     2
1000
-2002000
1002
}
  0
LINE
  5
337
330
70
100
AcDbEntity
  8
A-JAN-___-___-EXI
  6
Continuous
 62
     8
100
AcDbLine
 10
13363.89965317754
 20
-15688.67963434785
 30
0.0
 11
13396.06471204146
 21
-15656.51457548392
 31
0.0
1001
REVIT
1002
{
1070
     1
1000
22483499
1002
}
1002
{
1070
     5
1000
383807
1002
}
1002
{
1070
     2
1000
-2002000
1002
}
  0
LINE
  5
338
330
70
100
AcDbEntity
  8
A-JAN-___-___-EXI
  6
Continuous
 62
     8
100
AcDbLine
 10
13058.48962422676
 20
-19105.35950051943
 30
0.0
 11
13088.48962422675
 21
-19075.35950051943
 31
0.0
1001
REVIT
1002
{
1070
     1
1000
22483499
1002
}
1002
{
1070
     5
1000
383807
1002
}
1002
{
1070
     2
1000
-2002000
1002
}
  0
LINE
  5
339
330
70
100
AcDbEntity
  8
A-JAN-___-___-EXI
  6
Continuous
 62
     8
100
AcDbLine
 10
13341.33233670138
 20
-19105.35950051943
 30
0.0
 11
13371.33233670138
 21
-19075.35950051943
 31
0.0
1001
REVIT
1002
{
1070
     1
1000
22483499
1002
}
1002
{
1070
     5
1000
383807
1002
}
1002
{
1070
     2
1000
-2002000
1002
}
  0
LINE
  5
34F
330
70
100
AcDbEntity
  8
A-JAN-___-___-EXI
100
AcDbLine
 10
8490.178818063929
 20
-9095.359500519426
 30
0.0
 11
8490.178818063929
 21
-9535.359500519428
 31
0.0
1001
REVIT
1002
{
1070
     1
1000
22483593
1002
}
1002
{
1070
     2
1000
-2000051
1002
}
1002
{
1070
     3
1000
-2000042
1002
}
  0
LINE
  5
3F4
330
70
100
AcDbEntity
  8
A-ALV-___-___-EXI
 62
     7
370
    35
100
AcDbLine
 10
13869.21089456366
 20
-14875.35950051942
 30
0.0
 11
13869.21089456365
 21
-11335.35950051941
 31
0.0
1001
REVIT
1002
{
1070
     1
1000
22426384
1002
}
1002
{
1070
     5
1000
22450565
1002
}
1002
{
1070
     2
1000
-2000011
1002
}
  0
LINE
  5
3F5
330
70
100
AcDbEntity
  8
A-JAN-___-___-EXI
 62
     7
370
    35
100
AcDbLine
 10
13869.21089456365
 20
-11335.35950051941
 30
0.0
 11
13869.21089456369
 21
-10795.35950051941
 31
0.0
1001
REVIT
1002
{
1070
     1
1000
22426384
1002
}
1002
{
1070
     5
1000
22450565
1002
}
1002
{
1070
     2
1000
-2000011
1002
}
  0
LINE
  5
423
330
70
100
AcDbEntity
  8
A-ALV-___-___-EXI
 62
     7
370
    35
100
AcDbLine
 10
10869.21089456369
 20
-10355.35950051942
 30
0.0
 11
10869.21089456369
 21
-9535.359500519422
 31
0.0
1001
REVIT
1002
{
1070
     1
1000
22452887
1002
}
1002
{
1070
     5
1000
22422765
1002
}
1002
{
1070
     2
1000
-2000011
1002
}
  0
LINE
  5
424
330
70
100
AcDbEntity
  8
A-ALV-___-___-EXI
 62
     7
370
    35
100
AcDbLine
 10
10869.21089456369
 20
-9535.359500519422
 30
0.0
 11
13469.21089456365
 21
-9535.359500519417
 31
0.0
1001
REVIT
1002
{
1070
     1
1000
22452887
1002
}
1002
{
1070
     5
1000
22422765
1002
}
1002
{
1070
     2
1000
-2000011
1002
}
  0
LINE
  5
425
330
70
100
AcDbEntity
  8
A-ALV-___-___-EXI
 62
     7
370
    35
100
AcDbLine
 10
13469.21089456365
 20
-9535.359500519417
 30
0.0
 11
13469.21089456365
 21
-10795.35950051941
 31
0.0
1001
REVIT
1002
{
1070
     1
1000
22452887
1002
}
1002
{
1070
     5
1000
22422765
1002
}
1002
{
1070
     2
1000
-2000011
1002
}
  0
LINE
  5
426
330
70
100
AcDbEntity
  8
A-JAN-___-___-EXI
 62
     7
370
    35
100
AcDbLine
 10
13469.21089456365
 20
-10795.35950051941
 30
0.0
 11
13869.21089456365
 21
-10795.35950051941
 31
0.0
1001
REVIT
1002
{
1070
     1
1000
22452887
1002
}
1002
{
1070
     5
1000
22422765
1002
}
1002
{
1070
     2
1000
-2000011
1002
}
  0
LINE
  5
427
330
70
100
AcDbEntity
  8
A-JAN-___-___-EXI
 62
     7
370
    35
100
AcDbLine
 10
13869.21089456365
 20
-10795.35950051941
 30
0.0
 11
13869.21089456365
 21
-11335.35950051941
 31
0.0
1001
REVIT
1002
{
1070
     1
1000
22452887
1002
}
1002
{
1070
     5
1000
22422765
1002
}
1002
{
1070
     2
1000
-2000011
1002
}
  0
ARC
  5
4A8
330
70
100
AcDbEntity
  8
A-POR-___-___-EXI
100
AcDbCircle
 10
10869.21089456466
 20
-10387.35950051941
 30
0.0
 40
796.0
100
AcDbArc
 50
270.0
 51
0.0
1001
REVIT
1002
{
1070
     1
1000
22423829
1002
}
1002
{
1070
     5
1000
22369145
1002
}
1002
{
1070
     3
1000
-2000027
1002
}
  0
ARC
  5
4B1
330
70
100
AcDbEntity
  8
A-POR-___-___-EXI
100
AcDbCircle
 10
7637.210894563667
 20
-9535.359500520391
 30
0.0
 40
796.0000000000027
100
AcDbArc
 50
180.0000000000001
 51
270.0
1001
REVIT
1002
{
1070
     1
1000
22424240
1002
}
1002
{
1070
     5
1000
22369145
1002
}
1002
{
1070
     3
1000
-2000027
1002
}
  0
ARC
  5
4B6
330
70
100
AcDbEntity
  8
A-POR-___-___-EXI
100
AcDbCircle
 10
7251.210894563675
 20
-20645.35950051847
 30
0.0
 40
796.0
100
AcDbArc
 50
0.0
 51
90.0
1001
REVIT
1002
{
1070
     1
1000
22424017
1002
}
1002
{
1070
     5
1000
22369145
1002
}
1002
{
1070
     3
1000
-2000027
1002
}
  0
ARC
  5
4CE
330
70
100
AcDbEntity
  8
A-POR-___-___-EXI
100
AcDbCircle
 10
10869.21089456465
 20
-14067.35950051943
 30
0.0
 40
796.0
100
AcDbArc
 50
270.0
 51
0.0
1001
REVIT
1002
{
1070
     1
1000
22423829
1002
}
1002
{
1070
     5
1000
22369145
1002
}
1002
{
1070
     3
1000
-2000027
1002
}
  0
LINE
  5
52A
330
70
100
AcDbEntity
  8
A-JAN-___-___-EXI
100
AcDbLine
 10
6049.210894563667
 20
-11535.35950051943
 30
0.0
 11
6489.210894563666
 21
-11535.35950051943
 31
0.0
1001
REVIT
1002
{
1070
     1
1000
22483652
1002
}
1002
{
1070
     2
1000
-2000051
1002
}
1002
{
1070
     3
1000
-2000042
1002
}
  0
LINE
  5
52B
330
70
100
AcDbEntity
  8
A-JAN-___-___-EXI
100
AcDbLine
 10
6489.210894563666
 20
-11535.35950051943
 30
0.0
 11
6049.210894563667
 21
-11535.35950051943
 31
0.0
1001
REVIT
1002
{
1070
     1
1000
22483652
1002
}
1002
{
1070
     2
1000
-2000051
1002
}
1002
{
1070
     3
1000
-2000042
1002
}
  0
LINE
  5
52C
330
70
100
AcDbEntity
  8
A-ALV-___-___-EXI
100
AcDbLine
 10
6049.210894563667
 20
-11535.35950051943
 30
0.0
 11
6049.21089456366
 21
-9535.359500519431
 31
0.0
1001
REVIT
1002
{
1070
     1
1000
22483652
1002
}
1002
{
1070
     2
1000
-2000051
1002
}
1002
{
1070
     3
1000
-2000042
1002
}
  0
LINE
  5
52D
330
70
100
AcDbEntity
  8
A-ALV-___-___-EXI
100
AcDbLine
 10
6049.21089456366
 20
-9535.359500519431
 30
0.0
 11
1930.178818063925
 21
-9535.359500519438
 31
0.0
1001
REVIT
1002
{
1070
     1
1000
22483652
1002
}
1002
{
1070
     2
1000
-2000051
1002
}
1002
{
1070
     3
1000
-2000042
1002
}
  0
LINE
  5
52E
330
70
100
AcDbEntity
  8
A-ALV-___-___-EXI
100
AcDbLine
 10
1930.178818063925
 20
-9535.359500519438
 30
0.0
 11
1930.178818063921
 21
-7618.903643095919
 31
0.0
1001
REVIT
1002
{
1070
     1
1000
22483652
1002
}
1002
{
1070
     2
1000
-2000051
1002
}
1002
{
1070
     3
1000
-2000042
1002
}
  0
LINE
  5
536
330
70
100
AcDbEntity
  8
A-JAN-___-___-EXI
100
AcDbLine
 10
13469.21089456367
 20
-19075.35950051942
 30
0.0
 11
13869.21089456367
 21
-19075.35950051941
 31
0.0
1001
REVIT
1002
{
1070
     1
1000
22483561
1002
}
1002
{
1070
     2
1000
-2000051
1002
}
1002
{
1070
     3
1000
-2000042
1002
}
  0
LWPOLYLINE
  5
5A5
330
70
100
AcDbEntity
  8
A-POR-___-___-EXI
100
AcDbPolyline
 90
        4
 70
     1
 43
0.0
 10
10869.21089456464
 20
-14065.35950051943
 10
10869.21089456464
 20
-14035.35950051943
 10
10649.21089456368
 20
-14035.35950051943
 10
10649.21089456368
 20
-14065.35950051943
1001
REVIT
1002
{
1070
     1
1000
22423829
1002
}
1002
{
1070
     5
1000
22369145
1002
}
  0
LWPOLYLINE
  5
5A6
330
70
100
AcDbEntity
  8
A-JAN-___-___-EXI
 62
     7
370
    35
100
AcDbPolyline
 90
       10
 70
     0
 43
0.0
 10
10869.21089456368
 20
-14035.35950051943
 10
10869.21089456369
 20
-13635.35950051941
 10
13469.21089456366
 20
-13635.35950051941
 10
13469.21089456366
 20
-14875.35950051942
 10
13869.21089456366
 20
-14875.35950051942
 10
13469.21089456366
 20
-14875.35950051942
 10
13469.21089456366
 20
-15655.35950051941
 10
13869.21089456368
 20
-15655.35950051941
 10
13869.21089456368
 20
-14875.35950051942
 10
13869.21089456368
 20
-15655.35950051941
1001
REVIT
1002
{
1070
     1
1000
22426384
1002
}
1002
{
1070
     5
1000
22450565
1002
}
1002
{
1070
     2
1000
-2000011
1002
}
  0
LWPOLYLINE
  5
5A7
330
70
100
AcDbEntity
  8
A-JAN-___-___-EXI
 62
     7
370
    35
100
AcDbPolyline
 90
       11
 70
     0
 43
0.0
 10
10379.21089456367
 20
-17075.35950051942
 10
10379.21089456367
 20
-16855.35950051846
 10
10349.21089456368
 20
-16855.35950051846
 10
10349.21089456368
 20
-17075.35950051942
 10
10379.21089456368
 20
-17075.35950051942
 10
13469.21089456366
 20
-17075.35950051942
 10
13469.21089456367
 20
-18295.35950051942
 10
13869.21089456367
 20
-18295.35950051942
 10
13469.21089456367
 20
-18295.35950051942
 10
13469.21089456367
 20
-19075.35950051942
 10
13469.21089456367
 20
-19105.35950051941
1001
REVIT
1002
{
1070
     1
1000
22426586
1002
}
1002
{
1070
     5
1000
22450565
1002
}
1002
{
1070
     2
1000
-2000011
1002
}
  0
LWPOLYLINE
  5
5A8
330
70
100
AcDbEntity
  8
A-JAN-___-___-EXI
 62
     7
370
    35
100
AcDbPolyline
 90
       14
 70
     1
 43
0.0
 10
6049.21089456368
 20
-19165.35950051943
 10
6049.210894563686
 20
-21045.35950051944
 10
7219.210894563679
 20
-21045.35950051943
 10
7219.210894563679
 20
-20645.35950051944
 10
6489.210894563687
 20
-20645.35950051944
 10
6489.210894563679
 20
-19165.35950051943
 10
6049.21089456368
 20
-19165.35950051943
 10
6049.210894563682
 20
-18435.35950051943
 10
6489.210894563682
 20
-18435.35950051943
 10
6489.210894563682
 20
-18375.35950051943
 10
7029.210894563682
 20
-18375.35950051943
 10
7029.210894563682
 20
-18435.35950051943
 10
6489.210894563682
 20
-18435.35950051943
 10
6489.210894563679
 20
-19165.35950051943
1001
REVIT
1002
{
1070
     1
1000
22426935
1002
}
1002
{
1070
     5
1000
22450565
1002
}
1002
{
1070
     2
1000
-2000011
1002
}
  0
LWPOLYLINE
  5
5A9
330
70
100
AcDbEntity
  8
A-JAN-___-___-EXI
 62
     7
370
    35
100
AcDbPolyline
 90
        2
 70
     1
 43
0.0
 10
6049.210894563667
 20
-11535.35950051943
 10
6049.210894563657
 20
-12275.35950051943
1001
REVIT
1002
{
1070
     1
1000
22427154
1002
}
1002
{
1070
     5
1000
22422765
1002
}
1002
{
1070
     2
1000
-2000011
1002
}
  0
LWPOLYLINE
  5
5AA
330
70
100
AcDbEntity
  8
A-ALV-___-___-EXI
 62
     7
370
    35
100
AcDbPolyline
 90
        8
 70
     0
 43
0.0
 10
9519.210894563682
 20
-16855.35950051942
 10
6489.210894563673
 20
-16855.35950051942
 10
6489.210894563665
 20
-12275.35950051943
 10
6049.210894563664
 20
-12275.35950051943
 10
6489.210894563665
 20
-12275.35950051943
 10
6489.210894563666
 20
-11535.35950051943
 10
6489.210894563661
 20
-9535.35950051943
 10
6809.210894563668
 20
-9535.35950051943
1001
REVIT
1002
{
1070
     1
1000
22427154
1002
}
1002
{
1070
     5
1000
22422765
1002
}
1002
{
1070
     2
1000
-2000011
1002
}
  0
LWPOLYLINE
  5
5AB
330
70
100
AcDbEntity
  8
A-POR-___-___-EXI
 62
     7
370
    35
100
AcDbPolyline
 90
        4
 70
     1
 43
0.0
 10
9549.210894563682
 20
-16855.35950051846
 10
9549.210894563682
 20
-17075.35950051942
 10
9519.210894563679
 20
-17075.35950051942
 10
9519.210894563679
 20
-16855.35950051846
1001
REVIT
1002
{
1070
     1
1000
22452449
1002
}
1002
{
1070
     5
1000
22422765
1002
}
1002
{
1070
     2
1000
-2000011
1002
}
  0
LWPOLYLINE
  5
5AC
330
70
100
AcDbEntity
  8
A-POR-___-___-EXI
 62
     7
370
    35
100
AcDbPolyline
 90
        7
 70
     0
 43
0.0
 10
10649.21089456368
 20
-14895.35950051943
 10
10869.21089456464
 20
-14895.35950051943
 10
10869.21089456464
 20
-14865.35950051943
 10
10649.21089456368
 20
-14865.35950051943
 10
10649.21089456368
 20
-14895.35950051943
 10
10649.21089456368
 20
-16855.35950051942
 10
10379.21089456368
 20
-16855.35950051942
1001
REVIT
1002
{
1070
     1
1000
22423324
1002
}
1002
{
1070
     5
1000
17583107
1002
}
1002
{
1070
     2
1000
-2000011
1002
}
  0
LWPOLYLINE
  5
5AD
330
70
100
AcDbEntity
  8
A-ALV-___-___-EXI
 62
     7
370
    35
100
AcDbPolyline
 90
        8
 70
     0
 43
0.0
 10
13469.21089456366
 20
-15688.67963434784
 10
13469.21089456366
 20
-15656.51457548392
 10
12889.21089456367
 20
-15656.51457548392
 10
12889.21089456367
 20
-15688.67963434784
 10
13469.21089456366
 20
-15688.67963434784
 10
13469.21089456366
 20
-16855.35950051941
 10
10869.21089456368
 20
-16855.35950051942
 10
10869.21089456368
 20
-14895.35950051943
1001
REVIT
1002
{
1070
     1
1000
22426586
1002
}
1002
{
1070
     5
1000
22450565
1002
}
1002
{
1070
     2
1000
-2000011
1002
}
  0
LWPOLYLINE
  5
5AF
330
70
100
AcDbEntity
  8
A-ALV-___-___-EXI
 62
     7
370
    35
100
AcDbPolyline
 90
       17
 70
     0
 43
0.0
 10
13209.21089456367
 20
-21045.35950051942
 10
13209.21089456367
 20
-20645.35950051846
 10
13179.21089456367
 20
-20645.35950051846
 10
13179.21089456367
 20
-21045.35950051942
 10
13209.21089456367
 20
-21045.35950051942
 10
13869.21089456367
 20
-21045.35950051943
 10
6069.210894563681
 20
-21045.35950051944
 10
6069.210894563687
 20
-23680.06226651701
 10
13869.21089456367
 20
-23680.06226651701
 10
13869.21089456367
 20
-21045.35950051943
 10
13869.21089456367
 20
-19075.35950051941
 10
13469.21089456367
 20
-19075.35950051942
 10
12894.21089456367
 20
-19075.35950051942
 10
12894.21089456367
 20
-19105.35950051942
 10
13469.21089456367
 20
-19105.35950051941
 10
13469.21089456367
 20
-20645.35950051942
 10
13209.21089456367
 20
-20645.35950051942
1001
REVIT
1002
{
1070
     1
1000
22426668
1002
}
1002
{
1070
     5
1000
22450565
1002
}
1002
{
1070
     2
1000
-2000011
1002
}
  0
LWPOLYLINE
  5
5B0
330
70
100
AcDbEntity
  8
A-ALV-___-___-EXI
 62
     7
370
    35
100
AcDbPolyline
 90
        5
 70
     0
 43
0.0
 10
13469.21089456366
 20
-15655.35950051941
 10
13869.21089456366
 20
-15655.35950051942
 10
13869.21089456367
 20
-18295.35950051941
 10
13869.21089456366
 20
-19075.35950051942
 10
13869.21089456367
 20
-18295.35950051941
1001
REVIT
1002
{
1070
     1
1000
22426668
1002
}
1002
{
1070
     5
1000
22450565
1002
}
1002
{
1070
     2
1000
-2000011
1002
}
  0
LWPOLYLINE
  5
5B1
330
70
100
AcDbEntity
  8
A-POR-___-___-EXI
100
AcDbPolyline
 90
        2
 70
     1
 43
0.0
 10
6839.210894563669
 20
-9095.359500519419
 10
7639.210894563665
 20
-9095.359500519418
1001
REVIT
1002
{
1070
     1
1000
22433368
1002
}
1002
{
1070
     2
1000
-2000051
1002
}
1002
{
1070
     3
1000
-2000066
1002
}
  0
LWPOLYLINE
  5
5B2
330
70
100
AcDbEntity
  8
A-POR-___-___-EXI
 62
     7
370
    35
100
AcDbPolyline
 90
        4
 70
     1
 43
0.0
 10
7670.178818062961
 20
-8425.35950051943
 10
8070.178818063924
 20
-8425.35950051943
 10
8070.178818063924
 20
-8455.359500519431
 10
7670.178818062961
 20
-8455.359500519431
1001
REVIT
1002
{
1070
     1
1000
22451261
1002
}
1002
{
1070
     5
1000
22450565
1002
}
1002
{
1070
     2
1000
-2000011
1002
}
  0
LWPOLYLINE
  5
5B3
330
70
100
AcDbEntity
  8
A-POR-___-___-EXI
 62
     7
370
    35
100
AcDbPolyline
 90
        4
 70
     1
 43
0.0
 10
7639.210894563667
 20
-9535.359500520391
 10
7639.210894563667
 20
-9095.359500519428
 10
7669.210894563665
 20
-9095.359500519428
 10
7669.210894563665
 20
-9535.359500520391
1001
REVIT
1002
{
1070
     1
1000
22451261
1002
}
1002
{
1070
     5
1000
22450565
1002
}
1002
{
1070
     2
1000
-2000011
1002
}
  0
LWPOLYLINE
  5
5B4
330
70
100
AcDbEntity
  8
A-ALV-___-___-EXI
 62
     7
370
    35
100
AcDbPolyline
 90
       14
 70
     0
 43
0.0
 10
8070.178818063926
 20
-7595.359500519432
 10
7670.178818062963
 20
-7595.359500519432
 10
7670.178818062963
 20
-7625.359500519429
 10
8070.178818063926
 20
-7625.359500519429
 10
8070.17881806392
 20
-7595.359500519428
 10
8070.178818063928
 20
-5655.359500519427
 10
1930.178818063925
 20
-5655.359500519417
 10
1930.178818063921
 20
-7055.359500519418
 10
2330.178818063921
 20
-7055.359500519417
 10
2330.178818063921
 20
-7618.903643095919
 10
2770.178818063921
 20
-7618.903643095918
 10
2770.178818063921
 20
-7558.903643095916
 10
2330.178818063921
 20
-7558.903643095918
 10
2330.178818063921
 20
-7618.903643095919
1001
REVIT
1002
{
1070
     1
1000
22451358
1002
}
1002
{
1070
     5
1000
22450565
1002
}
1002
{
1070
     2
1000
-2000011
1002
}
  0
LWPOLYLINE
  5
5B5
330
70
100
AcDbEntity
  8
A-JAN-___-___-EXI
 62
     7
370
    35
100
AcDbPolyline
 90
        9
 70
     0
 43
0.0
 10
6809.210894563666
 20
-9095.359500519428
 10
6809.210894563666
 20
-9535.359500520391
 10
6839.210894563667
 20
-9535.359500520391
 10
6839.210894563667
 20
-9095.359500519428
 10
6809.210894563669
 20
-9095.359500519428
 10
2330.178818063925
 20
-9095.359500519437
 10
2330.178818063921
 20
-7618.903643095919
 10
1930.178818063921
 20
-7618.903643095919
 10
1930.178818063921
 20
-7055.359500519418
1001
REVIT
1002
{
1070
     1
1000
22453732
1002
}
1002
{
1070
     5
1000
22450565
1002
}
1002
{
1070
     2
1000
-2000011
1002
}
  0
LWPOLYLINE
  5
5B6
330
70
100
AcDbEntity
  8
A-POR-___-___-EXI
100
AcDbPolyline
 90
        4
 70
     1
 43
0.0
 10
10869.21089456465
 20
-10385.35950051941
 10
10649.21089456369
 20
-10385.35950051941
 10
10649.21089456369
 20
-10355.35950051942
 10
10869.21089456465
 20
-10355.35950051942
1001
REVIT
1002
{
1070
     1
1000
22455482
1002
}
1002
{
1070
     2
1000
-2000051
1002
}
1002
{
1070
     3
1000
-2000066
1002
}
  0
LWPOLYLINE
  5
5B7
330
70
100
AcDbEntity
  8
A-JAN-___-___-EXI
100
AcDbPolyline
 90
        2
 70
     1
 43
0.0
 10
13869.21089456368
 20
-11335.35950051941
 10
13469.21089456365
 20
-11335.35950051941
1001
REVIT
1002
{
1070
     1
1000
22455482
1002
}
1002
{
1070
     2
1000
-2000051
1002
}
1002
{
1070
     3
1000
-2000066
1002
}
  0
LWPOLYLINE
  5
5B8
330
70
100
AcDbEntity
  8
A-ALV-___-___-EXI
100
AcDbPolyline
 90
        4
 70
     0
 43
0.0
 10
10869.21089456369
 20
-11215.35950051942
 10
10869.21089456369
 20
-13415.35950051941
 10
13469.21089456366
 20
-13415.3595005194
 10
13469.21089456365
 20
-11371.15567369699
1001
REVIT
1002
{
1070
     1
1000
22455482
1002
}
1002
{
1070
     2
1000
-2000051
1002
}
1002
{
1070
     3
1000
-2000066
1002
}
  0
LWPOLYLINE
  5
5B9
330
70
100
AcDbEntity
  8
A-JAN-___-___-EXI
100
AcDbPolyline
 90
        4
 70
     1
 43
0.0
 10
6492.533402102911
 20
-11493.56622844875
 10
6492.533402102911
 20
-11533.56622844875
 10
7052.533402102914
 20
-11533.56622844875
 10
7052.533402102914
 20
-11493.56622844875
1001
REVIT
1002
{
1070
     1
1000
22483499
1002
}
1002
{
1070
     5
1000
383807
1002
}
1002
{
1070
     2
1000
-2000051
1002
}
1002
{
1070
     3
1000
-2000042
1002
}
  0
LWPOLYLINE
  5
5BA
330
70
100
AcDbEntity
  8
A-JAN-___-___-EXI
100
AcDbPolyline
 90
        4
 70
     1
 43
0.0
 10
8490.178818063929
 20
-10315.35950051942
 10
8490.178818063929
 20
-9535.359500519428
 10
8430.178818063929
 20
-9535.359500519428
 10
8430.178818063929
 20
-10315.35950051942
1001
REVIT
1002
{
1070
     1
1000
22483499
1002
}
1002
{
1070
     5
1000
383807
1002
}
1002
{
1070
     2
1000
-2000051
1002
}
1002
{
1070
     3
1000
-2000042
1002
}
  0
LWPOLYLINE
  5
5BB
330
70
100
AcDbEntity
  8
A-POR-___-___-EXI
100
AcDbPolyline
 90
        6
 70
     0
 43
0.0
 10
13177.21089456367
 20
-19849.35950051846
 10
13177.21089456367
 20
-20645.35950051846
 10
13147.21089456367
 20
-20645.35950051846
 10
13147.21089456367
 20
-19849.35950051846
 10
13177.21089456367
 20
-19849.35950051846
 42
0.4142135623730925
 10
12381.21089456367
 20
-20645.35950051846
1001
REVIT
1002
{
1070
     1
1000
22451621
1002
}
1002
{
1070
     5
1000
22369145
1002
}
1002
{
1070
     3
1000
-2000027
1002
}
  0
LWPOLYLINE
  5
5BC
330
70
100
AcDbEntity
  8
A-POR-___-___-EXI
100
AcDbPolyline
 90
        4
 70
     1
 43
0.0
 10
12379.21089456367
 20
-20645.35950051846
 10
12379.21089456367
 20
-21045.35950051942
 10
12349.21089456367
 20
-21045.35950051942
 10
12349.21089456367
 20
-20645.35950051846
1001
REVIT
1002
{
1070
     1
1000
22451621
1002
}
1002
{
1070
     5
1000
22369145
1002
}
  0
LWPOLYLINE
  5
5BD
330
70
100
AcDbEntity
  8
A-POR-___-___-EXI
100
AcDbPolyline
 90
        6
 70
     0
 43
0.0
 10
6874.178818062962
 20
-7627.359500519431
 10
7670.178818062962
 20
-7627.359500519428
 10
7670.178818062962
 20
-7657.35950051943
 10
6874.178818062962
 20
-7657.359500519433
 10
6874.178818062964
 20
-7627.359500519428
 42
0.4142135623730951
 10
7670.178818062962
 20
-8423.359500519426
1001
REVIT
1002
{
1070
     1
1000
22451621
1002
}
1002
{
1070
     5
1000
22369145
1002
}
1002
{
1070
     3
1000
-2000027
1002
}
  0
LWPOLYLINE
  5
5BE
330
70
100
AcDbEntity
  8
A-POR-___-___-EXI
100
AcDbPolyline
 90
        4
 70
     1
 43
0.0
 10
10869.21089456466
 20
-10417.35950051942
 10
11665.21089456466
 20
-10417.35950051942
 10
11665.21089456466
 20
-10387.35950051942
 10
10869.21089456466
 20
-10387.35950051941
1001
REVIT
1002
{
1070
     1
1000
22423829
1002
}
1002
{
1070
     5
1000
22369145
1002
}
1002
{
1070
     3
1000
-2000027
1002
}
  0
LWPOLYLINE
  5
5BF
330
70
100
AcDbEntity
  8
A-POR-___-___-EXI
100
AcDbPolyline
 90
        4
 70
     1
 43
0.0
 10
10649.21089456369
 20
-11185.35950051941
 10
10649.21089456369
 20
-11215.35950051942
 10
10869.21089456465
 20
-11215.35950051942
 10
10869.21089456465
 20
-11185.35950051941
1001
REVIT
1002
{
1070
     1
1000
22423829
1002
}
1002
{
1070
     5
1000
22369145
1002
}
  0
LWPOLYLINE
  5
5C0
330
70
100
AcDbEntity
  8
A-POR-___-___-EXI
100
AcDbPolyline
 90
        4
 70
     1
 43
0.0
 10
7607.210894563666
 20
-9535.359500520392
 10
7607.210894563666
 20
-10331.35950052039
 10
7637.210894563667
 20
-10331.35950052039
 10
7637.210894563667
 20
-9535.359500520392
1001
REVIT
1002
{
1070
     1
1000
22424240
1002
}
1002
{
1070
     5
1000
22369145
1002
}
1002
{
1070
     3
1000
-2000027
1002
}
  0
LWPOLYLINE
  5
5C1
330
70
100
AcDbEntity
  8
A-POR-___-___-EXI
100
AcDbPolyline
 90
        4
 70
     1
 43
0.0
 10
7281.210894563677
 20
-20645.35950051847
 10
7281.210894563677
 20
-19849.35950051846
 10
7251.210894563675
 20
-19849.35950051846
 10
7251.210894563675
 20
-20645.35950051847
1001
REVIT
1002
{
1070
     1
1000
22424017
1002
}
1002
{
1070
     5
1000
22369145
1002
}
1002
{
1070
     3
1000
-2000027
1002
}
  0
LWPOLYLINE
  5
5C2
330
70
100
AcDbEntity
  8
A-POR-___-___-EXI
100
AcDbPolyline
 90
        6
 70
     0
 43
0.0
 10
10347.21089456368
 20
-16059.35950051845
 10
10347.21089456368
 20
-16855.35950051845
 10
10317.21089456368
 20
-16855.35950051845
 10
10317.21089456367
 20
-16059.35950051845
 10
10347.21089456368
 20
-16059.35950051845
 42
0.4142135623730943
 10
9551.210894563686
 20
-16855.35950051845
1001
REVIT
1002
{
1070
     1
1000
22423925
1002
}
1002
{
1070
     5
1000
22369145
1002
}
1002
{
1070
     3
1000
-2000027
1002
}
  0
LWPOLYLINE
  5
5C3
330
70
100
AcDbEntity
  8
A-POR-___-___-EXI
100
AcDbPolyline
 90
        4
 70
     1
 43
0.0
 10
10869.21089456465
 20
-14097.35950051943
 10
11665.21089456465
 20
-14097.35950051943
 10
11665.21089456465
 20
-14067.35950051943
 10
10869.21089456465
 20
-14067.35950051943
1001
REVIT
1002
{
1070
     1
1000
22423829
1002
}
1002
{
1070
     5
1000
22369145
1002
}
1002
{
1070
     3
1000
-2000027
1002
}
  0
LWPOLYLINE
  5
5C4
330
70
100
AcDbEntity
  8
A-PIL-___-___-EXI
100
AcDbPolyline
 90
        4
 70
     1
 43
0.0
 10
13806.42266900388
 20
-22773.29063814649
 10
13709.21089456362
 20
-22773.29063814649
 10
13709.21089456362
 20
-22853.29063814649
 10
13806.42266900388
 20
-22853.2906381465
1001
REVIT
1002
{
1070
     1
1000
22483577
1002
}
1002
{
1070
     2
1000
-2000051
1002
}
1002
{
1070
     3
1000
-2000042
1002
}
  0
LWPOLYLINE
  5
5C5
330
70
100
AcDbEntity
  8
A-PIL-___-___-EXI
100
AcDbPolyline
 90
        4
 70
     1
 43
0.0
 10
11334.75492909947
 20
-22773.29063814649
 10
11227.32218091138
 20
-22773.29063814649
 10
11227.32218091138
 20
-22853.2906381465
 10
11334.75492909947
 20
-22853.2906381465
1001
REVIT
1002
{
1070
     1
1000
22483573
1002
}
1002
{
1070
     2
1000
-2000051
1002
}
1002
{
1070
     3
1000
-2000042
1002
}
  0
LWPOLYLINE
  5
5C6
330
70
100
AcDbEntity
  8
A-PIL-___-___-EXI
100
AcDbPolyline
 90
        4
 70
     1
 43
0.0
 10
8776.337660146978
 20
-22788.2906381465
 10
8670.178818063888
 20
-22788.2906381465
 10
8670.178818063888
 20
-22868.2906381465
 10
8776.337660146978
 20
-22868.2906381465
1001
REVIT
1002
{
1070
     1
1000
22483569
1002
}
1002
{
1070
     2
1000
-2000051
1002
}
1002
{
1070
     3
1000
-2000042
1002
}
  0
LWPOLYLINE
  5
5C7
330
70
100
AcDbEntity
  8
A-PIL-___-___-EXI
100
AcDbPolyline
 90
        4
 70
     1
 43
0.0
 10
6309.210894563634
 20
-22788.2906381465
 10
6209.210894563632
 20
-22788.2906381465
 10
6209.210894563632
 20
-22868.2906381465
 10
6309.210894563634
 20
-22868.2906381465
1001
REVIT
1002
{
1070
     1
1000
22483565
1002
}
1002
{
1070
     2
1000
-2000051
1002
}
1002
{
1070
     3
1000
-2000042
1002
}
  0
LWPOLYLINE
  5
5C8
330
70
100
AcDbEntity
  8
A-ALV-___-___-EXI
100
AcDbPolyline
 90
       14
 70
     0
 43
0.0
 10
13469.21089456365
 20
-11335.35950051941
 10
13144.21089456365
 20
-11335.35950051941
 10
13144.21089456365
 20
-11371.15567369699
 10
13469.21089456365
 20
-11371.15567369699
 10
13469.21089456365
 20
-11335.35950051941
 10
13469.21089456365
 20
-10795.35950051941
 10
13869.21089456369
 20
-10795.35950051941
 10
13869.21089456365
 20
-9095.359500519418
 10
9469.210894563651
 20
-9095.359500519425
 10
8490.178818063929
 20
-9095.359500519426
 10
8490.178818063929
 20
-9535.359500519428
 10
9469.21089456365
 20
-9535.359500519424
 10
10649.21089456369
 20
-9535.359500519424
 10
10649.21089456369
 20
-10355.35950051941
1001
REVIT
1002
{
1070
     1
1000
22455482
1002
}
1002
{
1070
     2
1000
-2000051
1002
}
1002
{
1070
     3
1000
-2000066
1002
}
  0
LWPOLYLINE
  5
5C9
330
70
100
AcDbEntity
  8
A-POR-___-___-EXI
 62
     7
370
    35
100
AcDbPolyline
 90
        3
 70
     0
 43
0.0
 10
7670.178818063924
 20
-8455.359500519428
 10
7670.178818063921
 20
-9095.359500519426
 10
7669.210894563669
 20
-9095.359500519426
1001
REVIT
1002
{
1070
     1
1000
22451261
1002
}
1002
{
1070
     5
1000
22450565
1002
}
1002
{
1070
     2
1000
-2000011
1002
}
  0
LWPOLYLINE
  5
5CA
330
70
100
AcDbEntity
  8
A-ALV-___-___-EXI
 62
     7
370
    35
100
AcDbPolyline
 90
        6
 70
     0
 43
0.0
 10
9469.210894563651
 20
-9095.359500519425
 10
9469.21089456365
 20
-9535.359500519424
 10
9469.210894563651
 20
-9095.359500519418
 10
8490.178818063929
 20
-9095.359500519426
 10
8070.17881806392
 20
-9095.359500519426
 10
8070.178818063924
 20
-8455.359500519429
1001
REVIT
1002
{
1070
     1
1000
22451261
1002
}
1002
{
1070
     5
1000
22450565
1002
}
1002
{
1070
     2
1000
-2000011
1002
}
  0
LWPOLYLINE
  5
5CB
330
70
100
AcDbEntity
  8
A-ALV-___-___-EXI
 62
     7
370
    35
100
AcDbPolyline
 90
        3
 70
     0
 43
0.0
 10
6489.210894563682
 20
-18375.35950051943
 10
6489.210894563675
 20
-17075.35950051942
 10
9519.210894563682
 20
-17075.35950051942
1001
REVIT
1002
{
1070
     1
1000
22452449
1002
}
1002
{
1070
     5
1000
22422765
1002
}
1002
{
1070
     2
1000
-2000011
1002
}
  0
LWPOLYLINE
  5
5CC
330
70
100
AcDbEntity
  8
A-ALV-___-___-EXI
 62
     7
370
    35
100
AcDbPolyline
 90
        3
 70
     0
 43
0.0
 10
6049.21089456368
 20
-19165.35950051943
 10
6049.210894563652
 20
-18435.35950051943
 10
6049.210894563664
 20
-12275.35950051943
1001
REVIT
1002
{
1070
     1
1000
22426935
1002
}
1002
{
1070
     5
1000
22450565
1002
}
1002
{
1070
     2
1000
-2000011
1002
}
  0
LWPOLYLINE
  5
5CD
330
70
100
AcDbEntity
  8
A-ALV-___-___-EXI
100
AcDbPolyline
 90
        4
 70
     0
 43
0.0
 10
7670.17881806392
 20
-7595.359500519428
 10
7670.178818063928
 20
-6055.359500519426
 10
2330.178818063925
 20
-6055.359500519418
 10
2330.178818063921
 20
-7055.359500519417
1001
REVIT
1002
{
1070
     1
1000
22483652
1002
}
1002
{
1070
     2
1000
-2000051
1002
}
1002
{
1070
     3
1000
-2000042
1002
}
  0
LWPOLYLINE
  5
5CE
330
70
100
AcDbEntity
  8
A-POR-___-___-EXI
100
AcDbPolyline
 90
        8
 70
     0
 43
0.0
 10
8049.210894563676
 20
-21045.35950051943
 10
8079.210894563678
 20
-21045.35950051943
 10
8079.210894563678
 20
-20645.35950051847
 10
8049.210894563676
 20
-20645.35950051847
 10
8049.210894563676
 20
-21045.35950051943
 10
7249.21089456368
 20
-21045.35950051943
 10
7249.210894563676
 20
-20645.35950051847
 10
7219.210894563679
 20
-20645.35950051847
1001
REVIT
1002
{
1070
     1
1000
22424017
1002
}
1002
{
1070
     5
1000
22369145
1002
}
  0
VIEWPORT
  5
234
330
6C
100
AcDbEntity
 67
     1
  8
A-ALV-___-___-EXI
100
AcDbViewport
 10
170.4813148682359
 20
201.5512633666055
 30
0.0
 40
119.3903207649976
 41
180.247027659976
 68
     2
 69
     2
 12
7899.694856313816
 22
-14667.71088351821
 13
0.0
 23
0.0
 14
0.0
 24
0.0
 15
0.0
 25
0.0
 16
0.0
 26
0.0
 36
1.0
 17
0.0
 27
0.0
 37
0.0
 42
0.0
 43
0.0
 44
0.0
 45
18024.7027659976
 50
0.0
 51
0.0
 72
  1000
 90
    32768
  1

281
     0
 71
     1
 74
     1
110
0.0
120
0.0
130
0.0
111
1.0
121
0.0
131
0.0
112
0.0
122
1.0
132
0.0
 79
     0
146
0.0
170
     0
 61
     5
292
     1
282
     1
141
0.0
142
0.0
 63
   250
421
  3355443
  0
VIEWPORT
  5
236
330
6C
100
AcDbEntity
 67
     1
  8
0
100
AcDbViewport
 10
404.7695777063564
 20
201.9388911314735
 30
0.0
 40
1204.109148235587
 41
478.8856789442937
 68
     1
 69
     1
 12
404.7695777063564
 22
201.9388911314735
 13
0.0
 23
0.0
 14
0.0
 24
0.0
 15
0.0
 25
0.0
 16
0.0
 26
0.0
 36
1.0
 17
0.0
 27
0.0
 37
0.0
 42
50.0
 43
0.0
 44
0.0
 45
478.8856789442937
 50
0.0
 51
0.0
 72
   100
 90
    32800
  1

281
     0
 71
     1
 74
     1
110
0.0
120
0.0
130
0.0
111
1.0
121
0.0
131
0.0
112
0.0
122
1.0
132
0.0
 79
     0
146
0.0
170
     0
 61
     5
348
2F
292
     1
282
     1
141
0.0
142
0.0
 63
   250
421
  3355443
  0
INSERT
  5
242
330
6C
100
AcDbEntity
 67
     1
  8
A-PIL-___-___-EXI
100
AcDbBlockReference
  2
SVG - A4-22486380-Não nomeada
 10
0.0
 20
0.0
 30
0.0
1001
REVIT
1002
{
1070
     1
1000
22486395
1002
}
1002
{
1070
     5
1000
22486380
1002
}
1002
{
1070
     2
1000
-2000280
1002
}
  0
ENDSEC
  0
SECTION
  2
OBJECTS
  0
DICTIONARY
  5
C
330
0
100
AcDbDictionary
281
     1
  3
ACAD_CIP_PREVIOUS_PRODUCT_INFO
350
79
  3
ACAD_COLOR
350
63
  3
ACAD_DETAILVIEWSTYLE
350
6A
  3
ACAD_GROUP
350
D
  3
ACAD_IMAGE_VARS
350
7A
  3
ACAD_LAYOUT
350
62
  3
ACAD_MATERIAL
350
10
  3
ACAD_MLEADERSTYLE
350
66
  3
ACAD_MLINESTYLE
350
5F
  3
ACAD_PLOTSETTINGS
350
61
  3
ACAD_PLOTSTYLENAME
350
E
  3
ACAD_RENDER_ACTIVE_RAPIDRT_SETTINGS
350
262
  3
ACAD_RENDER_RAPIDRT_SETTINGS
350
25B
  3
ACAD_SCALELIST
350
42
  3
ACAD_SECTIONVIEWSTYLE
350
68
  3
ACAD_TABLESTYLE
350
64
  3
ACAD_VISUALSTYLE
350
29
  3
ACDB_RECOMPOSE_DATA
350
5DB
  3
AcDbVariableDictionary
350
24B
  3
REVIT_DICTIONARY
350
243
  0
SUN
  5
24A
330
57
100
AcDbSun
 90
        1
290
     1
 63
     7
421
 16777215
 40
0.3
291
     1
 91
  2460364
 92
 43808000
292
     0
 70
     1
 71
   128
280
     1
  0
DICTIONARY
  5
267
330
2
100
AcDbDictionary
280
     1
281
     1
  3
ACAD_LAYERSTATES
360
268
  0
DICTIONARY
  5
248
330
70
100
AcDbDictionary
280
     1
281
     1
  3
ACAD_SORTENTS
360
249
  0
XRECORD
  5
79
102
{ACAD_REACTORS
330
C
102
}
330
C
100
AcDbXrecord
280
     1
300
ACD
300
2022
300

  0
DICTIONARY
  5
63
102
{ACAD_REACTORS
330
C
102
}
330
C
100
AcDbDictionary
281
     1
  0
DICTIONARY
  5
6A
102
{ACAD_REACTORS
330
C
102
}
330
C
100
AcDbDictionary
281
     1
  3
Imperial24
350
6B
  3
Metric50
350
253
  0
DICTIONARY
  5
D
102
{ACAD_REACTORS
330
C
102
}
330
C
100
AcDbDictionary
281
     1
  0
RASTERVARIABLES
  5
7A
102
{ACAD_REACTORS
330
C
102
}
330
C
100
AcDbRasterVariables
 90
        0
 70
     0
 71
     1
 72
     1
  0
DICTIONARY
  5
62
102
{ACAD_REACTORS
330
C
102
}
330
C
100
AcDbDictionary
281
     1
  3
Layout1
350
6F
  3
Model
350
73
  0
DICTIONARY
  5
10
102
{ACAD_REACTORS
330
C
102
}
330
C
100
AcDbDictionary
281
     1
  3
ByBlock
350
19
  3
ByLayer
350
11
  3
Global
350
21
  0
DICTIONARY
  5
66
102
{ACAD_REACTORS
330
C
102
}
330
C
100
AcDbDictionary
281
     1
  3
Standard
350
67
  0
DICTIONARY
  5
5F
102
{ACAD_REACTORS
330
C
102
}
330
C
100
AcDbDictionary
281
     1
  3
Standard
350
60
  0
DICTIONARY
  5
61
102
{ACAD_REACTORS
330
C
102
}
330
C
100
AcDbDictionary
281
     1
  0
ACDBDICTIONARYWDFLT
  5
E
102
{ACAD_REACTORS
330
C
102
}
330
C
100
AcDbDictionary
281
     1
  3
Normal
350
F
100
AcDbDictionaryWithDefault
340
F
  0
RAPIDRTRENDERSETTINGS
  5
262
102
{ACAD_REACTORS
330
C
102
}
330
C
100
AcDbRenderSettings
 90
        2
  1
Médio
290
     1
290
     0
290
     1
290
     1
  1

  1
Aplica 5 níveis de renderização
 90
        0
100
AcDbRapidRTRenderSettings
 90
        3
 70
     0
 90
        5
 90
        1
 70
     1
 70
     2
 40
3.0
 40
3.0
290
     1
  0
DICTIONARY
  5
25B
102
{ACAD_REACTORS
330
C
102
}
330
C
100
AcDbDictionary
281
     1
  3
Alto
350
25E
  3
Baixo
350
25C
  3
Médio
350
25D
  3
Qualidade de curta duração
350
25F
  3
Qualidade de longa duração
350
261
  3
Qualidade de média duração
350
260
  0
DICTIONARY
  5
42
102
{ACAD_REACTORS
330
C
102
}
330
C
100
AcDbDictionary
281
     1
  3
A0
350
43
  3
A1
350
44
  3
A2
350
45
  3
A3
350
46
  3
A4
350
47
  3
A5
350
48
  3
A6
350
49
  3
A7
350
4A
  3
A8
350
4B
  3
A9
350
4C
  3
B0
350
4D
  3
B1
350
4E
  3
B2
350
4F
  3
B3
350
50
  3
B4
350
51
  3
B5
350
52
  3
B6
350
53
  0
DICTIONARY
  5
68
102
{ACAD_REACTORS
330
C
102
}
330
C
100
AcDbDictionary
281
     1
  3
Imperial24
350
69
  3
Metric50
350
252
  0
DICTIONARY
  5
64
102
{ACAD_REACTORS
330
C
102
}
330
C
100
AcDbDictionary
281
     1
  3
Standard
350
65
  0
DICTIONARY
  5
29
102
{ACAD_REACTORS
330
C
102
}
330
C
100
AcDbDictionary
281
     1
  3
2dWireframe
350
2F
  3
Basic
350
2E
  3
Brighten
350
35
  3
ColorChange
350
39
  3
Conceptual
350
32
  3
Dim
350
34
  3
EdgeColorOff
350
41
  3
Facepattern
350
38
  3
Flat
350
2A
  3
FlatWithEdges
350
2B
  3
Gouraud
350
2C
  3
GouraudWithEdges
350
2D
  3
Hidden
350
31
  3
JitterOff
350
3F
  3
Linepattern
350
37
  3
OverhangOff
350
40
  3
Realistic
350
33
  3
Shaded
350
3E
  3
Shaded with edges
350
3D
  3
Shades of Gray
350
3A
  3
Sketchy
350
3B
  3
Thicken
350
36
  3
Wireframe
350
30
  3
X-Ray
350
3C
  0
XRECORD
  5
5DB
102
{ACAD_REACTORS
330
C
102
}
330
C
100
AcDbXrecord
280
     1
 90
        1
330
65
  0
DICTIONARY
  5
24B
102
{ACAD_REACTORS
330
C
102
}
330
C
100
AcDbDictionary
281
     1
  3
CANNOSCALE
350
250
  3
CMLEADERSTYLE
350
24D
  3
CTABLESTYLE
350
24C
  3
CVIEWDETAILSTYLE
350
24E
  3
CVIEWSECTIONSTYLE
350
24F
  0
DICTIONARY
  5
243
102
{ACAD_REACTORS
330
C
102
}
330
C
100
AcDbDictionary
281
     1
  3
DRAWING_TOOL
350
247
  3
REVIT_CATEGORY_MAPPING
350
245
  3
REVIT_SUB_CATEGORY_MAPPING
350
246
  3
REVIT_TYPE_MAPPING
350
244
  0
DICTIONARY
  5
268
102
{ACAD_REACTORS
330
267
102
}
330
267
100
AcDbDictionary
281
     1
  0
SORTENTSTABLE
  5
249
102
{ACAD_REACTORS
330
248
102
}
330
248
100
AcDbSortentsTable
330
70
331
191
  5
2FD
331
192
  5
2FE
331
19F
  5
30D
331
1A0
  5
30E
331
1A1
  5
30F
331
1BE
  5
32A
331
2EE
  5
2E7
  0
ACDBDETAILVIEWSTYLE
  5
6B
102
{ACAD_REACTORS
330
6A
102
}
330
6A
100
AcDbModelDocViewStyle
 70
     0
  3
Imperial24
290
     1
300
Imperial24
 90
        0
100
AcDbDetailViewStyle
 70
     0
 71
     0
 90
        3
 71
     1
340
55
 62
   256
 40
0.24
340
0
 62
   256
 40
0.24
300

 40
0.36
280
     3
 71
     2
340
5D
 90
       25
 62
   256
 71
     3
340
55
 62
   256
 40
0.24
 90
        1
 40
0.75
 90
        1
300
%<\AcVar ViewType \f "%tc1">% %<\AcVar ViewDetailId>%\PSCALE %<\AcVar ViewScale \f "%sn">%
 71
     4
340
5D
 90
       25
 62
   256
340
5D
 90
       25
 62
   256
280
     0
  0
ACDBDETAILVIEWSTYLE
  5
253
102
{ACAD_REACTORS
330
6A
102
}
330
6A
100
AcDbModelDocViewStyle
 70
     0
  3
Metric50
290
     1
300
Metric50
 90
        0
100
AcDbDetailViewStyle
 70
     0
 71
     0
 90
        3
 71
     1
340
55
 62
   256
 40
5.0
340
0
 62
   256
 40
5.0
300

 40
0.0
280
     1
 71
     2
340
5D
 90
       25
 62
   256
 71
     3
340
55
 62
   256
 40
5.0
 90
        0
 40
15.0
 90
        1
300
%<\AcVar ViewDetailId>% (%<\AcVar ViewScale \f "%sn">%)
 71
     4
340
5D
 90
       25
 62
   256
340
5D
 90
       25
 62
   256
280
     0
  0
LAYOUT
  5
6F
102
{ACAD_REACTORS
330
62
102
}
330
62
100
AcDbPlotSettings
  1

  2
PDF24
  4
A4
  6

 40
0.0
 41
0.0
 42
0.1113433837890625
 43
0.0
 44
210.0
 45
297.0
 46
0.0
 47
0.0
 48
0.0
 49
0.0
140
0.0
141
0.0
142
1.0
143
1.415217033324818
 70
   688
 72
     1
 73
     1
 74
     1
  7

 75
     0
147
0.7066054014702363
 76
     0
 77
     2
 78
   300
148
-64.27901684485153
149
-59.47287840171589
100
AcDbLayout
  1
Layout1
 70
     0
 71
     1
 10
64.27901684485153
 20
59.47287840171589
 11
484.5984757423225
 21
356.6684553999278
 12
0.0
 22
0.0
 32
0.0
 14
64.26619069154469
 24
59.4864836275533
 34
-0.0015258207003583
 15
274.3104757081685
 25
356.518806219265
 35
0.0000000349246037
146
0.0
 13
0.0
 23
0.0
 33
0.0
 16
1.0
 26
0.0
 36
0.0
 17
0.0
 27
1.0
 37
0.0
 76
     0
330
6C
331
236
1001
ACAD_PSEXT
1000
PDF24
1000
PDF24
1000
\\.\pipe\PDFPrint
1000
PDF24 Printer
1070
     0
  0
LAYOUT
  5
73
102
{ACAD_REACTORS
330
62
102
}
330
62
100
AcDbPlotSettings
  1

  2

  4

  6

 40
0.0
 41
0.0
 42
0.0
 43
0.0
 44
0.0
 45
0.0
 46
0.0
 47
0.0
 48
0.0
 49
0.0
140
0.0
141
0.0
142
1.0
143
1.0
 70
  1712
 72
     0
 73
     0
 74
     0
  7

 75
     0
147
1.0
 76
     0
 77
     2
 78
   300
148
0.0
149
0.0
100
AcDbLayout
  1
Model
 70
     1
 71
     0
 10
0.0
 20
0.0
 11
12.0
 21
9.0
 12
0.0
 22
0.0
 32
0.0
 14
0.0
 24
0.0
 34
0.0
 15
0.0
 25
0.0
 35
0.0
146
0.0
 13
0.0
 23
0.0
 33
0.0
 16
1.0
 26
0.0
 36
0.0
 17
0.0
 27
1.0
 37
0.0
 76
     0
330
70
331
57
  0
MATERIAL
  5
19
102
{ACAD_XDICTIONARY
360
1A
102
}
102
{ACAD_REACTORS
330
10
102
}
330
10
100
AcDbMaterial
  1
ByBlock
 72
     0
 43
0.0208333333333333
 43
0.0
 43
0.0
 43
0.0
 43
0.0
 43
0.0208333333333333
 43
0.0
 43
0.0
 43
0.0
 43
0.0
 43
1.0
 43
0.0
 43
0.0
 43
0.0
 43
0.0
 43
1.0
 77
     0
 47
0.0208333333333333
 47
0.0
 47
0.0
 47
0.0
 47
0.0
 47
0.0208333333333333
 47
0.0
 47
0.0
 47
0.0
 47
0.0
 47
1.0
 47
0.0
 47
0.0
 47
0.0
 47
0.0
 47
1.0
171
     0
 49
0.0208333333333333
 49
0.0
 49
0.0
 49
0.0
 49
0.0
 49
0.0208333333333333
 49
0.0
 49
0.0
 49
0.0
 49
0.0
 49
1.0
 49
0.0
 49
0.0
 49
0.0
 49
0.0
 49
1.0
175
     0
142
0.0208333333333333
142
0.0
142
0.0
142
0.0
142
0.0
142
0.0208333333333333
142
0.0
142
0.0
142
0.0
142
0.0
142
1.0
142
0.0
142
0.0
142
0.0
142
0.0
142
1.0
179
     0
144
0.0208333333333333
144
0.0
144
0.0
144
0.0
144
0.0
144
0.0208333333333333
144
0.0
144
0.0
144
0.0
144
0.0
144
1.0
144
0.0
144
0.0
144
0.0
144
0.0
144
1.0
147
0.0208333333333333
147
0.0
147
0.0
147
0.0
147
0.0
147
0.0208333333333333
147
0.0
147
0.0
147
0.0
147
0.0
147
1.0
147
0.0
147
0.0
147
0.0
147
0.0
147
1.0
  0
MATERIAL
  5
11
102
{ACAD_XDICTIONARY
360
12
102
}
102
{ACAD_REACTORS
330
10
102
}
330
10
100
AcDbMaterial
  1
ByLayer
 72
     0
 43
0.0208333333333333
 43
0.0
 43
0.0
 43
0.0
 43
0.0
 43
0.0208333333333333
 43
0.0
 43
0.0
 43
0.0
 43
0.0
 43
1.0
 43
0.0
 43
0.0
 43
0.0
 43
0.0
 43
1.0
 77
     0
 47
0.0208333333333333
 47
0.0
 47
0.0
 47
0.0
 47
0.0
 47
0.0208333333333333
 47
0.0
 47
0.0
 47
0.0
 47
0.0
 47
1.0
 47
0.0
 47
0.0
 47
0.0
 47
0.0
 47
1.0
171
     0
 49
0.0208333333333333
 49
0.0
 49
0.0
 49
0.0
 49
0.0
 49
0.0208333333333333
 49
0.0
 49
0.0
 49
0.0
 49
0.0
 49
1.0
 49
0.0
 49
0.0
 49
0.0
 49
0.0
 49
1.0
175
     0
142
0.0208333333333333
142
0.0
142
0.0
142
0.0
142
0.0
142
0.0208333333333333
142
0.0
142
0.0
142
0.0
142
0.0
142
1.0
142
0.0
142
0.0
142
0.0
142
0.0
142
1.0
179
     0
144
0.0208333333333333
144
0.0
144
0.0
144
0.0
144
0.0
144
0.0208333333333333
144
0.0
144
0.0
144
0.0
144
0.0
144
1.0
144
0.0
144
0.0
144
0.0
144
0.0
144
1.0
147
0.0208333333333333
147
0.0
147
0.0
147
0.0
147
0.0
147
0.0208333333333333
147
0.0
147
0.0
147
0.0
147
0.0
147
1.0
147
0.0
147
0.0
147
0.0
147
0.0
147
1.0
  0
MATERIAL
  5
21
102
{ACAD_XDICTIONARY
360
22
102
}
102
{ACAD_REACTORS
330
10
102
}
330
10
100
AcDbMaterial
  1
Global
 72
     0
 43
0.0208333333333333
 43
0.0
 43
0.0
 43
0.0
 43
0.0
 43
0.0208333333333333
 43
0.0
 43
0.0
 43
0.0
 43
0.0
 43
1.0
 43
0.0
 43
0.0
 43
0.0
 43
0.0
 43
1.0
 77
     0
 47
0.0208333333333333
 47
0.0
 47
0.0
 47
0.0
 47
0.0
 47
0.0208333333333333
 47
0.0
 47
0.0
 47
0.0
 47
0.0
 47
1.0
 47
0.0
 47
0.0
 47
0.0
 47
0.0
 47
1.0
171
     0
 49
0.0208333333333333
 49
0.0
 49
0.0
 49
0.0
 49
0.0
 49
0.0208333333333333
 49
0.0
 49
0.0
 49
0.0
 49
0.0
 49
1.0
 49
0.0
 49
0.0
 49
0.0
 49
0.0
 49
1.0
175
     0
142
0.0208333333333333
142
0.0
142
0.0
142
0.0
142
0.0
142
0.0208333333333333
142
0.0
142
0.0
142
0.0
142
0.0
142
1.0
142
0.0
142
0.0
142
0.0
142
0.0
142
1.0
179
     0
144
0.0208333333333333
144
0.0
144
0.0
144
0.0
144
0.0
144
0.0208333333333333
144
0.0
144
0.0
144
0.0
144
0.0
144
1.0
144
0.0
144
0.0
144
0.0
144
0.0
144
1.0
147
0.0208333333333333
147
0.0
147
0.0
147
0.0
147
0.0
147
0.0208333333333333
147
0.0
147
0.0
147
0.0
147
0.0
147
1.0
147
0.0
147
0.0
147
0.0
147
0.0
147
1.0
  0
MLEADERSTYLE
  5
67
102
{ACAD_REACTORS
330
66
102
}
330
66
100
AcDbMLeaderStyle
179
     2
170
     2
171
     1
172
     0
 90
        2
 40
0.0
 41
0.0
173
     1
 91
-1056964608
340
5B
 92
       -2
290
     1
 42
0.09
291
     1
 43
0.36
  3
Standard
 44
0.18
300

342
55
174
     1
178
     6
175
     1
176
     0
 93
-1056964608
 45
0.18
292
     0
297
     0
 46
0.18
 94
-1056964608
 47
1.0
 49
1.0
140
1.0
293
     1
141
0.0
294
     1
177
     0
142
1.0
295
     1
296
     0
143
0.125
271
     0
272
     9
273
     9
298
     1
  0
MLINESTYLE
  5
60
102
{ACAD_REACTORS
330
5F
102
}
330
5F
100
AcDbMlineStyle
  2
STANDARD
 70
     0
  3

 62
   256
 51
90.0
 52
90.0
 71
     2
 49
0.5
 62
   256
  6
BYLAYER
 49
-0.5
 62
   256
  6
BYLAYER
  0
ACDBPLACEHOLDER
  5
F
102
{ACAD_REACTORS
330
E
102
}
330
E
  0
RAPIDRTRENDERSETTINGS
  5
25E
102
{ACAD_REACTORS
330
25B
102
}
330
25B
100
AcDbRenderSettings
 90
        2
  1
Alto
290
     1
290
     0
290
     1
290
     1
  1

  1
Aplica 10 níveis de renderização
 90
        2
100
AcDbRapidRTRenderSettings
 90
        3
 70
     0
 90
       10
 90
        1
 70
     2
 70
     2
 40
3.0
 40
3.0
290
     1
  0
RAPIDRTRENDERSETTINGS
  5
25C
102
{ACAD_REACTORS
330
25B
102
}
330
25B
100
AcDbRenderSettings
 90
        2
  1
Baixo
290
     1
290
     0
290
     1
290
     1
  1

  1
Aplica 1 nível de renderização
 90
        0
100
AcDbRapidRTRenderSettings
 90
        3
 70
     0
 90
        1
 90
        1
 70
     0
 70
     2
 40
3.0
 40
3.0
290
     1
  0
RAPIDRTRENDERSETTINGS
  5
25D
102
{ACAD_REACTORS
330
25B
102
}
330
25B
100
AcDbRenderSettings
 90
        2
  1
Médio
290
     1
290
     0
290
     1
290
     1
  1

  1
Aplica 5 níveis de renderização
 90
        1
100
AcDbRapidRTRenderSettings
 90
        3
 70
     0
 90
        5
 90
        1
 70
     1
 70
     2
 40
3.0
 40
3.0
290
     1
  0
RAPIDRTRENDERSETTINGS
  5
25F
102
{ACAD_REACTORS
330
25B
102
}
330
25B
100
AcDbRenderSettings
 90
        2
  1
Qualidade de curta duração
290
     1
290
     0
290
     1
290
     1
  1

  1
Renderiza por 10 minutos
 90
        3
100
AcDbRapidRTRenderSettings
 90
        3
 70
     1
 90
        1
 90
       10
 70
     1
 70
     2
 40
3.0
 40
3.0
290
     1
  0
RAPIDRTRENDERSETTINGS
  5
261
102
{ACAD_REACTORS
330
25B
102
}
330
25B
100
AcDbRenderSettings
 90
        2
  1
Qualidade de longa duração
290
     1
290
     0
290
     1
290
     1
  1

  1
Renderiza por 12 horas
 90
        5
100
AcDbRapidRTRenderSettings
 90
        3
 70
     1
 90
        1
 90
      720
 70
     2
 70
     2
 40
3.0
 40
3.0
290
     1
  0
RAPIDRTRENDERSETTINGS
  5
260
102
{ACAD_REACTORS
330
25B
102
}
330
25B
100
AcDbRenderSettings
 90
        2
  1
Qualidade de média duração
290
     1
290
     0
290
     1
290
     1
  1

  1
Renderiza por 60 minutos
 90
        4
100
AcDbRapidRTRenderSettings
 90
        3
 70
     1
 90
        1
 90
       60
 70
     2
 70
     2
 40
3.0
 40
3.0
290
     1
  0
SCALE
  5
43
102
{ACAD_REACTORS
330
42
102
}
330
42
100
AcDbScale
 70
     0
300
1:1
140
1.0
141
1.0
290
     1
  0
SCALE
  5
44
102
{ACAD_REACTORS
330
42
102
}
330
42
100
AcDbScale
 70
     0
300
1/128" = 1'-0"
140
0.0078125
141
12.0
290
     0
  0
SCALE
  5
45
102
{ACAD_REACTORS
330
42
102
}
330
42
100
AcDbScale
 70
     0
300
1/64" = 1'-0"
140
0.015625
141
12.0
290
     0
  0
SCALE
  5
46
102
{ACAD_REACTORS
330
42
102
}
330
42
100
AcDbScale
 70
     0
300
1/32" = 1'-0"
140
0.03125
141
12.0
290
     0
  0
SCALE
  5
47
102
{ACAD_REACTORS
330
42
102
}
330
42
100
AcDbScale
 70
     0
300
1/16" = 1'-0"
140
0.0625
141
12.0
290
     0
  0
SCALE
  5
48
102
{ACAD_REACTORS
330
42
102
}
330
42
100
AcDbScale
 70
     0
300
3/32" = 1'-0"
140
0.09375
141
12.0
290
     0
  0
SCALE
  5
49
102
{ACAD_REACTORS
330
42
102
}
330
42
100
AcDbScale
 70
     0
300
1/8" = 1'-0"
140
0.125
141
12.0
290
     0
  0
SCALE
  5
4A
102
{ACAD_REACTORS
330
42
102
}
330
42
100
AcDbScale
 70
     0
300
3/16" = 1'-0"
140
0.1875
141
12.0
290
     0
  0
SCALE
  5
4B
102
{ACAD_REACTORS
330
42
102
}
330
42
100
AcDbScale
 70
     0
300
1/4" = 1'-0"
140
0.25
141
12.0
290
     0
  0
SCALE
  5
4C
102
{ACAD_REACTORS
330
42
102
}
330
42
100
AcDbScale
 70
     0
300
3/8" = 1'-0"
140
0.375
141
12.0
290
     0
  0
SCALE
  5
4D
102
{ACAD_REACTORS
330
42
102
}
330
42
100
AcDbScale
 70
     0
300
1/2" = 1'-0"
140
0.5
141
12.0
290
     0
  0
SCALE
  5
4E
102
{ACAD_REACTORS
330
42
102
}
330
42
100
AcDbScale
 70
     0
300
3/4" = 1'-0"
140
0.75
141
12.0
290
     0
  0
SCALE
  5
4F
102
{ACAD_REACTORS
330
42
102
}
330
42
100
AcDbScale
 70
     0
300
1" = 1'-0"
140
1.0
141
12.0
290
     0
  0
SCALE
  5
50
102
{ACAD_REACTORS
330
42
102
}
330
42
100
AcDbScale
 70
     0
300
1-1/2" = 1'-0"
140
1.5
141
12.0
290
     0
  0
SCALE
  5
51
102
{ACAD_REACTORS
330
42
102
}
330
42
100
AcDbScale
 70
     0
300
3" = 1'-0"
140
3.0
141
12.0
290
     0
  0
SCALE
  5
52
102
{ACAD_REACTORS
330
42
102
}
330
42
100
AcDbScale
 70
     0
300
6" = 1'-0"
140
6.0
141
12.0
290
     0
  0
SCALE
  5
53
102
{ACAD_REACTORS
330
42
102
}
330
42
100
AcDbScale
 70
     0
300
1'-0" = 1'-0"
140
12.0
141
12.0
290
     0
  0
ACDBSECTIONVIEWSTYLE
  5
69
102
{ACAD_REACTORS
330
68
102
}
330
68
100
AcDbModelDocViewStyle
 70
     0
  3
Imperial24
290
     1
300
Imperial24
 90
        0
100
AcDbSectionViewStyle
 70
     0
 71
     0
 90
       78
 71
     1
340
55
 62
   256
 40
0.24
340
0
340
0
 62
   256
 40
0.24
300
I, O, Q, S, X, Z
 40
0.48
 90
        3
 40
0.18
 90
        1
 71
     2
340
5D
 90
       25
 62
   256
340
5D
 90
       50
 62
   256
 40
0.24
 40
0.0
 40
0.24
 71
     3
340
55
 62
   256
 40
0.24
 90
        1
 40
0.75
 90
        1
300
%<\AcVar ViewType \f "%tc1">% %<\AcVar ViewSectionStartId>%-%<\AcVar ViewSectionEndId>%\PSCALE %<\AcVar ViewScale \f "%sn">%
 71
     4
 62
   256
 62
   257
300
ANSI31
 40
1.0
 90
        0
290
     0
290
     0
 90
        6
 40
0.0
 40
1.570796326794896
 40
0.2617993877991494
 40
1.308996938995747
 40
-0.2617993877991494
 40
1.832595714594046
  0
ACDBSECTIONVIEWSTYLE
  5
252
102
{ACAD_REACTORS
330
68
102
}
330
68
100
AcDbModelDocViewStyle
 70
     0
  3
Metric50
290
     1
300
Metric50
 90
        0
100
AcDbSectionViewStyle
 70
     0
 71
     0
 90
      102
 71
     1
340
55
 62
   256
 40
5.0
340
0
340
0
 62
   256
 40
5.0
300
I, O, Q, S, X, Z
 40
10.0
 90
        0
 40
2.5
 90
        0
 71
     2
340
5D
 90
       25
 62
   256
340
5D
 90
       50
 62
   256
 40
5.0
 40
2.5
 40
5.0
 71
     3
340
55
 62
   256
 40
5.0
 90
        0
 40
15.0
 90
        1
300
%<\AcVar ViewSectionStartId>%-%<\AcVar ViewSectionEndId>% (%<\AcVar ViewScale \f "%sn">%)
 71
     4
 62
   256
 62
   257
300
ANSI31
 40
1.0
 90
        0
290
     0
290
     0
 90
        6
 40
0.0
 40
1.570796326794896
 40
0.2617993877991494
 40
1.308996938995747
 40
-0.2617993877991494
 40
1.832595714594046
  0
TABLESTYLE
  5
65
102
{ACAD_XDICTIONARY
360
5D9
102
}
102
{ACAD_REACTORS
330
64
102
}
330
64
100
AcDbTableStyle
280
     0
  3
Standard
 70
     0
 71
     0
 40
0.06
 41
0.06
280
     0
281
     0
  7
Standard
140
0.18
170
     2
 62
     0
 63
     7
283
     0
 90
      512
 91
        0
  1

274
    -2
284
     1
 64
     0
275
    -2
285
     1
 65
     0
276
    -2
286
     1
 66
     0
277
    -2
287
     1
 67
     0
278
    -2
288
     1
 68
     0
279
    -2
289
     1
 69
     0
  7
Standard
140
0.25
170
     5
 62
     0
 63
     7
283
     0
 90
      512
 91
        0
  1

274
    -2
284
     1
 64
     0
275
    -2
285
     1
 65
     0
276
    -2
286
     1
 66
     0
277
    -2
287
     1
 67
     0
278
    -2
288
     1
 68
     0
279
    -2
289
     1
 69
     0
  7
Standard
140
0.18
170
     5
 62
     0
 63
     7
283
     0
 90
      512
 91
        0
  1

274
    -2
284
     1
 64
     0
275
    -2
285
     1
 65
     0
276
    -2
286
     1
 66
     0
277
    -2
287
     1
 67
     0
278
    -2
288
     1
 68
     0
279
    -2
289
     1
 69
     0
  0
VISUALSTYLE
  5
2F
102
{ACAD_REACTORS
330
29
102
}
330
29
100
AcDbVisualStyle
  2
2dWireframe
 70
     4
177
     3
291
     0
 70
    58
 90
        0
176
     1
 90
        2
176
     1
 90
        0
176
     1
 90
        0
176
     1
 40
0.6
176
     1
 40
30.0
176
     1
 62
     7
420
 16777215
176
     1
 90
        1
176
     1
 90
        4
176
     1
 62
     7
176
     1
 62
   257
176
     1
 90
        1
176
     1
 90
        1
176
     1
 40
1.0
176
     1
 90
        0
176
     1
 62
   257
176
     1
 40
1.0
176
     1
 90
        1
176
     1
 90
        6
176
     1
 90
        2
176
     1
 62
     7
176
     1
 90
        5
176
     1
 90
        0
176
     1
 90
        0
176
     1
290
     0
176
     1
 90
        1
176
     1
 40
0.0
176
     1
 90
        0
176
     1
290
     1
176
     1
290
     1
176
     1
290
     0
176
     1
290
     0
176
     1
290
     0
176
     1
290
     0
176
     1
290
     0
176
     1
290
     0
176
     1
290
     0
176
     1
 90
       50
176
     1
 40
0.0
176
     1
 40
1.0
176
     1
 90
        0
176
     1
 62
    18
420
        0
176
     1
 90
       50
176
     1
 90
        3
176
     1
 62
     5
420
      255
176
     1
290
     0
176
     1
 90
       50
176
     1
 90
       50
176
     1
 90
       50
176
     1
290
     0
176
     1
 90
       50
176
     1
 62
   256
176
     0
 40
1.0
176
     0
 90
        2
176
     1
  1
strokes_ogs.tif
176
     1
290
     0
176
     1
 40
1.0
176
     1
 40
1.0
176
     1
  0
VISUALSTYLE
  5
2E
102
{ACAD_REACTORS
330
29
102
}
330
29
100
AcDbVisualStyle
  2
Basic
 70
     7
177
     3
291
     1
 70
    58
 90
        1
176
     1
 90
        0
176
     1
 90
        1
176
     1
 90
        0
176
     1
 40
0.6
176
     1
 40
30.0
176
     1
 62
     7
420
 16777215
176
     1
 90
        0
176
     1
 90
        4
176
     1
 62
     7
176
     1
 62
   257
176
     1
 90
        1
176
     1
 90
        1
176
     1
 40
1.0
176
     1
 90
        8
176
     1
 62
     7
176
     1
 40
1.0
176
     1
 90
        1
176
     1
 90
        6
176
     1
 90
        2
176
     1
 62
     7
176
     1
 90
        5
176
     1
 90
        0
176
     1
 90
        0
176
     1
290
     0
176
     1
 90
        1
176
     1
 40
0.0
176
     1
 90
        0
176
     1
290
     0
176
     1
290
     1
176
     1
290
     1
176
     1
290
     0
176
     1
290
     0
176
     1
290
     0
176
     1
290
     0
176
     1
290
     0
176
     1
290
     0
176
     1
 90
       50
176
     1
 40
0.0
176
     1
 40
1.0
176
     1
 90
        0
176
     1
 62
    18
420
        0
176
     1
 90
       50
176
     1
 90
        3
176
     1
 62
     5
420
      255
176
     1
290
     0
176
     1
 90
       50
176
     1
 90
       50
176
     1
 90
       50
176
     1
290
     0
176
     1
 90
       50
176
     1
 62
   256
176
     0
 40
1.0
176
     0
 90
        2
176
     1
  1
strokes_ogs.tif
176
     1
290
     0
176
     1
 40
1.0
176
     1
 40
1.0
176
     1
  0
VISUALSTYLE
  5
35
102
{ACAD_REACTORS
330
29
102
}
330
29
100
AcDbVisualStyle
  2
Brighten
 70
    12
177
     3
291
     1
 70
    58
 90
        2
176
     1
 90
        2
176
     1
 90
        0
176
     1
 90
        0
176
     1
 40
0.6
176
     1
 40
30.0
176
     1
 62
     7
420
 16777215
176
     1
 90
        1
176
     1
 90
        4
176
     1
 62
     7
176
     1
 62
   257
176
     1
 90
        1
176
     1
 90
        1
176
     1
 40
1.0
176
     1
 90
        8
176
     1
 62
     7
176
     1
 40
1.0
176
     1
 90
        1
176
     1
 90
        6
176
     1
 90
        2
176
     1
 62
     7
176
     1
 90
        5
176
     1
 90
        0
176
     1
 90
        0
176
     1
290
     0
176
     1
 90
        1
176
     1
 40
50.0
176
     1
 90
        0
176
     1
290
     0
176
     1
290
     1
176
     1
290
     1
176
     1
290
     0
176
     1
290
     0
176
     1
290
     0
176
     1
290
     0
176
     1
290
     0
176
     1
290
     0
176
     1
 90
       50
176
     1
 40
0.0
176
     1
 40
1.0
176
     1
 90
        0
176
     1
 62
    18
420
        0
176
     1
 90
       50
176
     1
 90
        3
176
     1
 62
     5
420
      255
176
     1
290
     0
176
     1
 90
       50
176
     1
 90
       50
176
     1
 90
       50
176
     1
290
     0
176
     1
 90
       50
176
     1
 62
   256
176
     0
 40
1.0
176
     0
 90
        2
176
     1
  1
strokes_ogs.tif
176
     1
290
     0
176
     1
 40
1.0
176
     1
 40
1.0
176
     1
  0
VISUALSTYLE
  5
39
102
{ACAD_REACTORS
330
29
102
}
330
29
100
AcDbVisualStyle
  2
ColorChange
 70
    16
177
     3
291
     1
 70
    58
 90
        2
176
     1
 90
        2
176
     1
 90
        3
176
     1
 90
        0
176
     1
 40
0.6
176
     1
 40
30.0
176
     1
 62
     8
420
  8421504
176
     1
 90
        1
176
     1
 90
        4
176
     1
 62
     7
176
     1
 62
   257
176
     1
 90
        1
176
     1
 90
        1
176
     1
 40
1.0
176
     1
 90
        8
176
     1
 62
     8
420
  8421504
176
     1
 40
1.0
176
     1
 90
        1
176
     1
 90
        6
176
     1
 90
        2
176
     1
 62
     7
176
     1
 90
        5
176
     1
 90
        0
176
     1
 90
        0
176
     1
290
     0
176
     1
 90
        1
176
     1
 40
0.0
176
     1
 90
        0
176
     1
290
     0
176
     1
290
     1
176
     1
290
     1
176
     1
290
     0
176
     1
290
     0
176
     1
290
     0
176
     1
290
     0
176
     1
290
     0
176
     1
290
     0
176
     1
 90
       50
176
     1
 40
0.0
176
     1
 40
1.0
176
     1
 90
        0
176
     1
 62
    18
420
        0
176
     1
 90
       50
176
     1
 90
        3
176
     1
 62
     5
420
      255
176
     1
290
     0
176
     1
 90
       50
176
     1
 90
       50
176
     1
 90
       50
176
     1
290
     0
176
     1
 90
       50
176
     1
 62
   256
176
     0
 40
1.0
176
     0
 90
        2
176
     1
  1
strokes_ogs.tif
176
     1
290
     0
176
     1
 40
1.0
176
     1
 40
1.0
176
     1
  0
VISUALSTYLE
  5
32
102
{ACAD_REACTORS
330
29
102
}
330
29
100
AcDbVisualStyle
  2
Conceptual
 70
     9
177
     3
291
     0
 70
    58
 90
        3
176
     1
 90
        2
176
     1
 90
        0
176
     1
 90
        0
176
     1
 40
0.6
176
     1
 40
30.0
176
     1
 62
     7
420
 16777215
176
     1
 90
        2
176
     1
 90
        2
176
     1
 62
     7
176
     1
 62
   257
176
     1
 90
        1
176
     1
 90
        1
176
     1
 40
179.0
176
     1
 90
        8
176
     1
 62
     7
176
     1
 40
1.0
176
     1
 90
        1
176
     1
 90
        6
176
     1
 90
        2
176
     1
 62
     7
176
     1
 90
        3
176
     1
 90
        0
176
     1
 90
        0
176
     1
290
     0
176
     1
 90
        1
176
     1
 40
0.0
176
     1
 90
        0
176
     1
290
     0
176
     1
290
     1
176
     1
290
     1
176
     1
290
     0
176
     1
290
     0
176
     1
290
     0
176
     1
290
     0
176
     1
290
     0
176
     1
290
     0
176
     1
 90
       50
176
     1
 40
0.0
176
     1
 40
1.0
176
     1
 90
        0
176
     1
 62
    18
420
        0
176
     1
 90
       50
176
     1
 90
        3
176
     1
 62
     5
420
      255
176
     1
290
     0
176
     1
 90
       50
176
     1
 90
       50
176
     1
 90
       50
176
     1
290
     0
176
     1
 90
       50
176
     1
 62
   256
176
     0
 40
1.0
176
     0
 90
        2
176
     1
  1
strokes_ogs.tif
176
     1
290
     0
176
     1
 40
1.0
176
     1
 40
1.0
176
     1
  0
VISUALSTYLE
  5
34
102
{ACAD_REACTORS
330
29
102
}
330
29
100
AcDbVisualStyle
  2
Dim
 70
    11
177
     3
291
     1
 70
    58
 90
        2
176
     1
 90
        2
176
     1
 90
        0
176
     1
 90
        0
176
     1
 40
0.6
176
     1
 40
30.0
176
     1
 62
     7
420
 16777215
176
     1
 90
        1
176
     1
 90
        4
176
     1
 62
     7
176
     1
 62
   257
176
     1
 90
        1
176
     1
 90
        1
176
     1
 40
1.0
176
     1
 90
        8
176
     1
 62
     7
176
     1
 40
1.0
176
     1
 90
        1
176
     1
 90
        6
176
     1
 90
        2
176
     1
 62
     7
176
     1
 90
        5
176
     1
 90
        0
176
     1
 90
        0
176
     1
290
     0
176
     1
 90
        1
176
     1
 40
-50.0
176
     1
 90
        0
176
     1
290
     0
176
     1
290
     1
176
     1
290
     1
176
     1
290
     0
176
     1
290
     0
176
     1
290
     0
176
     1
290
     0
176
     1
290
     0
176
     1
290
     0
176
     1
 90
       50
176
     1
 40
0.0
176
     1
 40
1.0
176
     1
 90
        0
176
     1
 62
    18
420
        0
176
     1
 90
       50
176
     1
 90
        3
176
     1
 62
     5
420
      255
176
     1
290
     0
176
     1
 90
       50
176
     1
 90
       50
176
     1
 90
       50
176
     1
290
     0
176
     1
 90
       50
176
     1
 62
   256
176
     0
 40
1.0
176
     0
 90
        2
176
     1
  1
strokes_ogs.tif
176
     1
290
     0
176
     1
 40
1.0
176
     1
 40
1.0
176
     1
  0
VISUALSTYLE
  5
41
102
{ACAD_REACTORS
330
29
102
}
330
29
100
AcDbVisualStyle
  2
EdgeColorOff
 70
    22
177
     3
291
     1
 70
    58
 90
        2
176
     0
 90
        2
176
     0
 90
        0
176
     0
 90
        0
176
     0
 40
0.6
176
     0
 40
30.0
176
     0
 62
     7
420
 16777215
176
     0
 90
        1
176
     0
 90
        4
176
     0
 62
     7
176
     0
 62
   257
176
     0
 90
        1
176
     0
 90
        1
176
     0
 40
1.0
176
     0
 90
        8
176
     2
 62
     7
176
     0
 40
1.0
176
     0
 90
        1
176
     0
 90
        6
176
     0
 90
        2
176
     0
 62
     7
176
     0
 90
        5
176
     0
 90
        0
176
     0
 90
        0
176
     0
290
     0
176
     0
 90
        1
176
     0
 40
0.0
176
     0
 90
        0
176
     0
290
     0
176
     0
290
     1
176
     0
290
     1
176
     0
290
     0
176
     0
290
     0
176
     0
290
     0
176
     0
290
     0
176
     0
290
     0
176
     0
290
     0
176
     0
 90
       50
176
     0
 40
0.0
176
     0
 40
1.0
176
     0
 90
        0
176
     0
 62
    18
420
        0
176
     0
 90
       50
176
     0
 90
        3
176
     0
 62
     5
420
      255
176
     0
290
     0
176
     0
 90
       50
176
     0
 90
       50
176
     0
 90
       50
176
     0
290
     0
176
     0
 90
       50
176
     0
 62
   256
176
     0
 40
1.0
176
     0
 90
        2
176
     0
  1
strokes_ogs.tif
176
     0
290
     0
176
     0
 40
1.0
176
     0
 40
1.0
176
     0
  0
VISUALSTYLE
  5
38
102
{ACAD_REACTORS
330
29
102
}
330
29
100
AcDbVisualStyle
  2
Facepattern
 70
    15
177
     3
291
     1
 70
    58
 90
        2
176
     1
 90
        2
176
     1
 90
        0
176
     1
 90
        0
176
     1
 40
0.6
176
     1
 40
30.0
176
     1
 62
     7
420
 16777215
176
     1
 90
        1
176
     1
 90
        4
176
     1
 62
     7
176
     1
 62
   257
176
     1
 90
        1
176
     1
 90
        1
176
     1
 40
1.0
176
     1
 90
        8
176
     1
 62
     7
176
     1
 40
1.0
176
     1
 90
        1
176
     1
 90
        6
176
     1
 90
        2
176
     1
 62
     7
176
     1
 90
        5
176
     1
 90
        0
176
     1
 90
        0
176
     1
290
     0
176
     1
 90
        1
176
     1
 40
0.0
176
     1
 90
        0
176
     1
290
     0
176
     1
290
     1
176
     1
290
     1
176
     1
290
     0
176
     1
290
     0
176
     1
290
     0
176
     1
290
     0
176
     1
290
     0
176
     1
290
     0
176
     1
 90
       50
176
     1
 40
0.0
176
     1
 40
1.0
176
     1
 90
        0
176
     1
 62
    18
420
        0
176
     1
 90
       50
176
     1
 90
        3
176
     1
 62
     5
420
      255
176
     1
290
     0
176
     1
 90
       50
176
     1
 90
       50
176
     1
 90
       50
176
     1
290
     0
176
     1
 90
       50
176
     1
 62
   256
176
     0
 40
1.0
176
     0
 90
        2
176
     1
  1
strokes_ogs.tif
176
     1
290
     0
176
     1
 40
1.0
176
     1
 40
1.0
176
     1
  0
VISUALSTYLE
  5
2A
102
{ACAD_REACTORS
330
29
102
}
330
29
100
AcDbVisualStyle
  2
Flat
 70
     0
177
     3
291
     1
 70
    58
 90
        2
176
     1
 90
        1
176
     1
 90
        1
176
     1
 90
        2
176
     1
 40
0.6
176
     1
 40
30.0
176
     1
 62
     7
420
 16777215
176
     1
 90
        0
176
     1
 90
        0
176
     1
 62
     7
176
     1
 62
   257
176
     1
 90
        1
176
     1
 90
        1
176
     1
 40
1.0
176
     1
 90
        8
176
     1
 62
     7
176
     1
 40
1.0
176
     1
 90
        1
176
     1
 90
        6
176
     1
 90
        2
176
     1
 62
     7
176
     1
 90
        5
176
     1
 90
        0
176
     1
 90
        0
176
     1
290
     0
176
     1
 90
       13
176
     1
 40
0.0
176
     1
 90
        0
176
     1
290
     0
176
     1
290
     1
176
     1
290
     1
176
     1
290
     0
176
     1
290
     0
176
     1
290
     0
176
     1
290
     0
176
     1
290
     0
176
     1
290
     0
176
     1
 90
       50
176
     1
 40
0.0
176
     1
 40
1.0
176
     1
 90
        0
176
     1
 62
    18
420
        0
176
     1
 90
       50
176
     1
 90
        3
176
     1
 62
     5
420
      255
176
     1
290
     0
176
     1
 90
       50
176
     1
 90
       50
176
     1
 90
       50
176
     1
290
     0
176
     1
 90
       50
176
     1
 62
   256
176
     0
 40
1.0
176
     0
 90
        2
176
     1
  1
strokes_ogs.tif
176
     1
290
     0
176
     1
 40
1.0
176
     1
 40
1.0
176
     1
  0
VISUALSTYLE
  5
2B
102
{ACAD_REACTORS
330
29
102
}
330
29
100
AcDbVisualStyle
  2
FlatWithEdges
 70
     1
177
     3
291
     1
 70
    58
 90
        2
176
     1
 90
        1
176
     1
 90
        1
176
     1
 90
        2
176
     1
 40
0.6
176
     1
 40
30.0
176
     1
 62
     7
420
 16777215
176
     1
 90
        1
176
     1
 90
        0
176
     1
 62
     7
176
     1
 62
   257
176
     1
 90
        1
176
     1
 90
        1
176
     1
 40
1.0
176
     1
 90
        0
176
     1
 62
   257
176
     1
 40
1.0
176
     1
 90
        1
176
     1
 90
        6
176
     1
 90
        2
176
     1
 62
     7
176
     1
 90
        5
176
     1
 90
        0
176
     1
 90
        0
176
     1
290
     0
176
     1
 90
       13
176
     1
 40
0.0
176
     1
 90
        0
176
     1
290
     0
176
     1
290
     1
176
     1
290
     1
176
     1
290
     0
176
     1
290
     0
176
     1
290
     0
176
     1
290
     0
176
     1
290
     0
176
     1
290
     0
176
     1
 90
       50
176
     1
 40
0.0
176
     1
 40
1.0
176
     1
 90
        0
176
     1
 62
    18
420
        0
176
     1
 90
       50
176
     1
 90
        3
176
     1
 62
     5
420
      255
176
     1
290
     0
176
     1
 90
       50
176
     1
 90
       50
176
     1
 90
       50
176
     1
290
     0
176
     1
 90
       50
176
     1
 62
   256
176
     0
 40
1.0
176
     0
 90
        2
176
     1
  1
strokes_ogs.tif
176
     1
290
     0
176
     1
 40
1.0
176
     1
 40
1.0
176
     1
  0
VISUALSTYLE
  5
2C
102
{ACAD_REACTORS
330
29
102
}
330
29
100
AcDbVisualStyle
  2
Gouraud
 70
     2
177
     3
291
     1
 70
    58
 90
        2
176
     1
 90
        2
176
     1
 90
        1
176
     1
 90
        2
176
     1
 40
0.6
176
     1
 40
30.0
176
     1
 62
     7
420
 16777215
176
     1
 90
        0
176
     1
 90
        0
176
     1
 62
     7
176
     1
 62
   257
176
     1
 90
        1
176
     1
 90
        1
176
     1
 40
1.0
176
     1
 90
        0
176
     1
 62
     7
176
     1
 40
1.0
176
     1
 90
        1
176
     1
 90
        6
176
     1
 90
        2
176
     1
 62
     7
176
     1
 90
        5
176
     1
 90
        0
176
     1
 90
        0
176
     1
290
     0
176
     1
 90
       13
176
     1
 40
0.0
176
     1
 90
        0
176
     1
290
     0
176
     1
290
     1
176
     1
290
     1
176
     1
290
     0
176
     1
290
     0
176
     1
290
     0
176
     1
290
     0
176
     1
290
     0
176
     1
290
     0
176
     1
 90
       50
176
     1
 40
0.0
176
     1
 40
1.0
176
     1
 90
        0
176
     1
 62
    18
420
        0
176
     1
 90
       50
176
     1
 90
        3
176
     1
 62
     5
420
      255
176
     1
290
     0
176
     1
 90
       50
176
     1
 90
       50
176
     1
 90
       50
176
     1
290
     0
176
     1
 90
       50
176
     1
 62
   256
176
     0
 40
1.0
176
     0
 90
        2
176
     1
  1
strokes_ogs.tif
176
     1
290
     0
176
     1
 40
1.0
176
     1
 40
1.0
176
     1
  0
VISUALSTYLE
  5
2D
102
{ACAD_REACTORS
330
29
102
}
330
29
100
AcDbVisualStyle
  2
GouraudWithEdges
 70
     3
177
     3
291
     1
 70
    58
 90
        2
176
     1
 90
        2
176
     1
 90
        1
176
     1
 90
        2
176
     1
 40
0.6
176
     1
 40
30.0
176
     1
 62
     7
420
 16777215
176
     1
 90
        1
176
     1
 90
        0
176
     1
 62
     7
176
     1
 62
   257
176
     1
 90
        1
176
     1
 90
        1
176
     1
 40
1.0
176
     1
 90
        0
176
     1
 62
   257
176
     1
 40
1.0
176
     1
 90
        1
176
     1
 90
        6
176
     1
 90
        2
176
     1
 62
     7
176
     1
 90
        5
176
     1
 90
        0
176
     1
 90
        0
176
     1
290
     0
176
     1
 90
       13
176
     1
 40
0.0
176
     1
 90
        0
176
     1
290
     0
176
     1
290
     1
176
     1
290
     1
176
     1
290
     0
176
     1
290
     0
176
     1
290
     0
176
     1
290
     0
176
     1
290
     0
176
     1
290
     0
176
     1
 90
       50
176
     1
 40
0.0
176
     1
 40
1.0
176
     1
 90
        0
176
     1
 62
    18
420
        0
176
     1
 90
       50
176
     1
 90
        3
176
     1
 62
     5
420
      255
176
     1
290
     0
176
     1
 90
       50
176
     1
 90
       50
176
     1
 90
       50
176
     1
290
     0
176
     1
 90
       50
176
     1
 62
   256
176
     0
 40
1.0
176
     0
 90
        2
176
     1
  1
strokes_ogs.tif
176
     1
290
     0
176
     1
 40
1.0
176
     1
 40
1.0
176
     1
  0
VISUALSTYLE
  5
31
102
{ACAD_REACTORS
330
29
102
}
330
29
100
AcDbVisualStyle
  2
Hidden
 70
     6
177
     3
291
     0
 70
    58
 90
        1
176
     1
 90
        2
176
     1
 90
        2
176
     1
 90
        0
176
     1
 40
0.6
176
     1
 40
30.0
176
     1
 62
     7
420
 16777215
176
     1
 90
        2
176
     1
 90
        2
176
     1
 62
     7
176
     1
 62
   257
176
     1
 90
        2
176
     1
 90
        1
176
     1
 40
40.0
176
     1
 90
        0
176
     1
 62
   257
176
     1
 40
1.0
176
     1
 90
        1
176
     1
 90
        6
176
     1
 90
        2
176
     1
 62
     7
176
     1
 90
        3
176
     1
 90
        0
176
     1
 90
        0
176
     1
290
     0
176
     1
 90
        1
176
     1
 40
0.0
176
     1
 90
        0
176
     1
290
     0
176
     1
290
     1
176
     1
290
     1
176
     1
290
     0
176
     1
290
     0
176
     1
290
     0
176
     1
290
     0
176
     1
290
     0
176
     1
290
     0
176
     1
 90
       50
176
     1
 40
0.0
176
     1
 40
1.0
176
     1
 90
        0
176
     1
 62
    18
420
        0
176
     1
 90
       50
176
     1
 90
        3
176
     1
 62
     5
420
      255
176
     1
290
     0
176
     1
 90
       50
176
     1
 90
       50
176
     1
 90
       50
176
     1
290
     0
176
     1
 90
       50
176
     1
 62
   256
176
     0
 40
1.0
176
     0
 90
        2
176
     1
  1
strokes_ogs.tif
176
     1
290
     0
176
     1
 40
1.0
176
     1
 40
1.0
176
     1
  0
VISUALSTYLE
  5
3F
102
{ACAD_REACTORS
330
29
102
}
330
29
100
AcDbVisualStyle
  2
JitterOff
 70
    20
177
     3
291
     1
 70
    58
 90
        2
176
     0
 90
        2
176
     0
 90
        0
176
     0
 90
        0
176
     0
 40
0.6
176
     0
 40
30.0
176
     0
 62
     7
420
 16777215
176
     0
 90
        1
176
     0
 90
        4
176
     0
 62
     7
176
     0
 62
   257
176
     0
 90
        1
176
     0
 90
        1
176
     0
 40
1.0
176
     0
 90
       10
176
     2
 62
     7
176
     0
 40
1.0
176
     0
 90
        1
176
     0
 90
        6
176
     0
 90
        2
176
     0
 62
     7
176
     0
 90
        5
176
     0
 90
        0
176
     0
 90
        0
176
     0
290
     0
176
     0
 90
        1
176
     0
 40
0.0
176
     0
 90
        0
176
     0
290
     0
176
     0
290
     1
176
     0
290
     1
176
     0
290
     0
176
     0
290
     0
176
     0
290
     0
176
     0
290
     0
176
     0
290
     0
176
     0
290
     0
176
     0
 90
       50
176
     0
 40
0.0
176
     0
 40
1.0
176
     0
 90
        0
176
     0
 62
    18
420
        0
176
     0
 90
       50
176
     0
 90
        3
176
     0
 62
     5
420
      255
176
     0
290
     0
176
     0
 90
       50
176
     0
 90
       50
176
     0
 90
       50
176
     0
290
     0
176
     0
 90
       50
176
     0
 62
   256
176
     0
 40
1.0
176
     0
 90
        2
176
     0
  1
strokes_ogs.tif
176
     0
290
     0
176
     0
 40
1.0
176
     0
 40
1.0
176
     0
  0
VISUALSTYLE
  5
37
102
{ACAD_REACTORS
330
29
102
}
330
29
100
AcDbVisualStyle
  2
Linepattern
 70
    14
177
     3
291
     1
 70
    58
 90
        2
176
     1
 90
        2
176
     1
 90
        0
176
     1
 90
        0
176
     1
 40
0.6
176
     1
 40
30.0
176
     1
 62
     7
420
 16777215
176
     1
 90
        1
176
     1
 90
        4
176
     1
 62
     7
176
     1
 62
   257
176
     1
 90
        7
176
     1
 90
        7
176
     1
 40
1.0
176
     1
 90
        8
176
     1
 62
     7
176
     1
 40
1.0
176
     1
 90
        1
176
     1
 90
        6
176
     1
 90
        2
176
     1
 62
     7
176
     1
 90
        5
176
     1
 90
        0
176
     1
 90
        0
176
     1
290
     0
176
     1
 90
        1
176
     1
 40
0.0
176
     1
 90
        0
176
     1
290
     0
176
     1
290
     1
176
     1
290
     1
176
     1
290
     0
176
     1
290
     0
176
     1
290
     0
176
     1
290
     0
176
     1
290
     0
176
     1
290
     0
176
     1
 90
       50
176
     1
 40
0.0
176
     1
 40
1.0
176
     1
 90
        0
176
     1
 62
    18
420
        0
176
     1
 90
       50
176
     1
 90
        3
176
     1
 62
     5
420
      255
176
     1
290
     0
176
     1
 90
       50
176
     1
 90
       50
176
     1
 90
       50
176
     1
290
     0
176
     1
 90
       50
176
     1
 62
   256
176
     0
 40
1.0
176
     0
 90
        2
176
     1
  1
strokes_ogs.tif
176
     1
290
     0
176
     1
 40
1.0
176
     1
 40
1.0
176
     1
  0
VISUALSTYLE
  5
40
102
{ACAD_REACTORS
330
29
102
}
330
29
100
AcDbVisualStyle
  2
OverhangOff
 70
    21
177
     3
291
     1
 70
    58
 90
        2
176
     0
 90
        2
176
     0
 90
        0
176
     0
 90
        0
176
     0
 40
0.6
176
     0
 40
30.0
176
     0
 62
     7
420
 16777215
176
     0
 90
        1
176
     0
 90
        4
176
     0
 62
     7
176
     0
 62
   257
176
     0
 90
        1
176
     0
 90
        1
176
     0
 40
1.0
176
     0
 90
        9
176
     2
 62
     7
176
     0
 40
1.0
176
     0
 90
        1
176
     0
 90
        6
176
     0
 90
        2
176
     0
 62
     7
176
     0
 90
        5
176
     0
 90
        0
176
     0
 90
        0
176
     0
290
     0
176
     0
 90
        1
176
     0
 40
0.0
176
     0
 90
        0
176
     0
290
     0
176
     0
290
     1
176
     0
290
     1
176
     0
290
     0
176
     0
290
     0
176
     0
290
     0
176
     0
290
     0
176
     0
290
     0
176
     0
290
     0
176
     0
 90
       50
176
     0
 40
0.0
176
     0
 40
1.0
176
     0
 90
        0
176
     0
 62
    18
420
        0
176
     0
 90
       50
176
     0
 90
        3
176
     0
 62
     5
420
      255
176
     0
290
     0
176
     0
 90
       50
176
     0
 90
       50
176
     0
 90
       50
176
     0
290
     0
176
     0
 90
       50
176
     0
 62
   256
176
     0
 40
1.0
176
     0
 90
        2
176
     0
  1
strokes_ogs.tif
176
     0
290
     0
176
     0
 40
1.0
176
     0
 40
1.0
176
     0
  0
VISUALSTYLE
  5
33
102
{ACAD_REACTORS
330
29
102
}
330
29
100
AcDbVisualStyle
  2
Realistic
 70
     8
177
     3
291
     0
 70
    58
 90
        2
176
     1
 90
        3
176
     1
 90
        0
176
     1
 90
        2
176
     1
 40
0.6
176
     1
 40
30.0
176
     1
 62
     7
420
 16777215
176
     1
 90
        0
176
     1
 90
        0
176
     1
 62
     7
176
     1
 62
   257
176
     1
 90
        1
176
     1
 90
        1
176
     1
 40
1.0
176
     1
 90
        8
176
     1
 62
   257
176
     1
 40
1.0
176
     1
 90
        1
176
     1
 90
        6
176
     1
 90
        2
176
     1
 62
     7
176
     1
 90
        3
176
     1
 90
        0
176
     1
 90
        0
176
     1
290
     0
176
     1
 90
       13
176
     1
 40
0.0
176
     1
 90
        0
176
     1
290
     0
176
     1
290
     1
176
     1
290
     1
176
     1
290
     0
176
     1
290
     0
176
     1
290
     0
176
     1
290
     0
176
     1
290
     0
176
     1
290
     0
176
     1
 90
       50
176
     1
 40
0.0
176
     1
 40
1.0
176
     1
 90
        0
176
     1
 62
    18
420
        0
176
     1
 90
       50
176
     1
 90
        3
176
     1
 62
     5
420
      255
176
     1
290
     0
176
     1
 90
       50
176
     1
 90
       50
176
     1
 90
       50
176
     1
290
     0
176
     1
 90
       50
176
     1
 62
   256
176
     0
 40
1.0
176
     0
 90
        2
176
     1
  1
strokes_ogs.tif
176
     1
290
     0
176
     1
 40
1.0
176
     1
 40
1.0
176
     1
  0
VISUALSTYLE
  5
3E
102
{ACAD_REACTORS
330
29
102
}
330
29
100
AcDbVisualStyle
  2
Shaded
 70
    27
177
     3
291
     0
 70
    58
 90
        2
176
     1
 90
        2
176
     1
 90
        1
176
     1
 90
        2
176
     1
 40
0.6
176
     1
 40
30.0
176
     1
 62
     7
420
 16777215
176
     1
 90
        0
176
     1
 90
        4
176
     1
 62
     7
176
     1
 62
   257
176
     1
 90
        1
176
     1
 90
        1
176
     1
 40
1.0
176
     1
 90
        8
176
     1
 62
   257
176
     1
 40
1.0
176
     1
 90
        1
176
     1
 90
        6
176
     1
 90
        2
176
     1
 62
     8
420
  7895160
176
     1
 90
        3
176
     1
 90
        0
176
     1
 90
        0
176
     1
290
     0
176
     1
 90
        5
176
     1
 40
0.0
176
     1
 90
        0
176
     1
290
     0
176
     1
290
     1
176
     1
290
     1
176
     1
290
     0
176
     1
290
     0
176
     1
290
     0
176
     1
290
     0
176
     1
290
     0
176
     1
290
     0
176
     1
 90
       50
176
     1
 40
0.0
176
     1
 40
1.0
176
     1
 90
        0
176
     1
 62
    18
420
        0
176
     1
 90
       50
176
     1
 90
        3
176
     1
 62
     5
420
      255
176
     1
290
     0
176
     1
 90
       50
176
     1
 90
       50
176
     1
 90
       50
176
     1
290
     0
176
     1
 90
       50
176
     1
 62
   256
176
     0
 40
1.0
176
     0
 90
        2
176
     1
  1
strokes_ogs.tif
176
     1
290
     0
176
     1
 40
1.0
176
     1
 40
1.0
176
     1
  0
VISUALSTYLE
  5
3D
102
{ACAD_REACTORS
330
29
102
}
330
29
100
AcDbVisualStyle
  2
Shaded with edges
 70
    26
177
     3
291
     0
 70
    58
 90
        2
176
     1
 90
        2
176
     1
 90
        1
176
     1
 90
        2
176
     1
 40
0.6
176
     1
 40
30.0
176
     1
 62
     7
420
 16777215
176
     1
 90
        1
176
     1
 90
        2
176
     1
 62
     7
176
     1
 62
   257
176
     1
 90
        2
176
     1
 90
        1
176
     1
 40
1.0
176
     1
 90
        8
176
     1
 62
   257
176
     1
 40
1.0
176
     1
 90
        1
176
     1
 90
        6
176
     1
 90
        2
176
     1
 62
     7
176
     1
 90
        3
176
     1
 90
        0
176
     1
 90
        0
176
     1
290
     0
176
     1
 90
        5
176
     1
 40
0.0
176
     1
 90
        0
176
     1
290
     0
176
     1
290
     1
176
     1
290
     1
176
     1
290
     0
176
     1
290
     0
176
     1
290
     0
176
     1
290
     0
176
     1
290
     0
176
     1
290
     0
176
     1
 90
       50
176
     1
 40
0.0
176
     1
 40
1.0
176
     1
 90
        0
176
     1
 62
    18
420
        0
176
     1
 90
       50
176
     1
 90
        3
176
     1
 62
     5
420
      255
176
     1
290
     0
176
     1
 90
       50
176
     1
 90
       50
176
     1
 90
       50
176
     1
290
     0
176
     1
 90
       50
176
     1
 62
   256
176
     0
 40
1.0
176
     0
 90
        2
176
     1
  1
strokes_ogs.tif
176
     1
290
     0
176
     1
 40
1.0
176
     1
 40
1.0
176
     1
  0
VISUALSTYLE
  5
3A
102
{ACAD_REACTORS
330
29
102
}
330
29
100
AcDbVisualStyle
  2
Shades of Gray
 70
    23
177
     3
291
     0
 70
    58
 90
        2
176
     1
 90
        2
176
     1
 90
        3
176
     1
 90
        0
176
     1
 40
0.6
176
     1
 40
30.0
176
     1
 62
     7
420
 16777215
176
     1
 90
        2
176
     1
 90
        2
176
     1
 62
     7
176
     1
 62
     7
176
     1
 90
        1
176
     1
 90
        1
176
     1
 40
40.0
176
     1
 90
        8
176
     1
 62
     7
176
     1
 40
1.0
176
     1
 90
        1
176
     1
 90
        6
176
     1
 90
        2
176
     1
 62
     7
176
     1
 90
        3
176
     1
 90
        0
176
     1
 90
        0
176
     1
290
     0
176
     1
 90
        1
176
     1
 40
0.0
176
     1
 90
        0
176
     1
290
     0
176
     1
290
     1
176
     1
290
     1
176
     1
290
     0
176
     1
290
     0
176
     1
290
     0
176
     1
290
     0
176
     1
290
     0
176
     1
290
     0
176
     1
 90
       50
176
     1
 40
0.0
176
     1
 40
1.0
176
     1
 90
        0
176
     1
 62
    18
420
        0
176
     1
 90
       50
176
     1
 90
        3
176
     1
 62
     5
420
      255
176
     1
290
     0
176
     1
 90
       50
176
     1
 90
       50
176
     1
 90
       50
176
     1
290
     0
176
     1
 90
       50
176
     1
 62
   256
176
     0
 40
1.0
176
     0
 90
        2
176
     1
  1
strokes_ogs.tif
176
     1
290
     0
176
     1
 40
1.0
176
     1
 40
1.0
176
     1
  0
VISUALSTYLE
  5
3B
102
{ACAD_REACTORS
330
29
102
}
330
29
100
AcDbVisualStyle
  2
Sketchy
 70
    24
177
     3
291
     0
 70
    58
 90
        1
176
     1
 90
        2
176
     1
 90
        2
176
     1
 90
        0
176
     1
 40
0.6
176
     1
 40
30.0
176
     1
 62
     7
420
 16777215
176
     1
 90
        2
176
     1
 90
        2
176
     1
 62
     7
176
     1
 62
     7
176
     1
 90
        1
176
     1
 90
        1
176
     1
 40
40.0
176
     1
 90
       11
176
     1
 62
     7
176
     1
 40
1.0
176
     1
 90
        1
176
     1
 90
        6
176
     1
 90
        2
176
     1
 62
     7
176
     1
 90
        6
176
     1
 90
        0
176
     1
 90
        0
176
     1
290
     0
176
     1
 90
        1
176
     1
 40
0.0
176
     1
 90
        0
176
     1
290
     0
176
     1
290
     1
176
     1
290
     1
176
     1
290
     0
176
     1
290
     0
176
     1
290
     0
176
     1
290
     0
176
     1
290
     0
176
     1
290
     0
176
     1
 90
       50
176
     1
 40
0.0
176
     1
 40
1.0
176
     1
 90
        0
176
     1
 62
    18
420
        0
176
     1
 90
       50
176
     1
 90
        3
176
     1
 62
     5
420
      255
176
     1
290
     0
176
     1
 90
       50
176
     1
 90
       50
176
     1
 90
       50
176
     1
290
     0
176
     1
 90
       50
176
     1
 62
   256
176
     0
 40
1.0
176
     0
 90
        2
176
     1
  1
strokes_ogs.tif
176
     1
290
     0
176
     1
 40
1.0
176
     1
 40
1.0
176
     1
  0
VISUALSTYLE
  5
36
102
{ACAD_REACTORS
330
29
102
}
330
29
100
AcDbVisualStyle
  2
Thicken
 70
    13
177
     3
291
     1
 70
    58
 90
        2
176
     1
 90
        2
176
     1
 90
        0
176
     1
 90
        0
176
     1
 40
0.6
176
     1
 40
30.0
176
     1
 62
     7
420
 16777215
176
     1
 90
        1
176
     1
 90
        4
176
     1
 62
     7
176
     1
 62
   257
176
     1
 90
        1
176
     1
 90
        1
176
     1
 40
1.0
176
     1
 90
       12
176
     1
 62
     7
176
     1
 40
1.0
176
     1
 90
        1
176
     1
 90
        6
176
     1
 90
        2
176
     1
 62
     7
176
     1
 90
        5
176
     1
 90
        0
176
     1
 90
        0
176
     1
290
     0
176
     1
 90
        1
176
     1
 40
0.0
176
     1
 90
        0
176
     1
290
     0
176
     1
290
     1
176
     1
290
     1
176
     1
290
     0
176
     1
290
     0
176
     1
290
     0
176
     1
290
     0
176
     1
290
     0
176
     1
290
     0
176
     1
 90
       50
176
     1
 40
0.0
176
     1
 40
1.0
176
     1
 90
        0
176
     1
 62
    18
420
        0
176
     1
 90
       50
176
     1
 90
        3
176
     1
 62
     5
420
      255
176
     1
290
     0
176
     1
 90
       50
176
     1
 90
       50
176
     1
 90
       50
176
     1
290
     0
176
     1
 90
       50
176
     1
 62
   256
176
     0
 40
1.0
176
     0
 90
        2
176
     1
  1
strokes_ogs.tif
176
     1
290
     0
176
     1
 40
1.0
176
     1
 40
1.0
176
     1
  0
VISUALSTYLE
  5
30
102
{ACAD_REACTORS
330
29
102
}
330
29
100
AcDbVisualStyle
  2
Wireframe
 70
     5
177
     3
291
     0
 70
    58
 90
        0
176
     1
 90
        2
176
     1
 90
        0
176
     1
 90
        0
176
     1
 40
0.6
176
     1
 40
30.0
176
     1
 62
     7
420
 16777215
176
     1
 90
        1
176
     1
 90
        4
176
     1
 62
     7
176
     1
 62
   257
176
     1
 90
        1
176
     1
 90
        1
176
     1
 40
1.0
176
     1
 90
        0
176
     1
 62
   257
176
     1
 40
1.0
176
     1
 90
        1
176
     1
 90
        6
176
     1
 90
        2
176
     1
 62
     7
176
     1
 90
        3
176
     1
 90
        0
176
     1
 90
        0
176
     1
290
     0
176
     1
 90
        1
176
     1
 40
0.0
176
     1
 90
        0
176
     1
290
     0
176
     1
290
     1
176
     1
290
     1
176
     1
290
     0
176
     1
290
     0
176
     1
290
     0
176
     1
290
     0
176
     1
290
     0
176
     1
290
     0
176
     1
 90
       50
176
     1
 40
0.0
176
     1
 40
1.0
176
     1
 90
        0
176
     1
 62
    18
420
        0
176
     1
 90
       50
176
     1
 90
        3
176
     1
 62
     5
420
      255
176
     1
290
     0
176
     1
 90
       50
176
     1
 90
       50
176
     1
 90
       50
176
     1
290
     0
176
     1
 90
       50
176
     1
 62
   256
176
     0
 40
1.0
176
     0
 90
        2
176
     1
  1
strokes_ogs.tif
176
     1
290
     0
176
     1
 40
1.0
176
     1
 40
1.0
176
     1
  0
VISUALSTYLE
  5
3C
102
{ACAD_REACTORS
330
29
102
}
330
29
100
AcDbVisualStyle
  2
X-Ray
 70
    25
177
     3
291
     0
 70
    58
 90
        2
176
     1
 90
        2
176
     1
 90
        1
176
     1
 90
        1
176
     1
 40
0.5
176
     1
 40
30.0
176
     1
 62
     7
420
 16777215
176
     1
 90
        1
176
     1
 90
        0
176
     1
 62
     7
176
     1
 62
   257
176
     1
 90
        1
176
     1
 90
        1
176
     1
 40
1.0
176
     1
 90
        8
176
     1
 62
     7
176
     1
 40
1.0
176
     1
 90
        1
176
     1
 90
        6
176
     1
 90
        2
176
     1
 62
     7
176
     1
 90
        3
176
     1
 90
        0
176
     1
 90
        0
176
     1
290
     0
176
     1
 90
       13
176
     1
 40
0.0
176
     1
 90
        0
176
     1
290
     0
176
     1
290
     1
176
     1
290
     1
176
     1
290
     0
176
     1
290
     0
176
     1
290
     0
176
     1
290
     0
176
     1
290
     0
176
     1
290
     0
176
     1
 90
       50
176
     1
 40
0.0
176
     1
 40
1.0
176
     1
 90
        0
176
     1
 62
    18
420
        0
176
     1
 90
       50
176
     1
 90
        3
176
     1
 62
     5
420
      255
176
     1
290
     0
176
     1
 90
       50
176
     1
 90
       50
176
     1
 90
       50
176
     1
290
     0
176
     1
 90
       50
176
     1
 62
   256
176
     0
 40
1.0
176
     0
 90
        2
176
     1
  1
strokes_ogs.tif
176
     1
290
     0
176
     1
 40
1.0
176
     1
 40
1.0
176
     1
  0
DICTIONARYVAR
  5
250
102
{ACAD_REACTORS
330
24B
102
}
330
24B
100
DictionaryVariables
280
     0
  1
1:1
  0
DICTIONARYVAR
  5
24D
102
{ACAD_REACTORS
330
24B
102
}
330
24B
100
DictionaryVariables
280
     0
  1
STANDARD
  0
DICTIONARYVAR
  5
24C
102
{ACAD_REACTORS
330
24B
102
}
330
24B
100
DictionaryVariables
280
     0
  1
STANDARD
  0
DICTIONARYVAR
  5
24E
102
{ACAD_REACTORS
330
24B
102
}
330
24B
100
DictionaryVariables
280
     0
  1
Imperial24
  0
DICTIONARYVAR
  5
24F
102
{ACAD_REACTORS
330
24B
102
}
330
24B
100
DictionaryVariables
280
     0
  1
Imperial24
  0
XRECORD
  5
247
102
{ACAD_REACTORS
330
243
102
}
330
243
100
AcDbXrecord
280
     1
  1
BUILDING_ID
  1
Fazenda Boa Vista - Acarí, Rio Grande do Norte
  1
FLOOR_ID
  1
22486390
  0
XRECORD
  5
245
102
{ACAD_REACTORS
330
243
102
}
330
243
100
AcDbXrecord
280
     1
  1
-2000011
  1
Paredes
  1
-2000023
  1
Portas
  1
-2000051
  1
Linhas
  1
-2000280
  1
Blocos de margens e carimbo
  1
-2002000
  1
Itens de detalhe
  0
XRECORD
  5
246
102
{ACAD_REACTORS
330
243
102
}
330
243
100
AcDbXrecord
280
     1
  1
-2000027
  1
Abertura
  1
-2000042
  1
<Linhas finas>
  1
-2000066
  1
<Separação de ambiente>
  1
-2000281
  1
<Linhas finas>
  1
-2000588
  1
Padrão de corte
  0
XRECORD
  5
244
102
{ACAD_REACTORS
330
243
102
}
330
243
100
AcDbXrecord
280
     1
  1
17583107
  1
Parede básica : 00_PAREDE_GENERICA_22cm : 00_PAREDE_GENERICA_22cm
  1
22369145
  1
porta multiplas_original : Simples - 80 cm
  1
22422765
  1
Parede básica : 40 : 40
  1
22450565
  1
Parede básica : 40 2 : 40 2
  1
22486380
  1
SVG : A4
  1
383807
  1
Região preenchida : Marcenaria corte
  0
DICTIONARY
  5
1A
330
19
100
AcDbDictionary
280
     1
281
     1
  3
BUMPTILE
360
1C
  3
DIFFUSETILE
360
1B
  3
OPACITYTILE
360
1F
  3
REFLECTIONTILE
360
1E
  3
REFRACTIONTILE
360
20
  3
SPECULARTILE
360
1D
  0
DICTIONARY
  5
12
330
11
100
AcDbDictionary
280
     1
281
     1
  3
BUMPTILE
360
14
  3
DIFFUSETILE
360
13
  3
OPACITYTILE
360
17
  3
REFLECTIONTILE
360
16
  3
REFRACTIONTILE
360
18
  3
SPECULARTILE
360
15
  0
DICTIONARY
  5
22
330
21
100
AcDbDictionary
280
     1
281
     1
  3
BUMPTILE
360
24
  3
DIFFUSETILE
360
23
  3
OPACITYTILE
360
27
  3
REFLECTIONTILE
360
26
  3
REFRACTIONTILE
360
28
  3
SPECULARTILE
360
25
  0
DICTIONARY
  5
5D9
330
65
100
AcDbDictionary
280
     1
281
     1
  3
ACAD_ROUNDTRIP_2008_TABLESTYLE_CELLSTYLEMAP
360
5DA
  0
XRECORD
  5
1C
102
{ACAD_REACTORS
330
1A
102
}
330
1A
100
AcDbXrecord
280
     1
270
     1
271
     1
  0
XRECORD
  5
1B
102
{ACAD_REACTORS
330
1A
102
}
330
1A
100
AcDbXrecord
280
     1
270
     1
271
     1
  0
XRECORD
  5
1F
102
{ACAD_REACTORS
330
1A
102
}
330
1A
100
AcDbXrecord
280
     1
270
     1
271
     1
  0
XRECORD
  5
1E
102
{ACAD_REACTORS
330
1A
102
}
330
1A
100
AcDbXrecord
280
     1
270
     1
271
     1
  0
XRECORD
  5
20
102
{ACAD_REACTORS
330
1A
102
}
330
1A
100
AcDbXrecord
280
     1
270
     1
271
     1
  0
XRECORD
  5
1D
102
{ACAD_REACTORS
330
1A
102
}
330
1A
100
AcDbXrecord
280
     1
270
     1
271
     1
  0
XRECORD
  5
14
102
{ACAD_REACTORS
330
12
102
}
330
12
100
AcDbXrecord
280
     1
270
     1
271
     1
  0
XRECORD
  5
13
102
{ACAD_REACTORS
330
12
102
}
330
12
100
AcDbXrecord
280
     1
270
     1
271
     1
  0
XRECORD
  5
17
102
{ACAD_REACTORS
330
12
102
}
330
12
100
AcDbXrecord
280
     1
270
     1
271
     1
  0
XRECORD
  5
16
102
{ACAD_REACTORS
330
12
102
}
330
12
100
AcDbXrecord
280
     1
270
     1
271
     1
  0
XRECORD
  5
18
102
{ACAD_REACTORS
330
12
102
}
330
12
100
AcDbXrecord
280
     1
270
     1
271
     1
  0
XRECORD
  5
15
102
{ACAD_REACTORS
330
12
102
}
330
12
100
AcDbXrecord
280
     1
270
     1
271
     1
  0
XRECORD
  5
24
102
{ACAD_REACTORS
330
22
102
}
330
22
100
AcDbXrecord
280
     1
270
     1
271
     1
  0
XRECORD
  5
23
102
{ACAD_REACTORS
330
22
102
}
330
22
100
AcDbXrecord
280
     1
270
     1
271
     1
  0
XRECORD
  5
27
102
{ACAD_REACTORS
330
22
102
}
330
22
100
AcDbXrecord
280
     1
270
     1
271
     1
  0
XRECORD
  5
26
102
{ACAD_REACTORS
330
22
102
}
330
22
100
AcDbXrecord
280
     1
270
     1
271
     1
  0
XRECORD
  5
28
102
{ACAD_REACTORS
330
22
102
}
330
22
100
AcDbXrecord
280
     1
270
     1
271
     1
  0
XRECORD
  5
25
102
{ACAD_REACTORS
330
22
102
}
330
22
100
AcDbXrecord
280
     1
270
     1
271
     1
  0
CELLSTYLEMAP
  5
5DA
102
{ACAD_REACTORS
330
5D9
102
}
330
5D9
100
AcDbCellStyleMap
 90
        3
300
CELLSTYLE
  1
TABLEFORMAT_BEGIN
 90
        5
170
     1
 91
        0
 92
    32768
 62
   257
 93
        1
300
CONTENTFORMAT
  1
CONTENTFORMAT_BEGIN
 90
        0
 91
        0
 92
      512
 93
        0
300

 40
0.0
140
1.0
 94
        5
 62
     0
340
55
144
0.25
309
CONTENTFORMAT_END
171
     0
 94
        0
309
TABLEFORMAT_END
  1
CELLSTYLE_BEGIN
 90
        1
 91
        1
300
_TITLE
309
CELLSTYLE_END
300
CELLSTYLE
  1
TABLEFORMAT_BEGIN
 90
        5
170
     1
 91
        0
 92
        0
 62
   257
 93
        1
300
CONTENTFORMAT
  1
CONTENTFORMAT_BEGIN
 90
        0
 91
        0
 92
      512
 93
        0
300

 40
0.0
140
1.0
 94
        5
 62
     0
340
55
144
0.18
309
CONTENTFORMAT_END
171
     0
 94
        0
309
TABLEFORMAT_END
  1
CELLSTYLE_BEGIN
 90
        2
 91
        1
300
_HEADER
309
CELLSTYLE_END
300
CELLSTYLE
  1
TABLEFORMAT_BEGIN
 90
        5
170
     1
 91
        0
 92
        0
 62
   257
 93
        1
300
CONTENTFORMAT
  1
CONTENTFORMAT_BEGIN
 90
        0
 91
        0
 92
      512
 93
        0
300

 40
0.0
140
1.0
 94
        2
 62
     0
340
55
144
0.18
309
CONTENTFORMAT_END
171
     0
 94
        0
309
TABLEFORMAT_END
  1
CELLSTYLE_BEGIN
 90
        3
 91
        2
300
_DATA
309
CELLSTYLE_END
  0
ENDSEC
  0
SECTION
  2
ACDSDATA
 70
     2
 71
     8
  0
ACDSSCHEMA
 90
        0
  1
AcDb_Thumbnail_Schema
  2
AcDbDs::ID
280
    10
 91
        8
  2
Thumbnail_Data
280
    15
 91
        0
101
ACDSRECORD
 95
        0
 90
        1
  2
AcDbDs::TreatedAsObjectData
280
     1
291
     1
101
ACDSRECORD
 95
        0
 90
        2
  2
AcDbDs::Legacy
280
     1
291
     1
101
ACDSRECORD
  1
AcDbDs::ID
 90
        3
  2
AcDs:Indexable
280
     1
291
     1
101
ACDSRECORD
  1
AcDbDs::ID
 90
        4
  2
AcDbDs::HandleAttribute
280
     7
282
     1
  0
ACDSSCHEMA
 90
        1
  1
AcDbDs::TreatedAsObjectDataSchema
  2
AcDbDs::TreatedAsObjectData
280
     1
 91
        0
  0
ACDSSCHEMA
 90
        2
  1
AcDbDs::LegacySchema
  2
AcDbDs::Legacy
280
     1
 91
        0
  0
ACDSSCHEMA
 90
        3
  1
AcDbDs::IndexedPropertySchema
  2
AcDs:Indexable
280
     1
 91
        0
  0
ACDSSCHEMA
 90
        4
  1
AcDbDs::HandleAttributeSchema
  2
AcDbDs::HandleAttribute
280
     7
 91
        1
284
     1
  0
ACDSRECORD
 90
        0
  2
AcDbDs::ID
280
    10
320
6F
  2
Thumbnail_Data
280
    15
 94
     1426
310
89504E470D0A1A0A0000000D4948445200000100000000B5080300000087DCD12600000300504C5445FFFFFFFFFFFFFFFFFF0000000000000000000000000000000000000000000000000000330000660000990000CC0000FF0033000033330033660033990033CC0033FF0066000066330066660066990066CC0066FF0099
310
000099330099660099990099CC0099FF00CC0000CC3300CC6600CC9900CCCC00CCFF00FF0000FF3300FF6600FF9900FFCC00FFFF3300003300333300663300993300CC3300FF3333003333333333663333993333CC3333FF3366003366333366663366993366CC3366FF3399003399333399663399993399CC3399FF33CC00
310
33CC3333CC6633CC9933CCCC33CCFF33FF0033FF3333FF6633FF9933FFCC33FFFF6600006600336600666600996600CC6600FF6633006633336633666633996633CC6633FF6666006666336666666666996666CC6666FF6699006699336699666699996699CC6699FF66CC0066CC3366CC6666CC9966CCCC66CCFF66FF0066
310
FF3366FF6666FF9966FFCC66FFFF9900009900339900669900999900CC9900FF9933009933339933669933999933CC9933FF9966009966339966669966999966CC9966FF9999009999339999669999999999CC9999FF99CC0099CC3399CC6699CC9999CCCC99CCFF99FF0099FF3399FF6699FF9999FFCC99FFFFCC0000CC00
310
33CC0066CC0099CC00CCCC00FFCC3300CC3333CC3366CC3399CC33CCCC33FFCC6600CC6633CC6666CC6699CC66CCCC66FFCC9900CC9933CC9966CC9999CC99CCCC99FFCCCC00CCCC33CCCC66CCCC99CCCCCCCCCCFFCCFF00CCFF33CCFF66CCFF99CCFFCCCCFFFFFF0000FF0033FF0066FF0099FF00CCFF00FFFF3300FF3333
310
FF3366FF3399FF33CCFF33FFFF6600FF6633FF6666FF6699FF66CCFF66FFFF9900FF9933FF9966FF9999FF99CCFF99FFFFCC00FFCC33FFCC66FFCC99FFCCCCFFCCFFFFFF00FFFF33FFFF66FFFF99FFFFCCFFFFFF0000000D0D0D1A1A1A2828283535354343435050505D5D5D6B6B6B787878868686939393A1A1A1AEAEAEBB
310
BBBBC9C9C9D6D6D6E4E4E4F1F1F1FFFFFF000000000000000000000000000000000000000000000000000000000000AD4AB4E4000002494944415478DAEDDD6172C2201086616ECC1DB84EAFE201F6F7FEF61095443B2611123B6D69F67B77C64EC7C4228F84C026D274158F94C7C63F004823636CE9090000000000000000
310
000000000000000000000000000000000000000000000000000000000000000000000000401AE0E3A7E2B4009703E1FBE59C1860FF4EC7E800BB073100000000405C8052C4015206401DE0167D000BDE077400EC1EBA67815A754F0E80EE38C0D40192781F50C34D7C28EC1700620374A2D4B8017C456945CC9CE0D4FB99D5
310
5FE7BF519ABB02705A006F456DF8561FF5C7F321518F8ACDCE279E0CF5BA3EBB0F06D372BA507CB3330031016AEDB501D27D1CAC0BD06801AB1942688057DBFC0103802E802D9F100358A70872D202D82408D4007CB929672F0101E609C01180A09D60E765000000800080BB38C005000000000080D61942242DDEDC16E8C2
310
082D803EE03B0911F5ACB09116272B6CD2E380755698B3808B0388A7C50100401AA05E3E09796588B9400BC0B401EA184819C0C45B80250084005E84B56E2C5601702980E3A500000000000000403880DDA5159EE6C70101E6EF891D2B256446E89D770E00005A374A2E2B289814651C00800EC081F5536A8E2CFC57677BD5
310
370BDE026CE7E34FD101BA029600880B7020CC026785E77554A68FB9BDCCCA6373C8A1F014FB0B4FE7BA5B3C8037DF370000000000000000000000710072B71EABCD9916000000009C1340FD7F8DFD7E000000000000000000000000000000000000000000000000000000000000000000000000F04700D79131B6F4EB0430
310
3686037C02004F455636FCA8E90000000049454E44AE426082AE426082
  0
ACDSRECORD
 90
        0
  2
AcDbDs::ID
280
    10
320
73
  2
Thumbnail_Data
280
    15
 94
     1128
310
89504E470D0A1A0A0000000D494844520000010000000065080300000095E2CD0900000300504C5445FFFFFFFFFFFFFFFFFF0000000000000000000000000000000000000000000000000000330000660000990000CC0000FF0033000033330033660033990033CC0033FF0066000066330066660066990066CC0066FF0099
310
000099330099660099990099CC0099FF00CC0000CC3300CC6600CC9900CCCC00CCFF00FF0000FF3300FF6600FF9900FFCC00FFFF3300003300333300663300993300CC3300FF3333003333333333663333993333CC3333FF3366003366333366663366993366CC3366FF3399003399333399663399993399CC3399FF33CC00
310
33CC3333CC6633CC9933CCCC33CCFF33FF0033FF3333FF6633FF9933FFCC33FFFF6600006600336600666600996600CC6600FF6633006633336633666633996633CC6633FF6666006666336666666666996666CC6666FF6699006699336699666699996699CC6699FF66CC0066CC3366CC6666CC9966CCCC66CCFF66FF0066
310
FF3366FF6666FF9966FFCC66FFFF9900009900339900669900999900CC9900FF9933009933339933669933999933CC9933FF9966009966339966669966999966CC9966FF9999009999339999669999999999CC9999FF99CC0099CC3399CC6699CC9999CCCC99CCFF99FF0099FF3399FF6699FF9999FFCC99FFFFCC0000CC00
310
33CC0066CC0099CC00CCCC00FFCC3300CC3333CC3366CC3399CC33CCCC33FFCC6600CC6633CC6666CC6699CC66CCCC66FFCC9900CC9933CC9966CC9999CC99CCCC99FFCCCC00CCCC33CCCC66CCCC99CCCCCCCCCCFFCCFF00CCFF33CCFF66CCFF99CCFFCCCCFFFFFF0000FF0033FF0066FF0099FF00CCFF00FFFF3300FF3333
310
FF3366FF3399FF33CCFF33FFFF6600FF6633FF6666FF6699FF66CCFF66FFFF9900FF9933FF9966FF9999FF99CCFF99FFFFCC00FFCC33FFCC66FFCC99FFCCCCFFCCFFFFFF00FFFF33FFFF66FFFF99FFFFCCFFFFFF0000000D0D0D1A1A1A2828283535354343435050505D5D5D6B6B6B787878868686939393A1A1A1AEAEAEBB
310
BBBBC9C9C9D6D6D6E4E4E4F1F1F1FFFFFF000000000000000000000000000000000000000000000000000000000000AD4AB4E4000001234944415478DAED9B490E83300C00F9B1FF9057FAEC979448B40D34542A974ACCCCCDE4C4C8716C96651111111111910BD414928098C012F0794D010A2009687001CD0C3818C84C7A
310
0DC8A217C1A40B2805905BE1D6DA3610B43D9C6128B336132F175D076436ECE7E0DA093CBB84FAD630DD54C0A2805140F6848009D8C509CC80314ED8D178BCCD774F18940C88980A09CA1688B38C5000F51450800214C016009C0615B0EB041D861C863C05C8D360F1A6C179DC1F91C205306B40D23B41BA80240A18DF10ED
310
2266111C5614A00005200444FCAAE65E02E26C251A5AC0DA0A17BD0628002320670BA90090808981E408A8F97773451230FD8B0822202E2D2940010A50C05D04C4F176C30C50006B0B9CB388888888888888888888888888C81F790064AF92AFA4F9E4A40000000049454E44AE426082
  0
ENDSEC
  0
EOF
