  0
SECTION
  2
HEADER
  9
$ACADVER
  1
AC1032
  9
$ACADMAINTVER
 90
      204
  9
$DWGCODEPAGE
  3
ANSI_1252
  9
$LASTSAVEDBY
  1
duda-
  9
$REQUIREDVERSIONS
160
                 0
  9
$INSBASE
 10
0.0
 20
0.0
 30
0.0
  9
$EXTMIN
 10
-24695.37120796436
 20
-11596.91804543854
 30
0.0
  9
$EXTMAX
 10
-794.1708199876373
 20
-4423.147975095057
 30
0.0
  9
$LIMMIN
 10
0.0
 20
0.0
  9
$LIMMAX
 10
12.0
 20
9.0
  9
$ORTHOMODE
 70
     0
  9
$REGENMODE
 70
     1
  9
$FILLMODE
 70
     1
  9
$QTEXTMODE
 70
     0
  9
$MIRRTEXT
 70
     0
  9
$LTSCALE
 40
1.0
  9
$ATTMODE
 70
     1
  9
$TEXTSIZE
 40
0.2
  9
$TRACEWID
 40
0.05
  9
$TEXTSTYLE
  7
Standard
  9
$CLAYER
  8
0
  9
$CELTYPE
  6
ByLayer
  9
$CECOLOR
 62
   256
  9
$CELTSCALE
 40
1.0
  9
$DISPSILH
 70
     0
  9
$DIMSCALE
 40
1.0
  9
$DIMASZ
 40
0.18
  9
$DIMEXO
 40
0.0625
  9
$DIMDLI
 40
0.38
  9
$DIMRND
 40
0.0
  9
$DIMDLE
 40
0.0
  9
$DIMEXE
 40
0.18
  9
$DIMTP
 40
0.0
  9
$DIMTM
 40
0.0
  9
$DIMTXT
 40
0.18
  9
$DIMCEN
 40
0.09
  9
$DIMTSZ
 40
0.0
  9
$DIMTOL
 70
     0
  9
$DIMLIM
 70
     0
  9
$DIMTIH
 70
     1
  9
$DIMTOH
 70
     1
  9
$DIMSE1
 70
     0
  9
$DIMSE2
 70
     0
  9
$DIMTAD
 70
     0
  9
$DIMZIN
 70
     0
  9
$DIMBLK
  1

  9
$DIMASO
 70
     1
  9
$DIMSHO
 70
     1
  9
$DIMPOST
  1

  9
$DIMAPOST
  1

  9
$DIMALT
 70
     0
  9
$DIMALTD
 70
     2
  9
$DIMALTF
 40
25.4
  9
$DIMLFAC
 40
1.0
  9
$DIMTOFL
 70
     0
  9
$DIMTVP
 40
0.0
  9
$DIMTIX
 70
     0
  9
$DIMSOXD
 70
     0
  9
$DIMSAH
 70
     0
  9
$DIMBLK1
  1

  9
$DIMBLK2
  1

  9
$DIMSTYLE
  2
Standard
  9
$DIMCLRD
 70
     0
  9
$DIMCLRE
 70
     0
  9
$DIMCLRT
 70
     0
  9
$DIMTFAC
 40
1.0
  9
$DIMGAP
 40
0.09
  9
$DIMJUST
 70
     0
  9
$DIMSD1
 70
     0
  9
$DIMSD2
 70
     0
  9
$DIMTOLJ
 70
     1
  9
$DIMTZIN
 70
     0
  9
$DIMALTZ
 70
     0
  9
$DIMALTTZ
 70
     0
  9
$DIMUPT
 70
     0
  9
$DIMDEC
 70
     4
  9
$DIMTDEC
 70
     4
  9
$DIMALTU
 70
     2
  9
$DIMALTTD
 70
     2
  9
$DIMTXSTY
  7
Standard
  9
$DIMAUNIT
 70
     0
  9
$DIMADEC
 70
     0
  9
$DIMALTRND
 40
0.0
  9
$DIMAZIN
 70
     0
  9
$DIMDSEP
 70
    46
  9
$DIMATFIT
 70
     3
  9
$DIMFRAC
 70
     0
  9
$DIMLDRBLK
  1

  9
$DIMLUNIT
 70
     2
  9
$DIMLWD
 70
    -2
  9
$DIMLWE
 70
    -2
  9
$DIMTMOVE
 70
     0
  9
$DIMFXL
 40
1.0
  9
$DIMFXLON
 70
     0
  9
$DIMJOGANG
 40
0.7853981633974483
  9
$DIMTFILL
 70
     0
  9
$DIMTFILLCLR
 70
     0
  9
$DIMARCSYM
 70
     0
  9
$DIMLTYPE
  6

  9
$DIMLTEX1
  6

  9
$DIMLTEX2
  6

  9
$DIMTXTDIRECTION
 70
     0
  9
$LUNITS
 70
     2
  9
$LUPREC
 70
     4
  9
$SKETCHINC
 40
0.1
  9
$FILLETRAD
 40
0.0
  9
$AUNITS
 70
     0
  9
$AUPREC
 70
     0
  9
$MENU
  1
.
  9
$ELEVATION
 40
0.0
  9
$PELEVATION
 40
0.0
  9
$THICKNESS
 40
0.0
  9
$LIMCHECK
 70
     0
  9
$CHAMFERA
 40
0.0
  9
$CHAMFERB
 40
0.0
  9
$CHAMFERC
 40
0.0
  9
$CHAMFERD
 40
0.0
  9
$SKPOLY
 70
     0
  9
$TDCREATE
 40
2460730.521689815
  9
$TDUCREATE
 40
2460730.646689815
  9
$TDUPDATE
 40
2460738.931446759
  9
$TDUUPDATE
 40
2460739.056446759
  9
$TDINDWG
 40
0.0084375000
  9
$TDUSRTIMER
 40
0.0084375000
  9
$USRTIMER
 70
     1
  9
$ANGBASE
 50
0.0
  9
$ANGDIR
 70
     0
  9
$PDMODE
 70
     0
  9
$PDSIZE
 40
0.0
  9
$PLINEWID
 40
0.0
  9
$SPLFRAME
 70
     0
  9
$SPLINETYPE
 70
     6
  9
$SPLINESEGS
 70
     8
  9
$HANDSEED
  5
486
  9
$SURFTAB1
 70
     6
  9
$SURFTAB2
 70
     6
  9
$SURFTYPE
 70
     6
  9
$SURFU
 70
     6
  9
$SURFV
 70
     6
  9
$UCSBASE
  2

  9
$UCSNAME
  2

  9
$UCSORG
 10
0.0
 20
0.0
 30
0.0
  9
$UCSXDIR
 10
1.0
 20
0.0
 30
0.0
  9
$UCSYDIR
 10
0.0
 20
1.0
 30
0.0
  9
$UCSORTHOREF
  2

  9
$UCSORTHOVIEW
 70
     0
  9
$UCSORGTOP
 10
0.0
 20
0.0
 30
0.0
  9
$UCSORGBOTTOM
 10
0.0
 20
0.0
 30
0.0
  9
$UCSORGLEFT
 10
0.0
 20
0.0
 30
0.0
  9
$UCSORGRIGHT
 10
0.0
 20
0.0
 30
0.0
  9
$UCSORGFRONT
 10
0.0
 20
0.0
 30
0.0
  9
$UCSORGBACK
 10
0.0
 20
0.0
 30
0.0
  9
$PUCSBASE
  2

  9
$PUCSNAME
  2

  9
$PUCSORG
 10
0.0
 20
0.0
 30
0.0
  9
$PUCSXDIR
 10
1.0
 20
0.0
 30
0.0
  9
$PUCSYDIR
 10
0.0
 20
1.0
 30
0.0
  9
$PUCSORTHOREF
  2

  9
$PUCSORTHOVIEW
 70
     0
  9
$PUCSORGTOP
 10
0.0
 20
0.0
 30
0.0
  9
$PUCSORGBOTTOM
 10
0.0
 20
0.0
 30
0.0
  9
$PUCSORGLEFT
 10
0.0
 20
0.0
 30
0.0
  9
$PUCSORGRIGHT
 10
0.0
 20
0.0
 30
0.0
  9
$PUCSORGFRONT
 10
0.0
 20
0.0
 30
0.0
  9
$PUCSORGBACK
 10
0.0
 20
0.0
 30
0.0
  9
$USERI1
 70
     0
  9
$USERI2
 70
     0
  9
$USERI3
 70
     0
  9
$USERI4
 70
     0
  9
$USERI5
 70
     0
  9
$USERR1
 40
0.0
  9
$USERR2
 40
0.0
  9
$USERR3
 40
0.0
  9
$USERR4
 40
0.0
  9
$USERR5
 40
0.0
  9
$WORLDVIEW
 70
     1
  9
$SHADEDGE
 70
     3
  9
$SHADEDIF
 70
    70
  9
$TILEMODE
 70
     1
  9
$MAXACTVP
 70
    64
  9
$PINSBASE
 10
0.0
 20
0.0
 30
0.0
  9
$PLIMCHECK
 70
     0
  9
$PEXTMIN
 10
29.69999999999999
 20
20.98886566162111
 30
0.0
  9
$PEXTMAX
 10
267.3
 20
188.8997909545898
 30
0.0
  9
$PLIMMIN
 10
0.0
 20
0.0
  9
$PLIMMAX
 10
297.0
 20
210.0
  9
$UNITMODE
 70
     0
  9
$VISRETAIN
 70
     1
  9
$PLINEGEN
 70
     0
  9
$PSLTSCALE
 70
     1
  9
$TREEDEPTH
 70
  3020
  9
$CMLSTYLE
  2
Standard
  9
$CMLJUST
 70
     0
  9
$CMLSCALE
 40
1.0
  9
$PROXYGRAPHICS
 70
     1
  9
$MEASUREMENT
 70
     1
  9
$CELWEIGHT
370
    -1
  9
$ENDCAPS
280
     0
  9
$JOINSTYLE
280
     0
  9
$LWDISPLAY
290
     0
  9
$INSUNITS
 70
     4
  9
$HYPERLINKBASE
  1

  9
$STYLESHEET
  1

  9
$XEDIT
290
     1
  9
$CEPSNTYPE
380
     0
  9
$PSTYLEMODE
290
     1
  9
$FINGERPRINTGUID
  2
{0246C953-78D5-4841-B824-5A56D507CFE1}
  9
$VERSIONGUID
  2
{903592C0-0F2E-554B-A50F-F0D5B6350B71}
  9
$EXTNAMES
290
     1
  9
$PSVPSCALE
 40
0.0
  9
$OLESTARTUP
290
     0
  9
$SORTENTS
280
   127
  9
$INDEXCTL
280
     0
  9
$HIDETEXT
280
     1
  9
$XCLIPFRAME
280
     2
  9
$HALOGAP
280
     0
  9
$OBSCOLOR
 70
   257
  9
$OBSLTYPE
280
     0
  9
$INTERSECTIONDISPLAY
280
     0
  9
$INTERSECTIONCOLOR
 70
   257
  9
$DIMASSOC
280
     2
  9
$PROJECTNAME
  1

  9
$CAMERADISPLAY
290
     0
  9
$LENSLENGTH
 40
50.0
  9
$CAMERAHEIGHT
 40
0.0
  9
$STEPSPERSEC
 40
2.0
  9
$STEPSIZE
 40
6.0
  9
$3DDWFPREC
 40
2.0
  9
$PSOLWIDTH
 40
0.25
  9
$PSOLHEIGHT
 40
4.0
  9
$LOFTANG1
 40
1.570796326794896
  9
$LOFTANG2
 40
1.570796326794896
  9
$LOFTMAG1
 40
0.0
  9
$LOFTMAG2
 40
0.0
  9
$LOFTPARAM
 70
     7
  9
$LOFTNORMALS
280
     1
  9
$LATITUDE
 40
0.0
  9
$LONGITUDE
 40
0.0
  9
$NORTHDIRECTION
 40
0.0
  9
$TIMEZONE
 70
     0
  9
$LIGHTGLYPHDISPLAY
280
     1
  9
$TILEMODELIGHTSYNCH
280
     1
  9
$CMATERIAL
347
11
  9
$SOLIDHIST
280
     0
  9
$SHOWHIST
280
     1
  9
$DWFFRAME
280
     2
  9
$DGNFRAME
280
     0
  9
$REALWORLDSCALE
290
     1
  9
$INTERFERECOLOR
 62
     1
  9
$INTERFEREOBJVS
345
33
  9
$INTERFEREVPVS
346
30
  9
$CSHADOW
280
     0
  9
$SHADOWPLANELOCATION
 40
0.0
  0
ENDSEC
  0
SECTION
  2
CLASSES
  0
CLASS
  1
ACDBDICTIONARYWDFLT
  2
AcDbDictionaryWithDefault
  3
ObjectDBX Classes
 90
        0
 91
        1
280
     0
281
     0
  0
CLASS
  1
MATERIAL
  2
AcDbMaterial
  3
ObjectDBX Classes
 90
     1153
 91
        3
280
     0
281
     0
  0
CLASS
  1
VISUALSTYLE
  2
AcDbVisualStyle
  3
ObjectDBX Classes
 90
     4095
 91
       24
280
     0
281
     0
  0
CLASS
  1
SCALE
  2
AcDbScale
  3
ObjectDBX Classes
 90
     1153
 91
       17
280
     0
281
     0
  0
CLASS
  1
TABLESTYLE
  2
AcDbTableStyle
  3
ObjectDBX Classes
 90
     4095
 91
        1
280
     0
281
     0
  0
CLASS
  1
MLEADERSTYLE
  2
AcDbMLeaderStyle
  3
ACDB_MLEADERSTYLE_CLASS
 90
     4095
 91
        1
280
     0
281
     0
  0
CLASS
  1
ACDBSECTIONVIEWSTYLE
  2
AcDbSectionViewStyle
  3
ObjectDBX Classes
 90
     1025
 91
        2
280
     0
281
     0
  0
CLASS
  1
ACDBDETAILVIEWSTYLE
  2
AcDbDetailViewStyle
  3
ObjectDBX Classes
 90
     1025
 91
        2
280
     0
281
     0
  0
CLASS
  1
RASTERVARIABLES
  2
AcDbRasterVariables
  3
ISM
 90
        0
 91
        1
280
     0
281
     0
  0
CLASS
  1
DICTIONARYVAR
  2
AcDbDictionaryVar
  3
ObjectDBX Classes
 90
        0
 91
        5
280
     0
281
     0
  0
CLASS
  1
SORTENTSTABLE
  2
AcDbSortentsTable
  3
ObjectDBX Classes
 90
        0
 91
        1
280
     0
281
     0
  0
CLASS
  1
SUN
  2
AcDbSun
  3
SCENEOE
 90
     1153
 91
        1
280
     0
281
     0
  0
CLASS
  1
RAPIDRTRENDERSETTINGS
  2
AcDbRapidRTRenderSettings
  3
ObjectDBX Classes
 90
     1024
 91
        7
280
     0
281
     0
  0
CLASS
  1
CELLSTYLEMAP
  2
AcDbCellStyleMap
  3
ObjectDBX Classes
 90
     1152
 91
        1
280
     0
281
     0
  0
ENDSEC
  0
SECTION
  2
TABLES
  0
TABLE
  2
VPORT
  5
8
330
0
100
AcDbSymbolTable
 70
     1
  0
VPORT
  5
57
330
8
100
AcDbSymbolTableRecord
100
AcDbViewportTableRecord
  2
*Active
 70
     0
 10
0.0
 20
0.0
 11
1.0
 21
1.0
 12
-11261.16365389233
 22
-10474.02402879474
 13
0.0
 23
0.0
 14
1.0
 24
1.0
 15
0.0
 25
0.0
 16
0.0
 26
0.0
 36
1.0
 17
0.0
 27
0.0
 37
0.0
 40
18010.56574673751
 41
2.159362549800796
 42
50.0
 43
0.0
 44
0.0
 50
0.0
 51
0.0
 71
     0
 72
  1000
 73
     1
 74
     1
 75
     0
 76
     0
 77
     0
 78
     0
281
     0
 65
     1
110
0.0
120
0.0
130
0.0
111
1.0
121
0.0
131
0.0
112
0.0
122
1.0
132
0.0
 79
     0
146
0.0
348
2F
 60
     3
 61
     5
292
     1
282
     1
141
0.0
142
0.0
 63
   250
421
  3355443
361
3A9
1001
ACAD_NAV_VCDISPLAY
1070
     3
  0
ENDTAB
  0
TABLE
  2
LTYPE
  5
5
330
0
100
AcDbSymbolTable
 70
     1
  0
LTYPE
  5
5B
330
5
100
AcDbSymbolTableRecord
100
AcDbLinetypeTableRecord
  2
ByBlock
 70
     0
  3

 72
    65
 73
     0
 40
0.0
  0
LTYPE
  5
5C
330
5
100
AcDbSymbolTableRecord
100
AcDbLinetypeTableRecord
  2
ByLayer
 70
     0
  3

 72
    65
 73
     0
 40
0.0
  0
LTYPE
  5
5D
330
5
100
AcDbSymbolTableRecord
100
AcDbLinetypeTableRecord
  2
Continuous
 70
     0
  3
Solid line
 72
    65
 73
     0
 40
0.0
  0
ENDTAB
  0
TABLE
  2
LAYER
  5
2
102
{ACAD_XDICTIONARY
360
3C6
102
}
330
0
100
AcDbSymbolTable
 70
     8
  0
LAYER
  5
54
330
2
100
AcDbSymbolTableRecord
100
AcDbLayerTableRecord
  2
0
 70
     0
 62
   250
  6
Continuous
370
    25
390
F
347
21
348
0
  0
LAYER
  5
81
330
2
100
AcDbSymbolTableRecord
100
AcDbLayerTableRecord
  2
A-COB-___-___-EXI
 70
     0
 62
   250
  6
Continuous
370
    25
390
F
347
21
348
0
  0
LAYER
  5
FD
330
2
100
AcDbSymbolTableRecord
100
AcDbLayerTableRecord
  2
A-BAS-___-___-EXI
 70
     0
 62
   250
  6
Continuous
370
    25
390
F
347
21
348
0
  0
LAYER
  5
392
330
2
100
AcDbSymbolTableRecord
100
AcDbLayerTableRecord
  2
A-JAN-___-___-EXI
 70
     0
 62
   250
  6
Continuous
370
    25
390
F
347
21
348
0
  0
LAYER
  5
398
330
2
100
AcDbSymbolTableRecord
100
AcDbLayerTableRecord
  2
A-ESC-___-___-EXI
 70
     0
 62
   250
  6
Continuous
370
    25
390
F
347
21
348
0
  0
LAYER
  5
39A
330
2
100
AcDbSymbolTableRecord
100
AcDbLayerTableRecord
  2
A-POR-___-___-EXI
 70
     0
 62
   250
  6
Continuous
370
    25
390
F
347
21
348
0
  0
LAYER
  5
43F
330
2
100
AcDbSymbolTableRecord
100
AcDbLayerTableRecord
  2
A-PIL-___-___-EXI
 70
     0
 62
   250
  6
Continuous
370
    25
390
F
347
21
348
0
1001
AcAecLayerStandard
1000

1000

1001
AcCmTransparency
1071
        0
  0
LAYER
  5
442
330
2
100
AcDbSymbolTableRecord
100
AcDbLayerTableRecord
  2
A-ALV-___-___-EXI
 70
     0
 62
   250
  6
Continuous
370
    35
390
F
347
21
348
0
1001
AcAecLayerStandard
1000

1000

1001
AcCmTransparency
1071
        0
  0
ENDTAB
  0
TABLE
  2
STYLE
  5
3
330
0
100
AcDbSymbolTable
 70
     2
  0
STYLE
  5
55
330
3
100
AcDbSymbolTableRecord
100
AcDbTextStyleTableRecord
  2
Standard
 70
     0
 40
0.0
 41
1.0
 50
0.0
 71
     0
 42
0.2
  3
txt
  4

  0
STYLE
  5
5A
330
3
100
AcDbSymbolTableRecord
100
AcDbTextStyleTableRecord
  2
Annotative
 70
     0
 40
0.0
 41
1.0
 50
0.0
 71
     0
 42
0.2
  3
txt
  4

1001
AcadAnnotative
1000
AnnotativeData
1002
{
1070
     1
1070
     1
1002
}
  0
ENDTAB
  0
TABLE
  2
VIEW
  5
6
330
0
100
AcDbSymbolTable
 70
     1
  0
ENDTAB
  0
TABLE
  2
UCS
  5
7
330
0
100
AcDbSymbolTable
 70
     0
  0
ENDTAB
  0
TABLE
  2
APPID
  5
9
330
0
100
AcDbSymbolTable
 70
     7
  0
APPID
  5
56
330
9
100
AcDbSymbolTableRecord
100
AcDbRegAppTableRecord
  2
ACAD
 70
     0
  0
APPID
  5
5E
330
9
100
AcDbSymbolTableRecord
100
AcDbRegAppTableRecord
  2
AcadAnnotative
 70
     0
  0
APPID
  5
78
330
9
100
AcDbSymbolTableRecord
100
AcDbRegAppTableRecord
  2
REVIT
 70
     0
  0
APPID
  5
3B9
330
9
100
AcDbSymbolTableRecord
100
AcDbRegAppTableRecord
  2
ACAD_PSEXT
 70
     0
  0
APPID
  5
437
330
9
100
AcDbSymbolTableRecord
100
AcDbRegAppTableRecord
  2
ACAD_NAV_VCDISPLAY
 70
     0
  0
APPID
  5
440
330
9
100
AcDbSymbolTableRecord
100
AcDbRegAppTableRecord
  2
AcAecLayerStandard
 70
     0
  0
APPID
  5
441
330
9
100
AcDbSymbolTableRecord
100
AcDbRegAppTableRecord
  2
AcCmTransparency
 70
     0
  0
ENDTAB
  0
TABLE
  2
DIMSTYLE
  5
A
330
0
100
AcDbSymbolTable
 70
     2
100
AcDbDimStyleTable
 71
     0
  0
DIMSTYLE
105
58
330
A
100
AcDbSymbolTableRecord
100
AcDbDimStyleTableRecord
  2
Standard
 70
     0
340
55
  0
DIMSTYLE
105
59
330
A
100
AcDbSymbolTableRecord
100
AcDbDimStyleTableRecord
  2
Annotative
 70
     0
340
55
1001
AcadAnnotative
1000
AnnotativeData
1002
{
1070
     1
1070
     1
1002
}
  0
ENDTAB
  0
TABLE
  2
BLOCK_RECORD
  5
1
330
0
100
AcDbSymbolTable
 70
     1
  0
BLOCK_RECORD
  5
70
102
{ACAD_XDICTIONARY
360
3A7
102
}
330
1
100
AcDbSymbolTableRecord
100
AcDbBlockTableRecord
  2
*Model_Space
340
73
 70
     0
280
     1
281
     0
  0
BLOCK_RECORD
  5
74
330
1
100
AcDbSymbolTableRecord
100
AcDbBlockTableRecord
  2
*Paper_Space
340
77
 70
     0
280
     1
281
     0
  0
BLOCK_RECORD
  5
399
330
1
100
AcDbSymbolTableRecord
100
AcDbBlockTableRecord
  2
A4 HORIZONTAL - A4-22598766-Não nomeada
340
0
 70
     0
280
     1
281
     0
  0
ENDTAB
  0
ENDSEC
  0
SECTION
  2
BLOCKS
  0
BLOCK
  5
71
330
70
100
AcDbEntity
  8
0
100
AcDbBlockBegin
  2
*Model_Space
 70
     0
 10
0.0
 20
0.0
 30
0.0
  3
*Model_Space
  1

  0
ENDBLK
  5
72
330
70
100
AcDbEntity
  8
0
100
AcDbBlockEnd
  0
BLOCK
  5
75
330
74
100
AcDbEntity
 67
     1
  8
0
100
AcDbBlockBegin
  2
*Paper_Space
 70
     0
 10
0.0
 20
0.0
 30
0.0
  3
*Paper_Space
  1

  0
ENDBLK
  5
76
330
74
100
AcDbEntity
 67
     1
  8
0
100
AcDbBlockEnd
  0
BLOCK
  5
39F
330
399
100
AcDbEntity
  8
0
100
AcDbBlockBegin
  2
A4 HORIZONTAL - A4-22598766-Não nomeada
 70
     0
 10
0.0
 20
0.0
 30
0.0
  3
A4 HORIZONTAL - A4-22598766-Não nomeada
  1

  0
LINE
  5
39B
330
399
100
AcDbEntity
  8
A-POR-___-___-EXI
100
AcDbLine
 10
317.7928507088368
 20
312.9999999999862
 30
0.0
 11
20.7928507088368
 21
312.9999999999856
 31
0.0
1001
REVIT
1002
{
1070
     1
1000
22597370
1002
}
1002
{
1070
     5
1000
22598766
1002
}
1002
{
1070
     3
1000
-2000281
1002
}
  0
LINE
  5
39C
330
399
100
AcDbEntity
  8
A-POR-___-___-EXI
100
AcDbLine
 10
20.7928507088368
 20
312.9999999999856
 30
0.0
 11
20.7928507088372
 21
102.9999999999856
 31
0.0
1001
REVIT
1002
{
1070
     1
1000
22597370
1002
}
1002
{
1070
     5
1000
22598766
1002
}
1002
{
1070
     3
1000
-2000281
1002
}
  0
LINE
  5
39D
330
399
100
AcDbEntity
  8
A-POR-___-___-EXI
100
AcDbLine
 10
20.7928507088372
 20
102.9999999999855
 30
0.0
 11
317.7928507088372
 21
102.9999999999861
 31
0.0
1001
REVIT
1002
{
1070
     1
1000
22597370
1002
}
1002
{
1070
     5
1000
22598766
1002
}
1002
{
1070
     3
1000
-2000281
1002
}
  0
LINE
  5
39E
330
399
100
AcDbEntity
  8
A-POR-___-___-EXI
100
AcDbLine
 10
317.7928507088372
 20
102.9999999999861
 30
0.0
 11
317.7928507088368
 21
312.9999999999862
 31
0.0
1001
REVIT
1002
{
1070
     1
1000
22597370
1002
}
1002
{
1070
     5
1000
22598766
1002
}
1002
{
1070
     3
1000
-2000281
1002
}
  0
ENDBLK
  5
3A0
330
399
100
AcDbEntity
  8
0
100
AcDbBlockEnd
  0
ENDSEC
  0
SECTION
  2
ENTITIES
  0
HATCH
  5
A7
330
70
100
AcDbEntity
  8
A-ALV-___-___-EXI
 62
    11
100
AcDbHatch
 10
0.0
 20
0.0
 30
0.0
210
0.0
220
0.0
230
1.0
  2
SOLID
 70
     1
 71
     0
 91
        5
 92
        1
 93
        4
 72
     1
 10
-16952.83884517388
 20
-10696.91804543848
 11
-16952.83884517388
 21
-6316.918045438479
 72
     1
 10
-16952.83884517388
 20
-6316.918045438479
 11
-17109.16420026303
 21
-6316.918045438479
 72
     1
 10
-17109.16420026303
 20
-6316.918045438479
 11
-17109.16420026303
 21
-10696.91804543848
 72
     1
 10
-17109.16420026303
 20
-10696.91804543848
 11
-16952.83884517388
 21
-10696.91804543848
 97
        0
 92
        1
 93
        4
 72
     1
 10
-9973.474130058946
 20
-10696.91804543848
 11
-9973.474130058946
 21
-6108.126523715975
 72
     1
 10
-9973.474130058946
 20
-6108.126523715975
 11
-10157.22013376026
 21
-6108.126523715975
 72
     1
 10
-10157.22013376026
 20
-6108.126523715975
 11
-10157.22013376026
 21
-10696.91804543848
 72
     1
 10
-10157.22013376026
 20
-10696.91804543848
 11
-9973.474130058946
 21
-10696.91804543848
 97
        0
 92
        1
 93
        5
 72
     1
 10
-13541.01557398562
 20
-10696.91804543848
 11
-13400.87743369958
 21
-10696.91804543848
 72
     1
 10
-13400.87743369958
 20
-10696.91804543848
 11
-13400.87743369958
 21
-5374.506297775868
 72
     1
 10
-13400.87743369958
 20
-5374.506297775868
 11
-13541.01557398562
 21
-5374.506297775868
 72
     1
 10
-13541.01557398562
 20
-5374.506297775868
 11
-13541.01557398562
 21
-10044.51015479969
 72
     1
 10
-13541.01557398562
 20
-10044.51015479969
 11
-13541.01557398562
 21
-10696.91804543848
 97
        0
 92
        1
 93
       12
 72
     1
 10
-20541.41460340545
 20
-8886.483602774776
 11
-20541.41460340545
 21
-7874.310243495006
 72
     1
 10
-20541.41460340545
 20
-7874.310243495006
 11
-20681.41460340545
 21
-7874.310243495004
 72
     1
 10
-20681.41460340545
 20
-7874.310243495004
 11
-20681.41460340545
 21
-7765.829468193783
 72
     1
 10
-20681.41460340545
 20
-7765.829468193783
 11
-20811.08895368146
 21
-7765.829468193783
 72
     1
 10
-20811.08895368146
 20
-7765.829468193783
 11
-20811.08895368146
 21
-7824.310243495005
 72
     1
 10
-20811.08895368146
 20
-7824.310243495005
 11
-20927.96685341277
 21
-7824.310243495005
 72
     1
 10
-20927.96685341277
 20
-7824.310243495005
 11
-20927.96685341277
 21
-8886.483602774776
 72
     1
 10
-20927.96685341277
 20
-8886.483602774776
 11
-20772.96685341279
 21
-8886.483602774776
 72
     1
 10
-20772.96685341279
 20
-8886.483602774776
 11
-20772.96685341279
 21
-8781.91509060994
 72
     1
 10
-20772.96685341279
 20
-8781.91509060994
 11
-20661.41460340544
 21
-8781.91509060994
 72
     1
 10
-20661.41460340544
 20
-8781.91509060994
 11
-20661.41460340544
 21
-8886.483602774776
 72
     1
 10
-20661.41460340544
 20
-8886.483602774776
 11
-20541.41460340545
 21
-8886.483602774776
 97
        0
 92
        1
 93
       11
 72
     1
 10
-6267.029372578349
 20
-8519.94645307856
 11
-6173.907272309672
 21
-8519.94645307856
 72
     1
 10
-6173.907272309672
 20
-8519.94645307856
 11
-6173.485631278582
 21
-8409.984329381769
 72
     1
 10
-6173.485631278582
 20
-8409.984329381769
 11
-6072.355022302338
 21
-8409.984329381769
 72
     1
 10
-6072.355022302338
 20
-8409.984329381769
 11
-6072.355022302338
 21
-8519.946453078558
 72
     1
 10
-6072.355022302338
 20
-8519.946453078558
 11
-5850.669586752559
 21
-8519.946453078558
 72
     1
 10
-5850.669586752559
 20
-8519.946453078558
 11
-5850.669586752559
 21
-7836.684363202518
 72
     1
 10
-5850.669586752559
 20
-7836.684363202518
 11
-6267.029372578349
 21
-7658.170242940814
 72
     1
 10
-6267.029372578349
 20
-7658.170242940814
 11
-6267.029372578349
 21
-7777.422036794624
 72
     1
 10
-6267.029372578349
 20
-7777.422036794624
 11
-6383.907272309671
 21
-7777.422036794624
 72
     1
 10
-6383.907272309671
 20
-7777.422036794624
 11
-6383.907272309671
 21
-8519.946453078558
 72
     1
 10
-6383.907272309671
 20
-8519.946453078558
 11
-6267.029372578349
 21
-8519.94645307856
 97
        0
 75
     0
 76
     1
 98
        1
 10
0.0
 20
0.0
450
        0
451
        0
460
0.0
461
0.0
452
        0
462
0.0
453
        0
470

1001
REVIT
1002
{
1070
     1
1000
22594446
1002
}
1002
{
1070
     5
1000
383807
1002
}
1002
{
1070
     2
1000
-2002000
1002
}
  0
HATCH
  5
B3
330
70
100
AcDbEntity
  8
A-BAS-___-___-EXI
 62
   253
420
 13342872
100
AcDbHatch
 10
0.0
 20
0.0
 30
0.0
210
0.0
220
0.0
230
1.0
  2
SOLID
 70
     1
 71
     0
 91
        1
 92
        1
 93
       11
 72
     1
 10
-794.1708199876373
 20
-11596.91804543854
 11
-794.1708199876373
 21
-11356.18410030593
 72
     1
 10
-794.1708199876373
 20
-11356.18410030593
 11
-1757.926809732399
 21
-11356.18410030593
 72
     1
 10
-1757.926809732399
 20
-11356.18410030593
 11
-1757.926809732399
 21
-11120.34522091558
 72
     1
 10
-1757.926809732399
 20
-11120.34522091558
 11
-2077.926809732397
 21
-11120.34522091558
 72
     1
 10
-2077.926809732397
 20
-11120.34522091558
 11
-2077.926809732397
 21
-10916.09219833928
 72
     1
 10
-2077.926809732397
 20
-10916.09219833928
 11
-2666.506037855447
 21
-10916.09219833928
 72
     1
 10
-2666.506037855447
 20
-10916.09219833928
 11
-2666.506037855447
 21
-10696.91804543853
 72
     1
 10
-2666.506037855447
 20
-10696.91804543853
 11
-24695.37120796436
 21
-10696.91804543845
 72
     1
 10
-24695.37120796436
 20
-10696.91804543845
 11
-24695.37120796436
 21
-11596.91804543852
 72
     1
 10
-24695.37120796436
 20
-11596.91804543852
 11
-4098.020174159358
 21
-11596.91804543852
 72
     1
 10
-4098.02017415936
 20
-11596.91804543852
 11
-794.1708199876375
 21
-11596.91804543854
 97
        0
 75
     0
 76
     1
 98
        1
 10
0.0
 20
0.0
450
        0
451
        0
460
0.0
461
0.0
452
        0
462
0.0
453
        0
470

1001
REVIT
1002
{
1070
     1
1000
22594456
1002
}
1002
{
1070
     5
1000
383807
1002
}
1002
{
1070
     2
1000
-2002000
1002
}
  0
HATCH
  5
FC
330
70
100
AcDbEntity
  8
A-COB-___-___-EXI
 62
    33
420
 12688002
100
AcDbHatch
 10
0.0
 20
0.0
 30
0.0
210
0.0
220
0.0
230
1.0
  2
SOLID
 70
     1
 71
     0
 91
        3
 92
        1
 93
       64
 72
     1
 10
-23755.92225076014
 20
-9063.411305236639
 11
-23480.92225076015
 21
-8946.680730778997
 72
     1
 10
-23480.92225076015
 20
-8946.680730778997
 11
-23480.92225076015
 21
-9029.558356697947
 72
     1
 10
-23480.92225076015
 20
-9029.558356697947
 11
-23361.7412893678
 21
-9029.558356697947
 72
     1
 10
-23361.7412893678
 20
-9029.558356697947
 11
-23361.7412893678
 21
-8896.091414096298
 72
     1
 10
-23361.7412893678
 20
-8896.091414096298
 11
-20927.96685341277
 21
-7863.015457698657
 72
     1
 10
-20927.96685341277
 20
-7863.015457698657
 11
-20927.96685341277
 21
-7824.310243495005
 72
     1
 10
-20927.96685341277
 20
-7824.310243495005
 11
-20811.08895368146
 21
-7824.310243495005
 72
     1
 10
-20811.08895368146
 20
-7824.310243495005
 11
-20811.08895368146
 21
-7765.829468193783
 72
     1
 10
-20811.08895368146
 20
-7765.829468193783
 11
-20681.41460340545
 21
-7765.829468193783
 72
     1
 10
-20681.41460340545
 20
-7765.829468193783
 11
-20681.41460340545
 21
-7874.310243495006
 72
     1
 10
-20681.41460340545
 20
-7874.310243495006
 11
-20541.41460340545
 21
-7874.310243495006
 72
     1
 10
-20541.41460340545
 20
-7874.310243495006
 11
-20541.41460340545
 21
-7698.933762421387
 72
     1
 10
-20541.41460340545
 20
-7698.933762421387
 11
-18898.00424641646
 21
-7001.347453181527
 72
     1
 10
-18898.00424641646
 20
-7001.347453181527
 11
-18898.00424641646
 21
-7076.918045438471
 72
     1
 10
-18898.00424641646
 20
-7076.918045438471
 11
-18789.16420026303
 21
-7076.918045438471
 72
     1
 10
-18789.16420026303
 20
-7076.918045438471
 11
-18789.16420026303
 21
-6955.147594594357
 72
     1
 10
-18789.16420026303
 20
-6955.147594594357
 11
-17109.16420026303
 21
-6242.029903362222
 72
     1
 10
-17109.16420026303
 20
-6242.029903362222
 11
-17109.16420026303
 21
-6316.918045438479
 72
     1
 10
-17109.16420026303
 20
-6316.918045438479
 11
-16952.83884517388
 21
-6316.918045438479
 72
     1
 10
-16952.83884517388
 20
-6316.918045438479
 11
-16952.83884517388
 21
-6175.673726991885
 72
     1
 10
-16952.83884517388
 20
-6175.673726991885
 11
-15214.03927380301
 21
-5437.597098508894
 72
     1
 10
-15214.03927380301
 20
-5437.597098508894
 11
-15214.03927380301
 21
-5486.633959001841
 72
     1
 10
-15214.03927380301
 20
-5486.633959001841
 11
-15093.55958100006
 21
-5486.633959001841
 72
     1
 10
-15093.55958100006
 20
-5486.633959001841
 11
-15093.55958100006
 21
-5386.45650304937
 72
     1
 10
-15093.55958100006
 20
-5386.45650304937
 11
-13400.87743369958
 21
-4667.955559672717
 72
     1
 10
-13400.87743369958
 20
-4667.955559672717
 11
-13400.87743369958
 21
-4758.778658220156
 72
     1
 10
-13400.87743369958
 20
-4758.778658220156
 11
-13283.31846072216
 21
-4758.778658220156
 72
     1
 10
-13283.31846072216
 20
-4758.778658220156
 11
-13283.31846072216
 21
-4649.938620408569
 72
     1
 10
-13283.31846072216
 20
-4649.938620408569
 11
-11587.94509126576
 21
-5376.829391003453
 72
     1
 10
-11587.94509126576
 20
-5376.829391003453
 11
-11587.94509126576
 21
-5510.488980035857
 72
     1
 10
-11587.94509126576
 20
-5510.488980035857
 11
-11466.05152791222
 21
-5510.488980035857
 72
     1
 10
-11466.05152791222
 20
-5510.488980035857
 11
-11466.05152791222
 21
-5429.091215916333
 72
     1
 10
-11466.05152791222
 20
-5429.091215916333
 11
-10157.22013376026
 21
-5990.252242633971
 72
     1
 10
-10157.22013376026
 20
-5990.252242633971
 11
-10157.22013376026
 21
-6108.126523715975
 72
     1
 10
-10157.22013376026
 20
-6108.126523715975
 11
-9973.474130058946
 21
-6108.126523715975
 72
     1
 10
-9973.474130058946
 20
-6108.126523715975
 11
-9973.474130058946
 21
-6069.03328085854
 72
     1
 10
-9973.474130058946
 20
-6069.03328085854
 11
-8258.28465566318
 21
-6804.420199882476
 72
     1
 10
-8258.28465566318
 20
-6804.420199882476
 11
-8258.28465566318
 21
-6915.928802905295
 72
     1
 10
-8258.28465566318
 20
-6915.928802905295
 11
-8113.435206816001
 21
-6915.928802905295
 72
     1
 10
-8113.435206816001
 20
-6915.928802905295
 11
-8113.435206816001
 21
-6866.524353097144
 72
     1
 10
-8113.435206816001
 20
-6866.524353097144
 11
-6383.907272309671
 21
-7608.058882144148
 72
     1
 10
-6383.907272309671
 20
-7608.058882144148
 11
-6383.907272309671
 21
-7777.422036794624
 72
     1
 10
-6383.907272309671
 20
-7777.422036794624
 11
-6267.029372578349
 21
-7777.422036794624
 72
     1
 10
-6267.029372578349
 20
-7777.422036794624
 11
-6267.029372578349
 21
-7658.17024294042
 72
     1
 10
-6267.029372578349
 20
-7658.17024294042
 11
-3882.801117709654
 21
-8680.407317486009
 72
     1
 10
-3882.801117709654
 20
-8680.407317486009
 11
-3882.801117709654
 21
-8811.857277738337
 72
     1
 10
-3882.801117709654
 20
-8811.857277738337
 11
-3762.80111770965
 21
-8811.857277738337
 72
     1
 10
-3762.80111770965
 20
-8811.857277738337
 11
-3762.80111770965
 21
-8731.857277738333
 72
     1
 10
-3762.80111770965
 20
-8731.857277738333
 11
-3715.324802291781
 21
-8752.212732248139
 72
     1
 10
-3715.324802291781
 20
-8752.212732248139
 11
-3715.324802291781
 21
-8649.35060235429
 72
     1
 10
-3715.324802291781
 20
-8649.35060235429
 11
-13256.755895182
 21
-4558.465181691597
 72
     1
 10
-13256.755895182
 20
-4558.465181691597
 11
-13274.88348959363
 21
-4573.753995319048
 72
     1
 10
-13274.88348959363
 20
-4573.753995319048
 11
-13294.71097628075
 21
-4587.111249713354
 72
     1
 10
-13294.71097628075
 20
-4587.111249713354
 11
-13309.40290348464
 21
-4591.569710224043
 72
     1
 10
-13309.40290348464
 20
-4591.569710224043
 11
-13323.04613503306
 21
-4593.794384308135
 72
     1
 10
-13323.04613503306
 20
-4593.794384308135
 11
-13344.33498069037
 21
-4593.922099816099
 72
     1
 10
-13344.33498069037
 20
-4593.922099816099
 11
-13355.76349835366
 21
-4592.203035601365
 72
     1
 10
-13355.76349835366
 20
-4592.203035601365
 11
-13367.44397540668
 21
-4588.407366582635
 72
     1
 10
-13367.44397540668
 20
-4588.407366582635
 11
-13384.48867025971
 21
-4580.4714621648
 72
     1
 10
-13384.48867025971
 20
-4580.4714621648
 11
-13393.56980712885
 21
-4573.48202916373
 72
     1
 10
-13393.56980712885
 20
-4573.48202916373
 11
-13401.12978567346
 21
-4566.402703997261
 72
     1
 10
-13401.12978567346
 20
-4566.402703997261
 11
-13412.1313835447
 21
-4553.912363232591
 72
     1
 10
-13412.1313835447
 20
-4553.912363232591
 11
-23839.33559958183
 21
-8979.997956414957
 72
     1
 10
-23839.33559958183
 20
-8979.997956414957
 11
-23755.92225076014
 21
-9063.411305236639
 97
        0
 92
        1
 93
        4
 72
     1
 10
-20772.96685341279
 20
-8886.483602774776
 11
-20661.41460340544
 21
-8886.483602774776
 72
     1
 10
-20661.41460340544
 20
-8886.483602774776
 11
-20661.41460340544
 21
-8781.91509060994
 72
     1
 10
-20661.41460340544
 20
-8781.91509060994
 11
-20772.96685341279
 21
-8781.91509060994
 72
     1
 10
-20772.96685341279
 20
-8781.91509060994
 11
-20772.96685341279
 21
-8886.483602774776
 97
        0
 92
        1
 93
        4
 72
     1
 10
-6072.355022302338
 20
-8519.946453078558
 11
-6072.355022302338
 21
-8409.984329381769
 72
     1
 10
-6072.355022302338
 20
-8409.984329381769
 11
-6173.485631278582
 21
-8409.984329381769
 72
     1
 10
-6173.485631278582
 20
-8409.984329381769
 11
-6173.485631278582
 21
-8519.946453078558
 72
     1
 10
-6173.485631278582
 20
-8519.946453078558
 11
-6072.355022302338
 21
-8519.946453078558
 97
        0
 75
     0
 76
     1
 98
        1
 10
0.0
 20
0.0
450
        0
451
        0
460
0.0
461
0.0
452
        0
462
0.0
453
        0
470

1001
REVIT
1002
{
1070
     1
1000
22594488
1002
}
1002
{
1070
     5
1000
383807
1002
}
1002
{
1070
     2
1000
-2002000
1002
}
  0
LINE
  5
FE
330
70
100
AcDbEntity
  8
A-ALV-___-___-EXI
100
AcDbLine
 10
-9973.474130058935
 20
-10696.91804543847
 30
0.0
 11
-9973.474130058935
 21
-6108.126523715966
 31
0.0
1001
REVIT
1002
{
1070
     1
1000
22594446
1002
}
1002
{
1070
     5
1000
383807
1002
}
1002
{
1070
     2
1000
-2000051
1002
}
1002
{
1070
     3
1000
-2000042
1002
}
  0
LINE
  5
FF
330
70
100
AcDbEntity
  8
A-ALV-___-___-EXI
100
AcDbLine
 10
-10157.22013376025
 20
-6108.126523715966
 30
0.0
 11
-10157.22013376025
 21
-10696.91804543847
 31
0.0
1001
REVIT
1002
{
1070
     1
1000
22594446
1002
}
1002
{
1070
     5
1000
383807
1002
}
1002
{
1070
     2
1000
-2000051
1002
}
1002
{
1070
     3
1000
-2000042
1002
}
  0
LINE
  5
108
330
70
100
AcDbEntity
  8
A-ALV-___-___-EXI
100
AcDbLine
 10
-16952.83884517386
 20
-10696.91804543847
 30
0.0
 11
-16952.83884517386
 21
-6316.918045438471
 31
0.0
1001
REVIT
1002
{
1070
     1
1000
22594446
1002
}
1002
{
1070
     5
1000
383807
1002
}
1002
{
1070
     2
1000
-2000051
1002
}
1002
{
1070
     3
1000
-2000042
1002
}
  0
LINE
  5
109
330
70
100
AcDbEntity
  8
A-ALV-___-___-EXI
100
AcDbLine
 10
-17109.16420026301
 20
-6316.918045438471
 30
0.0
 11
-17109.16420026301
 21
-10696.91804543847
 31
0.0
1001
REVIT
1002
{
1070
     1
1000
22594446
1002
}
1002
{
1070
     5
1000
383807
1002
}
1002
{
1070
     2
1000
-2000051
1002
}
1002
{
1070
     3
1000
-2000042
1002
}
  0
SPLINE
  5
14F
330
70
100
AcDbEntity
  8
A-COB-___-___-EXI
100
AcDbSpline
210
0.0
220
0.0
230
1.0
 70
    12
 71
     3
 72
   102
 73
    98
 74
     0
 42
0.000000001
 43
0.0000000001
 40
0.0
 40
0.0
 40
0.0
 40
0.0
 40
1.0
 40
1.0
 40
1.0
 40
2.0
 40
2.0
 40
2.0
 40
3.0
 40
3.0
 40
3.0
 40
4.0
 40
4.0
 40
4.0
 40
5.0
 40
5.0
 40
5.0
 40
6.0
 40
6.0
 40
6.0
 40
7.0
 40
7.0
 40
7.0
 40
7.020833333333333
 40
7.03125
 40
7.041666666666666
 40
7.052083333333333
 40
7.0625
 40
7.072916666666666
 40
7.083333333333333
 40
7.09375
 40
7.104166666666666
 40
7.125
 40
7.145833333333333
 40
7.166666666666666
 40
7.177083333333333
 40
7.1875
 40
7.197916666666666
 40
7.208333333333333
 40
7.21875
 40
7.229166666666666
 40
7.239583333333333
 40
7.25
 40
7.260416666666666
 40
7.270833333333333
 40
7.291666666666666
 40
7.3125
 40
7.333333333333333
 40
7.354166666666666
 40
7.375
 40
7.416666666666666
 40
7.458333333333333
 40
7.5
 40
7.541666666666666
 40
7.583333333333333
 40
7.604166666666666
 40
7.625
 40
7.645833333333333
 40
7.666666666666666
 40
7.6875
 40
7.708333333333333
 40
7.729166666666666
 40
7.75
 40
7.770833333333333
 40
7.791666666666666
 40
7.8125
 40
7.822916666666666
 40
7.833333333333333
 40
7.84375
 40
7.854166666666666
 40
7.864583333333333
 40
7.875
 40
7.885416666666666
 40
7.895833333333333
 40
7.90625
 40
7.911458333333333
 40
7.916666666666666
 40
7.921875
 40
7.927083333333333
 40
7.9375
 40
7.947916666666666
 40
7.958333333333333
 40
7.96875
 40
7.979166666666666
 40
8.0
 40
8.0
 40
8.0
 40
9.0
 40
9.0
 40
9.0
 40
10.0
 40
10.0
 40
10.0
 40
11.0
 40
11.0
 40
11.0
 40
12.0
 40
12.0
 40
12.0
 40
12.0
 10
-3991.518077659403
 20
-8445.252297203099
 30
0.0
 41
1.0
 10
-3887.869115544106
 20
-8491.092640754075
 30
0.0
 41
1.0
 10
-3784.220153428808
 20
-8536.932984305051
 30
0.0
 41
1.0
 10
-3680.57119131351
 20
-8582.773327856029
 30
0.0
 41
1.0
 10
-3667.237871345153
 20
-8582.792206385574
 30
0.0
 41
1.0
 10
-3653.904551376796
 20
-8582.811084915112
 30
0.0
 41
1.0
 10
-3640.571231408439
 20
-8582.829963444648
 30
0.0
 41
1.0
 10
-3635.863865493886
 20
-8587.550678495448
 30
0.0
 41
1.0
 10
-3631.156499579334
 20
-8592.271393546253
 30
0.0
 41
1.0
 10
-3626.449133664781
 20
-8596.99210859706
 30
0.0
 41
1.0
 10
-3626.45857292955
 20
-8603.658768581253
 30
0.0
 41
1.0
 10
-3626.468012194319
 20
-8610.32542856544
 30
0.0
 41
1.0
 10
-3626.477451459087
 20
-8616.992088549627
 30
0.0
 41
1.0
 10
-3635.312487048405
 20
-8636.968864423188
 30
0.0
 41
1.0
 10
-3644.147522637724
 20
-8656.945640296745
 30
0.0
 41
1.0
 10
-3652.982558227043
 20
-8676.922416170301
 30
0.0
 41
1.0
 10
-3673.763306248621
 20
-8667.731811564953
 30
0.0
 41
1.0
 10
-3694.544054270199
 20
-8658.541206959615
 30
0.0
 41
1.0
 10
-3715.324802291777
 20
-8649.350602354276
 30
0.0
 41
1.0
 10
-6895.801833255176
 20
-7285.722128800052
 30
0.0
 41
1.0
 10
-10076.27886421858
 20
-5922.093655245823
 30
0.0
 41
1.0
 10
-13256.75589518198
 20
-4558.465181691594
 30
0.0
 41
1.0
 10
-13257.98031309866
 20
-4559.642200388355
 30
0.0
 41
1.0
 10
-13259.92200321001
 20
-4561.442559016388
 30
0.0
 41
1.0
 10
-13262.73465405283
 20
-4563.922075342978
 30
0.0
 41
1.0
 10
-13264.92879908873
 20
-4565.802477685647
 30
0.0
 41
1.0
 10
-13267.31643480196
 20
-4567.778661046902
 30
0.0
 41
1.0
 10
-13269.87457351434
 20
-4569.834781761012
 30
0.0
 41
1.0
 10
-13272.45795250747
 20
-4571.870709890863
 30
0.0
 41
1.0
 10
-13274.90033238791
 20
-4573.771876775665
 30
0.0
 41
1.0
 10
-13277.2416555026
 20
-4575.565754920736
 30
0.0
 41
1.0
 10
-13280.36036286621
 20
-4577.905287623486
 30
0.0
 41
1.0
 10
-13283.94447056257
 20
-4580.51945610232
 30
0.0
 41
1.0
 10
-13287.28530840511
 20
-4582.844235225056
 30
0.0
 41
1.0
 10
-13289.6796760283
 20
-4584.388576002674
 30
0.0
 41
1.0
 10
-13291.40364742248
 20
-4585.417955411718
 30
0.0
 41
1.0
 10
-13292.55021292145
 20
-4586.051703083337
 30
0.0
 41
1.0
 10
-13293.62958144741
 20
-4586.60216816682
 30
0.0
 41
1.0
 10
-13294.71563803254
 20
-4587.120576732873
 30
0.0
 41
1.0
 10
-13295.77372410681
 20
-4587.583023181781
 30
0.0
 41
1.0
 10
-13296.76476007088
 20
-4587.962330342057
 30
0.0
 41
1.0
 10
-13297.76317800466
 20
-4588.310080119208
 30
0.0
 41
1.0
 10
-13298.83135275994
 20
-4588.668936721952
 30
0.0
 41
1.0
 10
-13299.96637642179
 20
-4589.038476069201
 30
0.0
 41
1.0
 10
-13301.51117212324
 20
-4589.505767928801
 30
0.0
 41
1.0
 10
-13303.57821155494
 20
-4590.084992489829
 30
0.0
 41
1.0
 10
-13306.37346767038
 20
-4590.845046000391
 30
0.0
 41
1.0
 10
-13309.36948715433
 20
-4591.576129876827
 30
0.0
 41
1.0
 10
-13312.56600462004
 20
-4592.268695836517
 30
0.0
 41
1.0
 10
-13317.04471096326
 20
-4593.101341134293
 30
0.0
 41
1.0
 10
-13323.00111721563
 20
-4593.878445400672
 30
0.0
 41
1.0
 10
-13330.41891162297
 20
-4594.306603965043
 30
0.0
 41
1.0
 10
-13337.7050670175
 20
-4594.319732258106
 30
0.0
 41
1.0
 10
-13344.48890557819
 20
-4593.970610935339
 30
0.0
 41
1.0
 10
-13349.37247993955
 20
-4593.437120903461
 30
0.0
 41
1.0
 10
-13353.05014455587
 20
-4592.81012184695
 30
0.0
 41
1.0
 10
-13355.75928814543
 20
-4592.225275925723
 30
0.0
 41
1.0
 10
-13358.49369298429
 20
-4591.506988058304
 30
0.0
 41
1.0
 10
-13361.27999220973
 20
-4590.654780565873
 30
0.0
 41
1.0
 10
-13364.3081778596
 20
-4589.60617189375
 30
0.0
 41
1.0
 10
-13367.40325984305
 20
-4588.436939342051
 30
0.0
 41
1.0
 10
-13370.7426352082
 20
-4587.090270233839
 30
0.0
 41
1.0
 10
-13374.0369207392
 20
-4585.682107021733
 30
0.0
 41
1.0
 10
-13377.14450495951
 20
-4584.288903746281
 30
0.0
 41
1.0
 10
-13380.06442279395
 20
-4582.891184348986
 30
0.0
 41
1.0
 10
-13382.00448848408
 20
-4581.897075659518
 30
0.0
 41
1.0
 10
-13383.42791084999
 20
-4581.109881165505
 30
0.0
 41
1.0
 10
-13384.4977094775
 20
-4580.472950448893
 30
0.0
 41
1.0
 10
-13385.51327279824
 20
-4579.827090027694
 30
0.0
 41
1.0
 10
-13386.45196302038
 20
-4579.188497288778
 30
0.0
 41
1.0
 10
-13387.40697524896
 20
-4578.497581095315
 30
0.0
 41
1.0
 10
-13388.47794311352
 20
-4577.683322968073
 30
0.0
 41
1.0
 10
-13389.62291324875
 20
-4576.796202321007
 30
0.0
 41
1.0
 10
-13390.78779818775
 20
-4575.867577143791
 30
0.0
 41
1.0
 10
-13391.85776334009
 20
-4574.976058749363
 30
0.0
 41
1.0
 10
-13392.79922894548
 20
-4574.1648298833
 30
0.0
 41
1.0
 10
-13393.56277786197
 20
-4573.488228077811
 30
0.0
 41
1.0
 10
-13394.36850237964
 20
-4572.774432787803
 30
0.0
 41
1.0
 10
-13395.4754581255
 20
-4571.806461652262
 30
0.0
 41
1.0
 10
-13396.94934939823
 20
-4570.503191010539
 30
0.0
 41
1.0
 10
-13398.89992560502
 20
-4568.687266177803
 30
0.0
 41
1.0
 10
-13401.08894821807
 20
-4566.472159092577
 30
0.0
 41
1.0
 10
-13403.52299556333
 20
-4563.840321435414
 30
0.0
 41
1.0
 10
-13407.04469415203
 20
-4559.907845223224
 30
0.0
 41
1.0
 10
-13410.01098228893
 20
-4556.44500465988
 30
0.0
 41
1.0
 10
-13412.13138354469
 20
-4553.912363232584
 30
0.0
 41
1.0
 10
-16887.86612222372
 20
-6029.274227626706
 30
0.0
 41
1.0
 10
-20363.60086090276
 20
-7504.636092020827
 30
0.0
 41
1.0
 10
-23839.3355995818
 20
-8979.997956414946
 30
0.0
 41
1.0
 10
-23913.64059200089
 20
-9012.860479208518
 30
0.0
 41
1.0
 10
-23987.94558441998
 20
-9045.723002002088
 30
0.0
 41
1.0
 10
-24062.25057683908
 20
-9078.585524795657
 30
0.0
 41
1.0
 10
-24072.11428149449
 20
-9056.282839629071
 30
0.0
 41
1.0
 10
-24081.97798614991
 20
-9033.980154462492
 30
0.0
 41
1.0
 10
-24091.84169080532
 20
-9011.677469295911
 30
0.0
 41
1.0
 10
-24083.1035170015
 20
-9031.435232335843
 30
0.0
 41
1.0
 10
-24074.36534319769
 20
-9051.192995375769
 30
0.0
 41
1.0
 10
-24065.62716939387
 20
-9070.950758415698
 30
0.0
 41
1.0
1001
REVIT
1002
{
1070
     1
1000
22594488
1002
}
1002
{
1070
     5
1000
383807
1002
}
1002
{
1070
     2
1000
-2000051
1002
}
1002
{
1070
     3
1000
-2000042
1002
}
  0
LINE
  5
33F
330
70
100
AcDbEntity
  8
A-COB-___-___-EXI
100
AcDbLine
 10
-10157.22013376009
 20
-5990.252242633965
 30
0.0
 11
-13400.87743369956
 21
-5990.252242633953
 31
0.0
1001
REVIT
1002
{
1070
     1
1000
22594675
1002
}
1002
{
1070
     2
1000
-2000051
1002
}
1002
{
1070
     3
1000
-2000042
1002
}
  0
LINE
  5
348
330
70
100
AcDbEntity
  8
A-COB-___-___-EXI
100
AcDbLine
 10
-6383.907272309666
 20
-7859.328881452286
 30
0.0
 11
-9973.474130058935
 21
-7859.328881452274
 31
0.0
1001
REVIT
1002
{
1070
     1
1000
22594684
1002
}
1002
{
1070
     2
1000
-2000051
1002
}
1002
{
1070
     3
1000
-2000042
1002
}
  0
LINE
  5
349
330
70
100
AcDbEntity
  8
A-COB-___-___-EXI
100
AcDbLine
 10
-9973.474130058935
 20
-7675.928802905282
 30
0.0
 11
-6383.907272309666
 21
-7675.928802905295
 31
0.0
1001
REVIT
1002
{
1070
     1
1000
22594685
1002
}
1002
{
1070
     2
1000
-2000051
1002
}
1002
{
1070
     3
1000
-2000042
1002
}
  0
LINE
  5
34A
330
70
100
AcDbEntity
  8
A-COB-___-___-EXI
100
AcDbLine
 10
-5850.669586752552
 20
-8639.946453078549
 30
0.0
 11
-3977.170553664134
 21
-8639.946453078556
 31
0.0
1001
REVIT
1002
{
1070
     1
1000
22594686
1002
}
1002
{
1070
     2
1000
-2000051
1002
}
1002
{
1070
     3
1000
-2000042
1002
}
  0
LINE
  5
34B
330
70
100
AcDbEntity
  8
A-COB-___-___-EXI
100
AcDbLine
 10
-3882.801117709645
 20
-8779.946453078556
 30
0.0
 11
-5850.669586752552
 21
-8779.946453078549
 31
0.0
1001
REVIT
1002
{
1070
     1
1000
22594687
1002
}
1002
{
1070
     2
1000
-2000051
1002
}
1002
{
1070
     3
1000
-2000042
1002
}
  0
LINE
  5
358
330
70
100
AcDbEntity
  8
A-POR-___-___-EXI
100
AcDbLine
 10
-20734.69072840909
 20
-8886.483602774765
 30
0.0
 11
-20734.69072840909
 21
-10696.91804543846
 31
0.0
1001
REVIT
1002
{
1070
     1
1000
22594776
1002
}
1002
{
1070
     2
1000
-2000051
1002
}
1002
{
1070
     3
1000
-2000042
1002
}
  0
LINE
  5
35B
330
70
100
AcDbEntity
  8
A-ESC-___-___-EXI
100
AcDbLine
 10
-12566.41017019088
 20
-7859.328881452286
 30
0.0
 11
-11075.14291571811
 21
-9636.551989488317
 31
0.0
1001
REVIT
1002
{
1070
     1
1000
22594779
1002
}
1002
{
1070
     2
1000
-2000051
1002
}
1002
{
1070
     3
1000
-2000042
1002
}
  0
CIRCLE
  5
391
330
70
100
AcDbEntity
  8
A-COB-___-___-EXI
100
AcDbCircle
 10
-13332.3936344733
 20
-4508.147975095056
 30
0.0
 40
85.0
1001
REVIT
1002
{
1070
     1
1000
22595351
1002
}
1002
{
1070
     2
1000
-2000051
1002
}
1002
{
1070
     3
1000
-2000042
1002
}
  0
LWPOLYLINE
  5
3CB
330
70
100
AcDbEntity
  8
A-PIL-___-___-EXI
100
AcDbPolyline
 90
        4
 70
     1
 43
0.0
 10
-23480.92225076011
 20
-10349.60622044097
 10
-23480.92225076011
 20
-9270.759462337222
 10
-23362.15683716115
 20
-9270.759462337222
 10
-23362.15683716115
 20
-10349.60622044097
1001
REVIT
1002
{
1070
     1
1000
22594830
1002
}
1002
{
1070
     2
1000
-2000051
1002
}
1002
{
1070
     3
1000
-2000042
1002
}
  0
LWPOLYLINE
  5
3CC
330
70
100
AcDbEntity
  8
A-COB-___-___-EXI
100
AcDbPolyline
 90
        4
 70
     1
 43
0.0
 10
-13400.87743369956
 20
-5720.707302404125
 10
-13400.87743369956
 20
-4956.45715185334
 10
-13283.31846072214
 20
-4956.45715185334
 10
-13283.31846072214
 20
-5720.707302404125
1001
REVIT
1002
{
1070
     1
1000
22594826
1002
}
1002
{
1070
     2
1000
-2000051
1002
}
1002
{
1070
     3
1000
-2000042
1002
}
  0
LWPOLYLINE
  5
3CD
330
70
100
AcDbEntity
  8
A-COB-___-___-EXI
100
AcDbPolyline
 90
        4
 70
     1
 43
0.0
 10
-11587.94509126575
 20
-5805.154832851726
 10
-11587.94509126575
 20
-5598.258383255103
 10
-11466.05152791221
 20
-5598.258383255103
 10
-11466.05152791221
 20
-5805.154832851726
1001
REVIT
1002
{
1070
     1
1000
22594822
1002
}
1002
{
1070
     2
1000
-2000051
1002
}
1002
{
1070
     3
1000
-2000042
1002
}
  0
LWPOLYLINE
  5
3CE
330
70
100
AcDbEntity
  8
A-COB-___-___-EXI
100
AcDbPolyline
 90
        4
 70
     1
 43
0.0
 10
-8258.284655663173
 20
-7480.299378949396
 10
-8258.284655663173
 20
-7083.828779439219
 10
-8113.435206815994
 20
-7083.828779439219
 10
-8113.435206815994
 20
-7480.299378949396
1001
REVIT
1002
{
1070
     1
1000
22594818
1002
}
1002
{
1070
     2
1000
-2000051
1002
}
1002
{
1070
     3
1000
-2000042
1002
}
  0
LWPOLYLINE
  5
3CF
330
70
100
AcDbEntity
  8
A-PIL-___-___-EXI
100
AcDbPolyline
 90
        4
 70
     1
 43
0.0
 10
-3882.801117709652
 20
-10372.67008713509
 10
-3882.801117709652
 20
-9077.160522538454
 10
-3762.801117709647
 20
-9077.160522538454
 10
-3762.801117709647
 20
-10372.67008713509
1001
REVIT
1002
{
1070
     1
1000
22594814
1002
}
1002
{
1070
     2
1000
-2000051
1002
}
1002
{
1070
     3
1000
-2000042
1002
}
  0
LWPOLYLINE
  5
3D0
330
70
100
AcDbEntity
  8
A-ESC-___-___-EXI
100
AcDbPolyline
 90
        4
 70
     1
 43
0.0
 10
-11077.22013376025
 20
-9258.533971575831
 10
-11077.22013376025
 20
-9334.536748978671
 10
-10957.22013376025
 20
-9334.536748978671
 10
-10957.22013376025
 20
-9258.533971575831
1001
REVIT
1002
{
1070
     1
1000
22594810
1002
}
1002
{
1070
     2
1000
-2000051
1002
}
1002
{
1070
     3
1000
-2000042
1002
}
  0
LWPOLYLINE
  5
3D1
330
70
100
AcDbEntity
  8
A-ESC-___-___-EXI
100
AcDbPolyline
 90
        4
 70
     1
 43
0.0
 10
-10957.22013376025
 20
-9527.657695171027
 10
-10957.22013376025
 20
-9734.554144767649
 10
-10599.41744950318
 20
-9734.554144767649
 10
-10599.41744950318
 20
-9527.657695171027
1001
REVIT
1002
{
1070
     1
1000
22594806
1002
}
1002
{
1070
     2
1000
-2000051
1002
}
1002
{
1070
     3
1000
-2000042
1002
}
  0
LWPOLYLINE
  5
3D2
330
70
100
AcDbEntity
  8
A-ESC-___-___-EXI
100
AcDbPolyline
 90
        4
 70
     1
 43
0.0
 10
-10957.22013376025
 20
-9734.554144767649
 10
-10957.22013376025
 20
-9928.360428964078
 10
-10157.22013376025
 20
-9928.360428964078
 10
-10157.22013376025
 20
-9734.554144767649
1001
REVIT
1002
{
1070
     1
1000
22594802
1002
}
1002
{
1070
     2
1000
-2000051
1002
}
1002
{
1070
     3
1000
-2000042
1002
}
  0
LWPOLYLINE
  5
3D3
330
70
100
AcDbEntity
  8
A-ESC-___-___-EXI
100
AcDbPolyline
 90
        4
 70
     1
 43
0.0
 10
-10157.22013376025
 20
-9928.360428964078
 10
-10157.22013376025
 20
-10108.9967296786
 10
-10957.22013376025
 20
-10108.9967296786
 10
-10957.22013376025
 20
-9928.360428964078
1001
REVIT
1002
{
1070
     1
1000
22594798
1002
}
1002
{
1070
     2
1000
-2000051
1002
}
1002
{
1070
     3
1000
-2000042
1002
}
  0
LWPOLYLINE
  5
3D4
330
70
100
AcDbEntity
  8
A-ESC-___-___-EXI
100
AcDbPolyline
 90
        4
 70
     1
 43
0.0
 10
-10157.22013376025
 20
-10108.9967296786
 10
-10157.22013376025
 20
-10297.38601385342
 10
-10957.22013376025
 20
-10297.38601385342
 10
-10957.22013376025
 20
-10108.9967296786
1001
REVIT
1002
{
1070
     1
1000
22594794
1002
}
1002
{
1070
     2
1000
-2000051
1002
}
1002
{
1070
     3
1000
-2000042
1002
}
  0
LWPOLYLINE
  5
3D5
330
70
100
AcDbEntity
  8
A-ESC-___-___-EXI
100
AcDbPolyline
 90
        4
 70
     1
 43
0.0
 10
-11077.22013376025
 20
-10497.15202964594
 10
-11077.22013376025
 20
-10696.91804543847
 10
-10157.22013376025
 20
-10696.91804543847
 10
-10157.22013376025
 20
-10497.15202964594
1001
REVIT
1002
{
1070
     1
1000
22594790
1002
}
1002
{
1070
     2
1000
-2000051
1002
}
1002
{
1070
     3
1000
-2000042
1002
}
  0
LWPOLYLINE
  5
3D6
330
70
100
AcDbEntity
  8
A-ESC-___-___-EXI
100
AcDbPolyline
 90
        4
 70
     1
 43
0.0
 10
-10157.22013376025
 20
-10297.38601385342
 10
-10157.22013376025
 20
-10696.91804543847
 10
-11077.22013376025
 20
-10696.91804543847
 10
-11077.22013376025
 20
-10297.38601385342
1001
REVIT
1002
{
1070
     1
1000
22594786
1002
}
1002
{
1070
     2
1000
-2000051
1002
}
1002
{
1070
     3
1000
-2000042
1002
}
  0
LWPOLYLINE
  5
3D7
330
70
100
AcDbEntity
  8
A-ALV-___-___-EXI
100
AcDbPolyline
 90
        4
 70
     1
 43
0.0
 10
-20541.41460340543
 20
-8886.483602774765
 10
-20541.41460340543
 20
-10696.91804543846
 10
-20927.96685341275
 20
-10696.91804543846
 10
-20927.96685341275
 20
-8886.483602774765
1001
REVIT
1002
{
1070
     1
1000
22594775
1002
}
1002
{
1070
     2
1000
-2000051
1002
}
1002
{
1070
     3
1000
-2000042
1002
}
  0
LWPOLYLINE
  5
3D8
330
70
100
AcDbEntity
  8
A-PIL-___-___-EXI
100
AcDbPolyline
 90
        4
 70
     1
 43
0.0
 10
-23362.15683716115
 20
-9029.558356697938
 10
-23362.15683716115
 20
-10696.91804543845
 10
-23480.92225076011
 20
-10696.91804543845
 10
-23480.92225076011
 20
-9029.558356697938
1001
REVIT
1002
{
1070
     1
1000
22594771
1002
}
1002
{
1070
     2
1000
-2000051
1002
}
1002
{
1070
     3
1000
-2000042
1002
}
  0
LWPOLYLINE
  5
3D9
330
70
100
AcDbEntity
  8
A-COB-___-___-EXI
100
AcDbPolyline
 90
        3
 70
     0
 43
0.0
 10
-8113.435206815992
 20
-6915.928802905284
 10
-8258.284655663173
 20
-6915.928802905284
 10
-8258.284655663173
 20
-7675.928802905288
1001
REVIT
1002
{
1070
     1
1000
22594682
1002
}
1002
{
1070
     2
1000
-2000051
1002
}
1002
{
1070
     3
1000
-2000042
1002
}
  0
LWPOLYLINE
  5
3DA
330
70
100
AcDbEntity
  8
A-COB-___-___-EXI
100
AcDbPolyline
 90
        9
 70
     0
 43
0.0
 10
-8258.284655663173
 20
-6915.928802905284
 10
-8258.284655663173
 20
-6804.42019988247
 10
-9973.474130058935
 20
-6069.033280858534
 10
-9973.474130058935
 20
-6108.126523715966
 10
-10157.22013376025
 20
-6108.126523715966
 10
-10157.22013376025
 20
-5990.252242633965
 10
-11466.05152791221
 20
-5429.091215916326
 10
-11466.05152791221
 20
-5510.488980035851
 10
-11466.05152791221
 20
-5990.25224263396
1001
REVIT
1002
{
1070
     1
1000
22594681
1002
}
1002
{
1070
     2
1000
-2000051
1002
}
1002
{
1070
     3
1000
-2000042
1002
}
  0
LWPOLYLINE
  5
3DB
330
70
100
AcDbEntity
  8
A-COB-___-___-EXI
100
AcDbPolyline
 90
        3
 70
     0
 43
0.0
 10
-11466.05152791221
 20
-5510.488980035851
 10
-11587.94509126575
 20
-5510.488980035851
 10
-11587.94509126575
 20
-5990.25224263396
1001
REVIT
1002
{
1070
     1
1000
22594680
1002
}
1002
{
1070
     2
1000
-2000051
1002
}
1002
{
1070
     3
1000
-2000042
1002
}
  0
LWPOLYLINE
  5
3DC
330
70
100
AcDbEntity
  8
A-COB-___-___-EXI
100
AcDbPolyline
 90
        4
 70
     1
 43
0.0
 10
-13283.31846072214
 20
-4758.778658220149
 10
-13283.31846072214
 20
-5990.252242633953
 10
-13400.87743369956
 20
-5990.252242633953
 10
-13400.87743369956
 20
-4758.778658220149
1001
REVIT
1002
{
1070
     1
1000
22594679
1002
}
1002
{
1070
     2
1000
-2000051
1002
}
1002
{
1070
     3
1000
-2000042
1002
}
  0
LWPOLYLINE
  5
3DD
330
70
100
AcDbEntity
  8
A-COB-___-___-EXI
100
AcDbPolyline
 90
        6
 70
     0
 43
0.0
 10
-12452.59601103014
 20
-6108.126523715966
 10
-12566.41017019088
 20
-6108.126523715966
 10
-12566.41017019088
 20
-7730.894743582813
 10
-12452.59601103014
 20
-7730.894743582813
 10
-12452.59601103014
 20
-6108.126523715966
 10
-10152.59601103013
 20
-6108.126523715974
1001
REVIT
1002
{
1070
     1
1000
22594674
1002
}
1002
{
1070
     2
1000
-2000051
1002
}
1002
{
1070
     3
1000
-2000042
1002
}
  0
LWPOLYLINE
  5
3DE
330
70
100
AcDbEntity
  8
A-COB-___-___-EXI
100
AcDbPolyline
 90
        3
 70
     0
 43
0.0
 10
-17112.49267732431
 20
-7209.076644879032
 10
-18898.50603378637
 20
-7209.076644879026
 10
-20541.41460340543
 20
-7906.449958017258
1001
REVIT
1002
{
1070
     1
1000
22594673
1002
}
1002
{
1070
     2
1000
-2000051
1002
}
1002
{
1070
     3
1000
-2000042
1002
}
  0
LWPOLYLINE
  5
3DF
330
70
100
AcDbEntity
  8
A-COB-___-___-EXI
100
AcDbPolyline
 90
        4
 70
     0
 43
0.0
 10
-17109.16420026301
 20
-7076.918045438468
 10
-18789.16420026301
 20
-7076.918045438464
 10
-18898.00424641644
 20
-7076.918045438464
 10
-20541.41460340543
 20
-7774.504354678325
1001
REVIT
1002
{
1070
     1
1000
22594672
1002
}
1002
{
1070
     2
1000
-2000051
1002
}
1002
{
1070
     3
1000
-2000042
1002
}
  0
LWPOLYLINE
  5
3E0
330
70
100
AcDbEntity
  8
A-COB-___-___-EXI
100
AcDbPolyline
 90
        3
 70
     0
 43
0.0
 10
-23839.3355995818
 20
-8979.997956414946
 10
-23755.92225076012
 20
-9063.411305236629
 10
-13467.8388451739
 20
-4696.378992501324
1001
REVIT
1002
{
1070
     1
1000
22594669
1002
}
1002
{
1070
     2
1000
-2000051
1002
}
1002
{
1070
     3
1000
-2000042
1002
}
  0
LWPOLYLINE
  5
3E1
330
70
100
AcDbEntity
  8
A-COB-___-___-EXI
100
AcDbPolyline
 90
       19
 70
     0
 43
0.0
 10
-11587.94509126575
 20
-5510.488980035851
 10
-11587.94509126575
 20
-5376.829391003447
 10
-13283.31846072214
 20
-4649.938620408564
 10
-13283.31846072214
 20
-4758.778658220149
 10
-13400.87743369956
 20
-4758.778658220149
 10
-13400.87743369956
 20
-4667.955559672712
 10
-13400.87743369956
 20
-4649.938620408437
 10
-13283.31846072209
 20
-4649.938620408437
 10
-3762.801117709647
 20
-8731.857277738326
 10
-3762.801117709647
 20
-8811.857277738324
 10
-3882.801117709645
 20
-8811.857277738324
 10
-3882.801117709645
 20
-8680.407317485999
 10
-6267.029372578342
 20
-7658.170242940411
 10
-6267.029372578342
 20
-7777.422036794615
 10
-6383.907272309666
 20
-7777.422036794615
 10
-6383.907272309666
 20
-7608.058882144139
 10
-8113.435206815992
 20
-6866.524353097137
 10
-8113.435206815992
 20
-6915.928802905284
 10
-8113.435206815994
 20
-7675.928802905289
1001
REVIT
1002
{
1070
     1
1000
22594668
1002
}
1002
{
1070
     2
1000
-2000051
1002
}
1002
{
1070
     3
1000
-2000042
1002
}
  0
LWPOLYLINE
  5
3E2
330
70
100
AcDbEntity
  8
A-COB-___-___-EXI
100
AcDbPolyline
 90
        4
 70
     1
 43
0.0
 10
-10157.22013376025
 20
-6277.366276028087
 10
-10157.22013376025
 20
-6375.59281865471
 10
-12452.59601103014
 20
-6375.59281865471
 10
-12452.59601103014
 20
-6277.366276028087
1001
REVIT
1002
{
1070
     1
1000
22594627
1002
}
1002
{
1070
     2
1000
-2000051
1002
}
1002
{
1070
     3
1000
-2000042
1002
}
  0
LWPOLYLINE
  5
3E3
330
70
100
AcDbEntity
  8
A-COB-___-___-EXI
100
AcDbPolyline
 90
        4
 70
     1
 43
0.0
 10
-10157.22013376025
 20
-7859.328881452286
 10
-10157.22013376025
 20
-7730.894743582813
 10
-13400.87743369956
 20
-7730.894743582813
 10
-13400.87743369956
 20
-7859.328881452286
1001
REVIT
1002
{
1070
     1
1000
22594619
1002
}
1002
{
1070
     2
1000
-2000051
1002
}
1002
{
1070
     3
1000
-2000042
1002
}
  0
LWPOLYLINE
  5
3E4
330
70
100
AcDbEntity
  8
A-COB-___-___-EXI
100
AcDbPolyline
 90
        4
 70
     1
 43
0.0
 10
-13400.87743369956
 20
-6108.126523715966
 10
-13400.87743369956
 20
-7730.894743582813
 10
-12566.41017019088
 20
-7730.894743582813
 10
-12566.41017019088
 20
-6108.126523715966
1001
REVIT
1002
{
1070
     1
1000
22594615
1002
}
1002
{
1070
     2
1000
-2000051
1002
}
1002
{
1070
     3
1000
-2000042
1002
}
  0
LWPOLYLINE
  5
3E5
330
70
100
AcDbEntity
  8
A-POR-___-___-EXI
100
AcDbPolyline
 90
        4
 70
     1
 43
0.0
 10
-6154.31690826916
 20
-8519.946453078551
 10
-6154.31690826916
 20
-10696.91804543851
 10
-6072.35502230233
 20
-10696.91804543851
 10
-6072.35502230233
 20
-8519.946453078551
1001
REVIT
1002
{
1070
     1
1000
22594611
1002
}
1002
{
1070
     2
1000
-2000051
1002
}
1002
{
1070
     3
1000
-2000042
1002
}
  0
LWPOLYLINE
  5
3E6
330
70
100
AcDbEntity
  8
A-ALV-___-___-EXI
100
AcDbPolyline
 90
        4
 70
     1
 43
0.0
 10
-5850.669586752552
 20
-8519.946453078551
 10
-5850.669586752552
 20
-10696.91804543851
 10
-6383.907272309666
 20
-10696.91804543851
 10
-6383.907272309666
 20
-8519.946453078551
1001
REVIT
1002
{
1070
     1
1000
22594607
1002
}
1002
{
1070
     2
1000
-2000051
1002
}
1002
{
1070
     3
1000
-2000042
1002
}
  0
LWPOLYLINE
  5
3E7
330
70
100
AcDbEntity
  8
A-JAN-___-___-EXI
100
AcDbPolyline
 90
        4
 70
     1
 43
0.0
 10
-8213.485631278574
 20
-9997.386013853418
 10
-8213.485631278574
 20
-8637.386013853417
 10
-8973.485631278574
 20
-8637.386013853417
 10
-8973.485631278574
 20
-9997.386013853418
1001
REVIT
1002
{
1070
     1
1000
22594587
1002
}
1002
{
1070
     2
1000
-2000051
1002
}
1002
{
1070
     3
1000
-2000042
1002
}
  0
LWPOLYLINE
  5
3E8
330
70
100
AcDbEntity
  8
A-COB-___-___-EXI
100
AcDbPolyline
 90
       10
 70
     1
 43
0.0
 10
-13399.03318969373
 20
-4466.170053144828
 10
-13709.98007603958
 20
-4603.691083797744
 10
-13749.98003594469
 20
-4603.747719386353
 10
-13764.10213368835
 20
-4617.909864538774
 10
-13764.07381589405
 20
-4637.909844491335
 10
-13737.85929448259
 20
-4697.183133611118
 10
-13764.07381589405
 20
-4637.909844491335
 10
-13764.10213368835
 20
-4617.909864538774
 10
-13749.98003594469
 20
-4603.747719386353
 10
-13709.98007603958
 20
-4603.691083797744
1001
REVIT
1002
{
1070
     1
1000
22595014
1002
}
1002
{
1070
     2
1000
-2000051
1002
}
1002
{
1070
     3
1000
-2000042
1002
}
  0
LWPOLYLINE
  5
3E9
330
70
100
AcDbEntity
  8
A-COB-___-___-EXI
100
AcDbPolyline
 90
        6
 70
     0
 43
0.0
 10
-4362.166930334813
 20
-8286.330925987547
 10
-4051.220043988943
 20
-8423.851956640472
 10
-4011.220084083839
 20
-8423.90859222908
 10
-3997.097986340185
 20
-8438.070737381499
 10
-3997.12630413449
 20
-8458.070717334067
 10
-4023.340825545949
 20
-8517.344006453848
1001
REVIT
1002
{
1070
     1
1000
22595342
1002
}
1002
{
1070
     2
1000
-2000051
1002
}
1002
{
1070
     3
1000
-2000042
1002
}
  0
LWPOLYLINE
  5
3EA
330
70
100
AcDbEntity
  8
A-COB-___-___-EXI
100
AcDbPolyline
 90
        6
 70
     0
 43
0.0
 10
-4732.815783010217
 20
-8127.409554772002
 10
-4421.868896664351
 20
-8264.930585424924
 10
-4381.868936759252
 20
-8264.987221013532
 10
-4367.746839015594
 20
-8279.149366165952
 10
-4367.775156809899
 20
-8299.149346118518
 10
-4393.98967822136
 20
-8358.4226352383
1001
REVIT
1002
{
1070
     1
1000
22595336
1002
}
1002
{
1070
     2
1000
-2000051
1002
}
1002
{
1070
     3
1000
-2000042
1002
}
  0
LWPOLYLINE
  5
3EB
330
70
100
AcDbEntity
  8
A-COB-___-___-EXI
100
AcDbPolyline
 90
        6
 70
     0
 43
0.0
 10
-5103.464635685616
 20
-7968.488183556454
 10
-4792.517749339746
 20
-8106.009214209377
 10
-4752.517789434647
 20
-8106.065849797987
 10
-4738.395691690993
 20
-8120.227994950404
 10
-4738.424009485298
 20
-8140.22797490297
 10
-4764.638530896757
 20
-8199.501264022753
1001
REVIT
1002
{
1070
     1
1000
22595330
1002
}
1002
{
1070
     2
1000
-2000051
1002
}
1002
{
1070
     3
1000
-2000042
1002
}
  0
LWPOLYLINE
  5
3EC
330
70
100
AcDbEntity
  8
A-COB-___-___-EXI
100
AcDbPolyline
 90
        6
 70
     0
 43
0.0
 10
-5474.113488361015
 20
-7809.566812340898
 10
-5163.166602015148
 20
-7947.087842993821
 10
-5123.166642110049
 20
-7947.14447858243
 10
-5109.044544366392
 20
-7961.306623734849
 10
-5109.072862160697
 20
-7981.306603687414
 10
-5135.287383572157
 20
-8040.579892807198
1001
REVIT
1002
{
1070
     1
1000
22595324
1002
}
1002
{
1070
     2
1000
-2000051
1002
}
1002
{
1070
     3
1000
-2000042
1002
}
  0
LWPOLYLINE
  5
3ED
330
70
100
AcDbEntity
  8
A-COB-___-___-EXI
100
AcDbPolyline
 90
        6
 70
     0
 43
0.0
 10
-5844.762341036428
 20
-7650.645441125354
 10
-5533.815454690557
 20
-7788.166471778279
 10
-5493.81549478546
 20
-7788.223107366888
 10
-5479.693397041806
 20
-7802.385252519305
 10
-5479.72171483611
 20
-7822.38523247187
 10
-5505.936236247571
 20
-7881.658521591652
1001
REVIT
1002
{
1070
     1
1000
22595318
1002
}
1002
{
1070
     2
1000
-2000051
1002
}
1002
{
1070
     3
1000
-2000042
1002
}
  0
LWPOLYLINE
  5
3EE
330
70
100
AcDbEntity
  8
A-COB-___-___-EXI
100
AcDbPolyline
 90
        6
 70
     0
 43
0.0
 10
-6215.411193711841
 20
-7491.724069909806
 10
-5904.464307365973
 20
-7629.245100562727
 10
-5864.464347460863
 20
-7629.301736151337
 10
-5850.342249717206
 20
-7643.463881303756
 10
-5850.370567511511
 20
-7663.463861256322
 10
-5876.585088922972
 20
-7722.737150376104
1001
REVIT
1002
{
1070
     1
1000
22595312
1002
}
1002
{
1070
     2
1000
-2000051
1002
}
1002
{
1070
     3
1000
-2000042
1002
}
  0
LWPOLYLINE
  5
3EF
330
70
100
AcDbEntity
  8
A-COB-___-___-EXI
100
AcDbPolyline
 90
        6
 70
     0
 43
0.0
 10
-6586.060046387242
 20
-7332.802698694249
 10
-6275.113160041371
 20
-7470.323729347173
 10
-6235.113200136273
 20
-7470.380364935782
 10
-6220.991102392619
 20
-7484.5425100882
 10
-6221.019420186923
 20
-7504.542490040766
 10
-6247.233941598384
 20
-7563.815779160548
1001
REVIT
1002
{
1070
     1
1000
22595306
1002
}
1002
{
1070
     2
1000
-2000051
1002
}
1002
{
1070
     3
1000
-2000042
1002
}
  0
LWPOLYLINE
  5
3F0
330
70
100
AcDbEntity
  8
A-COB-___-___-EXI
100
AcDbPolyline
 90
        6
 70
     0
 43
0.0
 10
-6956.708899062639
 20
-7173.8813274787
 10
-6645.762012716772
 20
-7311.402358131623
 10
-6605.762052811673
 20
-7311.458993720233
 10
-6591.639955068015
 20
-7325.621138872651
 10
-6591.668272862321
 20
-7345.621118825217
 10
-6617.882794273781
 20
-7404.894407944998
1001
REVIT
1002
{
1070
     1
1000
22595300
1002
}
1002
{
1070
     2
1000
-2000051
1002
}
1002
{
1070
     3
1000
-2000042
1002
}
  0
LWPOLYLINE
  5
3F1
330
70
100
AcDbEntity
  8
A-COB-___-___-EXI
100
AcDbPolyline
 90
        6
 70
     0
 43
0.0
 10
-7327.35775173805
 20
-7014.959956263154
 10
-7016.41086539218
 20
-7152.480986916076
 10
-6976.410905487082
 20
-7152.537622504687
 10
-6962.288807743426
 20
-7166.699767657104
 10
-6962.317125537731
 20
-7186.699747609669
 10
-6988.531646949192
 20
-7245.973036729451
1001
REVIT
1002
{
1070
     1
1000
22595294
1002
}
1002
{
1070
     2
1000
-2000051
1002
}
1002
{
1070
     3
1000
-2000042
1002
}
  0
LWPOLYLINE
  5
3F2
330
70
100
AcDbEntity
  8
A-COB-___-___-EXI
100
AcDbPolyline
 90
        6
 70
     0
 43
0.0
 10
-7698.006604413452
 20
-6856.038585047606
 10
-7387.059718067586
 20
-6993.559615700529
 10
-7347.059758162486
 20
-6993.616251289139
 10
-7332.93766041883
 20
-7007.778396441557
 10
-7332.965978213135
 20
-7027.778376394123
 10
-7359.180499624596
 20
-7087.051665513904
1001
REVIT
1002
{
1070
     1
1000
22595288
1002
}
1002
{
1070
     2
1000
-2000051
1002
}
1002
{
1070
     3
1000
-2000042
1002
}
  0
LWPOLYLINE
  5
3F3
330
70
100
AcDbEntity
  8
A-COB-___-___-EXI
100
AcDbPolyline
 90
        6
 70
     0
 43
0.0
 10
-8068.65545708885
 20
-6697.117213832047
 10
-7757.708570742977
 20
-6834.63824448497
 10
-7717.708610837881
 20
-6834.694880073581
 10
-7703.586513094227
 20
-6848.857025225997
 10
-7703.614830888532
 20
-6868.857005178563
 10
-7729.829352299993
 20
-6928.130294298346
1001
REVIT
1002
{
1070
     1
1000
22595282
1002
}
1002
{
1070
     2
1000
-2000051
1002
}
1002
{
1070
     3
1000
-2000042
1002
}
  0
LWPOLYLINE
  5
3F4
330
70
100
AcDbEntity
  8
A-COB-___-___-EXI
100
AcDbPolyline
 90
        6
 70
     0
 43
0.0
 10
-8439.304309764255
 20
-6538.195842616507
 10
-8128.357423418387
 20
-6675.716873269428
 10
-8088.357463513288
 20
-6675.773508858039
 10
-8074.235365769631
 20
-6689.935654010458
 10
-8074.263683563938
 20
-6709.935633963024
 10
-8100.478204975399
 20
-6769.208923082804
1001
REVIT
1002
{
1070
     1
1000
22595276
1002
}
1002
{
1070
     2
1000
-2000051
1002
}
1002
{
1070
     3
1000
-2000042
1002
}
  0
LWPOLYLINE
  5
3F5
330
70
100
AcDbEntity
  8
A-COB-___-___-EXI
100
AcDbPolyline
 90
        6
 70
     0
 43
0.0
 10
-8809.95316243967
 20
-6379.274471400958
 10
-8499.006276093799
 20
-6516.795502053883
 10
-8459.006316188689
 20
-6516.852137642492
 10
-8444.884218445032
 20
-6531.01428279491
 10
-8444.912536239339
 20
-6551.014262747475
 10
-8471.1270576508
 20
-6610.287551867256
1001
REVIT
1002
{
1070
     1
1000
22595270
1002
}
1002
{
1070
     2
1000
-2000051
1002
}
1002
{
1070
     3
1000
-2000042
1002
}
  0
LWPOLYLINE
  5
3F6
330
70
100
AcDbEntity
  8
A-COB-___-___-EXI
100
AcDbPolyline
 90
        6
 70
     0
 43
0.0
 10
-9180.602015115079
 20
-6220.353100185397
 10
-8869.655128769213
 20
-6357.874130838318
 10
-8829.655168864114
 20
-6357.930766426929
 10
-8815.533071120457
 20
-6372.092911579348
 10
-8815.56138891476
 20
-6392.092891531913
 10
-8841.775910326221
 20
-6451.366180651696
1001
REVIT
1002
{
1070
     1
1000
22595264
1002
}
1002
{
1070
     2
1000
-2000051
1002
}
1002
{
1070
     3
1000
-2000042
1002
}
  0
LWPOLYLINE
  5
3F7
330
70
100
AcDbEntity
  8
A-COB-___-___-EXI
100
AcDbPolyline
 90
        6
 70
     0
 43
0.0
 10
-9551.25086779048
 20
-6061.431728969842
 10
-9240.303981444583
 20
-6198.952759622777
 10
-9200.304021539512
 20
-6199.009395211387
 10
-9186.181923795858
 20
-6213.171540363805
 10
-9186.210241590163
 20
-6233.17152031637
 10
-9212.424763001624
 20
-6292.444809436151
1001
REVIT
1002
{
1070
     1
1000
22595258
1002
}
1002
{
1070
     2
1000
-2000051
1002
}
1002
{
1070
     3
1000
-2000042
1002
}
  0
LWPOLYLINE
  5
3F8
330
70
100
AcDbEntity
  8
A-COB-___-___-EXI
100
AcDbPolyline
 90
        6
 70
     0
 43
0.0
 10
-9921.899720465884
 20
-5902.510357754288
 10
-9610.952834120014
 20
-6040.031388407211
 10
-9570.952874214922
 20
-6040.088023995821
 10
-9556.830776471263
 20
-6054.25016914824
 10
-9556.85909426557
 20
-6074.250149100809
 10
-9583.073615677031
 20
-6133.523438220589
1001
REVIT
1002
{
1070
     1
1000
22595252
1002
}
1002
{
1070
     2
1000
-2000051
1002
}
1002
{
1070
     3
1000
-2000042
1002
}
  0
LWPOLYLINE
  5
3F9
330
70
100
AcDbEntity
  8
A-COB-___-___-EXI
100
AcDbPolyline
 90
        6
 70
     0
 43
0.0
 10
-10292.54857314128
 20
-5743.588986538744
 10
-9981.601686795407
 20
-5881.110017191668
 10
-9941.60172689031
 20
-5881.166652780279
 10
-9927.479629146656
 20
-5895.328797932695
 10
-9927.507946940959
 20
-5915.328777885259
 10
-9953.72246835242
 20
-5974.602067005042
1001
REVIT
1002
{
1070
     1
1000
22595246
1002
}
1002
{
1070
     2
1000
-2000051
1002
}
1002
{
1070
     3
1000
-2000042
1002
}
  0
LWPOLYLINE
  5
3FA
330
70
100
AcDbEntity
  8
A-COB-___-___-EXI
100
AcDbPolyline
 90
        6
 70
     0
 43
0.0
 10
-10663.19742581669
 20
-5584.66761532319
 10
-10352.25053947083
 20
-5722.18864597611
 10
-10312.25057956572
 20
-5722.245281564721
 10
-10298.12848182207
 20
-5736.40742671714
 10
-10298.15679961637
 20
-5756.407406669704
 10
-10324.37132102783
 20
-5815.680695789488
1001
REVIT
1002
{
1070
     1
1000
22595240
1002
}
1002
{
1070
     2
1000
-2000051
1002
}
1002
{
1070
     3
1000
-2000042
1002
}
  0
LWPOLYLINE
  5
3FB
330
70
100
AcDbEntity
  8
A-COB-___-___-EXI
100
AcDbPolyline
 90
        6
 70
     0
 43
0.0
 10
-11033.84627849207
 20
-5425.746244107643
 10
-10722.8993921462
 20
-5563.267274760566
 10
-10682.8994322411
 20
-5563.323910349176
 10
-10668.77733449745
 20
-5577.486055501594
 10
-10668.80565229175
 20
-5597.486035454158
 10
-10695.02017370322
 20
-5656.759324573942
1001
REVIT
1002
{
1070
     1
1000
22595234
1002
}
1002
{
1070
     2
1000
-2000051
1002
}
1002
{
1070
     3
1000
-2000042
1002
}
  0
LWPOLYLINE
  5
3FC
330
70
100
AcDbEntity
  8
A-COB-___-___-EXI
100
AcDbPolyline
 90
        6
 70
     0
 43
0.0
 10
-11404.49513116749
 20
-5266.824872892094
 10
-11093.54824482163
 20
-5404.345903545016
 10
-11053.54828491653
 20
-5404.402539133625
 10
-11039.42618717287
 20
-5418.564684286045
 10
-11039.45450496717
 20
-5438.564664238608
 10
-11065.66902637863
 20
-5497.837953358391
1001
REVIT
1002
{
1070
     1
1000
22595228
1002
}
1002
{
1070
     2
1000
-2000051
1002
}
1002
{
1070
     3
1000
-2000042
1002
}
  0
LWPOLYLINE
  5
3FD
330
70
100
AcDbEntity
  8
A-COB-___-___-EXI
100
AcDbPolyline
 90
        6
 70
     0
 43
0.0
 10
-11775.14398384289
 20
-5107.903501676537
 10
-11464.19709749702
 20
-5245.424532329461
 10
-11424.19713759193
 20
-5245.481167918072
 10
-11410.07503984827
 20
-5259.643313070488
 10
-11410.10335764258
 20
-5279.643293023052
 10
-11436.31787905404
 20
-5338.916582142835
1001
REVIT
1002
{
1070
     1
1000
22595222
1002
}
1002
{
1070
     2
1000
-2000051
1002
}
1002
{
1070
     3
1000
-2000042
1002
}
  0
LWPOLYLINE
  5
3FE
330
70
100
AcDbEntity
  8
A-COB-___-___-EXI
100
AcDbPolyline
 90
        6
 70
     0
 43
0.0
 10
-12145.79283651829
 20
-4948.982130460986
 10
-11834.84595017242
 20
-5086.503161113907
 10
-11794.84599026732
 20
-5086.559796702516
 10
-11780.72389252367
 20
-5100.721941854937
 10
-11780.75221031797
 20
-5120.7219218075
 10
-11806.96673172943
 20
-5179.995210927284
1001
REVIT
1002
{
1070
     1
1000
22595216
1002
}
1002
{
1070
     2
1000
-2000051
1002
}
1002
{
1070
     3
1000
-2000042
1002
}
  0
LWPOLYLINE
  5
3FF
330
70
100
AcDbEntity
  8
A-COB-___-___-EXI
100
AcDbPolyline
 90
        6
 70
     0
 43
0.0
 10
-12516.44168919373
 20
-4790.060759245439
 10
-12205.49480284786
 20
-4927.581789898361
 10
-12165.49484294273
 20
-4927.638425486971
 10
-12151.37274519908
 20
-4941.800570639389
 10
-12151.40106299338
 20
-4961.800550591952
 10
-12177.61558440484
 20
-5021.073839711736
1001
REVIT
1002
{
1070
     1
1000
22595210
1002
}
1002
{
1070
     2
1000
-2000051
1002
}
1002
{
1070
     3
1000
-2000042
1002
}
  0
LWPOLYLINE
  5
400
330
70
100
AcDbEntity
  8
A-COB-___-___-EXI
100
AcDbPolyline
 90
        6
 70
     0
 43
0.0
 10
-12887.09054186912
 20
-4631.139388029891
 10
-12576.14365552325
 20
-4768.660418682813
 10
-12536.14369561815
 20
-4768.717054271422
 10
-12522.02159787449
 20
-4782.879199423841
 10
-12522.0499156688
 20
-4802.879179376405
 10
-12548.26443708026
 20
-4862.152468496189
1001
REVIT
1002
{
1070
     1
1000
22595200
1002
}
1002
{
1070
     2
1000
-2000051
1002
}
1002
{
1070
     3
1000
-2000042
1002
}
  0
LWPOLYLINE
  5
401
330
70
100
AcDbEntity
  8
A-COB-___-___-EXI
100
AcDbPolyline
 90
       10
 70
     1
 43
0.0
 10
-23357.95221192959
 20
-8683.731691349237
 10
-23668.89909827544
 20
-8821.252722002151
 10
-23708.89905818056
 20
-8821.309357590761
 10
-23723.02115592422
 20
-8835.471502743184
 10
-23722.99283812992
 20
-8855.471482695746
 10
-23694.20096302091
 20
-8920.57239035109
 10
-23722.99283812992
 20
-8855.471482695746
 10
-23723.02115592422
 20
-8835.471502743184
 10
-23708.89905818056
 20
-8821.309357590761
 10
-23668.89909827544
 20
-8821.252722002151
1001
REVIT
1002
{
1070
     1
1000
22595180
1002
}
1002
{
1070
     2
1000
-2000051
1002
}
1002
{
1070
     3
1000
-2000042
1002
}
  0
LWPOLYLINE
  5
402
330
70
100
AcDbEntity
  8
A-COB-___-___-EXI
100
AcDbPolyline
 90
       10
 70
     1
 43
0.0
 10
-22989.10335925419
 20
-8527.52570474905
 10
-23300.05024560008
 20
-8665.046735401984
 10
-23340.05020550515
 20
-8665.103370990594
 10
-23354.17230324881
 20
-8679.265516143015
 10
-23354.1439854545
 20
-8699.265496095577
 10
-23327.92946404305
 20
-8758.538785215362
 10
-23354.1439854545
 20
-8699.265496095577
 10
-23354.17230324881
 20
-8679.265516143015
 10
-23340.05020550515
 20
-8665.103370990594
 10
-23300.05024560008
 20
-8665.046735401984
1001
REVIT
1002
{
1070
     1
1000
22595174
1002
}
1002
{
1070
     2
1000
-2000051
1002
}
1002
{
1070
     3
1000
-2000042
1002
}
  0
LWPOLYLINE
  5
403
330
70
100
AcDbEntity
  8
A-COB-___-___-EXI
100
AcDbPolyline
 90
       10
 70
     1
 43
0.0
 10
-22620.25450657878
 20
-8371.319718148894
 10
-22931.20139292463
 20
-8508.840748801809
 10
-22971.20135282974
 20
-8508.89738439042
 10
-22985.3234505734
 20
-8523.059529542839
 10
-22985.2951327791
 20
-8543.059509495408
 10
-22959.08061136764
 20
-8602.332798615192
 10
-22985.2951327791
 20
-8543.059509495408
 10
-22985.3234505734
 20
-8523.059529542839
 10
-22971.20135282974
 20
-8508.89738439042
 10
-22931.20139292463
 20
-8508.840748801809
1001
REVIT
1002
{
1070
     1
1000
22595168
1002
}
1002
{
1070
     2
1000
-2000051
1002
}
1002
{
1070
     3
1000
-2000042
1002
}
  0
LWPOLYLINE
  5
404
330
70
100
AcDbEntity
  8
A-COB-___-___-EXI
100
AcDbPolyline
 90
       10
 70
     1
 43
0.0
 10
-22251.40565390335
 20
-8215.113731548719
 10
-22562.3525402492
 20
-8352.634762201635
 10
-22602.35250015432
 20
-8352.691397790243
 10
-22616.47459789798
 20
-8366.853542942669
 10
-22616.44628010367
 20
-8386.853522895224
 10
-22590.23175869221
 20
-8446.126812015009
 10
-22616.44628010367
 20
-8386.853522895224
 10
-22616.47459789798
 20
-8366.853542942669
 10
-22602.35250015432
 20
-8352.691397790243
 10
-22562.3525402492
 20
-8352.634762201635
1001
REVIT
1002
{
1070
     1
1000
22595162
1002
}
1002
{
1070
     2
1000
-2000051
1002
}
1002
{
1070
     3
1000
-2000042
1002
}
  0
LWPOLYLINE
  5
405
330
70
100
AcDbEntity
  8
A-COB-___-___-EXI
100
AcDbPolyline
 90
       10
 70
     1
 43
0.0
 10
-21882.55680122796
 20
-8058.907744948562
 10
-22193.50368757381
 20
-8196.428775601479
 10
-22233.50364747892
 20
-8196.485411190087
 10
-22247.62574522258
 20
-8210.647556342513
 10
-22247.59742742828
 20
-8230.647536295068
 10
-22221.38290601682
 20
-8289.920825414853
 10
-22247.59742742828
 20
-8230.647536295068
 10
-22247.62574522258
 20
-8210.647556342513
 10
-22233.50364747892
 20
-8196.485411190087
 10
-22193.50368757381
 20
-8196.428775601479
1001
REVIT
1002
{
1070
     1
1000
22595156
1002
}
1002
{
1070
     2
1000
-2000051
1002
}
1002
{
1070
     3
1000
-2000042
1002
}
  0
LWPOLYLINE
  5
406
330
70
100
AcDbEntity
  8
A-COB-___-___-EXI
100
AcDbPolyline
 90
       10
 70
     1
 43
0.0
 10
-21513.70794855257
 20
-7902.701758348406
 10
-21824.65483489842
 20
-8040.222789001322
 10
-21864.65479480353
 20
-8040.279424589931
 10
-21878.77689254719
 20
-8054.441569742351
 10
-21878.74857475288
 20
-8074.441549694913
 10
-21852.53405334143
 20
-8133.714838814695
 10
-21878.74857475288
 20
-8074.441549694913
 10
-21878.77689254719
 20
-8054.441569742351
 10
-21864.65479480353
 20
-8040.279424589931
 10
-21824.65483489842
 20
-8040.222789001322
1001
REVIT
1002
{
1070
     1
1000
22595150
1002
}
1002
{
1070
     2
1000
-2000051
1002
}
1002
{
1070
     3
1000
-2000042
1002
}
  0
LWPOLYLINE
  5
407
330
70
100
AcDbEntity
  8
A-COB-___-___-EXI
100
AcDbPolyline
 90
       10
 70
     1
 43
0.0
 10
-21144.85909587718
 20
-7746.495771748256
 10
-21455.80598222303
 20
-7884.016802401172
 10
-21495.80594212815
 20
-7884.073437989781
 10
-21509.9280398718
 20
-7898.235583142199
 10
-21509.8997220775
 20
-7918.235563094761
 10
-21483.68520066604
 20
-7977.508852214545
 10
-21509.8997220775
 20
-7918.235563094761
 10
-21509.9280398718
 20
-7898.235583142199
 10
-21495.80594212815
 20
-7884.073437989781
 10
-21455.80598222303
 20
-7884.016802401172
1001
REVIT
1002
{
1070
     1
1000
22595144
1002
}
1002
{
1070
     2
1000
-2000051
1002
}
1002
{
1070
     3
1000
-2000042
1002
}
  0
LWPOLYLINE
  5
408
330
70
100
AcDbEntity
  8
A-COB-___-___-EXI
100
AcDbPolyline
 90
       10
 70
     1
 43
0.0
 10
-20776.01024320181
 20
-7590.289785148072
 10
-21086.95712954766
 20
-7727.810815800989
 10
-21126.95708945278
 20
-7727.867451389598
 10
-21141.07918719643
 20
-7742.029596542018
 10
-21141.05086940213
 20
-7762.02957649458
 10
-21114.83634799067
 20
-7821.302865614362
 10
-21141.05086940213
 20
-7762.02957649458
 10
-21141.07918719643
 20
-7742.029596542018
 10
-21126.95708945278
 20
-7727.867451389598
 10
-21086.95712954766
 20
-7727.810815800989
1001
REVIT
1002
{
1070
     1
1000
22595138
1002
}
1002
{
1070
     2
1000
-2000051
1002
}
1002
{
1070
     3
1000
-2000042
1002
}
  0
LWPOLYLINE
  5
409
330
70
100
AcDbEntity
  8
A-COB-___-___-EXI
100
AcDbPolyline
 90
       10
 70
     1
 43
0.0
 10
-20407.16139052638
 20
-7434.083798547923
 10
-20718.10827687223
 20
-7571.604829200838
 10
-20758.10823677734
 20
-7571.661464789447
 10
-20772.230334521
 20
-7585.82360994187
 10
-20772.2020167267
 20
-7605.823589894427
 10
-20745.98749531524
 20
-7665.096879014211
 10
-20772.2020167267
 20
-7605.823589894427
 10
-20772.230334521
 20
-7585.82360994187
 10
-20758.10823677734
 20
-7571.661464789447
 10
-20718.10827687223
 20
-7571.604829200838
1001
REVIT
1002
{
1070
     1
1000
22595132
1002
}
1002
{
1070
     2
1000
-2000051
1002
}
1002
{
1070
     3
1000
-2000042
1002
}
  0
LWPOLYLINE
  5
40A
330
70
100
AcDbEntity
  8
A-COB-___-___-EXI
100
AcDbPolyline
 90
       10
 70
     1
 43
0.0
 10
-20038.31253785094
 20
-7277.877811947758
 10
-20349.25942419679
 20
-7415.398842600673
 10
-20389.25938410191
 20
-7415.455478189283
 10
-20403.38148184556
 20
-7429.617623341702
 10
-20403.35316405126
 20
-7449.617603294263
 10
-20377.1386426398
 20
-7508.890892414047
 10
-20403.35316405126
 20
-7449.617603294263
 10
-20403.38148184556
 20
-7429.617623341702
 10
-20389.25938410191
 20
-7415.455478189283
 10
-20349.25942419679
 20
-7415.398842600673
1001
REVIT
1002
{
1070
     1
1000
22595126
1002
}
1002
{
1070
     2
1000
-2000051
1002
}
1002
{
1070
     3
1000
-2000042
1002
}
  0
LWPOLYLINE
  5
40B
330
70
100
AcDbEntity
  8
A-COB-___-___-EXI
100
AcDbPolyline
 90
       10
 70
     1
 43
0.0
 10
-19669.46368517555
 20
-7121.671825347596
 10
-19980.41057152139
 20
-7259.19285600051
 10
-20020.41053142651
 20
-7259.249491589121
 10
-20034.53262917017
 20
-7273.411636741539
 10
-20034.50431137586
 20
-7293.4116166941
 10
-20008.28978996441
 20
-7352.684905813885
 10
-20034.50431137586
 20
-7293.4116166941
 10
-20034.53262917017
 20
-7273.411636741539
 10
-20020.41053142651
 20
-7259.249491589121
 10
-19980.41057152139
 20
-7259.19285600051
1001
REVIT
1002
{
1070
     1
1000
22595120
1002
}
1002
{
1070
     2
1000
-2000051
1002
}
1002
{
1070
     3
1000
-2000042
1002
}
  0
LWPOLYLINE
  5
40C
330
70
100
AcDbEntity
  8
A-COB-___-___-EXI
100
AcDbPolyline
 90
       10
 70
     1
 43
0.0
 10
-19300.61483250015
 20
-6965.465838747431
 10
-19611.56171884601
 20
-7102.986869400345
 10
-19651.56167875112
 20
-7103.043504988956
 10
-19665.68377649478
 20
-7117.205650141379
 10
-19665.65545870048
 20
-7137.205630093936
 10
-19639.44093728902
 20
-7196.478919213721
 10
-19665.65545870048
 20
-7137.205630093936
 10
-19665.68377649478
 20
-7117.205650141379
 10
-19651.56167875112
 20
-7103.043504988956
 10
-19611.56171884601
 20
-7102.986869400345
1001
REVIT
1002
{
1070
     1
1000
22595114
1002
}
1002
{
1070
     2
1000
-2000051
1002
}
1002
{
1070
     3
1000
-2000042
1002
}
  0
LWPOLYLINE
  5
40D
330
70
100
AcDbEntity
  8
A-COB-___-___-EXI
100
AcDbPolyline
 90
       10
 70
     1
 43
0.0
 10
-18931.76597982477
 20
-6809.259852147279
 10
-19242.71286617063
 20
-6946.780882800195
 10
-19282.71282607574
 20
-6946.837518388804
 10
-19296.8349238194
 20
-6960.999663541226
 10
-19296.8066060251
 20
-6980.999643493785
 10
-19270.59208461363
 20
-7040.272932613568
 10
-19296.8066060251
 20
-6980.999643493785
 10
-19296.8349238194
 20
-6960.999663541226
 10
-19282.71282607574
 20
-6946.837518388804
 10
-19242.71286617063
 20
-6946.780882800195
1001
REVIT
1002
{
1070
     1
1000
22595108
1002
}
1002
{
1070
     2
1000
-2000051
1002
}
1002
{
1070
     3
1000
-2000042
1002
}
  0
LWPOLYLINE
  5
40E
330
70
100
AcDbEntity
  8
A-COB-___-___-EXI
100
AcDbPolyline
 90
       10
 70
     1
 43
0.0
 10
-18562.91712714937
 20
-6653.053865547119
 10
-18873.86401349522
 20
-6790.574896200033
 10
-18913.86397340035
 20
-6790.631531788644
 10
-18927.986071144
 20
-6804.793676941065
 10
-18927.9577533497
 20
-6824.793656893624
 10
-18901.74323193824
 20
-6884.066946013408
 10
-18927.9577533497
 20
-6824.793656893624
 10
-18927.986071144
 20
-6804.793676941065
 10
-18913.86397340035
 20
-6790.631531788644
 10
-18873.86401349522
 20
-6790.574896200033
1001
REVIT
1002
{
1070
     1
1000
22595102
1002
}
1002
{
1070
     2
1000
-2000051
1002
}
1002
{
1070
     3
1000
-2000042
1002
}
  0
LWPOLYLINE
  5
40F
330
70
100
AcDbEntity
  8
A-COB-___-___-EXI
100
AcDbPolyline
 90
       10
 70
     1
 43
0.0
 10
-18194.06827447396
 20
-6496.847878946957
 10
-18505.01516081981
 20
-6634.368909599871
 10
-18545.01512072492
 20
-6634.425545188481
 10
-18559.13721846858
 20
-6648.5876903409
 10
-18559.10890067428
 20
-6668.587670293462
 10
-18532.89437926281
 20
-6727.860959413246
 10
-18559.10890067428
 20
-6668.587670293462
 10
-18559.13721846858
 20
-6648.5876903409
 10
-18545.01512072492
 20
-6634.425545188481
 10
-18505.01516081981
 20
-6634.368909599871
1001
REVIT
1002
{
1070
     1
1000
22595096
1002
}
1002
{
1070
     2
1000
-2000051
1002
}
1002
{
1070
     3
1000
-2000042
1002
}
  0
LWPOLYLINE
  5
410
330
70
100
AcDbEntity
  8
A-COB-___-___-EXI
100
AcDbPolyline
 90
       10
 70
     1
 43
0.0
 10
-17825.21942179857
 20
-6340.641892346781
 10
-18136.16630814443
 20
-6478.162922999699
 10
-18176.16626804953
 20
-6478.21955858831
 10
-18190.28836579319
 20
-6492.381703740732
 10
-18190.26004799889
 20
-6512.381683693291
 10
-18164.04552658743
 20
-6571.654972813075
 10
-18190.26004799889
 20
-6512.381683693291
 10
-18190.28836579319
 20
-6492.381703740732
 10
-18176.16626804953
 20
-6478.21955858831
 10
-18136.16630814443
 20
-6478.162922999699
1001
REVIT
1002
{
1070
     1
1000
22595090
1002
}
1002
{
1070
     2
1000
-2000051
1002
}
1002
{
1070
     3
1000
-2000042
1002
}
  0
LWPOLYLINE
  5
411
330
70
100
AcDbEntity
  8
A-COB-___-___-EXI
100
AcDbPolyline
 90
       10
 70
     1
 43
0.0
 10
-17456.37056912318
 20
-6184.43590574663
 10
-17767.31745546903
 20
-6321.956936399548
 10
-17807.31741537414
 20
-6322.013571988158
 10
-17821.4395131178
 20
-6336.175717140579
 10
-17821.4111953235
 20
-6356.175697093142
 10
-17795.19667391204
 20
-6415.448986212926
 10
-17821.4111953235
 20
-6356.175697093142
 10
-17821.4395131178
 20
-6336.175717140579
 10
-17807.31741537414
 20
-6322.013571988158
 10
-17767.31745546903
 20
-6321.956936399548
1001
REVIT
1002
{
1070
     1
1000
22595084
1002
}
1002
{
1070
     2
1000
-2000051
1002
}
1002
{
1070
     3
1000
-2000042
1002
}
  0
LWPOLYLINE
  5
412
330
70
100
AcDbEntity
  8
A-COB-___-___-EXI
100
AcDbPolyline
 90
       10
 70
     1
 43
0.0
 10
-17087.52171644775
 20
-6028.229919146445
 10
-17398.46860279364
 20
-6165.750949799378
 10
-17438.46856269874
 20
-6165.807585387988
 10
-17452.5906604424
 20
-6179.96973054041
 10
-17452.56234264809
 20
-6199.969710492969
 10
-17426.34782123663
 20
-6259.242999612752
 10
-17452.56234264809
 20
-6199.969710492969
 10
-17452.5906604424
 20
-6179.96973054041
 10
-17438.46856269874
 20
-6165.807585387988
 10
-17398.46860279364
 20
-6165.750949799378
1001
REVIT
1002
{
1070
     1
1000
22595078
1002
}
1002
{
1070
     2
1000
-2000051
1002
}
1002
{
1070
     3
1000
-2000042
1002
}
  0
LWPOLYLINE
  5
413
330
70
100
AcDbEntity
  8
A-COB-___-___-EXI
100
AcDbPolyline
 90
       10
 70
     1
 43
0.0
 10
-16718.67286377234
 20
-5872.023932546277
 10
-17029.61975011819
 20
-6009.544963199192
 10
-17069.61971002332
 20
-6009.601598787801
 10
-17083.74180776699
 20
-6023.763743940229
 10
-17083.71348997268
 20
-6043.763723892782
 10
-17057.49896856122
 20
-6103.037013012566
 10
-17083.71348997268
 20
-6043.763723892782
 10
-17083.74180776699
 20
-6023.763743940229
 10
-17069.61971002332
 20
-6009.601598787801
 10
-17029.61975011819
 20
-6009.544963199192
1001
REVIT
1002
{
1070
     1
1000
22595072
1002
}
1002
{
1070
     2
1000
-2000051
1002
}
1002
{
1070
     3
1000
-2000042
1002
}
  0
LWPOLYLINE
  5
414
330
70
100
AcDbEntity
  8
A-COB-___-___-EXI
100
AcDbPolyline
 90
       10
 70
     1
 43
0.0
 10
-16349.82401109692
 20
-5715.817945946114
 10
-16660.77089744277
 20
-5853.33897659903
 10
-16700.77085734789
 20
-5853.39561218764
 10
-16714.89295509154
 20
-5867.557757340058
 10
-16714.86463729724
 20
-5887.55773729262
 10
-16688.65011588578
 20
-5946.831026412404
 10
-16714.86463729724
 20
-5887.55773729262
 10
-16714.89295509154
 20
-5867.557757340058
 10
-16700.77085734789
 20
-5853.39561218764
 10
-16660.77089744277
 20
-5853.33897659903
1001
REVIT
1002
{
1070
     1
1000
22595066
1002
}
1002
{
1070
     2
1000
-2000051
1002
}
1002
{
1070
     3
1000
-2000042
1002
}
  0
LWPOLYLINE
  5
415
330
70
100
AcDbEntity
  8
A-COB-___-___-EXI
100
AcDbPolyline
 90
       10
 70
     1
 43
0.0
 10
-15980.97515842151
 20
-5559.611959345965
 10
-16291.92204476736
 20
-5697.13298999888
 10
-16331.92200467247
 20
-5697.18962558749
 10
-16346.04410241613
 20
-5711.351770739912
 10
-16346.01578462183
 20
-5731.351750692471
 10
-16319.80126321037
 20
-5790.625039812255
 10
-16346.01578462183
 20
-5731.351750692471
 10
-16346.04410241613
 20
-5711.351770739912
 10
-16331.92200467247
 20
-5697.18962558749
 10
-16291.92204476736
 20
-5697.13298999888
1001
REVIT
1002
{
1070
     1
1000
22595060
1002
}
1002
{
1070
     2
1000
-2000051
1002
}
1002
{
1070
     3
1000
-2000042
1002
}
  0
LWPOLYLINE
  5
416
330
70
100
AcDbEntity
  8
A-COB-___-___-EXI
100
AcDbPolyline
 90
       10
 70
     1
 43
0.0
 10
-15612.12630574614
 20
-5403.405972745798
 10
-15923.07319209199
 20
-5540.927003398714
 10
-15963.0731519971
 20
-5540.983638987324
 10
-15977.19524974076
 20
-5555.145784139745
 10
-15977.16693194646
 20
-5575.145764092304
 10
-15950.952410535
 20
-5634.419053212088
 10
-15977.16693194646
 20
-5575.145764092304
 10
-15977.19524974076
 20
-5555.145784139745
 10
-15963.0731519971
 20
-5540.983638987324
 10
-15923.07319209199
 20
-5540.927003398714
1001
REVIT
1002
{
1070
     1
1000
22595054
1002
}
1002
{
1070
     2
1000
-2000051
1002
}
1002
{
1070
     3
1000
-2000042
1002
}
  0
LWPOLYLINE
  5
417
330
70
100
AcDbEntity
  8
A-COB-___-___-EXI
100
AcDbPolyline
 90
       10
 70
     1
 43
0.0
 10
-15243.27745307073
 20
-5247.199986145641
 10
-15554.22433941658
 20
-5384.721016798555
 10
-15594.22429932169
 20
-5384.777652387165
 10
-15608.34639706535
 20
-5398.939797539586
 10
-15608.31807927105
 20
-5418.939777492145
 10
-15582.10355785959
 20
-5478.21306661193
 10
-15608.31807927105
 20
-5418.939777492145
 10
-15608.34639706535
 20
-5398.939797539586
 10
-15594.22429932169
 20
-5384.777652387165
 10
-15554.22433941658
 20
-5384.721016798555
1001
REVIT
1002
{
1070
     1
1000
22595048
1002
}
1002
{
1070
     2
1000
-2000051
1002
}
1002
{
1070
     3
1000
-2000042
1002
}
  0
LWPOLYLINE
  5
418
330
70
100
AcDbEntity
  8
A-COB-___-___-EXI
100
AcDbPolyline
 90
       10
 70
     1
 43
0.0
 10
-14874.42860039532
 20
-5090.993999545473
 10
-15185.37548674117
 20
-5228.515030198389
 10
-15225.37544664628
 20
-5228.571665786999
 10
-15239.49754438994
 20
-5242.733810939418
 10
-15239.46922659564
 20
-5262.733790891979
 10
-15213.25470518418
 20
-5322.007080011763
 10
-15239.46922659564
 20
-5262.733790891979
 10
-15239.49754438994
 20
-5242.733810939418
 10
-15225.37544664628
 20
-5228.571665786999
 10
-15185.37548674117
 20
-5228.515030198389
1001
REVIT
1002
{
1070
     1
1000
22595042
1002
}
1002
{
1070
     2
1000
-2000051
1002
}
1002
{
1070
     3
1000
-2000042
1002
}
  0
LWPOLYLINE
  5
419
330
70
100
AcDbEntity
  8
A-COB-___-___-EXI
100
AcDbPolyline
 90
       10
 70
     1
 43
0.0
 10
-14505.57974771992
 20
-4934.788012945315
 10
-14816.52663406577
 20
-5072.309043598229
 10
-14856.5265939709
 20
-5072.36567918684
 10
-14870.64869171456
 20
-5086.527824339259
 10
-14870.62037392025
 20
-5106.52780429182
 10
-14844.40585250879
 20
-5165.801093411603
 10
-14870.62037392025
 20
-5106.52780429182
 10
-14870.64869171456
 20
-5086.527824339259
 10
-14856.5265939709
 20
-5072.36567918684
 10
-14816.52663406577
 20
-5072.309043598229
1001
REVIT
1002
{
1070
     1
1000
22595036
1002
}
1002
{
1070
     2
1000
-2000051
1002
}
1002
{
1070
     3
1000
-2000042
1002
}
  0
LWPOLYLINE
  5
41A
330
70
100
AcDbEntity
  8
A-COB-___-___-EXI
100
AcDbPolyline
 90
       10
 70
     1
 43
0.0
 10
-14136.73089504451
 20
-4778.582026345157
 10
-14447.67778139037
 20
-4916.103056998072
 10
-14487.67774129548
 20
-4916.159692586682
 10
-14501.79983903914
 20
-4930.321837739101
 10
-14501.77152124483
 20
-4950.321817691666
 10
-14475.55699983337
 20
-5009.595106811449
 10
-14501.77152124483
 20
-4950.321817691666
 10
-14501.79983903914
 20
-4930.321837739101
 10
-14487.67774129548
 20
-4916.159692586682
 10
-14447.67778139037
 20
-4916.103056998072
1001
REVIT
1002
{
1070
     1
1000
22595030
1002
}
1002
{
1070
     2
1000
-2000051
1002
}
1002
{
1070
     3
1000
-2000042
1002
}
  0
LWPOLYLINE
  5
41B
330
70
100
AcDbEntity
  8
A-COB-___-___-EXI
100
AcDbPolyline
 90
       10
 70
     1
 43
0.0
 10
-13767.88204236913
 20
-4622.376039744995
 10
-14078.82892871498
 20
-4759.897070397911
 10
-14118.82888862009
 20
-4759.953705986521
 10
-14132.95098636375
 20
-4774.115851138942
 10
-14132.92266856945
 20
-4794.115831091501
 10
-14106.70814715799
 20
-4853.389120211286
 10
-14132.92266856945
 20
-4794.115831091501
 10
-14132.95098636375
 20
-4774.115851138942
 10
-14118.82888862009
 20
-4759.953705986521
 10
-14078.82892871498
 20
-4759.897070397911
1001
REVIT
1002
{
1070
     1
1000
22595020
1002
}
1002
{
1070
     2
1000
-2000051
1002
}
1002
{
1070
     3
1000
-2000042
1002
}
  0
LWPOLYLINE
  5
41C
330
70
100
AcDbEntity
  8
A-COB-___-___-EXI
100
AcDbPolyline
 90
        6
 70
     0
 43
0.0
 10
-13257.73939454452
 20
-4472.218016814339
 10
-12946.79250819865
 20
-4609.739047467261
 10
-12906.79254829355
 20
-4609.795683055871
 10
-12892.6704505499
 20
-4623.957828208289
 10
-12892.6987683442
 20
-4643.957808160854
 10
-12918.91328975566
 20
-4703.231097280637
1001
REVIT
1002
{
1070
     1
1000
22595008
1002
}
1002
{
1070
     2
1000
-2000051
1002
}
1002
{
1070
     3
1000
-2000042
1002
}
  0
LWPOLYLINE
  5
41D
330
70
100
AcDbEntity
  8
A-POR-___-___-EXI
100
AcDbPolyline
 90
        4
 70
     1
 43
0.0
 10
-18822.24519122355
 20
-8756.918045438469
 10
-18822.24519122355
 20
-10696.91804543846
 10
-17714.33956395867
 20
-10696.91804543846
 10
-17714.33956395867
 20
-8756.918045438469
1001
REVIT
1002
{
1070
     1
1000
22594582
1002
}
1002
{
1070
     2
1000
-2000051
1002
}
1002
{
1070
     3
1000
-2000042
1002
}
  0
LWPOLYLINE
  5
41E
330
70
100
AcDbEntity
  8
A-POR-___-___-EXI
100
AcDbPolyline
 90
        4
 70
     1
 43
0.0
 10
-18702.24519122355
 20
-8866.483602774767
 10
-18702.24519122355
 20
-10696.91804543846
 10
-17834.33956395867
 20
-10696.91804543846
 10
-17834.33956395867
 20
-8866.483602774767
1001
REVIT
1002
{
1070
     1
1000
22594578
1002
}
1002
{
1070
     2
1000
-2000051
1002
}
1002
{
1070
     3
1000
-2000042
1002
}
  0
LWPOLYLINE
  5
41F
330
70
100
AcDbEntity
  8
A-POR-___-___-EXI
100
AcDbPolyline
 90
        4
 70
     1
 43
0.0
 10
-15137.24519122356
 20
-8756.91804543848
 10
-15137.24519122356
 20
-10696.91804543847
 10
-14029.33956395867
 20
-10696.91804543847
 10
-14029.33956395867
 20
-8756.91804543848
1001
REVIT
1002
{
1070
     1
1000
22594573
1002
}
1002
{
1070
     2
1000
-2000051
1002
}
1002
{
1070
     3
1000
-2000042
1002
}
  0
LWPOLYLINE
  5
420
330
70
100
AcDbEntity
  8
A-POR-___-___-EXI
100
AcDbPolyline
 90
        4
 70
     1
 43
0.0
 10
-15017.24519122356
 20
-8866.483602774776
 10
-15017.24519122356
 20
-10696.91804543847
 10
-14149.33956395867
 20
-10696.91804543847
 10
-14149.33956395867
 20
-8866.483602774776
1001
REVIT
1002
{
1070
     1
1000
22594569
1002
}
1002
{
1070
     2
1000
-2000051
1002
}
1002
{
1070
     3
1000
-2000042
1002
}
  0
LWPOLYLINE
  5
421
330
70
100
AcDbEntity
  8
A-POR-___-___-EXI
100
AcDbPolyline
 90
        4
 70
     1
 43
0.0
 10
-13142.24519122355
 20
-8756.918045438487
 10
-13142.24519122355
 20
-10696.91804543848
 10
-12034.33956395867
 20
-10696.91804543848
 10
-12034.33956395867
 20
-8756.918045438487
1001
REVIT
1002
{
1070
     1
1000
22594485
1002
}
1002
{
1070
     2
1000
-2000051
1002
}
1002
{
1070
     3
1000
-2000042
1002
}
  0
LWPOLYLINE
  5
422
330
70
100
AcDbEntity
  8
A-POR-___-___-EXI
100
AcDbPolyline
 90
        4
 70
     1
 43
0.0
 10
-13022.24519122355
 20
-8866.483602774783
 10
-13022.24519122355
 20
-10696.91804543848
 10
-12154.33956395867
 20
-10696.91804543848
 10
-12154.33956395867
 20
-8866.483602774783
1001
REVIT
1002
{
1070
     1
1000
22594481
1002
}
1002
{
1070
     2
1000
-2000051
1002
}
1002
{
1070
     3
1000
-2000042
1002
}
  0
LWPOLYLINE
  5
423
330
70
100
AcDbEntity
  8
A-COB-___-___-EXI
100
AcDbPolyline
 90
        3
 70
     0
 43
0.0
 10
-3762.801117709647
 20
-8731.857277738326
 10
-3715.324802291777
 20
-8752.212732248128
 10
-3715.324802291777
 20
-8649.35060235428
1001
REVIT
1002
{
1070
     1
1000
22594488
1002
}
1002
{
1070
     5
1000
383807
1002
}
1002
{
1070
     2
1000
-2000051
1002
}
1002
{
1070
     3
1000
-2000042
1002
}
  0
LWPOLYLINE
  5
424
330
70
100
AcDbEntity
  8
A-BAS-___-___-EXI
100
AcDbPolyline
 90
       19
 70
     0
 43
0.0
 10
-1757.926809732395
 20
-11356.18410030591
 10
-1757.926809732395
 20
-11120.34522091557
 10
-2077.926809732392
 20
-11120.34522091557
 10
-2077.926809732392
 20
-10916.09219833926
 10
-2666.506037855443
 20
-10916.09219833926
 10
-2666.506037855443
 20
-10696.91804543851
 10
-6288.694420815145
 20
-10696.9180454385
 10
-18228.69442081514
 20
-10696.91804543846
 10
-18428.69442081514
 20
-10696.91804543846
 10
-24695.37120796433
 20
-10696.91804543844
 10
-24695.37120796433
 20
-11596.91804543851
 10
-4098.020174159355
 20
-11596.91804543851
 10
-794.1708199876373
 20
-11596.91804543852
 10
-794.1708199876373
 20
-11356.18410030592
 10
-1757.926809732395
 20
-11356.18410030591
 10
-1757.926809732393
 20
-11120.34522091557
 10
-2077.926809732394
 20
-11120.34522091557
 10
-2077.926809732392
 20
-10916.09219833926
 10
-2417.926809732393
 20
-10916.09219833926
1001
REVIT
1002
{
1070
     1
1000
22594456
1002
}
1002
{
1070
     5
1000
383807
1002
}
1002
{
1070
     2
1000
-2000051
1002
}
1002
{
1070
     3
1000
-2000042
1002
}
  0
LWPOLYLINE
  5
426
330
70
100
AcDbEntity
  8
A-ALV-___-___-EXI
100
AcDbPolyline
 90
        4
 70
     0
 43
0.0
 10
-13400.87743369956
 20
-10696.91804543847
 10
-13400.87743369956
 20
-5374.506297775861
 10
-13541.0155739856
 20
-5374.506297775861
 10
-13541.0155739856
 20
-10696.91804543847
1001
REVIT
1002
{
1070
     1
1000
22594446
1002
}
1002
{
1070
     5
1000
383807
1002
}
1002
{
1070
     2
1000
-2000051
1002
}
1002
{
1070
     3
1000
-2000042
1002
}
  0
LWPOLYLINE
  5
427
330
70
100
AcDbEntity
  8
A-COB-___-___-EXI
100
AcDbPolyline
 90
        7
 70
     0
 43
0.0
 10
-6072.35502230233
 20
-8519.946453078551
 10
-6173.485631278573
 20
-8519.946453078551
 10
-6173.485631278573
 20
-8409.98432938176
 10
-6072.35502230233
 20
-8409.98432938176
 10
-6072.35502230233
 20
-8519.946453078548
 10
-5850.669586752552
 20
-8519.946453078551
 10
-5850.669586752552
 20
-7836.684363202508
1001
REVIT
1002
{
1070
     1
1000
22594446
1002
}
1002
{
1070
     5
1000
383807
1002
}
1002
{
1070
     2
1000
-2000051
1002
}
1002
{
1070
     3
1000
-2000042
1002
}
  0
LWPOLYLINE
  5
428
330
70
100
AcDbEntity
  8
A-ESC-___-___-EXI
100
AcDbPolyline
 90
        5
 70
     0
 43
0.0
 10
-11610.08758659289
 20
-7859.328881452286
 10
-10957.22013376025
 20
-8637.386013853417
 10
-10957.22013376025
 20
-10297.38601385342
 10
-11077.22013376025
 20
-10297.38601385342
 10
-11077.22013376025
 20
-8494.37558274211
1001
REVIT
1002
{
1070
     1
1000
22594782
1002
}
1002
{
1070
     2
1000
-2000051
1002
}
1002
{
1070
     3
1000
-2000042
1002
}
  0
LWPOLYLINE
  5
429
330
70
100
AcDbEntity
  8
A-PIL-___-___-EXI
100
AcDbPolyline
 90
        4
 70
     1
 43
0.0
 10
-3882.801117709652
 20
-8811.857277738324
 10
-3882.801117709652
 20
-10696.91804543851
 10
-3762.801117709647
 20
-10696.91804543851
 10
-3762.801117709647
 20
-8811.857277738324
1001
REVIT
1002
{
1070
     1
1000
22594691
1002
}
1002
{
1070
     2
1000
-2000051
1002
}
1002
{
1070
     3
1000
-2000042
1002
}
  0
LWPOLYLINE
  5
42A
330
70
100
AcDbEntity
  8
A-COB-___-___-EXI
100
AcDbPolyline
 90
        8
 70
     1
 43
0.0
 10
-23726.801064605
 20
-8839.937677949407
 10
-24037.74795095085
 20
-8977.458708602322
 10
-24077.74791085597
 20
-8977.515344190932
 10
-24091.87000859962
 20
-8991.677489343352
 10
-24091.84169080532
 20
-9011.677469295916
 10
-24091.87000859962
 20
-8991.677489343352
 10
-24077.74791085597
 20
-8977.515344190932
 10
-24037.74795095085
 20
-8977.458708602322
1001
REVIT
1002
{
1070
     1
1000
22595186
1002
}
1002
{
1070
     2
1000
-2000051
1002
}
1002
{
1070
     3
1000
-2000042
1002
}
  0
LWPOLYLINE
  5
42B
330
70
100
AcDbEntity
  8
A-COB-___-___-EXI
100
AcDbPolyline
 90
        4
 70
     1
 43
0.0
 10
-20661.41460340542
 20
-8886.483602774765
 10
-20661.41460340542
 20
-8781.915090609929
 10
-20772.96685341277
 20
-8781.915090609929
 10
-20772.96685341277
 20
-8886.483602774765
1001
REVIT
1002
{
1070
     1
1000
22594488
1002
}
1002
{
1070
     5
1000
383807
1002
}
1002
{
1070
     2
1000
-2000051
1002
}
1002
{
1070
     3
1000
-2000042
1002
}
  0
LWPOLYLINE
  5
42C
330
70
100
AcDbEntity
  8
A-COB-___-___-EXI
100
AcDbPolyline
 90
       11
 70
     0
 43
0.0
 10
-18789.16420026301
 20
-7076.918045438464
 10
-18789.16420026301
 20
-6955.14759459435
 10
-17109.16420026301
 20
-6242.029903362215
 10
-17109.16420026301
 20
-6316.918045438471
 10
-16952.83884517386
 20
-6316.918045438471
 10
-16952.83884517386
 20
-6175.673726991877
 10
-15214.03927380299
 20
-5437.597098508888
 10
-15214.03927380299
 20
-5486.633959001835
 10
-15093.55958100004
 20
-5486.633959001835
 10
-15093.55958100004
 20
-5386.456503049364
 10
-13400.87743369956
 20
-4667.955559672712
1001
REVIT
1002
{
1070
     1
1000
22594488
1002
}
1002
{
1070
     5
1000
383807
1002
}
1002
{
1070
     2
1000
-2000051
1002
}
1002
{
1070
     3
1000
-2000042
1002
}
  0
LWPOLYLINE
  5
42D
330
70
100
AcDbEntity
  8
A-COB-___-___-EXI
100
AcDbPolyline
 90
       12
 70
     0
 43
0.0
 10
-23755.92225076012
 20
-9063.411305236629
 10
-23480.92225076011
 20
-8946.680730778988
 10
-23480.92225076011
 20
-9029.558356697938
 10
-23361.74128936778
 20
-9029.558356697938
 10
-23361.74128936778
 20
-8896.091414096288
 10
-20927.96685341275
 20
-7863.015457698648
 10
-20927.96685341275
 20
-7824.310243494996
 10
-20811.08895368143
 20
-7824.310243494996
 10
-20811.08895368143
 20
-7765.829468193775
 10
-20681.41460340542
 20
-7765.829468193775
 10
-20681.41460340542
 20
-7874.310243494996
 10
-20541.41460340543
 20
-7874.310243494996
1001
REVIT
1002
{
1070
     1
1000
22594488
1002
}
1002
{
1070
     5
1000
383807
1002
}
1002
{
1070
     2
1000
-2000051
1002
}
1002
{
1070
     3
1000
-2000042
1002
}
  0
LWPOLYLINE
  5
42E
330
70
100
AcDbEntity
  8
A-COB-___-___-EXI
100
AcDbPolyline
 90
        4
 70
     0
 43
0.0
 10
-6383.907272309666
 20
-7777.422036794615
 10
-6383.907272309666
 20
-8519.946453078551
 10
-6173.907272309666
 20
-8519.946453078551
 10
-6173.907272309666
 20
-8409.98432938176
1001
REVIT
1002
{
1070
     1
1000
22594446
1002
}
1002
{
1070
     5
1000
383807
1002
}
1002
{
1070
     2
1000
-2000051
1002
}
1002
{
1070
     3
1000
-2000042
1002
}
  0
LWPOLYLINE
  5
42F
330
70
100
AcDbEntity
  8
A-ALV-___-___-EXI
100
AcDbPolyline
 90
        3
 70
     0
 43
0.0
 10
-20927.96685341275
 20
-7863.015457698648
 10
-20927.96685341275
 20
-8886.483602774765
 10
-20772.96685341277
 20
-8886.483602774765
1001
REVIT
1002
{
1070
     1
1000
22594446
1002
}
1002
{
1070
     5
1000
383807
1002
}
1002
{
1070
     2
1000
-2000051
1002
}
1002
{
1070
     3
1000
-2000042
1002
}
  0
LINE
  5
443
330
70
100
AcDbEntity
  8
A-POR-___-___-EXI
100
AcDbLine
 10
-20661.41460340543
 20
-10696.91804543846
 30
0.0
 11
-20661.41460340542
 21
-8886.483602774765
 31
0.0
1001
REVIT
1002
{
1070
     1
1000
22594446
1002
}
1002
{
1070
     5
1000
383807
1002
}
1002
{
1070
     2
1000
-2000051
1002
}
1002
{
1070
     3
1000
-2000042
1002
}
  0
LINE
  5
444
330
70
100
AcDbEntity
  8
A-ALV-___-___-EXI
100
AcDbLine
 10
-20661.41460340542
 20
-8886.483602774765
 30
0.0
 11
-20541.41460340543
 21
-8886.483602774765
 31
0.0
1001
REVIT
1002
{
1070
     1
1000
22594446
1002
}
1002
{
1070
     5
1000
383807
1002
}
1002
{
1070
     2
1000
-2000051
1002
}
1002
{
1070
     3
1000
-2000042
1002
}
  0
LINE
  5
445
330
70
100
AcDbEntity
  8
A-ALV-___-___-EXI
100
AcDbLine
 10
-20541.41460340543
 20
-8886.483602774765
 30
0.0
 11
-20541.41460340543
 21
-7874.310243494996
 31
0.0
1001
REVIT
1002
{
1070
     1
1000
22594446
1002
}
1002
{
1070
     5
1000
383807
1002
}
1002
{
1070
     2
1000
-2000051
1002
}
1002
{
1070
     3
1000
-2000042
1002
}
  0
LINE
  5
446
330
70
100
AcDbEntity
  8
A-COB-___-___-EXI
100
AcDbLine
 10
-20541.41460340543
 20
-7874.310243494996
 30
0.0
 11
-20541.41460340543
 21
-7698.933762421377
 31
0.0
1001
REVIT
1002
{
1070
     1
1000
22594446
1002
}
1002
{
1070
     5
1000
383807
1002
}
1002
{
1070
     2
1000
-2000051
1002
}
1002
{
1070
     3
1000
-2000042
1002
}
  0
LINE
  5
447
330
70
100
AcDbEntity
  8
A-COB-___-___-EXI
100
AcDbLine
 10
-20541.41460340543
 20
-7698.933762421377
 30
0.0
 11
-18898.00424641644
 21
-7001.34745318152
 31
0.0
1001
REVIT
1002
{
1070
     1
1000
22594446
1002
}
1002
{
1070
     5
1000
383807
1002
}
1002
{
1070
     2
1000
-2000051
1002
}
1002
{
1070
     3
1000
-2000042
1002
}
  0
LINE
  5
448
330
70
100
AcDbEntity
  8
A-COB-___-___-EXI
100
AcDbLine
 10
-18898.00424641644
 20
-7001.34745318152
 30
0.0
 11
-18898.00424641644
 21
-7076.918045438464
 31
0.0
1001
REVIT
1002
{
1070
     1
1000
22594446
1002
}
1002
{
1070
     5
1000
383807
1002
}
1002
{
1070
     2
1000
-2000051
1002
}
1002
{
1070
     3
1000
-2000042
1002
}
  0
VIEWPORT
  5
45A
102
{ACAD_XDICTIONARY
360
45B
102
}
330
74
100
AcDbEntity
 67
     1
  8
0
100
AcDbViewport
 10
212.3618320410888
 20
109.4071767165534
 30
0.0
 40
685.966679759413
 41
317.6709162723481
 68
     1
 69
     1
 12
212.3618320410888
 22
109.4071767165534
 13
0.0
 23
0.0
 14
10.0
 24
10.0
 15
10.0
 25
10.0
 16
0.0
 26
0.0
 36
1.0
 17
0.0
 27
0.0
 37
0.0
 42
50.0
 43
0.0
 44
0.0
 45
317.6709162723481
 50
0.0
 51
0.0
 72
   100
 90
   819232
  1

281
     0
 71
     1
 74
     0
110
0.0
120
0.0
130
0.0
111
1.0
121
0.0
131
0.0
112
0.0
122
1.0
132
0.0
 79
     0
146
0.0
170
     0
 61
     5
348
2F
292
     1
282
     1
141
0.0
142
0.0
 63
   250
421
  3355443
  0
VIEWPORT
  5
45E
102
{ACAD_XDICTIONARY
360
45F
102
}
330
74
100
AcDbEntity
 67
     1
  8
0
100
AcDbViewport
 10
148.5
 20
104.9443283081054
 30
0.0
 40
237.6
 41
167.9109252929687
 68
     2
 69
     2
 12
-12744.77101397599
 22
-8010.033010266797
 13
0.0
 23
0.0
 14
1.0
 24
1.0
 15
0.0
 25
0.0
 16
0.0
 26
0.0
 36
1.0
 17
0.0
 27
0.0
 37
0.0
 42
50.0
 43
0.0
 44
0.0
 45
17015.07588655622
 50
0.0
 51
0.0
 72
  1000
 90
   819232
  1

281
     0
 71
     1
 74
     0
110
0.0
120
0.0
130
0.0
111
1.0
121
0.0
131
0.0
112
0.0
122
1.0
132
0.0
 79
     0
146
0.0
170
     0
 61
     5
348
2F
292
     1
282
     1
141
0.0
142
0.0
 63
   250
421
  3355443
  0
ENDSEC
  0
SECTION
  2
OBJECTS
  0
DICTIONARY
  5
C
330
0
100
AcDbDictionary
281
     1
  3
ACAD_CIP_PREVIOUS_PRODUCT_INFO
350
79
  3
ACAD_COLOR
350
63
  3
ACAD_DETAILVIEWSTYLE
350
6A
  3
ACAD_GROUP
350
D
  3
ACAD_IMAGE_VARS
350
7A
  3
ACAD_LAYOUT
350
62
  3
ACAD_MATERIAL
350
10
  3
ACAD_MLEADERSTYLE
350
66
  3
ACAD_MLINESTYLE
350
5F
  3
ACAD_PLOTSETTINGS
350
61
  3
ACAD_PLOTSTYLENAME
350
E
  3
ACAD_RENDER_ACTIVE_RAPIDRT_SETTINGS
350
3C1
  3
ACAD_RENDER_RAPIDRT_SETTINGS
350
3BA
  3
ACAD_SCALELIST
350
42
  3
ACAD_SECTIONVIEWSTYLE
350
68
  3
ACAD_TABLESTYLE
350
64
  3
ACAD_VISUALSTYLE
350
29
  3
ACDB_RECOMPOSE_DATA
350
485
  3
AcDbVariableDictionary
350
3AA
  3
REVIT_DICTIONARY
350
3A2
  0
SUN
  5
3A9
330
57
100
AcDbSun
 90
        1
290
     1
 63
     7
421
 16777215
 40
0.3
291
     1
 91
  2460364
 92
 45075000
292
     0
 70
     1
 71
   128
280
     1
  0
DICTIONARY
  5
3C6
330
2
100
AcDbDictionary
280
     1
281
     1
  3
ACAD_LAYERSTATES
360
3C7
  0
DICTIONARY
  5
3A7
330
70
100
AcDbDictionary
280
     1
281
     1
  3
ACAD_SORTENTS
360
3A8
  0
DICTIONARY
  5
45B
330
45A
100
AcDbDictionary
280
     1
281
     1
  3
ASDK_XREC_ANNOTATION_SCALE_INFO
360
45C
  0
DICTIONARY
  5
45F
330
45E
100
AcDbDictionary
280
     1
281
     1
  3
ASDK_XREC_ANNOTATION_SCALE_INFO
360
460
  0
XRECORD
  5
79
102
{ACAD_REACTORS
330
C
102
}
330
C
100
AcDbXrecord
280
     1
300
ACD
300
2022
300

  0
DICTIONARY
  5
63
102
{ACAD_REACTORS
330
C
102
}
330
C
100
AcDbDictionary
281
     1
  0
DICTIONARY
  5
6A
102
{ACAD_REACTORS
330
C
102
}
330
C
100
AcDbDictionary
281
     1
  3
Imperial24
350
6B
  3
Metric50
350
3B2
  0
DICTIONARY
  5
D
102
{ACAD_REACTORS
330
C
102
}
330
C
100
AcDbDictionary
281
     1
  0
RASTERVARIABLES
  5
7A
102
{ACAD_REACTORS
330
C
102
}
330
C
100
AcDbRasterVariables
 90
        0
 70
     0
 71
     1
 72
     1
  0
DICTIONARY
  5
62
102
{ACAD_REACTORS
330
C
102
}
330
C
100
AcDbDictionary
281
     1
  3
Layout2
350
77
  3
Model
350
73
  0
DICTIONARY
  5
10
102
{ACAD_REACTORS
330
C
102
}
330
C
100
AcDbDictionary
281
     1
  3
ByBlock
350
19
  3
ByLayer
350
11
  3
Global
350
21
  0
DICTIONARY
  5
66
102
{ACAD_REACTORS
330
C
102
}
330
C
100
AcDbDictionary
281
     1
  3
Standard
350
67
  0
DICTIONARY
  5
5F
102
{ACAD_REACTORS
330
C
102
}
330
C
100
AcDbDictionary
281
     1
  3
Standard
350
60
  0
DICTIONARY
  5
61
102
{ACAD_REACTORS
330
C
102
}
330
C
100
AcDbDictionary
281
     1
  0
ACDBDICTIONARYWDFLT
  5
E
102
{ACAD_REACTORS
330
C
102
}
330
C
100
AcDbDictionary
281
     1
  3
Normal
350
F
100
AcDbDictionaryWithDefault
340
F
  0
RAPIDRTRENDERSETTINGS
  5
3C1
102
{ACAD_REACTORS
330
C
102
}
330
C
100
AcDbRenderSettings
 90
        2
  1
Médio
290
     1
290
     0
290
     1
290
     1
  1

  1
Aplica 5 níveis de renderização
 90
        0
100
AcDbRapidRTRenderSettings
 90
        3
 70
     0
 90
        5
 90
        1
 70
     1
 70
     2
 40
3.0
 40
3.0
290
     1
  0
DICTIONARY
  5
3BA
102
{ACAD_REACTORS
330
C
102
}
330
C
100
AcDbDictionary
281
     1
  3
Alto
350
3BD
  3
Baixo
350
3BB
  3
Médio
350
3BC
  3
Qualidade de curta duração
350
3BE
  3
Qualidade de longa duração
350
3C0
  3
Qualidade de média duração
350
3BF
  0
DICTIONARY
  5
42
102
{ACAD_REACTORS
330
C
102
}
330
C
100
AcDbDictionary
281
     1
  3
A0
350
43
  3
A1
350
44
  3
A2
350
45
  3
A3
350
46
  3
A4
350
47
  3
A5
350
48
  3
A6
350
49
  3
A7
350
4A
  3
A8
350
4B
  3
A9
350
4C
  3
B0
350
4D
  3
B1
350
4E
  3
B2
350
4F
  3
B3
350
50
  3
B4
350
51
  3
B5
350
52
  3
B6
350
53
  0
DICTIONARY
  5
68
102
{ACAD_REACTORS
330
C
102
}
330
C
100
AcDbDictionary
281
     1
  3
Imperial24
350
69
  3
Metric50
350
3B1
  0
DICTIONARY
  5
64
102
{ACAD_REACTORS
330
C
102
}
330
C
100
AcDbDictionary
281
     1
  3
Standard
350
65
  0
DICTIONARY
  5
29
102
{ACAD_REACTORS
330
C
102
}
330
C
100
AcDbDictionary
281
     1
  3
2dWireframe
350
2F
  3
Basic
350
2E
  3
Brighten
350
35
  3
ColorChange
350
39
  3
Conceptual
350
32
  3
Dim
350
34
  3
EdgeColorOff
350
41
  3
Facepattern
350
38
  3
Flat
350
2A
  3
FlatWithEdges
350
2B
  3
Gouraud
350
2C
  3
GouraudWithEdges
350
2D
  3
Hidden
350
31
  3
JitterOff
350
3F
  3
Linepattern
350
37
  3
OverhangOff
350
40
  3
Realistic
350
33
  3
Shaded
350
3E
  3
Shaded with edges
350
3D
  3
Shades of Gray
350
3A
  3
Sketchy
350
3B
  3
Thicken
350
36
  3
Wireframe
350
30
  3
X-Ray
350
3C
  0
XRECORD
  5
485
102
{ACAD_REACTORS
330
C
102
}
330
C
100
AcDbXrecord
280
     1
 90
        1
330
65
  0
DICTIONARY
  5
3AA
102
{ACAD_REACTORS
330
C
102
}
330
C
100
AcDbDictionary
281
     1
  3
CANNOSCALE
350
3AF
  3
CMLEADERSTYLE
350
3AC
  3
CTABLESTYLE
350
3AB
  3
CVIEWDETAILSTYLE
350
3AD
  3
CVIEWSECTIONSTYLE
350
3AE
  0
DICTIONARY
  5
3A2
102
{ACAD_REACTORS
330
C
102
}
330
C
100
AcDbDictionary
281
     1
  3
DRAWING_TOOL
350
3A6
  3
REVIT_CATEGORY_MAPPING
350
3A4
  3
REVIT_SUB_CATEGORY_MAPPING
350
3A5
  3
REVIT_TYPE_MAPPING
350
3A3
  0
DICTIONARY
  5
3C7
102
{ACAD_REACTORS
330
3C6
102
}
330
3C6
100
AcDbDictionary
281
     1
  0
SORTENTSTABLE
  5
3A8
102
{ACAD_REACTORS
330
3A7
102
}
330
3A7
100
AcDbSortentsTable
330
70
331
426
  5
42C
331
427
  5
42D
331
428
  5
42E
331
429
  5
42F
331
42A
  5
443
331
42B
  5
444
331
42C
  5
445
331
42D
  5
446
331
42E
  5
447
331
42F
  5
448
331
443
  5
426
331
444
  5
427
331
445
  5
428
331
446
  5
429
331
447
  5
42A
331
448
  5
42B
  0
XRECORD
  5
45C
102
{ACAD_REACTORS
330
45B
102
}
330
45B
100
AcDbXrecord
280
     1
 90
        1
340
43
  0
XRECORD
  5
460
102
{ACAD_REACTORS
330
45F
102
}
330
45F
100
AcDbXrecord
280
     1
 90
        1
340
43
  0
ACDBDETAILVIEWSTYLE
  5
6B
102
{ACAD_REACTORS
330
6A
102
}
330
6A
100
AcDbModelDocViewStyle
 70
     0
  3
Imperial24
290
     1
300
Imperial24
 90
        0
100
AcDbDetailViewStyle
 70
     0
 71
     0
 90
        3
 71
     1
340
55
 62
   256
 40
0.24
340
0
 62
   256
 40
0.24
300

 40
0.36
280
     3
 71
     2
340
5D
 90
       25
 62
   256
 71
     3
340
55
 62
   256
 40
0.24
 90
        1
 40
0.75
 90
        1
300
%<\AcVar ViewType \f "%tc1">% %<\AcVar ViewDetailId>%\PSCALE %<\AcVar ViewScale \f "%sn">%
 71
     4
340
5D
 90
       25
 62
   256
340
5D
 90
       25
 62
   256
280
     0
  0
ACDBDETAILVIEWSTYLE
  5
3B2
102
{ACAD_REACTORS
330
6A
102
}
330
6A
100
AcDbModelDocViewStyle
 70
     0
  3
Metric50
290
     1
300
Metric50
 90
        0
100
AcDbDetailViewStyle
 70
     0
 71
     0
 90
        3
 71
     1
340
55
 62
   256
 40
5.0
340
0
 62
   256
 40
5.0
300

 40
0.0
280
     1
 71
     2
340
5D
 90
       25
 62
   256
 71
     3
340
55
 62
   256
 40
5.0
 90
        0
 40
15.0
 90
        1
300
%<\AcVar ViewDetailId>% (%<\AcVar ViewScale \f "%sn">%)
 71
     4
340
5D
 90
       25
 62
   256
340
5D
 90
       25
 62
   256
280
     0
  0
LAYOUT
  5
77
102
{ACAD_REACTORS
330
62
102
}
330
62
100
AcDbPlotSettings
  1

  2
PDF24
  4
A4
  6

 40
0.0
 41
0.0
 42
0.1113433837890625
 43
0.0
 44
210.0
 45
297.0
 46
0.0
 47
0.0
 48
0.0
 49
0.0
140
0.0
141
0.0
142
1.0
143
1.0
 70
   688
 72
     1
 73
     1
 74
     5
  7

 75
    16
147
1.0
 76
     0
 77
     2
 78
   300
148
0.0
149
0.0
100
AcDbLayout
  1
Layout2
 70
     1
 71
     1
 10
0.0
 20
0.0
 11
297.0
 21
210.0
 12
0.0
 22
0.0
 32
0.0
 14
29.69999999999999
 24
20.98886566162111
 34
0.0
 15
267.3
 25
188.8997909545898
 35
0.0
146
0.0
 13
0.0
 23
0.0
 33
0.0
 16
1.0
 26
0.0
 36
0.0
 17
0.0
 27
1.0
 37
0.0
 76
     0
330
74
331
45A
1001
ACAD_PSEXT
1000
PDF24
1000
PDF24
1000
\\.\pipe\PDFPrint
1000
PDF24 Printer
1070
     0
  0
LAYOUT
  5
73
102
{ACAD_REACTORS
330
62
102
}
330
62
100
AcDbPlotSettings
  1

  2

  4

  6

 40
0.0
 41
0.0
 42
0.0
 43
0.0
 44
0.0
 45
0.0
 46
0.0
 47
0.0
 48
0.0
 49
0.0
140
0.0
141
0.0
142
1.0
143
1.0
 70
  1712
 72
     0
 73
     0
 74
     0
  7

 75
     0
147
1.0
 76
     0
 77
     2
 78
   300
148
0.0
149
0.0
100
AcDbLayout
  1
Model
 70
     1
 71
     0
 10
0.0
 20
0.0
 11
12.0
 21
9.0
 12
0.0
 22
0.0
 32
0.0
 14
0.0
 24
0.0
 34
0.0
 15
0.0
 25
0.0
 35
0.0
146
0.0
 13
0.0
 23
0.0
 33
0.0
 16
1.0
 26
0.0
 36
0.0
 17
0.0
 27
1.0
 37
0.0
 76
     0
330
70
331
57
  0
MATERIAL
  5
19
102
{ACAD_XDICTIONARY
360
1A
102
}
102
{ACAD_REACTORS
330
10
102
}
330
10
100
AcDbMaterial
  1
ByBlock
 72
     0
 43
0.0208333333333333
 43
0.0
 43
0.0
 43
0.0
 43
0.0
 43
0.0208333333333333
 43
0.0
 43
0.0
 43
0.0
 43
0.0
 43
1.0
 43
0.0
 43
0.0
 43
0.0
 43
0.0
 43
1.0
 77
     0
 47
0.0208333333333333
 47
0.0
 47
0.0
 47
0.0
 47
0.0
 47
0.0208333333333333
 47
0.0
 47
0.0
 47
0.0
 47
0.0
 47
1.0
 47
0.0
 47
0.0
 47
0.0
 47
0.0
 47
1.0
171
     0
 49
0.0208333333333333
 49
0.0
 49
0.0
 49
0.0
 49
0.0
 49
0.0208333333333333
 49
0.0
 49
0.0
 49
0.0
 49
0.0
 49
1.0
 49
0.0
 49
0.0
 49
0.0
 49
0.0
 49
1.0
175
     0
142
0.0208333333333333
142
0.0
142
0.0
142
0.0
142
0.0
142
0.0208333333333333
142
0.0
142
0.0
142
0.0
142
0.0
142
1.0
142
0.0
142
0.0
142
0.0
142
0.0
142
1.0
179
     0
144
0.0208333333333333
144
0.0
144
0.0
144
0.0
144
0.0
144
0.0208333333333333
144
0.0
144
0.0
144
0.0
144
0.0
144
1.0
144
0.0
144
0.0
144
0.0
144
0.0
144
1.0
147
0.0208333333333333
147
0.0
147
0.0
147
0.0
147
0.0
147
0.0208333333333333
147
0.0
147
0.0
147
0.0
147
0.0
147
1.0
147
0.0
147
0.0
147
0.0
147
0.0
147
1.0
  0
MATERIAL
  5
11
102
{ACAD_XDICTIONARY
360
12
102
}
102
{ACAD_REACTORS
330
10
102
}
330
10
100
AcDbMaterial
  1
ByLayer
 72
     0
 43
0.0208333333333333
 43
0.0
 43
0.0
 43
0.0
 43
0.0
 43
0.0208333333333333
 43
0.0
 43
0.0
 43
0.0
 43
0.0
 43
1.0
 43
0.0
 43
0.0
 43
0.0
 43
0.0
 43
1.0
 77
     0
 47
0.0208333333333333
 47
0.0
 47
0.0
 47
0.0
 47
0.0
 47
0.0208333333333333
 47
0.0
 47
0.0
 47
0.0
 47
0.0
 47
1.0
 47
0.0
 47
0.0
 47
0.0
 47
0.0
 47
1.0
171
     0
 49
0.0208333333333333
 49
0.0
 49
0.0
 49
0.0
 49
0.0
 49
0.0208333333333333
 49
0.0
 49
0.0
 49
0.0
 49
0.0
 49
1.0
 49
0.0
 49
0.0
 49
0.0
 49
0.0
 49
1.0
175
     0
142
0.0208333333333333
142
0.0
142
0.0
142
0.0
142
0.0
142
0.0208333333333333
142
0.0
142
0.0
142
0.0
142
0.0
142
1.0
142
0.0
142
0.0
142
0.0
142
0.0
142
1.0
179
     0
144
0.0208333333333333
144
0.0
144
0.0
144
0.0
144
0.0
144
0.0208333333333333
144
0.0
144
0.0
144
0.0
144
0.0
144
1.0
144
0.0
144
0.0
144
0.0
144
0.0
144
1.0
147
0.0208333333333333
147
0.0
147
0.0
147
0.0
147
0.0
147
0.0208333333333333
147
0.0
147
0.0
147
0.0
147
0.0
147
1.0
147
0.0
147
0.0
147
0.0
147
0.0
147
1.0
  0
MATERIAL
  5
21
102
{ACAD_XDICTIONARY
360
22
102
}
102
{ACAD_REACTORS
330
10
102
}
330
10
100
AcDbMaterial
  1
Global
 72
     0
 43
0.0208333333333333
 43
0.0
 43
0.0
 43
0.0
 43
0.0
 43
0.0208333333333333
 43
0.0
 43
0.0
 43
0.0
 43
0.0
 43
1.0
 43
0.0
 43
0.0
 43
0.0
 43
0.0
 43
1.0
 77
     0
 47
0.0208333333333333
 47
0.0
 47
0.0
 47
0.0
 47
0.0
 47
0.0208333333333333
 47
0.0
 47
0.0
 47
0.0
 47
0.0
 47
1.0
 47
0.0
 47
0.0
 47
0.0
 47
0.0
 47
1.0
171
     0
 49
0.0208333333333333
 49
0.0
 49
0.0
 49
0.0
 49
0.0
 49
0.0208333333333333
 49
0.0
 49
0.0
 49
0.0
 49
0.0
 49
1.0
 49
0.0
 49
0.0
 49
0.0
 49
0.0
 49
1.0
175
     0
142
0.0208333333333333
142
0.0
142
0.0
142
0.0
142
0.0
142
0.0208333333333333
142
0.0
142
0.0
142
0.0
142
0.0
142
1.0
142
0.0
142
0.0
142
0.0
142
0.0
142
1.0
179
     0
144
0.0208333333333333
144
0.0
144
0.0
144
0.0
144
0.0
144
0.0208333333333333
144
0.0
144
0.0
144
0.0
144
0.0
144
1.0
144
0.0
144
0.0
144
0.0
144
0.0
144
1.0
147
0.0208333333333333
147
0.0
147
0.0
147
0.0
147
0.0
147
0.0208333333333333
147
0.0
147
0.0
147
0.0
147
0.0
147
1.0
147
0.0
147
0.0
147
0.0
147
0.0
147
1.0
  0
MLEADERSTYLE
  5
67
102
{ACAD_REACTORS
330
66
102
}
330
66
100
AcDbMLeaderStyle
179
     2
170
     2
171
     1
172
     0
 90
        2
 40
0.0
 41
0.0
173
     1
 91
-1056964608
340
5B
 92
       -2
290
     1
 42
0.09
291
     1
 43
0.36
  3
Standard
 44
0.18
300

342
55
174
     1
178
     6
175
     1
176
     0
 93
-1056964608
 45
0.18
292
     0
297
     0
 46
0.18
 94
-1056964608
 47
1.0
 49
1.0
140
1.0
293
     1
141
0.0
294
     1
177
     0
142
1.0
295
     1
296
     0
143
0.125
271
     0
272
     9
273
     9
298
     1
  0
MLINESTYLE
  5
60
102
{ACAD_REACTORS
330
5F
102
}
330
5F
100
AcDbMlineStyle
  2
STANDARD
 70
     0
  3

 62
   256
 51
90.0
 52
90.0
 71
     2
 49
0.5
 62
   256
  6
BYLAYER
 49
-0.5
 62
   256
  6
BYLAYER
  0
ACDBPLACEHOLDER
  5
F
102
{ACAD_REACTORS
330
E
102
}
330
E
  0
RAPIDRTRENDERSETTINGS
  5
3BD
102
{ACAD_REACTORS
330
3BA
102
}
330
3BA
100
AcDbRenderSettings
 90
        2
  1
Alto
290
     1
290
     0
290
     1
290
     1
  1

  1
Aplica 10 níveis de renderização
 90
        2
100
AcDbRapidRTRenderSettings
 90
        3
 70
     0
 90
       10
 90
        1
 70
     2
 70
     2
 40
3.0
 40
3.0
290
     1
  0
RAPIDRTRENDERSETTINGS
  5
3BB
102
{ACAD_REACTORS
330
3BA
102
}
330
3BA
100
AcDbRenderSettings
 90
        2
  1
Baixo
290
     1
290
     0
290
     1
290
     1
  1

  1
Aplica 1 nível de renderização
 90
        0
100
AcDbRapidRTRenderSettings
 90
        3
 70
     0
 90
        1
 90
        1
 70
     0
 70
     2
 40
3.0
 40
3.0
290
     1
  0
RAPIDRTRENDERSETTINGS
  5
3BC
102
{ACAD_REACTORS
330
3BA
102
}
330
3BA
100
AcDbRenderSettings
 90
        2
  1
Médio
290
     1
290
     0
290
     1
290
     1
  1

  1
Aplica 5 níveis de renderização
 90
        1
100
AcDbRapidRTRenderSettings
 90
        3
 70
     0
 90
        5
 90
        1
 70
     1
 70
     2
 40
3.0
 40
3.0
290
     1
  0
RAPIDRTRENDERSETTINGS
  5
3BE
102
{ACAD_REACTORS
330
3BA
102
}
330
3BA
100
AcDbRenderSettings
 90
        2
  1
Qualidade de curta duração
290
     1
290
     0
290
     1
290
     1
  1

  1
Renderiza por 10 minutos
 90
        3
100
AcDbRapidRTRenderSettings
 90
        3
 70
     1
 90
        1
 90
       10
 70
     1
 70
     2
 40
3.0
 40
3.0
290
     1
  0
RAPIDRTRENDERSETTINGS
  5
3C0
102
{ACAD_REACTORS
330
3BA
102
}
330
3BA
100
AcDbRenderSettings
 90
        2
  1
Qualidade de longa duração
290
     1
290
     0
290
     1
290
     1
  1

  1
Renderiza por 12 horas
 90
        5
100
AcDbRapidRTRenderSettings
 90
        3
 70
     1
 90
        1
 90
      720
 70
     2
 70
     2
 40
3.0
 40
3.0
290
     1
  0
RAPIDRTRENDERSETTINGS
  5
3BF
102
{ACAD_REACTORS
330
3BA
102
}
330
3BA
100
AcDbRenderSettings
 90
        2
  1
Qualidade de média duração
290
     1
290
     0
290
     1
290
     1
  1

  1
Renderiza por 60 minutos
 90
        4
100
AcDbRapidRTRenderSettings
 90
        3
 70
     1
 90
        1
 90
       60
 70
     2
 70
     2
 40
3.0
 40
3.0
290
     1
  0
SCALE
  5
43
102
{ACAD_REACTORS
330
42
102
}
330
42
100
AcDbScale
 70
     0
300
1:1
140
1.0
141
1.0
290
     1
  0
SCALE
  5
44
102
{ACAD_REACTORS
330
42
102
}
330
42
100
AcDbScale
 70
     0
300
1/128" = 1'-0"
140
0.0078125
141
12.0
290
     0
  0
SCALE
  5
45
102
{ACAD_REACTORS
330
42
102
}
330
42
100
AcDbScale
 70
     0
300
1/64" = 1'-0"
140
0.015625
141
12.0
290
     0
  0
SCALE
  5
46
102
{ACAD_REACTORS
330
42
102
}
330
42
100
AcDbScale
 70
     0
300
1/32" = 1'-0"
140
0.03125
141
12.0
290
     0
  0
SCALE
  5
47
102
{ACAD_REACTORS
330
42
102
}
330
42
100
AcDbScale
 70
     0
300
1/16" = 1'-0"
140
0.0625
141
12.0
290
     0
  0
SCALE
  5
48
102
{ACAD_REACTORS
330
42
102
}
330
42
100
AcDbScale
 70
     0
300
3/32" = 1'-0"
140
0.09375
141
12.0
290
     0
  0
SCALE
  5
49
102
{ACAD_REACTORS
330
42
102
}
330
42
100
AcDbScale
 70
     0
300
1/8" = 1'-0"
140
0.125
141
12.0
290
     0
  0
SCALE
  5
4A
102
{ACAD_REACTORS
330
42
102
}
330
42
100
AcDbScale
 70
     0
300
3/16" = 1'-0"
140
0.1875
141
12.0
290
     0
  0
SCALE
  5
4B
102
{ACAD_REACTORS
330
42
102
}
330
42
100
AcDbScale
 70
     0
300
1/4" = 1'-0"
140
0.25
141
12.0
290
     0
  0
SCALE
  5
4C
102
{ACAD_REACTORS
330
42
102
}
330
42
100
AcDbScale
 70
     0
300
3/8" = 1'-0"
140
0.375
141
12.0
290
     0
  0
SCALE
  5
4D
102
{ACAD_REACTORS
330
42
102
}
330
42
100
AcDbScale
 70
     0
300
1/2" = 1'-0"
140
0.5
141
12.0
290
     0
  0
SCALE
  5
4E
102
{ACAD_REACTORS
330
42
102
}
330
42
100
AcDbScale
 70
     0
300
3/4" = 1'-0"
140
0.75
141
12.0
290
     0
  0
SCALE
  5
4F
102
{ACAD_REACTORS
330
42
102
}
330
42
100
AcDbScale
 70
     0
300
1" = 1'-0"
140
1.0
141
12.0
290
     0
  0
SCALE
  5
50
102
{ACAD_REACTORS
330
42
102
}
330
42
100
AcDbScale
 70
     0
300
1-1/2" = 1'-0"
140
1.5
141
12.0
290
     0
  0
SCALE
  5
51
102
{ACAD_REACTORS
330
42
102
}
330
42
100
AcDbScale
 70
     0
300
3" = 1'-0"
140
3.0
141
12.0
290
     0
  0
SCALE
  5
52
102
{ACAD_REACTORS
330
42
102
}
330
42
100
AcDbScale
 70
     0
300
6" = 1'-0"
140
6.0
141
12.0
290
     0
  0
SCALE
  5
53
102
{ACAD_REACTORS
330
42
102
}
330
42
100
AcDbScale
 70
     0
300
1'-0" = 1'-0"
140
12.0
141
12.0
290
     0
  0
ACDBSECTIONVIEWSTYLE
  5
69
102
{ACAD_REACTORS
330
68
102
}
330
68
100
AcDbModelDocViewStyle
 70
     0
  3
Imperial24
290
     1
300
Imperial24
 90
        0
100
AcDbSectionViewStyle
 70
     0
 71
     0
 90
       78
 71
     1
340
55
 62
   256
 40
0.24
340
0
340
0
 62
   256
 40
0.24
300
I, O, Q, S, X, Z
 40
0.48
 90
        3
 40
0.18
 90
        1
 71
     2
340
5D
 90
       25
 62
   256
340
5D
 90
       50
 62
   256
 40
0.24
 40
0.0
 40
0.24
 71
     3
340
55
 62
   256
 40
0.24
 90
        1
 40
0.75
 90
        1
300
%<\AcVar ViewType \f "%tc1">% %<\AcVar ViewSectionStartId>%-%<\AcVar ViewSectionEndId>%\PSCALE %<\AcVar ViewScale \f "%sn">%
 71
     4
 62
   256
 62
   257
300
ANSI31
 40
1.0
 90
        0
290
     0
290
     0
 90
        6
 40
0.0
 40
1.570796326794896
 40
0.2617993877991494
 40
1.308996938995747
 40
-0.2617993877991494
 40
1.832595714594046
  0
ACDBSECTIONVIEWSTYLE
  5
3B1
102
{ACAD_REACTORS
330
68
102
}
330
68
100
AcDbModelDocViewStyle
 70
     0
  3
Metric50
290
     1
300
Metric50
 90
        0
100
AcDbSectionViewStyle
 70
     0
 71
     0
 90
      102
 71
     1
340
55
 62
   256
 40
5.0
340
0
340
0
 62
   256
 40
5.0
300
I, O, Q, S, X, Z
 40
10.0
 90
        0
 40
2.5
 90
        0
 71
     2
340
5D
 90
       25
 62
   256
340
5D
 90
       50
 62
   256
 40
5.0
 40
2.5
 40
5.0
 71
     3
340
55
 62
   256
 40
5.0
 90
        0
 40
15.0
 90
        1
300
%<\AcVar ViewSectionStartId>%-%<\AcVar ViewSectionEndId>% (%<\AcVar ViewScale \f "%sn">%)
 71
     4
 62
   256
 62
   257
300
ANSI31
 40
1.0
 90
        0
290
     0
290
     0
 90
        6
 40
0.0
 40
1.570796326794896
 40
0.2617993877991494
 40
1.308996938995747
 40
-0.2617993877991494
 40
1.832595714594046
  0
TABLESTYLE
  5
65
102
{ACAD_XDICTIONARY
360
483
102
}
102
{ACAD_REACTORS
330
64
102
}
330
64
100
AcDbTableStyle
280
     0
  3
Standard
 70
     0
 71
     0
 40
0.06
 41
0.06
280
     0
281
     0
  7
Standard
140
0.18
170
     2
 62
     0
 63
     7
283
     0
 90
      512
 91
        0
  1

274
    -2
284
     1
 64
     0
275
    -2
285
     1
 65
     0
276
    -2
286
     1
 66
     0
277
    -2
287
     1
 67
     0
278
    -2
288
     1
 68
     0
279
    -2
289
     1
 69
     0
  7
Standard
140
0.25
170
     5
 62
     0
 63
     7
283
     0
 90
      512
 91
        0
  1

274
    -2
284
     1
 64
     0
275
    -2
285
     1
 65
     0
276
    -2
286
     1
 66
     0
277
    -2
287
     1
 67
     0
278
    -2
288
     1
 68
     0
279
    -2
289
     1
 69
     0
  7
Standard
140
0.18
170
     5
 62
     0
 63
     7
283
     0
 90
      512
 91
        0
  1

274
    -2
284
     1
 64
     0
275
    -2
285
     1
 65
     0
276
    -2
286
     1
 66
     0
277
    -2
287
     1
 67
     0
278
    -2
288
     1
 68
     0
279
    -2
289
     1
 69
     0
  0
VISUALSTYLE
  5
2F
102
{ACAD_REACTORS
330
29
102
}
330
29
100
AcDbVisualStyle
  2
2dWireframe
 70
     4
177
     3
291
     0
 70
    58
 90
        0
176
     1
 90
        2
176
     1
 90
        0
176
     1
 90
        0
176
     1
 40
0.6
176
     1
 40
30.0
176
     1
 62
     7
420
 16777215
176
     1
 90
        1
176
     1
 90
        4
176
     1
 62
     7
176
     1
 62
   257
176
     1
 90
        1
176
     1
 90
        1
176
     1
 40
1.0
176
     1
 90
        0
176
     1
 62
   257
176
     1
 40
1.0
176
     1
 90
        1
176
     1
 90
        6
176
     1
 90
        2
176
     1
 62
     7
176
     1
 90
        5
176
     1
 90
        0
176
     1
 90
        0
176
     1
290
     0
176
     1
 90
        1
176
     1
 40
0.0
176
     1
 90
        0
176
     1
290
     1
176
     1
290
     1
176
     1
290
     0
176
     1
290
     0
176
     1
290
     0
176
     1
290
     0
176
     1
290
     0
176
     1
290
     0
176
     1
290
     0
176
     1
 90
       50
176
     1
 40
0.0
176
     1
 40
1.0
176
     1
 90
        0
176
     1
 62
    18
420
        0
176
     1
 90
       50
176
     1
 90
        3
176
     1
 62
     5
420
      255
176
     1
290
     0
176
     1
 90
       50
176
     1
 90
       50
176
     1
 90
       50
176
     1
290
     0
176
     1
 90
       50
176
     1
 62
   256
176
     0
 40
1.0
176
     0
 90
        2
176
     1
  1
strokes_ogs.tif
176
     1
290
     0
176
     1
 40
1.0
176
     1
 40
1.0
176
     1
  0
VISUALSTYLE
  5
2E
102
{ACAD_REACTORS
330
29
102
}
330
29
100
AcDbVisualStyle
  2
Basic
 70
     7
177
     3
291
     1
 70
    58
 90
        1
176
     1
 90
        0
176
     1
 90
        1
176
     1
 90
        0
176
     1
 40
0.6
176
     1
 40
30.0
176
     1
 62
     7
420
 16777215
176
     1
 90
        0
176
     1
 90
        4
176
     1
 62
     7
176
     1
 62
   257
176
     1
 90
        1
176
     1
 90
        1
176
     1
 40
1.0
176
     1
 90
        8
176
     1
 62
     7
176
     1
 40
1.0
176
     1
 90
        1
176
     1
 90
        6
176
     1
 90
        2
176
     1
 62
     7
176
     1
 90
        5
176
     1
 90
        0
176
     1
 90
        0
176
     1
290
     0
176
     1
 90
        1
176
     1
 40
0.0
176
     1
 90
        0
176
     1
290
     0
176
     1
290
     1
176
     1
290
     1
176
     1
290
     0
176
     1
290
     0
176
     1
290
     0
176
     1
290
     0
176
     1
290
     0
176
     1
290
     0
176
     1
 90
       50
176
     1
 40
0.0
176
     1
 40
1.0
176
     1
 90
        0
176
     1
 62
    18
420
        0
176
     1
 90
       50
176
     1
 90
        3
176
     1
 62
     5
420
      255
176
     1
290
     0
176
     1
 90
       50
176
     1
 90
       50
176
     1
 90
       50
176
     1
290
     0
176
     1
 90
       50
176
     1
 62
   256
176
     0
 40
1.0
176
     0
 90
        2
176
     1
  1
strokes_ogs.tif
176
     1
290
     0
176
     1
 40
1.0
176
     1
 40
1.0
176
     1
  0
VISUALSTYLE
  5
35
102
{ACAD_REACTORS
330
29
102
}
330
29
100
AcDbVisualStyle
  2
Brighten
 70
    12
177
     3
291
     1
 70
    58
 90
        2
176
     1
 90
        2
176
     1
 90
        0
176
     1
 90
        0
176
     1
 40
0.6
176
     1
 40
30.0
176
     1
 62
     7
420
 16777215
176
     1
 90
        1
176
     1
 90
        4
176
     1
 62
     7
176
     1
 62
   257
176
     1
 90
        1
176
     1
 90
        1
176
     1
 40
1.0
176
     1
 90
        8
176
     1
 62
     7
176
     1
 40
1.0
176
     1
 90
        1
176
     1
 90
        6
176
     1
 90
        2
176
     1
 62
     7
176
     1
 90
        5
176
     1
 90
        0
176
     1
 90
        0
176
     1
290
     0
176
     1
 90
        1
176
     1
 40
50.0
176
     1
 90
        0
176
     1
290
     0
176
     1
290
     1
176
     1
290
     1
176
     1
290
     0
176
     1
290
     0
176
     1
290
     0
176
     1
290
     0
176
     1
290
     0
176
     1
290
     0
176
     1
 90
       50
176
     1
 40
0.0
176
     1
 40
1.0
176
     1
 90
        0
176
     1
 62
    18
420
        0
176
     1
 90
       50
176
     1
 90
        3
176
     1
 62
     5
420
      255
176
     1
290
     0
176
     1
 90
       50
176
     1
 90
       50
176
     1
 90
       50
176
     1
290
     0
176
     1
 90
       50
176
     1
 62
   256
176
     0
 40
1.0
176
     0
 90
        2
176
     1
  1
strokes_ogs.tif
176
     1
290
     0
176
     1
 40
1.0
176
     1
 40
1.0
176
     1
  0
VISUALSTYLE
  5
39
102
{ACAD_REACTORS
330
29
102
}
330
29
100
AcDbVisualStyle
  2
ColorChange
 70
    16
177
     3
291
     1
 70
    58
 90
        2
176
     1
 90
        2
176
     1
 90
        3
176
     1
 90
        0
176
     1
 40
0.6
176
     1
 40
30.0
176
     1
 62
     8
420
  8421504
176
     1
 90
        1
176
     1
 90
        4
176
     1
 62
     7
176
     1
 62
   257
176
     1
 90
        1
176
     1
 90
        1
176
     1
 40
1.0
176
     1
 90
        8
176
     1
 62
     8
420
  8421504
176
     1
 40
1.0
176
     1
 90
        1
176
     1
 90
        6
176
     1
 90
        2
176
     1
 62
     7
176
     1
 90
        5
176
     1
 90
        0
176
     1
 90
        0
176
     1
290
     0
176
     1
 90
        1
176
     1
 40
0.0
176
     1
 90
        0
176
     1
290
     0
176
     1
290
     1
176
     1
290
     1
176
     1
290
     0
176
     1
290
     0
176
     1
290
     0
176
     1
290
     0
176
     1
290
     0
176
     1
290
     0
176
     1
 90
       50
176
     1
 40
0.0
176
     1
 40
1.0
176
     1
 90
        0
176
     1
 62
    18
420
        0
176
     1
 90
       50
176
     1
 90
        3
176
     1
 62
     5
420
      255
176
     1
290
     0
176
     1
 90
       50
176
     1
 90
       50
176
     1
 90
       50
176
     1
290
     0
176
     1
 90
       50
176
     1
 62
   256
176
     0
 40
1.0
176
     0
 90
        2
176
     1
  1
strokes_ogs.tif
176
     1
290
     0
176
     1
 40
1.0
176
     1
 40
1.0
176
     1
  0
VISUALSTYLE
  5
32
102
{ACAD_REACTORS
330
29
102
}
330
29
100
AcDbVisualStyle
  2
Conceptual
 70
     9
177
     3
291
     0
 70
    58
 90
        3
176
     1
 90
        2
176
     1
 90
        0
176
     1
 90
        0
176
     1
 40
0.6
176
     1
 40
30.0
176
     1
 62
     7
420
 16777215
176
     1
 90
        2
176
     1
 90
        2
176
     1
 62
     7
176
     1
 62
   257
176
     1
 90
        1
176
     1
 90
        1
176
     1
 40
179.0
176
     1
 90
        8
176
     1
 62
     7
176
     1
 40
1.0
176
     1
 90
        1
176
     1
 90
        6
176
     1
 90
        2
176
     1
 62
     7
176
     1
 90
        3
176
     1
 90
        0
176
     1
 90
        0
176
     1
290
     0
176
     1
 90
        1
176
     1
 40
0.0
176
     1
 90
        0
176
     1
290
     0
176
     1
290
     1
176
     1
290
     1
176
     1
290
     0
176
     1
290
     0
176
     1
290
     0
176
     1
290
     0
176
     1
290
     0
176
     1
290
     0
176
     1
 90
       50
176
     1
 40
0.0
176
     1
 40
1.0
176
     1
 90
        0
176
     1
 62
    18
420
        0
176
     1
 90
       50
176
     1
 90
        3
176
     1
 62
     5
420
      255
176
     1
290
     0
176
     1
 90
       50
176
     1
 90
       50
176
     1
 90
       50
176
     1
290
     0
176
     1
 90
       50
176
     1
 62
   256
176
     0
 40
1.0
176
     0
 90
        2
176
     1
  1
strokes_ogs.tif
176
     1
290
     0
176
     1
 40
1.0
176
     1
 40
1.0
176
     1
  0
VISUALSTYLE
  5
34
102
{ACAD_REACTORS
330
29
102
}
330
29
100
AcDbVisualStyle
  2
Dim
 70
    11
177
     3
291
     1
 70
    58
 90
        2
176
     1
 90
        2
176
     1
 90
        0
176
     1
 90
        0
176
     1
 40
0.6
176
     1
 40
30.0
176
     1
 62
     7
420
 16777215
176
     1
 90
        1
176
     1
 90
        4
176
     1
 62
     7
176
     1
 62
   257
176
     1
 90
        1
176
     1
 90
        1
176
     1
 40
1.0
176
     1
 90
        8
176
     1
 62
     7
176
     1
 40
1.0
176
     1
 90
        1
176
     1
 90
        6
176
     1
 90
        2
176
     1
 62
     7
176
     1
 90
        5
176
     1
 90
        0
176
     1
 90
        0
176
     1
290
     0
176
     1
 90
        1
176
     1
 40
-50.0
176
     1
 90
        0
176
     1
290
     0
176
     1
290
     1
176
     1
290
     1
176
     1
290
     0
176
     1
290
     0
176
     1
290
     0
176
     1
290
     0
176
     1
290
     0
176
     1
290
     0
176
     1
 90
       50
176
     1
 40
0.0
176
     1
 40
1.0
176
     1
 90
        0
176
     1
 62
    18
420
        0
176
     1
 90
       50
176
     1
 90
        3
176
     1
 62
     5
420
      255
176
     1
290
     0
176
     1
 90
       50
176
     1
 90
       50
176
     1
 90
       50
176
     1
290
     0
176
     1
 90
       50
176
     1
 62
   256
176
     0
 40
1.0
176
     0
 90
        2
176
     1
  1
strokes_ogs.tif
176
     1
290
     0
176
     1
 40
1.0
176
     1
 40
1.0
176
     1
  0
VISUALSTYLE
  5
41
102
{ACAD_REACTORS
330
29
102
}
330
29
100
AcDbVisualStyle
  2
EdgeColorOff
 70
    22
177
     3
291
     1
 70
    58
 90
        2
176
     0
 90
        2
176
     0
 90
        0
176
     0
 90
        0
176
     0
 40
0.6
176
     0
 40
30.0
176
     0
 62
     7
420
 16777215
176
     0
 90
        1
176
     0
 90
        4
176
     0
 62
     7
176
     0
 62
   257
176
     0
 90
        1
176
     0
 90
        1
176
     0
 40
1.0
176
     0
 90
        8
176
     2
 62
     7
176
     0
 40
1.0
176
     0
 90
        1
176
     0
 90
        6
176
     0
 90
        2
176
     0
 62
     7
176
     0
 90
        5
176
     0
 90
        0
176
     0
 90
        0
176
     0
290
     0
176
     0
 90
        1
176
     0
 40
0.0
176
     0
 90
        0
176
     0
290
     0
176
     0
290
     1
176
     0
290
     1
176
     0
290
     0
176
     0
290
     0
176
     0
290
     0
176
     0
290
     0
176
     0
290
     0
176
     0
290
     0
176
     0
 90
       50
176
     0
 40
0.0
176
     0
 40
1.0
176
     0
 90
        0
176
     0
 62
    18
420
        0
176
     0
 90
       50
176
     0
 90
        3
176
     0
 62
     5
420
      255
176
     0
290
     0
176
     0
 90
       50
176
     0
 90
       50
176
     0
 90
       50
176
     0
290
     0
176
     0
 90
       50
176
     0
 62
   256
176
     0
 40
1.0
176
     0
 90
        2
176
     0
  1
strokes_ogs.tif
176
     0
290
     0
176
     0
 40
1.0
176
     0
 40
1.0
176
     0
  0
VISUALSTYLE
  5
38
102
{ACAD_REACTORS
330
29
102
}
330
29
100
AcDbVisualStyle
  2
Facepattern
 70
    15
177
     3
291
     1
 70
    58
 90
        2
176
     1
 90
        2
176
     1
 90
        0
176
     1
 90
        0
176
     1
 40
0.6
176
     1
 40
30.0
176
     1
 62
     7
420
 16777215
176
     1
 90
        1
176
     1
 90
        4
176
     1
 62
     7
176
     1
 62
   257
176
     1
 90
        1
176
     1
 90
        1
176
     1
 40
1.0
176
     1
 90
        8
176
     1
 62
     7
176
     1
 40
1.0
176
     1
 90
        1
176
     1
 90
        6
176
     1
 90
        2
176
     1
 62
     7
176
     1
 90
        5
176
     1
 90
        0
176
     1
 90
        0
176
     1
290
     0
176
     1
 90
        1
176
     1
 40
0.0
176
     1
 90
        0
176
     1
290
     0
176
     1
290
     1
176
     1
290
     1
176
     1
290
     0
176
     1
290
     0
176
     1
290
     0
176
     1
290
     0
176
     1
290
     0
176
     1
290
     0
176
     1
 90
       50
176
     1
 40
0.0
176
     1
 40
1.0
176
     1
 90
        0
176
     1
 62
    18
420
        0
176
     1
 90
       50
176
     1
 90
        3
176
     1
 62
     5
420
      255
176
     1
290
     0
176
     1
 90
       50
176
     1
 90
       50
176
     1
 90
       50
176
     1
290
     0
176
     1
 90
       50
176
     1
 62
   256
176
     0
 40
1.0
176
     0
 90
        2
176
     1
  1
strokes_ogs.tif
176
     1
290
     0
176
     1
 40
1.0
176
     1
 40
1.0
176
     1
  0
VISUALSTYLE
  5
2A
102
{ACAD_REACTORS
330
29
102
}
330
29
100
AcDbVisualStyle
  2
Flat
 70
     0
177
     3
291
     1
 70
    58
 90
        2
176
     1
 90
        1
176
     1
 90
        1
176
     1
 90
        2
176
     1
 40
0.6
176
     1
 40
30.0
176
     1
 62
     7
420
 16777215
176
     1
 90
        0
176
     1
 90
        0
176
     1
 62
     7
176
     1
 62
   257
176
     1
 90
        1
176
     1
 90
        1
176
     1
 40
1.0
176
     1
 90
        8
176
     1
 62
     7
176
     1
 40
1.0
176
     1
 90
        1
176
     1
 90
        6
176
     1
 90
        2
176
     1
 62
     7
176
     1
 90
        5
176
     1
 90
        0
176
     1
 90
        0
176
     1
290
     0
176
     1
 90
       13
176
     1
 40
0.0
176
     1
 90
        0
176
     1
290
     0
176
     1
290
     1
176
     1
290
     1
176
     1
290
     0
176
     1
290
     0
176
     1
290
     0
176
     1
290
     0
176
     1
290
     0
176
     1
290
     0
176
     1
 90
       50
176
     1
 40
0.0
176
     1
 40
1.0
176
     1
 90
        0
176
     1
 62
    18
420
        0
176
     1
 90
       50
176
     1
 90
        3
176
     1
 62
     5
420
      255
176
     1
290
     0
176
     1
 90
       50
176
     1
 90
       50
176
     1
 90
       50
176
     1
290
     0
176
     1
 90
       50
176
     1
 62
   256
176
     0
 40
1.0
176
     0
 90
        2
176
     1
  1
strokes_ogs.tif
176
     1
290
     0
176
     1
 40
1.0
176
     1
 40
1.0
176
     1
  0
VISUALSTYLE
  5
2B
102
{ACAD_REACTORS
330
29
102
}
330
29
100
AcDbVisualStyle
  2
FlatWithEdges
 70
     1
177
     3
291
     1
 70
    58
 90
        2
176
     1
 90
        1
176
     1
 90
        1
176
     1
 90
        2
176
     1
 40
0.6
176
     1
 40
30.0
176
     1
 62
     7
420
 16777215
176
     1
 90
        1
176
     1
 90
        0
176
     1
 62
     7
176
     1
 62
   257
176
     1
 90
        1
176
     1
 90
        1
176
     1
 40
1.0
176
     1
 90
        0
176
     1
 62
   257
176
     1
 40
1.0
176
     1
 90
        1
176
     1
 90
        6
176
     1
 90
        2
176
     1
 62
     7
176
     1
 90
        5
176
     1
 90
        0
176
     1
 90
        0
176
     1
290
     0
176
     1
 90
       13
176
     1
 40
0.0
176
     1
 90
        0
176
     1
290
     0
176
     1
290
     1
176
     1
290
     1
176
     1
290
     0
176
     1
290
     0
176
     1
290
     0
176
     1
290
     0
176
     1
290
     0
176
     1
290
     0
176
     1
 90
       50
176
     1
 40
0.0
176
     1
 40
1.0
176
     1
 90
        0
176
     1
 62
    18
420
        0
176
     1
 90
       50
176
     1
 90
        3
176
     1
 62
     5
420
      255
176
     1
290
     0
176
     1
 90
       50
176
     1
 90
       50
176
     1
 90
       50
176
     1
290
     0
176
     1
 90
       50
176
     1
 62
   256
176
     0
 40
1.0
176
     0
 90
        2
176
     1
  1
strokes_ogs.tif
176
     1
290
     0
176
     1
 40
1.0
176
     1
 40
1.0
176
     1
  0
VISUALSTYLE
  5
2C
102
{ACAD_REACTORS
330
29
102
}
330
29
100
AcDbVisualStyle
  2
Gouraud
 70
     2
177
     3
291
     1
 70
    58
 90
        2
176
     1
 90
        2
176
     1
 90
        1
176
     1
 90
        2
176
     1
 40
0.6
176
     1
 40
30.0
176
     1
 62
     7
420
 16777215
176
     1
 90
        0
176
     1
 90
        0
176
     1
 62
     7
176
     1
 62
   257
176
     1
 90
        1
176
     1
 90
        1
176
     1
 40
1.0
176
     1
 90
        0
176
     1
 62
     7
176
     1
 40
1.0
176
     1
 90
        1
176
     1
 90
        6
176
     1
 90
        2
176
     1
 62
     7
176
     1
 90
        5
176
     1
 90
        0
176
     1
 90
        0
176
     1
290
     0
176
     1
 90
       13
176
     1
 40
0.0
176
     1
 90
        0
176
     1
290
     0
176
     1
290
     1
176
     1
290
     1
176
     1
290
     0
176
     1
290
     0
176
     1
290
     0
176
     1
290
     0
176
     1
290
     0
176
     1
290
     0
176
     1
 90
       50
176
     1
 40
0.0
176
     1
 40
1.0
176
     1
 90
        0
176
     1
 62
    18
420
        0
176
     1
 90
       50
176
     1
 90
        3
176
     1
 62
     5
420
      255
176
     1
290
     0
176
     1
 90
       50
176
     1
 90
       50
176
     1
 90
       50
176
     1
290
     0
176
     1
 90
       50
176
     1
 62
   256
176
     0
 40
1.0
176
     0
 90
        2
176
     1
  1
strokes_ogs.tif
176
     1
290
     0
176
     1
 40
1.0
176
     1
 40
1.0
176
     1
  0
VISUALSTYLE
  5
2D
102
{ACAD_REACTORS
330
29
102
}
330
29
100
AcDbVisualStyle
  2
GouraudWithEdges
 70
     3
177
     3
291
     1
 70
    58
 90
        2
176
     1
 90
        2
176
     1
 90
        1
176
     1
 90
        2
176
     1
 40
0.6
176
     1
 40
30.0
176
     1
 62
     7
420
 16777215
176
     1
 90
        1
176
     1
 90
        0
176
     1
 62
     7
176
     1
 62
   257
176
     1
 90
        1
176
     1
 90
        1
176
     1
 40
1.0
176
     1
 90
        0
176
     1
 62
   257
176
     1
 40
1.0
176
     1
 90
        1
176
     1
 90
        6
176
     1
 90
        2
176
     1
 62
     7
176
     1
 90
        5
176
     1
 90
        0
176
     1
 90
        0
176
     1
290
     0
176
     1
 90
       13
176
     1
 40
0.0
176
     1
 90
        0
176
     1
290
     0
176
     1
290
     1
176
     1
290
     1
176
     1
290
     0
176
     1
290
     0
176
     1
290
     0
176
     1
290
     0
176
     1
290
     0
176
     1
290
     0
176
     1
 90
       50
176
     1
 40
0.0
176
     1
 40
1.0
176
     1
 90
        0
176
     1
 62
    18
420
        0
176
     1
 90
       50
176
     1
 90
        3
176
     1
 62
     5
420
      255
176
     1
290
     0
176
     1
 90
       50
176
     1
 90
       50
176
     1
 90
       50
176
     1
290
     0
176
     1
 90
       50
176
     1
 62
   256
176
     0
 40
1.0
176
     0
 90
        2
176
     1
  1
strokes_ogs.tif
176
     1
290
     0
176
     1
 40
1.0
176
     1
 40
1.0
176
     1
  0
VISUALSTYLE
  5
31
102
{ACAD_REACTORS
330
29
102
}
330
29
100
AcDbVisualStyle
  2
Hidden
 70
     6
177
     3
291
     0
 70
    58
 90
        1
176
     1
 90
        2
176
     1
 90
        2
176
     1
 90
        0
176
     1
 40
0.6
176
     1
 40
30.0
176
     1
 62
     7
420
 16777215
176
     1
 90
        2
176
     1
 90
        2
176
     1
 62
     7
176
     1
 62
   257
176
     1
 90
        2
176
     1
 90
        1
176
     1
 40
40.0
176
     1
 90
        0
176
     1
 62
   257
176
     1
 40
1.0
176
     1
 90
        1
176
     1
 90
        6
176
     1
 90
        2
176
     1
 62
     7
176
     1
 90
        3
176
     1
 90
        0
176
     1
 90
        0
176
     1
290
     0
176
     1
 90
        1
176
     1
 40
0.0
176
     1
 90
        0
176
     1
290
     0
176
     1
290
     1
176
     1
290
     1
176
     1
290
     0
176
     1
290
     0
176
     1
290
     0
176
     1
290
     0
176
     1
290
     0
176
     1
290
     0
176
     1
 90
       50
176
     1
 40
0.0
176
     1
 40
1.0
176
     1
 90
        0
176
     1
 62
    18
420
        0
176
     1
 90
       50
176
     1
 90
        3
176
     1
 62
     5
420
      255
176
     1
290
     0
176
     1
 90
       50
176
     1
 90
       50
176
     1
 90
       50
176
     1
290
     0
176
     1
 90
       50
176
     1
 62
   256
176
     0
 40
1.0
176
     0
 90
        2
176
     1
  1
strokes_ogs.tif
176
     1
290
     0
176
     1
 40
1.0
176
     1
 40
1.0
176
     1
  0
VISUALSTYLE
  5
3F
102
{ACAD_REACTORS
330
29
102
}
330
29
100
AcDbVisualStyle
  2
JitterOff
 70
    20
177
     3
291
     1
 70
    58
 90
        2
176
     0
 90
        2
176
     0
 90
        0
176
     0
 90
        0
176
     0
 40
0.6
176
     0
 40
30.0
176
     0
 62
     7
420
 16777215
176
     0
 90
        1
176
     0
 90
        4
176
     0
 62
     7
176
     0
 62
   257
176
     0
 90
        1
176
     0
 90
        1
176
     0
 40
1.0
176
     0
 90
       10
176
     2
 62
     7
176
     0
 40
1.0
176
     0
 90
        1
176
     0
 90
        6
176
     0
 90
        2
176
     0
 62
     7
176
     0
 90
        5
176
     0
 90
        0
176
     0
 90
        0
176
     0
290
     0
176
     0
 90
        1
176
     0
 40
0.0
176
     0
 90
        0
176
     0
290
     0
176
     0
290
     1
176
     0
290
     1
176
     0
290
     0
176
     0
290
     0
176
     0
290
     0
176
     0
290
     0
176
     0
290
     0
176
     0
290
     0
176
     0
 90
       50
176
     0
 40
0.0
176
     0
 40
1.0
176
     0
 90
        0
176
     0
 62
    18
420
        0
176
     0
 90
       50
176
     0
 90
        3
176
     0
 62
     5
420
      255
176
     0
290
     0
176
     0
 90
       50
176
     0
 90
       50
176
     0
 90
       50
176
     0
290
     0
176
     0
 90
       50
176
     0
 62
   256
176
     0
 40
1.0
176
     0
 90
        2
176
     0
  1
strokes_ogs.tif
176
     0
290
     0
176
     0
 40
1.0
176
     0
 40
1.0
176
     0
  0
VISUALSTYLE
  5
37
102
{ACAD_REACTORS
330
29
102
}
330
29
100
AcDbVisualStyle
  2
Linepattern
 70
    14
177
     3
291
     1
 70
    58
 90
        2
176
     1
 90
        2
176
     1
 90
        0
176
     1
 90
        0
176
     1
 40
0.6
176
     1
 40
30.0
176
     1
 62
     7
420
 16777215
176
     1
 90
        1
176
     1
 90
        4
176
     1
 62
     7
176
     1
 62
   257
176
     1
 90
        7
176
     1
 90
        7
176
     1
 40
1.0
176
     1
 90
        8
176
     1
 62
     7
176
     1
 40
1.0
176
     1
 90
        1
176
     1
 90
        6
176
     1
 90
        2
176
     1
 62
     7
176
     1
 90
        5
176
     1
 90
        0
176
     1
 90
        0
176
     1
290
     0
176
     1
 90
        1
176
     1
 40
0.0
176
     1
 90
        0
176
     1
290
     0
176
     1
290
     1
176
     1
290
     1
176
     1
290
     0
176
     1
290
     0
176
     1
290
     0
176
     1
290
     0
176
     1
290
     0
176
     1
290
     0
176
     1
 90
       50
176
     1
 40
0.0
176
     1
 40
1.0
176
     1
 90
        0
176
     1
 62
    18
420
        0
176
     1
 90
       50
176
     1
 90
        3
176
     1
 62
     5
420
      255
176
     1
290
     0
176
     1
 90
       50
176
     1
 90
       50
176
     1
 90
       50
176
     1
290
     0
176
     1
 90
       50
176
     1
 62
   256
176
     0
 40
1.0
176
     0
 90
        2
176
     1
  1
strokes_ogs.tif
176
     1
290
     0
176
     1
 40
1.0
176
     1
 40
1.0
176
     1
  0
VISUALSTYLE
  5
40
102
{ACAD_REACTORS
330
29
102
}
330
29
100
AcDbVisualStyle
  2
OverhangOff
 70
    21
177
     3
291
     1
 70
    58
 90
        2
176
     0
 90
        2
176
     0
 90
        0
176
     0
 90
        0
176
     0
 40
0.6
176
     0
 40
30.0
176
     0
 62
     7
420
 16777215
176
     0
 90
        1
176
     0
 90
        4
176
     0
 62
     7
176
     0
 62
   257
176
     0
 90
        1
176
     0
 90
        1
176
     0
 40
1.0
176
     0
 90
        9
176
     2
 62
     7
176
     0
 40
1.0
176
     0
 90
        1
176
     0
 90
        6
176
     0
 90
        2
176
     0
 62
     7
176
     0
 90
        5
176
     0
 90
        0
176
     0
 90
        0
176
     0
290
     0
176
     0
 90
        1
176
     0
 40
0.0
176
     0
 90
        0
176
     0
290
     0
176
     0
290
     1
176
     0
290
     1
176
     0
290
     0
176
     0
290
     0
176
     0
290
     0
176
     0
290
     0
176
     0
290
     0
176
     0
290
     0
176
     0
 90
       50
176
     0
 40
0.0
176
     0
 40
1.0
176
     0
 90
        0
176
     0
 62
    18
420
        0
176
     0
 90
       50
176
     0
 90
        3
176
     0
 62
     5
420
      255
176
     0
290
     0
176
     0
 90
       50
176
     0
 90
       50
176
     0
 90
       50
176
     0
290
     0
176
     0
 90
       50
176
     0
 62
   256
176
     0
 40
1.0
176
     0
 90
        2
176
     0
  1
strokes_ogs.tif
176
     0
290
     0
176
     0
 40
1.0
176
     0
 40
1.0
176
     0
  0
VISUALSTYLE
  5
33
102
{ACAD_REACTORS
330
29
102
}
330
29
100
AcDbVisualStyle
  2
Realistic
 70
     8
177
     3
291
     0
 70
    58
 90
        2
176
     1
 90
        3
176
     1
 90
        0
176
     1
 90
        2
176
     1
 40
0.6
176
     1
 40
30.0
176
     1
 62
     7
420
 16777215
176
     1
 90
        0
176
     1
 90
        0
176
     1
 62
     7
176
     1
 62
   257
176
     1
 90
        1
176
     1
 90
        1
176
     1
 40
1.0
176
     1
 90
        8
176
     1
 62
   257
176
     1
 40
1.0
176
     1
 90
        1
176
     1
 90
        6
176
     1
 90
        2
176
     1
 62
     7
176
     1
 90
        3
176
     1
 90
        0
176
     1
 90
        0
176
     1
290
     0
176
     1
 90
       13
176
     1
 40
0.0
176
     1
 90
        0
176
     1
290
     0
176
     1
290
     1
176
     1
290
     1
176
     1
290
     0
176
     1
290
     0
176
     1
290
     0
176
     1
290
     0
176
     1
290
     0
176
     1
290
     0
176
     1
 90
       50
176
     1
 40
0.0
176
     1
 40
1.0
176
     1
 90
        0
176
     1
 62
    18
420
        0
176
     1
 90
       50
176
     1
 90
        3
176
     1
 62
     5
420
      255
176
     1
290
     0
176
     1
 90
       50
176
     1
 90
       50
176
     1
 90
       50
176
     1
290
     0
176
     1
 90
       50
176
     1
 62
   256
176
     0
 40
1.0
176
     0
 90
        2
176
     1
  1
strokes_ogs.tif
176
     1
290
     0
176
     1
 40
1.0
176
     1
 40
1.0
176
     1
  0
VISUALSTYLE
  5
3E
102
{ACAD_REACTORS
330
29
102
}
330
29
100
AcDbVisualStyle
  2
Shaded
 70
    27
177
     3
291
     0
 70
    58
 90
        2
176
     1
 90
        2
176
     1
 90
        1
176
     1
 90
        2
176
     1
 40
0.6
176
     1
 40
30.0
176
     1
 62
     7
420
 16777215
176
     1
 90
        0
176
     1
 90
        4
176
     1
 62
     7
176
     1
 62
   257
176
     1
 90
        1
176
     1
 90
        1
176
     1
 40
1.0
176
     1
 90
        8
176
     1
 62
   257
176
     1
 40
1.0
176
     1
 90
        1
176
     1
 90
        6
176
     1
 90
        2
176
     1
 62
     8
420
  7895160
176
     1
 90
        3
176
     1
 90
        0
176
     1
 90
        0
176
     1
290
     0
176
     1
 90
        5
176
     1
 40
0.0
176
     1
 90
        0
176
     1
290
     0
176
     1
290
     1
176
     1
290
     1
176
     1
290
     0
176
     1
290
     0
176
     1
290
     0
176
     1
290
     0
176
     1
290
     0
176
     1
290
     0
176
     1
 90
       50
176
     1
 40
0.0
176
     1
 40
1.0
176
     1
 90
        0
176
     1
 62
    18
420
        0
176
     1
 90
       50
176
     1
 90
        3
176
     1
 62
     5
420
      255
176
     1
290
     0
176
     1
 90
       50
176
     1
 90
       50
176
     1
 90
       50
176
     1
290
     0
176
     1
 90
       50
176
     1
 62
   256
176
     0
 40
1.0
176
     0
 90
        2
176
     1
  1
strokes_ogs.tif
176
     1
290
     0
176
     1
 40
1.0
176
     1
 40
1.0
176
     1
  0
VISUALSTYLE
  5
3D
102
{ACAD_REACTORS
330
29
102
}
330
29
100
AcDbVisualStyle
  2
Shaded with edges
 70
    26
177
     3
291
     0
 70
    58
 90
        2
176
     1
 90
        2
176
     1
 90
        1
176
     1
 90
        2
176
     1
 40
0.6
176
     1
 40
30.0
176
     1
 62
     7
420
 16777215
176
     1
 90
        1
176
     1
 90
        2
176
     1
 62
     7
176
     1
 62
   257
176
     1
 90
        2
176
     1
 90
        1
176
     1
 40
1.0
176
     1
 90
        8
176
     1
 62
   257
176
     1
 40
1.0
176
     1
 90
        1
176
     1
 90
        6
176
     1
 90
        2
176
     1
 62
     7
176
     1
 90
        3
176
     1
 90
        0
176
     1
 90
        0
176
     1
290
     0
176
     1
 90
        5
176
     1
 40
0.0
176
     1
 90
        0
176
     1
290
     0
176
     1
290
     1
176
     1
290
     1
176
     1
290
     0
176
     1
290
     0
176
     1
290
     0
176
     1
290
     0
176
     1
290
     0
176
     1
290
     0
176
     1
 90
       50
176
     1
 40
0.0
176
     1
 40
1.0
176
     1
 90
        0
176
     1
 62
    18
420
        0
176
     1
 90
       50
176
     1
 90
        3
176
     1
 62
     5
420
      255
176
     1
290
     0
176
     1
 90
       50
176
     1
 90
       50
176
     1
 90
       50
176
     1
290
     0
176
     1
 90
       50
176
     1
 62
   256
176
     0
 40
1.0
176
     0
 90
        2
176
     1
  1
strokes_ogs.tif
176
     1
290
     0
176
     1
 40
1.0
176
     1
 40
1.0
176
     1
  0
VISUALSTYLE
  5
3A
102
{ACAD_REACTORS
330
29
102
}
330
29
100
AcDbVisualStyle
  2
Shades of Gray
 70
    23
177
     3
291
     0
 70
    58
 90
        2
176
     1
 90
        2
176
     1
 90
        3
176
     1
 90
        0
176
     1
 40
0.6
176
     1
 40
30.0
176
     1
 62
     7
420
 16777215
176
     1
 90
        2
176
     1
 90
        2
176
     1
 62
     7
176
     1
 62
     7
176
     1
 90
        1
176
     1
 90
        1
176
     1
 40
40.0
176
     1
 90
        8
176
     1
 62
     7
176
     1
 40
1.0
176
     1
 90
        1
176
     1
 90
        6
176
     1
 90
        2
176
     1
 62
     7
176
     1
 90
        3
176
     1
 90
        0
176
     1
 90
        0
176
     1
290
     0
176
     1
 90
        1
176
     1
 40
0.0
176
     1
 90
        0
176
     1
290
     0
176
     1
290
     1
176
     1
290
     1
176
     1
290
     0
176
     1
290
     0
176
     1
290
     0
176
     1
290
     0
176
     1
290
     0
176
     1
290
     0
176
     1
 90
       50
176
     1
 40
0.0
176
     1
 40
1.0
176
     1
 90
        0
176
     1
 62
    18
420
        0
176
     1
 90
       50
176
     1
 90
        3
176
     1
 62
     5
420
      255
176
     1
290
     0
176
     1
 90
       50
176
     1
 90
       50
176
     1
 90
       50
176
     1
290
     0
176
     1
 90
       50
176
     1
 62
   256
176
     0
 40
1.0
176
     0
 90
        2
176
     1
  1
strokes_ogs.tif
176
     1
290
     0
176
     1
 40
1.0
176
     1
 40
1.0
176
     1
  0
VISUALSTYLE
  5
3B
102
{ACAD_REACTORS
330
29
102
}
330
29
100
AcDbVisualStyle
  2
Sketchy
 70
    24
177
     3
291
     0
 70
    58
 90
        1
176
     1
 90
        2
176
     1
 90
        2
176
     1
 90
        0
176
     1
 40
0.6
176
     1
 40
30.0
176
     1
 62
     7
420
 16777215
176
     1
 90
        2
176
     1
 90
        2
176
     1
 62
     7
176
     1
 62
     7
176
     1
 90
        1
176
     1
 90
        1
176
     1
 40
40.0
176
     1
 90
       11
176
     1
 62
     7
176
     1
 40
1.0
176
     1
 90
        1
176
     1
 90
        6
176
     1
 90
        2
176
     1
 62
     7
176
     1
 90
        6
176
     1
 90
        0
176
     1
 90
        0
176
     1
290
     0
176
     1
 90
        1
176
     1
 40
0.0
176
     1
 90
        0
176
     1
290
     0
176
     1
290
     1
176
     1
290
     1
176
     1
290
     0
176
     1
290
     0
176
     1
290
     0
176
     1
290
     0
176
     1
290
     0
176
     1
290
     0
176
     1
 90
       50
176
     1
 40
0.0
176
     1
 40
1.0
176
     1
 90
        0
176
     1
 62
    18
420
        0
176
     1
 90
       50
176
     1
 90
        3
176
     1
 62
     5
420
      255
176
     1
290
     0
176
     1
 90
       50
176
     1
 90
       50
176
     1
 90
       50
176
     1
290
     0
176
     1
 90
       50
176
     1
 62
   256
176
     0
 40
1.0
176
     0
 90
        2
176
     1
  1
strokes_ogs.tif
176
     1
290
     0
176
     1
 40
1.0
176
     1
 40
1.0
176
     1
  0
VISUALSTYLE
  5
36
102
{ACAD_REACTORS
330
29
102
}
330
29
100
AcDbVisualStyle
  2
Thicken
 70
    13
177
     3
291
     1
 70
    58
 90
        2
176
     1
 90
        2
176
     1
 90
        0
176
     1
 90
        0
176
     1
 40
0.6
176
     1
 40
30.0
176
     1
 62
     7
420
 16777215
176
     1
 90
        1
176
     1
 90
        4
176
     1
 62
     7
176
     1
 62
   257
176
     1
 90
        1
176
     1
 90
        1
176
     1
 40
1.0
176
     1
 90
       12
176
     1
 62
     7
176
     1
 40
1.0
176
     1
 90
        1
176
     1
 90
        6
176
     1
 90
        2
176
     1
 62
     7
176
     1
 90
        5
176
     1
 90
        0
176
     1
 90
        0
176
     1
290
     0
176
     1
 90
        1
176
     1
 40
0.0
176
     1
 90
        0
176
     1
290
     0
176
     1
290
     1
176
     1
290
     1
176
     1
290
     0
176
     1
290
     0
176
     1
290
     0
176
     1
290
     0
176
     1
290
     0
176
     1
290
     0
176
     1
 90
       50
176
     1
 40
0.0
176
     1
 40
1.0
176
     1
 90
        0
176
     1
 62
    18
420
        0
176
     1
 90
       50
176
     1
 90
        3
176
     1
 62
     5
420
      255
176
     1
290
     0
176
     1
 90
       50
176
     1
 90
       50
176
     1
 90
       50
176
     1
290
     0
176
     1
 90
       50
176
     1
 62
   256
176
     0
 40
1.0
176
     0
 90
        2
176
     1
  1
strokes_ogs.tif
176
     1
290
     0
176
     1
 40
1.0
176
     1
 40
1.0
176
     1
  0
VISUALSTYLE
  5
30
102
{ACAD_REACTORS
330
29
102
}
330
29
100
AcDbVisualStyle
  2
Wireframe
 70
     5
177
     3
291
     0
 70
    58
 90
        0
176
     1
 90
        2
176
     1
 90
        0
176
     1
 90
        0
176
     1
 40
0.6
176
     1
 40
30.0
176
     1
 62
     7
420
 16777215
176
     1
 90
        1
176
     1
 90
        4
176
     1
 62
     7
176
     1
 62
   257
176
     1
 90
        1
176
     1
 90
        1
176
     1
 40
1.0
176
     1
 90
        0
176
     1
 62
   257
176
     1
 40
1.0
176
     1
 90
        1
176
     1
 90
        6
176
     1
 90
        2
176
     1
 62
     7
176
     1
 90
        3
176
     1
 90
        0
176
     1
 90
        0
176
     1
290
     0
176
     1
 90
        1
176
     1
 40
0.0
176
     1
 90
        0
176
     1
290
     0
176
     1
290
     1
176
     1
290
     1
176
     1
290
     0
176
     1
290
     0
176
     1
290
     0
176
     1
290
     0
176
     1
290
     0
176
     1
290
     0
176
     1
 90
       50
176
     1
 40
0.0
176
     1
 40
1.0
176
     1
 90
        0
176
     1
 62
    18
420
        0
176
     1
 90
       50
176
     1
 90
        3
176
     1
 62
     5
420
      255
176
     1
290
     0
176
     1
 90
       50
176
     1
 90
       50
176
     1
 90
       50
176
     1
290
     0
176
     1
 90
       50
176
     1
 62
   256
176
     0
 40
1.0
176
     0
 90
        2
176
     1
  1
strokes_ogs.tif
176
     1
290
     0
176
     1
 40
1.0
176
     1
 40
1.0
176
     1
  0
VISUALSTYLE
  5
3C
102
{ACAD_REACTORS
330
29
102
}
330
29
100
AcDbVisualStyle
  2
X-Ray
 70
    25
177
     3
291
     0
 70
    58
 90
        2
176
     1
 90
        2
176
     1
 90
        1
176
     1
 90
        1
176
     1
 40
0.5
176
     1
 40
30.0
176
     1
 62
     7
420
 16777215
176
     1
 90
        1
176
     1
 90
        0
176
     1
 62
     7
176
     1
 62
   257
176
     1
 90
        1
176
     1
 90
        1
176
     1
 40
1.0
176
     1
 90
        8
176
     1
 62
     7
176
     1
 40
1.0
176
     1
 90
        1
176
     1
 90
        6
176
     1
 90
        2
176
     1
 62
     7
176
     1
 90
        3
176
     1
 90
        0
176
     1
 90
        0
176
     1
290
     0
176
     1
 90
       13
176
     1
 40
0.0
176
     1
 90
        0
176
     1
290
     0
176
     1
290
     1
176
     1
290
     1
176
     1
290
     0
176
     1
290
     0
176
     1
290
     0
176
     1
290
     0
176
     1
290
     0
176
     1
290
     0
176
     1
 90
       50
176
     1
 40
0.0
176
     1
 40
1.0
176
     1
 90
        0
176
     1
 62
    18
420
        0
176
     1
 90
       50
176
     1
 90
        3
176
     1
 62
     5
420
      255
176
     1
290
     0
176
     1
 90
       50
176
     1
 90
       50
176
     1
 90
       50
176
     1
290
     0
176
     1
 90
       50
176
     1
 62
   256
176
     0
 40
1.0
176
     0
 90
        2
176
     1
  1
strokes_ogs.tif
176
     1
290
     0
176
     1
 40
1.0
176
     1
 40
1.0
176
     1
  0
DICTIONARYVAR
  5
3AF
102
{ACAD_REACTORS
330
3AA
102
}
330
3AA
100
DictionaryVariables
280
     0
  1
1:1
  0
DICTIONARYVAR
  5
3AC
102
{ACAD_REACTORS
330
3AA
102
}
330
3AA
100
DictionaryVariables
280
     0
  1
STANDARD
  0
DICTIONARYVAR
  5
3AB
102
{ACAD_REACTORS
330
3AA
102
}
330
3AA
100
DictionaryVariables
280
     0
  1
STANDARD
  0
DICTIONARYVAR
  5
3AD
102
{ACAD_REACTORS
330
3AA
102
}
330
3AA
100
DictionaryVariables
280
     0
  1
Imperial24
  0
DICTIONARYVAR
  5
3AE
102
{ACAD_REACTORS
330
3AA
102
}
330
3AA
100
DictionaryVariables
280
     0
  1
Imperial24
  0
XRECORD
  5
3A6
102
{ACAD_REACTORS
330
3A2
102
}
330
3A2
100
AcDbXrecord
280
     1
  1
BUILDING_ID
  1
Fazenda Carnaubinha,  Acarí, Rio Grande do Norte
  1
FLOOR_ID
  1
22597365
  0
XRECORD
  5
3A4
102
{ACAD_REACTORS
330
3A2
102
}
330
3A2
100
AcDbXrecord
280
     1
  1
-2000051
  1
Linhas
  1
-2000280
  1
Blocos de margens e carimbo
  1
-2002000
  1
Itens de detalhe
  0
XRECORD
  5
3A5
102
{ACAD_REACTORS
330
3A2
102
}
330
3A2
100
AcDbXrecord
280
     1
  1
-2000042
  1
<Linhas finas>
  1
-2000281
  1
<Linhas finas>
  0
XRECORD
  5
3A3
102
{ACAD_REACTORS
330
3A2
102
}
330
3A2
100
AcDbXrecord
280
     1
  1
22598766
  1
A4 HORIZONTAL : A4
  1
383807
  1
Região preenchida : Marcenaria corte
  0
DICTIONARY
  5
1A
330
19
100
AcDbDictionary
280
     1
281
     1
  3
BUMPTILE
360
1C
  3
DIFFUSETILE
360
1B
  3
OPACITYTILE
360
1F
  3
REFLECTIONTILE
360
1E
  3
REFRACTIONTILE
360
20
  3
SPECULARTILE
360
1D
  0
DICTIONARY
  5
12
330
11
100
AcDbDictionary
280
     1
281
     1
  3
BUMPTILE
360
14
  3
DIFFUSETILE
360
13
  3
OPACITYTILE
360
17
  3
REFLECTIONTILE
360
16
  3
REFRACTIONTILE
360
18
  3
SPECULARTILE
360
15
  0
DICTIONARY
  5
22
330
21
100
AcDbDictionary
280
     1
281
     1
  3
BUMPTILE
360
24
  3
DIFFUSETILE
360
23
  3
OPACITYTILE
360
27
  3
REFLECTIONTILE
360
26
  3
REFRACTIONTILE
360
28
  3
SPECULARTILE
360
25
  0
DICTIONARY
  5
483
330
65
100
AcDbDictionary
280
     1
281
     1
  3
ACAD_ROUNDTRIP_2008_TABLESTYLE_CELLSTYLEMAP
360
484
  0
XRECORD
  5
1C
102
{ACAD_REACTORS
330
1A
102
}
330
1A
100
AcDbXrecord
280
     1
270
     1
271
     1
  0
XRECORD
  5
1B
102
{ACAD_REACTORS
330
1A
102
}
330
1A
100
AcDbXrecord
280
     1
270
     1
271
     1
  0
XRECORD
  5
1F
102
{ACAD_REACTORS
330
1A
102
}
330
1A
100
AcDbXrecord
280
     1
270
     1
271
     1
  0
XRECORD
  5
1E
102
{ACAD_REACTORS
330
1A
102
}
330
1A
100
AcDbXrecord
280
     1
270
     1
271
     1
  0
XRECORD
  5
20
102
{ACAD_REACTORS
330
1A
102
}
330
1A
100
AcDbXrecord
280
     1
270
     1
271
     1
  0
XRECORD
  5
1D
102
{ACAD_REACTORS
330
1A
102
}
330
1A
100
AcDbXrecord
280
     1
270
     1
271
     1
  0
XRECORD
  5
14
102
{ACAD_REACTORS
330
12
102
}
330
12
100
AcDbXrecord
280
     1
270
     1
271
     1
  0
XRECORD
  5
13
102
{ACAD_REACTORS
330
12
102
}
330
12
100
AcDbXrecord
280
     1
270
     1
271
     1
  0
XRECORD
  5
17
102
{ACAD_REACTORS
330
12
102
}
330
12
100
AcDbXrecord
280
     1
270
     1
271
     1
  0
XRECORD
  5
16
102
{ACAD_REACTORS
330
12
102
}
330
12
100
AcDbXrecord
280
     1
270
     1
271
     1
  0
XRECORD
  5
18
102
{ACAD_REACTORS
330
12
102
}
330
12
100
AcDbXrecord
280
     1
270
     1
271
     1
  0
XRECORD
  5
15
102
{ACAD_REACTORS
330
12
102
}
330
12
100
AcDbXrecord
280
     1
270
     1
271
     1
  0
XRECORD
  5
24
102
{ACAD_REACTORS
330
22
102
}
330
22
100
AcDbXrecord
280
     1
270
     1
271
     1
  0
XRECORD
  5
23
102
{ACAD_REACTORS
330
22
102
}
330
22
100
AcDbXrecord
280
     1
270
     1
271
     1
  0
XRECORD
  5
27
102
{ACAD_REACTORS
330
22
102
}
330
22
100
AcDbXrecord
280
     1
270
     1
271
     1
  0
XRECORD
  5
26
102
{ACAD_REACTORS
330
22
102
}
330
22
100
AcDbXrecord
280
     1
270
     1
271
     1
  0
XRECORD
  5
28
102
{ACAD_REACTORS
330
22
102
}
330
22
100
AcDbXrecord
280
     1
270
     1
271
     1
  0
XRECORD
  5
25
102
{ACAD_REACTORS
330
22
102
}
330
22
100
AcDbXrecord
280
     1
270
     1
271
     1
  0
CELLSTYLEMAP
  5
484
102
{ACAD_REACTORS
330
483
102
}
330
483
100
AcDbCellStyleMap
 90
        3
300
CELLSTYLE
  1
TABLEFORMAT_BEGIN
 90
        5
170
     1
 91
        0
 92
    32768
 62
   257
 93
        1
300
CONTENTFORMAT
  1
CONTENTFORMAT_BEGIN
 90
        0
 91
        0
 92
      512
 93
        0
300

 40
0.0
140
1.0
 94
        5
 62
     0
340
55
144
0.25
309
CONTENTFORMAT_END
171
     0
 94
        0
309
TABLEFORMAT_END
  1
CELLSTYLE_BEGIN
 90
        1
 91
        1
300
_TITLE
309
CELLSTYLE_END
300
CELLSTYLE
  1
TABLEFORMAT_BEGIN
 90
        5
170
     1
 91
        0
 92
        0
 62
   257
 93
        1
300
CONTENTFORMAT
  1
CONTENTFORMAT_BEGIN
 90
        0
 91
        0
 92
      512
 93
        0
300

 40
0.0
140
1.0
 94
        5
 62
     0
340
55
144
0.18
309
CONTENTFORMAT_END
171
     0
 94
        0
309
TABLEFORMAT_END
  1
CELLSTYLE_BEGIN
 90
        2
 91
        1
300
_HEADER
309
CELLSTYLE_END
300
CELLSTYLE
  1
TABLEFORMAT_BEGIN
 90
        5
170
     1
 91
        0
 92
        0
 62
   257
 93
        1
300
CONTENTFORMAT
  1
CONTENTFORMAT_BEGIN
 90
        0
 91
        0
 92
      512
 93
        0
300

 40
0.0
140
1.0
 94
        2
 62
     0
340
55
144
0.18
309
CONTENTFORMAT_END
171
     0
 94
        0
309
TABLEFORMAT_END
  1
CELLSTYLE_BEGIN
 90
        3
 91
        2
300
_DATA
309
CELLSTYLE_END
  0
ENDSEC
  0
SECTION
  2
ACDSDATA
 70
     2
 71
     8
  0
ACDSSCHEMA
 90
        0
  1
AcDb_Thumbnail_Schema
  2
AcDbDs::ID
280
    10
 91
        8
  2
Thumbnail_Data
280
    15
 91
        0
101
ACDSRECORD
 95
        0
 90
        1
  2
AcDbDs::TreatedAsObjectData
280
     1
291
     1
101
ACDSRECORD
 95
        0
 90
        2
  2
AcDbDs::Legacy
280
     1
291
     1
101
ACDSRECORD
  1
AcDbDs::ID
 90
        3
  2
AcDs:Indexable
280
     1
291
     1
101
ACDSRECORD
  1
AcDbDs::ID
 90
        4
  2
AcDbDs::HandleAttribute
280
     7
282
     1
  0
ACDSSCHEMA
 90
        1
  1
AcDbDs::TreatedAsObjectDataSchema
  2
AcDbDs::TreatedAsObjectData
280
     1
 91
        0
  0
ACDSSCHEMA
 90
        2
  1
AcDbDs::LegacySchema
  2
AcDbDs::Legacy
280
     1
 91
        0
  0
ACDSSCHEMA
 90
        3
  1
AcDbDs::IndexedPropertySchema
  2
AcDs:Indexable
280
     1
 91
        0
  0
ACDSSCHEMA
 90
        4
  1
AcDbDs::HandleAttributeSchema
  2
AcDbDs::HandleAttribute
280
     7
 91
        1
284
     1
  0
ACDSRECORD
 90
        0
  2
AcDbDs::ID
280
    10
320
77
  2
Thumbnail_Data
280
    15
 94
     1604
310
89504E470D0A1A0A0000000D4948445200000100000000B5080300000087DCD12600000300504C5445FFFFFFFFFFFFFFFFFF0000000000000000000000000000000000000000000000000000330000660000990000CC0000FF0033000033330033660033990033CC0033FF0066000066330066660066990066CC0066FF0099
310
000099330099660099990099CC0099FF00CC0000CC3300CC6600CC9900CCCC00CCFF00FF0000FF3300FF6600FF9900FFCC00FFFF3300003300333300663300993300CC3300FF3333003333333333663333993333CC3333FF3366003366333366663366993366CC3366FF3399003399333399663399993399CC3399FF33CC00
310
33CC3333CC6633CC9933CCCC33CCFF33FF0033FF3333FF6633FF9933FFCC33FFFF6600006600336600666600996600CC6600FF6633006633336633666633996633CC6633FF6666006666336666666666996666CC6666FF6699006699336699666699996699CC6699FF66CC0066CC3366CC6666CC9966CCCC66CCFF66FF0066
310
FF3366FF6666FF9966FFCC66FFFF9900009900339900669900999900CC9900FF9933009933339933669933999933CC9933FF9966009966339966669966999966CC9966FF9999009999339999669999999999CC9999FF99CC0099CC3399CC6699CC9999CCCC99CCFF99FF0099FF3399FF6699FF9999FFCC99FFFFCC0000CC00
310
33CC0066CC0099CC00CCCC00FFCC3300CC3333CC3366CC3399CC33CCCC33FFCC6600CC6633CC6666CC6699CC66CCCC66FFCC9900CC9933CC9966CC9999CC99CCCC99FFCCCC00CCCC33CCCC66CCCC99CCCCCCCCCCFFCCFF00CCFF33CCFF66CCFF99CCFFCCCCFFFFFF0000FF0033FF0066FF0099FF00CCFF00FFFF3300FF3333
310
FF3366FF3399FF33CCFF33FFFF6600FF6633FF6666FF6699FF66CCFF66FFFF9900FF9933FF9966FF9999FF99CCFF99FFFFCC00FFCC33FFCC66FFCC99FFCCCCFFCCFFFFFF00FFFF33FFFF66FFFF99FFFFCCFFFFFF0000000D0D0D1A1A1A2828283535354343435050505D5D5D6B6B6B787878868686939393A1A1A1AEAEAEBB
310
BBBBC9C9C9D6D6D6E4E4E4F1F1F1FFFFFF000000000000000000000000000000000000000000000000000000000000AD4AB4E4000002FF4944415478DAEDDD5B72AB300C8061EF7F33DD08ABD0638645747A0E01830D36587208FAFDD0E9249D627D48BE402E611479BD449CFE1CC73006CF0D000000000000000000000000
310
00000000000000206EF2A47609E041271A000000000000000000000000000000000000000000000000000000000000000000000000000000000000000000000000E80C20BE014482885B808A17B13E186089BD1BC19D00447EDED1CF189E0096C49FE2EE4270178055D92F51DB1BDC02603BEAC5215B13DC00602AFD55CC29
310
CF7301D2F892702DA7C50F036443CB3C6067F04180DDF54E0EC02C0D3E06304FFAA112C06830F814C0513097DFE8F5350085385ADEECF60500E508E627B3F531E812F4063828FD0C40AE0DA23A1AF40558F67A6D008A043D0192DDCEC51228CCA2370558F55703406969D007E068B7D300A051095D009233A506D09E05F600
310
B95A550568333006B8B490390BD094069600F29EF4CD011A08EC0096DC4CFBA50F7079403403383CDB2600D7D2C006A094EC4600575647060015A55E02386A4371A7389C115007F85FFAC3F179300538B75DD40698FA300C751BDEC2B3995AD896405A22FF0E5E6DA009B0EC75FEFA101400DE473A0D304FC1FD00A623CE9D
310
5005888E5809503D2728014C937ED4091D8054A01EA08E400760BBD7D1034804CA0012FD4979305000C8EC751401B6C3401160DB9BD215D84680FCAD1D4D80B0BE86B200E42393D51ABCBCF96803D8196AD3A5C8A62769B7E3A745560FEC026403E80970B0D4D70408721EA03EE31A00F6AFEF4A480156BFC85E0F2380F881
310
9B02ECFE6B6D8020B70408FD008200E01C20DE67F80408EFE9C031C0EADEA0CF0C0864C02A030E96C22E00F6FAE6A604DC01B8CF00EF00E14E25F0A04F93BF06307E6F03607B01D71BC0360D9C02A477DF7C014439E016A0ED3B46C6E7347FEB00BE65C6E2E628000000000000000000000000000000000000000000000000
310
000000000000000000000000000000000000000000000000F01C00EFAF1475D10000000000000000000000000000000000C029C0CB73FB0370DE7E014E5B43C2C70873470000000049454E44AE426082
  0
ACDSRECORD
 90
        0
  2
AcDbDs::ID
280
    10
320
73
  2
Thumbnail_Data
280
    15
 94
     1249
310
89504E470D0A1A0A0000000D494844520000010000000065080300000095E2CD0900000300504C5445FFFFFFFFFFFFFFFFFF0000000000000000000000000000000000000000000000000000330000660000990000CC0000FF0033000033330033660033990033CC0033FF0066000066330066660066990066CC0066FF0099
310
000099330099660099990099CC0099FF00CC0000CC3300CC6600CC9900CCCC00CCFF00FF0000FF3300FF6600FF9900FFCC00FFFF3300003300333300663300993300CC3300FF3333003333333333663333993333CC3333FF3366003366333366663366993366CC3366FF3399003399333399663399993399CC3399FF33CC00
310
33CC3333CC6633CC9933CCCC33CCFF33FF0033FF3333FF6633FF9933FFCC33FFFF6600006600336600666600996600CC6600FF6633006633336633666633996633CC6633FF6666006666336666666666996666CC6666FF6699006699336699666699996699CC6699FF66CC0066CC3366CC6666CC9966CCCC66CCFF66FF0066
310
FF3366FF6666FF9966FFCC66FFFF9900009900339900669900999900CC9900FF9933009933339933669933999933CC9933FF9966009966339966669966999966CC9966FF9999009999339999669999999999CC9999FF99CC0099CC3399CC6699CC9999CCCC99CCFF99FF0099FF3399FF6699FF9999FFCC99FFFFCC0000CC00
310
33CC0066CC0099CC00CCCC00FFCC3300CC3333CC3366CC3399CC33CCCC33FFCC6600CC6633CC6666CC6699CC66CCCC66FFCC9900CC9933CC9966CC9999CC99CCCC99FFCCCC00CCCC33CCCC66CCCC99CCCCCCCCCCFFCCFF00CCFF33CCFF66CCFF99CCFFCCCCFFFFFF0000FF0033FF0066FF0099FF00CCFF00FFFF3300FF3333
310
FF3366FF3399FF33CCFF33FFFF6600FF6633FF6666FF6699FF66CCFF66FFFF9900FF9933FF9966FF9999FF99CCFF99FFFFCC00FFCC33FFCC66FFCC99FFCCCCFFCCFFFFFF00FFFF33FFFF66FFFF99FFFFCCFFFFFF0000000D0D0D1A1A1A2828283535354343435050505D5D5D6B6B6B787878868686939393A1A1A1AEAEAEBB
310
BBBBC9C9C9D6D6D6E4E4E4F1F1F1FFFFFF000000000000000000000000000000000000000000000000000000000000AD4AB4E40000019C4944415478DAED98597283400C0575FFB3710A7DE7108963F0302B6B8866D45D2EDB50C5F27A36810800000000000000000018449DC7FFC1797C75EBE09DFCF7E351C1927AFEF2A6
310
2024FEFC387210855DFD71A2200EBACEEC6142CC22465BC34F888574A98081874239582E605005B550DAC041FCD0E8C9DE692407CD068D7A7D601AA73C5AC26F08C87AC018B3816615DF31019D2B28577CC704F45B1EA5F77D5A8074B928EC5ED57609E86E241C58D6770AE86936A824BE2CA01305D5F6BE4180FD09B1D5DD
310
AB028A4CDAA6AFC6BF53C03459AD92E7BB8A3AEFFE2120F148A89FE525E0FD0C694A416894B30262035B028C4D88EB9BF9730149956CAEE23B2D2032D0384BF612D156C17B418068D8AE3E0DAAA8D85910CAF58E965F0554F66B08249A0B486B0453028AD74F1BECD3AA898050E4AF37F60990EC0AFF2440EE1620DA9580E2
310
C846C02501CBE17E05485C4F7A15A0084040AB107224A0B4F48E2E60A3A0A6071811A0E6785AC097319E76604EC0CB817B014F76028B026607CF68302AE0B9B1A0A6110000000000000000000000000000000070C13748F9C174BE3A3DAC0000000049454E44AE426082
  0
ENDSEC
  0
EOF
