  0
SECTION
  2
HEADER
  9
$ACADVER
  1
AC1032
  9
$ACADMAINTVER
 90
      204
  9
$DWGCODEPAGE
  3
ANSI_1252
  9
$LASTSAVEDBY
  1
duda-
  9
$REQUIREDVERSIONS
160
                 0
  9
$INSBASE
 10
0.0
 20
0.0
 30
0.0
  9
$EXTMIN
 10
4922.401891757316
 20
-23608.28728549656
 30
0.0
  9
$EXTMAX
 10
13222.40189175738
 20
-1168.170448611852
 30
0.0
  9
$LIMMIN
 10
0.0
 20
0.0
  9
$LIMMAX
 10
12.0
 20
9.0
  9
$ORTHOMODE
 70
     0
  9
$REGENMODE
 70
     1
  9
$FILLMODE
 70
     1
  9
$QTEXTMODE
 70
     0
  9
$MIRRTEXT
 70
     0
  9
$LTSCALE
 40
1.0
  9
$ATTMODE
 70
     1
  9
$TEXTSIZE
 40
0.2
  9
$TRACEWID
 40
0.05
  9
$TEXTSTYLE
  7
Standard
  9
$CLAYER
  8
0
  9
$CELTYPE
  6
ByLayer
  9
$CECOLOR
 62
   256
  9
$CELTSCALE
 40
1.0
  9
$DISPSILH
 70
     0
  9
$DIMSCALE
 40
1.0
  9
$DIMASZ
 40
0.18
  9
$DIMEXO
 40
0.0625
  9
$DIMDLI
 40
0.38
  9
$DIMRND
 40
0.0
  9
$DIMDLE
 40
0.0
  9
$DIMEXE
 40
0.18
  9
$DIMTP
 40
0.0
  9
$DIMTM
 40
0.0
  9
$DIMTXT
 40
0.18
  9
$DIMCEN
 40
0.09
  9
$DIMTSZ
 40
0.0
  9
$DIMTOL
 70
     0
  9
$DIMLIM
 70
     0
  9
$DIMTIH
 70
     1
  9
$DIMTOH
 70
     1
  9
$DIMSE1
 70
     0
  9
$DIMSE2
 70
     0
  9
$DIMTAD
 70
     0
  9
$DIMZIN
 70
     0
  9
$DIMBLK
  1

  9
$DIMASO
 70
     1
  9
$DIMSHO
 70
     1
  9
$DIMPOST
  1

  9
$DIMAPOST
  1

  9
$DIMALT
 70
     0
  9
$DIMALTD
 70
     2
  9
$DIMALTF
 40
25.4
  9
$DIMLFAC
 40
1.0
  9
$DIMTOFL
 70
     0
  9
$DIMTVP
 40
0.0
  9
$DIMTIX
 70
     0
  9
$DIMSOXD
 70
     0
  9
$DIMSAH
 70
     0
  9
$DIMBLK1
  1

  9
$DIMBLK2
  1

  9
$DIMSTYLE
  2
Standard
  9
$DIMCLRD
 70
     0
  9
$DIMCLRE
 70
     0
  9
$DIMCLRT
 70
     0
  9
$DIMTFAC
 40
1.0
  9
$DIMGAP
 40
0.09
  9
$DIMJUST
 70
     0
  9
$DIMSD1
 70
     0
  9
$DIMSD2
 70
     0
  9
$DIMTOLJ
 70
     1
  9
$DIMTZIN
 70
     0
  9
$DIMALTZ
 70
     0
  9
$DIMALTTZ
 70
     0
  9
$DIMUPT
 70
     0
  9
$DIMDEC
 70
     4
  9
$DIMTDEC
 70
     4
  9
$DIMALTU
 70
     2
  9
$DIMALTTD
 70
     2
  9
$DIMTXSTY
  7
Standard
  9
$DIMAUNIT
 70
     0
  9
$DIMADEC
 70
     0
  9
$DIMALTRND
 40
0.0
  9
$DIMAZIN
 70
     0
  9
$DIMDSEP
 70
    46
  9
$DIMATFIT
 70
     3
  9
$DIMFRAC
 70
     0
  9
$DIMLDRBLK
  1

  9
$DIMLUNIT
 70
     2
  9
$DIMLWD
 70
    -2
  9
$DIMLWE
 70
    -2
  9
$DIMTMOVE
 70
     0
  9
$DIMFXL
 40
1.0
  9
$DIMFXLON
 70
     0
  9
$DIMJOGANG
 40
0.7853981633974483
  9
$DIMTFILL
 70
     0
  9
$DIMTFILLCLR
 70
     0
  9
$DIMARCSYM
 70
     0
  9
$DIMLTYPE
  6

  9
$DIMLTEX1
  6

  9
$DIMLTEX2
  6

  9
$DIMTXTDIRECTION
 70
     0
  9
$LUNITS
 70
     2
  9
$LUPREC
 70
     4
  9
$SKETCHINC
 40
0.1
  9
$FILLETRAD
 40
0.0
  9
$AUNITS
 70
     0
  9
$AUPREC
 70
     0
  9
$MENU
  1
.
  9
$ELEVATION
 40
0.0
  9
$PELEVATION
 40
0.0
  9
$THICKNESS
 40
0.0
  9
$LIMCHECK
 70
     0
  9
$CHAMFERA
 40
0.0
  9
$CHAMFERB
 40
0.0
  9
$CHAMFERC
 40
0.0
  9
$CHAMFERD
 40
0.0
  9
$SKPOLY
 70
     0
  9
$TDCREATE
 40
2460730.815324074
  9
$TDUCREATE
 40
2460730.940324074
  9
$TDUPDATE
 40
2460738.929618056
  9
$TDUUPDATE
 40
2460739.054618056
  9
$TDINDWG
 40
0.0098958333
  9
$TDUSRTIMER
 40
0.0098958333
  9
$USRTIMER
 70
     1
  9
$ANGBASE
 50
0.0
  9
$ANGDIR
 70
     0
  9
$PDMODE
 70
     0
  9
$PDSIZE
 40
0.0
  9
$PLINEWID
 40
0.0
  9
$SPLFRAME
 70
     0
  9
$SPLINETYPE
 70
     6
  9
$SPLINESEGS
 70
     8
  9
$HANDSEED
  5
2ED
  9
$SURFTAB1
 70
     6
  9
$SURFTAB2
 70
     6
  9
$SURFTYPE
 70
     6
  9
$SURFU
 70
     6
  9
$SURFV
 70
     6
  9
$UCSBASE
  2

  9
$UCSNAME
  2

  9
$UCSORG
 10
0.0
 20
0.0
 30
0.0
  9
$UCSXDIR
 10
1.0
 20
0.0
 30
0.0
  9
$UCSYDIR
 10
0.0
 20
1.0
 30
0.0
  9
$UCSORTHOREF
  2

  9
$UCSORTHOVIEW
 70
     0
  9
$UCSORGTOP
 10
0.0
 20
0.0
 30
0.0
  9
$UCSORGBOTTOM
 10
0.0
 20
0.0
 30
0.0
  9
$UCSORGLEFT
 10
0.0
 20
0.0
 30
0.0
  9
$UCSORGRIGHT
 10
0.0
 20
0.0
 30
0.0
  9
$UCSORGFRONT
 10
0.0
 20
0.0
 30
0.0
  9
$UCSORGBACK
 10
0.0
 20
0.0
 30
0.0
  9
$PUCSBASE
  2

  9
$PUCSNAME
  2

  9
$PUCSORG
 10
0.0
 20
0.0
 30
0.0
  9
$PUCSXDIR
 10
1.0
 20
0.0
 30
0.0
  9
$PUCSYDIR
 10
0.0
 20
1.0
 30
0.0
  9
$PUCSORTHOREF
  2

  9
$PUCSORTHOVIEW
 70
     0
  9
$PUCSORGTOP
 10
0.0
 20
0.0
 30
0.0
  9
$PUCSORGBOTTOM
 10
0.0
 20
0.0
 30
0.0
  9
$PUCSORGLEFT
 10
0.0
 20
0.0
 30
0.0
  9
$PUCSORGRIGHT
 10
0.0
 20
0.0
 30
0.0
  9
$PUCSORGFRONT
 10
0.0
 20
0.0
 30
0.0
  9
$PUCSORGBACK
 10
0.0
 20
0.0
 30
0.0
  9
$USERI1
 70
     0
  9
$USERI2
 70
     0
  9
$USERI3
 70
     0
  9
$USERI4
 70
     0
  9
$USERI5
 70
     0
  9
$USERR1
 40
0.0
  9
$USERR2
 40
0.0
  9
$USERR3
 40
0.0
  9
$USERR4
 40
0.0
  9
$USERR5
 40
0.0
  9
$WORLDVIEW
 70
     1
  9
$SHADEDGE
 70
     3
  9
$SHADEDIF
 70
    70
  9
$TILEMODE
 70
     0
  9
$MAXACTVP
 70
    64
  9
$PINSBASE
 10
0.0
 20
0.0
 30
0.0
  9
$PLIMCHECK
 70
     0
  9
$PEXTMIN
 10
64.29285070883699
 20
59.49999999998593
 30
0.0
  9
$PEXTMAX
 10
274.292850708837
 20
356.4999999999859
 30
0.0
  9
$PLIMMIN
 10
64.27901684485153
 20
59.47287840171589
  9
$PLIMMAX
 10
484.5984757423225
 20
356.6684553999278
  9
$UNITMODE
 70
     0
  9
$VISRETAIN
 70
     1
  9
$PLINEGEN
 70
     0
  9
$PSLTSCALE
 70
     0
  9
$TREEDEPTH
 70
  3020
  9
$CMLSTYLE
  2
Standard
  9
$CMLJUST
 70
     0
  9
$CMLSCALE
 40
1.0
  9
$PROXYGRAPHICS
 70
     1
  9
$MEASUREMENT
 70
     1
  9
$CELWEIGHT
370
    -1
  9
$ENDCAPS
280
     0
  9
$JOINSTYLE
280
     0
  9
$LWDISPLAY
290
     0
  9
$INSUNITS
 70
     4
  9
$HYPERLINKBASE
  1

  9
$STYLESHEET
  1

  9
$XEDIT
290
     1
  9
$CEPSNTYPE
380
     0
  9
$PSTYLEMODE
290
     1
  9
$FINGERPRINTGUID
  2
{354DF9E7-6130-544E-BBF0-89AB3C2C1514}
  9
$VERSIONGUID
  2
{4ED50C25-573A-4B4F-B9F9-58FAA8AD1C44}
  9
$EXTNAMES
290
     1
  9
$PSVPSCALE
 40
0.0
  9
$OLESTARTUP
290
     0
  9
$SORTENTS
280
   127
  9
$INDEXCTL
280
     0
  9
$HIDETEXT
280
     1
  9
$XCLIPFRAME
280
     2
  9
$HALOGAP
280
     0
  9
$OBSCOLOR
 70
   257
  9
$OBSLTYPE
280
     0
  9
$INTERSECTIONDISPLAY
280
     0
  9
$INTERSECTIONCOLOR
 70
   257
  9
$DIMASSOC
280
     2
  9
$PROJECTNAME
  1

  9
$CAMERADISPLAY
290
     0
  9
$LENSLENGTH
 40
50.0
  9
$CAMERAHEIGHT
 40
0.0
  9
$STEPSPERSEC
 40
2.0
  9
$STEPSIZE
 40
6.0
  9
$3DDWFPREC
 40
2.0
  9
$PSOLWIDTH
 40
0.25
  9
$PSOLHEIGHT
 40
4.0
  9
$LOFTANG1
 40
1.570796326794896
  9
$LOFTANG2
 40
1.570796326794896
  9
$LOFTMAG1
 40
0.0
  9
$LOFTMAG2
 40
0.0
  9
$LOFTPARAM
 70
     7
  9
$LOFTNORMALS
280
     1
  9
$LATITUDE
 40
0.0
  9
$LONGITUDE
 40
0.0
  9
$NORTHDIRECTION
 40
0.0
  9
$TIMEZONE
 70
     0
  9
$LIGHTGLYPHDISPLAY
280
     1
  9
$TILEMODELIGHTSYNCH
280
     1
  9
$CMATERIAL
347
11
  9
$SOLIDHIST
280
     0
  9
$SHOWHIST
280
     1
  9
$DWFFRAME
280
     2
  9
$DGNFRAME
280
     0
  9
$REALWORLDSCALE
290
     1
  9
$INTERFERECOLOR
 62
     1
  9
$INTERFEREOBJVS
345
33
  9
$INTERFEREVPVS
346
30
  9
$CSHADOW
280
     0
  9
$SHADOWPLANELOCATION
 40
0.0
  0
ENDSEC
  0
SECTION
  2
CLASSES
  0
CLASS
  1
ACDBDICTIONARYWDFLT
  2
AcDbDictionaryWithDefault
  3
ObjectDBX Classes
 90
        0
 91
        1
280
     0
281
     0
  0
CLASS
  1
MATERIAL
  2
AcDbMaterial
  3
ObjectDBX Classes
 90
     1153
 91
        3
280
     0
281
     0
  0
CLASS
  1
VISUALSTYLE
  2
AcDbVisualStyle
  3
ObjectDBX Classes
 90
     4095
 91
       24
280
     0
281
     0
  0
CLASS
  1
SCALE
  2
AcDbScale
  3
ObjectDBX Classes
 90
     1153
 91
       17
280
     0
281
     0
  0
CLASS
  1
TABLESTYLE
  2
AcDbTableStyle
  3
ObjectDBX Classes
 90
     4095
 91
        1
280
     0
281
     0
  0
CLASS
  1
MLEADERSTYLE
  2
AcDbMLeaderStyle
  3
ACDB_MLEADERSTYLE_CLASS
 90
     4095
 91
        1
280
     0
281
     0
  0
CLASS
  1
ACDBSECTIONVIEWSTYLE
  2
AcDbSectionViewStyle
  3
ObjectDBX Classes
 90
     1025
 91
        2
280
     0
281
     0
  0
CLASS
  1
ACDBDETAILVIEWSTYLE
  2
AcDbDetailViewStyle
  3
ObjectDBX Classes
 90
     1025
 91
        2
280
     0
281
     0
  0
CLASS
  1
RASTERVARIABLES
  2
AcDbRasterVariables
  3
ISM
 90
        0
 91
        1
280
     0
281
     0
  0
CLASS
  1
DICTIONARYVAR
  2
AcDbDictionaryVar
  3
ObjectDBX Classes
 90
        0
 91
        5
280
     0
281
     0
  0
CLASS
  1
SORTENTSTABLE
  2
AcDbSortentsTable
  3
ObjectDBX Classes
 90
        0
 91
        1
280
     0
281
     0
  0
CLASS
  1
SUN
  2
AcDbSun
  3
SCENEOE
 90
     1153
 91
        1
280
     0
281
     0
  0
CLASS
  1
RAPIDRTRENDERSETTINGS
  2
AcDbRapidRTRenderSettings
  3
ObjectDBX Classes
 90
     1024
 91
        7
280
     0
281
     0
  0
CLASS
  1
CELLSTYLEMAP
  2
AcDbCellStyleMap
  3
ObjectDBX Classes
 90
     1152
 91
        1
280
     0
281
     0
  0
ENDSEC
  0
SECTION
  2
TABLES
  0
TABLE
  2
VPORT
  5
8
330
0
100
AcDbSymbolTable
 70
     1
  0
VPORT
  5
57
330
8
100
AcDbSymbolTableRecord
100
AcDbViewportTableRecord
  2
*Active
 70
     0
 10
0.0
 20
0.0
 11
1.0
 21
1.0
 12
10279.56639853914
 22
-13385.17702977347
 13
0.0
 23
0.0
 14
1.0
 24
1.0
 15
0.0
 25
0.0
 16
0.0
 26
0.0
 36
1.0
 17
0.0
 27
0.0
 37
0.0
 40
37309.92587908009
 41
2.514397905759162
 42
50.0
 43
0.0
 44
0.0
 50
0.0
 51
0.0
 71
     0
 72
  1000
 73
     1
 74
     1
 75
     0
 76
     0
 77
     0
 78
     0
281
     0
 65
     1
110
0.0
120
0.0
130
0.0
111
1.0
121
0.0
131
0.0
112
0.0
122
1.0
132
0.0
 79
     0
146
0.0
348
2F
 60
     3
 61
     5
292
     1
282
     1
141
0.0
142
0.0
 63
   250
421
  3355443
361
277
1001
ACAD_NAV_VCDISPLAY
1070
     3
  0
ENDTAB
  0
TABLE
  2
LTYPE
  5
5
330
0
100
AcDbSymbolTable
 70
     1
  0
LTYPE
  5
5B
330
5
100
AcDbSymbolTableRecord
100
AcDbLinetypeTableRecord
  2
ByBlock
 70
     0
  3

 72
    65
 73
     0
 40
0.0
  0
LTYPE
  5
5C
330
5
100
AcDbSymbolTableRecord
100
AcDbLinetypeTableRecord
  2
ByLayer
 70
     0
  3

 72
    65
 73
     0
 40
0.0
  0
LTYPE
  5
5D
330
5
100
AcDbSymbolTableRecord
100
AcDbLinetypeTableRecord
  2
Continuous
 70
     0
  3
Solid line
 72
    65
 73
     0
 40
0.0
  0
ENDTAB
  0
TABLE
  2
LAYER
  5
2
102
{ACAD_XDICTIONARY
360
294
102
}
330
0
100
AcDbSymbolTable
 70
     6
  0
LAYER
  5
54
330
2
100
AcDbSymbolTableRecord
100
AcDbLayerTableRecord
  2
0
 70
     0
 62
   250
  6
Continuous
370
    25
390
F
347
21
348
0
  0
LAYER
  5
14A
330
2
100
AcDbSymbolTableRecord
100
AcDbLayerTableRecord
  2
A-PIL-___-___-EXI
 70
     0
 62
   250
  6
Continuous
370
    25
390
F
347
21
348
0
  0
LAYER
  5
157
330
2
100
AcDbSymbolTableRecord
100
AcDbLayerTableRecord
  2
A-POR-___-___-EXI
 70
     0
 62
   250
  6
Continuous
370
    25
390
F
347
21
348
0
  0
LAYER
  5
260
330
2
100
AcDbSymbolTableRecord
100
AcDbLayerTableRecord
  2
A-PIS-___-___-EXI
 70
     0
 62
   250
  6
Continuous
370
    25
390
F
347
21
348
0
  0
LAYER
  5
266
330
2
100
AcDbSymbolTableRecord
100
AcDbLayerTableRecord
  2
A-JAN-___-___-EXI
 70
     0
 62
   250
  6
Continuous
370
    25
390
F
347
21
348
0
  0
LAYER
  5
268
330
2
100
AcDbSymbolTableRecord
100
AcDbLayerTableRecord
  2
A-ALV-___-___-EXI
 70
     0
 62
   250
  6
Continuous
370
    35
390
F
347
21
348
0
  0
ENDTAB
  0
TABLE
  2
STYLE
  5
3
330
0
100
AcDbSymbolTable
 70
     2
  0
STYLE
  5
55
330
3
100
AcDbSymbolTableRecord
100
AcDbTextStyleTableRecord
  2
Standard
 70
     0
 40
0.0
 41
1.0
 50
0.0
 71
     0
 42
0.2
  3
txt
  4

  0
STYLE
  5
5A
330
3
100
AcDbSymbolTableRecord
100
AcDbTextStyleTableRecord
  2
Annotative
 70
     0
 40
0.0
 41
1.0
 50
0.0
 71
     0
 42
0.2
  3
txt
  4

1001
AcadAnnotative
1000
AnnotativeData
1002
{
1070
     1
1070
     1
1002
}
  0
ENDTAB
  0
TABLE
  2
VIEW
  5
6
330
0
100
AcDbSymbolTable
 70
     0
  0
ENDTAB
  0
TABLE
  2
UCS
  5
7
330
0
100
AcDbSymbolTable
 70
     0
  0
ENDTAB
  0
TABLE
  2
APPID
  5
9
330
0
100
AcDbSymbolTable
 70
     5
  0
APPID
  5
56
330
9
100
AcDbSymbolTableRecord
100
AcDbRegAppTableRecord
  2
ACAD
 70
     0
  0
APPID
  5
5E
330
9
100
AcDbSymbolTableRecord
100
AcDbRegAppTableRecord
  2
AcadAnnotative
 70
     0
  0
APPID
  5
78
330
9
100
AcDbSymbolTableRecord
100
AcDbRegAppTableRecord
  2
REVIT
 70
     0
  0
APPID
  5
287
330
9
100
AcDbSymbolTableRecord
100
AcDbRegAppTableRecord
  2
ACAD_PSEXT
 70
     0
  0
APPID
  5
2D1
330
9
100
AcDbSymbolTableRecord
100
AcDbRegAppTableRecord
  2
ACAD_NAV_VCDISPLAY
 70
     0
  0
ENDTAB
  0
TABLE
  2
DIMSTYLE
  5
A
330
0
100
AcDbSymbolTable
 70
     2
100
AcDbDimStyleTable
 71
     0
  0
DIMSTYLE
105
58
330
A
100
AcDbSymbolTableRecord
100
AcDbDimStyleTableRecord
  2
Standard
 70
     0
340
55
  0
DIMSTYLE
105
59
330
A
100
AcDbSymbolTableRecord
100
AcDbDimStyleTableRecord
  2
Annotative
 70
     0
340
55
1001
AcadAnnotative
1000
AnnotativeData
1002
{
1070
     1
1070
     1
1002
}
  0
ENDTAB
  0
TABLE
  2
BLOCK_RECORD
  5
1
330
0
100
AcDbSymbolTable
 70
     6
  0
BLOCK_RECORD
  5
70
102
{ACAD_XDICTIONARY
360
275
102
}
330
1
100
AcDbSymbolTableRecord
100
AcDbBlockTableRecord
  2
*Model_Space
340
73
 70
     0
280
     1
281
     0
  0
BLOCK_RECORD
  5
6C
330
1
100
AcDbSymbolTableRecord
100
AcDbBlockTableRecord
  2
*Paper_Space
340
6F
 70
     0
280
     1
281
     0
  0
BLOCK_RECORD
  5
149
330
1
100
AcDbSymbolTableRecord
100
AcDbBlockTableRecord
  2
porta multiplas_original - Simples - 80 cm-22543223-Planta baixa - Térreo_
340
0
102
{BLKREFS
331
1CC
331
1EE
331
15B
102
}
 70
     0
280
     1
281
     0
  0
BLOCK_RECORD
  5
173
330
1
100
AcDbSymbolTableRecord
100
AcDbBlockTableRecord
  2
porta multiplas - Simples - 80 cm-22542684-Planta baixa - Térreo_
340
0
102
{BLKREFS
331
185
102
}
 70
     0
280
     1
281
     0
  0
BLOCK_RECORD
  5
198
330
1
100
AcDbSymbolTableRecord
100
AcDbBlockTableRecord
  2
porta multiplas_original - Simples - 90 cm-22542629-Planta baixa - Térreo_
340
0
102
{BLKREFS
331
1A8
102
}
 70
     0
280
     1
281
     0
  0
BLOCK_RECORD
  5
1A9
330
1
100
AcDbSymbolTableRecord
100
AcDbBlockTableRecord
  2
porta multiplas_original - Simples - 80 cm-22543222-Planta baixa - Térreo_
340
0
102
{BLKREFS
331
1B9
331
1CB
102
}
 70
     0
280
     1
281
     0
  0
BLOCK_RECORD
  5
1BA
330
1
100
AcDbSymbolTableRecord
100
AcDbBlockTableRecord
  2
porta multiplas_original - Simples - 70 cm-22543457-Planta baixa - Térreo_
340
0
102
{BLKREFS
331
1CA
331
1EF
102
}
 70
     0
280
     1
281
     0
  0
BLOCK_RECORD
  5
267
330
1
100
AcDbSymbolTableRecord
100
AcDbBlockTableRecord
  2
SVG - A4-22584995-Não nomeada
340
0
102
{BLKREFS
331
26F
102
}
 70
     0
280
     1
281
     0
  0
ENDTAB
  0
ENDSEC
  0
SECTION
  2
BLOCKS
  0
BLOCK
  5
71
330
70
100
AcDbEntity
  8
0
100
AcDbBlockBegin
  2
*Model_Space
 70
     0
 10
0.0
 20
0.0
 30
0.0
  3
*Model_Space
  1

  0
ENDBLK
  5
72
330
70
100
AcDbEntity
  8
0
100
AcDbBlockEnd
  0
BLOCK
  5
6D
330
6C
100
AcDbEntity
 67
     1
  8
0
100
AcDbBlockBegin
  2
*Paper_Space
 70
     0
 10
0.0
 20
0.0
 30
0.0
  3
*Paper_Space
  1

  0
ENDBLK
  5
6E
330
6C
100
AcDbEntity
 67
     1
  8
0
100
AcDbBlockEnd
  0
BLOCK
  5
159
330
149
100
AcDbEntity
  8
0
100
AcDbBlockBegin
  2
porta multiplas_original - Simples - 80 cm-22543223-Planta baixa - Térreo_
 70
     0
 10
0.0
 20
0.0
 30
0.0
  3
porta multiplas_original - Simples - 80 cm-22543223-Planta baixa - Térreo_
  1

  0
LINE
  5
14B
330
149
100
AcDbEntity
  8
A-PIL-___-___-EXI
100
AcDbLine
 10
399.9999999999925
 20
109.9999999999987
 30
0.0
 11
429.999999999992
 21
109.9999999999986
 31
0.0
1001
REVIT
1002
{
1070
     1
1000
22423829
1002
}
1002
{
1070
     5
1000
22369145
1002
}
  0
LINE
  5
14C
330
149
100
AcDbEntity
  8
A-PIL-___-___-EXI
100
AcDbLine
 10
399.9999999999919
 20
-110.0000000009648
 30
0.0
 11
399.9999999999925
 21
109.9999999999987
 31
0.0
1001
REVIT
1002
{
1070
     1
1000
22423829
1002
}
1002
{
1070
     5
1000
22369145
1002
}
  0
LINE
  5
14D
330
149
100
AcDbEntity
  8
A-PIL-___-___-EXI
100
AcDbLine
 10
429.9999999999916
 20
-110.0000000009649
 30
0.0
 11
399.9999999999919
 21
-110.0000000009648
 31
0.0
1001
REVIT
1002
{
1070
     1
1000
22423829
1002
}
1002
{
1070
     5
1000
22369145
1002
}
  0
LINE
  5
14E
330
149
100
AcDbEntity
  8
A-PIL-___-___-EXI
100
AcDbLine
 10
429.999999999992
 20
109.9999999999986
 30
0.0
 11
429.9999999999916
 21
-110.0000000009649
 31
0.0
1001
REVIT
1002
{
1070
     1
1000
22423829
1002
}
1002
{
1070
     5
1000
22369145
1002
}
  0
LINE
  5
14F
330
149
100
AcDbEntity
  8
A-PIL-___-___-EXI
100
AcDbLine
 10
-430.0000000000072
 20
-110.0000000009633
 30
0.0
 11
-430.0000000000067
 21
110.0000000000002
 31
0.0
1001
REVIT
1002
{
1070
     1
1000
22423829
1002
}
1002
{
1070
     5
1000
22369145
1002
}
  0
LINE
  5
150
330
149
100
AcDbEntity
  8
A-PIL-___-___-EXI
100
AcDbLine
 10
-400.0000000000076
 20
-110.0000000009634
 30
0.0
 11
-430.0000000000072
 21
-110.0000000009633
 31
0.0
1001
REVIT
1002
{
1070
     1
1000
22423829
1002
}
1002
{
1070
     5
1000
22369145
1002
}
  0
LINE
  5
151
330
149
100
AcDbEntity
  8
A-PIL-___-___-EXI
100
AcDbLine
 10
-400.000000000007
 20
110.0000000000001
 30
0.0
 11
-400.0000000000076
 21
-110.0000000009634
 31
0.0
1001
REVIT
1002
{
1070
     1
1000
22423829
1002
}
1002
{
1070
     5
1000
22369145
1002
}
  0
LINE
  5
152
330
149
100
AcDbEntity
  8
A-PIL-___-___-EXI
100
AcDbLine
 10
-430.0000000000067
 20
110.0000000000002
 30
0.0
 11
-400.000000000007
 21
110.0000000000001
 31
0.0
1001
REVIT
1002
{
1070
     1
1000
22423829
1002
}
1002
{
1070
     5
1000
22369145
1002
}
  0
LINE
  5
153
330
149
100
AcDbEntity
  8
A-PIL-___-___-EXI
100
AcDbLine
 10
-368.0000000000084
 20
-110.0000000009634
 30
0.0
 11
-368.0000000000084
 21
-906.0000000009646
 31
0.0
1001
REVIT
1002
{
1070
     1
1000
22423829
1002
}
1002
{
1070
     5
1000
22369145
1002
}
  0
LINE
  5
154
330
149
100
AcDbEntity
  8
A-PIL-___-___-EXI
100
AcDbLine
 10
-398.0000000000086
 20
-110.0000000009634
 30
0.0
 11
-368.0000000000084
 21
-110.0000000009634
 31
0.0
1001
REVIT
1002
{
1070
     1
1000
22423829
1002
}
1002
{
1070
     5
1000
22369145
1002
}
  0
LINE
  5
155
330
149
100
AcDbEntity
  8
A-PIL-___-___-EXI
100
AcDbLine
 10
-398.0000000000086
 20
-906.0000000009642
 30
0.0
 11
-398.0000000000086
 21
-110.0000000009634
 31
0.0
1001
REVIT
1002
{
1070
     1
1000
22423829
1002
}
1002
{
1070
     5
1000
22369145
1002
}
  0
LINE
  5
156
330
149
100
AcDbEntity
  8
A-PIL-___-___-EXI
100
AcDbLine
 10
-368.0000000000084
 20
-906.0000000009646
 30
0.0
 11
-398.0000000000086
 21
-906.0000000009642
 31
0.0
1001
REVIT
1002
{
1070
     1
1000
22423829
1002
}
1002
{
1070
     5
1000
22369145
1002
}
  0
ARC
  5
158
330
149
100
AcDbEntity
  8
A-POR-___-___-EXI
100
AcDbCircle
 10
-398.0000000000086
 20
-110.0000000009634
 30
0.0
 40
795.9999999999994
100
AcDbArc
 50
269.9999999999996
 51
359.9999999999996
1001
REVIT
1002
{
1070
     1
1000
22423829
1002
}
1002
{
1070
     5
1000
22369145
1002
}
1002
{
1070
     3
1000
-2000027
1002
}
  0
ENDBLK
  5
15A
330
149
100
AcDbEntity
  8
0
100
AcDbBlockEnd
  0
BLOCK
  5
183
330
173
100
AcDbEntity
  8
0
100
AcDbBlockBegin
  2
porta multiplas - Simples - 80 cm-22542684-Planta baixa - Térreo_
 70
     0
 10
0.0
 20
0.0
 30
0.0
  3
porta multiplas - Simples - 80 cm-22542684-Planta baixa - Térreo_
  1

  0
LINE
  5
174
330
173
100
AcDbEntity
  8
A-PIL-___-___-EXI
100
AcDbLine
 10
-430.0000000000067
 20
-175.0
 30
0.0
 11
-400.000000000007
 21
-175.0
 31
0.0
1001
REVIT
1002
{
1070
     1
1000
22477705
1002
}
1002
{
1070
     5
1000
22355177
1002
}
  0
LINE
  5
175
330
173
100
AcDbEntity
  8
A-PIL-___-___-EXI
100
AcDbLine
 10
-400.000000000007
 20
-175.0
 30
0.0
 11
-400.0000000000076
 21
175.0000000009599
 31
0.0
1001
REVIT
1002
{
1070
     1
1000
22477705
1002
}
1002
{
1070
     5
1000
22355177
1002
}
  0
LINE
  5
176
330
173
100
AcDbEntity
  8
A-PIL-___-___-EXI
100
AcDbLine
 10
-400.0000000000076
 20
175.0000000009599
 30
0.0
 11
-430.0000000000072
 21
175.00000000096
 31
0.0
1001
REVIT
1002
{
1070
     1
1000
22477705
1002
}
1002
{
1070
     5
1000
22355177
1002
}
  0
LINE
  5
177
330
173
100
AcDbEntity
  8
A-PIL-___-___-EXI
100
AcDbLine
 10
-430.0000000000072
 20
175.00000000096
 30
0.0
 11
-430.0000000000067
 21
-175.0
 31
0.0
1001
REVIT
1002
{
1070
     1
1000
22477705
1002
}
1002
{
1070
     5
1000
22355177
1002
}
  0
LINE
  5
178
330
173
100
AcDbEntity
  8
A-PIL-___-___-EXI
100
AcDbLine
 10
429.9999999999932
 20
-175.0000000000015
 30
0.0
 11
429.9999999999926
 21
175.0000000009584
 31
0.0
1001
REVIT
1002
{
1070
     1
1000
22477705
1002
}
1002
{
1070
     5
1000
22355177
1002
}
  0
LINE
  5
179
330
173
100
AcDbEntity
  8
A-PIL-___-___-EXI
100
AcDbLine
 10
429.9999999999926
 20
175.0000000009584
 30
0.0
 11
400.9999999999975
 21
175.0000000009585
 31
0.0
1001
REVIT
1002
{
1070
     1
1000
22477705
1002
}
1002
{
1070
     5
1000
22355177
1002
}
  0
LINE
  5
17A
330
173
100
AcDbEntity
  8
A-PIL-___-___-EXI
100
AcDbLine
 10
400.9999999999975
 20
175.0000000009585
 30
0.0
 11
400.9999999999982
 21
-175.0000000000015
 31
0.0
1001
REVIT
1002
{
1070
     1
1000
22477705
1002
}
1002
{
1070
     5
1000
22355177
1002
}
  0
LINE
  5
17B
330
173
100
AcDbEntity
  8
A-PIL-___-___-EXI
100
AcDbLine
 10
400.9999999999982
 20
-175.0000000000015
 30
0.0
 11
429.9999999999932
 21
-175.0000000000015
 31
0.0
1001
REVIT
1002
{
1070
     1
1000
22477705
1002
}
1002
{
1070
     5
1000
22355177
1002
}
  0
LINE
  5
17C
330
173
100
AcDbEntity
  8
A-PIL-___-___-EXI
100
AcDbLine
 10
-368.0000000000041
 20
974.0000000009644
 30
0.0
 11
-398.0000000000043
 21
974.0000000009645
 31
0.0
1001
REVIT
1002
{
1070
     1
1000
22477705
1002
}
1002
{
1070
     5
1000
22355177
1002
}
  0
LINE
  5
17D
330
173
100
AcDbEntity
  8
A-PIL-___-___-EXI
100
AcDbLine
 10
-398.0000000000043
 20
974.0000000009645
 30
0.0
 11
-398.0000000000048
 21
175.0000000009642
 31
0.0
1001
REVIT
1002
{
1070
     1
1000
22477705
1002
}
1002
{
1070
     5
1000
22355177
1002
}
  0
LINE
  5
17E
330
173
100
AcDbEntity
  8
A-PIL-___-___-EXI
100
AcDbLine
 10
-398.0000000000043
 20
175.0000000009642
 30
0.0
 11
-368.0000000000046
 21
175.0000000009642
 31
0.0
1001
REVIT
1002
{
1070
     1
1000
22477705
1002
}
1002
{
1070
     5
1000
22355177
1002
}
  0
LINE
  5
17F
330
173
100
AcDbEntity
  8
A-PIL-___-___-EXI
100
AcDbLine
 10
-368.0000000000046
 20
175.0000000009642
 30
0.0
 11
-368.0000000000041
 21
974.0000000009644
 31
0.0
1001
REVIT
1002
{
1070
     1
1000
22477705
1002
}
1002
{
1070
     5
1000
22355177
1002
}
  0
ARC
  5
180
330
173
100
AcDbEntity
  8
A-POR-___-___-EXI
100
AcDbCircle
 10
-398.0000000000043
 20
175.0000000009642
 30
0.0
 40
799.0000000000003
100
AcDbArc
 50
359.9999999999996
 51
89.99999999999991
1001
REVIT
1002
{
1070
     1
1000
22477705
1002
}
1002
{
1070
     5
1000
22355177
1002
}
1002
{
1070
     3
1000
-2000027
1002
}
  0
LINE
  5
181
330
173
100
AcDbEntity
  8
A-PIL-___-___-EXI
100
AcDbLine
 10
429.9999999999937
 20
-175.0000000000015
 30
0.0
 11
444.9999999999936
 21
-175.0000000000058
 31
0.0
1001
REVIT
1002
{
1070
     1
1000
22477705
1002
}
1002
{
1070
     5
1000
22355177
1002
}
  0
LINE
  5
182
330
173
100
AcDbEntity
  8
A-PIL-___-___-EXI
100
AcDbLine
 10
444.9999999999941
 20
175.0000000009584
 30
0.0
 11
429.9999999999926
 21
175.0000000009584
 31
0.0
1001
REVIT
1002
{
1070
     1
1000
22477705
1002
}
1002
{
1070
     5
1000
22355177
1002
}
  0
ENDBLK
  5
184
330
173
100
AcDbEntity
  8
0
100
AcDbBlockEnd
  0
BLOCK
  5
1A6
330
198
100
AcDbEntity
  8
0
100
AcDbBlockBegin
  2
porta multiplas_original - Simples - 90 cm-22542629-Planta baixa - Térreo_
 70
     0
 10
0.0
 20
0.0
 30
0.0
  3
porta multiplas_original - Simples - 90 cm-22542629-Planta baixa - Térreo_
  1

  0
LINE
  5
199
330
198
100
AcDbEntity
  8
A-PIL-___-___-EXI
100
AcDbLine
 10
449.9999999999919
 20
174.9999999999968
 30
0.0
 11
479.9999999999916
 21
174.9999999999968
 31
0.0
1001
REVIT
1002
{
1070
     1
1000
22506642
1002
}
1002
{
1070
     5
1000
22369137
1002
}
  0
LINE
  5
19A
330
198
100
AcDbEntity
  8
A-PIL-___-___-EXI
100
AcDbLine
 10
449.9999999999924
 20
-175.0000000009631
 30
0.0
 11
449.9999999999919
 21
174.9999999999968
 31
0.0
1001
REVIT
1002
{
1070
     1
1000
22506642
1002
}
1002
{
1070
     5
1000
22369137
1002
}
  0
LINE
  5
19B
330
198
100
AcDbEntity
  8
A-PIL-___-___-EXI
100
AcDbLine
 10
479.999999999992
 20
-175.0000000009632
 30
0.0
 11
449.9999999999924
 21
-175.0000000009631
 31
0.0
1001
REVIT
1002
{
1070
     1
1000
22506642
1002
}
1002
{
1070
     5
1000
22369137
1002
}
  0
LINE
  5
19C
330
198
100
AcDbEntity
  8
A-PIL-___-___-EXI
100
AcDbLine
 10
479.9999999999916
 20
174.9999999999968
 30
0.0
 11
479.999999999992
 21
-175.0000000009632
 31
0.0
1001
REVIT
1002
{
1070
     1
1000
22506642
1002
}
1002
{
1070
     5
1000
22369137
1002
}
  0
LINE
  5
19D
330
198
100
AcDbEntity
  8
A-PIL-___-___-EXI
100
AcDbLine
 10
-480.0000000000067
 20
-175.0000000009615
 30
0.0
 11
-480.0000000000072
 21
174.9999999999985
 31
0.0
1001
REVIT
1002
{
1070
     1
1000
22506642
1002
}
1002
{
1070
     5
1000
22369137
1002
}
  0
LINE
  5
19E
330
198
100
AcDbEntity
  8
A-PIL-___-___-EXI
100
AcDbLine
 10
-450.0000000000065
 20
-175.0000000009615
 30
0.0
 11
-480.0000000000067
 21
-175.0000000009615
 31
0.0
1001
REVIT
1002
{
1070
     1
1000
22506642
1002
}
1002
{
1070
     5
1000
22369137
1002
}
  0
LINE
  5
19F
330
198
100
AcDbEntity
  8
A-PIL-___-___-EXI
100
AcDbLine
 10
-450.000000000007
 20
174.9999999999984
 30
0.0
 11
-450.0000000000065
 21
-175.0000000009615
 31
0.0
1001
REVIT
1002
{
1070
     1
1000
22506642
1002
}
1002
{
1070
     5
1000
22369137
1002
}
  0
LINE
  5
1A0
330
198
100
AcDbEntity
  8
A-PIL-___-___-EXI
100
AcDbLine
 10
-480.0000000000072
 20
174.9999999999985
 30
0.0
 11
-450.000000000007
 21
174.9999999999984
 31
0.0
1001
REVIT
1002
{
1070
     1
1000
22506642
1002
}
1002
{
1070
     5
1000
22369137
1002
}
  0
LINE
  5
1A1
330
198
100
AcDbEntity
  8
A-PIL-___-___-EXI
100
AcDbLine
 10
-418.0000000000072
 20
-175.0000000009659
 30
0.0
 11
-418.0000000000072
 21
-1071.000000000966
 31
0.0
1001
REVIT
1002
{
1070
     1
1000
22506642
1002
}
1002
{
1070
     5
1000
22369137
1002
}
  0
LINE
  5
1A2
330
198
100
AcDbEntity
  8
A-PIL-___-___-EXI
100
AcDbLine
 10
-448.0000000000075
 20
-175.0000000009659
 30
0.0
 11
-418.0000000000072
 21
-175.0000000009659
 31
0.0
1001
REVIT
1002
{
1070
     1
1000
22506642
1002
}
1002
{
1070
     5
1000
22369137
1002
}
  0
LINE
  5
1A3
330
198
100
AcDbEntity
  8
A-PIL-___-___-EXI
100
AcDbLine
 10
-448.0000000000075
 20
-1071.000000000966
 30
0.0
 11
-448.0000000000075
 21
-175.0000000009659
 31
0.0
1001
REVIT
1002
{
1070
     1
1000
22506642
1002
}
1002
{
1070
     5
1000
22369137
1002
}
  0
LINE
  5
1A4
330
198
100
AcDbEntity
  8
A-PIL-___-___-EXI
100
AcDbLine
 10
-418.0000000000072
 20
-1071.000000000966
 30
0.0
 11
-448.0000000000075
 21
-1071.000000000966
 31
0.0
1001
REVIT
1002
{
1070
     1
1000
22506642
1002
}
1002
{
1070
     5
1000
22369137
1002
}
  0
ARC
  5
1A5
330
198
100
AcDbEntity
  8
A-POR-___-___-EXI
100
AcDbCircle
 10
-448.0000000000075
 20
-175.0000000009659
 30
0.0
 40
895.9999999999983
100
AcDbArc
 50
269.9999999999996
 51
0.0
1001
REVIT
1002
{
1070
     1
1000
22506642
1002
}
1002
{
1070
     5
1000
22369137
1002
}
1002
{
1070
     3
1000
-2000027
1002
}
  0
ENDBLK
  5
1A7
330
198
100
AcDbEntity
  8
0
100
AcDbBlockEnd
  0
BLOCK
  5
1B7
330
1A9
100
AcDbEntity
  8
0
100
AcDbBlockBegin
  2
porta multiplas_original - Simples - 80 cm-22543222-Planta baixa - Térreo_
 70
     0
 10
0.0
 20
0.0
 30
0.0
  3
porta multiplas_original - Simples - 80 cm-22543222-Planta baixa - Térreo_
  1

  0
LINE
  5
1AA
330
1A9
100
AcDbEntity
  8
A-PIL-___-___-EXI
100
AcDbLine
 10
-430.0000000000072
 20
-110.0000000000018
 30
0.0
 11
-400.0000000000076
 21
-110.0000000000018
 31
0.0
1001
REVIT
1002
{
1070
     1
1000
22506790
1002
}
1002
{
1070
     5
1000
22369145
1002
}
  0
LINE
  5
1AB
330
1A9
100
AcDbEntity
  8
A-PIL-___-___-EXI
100
AcDbLine
 10
-400.0000000000076
 20
-110.0000000000018
 30
0.0
 11
-400.000000000007
 21
110.0000000009617
 31
0.0
1001
REVIT
1002
{
1070
     1
1000
22506790
1002
}
1002
{
1070
     5
1000
22369145
1002
}
  0
LINE
  5
1AC
330
1A9
100
AcDbEntity
  8
A-PIL-___-___-EXI
100
AcDbLine
 10
-400.000000000007
 20
110.0000000009617
 30
0.0
 11
-430.0000000000067
 21
110.0000000009617
 31
0.0
1001
REVIT
1002
{
1070
     1
1000
22506790
1002
}
1002
{
1070
     5
1000
22369145
1002
}
  0
LINE
  5
1AD
330
1A9
100
AcDbEntity
  8
A-PIL-___-___-EXI
100
AcDbLine
 10
-430.0000000000067
 20
110.0000000009617
 30
0.0
 11
-430.0000000000072
 21
-110.0000000000018
 31
0.0
1001
REVIT
1002
{
1070
     1
1000
22506790
1002
}
1002
{
1070
     5
1000
22369145
1002
}
  0
LINE
  5
1AE
330
1A9
100
AcDbEntity
  8
A-PIL-___-___-EXI
100
AcDbLine
 10
429.9999999999916
 20
-110.0000000000033
 30
0.0
 11
429.999999999992
 21
110.0000000009602
 31
0.0
1001
REVIT
1002
{
1070
     1
1000
22506790
1002
}
1002
{
1070
     5
1000
22369145
1002
}
  0
LINE
  5
1AF
330
1A9
100
AcDbEntity
  8
A-PIL-___-___-EXI
100
AcDbLine
 10
429.999999999992
 20
110.0000000009602
 30
0.0
 11
399.9999999999925
 21
110.0000000009603
 31
0.0
1001
REVIT
1002
{
1070
     1
1000
22506790
1002
}
1002
{
1070
     5
1000
22369145
1002
}
  0
LINE
  5
1B0
330
1A9
100
AcDbEntity
  8
A-PIL-___-___-EXI
100
AcDbLine
 10
399.9999999999925
 20
110.0000000009603
 30
0.0
 11
399.9999999999919
 21
-110.0000000000032
 31
0.0
1001
REVIT
1002
{
1070
     1
1000
22506790
1002
}
1002
{
1070
     5
1000
22369145
1002
}
  0
LINE
  5
1B1
330
1A9
100
AcDbEntity
  8
A-PIL-___-___-EXI
100
AcDbLine
 10
399.9999999999919
 20
-110.0000000000032
 30
0.0
 11
429.9999999999916
 21
-110.0000000000033
 31
0.0
1001
REVIT
1002
{
1070
     1
1000
22506790
1002
}
1002
{
1070
     5
1000
22369145
1002
}
  0
LINE
  5
1B2
330
1A9
100
AcDbEntity
  8
A-PIL-___-___-EXI
100
AcDbLine
 10
-368.0000000000084
 20
906.0000000009626
 30
0.0
 11
-398.0000000000086
 21
906.0000000009626
 31
0.0
1001
REVIT
1002
{
1070
     1
1000
22506790
1002
}
1002
{
1070
     5
1000
22369145
1002
}
  0
LINE
  5
1B3
330
1A9
100
AcDbEntity
  8
A-PIL-___-___-EXI
100
AcDbLine
 10
-398.0000000000086
 20
906.0000000009626
 30
0.0
 11
-398.0000000000081
 21
110.0000000009617
 31
0.0
1001
REVIT
1002
{
1070
     1
1000
22506790
1002
}
1002
{
1070
     5
1000
22369145
1002
}
  0
LINE
  5
1B4
330
1A9
100
AcDbEntity
  8
A-PIL-___-___-EXI
100
AcDbLine
 10
-398.0000000000081
 20
110.0000000009617
 30
0.0
 11
-368.0000000000078
 21
110.0000000009617
 31
0.0
1001
REVIT
1002
{
1070
     1
1000
22506790
1002
}
1002
{
1070
     5
1000
22369145
1002
}
  0
LINE
  5
1B5
330
1A9
100
AcDbEntity
  8
A-PIL-___-___-EXI
100
AcDbLine
 10
-368.0000000000078
 20
110.0000000009617
 30
0.0
 11
-368.0000000000084
 21
906.0000000009626
 31
0.0
1001
REVIT
1002
{
1070
     1
1000
22506790
1002
}
1002
{
1070
     5
1000
22369145
1002
}
  0
ARC
  5
1B6
330
1A9
100
AcDbEntity
  8
A-POR-___-___-EXI
100
AcDbCircle
 10
-398.0000000000081
 20
110.0000000009617
 30
0.0
 40
796.0000000000001
100
AcDbArc
 50
359.9999999999996
 51
89.99999999999992
1001
REVIT
1002
{
1070
     1
1000
22506790
1002
}
1002
{
1070
     5
1000
22369145
1002
}
1002
{
1070
     3
1000
-2000027
1002
}
  0
ENDBLK
  5
1B8
330
1A9
100
AcDbEntity
  8
0
100
AcDbBlockEnd
  0
BLOCK
  5
1C8
330
1BA
100
AcDbEntity
  8
0
100
AcDbBlockBegin
  2
porta multiplas_original - Simples - 70 cm-22543457-Planta baixa - Térreo_
 70
     0
 10
0.0
 20
0.0
 30
0.0
  3
porta multiplas_original - Simples - 70 cm-22543457-Planta baixa - Térreo_
  1

  0
LINE
  5
1BB
330
1BA
100
AcDbEntity
  8
A-PIL-___-___-EXI
100
AcDbLine
 10
349.9999999999924
 20
149.9999999999984
 30
0.0
 11
379.9999999999921
 21
149.9999999999983
 31
0.0
1001
REVIT
1002
{
1070
     1
1000
22506891
1002
}
1002
{
1070
     5
1000
22369135
1002
}
  0
LINE
  5
1BC
330
1BA
100
AcDbEntity
  8
A-PIL-___-___-EXI
100
AcDbLine
 10
349.9999999999919
 20
-150.0000000009643
 30
0.0
 11
349.9999999999924
 21
149.9999999999984
 31
0.0
1001
REVIT
1002
{
1070
     1
1000
22506891
1002
}
1002
{
1070
     5
1000
22369135
1002
}
  0
LINE
  5
1BD
330
1BA
100
AcDbEntity
  8
A-PIL-___-___-EXI
100
AcDbLine
 10
379.9999999999916
 20
-150.0000000009644
 30
0.0
 11
349.9999999999919
 21
-150.0000000009643
 31
0.0
1001
REVIT
1002
{
1070
     1
1000
22506891
1002
}
1002
{
1070
     5
1000
22369135
1002
}
  0
LINE
  5
1BE
330
1BA
100
AcDbEntity
  8
A-PIL-___-___-EXI
100
AcDbLine
 10
379.9999999999921
 20
149.9999999999983
 30
0.0
 11
379.9999999999916
 21
-150.0000000009644
 31
0.0
1001
REVIT
1002
{
1070
     1
1000
22506891
1002
}
1002
{
1070
     5
1000
22369135
1002
}
  0
LINE
  5
1BF
330
1BA
100
AcDbEntity
  8
A-PIL-___-___-EXI
100
AcDbLine
 10
-380.0000000000073
 20
-150.000000000963
 30
0.0
 11
-380.0000000000068
 21
149.9999999999996
 31
0.0
1001
REVIT
1002
{
1070
     1
1000
22506891
1002
}
1002
{
1070
     5
1000
22369135
1002
}
  0
LINE
  5
1C0
330
1BA
100
AcDbEntity
  8
A-PIL-___-___-EXI
100
AcDbLine
 10
-350.0000000000071
 20
-150.000000000963
 30
0.0
 11
-380.0000000000073
 21
-150.000000000963
 31
0.0
1001
REVIT
1002
{
1070
     1
1000
22506891
1002
}
1002
{
1070
     5
1000
22369135
1002
}
  0
LINE
  5
1C1
330
1BA
100
AcDbEntity
  8
A-PIL-___-___-EXI
100
AcDbLine
 10
-350.0000000000065
 20
149.9999999999996
 30
0.0
 11
-350.0000000000071
 21
-150.000000000963
 31
0.0
1001
REVIT
1002
{
1070
     1
1000
22506891
1002
}
1002
{
1070
     5
1000
22369135
1002
}
  0
LINE
  5
1C2
330
1BA
100
AcDbEntity
  8
A-PIL-___-___-EXI
100
AcDbLine
 10
-380.0000000000068
 20
149.9999999999996
 30
0.0
 11
-350.0000000000065
 21
149.9999999999996
 31
0.0
1001
REVIT
1002
{
1070
     1
1000
22506891
1002
}
1002
{
1070
     5
1000
22369135
1002
}
  0
LINE
  5
1C3
330
1BA
100
AcDbEntity
  8
A-PIL-___-___-EXI
100
AcDbLine
 10
-318.0000000000078
 20
-150.0000000009631
 30
0.0
 11
-318.0000000000073
 21
-846.0000000009651
 31
0.0
1001
REVIT
1002
{
1070
     1
1000
22506891
1002
}
1002
{
1070
     5
1000
22369135
1002
}
  0
LINE
  5
1C4
330
1BA
100
AcDbEntity
  8
A-PIL-___-___-EXI
100
AcDbLine
 10
-348.0000000000081
 20
-150.0000000009631
 30
0.0
 11
-318.0000000000078
 21
-150.0000000009631
 31
0.0
1001
REVIT
1002
{
1070
     1
1000
22506891
1002
}
1002
{
1070
     5
1000
22369135
1002
}
  0
LINE
  5
1C5
330
1BA
100
AcDbEntity
  8
A-PIL-___-___-EXI
100
AcDbLine
 10
-348.0000000000075
 20
-846.0000000009651
 30
0.0
 11
-348.0000000000081
 21
-150.0000000009631
 31
0.0
1001
REVIT
1002
{
1070
     1
1000
22506891
1002
}
1002
{
1070
     5
1000
22369135
1002
}
  0
LINE
  5
1C6
330
1BA
100
AcDbEntity
  8
A-PIL-___-___-EXI
100
AcDbLine
 10
-318.0000000000073
 20
-846.0000000009651
 30
0.0
 11
-348.0000000000075
 21
-846.0000000009651
 31
0.0
1001
REVIT
1002
{
1070
     1
1000
22506891
1002
}
1002
{
1070
     5
1000
22369135
1002
}
  0
ARC
  5
1C7
330
1BA
100
AcDbEntity
  8
A-POR-___-___-EXI
100
AcDbCircle
 10
-348.0000000000081
 20
-150.0000000009631
 30
0.0
 40
695.9999999999991
100
AcDbArc
 50
269.9999999999997
 51
0.0000000000000095
1001
REVIT
1002
{
1070
     1
1000
22506891
1002
}
1002
{
1070
     5
1000
22369135
1002
}
1002
{
1070
     3
1000
-2000027
1002
}
  0
ENDBLK
  5
1C9
330
1BA
100
AcDbEntity
  8
0
100
AcDbBlockEnd
  0
BLOCK
  5
26D
330
267
100
AcDbEntity
  8
0
100
AcDbBlockBegin
  2
SVG - A4-22584995-Não nomeada
 70
     0
 10
0.0
 20
0.0
 30
0.0
  3
SVG - A4-22584995-Não nomeada
  1

  0
LINE
  5
269
330
267
100
AcDbEntity
  8
A-ALV-___-___-EXI
100
AcDbLine
 10
64.29285070883699
 20
356.4999999999859
 30
0.0
 11
64.29285070883699
 21
59.49999999998593
 31
0.0
1001
REVIT
1002
{
1070
     1
1000
22585010
1002
}
1002
{
1070
     5
1000
22584995
1002
}
1002
{
1070
     3
1000
-2000281
1002
}
  0
LINE
  5
26A
330
267
100
AcDbEntity
  8
A-ALV-___-___-EXI
100
AcDbLine
 10
64.29285070883699
 20
59.49999999998593
 30
0.0
 11
274.292850708837
 21
59.49999999998593
 31
0.0
1001
REVIT
1002
{
1070
     1
1000
22585010
1002
}
1002
{
1070
     5
1000
22584995
1002
}
1002
{
1070
     3
1000
-2000281
1002
}
  0
LINE
  5
26B
330
267
100
AcDbEntity
  8
A-ALV-___-___-EXI
100
AcDbLine
 10
274.292850708837
 20
59.49999999998593
 30
0.0
 11
274.292850708837
 21
356.4999999999859
 31
0.0
1001
REVIT
1002
{
1070
     1
1000
22585010
1002
}
1002
{
1070
     5
1000
22584995
1002
}
1002
{
1070
     3
1000
-2000281
1002
}
  0
LINE
  5
26C
330
267
100
AcDbEntity
  8
A-ALV-___-___-EXI
100
AcDbLine
 10
274.292850708837
 20
356.4999999999859
 30
0.0
 11
64.29285070883699
 21
356.4999999999859
 31
0.0
1001
REVIT
1002
{
1070
     1
1000
22585010
1002
}
1002
{
1070
     5
1000
22584995
1002
}
1002
{
1070
     3
1000
-2000281
1002
}
  0
ENDBLK
  5
26E
330
267
100
AcDbEntity
  8
0
100
AcDbBlockEnd
  0
ENDSEC
  0
SECTION
  2
ENTITIES
  0
HATCH
  5
93
330
70
100
AcDbEntity
  8
A-ALV-___-___-EXI
 62
    11
100
AcDbHatch
 10
0.0
 20
0.0
 30
0.0
210
0.0
220
0.0
230
1.0
  2
SOLID
 70
     1
 71
     0
 91
        3
 92
        1
 93
        4
 72
     1
 10
13222.40189175735
 20
-20883.28728549656
 11
13222.40189175735
 21
-20533.28728549656
 72
     1
 10
13222.40189175735
 20
-20533.28728549656
 11
12432.40189175735
 21
-20533.28728549655
 72
     1
 10
12432.40189175735
 20
-20533.28728549655
 11
12432.40189175735
 21
-20883.28728549655
 72
     1
 10
12432.40189175735
 20
-20883.28728549655
 11
13222.40189175735
 21
-20883.28728549656
 97
        0
 92
        1
 93
        5
 72
     1
 10
11472.40189175735
 20
-20883.28728549656
 11
11472.40189175735
 21
-20533.28728549655
 72
     1
 10
11472.40189175735
 20
-20533.28728549655
 11
6607.401891757354
 21
-20533.28728549654
 72
     1
 10
6607.401891757354
 20
-20533.28728549654
 11
6607.401891757352
 21
-20883.28728549655
 72
     1
 10
6607.401891757352
 20
-20883.28728549655
 11
9072.408652721243
 21
-20883.28728549655
 72
     1
 10
9072.408652721243
 20
-20883.28728549655
 11
11472.40189175735
 21
-20883.28728549656
 97
        0
 92
        1
 93
        4
 72
     1
 10
4922.401891757434
 20
-20883.28728549654
 11
5732.40189175735
 21
-20883.28728549655
 72
     1
 10
5732.40189175735
 20
-20883.28728549655
 11
5732.40189175735
 21
-20533.28728549655
 72
     1
 10
5732.40189175735
 20
-20533.28728549655
 11
4922.401891757438
 21
-20533.28728549653
 72
     1
 10
4922.401891757438
 20
-20533.28728549653
 11
4922.401891757434
 21
-20883.28728549654
 97
        0
 75
     0
 76
     1
 98
        1
 10
0.0
 20
0.0
450
        0
451
        0
460
0.0
461
0.0
452
        0
462
0.0
453
        0
470

1001
REVIT
1002
{
1070
     1
1000
22422674
1002
}
1002
{
1070
     5
1000
22476216
1002
}
1002
{
1070
     2
1000
-2000011
1002
}
1002
{
1070
     3
1000
-2000588
1002
}
  0
HATCH
  5
9E
330
70
100
AcDbEntity
  8
A-ALV-___-___-EXI
 62
    11
100
AcDbHatch
 10
0.0
 20
0.0
 30
0.0
210
0.0
220
0.0
230
1.0
  2
SOLID
 70
     1
 71
     0
 91
        2
 92
        1
 93
        5
 72
     1
 10
12922.40189175737
 20
-7148.170448611899
 11
13222.40189175737
 21
-7148.170448611899
 72
     1
 10
13222.40189175737
 20
-7148.170448611899
 11
13222.40189175738
 21
-2968.170448611887
 72
     1
 10
13222.40189175738
 20
-2968.170448611887
 11
12922.40189175738
 21
-2968.170448611886
 72
     1
 10
12922.40189175738
 20
-2968.170448611886
 11
12922.40189175737
 21
-5433.287285496528
 72
     1
 10
12922.40189175737
 20
-5433.287285496528
 11
12922.40189175737
 21
-7148.170448611899
 97
        0
 92
        1
 93
        5
 72
     1
 10
12922.40189175738
 20
-2208.170448611884
 11
13222.40189175738
 21
-2208.170448611887
 72
     1
 10
13222.40189175738
 20
-2208.170448611887
 11
13222.40189175738
 21
-1168.170448611889
 72
     1
 10
13222.40189175738
 20
-1168.170448611889
 11
12922.40189175738
 21
-1168.170448611888
 72
     1
 10
12922.40189175738
 20
-1168.170448611888
 11
12922.40189175738
 21
-2126.382289113371
 72
     1
 10
12922.40189175738
 20
-2126.382289113371
 11
12922.40189175738
 21
-2208.170448611884
 97
        0
 75
     0
 76
     1
 98
        1
 10
0.0
 20
0.0
450
        0
451
        0
460
0.0
461
0.0
452
        0
462
0.0
453
        0
470

1001
REVIT
1002
{
1070
     1
1000
22422675
1002
}
1002
{
1070
     5
1000
22474519
1002
}
1002
{
1070
     2
1000
-2000011
1002
}
1002
{
1070
     3
1000
-2000588
1002
}
  0
HATCH
  5
A3
330
70
100
AcDbEntity
  8
A-ALV-___-___-EXI
 62
    11
100
AcDbHatch
 10
0.0
 20
0.0
 30
0.0
210
0.0
220
0.0
230
1.0
  2
SOLID
 70
     1
 71
     0
 91
        1
 92
        1
 93
        4
 72
     1
 10
8447.367869971534
 20
-9633.287285496544
 11
8447.367869971536
 21
-9333.287285496544
 72
     1
 10
8447.367869971536
 20
-9333.287285496544
 11
5272.401891757399
 21
-9333.287285496529
 72
     1
 10
5272.401891757399
 20
-9333.287285496529
 11
5272.401891757399
 21
-9633.28728549653
 72
     1
 10
5272.401891757399
 20
-9633.28728549653
 11
8447.367869971534
 21
-9633.287285496544
 97
        0
 75
     0
 76
     1
 98
        1
 10
0.0
 20
0.0
450
        0
451
        0
460
0.0
461
0.0
452
        0
462
0.0
453
        0
470

1001
REVIT
1002
{
1070
     1
1000
22422884
1002
}
1002
{
1070
     5
1000
22474519
1002
}
1002
{
1070
     2
1000
-2000011
1002
}
1002
{
1070
     3
1000
-2000588
1002
}
  0
HATCH
  5
A8
330
70
100
AcDbEntity
  8
A-ALV-___-___-EXI
 62
    11
100
AcDbHatch
 10
0.0
 20
0.0
 30
0.0
210
0.0
220
0.0
230
1.0
  2
SOLID
 70
     1
 71
     0
 91
        1
 92
        1
 93
        4
 72
     1
 10
8667.367869971512
 20
-13353.28728549655
 11
8667.367869971512
 21
-13133.28728549655
 72
     1
 10
8667.367869971512
 20
-13133.28728549655
 11
5272.401891757363
 21
-13133.28728549653
 72
     1
 10
5272.401891757363
 20
-13133.28728549653
 11
5272.401891757368
 21
-13353.28728549653
 72
     1
 10
5272.401891757368
 20
-13353.28728549653
 11
8667.367869971512
 21
-13353.28728549655
 97
        0
 75
     0
 76
     1
 98
        1
 10
0.0
 20
0.0
450
        0
451
        0
460
0.0
461
0.0
452
        0
462
0.0
453
        0
470

1001
REVIT
1002
{
1070
     1
1000
22423244
1002
}
1002
{
1070
     5
1000
17583107
1002
}
1002
{
1070
     2
1000
-2000011
1002
}
1002
{
1070
     3
1000
-2000588
1002
}
  0
HATCH
  5
B5
330
70
100
AcDbEntity
  8
A-ALV-___-___-EXI
 62
    11
100
AcDbHatch
 10
0.0
 20
0.0
 30
0.0
210
0.0
220
0.0
230
1.0
  2
SOLID
 70
     1
 71
     0
 91
        3
 92
        1
 93
        4
 72
     1
 10
8667.367869971512
 20
-13133.28728549655
 11
8667.367869971524
 21
-10983.28728549654
 72
     1
 10
8667.367869971524
 20
-10983.28728549654
 11
8447.367869971525
 21
-10983.28728549655
 72
     1
 10
8447.367869971525
 20
-10983.28728549655
 11
8447.367869971515
 21
-13133.28728549655
 72
     1
 10
8447.367869971515
 20
-13133.28728549655
 11
8667.367869971512
 21
-13133.28728549655
 97
        0
 92
        1
 93
        4
 72
     1
 10
8667.367869971533
 20
-10123.28728549654
 11
8667.367869971538
 21
-8563.28728549654
 72
     1
 10
8667.367869971538
 20
-8563.28728549654
 11
8447.367869971538
 21
-8563.287285496544
 72
     1
 10
8447.367869971538
 20
-8563.287285496544
 11
8447.367869971534
 21
-10123.28728549655
 72
     1
 10
8447.367869971534
 20
-10123.28728549655
 11
8667.367869971533
 21
-10123.28728549654
 97
        0
 92
        1
 93
        4
 72
     1
 10
8667.367869971544
 20
-7703.287285496542
 11
8667.367869971554
 21
-5433.287285496516
 72
     1
 10
8667.367869971554
 20
-5433.287285496516
 11
8447.367869971555
 21
-5433.28728549652
 72
     1
 10
8447.367869971555
 20
-5433.28728549652
 11
8447.367869971543
 21
-7703.287285496545
 72
     1
 10
8447.367869971543
 20
-7703.287285496545
 11
8667.367869971544
 21
-7703.287285496542
 97
        0
 75
     0
 76
     1
 98
        1
 10
0.0
 20
0.0
450
        0
451
        0
460
0.0
461
0.0
452
        0
462
0.0
453
        0
470

1001
REVIT
1002
{
1070
     1
1000
22423324
1002
}
1002
{
1070
     5
1000
17583107
1002
}
1002
{
1070
     2
1000
-2000011
1002
}
1002
{
1070
     3
1000
-2000588
1002
}
  0
HATCH
  5
BA
330
70
100
AcDbEntity
  8
A-ALV-___-___-EXI
 62
    11
100
AcDbHatch
 10
0.0
 20
0.0
 30
0.0
210
0.0
220
0.0
230
1.0
  2
SOLID
 70
     1
 71
     0
 91
        1
 92
        1
 93
        4
 72
     1
 10
4922.401891757386
 20
-14734.43398541962
 11
5272.401891757385
 21
-14734.43398541961
 72
     1
 10
5272.401891757385
 20
-14734.43398541961
 11
5272.401891757336
 21
-11114.4339854196
 72
     1
 10
5272.401891757336
 20
-11114.4339854196
 11
4922.401891757337
 21
-11114.43398541961
 72
     1
 10
4922.401891757337
 20
-11114.43398541961
 11
4922.401891757386
 21
-14734.43398541962
 97
        0
 75
     0
 76
     1
 98
        1
 10
0.0
 20
0.0
450
        0
451
        0
460
0.0
461
0.0
452
        0
462
0.0
453
        0
470

1001
REVIT
1002
{
1070
     1
1000
22426586
1002
}
1002
{
1070
     5
1000
22476216
1002
}
1002
{
1070
     2
1000
-2000011
1002
}
1002
{
1070
     3
1000
-2000588
1002
}
  0
HATCH
  5
C4
330
70
100
AcDbEntity
  8
A-ALV-___-___-EXI
 62
    11
100
AcDbHatch
 10
0.0
 20
0.0
 30
0.0
210
0.0
220
0.0
230
1.0
  2
SOLID
 70
     1
 71
     0
 91
        2
 92
        1
 93
        4
 72
     1
 10
12922.40189175737
 20
-5433.287285496528
 11
12922.40189175738
 21
-5213.28728549653
 72
     1
 10
12922.40189175738
 20
-5213.28728549653
 11
11340.22157364351
 21
-5213.28728549652
 72
     1
 10
11340.22157364351
 20
-5213.28728549652
 11
11340.2215736435
 21
-5433.287285496521
 72
     1
 10
11340.2215736435
 20
-5433.287285496521
 11
12922.40189175737
 21
-5433.287285496528
 97
        0
 92
        1
 93
        5
 72
     1
 10
10480.2215736435
 20
-5433.287285496524
 11
10480.22157364351
 21
-5213.287285496522
 72
     1
 10
10480.22157364351
 20
-5213.287285496522
 11
5272.401891757407
 21
-5213.28728549651
 72
     1
 10
5272.401891757407
 20
-5213.28728549651
 11
5272.401891757407
 21
-5433.287285496511
 72
     1
 10
5272.401891757407
 20
-5433.287285496511
 11
9072.408652721243
 21
-5433.287285496515
 72
     1
 10
9072.408652721243
 20
-5433.287285496515
 11
10480.2215736435
 21
-5433.287285496524
 97
        0
 75
     0
 76
     1
 98
        1
 10
0.0
 20
0.0
450
        0
451
        0
460
0.0
461
0.0
452
        0
462
0.0
453
        0
470

1001
REVIT
1002
{
1070
     1
1000
22426935
1002
}
1002
{
1070
     5
1000
17583107
1002
}
1002
{
1070
     2
1000
-2000011
1002
}
1002
{
1070
     3
1000
-2000588
1002
}
  0
HATCH
  5
CE
330
70
100
AcDbEntity
  8
A-ALV-___-___-EXI
 62
    11
100
AcDbHatch
 10
0.0
 20
0.0
 30
0.0
210
0.0
220
0.0
230
1.0
  2
SOLID
 70
     1
 71
     0
 91
        2
 92
        1
 93
        5
 72
     1
 10
12922.40189175736
 20
-16963.28728549655
 11
12922.40189175736
 21
-16743.28728549655
 72
     1
 10
12922.40189175736
 20
-16743.28728549655
 11
8687.367869971511
 21
-16743.28728549654
 72
     1
 10
8687.367869971511
 20
-16743.28728549654
 11
8687.367869971511
 21
-16963.28728549654
 72
     1
 10
8687.367869971511
 20
-16963.28728549654
 11
9072.408652721243
 21
-16963.28728549654
 72
     1
 10
9072.408652721243
 20
-16963.28728549654
 11
12922.40189175736
 21
-16963.28728549655
 97
        0
 92
        1
 93
        4
 72
     1
 10
7827.367869971509
 20
-16963.28728549654
 11
7827.367869971507
 21
-16743.28728549654
 72
     1
 10
7827.367869971507
 20
-16743.28728549654
 11
5272.401891757391
 21
-16743.28728549653
 72
     1
 10
5272.401891757391
 20
-16743.28728549653
 11
5272.401891757391
 21
-16963.28728549653
 72
     1
 10
5272.401891757391
 20
-16963.28728549653
 11
7827.367869971509
 21
-16963.28728549654
 97
        0
 75
     0
 76
     1
 98
        1
 10
0.0
 20
0.0
450
        0
451
        0
460
0.0
461
0.0
452
        0
462
0.0
453
        0
470

1001
REVIT
1002
{
1070
     1
1000
22475693
1002
}
1002
{
1070
     5
1000
17583107
1002
}
1002
{
1070
     2
1000
-2000011
1002
}
1002
{
1070
     3
1000
-2000588
1002
}
  0
HATCH
  5
D3
330
70
100
AcDbEntity
  8
A-ALV-___-___-EXI
 62
    11
100
AcDbHatch
 10
0.0
 20
0.0
 30
0.0
210
0.0
220
0.0
230
1.0
  2
SOLID
 70
     1
 71
     0
 91
        1
 92
        1
 93
        4
 72
     1
 10
9687.367869971481
 20
-16743.28728549654
 11
9687.367869971501
 21
-13353.28728549655
 72
     1
 10
9687.367869971501
 20
-13353.28728549655
 11
9467.3678699715
 21
-13353.28728549655
 72
     1
 10
9467.3678699715
 20
-13353.28728549655
 11
9467.367869971486
 21
-16743.28728549654
 72
     1
 10
9467.367869971486
 20
-16743.28728549654
 11
9687.367869971481
 21
-16743.28728549654
 97
        0
 75
     0
 76
     1
 98
        1
 10
0.0
 20
0.0
450
        0
451
        0
460
0.0
461
0.0
452
        0
462
0.0
453
        0
470

1001
REVIT
1002
{
1070
     1
1000
22475735
1002
}
1002
{
1070
     5
1000
17583107
1002
}
1002
{
1070
     2
1000
-2000011
1002
}
1002
{
1070
     3
1000
-2000588
1002
}
  0
HATCH
  5
D8
330
70
100
AcDbEntity
  8
A-ALV-___-___-EXI
 62
    11
100
AcDbHatch
 10
0.0
 20
0.0
 30
0.0
210
0.0
220
0.0
230
1.0
  2
SOLID
 70
     1
 71
     0
 91
        1
 92
        1
 93
        4
 72
     1
 10
5272.401891757437
 20
-20533.28728549654
 11
5272.401891757438
 21
-19143.28728549654
 72
     1
 10
5272.401891757438
 20
-19143.28728549654
 11
4922.40189175744
 21
-19143.28728549654
 72
     1
 10
4922.40189175744
 20
-19143.28728549654
 11
4922.401891757438
 21
-20533.28728549653
 72
     1
 10
4922.401891757438
 20
-20533.28728549653
 11
5272.401891757437
 21
-20533.28728549654
 97
        0
 75
     0
 76
     1
 98
        1
 10
0.0
 20
0.0
450
        0
451
        0
460
0.0
461
0.0
452
        0
462
0.0
453
        0
470

1001
REVIT
1002
{
1070
     1
1000
22478454
1002
}
1002
{
1070
     5
1000
22476216
1002
}
1002
{
1070
     2
1000
-2000011
1002
}
1002
{
1070
     3
1000
-2000588
1002
}
  0
HATCH
  5
E2
330
70
100
AcDbEntity
  8
A-ALV-___-___-EXI
 62
    11
100
AcDbHatch
 10
0.0
 20
0.0
 30
0.0
210
0.0
220
0.0
230
1.0
  2
SOLID
 70
     1
 71
     0
 91
        2
 92
        1
 93
        4
 72
     1
 10
12922.40189175736
 20
-13353.28728549656
 11
12922.40189175736
 21
-13133.28728549656
 72
     1
 10
12922.40189175736
 20
-13133.28728549656
 11
12722.40189175736
 21
-13133.28728549656
 72
     1
 10
12722.40189175736
 20
-13133.28728549656
 11
12722.40189175736
 21
-13353.28728549656
 72
     1
 10
12722.40189175736
 20
-13353.28728549656
 11
12922.40189175736
 21
-13353.28728549656
 97
        0
 92
        1
 93
        5
 72
     1
 10
11862.40189175736
 20
-13353.28728549655
 11
11862.40189175736
 21
-13133.28728549655
 72
     1
 10
11862.40189175736
 20
-13133.28728549655
 11
9467.3678699715
 21
-13133.28728549654
 72
     1
 10
9467.3678699715
 20
-13133.28728549654
 11
9467.3678699715
 21
-13353.28728549654
 72
     1
 10
9467.3678699715
 20
-13353.28728549654
 11
9687.367869971501
 21
-13353.28728549655
 72
     1
 10
9687.367869971501
 20
-13353.28728549655
 11
11862.40189175736
 21
-13353.28728549655
 97
        0
 75
     0
 76
     1
 98
        1
 10
0.0
 20
0.0
450
        0
451
        0
460
0.0
461
0.0
452
        0
462
0.0
453
        0
470

1001
REVIT
1002
{
1070
     1
1000
22505406
1002
}
1002
{
1070
     5
1000
17583107
1002
}
1002
{
1070
     2
1000
-2000011
1002
}
1002
{
1070
     3
1000
-2000588
1002
}
  0
HATCH
  5
EC
330
70
100
AcDbEntity
  8
A-ALV-___-___-EXI
 62
    11
100
AcDbHatch
 10
0.0
 20
0.0
 30
0.0
210
0.0
220
0.0
230
1.0
  2
SOLID
 70
     1
 71
     0
 91
        2
 92
        1
 93
        4
 72
     1
 10
12922.40189175737
 20
-9633.287285496557
 11
12922.40189175737
 21
-9333.287285496556
 72
     1
 10
12922.40189175737
 20
-9333.287285496556
 11
12732.40189175736
 21
-9333.287285496551
 72
     1
 10
12732.40189175736
 20
-9333.287285496551
 11
12732.40189175736
 21
-9633.287285496551
 72
     1
 10
12732.40189175736
 20
-9633.287285496551
 11
12922.40189175737
 21
-9633.287285496557
 97
        0
 92
        1
 93
        5
 72
     1
 10
11972.40189175736
 20
-9633.28728549655
 11
11972.40189175736
 21
-9333.287285496549
 72
     1
 10
11972.40189175736
 20
-9333.287285496549
 11
8667.367869971538
 21
-9333.287285496536
 72
     1
 10
8667.367869971538
 20
-9333.287285496536
 11
8667.367869971535
 21
-9633.287285496539
 72
     1
 10
8667.367869971535
 20
-9633.287285496539
 11
9072.408652721243
 21
-9633.287285496539
 72
     1
 10
9072.408652721243
 20
-9633.287285496539
 11
11972.40189175736
 21
-9633.28728549655
 97
        0
 75
     0
 76
     1
 98
        1
 10
0.0
 20
0.0
450
        0
451
        0
460
0.0
461
0.0
452
        0
462
0.0
453
        0
470

1001
REVIT
1002
{
1070
     1
1000
22505720
1002
}
1002
{
1070
     5
1000
22474519
1002
}
1002
{
1070
     2
1000
-2000011
1002
}
1002
{
1070
     3
1000
-2000588
1002
}
  0
HATCH
  5
F1
330
70
100
AcDbEntity
  8
A-ALV-___-___-EXI
 62
    11
100
AcDbHatch
 10
0.0
 20
0.0
 30
0.0
210
0.0
220
0.0
230
1.0
  2
SOLID
 70
     1
 71
     0
 91
        1
 92
        1
 93
        4
 72
     1
 10
5272.401891757386
 20
-18303.28728549654
 11
5272.401891757393
 21
-15463.28728549653
 72
     1
 10
5272.401891757393
 20
-15463.28728549653
 11
4922.401891757393
 21
-15463.28728549653
 72
     1
 10
4922.401891757393
 20
-15463.28728549653
 11
4922.401891757386
 21
-18303.28728549654
 72
     1
 10
4922.401891757386
 20
-18303.28728549654
 11
5272.401891757386
 21
-18303.28728549654
 97
        0
 75
     0
 76
     1
 98
        1
 10
0.0
 20
0.0
450
        0
451
        0
460
0.0
461
0.0
452
        0
462
0.0
453
        0
470

1001
REVIT
1002
{
1070
     1
1000
22507962
1002
}
1002
{
1070
     5
1000
22476216
1002
}
1002
{
1070
     2
1000
-2000011
1002
}
1002
{
1070
     3
1000
-2000588
1002
}
  0
HATCH
  5
F6
330
70
100
AcDbEntity
  8
A-ALV-___-___-EXI
 62
    11
100
AcDbHatch
 10
0.0
 20
0.0
 30
0.0
210
0.0
220
0.0
230
1.0
  2
SOLID
 70
     1
 71
     0
 91
        1
 92
        1
 93
        4
 72
     1
 10
5272.401891757398
 20
-10378.17044861187
 11
5272.401891757399
 21
-8918.170448611874
 72
     1
 10
5272.401891757399
 20
-8918.170448611874
 11
4922.401891757399
 21
-8918.170448611876
 72
     1
 10
4922.401891757399
 20
-8918.170448611876
 11
4922.401891757397
 21
-10378.17044861187
 72
     1
 10
4922.401891757397
 20
-10378.17044861187
 11
5272.401891757398
 21
-10378.17044861187
 97
        0
 75
     0
 76
     1
 98
        1
 10
0.0
 20
0.0
450
        0
451
        0
460
0.0
461
0.0
452
        0
462
0.0
453
        0
470

1001
REVIT
1002
{
1070
     1
1000
22508337
1002
}
1002
{
1070
     5
1000
22476216
1002
}
1002
{
1070
     2
1000
-2000011
1002
}
1002
{
1070
     3
1000
-2000588
1002
}
  0
HATCH
  5
FB
330
70
100
AcDbEntity
  8
A-ALV-___-___-EXI
 62
    11
100
AcDbHatch
 10
0.0
 20
0.0
 30
0.0
210
0.0
220
0.0
230
1.0
  2
SOLID
 70
     1
 71
     0
 91
        1
 92
        1
 93
        4
 72
     1
 10
5272.401891757402
 20
-8178.170448611876
 11
5272.401891757414
 21
-2518.170448611872
 72
     1
 10
5272.401891757414
 20
-2518.170448611871
 11
4922.401891757411
 21
-2518.170448611871
 72
     1
 10
4922.401891757411
 20
-2518.170448611871
 11
4922.401891757401
 21
-8178.170448611878
 72
     1
 10
4922.401891757401
 20
-8178.170448611878
 11
5272.401891757402
 21
-8178.170448611876
 97
        0
 75
     0
 76
     1
 98
        1
 10
0.0
 20
0.0
450
        0
451
        0
460
0.0
461
0.0
452
        0
462
0.0
453
        0
470

1001
REVIT
1002
{
1070
     1
1000
22508473
1002
}
1002
{
1070
     5
1000
22476216
1002
}
1002
{
1070
     2
1000
-2000011
1002
}
1002
{
1070
     3
1000
-2000588
1002
}
  0
HATCH
  5
100
330
70
100
AcDbEntity
  8
A-ALV-___-___-EXI
 62
    11
100
AcDbHatch
 10
0.0
 20
0.0
 30
0.0
210
0.0
220
0.0
230
1.0
  2
SOLID
 70
     1
 71
     0
 91
        1
 92
        1
 93
        4
 72
     1
 10
13222.40189175736
 20
-10876.65903008925
 11
13222.40189175737
 21
-8016.65903008925
 72
     1
 10
13222.40189175737
 20
-8016.65903008925
 11
12922.40189175737
 21
-8016.65903008925
 72
     1
 10
12922.40189175737
 20
-8016.65903008925
 11
12922.40189175736
 21
-10876.65903008925
 72
     1
 10
12922.40189175736
 20
-10876.65903008925
 11
13222.40189175736
 21
-10876.65903008925
 97
        0
 75
     0
 76
     1
 98
        1
 10
0.0
 20
0.0
450
        0
451
        0
460
0.0
461
0.0
452
        0
462
0.0
453
        0
470

1001
REVIT
1002
{
1070
     1
1000
22508570
1002
}
1002
{
1070
     5
1000
22474519
1002
}
1002
{
1070
     2
1000
-2000011
1002
}
1002
{
1070
     3
1000
-2000588
1002
}
  0
HATCH
  5
105
330
70
100
AcDbEntity
  8
A-ALV-___-___-EXI
 62
    11
100
AcDbHatch
 10
0.0
 20
0.0
 30
0.0
210
0.0
220
0.0
230
1.0
  2
SOLID
 70
     1
 71
     0
 91
        1
 92
        1
 93
        4
 72
     1
 10
13222.40189175736
 20
-14676.65903008926
 11
13222.40189175736
 21
-11656.65903008926
 72
     1
 10
13222.40189175736
 20
-11656.65903008926
 11
12922.40189175736
 21
-11656.65903008925
 72
     1
 10
12922.40189175736
 20
-11656.65903008925
 11
12922.40189175736
 21
-14676.65903008925
 72
     1
 10
12922.40189175736
 20
-14676.65903008925
 11
13222.40189175736
 21
-14676.65903008926
 97
        0
 75
     0
 76
     1
 98
        1
 10
0.0
 20
0.0
450
        0
451
        0
460
0.0
461
0.0
452
        0
462
0.0
453
        0
470

1001
REVIT
1002
{
1070
     1
1000
22508709
1002
}
1002
{
1070
     5
1000
22474519
1002
}
1002
{
1070
     2
1000
-2000011
1002
}
1002
{
1070
     3
1000
-2000588
1002
}
  0
HATCH
  5
10B
330
70
100
AcDbEntity
  8
A-ALV-___-___-EXI
 62
    11
100
AcDbHatch
 10
0.0
 20
0.0
 30
0.0
210
0.0
220
0.0
230
1.0
  2
SOLID
 70
     1
 71
     0
 91
        1
 92
        1
 93
        5
 72
     1
 10
12922.40189175735
 20
-18256.65903008925
 11
13222.40189175735
 21
-18256.65903008926
 72
     1
 10
13222.40189175735
 20
-18256.65903008926
 11
13222.40189175736
 21
-15436.65903008926
 72
     1
 10
13222.40189175736
 20
-15436.65903008926
 11
12922.40189175736
 21
-15436.65903008925
 72
     1
 10
12922.40189175736
 20
-15436.65903008925
 11
12922.40189175736
 21
-16963.28728549655
 72
     1
 10
12922.40189175736
 20
-16963.28728549655
 11
12922.40189175735
 21
-18256.65903008925
 97
        0
 75
     0
 76
     1
 98
        1
 10
0.0
 20
0.0
450
        0
451
        0
460
0.0
461
0.0
452
        0
462
0.0
453
        0
470

1001
REVIT
1002
{
1070
     1
1000
22508836
1002
}
1002
{
1070
     5
1000
22474519
1002
}
1002
{
1070
     2
1000
-2000011
1002
}
1002
{
1070
     3
1000
-2000588
1002
}
  0
HATCH
  5
110
330
70
100
AcDbEntity
  8
A-ALV-___-___-EXI
 62
    11
100
AcDbHatch
 10
0.0
 20
0.0
 30
0.0
210
0.0
220
0.0
230
1.0
  2
SOLID
 70
     1
 71
     0
 91
        1
 92
        1
 93
        4
 72
     1
 10
13222.40189175735
 20
-20533.28728549656
 11
13222.40189175735
 21
-19063.28728549656
 72
     1
 10
13222.40189175735
 20
-19063.28728549656
 11
12922.40189175735
 21
-19063.28728549655
 72
     1
 10
12922.40189175735
 20
-19063.28728549655
 11
12922.40189175735
 21
-20533.28728549656
 72
     1
 10
12922.40189175735
 20
-20533.28728549656
 11
13222.40189175735
 21
-20533.28728549656
 97
        0
 75
     0
 76
     1
 98
        1
 10
0.0
 20
0.0
450
        0
451
        0
460
0.0
461
0.0
452
        0
462
0.0
453
        0
470

1001
REVIT
1002
{
1070
     1
1000
22508925
1002
}
1002
{
1070
     5
1000
22474519
1002
}
1002
{
1070
     2
1000
-2000011
1002
}
1002
{
1070
     3
1000
-2000588
1002
}
  0
HATCH
  5
115
330
70
100
AcDbEntity
  8
A-ALV-___-___-EXI
 62
    11
100
AcDbHatch
 10
0.0
 20
0.0
 30
0.0
210
0.0
220
0.0
230
1.0
  2
SOLID
 70
     1
 71
     0
 91
        1
 92
        1
 93
        4
 72
     1
 10
5272.401891757414
 20
-1818.170448611866
 11
5272.401891757414
 21
-1168.170448611862
 72
     1
 10
5272.401891757414
 20
-1168.170448611862
 11
4922.401891757415
 21
-1168.170448611852
 72
     1
 10
4922.401891757415
 20
-1168.170448611852
 11
4922.401891757411
 21
-1818.170448611856
 72
     1
 10
4922.401891757411
 20
-1818.170448611856
 11
5272.401891757414
 21
-1818.170448611866
 97
        0
 75
     0
 76
     1
 98
        1
 10
0.0
 20
0.0
450
        0
451
        0
460
0.0
461
0.0
452
        0
462
0.0
453
        0
470

1001
REVIT
1002
{
1070
     1
1000
22544576
1002
}
1002
{
1070
     5
1000
22476216
1002
}
1002
{
1070
     2
1000
-2000011
1002
}
1002
{
1070
     3
1000
-2000588
1002
}
  0
HATCH
  5
11B
330
70
100
AcDbEntity
  8
A-ALV-___-___-EXI
 62
    11
100
AcDbHatch
 10
0.0
 20
0.0
 30
0.0
210
0.0
220
0.0
230
1.0
  2
SOLID
 70
     1
 71
     0
 91
        1
 92
        1
 93
        5
 72
     1
 10
12922.40189175738
 20
-1388.17044861189
 11
12922.40189175738
 21
-1168.170448611888
 72
     1
 10
12922.40189175738
 20
-1168.170448611888
 11
5272.401891757414
 21
-1168.170448611862
 72
     1
 10
5272.401891757414
 20
-1168.170448611862
 11
5272.401891757414
 21
-1388.170448611859
 72
     1
 10
5272.401891757414
 20
-1388.170448611859
 11
9072.408652721243
 21
-1388.170448611875
 72
     1
 10
9072.408652721243
 20
-1388.170448611875
 11
12922.40189175738
 21
-1388.17044861189
 97
        0
 75
     0
 76
     1
 98
        1
 10
0.0
 20
0.0
450
        0
451
        0
460
0.0
461
0.0
452
        0
462
0.0
453
        0
470

1001
REVIT
1002
{
1070
     1
1000
22571259
1002
}
1002
{
1070
     5
1000
17583107
1002
}
1002
{
1070
     2
1000
-2000011
1002
}
1002
{
1070
     3
1000
-2000588
1002
}
  0
LINE
  5
126
330
70
100
AcDbEntity
  8
A-ALV-___-___-EXI
 62
   250
100
AcDbLine
 10
5762.40189175734
 20
-20533.28728549655
 30
0.0
 11
5764.401891757341
 21
-20533.28728549655
 31
0.0
1001
REVIT
1002
{
1070
     1
1000
22422674
1002
}
1002
{
1070
     5
1000
22476216
1002
}
1002
{
1070
     2
1000
-2000011
1002
}
  0
LINE
  5
127
330
70
100
AcDbEntity
  8
A-POR-___-___-EXI
 62
   250
100
AcDbLine
 10
5794.401891757339
 20
-20533.28728549655
 30
0.0
 11
6563.40189175734
 21
-20533.28728549654
 31
0.0
1001
REVIT
1002
{
1070
     1
1000
22422674
1002
}
1002
{
1070
     5
1000
22476216
1002
}
1002
{
1070
     2
1000
-2000011
1002
}
  0
LINE
  5
128
330
70
100
AcDbEntity
  8
A-POR-___-___-EXI
 62
   250
100
AcDbLine
 10
11502.40189175733
 20
-20533.28728549655
 30
0.0
 11
12370.40189175733
 21
-20533.28728549655
 31
0.0
1001
REVIT
1002
{
1070
     1
1000
22422674
1002
}
1002
{
1070
     5
1000
22476216
1002
}
1002
{
1070
     2
1000
-2000011
1002
}
  0
LINE
  5
129
330
70
100
AcDbEntity
  8
A-ALV-___-___-EXI
 62
   250
100
AcDbLine
 10
12400.40189175733
 20
-20533.28728549655
 30
0.0
 11
12402.40189175733
 21
-20533.28728549655
 31
0.0
1001
REVIT
1002
{
1070
     1
1000
22422674
1002
}
1002
{
1070
     5
1000
22476216
1002
}
1002
{
1070
     2
1000
-2000011
1002
}
  0
LINE
  5
12A
330
70
100
AcDbEntity
  8
A-ALV-___-___-EXI
 62
   250
100
AcDbLine
 10
12402.40189175733
 20
-20883.28728549655
 30
0.0
 11
11502.40189175733
 21
-20883.28728549655
 31
0.0
1001
REVIT
1002
{
1070
     1
1000
22422674
1002
}
1002
{
1070
     5
1000
22476216
1002
}
1002
{
1070
     2
1000
-2000011
1002
}
  0
LINE
  5
12B
330
70
100
AcDbEntity
  8
A-ALV-___-___-EXI
 62
   250
100
AcDbLine
 10
6563.401891757343
 20
-20883.28728549655
 30
0.0
 11
5762.401891757338
 21
-20883.28728549655
 31
0.0
1001
REVIT
1002
{
1070
     1
1000
22422674
1002
}
1002
{
1070
     5
1000
22476216
1002
}
1002
{
1070
     2
1000
-2000011
1002
}
  0
LINE
  5
133
330
70
100
AcDbEntity
  8
A-POR-___-___-EXI
 62
   250
100
AcDbLine
 10
12922.40189175736
 20
-2938.170448611906
 30
0.0
 11
12922.40189175736
 21
-2270.170448611906
 31
0.0
1001
REVIT
1002
{
1070
     1
1000
22422675
1002
}
1002
{
1070
     5
1000
22474519
1002
}
1002
{
1070
     2
1000
-2000011
1002
}
  0
LINE
  5
134
330
70
100
AcDbEntity
  8
A-JAN-___-___-EXI
 62
   250
100
AcDbLine
 10
12922.40189175736
 20
-2240.170448611907
 30
0.0
 11
12922.40189175736
 21
-2238.170448611907
 31
0.0
1001
REVIT
1002
{
1070
     1
1000
22422675
1002
}
1002
{
1070
     5
1000
22474519
1002
}
1002
{
1070
     2
1000
-2000011
1002
}
  0
LINE
  5
135
330
70
100
AcDbEntity
  8
A-POR-___-___-EXI
 62
   250
100
AcDbLine
 10
13222.40189175736
 20
-2238.17044861191
 30
0.0
 11
13222.40189175736
 21
-2938.170448611907
 31
0.0
1001
REVIT
1002
{
1070
     1
1000
22422675
1002
}
1002
{
1070
     5
1000
22474519
1002
}
1002
{
1070
     2
1000
-2000011
1002
}
  0
LINE
  5
143
330
70
100
AcDbEntity
  8
A-POR-___-___-EXI
 62
   250
100
AcDbLine
 10
8667.367869971528
 20
-7733.287285496555
 30
0.0
 11
8667.367869971524
 21
-8533.287285496554
 31
0.0
1001
REVIT
1002
{
1070
     1
1000
22423324
1002
}
1002
{
1070
     5
1000
17583107
1002
}
1002
{
1070
     2
1000
-2000011
1002
}
  0
LINE
  5
144
330
70
100
AcDbEntity
  8
A-POR-___-___-EXI
 62
   250
100
AcDbLine
 10
8667.367869971517
 20
-10153.28728549655
 30
0.0
 11
8667.367869971512
 21
-10953.28728549656
 31
0.0
1001
REVIT
1002
{
1070
     1
1000
22423324
1002
}
1002
{
1070
     5
1000
17583107
1002
}
1002
{
1070
     2
1000
-2000011
1002
}
  0
LINE
  5
145
330
70
100
AcDbEntity
  8
A-POR-___-___-EXI
 62
   250
100
AcDbLine
 10
8447.367869971511
 20
-10953.28728549656
 30
0.0
 11
8447.367869971518
 21
-10185.28728549656
 31
0.0
1001
REVIT
1002
{
1070
     1
1000
22423324
1002
}
1002
{
1070
     5
1000
17583107
1002
}
1002
{
1070
     2
1000
-2000011
1002
}
  0
LINE
  5
146
330
70
100
AcDbEntity
  8
A-ALV-___-___-EXI
 62
   250
100
AcDbLine
 10
8447.367869971518
 20
-10155.28728549656
 30
0.0
 11
8447.367869971518
 21
-10153.28728549656
 31
0.0
1001
REVIT
1002
{
1070
     1
1000
22423324
1002
}
1002
{
1070
     5
1000
17583107
1002
}
1002
{
1070
     2
1000
-2000011
1002
}
  0
LINE
  5
147
330
70
100
AcDbEntity
  8
A-ALV-___-___-EXI
 62
   250
100
AcDbLine
 10
8447.367869971524
 20
-8533.287285496555
 30
0.0
 11
8447.367869971524
 21
-8531.287285496556
 31
0.0
1001
REVIT
1002
{
1070
     1
1000
22423324
1002
}
1002
{
1070
     5
1000
17583107
1002
}
1002
{
1070
     2
1000
-2000011
1002
}
  0
LINE
  5
148
330
70
100
AcDbEntity
  8
A-POR-___-___-EXI
 62
   250
100
AcDbLine
 10
8447.367869971524
 20
-8501.287285496559
 30
0.0
 11
8447.367869971529
 21
-7733.287285496555
 31
0.0
1001
REVIT
1002
{
1070
     1
1000
22423324
1002
}
1002
{
1070
     5
1000
17583107
1002
}
1002
{
1070
     2
1000
-2000011
1002
}
  0
INSERT
  5
15B
330
70
100
AcDbEntity
  8
A-POR-___-___-EXI
100
AcDbBlockReference
  2
porta multiplas_original - Simples - 80 cm-22543223-Planta baixa - Térreo_
 10
8557.367869971514
 20
-10553.28728549656
 30
0.0
 50
269.9999999999997
1001
REVIT
1002
{
1070
     1
1000
22423829
1002
}
1002
{
1070
     5
1000
22369145
1002
}
1002
{
1070
     2
1000
-2000023
1002
}
  0
LINE
  5
166
330
70
100
AcDbEntity
  8
A-POR-___-___-EXI
 62
   250
100
AcDbLine
 10
11310.22157364349
 20
-5433.28728549654
 30
0.0
 11
10542.22157364349
 21
-5433.287285496541
 31
0.0
1001
REVIT
1002
{
1070
     1
1000
22426935
1002
}
1002
{
1070
     5
1000
17583107
1002
}
1002
{
1070
     2
1000
-2000011
1002
}
  0
LINE
  5
167
330
70
100
AcDbEntity
  8
A-ALV-___-___-EXI
 62
   250
100
AcDbLine
 10
10512.22157364349
 20
-5433.287285496541
 30
0.0
 11
10510.22157364349
 21
-5433.287285496541
 31
0.0
1001
REVIT
1002
{
1070
     1
1000
22426935
1002
}
1002
{
1070
     5
1000
17583107
1002
}
1002
{
1070
     2
1000
-2000011
1002
}
  0
LINE
  5
168
330
70
100
AcDbEntity
  8
A-POR-___-___-EXI
 62
   250
100
AcDbLine
 10
10510.22157364349
 20
-5213.287285496539
 30
0.0
 11
11310.22157364349
 21
-5213.28728549654
 31
0.0
1001
REVIT
1002
{
1070
     1
1000
22426935
1002
}
1002
{
1070
     5
1000
17583107
1002
}
1002
{
1070
     2
1000
-2000011
1002
}
  0
LINE
  5
16E
330
70
100
AcDbEntity
  8
A-POR-___-___-EXI
 62
   250
100
AcDbLine
 10
7857.367869971493
 20
-16743.28728549654
 30
0.0
 11
8625.367869971496
 21
-16743.28728549654
 31
0.0
1001
REVIT
1002
{
1070
     1
1000
22475693
1002
}
1002
{
1070
     5
1000
17583107
1002
}
1002
{
1070
     2
1000
-2000011
1002
}
  0
LINE
  5
16F
330
70
100
AcDbEntity
  8
A-ALV-___-___-EXI
 62
   250
100
AcDbLine
 10
8655.367869971497
 20
-16743.28728549654
 30
0.0
 11
8657.367869971492
 21
-16743.28728549654
 31
0.0
1001
REVIT
1002
{
1070
     1
1000
22475693
1002
}
1002
{
1070
     5
1000
17583107
1002
}
1002
{
1070
     2
1000
-2000011
1002
}
  0
LINE
  5
170
330
70
100
AcDbEntity
  8
A-POR-___-___-EXI
 62
   250
100
AcDbLine
 10
8657.367869971492
 20
-16963.28728549654
 30
0.0
 11
7857.367869971496
 21
-16963.28728549654
 31
0.0
1001
REVIT
1002
{
1070
     1
1000
22475693
1002
}
1002
{
1070
     5
1000
17583107
1002
}
1002
{
1070
     2
1000
-2000011
1002
}
  0
INSERT
  5
185
330
70
100
AcDbEntity
  8
A-POR-___-___-EXI
100
AcDbBlockReference
  2
porta multiplas - Simples - 80 cm-22542684-Planta baixa - Térreo_
 10
6162.401891757347
 20
-20708.28728549654
 30
0.0
1001
REVIT
1002
{
1070
     1
1000
22477705
1002
}
1002
{
1070
     5
1000
22355177
1002
}
1002
{
1070
     2
1000
-2000023
1002
}
  0
LINE
  5
18E
330
70
100
AcDbEntity
  8
A-ALV-___-___-EXI
 62
   250
100
AcDbLine
 10
12692.40189175735
 20
-13353.28728549657
 30
0.0
 11
12690.40189175735
 21
-13353.28728549657
 31
0.0
1001
REVIT
1002
{
1070
     1
1000
22505406
1002
}
1002
{
1070
     5
1000
17583107
1002
}
1002
{
1070
     2
1000
-2000011
1002
}
  0
LINE
  5
18F
330
70
100
AcDbEntity
  8
A-POR-___-___-EXI
 62
   250
100
AcDbLine
 10
12660.40189175734
 20
-13353.28728549657
 30
0.0
 11
11892.40189175734
 21
-13353.28728549656
 31
0.0
1001
REVIT
1002
{
1070
     1
1000
22505406
1002
}
1002
{
1070
     5
1000
17583107
1002
}
1002
{
1070
     2
1000
-2000011
1002
}
  0
LINE
  5
190
330
70
100
AcDbEntity
  8
A-POR-___-___-EXI
 62
   250
100
AcDbLine
 10
11892.40189175734
 20
-13133.28728549656
 30
0.0
 11
12692.40189175734
 21
-13133.28728549657
 31
0.0
1001
REVIT
1002
{
1070
     1
1000
22505406
1002
}
1002
{
1070
     5
1000
17583107
1002
}
1002
{
1070
     2
1000
-2000011
1002
}
  0
LINE
  5
195
330
70
100
AcDbEntity
  8
A-POR-___-___-EXI
 62
   250
100
AcDbLine
 10
12702.40189175734
 20
-9633.287285496567
 30
0.0
 11
12002.40189175733
 21
-9633.287285496564
 31
0.0
1001
REVIT
1002
{
1070
     1
1000
22505720
1002
}
1002
{
1070
     5
1000
22474519
1002
}
1002
{
1070
     2
1000
-2000011
1002
}
  0
LINE
  5
196
330
70
100
AcDbEntity
  8
A-POR-___-___-EXI
 62
   250
100
AcDbLine
 10
12002.40189175734
 20
-9333.287285496563
 30
0.0
 11
12670.40189175734
 21
-9333.287285496568
 31
0.0
1001
REVIT
1002
{
1070
     1
1000
22505720
1002
}
1002
{
1070
     5
1000
22474519
1002
}
1002
{
1070
     2
1000
-2000011
1002
}
  0
LINE
  5
197
330
70
100
AcDbEntity
  8
A-JAN-___-___-EXI
 62
   250
100
AcDbLine
 10
12700.40189175734
 20
-9333.287285496568
 30
0.0
 11
12702.40189175734
 21
-9333.287285496568
 31
0.0
1001
REVIT
1002
{
1070
     1
1000
22505720
1002
}
1002
{
1070
     5
1000
22474519
1002
}
1002
{
1070
     2
1000
-2000011
1002
}
  0
INSERT
  5
1A8
330
70
100
AcDbEntity
  8
A-POR-___-___-EXI
100
AcDbBlockReference
  2
porta multiplas_original - Simples - 90 cm-22542629-Planta baixa - Térreo_
 10
11952.40189175732
 20
-20708.28728549655
 30
0.0
 50
180.0
1001
REVIT
1002
{
1070
     1
1000
22506642
1002
}
1002
{
1070
     5
1000
22369137
1002
}
1002
{
1070
     2
1000
-2000023
1002
}
  0
INSERT
  5
1B9
330
70
100
AcDbEntity
  8
A-POR-___-___-EXI
100
AcDbBlockReference
  2
porta multiplas_original - Simples - 80 cm-22543222-Planta baixa - Térreo_
 10
12292.40189175734
 20
-13243.28728549656
 30
0.0
 50
180.0
1001
REVIT
1002
{
1070
     1
1000
22506790
1002
}
1002
{
1070
     5
1000
22369145
1002
}
1002
{
1070
     2
1000
-2000023
1002
}
  0
INSERT
  5
1CA
330
70
100
AcDbEntity
  8
A-POR-___-___-EXI
100
AcDbBlockReference
  2
porta multiplas_original - Simples - 70 cm-22543457-Planta baixa - Térreo_
 10
12352.40189175733
 20
-9483.287285496565
 30
0.0
 50
180.0
1001
REVIT
1002
{
1070
     1
1000
22506891
1002
}
1002
{
1070
     5
1000
22369135
1002
}
1002
{
1070
     2
1000
-2000023
1002
}
  0
INSERT
  5
1CB
330
70
100
AcDbEntity
  8
A-POR-___-___-EXI
100
AcDbBlockReference
  2
porta multiplas_original - Simples - 80 cm-22543222-Planta baixa - Térreo_
 10
8557.367869971526
 20
-8133.287285496544
 30
0.0
 50
89.99999999999969
1001
REVIT
1002
{
1070
     1
1000
22506962
1002
}
1002
{
1070
     5
1000
22369145
1002
}
1002
{
1070
     2
1000
-2000023
1002
}
  0
INSERT
  5
1CC
330
70
100
AcDbEntity
  8
A-POR-___-___-EXI
100
AcDbBlockReference
  2
porta multiplas_original - Simples - 80 cm-22543223-Planta baixa - Térreo_
 10
8257.367869971487
 20
-16853.28728549654
 30
0.0
 50
180.0
1001
REVIT
1002
{
1070
     1
1000
22507171
1002
}
1002
{
1070
     5
1000
22369145
1002
}
1002
{
1070
     2
1000
-2000023
1002
}
  0
INSERT
  5
1EE
330
70
100
AcDbEntity
  8
A-POR-___-___-EXI
100
AcDbBlockReference
  2
porta multiplas_original - Simples - 80 cm-22543223-Planta baixa - Térreo_
 10
10910.2215736435
 20
-5323.28728549654
 30
0.0
1001
REVIT
1002
{
1070
     1
1000
22543503
1002
}
1002
{
1070
     5
1000
22369145
1002
}
1002
{
1070
     2
1000
-2000023
1002
}
  0
INSERT
  5
1EF
330
70
100
AcDbEntity
  8
A-POR-___-___-EXI
100
AcDbBlockReference
  2
porta multiplas_original - Simples - 70 cm-22543457-Planta baixa - Térreo_
 10
13072.40189175736
 20
-2588.170448611913
 30
0.0
 50
269.9999999999999
1001
REVIT
1002
{
1070
     1
1000
22543865
1002
}
1002
{
1070
     5
1000
22369135
1002
}
1002
{
1070
     2
1000
-2000023
1002
}
  0
LWPOLYLINE
  5
299
330
70
100
AcDbEntity
  8
A-JAN-___-___-EXI
100
AcDbPolyline
 90
        4
 70
     1
 43
0.0
 10
5272.401891757396
 20
-15503.28728549654
 10
5532.401891757395
 20
-15503.28728549654
 10
5532.401891757395
 20
-15463.28728549654
 10
5272.401891757396
 20
-15463.28728549654
1001
REVIT
1002
{
1070
     1
1000
22582118
1002
}
1002
{
1070
     2
1000
-2000051
1002
}
1002
{
1070
     3
1000
-2000042
1002
}
  0
LWPOLYLINE
  5
29A
330
70
100
AcDbEntity
  8
A-JAN-___-___-EXI
100
AcDbPolyline
 90
        4
 70
     1
 43
0.0
 10
5272.401891757418
 20
-11154.43398541962
 10
5572.401891757418
 20
-11154.43398541962
 10
5572.401891757418
 20
-11114.43398541962
 10
5272.401891757418
 20
-11114.43398541962
1001
REVIT
1002
{
1070
     1
1000
22582110
1002
}
1002
{
1070
     2
1000
-2000051
1002
}
1002
{
1070
     3
1000
-2000042
1002
}
  0
LWPOLYLINE
  5
29B
330
70
100
AcDbEntity
  8
A-JAN-___-___-EXI
100
AcDbPolyline
 90
        4
 70
     1
 43
0.0
 10
5272.401891757392
 20
-8137.972988282593
 10
5572.401891757392
 20
-8137.972988282596
 10
5572.401891757392
 20
-8178.170448611894
 10
5272.401891757392
 20
-8178.170448611892
1001
REVIT
1002
{
1070
     1
1000
22582106
1002
}
1002
{
1070
     2
1000
-2000051
1002
}
1002
{
1070
     3
1000
-2000042
1002
}
  0
LWPOLYLINE
  5
29C
330
70
100
AcDbEntity
  8
A-JAN-___-___-EXI
100
AcDbPolyline
 90
        4
 70
     1
 43
0.0
 10
5272.401891757391
 20
-8958.170448611886
 10
5572.40189175739
 20
-8958.170448611889
 10
5572.40189175739
 20
-8918.170448611885
 10
5272.401891757391
 20
-8918.170448611885
1001
REVIT
1002
{
1070
     1
1000
22582102
1002
}
1002
{
1070
     2
1000
-2000051
1002
}
1002
{
1070
     3
1000
-2000042
1002
}
  0
LWPOLYLINE
  5
29D
330
70
100
AcDbEntity
  8
A-JAN-___-___-EXI
100
AcDbPolyline
 90
        4
 70
     1
 43
0.0
 10
5272.401891757463
 20
-1777.97298828259
 10
5592.401891757461
 20
-1777.972988282591
 10
5592.401891757461
 20
-1818.170448611888
 10
5272.401891757461
 20
-1818.170448611883
1001
REVIT
1002
{
1070
     1
1000
22582098
1002
}
1002
{
1070
     2
1000
-2000051
1002
}
1002
{
1070
     3
1000
-2000042
1002
}
  0
LWPOLYLINE
  5
29E
330
70
100
AcDbEntity
  8
A-JAN-___-___-EXI
100
AcDbPolyline
 90
        4
 70
     1
 43
0.0
 10
5272.401891757461
 20
-2558.170448611888
 10
5592.401891757461
 20
-2558.170448611889
 10
5592.401891757461
 20
-2518.170448611887
 10
5272.401891757461
 20
-2518.170448611887
1001
REVIT
1002
{
1070
     1
1000
22582094
1002
}
1002
{
1070
     2
1000
-2000051
1002
}
1002
{
1070
     3
1000
-2000042
1002
}
  0
LWPOLYLINE
  5
29F
330
70
100
AcDbEntity
  8
A-JAN-___-___-EXI
100
AcDbPolyline
 90
        4
 70
     1
 43
0.0
 10
12922.40189175733
 20
-19107.26270607701
 10
12602.40189175733
 20
-19107.26270607701
 10
12602.40189175733
 20
-19063.28728549656
 10
12922.40189175733
 20
-19063.28728549656
1001
REVIT
1002
{
1070
     1
1000
22582075
1002
}
1002
{
1070
     2
1000
-2000051
1002
}
1002
{
1070
     3
1000
-2000042
1002
}
  0
LWPOLYLINE
  5
2A0
330
70
100
AcDbEntity
  8
A-JAN-___-___-EXI
100
AcDbPolyline
 90
        4
 70
     1
 43
0.0
 10
12922.40189175734
 20
-18216.65903008926
 10
12602.40189175733
 20
-18216.65903008926
 10
12602.40189175733
 20
-18256.65903008926
 10
12922.40189175734
 20
-18256.65903008926
1001
REVIT
1002
{
1070
     1
1000
22582071
1002
}
1002
{
1070
     2
1000
-2000051
1002
}
1002
{
1070
     3
1000
-2000042
1002
}
  0
LWPOLYLINE
  5
2A1
330
70
100
AcDbEntity
  8
A-JAN-___-___-EXI
100
AcDbPolyline
 90
        4
 70
     1
 43
0.0
 10
12922.40189175734
 20
-14636.65903008926
 10
12602.40189175734
 20
-14636.65903008926
 10
12602.40189175734
 20
-14676.65903008926
 10
12922.40189175734
 20
-14676.65903008926
1001
REVIT
1002
{
1070
     1
1000
22582063
1002
}
1002
{
1070
     2
1000
-2000051
1002
}
1002
{
1070
     3
1000
-2000042
1002
}
  0
LWPOLYLINE
  5
2A2
330
70
100
AcDbEntity
  8
A-JAN-___-___-EXI
100
AcDbPolyline
 90
        4
 70
     1
 43
0.0
 10
12922.40189175735
 20
-11696.65903008926
 10
12562.40189175734
 20
-11696.65903008926
 10
12562.40189175734
 20
-11656.65903008926
 10
12922.40189175735
 20
-11656.65903008926
1001
REVIT
1002
{
1070
     1
1000
22582059
1002
}
1002
{
1070
     2
1000
-2000051
1002
}
1002
{
1070
     3
1000
-2000042
1002
}
  0
LWPOLYLINE
  5
2A3
330
70
100
AcDbEntity
  8
A-JAN-___-___-EXI
100
AcDbPolyline
 90
        4
 70
     1
 43
0.0
 10
12922.40189175735
 20
-10836.65903008926
 10
12562.40189175734
 20
-10836.65903008926
 10
12562.40189175734
 20
-10876.65903008926
 10
12922.40189175735
 20
-10876.65903008926
1001
REVIT
1002
{
1070
     1
1000
22582055
1002
}
1002
{
1070
     2
1000
-2000051
1002
}
1002
{
1070
     3
1000
-2000042
1002
}
  0
LWPOLYLINE
  5
2A4
330
70
100
AcDbEntity
  8
A-JAN-___-___-EXI
100
AcDbPolyline
 90
        4
 70
     1
 43
0.0
 10
12922.40189175735
 20
-8051.242114465619
 10
12582.40189175735
 20
-8051.242114465619
 10
12582.40189175735
 20
-8016.659030089261
 10
12922.40189175735
 20
-8016.659030089263
1001
REVIT
1002
{
1070
     1
1000
22582051
1002
}
1002
{
1070
     2
1000
-2000051
1002
}
1002
{
1070
     3
1000
-2000042
1002
}
  0
LWPOLYLINE
  5
2A5
330
70
100
AcDbEntity
  8
A-JAN-___-___-EXI
100
AcDbPolyline
 90
        4
 70
     1
 43
0.0
 10
12922.40189175735
 20
-7108.170448611912
 10
12582.40189175735
 20
-7108.170448611911
 10
12582.40189175735
 20
-7148.17044861191
 10
12922.40189175735
 20
-7148.170448611911
1001
REVIT
1002
{
1070
     1
1000
22582047
1002
}
1002
{
1070
     2
1000
-2000051
1002
}
1002
{
1070
     3
1000
-2000042
1002
}
  0
LWPOLYLINE
  5
2A6
330
70
100
AcDbEntity
  8
A-JAN-___-___-EXI
100
AcDbPolyline
 90
        4
 70
     1
 43
0.0
 10
5272.401891757379
 20
-18263.08982516724
 10
5542.401891757378
 20
-18263.08982516724
 10
5542.401891757378
 20
-18303.28728549654
 10
5272.401891757379
 20
-18303.28728549654
1001
REVIT
1002
{
1070
     1
1000
22582043
1002
}
1002
{
1070
     2
1000
-2000051
1002
}
1002
{
1070
     3
1000
-2000042
1002
}
  0
LWPOLYLINE
  5
2A7
330
70
100
AcDbEntity
  8
A-JAN-___-___-EXI
100
AcDbPolyline
 90
        4
 70
     1
 43
0.0
 10
5272.401891757375
 20
-19183.28728549654
 10
5542.401891757378
 20
-19183.28728549654
 10
5542.401891757378
 20
-19143.28728549654
 10
5272.401891757376
 20
-19143.28728549654
1001
REVIT
1002
{
1070
     1
1000
22582039
1002
}
1002
{
1070
     2
1000
-2000051
1002
}
1002
{
1070
     3
1000
-2000042
1002
}
  0
LWPOLYLINE
  5
2A8
330
70
100
AcDbEntity
  8
A-PIL-___-___-EXI
100
AcDbPolyline
 90
        4
 70
     1
 43
0.0
 10
5062.401891757369
 20
-22975.03284116282
 10
4922.401891757369
 20
-22975.03284116282
 10
4922.401891757369
 20
-23155.03284116282
 10
5062.401891757369
 20
-23155.03284116282
1001
REVIT
1002
{
1070
     1
1000
22582034
1002
}
1002
{
1070
     2
1000
-2000051
1002
}
1002
{
1070
     3
1000
-2000042
1002
}
  0
LWPOLYLINE
  5
2A9
330
70
100
AcDbEntity
  8
A-PIL-___-___-EXI
100
AcDbPolyline
 90
        4
 70
     1
 43
0.0
 10
7094.011155152394
 20
-22975.03284116282
 10
6954.011155152393
 20
-22975.03284116282
 10
6954.011155152393
 20
-23155.03284116283
 10
7094.011155152394
 20
-23155.03284116283
1001
REVIT
1002
{
1070
     1
1000
22582029
1002
}
1002
{
1070
     2
1000
-2000051
1002
}
1002
{
1070
     3
1000
-2000042
1002
}
  0
LWPOLYLINE
  5
2AA
330
70
100
AcDbEntity
  8
A-PIL-___-___-EXI
100
AcDbPolyline
 90
        4
 70
     1
 43
0.0
 10
9097.675256068162
 20
-22975.03284116283
 10
8957.67525606816
 20
-22975.03284116283
 10
8957.67525606816
 20
-23155.03284116283
 10
9097.675256068162
 20
-23155.03284116283
1001
REVIT
1002
{
1070
     1
1000
22582024
1002
}
1002
{
1070
     2
1000
-2000051
1002
}
1002
{
1070
     3
1000
-2000042
1002
}
  0
LWPOLYLINE
  5
2AB
330
70
100
AcDbEntity
  8
A-PIL-___-___-EXI
100
AcDbPolyline
 90
        4
 70
     1
 43
0.0
 10
11160.86802464897
 20
-22975.03284116283
 10
11020.86802464897
 20
-22975.03284116283
 10
11020.86802464897
 20
-23155.03284116283
 10
11160.86802464897
 20
-23155.03284116283
1001
REVIT
1002
{
1070
     1
1000
22582019
1002
}
1002
{
1070
     2
1000
-2000051
1002
}
1002
{
1070
     3
1000
-2000042
1002
}
  0
LWPOLYLINE
  5
2AC
330
70
100
AcDbEntity
  8
A-PIL-___-___-EXI
100
AcDbPolyline
 90
        4
 70
     1
 43
0.0
 10
13222.40189175732
 20
-22975.03284116284
 10
13082.40189175732
 20
-22975.03284116284
 10
13082.40189175732
 20
-23155.03284116284
 10
13222.40189175732
 20
-23155.03284116284
1001
REVIT
1002
{
1070
     1
1000
22582014
1002
}
1002
{
1070
     2
1000
-2000051
1002
}
1002
{
1070
     3
1000
-2000042
1002
}
  0
LWPOLYLINE
  5
2AD
330
70
100
AcDbEntity
  8
A-PIS-___-___-EXI
100
AcDbPolyline
 90
        4
 70
     1
 43
0.0
 10
13222.40189175733
 20
-20883.28728549656
 10
4922.401891757373
 20
-20883.28728549654
 10
4922.401891757369
 20
-23608.28728549654
 10
13222.40189175732
 20
-23608.28728549656
1001
REVIT
1002
{
1070
     1
1000
22582007
1002
}
1002
{
1070
     2
1000
-2000051
1002
}
1002
{
1070
     3
1000
-2000042
1002
}
  0
LWPOLYLINE
  5
2AE
330
70
100
AcDbEntity
  8
A-ALV-___-___-EXI
 62
     7
370
    35
100
AcDbPolyline
 90
        8
 70
     0
 43
0.0
 10
13222.40189175736
 20
-2208.170448611908
 10
13222.40189175736
 20
-1168.170448611911
 10
4922.401891757404
 20
-1168.170448611879
 10
4922.401891757402
 20
-1818.170448611882
 10
4922.401891757399
 20
-2518.170448611894
 10
4922.401891757392
 20
-8178.170448611892
 10
4922.401891757367
 20
-8918.17044861189
 10
4922.401891757388
 20
-10378.17044861188
1001
REVIT
1002
{
1070
     1
1000
22571259
1002
}
1002
{
1070
     5
1000
17583107
1002
}
1002
{
1070
     2
1000
-2000011
1002
}
  0
LWPOLYLINE
  5
2AF
330
70
100
AcDbEntity
  8
A-ALV-___-___-EXI
100
AcDbPolyline
 90
        4
 70
     0
 43
0.0
 10
4922.401891757337
 20
-14734.43398541962
 10
4922.401891757334
 20
-15463.28728549654
 10
4922.401891757377
 20
-18303.28728549654
 10
4922.401891757316
 20
-19143.28728549654
1001
REVIT
1002
{
1070
     1
1000
22546524
1002
}
1002
{
1070
     2
1000
-2000051
1002
}
1002
{
1070
     3
1000
-2000066
1002
}
  0
LWPOLYLINE
  5
2B0
330
70
100
AcDbEntity
  8
A-ALV-___-___-EXI
 62
     7
370
    35
100
AcDbPolyline
 90
        5
 70
     0
 43
0.0
 10
12432.40189175733
 20
-20883.28728549655
 10
13222.40189175733
 20
-20883.28728549656
 10
13222.40189175733
 20
-19063.28728549656
 10
13222.40189175733
 20
-18256.65903008926
 10
13222.40189175734
 20
-15436.65903008926
1001
REVIT
1002
{
1070
     1
1000
22508925
1002
}
1002
{
1070
     5
1000
22474519
1002
}
1002
{
1070
     2
1000
-2000011
1002
}
  0
LWPOLYLINE
  5
2B1
330
70
100
AcDbEntity
  8
A-ALV-___-___-EXI
 62
     7
370
    35
100
AcDbPolyline
 90
        3
 70
     0
 43
0.0
 10
11972.40189175734
 20
-9333.287285496563
 10
8667.367869971519
 20
-9333.287285496551
 10
8667.367869971524
 20
-8563.287285496555
1001
REVIT
1002
{
1070
     1
1000
22505720
1002
}
1002
{
1070
     5
1000
22474519
1002
}
1002
{
1070
     2
1000
-2000011
1002
}
  0
LWPOLYLINE
  5
2B2
330
70
100
AcDbEntity
  8
A-ALV-___-___-EXI
 62
     7
370
    35
100
AcDbPolyline
 90
        3
 70
     0
 43
0.0
 10
8667.367869971517
 20
-10123.28728549655
 10
8667.367869971519
 20
-9633.28728549655
 10
11972.40189175734
 20
-9633.287285496564
1001
REVIT
1002
{
1070
     1
1000
22505720
1002
}
1002
{
1070
     5
1000
22474519
1002
}
1002
{
1070
     2
1000
-2000011
1002
}
  0
LWPOLYLINE
  5
2B3
330
70
100
AcDbEntity
  8
A-ALV-___-___-EXI
 62
     7
370
    35
100
AcDbPolyline
 90
        4
 70
     0
 43
0.0
 10
11862.40189175735
 20
-13133.28728549656
 10
9467.367869971486
 20
-13133.28728549655
 10
9467.367869971466
 20
-16743.28728549654
 10
8687.367869971494
 20
-16743.28728549654
1001
REVIT
1002
{
1070
     1
1000
22505406
1002
}
1002
{
1070
     5
1000
17583107
1002
}
1002
{
1070
     2
1000
-2000011
1002
}
  0
LWPOLYLINE
  5
2B4
330
70
100
AcDbEntity
  8
A-ALV-___-___-EXI
 62
     7
370
    35
100
AcDbPolyline
 90
       10
 70
     0
 43
0.0
 10
13222.40189175735
 20
-8016.659030089263
 10
13222.40189175734
 20
-10876.65903008926
 10
13222.40189175734
 20
-11656.65903008926
 10
13222.40189175734
 20
-14676.65903008927
 10
13222.40189175734
 20
-15436.65903008926
 10
12922.40189175734
 20
-15436.65903008926
 10
12922.40189175734
 20
-16743.28728549655
 10
9687.367869971467
 20
-16743.28728549655
 10
9687.367869971486
 20
-13353.28728549656
 10
11862.40189175735
 20
-13353.28728549656
1001
REVIT
1002
{
1070
     1
1000
22505406
1002
}
1002
{
1070
     5
1000
17583107
1002
}
1002
{
1070
     2
1000
-2000011
1002
}
  0
LWPOLYLINE
  5
2B5
330
70
100
AcDbEntity
  8
A-ALV-___-___-EXI
 62
     7
370
    35
100
AcDbPolyline
 90
        3
 70
     0
 43
0.0
 10
12922.40189175736
 20
-2968.170448611906
 10
12922.40189175736
 20
-5213.287285496548
 10
11340.22157364349
 20
-5213.28728549654
1001
REVIT
1002
{
1070
     1
1000
22426935
1002
}
1002
{
1070
     5
1000
17583107
1002
}
1002
{
1070
     2
1000
-2000011
1002
}
  0
LWPOLYLINE
  5
2B6
330
70
100
AcDbEntity
  8
A-ALV-___-___-EXI
 62
     7
370
    35
100
AcDbPolyline
 90
        3
 70
     0
 43
0.0
 10
8667.367869971528
 20
-7703.287285496554
 10
8667.367869971542
 20
-5433.287285496533
 10
10480.22157364349
 20
-5433.287285496541
1001
REVIT
1002
{
1070
     1
1000
22426935
1002
}
1002
{
1070
     5
1000
17583107
1002
}
1002
{
1070
     2
1000
-2000011
1002
}
  0
LWPOLYLINE
  5
2B7
330
70
100
AcDbEntity
  8
A-ALV-___-___-EXI
 62
     7
370
    35
100
AcDbPolyline
 90
        6
 70
     0
 43
0.0
 10
4922.401891757356
 20
-11114.43398541962
 10
4922.401891757388
 20
-10378.17044861188
 10
5272.401891757388
 20
-10378.17044861188
 10
5272.40189175739
 20
-9633.287285496543
 10
8447.367869971518
 20
-9633.287285496551
 10
8447.367869971518
 20
-10123.28728549656
1001
REVIT
1002
{
1070
     1
1000
22423324
1002
}
1002
{
1070
     5
1000
17583107
1002
}
1002
{
1070
     2
1000
-2000011
1002
}
  0
LWPOLYLINE
  5
2B8
330
70
100
AcDbEntity
  8
A-ALV-___-___-EXI
 62
     7
370
    35
100
AcDbPolyline
 90
       14
 70
     0
 43
0.0
 10
8447.367869971511
 20
-10983.28728549656
 10
8447.3678699715
 20
-13133.28728549656
 10
5272.401891757354
 20
-13133.28728549654
 10
5272.401891757327
 20
-11114.43398541962
 10
4922.401891757328
 20
-11114.43398541962
 10
4922.401891757377
 20
-14734.43398541962
 10
5272.401891757397
 20
-14734.43398541962
 10
5272.401891757397
 20
-14694.23652509032
 10
5532.401891757396
 20
-14694.23652509032
 10
5532.401891757396
 20
-14734.43398541962
 10
5272.401891757375
 20
-14734.43398541962
 10
5272.401891757357
 20
-13353.28728549654
 10
8667.367869971499
 20
-13353.28728549655
 10
8667.367869971512
 20
-10983.28728549655
1001
REVIT
1002
{
1070
     1
1000
22423324
1002
}
1002
{
1070
     5
1000
17583107
1002
}
1002
{
1070
     2
1000
-2000011
1002
}
  0
LWPOLYLINE
  5
2B9
330
70
100
AcDbEntity
  8
A-ALV-___-___-EXI
 62
     7
370
    35
100
AcDbPolyline
 90
        4
 70
     0
 43
0.0
 10
11472.40189175733
 20
-20533.28728549655
 10
6607.401891757341
 20
-20533.28728549654
 10
6607.401891757341
 20
-20883.28728549655
 10
11472.40189175733
 20
-20883.28728549655
1001
REVIT
1002
{
1070
     1
1000
22422674
1002
}
1002
{
1070
     5
1000
22476216
1002
}
1002
{
1070
     2
1000
-2000011
1002
}
  0
LWPOLYLINE
  5
2BA
330
70
100
AcDbEntity
  8
A-JAN-___-___-EXI
100
AcDbPolyline
 90
        4
 70
     1
 43
0.0
 10
5272.401891757418
 20
-10337.97298828259
 10
5572.401891757419
 20
-10337.97298828259
 10
5572.401891757419
 20
-10378.17044861188
 10
5272.401891757418
 20
-10378.17044861188
1001
REVIT
1002
{
1070
     1
1000
22582114
1002
}
1002
{
1070
     2
1000
-2000051
1002
}
1002
{
1070
     3
1000
-2000042
1002
}
  0
LWPOLYLINE
  5
2BB
330
70
100
AcDbEntity
  8
A-JAN-___-___-EXI
100
AcDbPolyline
 90
        4
 70
     1
 43
0.0
 10
12922.40189175734
 20
-15476.65903008926
 10
12602.40189175734
 20
-15476.65903008926
 10
12602.40189175734
 20
-15436.65903008926
 10
12922.40189175734
 20
-15436.65903008926
1001
REVIT
1002
{
1070
     1
1000
22582067
1002
}
1002
{
1070
     2
1000
-2000051
1002
}
1002
{
1070
     3
1000
-2000042
1002
}
  0
LWPOLYLINE
  5
2BC
330
70
100
AcDbEntity
  8
A-ALV-___-___-EXI
 62
     7
370
    35
100
AcDbPolyline
 90
        5
 70
     0
 43
0.0
 10
4922.401891757402
 20
-1818.170448611882
 10
5272.401891757403
 20
-1818.170448611883
 10
5272.401891757404
 20
-1388.170448611885
 10
12922.40189175736
 20
-1388.170448611912
 10
12922.40189175736
 20
-2208.170448611906
1001
REVIT
1002
{
1070
     1
1000
22571259
1002
}
1002
{
1070
     5
1000
17583107
1002
}
1002
{
1070
     2
1000
-2000011
1002
}
  0
LWPOLYLINE
  5
2BD
330
70
100
AcDbEntity
  8
A-ALV-___-___-EXI
100
AcDbPolyline
 90
        6
 70
     0
 43
0.0
 10
12732.40189175734
 20
-9333.287285496568
 10
12922.40189175735
 20
-9333.287285496568
 10
12922.40189175735
 20
-8016.659030089263
 10
13222.40189175735
 20
-8016.659030089263
 10
13222.40189175735
 20
-7148.170448611915
 10
13222.40189175736
 20
-2968.170448611909
1001
REVIT
1002
{
1070
     1
1000
22546421
1002
}
1002
{
1070
     2
1000
-2000051
1002
}
1002
{
1070
     3
1000
-2000066
1002
}
  0
LWPOLYLINE
  5
2BE
330
70
100
AcDbEntity
  8
A-ALV-___-___-EXI
 62
     7
370
    35
100
AcDbPolyline
 90
        4
 70
     0
 43
0.0
 10
13222.40189175733
 20
-19063.28728549656
 10
12922.40189175733
 20
-19063.28728549656
 10
12922.40189175733
 20
-20533.28728549656
 10
12432.40189175733
 20
-20533.28728549655
1001
REVIT
1002
{
1070
     1
1000
22508925
1002
}
1002
{
1070
     5
1000
22474519
1002
}
1002
{
1070
     2
1000
-2000011
1002
}
  0
LWPOLYLINE
  5
2BF
330
70
100
AcDbEntity
  8
A-ALV-___-___-EXI
 62
     7
370
    35
100
AcDbPolyline
 90
        4
 70
     0
 43
0.0
 10
8687.367869971494
 20
-16963.28728549654
 10
12922.40189175734
 20
-16963.28728549655
 10
12922.40189175734
 20
-18256.65903008926
 10
13222.40189175733
 20
-18256.65903008926
1001
REVIT
1002
{
1070
     1
1000
22508836
1002
}
1002
{
1070
     5
1000
22474519
1002
}
1002
{
1070
     2
1000
-2000011
1002
}
  0
LWPOLYLINE
  5
2C0
330
70
100
AcDbEntity
  8
A-ALV-___-___-EXI
 62
     7
370
    35
100
AcDbPolyline
 90
        4
 70
     0
 43
0.0
 10
13222.40189175734
 20
-11656.65903008926
 10
12922.40189175735
 20
-11656.65903008926
 10
12922.40189175734
 20
-13133.28728549657
 10
12722.40189175735
 20
-13133.28728549657
1001
REVIT
1002
{
1070
     1
1000
22508709
1002
}
1002
{
1070
     5
1000
22474519
1002
}
1002
{
1070
     2
1000
-2000011
1002
}
  0
LWPOLYLINE
  5
2C1
330
70
100
AcDbEntity
  8
A-ALV-___-___-EXI
 62
     7
370
    35
100
AcDbPolyline
 90
        4
 70
     0
 43
0.0
 10
12722.40189175735
 20
-13353.28728549657
 10
12922.40189175734
 20
-13353.28728549657
 10
12922.40189175734
 20
-14676.65903008926
 10
13222.40189175734
 20
-14676.65903008926
1001
REVIT
1002
{
1070
     1
1000
22508709
1002
}
1002
{
1070
     5
1000
22474519
1002
}
1002
{
1070
     2
1000
-2000011
1002
}
  0
LWPOLYLINE
  5
2C2
330
70
100
AcDbEntity
  8
A-ALV-___-___-EXI
 62
     7
370
    35
100
AcDbPolyline
 90
        4
 70
     0
 43
0.0
 10
12732.40189175734
 20
-9633.287285496567
 10
12922.40189175735
 20
-9633.287285496571
 10
12922.40189175735
 20
-10876.65903008926
 10
13222.40189175734
 20
-10876.65903008926
1001
REVIT
1002
{
1070
     1
1000
22508570
1002
}
1002
{
1070
     5
1000
22474519
1002
}
1002
{
1070
     2
1000
-2000011
1002
}
  0
LWPOLYLINE
  5
2C3
330
70
100
AcDbEntity
  8
A-ALV-___-___-EXI
 62
     7
370
    35
100
AcDbPolyline
 90
        5
 70
     0
 43
0.0
 10
4922.401891757392
 20
-8178.170448611892
 10
5272.401891757392
 20
-8178.170448611892
 10
5272.401891757398
 20
-5433.287285496529
 10
8447.367869971541
 20
-5433.287285496537
 10
8447.367869971529
 20
-7703.287285496559
1001
REVIT
1002
{
1070
     1
1000
22508473
1002
}
1002
{
1070
     5
1000
22476216
1002
}
1002
{
1070
     2
1000
-2000011
1002
}
  0
LWPOLYLINE
  5
2C4
330
70
100
AcDbEntity
  8
A-ALV-___-___-EXI
 62
     7
370
    35
100
AcDbPolyline
 90
        4
 70
     0
 43
0.0
 10
10480.22157364349
 20
-5213.287285496539
 10
5272.401891757398
 20
-5213.287285496529
 10
5272.401891757402
 20
-2518.170448611891
 10
4922.401891757401
 20
-2518.17044861189
1001
REVIT
1002
{
1070
     1
1000
22508473
1002
}
1002
{
1070
     5
1000
22476216
1002
}
1002
{
1070
     2
1000
-2000011
1002
}
  0
LWPOLYLINE
  5
2C5
330
70
100
AcDbEntity
  8
A-ALV-___-___-EXI
 62
     7
370
    35
100
AcDbPolyline
 90
        5
 70
     0
 43
0.0
 10
8447.367869971524
 20
-8563.287285496556
 10
8447.367869971524
 20
-9333.287285496556
 10
5272.40189175739
 20
-9333.287285496544
 10
5272.401891757391
 20
-8918.170448611887
 10
4922.401891757391
 20
-8918.170448611887
1001
REVIT
1002
{
1070
     1
1000
22508337
1002
}
1002
{
1070
     5
1000
22476216
1002
}
1002
{
1070
     2
1000
-2000011
1002
}
  0
LWPOLYLINE
  5
2C6
330
70
100
AcDbEntity
  8
A-ALV-___-___-EXI
 62
     7
370
    35
100
AcDbPolyline
 90
        4
 70
     0
 43
0.0
 10
4922.401891757377
 20
-18303.28728549654
 10
5272.401891757379
 20
-18303.28728549654
 10
5272.40189175738
 20
-16963.28728549654
 10
7827.367869971496
 20
-16963.28728549654
1001
REVIT
1002
{
1070
     1
1000
22507962
1002
}
1002
{
1070
     5
1000
22476216
1002
}
1002
{
1070
     2
1000
-2000011
1002
}
  0
LWPOLYLINE
  5
2C7
330
70
100
AcDbEntity
  8
A-ALV-___-___-EXI
 62
     7
370
    35
100
AcDbPolyline
 90
        4
 70
     0
 43
0.0
 10
7827.367869971496
 20
-16743.28728549654
 10
5272.40189175738
 20
-16743.28728549654
 10
5272.401891757384
 20
-15463.28728549654
 10
4922.401891757383
 20
-15463.28728549654
1001
REVIT
1002
{
1070
     1
1000
22507962
1002
}
1002
{
1070
     5
1000
22476216
1002
}
1002
{
1070
     2
1000
-2000011
1002
}
  0
LWPOLYLINE
  5
2C8
330
70
100
AcDbEntity
  8
A-ALV-___-___-EXI
 62
     7
370
    35
100
AcDbPolyline
 90
        6
 70
     0
 43
0.0
 10
5732.401891757338
 20
-20533.28728549655
 10
5272.401891757425
 20
-20533.28728549655
 10
5272.40189175743
 20
-19143.28728549654
 10
4922.40189175743
 20
-19143.28728549654
 10
4922.401891757427
 20
-20883.28728549654
 10
5732.401891757338
 20
-20883.28728549655
1001
REVIT
1002
{
1070
     1
1000
22478454
1002
}
1002
{
1070
     5
1000
22476216
1002
}
1002
{
1070
     2
1000
-2000011
1002
}
  0
LWPOLYLINE
  5
2C9
330
70
100
AcDbEntity
  8
A-ALV-___-___-EXI
 62
     7
370
    35
100
AcDbPolyline
 90
        4
 70
     0
 43
0.0
 10
11340.22157364349
 20
-5433.28728549654
 10
12922.40189175736
 20
-5433.287285496545
 10
12922.40189175735
 20
-7148.170448611911
 10
13222.40189175735
 20
-7148.170448611911
1001
REVIT
1002
{
1070
     1
1000
22426935
1002
}
1002
{
1070
     5
1000
17583107
1002
}
1002
{
1070
     2
1000
-2000011
1002
}
  0
VIEWPORT
  5
261
330
6C
100
AcDbEntity
 67
     1
  8
A-PIS-___-___-EXI
100
AcDbViewport
 10
170.5529713210719
 20
201.9065342205773
 30
0.0
 40
85.99999999999957
 41
224.4011683688466
 68
     2
 69
     2
 12
9072.401891757364
 22
-12388.22886705421
 13
0.0
 23
0.0
 14
0.0
 24
0.0
 15
0.0
 25
0.0
 16
0.0
 26
0.0
 36
1.0
 17
0.0
 27
0.0
 37
0.0
 42
0.0
 43
0.0
 44
0.0
 45
22440.11683688466
 50
0.0
 51
0.0
 72
  1000
 90
    32768
  1

281
     0
 71
     1
 74
     1
110
0.0
120
0.0
130
0.0
111
1.0
121
0.0
131
0.0
112
0.0
122
1.0
132
0.0
 79
     0
146
0.0
170
     0
 61
     5
348
2F
292
     1
282
     1
141
0.0
142
0.0
 63
   250
421
  3355443
  0
VIEWPORT
  5
263
330
6C
100
AcDbEntity
 67
     1
  8
0
100
AcDbViewport
 10
395.6584453951665
 20
208.3306223121936
 30
0.0
 40
1205.021567089242
 41
558.0450430616232
 68
     1
 69
     1
 12
395.6584453951665
 22
208.3306223121936
 13
0.0
 23
0.0
 14
0.0
 24
0.0
 15
0.0
 25
0.0
 16
0.0
 26
0.0
 36
1.0
 17
0.0
 27
0.0
 37
0.0
 42
50.0
 43
0.0
 44
0.0
 45
558.0450430616232
 50
0.0
 51
0.0
 72
   100
 90
    32800
  1

281
     0
 71
     1
 74
     1
110
0.0
120
0.0
130
0.0
111
1.0
121
0.0
131
0.0
112
0.0
122
1.0
132
0.0
 79
     0
146
0.0
170
     0
 61
     5
348
2F
292
     1
282
     1
141
0.0
142
0.0
 63
   250
421
  3355443
  0
INSERT
  5
26F
330
6C
100
AcDbEntity
 67
     1
  8
A-JAN-___-___-EXI
100
AcDbBlockReference
  2
SVG - A4-22584995-Não nomeada
 10
0.0
 20
0.0
 30
0.0
1001
REVIT
1002
{
1070
     1
1000
22585010
1002
}
1002
{
1070
     5
1000
22584995
1002
}
1002
{
1070
     2
1000
-2000280
1002
}
  0
ENDSEC
  0
SECTION
  2
OBJECTS
  0
DICTIONARY
  5
C
330
0
100
AcDbDictionary
281
     1
  3
ACAD_CIP_PREVIOUS_PRODUCT_INFO
350
79
  3
ACAD_COLOR
350
63
  3
ACAD_DETAILVIEWSTYLE
350
6A
  3
ACAD_GROUP
350
D
  3
ACAD_IMAGE_VARS
350
7A
  3
ACAD_LAYOUT
350
62
  3
ACAD_MATERIAL
350
10
  3
ACAD_MLEADERSTYLE
350
66
  3
ACAD_MLINESTYLE
350
5F
  3
ACAD_PLOTSETTINGS
350
61
  3
ACAD_PLOTSTYLENAME
350
E
  3
ACAD_RENDER_ACTIVE_RAPIDRT_SETTINGS
350
28F
  3
ACAD_RENDER_RAPIDRT_SETTINGS
350
288
  3
ACAD_SCALELIST
350
42
  3
ACAD_SECTIONVIEWSTYLE
350
68
  3
ACAD_TABLESTYLE
350
64
  3
ACAD_VISUALSTYLE
350
29
  3
ACDB_RECOMPOSE_DATA
350
2EC
  3
AcDbVariableDictionary
350
278
  3
REVIT_DICTIONARY
350
270
  0
SUN
  5
277
330
57
100
AcDbSun
 90
        1
290
     1
 63
     7
421
 16777215
 40
0.3
291
     1
 91
  2460364
 92
 70444000
292
     0
 70
     1
 71
   128
280
     1
  0
DICTIONARY
  5
294
330
2
100
AcDbDictionary
280
     1
281
     1
  3
ACAD_LAYERSTATES
360
295
  0
DICTIONARY
  5
275
330
70
100
AcDbDictionary
280
     1
281
     1
  3
ACAD_SORTENTS
360
276
  0
XRECORD
  5
79
102
{ACAD_REACTORS
330
C
102
}
330
C
100
AcDbXrecord
280
     1
300
ACD
300
2022
300

  0
DICTIONARY
  5
63
102
{ACAD_REACTORS
330
C
102
}
330
C
100
AcDbDictionary
281
     1
  0
DICTIONARY
  5
6A
102
{ACAD_REACTORS
330
C
102
}
330
C
100
AcDbDictionary
281
     1
  3
Imperial24
350
6B
  3
Metric50
350
280
  0
DICTIONARY
  5
D
102
{ACAD_REACTORS
330
C
102
}
330
C
100
AcDbDictionary
281
     1
  0
RASTERVARIABLES
  5
7A
102
{ACAD_REACTORS
330
C
102
}
330
C
100
AcDbRasterVariables
 90
        0
 70
     0
 71
     1
 72
     1
  0
DICTIONARY
  5
62
102
{ACAD_REACTORS
330
C
102
}
330
C
100
AcDbDictionary
281
     1
  3
Layout1
350
6F
  3
Model
350
73
  0
DICTIONARY
  5
10
102
{ACAD_REACTORS
330
C
102
}
330
C
100
AcDbDictionary
281
     1
  3
ByBlock
350
19
  3
ByLayer
350
11
  3
Global
350
21
  0
DICTIONARY
  5
66
102
{ACAD_REACTORS
330
C
102
}
330
C
100
AcDbDictionary
281
     1
  3
Standard
350
67
  0
DICTIONARY
  5
5F
102
{ACAD_REACTORS
330
C
102
}
330
C
100
AcDbDictionary
281
     1
  3
Standard
350
60
  0
DICTIONARY
  5
61
102
{ACAD_REACTORS
330
C
102
}
330
C
100
AcDbDictionary
281
     1
  0
ACDBDICTIONARYWDFLT
  5
E
102
{ACAD_REACTORS
330
C
102
}
330
C
100
AcDbDictionary
281
     1
  3
Normal
350
F
100
AcDbDictionaryWithDefault
340
F
  0
RAPIDRTRENDERSETTINGS
  5
28F
102
{ACAD_REACTORS
330
C
102
}
330
C
100
AcDbRenderSettings
 90
        2
  1
Médio
290
     1
290
     0
290
     1
290
     1
  1

  1
Aplica 5 níveis de renderização
 90
        0
100
AcDbRapidRTRenderSettings
 90
        3
 70
     0
 90
        5
 90
        1
 70
     1
 70
     2
 40
3.0
 40
3.0
290
     1
  0
DICTIONARY
  5
288
102
{ACAD_REACTORS
330
C
102
}
330
C
100
AcDbDictionary
281
     1
  3
Alto
350
28B
  3
Baixo
350
289
  3
Médio
350
28A
  3
Qualidade de curta duração
350
28C
  3
Qualidade de longa duração
350
28E
  3
Qualidade de média duração
350
28D
  0
DICTIONARY
  5
42
102
{ACAD_REACTORS
330
C
102
}
330
C
100
AcDbDictionary
281
     1
  3
A0
350
43
  3
A1
350
44
  3
A2
350
45
  3
A3
350
46
  3
A4
350
47
  3
A5
350
48
  3
A6
350
49
  3
A7
350
4A
  3
A8
350
4B
  3
A9
350
4C
  3
B0
350
4D
  3
B1
350
4E
  3
B2
350
4F
  3
B3
350
50
  3
B4
350
51
  3
B5
350
52
  3
B6
350
53
  0
DICTIONARY
  5
68
102
{ACAD_REACTORS
330
C
102
}
330
C
100
AcDbDictionary
281
     1
  3
Imperial24
350
69
  3
Metric50
350
27F
  0
DICTIONARY
  5
64
102
{ACAD_REACTORS
330
C
102
}
330
C
100
AcDbDictionary
281
     1
  3
Standard
350
65
  0
DICTIONARY
  5
29
102
{ACAD_REACTORS
330
C
102
}
330
C
100
AcDbDictionary
281
     1
  3
2dWireframe
350
2F
  3
Basic
350
2E
  3
Brighten
350
35
  3
ColorChange
350
39
  3
Conceptual
350
32
  3
Dim
350
34
  3
EdgeColorOff
350
41
  3
Facepattern
350
38
  3
Flat
350
2A
  3
FlatWithEdges
350
2B
  3
Gouraud
350
2C
  3
GouraudWithEdges
350
2D
  3
Hidden
350
31
  3
JitterOff
350
3F
  3
Linepattern
350
37
  3
OverhangOff
350
40
  3
Realistic
350
33
  3
Shaded
350
3E
  3
Shaded with edges
350
3D
  3
Shades of Gray
350
3A
  3
Sketchy
350
3B
  3
Thicken
350
36
  3
Wireframe
350
30
  3
X-Ray
350
3C
  0
XRECORD
  5
2EC
102
{ACAD_REACTORS
330
C
102
}
330
C
100
AcDbXrecord
280
     1
 90
        1
330
65
  0
DICTIONARY
  5
278
102
{ACAD_REACTORS
330
C
102
}
330
C
100
AcDbDictionary
281
     1
  3
CANNOSCALE
350
27D
  3
CMLEADERSTYLE
350
27A
  3
CTABLESTYLE
350
279
  3
CVIEWDETAILSTYLE
350
27B
  3
CVIEWSECTIONSTYLE
350
27C
  0
DICTIONARY
  5
270
102
{ACAD_REACTORS
330
C
102
}
330
C
100
AcDbDictionary
281
     1
  3
DRAWING_TOOL
350
274
  3
REVIT_CATEGORY_MAPPING
350
272
  3
REVIT_SUB_CATEGORY_MAPPING
350
273
  3
REVIT_TYPE_MAPPING
350
271
  0
DICTIONARY
  5
295
102
{ACAD_REACTORS
330
294
102
}
330
294
100
AcDbDictionary
281
     1
  0
SORTENTSTABLE
  5
276
102
{ACAD_REACTORS
330
275
102
}
330
275
100
AcDbSortentsTable
330
70
  0
ACDBDETAILVIEWSTYLE
  5
6B
102
{ACAD_REACTORS
330
6A
102
}
330
6A
100
AcDbModelDocViewStyle
 70
     0
  3
Imperial24
290
     1
300
Imperial24
 90
        0
100
AcDbDetailViewStyle
 70
     0
 71
     0
 90
        3
 71
     1
340
55
 62
   256
 40
0.24
340
0
 62
   256
 40
0.24
300

 40
0.36
280
     3
 71
     2
340
5D
 90
       25
 62
   256
 71
     3
340
55
 62
   256
 40
0.24
 90
        1
 40
0.75
 90
        1
300
%<\AcVar ViewType \f "%tc1">% %<\AcVar ViewDetailId>%\PSCALE %<\AcVar ViewScale \f "%sn">%
 71
     4
340
5D
 90
       25
 62
   256
340
5D
 90
       25
 62
   256
280
     0
  0
ACDBDETAILVIEWSTYLE
  5
280
102
{ACAD_REACTORS
330
6A
102
}
330
6A
100
AcDbModelDocViewStyle
 70
     0
  3
Metric50
290
     1
300
Metric50
 90
        0
100
AcDbDetailViewStyle
 70
     0
 71
     0
 90
        3
 71
     1
340
55
 62
   256
 40
5.0
340
0
 62
   256
 40
5.0
300

 40
0.0
280
     1
 71
     2
340
5D
 90
       25
 62
   256
 71
     3
340
55
 62
   256
 40
5.0
 90
        0
 40
15.0
 90
        1
300
%<\AcVar ViewDetailId>% (%<\AcVar ViewScale \f "%sn">%)
 71
     4
340
5D
 90
       25
 62
   256
340
5D
 90
       25
 62
   256
280
     0
  0
LAYOUT
  5
6F
102
{ACAD_REACTORS
330
62
102
}
330
62
100
AcDbPlotSettings
  1

  2
PDF24
  4
A4
  6

 40
0.0
 41
0.0
 42
0.1113433837890625
 43
0.0
 44
210.0
 45
297.0
 46
0.0
 47
0.0
 48
0.0
 49
0.0
140
0.0
141
0.0
142
1.0
143
1.415217033324818
 70
   688
 72
     1
 73
     1
 74
     1
  7

 75
     0
147
0.7066054014702363
 76
     0
 77
     2
 78
   300
148
-64.27901684485153
149
-59.47287840171589
100
AcDbLayout
  1
Layout1
 70
     0
 71
     1
 10
64.27901684485153
 20
59.47287840171589
 11
484.5984757423225
 21
356.6684553999278
 12
0.0
 22
0.0
 32
0.0
 14
64.29285070883699
 24
59.49999999998593
 34
0.0
 15
274.292850708837
 25
356.4999999999859
 35
0.0
146
0.0
 13
0.0
 23
0.0
 33
0.0
 16
1.0
 26
0.0
 36
0.0
 17
0.0
 27
1.0
 37
0.0
 76
     0
330
6C
331
263
1001
ACAD_PSEXT
1000
PDF24
1000
PDF24
1000
\\.\pipe\PDFPrint
1000
PDF24 Printer
1070
     0
  0
LAYOUT
  5
73
102
{ACAD_REACTORS
330
62
102
}
330
62
100
AcDbPlotSettings
  1

  2

  4

  6

 40
0.0
 41
0.0
 42
0.0
 43
0.0
 44
0.0
 45
0.0
 46
0.0
 47
0.0
 48
0.0
 49
0.0
140
0.0
141
0.0
142
1.0
143
1.0
 70
  1712
 72
     0
 73
     0
 74
     0
  7

 75
     0
147
1.0
 76
     0
 77
     2
 78
   300
148
0.0
149
0.0
100
AcDbLayout
  1
Model
 70
     1
 71
     0
 10
0.0
 20
0.0
 11
12.0
 21
9.0
 12
0.0
 22
0.0
 32
0.0
 14
0.0
 24
0.0
 34
0.0
 15
0.0
 25
0.0
 35
0.0
146
0.0
 13
0.0
 23
0.0
 33
0.0
 16
1.0
 26
0.0
 36
0.0
 17
0.0
 27
1.0
 37
0.0
 76
     0
330
70
331
57
  0
MATERIAL
  5
19
102
{ACAD_XDICTIONARY
360
1A
102
}
102
{ACAD_REACTORS
330
10
102
}
330
10
100
AcDbMaterial
  1
ByBlock
 72
     0
 43
0.0208333333333333
 43
0.0
 43
0.0
 43
0.0
 43
0.0
 43
0.0208333333333333
 43
0.0
 43
0.0
 43
0.0
 43
0.0
 43
1.0
 43
0.0
 43
0.0
 43
0.0
 43
0.0
 43
1.0
 77
     0
 47
0.0208333333333333
 47
0.0
 47
0.0
 47
0.0
 47
0.0
 47
0.0208333333333333
 47
0.0
 47
0.0
 47
0.0
 47
0.0
 47
1.0
 47
0.0
 47
0.0
 47
0.0
 47
0.0
 47
1.0
171
     0
 49
0.0208333333333333
 49
0.0
 49
0.0
 49
0.0
 49
0.0
 49
0.0208333333333333
 49
0.0
 49
0.0
 49
0.0
 49
0.0
 49
1.0
 49
0.0
 49
0.0
 49
0.0
 49
0.0
 49
1.0
175
     0
142
0.0208333333333333
142
0.0
142
0.0
142
0.0
142
0.0
142
0.0208333333333333
142
0.0
142
0.0
142
0.0
142
0.0
142
1.0
142
0.0
142
0.0
142
0.0
142
0.0
142
1.0
179
     0
144
0.0208333333333333
144
0.0
144
0.0
144
0.0
144
0.0
144
0.0208333333333333
144
0.0
144
0.0
144
0.0
144
0.0
144
1.0
144
0.0
144
0.0
144
0.0
144
0.0
144
1.0
147
0.0208333333333333
147
0.0
147
0.0
147
0.0
147
0.0
147
0.0208333333333333
147
0.0
147
0.0
147
0.0
147
0.0
147
1.0
147
0.0
147
0.0
147
0.0
147
0.0
147
1.0
  0
MATERIAL
  5
11
102
{ACAD_XDICTIONARY
360
12
102
}
102
{ACAD_REACTORS
330
10
102
}
330
10
100
AcDbMaterial
  1
ByLayer
 72
     0
 43
0.0208333333333333
 43
0.0
 43
0.0
 43
0.0
 43
0.0
 43
0.0208333333333333
 43
0.0
 43
0.0
 43
0.0
 43
0.0
 43
1.0
 43
0.0
 43
0.0
 43
0.0
 43
0.0
 43
1.0
 77
     0
 47
0.0208333333333333
 47
0.0
 47
0.0
 47
0.0
 47
0.0
 47
0.0208333333333333
 47
0.0
 47
0.0
 47
0.0
 47
0.0
 47
1.0
 47
0.0
 47
0.0
 47
0.0
 47
0.0
 47
1.0
171
     0
 49
0.0208333333333333
 49
0.0
 49
0.0
 49
0.0
 49
0.0
 49
0.0208333333333333
 49
0.0
 49
0.0
 49
0.0
 49
0.0
 49
1.0
 49
0.0
 49
0.0
 49
0.0
 49
0.0
 49
1.0
175
     0
142
0.0208333333333333
142
0.0
142
0.0
142
0.0
142
0.0
142
0.0208333333333333
142
0.0
142
0.0
142
0.0
142
0.0
142
1.0
142
0.0
142
0.0
142
0.0
142
0.0
142
1.0
179
     0
144
0.0208333333333333
144
0.0
144
0.0
144
0.0
144
0.0
144
0.0208333333333333
144
0.0
144
0.0
144
0.0
144
0.0
144
1.0
144
0.0
144
0.0
144
0.0
144
0.0
144
1.0
147
0.0208333333333333
147
0.0
147
0.0
147
0.0
147
0.0
147
0.0208333333333333
147
0.0
147
0.0
147
0.0
147
0.0
147
1.0
147
0.0
147
0.0
147
0.0
147
0.0
147
1.0
  0
MATERIAL
  5
21
102
{ACAD_XDICTIONARY
360
22
102
}
102
{ACAD_REACTORS
330
10
102
}
330
10
100
AcDbMaterial
  1
Global
 72
     0
 43
0.0208333333333333
 43
0.0
 43
0.0
 43
0.0
 43
0.0
 43
0.0208333333333333
 43
0.0
 43
0.0
 43
0.0
 43
0.0
 43
1.0
 43
0.0
 43
0.0
 43
0.0
 43
0.0
 43
1.0
 77
     0
 47
0.0208333333333333
 47
0.0
 47
0.0
 47
0.0
 47
0.0
 47
0.0208333333333333
 47
0.0
 47
0.0
 47
0.0
 47
0.0
 47
1.0
 47
0.0
 47
0.0
 47
0.0
 47
0.0
 47
1.0
171
     0
 49
0.0208333333333333
 49
0.0
 49
0.0
 49
0.0
 49
0.0
 49
0.0208333333333333
 49
0.0
 49
0.0
 49
0.0
 49
0.0
 49
1.0
 49
0.0
 49
0.0
 49
0.0
 49
0.0
 49
1.0
175
     0
142
0.0208333333333333
142
0.0
142
0.0
142
0.0
142
0.0
142
0.0208333333333333
142
0.0
142
0.0
142
0.0
142
0.0
142
1.0
142
0.0
142
0.0
142
0.0
142
0.0
142
1.0
179
     0
144
0.0208333333333333
144
0.0
144
0.0
144
0.0
144
0.0
144
0.0208333333333333
144
0.0
144
0.0
144
0.0
144
0.0
144
1.0
144
0.0
144
0.0
144
0.0
144
0.0
144
1.0
147
0.0208333333333333
147
0.0
147
0.0
147
0.0
147
0.0
147
0.0208333333333333
147
0.0
147
0.0
147
0.0
147
0.0
147
1.0
147
0.0
147
0.0
147
0.0
147
0.0
147
1.0
  0
MLEADERSTYLE
  5
67
102
{ACAD_REACTORS
330
66
102
}
330
66
100
AcDbMLeaderStyle
179
     2
170
     2
171
     1
172
     0
 90
        2
 40
0.0
 41
0.0
173
     1
 91
-1056964608
340
5B
 92
       -2
290
     1
 42
0.09
291
     1
 43
0.36
  3
Standard
 44
0.18
300

342
55
174
     1
178
     6
175
     1
176
     0
 93
-1056964608
 45
0.18
292
     0
297
     0
 46
0.18
 94
-1056964608
 47
1.0
 49
1.0
140
1.0
293
     1
141
0.0
294
     1
177
     0
142
1.0
295
     1
296
     0
143
0.125
271
     0
272
     9
273
     9
298
     1
  0
MLINESTYLE
  5
60
102
{ACAD_REACTORS
330
5F
102
}
330
5F
100
AcDbMlineStyle
  2
STANDARD
 70
     0
  3

 62
   256
 51
90.0
 52
90.0
 71
     2
 49
0.5
 62
   256
  6
BYLAYER
 49
-0.5
 62
   256
  6
BYLAYER
  0
ACDBPLACEHOLDER
  5
F
102
{ACAD_REACTORS
330
E
102
}
330
E
  0
RAPIDRTRENDERSETTINGS
  5
28B
102
{ACAD_REACTORS
330
288
102
}
330
288
100
AcDbRenderSettings
 90
        2
  1
Alto
290
     1
290
     0
290
     1
290
     1
  1

  1
Aplica 10 níveis de renderização
 90
        2
100
AcDbRapidRTRenderSettings
 90
        3
 70
     0
 90
       10
 90
        1
 70
     2
 70
     2
 40
3.0
 40
3.0
290
     1
  0
RAPIDRTRENDERSETTINGS
  5
289
102
{ACAD_REACTORS
330
288
102
}
330
288
100
AcDbRenderSettings
 90
        2
  1
Baixo
290
     1
290
     0
290
     1
290
     1
  1

  1
Aplica 1 nível de renderização
 90
        0
100
AcDbRapidRTRenderSettings
 90
        3
 70
     0
 90
        1
 90
        1
 70
     0
 70
     2
 40
3.0
 40
3.0
290
     1
  0
RAPIDRTRENDERSETTINGS
  5
28A
102
{ACAD_REACTORS
330
288
102
}
330
288
100
AcDbRenderSettings
 90
        2
  1
Médio
290
     1
290
     0
290
     1
290
     1
  1

  1
Aplica 5 níveis de renderização
 90
        1
100
AcDbRapidRTRenderSettings
 90
        3
 70
     0
 90
        5
 90
        1
 70
     1
 70
     2
 40
3.0
 40
3.0
290
     1
  0
RAPIDRTRENDERSETTINGS
  5
28C
102
{ACAD_REACTORS
330
288
102
}
330
288
100
AcDbRenderSettings
 90
        2
  1
Qualidade de curta duração
290
     1
290
     0
290
     1
290
     1
  1

  1
Renderiza por 10 minutos
 90
        3
100
AcDbRapidRTRenderSettings
 90
        3
 70
     1
 90
        1
 90
       10
 70
     1
 70
     2
 40
3.0
 40
3.0
290
     1
  0
RAPIDRTRENDERSETTINGS
  5
28E
102
{ACAD_REACTORS
330
288
102
}
330
288
100
AcDbRenderSettings
 90
        2
  1
Qualidade de longa duração
290
     1
290
     0
290
     1
290
     1
  1

  1
Renderiza por 12 horas
 90
        5
100
AcDbRapidRTRenderSettings
 90
        3
 70
     1
 90
        1
 90
      720
 70
     2
 70
     2
 40
3.0
 40
3.0
290
     1
  0
RAPIDRTRENDERSETTINGS
  5
28D
102
{ACAD_REACTORS
330
288
102
}
330
288
100
AcDbRenderSettings
 90
        2
  1
Qualidade de média duração
290
     1
290
     0
290
     1
290
     1
  1

  1
Renderiza por 60 minutos
 90
        4
100
AcDbRapidRTRenderSettings
 90
        3
 70
     1
 90
        1
 90
       60
 70
     2
 70
     2
 40
3.0
 40
3.0
290
     1
  0
SCALE
  5
43
102
{ACAD_REACTORS
330
42
102
}
330
42
100
AcDbScale
 70
     0
300
1:1
140
1.0
141
1.0
290
     1
  0
SCALE
  5
44
102
{ACAD_REACTORS
330
42
102
}
330
42
100
AcDbScale
 70
     0
300
1/128" = 1'-0"
140
0.0078125
141
12.0
290
     0
  0
SCALE
  5
45
102
{ACAD_REACTORS
330
42
102
}
330
42
100
AcDbScale
 70
     0
300
1/64" = 1'-0"
140
0.015625
141
12.0
290
     0
  0
SCALE
  5
46
102
{ACAD_REACTORS
330
42
102
}
330
42
100
AcDbScale
 70
     0
300
1/32" = 1'-0"
140
0.03125
141
12.0
290
     0
  0
SCALE
  5
47
102
{ACAD_REACTORS
330
42
102
}
330
42
100
AcDbScale
 70
     0
300
1/16" = 1'-0"
140
0.0625
141
12.0
290
     0
  0
SCALE
  5
48
102
{ACAD_REACTORS
330
42
102
}
330
42
100
AcDbScale
 70
     0
300
3/32" = 1'-0"
140
0.09375
141
12.0
290
     0
  0
SCALE
  5
49
102
{ACAD_REACTORS
330
42
102
}
330
42
100
AcDbScale
 70
     0
300
1/8" = 1'-0"
140
0.125
141
12.0
290
     0
  0
SCALE
  5
4A
102
{ACAD_REACTORS
330
42
102
}
330
42
100
AcDbScale
 70
     0
300
3/16" = 1'-0"
140
0.1875
141
12.0
290
     0
  0
SCALE
  5
4B
102
{ACAD_REACTORS
330
42
102
}
330
42
100
AcDbScale
 70
     0
300
1/4" = 1'-0"
140
0.25
141
12.0
290
     0
  0
SCALE
  5
4C
102
{ACAD_REACTORS
330
42
102
}
330
42
100
AcDbScale
 70
     0
300
3/8" = 1'-0"
140
0.375
141
12.0
290
     0
  0
SCALE
  5
4D
102
{ACAD_REACTORS
330
42
102
}
330
42
100
AcDbScale
 70
     0
300
1/2" = 1'-0"
140
0.5
141
12.0
290
     0
  0
SCALE
  5
4E
102
{ACAD_REACTORS
330
42
102
}
330
42
100
AcDbScale
 70
     0
300
3/4" = 1'-0"
140
0.75
141
12.0
290
     0
  0
SCALE
  5
4F
102
{ACAD_REACTORS
330
42
102
}
330
42
100
AcDbScale
 70
     0
300
1" = 1'-0"
140
1.0
141
12.0
290
     0
  0
SCALE
  5
50
102
{ACAD_REACTORS
330
42
102
}
330
42
100
AcDbScale
 70
     0
300
1-1/2" = 1'-0"
140
1.5
141
12.0
290
     0
  0
SCALE
  5
51
102
{ACAD_REACTORS
330
42
102
}
330
42
100
AcDbScale
 70
     0
300
3" = 1'-0"
140
3.0
141
12.0
290
     0
  0
SCALE
  5
52
102
{ACAD_REACTORS
330
42
102
}
330
42
100
AcDbScale
 70
     0
300
6" = 1'-0"
140
6.0
141
12.0
290
     0
  0
SCALE
  5
53
102
{ACAD_REACTORS
330
42
102
}
330
42
100
AcDbScale
 70
     0
300
1'-0" = 1'-0"
140
12.0
141
12.0
290
     0
  0
ACDBSECTIONVIEWSTYLE
  5
69
102
{ACAD_REACTORS
330
68
102
}
330
68
100
AcDbModelDocViewStyle
 70
     0
  3
Imperial24
290
     1
300
Imperial24
 90
        0
100
AcDbSectionViewStyle
 70
     0
 71
     0
 90
       78
 71
     1
340
55
 62
   256
 40
0.24
340
0
340
0
 62
   256
 40
0.24
300
I, O, Q, S, X, Z
 40
0.48
 90
        3
 40
0.18
 90
        1
 71
     2
340
5D
 90
       25
 62
   256
340
5D
 90
       50
 62
   256
 40
0.24
 40
0.0
 40
0.24
 71
     3
340
55
 62
   256
 40
0.24
 90
        1
 40
0.75
 90
        1
300
%<\AcVar ViewType \f "%tc1">% %<\AcVar ViewSectionStartId>%-%<\AcVar ViewSectionEndId>%\PSCALE %<\AcVar ViewScale \f "%sn">%
 71
     4
 62
   256
 62
   257
300
ANSI31
 40
1.0
 90
        0
290
     0
290
     0
 90
        6
 40
0.0
 40
1.570796326794896
 40
0.2617993877991494
 40
1.308996938995747
 40
-0.2617993877991494
 40
1.832595714594046
  0
ACDBSECTIONVIEWSTYLE
  5
27F
102
{ACAD_REACTORS
330
68
102
}
330
68
100
AcDbModelDocViewStyle
 70
     0
  3
Metric50
290
     1
300
Metric50
 90
        0
100
AcDbSectionViewStyle
 70
     0
 71
     0
 90
      102
 71
     1
340
55
 62
   256
 40
5.0
340
0
340
0
 62
   256
 40
5.0
300
I, O, Q, S, X, Z
 40
10.0
 90
        0
 40
2.5
 90
        0
 71
     2
340
5D
 90
       25
 62
   256
340
5D
 90
       50
 62
   256
 40
5.0
 40
2.5
 40
5.0
 71
     3
340
55
 62
   256
 40
5.0
 90
        0
 40
15.0
 90
        1
300
%<\AcVar ViewSectionStartId>%-%<\AcVar ViewSectionEndId>% (%<\AcVar ViewScale \f "%sn">%)
 71
     4
 62
   256
 62
   257
300
ANSI31
 40
1.0
 90
        0
290
     0
290
     0
 90
        6
 40
0.0
 40
1.570796326794896
 40
0.2617993877991494
 40
1.308996938995747
 40
-0.2617993877991494
 40
1.832595714594046
  0
TABLESTYLE
  5
65
102
{ACAD_XDICTIONARY
360
2EA
102
}
102
{ACAD_REACTORS
330
64
102
}
330
64
100
AcDbTableStyle
280
     0
  3
Standard
 70
     0
 71
     0
 40
0.06
 41
0.06
280
     0
281
     0
  7
Standard
140
0.18
170
     2
 62
     0
 63
     7
283
     0
 90
      512
 91
        0
  1

274
    -2
284
     1
 64
     0
275
    -2
285
     1
 65
     0
276
    -2
286
     1
 66
     0
277
    -2
287
     1
 67
     0
278
    -2
288
     1
 68
     0
279
    -2
289
     1
 69
     0
  7
Standard
140
0.25
170
     5
 62
     0
 63
     7
283
     0
 90
      512
 91
        0
  1

274
    -2
284
     1
 64
     0
275
    -2
285
     1
 65
     0
276
    -2
286
     1
 66
     0
277
    -2
287
     1
 67
     0
278
    -2
288
     1
 68
     0
279
    -2
289
     1
 69
     0
  7
Standard
140
0.18
170
     5
 62
     0
 63
     7
283
     0
 90
      512
 91
        0
  1

274
    -2
284
     1
 64
     0
275
    -2
285
     1
 65
     0
276
    -2
286
     1
 66
     0
277
    -2
287
     1
 67
     0
278
    -2
288
     1
 68
     0
279
    -2
289
     1
 69
     0
  0
VISUALSTYLE
  5
2F
102
{ACAD_REACTORS
330
29
102
}
330
29
100
AcDbVisualStyle
  2
2dWireframe
 70
     4
177
     3
291
     0
 70
    58
 90
        0
176
     1
 90
        2
176
     1
 90
        0
176
     1
 90
        0
176
     1
 40
0.6
176
     1
 40
30.0
176
     1
 62
     7
420
 16777215
176
     1
 90
        1
176
     1
 90
        4
176
     1
 62
     7
176
     1
 62
   257
176
     1
 90
        1
176
     1
 90
        1
176
     1
 40
1.0
176
     1
 90
        0
176
     1
 62
   257
176
     1
 40
1.0
176
     1
 90
        1
176
     1
 90
        6
176
     1
 90
        2
176
     1
 62
     7
176
     1
 90
        5
176
     1
 90
        0
176
     1
 90
        0
176
     1
290
     0
176
     1
 90
        1
176
     1
 40
0.0
176
     1
 90
        0
176
     1
290
     1
176
     1
290
     1
176
     1
290
     0
176
     1
290
     0
176
     1
290
     0
176
     1
290
     0
176
     1
290
     0
176
     1
290
     0
176
     1
290
     0
176
     1
 90
       50
176
     1
 40
0.0
176
     1
 40
1.0
176
     1
 90
        0
176
     1
 62
    18
420
        0
176
     1
 90
       50
176
     1
 90
        3
176
     1
 62
     5
420
      255
176
     1
290
     0
176
     1
 90
       50
176
     1
 90
       50
176
     1
 90
       50
176
     1
290
     0
176
     1
 90
       50
176
     1
 62
   256
176
     0
 40
1.0
176
     0
 90
        2
176
     1
  1
strokes_ogs.tif
176
     1
290
     0
176
     1
 40
1.0
176
     1
 40
1.0
176
     1
  0
VISUALSTYLE
  5
2E
102
{ACAD_REACTORS
330
29
102
}
330
29
100
AcDbVisualStyle
  2
Basic
 70
     7
177
     3
291
     1
 70
    58
 90
        1
176
     1
 90
        0
176
     1
 90
        1
176
     1
 90
        0
176
     1
 40
0.6
176
     1
 40
30.0
176
     1
 62
     7
420
 16777215
176
     1
 90
        0
176
     1
 90
        4
176
     1
 62
     7
176
     1
 62
   257
176
     1
 90
        1
176
     1
 90
        1
176
     1
 40
1.0
176
     1
 90
        8
176
     1
 62
     7
176
     1
 40
1.0
176
     1
 90
        1
176
     1
 90
        6
176
     1
 90
        2
176
     1
 62
     7
176
     1
 90
        5
176
     1
 90
        0
176
     1
 90
        0
176
     1
290
     0
176
     1
 90
        1
176
     1
 40
0.0
176
     1
 90
        0
176
     1
290
     0
176
     1
290
     1
176
     1
290
     1
176
     1
290
     0
176
     1
290
     0
176
     1
290
     0
176
     1
290
     0
176
     1
290
     0
176
     1
290
     0
176
     1
 90
       50
176
     1
 40
0.0
176
     1
 40
1.0
176
     1
 90
        0
176
     1
 62
    18
420
        0
176
     1
 90
       50
176
     1
 90
        3
176
     1
 62
     5
420
      255
176
     1
290
     0
176
     1
 90
       50
176
     1
 90
       50
176
     1
 90
       50
176
     1
290
     0
176
     1
 90
       50
176
     1
 62
   256
176
     0
 40
1.0
176
     0
 90
        2
176
     1
  1
strokes_ogs.tif
176
     1
290
     0
176
     1
 40
1.0
176
     1
 40
1.0
176
     1
  0
VISUALSTYLE
  5
35
102
{ACAD_REACTORS
330
29
102
}
330
29
100
AcDbVisualStyle
  2
Brighten
 70
    12
177
     3
291
     1
 70
    58
 90
        2
176
     1
 90
        2
176
     1
 90
        0
176
     1
 90
        0
176
     1
 40
0.6
176
     1
 40
30.0
176
     1
 62
     7
420
 16777215
176
     1
 90
        1
176
     1
 90
        4
176
     1
 62
     7
176
     1
 62
   257
176
     1
 90
        1
176
     1
 90
        1
176
     1
 40
1.0
176
     1
 90
        8
176
     1
 62
     7
176
     1
 40
1.0
176
     1
 90
        1
176
     1
 90
        6
176
     1
 90
        2
176
     1
 62
     7
176
     1
 90
        5
176
     1
 90
        0
176
     1
 90
        0
176
     1
290
     0
176
     1
 90
        1
176
     1
 40
50.0
176
     1
 90
        0
176
     1
290
     0
176
     1
290
     1
176
     1
290
     1
176
     1
290
     0
176
     1
290
     0
176
     1
290
     0
176
     1
290
     0
176
     1
290
     0
176
     1
290
     0
176
     1
 90
       50
176
     1
 40
0.0
176
     1
 40
1.0
176
     1
 90
        0
176
     1
 62
    18
420
        0
176
     1
 90
       50
176
     1
 90
        3
176
     1
 62
     5
420
      255
176
     1
290
     0
176
     1
 90
       50
176
     1
 90
       50
176
     1
 90
       50
176
     1
290
     0
176
     1
 90
       50
176
     1
 62
   256
176
     0
 40
1.0
176
     0
 90
        2
176
     1
  1
strokes_ogs.tif
176
     1
290
     0
176
     1
 40
1.0
176
     1
 40
1.0
176
     1
  0
VISUALSTYLE
  5
39
102
{ACAD_REACTORS
330
29
102
}
330
29
100
AcDbVisualStyle
  2
ColorChange
 70
    16
177
     3
291
     1
 70
    58
 90
        2
176
     1
 90
        2
176
     1
 90
        3
176
     1
 90
        0
176
     1
 40
0.6
176
     1
 40
30.0
176
     1
 62
     8
420
  8421504
176
     1
 90
        1
176
     1
 90
        4
176
     1
 62
     7
176
     1
 62
   257
176
     1
 90
        1
176
     1
 90
        1
176
     1
 40
1.0
176
     1
 90
        8
176
     1
 62
     8
420
  8421504
176
     1
 40
1.0
176
     1
 90
        1
176
     1
 90
        6
176
     1
 90
        2
176
     1
 62
     7
176
     1
 90
        5
176
     1
 90
        0
176
     1
 90
        0
176
     1
290
     0
176
     1
 90
        1
176
     1
 40
0.0
176
     1
 90
        0
176
     1
290
     0
176
     1
290
     1
176
     1
290
     1
176
     1
290
     0
176
     1
290
     0
176
     1
290
     0
176
     1
290
     0
176
     1
290
     0
176
     1
290
     0
176
     1
 90
       50
176
     1
 40
0.0
176
     1
 40
1.0
176
     1
 90
        0
176
     1
 62
    18
420
        0
176
     1
 90
       50
176
     1
 90
        3
176
     1
 62
     5
420
      255
176
     1
290
     0
176
     1
 90
       50
176
     1
 90
       50
176
     1
 90
       50
176
     1
290
     0
176
     1
 90
       50
176
     1
 62
   256
176
     0
 40
1.0
176
     0
 90
        2
176
     1
  1
strokes_ogs.tif
176
     1
290
     0
176
     1
 40
1.0
176
     1
 40
1.0
176
     1
  0
VISUALSTYLE
  5
32
102
{ACAD_REACTORS
330
29
102
}
330
29
100
AcDbVisualStyle
  2
Conceptual
 70
     9
177
     3
291
     0
 70
    58
 90
        3
176
     1
 90
        2
176
     1
 90
        0
176
     1
 90
        0
176
     1
 40
0.6
176
     1
 40
30.0
176
     1
 62
     7
420
 16777215
176
     1
 90
        2
176
     1
 90
        2
176
     1
 62
     7
176
     1
 62
   257
176
     1
 90
        1
176
     1
 90
        1
176
     1
 40
179.0
176
     1
 90
        8
176
     1
 62
     7
176
     1
 40
1.0
176
     1
 90
        1
176
     1
 90
        6
176
     1
 90
        2
176
     1
 62
     7
176
     1
 90
        3
176
     1
 90
        0
176
     1
 90
        0
176
     1
290
     0
176
     1
 90
        1
176
     1
 40
0.0
176
     1
 90
        0
176
     1
290
     0
176
     1
290
     1
176
     1
290
     1
176
     1
290
     0
176
     1
290
     0
176
     1
290
     0
176
     1
290
     0
176
     1
290
     0
176
     1
290
     0
176
     1
 90
       50
176
     1
 40
0.0
176
     1
 40
1.0
176
     1
 90
        0
176
     1
 62
    18
420
        0
176
     1
 90
       50
176
     1
 90
        3
176
     1
 62
     5
420
      255
176
     1
290
     0
176
     1
 90
       50
176
     1
 90
       50
176
     1
 90
       50
176
     1
290
     0
176
     1
 90
       50
176
     1
 62
   256
176
     0
 40
1.0
176
     0
 90
        2
176
     1
  1
strokes_ogs.tif
176
     1
290
     0
176
     1
 40
1.0
176
     1
 40
1.0
176
     1
  0
VISUALSTYLE
  5
34
102
{ACAD_REACTORS
330
29
102
}
330
29
100
AcDbVisualStyle
  2
Dim
 70
    11
177
     3
291
     1
 70
    58
 90
        2
176
     1
 90
        2
176
     1
 90
        0
176
     1
 90
        0
176
     1
 40
0.6
176
     1
 40
30.0
176
     1
 62
     7
420
 16777215
176
     1
 90
        1
176
     1
 90
        4
176
     1
 62
     7
176
     1
 62
   257
176
     1
 90
        1
176
     1
 90
        1
176
     1
 40
1.0
176
     1
 90
        8
176
     1
 62
     7
176
     1
 40
1.0
176
     1
 90
        1
176
     1
 90
        6
176
     1
 90
        2
176
     1
 62
     7
176
     1
 90
        5
176
     1
 90
        0
176
     1
 90
        0
176
     1
290
     0
176
     1
 90
        1
176
     1
 40
-50.0
176
     1
 90
        0
176
     1
290
     0
176
     1
290
     1
176
     1
290
     1
176
     1
290
     0
176
     1
290
     0
176
     1
290
     0
176
     1
290
     0
176
     1
290
     0
176
     1
290
     0
176
     1
 90
       50
176
     1
 40
0.0
176
     1
 40
1.0
176
     1
 90
        0
176
     1
 62
    18
420
        0
176
     1
 90
       50
176
     1
 90
        3
176
     1
 62
     5
420
      255
176
     1
290
     0
176
     1
 90
       50
176
     1
 90
       50
176
     1
 90
       50
176
     1
290
     0
176
     1
 90
       50
176
     1
 62
   256
176
     0
 40
1.0
176
     0
 90
        2
176
     1
  1
strokes_ogs.tif
176
     1
290
     0
176
     1
 40
1.0
176
     1
 40
1.0
176
     1
  0
VISUALSTYLE
  5
41
102
{ACAD_REACTORS
330
29
102
}
330
29
100
AcDbVisualStyle
  2
EdgeColorOff
 70
    22
177
     3
291
     1
 70
    58
 90
        2
176
     0
 90
        2
176
     0
 90
        0
176
     0
 90
        0
176
     0
 40
0.6
176
     0
 40
30.0
176
     0
 62
     7
420
 16777215
176
     0
 90
        1
176
     0
 90
        4
176
     0
 62
     7
176
     0
 62
   257
176
     0
 90
        1
176
     0
 90
        1
176
     0
 40
1.0
176
     0
 90
        8
176
     2
 62
     7
176
     0
 40
1.0
176
     0
 90
        1
176
     0
 90
        6
176
     0
 90
        2
176
     0
 62
     7
176
     0
 90
        5
176
     0
 90
        0
176
     0
 90
        0
176
     0
290
     0
176
     0
 90
        1
176
     0
 40
0.0
176
     0
 90
        0
176
     0
290
     0
176
     0
290
     1
176
     0
290
     1
176
     0
290
     0
176
     0
290
     0
176
     0
290
     0
176
     0
290
     0
176
     0
290
     0
176
     0
290
     0
176
     0
 90
       50
176
     0
 40
0.0
176
     0
 40
1.0
176
     0
 90
        0
176
     0
 62
    18
420
        0
176
     0
 90
       50
176
     0
 90
        3
176
     0
 62
     5
420
      255
176
     0
290
     0
176
     0
 90
       50
176
     0
 90
       50
176
     0
 90
       50
176
     0
290
     0
176
     0
 90
       50
176
     0
 62
   256
176
     0
 40
1.0
176
     0
 90
        2
176
     0
  1
strokes_ogs.tif
176
     0
290
     0
176
     0
 40
1.0
176
     0
 40
1.0
176
     0
  0
VISUALSTYLE
  5
38
102
{ACAD_REACTORS
330
29
102
}
330
29
100
AcDbVisualStyle
  2
Facepattern
 70
    15
177
     3
291
     1
 70
    58
 90
        2
176
     1
 90
        2
176
     1
 90
        0
176
     1
 90
        0
176
     1
 40
0.6
176
     1
 40
30.0
176
     1
 62
     7
420
 16777215
176
     1
 90
        1
176
     1
 90
        4
176
     1
 62
     7
176
     1
 62
   257
176
     1
 90
        1
176
     1
 90
        1
176
     1
 40
1.0
176
     1
 90
        8
176
     1
 62
     7
176
     1
 40
1.0
176
     1
 90
        1
176
     1
 90
        6
176
     1
 90
        2
176
     1
 62
     7
176
     1
 90
        5
176
     1
 90
        0
176
     1
 90
        0
176
     1
290
     0
176
     1
 90
        1
176
     1
 40
0.0
176
     1
 90
        0
176
     1
290
     0
176
     1
290
     1
176
     1
290
     1
176
     1
290
     0
176
     1
290
     0
176
     1
290
     0
176
     1
290
     0
176
     1
290
     0
176
     1
290
     0
176
     1
 90
       50
176
     1
 40
0.0
176
     1
 40
1.0
176
     1
 90
        0
176
     1
 62
    18
420
        0
176
     1
 90
       50
176
     1
 90
        3
176
     1
 62
     5
420
      255
176
     1
290
     0
176
     1
 90
       50
176
     1
 90
       50
176
     1
 90
       50
176
     1
290
     0
176
     1
 90
       50
176
     1
 62
   256
176
     0
 40
1.0
176
     0
 90
        2
176
     1
  1
strokes_ogs.tif
176
     1
290
     0
176
     1
 40
1.0
176
     1
 40
1.0
176
     1
  0
VISUALSTYLE
  5
2A
102
{ACAD_REACTORS
330
29
102
}
330
29
100
AcDbVisualStyle
  2
Flat
 70
     0
177
     3
291
     1
 70
    58
 90
        2
176
     1
 90
        1
176
     1
 90
        1
176
     1
 90
        2
176
     1
 40
0.6
176
     1
 40
30.0
176
     1
 62
     7
420
 16777215
176
     1
 90
        0
176
     1
 90
        0
176
     1
 62
     7
176
     1
 62
   257
176
     1
 90
        1
176
     1
 90
        1
176
     1
 40
1.0
176
     1
 90
        8
176
     1
 62
     7
176
     1
 40
1.0
176
     1
 90
        1
176
     1
 90
        6
176
     1
 90
        2
176
     1
 62
     7
176
     1
 90
        5
176
     1
 90
        0
176
     1
 90
        0
176
     1
290
     0
176
     1
 90
       13
176
     1
 40
0.0
176
     1
 90
        0
176
     1
290
     0
176
     1
290
     1
176
     1
290
     1
176
     1
290
     0
176
     1
290
     0
176
     1
290
     0
176
     1
290
     0
176
     1
290
     0
176
     1
290
     0
176
     1
 90
       50
176
     1
 40
0.0
176
     1
 40
1.0
176
     1
 90
        0
176
     1
 62
    18
420
        0
176
     1
 90
       50
176
     1
 90
        3
176
     1
 62
     5
420
      255
176
     1
290
     0
176
     1
 90
       50
176
     1
 90
       50
176
     1
 90
       50
176
     1
290
     0
176
     1
 90
       50
176
     1
 62
   256
176
     0
 40
1.0
176
     0
 90
        2
176
     1
  1
strokes_ogs.tif
176
     1
290
     0
176
     1
 40
1.0
176
     1
 40
1.0
176
     1
  0
VISUALSTYLE
  5
2B
102
{ACAD_REACTORS
330
29
102
}
330
29
100
AcDbVisualStyle
  2
FlatWithEdges
 70
     1
177
     3
291
     1
 70
    58
 90
        2
176
     1
 90
        1
176
     1
 90
        1
176
     1
 90
        2
176
     1
 40
0.6
176
     1
 40
30.0
176
     1
 62
     7
420
 16777215
176
     1
 90
        1
176
     1
 90
        0
176
     1
 62
     7
176
     1
 62
   257
176
     1
 90
        1
176
     1
 90
        1
176
     1
 40
1.0
176
     1
 90
        0
176
     1
 62
   257
176
     1
 40
1.0
176
     1
 90
        1
176
     1
 90
        6
176
     1
 90
        2
176
     1
 62
     7
176
     1
 90
        5
176
     1
 90
        0
176
     1
 90
        0
176
     1
290
     0
176
     1
 90
       13
176
     1
 40
0.0
176
     1
 90
        0
176
     1
290
     0
176
     1
290
     1
176
     1
290
     1
176
     1
290
     0
176
     1
290
     0
176
     1
290
     0
176
     1
290
     0
176
     1
290
     0
176
     1
290
     0
176
     1
 90
       50
176
     1
 40
0.0
176
     1
 40
1.0
176
     1
 90
        0
176
     1
 62
    18
420
        0
176
     1
 90
       50
176
     1
 90
        3
176
     1
 62
     5
420
      255
176
     1
290
     0
176
     1
 90
       50
176
     1
 90
       50
176
     1
 90
       50
176
     1
290
     0
176
     1
 90
       50
176
     1
 62
   256
176
     0
 40
1.0
176
     0
 90
        2
176
     1
  1
strokes_ogs.tif
176
     1
290
     0
176
     1
 40
1.0
176
     1
 40
1.0
176
     1
  0
VISUALSTYLE
  5
2C
102
{ACAD_REACTORS
330
29
102
}
330
29
100
AcDbVisualStyle
  2
Gouraud
 70
     2
177
     3
291
     1
 70
    58
 90
        2
176
     1
 90
        2
176
     1
 90
        1
176
     1
 90
        2
176
     1
 40
0.6
176
     1
 40
30.0
176
     1
 62
     7
420
 16777215
176
     1
 90
        0
176
     1
 90
        0
176
     1
 62
     7
176
     1
 62
   257
176
     1
 90
        1
176
     1
 90
        1
176
     1
 40
1.0
176
     1
 90
        0
176
     1
 62
     7
176
     1
 40
1.0
176
     1
 90
        1
176
     1
 90
        6
176
     1
 90
        2
176
     1
 62
     7
176
     1
 90
        5
176
     1
 90
        0
176
     1
 90
        0
176
     1
290
     0
176
     1
 90
       13
176
     1
 40
0.0
176
     1
 90
        0
176
     1
290
     0
176
     1
290
     1
176
     1
290
     1
176
     1
290
     0
176
     1
290
     0
176
     1
290
     0
176
     1
290
     0
176
     1
290
     0
176
     1
290
     0
176
     1
 90
       50
176
     1
 40
0.0
176
     1
 40
1.0
176
     1
 90
        0
176
     1
 62
    18
420
        0
176
     1
 90
       50
176
     1
 90
        3
176
     1
 62
     5
420
      255
176
     1
290
     0
176
     1
 90
       50
176
     1
 90
       50
176
     1
 90
       50
176
     1
290
     0
176
     1
 90
       50
176
     1
 62
   256
176
     0
 40
1.0
176
     0
 90
        2
176
     1
  1
strokes_ogs.tif
176
     1
290
     0
176
     1
 40
1.0
176
     1
 40
1.0
176
     1
  0
VISUALSTYLE
  5
2D
102
{ACAD_REACTORS
330
29
102
}
330
29
100
AcDbVisualStyle
  2
GouraudWithEdges
 70
     3
177
     3
291
     1
 70
    58
 90
        2
176
     1
 90
        2
176
     1
 90
        1
176
     1
 90
        2
176
     1
 40
0.6
176
     1
 40
30.0
176
     1
 62
     7
420
 16777215
176
     1
 90
        1
176
     1
 90
        0
176
     1
 62
     7
176
     1
 62
   257
176
     1
 90
        1
176
     1
 90
        1
176
     1
 40
1.0
176
     1
 90
        0
176
     1
 62
   257
176
     1
 40
1.0
176
     1
 90
        1
176
     1
 90
        6
176
     1
 90
        2
176
     1
 62
     7
176
     1
 90
        5
176
     1
 90
        0
176
     1
 90
        0
176
     1
290
     0
176
     1
 90
       13
176
     1
 40
0.0
176
     1
 90
        0
176
     1
290
     0
176
     1
290
     1
176
     1
290
     1
176
     1
290
     0
176
     1
290
     0
176
     1
290
     0
176
     1
290
     0
176
     1
290
     0
176
     1
290
     0
176
     1
 90
       50
176
     1
 40
0.0
176
     1
 40
1.0
176
     1
 90
        0
176
     1
 62
    18
420
        0
176
     1
 90
       50
176
     1
 90
        3
176
     1
 62
     5
420
      255
176
     1
290
     0
176
     1
 90
       50
176
     1
 90
       50
176
     1
 90
       50
176
     1
290
     0
176
     1
 90
       50
176
     1
 62
   256
176
     0
 40
1.0
176
     0
 90
        2
176
     1
  1
strokes_ogs.tif
176
     1
290
     0
176
     1
 40
1.0
176
     1
 40
1.0
176
     1
  0
VISUALSTYLE
  5
31
102
{ACAD_REACTORS
330
29
102
}
330
29
100
AcDbVisualStyle
  2
Hidden
 70
     6
177
     3
291
     0
 70
    58
 90
        1
176
     1
 90
        2
176
     1
 90
        2
176
     1
 90
        0
176
     1
 40
0.6
176
     1
 40
30.0
176
     1
 62
     7
420
 16777215
176
     1
 90
        2
176
     1
 90
        2
176
     1
 62
     7
176
     1
 62
   257
176
     1
 90
        2
176
     1
 90
        1
176
     1
 40
40.0
176
     1
 90
        0
176
     1
 62
   257
176
     1
 40
1.0
176
     1
 90
        1
176
     1
 90
        6
176
     1
 90
        2
176
     1
 62
     7
176
     1
 90
        3
176
     1
 90
        0
176
     1
 90
        0
176
     1
290
     0
176
     1
 90
        1
176
     1
 40
0.0
176
     1
 90
        0
176
     1
290
     0
176
     1
290
     1
176
     1
290
     1
176
     1
290
     0
176
     1
290
     0
176
     1
290
     0
176
     1
290
     0
176
     1
290
     0
176
     1
290
     0
176
     1
 90
       50
176
     1
 40
0.0
176
     1
 40
1.0
176
     1
 90
        0
176
     1
 62
    18
420
        0
176
     1
 90
       50
176
     1
 90
        3
176
     1
 62
     5
420
      255
176
     1
290
     0
176
     1
 90
       50
176
     1
 90
       50
176
     1
 90
       50
176
     1
290
     0
176
     1
 90
       50
176
     1
 62
   256
176
     0
 40
1.0
176
     0
 90
        2
176
     1
  1
strokes_ogs.tif
176
     1
290
     0
176
     1
 40
1.0
176
     1
 40
1.0
176
     1
  0
VISUALSTYLE
  5
3F
102
{ACAD_REACTORS
330
29
102
}
330
29
100
AcDbVisualStyle
  2
JitterOff
 70
    20
177
     3
291
     1
 70
    58
 90
        2
176
     0
 90
        2
176
     0
 90
        0
176
     0
 90
        0
176
     0
 40
0.6
176
     0
 40
30.0
176
     0
 62
     7
420
 16777215
176
     0
 90
        1
176
     0
 90
        4
176
     0
 62
     7
176
     0
 62
   257
176
     0
 90
        1
176
     0
 90
        1
176
     0
 40
1.0
176
     0
 90
       10
176
     2
 62
     7
176
     0
 40
1.0
176
     0
 90
        1
176
     0
 90
        6
176
     0
 90
        2
176
     0
 62
     7
176
     0
 90
        5
176
     0
 90
        0
176
     0
 90
        0
176
     0
290
     0
176
     0
 90
        1
176
     0
 40
0.0
176
     0
 90
        0
176
     0
290
     0
176
     0
290
     1
176
     0
290
     1
176
     0
290
     0
176
     0
290
     0
176
     0
290
     0
176
     0
290
     0
176
     0
290
     0
176
     0
290
     0
176
     0
 90
       50
176
     0
 40
0.0
176
     0
 40
1.0
176
     0
 90
        0
176
     0
 62
    18
420
        0
176
     0
 90
       50
176
     0
 90
        3
176
     0
 62
     5
420
      255
176
     0
290
     0
176
     0
 90
       50
176
     0
 90
       50
176
     0
 90
       50
176
     0
290
     0
176
     0
 90
       50
176
     0
 62
   256
176
     0
 40
1.0
176
     0
 90
        2
176
     0
  1
strokes_ogs.tif
176
     0
290
     0
176
     0
 40
1.0
176
     0
 40
1.0
176
     0
  0
VISUALSTYLE
  5
37
102
{ACAD_REACTORS
330
29
102
}
330
29
100
AcDbVisualStyle
  2
Linepattern
 70
    14
177
     3
291
     1
 70
    58
 90
        2
176
     1
 90
        2
176
     1
 90
        0
176
     1
 90
        0
176
     1
 40
0.6
176
     1
 40
30.0
176
     1
 62
     7
420
 16777215
176
     1
 90
        1
176
     1
 90
        4
176
     1
 62
     7
176
     1
 62
   257
176
     1
 90
        7
176
     1
 90
        7
176
     1
 40
1.0
176
     1
 90
        8
176
     1
 62
     7
176
     1
 40
1.0
176
     1
 90
        1
176
     1
 90
        6
176
     1
 90
        2
176
     1
 62
     7
176
     1
 90
        5
176
     1
 90
        0
176
     1
 90
        0
176
     1
290
     0
176
     1
 90
        1
176
     1
 40
0.0
176
     1
 90
        0
176
     1
290
     0
176
     1
290
     1
176
     1
290
     1
176
     1
290
     0
176
     1
290
     0
176
     1
290
     0
176
     1
290
     0
176
     1
290
     0
176
     1
290
     0
176
     1
 90
       50
176
     1
 40
0.0
176
     1
 40
1.0
176
     1
 90
        0
176
     1
 62
    18
420
        0
176
     1
 90
       50
176
     1
 90
        3
176
     1
 62
     5
420
      255
176
     1
290
     0
176
     1
 90
       50
176
     1
 90
       50
176
     1
 90
       50
176
     1
290
     0
176
     1
 90
       50
176
     1
 62
   256
176
     0
 40
1.0
176
     0
 90
        2
176
     1
  1
strokes_ogs.tif
176
     1
290
     0
176
     1
 40
1.0
176
     1
 40
1.0
176
     1
  0
VISUALSTYLE
  5
40
102
{ACAD_REACTORS
330
29
102
}
330
29
100
AcDbVisualStyle
  2
OverhangOff
 70
    21
177
     3
291
     1
 70
    58
 90
        2
176
     0
 90
        2
176
     0
 90
        0
176
     0
 90
        0
176
     0
 40
0.6
176
     0
 40
30.0
176
     0
 62
     7
420
 16777215
176
     0
 90
        1
176
     0
 90
        4
176
     0
 62
     7
176
     0
 62
   257
176
     0
 90
        1
176
     0
 90
        1
176
     0
 40
1.0
176
     0
 90
        9
176
     2
 62
     7
176
     0
 40
1.0
176
     0
 90
        1
176
     0
 90
        6
176
     0
 90
        2
176
     0
 62
     7
176
     0
 90
        5
176
     0
 90
        0
176
     0
 90
        0
176
     0
290
     0
176
     0
 90
        1
176
     0
 40
0.0
176
     0
 90
        0
176
     0
290
     0
176
     0
290
     1
176
     0
290
     1
176
     0
290
     0
176
     0
290
     0
176
     0
290
     0
176
     0
290
     0
176
     0
290
     0
176
     0
290
     0
176
     0
 90
       50
176
     0
 40
0.0
176
     0
 40
1.0
176
     0
 90
        0
176
     0
 62
    18
420
        0
176
     0
 90
       50
176
     0
 90
        3
176
     0
 62
     5
420
      255
176
     0
290
     0
176
     0
 90
       50
176
     0
 90
       50
176
     0
 90
       50
176
     0
290
     0
176
     0
 90
       50
176
     0
 62
   256
176
     0
 40
1.0
176
     0
 90
        2
176
     0
  1
strokes_ogs.tif
176
     0
290
     0
176
     0
 40
1.0
176
     0
 40
1.0
176
     0
  0
VISUALSTYLE
  5
33
102
{ACAD_REACTORS
330
29
102
}
330
29
100
AcDbVisualStyle
  2
Realistic
 70
     8
177
     3
291
     0
 70
    58
 90
        2
176
     1
 90
        3
176
     1
 90
        0
176
     1
 90
        2
176
     1
 40
0.6
176
     1
 40
30.0
176
     1
 62
     7
420
 16777215
176
     1
 90
        0
176
     1
 90
        0
176
     1
 62
     7
176
     1
 62
   257
176
     1
 90
        1
176
     1
 90
        1
176
     1
 40
1.0
176
     1
 90
        8
176
     1
 62
   257
176
     1
 40
1.0
176
     1
 90
        1
176
     1
 90
        6
176
     1
 90
        2
176
     1
 62
     7
176
     1
 90
        3
176
     1
 90
        0
176
     1
 90
        0
176
     1
290
     0
176
     1
 90
       13
176
     1
 40
0.0
176
     1
 90
        0
176
     1
290
     0
176
     1
290
     1
176
     1
290
     1
176
     1
290
     0
176
     1
290
     0
176
     1
290
     0
176
     1
290
     0
176
     1
290
     0
176
     1
290
     0
176
     1
 90
       50
176
     1
 40
0.0
176
     1
 40
1.0
176
     1
 90
        0
176
     1
 62
    18
420
        0
176
     1
 90
       50
176
     1
 90
        3
176
     1
 62
     5
420
      255
176
     1
290
     0
176
     1
 90
       50
176
     1
 90
       50
176
     1
 90
       50
176
     1
290
     0
176
     1
 90
       50
176
     1
 62
   256
176
     0
 40
1.0
176
     0
 90
        2
176
     1
  1
strokes_ogs.tif
176
     1
290
     0
176
     1
 40
1.0
176
     1
 40
1.0
176
     1
  0
VISUALSTYLE
  5
3E
102
{ACAD_REACTORS
330
29
102
}
330
29
100
AcDbVisualStyle
  2
Shaded
 70
    27
177
     3
291
     0
 70
    58
 90
        2
176
     1
 90
        2
176
     1
 90
        1
176
     1
 90
        2
176
     1
 40
0.6
176
     1
 40
30.0
176
     1
 62
     7
420
 16777215
176
     1
 90
        0
176
     1
 90
        4
176
     1
 62
     7
176
     1
 62
   257
176
     1
 90
        1
176
     1
 90
        1
176
     1
 40
1.0
176
     1
 90
        8
176
     1
 62
   257
176
     1
 40
1.0
176
     1
 90
        1
176
     1
 90
        6
176
     1
 90
        2
176
     1
 62
     8
420
  7895160
176
     1
 90
        3
176
     1
 90
        0
176
     1
 90
        0
176
     1
290
     0
176
     1
 90
        5
176
     1
 40
0.0
176
     1
 90
        0
176
     1
290
     0
176
     1
290
     1
176
     1
290
     1
176
     1
290
     0
176
     1
290
     0
176
     1
290
     0
176
     1
290
     0
176
     1
290
     0
176
     1
290
     0
176
     1
 90
       50
176
     1
 40
0.0
176
     1
 40
1.0
176
     1
 90
        0
176
     1
 62
    18
420
        0
176
     1
 90
       50
176
     1
 90
        3
176
     1
 62
     5
420
      255
176
     1
290
     0
176
     1
 90
       50
176
     1
 90
       50
176
     1
 90
       50
176
     1
290
     0
176
     1
 90
       50
176
     1
 62
   256
176
     0
 40
1.0
176
     0
 90
        2
176
     1
  1
strokes_ogs.tif
176
     1
290
     0
176
     1
 40
1.0
176
     1
 40
1.0
176
     1
  0
VISUALSTYLE
  5
3D
102
{ACAD_REACTORS
330
29
102
}
330
29
100
AcDbVisualStyle
  2
Shaded with edges
 70
    26
177
     3
291
     0
 70
    58
 90
        2
176
     1
 90
        2
176
     1
 90
        1
176
     1
 90
        2
176
     1
 40
0.6
176
     1
 40
30.0
176
     1
 62
     7
420
 16777215
176
     1
 90
        1
176
     1
 90
        2
176
     1
 62
     7
176
     1
 62
   257
176
     1
 90
        2
176
     1
 90
        1
176
     1
 40
1.0
176
     1
 90
        8
176
     1
 62
   257
176
     1
 40
1.0
176
     1
 90
        1
176
     1
 90
        6
176
     1
 90
        2
176
     1
 62
     7
176
     1
 90
        3
176
     1
 90
        0
176
     1
 90
        0
176
     1
290
     0
176
     1
 90
        5
176
     1
 40
0.0
176
     1
 90
        0
176
     1
290
     0
176
     1
290
     1
176
     1
290
     1
176
     1
290
     0
176
     1
290
     0
176
     1
290
     0
176
     1
290
     0
176
     1
290
     0
176
     1
290
     0
176
     1
 90
       50
176
     1
 40
0.0
176
     1
 40
1.0
176
     1
 90
        0
176
     1
 62
    18
420
        0
176
     1
 90
       50
176
     1
 90
        3
176
     1
 62
     5
420
      255
176
     1
290
     0
176
     1
 90
       50
176
     1
 90
       50
176
     1
 90
       50
176
     1
290
     0
176
     1
 90
       50
176
     1
 62
   256
176
     0
 40
1.0
176
     0
 90
        2
176
     1
  1
strokes_ogs.tif
176
     1
290
     0
176
     1
 40
1.0
176
     1
 40
1.0
176
     1
  0
VISUALSTYLE
  5
3A
102
{ACAD_REACTORS
330
29
102
}
330
29
100
AcDbVisualStyle
  2
Shades of Gray
 70
    23
177
     3
291
     0
 70
    58
 90
        2
176
     1
 90
        2
176
     1
 90
        3
176
     1
 90
        0
176
     1
 40
0.6
176
     1
 40
30.0
176
     1
 62
     7
420
 16777215
176
     1
 90
        2
176
     1
 90
        2
176
     1
 62
     7
176
     1
 62
     7
176
     1
 90
        1
176
     1
 90
        1
176
     1
 40
40.0
176
     1
 90
        8
176
     1
 62
     7
176
     1
 40
1.0
176
     1
 90
        1
176
     1
 90
        6
176
     1
 90
        2
176
     1
 62
     7
176
     1
 90
        3
176
     1
 90
        0
176
     1
 90
        0
176
     1
290
     0
176
     1
 90
        1
176
     1
 40
0.0
176
     1
 90
        0
176
     1
290
     0
176
     1
290
     1
176
     1
290
     1
176
     1
290
     0
176
     1
290
     0
176
     1
290
     0
176
     1
290
     0
176
     1
290
     0
176
     1
290
     0
176
     1
 90
       50
176
     1
 40
0.0
176
     1
 40
1.0
176
     1
 90
        0
176
     1
 62
    18
420
        0
176
     1
 90
       50
176
     1
 90
        3
176
     1
 62
     5
420
      255
176
     1
290
     0
176
     1
 90
       50
176
     1
 90
       50
176
     1
 90
       50
176
     1
290
     0
176
     1
 90
       50
176
     1
 62
   256
176
     0
 40
1.0
176
     0
 90
        2
176
     1
  1
strokes_ogs.tif
176
     1
290
     0
176
     1
 40
1.0
176
     1
 40
1.0
176
     1
  0
VISUALSTYLE
  5
3B
102
{ACAD_REACTORS
330
29
102
}
330
29
100
AcDbVisualStyle
  2
Sketchy
 70
    24
177
     3
291
     0
 70
    58
 90
        1
176
     1
 90
        2
176
     1
 90
        2
176
     1
 90
        0
176
     1
 40
0.6
176
     1
 40
30.0
176
     1
 62
     7
420
 16777215
176
     1
 90
        2
176
     1
 90
        2
176
     1
 62
     7
176
     1
 62
     7
176
     1
 90
        1
176
     1
 90
        1
176
     1
 40
40.0
176
     1
 90
       11
176
     1
 62
     7
176
     1
 40
1.0
176
     1
 90
        1
176
     1
 90
        6
176
     1
 90
        2
176
     1
 62
     7
176
     1
 90
        6
176
     1
 90
        0
176
     1
 90
        0
176
     1
290
     0
176
     1
 90
        1
176
     1
 40
0.0
176
     1
 90
        0
176
     1
290
     0
176
     1
290
     1
176
     1
290
     1
176
     1
290
     0
176
     1
290
     0
176
     1
290
     0
176
     1
290
     0
176
     1
290
     0
176
     1
290
     0
176
     1
 90
       50
176
     1
 40
0.0
176
     1
 40
1.0
176
     1
 90
        0
176
     1
 62
    18
420
        0
176
     1
 90
       50
176
     1
 90
        3
176
     1
 62
     5
420
      255
176
     1
290
     0
176
     1
 90
       50
176
     1
 90
       50
176
     1
 90
       50
176
     1
290
     0
176
     1
 90
       50
176
     1
 62
   256
176
     0
 40
1.0
176
     0
 90
        2
176
     1
  1
strokes_ogs.tif
176
     1
290
     0
176
     1
 40
1.0
176
     1
 40
1.0
176
     1
  0
VISUALSTYLE
  5
36
102
{ACAD_REACTORS
330
29
102
}
330
29
100
AcDbVisualStyle
  2
Thicken
 70
    13
177
     3
291
     1
 70
    58
 90
        2
176
     1
 90
        2
176
     1
 90
        0
176
     1
 90
        0
176
     1
 40
0.6
176
     1
 40
30.0
176
     1
 62
     7
420
 16777215
176
     1
 90
        1
176
     1
 90
        4
176
     1
 62
     7
176
     1
 62
   257
176
     1
 90
        1
176
     1
 90
        1
176
     1
 40
1.0
176
     1
 90
       12
176
     1
 62
     7
176
     1
 40
1.0
176
     1
 90
        1
176
     1
 90
        6
176
     1
 90
        2
176
     1
 62
     7
176
     1
 90
        5
176
     1
 90
        0
176
     1
 90
        0
176
     1
290
     0
176
     1
 90
        1
176
     1
 40
0.0
176
     1
 90
        0
176
     1
290
     0
176
     1
290
     1
176
     1
290
     1
176
     1
290
     0
176
     1
290
     0
176
     1
290
     0
176
     1
290
     0
176
     1
290
     0
176
     1
290
     0
176
     1
 90
       50
176
     1
 40
0.0
176
     1
 40
1.0
176
     1
 90
        0
176
     1
 62
    18
420
        0
176
     1
 90
       50
176
     1
 90
        3
176
     1
 62
     5
420
      255
176
     1
290
     0
176
     1
 90
       50
176
     1
 90
       50
176
     1
 90
       50
176
     1
290
     0
176
     1
 90
       50
176
     1
 62
   256
176
     0
 40
1.0
176
     0
 90
        2
176
     1
  1
strokes_ogs.tif
176
     1
290
     0
176
     1
 40
1.0
176
     1
 40
1.0
176
     1
  0
VISUALSTYLE
  5
30
102
{ACAD_REACTORS
330
29
102
}
330
29
100
AcDbVisualStyle
  2
Wireframe
 70
     5
177
     3
291
     0
 70
    58
 90
        0
176
     1
 90
        2
176
     1
 90
        0
176
     1
 90
        0
176
     1
 40
0.6
176
     1
 40
30.0
176
     1
 62
     7
420
 16777215
176
     1
 90
        1
176
     1
 90
        4
176
     1
 62
     7
176
     1
 62
   257
176
     1
 90
        1
176
     1
 90
        1
176
     1
 40
1.0
176
     1
 90
        0
176
     1
 62
   257
176
     1
 40
1.0
176
     1
 90
        1
176
     1
 90
        6
176
     1
 90
        2
176
     1
 62
     7
176
     1
 90
        3
176
     1
 90
        0
176
     1
 90
        0
176
     1
290
     0
176
     1
 90
        1
176
     1
 40
0.0
176
     1
 90
        0
176
     1
290
     0
176
     1
290
     1
176
     1
290
     1
176
     1
290
     0
176
     1
290
     0
176
     1
290
     0
176
     1
290
     0
176
     1
290
     0
176
     1
290
     0
176
     1
 90
       50
176
     1
 40
0.0
176
     1
 40
1.0
176
     1
 90
        0
176
     1
 62
    18
420
        0
176
     1
 90
       50
176
     1
 90
        3
176
     1
 62
     5
420
      255
176
     1
290
     0
176
     1
 90
       50
176
     1
 90
       50
176
     1
 90
       50
176
     1
290
     0
176
     1
 90
       50
176
     1
 62
   256
176
     0
 40
1.0
176
     0
 90
        2
176
     1
  1
strokes_ogs.tif
176
     1
290
     0
176
     1
 40
1.0
176
     1
 40
1.0
176
     1
  0
VISUALSTYLE
  5
3C
102
{ACAD_REACTORS
330
29
102
}
330
29
100
AcDbVisualStyle
  2
X-Ray
 70
    25
177
     3
291
     0
 70
    58
 90
        2
176
     1
 90
        2
176
     1
 90
        1
176
     1
 90
        1
176
     1
 40
0.5
176
     1
 40
30.0
176
     1
 62
     7
420
 16777215
176
     1
 90
        1
176
     1
 90
        0
176
     1
 62
     7
176
     1
 62
   257
176
     1
 90
        1
176
     1
 90
        1
176
     1
 40
1.0
176
     1
 90
        8
176
     1
 62
     7
176
     1
 40
1.0
176
     1
 90
        1
176
     1
 90
        6
176
     1
 90
        2
176
     1
 62
     7
176
     1
 90
        3
176
     1
 90
        0
176
     1
 90
        0
176
     1
290
     0
176
     1
 90
       13
176
     1
 40
0.0
176
     1
 90
        0
176
     1
290
     0
176
     1
290
     1
176
     1
290
     1
176
     1
290
     0
176
     1
290
     0
176
     1
290
     0
176
     1
290
     0
176
     1
290
     0
176
     1
290
     0
176
     1
 90
       50
176
     1
 40
0.0
176
     1
 40
1.0
176
     1
 90
        0
176
     1
 62
    18
420
        0
176
     1
 90
       50
176
     1
 90
        3
176
     1
 62
     5
420
      255
176
     1
290
     0
176
     1
 90
       50
176
     1
 90
       50
176
     1
 90
       50
176
     1
290
     0
176
     1
 90
       50
176
     1
 62
   256
176
     0
 40
1.0
176
     0
 90
        2
176
     1
  1
strokes_ogs.tif
176
     1
290
     0
176
     1
 40
1.0
176
     1
 40
1.0
176
     1
  0
DICTIONARYVAR
  5
27D
102
{ACAD_REACTORS
330
278
102
}
330
278
100
DictionaryVariables
280
     0
  1
1:1
  0
DICTIONARYVAR
  5
27A
102
{ACAD_REACTORS
330
278
102
}
330
278
100
DictionaryVariables
280
     0
  1
STANDARD
  0
DICTIONARYVAR
  5
279
102
{ACAD_REACTORS
330
278
102
}
330
278
100
DictionaryVariables
280
     0
  1
STANDARD
  0
DICTIONARYVAR
  5
27B
102
{ACAD_REACTORS
330
278
102
}
330
278
100
DictionaryVariables
280
     0
  1
Imperial24
  0
DICTIONARYVAR
  5
27C
102
{ACAD_REACTORS
330
278
102
}
330
278
100
DictionaryVariables
280
     0
  1
Imperial24
  0
XRECORD
  5
274
102
{ACAD_REACTORS
330
270
102
}
330
270
100
AcDbXrecord
280
     1
  1
BUILDING_ID
  1
Fazenda Caiçarinha de baixo,  Acarí, Rio Grande do Norte
  1
FLOOR_ID
  1
22585005
  0
XRECORD
  5
272
102
{ACAD_REACTORS
330
270
102
}
330
270
100
AcDbXrecord
280
     1
  1
-2000011
  1
Paredes
  1
-2000023
  1
Portas
  1
-2000051
  1
Linhas
  1
-2000280
  1
Blocos de margens e carimbo
  0
XRECORD
  5
273
102
{ACAD_REACTORS
330
270
102
}
330
270
100
AcDbXrecord
280
     1
  1
-2000027
  1
Abertura
  1
-2000042
  1
<Linhas finas>
  1
-2000066
  1
<Separação de ambiente>
  1
-2000281
  1
<Linhas finas>
  1
-2000588
  1
Padrão de corte
  0
XRECORD
  5
271
102
{ACAD_REACTORS
330
270
102
}
330
270
100
AcDbXrecord
280
     1
  1
17583107
  1
Parede básica : 00_PAREDE_GENERICA_22cm : 00_PAREDE_GENERICA_22cm
  1
22355177
  1
porta multiplas : Simples - 80 cm
  1
22369135
  1
porta multiplas_original : Simples - 70 cm
  1
22369137
  1
porta multiplas_original : Simples - 90 cm
  1
22369145
  1
porta multiplas_original : Simples - 80 cm
  1
22474519
  1
Parede básica : 00_PAREDE_GENERICA_30cm : 00_PAREDE_GENERICA_30cm
  1
22476216
  1
Parede básica : 35 : 35
  1
22584995
  1
SVG : A4
  0
DICTIONARY
  5
1A
330
19
100
AcDbDictionary
280
     1
281
     1
  3
BUMPTILE
360
1C
  3
DIFFUSETILE
360
1B
  3
OPACITYTILE
360
1F
  3
REFLECTIONTILE
360
1E
  3
REFRACTIONTILE
360
20
  3
SPECULARTILE
360
1D
  0
DICTIONARY
  5
12
330
11
100
AcDbDictionary
280
     1
281
     1
  3
BUMPTILE
360
14
  3
DIFFUSETILE
360
13
  3
OPACITYTILE
360
17
  3
REFLECTIONTILE
360
16
  3
REFRACTIONTILE
360
18
  3
SPECULARTILE
360
15
  0
DICTIONARY
  5
22
330
21
100
AcDbDictionary
280
     1
281
     1
  3
BUMPTILE
360
24
  3
DIFFUSETILE
360
23
  3
OPACITYTILE
360
27
  3
REFLECTIONTILE
360
26
  3
REFRACTIONTILE
360
28
  3
SPECULARTILE
360
25
  0
DICTIONARY
  5
2EA
330
65
100
AcDbDictionary
280
     1
281
     1
  3
ACAD_ROUNDTRIP_2008_TABLESTYLE_CELLSTYLEMAP
360
2EB
  0
XRECORD
  5
1C
102
{ACAD_REACTORS
330
1A
102
}
330
1A
100
AcDbXrecord
280
     1
270
     1
271
     1
  0
XRECORD
  5
1B
102
{ACAD_REACTORS
330
1A
102
}
330
1A
100
AcDbXrecord
280
     1
270
     1
271
     1
  0
XRECORD
  5
1F
102
{ACAD_REACTORS
330
1A
102
}
330
1A
100
AcDbXrecord
280
     1
270
     1
271
     1
  0
XRECORD
  5
1E
102
{ACAD_REACTORS
330
1A
102
}
330
1A
100
AcDbXrecord
280
     1
270
     1
271
     1
  0
XRECORD
  5
20
102
{ACAD_REACTORS
330
1A
102
}
330
1A
100
AcDbXrecord
280
     1
270
     1
271
     1
  0
XRECORD
  5
1D
102
{ACAD_REACTORS
330
1A
102
}
330
1A
100
AcDbXrecord
280
     1
270
     1
271
     1
  0
XRECORD
  5
14
102
{ACAD_REACTORS
330
12
102
}
330
12
100
AcDbXrecord
280
     1
270
     1
271
     1
  0
XRECORD
  5
13
102
{ACAD_REACTORS
330
12
102
}
330
12
100
AcDbXrecord
280
     1
270
     1
271
     1
  0
XRECORD
  5
17
102
{ACAD_REACTORS
330
12
102
}
330
12
100
AcDbXrecord
280
     1
270
     1
271
     1
  0
XRECORD
  5
16
102
{ACAD_REACTORS
330
12
102
}
330
12
100
AcDbXrecord
280
     1
270
     1
271
     1
  0
XRECORD
  5
18
102
{ACAD_REACTORS
330
12
102
}
330
12
100
AcDbXrecord
280
     1
270
     1
271
     1
  0
XRECORD
  5
15
102
{ACAD_REACTORS
330
12
102
}
330
12
100
AcDbXrecord
280
     1
270
     1
271
     1
  0
XRECORD
  5
24
102
{ACAD_REACTORS
330
22
102
}
330
22
100
AcDbXrecord
280
     1
270
     1
271
     1
  0
XRECORD
  5
23
102
{ACAD_REACTORS
330
22
102
}
330
22
100
AcDbXrecord
280
     1
270
     1
271
     1
  0
XRECORD
  5
27
102
{ACAD_REACTORS
330
22
102
}
330
22
100
AcDbXrecord
280
     1
270
     1
271
     1
  0
XRECORD
  5
26
102
{ACAD_REACTORS
330
22
102
}
330
22
100
AcDbXrecord
280
     1
270
     1
271
     1
  0
XRECORD
  5
28
102
{ACAD_REACTORS
330
22
102
}
330
22
100
AcDbXrecord
280
     1
270
     1
271
     1
  0
XRECORD
  5
25
102
{ACAD_REACTORS
330
22
102
}
330
22
100
AcDbXrecord
280
     1
270
     1
271
     1
  0
CELLSTYLEMAP
  5
2EB
102
{ACAD_REACTORS
330
2EA
102
}
330
2EA
100
AcDbCellStyleMap
 90
        3
300
CELLSTYLE
  1
TABLEFORMAT_BEGIN
 90
        5
170
     1
 91
        0
 92
    32768
 62
   257
 93
        1
300
CONTENTFORMAT
  1
CONTENTFORMAT_BEGIN
 90
        0
 91
        0
 92
      512
 93
        0
300

 40
0.0
140
1.0
 94
        5
 62
     0
340
55
144
0.25
309
CONTENTFORMAT_END
171
     0
 94
        0
309
TABLEFORMAT_END
  1
CELLSTYLE_BEGIN
 90
        1
 91
        1
300
_TITLE
309
CELLSTYLE_END
300
CELLSTYLE
  1
TABLEFORMAT_BEGIN
 90
        5
170
     1
 91
        0
 92
        0
 62
   257
 93
        1
300
CONTENTFORMAT
  1
CONTENTFORMAT_BEGIN
 90
        0
 91
        0
 92
      512
 93
        0
300

 40
0.0
140
1.0
 94
        5
 62
     0
340
55
144
0.18
309
CONTENTFORMAT_END
171
     0
 94
        0
309
TABLEFORMAT_END
  1
CELLSTYLE_BEGIN
 90
        2
 91
        1
300
_HEADER
309
CELLSTYLE_END
300
CELLSTYLE
  1
TABLEFORMAT_BEGIN
 90
        5
170
     1
 91
        0
 92
        0
 62
   257
 93
        1
300
CONTENTFORMAT
  1
CONTENTFORMAT_BEGIN
 90
        0
 91
        0
 92
      512
 93
        0
300

 40
0.0
140
1.0
 94
        2
 62
     0
340
55
144
0.18
309
CONTENTFORMAT_END
171
     0
 94
        0
309
TABLEFORMAT_END
  1
CELLSTYLE_BEGIN
 90
        3
 91
        2
300
_DATA
309
CELLSTYLE_END
  0
ENDSEC
  0
SECTION
  2
ACDSDATA
 70
     2
 71
     8
  0
ACDSSCHEMA
 90
        0
  1
AcDb_Thumbnail_Schema
  2
AcDbDs::ID
280
    10
 91
        8
  2
Thumbnail_Data
280
    15
 91
        0
101
ACDSRECORD
 95
        0
 90
        1
  2
AcDbDs::TreatedAsObjectData
280
     1
291
     1
101
ACDSRECORD
 95
        0
 90
        2
  2
AcDbDs::Legacy
280
     1
291
     1
101
ACDSRECORD
  1
AcDbDs::ID
 90
        3
  2
AcDs:Indexable
280
     1
291
     1
101
ACDSRECORD
  1
AcDbDs::ID
 90
        4
  2
AcDbDs::HandleAttribute
280
     7
282
     1
  0
ACDSSCHEMA
 90
        1
  1
AcDbDs::TreatedAsObjectDataSchema
  2
AcDbDs::TreatedAsObjectData
280
     1
 91
        0
  0
ACDSSCHEMA
 90
        2
  1
AcDbDs::LegacySchema
  2
AcDbDs::Legacy
280
     1
 91
        0
  0
ACDSSCHEMA
 90
        3
  1
AcDbDs::IndexedPropertySchema
  2
AcDs:Indexable
280
     1
 91
        0
  0
ACDSSCHEMA
 90
        4
  1
AcDbDs::HandleAttributeSchema
  2
AcDbDs::HandleAttribute
280
     7
 91
        1
284
     1
  0
ACDSRECORD
 90
        0
  2
AcDbDs::ID
280
    10
320
6F
  2
Thumbnail_Data
280
    15
 94
     1427
310
89504E470D0A1A0A0000000D4948445200000100000000B5080300000087DCD12600000300504C5445FFFFFFFFFFFFFFFFFF0000000000000000000000000000000000000000000000000000330000660000990000CC0000FF0033000033330033660033990033CC0033FF0066000066330066660066990066CC0066FF0099
310
000099330099660099990099CC0099FF00CC0000CC3300CC6600CC9900CCCC00CCFF00FF0000FF3300FF6600FF9900FFCC00FFFF3300003300333300663300993300CC3300FF3333003333333333663333993333CC3333FF3366003366333366663366993366CC3366FF3399003399333399663399993399CC3399FF33CC00
310
33CC3333CC6633CC9933CCCC33CCFF33FF0033FF3333FF6633FF9933FFCC33FFFF6600006600336600666600996600CC6600FF6633006633336633666633996633CC6633FF6666006666336666666666996666CC6666FF6699006699336699666699996699CC6699FF66CC0066CC3366CC6666CC9966CCCC66CCFF66FF0066
310
FF3366FF6666FF9966FFCC66FFFF9900009900339900669900999900CC9900FF9933009933339933669933999933CC9933FF9966009966339966669966999966CC9966FF9999009999339999669999999999CC9999FF99CC0099CC3399CC6699CC9999CCCC99CCFF99FF0099FF3399FF6699FF9999FFCC99FFFFCC0000CC00
310
33CC0066CC0099CC00CCCC00FFCC3300CC3333CC3366CC3399CC33CCCC33FFCC6600CC6633CC6666CC6699CC66CCCC66FFCC9900CC9933CC9966CC9999CC99CCCC99FFCCCC00CCCC33CCCC66CCCC99CCCCCCCCCCFFCCFF00CCFF33CCFF66CCFF99CCFFCCCCFFFFFF0000FF0033FF0066FF0099FF00CCFF00FFFF3300FF3333
310
FF3366FF3399FF33CCFF33FFFF6600FF6633FF6666FF6699FF66CCFF66FFFF9900FF9933FF9966FF9999FF99CCFF99FFFFCC00FFCC33FFCC66FFCC99FFCCCCFFCCFFFFFF00FFFF33FFFF66FFFF99FFFFCCFFFFFF0000000D0D0D1A1A1A2828283535354343435050505D5D5D6B6B6B787878868686939393A1A1A1AEAEAEBB
310
BBBBC9C9C9D6D6D6E4E4E4F1F1F1FFFFFF000000000000000000000000000000000000000000000000000000000000AD4AB4E40000024E4944415478DAEDDD514EC3301045D1D9B1F790EDB0151630DFFEACBA08206DA151ECA4AE842CBD77476A054814E53038F6D84CA34C8E5A2F975AA73D5FA3C4D498FCE30300000000
310
000000000000000000000000000000000000000000000000D8C5C75BA104107538420CE01380A157160428A538032CD51D60F0959D01F216C61990EE638024C0D06D30DD0142700C189D08D9033015060000000000000000000000001980E3C8DF27D5B2F849E4BA06FCFBDC320332CD3646EAD3D7F2FEB01A0401D8026458
310
0364863580E5440800000000A07D5DA52CE619100038006CE73E7600DF733FEB0C48AF4170774224CD6E83BB3342EE008FA360BE1970701BFC817106584B231EC7E49A00B7DA98F15A4017E0C5C8FBC36D6364B34392861B23FA1940410400EF99208B21164303F5008FC550BF2254140B22ED655FFF5B16DBC59028006571
310
0006000A5B63AC0500000000000000400BA0D92B67BDD6E6FF0DD8023855859B7F084E5B63003487C27407D03C1F3002609F013E13212F806E1FA50680E839C1910C88C5A797180000580054F34190DB2000BD4391C600F73342B600699E0119009801748A9FAEDDE5776D73E82E6F3B11020000000000401EE0A020D2BA2E
310
93C3D2470100000030086ADD0687DE678979803580EEDBECE42B577FAB158B0264BEF2DB97CE8074073811C8004017A0D13EBBD3623D559BABAF1990E72DD653B0B97A190E3580D197060000000000000000000000003D80E7FA70EF630000600C9002782B8400FE2D00000000000000000000000000000000000000002600
310
4C8ECBDCB8C6D53CBE0036A83A75A784C4940000000049454E44AE426082
  0
ACDSRECORD
 90
        0
  2
AcDbDs::ID
280
    10
320
73
  2
Thumbnail_Data
280
    15
 94
     1065
310
89504E470D0A1A0A0000000D494844520000010000000065080300000095E2CD0900000300504C5445FFFFFFFFFFFFFFFFFF0000000000000000000000000000000000000000000000000000330000660000990000CC0000FF0033000033330033660033990033CC0033FF0066000066330066660066990066CC0066FF0099
310
000099330099660099990099CC0099FF00CC0000CC3300CC6600CC9900CCCC00CCFF00FF0000FF3300FF6600FF9900FFCC00FFFF3300003300333300663300993300CC3300FF3333003333333333663333993333CC3333FF3366003366333366663366993366CC3366FF3399003399333399663399993399CC3399FF33CC00
310
33CC3333CC6633CC9933CCCC33CCFF33FF0033FF3333FF6633FF9933FFCC33FFFF6600006600336600666600996600CC6600FF6633006633336633666633996633CC6633FF6666006666336666666666996666CC6666FF6699006699336699666699996699CC6699FF66CC0066CC3366CC6666CC9966CCCC66CCFF66FF0066
310
FF3366FF6666FF9966FFCC66FFFF9900009900339900669900999900CC9900FF9933009933339933669933999933CC9933FF9966009966339966669966999966CC9966FF9999009999339999669999999999CC9999FF99CC0099CC3399CC6699CC9999CCCC99CCFF99FF0099FF3399FF6699FF9999FFCC99FFFFCC0000CC00
310
33CC0066CC0099CC00CCCC00FFCC3300CC3333CC3366CC3399CC33CCCC33FFCC6600CC6633CC6666CC6699CC66CCCC66FFCC9900CC9933CC9966CC9999CC99CCCC99FFCCCC00CCCC33CCCC66CCCC99CCCCCCCCCCFFCCFF00CCFF33CCFF66CCFF99CCFFCCCCFFFFFF0000FF0033FF0066FF0099FF00CCFF00FFFF3300FF3333
310
FF3366FF3399FF33CCFF33FFFF6600FF6633FF6666FF6699FF66CCFF66FFFF9900FF9933FF9966FF9999FF99CCFF99FFFFCC00FFCC33FFCC66FFCC99FFCCCCFFCCFFFFFF00FFFF33FFFF66FFFF99FFFFCCFFFFFF0000000D0D0D1A1A1A2828283535354343435050505D5D5D6B6B6B787878868686939393A1A1A1AEAEAEBB
310
BBBBC9C9C9D6D6D6E4E4E4F1F1F1FFFFFF000000000000000000000000000000000000000000000000000000000000AD4AB4E4000000E44944415478DAEDDA310EC230100551DFFF987B121A048158408390983755922E9375FE7AE5B5000000000000F065660F012501BBA721011F4B2955404BC08A2F010208208080B600
310
9D605DC043D95F6FC302565CC022A0BB175001D93EE05CF6D31B883C667F7320329B673A41022A29F0F4D2F514688EC5A5804ED05E400510908CC15BF353EF04577C287ABFCE0B5804440F48EC1321B3175001F57FC04497C0E1AB470598099A09BECE06023A31F8C6CAFF37422A205901F9E3F21B01536B84CE0B40234480
310
182480000208C80898C341E9E97582ED180400000000000000E0675C00A9D5C798251D4BD80000000049454E44AE426082
  0
ENDSEC
  0
EOF
