  0
SECTION
  2
HEADER
  9
$ACADVER
  1
AC1032
  9
$ACADMAINTVER
 90
      204
  9
$DWGCODEPAGE
  3
ANSI_1252
  9
$LASTSAVEDBY
  1
duda-
  9
$REQUIREDVERSIONS
160
                 0
  9
$INSBASE
 10
0.0
 20
0.0
 30
0.0
  9
$EXTMIN
 10
-31644.53665737451
 20
-10936.76372023578
 30
0.0
  9
$EXTMAX
 10
-6970.013056546958
 20
-5170.299267833312
 30
0.0
  9
$LIMMIN
 10
0.0
 20
0.0
  9
$LIMMAX
 10
12.0
 20
9.0
  9
$ORTHOMODE
 70
     0
  9
$REGENMODE
 70
     1
  9
$FILLMODE
 70
     1
  9
$QTEXTMODE
 70
     0
  9
$MIRRTEXT
 70
     0
  9
$LTSCALE
 40
1.0
  9
$ATTMODE
 70
     1
  9
$TEXTSIZE
 40
0.2
  9
$TRACEWID
 40
0.05
  9
$TEXTSTYLE
  7
Standard
  9
$CLAYER
  8
0
  9
$CELTYPE
  6
ByLayer
  9
$CECOLOR
 62
   256
  9
$CELTSCALE
 40
1.0
  9
$DISPSILH
 70
     0
  9
$DIMSCALE
 40
1.0
  9
$DIMASZ
 40
0.18
  9
$DIMEXO
 40
0.0625
  9
$DIMDLI
 40
0.38
  9
$DIMRND
 40
0.0
  9
$DIMDLE
 40
0.0
  9
$DIMEXE
 40
0.18
  9
$DIMTP
 40
0.0
  9
$DIMTM
 40
0.0
  9
$DIMTXT
 40
0.18
  9
$DIMCEN
 40
0.09
  9
$DIMTSZ
 40
0.0
  9
$DIMTOL
 70
     0
  9
$DIMLIM
 70
     0
  9
$DIMTIH
 70
     1
  9
$DIMTOH
 70
     1
  9
$DIMSE1
 70
     0
  9
$DIMSE2
 70
     0
  9
$DIMTAD
 70
     0
  9
$DIMZIN
 70
     0
  9
$DIMBLK
  1

  9
$DIMASO
 70
     1
  9
$DIMSHO
 70
     1
  9
$DIMPOST
  1

  9
$DIMAPOST
  1

  9
$DIMALT
 70
     0
  9
$DIMALTD
 70
     2
  9
$DIMALTF
 40
25.4
  9
$DIMLFAC
 40
1.0
  9
$DIMTOFL
 70
     0
  9
$DIMTVP
 40
0.0
  9
$DIMTIX
 70
     0
  9
$DIMSOXD
 70
     0
  9
$DIMSAH
 70
     0
  9
$DIMBLK1
  1

  9
$DIMBLK2
  1

  9
$DIMSTYLE
  2
Standard
  9
$DIMCLRD
 70
     0
  9
$DIMCLRE
 70
     0
  9
$DIMCLRT
 70
     0
  9
$DIMTFAC
 40
1.0
  9
$DIMGAP
 40
0.09
  9
$DIMJUST
 70
     0
  9
$DIMSD1
 70
     0
  9
$DIMSD2
 70
     0
  9
$DIMTOLJ
 70
     1
  9
$DIMTZIN
 70
     0
  9
$DIMALTZ
 70
     0
  9
$DIMALTTZ
 70
     0
  9
$DIMUPT
 70
     0
  9
$DIMDEC
 70
     4
  9
$DIMTDEC
 70
     4
  9
$DIMALTU
 70
     2
  9
$DIMALTTD
 70
     2
  9
$DIMTXSTY
  7
Standard
  9
$DIMAUNIT
 70
     0
  9
$DIMADEC
 70
     0
  9
$DIMALTRND
 40
0.0
  9
$DIMAZIN
 70
     0
  9
$DIMDSEP
 70
    46
  9
$DIMATFIT
 70
     3
  9
$DIMFRAC
 70
     0
  9
$DIMLDRBLK
  1

  9
$DIMLUNIT
 70
     2
  9
$DIMLWD
 70
    -2
  9
$DIMLWE
 70
    -2
  9
$DIMTMOVE
 70
     0
  9
$DIMFXL
 40
1.0
  9
$DIMFXLON
 70
     0
  9
$DIMJOGANG
 40
0.7853981633974483
  9
$DIMTFILL
 70
     0
  9
$DIMTFILLCLR
 70
     0
  9
$DIMARCSYM
 70
     0
  9
$DIMLTYPE
  6

  9
$DIMLTEX1
  6

  9
$DIMLTEX2
  6

  9
$DIMTXTDIRECTION
 70
     0
  9
$LUNITS
 70
     2
  9
$LUPREC
 70
     4
  9
$SKETCHINC
 40
0.1
  9
$FILLETRAD
 40
0.0
  9
$AUNITS
 70
     0
  9
$AUPREC
 70
     0
  9
$MENU
  1
.
  9
$ELEVATION
 40
0.0
  9
$PELEVATION
 40
0.0
  9
$THICKNESS
 40
0.0
  9
$LIMCHECK
 70
     0
  9
$CHAMFERA
 40
0.0
  9
$CHAMFERB
 40
0.0
  9
$CHAMFERC
 40
0.0
  9
$CHAMFERD
 40
0.0
  9
$SKPOLY
 70
     0
  9
$TDCREATE
 40
2460730.815289352
  9
$TDUCREATE
 40
2460730.940289352
  9
$TDUPDATE
 40
2460738.929432870
  9
$TDUUPDATE
 40
2460739.054432870
  9
$TDINDWG
 40
0.0098495370
  9
$TDUSRTIMER
 40
0.0098495370
  9
$USRTIMER
 70
     1
  9
$ANGBASE
 50
0.0
  9
$ANGDIR
 70
     0
  9
$PDMODE
 70
     0
  9
$PDSIZE
 40
0.0
  9
$PLINEWID
 40
0.0
  9
$SPLFRAME
 70
     0
  9
$SPLINETYPE
 70
     6
  9
$SPLINESEGS
 70
     8
  9
$HANDSEED
  5
47A
  9
$SURFTAB1
 70
     6
  9
$SURFTAB2
 70
     6
  9
$SURFTYPE
 70
     6
  9
$SURFU
 70
     6
  9
$SURFV
 70
     6
  9
$UCSBASE
  2

  9
$UCSNAME
  2

  9
$UCSORG
 10
0.0
 20
0.0
 30
0.0
  9
$UCSXDIR
 10
1.0
 20
0.0
 30
0.0
  9
$UCSYDIR
 10
0.0
 20
1.0
 30
0.0
  9
$UCSORTHOREF
  2

  9
$UCSORTHOVIEW
 70
     0
  9
$UCSORGTOP
 10
0.0
 20
0.0
 30
0.0
  9
$UCSORGBOTTOM
 10
0.0
 20
0.0
 30
0.0
  9
$UCSORGLEFT
 10
0.0
 20
0.0
 30
0.0
  9
$UCSORGRIGHT
 10
0.0
 20
0.0
 30
0.0
  9
$UCSORGFRONT
 10
0.0
 20
0.0
 30
0.0
  9
$UCSORGBACK
 10
0.0
 20
0.0
 30
0.0
  9
$PUCSBASE
  2

  9
$PUCSNAME
  2

  9
$PUCSORG
 10
0.0
 20
0.0
 30
0.0
  9
$PUCSXDIR
 10
1.0
 20
0.0
 30
0.0
  9
$PUCSYDIR
 10
0.0
 20
1.0
 30
0.0
  9
$PUCSORTHOREF
  2

  9
$PUCSORTHOVIEW
 70
     0
  9
$PUCSORGTOP
 10
0.0
 20
0.0
 30
0.0
  9
$PUCSORGBOTTOM
 10
0.0
 20
0.0
 30
0.0
  9
$PUCSORGLEFT
 10
0.0
 20
0.0
 30
0.0
  9
$PUCSORGRIGHT
 10
0.0
 20
0.0
 30
0.0
  9
$PUCSORGFRONT
 10
0.0
 20
0.0
 30
0.0
  9
$PUCSORGBACK
 10
0.0
 20
0.0
 30
0.0
  9
$USERI1
 70
     0
  9
$USERI2
 70
     0
  9
$USERI3
 70
     0
  9
$USERI4
 70
     0
  9
$USERI5
 70
     0
  9
$USERR1
 40
0.0
  9
$USERR2
 40
0.0
  9
$USERR3
 40
0.0
  9
$USERR4
 40
0.0
  9
$USERR5
 40
0.0
  9
$WORLDVIEW
 70
     1
  9
$SHADEDGE
 70
     3
  9
$SHADEDIF
 70
    70
  9
$TILEMODE
 70
     1
  9
$MAXACTVP
 70
    64
  9
$PINSBASE
 10
0.0
 20
0.0
 30
0.0
  9
$PLIMCHECK
 70
     0
  9
$PEXTMIN
 10
29.69999999999999
 20
20.98886566162111
 30
0.0
  9
$PEXTMAX
 10
267.3
 20
188.8997909545898
 30
0.0
  9
$PLIMMIN
 10
0.0
 20
0.0
  9
$PLIMMAX
 10
297.0
 20
210.0
  9
$UNITMODE
 70
     0
  9
$VISRETAIN
 70
     1
  9
$PLINEGEN
 70
     0
  9
$PSLTSCALE
 70
     1
  9
$TREEDEPTH
 70
  3020
  9
$CMLSTYLE
  2
Standard
  9
$CMLJUST
 70
     0
  9
$CMLSCALE
 40
1.0
  9
$PROXYGRAPHICS
 70
     1
  9
$MEASUREMENT
 70
     1
  9
$CELWEIGHT
370
    -1
  9
$ENDCAPS
280
     0
  9
$JOINSTYLE
280
     0
  9
$LWDISPLAY
290
     0
  9
$INSUNITS
 70
     4
  9
$HYPERLINKBASE
  1

  9
$STYLESHEET
  1

  9
$XEDIT
290
     1
  9
$CEPSNTYPE
380
     0
  9
$PSTYLEMODE
290
     1
  9
$FINGERPRINTGUID
  2
{38B9933A-60ED-8140-95D8-BE81F2D5C9E7}
  9
$VERSIONGUID
  2
{9EE7000A-4452-0A4B-A1BD-058057205B79}
  9
$EXTNAMES
290
     1
  9
$PSVPSCALE
 40
0.0
  9
$OLESTARTUP
290
     0
  9
$SORTENTS
280
   127
  9
$INDEXCTL
280
     0
  9
$HIDETEXT
280
     1
  9
$XCLIPFRAME
280
     2
  9
$HALOGAP
280
     0
  9
$OBSCOLOR
 70
   257
  9
$OBSLTYPE
280
     0
  9
$INTERSECTIONDISPLAY
280
     0
  9
$INTERSECTIONCOLOR
 70
   257
  9
$DIMASSOC
280
     2
  9
$PROJECTNAME
  1

  9
$CAMERADISPLAY
290
     0
  9
$LENSLENGTH
 40
50.0
  9
$CAMERAHEIGHT
 40
0.0
  9
$STEPSPERSEC
 40
2.0
  9
$STEPSIZE
 40
6.0
  9
$3DDWFPREC
 40
2.0
  9
$PSOLWIDTH
 40
0.25
  9
$PSOLHEIGHT
 40
4.0
  9
$LOFTANG1
 40
1.570796326794896
  9
$LOFTANG2
 40
1.570796326794896
  9
$LOFTMAG1
 40
0.0
  9
$LOFTMAG2
 40
0.0
  9
$LOFTPARAM
 70
     7
  9
$LOFTNORMALS
280
     1
  9
$LATITUDE
 40
0.0
  9
$LONGITUDE
 40
0.0
  9
$NORTHDIRECTION
 40
0.0
  9
$TIMEZONE
 70
     0
  9
$LIGHTGLYPHDISPLAY
280
     1
  9
$TILEMODELIGHTSYNCH
280
     1
  9
$CMATERIAL
347
11
  9
$SOLIDHIST
280
     0
  9
$SHOWHIST
280
     1
  9
$DWFFRAME
280
     2
  9
$DGNFRAME
280
     0
  9
$REALWORLDSCALE
290
     1
  9
$INTERFERECOLOR
 62
     1
  9
$INTERFEREOBJVS
345
33
  9
$INTERFEREVPVS
346
30
  9
$CSHADOW
280
     0
  9
$SHADOWPLANELOCATION
 40
0.0
  0
ENDSEC
  0
SECTION
  2
CLASSES
  0
CLASS
  1
ACDBDICTIONARYWDFLT
  2
AcDbDictionaryWithDefault
  3
ObjectDBX Classes
 90
        0
 91
        1
280
     0
281
     0
  0
CLASS
  1
MATERIAL
  2
AcDbMaterial
  3
ObjectDBX Classes
 90
     1153
 91
        3
280
     0
281
     0
  0
CLASS
  1
VISUALSTYLE
  2
AcDbVisualStyle
  3
ObjectDBX Classes
 90
     4095
 91
       24
280
     0
281
     0
  0
CLASS
  1
SCALE
  2
AcDbScale
  3
ObjectDBX Classes
 90
     1153
 91
       17
280
     0
281
     0
  0
CLASS
  1
TABLESTYLE
  2
AcDbTableStyle
  3
ObjectDBX Classes
 90
     4095
 91
        1
280
     0
281
     0
  0
CLASS
  1
MLEADERSTYLE
  2
AcDbMLeaderStyle
  3
ACDB_MLEADERSTYLE_CLASS
 90
     4095
 91
        1
280
     0
281
     0
  0
CLASS
  1
ACDBSECTIONVIEWSTYLE
  2
AcDbSectionViewStyle
  3
ObjectDBX Classes
 90
     1025
 91
        2
280
     0
281
     0
  0
CLASS
  1
ACDBDETAILVIEWSTYLE
  2
AcDbDetailViewStyle
  3
ObjectDBX Classes
 90
     1025
 91
        2
280
     0
281
     0
  0
CLASS
  1
RASTERVARIABLES
  2
AcDbRasterVariables
  3
ISM
 90
        0
 91
        1
280
     0
281
     0
  0
CLASS
  1
DICTIONARYVAR
  2
AcDbDictionaryVar
  3
ObjectDBX Classes
 90
        0
 91
        5
280
     0
281
     0
  0
CLASS
  1
SORTENTSTABLE
  2
AcDbSortentsTable
  3
ObjectDBX Classes
 90
        0
 91
        1
280
     0
281
     0
  0
CLASS
  1
SUN
  2
AcDbSun
  3
SCENEOE
 90
     1153
 91
        1
280
     0
281
     0
  0
CLASS
  1
RAPIDRTRENDERSETTINGS
  2
AcDbRapidRTRenderSettings
  3
ObjectDBX Classes
 90
     1024
 91
        7
280
     0
281
     0
  0
CLASS
  1
CELLSTYLEMAP
  2
AcDbCellStyleMap
  3
ObjectDBX Classes
 90
     1152
 91
        1
280
     0
281
     0
  0
ENDSEC
  0
SECTION
  2
TABLES
  0
TABLE
  2
VPORT
  5
8
330
0
100
AcDbSymbolTable
 70
     1
  0
VPORT
  5
57
330
8
100
AcDbSymbolTableRecord
100
AcDbViewportTableRecord
  2
*Active
 70
     0
 10
0.0
 20
0.0
 11
1.0
 21
1.0
 12
-21206.93291122998
 22
-10669.75677352351
 13
0.0
 23
0.0
 14
1.0
 24
1.0
 15
0.0
 25
0.0
 16
0.0
 26
0.0
 36
1.0
 17
0.0
 27
0.0
 37
0.0
 40
4629.360798257803
 41
2.159362549800796
 42
50.0
 43
0.0
 44
0.0
 50
0.0
 51
0.0
 71
     0
 72
  1000
 73
     1
 74
     1
 75
     0
 76
     0
 77
     0
 78
     0
281
     0
 65
     1
110
0.0
120
0.0
130
0.0
111
1.0
121
0.0
131
0.0
112
0.0
122
1.0
132
0.0
 79
     0
146
0.0
348
2F
 60
     3
 61
     5
292
     1
282
     1
141
0.0
142
0.0
 63
   250
421
  3355443
361
38E
1001
ACAD_NAV_VCDISPLAY
1070
     3
  0
ENDTAB
  0
TABLE
  2
LTYPE
  5
5
330
0
100
AcDbSymbolTable
 70
     1
  0
LTYPE
  5
5B
330
5
100
AcDbSymbolTableRecord
100
AcDbLinetypeTableRecord
  2
ByBlock
 70
     0
  3

 72
    65
 73
     0
 40
0.0
  0
LTYPE
  5
5C
330
5
100
AcDbSymbolTableRecord
100
AcDbLinetypeTableRecord
  2
ByLayer
 70
     0
  3

 72
    65
 73
     0
 40
0.0
  0
LTYPE
  5
5D
330
5
100
AcDbSymbolTableRecord
100
AcDbLinetypeTableRecord
  2
Continuous
 70
     0
  3
Solid line
 72
    65
 73
     0
 40
0.0
  0
ENDTAB
  0
TABLE
  2
LAYER
  5
2
102
{ACAD_XDICTIONARY
360
3AB
102
}
330
0
100
AcDbSymbolTable
 70
     8
  0
LAYER
  5
54
330
2
100
AcDbSymbolTableRecord
100
AcDbLayerTableRecord
  2
0
 70
     0
 62
   250
  6
Continuous
370
    25
390
F
347
21
348
0
  0
LAYER
  5
81
330
2
100
AcDbSymbolTableRecord
100
AcDbLayerTableRecord
  2
A-POR-___-___-EXI
 70
     0
 62
   250
  6
Continuous
370
    25
390
F
347
21
348
0
  0
LAYER
  5
11E
330
2
100
AcDbSymbolTableRecord
100
AcDbLayerTableRecord
  2
A-BAS-___-___-EXI
 70
     0
 62
   250
  6
Continuous
370
    25
390
F
347
21
348
0
  0
LAYER
  5
377
330
2
100
AcDbSymbolTableRecord
100
AcDbLayerTableRecord
  2
A-JAN-___-___-EXI
 70
     0
 62
   250
  6
Continuous
370
    25
390
F
347
21
348
0
  0
LAYER
  5
37D
330
2
100
AcDbSymbolTableRecord
100
AcDbLayerTableRecord
  2
A-ESC-___-___-EXI
 70
     0
 62
   250
  6
Continuous
370
    25
390
F
347
21
348
0
  0
LAYER
  5
37F
330
2
100
AcDbSymbolTableRecord
100
AcDbLayerTableRecord
  2
A-COB-___-___-EXI
 70
     0
 62
   250
  6
Continuous
370
    25
390
F
347
21
348
0
  0
LAYER
  5
420
330
2
100
AcDbSymbolTableRecord
100
AcDbLayerTableRecord
  2
A-ALV-___-___-EXI
 70
     0
 62
   250
  6
Continuous
370
    35
390
F
347
21
348
0
1001
AcAecLayerStandard
1000

1000

1001
AcCmTransparency
1071
        0
  0
LAYER
  5
42D
330
2
100
AcDbSymbolTableRecord
100
AcDbLayerTableRecord
  2
A-PIL-___-___-EXI
 70
     0
 62
   250
  6
Continuous
370
    25
390
F
347
21
348
0
1001
AcAecLayerStandard
1000

1000

1001
AcCmTransparency
1071
        0
  0
ENDTAB
  0
TABLE
  2
STYLE
  5
3
330
0
100
AcDbSymbolTable
 70
     2
  0
STYLE
  5
55
330
3
100
AcDbSymbolTableRecord
100
AcDbTextStyleTableRecord
  2
Standard
 70
     0
 40
0.0
 41
1.0
 50
0.0
 71
     0
 42
0.2
  3
txt
  4

  0
STYLE
  5
5A
330
3
100
AcDbSymbolTableRecord
100
AcDbTextStyleTableRecord
  2
Annotative
 70
     0
 40
0.0
 41
1.0
 50
0.0
 71
     0
 42
0.2
  3
txt
  4

1001
AcadAnnotative
1000
AnnotativeData
1002
{
1070
     1
1070
     1
1002
}
  0
ENDTAB
  0
TABLE
  2
VIEW
  5
6
330
0
100
AcDbSymbolTable
 70
     1
  0
ENDTAB
  0
TABLE
  2
UCS
  5
7
330
0
100
AcDbSymbolTable
 70
     0
  0
ENDTAB
  0
TABLE
  2
APPID
  5
9
330
0
100
AcDbSymbolTable
 70
     7
  0
APPID
  5
56
330
9
100
AcDbSymbolTableRecord
100
AcDbRegAppTableRecord
  2
ACAD
 70
     0
  0
APPID
  5
5E
330
9
100
AcDbSymbolTableRecord
100
AcDbRegAppTableRecord
  2
AcadAnnotative
 70
     0
  0
APPID
  5
78
330
9
100
AcDbSymbolTableRecord
100
AcDbRegAppTableRecord
  2
REVIT
 70
     0
  0
APPID
  5
39E
330
9
100
AcDbSymbolTableRecord
100
AcDbRegAppTableRecord
  2
ACAD_PSEXT
 70
     0
  0
APPID
  5
418
330
9
100
AcDbSymbolTableRecord
100
AcDbRegAppTableRecord
  2
ACAD_NAV_VCDISPLAY
 70
     0
  0
APPID
  5
421
330
9
100
AcDbSymbolTableRecord
100
AcDbRegAppTableRecord
  2
AcAecLayerStandard
 70
     0
  0
APPID
  5
422
330
9
100
AcDbSymbolTableRecord
100
AcDbRegAppTableRecord
  2
AcCmTransparency
 70
     0
  0
ENDTAB
  0
TABLE
  2
DIMSTYLE
  5
A
330
0
100
AcDbSymbolTable
 70
     2
100
AcDbDimStyleTable
 71
     0
  0
DIMSTYLE
105
58
330
A
100
AcDbSymbolTableRecord
100
AcDbDimStyleTableRecord
  2
Standard
 70
     0
340
55
  0
DIMSTYLE
105
59
330
A
100
AcDbSymbolTableRecord
100
AcDbDimStyleTableRecord
  2
Annotative
 70
     0
340
55
1001
AcadAnnotative
1000
AnnotativeData
1002
{
1070
     1
1070
     1
1002
}
  0
ENDTAB
  0
TABLE
  2
BLOCK_RECORD
  5
1
330
0
100
AcDbSymbolTable
 70
     1
  0
BLOCK_RECORD
  5
70
102
{ACAD_XDICTIONARY
360
38C
102
}
330
1
100
AcDbSymbolTableRecord
100
AcDbBlockTableRecord
  2
*Model_Space
340
73
 70
     0
280
     1
281
     0
  0
BLOCK_RECORD
  5
74
330
1
100
AcDbSymbolTableRecord
100
AcDbBlockTableRecord
  2
*Paper_Space
340
77
 70
     0
280
     1
281
     0
  0
BLOCK_RECORD
  5
37E
330
1
100
AcDbSymbolTableRecord
100
AcDbBlockTableRecord
  2
A4 HORIZONTAL - A4-22586393-Não nomeada
340
0
 70
     0
280
     1
281
     0
  0
ENDTAB
  0
ENDSEC
  0
SECTION
  2
BLOCKS
  0
BLOCK
  5
71
330
70
100
AcDbEntity
  8
0
100
AcDbBlockBegin
  2
*Model_Space
 70
     0
 10
0.0
 20
0.0
 30
0.0
  3
*Model_Space
  1

  0
ENDBLK
  5
72
330
70
100
AcDbEntity
  8
0
100
AcDbBlockEnd
  0
BLOCK
  5
75
330
74
100
AcDbEntity
 67
     1
  8
0
100
AcDbBlockBegin
  2
*Paper_Space
 70
     0
 10
0.0
 20
0.0
 30
0.0
  3
*Paper_Space
  1

  0
ENDBLK
  5
76
330
74
100
AcDbEntity
 67
     1
  8
0
100
AcDbBlockEnd
  0
BLOCK
  5
384
330
37E
100
AcDbEntity
  8
0
100
AcDbBlockBegin
  2
A4 HORIZONTAL - A4-22586393-Não nomeada
 70
     0
 10
0.0
 20
0.0
 30
0.0
  3
A4 HORIZONTAL - A4-22586393-Não nomeada
  1

  0
LINE
  5
380
330
37E
100
AcDbEntity
  8
A-COB-___-___-EXI
100
AcDbLine
 10
317.7928507088368
 20
312.9999999999862
 30
0.0
 11
20.7928507088368
 21
312.9999999999856
 31
0.0
1001
REVIT
1002
{
1070
     1
1000
22585004
1002
}
1002
{
1070
     5
1000
22586393
1002
}
1002
{
1070
     3
1000
-2000281
1002
}
  0
LINE
  5
381
330
37E
100
AcDbEntity
  8
A-COB-___-___-EXI
100
AcDbLine
 10
20.7928507088368
 20
312.9999999999856
 30
0.0
 11
20.7928507088372
 21
102.9999999999856
 31
0.0
1001
REVIT
1002
{
1070
     1
1000
22585004
1002
}
1002
{
1070
     5
1000
22586393
1002
}
1002
{
1070
     3
1000
-2000281
1002
}
  0
LINE
  5
382
330
37E
100
AcDbEntity
  8
A-COB-___-___-EXI
100
AcDbLine
 10
20.7928507088372
 20
102.9999999999855
 30
0.0
 11
317.7928507088372
 21
102.9999999999861
 31
0.0
1001
REVIT
1002
{
1070
     1
1000
22585004
1002
}
1002
{
1070
     5
1000
22586393
1002
}
1002
{
1070
     3
1000
-2000281
1002
}
  0
LINE
  5
383
330
37E
100
AcDbEntity
  8
A-COB-___-___-EXI
100
AcDbLine
 10
317.7928507088372
 20
102.9999999999861
 30
0.0
 11
317.7928507088368
 21
312.9999999999862
 31
0.0
1001
REVIT
1002
{
1070
     1
1000
22585004
1002
}
1002
{
1070
     5
1000
22586393
1002
}
1002
{
1070
     3
1000
-2000281
1002
}
  0
ENDBLK
  5
385
330
37E
100
AcDbEntity
  8
0
100
AcDbBlockEnd
  0
ENDSEC
  0
SECTION
  2
ENTITIES
  0
HATCH
  5
B8
330
70
100
AcDbEntity
  8
A-ALV-___-___-EXI
 62
    11
100
AcDbHatch
 10
0.0
 20
0.0
 30
0.0
210
0.0
220
0.0
230
1.0
  2
SOLID
 70
     1
 71
     0
 91
        6
 92
        1
 93
        4
 72
     1
 10
-7950.013056546969
 20
-10587.67780549064
 11
-7950.013056546969
 21
-7940.478000693222
 72
     1
 10
-7950.013056546969
 20
-7940.478000693222
 11
-8136.155662867478
 21
-7940.478000693222
 72
     1
 10
-8136.155662867478
 20
-7940.478000693222
 11
-8136.155662867478
 21
-10587.67780549064
 72
     1
 10
-8136.155662867478
 20
-10587.67780549064
 11
-7950.013056546969
 21
-10587.67780549064
 97
        0
 92
        1
 93
        9
 72
     1
 10
-12264.57134502057
 20
-10587.67780549062
 11
-12062.69428381292
 21
-10587.67780549062
 72
     1
 10
-12062.69428381292
 20
-10587.67780549062
 11
-12062.69428381292
 21
-6025.206939139373
 72
     1
 10
-12062.69428381292
 20
-6025.206939139373
 11
-12116.9251279107
 21
-6025.206939139373
 72
     1
 10
-12116.9251279107
 20
-6025.206939139373
 11
-12116.9251279107
 21
-6092.485247582936
 72
     1
 10
-12116.9251279107
 20
-6092.485247582936
 11
-12215.61504969766
 21
-6092.485247582936
 72
     1
 10
-12215.61504969766
 20
-6092.485247582936
 11
-12215.61504969766
 21
-6025.206939139373
 72
     1
 10
-12215.61504969766
 20
-6025.206939139373
 11
-12264.57134502057
 21
-6025.206939139373
 72
     1
 10
-12264.57134502057
 20
-6025.206939139373
 11
-12264.57134502057
 21
-10498.59837575439
 72
     1
 10
-12264.57134502057
 20
-10498.59837575439
 11
-12264.57134502057
 21
-10587.67780549062
 97
        0
 92
        1
 93
        7
 72
     1
 10
-24030.07491783737
 20
-10367.67780549058
 11
-23815.07491783737
 21
-10367.67780549058
 72
     1
 10
-23815.07491783737
 20
-10367.67780549058
 11
-23815.07491783736
 21
-6142.677805490582
 72
     1
 10
-23815.07491783736
 20
-6142.677805490582
 11
-23940.07491783737
 21
-6143.084008990935
 72
     1
 10
-23940.07491783737
 20
-6143.084008990935
 11
-23940.07491783737
 21
-6292.677805490581
 72
     1
 10
-23940.07491783737
 20
-6292.677805490581
 11
-24030.07491783736
 21
-6292.677805490581
 72
     1
 10
-24030.07491783736
 20
-6292.677805490581
 11
-24030.07491783737
 21
-10317.72330247338
 72
     1
 10
-24030.07491783737
 20
-10317.72330247338
 11
-24030.07491783737
 21
-10367.67780549058
 97
        0
 92
        1
 93
       13
 72
     1
 10
-16603.97452031011
 20
-8707.754312098597
 11
-16448.97452031012
 21
-8707.754312098597
 72
     1
 10
-16448.97452031012
 20
-8707.754312098597
 11
-16448.97452031012
 21
-8582.792188401807
 72
     1
 10
-16448.97452031012
 20
-8582.792188401807
 11
-16352.42227030278
 21
-8582.792188401807
 72
     1
 10
-16352.42227030278
 20
-8582.792188401807
 11
-16352.42227030278
 21
-8707.754312098597
 72
     1
 10
-16352.42227030278
 20
-8707.754312098597
 11
-16207.0966205788
 21
-8707.754312098597
 72
     1
 10
-16207.0966205788
 20
-8707.754312098597
 11
-16207.0966205788
 21
-7902.255980709376
 72
     1
 10
-16207.0966205788
 20
-7902.255980709376
 11
-16347.0966205788
 21
-7902.255980709376
 72
     1
 10
-16347.0966205788
 20
-7902.255980709376
 11
-16347.0966205788
 21
-8022.255980709374
 72
     1
 10
-16347.0966205788
 20
-8022.255980709374
 11
-16472.09662057879
 21
-8022.255980709374
 72
     1
 10
-16472.09662057879
 20
-8022.255980709374
 11
-16472.09662057879
 21
-7902.255980709376
 72
     1
 10
-16472.09662057879
 20
-7902.255980709376
 11
-16603.97452031011
 21
-7902.255980709376
 72
     1
 10
-16603.97452031011
 20
-7902.255980709376
 11
-16603.97452031011
 21
-8053.122039717157
 72
     1
 10
-16603.97452031011
 20
-8053.122039717157
 11
-16603.97452031011
 21
-8707.754312098597
 97
        0
 92
        1
 93
        7
 72
     1
 10
-20231.82400915531
 20
-8605.850472341066
 11
-20126.82400915532
 21
-8605.850472341066
 72
     1
 10
-20126.82400915532
 20
-8605.850472341066
 11
-20126.82400915531
 21
-6330.850472341062
 72
     1
 10
-20126.82400915531
 20
-6330.850472341062
 11
-20231.82400915531
 21
-6330.850472341062
 72
     1
 10
-20231.82400915531
 20
-6330.850472341062
 11
-20231.82400915531
 21
-6220.85047234106
 72
     1
 10
-20231.82400915531
 20
-6220.85047234106
 11
-20341.82400915531
 21
-6221.16622183293
 72
     1
 10
-20341.82400915531
 20
-6221.16622183293
 11
-20341.82400915532
 21
-8605.850472341066
 72
     1
 10
-20341.82400915532
 20
-8605.850472341066
 11
-20231.82400915531
 21
-8605.850472341066
 97
        0
 92
        1
 93
       13
 72
     1
 10
-27702.21727260661
 20
-8541.658031429081
 11
-27642.21727260662
 21
-8541.658031429081
 72
     1
 10
-27642.21727260662
 20
-8541.658031429081
 11
-27642.21727260662
 21
-8281.658031429079
 72
     1
 10
-27642.21727260662
 20
-8281.658031429079
 11
-27702.21727260661
 21
-8281.658031429079
 72
     1
 10
-27702.21727260661
 20
-8281.658031429079
 11
-27702.21727260661
 21
-7861.553311571815
 72
     1
 10
-27702.21727260661
 20
-7861.553311571815
 11
-27802.21727260662
 21
-7861.553311571815
 72
     1
 10
-27802.21727260662
 20
-7861.553311571815
 11
-27802.21727260662
 21
-7757.030870900407
 72
     1
 10
-27802.21727260662
 20
-7757.030870900407
 11
-27944.5366573745
 21
-7818.299087483956
 72
     1
 10
-27944.5366573745
 20
-7818.299087483956
 11
-27944.5366573745
 21
-8541.658031429081
 72
     1
 10
-27944.5366573745
 20
-8541.658031429081
 11
-27844.09517233795
 21
-8541.658031429081
 72
     1
 10
-27844.09517233795
 20
-8541.658031429081
 11
-27844.09517233795
 21
-8422.089519264245
 72
     1
 10
-27844.09517233795
 20
-8422.089519264245
 11
-27747.54292233061
 21
-8422.089519264245
 72
     1
 10
-27747.54292233061
 20
-8422.089519264245
 11
-27747.54292233061
 21
-8541.658031429081
 72
     1
 10
-27747.54292233061
 20
-8541.658031429081
 11
-27702.21727260661
 21
-8541.658031429081
 97
        0
 75
     0
 76
     1
 98
        1
 10
0.0
 20
0.0
450
        0
451
        0
460
0.0
461
0.0
452
        0
462
0.0
453
        0
470

1001
REVIT
1002
{
1070
     1
1000
22582316
1002
}
1002
{
1070
     5
1000
383807
1002
}
1002
{
1070
     2
1000
-2002000
1002
}
  0
HATCH
  5
C6
330
70
100
AcDbEntity
  8
A-BAS-___-___-EXI
 62
   253
420
 13342872
100
AcDbHatch
 10
0.0
 20
0.0
 30
0.0
210
0.0
220
0.0
230
1.0
  2
SOLID
 70
     1
 71
     0
 91
        1
 92
        1
 93
       13
 72
     1
 10
-6970.01305654696
 20
-10936.76372023578
 11
-6970.01305654696
 21
-10687.67780549064
 72
     1
 10
-6970.01305654696
 20
-10687.67780549064
 11
-7950.013056546969
 21
-10687.67780549064
 72
     1
 10
-7950.013056546969
 20
-10687.67780549064
 11
-7950.013056546969
 21
-10587.67780549064
 72
     1
 10
-7950.013056546969
 20
-10587.67780549064
 11
-16204.53665737449
 21
-10587.67780549061
 72
     1
 10
-16204.53665737449
 20
-10587.67780549061
 11
-16204.53665737449
 21
-10367.67780549061
 72
     1
 10
-16204.53665737449
 20
-10367.67780549061
 11
-27944.5366573745
 21
-10367.67780549057
 72
     1
 10
-27944.5366573745
 20
-10367.67780549057
 11
-27944.5366573745
 21
-10487.67780549057
 72
     1
 10
-27944.5366573745
 20
-10487.67780549057
 11
-30664.53665737451
 21
-10487.67780549056
 72
     1
 10
-30664.53665737451
 20
-10487.67780549056
 11
-30664.53665737451
 21
-10736.76372023577
 72
     1
 10
-30664.53665737451
 20
-10736.76372023577
 11
-31644.5366573745
 21
-10736.76372023577
 72
     1
 10
-31644.5366573745
 20
-10736.76372023577
 11
-31644.53665737451
 21
-10936.76372023578
 72
     1
 10
-31644.53665737451
 20
-10936.76372023578
 11
-9592.835896745036
 21
-10936.76372023578
 72
     1
 10
-9592.83589674504
 20
-10936.76372023578
 11
-6970.01305654696
 21
-10936.76372023578
 97
        0
 75
     0
 76
     1
 98
        1
 10
0.0
 20
0.0
450
        0
451
        0
460
0.0
461
0.0
452
        0
462
0.0
453
        0
470

1001
REVIT
1002
{
1070
     1
1000
22582326
1002
}
1002
{
1070
     5
1000
383807
1002
}
1002
{
1070
     2
1000
-2002000
1002
}
  0
HATCH
  5
11D
330
70
100
AcDbEntity
  8
A-COB-___-___-EXI
 62
    33
420
 12688002
100
AcDbHatch
 10
0.0
 20
0.0
 30
0.0
210
0.0
220
0.0
230
1.0
  2
SOLID
 70
     1
 71
     0
 91
        4
 92
        1
 93
       74
 72
     1
 10
-30038.50546616359
 20
-8825.523472616694
 11
-30038.50546616359
 21
-8719.748561182312
 72
     1
 10
-30038.50546616359
 20
-8719.748561182312
 11
-27802.21727260662
 21
-7757.030870900407
 72
     1
 10
-27802.21727260662
 20
-7757.030870900407
 11
-27802.21727260662
 21
-7861.553311571815
 72
     1
 10
-27802.21727260662
 20
-7861.553311571815
 11
-27702.21727260661
 21
-7861.553311571815
 72
     1
 10
-27702.21727260661
 20
-7861.553311571815
 11
-27702.21727260661
 21
-7713.981066628507
 72
     1
 10
-27702.21727260661
 20
-7713.981066628507
 11
-25930.56639529071
 21
-6970.926434634359
 72
     1
 10
-25930.56639529071
 20
-6970.926434634359
 11
-25930.56639529071
 21
-7063.16478486741
 72
     1
 10
-25930.56639529071
 20
-7063.16478486741
 11
-25789.85303879047
 21
-7063.16478486741
 72
     1
 10
-25789.85303879047
 20
-7063.16478486741
 11
-25789.85303879047
 21
-6911.909326540629
 72
     1
 10
-25789.85303879047
 20
-6911.909326540629
 11
-24030.07491783736
 21
-6173.834291104065
 72
     1
 10
-24030.07491783736
 20
-6173.834291104065
 11
-24030.07491783736
 21
-6292.677805490581
 72
     1
 10
-24030.07491783736
 20
-6292.677805490581
 11
-23940.07491783737
 21
-6292.677805490581
 72
     1
 10
-23940.07491783737
 20
-6292.677805490581
 11
-23940.07491783737
 21
-6142.677805490582
 72
     1
 10
-23940.07491783737
 20
-6142.677805490582
 11
-23815.07491783736
 21
-6142.677805490582
 72
     1
 10
-23815.07491783736
 20
-6142.677805490582
 11
-23815.07491783736
 21
-6083.66034773618
 72
     1
 10
-23815.07491783736
 20
-6083.66034773618
 11
-22142.87636905149
 21
-5382.317383838179
 72
     1
 10
-22142.87636905149
 20
-5382.317383838179
 11
-22074.4163852552
 21
-5450.777367634476
 72
     1
 10
-22074.4163852552
 20
-5450.777367634476
 11
-21985.20261604588
 21
-5399.26977396605
 72
     1
 10
-21985.20261604588
 20
-5399.26977396605
 11
-20341.82400915531
 21
-6126.079173566136
 72
     1
 10
-20341.82400915531
 20
-6126.079173566136
 11
-20341.82400915531
 21
-6220.85047234106
 72
     1
 10
-20341.82400915531
 20
-6220.85047234106
 11
-20231.82400915531
 21
-6220.85047234106
 72
     1
 10
-20231.82400915531
 20
-6220.85047234106
 11
-20231.82400915531
 21
-6330.850472341062
 72
     1
 10
-20231.82400915531
 20
-6330.850472341062
 11
-20126.82400915531
 21
-6330.850472341062
 72
     1
 10
-20126.82400915531
 20
-6330.850472341062
 11
-20126.82400915531
 21
-6221.16622183293
 72
     1
 10
-20126.82400915531
 20
-6221.16622183293
 11
-18416.25119378165
 21
-6977.693290945947
 72
     1
 10
-18416.25119378165
 20
-6977.693290945947
 11
-18416.25119378165
 21
-7145.002955125447
 72
     1
 10
-18416.25119378165
 20
-7145.002955125447
 11
-18275.53783728141
 21
-7145.002955125447
 72
     1
 10
-18275.53783728141
 20
-7145.002955125447
 11
-18275.53783728141
 21
-7039.925931510231
 72
     1
 10
-18275.53783728141
 20
-7039.925931510231
 11
-16603.97452031011
 21
-7779.200451518835
 72
     1
 10
-16603.97452031011
 20
-7779.200451518835
 11
-16603.97452031011
 21
-7902.255980709376
 72
     1
 10
-16603.97452031011
 20
-7902.255980709376
 11
-16472.09662057879
 21
-7902.255980709376
 72
     1
 10
-16472.09662057879
 20
-7902.255980709376
 11
-16472.09662057879
 21
-8022.255980709374
 72
     1
 10
-16472.09662057879
 20
-8022.255980709374
 11
-16347.0966205788
 21
-8022.255980709374
 72
     1
 10
-16347.0966205788
 20
-8022.255980709374
 11
-16347.0966205788
 21
-7902.255980709376
 72
     1
 10
-16347.0966205788
 20
-7902.255980709376
 11
-16207.0966205788
 21
-7902.255980709376
 72
     1
 10
-16207.0966205788
 20
-7902.255980709376
 11
-16207.0966205788
 21
-7759.471215913771
 72
     1
 10
-16207.0966205788
 20
-7759.471215913771
 11
-14304.95915191836
 21
-6958.281672135723
 72
     1
 10
-14304.95915191836
 20
-6958.281672135723
 11
-14304.95915191836
 21
-7046.944765574152
 72
     1
 10
-14304.95915191836
 20
-7046.944765574152
 11
-14164.24579541812
 21
-7046.944765574152
 72
     1
 10
-14164.24579541812
 20
-7046.944765574152
 11
-14164.24579541812
 21
-6899.012522689179
 72
     1
 10
-14164.24579541812
 20
-6899.012522689179
 11
-12264.57134502057
 21
-6098.860414170608
 72
     1
 10
-12264.57134502057
 20
-6098.860414170608
 11
-12264.57134502057
 21
-6025.206939139373
 72
     1
 10
-12264.57134502057
 20
-6025.206939139373
 11
-12215.61504969766
 21
-6025.206939139373
 72
     1
 10
-12215.61504969766
 20
-6025.206939139373
 11
-12215.61504969766
 21
-6092.485247582936
 72
     1
 10
-12215.61504969766
 20
-6092.485247582936
 11
-12116.9251279107
 21
-6092.485247582936
 72
     1
 10
-12116.9251279107
 20
-6092.485247582936
 11
-12116.9251279107
 21
-6025.206939139373
 72
     1
 10
-12116.9251279107
 20
-6025.206939139373
 11
-12062.69428381292
 21
-6025.206939139373
 72
     1
 10
-12062.69428381292
 20
-6025.206939139373
 11
-12062.69428381292
 21
-6061.581636214291
 72
     1
 10
-12062.69428381292
 20
-6061.581636214291
 11
-10163.75292965841
 21
-6901.417581322656
 72
     1
 10
-10163.75292965841
 20
-6901.417581322656
 11
-10163.75292965841
 21
-7066.944765574162
 72
     1
 10
-10163.75292965841
 20
-7066.944765574162
 11
-10023.03957315817
 21
-7066.944765574162
 72
     1
 10
-10023.03957315817
 20
-7066.944765574162
 11
-10023.03957315817
 21
-6963.65022188694
 72
     1
 10
-10023.03957315817
 20
-6963.65022188694
 11
-8136.155662867478
 21
-7798.153577475989
 72
     1
 10
-8136.155662867478
 20
-7798.153577475989
 11
-8136.155662867478
 21
-7940.478000693222
 72
     1
 10
-8136.155662867478
 20
-7940.478000693222
 11
-7950.013056546969
 21
-7940.478000693222
 72
     1
 10
-7950.013056546969
 20
-7940.478000693222
 11
-7950.013056546969
 21
-7880.478000693225
 72
     1
 10
-7950.013056546969
 20
-7880.478000693225
 11
-7641.646948743371
 21
-8016.857642444682
 72
     1
 10
-7641.646948743371
 20
-8016.857642444682
 11
-7641.646948743371
 21
-7886.857642444681
 72
     1
 10
-7641.646948743371
 20
-7886.857642444681
 11
-12060.25127758096
 21
-5932.662093197986
 72
     1
 10
-12060.25127758096
 20
-5932.662093197986
 11
-12116.9251279107
 21
-5957.726972927145
 72
     1
 10
-12116.9251279107
 20
-5957.726972927145
 11
-12116.9251279107
 21
-5937.726972927144
 72
     1
 10
-12116.9251279107
 20
-5937.726972927144
 11
-12215.61504969766
 21
-5937.726972927144
 72
     1
 10
-12215.61504969766
 20
-5937.726972927144
 11
-12215.61504969766
 21
-5957.726972927145
 72
     1
 10
-12215.61504969766
 20
-5957.726972927145
 11
-12240.68256403571
 21
-5968.285531762691
 72
     1
 10
-12240.68256403571
 20
-5968.285531762691
 11
-16325.57426287208
 21
-7719.200451518834
 72
     1
 10
-16325.57426287208
 20
-7719.200451518834
 11
-16470.3259890963
 21
-7719.200451518834
 72
     1
 10
-16470.3259890963
 20
-7719.200451518834
 11
-21977.32764484875
 21
-5283.644487584693
 72
     1
 10
-21977.32764484875
 20
-5283.644487584693
 11
-22086.70686931288
 21
-5264.357979182696
 72
     1
 10
-22086.70686931288
 20
-5264.357979182696
 11
-22157.51035172327
 21
-5295.67190545903
 72
     1
 10
-22157.51035172327
 20
-5295.67190545903
 11
-30432.44447528409
 21
-8766.292561416808
 72
     1
 10
-30432.44447528409
 20
-8766.292561416808
 11
-30277.53452264166
 21
-8822.650102149093
 72
     1
 10
-30277.53452264166
 20
-8822.650102149093
 11
-30173.709520485
 21
-8777.953641935352
 72
     1
 10
-30173.709520485
 20
-8777.953641935352
 11
-30173.709520485
 21
-8825.523472616694
 72
     1
 10
-30173.709520485
 20
-8825.523472616694
 11
-30038.50546616359
 21
-8825.523472616694
 97
        0
 92
        1
 93
        4
 72
     1
 10
-16352.42227030278
 20
-8707.754312098597
 11
-16352.42227030278
 21
-8582.792188401807
 72
     1
 10
-16352.42227030278
 20
-8582.792188401807
 11
-16448.97452031012
 21
-8582.792188401807
 72
     1
 10
-16448.97452031012
 20
-8582.792188401807
 11
-16448.97452031012
 21
-8707.754312098597
 72
     1
 10
-16448.97452031012
 20
-8707.754312098597
 11
-16352.42227030278
 21
-8707.754312098597
 97
        0
 92
        1
 93
        4
 72
     1
 10
-20126.82400915532
 20
-8680.133479456973
 11
-20126.82400915532
 21
-8605.850472341066
 72
     1
 10
-20126.82400915532
 20
-8605.850472341066
 11
-20341.82400915532
 21
-8605.850472341066
 72
     1
 10
-20341.82400915532
 20
-8605.850472341066
 11
-20341.82400915532
 21
-8680.133479456973
 72
     1
 10
-20341.82400915532
 20
-8680.133479456973
 11
-20126.82400915532
 21
-8680.133479456973
 97
        0
 92
        1
 93
        4
 72
     1
 10
-27844.09517233795
 20
-8541.658031429081
 11
-27747.54292233061
 21
-8541.658031429081
 72
     1
 10
-27747.54292233061
 20
-8541.658031429081
 11
-27747.54292233061
 21
-8422.089519264245
 72
     1
 10
-27747.54292233061
 20
-8422.089519264245
 11
-27844.09517233795
 21
-8422.089519264245
 72
     1
 10
-27844.09517233795
 20
-8422.089519264245
 11
-27844.09517233795
 21
-8541.658031429081
 97
        0
 75
     0
 76
     1
 98
        1
 10
0.0
 20
0.0
450
        0
451
        0
460
0.0
461
0.0
452
        0
462
0.0
453
        0
470

1001
REVIT
1002
{
1070
     1
1000
22582918
1002
}
1002
{
1070
     5
1000
383807
1002
}
1002
{
1070
     2
1000
-2002000
1002
}
  0
LINE
  5
11F
330
70
100
AcDbEntity
  8
A-ALV-___-___-EXI
100
AcDbLine
 10
-12062.6942838129
 20
-10587.67780549061
 30
0.0
 11
-12062.6942838129
 21
-6061.581636214281
 31
0.0
1001
REVIT
1002
{
1070
     1
1000
22582316
1002
}
1002
{
1070
     5
1000
383807
1002
}
1002
{
1070
     2
1000
-2000051
1002
}
1002
{
1070
     3
1000
-2000042
1002
}
  0
LINE
  5
120
330
70
100
AcDbEntity
  8
A-ALV-___-___-EXI
100
AcDbLine
 10
-12264.57134502056
 20
-6098.860414170599
 30
0.0
 11
-12264.57134502056
 21
-10587.67780549061
 31
0.0
1001
REVIT
1002
{
1070
     1
1000
22582316
1002
}
1002
{
1070
     5
1000
383807
1002
}
1002
{
1070
     2
1000
-2000051
1002
}
1002
{
1070
     3
1000
-2000042
1002
}
  0
LINE
  5
125
330
70
100
AcDbEntity
  8
A-ALV-___-___-EXI
100
AcDbLine
 10
-7950.013056546959
 20
-10587.67780549062
 30
0.0
 11
-7950.013056546959
 21
-7940.478000693213
 31
0.0
1001
REVIT
1002
{
1070
     1
1000
22582316
1002
}
1002
{
1070
     5
1000
383807
1002
}
1002
{
1070
     2
1000
-2000051
1002
}
1002
{
1070
     3
1000
-2000042
1002
}
  0
LINE
  5
126
330
70
100
AcDbEntity
  8
A-ALV-___-___-EXI
100
AcDbLine
 10
-8136.155662867473
 20
-7940.478000693213
 30
0.0
 11
-8136.155662867473
 21
-10587.67780549062
 31
0.0
1001
REVIT
1002
{
1070
     1
1000
22582316
1002
}
1002
{
1070
     5
1000
383807
1002
}
1002
{
1070
     2
1000
-2000051
1002
}
1002
{
1070
     3
1000
-2000042
1002
}
  0
LINE
  5
127
330
70
100
AcDbEntity
  8
A-ALV-___-___-EXI
100
AcDbLine
 10
-20126.8240091553
 20
-8605.850472341053
 30
0.0
 11
-20126.82400915529
 21
-6330.850472341054
 31
0.0
1001
REVIT
1002
{
1070
     1
1000
22582316
1002
}
1002
{
1070
     5
1000
383807
1002
}
1002
{
1070
     2
1000
-2000051
1002
}
1002
{
1070
     3
1000
-2000042
1002
}
  0
LINE
  5
128
330
70
100
AcDbEntity
  8
A-ALV-___-___-EXI
100
AcDbLine
 10
-20341.8240091553
 20
-6220.850472341053
 30
0.0
 11
-20341.8240091553
 21
-8605.850472341053
 31
0.0
1001
REVIT
1002
{
1070
     1
1000
22582316
1002
}
1002
{
1070
     5
1000
383807
1002
}
1002
{
1070
     2
1000
-2000051
1002
}
1002
{
1070
     3
1000
-2000042
1002
}
  0
LINE
  5
12B
330
70
100
AcDbEntity
  8
A-COB-___-___-EXI
100
AcDbLine
 10
-27944.53665737447
 20
-8541.658031429069
 30
0.0
 11
-27844.09517233791
 21
-8541.658031429069
 31
0.0
1001
REVIT
1002
{
1070
     1
1000
22582316
1002
}
1002
{
1070
     5
1000
383807
1002
}
1002
{
1070
     2
1000
-2000051
1002
}
1002
{
1070
     3
1000
-2000042
1002
}
  0
LINE
  5
2C7
330
70
100
AcDbEntity
  8
A-COB-___-___-EXI
100
AcDbLine
 10
-22157.51035172325
 20
-5295.671905459023
 30
0.0
 11
-30432.44447528405
 21
-8766.292561416795
 31
0.0
1001
REVIT
1002
{
1070
     1
1000
22582918
1002
}
1002
{
1070
     5
1000
383807
1002
}
1002
{
1070
     2
1000
-2000051
1002
}
1002
{
1070
     3
1000
-2000042
1002
}
  0
LINE
  5
2FE
330
70
100
AcDbEntity
  8
A-COB-___-___-EXI
100
AcDbLine
 10
-20126.8240091553
 20
-8605.850472341053
 30
0.0
 11
-20341.8240091553
 21
-8605.850472341053
 31
0.0
1001
REVIT
1002
{
1070
     1
1000
22582918
1002
}
1002
{
1070
     5
1000
383807
1002
}
1002
{
1070
     2
1000
-2000051
1002
}
1002
{
1070
     3
1000
-2000042
1002
}
  0
LINE
  5
2FF
330
70
100
AcDbEntity
  8
A-COB-___-___-EXI
100
AcDbLine
 10
-20341.8240091553
 20
-8605.850472341053
 30
0.0
 11
-20341.8240091553
 21
-8680.13347945696
 31
0.0
1001
REVIT
1002
{
1070
     1
1000
22582918
1002
}
1002
{
1070
     5
1000
383807
1002
}
1002
{
1070
     2
1000
-2000051
1002
}
1002
{
1070
     3
1000
-2000042
1002
}
  0
LINE
  5
300
330
70
100
AcDbEntity
  8
A-COB-___-___-EXI
100
AcDbLine
 10
-20341.8240091553
 20
-8680.13347945696
 30
0.0
 11
-20126.8240091553
 21
-8680.13347945696
 31
0.0
1001
REVIT
1002
{
1070
     1
1000
22582918
1002
}
1002
{
1070
     5
1000
383807
1002
}
1002
{
1070
     2
1000
-2000051
1002
}
1002
{
1070
     3
1000
-2000042
1002
}
  0
LINE
  5
301
330
70
100
AcDbEntity
  8
A-COB-___-___-EXI
100
AcDbLine
 10
-20126.8240091553
 20
-8680.13347945696
 30
0.0
 11
-20126.8240091553
 21
-8605.850472341053
 31
0.0
1001
REVIT
1002
{
1070
     1
1000
22582918
1002
}
1002
{
1070
     5
1000
383807
1002
}
1002
{
1070
     2
1000
-2000051
1002
}
1002
{
1070
     3
1000
-2000042
1002
}
  0
LINE
  5
32B
330
70
100
AcDbEntity
  8
A-COB-___-___-EXI
100
AcDbLine
 10
-12062.6942838129
 20
-8076.868164486553
 30
0.0
 11
-10563.60804328414
 21
-8024.518919432798
 31
0.0
1001
REVIT
1002
{
1070
     1
1000
22582870
1002
}
1002
{
1070
     2
1000
-2000051
1002
}
1002
{
1070
     3
1000
-2000042
1002
}
  0
LINE
  5
32E
330
70
100
AcDbEntity
  8
A-COB-___-___-EXI
100
AcDbLine
 10
-12062.6942838129
 20
-7929.480688168678
 30
0.0
 11
-10563.60804328414
 21
-7877.131443114922
 31
0.0
1001
REVIT
1002
{
1070
     1
1000
22582873
1002
}
1002
{
1070
     2
1000
-2000051
1002
}
1002
{
1070
     3
1000
-2000042
1002
}
  0
LINE
  5
331
330
70
100
AcDbEntity
  8
A-COB-___-___-EXI
100
AcDbLine
 10
-16207.09662057878
 20
-8056.868164486541
 30
0.0
 11
-14708.01038005001
 21
-8004.518919432785
 31
0.0
1001
REVIT
1002
{
1070
     1
1000
22582876
1002
}
1002
{
1070
     2
1000
-2000051
1002
}
1002
{
1070
     3
1000
-2000042
1002
}
  0
LINE
  5
334
330
70
100
AcDbEntity
  8
A-COB-___-___-EXI
100
AcDbLine
 10
-16207.09662057878
 20
-7909.480688168665
 30
0.0
 11
-14708.01038005001
 21
-7857.131443114909
 31
0.0
1001
REVIT
1002
{
1070
     1
1000
22582879
1002
}
1002
{
1070
     2
1000
-2000051
1002
}
1002
{
1070
     3
1000
-2000042
1002
}
  0
LINE
  5
337
330
70
100
AcDbEntity
  8
A-COB-___-___-EXI
100
AcDbLine
 10
-20126.8240091553
 20
-8036.868164486529
 30
0.0
 11
-18627.73776862653
 21
-7984.518919432773
 31
0.0
1001
REVIT
1002
{
1070
     1
1000
22582882
1002
}
1002
{
1070
     2
1000
-2000051
1002
}
1002
{
1070
     3
1000
-2000042
1002
}
  0
LINE
  5
33A
330
70
100
AcDbEntity
  8
A-COB-___-___-EXI
100
AcDbLine
 10
-20126.8240091553
 20
-7889.480688168653
 30
0.0
 11
-18627.73776862653
 21
-7837.131443114897
 31
0.0
1001
REVIT
1002
{
1070
     1
1000
22582885
1002
}
1002
{
1070
     2
1000
-2000051
1002
}
1002
{
1070
     3
1000
-2000042
1002
}
  0
LINE
  5
33D
330
70
100
AcDbEntity
  8
A-COB-___-___-EXI
100
AcDbLine
 10
-27691.65004420779
 20
-7905.111030824265
 30
0.0
 11
-26192.56380367903
 21
-7852.76178577051
 31
0.0
1001
REVIT
1002
{
1070
     1
1000
22582888
1002
}
1002
{
1070
     2
1000
-2000051
1002
}
1002
{
1070
     3
1000
-2000042
1002
}
  0
LINE
  5
340
330
70
100
AcDbEntity
  8
A-COB-___-___-EXI
100
AcDbLine
 10
-27691.65004420779
 20
-7757.72355450639
 30
0.0
 11
-26192.56380367903
 21
-7705.374309452634
 31
0.0
1001
REVIT
1002
{
1070
     1
1000
22582891
1002
}
1002
{
1070
     2
1000
-2000051
1002
}
1002
{
1070
     3
1000
-2000042
1002
}
  0
LINE
  5
358
330
70
100
AcDbEntity
  8
A-COB-___-___-EXI
100
AcDbLine
 10
-29775.40258355507
 20
-8606.483285185616
 30
0.0
 11
-27944.53665737447
 21
-8409.475000979339
 31
0.0
1001
REVIT
1002
{
1070
     1
1000
22582915
1002
}
1002
{
1070
     2
1000
-2000051
1002
}
1002
{
1070
     3
1000
-2000042
1002
}
  0
LWPOLYLINE
  5
3B0
330
70
100
AcDbEntity
  8
A-COB-___-___-EXI
100
AcDbPolyline
 90
        9
 70
     0
 43
0.0
 10
-22139.79054531689
 20
-5287.835049240239
 10
-22139.79054531689
 20
-5206.67301147212
 10
-22111.50627406943
 20
-5178.38874022466
 10
-22093.21528075497
 20
-5170.299267833312
 10
-22078.21528075497
 20
-5170.299267833312
 10
-22057.54638036604
 20
-5170.299267833312
 10
-22039.17990634602
 20
-5177.370335645177
 10
-22020.78150837117
 20
-5195.768733620031
 10
-22020.78150837117
 20
-5275.982399029655
1001
REVIT
1002
{
1070
     1
1000
22583072
1002
}
1002
{
1070
     2
1000
-2000051
1002
}
1002
{
1070
     3
1000
-2000042
1002
}
  0
LWPOLYLINE
  5
3B2
330
70
100
AcDbEntity
  8
A-COB-___-___-EXI
100
AcDbPolyline
 90
        7
 70
     0
 43
0.0
 10
-21622.25894888274
 20
-5440.679065404894
 10
-21596.87413733842
 20
-5383.281821705446
 10
-21596.84581954411
 20
-5363.281841752882
 10
-21610.96791728777
 20
-5349.119696600464
 10
-21650.96787719286
 20
-5349.063061011854
 10
-21961.91476353873
 20
-5211.542030358931
 10
-22020.78150837117
 20
-5195.768733620031
1001
REVIT
1002
{
1070
     1
1000
22583058
1002
}
1002
{
1070
     2
1000
-2000051
1002
}
1002
{
1070
     3
1000
-2000042
1002
}
  0
LWPOLYLINE
  5
3B3
330
70
100
AcDbEntity
  8
A-COB-___-___-EXI
100
AcDbPolyline
 90
        3
 70
     0
 43
0.0
 10
-23940.07491783734
 20
-6134.030410434242
 10
-23940.07491783734
 20
-6142.677805490572
 10
-23815.07491783733
 20
-6142.677805490572
1001
REVIT
1002
{
1070
     1
1000
22583057
1002
}
1002
{
1070
     2
1000
-2000051
1002
}
1002
{
1070
     3
1000
-2000042
1002
}
  0
LWPOLYLINE
  5
3B4
330
70
100
AcDbEntity
  8
A-ALV-___-___-EXI
100
AcDbPolyline
 90
        4
 70
     0
 43
0.0
 10
-24030.07491783735
 20
-10367.67780549057
 10
-24030.07491783734
 20
-6292.677805490572
 10
-24030.07491783734
 20
-6173.834291104056
 10
-23810.58299806381
 20
-6076.760622407899
1001
REVIT
1002
{
1070
     1
1000
22583056
1002
}
1002
{
1070
     2
1000
-2000051
1002
}
1002
{
1070
     3
1000
-2000042
1002
}
  0
LWPOLYLINE
  5
3B6
330
70
100
AcDbEntity
  8
A-COB-___-___-EXI
100
AcDbPolyline
 90
        9
 70
     0
 43
0.0
 10
-30173.70952048496
 20
-8777.95364193534
 10
-30277.53452264163
 20
-8822.650102149081
 10
-30432.44447528405
 20
-8766.292561416795
 10
-30556.70942233566
 20
-8779.229328549773
 10
-30582.92394374712
 20
-8719.956039429987
 10
-30582.95226154143
 20
-8699.956059477427
 10
-30568.83016379777
 20
-8685.793914325007
 10
-30528.83020389266
 20
-8685.737278736395
 10
-30217.8833175468
 20
-8548.216248083477
1001
REVIT
1002
{
1070
     1
1000
22583005
1002
}
1002
{
1070
     2
1000
-2000051
1002
}
1002
{
1070
     3
1000
-2000042
1002
}
  0
LWPOLYLINE
  5
3B7
330
70
100
AcDbEntity
  8
A-POR-___-___-EXI
100
AcDbPolyline
 90
        4
 70
     1
 43
0.0
 10
-20208.45187512072
 20
-8680.13347945696
 10
-20208.45187512072
 20
-10367.67780549059
 10
-20267.09366794639
 20
-10367.67780549059
 10
-20267.09366794639
 20
-8680.13347945696
1001
REVIT
1002
{
1070
     1
1000
22583004
1002
}
1002
{
1070
     2
1000
-2000051
1002
}
1002
{
1070
     3
1000
-2000042
1002
}
  0
LWPOLYLINE
  5
3B8
330
70
100
AcDbEntity
  8
A-ALV-___-___-EXI
100
AcDbPolyline
 90
        4
 70
     1
 43
0.0
 10
-20341.8240091553
 20
-8680.13347945696
 10
-20341.8240091553
 20
-10367.67780549059
 10
-20126.8240091553
 20
-10367.67780549059
 10
-20126.8240091553
 20
-8680.13347945696
1001
REVIT
1002
{
1070
     1
1000
22583000
1002
}
1002
{
1070
     2
1000
-2000051
1002
}
1002
{
1070
     3
1000
-2000042
1002
}
  0
LWPOLYLINE
  5
3BA
330
70
100
AcDbEntity
  8
A-COB-___-___-EXI
100
AcDbPolyline
 90
        4
 70
     1
 43
0.0
 10
-18275.53783728139
 20
-7026.944765574128
 10
-18275.53783728139
 20
-7837.131443114902
 10
-18416.25119378163
 20
-7837.131443114902
 10
-18416.25119378163
 20
-7026.944765574128
1001
REVIT
1002
{
1070
     1
1000
22582905
1002
}
1002
{
1070
     2
1000
-2000051
1002
}
1002
{
1070
     3
1000
-2000042
1002
}
  0
LWPOLYLINE
  5
3BB
330
70
100
AcDbEntity
  8
A-COB-___-___-EXI
100
AcDbPolyline
 90
        3
 70
     0
 43
0.0
 10
-26192.56380367931
 20
-7705.374309452638
 10
-25432.56380367916
 20
-7705.37430945264
 10
-24030.07491783734
 20
-7778.87563742876
1001
REVIT
1002
{
1070
     1
1000
22582893
1002
}
1002
{
1070
     2
1000
-2000051
1002
}
1002
{
1070
     3
1000
-2000042
1002
}
  0
LWPOLYLINE
  5
3BC
330
70
100
AcDbEntity
  8
A-COB-___-___-EXI
100
AcDbPolyline
 90
        3
 70
     0
 43
0.0
 10
-26192.56380367931
 20
-7852.761785770514
 10
-25432.56380367916
 20
-7852.761785770515
 10
-24030.07491783734
 20
-7926.263113746635
1001
REVIT
1002
{
1070
     1
1000
22582890
1002
}
1002
{
1070
     2
1000
-2000051
1002
}
1002
{
1070
     3
1000
-2000042
1002
}
  0
LWPOLYLINE
  5
3BD
330
70
100
AcDbEntity
  8
A-COB-___-___-EXI
100
AcDbPolyline
 90
        3
 70
     0
 43
0.0
 10
-18627.73776862681
 20
-7837.1314431149
 10
-17867.73776862666
 20
-7837.131443114902
 10
-16200.28538820986
 20
-7924.518919432774
1001
REVIT
1002
{
1070
     1
1000
22582887
1002
}
1002
{
1070
     2
1000
-2000051
1002
}
1002
{
1070
     3
1000
-2000042
1002
}
  0
LWPOLYLINE
  5
3BE
330
70
100
AcDbEntity
  8
A-COB-___-___-EXI
100
AcDbPolyline
 90
        3
 70
     0
 43
0.0
 10
-18627.73776862681
 20
-7984.518919432777
 10
-17867.73776862666
 20
-7984.518919432777
 10
-16200.28538820986
 20
-8071.90639575065
1001
REVIT
1002
{
1070
     1
1000
22582884
1002
}
1002
{
1070
     2
1000
-2000051
1002
}
1002
{
1070
     3
1000
-2000042
1002
}
  0
LWPOLYLINE
  5
3BF
330
70
100
AcDbEntity
  8
A-COB-___-___-EXI
100
AcDbPolyline
 90
        3
 70
     0
 43
0.0
 10
-14708.01038005029
 20
-7857.131443114915
 10
-13948.01038005015
 20
-7857.131443114915
 10
-12280.55799963335
 20
-7944.518919432787
1001
REVIT
1002
{
1070
     1
1000
22582881
1002
}
1002
{
1070
     2
1000
-2000051
1002
}
1002
{
1070
     3
1000
-2000042
1002
}
  0
LWPOLYLINE
  5
3C0
330
70
100
AcDbEntity
  8
A-COB-___-___-EXI
100
AcDbPolyline
 90
        3
 70
     0
 43
0.0
 10
-14708.01038005029
 20
-8004.51891943279
 10
-13948.01038005015
 20
-8004.51891943279
 10
-12280.55799963335
 20
-8091.906395750662
1001
REVIT
1002
{
1070
     1
1000
22582878
1002
}
1002
{
1070
     2
1000
-2000051
1002
}
1002
{
1070
     3
1000
-2000042
1002
}
  0
LWPOLYLINE
  5
3C1
330
70
100
AcDbEntity
  8
A-COB-___-___-EXI
100
AcDbPolyline
 90
        3
 70
     0
 43
0.0
 10
-10563.60804328442
 20
-7877.131443114926
 10
-9803.608043284274
 20
-7877.131443114928
 10
-8136.155662867473
 20
-7964.518919432798
1001
REVIT
1002
{
1070
     1
1000
22582875
1002
}
1002
{
1070
     2
1000
-2000051
1002
}
1002
{
1070
     3
1000
-2000042
1002
}
  0
LWPOLYLINE
  5
3C2
330
70
100
AcDbEntity
  8
A-COB-___-___-EXI
100
AcDbPolyline
 90
        3
 70
     0
 43
0.0
 10
-10563.60804328442
 20
-8024.518919432802
 10
-9803.608043284274
 20
-8024.518919432804
 10
-8136.155662867473
 20
-8111.906395750674
1001
REVIT
1002
{
1070
     1
1000
22582872
1002
}
1002
{
1070
     2
1000
-2000051
1002
}
1002
{
1070
     3
1000
-2000042
1002
}
  0
LWPOLYLINE
  5
3C3
330
70
100
AcDbEntity
  8
A-COB-___-___-EXI
100
AcDbPolyline
 90
        7
 70
     0
 43
0.0
 10
-16332.25955279438
 20
-7699.084435620786
 10
-16358.47407420584
 20
-7639.811146501005
 10
-16358.50239200014
 20
-7619.811166548446
 10
-16344.38029425648
 20
-7605.649021396023
 10
-16304.38033435137
 20
-7605.592385807412
 10
-15993.43344800552
 20
-7468.071355154497
 10
-15887.09885337025
 20
-7421.043249421876
1001
REVIT
1002
{
1070
     1
1000
22582642
1002
}
1002
{
1070
     2
1000
-2000051
1002
}
1002
{
1070
     3
1000
-2000042
1002
}
  0
LWPOLYLINE
  5
3C4
330
70
100
AcDbEntity
  8
A-POR-___-___-EXI
100
AcDbPolyline
 90
        4
 70
     1
 43
0.0
 10
-27717.79711879856
 20
-10367.67780549056
 10
-27717.79711879856
 20
-8541.658031429069
 10
-27747.54292233058
 20
-8541.658031429069
 10
-27747.54292233058
 20
-10367.67780549056
1001
REVIT
1002
{
1070
     1
1000
22582443
1002
}
1002
{
1070
     2
1000
-2000051
1002
}
1002
{
1070
     3
1000
-2000042
1002
}
  0
LWPOLYLINE
  5
3C5
330
70
100
AcDbEntity
  8
A-POR-___-___-EXI
100
AcDbPolyline
 90
        4
 70
     1
 43
0.0
 10
-16448.9745203101
 20
-10367.6778054906
 10
-16448.9745203101
 20
-8582.792188401796
 10
-16352.42227030277
 20
-8582.792188401796
 10
-16352.42227030277
 20
-10367.6778054906
1001
REVIT
1002
{
1070
     1
1000
22582427
1002
}
1002
{
1070
     2
1000
-2000051
1002
}
1002
{
1070
     3
1000
-2000042
1002
}
  0
LWPOLYLINE
  5
3C6
330
70
100
AcDbEntity
  8
A-ALV-___-___-EXI
100
AcDbPolyline
 90
        4
 70
     1
 43
0.0
 10
-16204.53665737447
 20
-8707.754312098584
 10
-16204.53665737447
 20
-10367.6778054906
 10
-16603.9745203101
 20
-10367.6778054906
 10
-16603.9745203101
 20
-8707.754312098584
1001
REVIT
1002
{
1070
     1
1000
22582423
1002
}
1002
{
1070
     2
1000
-2000051
1002
}
1002
{
1070
     3
1000
-2000042
1002
}
  0
LWPOLYLINE
  5
3C7
330
70
100
AcDbEntity
  8
A-JAN-___-___-EXI
100
AcDbPolyline
 90
        4
 70
     1
 43
0.0
 10
-25348.3417418848
 20
-9596.557860613803
 10
-25348.3417418848
 20
-8456.557860613804
 10
-26228.3417418848
 20
-8456.557860613804
 10
-26228.3417418848
 20
-9596.557860613803
1001
REVIT
1002
{
1070
     1
1000
22582419
1002
}
1002
{
1070
     2
1000
-2000051
1002
}
1002
{
1070
     3
1000
-2000042
1002
}
  0
LWPOLYLINE
  5
3C8
330
70
100
AcDbEntity
  8
A-JAN-___-___-EXI
100
AcDbPolyline
 90
        4
 70
     1
 43
0.0
 10
-8590.834457975475
 20
-9773.16276690918
 10
-8590.834457975475
 20
-8753.162766909182
 10
-9370.834457975476
 20
-8753.162766909182
 10
-9370.834457975476
 20
-9773.16276690918
1001
REVIT
1002
{
1070
     1
1000
22582415
1002
}
1002
{
1070
     2
1000
-2000051
1002
}
1002
{
1070
     3
1000
-2000042
1002
}
  0
LWPOLYLINE
  5
3C9
330
70
100
AcDbEntity
  8
A-COB-___-___-EXI
100
AcDbPolyline
 90
        4
 70
     1
 43
0.0
 10
-16352.42227030277
 20
-8582.792188401796
 10
-16448.9745203101
 20
-8582.792188401796
 10
-16448.9745203101
 20
-8707.754312098584
 10
-16352.42227030277
 20
-8707.754312098584
1001
REVIT
1002
{
1070
     1
1000
22582918
1002
}
1002
{
1070
     5
1000
383807
1002
}
1002
{
1070
     2
1000
-2000051
1002
}
1002
{
1070
     3
1000
-2000042
1002
}
  0
LWPOLYLINE
  5
3CA
330
70
100
AcDbEntity
  8
A-COB-___-___-EXI
100
AcDbPolyline
 90
        3
 70
     0
 43
0.0
 10
-22142.87636905146
 20
-5382.31738383817
 10
-22074.41638525518
 20
-5450.777367634465
 10
-21985.20261604586
 20
-5399.269773966044
1001
REVIT
1002
{
1070
     1
1000
22582918
1002
}
1002
{
1070
     5
1000
383807
1002
}
1002
{
1070
     2
1000
-2000051
1002
}
1002
{
1070
     3
1000
-2000042
1002
}
  0
LWPOLYLINE
  5
3CB
330
70
100
AcDbEntity
  8
A-COB-___-___-EXI
100
AcDbPolyline
 90
        3
 70
     0
 43
0.0
 10
-24030.07491783734
 20
-6292.677805490572
 10
-23940.07491783734
 20
-6292.677805490572
 10
-23940.07491783734
 20
-6142.677805490572
1001
REVIT
1002
{
1070
     1
1000
22582918
1002
}
1002
{
1070
     5
1000
383807
1002
}
1002
{
1070
     2
1000
-2000051
1002
}
1002
{
1070
     3
1000
-2000042
1002
}
  0
LWPOLYLINE
  5
3CC
330
70
100
AcDbEntity
  8
A-COB-___-___-EXI
100
AcDbPolyline
 90
       10
 70
     0
 43
0.0
 10
-25797.5066947537
 20
-6915.119374630804
 10
-25930.56639529068
 20
-6970.926434634349
 10
-25930.56639529068
 20
-7063.1647848674
 10
-25789.85303879044
 20
-7063.1647848674
 10
-25930.56639529068
 20
-7063.1647848674
 10
-25930.56639529068
 20
-7705.37430945264
 10
-25789.85303879044
 20
-7705.37430945264
 10
-25789.85303879044
 20
-7063.1647848674
 10
-25789.85303879044
 20
-6911.909326540622
 10
-24030.07491783734
 20
-6173.834291104056
1001
REVIT
1002
{
1070
     1
1000
22582918
1002
}
1002
{
1070
     5
1000
383807
1002
}
1002
{
1070
     2
1000
-2000051
1002
}
1002
{
1070
     3
1000
-2000042
1002
}
  0
LWPOLYLINE
  5
3CD
330
70
100
AcDbEntity
  8
A-COB-___-___-EXI
100
AcDbPolyline
 90
        3
 70
     0
 43
0.0
 10
-27702.21727260659
 20
-7861.553311571805
 10
-27702.21727260659
 20
-7713.981066628498
 10
-25930.56639529068
 20
-6970.926434634349
1001
REVIT
1002
{
1070
     1
1000
22582918
1002
}
1002
{
1070
     5
1000
383807
1002
}
1002
{
1070
     2
1000
-2000051
1002
}
1002
{
1070
     3
1000
-2000042
1002
}
  0
LWPOLYLINE
  5
3CF
330
70
100
AcDbEntity
  8
A-COB-___-___-EXI
100
AcDbPolyline
 90
        6
 70
     0
 43
0.0
 10
-12240.6825640357
 20
-5968.285531762683
 10
-16325.57426287206
 20
-7719.200451518824
 10
-16470.32598909628
 20
-7719.200451518824
 10
-21977.32764484872
 20
-5283.644487584686
 10
-22086.70686931286
 20
-5264.357979182689
 10
-22157.51035172301
 20
-5295.67190545892
1001
REVIT
1002
{
1070
     1
1000
22582918
1002
}
1002
{
1070
     5
1000
383807
1002
}
1002
{
1070
     2
1000
-2000051
1002
}
1002
{
1070
     3
1000
-2000042
1002
}
  0
LWPOLYLINE
  5
3D0
330
70
100
AcDbEntity
  8
A-ALV-___-___-EXI
100
AcDbPolyline
 90
       60
 70
     0
 43
0.0
 10
-23815.07491783734
 20
-10367.67780549057
 10
-23815.07491783733
 20
-6142.677805490572
 10
-23815.07491783733
 20
-6083.660347736173
 10
-22142.87636905146
 20
-5382.31738383817
 10
-22063.84347060713
 20
-5268.389413245206
 10
-21985.20261604586
 20
-5399.269773966046
 10
-20341.8240091553
 20
-6126.079173566128
 10
-20341.8240091553
 20
-6220.850472341053
 10
-20231.82400915529
 20
-6220.850472341053
 10
-20231.82400915529
 20
-6330.850472341054
 10
-20126.82400915529
 20
-6330.850472341054
 10
-20126.82400915529
 20
-6221.166221832922
 10
-18416.25119378163
 20
-6977.693290945939
 10
-18416.25119378163
 20
-7145.002955125439
 10
-18275.53783728139
 20
-7145.002955125439
 10
-18275.53783728139
 20
-7039.925931510222
 10
-16603.9745203101
 20
-7779.200451518824
 10
-16603.9745203101
 20
-7902.255980709364
 10
-16472.09662057877
 20
-7902.255980709364
 10
-16472.09662057877
 20
-8022.255980709365
 10
-16347.09662057878
 20
-8022.255980709365
 10
-16347.09662057878
 20
-7902.255980709364
 10
-16207.09662057878
 20
-7902.255980709364
 10
-16207.09662057878
 20
-7759.47121591376
 10
-14304.95915191835
 20
-6958.281672135715
 10
-14304.95915191835
 20
-7046.944765574142
 10
-14304.95915191835
 20
-7857.131443114915
 10
-14164.24579541811
 20
-7857.131443114915
 10
-14164.24579541811
 20
-7046.944765574142
 10
-14304.95915191835
 20
-7046.944765574142
 10
-14164.24579541811
 20
-7046.944765574142
 10
-14164.24579541811
 20
-6899.012522689169
 10
-12264.57134502056
 20
-6098.860414170598
 10
-12264.57134502056
 20
-6025.206939139366
 10
-12215.61504969764
 20
-6025.206939139366
 10
-12215.61504969764
 20
-6092.485247582928
 10
-12116.92512791069
 20
-6092.485247582928
 10
-12116.92512791069
 20
-6025.206939139366
 10
-12062.6942838129
 20
-6025.206939139366
 10
-12062.6942838129
 20
-6061.581636214281
 10
-10163.7529296584
 20
-6901.417581322647
 10
-10163.7529296584
 20
-7066.944765574155
 10
-10023.03957315816
 20
-7066.944765574155
 10
-10163.7529296584
 20
-7066.944765574155
 10
-10163.7529296584
 20
-7877.131443114928
 10
-10023.03957315816
 20
-7877.131443114928
 10
-10023.03957315816
 20
-7066.944765574155
 10
-10023.03957315816
 20
-6963.650221886929
 10
-8136.155662867473
 20
-7798.153577475979
 10
-8136.155662867473
 20
-7940.478000693211
 10
-7950.013056546959
 20
-7940.478000693213
 10
-7950.013056546959
 20
-7880.478000693213
 10
-7641.646948743366
 20
-8016.857642444671
 10
-7641.646948743366
 20
-7886.857642444671
 10
-12060.25127758095
 20
-5932.662093197979
 10
-12116.92512791069
 20
-5957.726972927138
 10
-12116.92512791069
 20
-5937.726972927137
 10
-12215.61504969764
 20
-5937.726972927137
 10
-12215.61504969764
 20
-5957.726972927138
 10
-12240.68256402035
 20
-5968.285531756224
1001
REVIT
1002
{
1070
     1
1000
22582918
1002
}
1002
{
1070
     5
1000
383807
1002
}
1002
{
1070
     2
1000
-2000051
1002
}
1002
{
1070
     3
1000
-2000042
1002
}
  0
LWPOLYLINE
  5
3D1
330
70
100
AcDbEntity
  8
A-COB-___-___-EXI
100
AcDbPolyline
 90
       10
 70
     1
 43
0.0
 10
-15524.58459533009
 20
-7271.865368554324
 10
-15835.53148167595
 20
-7409.38639920724
 10
-15875.53144158107
 20
-7409.443034795849
 10
-15889.65353932473
 20
-7423.605179948268
 10
-15889.62522153042
 20
-7443.60515990083
 10
-15863.41070011896
 20
-7502.878449020613
 10
-15889.62522153042
 20
-7443.60515990083
 10
-15889.65353932473
 20
-7423.605179948268
 10
-15875.53144158107
 20
-7409.443034795849
 10
-15835.53148167595
 20
-7409.38639920724
1001
REVIT
1002
{
1070
     1
1000
22582634
1002
}
1002
{
1070
     2
1000
-2000051
1002
}
1002
{
1070
     3
1000
-2000042
1002
}
  0
LWPOLYLINE
  5
3D2
330
70
100
AcDbEntity
  8
A-COB-___-___-EXI
100
AcDbPolyline
 90
       10
 70
     1
 43
0.0
 10
-15155.7357426547
 20
-7115.659381954166
 10
-15466.68262900056
 20
-7253.180412607081
 10
-15506.68258890568
 20
-7253.23704819569
 10
-15520.80468664933
 20
-7267.399193348109
 10
-15520.77636885503
 20
-7287.39917330067
 10
-15494.56184744357
 20
-7346.672462420454
 10
-15520.77636885503
 20
-7287.39917330067
 10
-15520.80468664933
 20
-7267.399193348109
 10
-15506.68258890568
 20
-7253.23704819569
 10
-15466.68262900056
 20
-7253.180412607081
1001
REVIT
1002
{
1070
     1
1000
22582628
1002
}
1002
{
1070
     2
1000
-2000051
1002
}
1002
{
1070
     3
1000
-2000042
1002
}
  0
LWPOLYLINE
  5
3D3
330
70
100
AcDbEntity
  8
A-COB-___-___-EXI
100
AcDbPolyline
 90
       10
 70
     1
 43
0.0
 10
-14786.8868899793
 20
-6959.45339535401
 10
-15097.83377632515
 20
-7096.974426006926
 10
-15137.83373623026
 20
-7097.031061595536
 10
-15151.95583397392
 20
-7111.193206747959
 10
-15151.92751617962
 20
-7131.193186700516
 10
-15125.71299476816
 20
-7190.4664758203
 10
-15151.92751617962
 20
-7131.193186700516
 10
-15151.95583397392
 20
-7111.193206747959
 10
-15137.83373623026
 20
-7097.031061595536
 10
-15097.83377632515
 20
-7096.974426006926
1001
REVIT
1002
{
1070
     1
1000
22582622
1002
}
1002
{
1070
     2
1000
-2000051
1002
}
1002
{
1070
     3
1000
-2000042
1002
}
  0
LWPOLYLINE
  5
3D4
330
70
100
AcDbEntity
  8
A-COB-___-___-EXI
100
AcDbPolyline
 90
       10
 70
     1
 43
0.0
 10
-14418.03803730389
 20
-6803.247408753844
 10
-14728.98492364974
 20
-6940.768439406759
 10
-14768.98488355486
 20
-6940.82507499537
 10
-14783.10698129852
 20
-6954.987220147792
 10
-14783.07866350421
 20
-6974.98720010035
 10
-14756.86414209275
 20
-7034.260489220134
 10
-14783.07866350421
 20
-6974.98720010035
 10
-14783.10698129852
 20
-6954.987220147792
 10
-14768.98488355486
 20
-6940.82507499537
 10
-14728.98492364974
 20
-6940.768439406759
1001
REVIT
1002
{
1070
     1
1000
22582616
1002
}
1002
{
1070
     2
1000
-2000051
1002
}
1002
{
1070
     3
1000
-2000042
1002
}
  0
LWPOLYLINE
  5
3D5
330
70
100
AcDbEntity
  8
A-COB-___-___-EXI
100
AcDbPolyline
 90
       10
 70
     1
 43
0.0
 10
-14049.1891846285
 20
-6647.041422153683
 10
-14360.13607097436
 20
-6784.562452806598
 10
-14400.13603087947
 20
-6784.619088395209
 10
-14414.25812862313
 20
-6798.781233547628
 10
-14414.22981082882
 20
-6818.781213500189
 10
-14388.01528941736
 20
-6878.054502619973
 10
-14414.22981082882
 20
-6818.781213500189
 10
-14414.25812862313
 20
-6798.781233547628
 10
-14400.13603087947
 20
-6784.619088395209
 10
-14360.13607097436
 20
-6784.562452806598
1001
REVIT
1002
{
1070
     1
1000
22582610
1002
}
1002
{
1070
     2
1000
-2000051
1002
}
1002
{
1070
     3
1000
-2000042
1002
}
  0
LWPOLYLINE
  5
3D6
330
70
100
AcDbEntity
  8
A-COB-___-___-EXI
100
AcDbPolyline
 90
       10
 70
     1
 43
0.0
 10
-13680.3403319531
 20
-6490.83543555352
 10
-13991.28721829895
 20
-6628.356466206435
 10
-14031.28717820407
 20
-6628.413101795044
 10
-14045.40927594772
 20
-6642.575246947465
 10
-14045.38095815342
 20
-6662.575226900024
 10
-14019.16643674196
 20
-6721.848516019808
 10
-14045.38095815342
 20
-6662.575226900024
 10
-14045.40927594772
 20
-6642.575246947465
 10
-14031.28717820407
 20
-6628.413101795044
 10
-13991.28721829895
 20
-6628.356466206435
1001
REVIT
1002
{
1070
     1
1000
22582604
1002
}
1002
{
1070
     2
1000
-2000051
1002
}
1002
{
1070
     3
1000
-2000042
1002
}
  0
LWPOLYLINE
  5
3D7
330
70
100
AcDbEntity
  8
A-COB-___-___-EXI
100
AcDbPolyline
 90
       10
 70
     1
 43
0.0
 10
-13311.49147927767
 20
-6334.629448953361
 10
-13622.43836562352
 20
-6472.150479606276
 10
-13662.43832552865
 20
-6472.207115194885
 10
-13676.56042327231
 20
-6486.369260347304
 10
-13676.532105478
 20
-6506.369240299867
 10
-13650.31758406654
 20
-6565.642529419651
 10
-13676.532105478
 20
-6506.369240299867
 10
-13676.56042327231
 20
-6486.369260347304
 10
-13662.43832552865
 20
-6472.207115194885
 10
-13622.43836562352
 20
-6472.150479606276
1001
REVIT
1002
{
1070
     1
1000
22582598
1002
}
1002
{
1070
     2
1000
-2000051
1002
}
1002
{
1070
     3
1000
-2000042
1002
}
  0
LWPOLYLINE
  5
3D8
330
70
100
AcDbEntity
  8
A-COB-___-___-EXI
100
AcDbPolyline
 90
       10
 70
     1
 43
0.0
 10
-12942.64262660228
 20
-6178.423462353196
 10
-13253.58951294814
 20
-6315.944493006111
 10
-13293.58947285325
 20
-6316.001128594721
 10
-13307.71157059691
 20
-6330.16327374714
 10
-13307.6832528026
 20
-6350.163253699701
 10
-13281.46873139114
 20
-6409.436542819484
 10
-13307.6832528026
 20
-6350.163253699701
 10
-13307.71157059691
 20
-6330.16327374714
 10
-13293.58947285325
 20
-6316.001128594721
 10
-13253.58951294814
 20
-6315.944493006111
1001
REVIT
1002
{
1070
     1
1000
22582592
1002
}
1002
{
1070
     2
1000
-2000051
1002
}
1002
{
1070
     3
1000
-2000042
1002
}
  0
LWPOLYLINE
  5
3D9
330
70
100
AcDbEntity
  8
A-COB-___-___-EXI
100
AcDbPolyline
 90
       10
 70
     1
 43
0.0
 10
-12573.79377392689
 20
-6022.217475753037
 10
-12884.74066027275
 20
-6159.738506405953
 10
-12924.74062017786
 20
-6159.795141994564
 10
-12938.86271792151
 20
-6173.957287146981
 10
-12938.83440012721
 20
-6193.957267099544
 10
-12912.61987871575
 20
-6253.230556219328
 10
-12938.83440012721
 20
-6193.957267099544
 10
-12938.86271792151
 20
-6173.957287146981
 10
-12924.74062017786
 20
-6159.795141994564
 10
-12884.74066027275
 20
-6159.738506405953
1001
REVIT
1002
{
1070
     1
1000
22582586
1002
}
1002
{
1070
     2
1000
-2000051
1002
}
1002
{
1070
     3
1000
-2000042
1002
}
  0
LWPOLYLINE
  5
3DA
330
70
100
AcDbEntity
  8
A-COB-___-___-EXI
100
AcDbPolyline
 90
        6
 70
     0
 43
0.0
 10
-29849.03446487141
 20
-8395.592512565553
 10
-30159.98135121728
 20
-8533.113543218476
 10
-30199.98131112237
 20
-8533.170178807086
 10
-30214.10340886603
 20
-8547.332323959505
 10
-30214.07509107172
 20
-8567.332303912065
 10
-30187.86056966026
 20
-8626.605593031852
1001
REVIT
1002
{
1070
     1
1000
22582862
1002
}
1002
{
1070
     2
1000
-2000051
1002
}
1002
{
1070
     3
1000
-2000042
1002
}
  0
LWPOLYLINE
  5
3DB
330
70
100
AcDbEntity
  8
A-COB-___-___-EXI
100
AcDbPolyline
 90
        6
 70
     0
 43
0.0
 10
-29480.18561219602
 20
-8242.968777047645
 10
-29791.13249854187
 20
-8380.489807700563
 10
-29831.13245844699
 20
-8380.546443289174
 10
-29845.25455619064
 20
-8394.708588441593
 10
-29845.22623839634
 20
-8414.708568394155
 10
-29819.01171698488
 20
-8473.981857513939
1001
REVIT
1002
{
1070
     1
1000
22582856
1002
}
1002
{
1070
     2
1000
-2000051
1002
}
1002
{
1070
     3
1000
-2000042
1002
}
  0
LWPOLYLINE
  5
3DC
330
70
100
AcDbEntity
  8
A-COB-___-___-EXI
100
AcDbPolyline
 90
        6
 70
     0
 43
0.0
 10
-29111.33675952068
 20
-8090.345041529735
 10
-29422.28364586652
 20
-8227.866072182651
 10
-29462.28360577164
 20
-8227.922707771261
 10
-29476.4057035153
 20
-8242.084852923685
 10
-29476.377385721
 20
-8262.08483287624
 10
-29450.16286430954
 20
-8321.358121996025
1001
REVIT
1002
{
1070
     1
1000
22582850
1002
}
1002
{
1070
     2
1000
-2000051
1002
}
1002
{
1070
     3
1000
-2000042
1002
}
  0
LWPOLYLINE
  5
3DD
330
70
100
AcDbEntity
  8
A-COB-___-___-EXI
100
AcDbPolyline
 90
        6
 70
     0
 43
0.0
 10
-28742.48790684519
 20
-7937.721306011834
 10
-29053.43479319104
 20
-8075.242336664748
 10
-29093.43475309617
 20
-8075.298972253358
 10
-29107.55685083982
 20
-8089.461117405777
 10
-29107.52853304552
 20
-8109.461097358339
 10
-29081.31401163407
 20
-8168.734386478124
1001
REVIT
1002
{
1070
     1
1000
22582844
1002
}
1002
{
1070
     2
1000
-2000051
1002
}
1002
{
1070
     3
1000
-2000042
1002
}
  0
LWPOLYLINE
  5
3DE
330
70
100
AcDbEntity
  8
A-COB-___-___-EXI
100
AcDbPolyline
 90
        6
 70
     0
 43
0.0
 10
-28373.6390541698
 20
-7785.097570493906
 10
-28684.58594051565
 20
-7922.618601146822
 10
-28724.58590042077
 20
-7922.675236735431
 10
-28738.70799816443
 20
-7936.837381887851
 10
-28738.67968037012
 20
-7956.837361840412
 10
-28712.46515895866
 20
-8016.110650960197
1001
REVIT
1002
{
1070
     1
1000
22582838
1002
}
1002
{
1070
     2
1000
-2000051
1002
}
1002
{
1070
     3
1000
-2000042
1002
}
  0
LWPOLYLINE
  5
3DF
330
70
100
AcDbEntity
  8
A-COB-___-___-EXI
100
AcDbPolyline
 90
        6
 70
     0
 43
0.0
 10
-28004.79020149446
 20
-7632.473834976003
 10
-28315.73708784032
 20
-7769.994865628916
 10
-28355.73704774543
 20
-7770.051501217527
 10
-28369.85914548908
 20
-7784.213646369946
 10
-28369.83082769478
 20
-7804.213626322507
 10
-28343.61630628332
 20
-7863.486915442291
1001
REVIT
1002
{
1070
     1
1000
22582832
1002
}
1002
{
1070
     2
1000
-2000051
1002
}
1002
{
1070
     3
1000
-2000042
1002
}
  0
LWPOLYLINE
  5
3E0
330
70
100
AcDbEntity
  8
A-COB-___-___-EXI
100
AcDbPolyline
 90
        6
 70
     0
 43
0.0
 10
-27635.94134881899
 20
-7479.850099458096
 10
-27946.88823516484
 20
-7617.37113011101
 10
-27986.88819506995
 20
-7617.427765699621
 10
-28001.01029281361
 20
-7631.589910852039
 10
-28000.98197501931
 20
-7651.589890804601
 10
-27974.76745360785
 20
-7710.863179924385
1001
REVIT
1002
{
1070
     1
1000
22582826
1002
}
1002
{
1070
     2
1000
-2000051
1002
}
1002
{
1070
     3
1000
-2000042
1002
}
  0
LWPOLYLINE
  5
3E1
330
70
100
AcDbEntity
  8
A-COB-___-___-EXI
100
AcDbPolyline
 90
        6
 70
     0
 43
0.0
 10
-27267.09249614361
 20
-7327.226363940191
 10
-27578.03938248946
 20
-7464.747394593105
 10
-27618.03934239458
 20
-7464.804030181716
 10
-27632.16144013824
 20
-7478.966175334135
 10
-27632.13312234394
 20
-7498.966155286696
 10
-27605.91860093248
 20
-7558.23944440648
1001
REVIT
1002
{
1070
     1
1000
22582820
1002
}
1002
{
1070
     2
1000
-2000051
1002
}
1002
{
1070
     3
1000
-2000042
1002
}
  0
LWPOLYLINE
  5
3E2
330
70
100
AcDbEntity
  8
A-COB-___-___-EXI
100
AcDbPolyline
 90
        6
 70
     0
 43
0.0
 10
-26898.24364346821
 20
-7174.602628422265
 10
-27209.19052981407
 20
-7312.123659075179
 10
-27249.19048971918
 20
-7312.180294663789
 10
-27263.31258746284
 20
-7326.342439816208
 10
-27263.28426966853
 20
-7346.34241976877
 10
-27237.06974825707
 20
-7405.615708888554
1001
REVIT
1002
{
1070
     1
1000
22582814
1002
}
1002
{
1070
     2
1000
-2000051
1002
}
1002
{
1070
     3
1000
-2000042
1002
}
  0
LWPOLYLINE
  5
3E3
330
70
100
AcDbEntity
  8
A-COB-___-___-EXI
100
AcDbPolyline
 90
        6
 70
     0
 43
0.0
 10
-26529.39479079277
 20
-7021.978892904353
 10
-26840.34167713865
 20
-7159.499923557274
 10
-26880.34163704374
 20
-7159.556559145885
 10
-26894.46373478741
 20
-7173.718704298308
 10
-26894.4354169931
 20
-7193.718684250865
 10
-26868.22089558164
 20
-7252.991973370647
1001
REVIT
1002
{
1070
     1
1000
22582808
1002
}
1002
{
1070
     2
1000
-2000051
1002
}
1002
{
1070
     3
1000
-2000042
1002
}
  0
LWPOLYLINE
  5
3E4
330
70
100
AcDbEntity
  8
A-COB-___-___-EXI
100
AcDbPolyline
 90
        6
 70
     0
 43
0.0
 10
-26160.54593811742
 20
-6869.35515738645
 10
-26471.49282446328
 20
-7006.876188039367
 10
-26511.49278436839
 20
-7006.932823627977
 10
-26525.61488211205
 20
-7021.094968780396
 10
-26525.58656431774
 20
-7041.094948732961
 10
-26499.37204290628
 20
-7100.368237852745
1001
REVIT
1002
{
1070
     1
1000
22582802
1002
}
1002
{
1070
     2
1000
-2000051
1002
}
1002
{
1070
     3
1000
-2000042
1002
}
  0
LWPOLYLINE
  5
3E5
330
70
100
AcDbEntity
  8
A-COB-___-___-EXI
100
AcDbPolyline
 90
        6
 70
     0
 43
0.0
 10
-25791.69708544203
 20
-6716.731421868542
 10
-26102.64397178788
 20
-6854.252452521456
 10
-26142.643931693
 20
-6854.309088110067
 10
-26156.76602943665
 20
-6868.471233262489
 10
-26156.73771164235
 20
-6888.471213215047
 10
-26130.52319023089
 20
-6947.744502334831
1001
REVIT
1002
{
1070
     1
1000
22582796
1002
}
1002
{
1070
     2
1000
-2000051
1002
}
1002
{
1070
     3
1000
-2000042
1002
}
  0
LWPOLYLINE
  5
3E6
330
70
100
AcDbEntity
  8
A-COB-___-___-EXI
100
AcDbPolyline
 90
        6
 70
     0
 43
0.0
 10
-25422.84823276666
 20
-6564.10768635061
 10
-25733.79511911252
 20
-6701.628717003526
 10
-25773.79507901764
 20
-6701.685352592136
 10
-25787.9171767613
 20
-6715.847497744555
 10
-25787.88885896699
 20
-6735.847477697117
 10
-25761.67433755554
 20
-6795.1207668169
1001
REVIT
1002
{
1070
     1
1000
22582790
1002
}
1002
{
1070
     2
1000
-2000051
1002
}
1002
{
1070
     3
1000
-2000042
1002
}
  0
LWPOLYLINE
  5
3E7
330
70
100
AcDbEntity
  8
A-COB-___-___-EXI
100
AcDbPolyline
 90
        6
 70
     0
 43
0.0
 10
-25053.99938009121
 20
-6411.48395083271
 10
-25364.94626643706
 20
-6549.004981485627
 10
-25404.94622634217
 20
-6549.061617074236
 10
-25419.06832408583
 20
-6563.223762226655
 10
-25419.04000629152
 20
-6583.223742179217
 10
-25392.82548488007
 20
-6642.497031299001
1001
REVIT
1002
{
1070
     1
1000
22582784
1002
}
1002
{
1070
     2
1000
-2000051
1002
}
1002
{
1070
     3
1000
-2000042
1002
}
  0
LWPOLYLINE
  5
3E8
330
70
100
AcDbEntity
  8
A-COB-___-___-EXI
100
AcDbPolyline
 90
        6
 70
     0
 43
0.0
 10
-24685.15052741584
 20
-6258.860215314813
 10
-24996.09741376168
 20
-6396.381245967728
 10
-25036.0973736668
 20
-6396.437881556338
 10
-25050.21947141046
 20
-6410.600026708762
 10
-25050.19115361616
 20
-6430.600006661319
 10
-25023.9766322047
 20
-6489.873295781102
1001
REVIT
1002
{
1070
     1
1000
22582778
1002
}
1002
{
1070
     2
1000
-2000051
1002
}
1002
{
1070
     3
1000
-2000042
1002
}
  0
LWPOLYLINE
  5
3E9
330
70
100
AcDbEntity
  8
A-COB-___-___-EXI
100
AcDbPolyline
 90
        6
 70
     0
 43
0.0
 10
-24316.30167474037
 20
-6106.236479796876
 10
-24627.24856108626
 20
-6243.757510449803
 10
-24667.24852099144
 20
-6243.814146038412
 10
-24681.3706187351
 20
-6257.976291190836
 10
-24681.34230094079
 20
-6277.976271143393
 10
-24655.12777952933
 20
-6337.249560263177
1001
REVIT
1002
{
1070
     1
1000
22582772
1002
}
1002
{
1070
     2
1000
-2000051
1002
}
1002
{
1070
     3
1000
-2000042
1002
}
  0
LWPOLYLINE
  5
3EA
330
70
100
AcDbEntity
  8
A-COB-___-___-EXI
100
AcDbPolyline
 90
        6
 70
     0
 43
0.0
 10
-23947.4528220649
 20
-5953.612744278959
 10
-24258.39970841077
 20
-6091.133774931881
 10
-24298.39966831587
 20
-6091.190410520491
 10
-24312.52176605953
 20
-6105.35255567291
 10
-24312.49344826522
 20
-6125.352535625477
 10
-24286.27892685376
 20
-6184.625824745261
1001
REVIT
1002
{
1070
     1
1000
22582766
1002
}
1002
{
1070
     2
1000
-2000051
1002
}
1002
{
1070
     3
1000
-2000042
1002
}
  0
LWPOLYLINE
  5
3EB
330
70
100
AcDbEntity
  8
A-COB-___-___-EXI
100
AcDbPolyline
 90
        6
 70
     0
 43
0.0
 10
-23578.60396938952
 20
-5800.989008761052
 10
-23889.55085573538
 20
-5938.510039413966
 10
-23929.55081564049
 20
-5938.566675002576
 10
-23943.67291338415
 20
-5952.728820154999
 10
-23943.64459558985
 20
-5972.728800107559
 10
-23917.43007417839
 20
-6032.002089227344
1001
REVIT
1002
{
1070
     1
1000
22582760
1002
}
1002
{
1070
     2
1000
-2000051
1002
}
1002
{
1070
     3
1000
-2000042
1002
}
  0
LWPOLYLINE
  5
3EC
330
70
100
AcDbEntity
  8
A-COB-___-___-EXI
100
AcDbPolyline
 90
        6
 70
     0
 43
0.0
 10
-23209.75511671416
 20
-5648.365273243152
 10
-23520.70200306001
 20
-5785.886303896067
 10
-23560.70196296514
 20
-5785.942939484677
 10
-23574.82406070879
 20
-5800.105084637095
 10
-23574.79574291449
 20
-5820.105064589657
 10
-23548.68280016877
 20
-5879.1486756036
1001
REVIT
1002
{
1070
     1
1000
22582754
1002
}
1002
{
1070
     2
1000
-2000051
1002
}
1002
{
1070
     3
1000
-2000042
1002
}
  0
LWPOLYLINE
  5
3ED
330
70
100
AcDbEntity
  8
A-COB-___-___-EXI
100
AcDbPolyline
 90
        6
 70
     0
 43
0.0
 10
-22840.9062640387
 20
-5495.74153772522
 10
-23151.85315038455
 20
-5633.262568378134
 10
-23191.85311028967
 20
-5633.319203966745
 10
-23205.97520803333
 20
-5647.481349119164
 10
-23205.94689023902
 20
-5667.481329071724
 10
-23180.60862499889
 20
-5724.773327571284
1001
REVIT
1002
{
1070
     1
1000
22582748
1002
}
1002
{
1070
     2
1000
-2000051
1002
}
1002
{
1070
     3
1000
-2000042
1002
}
  0
LWPOLYLINE
  5
3EE
330
70
100
AcDbEntity
  8
A-COB-___-___-EXI
100
AcDbPolyline
 90
        6
 70
     0
 43
0.0
 10
-22472.05741136332
 20
-5343.117802207323
 10
-22783.00429770917
 20
-5480.638832860238
 10
-22823.00425761429
 20
-5480.695468448848
 10
-22837.12635535795
 20
-5494.857613601267
 10
-22837.09803756365
 20
-5514.857593553828
 10
-22812.5344498291
 20
-5570.397979538999
1001
REVIT
1002
{
1070
     1
1000
22582742
1002
}
1002
{
1070
     2
1000
-2000051
1002
}
1002
{
1070
     3
1000
-2000042
1002
}
  0
LWPOLYLINE
  5
3EF
330
70
100
AcDbEntity
  8
A-COB-___-___-EXI
100
AcDbPolyline
 90
        6
 70
     0
 43
0.0
 10
-22139.79054531689
 20
-5206.67301147212
 10
-22414.1554450338
 20
-5328.01509734233
 10
-22454.15540493891
 20
-5328.07173293094
 10
-22468.27750268257
 20
-5342.233878083363
 10
-22468.24918488827
 20
-5362.233858035921
 10
-22444.46027465929
 20
-5416.022631506717
1001
REVIT
1002
{
1070
     1
1000
22582737
1002
}
1002
{
1070
     2
1000
-2000051
1002
}
1002
{
1070
     3
1000
-2000042
1002
}
  0
LWPOLYLINE
  5
3F0
330
70
100
AcDbEntity
  8
A-COB-___-___-EXI
100
AcDbPolyline
 90
        6
 70
     0
 43
0.0
 10
-16798.03082608312
 20
-7463.041227376603
 10
-16487.08393973726
 20
-7600.562258029518
 10
-16447.08397983214
 20
-7600.618893618127
 10
-16432.96188208848
 20
-7614.781038770546
 10
-16432.99019988279
 20
-7634.781018723107
 10
-16459.20472129425
 20
-7694.054307842892
1001
REVIT
1002
{
1070
     1
1000
22582731
1002
}
1002
{
1070
     2
1000
-2000051
1002
}
1002
{
1070
     3
1000
-2000042
1002
}
  0
LWPOLYLINE
  5
3F1
330
70
100
AcDbEntity
  8
A-COB-___-___-EXI
100
AcDbPolyline
 90
        6
 70
     0
 43
0.0
 10
-17166.87967875851
 20
-7302.219856161052
 10
-16855.93279241266
 20
-7439.740886813966
 10
-16815.93283250752
 20
-7439.797522402577
 10
-16801.81073476387
 20
-7453.959667554999
 10
-16801.83905255817
 20
-7473.959647507557
 10
-16828.05357396963
 20
-7533.232936627341
1001
REVIT
1002
{
1070
     1
1000
22582725
1002
}
1002
{
1070
     2
1000
-2000051
1002
}
1002
{
1070
     3
1000
-2000042
1002
}
  0
LWPOLYLINE
  5
3F2
330
70
100
AcDbEntity
  8
A-COB-___-___-EXI
100
AcDbPolyline
 90
        6
 70
     0
 43
0.0
 10
-17535.7285314339
 20
-7141.398484945487
 10
-17224.781645088
 20
-7278.919515598426
 10
-17184.78168518294
 20
-7278.976151187035
 10
-17170.65958743928
 20
-7293.138296339454
 10
-17170.68790523359
 20
-7313.138276292015
 10
-17196.90242664505
 20
-7372.411565411799
1001
REVIT
1002
{
1070
     1
1000
22582719
1002
}
1002
{
1070
     2
1000
-2000051
1002
}
1002
{
1070
     3
1000
-2000042
1002
}
  0
LWPOLYLINE
  5
3F3
330
70
100
AcDbEntity
  8
A-COB-___-___-EXI
100
AcDbPolyline
 90
        6
 70
     0
 43
0.0
 10
-17904.57738410929
 20
-6980.577113729946
 10
-17593.63049776343
 20
-7118.098144382862
 10
-17553.63053785833
 20
-7118.154779971473
 10
-17539.50844011467
 20
-7132.316925123894
 10
-17539.53675790897
 20
-7152.316905076467
 10
-17565.75127932044
 20
-7211.590194196252
1001
REVIT
1002
{
1070
     1
1000
22582713
1002
}
1002
{
1070
     2
1000
-2000051
1002
}
1002
{
1070
     3
1000
-2000042
1002
}
  0
LWPOLYLINE
  5
3F4
330
70
100
AcDbEntity
  8
A-COB-___-___-EXI
100
AcDbPolyline
 90
        6
 70
     0
 43
0.0
 10
-18273.42623678471
 20
-6819.755742514387
 10
-17962.47935043885
 20
-6957.276773167302
 10
-17922.47939053374
 20
-6957.333408755911
 10
-17908.35729279008
 20
-6971.495553908332
 10
-17908.38561058439
 20
-6991.495533860891
 10
-17934.60013199585
 20
-7050.768822980676
1001
REVIT
1002
{
1070
     1
1000
22582707
1002
}
1002
{
1070
     2
1000
-2000051
1002
}
1002
{
1070
     3
1000
-2000042
1002
}
  0
LWPOLYLINE
  5
3F5
330
70
100
AcDbEntity
  8
A-COB-___-___-EXI
100
AcDbPolyline
 90
        6
 70
     0
 43
0.0
 10
-18642.27508946012
 20
-6658.934371298837
 10
-18331.32820311426
 20
-6796.455401951752
 10
-18291.32824320914
 20
-6796.512037540363
 10
-18277.20614546548
 20
-6810.674182692782
 10
-18277.23446325979
 20
-6830.674162645343
 10
-18303.44898467125
 20
-6889.947451765126
1001
REVIT
1002
{
1070
     1
1000
22582701
1002
}
1002
{
1070
     2
1000
-2000051
1002
}
1002
{
1070
     3
1000
-2000042
1002
}
  0
LWPOLYLINE
  5
3F6
330
70
100
AcDbEntity
  8
A-COB-___-___-EXI
100
AcDbPolyline
 90
        6
 70
     0
 43
0.0
 10
-19011.1239421355
 20
-6498.113000083296
 10
-18700.17705578965
 20
-6635.634030736213
 10
-18660.17709588454
 20
-6635.690666324823
 10
-18646.05499814088
 20
-6649.852811477241
 10
-18646.08331593519
 20
-6669.852791429803
 10
-18672.29783734665
 20
-6729.126080549587
1001
REVIT
1002
{
1070
     1
1000
22582695
1002
}
1002
{
1070
     2
1000
-2000051
1002
}
1002
{
1070
     3
1000
-2000042
1002
}
  0
LWPOLYLINE
  5
3F7
330
70
100
AcDbEntity
  8
A-COB-___-___-EXI
100
AcDbPolyline
 90
        6
 70
     0
 43
0.0
 10
-19379.9727948109
 20
-6337.291628867765
 10
-19069.02590846505
 20
-6474.812659520679
 10
-19029.02594855993
 20
-6474.86929510929
 10
-19014.90385081627
 20
-6489.031440261709
 10
-19014.93216861058
 20
-6509.03142021427
 10
-19041.14669002204
 20
-6568.304709334054
1001
REVIT
1002
{
1070
     1
1000
22582689
1002
}
1002
{
1070
     2
1000
-2000051
1002
}
1002
{
1070
     3
1000
-2000042
1002
}
  0
LWPOLYLINE
  5
3F8
330
70
100
AcDbEntity
  8
A-COB-___-___-EXI
100
AcDbPolyline
 90
        6
 70
     0
 43
0.0
 10
-19748.82164748634
 20
-6176.470257652208
 10
-19437.87476114049
 20
-6313.991288305123
 10
-19397.87480123531
 20
-6314.047923893732
 10
-19383.75270349166
 20
-6328.210069046152
 10
-19383.78102128596
 20
-6348.210048998713
 10
-19409.99554269742
 20
-6407.483338118497
1001
REVIT
1002
{
1070
     1
1000
22582683
1002
}
1002
{
1070
     2
1000
-2000051
1002
}
1002
{
1070
     3
1000
-2000042
1002
}
  0
LWPOLYLINE
  5
3F9
330
70
100
AcDbEntity
  8
A-COB-___-___-EXI
100
AcDbPolyline
 90
        6
 70
     0
 43
0.0
 10
-20117.67050016178
 20
-6015.64888643666
 10
-19806.72361381591
 20
-6153.16991708958
 10
-19766.72365391081
 20
-6153.226552678191
 10
-19752.60155616716
 20
-6167.38869783061
 10
-19752.62987396146
 20
-6187.388677783173
 10
-19778.84439537292
 20
-6246.661966902957
1001
REVIT
1002
{
1070
     1
1000
22582677
1002
}
1002
{
1070
     2
1000
-2000051
1002
}
1002
{
1070
     3
1000
-2000042
1002
}
  0
LWPOLYLINE
  5
3FA
330
70
100
AcDbEntity
  8
A-COB-___-___-EXI
100
AcDbPolyline
 90
        6
 70
     0
 43
0.0
 10
-20486.51935283712
 20
-5854.827515221115
 10
-20175.57246649126
 20
-5992.348545874034
 10
-20135.57250658616
 20
-5992.405181462644
 10
-20121.4504088425
 20
-6006.567326615065
 10
-20121.47872663681
 20
-6026.567306567627
 10
-20147.69324804826
 20
-6085.84059568741
1001
REVIT
1002
{
1070
     1
1000
22582671
1002
}
1002
{
1070
     2
1000
-2000051
1002
}
1002
{
1070
     3
1000
-2000042
1002
}
  0
LWPOLYLINE
  5
3FB
330
70
100
AcDbEntity
  8
A-COB-___-___-EXI
100
AcDbPolyline
 90
        6
 70
     0
 43
0.0
 10
-20855.36820551254
 20
-5694.006144005573
 10
-20544.42131916669
 20
-5831.527174658487
 10
-20504.42135926156
 20
-5831.583810247097
 10
-20490.2992615179
 20
-5845.745955399515
 10
-20490.32757931221
 20
-5865.745935352077
 10
-20516.54210072367
 20
-5925.019224471862
1001
REVIT
1002
{
1070
     1
1000
22582665
1002
}
1002
{
1070
     2
1000
-2000051
1002
}
1002
{
1070
     3
1000
-2000042
1002
}
  0
LWPOLYLINE
  5
3FC
330
70
100
AcDbEntity
  8
A-COB-___-___-EXI
100
AcDbPolyline
 90
        6
 70
     0
 43
0.0
 10
-21224.21705818794
 20
-5533.184772790024
 10
-20913.27017184209
 20
-5670.705803442938
 10
-20873.27021193697
 20
-5670.762439031548
 10
-20859.14811419331
 20
-5684.924584183971
 10
-20859.17643198762
 20
-5704.924564136529
 10
-20885.39095339907
 20
-5764.197853256313
1001
REVIT
1002
{
1070
     1
1000
22582659
1002
}
1002
{
1070
     2
1000
-2000051
1002
}
1002
{
1070
     3
1000
-2000042
1002
}
  0
LWPOLYLINE
  5
3FD
330
70
100
AcDbEntity
  8
A-COB-___-___-EXI
100
AcDbPolyline
 90
        6
 70
     0
 43
0.0
 10
-21593.06591086334
 20
-5372.363401574475
 10
-21282.11902451748
 20
-5509.884432227389
 10
-21242.11906461237
 20
-5509.941067815999
 10
-21227.99696686871
 20
-5524.103212968419
 10
-21228.02528466302
 20
-5544.103192920981
 10
-21254.23980607448
 20
-5603.376482040765
1001
REVIT
1002
{
1070
     1
1000
22582653
1002
}
1002
{
1070
     2
1000
-2000051
1002
}
1002
{
1070
     3
1000
-2000042
1002
}
  0
LWPOLYLINE
  5
3FE
330
70
100
AcDbEntity
  8
A-COB-___-___-EXI
100
AcDbPolyline
 90
        6
 70
     0
 43
0.0
 10
-8006.313746672809
 20
-7641.094536193396
 10
-7695.36686032695
 20
-7778.615566846314
 10
-7655.366900421842
 20
-7778.672202434925
 10
-7641.244802678186
 20
-7792.834347587343
 10
-7641.27312047249
 20
-7812.834327539921
 10
-7667.487641883951
 20
-7872.107616659703
1001
REVIT
1002
{
1070
     1
1000
22582574
1002
}
1002
{
1070
     2
1000
-2000051
1002
}
1002
{
1070
     3
1000
-2000042
1002
}
  0
LWPOLYLINE
  5
3FF
330
70
100
AcDbEntity
  8
A-COB-___-___-EXI
100
AcDbPolyline
 90
        6
 70
     0
 43
0.0
 10
-8375.162599348232
 20
-7480.273164977839
 10
-8064.215713002381
 20
-7617.794195630755
 10
-8024.21575309726
 20
-7617.850831219366
 10
-8010.093655353605
 20
-7632.012976371784
 10
-8010.121973147908
 20
-7652.012956324347
 10
-8036.336494559369
 20
-7711.28624544413
1001
REVIT
1002
{
1070
     1
1000
22582568
1002
}
1002
{
1070
     2
1000
-2000051
1002
}
1002
{
1070
     3
1000
-2000042
1002
}
  0
LWPOLYLINE
  5
400
330
70
100
AcDbEntity
  8
A-COB-___-___-EXI
100
AcDbPolyline
 90
        6
 70
     0
 43
0.0
 10
-8744.011452023631
 20
-7319.451793762292
 10
-8433.06456567778
 20
-7456.972824415207
 10
-8393.064605772648
 20
-7457.029460003816
 10
-8378.942508028991
 20
-7471.191605156237
 10
-8378.970825823294
 20
-7491.1915851088
 10
-8404.706755445202
 20
-7549.38273700138
1001
REVIT
1002
{
1070
     1
1000
22582562
1002
}
1002
{
1070
     2
1000
-2000051
1002
}
1002
{
1070
     3
1000
-2000042
1002
}
  0
LWPOLYLINE
  5
401
330
70
100
AcDbEntity
  8
A-COB-___-___-EXI
100
AcDbPolyline
 90
        6
 70
     0
 43
0.0
 10
-9112.860304699031
 20
-7158.630422546742
 10
-8801.913418353178
 20
-7296.15145319966
 10
-8761.913458448065
 20
-7296.208088788269
 10
-8747.791360704409
 20
-7310.370233940689
 10
-8747.819678498714
 20
-7330.370213893252
 10
-8772.701966858534
 20
-7386.631209421811
1001
REVIT
1002
{
1070
     1
1000
22582556
1002
}
1002
{
1070
     2
1000
-2000051
1002
}
1002
{
1070
     3
1000
-2000042
1002
}
  0
LWPOLYLINE
  5
402
330
70
100
AcDbEntity
  8
A-COB-___-___-EXI
100
AcDbPolyline
 90
        6
 70
     0
 43
0.0
 10
-9481.709157374423
 20
-6997.809051331216
 10
-9170.76227102857
 20
-7135.330081984132
 10
-9130.762311123454
 20
-7135.386717572742
 10
-9116.640213379799
 20
-7149.548862725161
 10
-9116.668531174104
 20
-7169.548842677724
 10
-9140.697178271835
 20
-7223.879681842252
1001
REVIT
1002
{
1070
     1
1000
22582550
1002
}
1002
{
1070
     2
1000
-2000051
1002
}
1002
{
1070
     3
1000
-2000042
1002
}
  0
LWPOLYLINE
  5
403
330
70
100
AcDbEntity
  8
A-COB-___-___-EXI
100
AcDbPolyline
 90
        6
 70
     0
 43
0.0
 10
-9850.558010049857
 20
-6836.987680115659
 10
-9539.611123704005
 20
-6974.508710768574
 10
-9499.611163798851
 20
-6974.565346357184
 10
-9485.489066055194
 20
-6988.727491509603
 10
-9485.517383849499
 20
-7008.727471462167
 10
-9508.692389685153
 20
-7061.128154262682
1001
REVIT
1002
{
1070
     1
1000
22582544
1002
}
1002
{
1070
     2
1000
-2000051
1002
}
1002
{
1070
     3
1000
-2000042
1002
}
  0
LWPOLYLINE
  5
404
330
70
100
AcDbEntity
  8
A-COB-___-___-EXI
100
AcDbPolyline
 90
        6
 70
     0
 43
0.0
 10
-10219.40686272527
 20
-6676.16630890012
 10
-9908.459976379415
 20
-6813.687339553036
 10
-9868.460016474301
 20
-6813.743975141647
 10
-9854.337918730644
 20
-6827.906120294065
 10
-9854.366236524947
 20
-6847.906100246627
 10
-9876.687601098508
 20
-6898.376626683099
1001
REVIT
1002
{
1070
     1
1000
22582538
1002
}
1002
{
1070
     2
1000
-2000051
1002
}
1002
{
1070
     3
1000
-2000042
1002
}
  0
LWPOLYLINE
  5
405
330
70
100
AcDbEntity
  8
A-COB-___-___-EXI
100
AcDbPolyline
 90
        6
 70
     0
 43
0.0
 10
-10588.25571540065
 20
-6515.344937684571
 10
-10277.30882905479
 20
-6652.865968337488
 10
-10237.30886914968
 20
-6652.922603926097
 10
-10223.18677140602
 20
-6667.084749078518
 10
-10223.21508920033
 20
-6687.084729031079
 10
-10244.68281251181
 20
-6735.62509910354
1001
REVIT
1002
{
1070
     1
1000
22582532
1002
}
1002
{
1070
     2
1000
-2000051
1002
}
1002
{
1070
     3
1000
-2000042
1002
}
  0
LWPOLYLINE
  5
406
330
70
100
AcDbEntity
  8
A-COB-___-___-EXI
100
AcDbPolyline
 90
        6
 70
     0
 43
0.0
 10
-10957.10456807605
 20
-6354.523566469037
 10
-10646.1576817302
 20
-6492.044597121952
 10
-10606.15772182508
 20
-6492.101232710561
 10
-10592.03562408142
 20
-6506.26337786298
 10
-10592.06394187572
 20
-6526.263357815544
 10
-10612.67802392511
 20
-6572.873571523981
1001
REVIT
1002
{
1070
     1
1000
22582526
1002
}
1002
{
1070
     2
1000
-2000051
1002
}
1002
{
1070
     3
1000
-2000042
1002
}
  0
LWPOLYLINE
  5
407
330
70
100
AcDbEntity
  8
A-COB-___-___-EXI
100
AcDbPolyline
 90
        6
 70
     0
 43
0.0
 10
-11325.95342075146
 20
-6193.702195253486
 10
-11015.0065344056
 20
-6331.223225906399
 10
-10975.00657450049
 20
-6331.279861495011
 10
-10960.88447675683
 20
-6345.442006647432
 10
-10960.91279455113
 20
-6365.441986599989
 10
-10980.67323533844
 20
-6410.122043944409
1001
REVIT
1002
{
1070
     1
1000
22582520
1002
}
1002
{
1070
     2
1000
-2000051
1002
}
1002
{
1070
     3
1000
-2000042
1002
}
  0
LWPOLYLINE
  5
408
330
70
100
AcDbEntity
  8
A-COB-___-___-EXI
100
AcDbPolyline
 90
        6
 70
     0
 43
0.0
 10
-11694.80227342685
 20
-6032.880824037945
 10
-11383.85538708099
 20
-6170.401854690862
 10
-11343.85542717589
 20
-6170.458490279472
 10
-11329.73332943223
 20
-6184.62063543189
 10
-11329.76164722653
 20
-6204.620615384452
 10
-11348.66844675175
 20
-6247.370516364846
1001
REVIT
1002
{
1070
     1
1000
22582514
1002
}
1002
{
1070
     2
1000
-2000051
1002
}
1002
{
1070
     3
1000
-2000042
1002
}
  0
LWPOLYLINE
  5
409
330
70
100
AcDbEntity
  8
A-COB-___-___-EXI
100
AcDbPolyline
 90
       21
 70
     0
 43
0.0
 10
-12204.94492125148
 20
-5866.011489152865
 10
-12515.89180759733
 20
-6003.532519805779
 10
-12555.89176750246
 20
-6003.589155394389
 10
-12570.01386524611
 20
-6017.751300546812
 10
-12569.98554745181
 20
-6037.751280499378
 10
-12543.77102604035
 20
-6097.024569619161
 10
-12569.98554745181
 20
-6037.751280499379
 10
-12570.01386524611
 20
-6017.751300546812
 10
-12555.89176750246
 20
-6003.589155394389
 10
-12515.89180759733
 20
-6003.532519805779
 10
-12204.94492125148
 20
-5866.011489152865
 10
-12178.13484500888
 20
-5854.154321647206
 10
-12148.09685437427
 20
-5845.768667550494
 10
-12123.09685437427
 20
-5845.768667550494
 10
-12095.66036440257
 20
-5857.902876137515
 10
-12063.65112610227
 20
-5872.059452822373
 10
-11752.7042397564
 20
-6009.580483475297
 10
-11712.7042798513
 20
-6009.637119063906
 10
-11698.58218210764
 20
-6023.799264216326
 10
-11698.61049990195
 20
-6043.799244168894
 10
-11716.66365816509
 20
-6084.618988785273
1001
REVIT
1002
{
1070
     1
1000
22582508
1002
}
1002
{
1070
     2
1000
-2000051
1002
}
1002
{
1070
     3
1000
-2000042
1002
}
  0
LWPOLYLINE
  5
40A
330
70
100
AcDbEntity
  8
A-POR-___-___-EXI
100
AcDbPolyline
 90
        4
 70
     1
 43
0.0
 10
-17973.17836365422
 20
-8492.243362826901
 10
-17973.17836365422
 20
-10367.6778054906
 10
-16985.27273638933
 20
-10367.6778054906
 10
-16985.27273638933
 20
-8492.243362826901
1001
REVIT
1002
{
1070
     1
1000
22582367
1002
}
1002
{
1070
     2
1000
-2000051
1002
}
1002
{
1070
     3
1000
-2000042
1002
}
  0
LWPOLYLINE
  5
40B
330
70
100
AcDbEntity
  8
A-POR-___-___-EXI
100
AcDbPolyline
 90
        4
 70
     1
 43
0.0
 10
-17873.17836365422
 20
-8612.243362826893
 10
-17873.17836365422
 20
-10367.6778054906
 10
-17085.27273638934
 20
-10367.6778054906
 10
-17085.27273638934
 20
-8612.243362826893
1001
REVIT
1002
{
1070
     1
1000
22582363
1002
}
1002
{
1070
     2
1000
-2000051
1002
}
1002
{
1070
     3
1000
-2000042
1002
}
  0
LWPOLYLINE
  5
40C
330
70
100
AcDbEntity
  8
A-POR-___-___-EXI
100
AcDbPolyline
 90
        4
 70
     1
 43
0.0
 10
-15519.32308680748
 20
-8632.243362826899
 10
-15519.32308680748
 20
-10587.6778054906
 10
-14555.08885073095
 20
-10587.6778054906
 10
-14555.08885073095
 20
-8632.243362826899
1001
REVIT
1002
{
1070
     1
1000
22582351
1002
}
1002
{
1070
     2
1000
-2000051
1002
}
1002
{
1070
     3
1000
-2000042
1002
}
  0
LWPOLYLINE
  5
40D
330
70
100
AcDbEntity
  8
A-POR-___-___-EXI
100
AcDbPolyline
 90
        4
 70
     1
 43
0.0
 10
-15419.00533210607
 20
-8732.243362826899
 10
-15419.00533210607
 20
-10587.6778054906
 10
-14661.09970484119
 20
-10587.6778054906
 10
-14661.09970484119
 20
-8732.243362826899
1001
REVIT
1002
{
1070
     1
1000
22582347
1002
}
1002
{
1070
     2
1000
-2000051
1002
}
1002
{
1070
     3
1000
-2000042
1002
}
  0
LWPOLYLINE
  5
40E
330
70
100
AcDbEntity
  8
A-BAS-___-___-EXI
100
AcDbPolyline
 90
       15
 70
     1
 43
0.0
 10
-6970.013056546958
 20
-10936.76372023577
 10
-6970.013056546958
 20
-10687.67780549062
 10
-7950.013056546959
 20
-10687.67780549062
 10
-7950.013056546959
 20
-10587.67780549062
 10
-12644.53665737447
 20
-10587.67780549061
 10
-16204.53665737447
 20
-10587.6778054906
 10
-16204.53665737447
 20
-10367.6778054906
 10
-24644.53665737447
 20
-10367.67780549057
 10
-24844.53665737447
 20
-10367.67780549057
 10
-27944.53665737447
 20
-10367.67780549056
 10
-27944.53665737447
 20
-10487.67780549056
 10
-30664.53665737447
 20
-10487.67780549055
 10
-30664.53665737447
 20
-10736.76372023576
 10
-31644.53665737447
 20
-10736.76372023576
 10
-31644.53665737447
 20
-10936.76372023577
1001
REVIT
1002
{
1070
     1
1000
22582326
1002
}
1002
{
1070
     5
1000
383807
1002
}
1002
{
1070
     2
1000
-2000051
1002
}
1002
{
1070
     3
1000
-2000042
1002
}
  0
LWPOLYLINE
  5
40F
330
70
100
AcDbEntity
  8
A-ALV-___-___-EXI
100
AcDbPolyline
 90
        3
 70
     0
 43
0.0
 10
-16603.9745203101
 20
-7902.255980709364
 10
-16603.9745203101
 20
-8707.754312098584
 10
-16448.9745203101
 20
-8707.754312098584
1001
REVIT
1002
{
1070
     1
1000
22582316
1002
}
1002
{
1070
     5
1000
383807
1002
}
1002
{
1070
     2
1000
-2000051
1002
}
1002
{
1070
     3
1000
-2000042
1002
}
  0
LWPOLYLINE
  5
410
330
70
100
AcDbEntity
  8
A-ALV-___-___-EXI
100
AcDbPolyline
 90
        3
 70
     0
 43
0.0
 10
-16352.42227030277
 20
-8707.754312098584
 10
-16207.09662057878
 20
-8707.754312098584
 10
-16207.09662057878
 20
-7902.255980709364
1001
REVIT
1002
{
1070
     1
1000
22582316
1002
}
1002
{
1070
     5
1000
383807
1002
}
1002
{
1070
     2
1000
-2000051
1002
}
1002
{
1070
     3
1000
-2000042
1002
}
  0
LINE
  5
423
330
70
100
AcDbEntity
  8
A-COB-___-___-EXI
100
AcDbLine
 10
-30038.50546616356
 20
-8718.157574776626
 30
0.0
 11
-30173.70952048496
 21
-8777.95364193534
 31
0.0
1001
REVIT
1002
{
1070
     1
1000
22582918
1002
}
1002
{
1070
     5
1000
383807
1002
}
1002
{
1070
     2
1000
-2000051
1002
}
1002
{
1070
     3
1000
-2000042
1002
}
  0
LINE
  5
424
330
70
100
AcDbEntity
  8
A-COB-___-___-EXI
100
AcDbLine
 10
-30173.70952048496
 20
-8777.95364193534
 30
0.0
 11
-30173.70952048496
 21
-8825.523472616684
 31
0.0
1001
REVIT
1002
{
1070
     1
1000
22582918
1002
}
1002
{
1070
     5
1000
383807
1002
}
1002
{
1070
     2
1000
-2000051
1002
}
1002
{
1070
     3
1000
-2000042
1002
}
  0
LINE
  5
425
330
70
100
AcDbEntity
  8
A-COB-___-___-EXI
100
AcDbLine
 10
-30173.70952048496
 20
-8825.523472616684
 30
0.0
 11
-30038.50546616356
 21
-8825.523472616684
 31
0.0
1001
REVIT
1002
{
1070
     1
1000
22582918
1002
}
1002
{
1070
     5
1000
383807
1002
}
1002
{
1070
     2
1000
-2000051
1002
}
1002
{
1070
     3
1000
-2000042
1002
}
  0
LINE
  5
426
330
70
100
AcDbEntity
  8
A-COB-___-___-EXI
100
AcDbLine
 10
-30038.50546616356
 20
-8825.523472616684
 30
0.0
 11
-30173.70952048496
 21
-8825.523472616684
 31
0.0
1001
REVIT
1002
{
1070
     1
1000
22582918
1002
}
1002
{
1070
     5
1000
383807
1002
}
1002
{
1070
     2
1000
-2000051
1002
}
1002
{
1070
     3
1000
-2000042
1002
}
  0
LINE
  5
427
330
70
100
AcDbEntity
  8
A-PIL-___-___-EXI
100
AcDbLine
 10
-30173.70952048496
 20
-8825.523472616684
 30
0.0
 11
-30173.70952048496
 21
-10487.67780549055
 31
0.0
1001
REVIT
1002
{
1070
     1
1000
22582918
1002
}
1002
{
1070
     5
1000
383807
1002
}
1002
{
1070
     2
1000
-2000051
1002
}
1002
{
1070
     3
1000
-2000042
1002
}
  0
LINE
  5
428
330
70
100
AcDbEntity
  8
A-PIL-___-___-EXI
100
AcDbLine
 10
-30173.70952048496
 20
-10487.67780549055
 30
0.0
 11
-30038.50546616356
 21
-10487.67780549055
 31
0.0
1001
REVIT
1002
{
1070
     1
1000
22582918
1002
}
1002
{
1070
     5
1000
383807
1002
}
1002
{
1070
     2
1000
-2000051
1002
}
1002
{
1070
     3
1000
-2000042
1002
}
  0
LINE
  5
429
330
70
100
AcDbEntity
  8
A-PIL-___-___-EXI
100
AcDbLine
 10
-30038.50546616356
 20
-10487.67780549055
 30
0.0
 11
-30038.50546616356
 21
-8825.523472616684
 31
0.0
1001
REVIT
1002
{
1070
     1
1000
22582918
1002
}
1002
{
1070
     5
1000
383807
1002
}
1002
{
1070
     2
1000
-2000051
1002
}
1002
{
1070
     3
1000
-2000042
1002
}
  0
LINE
  5
42A
330
70
100
AcDbEntity
  8
A-COB-___-___-EXI
100
AcDbLine
 10
-30038.50546616356
 20
-8825.523472616684
 30
0.0
 11
-30038.50546616356
 21
-8719.748561182301
 31
0.0
1001
REVIT
1002
{
1070
     1
1000
22582918
1002
}
1002
{
1070
     5
1000
383807
1002
}
1002
{
1070
     2
1000
-2000051
1002
}
1002
{
1070
     3
1000
-2000042
1002
}
  0
LINE
  5
42B
330
70
100
AcDbEntity
  8
A-COB-___-___-EXI
100
AcDbLine
 10
-30038.50546616356
 20
-8719.748561182301
 30
0.0
 11
-27944.53665737447
 21
-7818.299087483945
 31
0.0
1001
REVIT
1002
{
1070
     1
1000
22582918
1002
}
1002
{
1070
     5
1000
383807
1002
}
1002
{
1070
     2
1000
-2000051
1002
}
1002
{
1070
     3
1000
-2000042
1002
}
  0
LINE
  5
42C
330
70
100
AcDbEntity
  8
A-COB-___-___-EXI
100
AcDbLine
 10
-27944.53665737447
 20
-7818.299087483945
 30
0.0
 11
-27802.21727260659
 21
-7757.030870900397
 31
0.0
1001
REVIT
1002
{
1070
     1
1000
22582918
1002
}
1002
{
1070
     5
1000
383807
1002
}
1002
{
1070
     2
1000
-2000051
1002
}
1002
{
1070
     3
1000
-2000042
1002
}
  0
LINE
  5
42E
330
70
100
AcDbEntity
  8
A-COB-___-___-EXI
100
AcDbLine
 10
-30038.50546616356
 20
-8766.977207618877
 30
0.0
 11
-27944.53665737447
 21
-8541.658031429069
 31
0.0
1001
REVIT
1002
{
1070
     1
1000
22582914
1002
}
1002
{
1070
     2
1000
-2000051
1002
}
1002
{
1070
     3
1000
-2000042
1002
}
  0
LINE
  5
42F
330
70
100
AcDbEntity
  8
A-COB-___-___-EXI
100
AcDbLine
 10
-27944.53665737447
 20
-8541.658031429069
 30
0.0
 11
-27642.21727260659
 21
-8541.658031429069
 31
0.0
1001
REVIT
1002
{
1070
     1
1000
22582914
1002
}
1002
{
1070
     2
1000
-2000051
1002
}
1002
{
1070
     3
1000
-2000042
1002
}
  0
LINE
  5
430
330
70
100
AcDbEntity
  8
A-ALV-___-___-EXI
100
AcDbLine
 10
-27642.21727260659
 20
-8541.658031429069
 30
0.0
 11
-27642.21727260659
 21
-10367.67780549056
 31
0.0
1001
REVIT
1002
{
1070
     1
1000
22582914
1002
}
1002
{
1070
     2
1000
-2000051
1002
}
1002
{
1070
     3
1000
-2000042
1002
}
  0
LINE
  5
431
330
70
100
AcDbEntity
  8
A-ALV-___-___-EXI
100
AcDbLine
 10
-27642.21727260659
 20
-10367.67780549056
 30
0.0
 11
-27793.37696499053
 21
-10367.67780549056
 31
0.0
1001
REVIT
1002
{
1070
     1
1000
22582914
1002
}
1002
{
1070
     2
1000
-2000051
1002
}
1002
{
1070
     3
1000
-2000042
1002
}
  0
LINE
  5
432
330
70
100
AcDbEntity
  8
A-POR-___-___-EXI
100
AcDbLine
 10
-27793.37696499053
 20
-10367.67780549056
 30
0.0
 11
-27793.37696499053
 21
-8541.658031429069
 31
0.0
1001
REVIT
1002
{
1070
     1
1000
22582914
1002
}
1002
{
1070
     2
1000
-2000051
1002
}
1002
{
1070
     3
1000
-2000042
1002
}
  0
LINE
  5
433
330
70
100
AcDbEntity
  8
A-COB-___-___-EXI
100
AcDbLine
 10
-27793.37696499053
 20
-8541.658031429069
 30
0.0
 11
-27642.21727260659
 21
-8541.658031429069
 31
0.0
1001
REVIT
1002
{
1070
     1
1000
22582914
1002
}
1002
{
1070
     2
1000
-2000051
1002
}
1002
{
1070
     3
1000
-2000042
1002
}
  0
LINE
  5
434
330
70
100
AcDbEntity
  8
A-ALV-___-___-EXI
100
AcDbLine
 10
-27642.21727260659
 20
-8541.658031429069
 30
0.0
 11
-27642.21727260659
 21
-10367.67780549056
 31
0.0
1001
REVIT
1002
{
1070
     1
1000
22582914
1002
}
1002
{
1070
     2
1000
-2000051
1002
}
1002
{
1070
     3
1000
-2000042
1002
}
  0
LINE
  5
435
330
70
100
AcDbEntity
  8
A-ALV-___-___-EXI
100
AcDbLine
 10
-27642.21727260659
 20
-10367.67780549056
 30
0.0
 11
-27944.53665737447
 21
-10367.67780549056
 31
0.0
1001
REVIT
1002
{
1070
     1
1000
22582914
1002
}
1002
{
1070
     2
1000
-2000051
1002
}
1002
{
1070
     3
1000
-2000042
1002
}
  0
LINE
  5
436
330
70
100
AcDbEntity
  8
A-ALV-___-___-EXI
100
AcDbLine
 10
-27944.53665737447
 20
-10367.67780549056
 30
0.0
 11
-27944.53665737447
 21
-8541.658031429069
 31
0.0
1001
REVIT
1002
{
1070
     1
1000
22582914
1002
}
1002
{
1070
     2
1000
-2000051
1002
}
1002
{
1070
     3
1000
-2000042
1002
}
  0
LINE
  5
437
330
70
100
AcDbEntity
  8
A-ALV-___-___-EXI
100
AcDbLine
 10
-27944.53665737447
 20
-8541.658031429069
 30
0.0
 11
-27944.53665737447
 21
-7818.299087483945
 31
0.0
1001
REVIT
1002
{
1070
     1
1000
22582914
1002
}
1002
{
1070
     2
1000
-2000051
1002
}
1002
{
1070
     3
1000
-2000042
1002
}
  0
LINE
  5
438
330
70
100
AcDbEntity
  8
A-COB-___-___-EXI
100
AcDbLine
 10
-27747.54292233058
 20
-8541.658031429069
 30
0.0
 11
-27793.37696499053
 21
-8541.658031429069
 31
0.0
1001
REVIT
1002
{
1070
     1
1000
22583054
1002
}
1002
{
1070
     2
1000
-2000051
1002
}
1002
{
1070
     3
1000
-2000042
1002
}
  0
LINE
  5
439
330
70
100
AcDbEntity
  8
A-POR-___-___-EXI
100
AcDbLine
 10
-27793.37696499053
 20
-8541.658031429069
 30
0.0
 11
-27793.37696499053
 21
-10367.67780549056
 31
0.0
1001
REVIT
1002
{
1070
     1
1000
22583054
1002
}
1002
{
1070
     2
1000
-2000051
1002
}
1002
{
1070
     3
1000
-2000042
1002
}
  0
LINE
  5
43A
330
70
100
AcDbEntity
  8
A-ALV-___-___-EXI
100
AcDbLine
 10
-27793.37696499053
 20
-10367.67780549056
 30
0.0
 11
-27747.54292233058
 21
-10367.67780549056
 31
0.0
1001
REVIT
1002
{
1070
     1
1000
22583054
1002
}
1002
{
1070
     2
1000
-2000051
1002
}
1002
{
1070
     3
1000
-2000042
1002
}
  0
LINE
  5
43B
330
70
100
AcDbEntity
  8
A-POR-___-___-EXI
100
AcDbLine
 10
-27747.54292233058
 20
-10367.67780549056
 30
0.0
 11
-27747.54292233058
 21
-8541.658031429069
 31
0.0
1001
REVIT
1002
{
1070
     1
1000
22583054
1002
}
1002
{
1070
     2
1000
-2000051
1002
}
1002
{
1070
     3
1000
-2000042
1002
}
  0
LINE
  5
43C
330
70
100
AcDbEntity
  8
A-COB-___-___-EXI
100
AcDbLine
 10
-27747.54292233058
 20
-8541.658031429069
 30
0.0
 11
-27747.54292233058
 21
-8422.089519264238
 31
0.0
1001
REVIT
1002
{
1070
     1
1000
22583054
1002
}
1002
{
1070
     2
1000
-2000051
1002
}
1002
{
1070
     3
1000
-2000042
1002
}
  0
LINE
  5
43D
330
70
100
AcDbEntity
  8
A-COB-___-___-EXI
100
AcDbLine
 10
-27747.54292233058
 20
-8422.089519264238
 30
0.0
 11
-27844.09517233791
 21
-8422.089519264238
 31
0.0
1001
REVIT
1002
{
1070
     1
1000
22583054
1002
}
1002
{
1070
     2
1000
-2000051
1002
}
1002
{
1070
     3
1000
-2000042
1002
}
  0
LINE
  5
43E
330
70
100
AcDbEntity
  8
A-COB-___-___-EXI
100
AcDbLine
 10
-27844.09517233791
 20
-8422.089519264238
 30
0.0
 11
-27844.09517233791
 21
-8541.658031429069
 31
0.0
1001
REVIT
1002
{
1070
     1
1000
22583054
1002
}
1002
{
1070
     2
1000
-2000051
1002
}
1002
{
1070
     3
1000
-2000042
1002
}
  0
LINE
  5
43F
330
70
100
AcDbEntity
  8
A-COB-___-___-EXI
100
AcDbLine
 10
-27844.09517233791
 20
-8541.658031429069
 30
0.0
 11
-27747.54292233058
 21
-8541.658031429069
 31
0.0
1001
REVIT
1002
{
1070
     1
1000
22583054
1002
}
1002
{
1070
     2
1000
-2000051
1002
}
1002
{
1070
     3
1000
-2000042
1002
}
  0
LINE
  5
440
330
70
100
AcDbEntity
  8
A-COB-___-___-EXI
100
AcDbLine
 10
-27747.54292233058
 20
-8541.658031429069
 30
0.0
 11
-27642.21727260659
 21
-8541.658031429069
 31
0.0
1001
REVIT
1002
{
1070
     1
1000
22583054
1002
}
1002
{
1070
     2
1000
-2000051
1002
}
1002
{
1070
     3
1000
-2000042
1002
}
  0
LINE
  5
441
330
70
100
AcDbEntity
  8
A-ALV-___-___-EXI
100
AcDbLine
 10
-27642.21727260659
 20
-8541.658031429069
 30
0.0
 11
-27642.21727260659
 21
-8281.658031429067
 31
0.0
1001
REVIT
1002
{
1070
     1
1000
22583054
1002
}
1002
{
1070
     2
1000
-2000051
1002
}
1002
{
1070
     3
1000
-2000042
1002
}
  0
LINE
  5
442
330
70
100
AcDbEntity
  8
A-ALV-___-___-EXI
100
AcDbLine
 10
-27642.21727260659
 20
-8281.658031429067
 30
0.0
 11
-27702.21727260659
 21
-8281.658031429067
 31
0.0
1001
REVIT
1002
{
1070
     1
1000
22583054
1002
}
1002
{
1070
     2
1000
-2000051
1002
}
1002
{
1070
     3
1000
-2000042
1002
}
  0
LINE
  5
443
330
70
100
AcDbEntity
  8
A-ALV-___-___-EXI
100
AcDbLine
 10
-27702.21727260659
 20
-8281.658031429067
 30
0.0
 11
-27702.21727260659
 21
-7861.553311571805
 31
0.0
1001
REVIT
1002
{
1070
     1
1000
22583054
1002
}
1002
{
1070
     2
1000
-2000051
1002
}
1002
{
1070
     3
1000
-2000042
1002
}
  0
LINE
  5
444
330
70
100
AcDbEntity
  8
A-COB-___-___-EXI
100
AcDbLine
 10
-27702.21727260659
 20
-7861.553311571805
 30
0.0
 11
-27802.21727260659
 21
-7861.553311571805
 31
0.0
1001
REVIT
1002
{
1070
     1
1000
22583054
1002
}
1002
{
1070
     2
1000
-2000051
1002
}
1002
{
1070
     3
1000
-2000042
1002
}
  0
LINE
  5
445
330
70
100
AcDbEntity
  8
A-COB-___-___-EXI
100
AcDbLine
 10
-27802.21727260659
 20
-7861.553311571805
 30
0.0
 11
-27802.21727260659
 21
-7757.030870900395
 31
0.0
1001
REVIT
1002
{
1070
     1
1000
22583054
1002
}
1002
{
1070
     2
1000
-2000051
1002
}
1002
{
1070
     3
1000
-2000042
1002
}
  0
LINE
  5
446
330
70
100
AcDbEntity
  8
A-COB-___-___-EXI
100
AcDbLine
 10
-27802.21727260659
 20
-7757.030870900395
 30
0.0
 11
-27691.55626954387
 21
-7710.618131257557
 31
0.0
1001
REVIT
1002
{
1070
     1
1000
22583054
1002
}
1002
{
1070
     2
1000
-2000051
1002
}
1002
{
1070
     3
1000
-2000042
1002
}
  0
VIEWPORT
  5
458
102
{ACAD_XDICTIONARY
360
459
102
}
330
74
100
AcDbEntity
 67
     1
  8
0
100
AcDbViewport
 10
228.1690507715862
 20
172.4653921432594
 30
0.0
 40
1099.224574943011
 41
509.050495038184
 68
     1
 69
     1
 12
228.1690507715862
 22
172.4653921432594
 13
0.0
 23
0.0
 14
10.0
 24
10.0
 15
10.0
 25
10.0
 16
0.0
 26
0.0
 36
1.0
 17
0.0
 27
0.0
 37
0.0
 42
50.0
 43
0.0
 44
0.0
 45
509.050495038184
 50
0.0
 51
0.0
 72
   100
 90
   819232
  1

281
     0
 71
     1
 74
     0
110
0.0
120
0.0
130
0.0
111
1.0
121
0.0
131
0.0
112
0.0
122
1.0
132
0.0
 79
     0
146
0.0
170
     0
 61
     5
348
2F
292
     1
282
     1
141
0.0
142
0.0
 63
   250
421
  3355443
  0
VIEWPORT
  5
45C
102
{ACAD_XDICTIONARY
360
45D
102
}
330
74
100
AcDbEntity
 67
     1
  8
0
100
AcDbViewport
 10
148.5
 20
104.9443283081054
 30
0.0
 40
237.6
 41
167.9109252929687
 68
     2
 69
     2
 12
-19307.27485696073
 22
-8053.531494034549
 13
0.0
 23
0.0
 14
1.0
 24
1.0
 15
0.0
 25
0.0
 16
0.0
 26
0.0
 36
1.0
 17
0.0
 27
0.0
 37
0.0
 42
50.0
 43
0.0
 44
0.0
 45
17565.59857737938
 50
0.0
 51
0.0
 72
  1000
 90
   819232
  1

281
     0
 71
     1
 74
     0
110
0.0
120
0.0
130
0.0
111
1.0
121
0.0
131
0.0
112
0.0
122
1.0
132
0.0
 79
     0
146
0.0
170
     0
 61
     5
348
2F
292
     1
282
     1
141
0.0
142
0.0
 63
   250
421
  3355443
  0
ENDSEC
  0
SECTION
  2
OBJECTS
  0
DICTIONARY
  5
C
330
0
100
AcDbDictionary
281
     1
  3
ACAD_CIP_PREVIOUS_PRODUCT_INFO
350
79
  3
ACAD_COLOR
350
63
  3
ACAD_DETAILVIEWSTYLE
350
6A
  3
ACAD_GROUP
350
D
  3
ACAD_IMAGE_VARS
350
7A
  3
ACAD_LAYOUT
350
62
  3
ACAD_MATERIAL
350
10
  3
ACAD_MLEADERSTYLE
350
66
  3
ACAD_MLINESTYLE
350
5F
  3
ACAD_PLOTSETTINGS
350
61
  3
ACAD_PLOTSTYLENAME
350
E
  3
ACAD_RENDER_ACTIVE_RAPIDRT_SETTINGS
350
3A6
  3
ACAD_RENDER_RAPIDRT_SETTINGS
350
39F
  3
ACAD_SCALELIST
350
42
  3
ACAD_SECTIONVIEWSTYLE
350
68
  3
ACAD_TABLESTYLE
350
64
  3
ACAD_VISUALSTYLE
350
29
  3
ACDB_RECOMPOSE_DATA
350
479
  3
AcDbVariableDictionary
350
38F
  3
REVIT_DICTIONARY
350
387
  0
SUN
  5
38E
330
57
100
AcDbSun
 90
        1
290
     1
 63
     7
421
 16777215
 40
0.3
291
     1
 91
  2460364
 92
 70441000
292
     0
 70
     1
 71
   128
280
     1
  0
DICTIONARY
  5
3AB
330
2
100
AcDbDictionary
280
     1
281
     1
  3
ACAD_LAYERSTATES
360
3AC
  0
DICTIONARY
  5
38C
330
70
100
AcDbDictionary
280
     1
281
     1
  3
ACAD_SORTENTS
360
38D
  0
DICTIONARY
  5
459
330
458
100
AcDbDictionary
280
     1
281
     1
  3
ASDK_XREC_ANNOTATION_SCALE_INFO
360
45A
  0
DICTIONARY
  5
45D
330
45C
100
AcDbDictionary
280
     1
281
     1
  3
ASDK_XREC_ANNOTATION_SCALE_INFO
360
45E
  0
XRECORD
  5
79
102
{ACAD_REACTORS
330
C
102
}
330
C
100
AcDbXrecord
280
     1
300
ACD
300
2022
300

  0
DICTIONARY
  5
63
102
{ACAD_REACTORS
330
C
102
}
330
C
100
AcDbDictionary
281
     1
  0
DICTIONARY
  5
6A
102
{ACAD_REACTORS
330
C
102
}
330
C
100
AcDbDictionary
281
     1
  3
Imperial24
350
6B
  3
Metric50
350
397
  0
DICTIONARY
  5
D
102
{ACAD_REACTORS
330
C
102
}
330
C
100
AcDbDictionary
281
     1
  0
RASTERVARIABLES
  5
7A
102
{ACAD_REACTORS
330
C
102
}
330
C
100
AcDbRasterVariables
 90
        0
 70
     0
 71
     1
 72
     1
  0
DICTIONARY
  5
62
102
{ACAD_REACTORS
330
C
102
}
330
C
100
AcDbDictionary
281
     1
  3
Layout2
350
77
  3
Model
350
73
  0
DICTIONARY
  5
10
102
{ACAD_REACTORS
330
C
102
}
330
C
100
AcDbDictionary
281
     1
  3
ByBlock
350
19
  3
ByLayer
350
11
  3
Global
350
21
  0
DICTIONARY
  5
66
102
{ACAD_REACTORS
330
C
102
}
330
C
100
AcDbDictionary
281
     1
  3
Standard
350
67
  0
DICTIONARY
  5
5F
102
{ACAD_REACTORS
330
C
102
}
330
C
100
AcDbDictionary
281
     1
  3
Standard
350
60
  0
DICTIONARY
  5
61
102
{ACAD_REACTORS
330
C
102
}
330
C
100
AcDbDictionary
281
     1
  0
ACDBDICTIONARYWDFLT
  5
E
102
{ACAD_REACTORS
330
C
102
}
330
C
100
AcDbDictionary
281
     1
  3
Normal
350
F
100
AcDbDictionaryWithDefault
340
F
  0
RAPIDRTRENDERSETTINGS
  5
3A6
102
{ACAD_REACTORS
330
C
102
}
330
C
100
AcDbRenderSettings
 90
        2
  1
Médio
290
     1
290
     0
290
     1
290
     1
  1

  1
Aplica 5 níveis de renderização
 90
        0
100
AcDbRapidRTRenderSettings
 90
        3
 70
     0
 90
        5
 90
        1
 70
     1
 70
     2
 40
3.0
 40
3.0
290
     1
  0
DICTIONARY
  5
39F
102
{ACAD_REACTORS
330
C
102
}
330
C
100
AcDbDictionary
281
     1
  3
Alto
350
3A2
  3
Baixo
350
3A0
  3
Médio
350
3A1
  3
Qualidade de curta duração
350
3A3
  3
Qualidade de longa duração
350
3A5
  3
Qualidade de média duração
350
3A4
  0
DICTIONARY
  5
42
102
{ACAD_REACTORS
330
C
102
}
330
C
100
AcDbDictionary
281
     1
  3
A0
350
43
  3
A1
350
44
  3
A2
350
45
  3
A3
350
46
  3
A4
350
47
  3
A5
350
48
  3
A6
350
49
  3
A7
350
4A
  3
A8
350
4B
  3
A9
350
4C
  3
B0
350
4D
  3
B1
350
4E
  3
B2
350
4F
  3
B3
350
50
  3
B4
350
51
  3
B5
350
52
  3
B6
350
53
  0
DICTIONARY
  5
68
102
{ACAD_REACTORS
330
C
102
}
330
C
100
AcDbDictionary
281
     1
  3
Imperial24
350
69
  3
Metric50
350
396
  0
DICTIONARY
  5
64
102
{ACAD_REACTORS
330
C
102
}
330
C
100
AcDbDictionary
281
     1
  3
Standard
350
65
  0
DICTIONARY
  5
29
102
{ACAD_REACTORS
330
C
102
}
330
C
100
AcDbDictionary
281
     1
  3
2dWireframe
350
2F
  3
Basic
350
2E
  3
Brighten
350
35
  3
ColorChange
350
39
  3
Conceptual
350
32
  3
Dim
350
34
  3
EdgeColorOff
350
41
  3
Facepattern
350
38
  3
Flat
350
2A
  3
FlatWithEdges
350
2B
  3
Gouraud
350
2C
  3
GouraudWithEdges
350
2D
  3
Hidden
350
31
  3
JitterOff
350
3F
  3
Linepattern
350
37
  3
OverhangOff
350
40
  3
Realistic
350
33
  3
Shaded
350
3E
  3
Shaded with edges
350
3D
  3
Shades of Gray
350
3A
  3
Sketchy
350
3B
  3
Thicken
350
36
  3
Wireframe
350
30
  3
X-Ray
350
3C
  0
XRECORD
  5
479
102
{ACAD_REACTORS
330
C
102
}
330
C
100
AcDbXrecord
280
     1
 90
        1
330
65
  0
DICTIONARY
  5
38F
102
{ACAD_REACTORS
330
C
102
}
330
C
100
AcDbDictionary
281
     1
  3
CANNOSCALE
350
394
  3
CMLEADERSTYLE
350
391
  3
CTABLESTYLE
350
390
  3
CVIEWDETAILSTYLE
350
392
  3
CVIEWSECTIONSTYLE
350
393
  0
DICTIONARY
  5
387
102
{ACAD_REACTORS
330
C
102
}
330
C
100
AcDbDictionary
281
     1
  3
DRAWING_TOOL
350
38B
  3
REVIT_CATEGORY_MAPPING
350
389
  3
REVIT_SUB_CATEGORY_MAPPING
350
38A
  3
REVIT_TYPE_MAPPING
350
388
  0
DICTIONARY
  5
3AC
102
{ACAD_REACTORS
330
3AB
102
}
330
3AB
100
AcDbDictionary
281
     1
  0
SORTENTSTABLE
  5
38D
102
{ACAD_REACTORS
330
38C
102
}
330
38C
100
AcDbSortentsTable
330
70
331
3B6
  5
3C6
331
3B7
  5
3C7
331
3B8
  5
3C8
331
3BA
  5
3D4
331
3BB
  5
3D5
331
3BC
  5
3D6
331
3BD
  5
3D7
331
3BE
  5
3D8
331
3BF
  5
3D9
331
3C0
  5
3DA
331
3C1
  5
3DB
331
3C2
  5
3DC
331
3C3
  5
3DD
331
3C4
  5
3DE
331
3C5
  5
3DF
331
3C6
  5
3E0
331
3C7
  5
3E1
331
3C8
  5
3E2
331
3C9
  5
3E3
331
3CA
  5
3E4
331
3CB
  5
3E5
331
3CC
  5
3E6
331
3CD
  5
3E7
331
3CF
  5
3F2
331
3D0
  5
3F3
331
3D1
  5
3F4
331
3D2
  5
3F5
331
3D3
  5
3F6
331
3D4
  5
3F7
331
3D5
  5
3F8
331
3D6
  5
3F9
331
3D7
  5
3FA
331
3D8
  5
3FB
331
3D9
  5
3FC
331
3DA
  5
3FD
331
3DB
  5
3FE
331
3DC
  5
3FF
331
3DD
  5
400
331
3DE
  5
401
331
3DF
  5
402
331
3E0
  5
403
331
3E1
  5
404
331
3E2
  5
405
331
3E3
  5
406
331
3E4
  5
407
331
3E5
  5
408
331
3E6
  5
409
331
3E7
  5
40A
331
3E8
  5
40B
331
3E9
  5
40C
331
3EA
  5
40D
331
3EB
  5
40E
331
3EC
  5
40F
331
3ED
  5
410
331
3EE
  5
423
331
3EF
  5
424
331
3F0
  5
425
331
3F1
  5
426
331
3F2
  5
427
331
3F3
  5
428
331
3F4
  5
429
331
3F5
  5
42A
331
3F6
  5
42B
331
3F7
  5
42C
331
3F8
  5
42E
331
3F9
  5
42F
331
3FA
  5
430
331
3FB
  5
431
331
3FC
  5
432
331
3FD
  5
433
331
3FE
  5
434
331
3FF
  5
435
331
400
  5
436
331
401
  5
437
331
402
  5
438
331
403
  5
439
331
404
  5
43A
331
405
  5
43B
331
406
  5
43C
331
407
  5
43D
331
408
  5
43E
331
409
  5
43F
331
40A
  5
440
331
40B
  5
441
331
40C
  5
442
331
40D
  5
443
331
40E
  5
444
331
40F
  5
445
331
410
  5
446
331
423
  5
3E8
331
424
  5
3E9
331
425
  5
3EA
331
426
  5
3EB
331
427
  5
3EC
331
428
  5
3ED
331
429
  5
3EE
331
42A
  5
3EF
331
42B
  5
3F0
331
42C
  5
3F1
331
42E
  5
3C9
331
42F
  5
3CA
331
430
  5
3CB
331
431
  5
3CC
331
432
  5
3CD
331
433
  5
3CF
331
434
  5
3D0
331
435
  5
3D1
331
436
  5
3D2
331
437
  5
3D3
331
438
  5
3B6
331
439
  5
3B7
331
43A
  5
3B8
331
43B
  5
3BA
331
43C
  5
3BB
331
43D
  5
3BC
331
43E
  5
3BD
331
43F
  5
3BE
331
440
  5
3BF
331
441
  5
3C0
331
442
  5
3C1
331
443
  5
3C2
331
444
  5
3C3
331
445
  5
3C4
331
446
  5
3C5
  0
XRECORD
  5
45A
102
{ACAD_REACTORS
330
459
102
}
330
459
100
AcDbXrecord
280
     1
 90
        1
340
43
  0
XRECORD
  5
45E
102
{ACAD_REACTORS
330
45D
102
}
330
45D
100
AcDbXrecord
280
     1
 90
        1
340
43
  0
ACDBDETAILVIEWSTYLE
  5
6B
102
{ACAD_REACTORS
330
6A
102
}
330
6A
100
AcDbModelDocViewStyle
 70
     0
  3
Imperial24
290
     1
300
Imperial24
 90
        0
100
AcDbDetailViewStyle
 70
     0
 71
     0
 90
        3
 71
     1
340
55
 62
   256
 40
0.24
340
0
 62
   256
 40
0.24
300

 40
0.36
280
     3
 71
     2
340
5D
 90
       25
 62
   256
 71
     3
340
55
 62
   256
 40
0.24
 90
        1
 40
0.75
 90
        1
300
%<\AcVar ViewType \f "%tc1">% %<\AcVar ViewDetailId>%\PSCALE %<\AcVar ViewScale \f "%sn">%
 71
     4
340
5D
 90
       25
 62
   256
340
5D
 90
       25
 62
   256
280
     0
  0
ACDBDETAILVIEWSTYLE
  5
397
102
{ACAD_REACTORS
330
6A
102
}
330
6A
100
AcDbModelDocViewStyle
 70
     0
  3
Metric50
290
     1
300
Metric50
 90
        0
100
AcDbDetailViewStyle
 70
     0
 71
     0
 90
        3
 71
     1
340
55
 62
   256
 40
5.0
340
0
 62
   256
 40
5.0
300

 40
0.0
280
     1
 71
     2
340
5D
 90
       25
 62
   256
 71
     3
340
55
 62
   256
 40
5.0
 90
        0
 40
15.0
 90
        1
300
%<\AcVar ViewDetailId>% (%<\AcVar ViewScale \f "%sn">%)
 71
     4
340
5D
 90
       25
 62
   256
340
5D
 90
       25
 62
   256
280
     0
  0
LAYOUT
  5
77
102
{ACAD_REACTORS
330
62
102
}
330
62
100
AcDbPlotSettings
  1

  2
PDF24
  4
A4
  6

 40
0.0
 41
0.0
 42
0.1113433837890625
 43
0.0
 44
210.0
 45
297.0
 46
0.0
 47
0.0
 48
0.0
 49
0.0
140
0.0
141
0.0
142
1.0
143
1.0
 70
   688
 72
     1
 73
     1
 74
     5
  7

 75
    16
147
1.0
 76
     0
 77
     2
 78
   300
148
0.0
149
0.0
100
AcDbLayout
  1
Layout2
 70
     1
 71
     1
 10
0.0
 20
0.0
 11
297.0
 21
210.0
 12
0.0
 22
0.0
 32
0.0
 14
29.69999999999999
 24
20.98886566162111
 34
0.0
 15
267.3
 25
188.8997909545898
 35
0.0
146
0.0
 13
0.0
 23
0.0
 33
0.0
 16
1.0
 26
0.0
 36
0.0
 17
0.0
 27
1.0
 37
0.0
 76
     0
330
74
331
458
1001
ACAD_PSEXT
1000
PDF24
1000
PDF24
1000
\\.\pipe\PDFPrint
1000
PDF24 Printer
1070
     0
  0
LAYOUT
  5
73
102
{ACAD_REACTORS
330
62
102
}
330
62
100
AcDbPlotSettings
  1

  2

  4

  6

 40
0.0
 41
0.0
 42
0.0
 43
0.0
 44
0.0
 45
0.0
 46
0.0
 47
0.0
 48
0.0
 49
0.0
140
0.0
141
0.0
142
1.0
143
1.0
 70
  1712
 72
     0
 73
     0
 74
     0
  7

 75
     0
147
1.0
 76
     0
 77
     2
 78
   300
148
0.0
149
0.0
100
AcDbLayout
  1
Model
 70
     1
 71
     0
 10
0.0
 20
0.0
 11
12.0
 21
9.0
 12
0.0
 22
0.0
 32
0.0
 14
0.0
 24
0.0
 34
0.0
 15
0.0
 25
0.0
 35
0.0
146
0.0
 13
0.0
 23
0.0
 33
0.0
 16
1.0
 26
0.0
 36
0.0
 17
0.0
 27
1.0
 37
0.0
 76
     0
330
70
331
57
  0
MATERIAL
  5
19
102
{ACAD_XDICTIONARY
360
1A
102
}
102
{ACAD_REACTORS
330
10
102
}
330
10
100
AcDbMaterial
  1
ByBlock
 72
     0
 43
0.0208333333333333
 43
0.0
 43
0.0
 43
0.0
 43
0.0
 43
0.0208333333333333
 43
0.0
 43
0.0
 43
0.0
 43
0.0
 43
1.0
 43
0.0
 43
0.0
 43
0.0
 43
0.0
 43
1.0
 77
     0
 47
0.0208333333333333
 47
0.0
 47
0.0
 47
0.0
 47
0.0
 47
0.0208333333333333
 47
0.0
 47
0.0
 47
0.0
 47
0.0
 47
1.0
 47
0.0
 47
0.0
 47
0.0
 47
0.0
 47
1.0
171
     0
 49
0.0208333333333333
 49
0.0
 49
0.0
 49
0.0
 49
0.0
 49
0.0208333333333333
 49
0.0
 49
0.0
 49
0.0
 49
0.0
 49
1.0
 49
0.0
 49
0.0
 49
0.0
 49
0.0
 49
1.0
175
     0
142
0.0208333333333333
142
0.0
142
0.0
142
0.0
142
0.0
142
0.0208333333333333
142
0.0
142
0.0
142
0.0
142
0.0
142
1.0
142
0.0
142
0.0
142
0.0
142
0.0
142
1.0
179
     0
144
0.0208333333333333
144
0.0
144
0.0
144
0.0
144
0.0
144
0.0208333333333333
144
0.0
144
0.0
144
0.0
144
0.0
144
1.0
144
0.0
144
0.0
144
0.0
144
0.0
144
1.0
147
0.0208333333333333
147
0.0
147
0.0
147
0.0
147
0.0
147
0.0208333333333333
147
0.0
147
0.0
147
0.0
147
0.0
147
1.0
147
0.0
147
0.0
147
0.0
147
0.0
147
1.0
  0
MATERIAL
  5
11
102
{ACAD_XDICTIONARY
360
12
102
}
102
{ACAD_REACTORS
330
10
102
}
330
10
100
AcDbMaterial
  1
ByLayer
 72
     0
 43
0.0208333333333333
 43
0.0
 43
0.0
 43
0.0
 43
0.0
 43
0.0208333333333333
 43
0.0
 43
0.0
 43
0.0
 43
0.0
 43
1.0
 43
0.0
 43
0.0
 43
0.0
 43
0.0
 43
1.0
 77
     0
 47
0.0208333333333333
 47
0.0
 47
0.0
 47
0.0
 47
0.0
 47
0.0208333333333333
 47
0.0
 47
0.0
 47
0.0
 47
0.0
 47
1.0
 47
0.0
 47
0.0
 47
0.0
 47
0.0
 47
1.0
171
     0
 49
0.0208333333333333
 49
0.0
 49
0.0
 49
0.0
 49
0.0
 49
0.0208333333333333
 49
0.0
 49
0.0
 49
0.0
 49
0.0
 49
1.0
 49
0.0
 49
0.0
 49
0.0
 49
0.0
 49
1.0
175
     0
142
0.0208333333333333
142
0.0
142
0.0
142
0.0
142
0.0
142
0.0208333333333333
142
0.0
142
0.0
142
0.0
142
0.0
142
1.0
142
0.0
142
0.0
142
0.0
142
0.0
142
1.0
179
     0
144
0.0208333333333333
144
0.0
144
0.0
144
0.0
144
0.0
144
0.0208333333333333
144
0.0
144
0.0
144
0.0
144
0.0
144
1.0
144
0.0
144
0.0
144
0.0
144
0.0
144
1.0
147
0.0208333333333333
147
0.0
147
0.0
147
0.0
147
0.0
147
0.0208333333333333
147
0.0
147
0.0
147
0.0
147
0.0
147
1.0
147
0.0
147
0.0
147
0.0
147
0.0
147
1.0
  0
MATERIAL
  5
21
102
{ACAD_XDICTIONARY
360
22
102
}
102
{ACAD_REACTORS
330
10
102
}
330
10
100
AcDbMaterial
  1
Global
 72
     0
 43
0.0208333333333333
 43
0.0
 43
0.0
 43
0.0
 43
0.0
 43
0.0208333333333333
 43
0.0
 43
0.0
 43
0.0
 43
0.0
 43
1.0
 43
0.0
 43
0.0
 43
0.0
 43
0.0
 43
1.0
 77
     0
 47
0.0208333333333333
 47
0.0
 47
0.0
 47
0.0
 47
0.0
 47
0.0208333333333333
 47
0.0
 47
0.0
 47
0.0
 47
0.0
 47
1.0
 47
0.0
 47
0.0
 47
0.0
 47
0.0
 47
1.0
171
     0
 49
0.0208333333333333
 49
0.0
 49
0.0
 49
0.0
 49
0.0
 49
0.0208333333333333
 49
0.0
 49
0.0
 49
0.0
 49
0.0
 49
1.0
 49
0.0
 49
0.0
 49
0.0
 49
0.0
 49
1.0
175
     0
142
0.0208333333333333
142
0.0
142
0.0
142
0.0
142
0.0
142
0.0208333333333333
142
0.0
142
0.0
142
0.0
142
0.0
142
1.0
142
0.0
142
0.0
142
0.0
142
0.0
142
1.0
179
     0
144
0.0208333333333333
144
0.0
144
0.0
144
0.0
144
0.0
144
0.0208333333333333
144
0.0
144
0.0
144
0.0
144
0.0
144
1.0
144
0.0
144
0.0
144
0.0
144
0.0
144
1.0
147
0.0208333333333333
147
0.0
147
0.0
147
0.0
147
0.0
147
0.0208333333333333
147
0.0
147
0.0
147
0.0
147
0.0
147
1.0
147
0.0
147
0.0
147
0.0
147
0.0
147
1.0
  0
MLEADERSTYLE
  5
67
102
{ACAD_REACTORS
330
66
102
}
330
66
100
AcDbMLeaderStyle
179
     2
170
     2
171
     1
172
     0
 90
        2
 40
0.0
 41
0.0
173
     1
 91
-1056964608
340
5B
 92
       -2
290
     1
 42
0.09
291
     1
 43
0.36
  3
Standard
 44
0.18
300

342
55
174
     1
178
     6
175
     1
176
     0
 93
-1056964608
 45
0.18
292
     0
297
     0
 46
0.18
 94
-1056964608
 47
1.0
 49
1.0
140
1.0
293
     1
141
0.0
294
     1
177
     0
142
1.0
295
     1
296
     0
143
0.125
271
     0
272
     9
273
     9
298
     1
  0
MLINESTYLE
  5
60
102
{ACAD_REACTORS
330
5F
102
}
330
5F
100
AcDbMlineStyle
  2
STANDARD
 70
     0
  3

 62
   256
 51
90.0
 52
90.0
 71
     2
 49
0.5
 62
   256
  6
BYLAYER
 49
-0.5
 62
   256
  6
BYLAYER
  0
ACDBPLACEHOLDER
  5
F
102
{ACAD_REACTORS
330
E
102
}
330
E
  0
RAPIDRTRENDERSETTINGS
  5
3A2
102
{ACAD_REACTORS
330
39F
102
}
330
39F
100
AcDbRenderSettings
 90
        2
  1
Alto
290
     1
290
     0
290
     1
290
     1
  1

  1
Aplica 10 níveis de renderização
 90
        2
100
AcDbRapidRTRenderSettings
 90
        3
 70
     0
 90
       10
 90
        1
 70
     2
 70
     2
 40
3.0
 40
3.0
290
     1
  0
RAPIDRTRENDERSETTINGS
  5
3A0
102
{ACAD_REACTORS
330
39F
102
}
330
39F
100
AcDbRenderSettings
 90
        2
  1
Baixo
290
     1
290
     0
290
     1
290
     1
  1

  1
Aplica 1 nível de renderização
 90
        0
100
AcDbRapidRTRenderSettings
 90
        3
 70
     0
 90
        1
 90
        1
 70
     0
 70
     2
 40
3.0
 40
3.0
290
     1
  0
RAPIDRTRENDERSETTINGS
  5
3A1
102
{ACAD_REACTORS
330
39F
102
}
330
39F
100
AcDbRenderSettings
 90
        2
  1
Médio
290
     1
290
     0
290
     1
290
     1
  1

  1
Aplica 5 níveis de renderização
 90
        1
100
AcDbRapidRTRenderSettings
 90
        3
 70
     0
 90
        5
 90
        1
 70
     1
 70
     2
 40
3.0
 40
3.0
290
     1
  0
RAPIDRTRENDERSETTINGS
  5
3A3
102
{ACAD_REACTORS
330
39F
102
}
330
39F
100
AcDbRenderSettings
 90
        2
  1
Qualidade de curta duração
290
     1
290
     0
290
     1
290
     1
  1

  1
Renderiza por 10 minutos
 90
        3
100
AcDbRapidRTRenderSettings
 90
        3
 70
     1
 90
        1
 90
       10
 70
     1
 70
     2
 40
3.0
 40
3.0
290
     1
  0
RAPIDRTRENDERSETTINGS
  5
3A5
102
{ACAD_REACTORS
330
39F
102
}
330
39F
100
AcDbRenderSettings
 90
        2
  1
Qualidade de longa duração
290
     1
290
     0
290
     1
290
     1
  1

  1
Renderiza por 12 horas
 90
        5
100
AcDbRapidRTRenderSettings
 90
        3
 70
     1
 90
        1
 90
      720
 70
     2
 70
     2
 40
3.0
 40
3.0
290
     1
  0
RAPIDRTRENDERSETTINGS
  5
3A4
102
{ACAD_REACTORS
330
39F
102
}
330
39F
100
AcDbRenderSettings
 90
        2
  1
Qualidade de média duração
290
     1
290
     0
290
     1
290
     1
  1

  1
Renderiza por 60 minutos
 90
        4
100
AcDbRapidRTRenderSettings
 90
        3
 70
     1
 90
        1
 90
       60
 70
     2
 70
     2
 40
3.0
 40
3.0
290
     1
  0
SCALE
  5
43
102
{ACAD_REACTORS
330
42
102
}
330
42
100
AcDbScale
 70
     0
300
1:1
140
1.0
141
1.0
290
     1
  0
SCALE
  5
44
102
{ACAD_REACTORS
330
42
102
}
330
42
100
AcDbScale
 70
     0
300
1/128" = 1'-0"
140
0.0078125
141
12.0
290
     0
  0
SCALE
  5
45
102
{ACAD_REACTORS
330
42
102
}
330
42
100
AcDbScale
 70
     0
300
1/64" = 1'-0"
140
0.015625
141
12.0
290
     0
  0
SCALE
  5
46
102
{ACAD_REACTORS
330
42
102
}
330
42
100
AcDbScale
 70
     0
300
1/32" = 1'-0"
140
0.03125
141
12.0
290
     0
  0
SCALE
  5
47
102
{ACAD_REACTORS
330
42
102
}
330
42
100
AcDbScale
 70
     0
300
1/16" = 1'-0"
140
0.0625
141
12.0
290
     0
  0
SCALE
  5
48
102
{ACAD_REACTORS
330
42
102
}
330
42
100
AcDbScale
 70
     0
300
3/32" = 1'-0"
140
0.09375
141
12.0
290
     0
  0
SCALE
  5
49
102
{ACAD_REACTORS
330
42
102
}
330
42
100
AcDbScale
 70
     0
300
1/8" = 1'-0"
140
0.125
141
12.0
290
     0
  0
SCALE
  5
4A
102
{ACAD_REACTORS
330
42
102
}
330
42
100
AcDbScale
 70
     0
300
3/16" = 1'-0"
140
0.1875
141
12.0
290
     0
  0
SCALE
  5
4B
102
{ACAD_REACTORS
330
42
102
}
330
42
100
AcDbScale
 70
     0
300
1/4" = 1'-0"
140
0.25
141
12.0
290
     0
  0
SCALE
  5
4C
102
{ACAD_REACTORS
330
42
102
}
330
42
100
AcDbScale
 70
     0
300
3/8" = 1'-0"
140
0.375
141
12.0
290
     0
  0
SCALE
  5
4D
102
{ACAD_REACTORS
330
42
102
}
330
42
100
AcDbScale
 70
     0
300
1/2" = 1'-0"
140
0.5
141
12.0
290
     0
  0
SCALE
  5
4E
102
{ACAD_REACTORS
330
42
102
}
330
42
100
AcDbScale
 70
     0
300
3/4" = 1'-0"
140
0.75
141
12.0
290
     0
  0
SCALE
  5
4F
102
{ACAD_REACTORS
330
42
102
}
330
42
100
AcDbScale
 70
     0
300
1" = 1'-0"
140
1.0
141
12.0
290
     0
  0
SCALE
  5
50
102
{ACAD_REACTORS
330
42
102
}
330
42
100
AcDbScale
 70
     0
300
1-1/2" = 1'-0"
140
1.5
141
12.0
290
     0
  0
SCALE
  5
51
102
{ACAD_REACTORS
330
42
102
}
330
42
100
AcDbScale
 70
     0
300
3" = 1'-0"
140
3.0
141
12.0
290
     0
  0
SCALE
  5
52
102
{ACAD_REACTORS
330
42
102
}
330
42
100
AcDbScale
 70
     0
300
6" = 1'-0"
140
6.0
141
12.0
290
     0
  0
SCALE
  5
53
102
{ACAD_REACTORS
330
42
102
}
330
42
100
AcDbScale
 70
     0
300
1'-0" = 1'-0"
140
12.0
141
12.0
290
     0
  0
ACDBSECTIONVIEWSTYLE
  5
69
102
{ACAD_REACTORS
330
68
102
}
330
68
100
AcDbModelDocViewStyle
 70
     0
  3
Imperial24
290
     1
300
Imperial24
 90
        0
100
AcDbSectionViewStyle
 70
     0
 71
     0
 90
       78
 71
     1
340
55
 62
   256
 40
0.24
340
0
340
0
 62
   256
 40
0.24
300
I, O, Q, S, X, Z
 40
0.48
 90
        3
 40
0.18
 90
        1
 71
     2
340
5D
 90
       25
 62
   256
340
5D
 90
       50
 62
   256
 40
0.24
 40
0.0
 40
0.24
 71
     3
340
55
 62
   256
 40
0.24
 90
        1
 40
0.75
 90
        1
300
%<\AcVar ViewType \f "%tc1">% %<\AcVar ViewSectionStartId>%-%<\AcVar ViewSectionEndId>%\PSCALE %<\AcVar ViewScale \f "%sn">%
 71
     4
 62
   256
 62
   257
300
ANSI31
 40
1.0
 90
        0
290
     0
290
     0
 90
        6
 40
0.0
 40
1.570796326794896
 40
0.2617993877991494
 40
1.308996938995747
 40
-0.2617993877991494
 40
1.832595714594046
  0
ACDBSECTIONVIEWSTYLE
  5
396
102
{ACAD_REACTORS
330
68
102
}
330
68
100
AcDbModelDocViewStyle
 70
     0
  3
Metric50
290
     1
300
Metric50
 90
        0
100
AcDbSectionViewStyle
 70
     0
 71
     0
 90
      102
 71
     1
340
55
 62
   256
 40
5.0
340
0
340
0
 62
   256
 40
5.0
300
I, O, Q, S, X, Z
 40
10.0
 90
        0
 40
2.5
 90
        0
 71
     2
340
5D
 90
       25
 62
   256
340
5D
 90
       50
 62
   256
 40
5.0
 40
2.5
 40
5.0
 71
     3
340
55
 62
   256
 40
5.0
 90
        0
 40
15.0
 90
        1
300
%<\AcVar ViewSectionStartId>%-%<\AcVar ViewSectionEndId>% (%<\AcVar ViewScale \f "%sn">%)
 71
     4
 62
   256
 62
   257
300
ANSI31
 40
1.0
 90
        0
290
     0
290
     0
 90
        6
 40
0.0
 40
1.570796326794896
 40
0.2617993877991494
 40
1.308996938995747
 40
-0.2617993877991494
 40
1.832595714594046
  0
TABLESTYLE
  5
65
102
{ACAD_XDICTIONARY
360
477
102
}
102
{ACAD_REACTORS
330
64
102
}
330
64
100
AcDbTableStyle
280
     0
  3
Standard
 70
     0
 71
     0
 40
0.06
 41
0.06
280
     0
281
     0
  7
Standard
140
0.18
170
     2
 62
     0
 63
     7
283
     0
 90
      512
 91
        0
  1

274
    -2
284
     1
 64
     0
275
    -2
285
     1
 65
     0
276
    -2
286
     1
 66
     0
277
    -2
287
     1
 67
     0
278
    -2
288
     1
 68
     0
279
    -2
289
     1
 69
     0
  7
Standard
140
0.25
170
     5
 62
     0
 63
     7
283
     0
 90
      512
 91
        0
  1

274
    -2
284
     1
 64
     0
275
    -2
285
     1
 65
     0
276
    -2
286
     1
 66
     0
277
    -2
287
     1
 67
     0
278
    -2
288
     1
 68
     0
279
    -2
289
     1
 69
     0
  7
Standard
140
0.18
170
     5
 62
     0
 63
     7
283
     0
 90
      512
 91
        0
  1

274
    -2
284
     1
 64
     0
275
    -2
285
     1
 65
     0
276
    -2
286
     1
 66
     0
277
    -2
287
     1
 67
     0
278
    -2
288
     1
 68
     0
279
    -2
289
     1
 69
     0
  0
VISUALSTYLE
  5
2F
102
{ACAD_REACTORS
330
29
102
}
330
29
100
AcDbVisualStyle
  2
2dWireframe
 70
     4
177
     3
291
     0
 70
    58
 90
        0
176
     1
 90
        2
176
     1
 90
        0
176
     1
 90
        0
176
     1
 40
0.6
176
     1
 40
30.0
176
     1
 62
     7
420
 16777215
176
     1
 90
        1
176
     1
 90
        4
176
     1
 62
     7
176
     1
 62
   257
176
     1
 90
        1
176
     1
 90
        1
176
     1
 40
1.0
176
     1
 90
        0
176
     1
 62
   257
176
     1
 40
1.0
176
     1
 90
        1
176
     1
 90
        6
176
     1
 90
        2
176
     1
 62
     7
176
     1
 90
        5
176
     1
 90
        0
176
     1
 90
        0
176
     1
290
     0
176
     1
 90
        1
176
     1
 40
0.0
176
     1
 90
        0
176
     1
290
     1
176
     1
290
     1
176
     1
290
     0
176
     1
290
     0
176
     1
290
     0
176
     1
290
     0
176
     1
290
     0
176
     1
290
     0
176
     1
290
     0
176
     1
 90
       50
176
     1
 40
0.0
176
     1
 40
1.0
176
     1
 90
        0
176
     1
 62
    18
420
        0
176
     1
 90
       50
176
     1
 90
        3
176
     1
 62
     5
420
      255
176
     1
290
     0
176
     1
 90
       50
176
     1
 90
       50
176
     1
 90
       50
176
     1
290
     0
176
     1
 90
       50
176
     1
 62
   256
176
     0
 40
1.0
176
     0
 90
        2
176
     1
  1
strokes_ogs.tif
176
     1
290
     0
176
     1
 40
1.0
176
     1
 40
1.0
176
     1
  0
VISUALSTYLE
  5
2E
102
{ACAD_REACTORS
330
29
102
}
330
29
100
AcDbVisualStyle
  2
Basic
 70
     7
177
     3
291
     1
 70
    58
 90
        1
176
     1
 90
        0
176
     1
 90
        1
176
     1
 90
        0
176
     1
 40
0.6
176
     1
 40
30.0
176
     1
 62
     7
420
 16777215
176
     1
 90
        0
176
     1
 90
        4
176
     1
 62
     7
176
     1
 62
   257
176
     1
 90
        1
176
     1
 90
        1
176
     1
 40
1.0
176
     1
 90
        8
176
     1
 62
     7
176
     1
 40
1.0
176
     1
 90
        1
176
     1
 90
        6
176
     1
 90
        2
176
     1
 62
     7
176
     1
 90
        5
176
     1
 90
        0
176
     1
 90
        0
176
     1
290
     0
176
     1
 90
        1
176
     1
 40
0.0
176
     1
 90
        0
176
     1
290
     0
176
     1
290
     1
176
     1
290
     1
176
     1
290
     0
176
     1
290
     0
176
     1
290
     0
176
     1
290
     0
176
     1
290
     0
176
     1
290
     0
176
     1
 90
       50
176
     1
 40
0.0
176
     1
 40
1.0
176
     1
 90
        0
176
     1
 62
    18
420
        0
176
     1
 90
       50
176
     1
 90
        3
176
     1
 62
     5
420
      255
176
     1
290
     0
176
     1
 90
       50
176
     1
 90
       50
176
     1
 90
       50
176
     1
290
     0
176
     1
 90
       50
176
     1
 62
   256
176
     0
 40
1.0
176
     0
 90
        2
176
     1
  1
strokes_ogs.tif
176
     1
290
     0
176
     1
 40
1.0
176
     1
 40
1.0
176
     1
  0
VISUALSTYLE
  5
35
102
{ACAD_REACTORS
330
29
102
}
330
29
100
AcDbVisualStyle
  2
Brighten
 70
    12
177
     3
291
     1
 70
    58
 90
        2
176
     1
 90
        2
176
     1
 90
        0
176
     1
 90
        0
176
     1
 40
0.6
176
     1
 40
30.0
176
     1
 62
     7
420
 16777215
176
     1
 90
        1
176
     1
 90
        4
176
     1
 62
     7
176
     1
 62
   257
176
     1
 90
        1
176
     1
 90
        1
176
     1
 40
1.0
176
     1
 90
        8
176
     1
 62
     7
176
     1
 40
1.0
176
     1
 90
        1
176
     1
 90
        6
176
     1
 90
        2
176
     1
 62
     7
176
     1
 90
        5
176
     1
 90
        0
176
     1
 90
        0
176
     1
290
     0
176
     1
 90
        1
176
     1
 40
50.0
176
     1
 90
        0
176
     1
290
     0
176
     1
290
     1
176
     1
290
     1
176
     1
290
     0
176
     1
290
     0
176
     1
290
     0
176
     1
290
     0
176
     1
290
     0
176
     1
290
     0
176
     1
 90
       50
176
     1
 40
0.0
176
     1
 40
1.0
176
     1
 90
        0
176
     1
 62
    18
420
        0
176
     1
 90
       50
176
     1
 90
        3
176
     1
 62
     5
420
      255
176
     1
290
     0
176
     1
 90
       50
176
     1
 90
       50
176
     1
 90
       50
176
     1
290
     0
176
     1
 90
       50
176
     1
 62
   256
176
     0
 40
1.0
176
     0
 90
        2
176
     1
  1
strokes_ogs.tif
176
     1
290
     0
176
     1
 40
1.0
176
     1
 40
1.0
176
     1
  0
VISUALSTYLE
  5
39
102
{ACAD_REACTORS
330
29
102
}
330
29
100
AcDbVisualStyle
  2
ColorChange
 70
    16
177
     3
291
     1
 70
    58
 90
        2
176
     1
 90
        2
176
     1
 90
        3
176
     1
 90
        0
176
     1
 40
0.6
176
     1
 40
30.0
176
     1
 62
     8
420
  8421504
176
     1
 90
        1
176
     1
 90
        4
176
     1
 62
     7
176
     1
 62
   257
176
     1
 90
        1
176
     1
 90
        1
176
     1
 40
1.0
176
     1
 90
        8
176
     1
 62
     8
420
  8421504
176
     1
 40
1.0
176
     1
 90
        1
176
     1
 90
        6
176
     1
 90
        2
176
     1
 62
     7
176
     1
 90
        5
176
     1
 90
        0
176
     1
 90
        0
176
     1
290
     0
176
     1
 90
        1
176
     1
 40
0.0
176
     1
 90
        0
176
     1
290
     0
176
     1
290
     1
176
     1
290
     1
176
     1
290
     0
176
     1
290
     0
176
     1
290
     0
176
     1
290
     0
176
     1
290
     0
176
     1
290
     0
176
     1
 90
       50
176
     1
 40
0.0
176
     1
 40
1.0
176
     1
 90
        0
176
     1
 62
    18
420
        0
176
     1
 90
       50
176
     1
 90
        3
176
     1
 62
     5
420
      255
176
     1
290
     0
176
     1
 90
       50
176
     1
 90
       50
176
     1
 90
       50
176
     1
290
     0
176
     1
 90
       50
176
     1
 62
   256
176
     0
 40
1.0
176
     0
 90
        2
176
     1
  1
strokes_ogs.tif
176
     1
290
     0
176
     1
 40
1.0
176
     1
 40
1.0
176
     1
  0
VISUALSTYLE
  5
32
102
{ACAD_REACTORS
330
29
102
}
330
29
100
AcDbVisualStyle
  2
Conceptual
 70
     9
177
     3
291
     0
 70
    58
 90
        3
176
     1
 90
        2
176
     1
 90
        0
176
     1
 90
        0
176
     1
 40
0.6
176
     1
 40
30.0
176
     1
 62
     7
420
 16777215
176
     1
 90
        2
176
     1
 90
        2
176
     1
 62
     7
176
     1
 62
   257
176
     1
 90
        1
176
     1
 90
        1
176
     1
 40
179.0
176
     1
 90
        8
176
     1
 62
     7
176
     1
 40
1.0
176
     1
 90
        1
176
     1
 90
        6
176
     1
 90
        2
176
     1
 62
     7
176
     1
 90
        3
176
     1
 90
        0
176
     1
 90
        0
176
     1
290
     0
176
     1
 90
        1
176
     1
 40
0.0
176
     1
 90
        0
176
     1
290
     0
176
     1
290
     1
176
     1
290
     1
176
     1
290
     0
176
     1
290
     0
176
     1
290
     0
176
     1
290
     0
176
     1
290
     0
176
     1
290
     0
176
     1
 90
       50
176
     1
 40
0.0
176
     1
 40
1.0
176
     1
 90
        0
176
     1
 62
    18
420
        0
176
     1
 90
       50
176
     1
 90
        3
176
     1
 62
     5
420
      255
176
     1
290
     0
176
     1
 90
       50
176
     1
 90
       50
176
     1
 90
       50
176
     1
290
     0
176
     1
 90
       50
176
     1
 62
   256
176
     0
 40
1.0
176
     0
 90
        2
176
     1
  1
strokes_ogs.tif
176
     1
290
     0
176
     1
 40
1.0
176
     1
 40
1.0
176
     1
  0
VISUALSTYLE
  5
34
102
{ACAD_REACTORS
330
29
102
}
330
29
100
AcDbVisualStyle
  2
Dim
 70
    11
177
     3
291
     1
 70
    58
 90
        2
176
     1
 90
        2
176
     1
 90
        0
176
     1
 90
        0
176
     1
 40
0.6
176
     1
 40
30.0
176
     1
 62
     7
420
 16777215
176
     1
 90
        1
176
     1
 90
        4
176
     1
 62
     7
176
     1
 62
   257
176
     1
 90
        1
176
     1
 90
        1
176
     1
 40
1.0
176
     1
 90
        8
176
     1
 62
     7
176
     1
 40
1.0
176
     1
 90
        1
176
     1
 90
        6
176
     1
 90
        2
176
     1
 62
     7
176
     1
 90
        5
176
     1
 90
        0
176
     1
 90
        0
176
     1
290
     0
176
     1
 90
        1
176
     1
 40
-50.0
176
     1
 90
        0
176
     1
290
     0
176
     1
290
     1
176
     1
290
     1
176
     1
290
     0
176
     1
290
     0
176
     1
290
     0
176
     1
290
     0
176
     1
290
     0
176
     1
290
     0
176
     1
 90
       50
176
     1
 40
0.0
176
     1
 40
1.0
176
     1
 90
        0
176
     1
 62
    18
420
        0
176
     1
 90
       50
176
     1
 90
        3
176
     1
 62
     5
420
      255
176
     1
290
     0
176
     1
 90
       50
176
     1
 90
       50
176
     1
 90
       50
176
     1
290
     0
176
     1
 90
       50
176
     1
 62
   256
176
     0
 40
1.0
176
     0
 90
        2
176
     1
  1
strokes_ogs.tif
176
     1
290
     0
176
     1
 40
1.0
176
     1
 40
1.0
176
     1
  0
VISUALSTYLE
  5
41
102
{ACAD_REACTORS
330
29
102
}
330
29
100
AcDbVisualStyle
  2
EdgeColorOff
 70
    22
177
     3
291
     1
 70
    58
 90
        2
176
     0
 90
        2
176
     0
 90
        0
176
     0
 90
        0
176
     0
 40
0.6
176
     0
 40
30.0
176
     0
 62
     7
420
 16777215
176
     0
 90
        1
176
     0
 90
        4
176
     0
 62
     7
176
     0
 62
   257
176
     0
 90
        1
176
     0
 90
        1
176
     0
 40
1.0
176
     0
 90
        8
176
     2
 62
     7
176
     0
 40
1.0
176
     0
 90
        1
176
     0
 90
        6
176
     0
 90
        2
176
     0
 62
     7
176
     0
 90
        5
176
     0
 90
        0
176
     0
 90
        0
176
     0
290
     0
176
     0
 90
        1
176
     0
 40
0.0
176
     0
 90
        0
176
     0
290
     0
176
     0
290
     1
176
     0
290
     1
176
     0
290
     0
176
     0
290
     0
176
     0
290
     0
176
     0
290
     0
176
     0
290
     0
176
     0
290
     0
176
     0
 90
       50
176
     0
 40
0.0
176
     0
 40
1.0
176
     0
 90
        0
176
     0
 62
    18
420
        0
176
     0
 90
       50
176
     0
 90
        3
176
     0
 62
     5
420
      255
176
     0
290
     0
176
     0
 90
       50
176
     0
 90
       50
176
     0
 90
       50
176
     0
290
     0
176
     0
 90
       50
176
     0
 62
   256
176
     0
 40
1.0
176
     0
 90
        2
176
     0
  1
strokes_ogs.tif
176
     0
290
     0
176
     0
 40
1.0
176
     0
 40
1.0
176
     0
  0
VISUALSTYLE
  5
38
102
{ACAD_REACTORS
330
29
102
}
330
29
100
AcDbVisualStyle
  2
Facepattern
 70
    15
177
     3
291
     1
 70
    58
 90
        2
176
     1
 90
        2
176
     1
 90
        0
176
     1
 90
        0
176
     1
 40
0.6
176
     1
 40
30.0
176
     1
 62
     7
420
 16777215
176
     1
 90
        1
176
     1
 90
        4
176
     1
 62
     7
176
     1
 62
   257
176
     1
 90
        1
176
     1
 90
        1
176
     1
 40
1.0
176
     1
 90
        8
176
     1
 62
     7
176
     1
 40
1.0
176
     1
 90
        1
176
     1
 90
        6
176
     1
 90
        2
176
     1
 62
     7
176
     1
 90
        5
176
     1
 90
        0
176
     1
 90
        0
176
     1
290
     0
176
     1
 90
        1
176
     1
 40
0.0
176
     1
 90
        0
176
     1
290
     0
176
     1
290
     1
176
     1
290
     1
176
     1
290
     0
176
     1
290
     0
176
     1
290
     0
176
     1
290
     0
176
     1
290
     0
176
     1
290
     0
176
     1
 90
       50
176
     1
 40
0.0
176
     1
 40
1.0
176
     1
 90
        0
176
     1
 62
    18
420
        0
176
     1
 90
       50
176
     1
 90
        3
176
     1
 62
     5
420
      255
176
     1
290
     0
176
     1
 90
       50
176
     1
 90
       50
176
     1
 90
       50
176
     1
290
     0
176
     1
 90
       50
176
     1
 62
   256
176
     0
 40
1.0
176
     0
 90
        2
176
     1
  1
strokes_ogs.tif
176
     1
290
     0
176
     1
 40
1.0
176
     1
 40
1.0
176
     1
  0
VISUALSTYLE
  5
2A
102
{ACAD_REACTORS
330
29
102
}
330
29
100
AcDbVisualStyle
  2
Flat
 70
     0
177
     3
291
     1
 70
    58
 90
        2
176
     1
 90
        1
176
     1
 90
        1
176
     1
 90
        2
176
     1
 40
0.6
176
     1
 40
30.0
176
     1
 62
     7
420
 16777215
176
     1
 90
        0
176
     1
 90
        0
176
     1
 62
     7
176
     1
 62
   257
176
     1
 90
        1
176
     1
 90
        1
176
     1
 40
1.0
176
     1
 90
        8
176
     1
 62
     7
176
     1
 40
1.0
176
     1
 90
        1
176
     1
 90
        6
176
     1
 90
        2
176
     1
 62
     7
176
     1
 90
        5
176
     1
 90
        0
176
     1
 90
        0
176
     1
290
     0
176
     1
 90
       13
176
     1
 40
0.0
176
     1
 90
        0
176
     1
290
     0
176
     1
290
     1
176
     1
290
     1
176
     1
290
     0
176
     1
290
     0
176
     1
290
     0
176
     1
290
     0
176
     1
290
     0
176
     1
290
     0
176
     1
 90
       50
176
     1
 40
0.0
176
     1
 40
1.0
176
     1
 90
        0
176
     1
 62
    18
420
        0
176
     1
 90
       50
176
     1
 90
        3
176
     1
 62
     5
420
      255
176
     1
290
     0
176
     1
 90
       50
176
     1
 90
       50
176
     1
 90
       50
176
     1
290
     0
176
     1
 90
       50
176
     1
 62
   256
176
     0
 40
1.0
176
     0
 90
        2
176
     1
  1
strokes_ogs.tif
176
     1
290
     0
176
     1
 40
1.0
176
     1
 40
1.0
176
     1
  0
VISUALSTYLE
  5
2B
102
{ACAD_REACTORS
330
29
102
}
330
29
100
AcDbVisualStyle
  2
FlatWithEdges
 70
     1
177
     3
291
     1
 70
    58
 90
        2
176
     1
 90
        1
176
     1
 90
        1
176
     1
 90
        2
176
     1
 40
0.6
176
     1
 40
30.0
176
     1
 62
     7
420
 16777215
176
     1
 90
        1
176
     1
 90
        0
176
     1
 62
     7
176
     1
 62
   257
176
     1
 90
        1
176
     1
 90
        1
176
     1
 40
1.0
176
     1
 90
        0
176
     1
 62
   257
176
     1
 40
1.0
176
     1
 90
        1
176
     1
 90
        6
176
     1
 90
        2
176
     1
 62
     7
176
     1
 90
        5
176
     1
 90
        0
176
     1
 90
        0
176
     1
290
     0
176
     1
 90
       13
176
     1
 40
0.0
176
     1
 90
        0
176
     1
290
     0
176
     1
290
     1
176
     1
290
     1
176
     1
290
     0
176
     1
290
     0
176
     1
290
     0
176
     1
290
     0
176
     1
290
     0
176
     1
290
     0
176
     1
 90
       50
176
     1
 40
0.0
176
     1
 40
1.0
176
     1
 90
        0
176
     1
 62
    18
420
        0
176
     1
 90
       50
176
     1
 90
        3
176
     1
 62
     5
420
      255
176
     1
290
     0
176
     1
 90
       50
176
     1
 90
       50
176
     1
 90
       50
176
     1
290
     0
176
     1
 90
       50
176
     1
 62
   256
176
     0
 40
1.0
176
     0
 90
        2
176
     1
  1
strokes_ogs.tif
176
     1
290
     0
176
     1
 40
1.0
176
     1
 40
1.0
176
     1
  0
VISUALSTYLE
  5
2C
102
{ACAD_REACTORS
330
29
102
}
330
29
100
AcDbVisualStyle
  2
Gouraud
 70
     2
177
     3
291
     1
 70
    58
 90
        2
176
     1
 90
        2
176
     1
 90
        1
176
     1
 90
        2
176
     1
 40
0.6
176
     1
 40
30.0
176
     1
 62
     7
420
 16777215
176
     1
 90
        0
176
     1
 90
        0
176
     1
 62
     7
176
     1
 62
   257
176
     1
 90
        1
176
     1
 90
        1
176
     1
 40
1.0
176
     1
 90
        0
176
     1
 62
     7
176
     1
 40
1.0
176
     1
 90
        1
176
     1
 90
        6
176
     1
 90
        2
176
     1
 62
     7
176
     1
 90
        5
176
     1
 90
        0
176
     1
 90
        0
176
     1
290
     0
176
     1
 90
       13
176
     1
 40
0.0
176
     1
 90
        0
176
     1
290
     0
176
     1
290
     1
176
     1
290
     1
176
     1
290
     0
176
     1
290
     0
176
     1
290
     0
176
     1
290
     0
176
     1
290
     0
176
     1
290
     0
176
     1
 90
       50
176
     1
 40
0.0
176
     1
 40
1.0
176
     1
 90
        0
176
     1
 62
    18
420
        0
176
     1
 90
       50
176
     1
 90
        3
176
     1
 62
     5
420
      255
176
     1
290
     0
176
     1
 90
       50
176
     1
 90
       50
176
     1
 90
       50
176
     1
290
     0
176
     1
 90
       50
176
     1
 62
   256
176
     0
 40
1.0
176
     0
 90
        2
176
     1
  1
strokes_ogs.tif
176
     1
290
     0
176
     1
 40
1.0
176
     1
 40
1.0
176
     1
  0
VISUALSTYLE
  5
2D
102
{ACAD_REACTORS
330
29
102
}
330
29
100
AcDbVisualStyle
  2
GouraudWithEdges
 70
     3
177
     3
291
     1
 70
    58
 90
        2
176
     1
 90
        2
176
     1
 90
        1
176
     1
 90
        2
176
     1
 40
0.6
176
     1
 40
30.0
176
     1
 62
     7
420
 16777215
176
     1
 90
        1
176
     1
 90
        0
176
     1
 62
     7
176
     1
 62
   257
176
     1
 90
        1
176
     1
 90
        1
176
     1
 40
1.0
176
     1
 90
        0
176
     1
 62
   257
176
     1
 40
1.0
176
     1
 90
        1
176
     1
 90
        6
176
     1
 90
        2
176
     1
 62
     7
176
     1
 90
        5
176
     1
 90
        0
176
     1
 90
        0
176
     1
290
     0
176
     1
 90
       13
176
     1
 40
0.0
176
     1
 90
        0
176
     1
290
     0
176
     1
290
     1
176
     1
290
     1
176
     1
290
     0
176
     1
290
     0
176
     1
290
     0
176
     1
290
     0
176
     1
290
     0
176
     1
290
     0
176
     1
 90
       50
176
     1
 40
0.0
176
     1
 40
1.0
176
     1
 90
        0
176
     1
 62
    18
420
        0
176
     1
 90
       50
176
     1
 90
        3
176
     1
 62
     5
420
      255
176
     1
290
     0
176
     1
 90
       50
176
     1
 90
       50
176
     1
 90
       50
176
     1
290
     0
176
     1
 90
       50
176
     1
 62
   256
176
     0
 40
1.0
176
     0
 90
        2
176
     1
  1
strokes_ogs.tif
176
     1
290
     0
176
     1
 40
1.0
176
     1
 40
1.0
176
     1
  0
VISUALSTYLE
  5
31
102
{ACAD_REACTORS
330
29
102
}
330
29
100
AcDbVisualStyle
  2
Hidden
 70
     6
177
     3
291
     0
 70
    58
 90
        1
176
     1
 90
        2
176
     1
 90
        2
176
     1
 90
        0
176
     1
 40
0.6
176
     1
 40
30.0
176
     1
 62
     7
420
 16777215
176
     1
 90
        2
176
     1
 90
        2
176
     1
 62
     7
176
     1
 62
   257
176
     1
 90
        2
176
     1
 90
        1
176
     1
 40
40.0
176
     1
 90
        0
176
     1
 62
   257
176
     1
 40
1.0
176
     1
 90
        1
176
     1
 90
        6
176
     1
 90
        2
176
     1
 62
     7
176
     1
 90
        3
176
     1
 90
        0
176
     1
 90
        0
176
     1
290
     0
176
     1
 90
        1
176
     1
 40
0.0
176
     1
 90
        0
176
     1
290
     0
176
     1
290
     1
176
     1
290
     1
176
     1
290
     0
176
     1
290
     0
176
     1
290
     0
176
     1
290
     0
176
     1
290
     0
176
     1
290
     0
176
     1
 90
       50
176
     1
 40
0.0
176
     1
 40
1.0
176
     1
 90
        0
176
     1
 62
    18
420
        0
176
     1
 90
       50
176
     1
 90
        3
176
     1
 62
     5
420
      255
176
     1
290
     0
176
     1
 90
       50
176
     1
 90
       50
176
     1
 90
       50
176
     1
290
     0
176
     1
 90
       50
176
     1
 62
   256
176
     0
 40
1.0
176
     0
 90
        2
176
     1
  1
strokes_ogs.tif
176
     1
290
     0
176
     1
 40
1.0
176
     1
 40
1.0
176
     1
  0
VISUALSTYLE
  5
3F
102
{ACAD_REACTORS
330
29
102
}
330
29
100
AcDbVisualStyle
  2
JitterOff
 70
    20
177
     3
291
     1
 70
    58
 90
        2
176
     0
 90
        2
176
     0
 90
        0
176
     0
 90
        0
176
     0
 40
0.6
176
     0
 40
30.0
176
     0
 62
     7
420
 16777215
176
     0
 90
        1
176
     0
 90
        4
176
     0
 62
     7
176
     0
 62
   257
176
     0
 90
        1
176
     0
 90
        1
176
     0
 40
1.0
176
     0
 90
       10
176
     2
 62
     7
176
     0
 40
1.0
176
     0
 90
        1
176
     0
 90
        6
176
     0
 90
        2
176
     0
 62
     7
176
     0
 90
        5
176
     0
 90
        0
176
     0
 90
        0
176
     0
290
     0
176
     0
 90
        1
176
     0
 40
0.0
176
     0
 90
        0
176
     0
290
     0
176
     0
290
     1
176
     0
290
     1
176
     0
290
     0
176
     0
290
     0
176
     0
290
     0
176
     0
290
     0
176
     0
290
     0
176
     0
290
     0
176
     0
 90
       50
176
     0
 40
0.0
176
     0
 40
1.0
176
     0
 90
        0
176
     0
 62
    18
420
        0
176
     0
 90
       50
176
     0
 90
        3
176
     0
 62
     5
420
      255
176
     0
290
     0
176
     0
 90
       50
176
     0
 90
       50
176
     0
 90
       50
176
     0
290
     0
176
     0
 90
       50
176
     0
 62
   256
176
     0
 40
1.0
176
     0
 90
        2
176
     0
  1
strokes_ogs.tif
176
     0
290
     0
176
     0
 40
1.0
176
     0
 40
1.0
176
     0
  0
VISUALSTYLE
  5
37
102
{ACAD_REACTORS
330
29
102
}
330
29
100
AcDbVisualStyle
  2
Linepattern
 70
    14
177
     3
291
     1
 70
    58
 90
        2
176
     1
 90
        2
176
     1
 90
        0
176
     1
 90
        0
176
     1
 40
0.6
176
     1
 40
30.0
176
     1
 62
     7
420
 16777215
176
     1
 90
        1
176
     1
 90
        4
176
     1
 62
     7
176
     1
 62
   257
176
     1
 90
        7
176
     1
 90
        7
176
     1
 40
1.0
176
     1
 90
        8
176
     1
 62
     7
176
     1
 40
1.0
176
     1
 90
        1
176
     1
 90
        6
176
     1
 90
        2
176
     1
 62
     7
176
     1
 90
        5
176
     1
 90
        0
176
     1
 90
        0
176
     1
290
     0
176
     1
 90
        1
176
     1
 40
0.0
176
     1
 90
        0
176
     1
290
     0
176
     1
290
     1
176
     1
290
     1
176
     1
290
     0
176
     1
290
     0
176
     1
290
     0
176
     1
290
     0
176
     1
290
     0
176
     1
290
     0
176
     1
 90
       50
176
     1
 40
0.0
176
     1
 40
1.0
176
     1
 90
        0
176
     1
 62
    18
420
        0
176
     1
 90
       50
176
     1
 90
        3
176
     1
 62
     5
420
      255
176
     1
290
     0
176
     1
 90
       50
176
     1
 90
       50
176
     1
 90
       50
176
     1
290
     0
176
     1
 90
       50
176
     1
 62
   256
176
     0
 40
1.0
176
     0
 90
        2
176
     1
  1
strokes_ogs.tif
176
     1
290
     0
176
     1
 40
1.0
176
     1
 40
1.0
176
     1
  0
VISUALSTYLE
  5
40
102
{ACAD_REACTORS
330
29
102
}
330
29
100
AcDbVisualStyle
  2
OverhangOff
 70
    21
177
     3
291
     1
 70
    58
 90
        2
176
     0
 90
        2
176
     0
 90
        0
176
     0
 90
        0
176
     0
 40
0.6
176
     0
 40
30.0
176
     0
 62
     7
420
 16777215
176
     0
 90
        1
176
     0
 90
        4
176
     0
 62
     7
176
     0
 62
   257
176
     0
 90
        1
176
     0
 90
        1
176
     0
 40
1.0
176
     0
 90
        9
176
     2
 62
     7
176
     0
 40
1.0
176
     0
 90
        1
176
     0
 90
        6
176
     0
 90
        2
176
     0
 62
     7
176
     0
 90
        5
176
     0
 90
        0
176
     0
 90
        0
176
     0
290
     0
176
     0
 90
        1
176
     0
 40
0.0
176
     0
 90
        0
176
     0
290
     0
176
     0
290
     1
176
     0
290
     1
176
     0
290
     0
176
     0
290
     0
176
     0
290
     0
176
     0
290
     0
176
     0
290
     0
176
     0
290
     0
176
     0
 90
       50
176
     0
 40
0.0
176
     0
 40
1.0
176
     0
 90
        0
176
     0
 62
    18
420
        0
176
     0
 90
       50
176
     0
 90
        3
176
     0
 62
     5
420
      255
176
     0
290
     0
176
     0
 90
       50
176
     0
 90
       50
176
     0
 90
       50
176
     0
290
     0
176
     0
 90
       50
176
     0
 62
   256
176
     0
 40
1.0
176
     0
 90
        2
176
     0
  1
strokes_ogs.tif
176
     0
290
     0
176
     0
 40
1.0
176
     0
 40
1.0
176
     0
  0
VISUALSTYLE
  5
33
102
{ACAD_REACTORS
330
29
102
}
330
29
100
AcDbVisualStyle
  2
Realistic
 70
     8
177
     3
291
     0
 70
    58
 90
        2
176
     1
 90
        3
176
     1
 90
        0
176
     1
 90
        2
176
     1
 40
0.6
176
     1
 40
30.0
176
     1
 62
     7
420
 16777215
176
     1
 90
        0
176
     1
 90
        0
176
     1
 62
     7
176
     1
 62
   257
176
     1
 90
        1
176
     1
 90
        1
176
     1
 40
1.0
176
     1
 90
        8
176
     1
 62
   257
176
     1
 40
1.0
176
     1
 90
        1
176
     1
 90
        6
176
     1
 90
        2
176
     1
 62
     7
176
     1
 90
        3
176
     1
 90
        0
176
     1
 90
        0
176
     1
290
     0
176
     1
 90
       13
176
     1
 40
0.0
176
     1
 90
        0
176
     1
290
     0
176
     1
290
     1
176
     1
290
     1
176
     1
290
     0
176
     1
290
     0
176
     1
290
     0
176
     1
290
     0
176
     1
290
     0
176
     1
290
     0
176
     1
 90
       50
176
     1
 40
0.0
176
     1
 40
1.0
176
     1
 90
        0
176
     1
 62
    18
420
        0
176
     1
 90
       50
176
     1
 90
        3
176
     1
 62
     5
420
      255
176
     1
290
     0
176
     1
 90
       50
176
     1
 90
       50
176
     1
 90
       50
176
     1
290
     0
176
     1
 90
       50
176
     1
 62
   256
176
     0
 40
1.0
176
     0
 90
        2
176
     1
  1
strokes_ogs.tif
176
     1
290
     0
176
     1
 40
1.0
176
     1
 40
1.0
176
     1
  0
VISUALSTYLE
  5
3E
102
{ACAD_REACTORS
330
29
102
}
330
29
100
AcDbVisualStyle
  2
Shaded
 70
    27
177
     3
291
     0
 70
    58
 90
        2
176
     1
 90
        2
176
     1
 90
        1
176
     1
 90
        2
176
     1
 40
0.6
176
     1
 40
30.0
176
     1
 62
     7
420
 16777215
176
     1
 90
        0
176
     1
 90
        4
176
     1
 62
     7
176
     1
 62
   257
176
     1
 90
        1
176
     1
 90
        1
176
     1
 40
1.0
176
     1
 90
        8
176
     1
 62
   257
176
     1
 40
1.0
176
     1
 90
        1
176
     1
 90
        6
176
     1
 90
        2
176
     1
 62
     8
420
  7895160
176
     1
 90
        3
176
     1
 90
        0
176
     1
 90
        0
176
     1
290
     0
176
     1
 90
        5
176
     1
 40
0.0
176
     1
 90
        0
176
     1
290
     0
176
     1
290
     1
176
     1
290
     1
176
     1
290
     0
176
     1
290
     0
176
     1
290
     0
176
     1
290
     0
176
     1
290
     0
176
     1
290
     0
176
     1
 90
       50
176
     1
 40
0.0
176
     1
 40
1.0
176
     1
 90
        0
176
     1
 62
    18
420
        0
176
     1
 90
       50
176
     1
 90
        3
176
     1
 62
     5
420
      255
176
     1
290
     0
176
     1
 90
       50
176
     1
 90
       50
176
     1
 90
       50
176
     1
290
     0
176
     1
 90
       50
176
     1
 62
   256
176
     0
 40
1.0
176
     0
 90
        2
176
     1
  1
strokes_ogs.tif
176
     1
290
     0
176
     1
 40
1.0
176
     1
 40
1.0
176
     1
  0
VISUALSTYLE
  5
3D
102
{ACAD_REACTORS
330
29
102
}
330
29
100
AcDbVisualStyle
  2
Shaded with edges
 70
    26
177
     3
291
     0
 70
    58
 90
        2
176
     1
 90
        2
176
     1
 90
        1
176
     1
 90
        2
176
     1
 40
0.6
176
     1
 40
30.0
176
     1
 62
     7
420
 16777215
176
     1
 90
        1
176
     1
 90
        2
176
     1
 62
     7
176
     1
 62
   257
176
     1
 90
        2
176
     1
 90
        1
176
     1
 40
1.0
176
     1
 90
        8
176
     1
 62
   257
176
     1
 40
1.0
176
     1
 90
        1
176
     1
 90
        6
176
     1
 90
        2
176
     1
 62
     7
176
     1
 90
        3
176
     1
 90
        0
176
     1
 90
        0
176
     1
290
     0
176
     1
 90
        5
176
     1
 40
0.0
176
     1
 90
        0
176
     1
290
     0
176
     1
290
     1
176
     1
290
     1
176
     1
290
     0
176
     1
290
     0
176
     1
290
     0
176
     1
290
     0
176
     1
290
     0
176
     1
290
     0
176
     1
 90
       50
176
     1
 40
0.0
176
     1
 40
1.0
176
     1
 90
        0
176
     1
 62
    18
420
        0
176
     1
 90
       50
176
     1
 90
        3
176
     1
 62
     5
420
      255
176
     1
290
     0
176
     1
 90
       50
176
     1
 90
       50
176
     1
 90
       50
176
     1
290
     0
176
     1
 90
       50
176
     1
 62
   256
176
     0
 40
1.0
176
     0
 90
        2
176
     1
  1
strokes_ogs.tif
176
     1
290
     0
176
     1
 40
1.0
176
     1
 40
1.0
176
     1
  0
VISUALSTYLE
  5
3A
102
{ACAD_REACTORS
330
29
102
}
330
29
100
AcDbVisualStyle
  2
Shades of Gray
 70
    23
177
     3
291
     0
 70
    58
 90
        2
176
     1
 90
        2
176
     1
 90
        3
176
     1
 90
        0
176
     1
 40
0.6
176
     1
 40
30.0
176
     1
 62
     7
420
 16777215
176
     1
 90
        2
176
     1
 90
        2
176
     1
 62
     7
176
     1
 62
     7
176
     1
 90
        1
176
     1
 90
        1
176
     1
 40
40.0
176
     1
 90
        8
176
     1
 62
     7
176
     1
 40
1.0
176
     1
 90
        1
176
     1
 90
        6
176
     1
 90
        2
176
     1
 62
     7
176
     1
 90
        3
176
     1
 90
        0
176
     1
 90
        0
176
     1
290
     0
176
     1
 90
        1
176
     1
 40
0.0
176
     1
 90
        0
176
     1
290
     0
176
     1
290
     1
176
     1
290
     1
176
     1
290
     0
176
     1
290
     0
176
     1
290
     0
176
     1
290
     0
176
     1
290
     0
176
     1
290
     0
176
     1
 90
       50
176
     1
 40
0.0
176
     1
 40
1.0
176
     1
 90
        0
176
     1
 62
    18
420
        0
176
     1
 90
       50
176
     1
 90
        3
176
     1
 62
     5
420
      255
176
     1
290
     0
176
     1
 90
       50
176
     1
 90
       50
176
     1
 90
       50
176
     1
290
     0
176
     1
 90
       50
176
     1
 62
   256
176
     0
 40
1.0
176
     0
 90
        2
176
     1
  1
strokes_ogs.tif
176
     1
290
     0
176
     1
 40
1.0
176
     1
 40
1.0
176
     1
  0
VISUALSTYLE
  5
3B
102
{ACAD_REACTORS
330
29
102
}
330
29
100
AcDbVisualStyle
  2
Sketchy
 70
    24
177
     3
291
     0
 70
    58
 90
        1
176
     1
 90
        2
176
     1
 90
        2
176
     1
 90
        0
176
     1
 40
0.6
176
     1
 40
30.0
176
     1
 62
     7
420
 16777215
176
     1
 90
        2
176
     1
 90
        2
176
     1
 62
     7
176
     1
 62
     7
176
     1
 90
        1
176
     1
 90
        1
176
     1
 40
40.0
176
     1
 90
       11
176
     1
 62
     7
176
     1
 40
1.0
176
     1
 90
        1
176
     1
 90
        6
176
     1
 90
        2
176
     1
 62
     7
176
     1
 90
        6
176
     1
 90
        0
176
     1
 90
        0
176
     1
290
     0
176
     1
 90
        1
176
     1
 40
0.0
176
     1
 90
        0
176
     1
290
     0
176
     1
290
     1
176
     1
290
     1
176
     1
290
     0
176
     1
290
     0
176
     1
290
     0
176
     1
290
     0
176
     1
290
     0
176
     1
290
     0
176
     1
 90
       50
176
     1
 40
0.0
176
     1
 40
1.0
176
     1
 90
        0
176
     1
 62
    18
420
        0
176
     1
 90
       50
176
     1
 90
        3
176
     1
 62
     5
420
      255
176
     1
290
     0
176
     1
 90
       50
176
     1
 90
       50
176
     1
 90
       50
176
     1
290
     0
176
     1
 90
       50
176
     1
 62
   256
176
     0
 40
1.0
176
     0
 90
        2
176
     1
  1
strokes_ogs.tif
176
     1
290
     0
176
     1
 40
1.0
176
     1
 40
1.0
176
     1
  0
VISUALSTYLE
  5
36
102
{ACAD_REACTORS
330
29
102
}
330
29
100
AcDbVisualStyle
  2
Thicken
 70
    13
177
     3
291
     1
 70
    58
 90
        2
176
     1
 90
        2
176
     1
 90
        0
176
     1
 90
        0
176
     1
 40
0.6
176
     1
 40
30.0
176
     1
 62
     7
420
 16777215
176
     1
 90
        1
176
     1
 90
        4
176
     1
 62
     7
176
     1
 62
   257
176
     1
 90
        1
176
     1
 90
        1
176
     1
 40
1.0
176
     1
 90
       12
176
     1
 62
     7
176
     1
 40
1.0
176
     1
 90
        1
176
     1
 90
        6
176
     1
 90
        2
176
     1
 62
     7
176
     1
 90
        5
176
     1
 90
        0
176
     1
 90
        0
176
     1
290
     0
176
     1
 90
        1
176
     1
 40
0.0
176
     1
 90
        0
176
     1
290
     0
176
     1
290
     1
176
     1
290
     1
176
     1
290
     0
176
     1
290
     0
176
     1
290
     0
176
     1
290
     0
176
     1
290
     0
176
     1
290
     0
176
     1
 90
       50
176
     1
 40
0.0
176
     1
 40
1.0
176
     1
 90
        0
176
     1
 62
    18
420
        0
176
     1
 90
       50
176
     1
 90
        3
176
     1
 62
     5
420
      255
176
     1
290
     0
176
     1
 90
       50
176
     1
 90
       50
176
     1
 90
       50
176
     1
290
     0
176
     1
 90
       50
176
     1
 62
   256
176
     0
 40
1.0
176
     0
 90
        2
176
     1
  1
strokes_ogs.tif
176
     1
290
     0
176
     1
 40
1.0
176
     1
 40
1.0
176
     1
  0
VISUALSTYLE
  5
30
102
{ACAD_REACTORS
330
29
102
}
330
29
100
AcDbVisualStyle
  2
Wireframe
 70
     5
177
     3
291
     0
 70
    58
 90
        0
176
     1
 90
        2
176
     1
 90
        0
176
     1
 90
        0
176
     1
 40
0.6
176
     1
 40
30.0
176
     1
 62
     7
420
 16777215
176
     1
 90
        1
176
     1
 90
        4
176
     1
 62
     7
176
     1
 62
   257
176
     1
 90
        1
176
     1
 90
        1
176
     1
 40
1.0
176
     1
 90
        0
176
     1
 62
   257
176
     1
 40
1.0
176
     1
 90
        1
176
     1
 90
        6
176
     1
 90
        2
176
     1
 62
     7
176
     1
 90
        3
176
     1
 90
        0
176
     1
 90
        0
176
     1
290
     0
176
     1
 90
        1
176
     1
 40
0.0
176
     1
 90
        0
176
     1
290
     0
176
     1
290
     1
176
     1
290
     1
176
     1
290
     0
176
     1
290
     0
176
     1
290
     0
176
     1
290
     0
176
     1
290
     0
176
     1
290
     0
176
     1
 90
       50
176
     1
 40
0.0
176
     1
 40
1.0
176
     1
 90
        0
176
     1
 62
    18
420
        0
176
     1
 90
       50
176
     1
 90
        3
176
     1
 62
     5
420
      255
176
     1
290
     0
176
     1
 90
       50
176
     1
 90
       50
176
     1
 90
       50
176
     1
290
     0
176
     1
 90
       50
176
     1
 62
   256
176
     0
 40
1.0
176
     0
 90
        2
176
     1
  1
strokes_ogs.tif
176
     1
290
     0
176
     1
 40
1.0
176
     1
 40
1.0
176
     1
  0
VISUALSTYLE
  5
3C
102
{ACAD_REACTORS
330
29
102
}
330
29
100
AcDbVisualStyle
  2
X-Ray
 70
    25
177
     3
291
     0
 70
    58
 90
        2
176
     1
 90
        2
176
     1
 90
        1
176
     1
 90
        1
176
     1
 40
0.5
176
     1
 40
30.0
176
     1
 62
     7
420
 16777215
176
     1
 90
        1
176
     1
 90
        0
176
     1
 62
     7
176
     1
 62
   257
176
     1
 90
        1
176
     1
 90
        1
176
     1
 40
1.0
176
     1
 90
        8
176
     1
 62
     7
176
     1
 40
1.0
176
     1
 90
        1
176
     1
 90
        6
176
     1
 90
        2
176
     1
 62
     7
176
     1
 90
        3
176
     1
 90
        0
176
     1
 90
        0
176
     1
290
     0
176
     1
 90
       13
176
     1
 40
0.0
176
     1
 90
        0
176
     1
290
     0
176
     1
290
     1
176
     1
290
     1
176
     1
290
     0
176
     1
290
     0
176
     1
290
     0
176
     1
290
     0
176
     1
290
     0
176
     1
290
     0
176
     1
 90
       50
176
     1
 40
0.0
176
     1
 40
1.0
176
     1
 90
        0
176
     1
 62
    18
420
        0
176
     1
 90
       50
176
     1
 90
        3
176
     1
 62
     5
420
      255
176
     1
290
     0
176
     1
 90
       50
176
     1
 90
       50
176
     1
 90
       50
176
     1
290
     0
176
     1
 90
       50
176
     1
 62
   256
176
     0
 40
1.0
176
     0
 90
        2
176
     1
  1
strokes_ogs.tif
176
     1
290
     0
176
     1
 40
1.0
176
     1
 40
1.0
176
     1
  0
DICTIONARYVAR
  5
394
102
{ACAD_REACTORS
330
38F
102
}
330
38F
100
DictionaryVariables
280
     0
  1
1:1
  0
DICTIONARYVAR
  5
391
102
{ACAD_REACTORS
330
38F
102
}
330
38F
100
DictionaryVariables
280
     0
  1
STANDARD
  0
DICTIONARYVAR
  5
390
102
{ACAD_REACTORS
330
38F
102
}
330
38F
100
DictionaryVariables
280
     0
  1
STANDARD
  0
DICTIONARYVAR
  5
392
102
{ACAD_REACTORS
330
38F
102
}
330
38F
100
DictionaryVariables
280
     0
  1
Imperial24
  0
DICTIONARYVAR
  5
393
102
{ACAD_REACTORS
330
38F
102
}
330
38F
100
DictionaryVariables
280
     0
  1
Imperial24
  0
XRECORD
  5
38B
102
{ACAD_REACTORS
330
387
102
}
330
387
100
AcDbXrecord
280
     1
  1
BUILDING_ID
  1
Fazenda Caiçarinha de baixo,  Acarí, Rio Grande do Norte
  1
FLOOR_ID
  1
22584999
  0
XRECORD
  5
389
102
{ACAD_REACTORS
330
387
102
}
330
387
100
AcDbXrecord
280
     1
  1
-2000051
  1
Linhas
  1
-2000280
  1
Blocos de margens e carimbo
  1
-2002000
  1
Itens de detalhe
  0
XRECORD
  5
38A
102
{ACAD_REACTORS
330
387
102
}
330
387
100
AcDbXrecord
280
     1
  1
-2000042
  1
<Linhas finas>
  1
-2000281
  1
<Linhas finas>
  0
XRECORD
  5
388
102
{ACAD_REACTORS
330
387
102
}
330
387
100
AcDbXrecord
280
     1
  1
22586393
  1
A4 HORIZONTAL : A4
  1
383807
  1
Região preenchida : Marcenaria corte
  0
DICTIONARY
  5
1A
330
19
100
AcDbDictionary
280
     1
281
     1
  3
BUMPTILE
360
1C
  3
DIFFUSETILE
360
1B
  3
OPACITYTILE
360
1F
  3
REFLECTIONTILE
360
1E
  3
REFRACTIONTILE
360
20
  3
SPECULARTILE
360
1D
  0
DICTIONARY
  5
12
330
11
100
AcDbDictionary
280
     1
281
     1
  3
BUMPTILE
360
14
  3
DIFFUSETILE
360
13
  3
OPACITYTILE
360
17
  3
REFLECTIONTILE
360
16
  3
REFRACTIONTILE
360
18
  3
SPECULARTILE
360
15
  0
DICTIONARY
  5
22
330
21
100
AcDbDictionary
280
     1
281
     1
  3
BUMPTILE
360
24
  3
DIFFUSETILE
360
23
  3
OPACITYTILE
360
27
  3
REFLECTIONTILE
360
26
  3
REFRACTIONTILE
360
28
  3
SPECULARTILE
360
25
  0
DICTIONARY
  5
477
330
65
100
AcDbDictionary
280
     1
281
     1
  3
ACAD_ROUNDTRIP_2008_TABLESTYLE_CELLSTYLEMAP
360
478
  0
XRECORD
  5
1C
102
{ACAD_REACTORS
330
1A
102
}
330
1A
100
AcDbXrecord
280
     1
270
     1
271
     1
  0
XRECORD
  5
1B
102
{ACAD_REACTORS
330
1A
102
}
330
1A
100
AcDbXrecord
280
     1
270
     1
271
     1
  0
XRECORD
  5
1F
102
{ACAD_REACTORS
330
1A
102
}
330
1A
100
AcDbXrecord
280
     1
270
     1
271
     1
  0
XRECORD
  5
1E
102
{ACAD_REACTORS
330
1A
102
}
330
1A
100
AcDbXrecord
280
     1
270
     1
271
     1
  0
XRECORD
  5
20
102
{ACAD_REACTORS
330
1A
102
}
330
1A
100
AcDbXrecord
280
     1
270
     1
271
     1
  0
XRECORD
  5
1D
102
{ACAD_REACTORS
330
1A
102
}
330
1A
100
AcDbXrecord
280
     1
270
     1
271
     1
  0
XRECORD
  5
14
102
{ACAD_REACTORS
330
12
102
}
330
12
100
AcDbXrecord
280
     1
270
     1
271
     1
  0
XRECORD
  5
13
102
{ACAD_REACTORS
330
12
102
}
330
12
100
AcDbXrecord
280
     1
270
     1
271
     1
  0
XRECORD
  5
17
102
{ACAD_REACTORS
330
12
102
}
330
12
100
AcDbXrecord
280
     1
270
     1
271
     1
  0
XRECORD
  5
16
102
{ACAD_REACTORS
330
12
102
}
330
12
100
AcDbXrecord
280
     1
270
     1
271
     1
  0
XRECORD
  5
18
102
{ACAD_REACTORS
330
12
102
}
330
12
100
AcDbXrecord
280
     1
270
     1
271
     1
  0
XRECORD
  5
15
102
{ACAD_REACTORS
330
12
102
}
330
12
100
AcDbXrecord
280
     1
270
     1
271
     1
  0
XRECORD
  5
24
102
{ACAD_REACTORS
330
22
102
}
330
22
100
AcDbXrecord
280
     1
270
     1
271
     1
  0
XRECORD
  5
23
102
{ACAD_REACTORS
330
22
102
}
330
22
100
AcDbXrecord
280
     1
270
     1
271
     1
  0
XRECORD
  5
27
102
{ACAD_REACTORS
330
22
102
}
330
22
100
AcDbXrecord
280
     1
270
     1
271
     1
  0
XRECORD
  5
26
102
{ACAD_REACTORS
330
22
102
}
330
22
100
AcDbXrecord
280
     1
270
     1
271
     1
  0
XRECORD
  5
28
102
{ACAD_REACTORS
330
22
102
}
330
22
100
AcDbXrecord
280
     1
270
     1
271
     1
  0
XRECORD
  5
25
102
{ACAD_REACTORS
330
22
102
}
330
22
100
AcDbXrecord
280
     1
270
     1
271
     1
  0
CELLSTYLEMAP
  5
478
102
{ACAD_REACTORS
330
477
102
}
330
477
100
AcDbCellStyleMap
 90
        3
300
CELLSTYLE
  1
TABLEFORMAT_BEGIN
 90
        5
170
     1
 91
        0
 92
    32768
 62
   257
 93
        1
300
CONTENTFORMAT
  1
CONTENTFORMAT_BEGIN
 90
        0
 91
        0
 92
      512
 93
        0
300

 40
0.0
140
1.0
 94
        5
 62
     0
340
55
144
0.25
309
CONTENTFORMAT_END
171
     0
 94
        0
309
TABLEFORMAT_END
  1
CELLSTYLE_BEGIN
 90
        1
 91
        1
300
_TITLE
309
CELLSTYLE_END
300
CELLSTYLE
  1
TABLEFORMAT_BEGIN
 90
        5
170
     1
 91
        0
 92
        0
 62
   257
 93
        1
300
CONTENTFORMAT
  1
CONTENTFORMAT_BEGIN
 90
        0
 91
        0
 92
      512
 93
        0
300

 40
0.0
140
1.0
 94
        5
 62
     0
340
55
144
0.18
309
CONTENTFORMAT_END
171
     0
 94
        0
309
TABLEFORMAT_END
  1
CELLSTYLE_BEGIN
 90
        2
 91
        1
300
_HEADER
309
CELLSTYLE_END
300
CELLSTYLE
  1
TABLEFORMAT_BEGIN
 90
        5
170
     1
 91
        0
 92
        0
 62
   257
 93
        1
300
CONTENTFORMAT
  1
CONTENTFORMAT_BEGIN
 90
        0
 91
        0
 92
      512
 93
        0
300

 40
0.0
140
1.0
 94
        2
 62
     0
340
55
144
0.18
309
CONTENTFORMAT_END
171
     0
 94
        0
309
TABLEFORMAT_END
  1
CELLSTYLE_BEGIN
 90
        3
 91
        2
300
_DATA
309
CELLSTYLE_END
  0
ENDSEC
  0
SECTION
  2
ACDSDATA
 70
     2
 71
     8
  0
ACDSSCHEMA
 90
        0
  1
AcDb_Thumbnail_Schema
  2
AcDbDs::ID
280
    10
 91
        8
  2
Thumbnail_Data
280
    15
 91
        0
101
ACDSRECORD
 95
        0
 90
        1
  2
AcDbDs::TreatedAsObjectData
280
     1
291
     1
101
ACDSRECORD
 95
        0
 90
        2
  2
AcDbDs::Legacy
280
     1
291
     1
101
ACDSRECORD
  1
AcDbDs::ID
 90
        3
  2
AcDs:Indexable
280
     1
291
     1
101
ACDSRECORD
  1
AcDbDs::ID
 90
        4
  2
AcDbDs::HandleAttribute
280
     7
282
     1
  0
ACDSSCHEMA
 90
        1
  1
AcDbDs::TreatedAsObjectDataSchema
  2
AcDbDs::TreatedAsObjectData
280
     1
 91
        0
  0
ACDSSCHEMA
 90
        2
  1
AcDbDs::LegacySchema
  2
AcDbDs::Legacy
280
     1
 91
        0
  0
ACDSSCHEMA
 90
        3
  1
AcDbDs::IndexedPropertySchema
  2
AcDs:Indexable
280
     1
 91
        0
  0
ACDSSCHEMA
 90
        4
  1
AcDbDs::HandleAttributeSchema
  2
AcDbDs::HandleAttribute
280
     7
 91
        1
284
     1
  0
ACDSRECORD
 90
        0
  2
AcDbDs::ID
280
    10
320
77
  2
Thumbnail_Data
280
    15
 94
     1586
310
89504E470D0A1A0A0000000D4948445200000100000000B5080300000087DCD12600000300504C5445FFFFFFFFFFFFFFFFFF0000000000000000000000000000000000000000000000000000330000660000990000CC0000FF0033000033330033660033990033CC0033FF0066000066330066660066990066CC0066FF0099
310
000099330099660099990099CC0099FF00CC0000CC3300CC6600CC9900CCCC00CCFF00FF0000FF3300FF6600FF9900FFCC00FFFF3300003300333300663300993300CC3300FF3333003333333333663333993333CC3333FF3366003366333366663366993366CC3366FF3399003399333399663399993399CC3399FF33CC00
310
33CC3333CC6633CC9933CCCC33CCFF33FF0033FF3333FF6633FF9933FFCC33FFFF6600006600336600666600996600CC6600FF6633006633336633666633996633CC6633FF6666006666336666666666996666CC6666FF6699006699336699666699996699CC6699FF66CC0066CC3366CC6666CC9966CCCC66CCFF66FF0066
310
FF3366FF6666FF9966FFCC66FFFF9900009900339900669900999900CC9900FF9933009933339933669933999933CC9933FF9966009966339966669966999966CC9966FF9999009999339999669999999999CC9999FF99CC0099CC3399CC6699CC9999CCCC99CCFF99FF0099FF3399FF6699FF9999FFCC99FFFFCC0000CC00
310
33CC0066CC0099CC00CCCC00FFCC3300CC3333CC3366CC3399CC33CCCC33FFCC6600CC6633CC6666CC6699CC66CCCC66FFCC9900CC9933CC9966CC9999CC99CCCC99FFCCCC00CCCC33CCCC66CCCC99CCCCCCCCCCFFCCFF00CCFF33CCFF66CCFF99CCFFCCCCFFFFFF0000FF0033FF0066FF0099FF00CCFF00FFFF3300FF3333
310
FF3366FF3399FF33CCFF33FFFF6600FF6633FF6666FF6699FF66CCFF66FFFF9900FF9933FF9966FF9999FF99CCFF99FFFFCC00FFCC33FFCC66FFCC99FFCCCCFFCCFFFFFF00FFFF33FFFF66FFFF99FFFFCCFFFFFF0000000D0D0D1A1A1A2828283535354343435050505D5D5D6B6B6B787878868686939393A1A1A1AEAEAEBB
310
BBBBC9C9C9D6D6D6E4E4E4F1F1F1FFFFFF000000000000000000000000000000000000000000000000000000000000AD4AB4E4000002ED4944415478DAEDDC59928320108061EE7F995CC453F463CA434C9C288241166930D19FAA49AAE2027C6CAD99684691E753E4A6AFE3684673E7040000000000000000000000000000
310
0000000000E026B9523A0470A186060000000000000000000000000000000000000000000000000000000000000000000000000000000000000000000000000000000000000000802600B17FDABF3E40F2770BD70678D5FB6C815301D69A9F67701EC0A6CE67F583930042B5552490EF06D8ADA9C84343A0C8B13F40B49DDF
310
045277FA47495FEA0E902ADB52FEE321C5EB6F90EC69B52F802C256C1219D8032780DC95A523802DD0BB7CBBBBFD37DF8191F0EEFCC6C92047A01780DBAA6980F2C9C0EB356B06E969B50F80DF1B73009C0E5DBEACB819A424BB006C2A9207906B10D8C7CF204ED01E2055BE08C05C7823C9AB89C8291203A131804820F302
310
80542F086FFCC8602AC5CEE2D31240E6EA9B1A80B98D43C5B7AB5E06C0D40B8223A11D80D3F8B5006B8413EC1959006B8CD809605D95350096FB46121AFA9900E1D8A809C076E46B007891D46659CD06084C88FA0076E407F3AF0130763290D8E9E3005B3E6580BCE7961C06084FFB8500FE50D005B0517C1D40ED236162A7
310
D886669A0076D51B12B1DB71006356BFB470944A1BC05DF56A014CD6108B6C1F927B88EE24E84F7C0D01A6CDC3905C85D27B68028857FDE418BF1AC052FBDDE7537D7E540EE0CE015F06204B8C2DDEB71C9F3BE7034802603E3C3217F403581B7FBF0A3A00F66DF365521140E8F2416308C4ABA00D60E6FB03CE67D900F655
310
73120400000000002006501A085D0DA0381406A01D408B40E89700DA5C0D0200C0B13BA3B54F83FE0A809DF28D8DD317018CA724CD478A1F03E8D6D61D0C0F018CD749953D80C7EBFF7C0200000000000000000000000000000000000000000000000000000000000000000000000000000000000000000000000000000000
310
000000000000E683EEFE83895B240000000000000000000000000000000000B829C0F3CE6902B879FA03E951FAA2C6C682760000000049454E44AE426082
  0
ACDSRECORD
 90
        0
  2
AcDbDs::ID
280
    10
320
73
  2
Thumbnail_Data
280
    15
 94
     1252
310
89504E470D0A1A0A0000000D494844520000010000000065080300000095E2CD0900000300504C5445FFFFFFFFFFFFFFFFFF0000000000000000000000000000000000000000000000000000330000660000990000CC0000FF0033000033330033660033990033CC0033FF0066000066330066660066990066CC0066FF0099
310
000099330099660099990099CC0099FF00CC0000CC3300CC6600CC9900CCCC00CCFF00FF0000FF3300FF6600FF9900FFCC00FFFF3300003300333300663300993300CC3300FF3333003333333333663333993333CC3333FF3366003366333366663366993366CC3366FF3399003399333399663399993399CC3399FF33CC00
310
33CC3333CC6633CC9933CCCC33CCFF33FF0033FF3333FF6633FF9933FFCC33FFFF6600006600336600666600996600CC6600FF6633006633336633666633996633CC6633FF6666006666336666666666996666CC6666FF6699006699336699666699996699CC6699FF66CC0066CC3366CC6666CC9966CCCC66CCFF66FF0066
310
FF3366FF6666FF9966FFCC66FFFF9900009900339900669900999900CC9900FF9933009933339933669933999933CC9933FF9966009966339966669966999966CC9966FF9999009999339999669999999999CC9999FF99CC0099CC3399CC6699CC9999CCCC99CCFF99FF0099FF3399FF6699FF9999FFCC99FFFFCC0000CC00
310
33CC0066CC0099CC00CCCC00FFCC3300CC3333CC3366CC3399CC33CCCC33FFCC6600CC6633CC6666CC6699CC66CCCC66FFCC9900CC9933CC9966CC9999CC99CCCC99FFCCCC00CCCC33CCCC66CCCC99CCCCCCCCCCFFCCFF00CCFF33CCFF66CCFF99CCFFCCCCFFFFFF0000FF0033FF0066FF0099FF00CCFF00FFFF3300FF3333
310
FF3366FF3399FF33CCFF33FFFF6600FF6633FF6666FF6699FF66CCFF66FFFF9900FF9933FF9966FF9999FF99CCFF99FFFFCC00FFCC33FFCC66FFCC99FFCCCCFFCCFFFFFF00FFFF33FFFF66FFFF99FFFFCCFFFFFF0000000D0D0D1A1A1A2828283535354343435050505D5D5D6B6B6B787878868686939393A1A1A1AEAEAEBB
310
BBBBC9C9C9D6D6D6E4E4E4F1F1F1FFFFFF000000000000000000000000000000000000000000000000000000000000AD4AB4E40000019F4944415478DAED975BB282300C40BBFFCDB01156916F1771F522B5E90B5A1948E59C193F1C2A92933425CE010000000000C0C1C8939B877F5F054BE872D72A5099BF5F192401F729
310
18D35B61DBB72B18B383549EB9299C65F12C4355C19AB1A280DD65B02C752F01E37410F1D92A0BD8178D5FB30818438104C55A13B0194DB8515601F6FBA1A8BD5A17B0D127A6E04A20C0B20291A8556D09A89F1461CCA10067F44CF8CF996E7CDB029CA4ED3DD34123011615F8926D17A0BB818FAD26C05A15A87ED521C04D
310
EF8C176F9408F89CB576922F8A26015E819A1BEA027CD33132E9E6A90888574E9FDA4F4DCED99FBC155C1DFDF47CBC34D8CD57E126E666CBE7851F17A86BEA01192BB90B73F1CAF5E11F24E0759BD27DCAFF70590B58E5C759D35FF709F0A3D330022ADB50549B6E14A07AE018023EA7D13702E2117297005F8257CD3CD10C
310
70A480CC928C80E583000420C096809E63F09704F4BC08750AB0790A9C27E0DA37410420E0CBF1B632D9DA17903EF6E3283A9D9D1DFAC312A77A10C3380000000000000000000000000000000000000000000000000000C51FD06D6A3A2635B6F40000000049454E44AE426082
  0
ENDSEC
  0
EOF
