  0
SECTION
  2
HEADER
  9
$ACADVER
  1
AC1032
  9
$ACADMAINTVER
 90
      204
  9
$DWGCODEPAGE
  3
ANSI_1252
  9
$LASTSAVEDBY
  1
duda-
  9
$REQUIREDVERSIONS
160
                 0
  9
$INSBASE
 10
0.0
 20
0.0
 30
0.0
  9
$EXTMIN
 10
-60580.45347384687
 20
-9926.918045438444
 30
0.0
  9
$EXTMAX
 10
-35859.57707798354
 20
-3465.529602532539
 30
0.0
  9
$LIMMIN
 10
0.0
 20
0.0
  9
$LIMMAX
 10
12.0
 20
9.0
  9
$ORTHOMODE
 70
     0
  9
$REGENMODE
 70
     1
  9
$FILLMODE
 70
     1
  9
$QTEXTMODE
 70
     0
  9
$MIRRTEXT
 70
     0
  9
$LTSCALE
 40
1.0
  9
$ATTMODE
 70
     1
  9
$TEXTSIZE
 40
0.2
  9
$TRACEWID
 40
0.05
  9
$TEXTSTYLE
  7
Standard
  9
$CLAYER
  8
0
  9
$CELTYPE
  6
ByLayer
  9
$CECOLOR
 62
   256
  9
$CELTSCALE
 40
1.0
  9
$DISPSILH
 70
     0
  9
$DIMSCALE
 40
1.0
  9
$DIMASZ
 40
0.18
  9
$DIMEXO
 40
0.0625
  9
$DIMDLI
 40
0.38
  9
$DIMRND
 40
0.0
  9
$DIMDLE
 40
0.0
  9
$DIMEXE
 40
0.18
  9
$DIMTP
 40
0.0
  9
$DIMTM
 40
0.0
  9
$DIMTXT
 40
0.18
  9
$DIMCEN
 40
0.09
  9
$DIMTSZ
 40
0.0
  9
$DIMTOL
 70
     0
  9
$DIMLIM
 70
     0
  9
$DIMTIH
 70
     1
  9
$DIMTOH
 70
     1
  9
$DIMSE1
 70
     0
  9
$DIMSE2
 70
     0
  9
$DIMTAD
 70
     0
  9
$DIMZIN
 70
     0
  9
$DIMBLK
  1

  9
$DIMASO
 70
     1
  9
$DIMSHO
 70
     1
  9
$DIMPOST
  1

  9
$DIMAPOST
  1

  9
$DIMALT
 70
     0
  9
$DIMALTD
 70
     2
  9
$DIMALTF
 40
25.4
  9
$DIMLFAC
 40
1.0
  9
$DIMTOFL
 70
     0
  9
$DIMTVP
 40
0.0
  9
$DIMTIX
 70
     0
  9
$DIMSOXD
 70
     0
  9
$DIMSAH
 70
     0
  9
$DIMBLK1
  1

  9
$DIMBLK2
  1

  9
$DIMSTYLE
  2
Standard
  9
$DIMCLRD
 70
     0
  9
$DIMCLRE
 70
     0
  9
$DIMCLRT
 70
     0
  9
$DIMTFAC
 40
1.0
  9
$DIMGAP
 40
0.09
  9
$DIMJUST
 70
     0
  9
$DIMSD1
 70
     0
  9
$DIMSD2
 70
     0
  9
$DIMTOLJ
 70
     1
  9
$DIMTZIN
 70
     0
  9
$DIMALTZ
 70
     0
  9
$DIMALTTZ
 70
     0
  9
$DIMUPT
 70
     0
  9
$DIMDEC
 70
     4
  9
$DIMTDEC
 70
     4
  9
$DIMALTU
 70
     2
  9
$DIMALTTD
 70
     2
  9
$DIMTXSTY
  7
Standard
  9
$DIMAUNIT
 70
     0
  9
$DIMADEC
 70
     0
  9
$DIMALTRND
 40
0.0
  9
$DIMAZIN
 70
     0
  9
$DIMDSEP
 70
    46
  9
$DIMATFIT
 70
     3
  9
$DIMFRAC
 70
     0
  9
$DIMLDRBLK
  1

  9
$DIMLUNIT
 70
     2
  9
$DIMLWD
 70
    -2
  9
$DIMLWE
 70
    -2
  9
$DIMTMOVE
 70
     0
  9
$DIMFXL
 40
1.0
  9
$DIMFXLON
 70
     0
  9
$DIMJOGANG
 40
0.7853981633974483
  9
$DIMTFILL
 70
     0
  9
$DIMTFILLCLR
 70
     0
  9
$DIMARCSYM
 70
     0
  9
$DIMLTYPE
  6

  9
$DIMLTEX1
  6

  9
$DIMLTEX2
  6

  9
$DIMTXTDIRECTION
 70
     0
  9
$LUNITS
 70
     2
  9
$LUPREC
 70
     4
  9
$SKETCHINC
 40
0.1
  9
$FILLETRAD
 40
0.0
  9
$AUNITS
 70
     0
  9
$AUPREC
 70
     0
  9
$MENU
  1
.
  9
$ELEVATION
 40
0.0
  9
$PELEVATION
 40
0.0
  9
$THICKNESS
 40
0.0
  9
$LIMCHECK
 70
     0
  9
$CHAMFERA
 40
0.0
  9
$CHAMFERB
 40
0.0
  9
$CHAMFERC
 40
0.0
  9
$CHAMFERD
 40
0.0
  9
$SKPOLY
 70
     0
  9
$TDCREATE
 40
2460730.546273148
  9
$TDUCREATE
 40
2460730.671273148
  9
$TDUPDATE
 40
2460738.963784722
  9
$TDUUPDATE
 40
2460739.088784722
  9
$TDINDWG
 40
0.0152430556
  9
$TDUSRTIMER
 40
0.0152430556
  9
$USRTIMER
 70
     1
  9
$ANGBASE
 50
0.0
  9
$ANGDIR
 70
     0
  9
$PDMODE
 70
     0
  9
$PDSIZE
 40
0.0
  9
$PLINEWID
 40
0.0
  9
$SPLFRAME
 70
     0
  9
$SPLINETYPE
 70
     6
  9
$SPLINESEGS
 70
     8
  9
$HANDSEED
  5
3CF
  9
$SURFTAB1
 70
     6
  9
$SURFTAB2
 70
     6
  9
$SURFTYPE
 70
     6
  9
$SURFU
 70
     6
  9
$SURFV
 70
     6
  9
$UCSBASE
  2

  9
$UCSNAME
  2

  9
$UCSORG
 10
0.0
 20
0.0
 30
0.0
  9
$UCSXDIR
 10
1.0
 20
0.0
 30
0.0
  9
$UCSYDIR
 10
0.0
 20
1.0
 30
0.0
  9
$UCSORTHOREF
  2

  9
$UCSORTHOVIEW
 70
     0
  9
$UCSORGTOP
 10
0.0
 20
0.0
 30
0.0
  9
$UCSORGBOTTOM
 10
0.0
 20
0.0
 30
0.0
  9
$UCSORGLEFT
 10
0.0
 20
0.0
 30
0.0
  9
$UCSORGRIGHT
 10
0.0
 20
0.0
 30
0.0
  9
$UCSORGFRONT
 10
0.0
 20
0.0
 30
0.0
  9
$UCSORGBACK
 10
0.0
 20
0.0
 30
0.0
  9
$PUCSBASE
  2

  9
$PUCSNAME
  2

  9
$PUCSORG
 10
0.0
 20
0.0
 30
0.0
  9
$PUCSXDIR
 10
1.0
 20
0.0
 30
0.0
  9
$PUCSYDIR
 10
0.0
 20
1.0
 30
0.0
  9
$PUCSORTHOREF
  2

  9
$PUCSORTHOVIEW
 70
     0
  9
$PUCSORGTOP
 10
0.0
 20
0.0
 30
0.0
  9
$PUCSORGBOTTOM
 10
0.0
 20
0.0
 30
0.0
  9
$PUCSORGLEFT
 10
0.0
 20
0.0
 30
0.0
  9
$PUCSORGRIGHT
 10
0.0
 20
0.0
 30
0.0
  9
$PUCSORGFRONT
 10
0.0
 20
0.0
 30
0.0
  9
$PUCSORGBACK
 10
0.0
 20
0.0
 30
0.0
  9
$USERI1
 70
     0
  9
$USERI2
 70
     0
  9
$USERI3
 70
     0
  9
$USERI4
 70
     0
  9
$USERI5
 70
     0
  9
$USERR1
 40
0.0
  9
$USERR2
 40
0.0
  9
$USERR3
 40
0.0
  9
$USERR4
 40
0.0
  9
$USERR5
 40
0.0
  9
$WORLDVIEW
 70
     1
  9
$SHADEDGE
 70
     3
  9
$SHADEDIF
 70
    70
  9
$TILEMODE
 70
     1
  9
$MAXACTVP
 70
    64
  9
$PINSBASE
 10
0.0
 20
0.0
 30
0.0
  9
$PLIMCHECK
 70
     0
  9
$PEXTMIN
 10
20.78244708689817
 20
102.9945296609012
 30
-0.0000000349181948
  9
$PEXTMAX
 10
317.8116197884872
 20
313.0151568236408
 30
0.0000000814935746
  9
$PLIMMIN
 10
20.76884200533789
 20
102.9849099062627
  9
$PLIMMAX
 10
317.9612673821897
 20
313.1209682535316
  9
$UNITMODE
 70
     0
  9
$VISRETAIN
 70
     1
  9
$PLINEGEN
 70
     0
  9
$PSLTSCALE
 70
     0
  9
$TREEDEPTH
 70
  3020
  9
$CMLSTYLE
  2
Standard
  9
$CMLJUST
 70
     0
  9
$CMLSCALE
 40
1.0
  9
$PROXYGRAPHICS
 70
     1
  9
$MEASUREMENT
 70
     1
  9
$CELWEIGHT
370
    -1
  9
$ENDCAPS
280
     0
  9
$JOINSTYLE
280
     0
  9
$LWDISPLAY
290
     0
  9
$INSUNITS
 70
     4
  9
$HYPERLINKBASE
  1

  9
$STYLESHEET
  1

  9
$XEDIT
290
     1
  9
$CEPSNTYPE
380
     0
  9
$PSTYLEMODE
290
     1
  9
$FINGERPRINTGUID
  2
{D66DFAB7-1D30-B94A-8562-5188792F1C05}
  9
$VERSIONGUID
  2
{EDABC48E-566D-994B-BE62-58CBF0917321}
  9
$EXTNAMES
290
     1
  9
$PSVPSCALE
 40
0.0
  9
$OLESTARTUP
290
     0
  9
$SORTENTS
280
   127
  9
$INDEXCTL
280
     0
  9
$HIDETEXT
280
     1
  9
$XCLIPFRAME
280
     2
  9
$HALOGAP
280
     0
  9
$OBSCOLOR
 70
   257
  9
$OBSLTYPE
280
     0
  9
$INTERSECTIONDISPLAY
280
     0
  9
$INTERSECTIONCOLOR
 70
   257
  9
$DIMASSOC
280
     2
  9
$PROJECTNAME
  1

  9
$CAMERADISPLAY
290
     0
  9
$LENSLENGTH
 40
50.0
  9
$CAMERAHEIGHT
 40
0.0
  9
$STEPSPERSEC
 40
2.0
  9
$STEPSIZE
 40
6.0
  9
$3DDWFPREC
 40
2.0
  9
$PSOLWIDTH
 40
0.25
  9
$PSOLHEIGHT
 40
4.0
  9
$LOFTANG1
 40
1.570796326794896
  9
$LOFTANG2
 40
1.570796326794896
  9
$LOFTMAG1
 40
0.0
  9
$LOFTMAG2
 40
0.0
  9
$LOFTPARAM
 70
     7
  9
$LOFTNORMALS
280
     1
  9
$LATITUDE
 40
0.0
  9
$LONGITUDE
 40
0.0
  9
$NORTHDIRECTION
 40
0.0
  9
$TIMEZONE
 70
     0
  9
$LIGHTGLYPHDISPLAY
280
     1
  9
$TILEMODELIGHTSYNCH
280
     1
  9
$CMATERIAL
347
11
  9
$SOLIDHIST
280
     0
  9
$SHOWHIST
280
     1
  9
$DWFFRAME
280
     2
  9
$DGNFRAME
280
     0
  9
$REALWORLDSCALE
290
     1
  9
$INTERFERECOLOR
 62
     1
  9
$INTERFEREOBJVS
345
33
  9
$INTERFEREVPVS
346
30
  9
$CSHADOW
280
     0
  9
$SHADOWPLANELOCATION
 40
0.0
  0
ENDSEC
  0
SECTION
  2
CLASSES
  0
CLASS
  1
ACDBDICTIONARYWDFLT
  2
AcDbDictionaryWithDefault
  3
ObjectDBX Classes
 90
        0
 91
        1
280
     0
281
     0
  0
CLASS
  1
MATERIAL
  2
AcDbMaterial
  3
ObjectDBX Classes
 90
     1153
 91
        3
280
     0
281
     0
  0
CLASS
  1
VISUALSTYLE
  2
AcDbVisualStyle
  3
ObjectDBX Classes
 90
     4095
 91
       24
280
     0
281
     0
  0
CLASS
  1
SCALE
  2
AcDbScale
  3
ObjectDBX Classes
 90
     1153
 91
       17
280
     0
281
     0
  0
CLASS
  1
TABLESTYLE
  2
AcDbTableStyle
  3
ObjectDBX Classes
 90
     4095
 91
        1
280
     0
281
     0
  0
CLASS
  1
MLEADERSTYLE
  2
AcDbMLeaderStyle
  3
ACDB_MLEADERSTYLE_CLASS
 90
     4095
 91
        1
280
     0
281
     0
  0
CLASS
  1
ACDBSECTIONVIEWSTYLE
  2
AcDbSectionViewStyle
  3
ObjectDBX Classes
 90
     1025
 91
        2
280
     0
281
     0
  0
CLASS
  1
ACDBDETAILVIEWSTYLE
  2
AcDbDetailViewStyle
  3
ObjectDBX Classes
 90
     1025
 91
        2
280
     0
281
     0
  0
CLASS
  1
RASTERVARIABLES
  2
AcDbRasterVariables
  3
ISM
 90
        0
 91
        1
280
     0
281
     0
  0
CLASS
  1
DICTIONARYVAR
  2
AcDbDictionaryVar
  3
ObjectDBX Classes
 90
        0
 91
        5
280
     0
281
     0
  0
CLASS
  1
SORTENTSTABLE
  2
AcDbSortentsTable
  3
ObjectDBX Classes
 90
        0
 91
        1
280
     0
281
     0
  0
CLASS
  1
SUN
  2
AcDbSun
  3
SCENEOE
 90
     1153
 91
        1
280
     0
281
     0
  0
CLASS
  1
RAPIDRTRENDERSETTINGS
  2
AcDbRapidRTRenderSettings
  3
ObjectDBX Classes
 90
     1024
 91
        7
280
     0
281
     0
  0
CLASS
  1
CELLSTYLEMAP
  2
AcDbCellStyleMap
  3
ObjectDBX Classes
 90
     1152
 91
        1
280
     0
281
     0
  0
ENDSEC
  0
SECTION
  2
TABLES
  0
TABLE
  2
VPORT
  5
8
330
0
100
AcDbSymbolTable
 70
     1
  0
VPORT
  5
57
330
8
100
AcDbSymbolTableRecord
100
AcDbViewportTableRecord
  2
*Active
 70
     0
 10
0.0
 20
0.0
 11
1.0
 21
1.0
 12
-45063.05142475921
 22
-9783.759733528579
 13
0.0
 23
0.0
 14
1.0
 24
1.0
 15
0.0
 25
0.0
 16
0.0
 26
0.0
 36
1.0
 17
0.0
 27
0.0
 37
0.0
 40
15813.59161608447
 41
2.531208499335989
 42
50.0
 43
0.0
 44
0.0
 50
0.0
 51
0.0
 71
     0
 72
  1000
 73
     1
 74
     1
 75
     0
 76
     0
 77
     0
 78
     0
281
     0
 65
     1
110
0.0
120
0.0
130
0.0
111
1.0
121
0.0
131
0.0
112
0.0
122
1.0
132
0.0
 79
     0
146
0.0
348
2F
 60
     3
 61
     5
292
     1
282
     1
141
0.0
142
0.0
 63
   250
421
  3355443
361
2E8
1001
ACAD_NAV_VCDISPLAY
1070
     3
  0
ENDTAB
  0
TABLE
  2
LTYPE
  5
5
330
0
100
AcDbSymbolTable
 70
     1
  0
LTYPE
  5
5B
330
5
100
AcDbSymbolTableRecord
100
AcDbLinetypeTableRecord
  2
ByBlock
 70
     0
  3

 72
    65
 73
     0
 40
0.0
  0
LTYPE
  5
5C
330
5
100
AcDbSymbolTableRecord
100
AcDbLinetypeTableRecord
  2
ByLayer
 70
     0
  3

 72
    65
 73
     0
 40
0.0
  0
LTYPE
  5
5D
330
5
100
AcDbSymbolTableRecord
100
AcDbLinetypeTableRecord
  2
Continuous
 70
     0
  3
Solid line
 72
    65
 73
     0
 40
0.0
  0
ENDTAB
  0
TABLE
  2
LAYER
  5
2
102
{ACAD_XDICTIONARY
360
305
102
}
330
0
100
AcDbSymbolTable
 70
     8
  0
LAYER
  5
54
330
2
100
AcDbSymbolTableRecord
100
AcDbLayerTableRecord
  2
0
 70
     0
 62
   250
  6
Continuous
370
    25
390
F
347
21
348
0
  0
LAYER
  5
81
330
2
100
AcDbSymbolTableRecord
100
AcDbLayerTableRecord
  2
A-PIL-___-___-EXI
 70
     0
 62
   250
  6
Continuous
370
    25
390
F
347
21
348
0
  0
LAYER
  5
10A
330
2
100
AcDbSymbolTableRecord
100
AcDbLayerTableRecord
  2
A-COB-___-___-EXI
 70
     0
 62
   250
  6
Continuous
370
    25
390
F
347
21
348
0
  0
LAYER
  5
2D1
330
2
100
AcDbSymbolTableRecord
100
AcDbLayerTableRecord
  2
A-ALV-___-___-EXI
 70
     0
 62
   250
  6
Continuous
370
    35
390
F
347
21
348
0
  0
LAYER
  5
2D7
330
2
100
AcDbSymbolTableRecord
100
AcDbLayerTableRecord
  2
A-JAN-___-___-EXI
 70
     0
 62
   250
  6
Continuous
370
    25
390
F
347
21
348
0
  0
LAYER
  5
2D9
330
2
100
AcDbSymbolTableRecord
100
AcDbLayerTableRecord
  2
A-POR-___-___-EXI
 70
     0
 62
   250
  6
Continuous
370
    25
390
F
347
21
348
0
  0
LAYER
  5
376
330
2
100
AcDbSymbolTableRecord
100
AcDbLayerTableRecord
  2
A-BAS-___-___-EXI
 70
     0
 62
   250
  6
Continuous
370
    35
390
F
347
21
348
0
1001
AcAecLayerStandard
1000

1000

1001
AcCmTransparency
1071
        0
  0
LAYER
  5
3AC
330
2
100
AcDbSymbolTableRecord
100
AcDbLayerTableRecord
  2
A-ESC-___-___-EXI
 70
     0
 62
   250
  6
Continuous
370
    25
390
F
347
21
348
0
1001
AcAecLayerStandard
1000

1000

1001
AcCmTransparency
1071
        0
  0
ENDTAB
  0
TABLE
  2
STYLE
  5
3
330
0
100
AcDbSymbolTable
 70
     2
  0
STYLE
  5
55
330
3
100
AcDbSymbolTableRecord
100
AcDbTextStyleTableRecord
  2
Standard
 70
     0
 40
0.0
 41
1.0
 50
0.0
 71
     0
 42
0.2
  3
txt
  4

  0
STYLE
  5
5A
330
3
100
AcDbSymbolTableRecord
100
AcDbTextStyleTableRecord
  2
Annotative
 70
     0
 40
0.0
 41
1.0
 50
0.0
 71
     0
 42
0.2
  3
txt
  4

1001
AcadAnnotative
1000
AnnotativeData
1002
{
1070
     1
1070
     1
1002
}
  0
ENDTAB
  0
TABLE
  2
VIEW
  5
6
330
0
100
AcDbSymbolTable
 70
     0
  0
ENDTAB
  0
TABLE
  2
UCS
  5
7
330
0
100
AcDbSymbolTable
 70
     0
  0
ENDTAB
  0
TABLE
  2
APPID
  5
9
330
0
100
AcDbSymbolTable
 70
     8
  0
APPID
  5
56
330
9
100
AcDbSymbolTableRecord
100
AcDbRegAppTableRecord
  2
ACAD
 70
     0
  0
APPID
  5
5E
330
9
100
AcDbSymbolTableRecord
100
AcDbRegAppTableRecord
  2
AcadAnnotative
 70
     0
  0
APPID
  5
78
330
9
100
AcDbSymbolTableRecord
100
AcDbRegAppTableRecord
  2
REVIT
 70
     0
  0
APPID
  5
2F8
330
9
100
AcDbSymbolTableRecord
100
AcDbRegAppTableRecord
  2
ACAD_PSEXT
 70
     0
  0
APPID
  5
36E
330
9
100
AcDbSymbolTableRecord
100
AcDbRegAppTableRecord
  2
ACAD_NAV_VCDISPLAY
 70
     0
  0
APPID
  5
377
330
9
100
AcDbSymbolTableRecord
100
AcDbRegAppTableRecord
  2
AcAecLayerStandard
 70
     0
  0
APPID
  5
378
330
9
100
AcDbSymbolTableRecord
100
AcDbRegAppTableRecord
  2
AcCmTransparency
 70
     0
  0
APPID
  5
379
330
9
100
AcDbSymbolTableRecord
100
AcDbRegAppTableRecord
  2
ACAD_EXEMPT_FROM_CAD_STANDARDS
 70
     0
  0
ENDTAB
  0
TABLE
  2
DIMSTYLE
  5
A
330
0
100
AcDbSymbolTable
 70
     2
100
AcDbDimStyleTable
 71
     0
  0
DIMSTYLE
105
58
330
A
100
AcDbSymbolTableRecord
100
AcDbDimStyleTableRecord
  2
Standard
 70
     0
340
55
  0
DIMSTYLE
105
59
330
A
100
AcDbSymbolTableRecord
100
AcDbDimStyleTableRecord
  2
Annotative
 70
     0
340
55
1001
AcadAnnotative
1000
AnnotativeData
1002
{
1070
     1
1070
     1
1002
}
  0
ENDTAB
  0
TABLE
  2
BLOCK_RECORD
  5
1
330
0
100
AcDbSymbolTable
 70
     1
  0
BLOCK_RECORD
  5
70
102
{ACAD_XDICTIONARY
360
2E6
102
}
330
1
100
AcDbSymbolTableRecord
100
AcDbBlockTableRecord
  2
*Model_Space
340
73
 70
     0
280
     1
281
     0
  0
BLOCK_RECORD
  5
6C
330
1
100
AcDbSymbolTableRecord
100
AcDbBlockTableRecord
  2
*Paper_Space
340
6F
 70
     0
280
     1
281
     0
  0
BLOCK_RECORD
  5
2D8
330
1
100
AcDbSymbolTableRecord
100
AcDbBlockTableRecord
  2
A4 HORIZONTAL - A4-22688951-Não nomeada
340
0
102
{BLKREFS
331
2E0
102
}
 70
     0
280
     1
281
     0
  0
ENDTAB
  0
ENDSEC
  0
SECTION
  2
BLOCKS
  0
BLOCK
  5
71
330
70
100
AcDbEntity
  8
0
100
AcDbBlockBegin
  2
*Model_Space
 70
     0
 10
0.0
 20
0.0
 30
0.0
  3
*Model_Space
  1

  0
ENDBLK
  5
72
330
70
100
AcDbEntity
  8
0
100
AcDbBlockEnd
  0
BLOCK
  5
6D
330
6C
100
AcDbEntity
 67
     1
  8
0
100
AcDbBlockBegin
  2
*Paper_Space
 70
     0
 10
0.0
 20
0.0
 30
0.0
  3
*Paper_Space
  1

  0
ENDBLK
  5
6E
330
6C
100
AcDbEntity
 67
     1
  8
0
100
AcDbBlockEnd
  0
BLOCK
  5
2DE
330
2D8
100
AcDbEntity
  8
0
100
AcDbBlockBegin
  2
A4 HORIZONTAL - A4-22688951-Não nomeada
 70
     0
 10
0.0
 20
0.0
 30
0.0
  3
A4 HORIZONTAL - A4-22688951-Não nomeada
  1

  0
LINE
  5
2DA
330
2D8
100
AcDbEntity
  8
A-POR-___-___-EXI
100
AcDbLine
 10
317.7928507088368
 20
312.9999999999862
 30
0.0
 11
20.7928507088368
 21
312.9999999999856
 31
0.0
1001
REVIT
1002
{
1070
     1
1000
22687555
1002
}
1002
{
1070
     5
1000
22688951
1002
}
1002
{
1070
     3
1000
-2000281
1002
}
  0
LINE
  5
2DB
330
2D8
100
AcDbEntity
  8
A-POR-___-___-EXI
100
AcDbLine
 10
20.7928507088368
 20
312.9999999999856
 30
0.0
 11
20.7928507088372
 21
102.9999999999856
 31
0.0
1001
REVIT
1002
{
1070
     1
1000
22687555
1002
}
1002
{
1070
     5
1000
22688951
1002
}
1002
{
1070
     3
1000
-2000281
1002
}
  0
LINE
  5
2DC
330
2D8
100
AcDbEntity
  8
A-POR-___-___-EXI
100
AcDbLine
 10
20.7928507088372
 20
102.9999999999855
 30
0.0
 11
317.7928507088372
 21
102.9999999999861
 31
0.0
1001
REVIT
1002
{
1070
     1
1000
22687555
1002
}
1002
{
1070
     5
1000
22688951
1002
}
1002
{
1070
     3
1000
-2000281
1002
}
  0
LINE
  5
2DD
330
2D8
100
AcDbEntity
  8
A-POR-___-___-EXI
100
AcDbLine
 10
317.7928507088372
 20
102.9999999999861
 30
0.0
 11
317.7928507088368
 21
312.9999999999862
 31
0.0
1001
REVIT
1002
{
1070
     1
1000
22687555
1002
}
1002
{
1070
     5
1000
22688951
1002
}
1002
{
1070
     3
1000
-2000281
1002
}
  0
ENDBLK
  5
2DF
330
2D8
100
AcDbEntity
  8
0
100
AcDbBlockEnd
  0
ENDSEC
  0
SECTION
  2
ENTITIES
  0
HATCH
  5
93
330
70
100
AcDbEntity
  8
A-BAS-___-___-EXI
 62
   253
420
 13342872
100
AcDbHatch
 10
0.0
 20
0.0
 30
0.0
210
0.0
220
0.0
230
1.0
  2
SOLID
 70
     1
 71
     0
 91
        1
 92
        1
 93
       16
 72
     1
 10
-46711.57994907239
 20
-9926.918045438444
 11
-35859.57707798357
 21
-9926.918045438444
 72
     1
 10
-35859.57707798357
 20
-9926.918045438444
 11
-35859.57707798357
 21
-9333.48289187829
 72
     1
 10
-35859.57707798357
 20
-9333.48289187829
 11
-36839.84366942564
 21
-9333.48289187829
 72
     1
 10
-36839.84366942564
 20
-9333.48289187829
 11
-36839.84366942564
 21
-9226.918045438479
 72
     1
 10
-36839.84366942564
 20
-9226.918045438479
 11
-48962.11315243123
 21
-9226.918045438441
 72
     1
 10
-48962.11315243123
 20
-9226.918045438441
 11
-48962.11315243123
 21
-9231.918045438433
 72
     1
 10
-48962.11315243123
 20
-9231.918045438433
 11
-58988.94981819937
 21
-9231.918045438396
 72
     1
 10
-58988.94981819937
 20
-9231.918045438396
 11
-58988.94981819937
 21
-9386.724581422063
 72
     1
 10
-58988.94981819937
 20
-9386.724581422063
 11
-59297.45084977053
 21
-9386.724581422063
 72
     1
 10
-59297.45084977053
 20
-9386.724581422063
 11
-59297.45084977053
 21
-9589.349519317915
 72
     1
 10
-59297.45084977053
 20
-9589.349519317915
 11
-59613.2536809055
 21
-9589.349519317915
 72
     1
 10
-59613.2536809055
 20
-9589.349519317915
 11
-59613.2536809055
 21
-9782.299572791712
 72
     1
 10
-59613.2536809055
 20
-9782.299572791712
 11
-60580.45347384687
 21
-9782.299572791712
 72
     1
 10
-60580.45347384687
 20
-9782.299572791712
 11
-60580.45347384687
 21
-9926.918045438444
 72
     1
 10
-60580.45347384687
 20
-9926.918045438444
 11
-54879.0799490724
 21
-9926.918045438444
 72
     1
 10
-54879.0799490724
 20
-9926.918045438444
 11
-46711.57994907239
 21
-9926.918045438444
 97
        0
 75
     0
 76
     1
 98
        1
 10
0.0
 20
0.0
450
        0
451
        0
460
0.0
461
0.0
452
        0
462
0.0
453
        0
470

1001
REVIT
1002
{
1070
     1
1000
22685028
1002
}
1002
{
1070
     5
1000
383807
1002
}
1002
{
1070
     2
1000
-2002000
1002
}
  0
HATCH
  5
B2
330
70
100
AcDbEntity
  8
A-ALV-___-___-EXI
 62
    11
100
AcDbHatch
 10
0.0
 20
0.0
 30
0.0
210
0.0
220
0.0
230
1.0
  2
SOLID
 70
     1
 71
     0
 91
        5
 92
        1
 93
        4
 72
     1
 10
-36839.84366942564
 20
-9226.918045438479
 11
-36839.84366942564
 21
-6366.918045438475
 72
     1
 10
-36839.84366942564
 20
-6366.918045438475
 11
-37003.50751543659
 21
-6366.918045438475
 72
     1
 10
-37003.50751543659
 20
-6366.918045438475
 11
-37003.50751543659
 21
-9226.918045438479
 72
     1
 10
-37003.50751543659
 20
-9226.918045438479
 11
-36839.84366942564
 21
-9226.918045438479
 97
        0
 92
        1
 93
        7
 72
     1
 10
-45376.76343268138
 20
-9226.91804543845
 11
-44856.76343268139
 21
-9226.91804543845
 72
     1
 10
-44856.76343268139
 20
-9226.91804543845
 11
-44856.76343268139
 21
-6052.497008251829
 72
     1
 10
-44856.76343268139
 20
-6052.497008251829
 11
-45266.76343268139
 21
-5875.881840574198
 72
     1
 10
-45266.76343268139
 20
-5875.881840574198
 11
-45266.76343268139
 21
-6009.524017126014
 72
     1
 10
-45266.76343268139
 20
-6009.524017126014
 11
-45376.76343268138
 21
-6009.524017126014
 72
     1
 10
-45376.76343268138
 20
-6009.524017126014
 11
-45376.76343268138
 21
-6214.914269643574
 72
     1
 10
-45376.76343268138
 20
-6214.914269643574
 11
-45376.76343268138
 21
-9226.91804543845
 97
        0
 92
        1
 93
        5
 72
     1
 10
-52321.00752185548
 20
-7049.307721796406
 11
-52142.73280825419
 21
-7049.307721796406
 72
     1
 10
-52142.73280825419
 20
-7049.307721796406
 11
-52142.73280825419
 21
-4443.999216195333
 72
     1
 10
-52142.73280825419
 20
-4443.999216195333
 11
-52342.7328082542
 21
-4589.307721796404
 72
     1
 10
-52342.7328082542
 20
-4589.307721796404
 11
-52342.7328082542
 21
-7049.307721796406
 72
     1
 10
-52342.7328082542
 20
-7049.307721796406
 11
-52321.00752185548
 21
-7049.307721796406
 97
        0
 92
        1
 93
       10
 72
     1
 10
-56219.04747074287
 20
-6899.962461222933
 11
-56219.04747074287
 21
-6739.962461222934
 72
     1
 10
-56219.04747074287
 20
-6739.962461222934
 11
-56099.04747074287
 21
-6739.962461222934
 72
     1
 10
-56099.04747074287
 20
-6739.962461222934
 11
-56099.04747074287
 21
-6897.263384945597
 72
     1
 10
-56099.04747074287
 20
-6897.263384945597
 11
-55823.30129989944
 21
-6848.641895198861
 72
     1
 10
-55823.30129989944
 20
-6848.641895198861
 11
-55823.30129989944
 21
-6105.191799886821
 72
     1
 10
-55823.30129989944
 20
-6105.191799886821
 11
-55923.30129989946
 21
-6105.191799886821
 72
     1
 10
-55923.30129989946
 20
-6105.191799886821
 11
-55923.30129989946
 21
-5956.07733061561
 72
     1
 10
-55923.30129989946
 20
-5956.07733061561
 11
-56390.7851248104
 21
-6155.35812567451
 72
     1
 10
-56390.7851248104
 20
-6155.35812567451
 11
-56390.7851248104
 21
-6899.96246122293
 72
     1
 10
-56390.7851248104
 20
-6899.96246122293
 11
-56219.04747074287
 21
-6899.962461222933
 97
        0
 92
        1
 93
        4
 72
     1
 10
-48481.08531545829
 20
-6679.999756144816
 11
-48481.08531545829
 21
-4639.999756144814
 72
     1
 10
-48481.08531545829
 20
-4639.999756144814
 11
-48666.08531545828
 21
-4533.189956344744
 72
     1
 10
-48666.08531545828
 20
-4533.189956344744
 11
-48666.08531545828
 21
-6679.999756144816
 72
     1
 10
-48666.08531545828
 20
-6679.999756144816
 11
-48481.08531545829
 21
-6679.999756144816
 97
        0
 75
     0
 76
     1
 98
        1
 10
0.0
 20
0.0
450
        0
451
        0
460
0.0
461
0.0
452
        0
462
0.0
453
        0
470

1001
REVIT
1002
{
1070
     1
1000
22685045
1002
}
1002
{
1070
     5
1000
383807
1002
}
1002
{
1070
     2
1000
-2002000
1002
}
  0
HATCH
  5
109
330
70
100
AcDbEntity
  8
A-COB-___-___-EXI
 62
    33
420
 12688002
100
AcDbHatch
 10
0.0
 20
0.0
 30
0.0
210
0.0
220
0.0
230
1.0
  2
SOLID
 70
     1
 71
     0
 91
       16
 92
        1
 93
        4
 72
     1
 10
-52342.7328082542
 20
-7169.307721796404
 11
-52142.73280825419
 21
-7169.307721796404
 72
     1
 10
-52142.73280825419
 20
-7169.307721796404
 11
-52142.73280825419
 21
-7049.307721796406
 72
     1
 10
-52142.73280825419
 20
-7049.307721796406
 11
-52342.7328082542
 21
-7049.307721796406
 72
     1
 10
-52342.7328082542
 20
-7049.307721796406
 11
-52342.7328082542
 21
-7169.307721796404
 97
        0
 92
        1
 93
        4
 72
     1
 10
-56099.04747074287
 20
-6899.962461222933
 11
-56099.04747074287
 21
-6739.962461222934
 72
     1
 10
-56099.04747074287
 20
-6739.962461222934
 11
-56219.04747074287
 21
-6739.962461222934
 72
     1
 10
-56219.04747074287
 20
-6739.962461222934
 11
-56219.04747074287
 21
-6899.962461222933
 72
     1
 10
-56219.04747074287
 20
-6899.962461222933
 11
-56099.04747074287
 21
-6899.962461222933
 97
        0
 92
        1
 93
        4
 72
     1
 10
-52048.56101099902
 20
-6859.999756144816
 11
-52048.56101099902
 21
-6759.999756144805
 72
     1
 10
-52048.56101099902
 20
-6759.999756144805
 11
-52142.73280825419
 21
-6759.999756144805
 72
     1
 10
-52142.73280825419
 20
-6759.999756144805
 11
-52142.73280825419
 21
-6859.999756144816
 72
     1
 10
-52142.73280825419
 20
-6859.999756144816
 11
-52048.56101099902
 21
-6859.999756144816
 97
        0
 92
        1
 93
        4
 72
     1
 10
-51396.71666515533
 20
-6859.999756144816
 11
-51396.71666515533
 21
-6759.999756144806
 72
     1
 10
-51396.71666515533
 20
-6759.999756144806
 11
-51490.37018129993
 21
-6759.999756144806
 72
     1
 10
-51490.37018129993
 20
-6759.999756144806
 11
-51490.37018129993
 21
-6859.999756144816
 72
     1
 10
-51490.37018129993
 20
-6859.999756144816
 11
-51396.71666515533
 21
-6859.999756144816
 97
        0
 92
        1
 93
        4
 72
     1
 10
-48645.0477342686
 20
-6859.999756144816
 11
-48525.0477342686
 21
-6859.999756144816
 72
     1
 10
-48525.0477342686
 20
-6859.999756144816
 11
-48525.0477342686
 21
-6759.999756144818
 72
     1
 10
-48525.0477342686
 20
-6759.999756144818
 11
-48645.0477342686
 21
-6759.999756144818
 72
     1
 10
-48645.0477342686
 20
-6759.999756144818
 11
-48645.0477342686
 21
-6859.999756144816
 97
        0
 92
        1
 93
        4
 72
     1
 10
-50750.66613853074
 20
-6859.999756144816
 11
-50750.66613853074
 21
-6759.999756144809
 72
     1
 10
-50750.66613853074
 20
-6759.999756144809
 11
-50857.01843652547
 21
-6759.999756144809
 72
     1
 10
-50857.01843652547
 20
-6759.999756144809
 11
-50857.01843652547
 21
-6859.999756144816
 72
     1
 10
-50857.01843652547
 20
-6859.999756144816
 11
-50750.66613853074
 21
-6859.999756144816
 97
        0
 92
        1
 93
        4
 72
     1
 10
-50094.02346167622
 20
-6859.999756144816
 11
-50094.02346167622
 21
-6759.999756144811
 72
     1
 10
-50094.02346167622
 20
-6759.999756144811
 11
-50216.11604301105
 21
-6759.999756144811
 72
     1
 10
-50216.11604301105
 20
-6759.999756144811
 11
-50216.11604301105
 21
-6859.999756144816
 72
     1
 10
-50216.11604301105
 20
-6859.999756144816
 11
-50094.02346167622
 21
-6859.999756144816
 97
        0
 92
        1
 93
        4
 72
     1
 10
-48882.20097380307
 20
-6859.999756144816
 11
-48764.73724168952
 21
-6859.999756144816
 72
     1
 10
-48764.73724168952
 20
-6859.999756144816
 11
-48764.73724168952
 21
-6759.999756144814
 72
     1
 10
-48764.73724168952
 20
-6759.999756144814
 11
-48882.20097380307
 21
-6759.999756144814
 72
     1
 10
-48882.20097380307
 20
-6759.999756144814
 11
-48882.20097380307
 21
-6859.999756144816
 97
        0
 92
        1
 93
        4
 72
     1
 10
-49542.53763000905
 20
-6859.999756144816
 11
-49431.42328882053
 21
-6859.999756144816
 72
     1
 10
-49431.42328882053
 20
-6859.999756144816
 11
-49431.42328882053
 21
-6759.999756144813
 72
     1
 10
-49431.42328882053
 20
-6759.999756144813
 11
-49542.53763000905
 21
-6759.999756144813
 72
     1
 10
-49542.53763000905
 20
-6759.999756144813
 11
-49542.53763000905
 21
-6859.999756144816
 97
        0
 92
        1
 93
        4
 72
     1
 10
-55923.30129989946
 20
-6105.191799886821
 11
-55823.30129989944
 21
-6105.191799886821
 72
     1
 10
-55823.30129989944
 20
-6105.191799886821
 11
-55823.30129989944
 21
-5913.448947677043
 72
     1
 10
-55823.30129989944
 20
-5913.448947677043
 11
-55923.30129989946
 21
-5956.07733061561
 72
     1
 10
-55923.30129989946
 20
-5956.07733061561
 11
-55923.30129989946
 21
-6105.191799886821
 97
        0
 92
        1
 93
        4
 72
     1
 10
-45266.76343268139
 20
-6009.524017126014
 11
-45266.76343268139
 21
-5875.881840574198
 72
     1
 10
-45266.76343268139
 20
-5875.881840574198
 11
-45376.76343268138
 21
-5875.881840574198
 72
     1
 10
-45376.76343268138
 20
-5875.881840574198
 11
-45376.76343268138
 21
-6009.524017126014
 72
     1
 10
-45376.76343268138
 20
-6009.524017126014
 11
-45266.76343268139
 21
-6009.524017126014
 97
        0
 92
        1
 93
        5
 72
     1
 10
-46905.2010661224
 20
-5325.179717252691
 11
-46858.42710506615
 21
-5188.831089087585
 72
     1
 10
-46858.42710506615
 20
-5188.831089087585
 11
-46983.94821807637
 21
-5135.046278334268
 72
     1
 10
-46983.94821807637
 20
-5135.046278334268
 11
-47049.59501974045
 21
-5289.325951956674
 72
     1
 10
-47049.59501974045
 20
-5289.325951956674
 11
-46981.16873302646
 21
-5299.010196063396
 72
     1
 10
-46981.16873302646
 20
-5299.010196063396
 11
-46905.2010661224
 21
-5325.179717252691
 97
        0
 92
        1
 93
        5
 72
     1
 10
-54093.31120416267
 20
-5304.693433411607
 11
-53963.37601800857
 21
-5252.570047114296
 72
     1
 10
-53963.37601800857
 20
-5252.570047114296
 11
-54008.21133729913
 21
-5140.80283527072
 72
     1
 10
-54008.21133729913
 20
-5140.80283527072
 11
-54051.87159028672
 21
-5158.317107575772
 72
     1
 10
-54051.87159028672
 20
-5158.317107575772
 11
-54137.40366494161
 21
-5194.778047894959
 72
     1
 10
-54137.40366494161
 20
-5194.778047894959
 11
-54093.31120416267
 21
-5304.693433411607
 97
        0
 92
        1
 93
        4
 72
     1
 10
-48520.43118944733
 20
-4617.318183148369
 11
-48468.30967832986
 21
-4494.208545067577
 72
     1
 10
-48468.30967832986
 20
-4494.208545067577
 11
-48571.65938996773
 21
-4449.915992227195
 72
     1
 10
-48571.65938996773
 20
-4449.915992227195
 11
-48618.74204482985
 21
-4560.526251418721
 72
     1
 10
-48618.74204482985
 20
-4560.526251418721
 11
-48520.43118944733
 21
-4617.318183148369
 97
        0
 92
        1
 93
        4
 72
     1
 10
-52342.7328082542
 20
-4589.307721796401
 11
-52238.80975980007
 21
-4513.803207454514
 72
     1
 10
-52238.80975980007
 20
-4513.803207454514
 11
-52238.80975980007
 21
-4385.438167562912
 72
     1
 10
-52238.80975980007
 20
-4385.438167562912
 11
-52342.7328082542
 21
-4429.738882619374
 72
     1
 10
-52342.7328082542
 20
-4429.738882619374
 11
-52342.7328082542
 21
-4589.307721796401
 97
        0
 92
        1
 93
       24
 72
     1
 10
-50472.70066140963
 20
-3762.930176975079
 11
-50457.17151870347
 21
-3760.885726552423
 72
     1
 10
-50457.17151870347
 20
-3760.885726552423
 11
-50442.70066140962
 21
-3754.891701202144
 72
     1
 10
-50442.70066140962
 20
-3754.891701202144
 11
-50430.27425453842
 21
-3745.356583846271
 72
     1
 10
-50430.27425453842
 20
-3745.356583846271
 11
-50420.73913718255
 21
-3732.930176975077
 72
     1
 10
-50420.73913718255
 20
-3732.930176975077
 11
-50414.74511183227
 21
-3718.459319681229
 72
     1
 10
-50414.74511183227
 20
-3718.459319681229
 11
-50412.70066140961
 21
-3702.930176975076
 72
     1
 10
-50412.70066140961
 20
-3702.930176975076
 11
-50416.45121720405
 21
-3683.282131541539
 72
     1
 10
-50416.45121720405
 20
-3683.282131541539
 11
-50420.73913718255
 21
-3672.930176975074
 72
     1
 10
-50420.73913718255
 20
-3672.930176975074
 11
-50430.27425453842
 21
-3660.503770103882
 72
     1
 10
-50430.27425453842
 20
-3660.503770103882
 11
-50442.70066140962
 21
-3650.968652748008
 72
     1
 10
-50442.70066140962
 20
-3650.968652748008
 11
-50457.17151870347
 21
-3644.974627397728
 72
     1
 10
-50457.17151870347
 20
-3644.974627397728
 11
-50472.08252354915
 21
-3643.011556368259
 72
     1
 10
-50472.08252354915
 20
-3643.011556368259
 11
-50489.4531342232
 21
-3645.481347319491
 72
     1
 10
-50489.4531342232
 20
-3645.481347319491
 11
-50506.17686461725
 21
-3653.636037284919
 72
     1
 10
-50506.17686461725
 20
-3653.636037284919
 11
-50515.12706828082
 21
-3660.503770103882
 72
     1
 10
-50515.12706828082
 20
-3660.503770103882
 11
-50524.66218563668
 21
-3672.930176975074
 72
     1
 10
-50524.66218563668
 20
-3672.930176975074
 11
-50530.65621098696
 21
-3687.401034268923
 72
     1
 10
-50530.65621098696
 20
-3687.401034268923
 11
-50532.70066140961
 21
-3702.930176975076
 72
     1
 10
-50532.70066140961
 20
-3702.930176975076
 11
-50530.65621098696
 21
-3718.459319681227
 72
     1
 10
-50530.65621098696
 20
-3718.459319681227
 11
-50522.10816374701
 21
-3736.258643104495
 72
     1
 10
-50522.10816374701
 20
-3736.258643104495
 11
-50514.17142509064
 21
-3746.089874656967
 72
     1
 10
-50514.17142509064
 20
-3746.089874656967
 11
-50502.70066140962
 21
-3754.891701202144
 72
     1
 10
-50502.70066140962
 20
-3754.891701202144
 11
-50488.22980411576
 21
-3760.885726552423
 72
     1
 10
-50488.22980411576
 20
-3760.885726552423
 11
-50472.70066140963
 21
-3762.930176975079
 97
        0
 75
     0
 76
     1
 98
        1
 10
0.0
 20
0.0
450
        0
451
        0
460
0.0
461
0.0
452
        0
462
0.0
453
        0
470

1001
REVIT
1002
{
1070
     1
1000
22685462
1002
}
1002
{
1070
     5
1000
383807
1002
}
1002
{
1070
     2
1000
-2002000
1002
}
  0
LINE
  5
10F
330
70
100
AcDbEntity
  8
A-BAS-___-___-EXI
100
AcDbLine
 10
-37003.50751543655
 20
-9226.91804543847
 30
0.0
 11
-44856.76343268134
 21
-9226.918045438443
 31
0.0
1001
REVIT
1002
{
1070
     1
1000
22685028
1002
}
1002
{
1070
     5
1000
383807
1002
}
1002
{
1070
     2
1000
-2000051
1002
}
1002
{
1070
     3
1000
-2000042
1002
}
  0
LINE
  5
126
330
70
100
AcDbEntity
  8
A-COB-___-___-EXI
100
AcDbLine
 10
-52142.73280825414
 20
-7049.307721796397
 30
0.0
 11
-52142.73280825414
 21
-6859.999756144809
 31
0.0
1001
REVIT
1002
{
1070
     1
1000
22685045
1002
}
1002
{
1070
     5
1000
383807
1002
}
1002
{
1070
     2
1000
-2000051
1002
}
1002
{
1070
     3
1000
-2000042
1002
}
  0
LINE
  5
129
330
70
100
AcDbEntity
  8
A-ALV-___-___-EXI
100
AcDbLine
 10
-52342.73280825414
 20
-4589.307721796398
 30
0.0
 11
-52342.73280825414
 21
-7049.307721796397
 31
0.0
1001
REVIT
1002
{
1070
     1
1000
22685045
1002
}
1002
{
1070
     5
1000
383807
1002
}
1002
{
1070
     2
1000
-2000051
1002
}
1002
{
1070
     3
1000
-2000042
1002
}
  0
LINE
  5
12C
330
70
100
AcDbEntity
  8
A-ALV-___-___-EXI
100
AcDbLine
 10
-56390.78512481033
 20
-6155.358125674503
 30
0.0
 11
-56390.78512481033
 21
-6899.962461222924
 31
0.0
1001
REVIT
1002
{
1070
     1
1000
22685045
1002
}
1002
{
1070
     5
1000
383807
1002
}
1002
{
1070
     2
1000
-2000051
1002
}
1002
{
1070
     3
1000
-2000042
1002
}
  0
LINE
  5
12D
330
70
100
AcDbEntity
  8
A-ALV-___-___-EXI
100
AcDbLine
 10
-56390.78512481033
 20
-6899.962461222924
 30
0.0
 11
-56219.04747074281
 21
-6899.962461222924
 31
0.0
1001
REVIT
1002
{
1070
     1
1000
22685045
1002
}
1002
{
1070
     5
1000
383807
1002
}
1002
{
1070
     2
1000
-2000051
1002
}
1002
{
1070
     3
1000
-2000042
1002
}
  0
LINE
  5
16A
330
70
100
AcDbEntity
  8
A-COB-___-___-EXI
100
AcDbLine
 10
-56390.78512481033
 20
-6844.476152662524
 30
0.0
 11
-58536.36983692796
 21
-7069.986193027374
 31
0.0
1001
REVIT
1002
{
1070
     1
1000
22685126
1002
}
1002
{
1070
     2
1000
-2000051
1002
}
1002
{
1070
     3
1000
-2000042
1002
}
  0
LINE
  5
172
330
70
100
AcDbEntity
  8
A-COB-___-___-EXI
100
AcDbLine
 10
-52142.73280825414
 20
-5368.1049426317
 30
0.0
 11
-48702.73280825414
 21
-5368.104942631712
 31
0.0
1001
REVIT
1002
{
1070
     1
1000
22685135
1002
}
1002
{
1070
     2
1000
-2000051
1002
}
1002
{
1070
     3
1000
-2000042
1002
}
  0
LINE
  5
173
330
70
100
AcDbEntity
  8
A-COB-___-___-EXI
100
AcDbLine
 10
-48702.73280825414
 20
-5508.104942631712
 30
0.0
 11
-52142.73280825414
 21
-5508.104942631701
 31
0.0
1001
REVIT
1002
{
1070
     1
1000
22685136
1002
}
1002
{
1070
     2
1000
-2000051
1002
}
1002
{
1070
     3
1000
-2000042
1002
}
  0
LINE
  5
174
330
70
100
AcDbEntity
  8
A-POR-___-___-EXI
100
AcDbLine
 10
-51723.61604301101
 20
-6679.999756144797
 30
0.0
 11
-51723.61604301101
 21
-5508.104942631702
 31
0.0
1001
REVIT
1002
{
1070
     1
1000
22685137
1002
}
1002
{
1070
     2
1000
-2000051
1002
}
1002
{
1070
     3
1000
-2000042
1002
}
  0
LINE
  5
175
330
70
100
AcDbEntity
  8
A-COB-___-___-EXI
100
AcDbLine
 10
-52048.56101099897
 20
-6759.999756144797
 30
0.0
 11
-51490.37018129988
 21
-6759.999756144799
 31
0.0
1001
REVIT
1002
{
1070
     1
1000
22685138
1002
}
1002
{
1070
     2
1000
-2000051
1002
}
1002
{
1070
     3
1000
-2000042
1002
}
  0
LINE
  5
176
330
70
100
AcDbEntity
  8
A-COB-___-___-EXI
100
AcDbLine
 10
-51396.71666515527
 20
-6759.999756144799
 30
0.0
 11
-50857.0184365254
 21
-6759.9997561448
 31
0.0
1001
REVIT
1002
{
1070
     1
1000
22685138
1002
}
1002
{
1070
     2
1000
-2000051
1002
}
1002
{
1070
     3
1000
-2000042
1002
}
  0
LINE
  5
177
330
70
100
AcDbEntity
  8
A-COB-___-___-EXI
100
AcDbLine
 10
-50750.66613853069
 20
-6759.9997561448
 30
0.0
 11
-50216.11604301099
 21
-6759.999756144804
 31
0.0
1001
REVIT
1002
{
1070
     1
1000
22685138
1002
}
1002
{
1070
     2
1000
-2000051
1002
}
1002
{
1070
     3
1000
-2000042
1002
}
  0
LINE
  5
178
330
70
100
AcDbEntity
  8
A-COB-___-___-EXI
100
AcDbLine
 10
-50094.02346167617
 20
-6759.999756144804
 30
0.0
 11
-49542.53763000899
 21
-6759.999756144805
 31
0.0
1001
REVIT
1002
{
1070
     1
1000
22685138
1002
}
1002
{
1070
     2
1000
-2000051
1002
}
1002
{
1070
     3
1000
-2000042
1002
}
  0
LINE
  5
179
330
70
100
AcDbEntity
  8
A-COB-___-___-EXI
100
AcDbLine
 10
-49431.42328882048
 20
-6759.999756144805
 30
0.0
 11
-48882.20097380301
 21
-6759.999756144807
 31
0.0
1001
REVIT
1002
{
1070
     1
1000
22685138
1002
}
1002
{
1070
     2
1000
-2000051
1002
}
1002
{
1070
     3
1000
-2000042
1002
}
  0
LINE
  5
17A
330
70
100
AcDbEntity
  8
A-COB-___-___-EXI
100
AcDbLine
 10
-48764.73724168946
 20
-6759.999756144807
 30
0.0
 11
-48645.04773426855
 21
-6759.999756144809
 31
0.0
1001
REVIT
1002
{
1070
     1
1000
22685138
1002
}
1002
{
1070
     2
1000
-2000051
1002
}
1002
{
1070
     3
1000
-2000042
1002
}
  0
LINE
  5
17B
330
70
100
AcDbEntity
  8
A-COB-___-___-EXI
100
AcDbLine
 10
-48525.04773426854
 20
-6759.999756144809
 30
0.0
 11
-48481.08531545824
 21
-6759.999756144809
 31
0.0
1001
REVIT
1002
{
1070
     1
1000
22685138
1002
}
1002
{
1070
     2
1000
-2000051
1002
}
1002
{
1070
     3
1000
-2000042
1002
}
  0
LINE
  5
17D
330
70
100
AcDbEntity
  8
A-POR-___-___-EXI
100
AcDbLine
 10
-51823.61604301101
 20
-6679.999756144797
 30
0.0
 11
-51823.61604301101
 21
-5508.104942631702
 31
0.0
1001
REVIT
1002
{
1070
     1
1000
22685140
1002
}
1002
{
1070
     2
1000
-2000051
1002
}
1002
{
1070
     3
1000
-2000042
1002
}
  0
LINE
  5
17E
330
70
100
AcDbEntity
  8
A-POR-___-___-EXI
100
AcDbLine
 10
-50796.116043011
 20
-6679.999756144801
 30
0.0
 11
-50796.116043011
 21
-5508.104942631706
 31
0.0
1001
REVIT
1002
{
1070
     1
1000
22685141
1002
}
1002
{
1070
     2
1000
-2000051
1002
}
1002
{
1070
     3
1000
-2000042
1002
}
  0
LINE
  5
17F
330
70
100
AcDbEntity
  8
A-POR-___-___-EXI
100
AcDbLine
 10
-50896.11604301101
 20
-6679.999756144801
 30
0.0
 11
-50896.11604301101
 21
-5508.104942631706
 31
0.0
1001
REVIT
1002
{
1070
     1
1000
22685142
1002
}
1002
{
1070
     2
1000
-2000051
1002
}
1002
{
1070
     3
1000
-2000042
1002
}
  0
LINE
  5
186
330
70
100
AcDbEntity
  8
A-COB-___-___-EXI
100
AcDbLine
 10
-50216.11604301099
 20
-5508.104942631708
 30
0.0
 11
-50216.11604301099
 21
-6679.999756144802
 31
0.0
1001
REVIT
1002
{
1070
     1
1000
22685149
1002
}
1002
{
1070
     2
1000
-2000051
1002
}
1002
{
1070
     3
1000
-2000042
1002
}
  0
LINE
  5
187
330
70
100
AcDbEntity
  8
A-COB-___-___-EXI
100
AcDbLine
 10
-50076.11604301099
 20
-5508.104942631708
 30
0.0
 11
-50076.11604301099
 21
-6679.999756144802
 31
0.0
1001
REVIT
1002
{
1070
     1
1000
22685150
1002
}
1002
{
1070
     2
1000
-2000051
1002
}
1002
{
1070
     3
1000
-2000042
1002
}
  0
LINE
  5
18A
330
70
100
AcDbEntity
  8
A-COB-___-___-EXI
100
AcDbLine
 10
-45305.82889861663
 20
-5875.881840574191
 30
0.0
 11
-46905.20106612235
 21
-5325.173839375023
 31
0.0
1001
REVIT
1002
{
1070
     1
1000
22685153
1002
}
1002
{
1070
     2
1000
-2000051
1002
}
1002
{
1070
     3
1000
-2000042
1002
}
  0
LINE
  5
18B
330
70
100
AcDbEntity
  8
A-COB-___-___-EXI
100
AcDbLine
 10
-46981.17054241558
 20
-5299.015450920105
 30
0.0
 11
-48461.95906158325
 21
-5090.904196418561
 31
0.0
1001
REVIT
1002
{
1070
     1
1000
22685154
1002
}
1002
{
1070
     2
1000
-2000051
1002
}
1002
{
1070
     3
1000
-2000042
1002
}
  0
LINE
  5
18C
330
70
100
AcDbEntity
  8
A-COB-___-___-EXI
100
AcDbLine
 10
-37003.50751543655
 20
-6559.363903747651
 30
0.0
 11
-44856.76343268134
 21
-6559.363903747625
 31
0.0
1001
REVIT
1002
{
1070
     1
1000
22685180
1002
}
1002
{
1070
     2
1000
-2000051
1002
}
1002
{
1070
     3
1000
-2000042
1002
}
  0
LINE
  5
18D
330
70
100
AcDbEntity
  8
A-COB-___-___-EXI
100
AcDbLine
 10
-44856.76343268134
 20
-6419.363903747626
 30
0.0
 11
-37003.50751543655
 21
-6419.36390374765
 31
0.0
1001
REVIT
1002
{
1070
     1
1000
22685181
1002
}
1002
{
1070
     2
1000
-2000051
1002
}
1002
{
1070
     3
1000
-2000042
1002
}
  0
LINE
  5
18E
330
70
100
AcDbEntity
  8
A-COB-___-___-EXI
100
AcDbLine
 10
-44856.76343268134
 20
-6339.363903747625
 30
0.0
 11
-44436.76343268134
 21
-6339.363903747627
 31
0.0
1001
REVIT
1002
{
1070
     1
1000
22685182
1002
}
1002
{
1070
     2
1000
-2000051
1002
}
1002
{
1070
     3
1000
-2000042
1002
}
  0
LINE
  5
288
330
70
100
AcDbEntity
  8
A-COB-___-___-EXI
100
AcDbLine
 10
-56099.04747074281
 20
-6899.962461222924
 30
0.0
 11
-56099.04747074281
 21
-6739.962461222924
 31
0.0
1001
REVIT
1002
{
1070
     1
1000
22685462
1002
}
1002
{
1070
     5
1000
383807
1002
}
1002
{
1070
     2
1000
-2000051
1002
}
1002
{
1070
     3
1000
-2000042
1002
}
  0
LINE
  5
289
330
70
100
AcDbEntity
  8
A-COB-___-___-EXI
100
AcDbLine
 10
-56099.04747074281
 20
-6739.962461222924
 30
0.0
 11
-56219.04747074281
 21
-6739.962461222924
 31
0.0
1001
REVIT
1002
{
1070
     1
1000
22685462
1002
}
1002
{
1070
     5
1000
383807
1002
}
1002
{
1070
     2
1000
-2000051
1002
}
1002
{
1070
     3
1000
-2000042
1002
}
  0
LINE
  5
28A
330
70
100
AcDbEntity
  8
A-COB-___-___-EXI
100
AcDbLine
 10
-56219.04747074281
 20
-6739.962461222924
 30
0.0
 11
-56219.04747074281
 21
-6899.962461222924
 31
0.0
1001
REVIT
1002
{
1070
     1
1000
22685462
1002
}
1002
{
1070
     5
1000
383807
1002
}
1002
{
1070
     2
1000
-2000051
1002
}
1002
{
1070
     3
1000
-2000042
1002
}
  0
LINE
  5
28C
330
70
100
AcDbEntity
  8
A-COB-___-___-EXI
100
AcDbLine
 10
-52342.73280825414
 20
-7049.307721796397
 30
0.0
 11
-52342.73280825414
 21
-7169.307721796396
 31
0.0
1001
REVIT
1002
{
1070
     1
1000
22685462
1002
}
1002
{
1070
     5
1000
383807
1002
}
1002
{
1070
     2
1000
-2000051
1002
}
1002
{
1070
     3
1000
-2000042
1002
}
  0
LINE
  5
28D
330
70
100
AcDbEntity
  8
A-COB-___-___-EXI
100
AcDbLine
 10
-52342.73280825414
 20
-7169.307721796396
 30
0.0
 11
-52142.73280825414
 21
-7169.307721796396
 31
0.0
1001
REVIT
1002
{
1070
     1
1000
22685462
1002
}
1002
{
1070
     5
1000
383807
1002
}
1002
{
1070
     2
1000
-2000051
1002
}
1002
{
1070
     3
1000
-2000042
1002
}
  0
LINE
  5
28E
330
70
100
AcDbEntity
  8
A-COB-___-___-EXI
100
AcDbLine
 10
-52142.73280825414
 20
-7169.307721796396
 30
0.0
 11
-52142.73280825414
 21
-7049.307721796397
 31
0.0
1001
REVIT
1002
{
1070
     1
1000
22685462
1002
}
1002
{
1070
     5
1000
383807
1002
}
1002
{
1070
     2
1000
-2000051
1002
}
1002
{
1070
     3
1000
-2000042
1002
}
  0
LINE
  5
28F
330
70
100
AcDbEntity
  8
A-COB-___-___-EXI
100
AcDbLine
 10
-52142.73280825414
 20
-7049.307721796397
 30
0.0
 11
-52342.73280825414
 21
-7049.307721796397
 31
0.0
1001
REVIT
1002
{
1070
     1
1000
22685462
1002
}
1002
{
1070
     5
1000
383807
1002
}
1002
{
1070
     2
1000
-2000051
1002
}
1002
{
1070
     3
1000
-2000042
1002
}
  0
HATCH
  5
2AA
330
70
100
AcDbEntity
  8
A-COB-___-___-EXI
 62
     8
100
AcDbHatch
 10
0.0
 20
0.0
 30
0.0
210
0.0
220
0.0
230
1.0
  2
FP_1
 70
     0
 71
     0
 91
        1
 92
        1
 93
       14
 72
     1
 10
-58827.15192325822
 20
-7193.94189430497
 11
-50522.10816374701
 21
-3653.636037284919
 72
     1
 10
-50522.10816374701
 20
-3653.636037284919
 11
-50496.25141321174
 21
-3645.481347319491
 72
     1
 10
-50496.25141321174
 20
-3645.481347319491
 11
-50469.27969047552
 21
-3642.725138090059
 72
     1
 10
-50469.27969047552
 20
-3642.725138090059
 11
-50442.30796773931
 21
-3645.481347319508
 72
     1
 10
-50442.30796773931
 20
-3645.481347319508
 11
-50416.45121720405
 21
-3653.636037284953
 72
     1
 10
-50416.45121720405
 20
-3653.636037284953
 11
-44480.33925675622
 21
-6214.914269643574
 72
     1
 10
-44480.33925675622
 20
-6214.914269643574
 11
-44448.32498306898
 21
-6138.971152542464
 72
     1
 10
-44448.32498306898
 20
-6138.971152542464
 11
-50408.51447854772
 21
-3567.304088777971
 72
     1
 10
-50408.51447854772
 20
-3567.304088777971
 11
-50434.37122908297
 21
-3559.149398812524
 72
     1
 10
-50434.37122908297
 20
-3559.149398812524
 11
-50461.34295181919
 21
-3556.393189583076
 72
     1
 10
-50461.34295181919
 20
-3556.393189583076
 11
-50488.3146745554
 21
-3559.149398812506
 72
     1
 10
-50488.3146745554
 20
-3559.149398812506
 11
-50514.17142509064
 21
-3567.304088777922
 72
     1
 10
-50514.17142509064
 20
-3567.304088777922
 11
-58885.3091030921
 21
-7135.784714471097
 72
     1
 10
-58885.3091030921
 20
-7135.784714471097
 11
-58827.15192325822
 21
-7193.94189430497
 97
        0
 75
     0
 76
     2
 52
0.0
 41
1.0
 77
     0
 78
     1
 53
45.0
 43
0.0
 44
0.0
 45
-141.4213562373095
 46
141.4213562373095
 79
     0
 98
        1
 10
0.0
 20
0.0
1001
REVIT
1002
{
1070
     1
1000
22685534
1002
}
1002
{
1070
     5
1000
383807
1002
}
1002
{
1070
     2
1000
-2002000
1002
}
  0
LINE
  5
2BC
330
70
100
AcDbEntity
  8
A-ALV-___-___-EXI
100
AcDbLine
 10
-56390.78512481033
 20
-6576.046034817202
 30
0.0
 11
-56390.78512481033
 21
-9231.918045438396
 31
0.0
1001
REVIT
1002
{
1070
     1
1000
22685247
1002
}
1002
{
1070
     2
1000
-2000051
1002
}
1002
{
1070
     3
1000
-2000042
1002
}
  0
LINE
  5
2BD
330
70
100
AcDbEntity
  8
A-ALV-___-___-EXI
100
AcDbLine
 10
-55823.30129989939
 20
-6825.191799886815
 30
0.0
 11
-55823.30129989939
 21
-9231.918045438398
 31
0.0
1001
REVIT
1002
{
1070
     1
1000
22685248
1002
}
1002
{
1070
     2
1000
-2000051
1002
}
1002
{
1070
     3
1000
-2000042
1002
}
  0
LWPOLYLINE
  5
30A
330
70
100
AcDbEntity
  8
A-COB-___-___-EXI
100
AcDbPolyline
 90
       18
 70
     0
 43
0.0
 10
-44595.6416455172
 20
-5996.316381563687
 10
-44392.91837457338
 20
-6081.775584800287
 10
-44352.92351842863
 20
-6081.134116205284
 10
-44338.55640803565
 20
-6095.047639804829
 10
-44338.23567373814
 20
-6115.045067877206
 10
-44363.41174101844
 20
-6174.766835870218
 10
-44448.32498306895
 20
-6138.971152542456
 10
-44480.33925675616
 20
-6214.914269643568
 10
-50416.45121720399
 20
-3653.636037284951
 42
0.206534440978603
 10
-50522.10816374691
 20
-3653.636037284901
 10
-58827.15192325816
 20
-7193.941894304962
 10
-58885.30910309203
 20
-7135.784714471087
 10
-58922.42489309894
 20
-7150.673681174571
 10
-58946.23525694079
 20
-7091.318288557892
 10
-58945.56556825026
 20
-7071.329503775969
 10
-58930.95782156893
 20
-7057.66883992336
 10
-58890.9802520051
 20
-7059.008217304427
 10
-58742.48289640042
 20
-6999.43863296464
1001
REVIT
1002
{
1070
     1
1000
22685668
1002
}
1002
{
1070
     2
1000
-2000051
1002
}
1002
{
1070
     3
1000
-2000042
1002
}
  0
LWPOLYLINE
  5
30B
330
70
100
AcDbEntity
  8
A-POR-___-___-EXI
100
AcDbPolyline
 90
        4
 70
     1
 43
0.0
 10
-52242.73280825413
 20
-7169.307721796396
 10
-52242.73280825413
 20
-9231.91804543841
 10
-52279.06548953059
 20
-9231.91804543841
 10
-52279.06548953059
 20
-7169.307721796396
1001
REVIT
1002
{
1070
     1
1000
22685522
1002
}
1002
{
1070
     2
1000
-2000051
1002
}
1002
{
1070
     3
1000
-2000042
1002
}
  0
LWPOLYLINE
  5
30C
330
70
100
AcDbEntity
  8
A-ALV-___-___-EXI
100
AcDbPolyline
 90
        4
 70
     1
 43
0.0
 10
-52142.73280825414
 20
-7169.307721796396
 10
-52142.73280825414
 20
-9231.91804543841
 10
-52342.73280825414
 20
-9231.91804543841
 10
-52342.73280825414
 20
-7169.307721796396
1001
REVIT
1002
{
1070
     1
1000
22685518
1002
}
1002
{
1070
     2
1000
-2000051
1002
}
1002
{
1070
     3
1000
-2000042
1002
}
  0
LWPOLYLINE
  5
30D
330
70
100
AcDbEntity
  8
A-POR-___-___-EXI
100
AcDbPolyline
 90
        4
 70
     1
 43
0.0
 10
-56165.93917918371
 20
-6899.962461222924
 10
-56165.93917918371
 20
-9231.918045438396
 10
-56099.04747074281
 20
-9231.918045438396
 10
-56099.04747074281
 20
-6899.962461222924
1001
REVIT
1002
{
1070
     1
1000
22685253
1002
}
1002
{
1070
     2
1000
-2000051
1002
}
1002
{
1070
     3
1000
-2000042
1002
}
  0
LWPOLYLINE
  5
30E
330
70
100
AcDbEntity
  8
A-COB-___-___-EXI
100
AcDbPolyline
 90
        4
 70
     1
 43
0.0
 10
-50415.09565749666
 20
-4011.732339123963
 10
-50415.09565749666
 20
-5193.039948409809
 10
-50535.09565749664
 20
-5193.039948409809
 10
-50535.09565749664
 20
-4011.732339123963
1001
REVIT
1002
{
1070
     1
1000
22685246
1002
}
1002
{
1070
     2
1000
-2000051
1002
}
1002
{
1070
     3
1000
-2000042
1002
}
  0
LWPOLYLINE
  5
30F
330
70
100
AcDbEntity
  8
A-COB-___-___-EXI
100
AcDbPolyline
 90
        4
 70
     1
 43
0.0
 10
-50535.09565749664
 20
-5368.104942631706
 10
-50535.09565749664
 20
-3764.232339123964
 10
-50415.09565749666
 20
-3764.232339123964
 10
-50415.09565749666
 20
-5368.104942631706
1001
REVIT
1002
{
1070
     1
1000
22685242
1002
}
1002
{
1070
     2
1000
-2000051
1002
}
1002
{
1070
     3
1000
-2000042
1002
}
  0
LWPOLYLINE
  5
310
330
70
100
AcDbEntity
  8
A-COB-___-___-EXI
100
AcDbPolyline
 90
        4
 70
     0
 43
0.0
 10
-44448.32498306895
 20
-6138.971152542456
 10
-50408.51447854767
 20
-3567.304088777966
 42
0.2065344409786057
 10
-50514.17142509058
 20
-3567.304088777917
 10
-58885.30910309203
 20
-7135.784714471087
1001
REVIT
1002
{
1070
     1
1000
22685534
1002
}
1002
{
1070
     5
1000
383807
1002
}
1002
{
1070
     2
1000
-2000051
1002
}
1002
{
1070
     3
1000
-2000042
1002
}
  0
LWPOLYLINE
  5
311
330
70
100
AcDbEntity
  8
A-COB-___-___-EXI
100
AcDbPolyline
 90
        4
 70
     0
 43
0.0
 10
-50477.65741391258
 20
-3643.135272471226
 42
0.3901916154318423
 10
-50532.70066140957
 20
-3702.930176975072
 42
0.9999999999999774
 10
-50412.70066140955
 20
-3702.930176975073
 42
0.4111646258390039
 10
-50472.07541690942
 20
-3642.93343481922
1001
REVIT
1002
{
1070
     1
1000
22685462
1002
}
1002
{
1070
     5
1000
383807
1002
}
1002
{
1070
     2
1000
-2000051
1002
}
1002
{
1070
     3
1000
-2000042
1002
}
  0
LWPOLYLINE
  5
312
330
70
100
AcDbEntity
  8
A-COB-___-___-EXI
100
AcDbPolyline
 90
        5
 70
     0
 43
0.0
 10
-48520.00833574383
 20
-4471.901916291204
 10
-48571.65938996768
 20
-4449.915992227189
 10
-48618.74204482979
 20
-4560.526251418716
 10
-48520.43118944727
 20
-4617.318183148364
 10
-48468.07171997525
 20
-4494.311217921086
1001
REVIT
1002
{
1070
     1
1000
22685462
1002
}
1002
{
1070
     5
1000
383807
1002
}
1002
{
1070
     2
1000
-2000051
1002
}
1002
{
1070
     3
1000
-2000042
1002
}
  0
LWPOLYLINE
  5
313
330
70
100
AcDbEntity
  8
A-COB-___-___-EXI
100
AcDbPolyline
 90
        6
 70
     0
 43
0.0
 10
-46921.24080306156
 20
-5161.728608803904
 10
-46983.94821807633
 20
-5135.046278334264
 10
-47049.5950197404
 20
-5289.325951956668
 10
-46981.16873302642
 20
-5299.01019606339
 10
-46905.20106612235
 20
-5325.179717252685
 10
-46858.25669745875
 20
-5188.904615547026
1001
REVIT
1002
{
1070
     1
1000
22685462
1002
}
1002
{
1070
     5
1000
383807
1002
}
1002
{
1070
     2
1000
-2000051
1002
}
1002
{
1070
     3
1000
-2000042
1002
}
  0
LWPOLYLINE
  5
314
330
70
100
AcDbEntity
  8
A-COB-___-___-EXI
100
AcDbPolyline
 90
        4
 70
     0
 43
0.0
 10
-55923.3012998994
 20
-5956.077330615605
 10
-55923.3012998994
 20
-6105.191799886815
 10
-55823.30129989939
 20
-6105.191799886815
 10
-55823.30129989939
 20
-5913.448947677035
1001
REVIT
1002
{
1070
     1
1000
22685462
1002
}
1002
{
1070
     5
1000
383807
1002
}
1002
{
1070
     2
1000
-2000051
1002
}
1002
{
1070
     3
1000
-2000042
1002
}
  0
LWPOLYLINE
  5
315
330
70
100
AcDbEntity
  8
A-COB-___-___-EXI
100
AcDbPolyline
 90
        5
 70
     0
 43
0.0
 10
-54137.40366494155
 20
-5194.778047894953
 10
-54093.31120416262
 20
-5304.6934334116
 10
-53963.37601800852
 20
-5252.570047114289
 10
-54008.21133729907
 20
-5140.802835270713
 10
-54051.87159028665
 20
-5158.317107575761
1001
REVIT
1002
{
1070
     1
1000
22685462
1002
}
1002
{
1070
     5
1000
383807
1002
}
1002
{
1070
     2
1000
-2000051
1002
}
1002
{
1070
     3
1000
-2000042
1002
}
  0
LWPOLYLINE
  5
316
330
70
100
AcDbEntity
  8
A-COB-___-___-EXI
100
AcDbPolyline
 90
        4
 70
     0
 43
0.0
 10
-52342.73280825414
 20
-4429.738882619369
 10
-52342.73280825414
 20
-4589.307721796397
 10
-52238.80975980001
 20
-4513.803207454507
 10
-52238.80975980001
 20
-4385.438167562908
1001
REVIT
1002
{
1070
     1
1000
22685462
1002
}
1002
{
1070
     5
1000
383807
1002
}
1002
{
1070
     2
1000
-2000051
1002
}
1002
{
1070
     3
1000
-2000042
1002
}
  0
LWPOLYLINE
  5
317
330
70
100
AcDbEntity
  8
A-COB-___-___-EXI
100
AcDbPolyline
 90
        4
 70
     1
 43
0.0
 10
-52142.73280825414
 20
-6859.999756144809
 10
-52048.56101099897
 20
-6859.999756144809
 10
-52048.56101099897
 20
-6759.999756144797
 10
-52142.73280825414
 20
-6759.999756144797
1001
REVIT
1002
{
1070
     1
1000
22685462
1002
}
1002
{
1070
     5
1000
383807
1002
}
1002
{
1070
     2
1000
-2000051
1002
}
1002
{
1070
     3
1000
-2000042
1002
}
  0
LWPOLYLINE
  5
318
330
70
100
AcDbEntity
  8
A-COB-___-___-EXI
100
AcDbPolyline
 90
        4
 70
     1
 43
0.0
 10
-51490.37018129988
 20
-6859.999756144809
 10
-51396.71666515527
 20
-6859.999756144809
 10
-51396.71666515527
 20
-6759.999756144799
 10
-51490.37018129988
 20
-6759.999756144799
1001
REVIT
1002
{
1070
     1
1000
22685462
1002
}
1002
{
1070
     5
1000
383807
1002
}
1002
{
1070
     2
1000
-2000051
1002
}
1002
{
1070
     3
1000
-2000042
1002
}
  0
LWPOLYLINE
  5
319
330
70
100
AcDbEntity
  8
A-COB-___-___-EXI
100
AcDbPolyline
 90
        4
 70
     1
 43
0.0
 10
-50857.0184365254
 20
-6859.999756144809
 10
-50750.66613853069
 20
-6859.999756144809
 10
-50750.66613853069
 20
-6759.9997561448
 10
-50857.0184365254
 20
-6759.9997561448
1001
REVIT
1002
{
1070
     1
1000
22685462
1002
}
1002
{
1070
     5
1000
383807
1002
}
1002
{
1070
     2
1000
-2000051
1002
}
1002
{
1070
     3
1000
-2000042
1002
}
  0
LWPOLYLINE
  5
31A
330
70
100
AcDbEntity
  8
A-COB-___-___-EXI
100
AcDbPolyline
 90
        4
 70
     1
 43
0.0
 10
-50216.11604301099
 20
-6859.999756144809
 10
-50094.02346167617
 20
-6859.999756144809
 10
-50094.02346167617
 20
-6759.999756144804
 10
-50216.11604301099
 20
-6759.999756144804
1001
REVIT
1002
{
1070
     1
1000
22685462
1002
}
1002
{
1070
     5
1000
383807
1002
}
1002
{
1070
     2
1000
-2000051
1002
}
1002
{
1070
     3
1000
-2000042
1002
}
  0
LWPOLYLINE
  5
31B
330
70
100
AcDbEntity
  8
A-COB-___-___-EXI
100
AcDbPolyline
 90
        4
 70
     1
 43
0.0
 10
-49542.53763000899
 20
-6859.999756144809
 10
-49431.42328882048
 20
-6859.999756144809
 10
-49431.42328882048
 20
-6759.999756144805
 10
-49542.53763000899
 20
-6759.999756144805
1001
REVIT
1002
{
1070
     1
1000
22685462
1002
}
1002
{
1070
     5
1000
383807
1002
}
1002
{
1070
     2
1000
-2000051
1002
}
1002
{
1070
     3
1000
-2000042
1002
}
  0
LWPOLYLINE
  5
31C
330
70
100
AcDbEntity
  8
A-COB-___-___-EXI
100
AcDbPolyline
 90
        4
 70
     1
 43
0.0
 10
-48882.20097380302
 20
-6859.999756144809
 10
-48764.73724168946
 20
-6859.999756144809
 10
-48764.73724168946
 20
-6759.999756144807
 10
-48882.20097380302
 20
-6759.999756144807
1001
REVIT
1002
{
1070
     1
1000
22685462
1002
}
1002
{
1070
     5
1000
383807
1002
}
1002
{
1070
     2
1000
-2000051
1002
}
1002
{
1070
     3
1000
-2000042
1002
}
  0
LWPOLYLINE
  5
31D
330
70
100
AcDbEntity
  8
A-COB-___-___-EXI
100
AcDbPolyline
 90
        4
 70
     1
 43
0.0
 10
-48645.04773426855
 20
-6859.999756144809
 10
-48525.04773426854
 20
-6859.999756144809
 10
-48525.04773426854
 20
-6759.999756144809
 10
-48645.04773426855
 20
-6759.999756144809
1001
REVIT
1002
{
1070
     1
1000
22685462
1002
}
1002
{
1070
     5
1000
383807
1002
}
1002
{
1070
     2
1000
-2000051
1002
}
1002
{
1070
     3
1000
-2000042
1002
}
  0
LWPOLYLINE
  5
31E
330
70
100
AcDbEntity
  8
A-COB-___-___-EXI
100
AcDbPolyline
 90
        6
 70
     0
 43
0.0
 10
-58351.57845071808
 20
-6842.627656425368
 10
-58685.69750082864
 20
-6976.659221189887
 10
-58725.67507039246
 20
-6975.31984380882
 10
-58740.28281707378
 20
-6988.980507661428
 10
-58740.95250576432
 20
-7008.96929244335
 10
-58718.59012054028
 20
-7064.715108157644
1001
REVIT
1002
{
1070
     1
1000
22685449
1002
}
1002
{
1070
     2
1000
-2000051
1002
}
1002
{
1070
     3
1000
-2000042
1002
}
  0
LWPOLYLINE
  5
31F
330
70
100
AcDbEntity
  8
A-COB-___-___-EXI
100
AcDbPolyline
 90
        6
 70
     0
 43
0.0
 10
-57958.69899913274
 20
-6674.524407995257
 10
-58292.81804924329
 20
-6808.555972759776
 10
-58332.79561880711
 20
-6807.216595378711
 10
-58347.40336548844
 20
-6820.877259231316
 10
-58348.07305417897
 20
-6840.866044013241
 10
-58325.49653222395
 20
-6897.145668023203
1001
REVIT
1002
{
1070
     1
1000
22685443
1002
}
1002
{
1070
     2
1000
-2000051
1002
}
1002
{
1070
     3
1000
-2000042
1002
}
  0
LWPOLYLINE
  5
320
330
70
100
AcDbEntity
  8
A-COB-___-___-EXI
100
AcDbPolyline
 90
        6
 70
     0
 43
0.0
 10
-57565.81954754728
 20
-6506.421159565153
 10
-57899.93859765783
 20
-6640.452724329671
 10
-57939.91616722165
 20
-6639.113346948604
 10
-57954.52391390298
 20
-6652.774010801213
 10
-57955.19360259351
 20
-6672.762795583136
 10
-57932.40294390751
 20
-6729.576227888715
1001
REVIT
1002
{
1070
     1
1000
22685437
1002
}
1002
{
1070
     2
1000
-2000051
1002
}
1002
{
1070
     3
1000
-2000042
1002
}
  0
LWPOLYLINE
  5
321
330
70
100
AcDbEntity
  8
A-COB-___-___-EXI
100
AcDbPolyline
 90
        6
 70
     0
 43
0.0
 10
-57172.94009596194
 20
-6338.317911135037
 10
-57507.0591460725
 20
-6472.349475899555
 10
-57547.03671563632
 20
-6471.010098518489
 10
-57561.64446231765
 20
-6484.670762371097
 10
-57562.31415100818
 20
-6504.659547153021
 10
-57539.30935559119
 20
-6562.006787754278
1001
REVIT
1002
{
1070
     1
1000
22685431
1002
}
1002
{
1070
     2
1000
-2000051
1002
}
1002
{
1070
     3
1000
-2000042
1002
}
  0
LWPOLYLINE
  5
322
330
70
100
AcDbEntity
  8
A-COB-___-___-EXI
100
AcDbPolyline
 90
        6
 70
     0
 43
0.0
 10
-56780.06064437661
 20
-6170.214662704923
 10
-57114.17969448717
 20
-6304.246227469449
 10
-57154.15726405098
 20
-6302.906850088383
 10
-57168.76501073231
 20
-6316.567513940991
 10
-57169.43469942283
 20
-6336.556298722914
 10
-57146.21576727486
 20
-6394.437347619835
1001
REVIT
1002
{
1070
     1
1000
22685425
1002
}
1002
{
1070
     2
1000
-2000051
1002
}
1002
{
1070
     3
1000
-2000042
1002
}
  0
LWPOLYLINE
  5
323
330
70
100
AcDbEntity
  8
A-COB-___-___-EXI
100
AcDbPolyline
 90
        6
 70
     0
 43
0.0
 10
-56387.18119279115
 20
-6002.111414274813
 10
-56721.3002429017
 20
-6136.142979039336
 10
-56761.27781246552
 20
-6134.80360165827
 10
-56775.88555914685
 20
-6148.464265510877
 10
-56776.55524783737
 20
-6168.453050292803
 10
-56753.12217895842
 20
-6226.867907485349
1001
REVIT
1002
{
1070
     1
1000
22685419
1002
}
1002
{
1070
     2
1000
-2000051
1002
}
1002
{
1070
     3
1000
-2000042
1002
}
  0
LWPOLYLINE
  5
324
330
70
100
AcDbEntity
  8
A-COB-___-___-EXI
100
AcDbPolyline
 90
        6
 70
     0
 43
0.0
 10
-55994.3017412058
 20
-5834.008165844704
 10
-56328.42079131635
 20
-5968.039730609223
 10
-56368.39836088018
 20
-5966.700353228158
 10
-56383.00610756151
 20
-5980.361017080765
 10
-56383.67579625204
 20
-6000.349801862689
 10
-56360.02859064209
 20
-6059.298467350904
1001
REVIT
1002
{
1070
     1
1000
22685413
1002
}
1002
{
1070
     2
1000
-2000051
1002
}
1002
{
1070
     3
1000
-2000042
1002
}
  0
LWPOLYLINE
  5
325
330
70
100
AcDbEntity
  8
A-COB-___-___-EXI
100
AcDbPolyline
 90
        6
 70
     0
 43
0.0
 10
-55601.42228962048
 20
-5665.904917414597
 10
-55935.54133973103
 20
-5799.936482179116
 10
-55975.51890929485
 20
-5798.597104798051
 10
-55990.12665597618
 20
-5812.257768650657
 10
-55990.79634466671
 20
-5832.246553432582
 10
-55966.93500232577
 20
-5891.729027216468
1001
REVIT
1002
{
1070
     1
1000
22685407
1002
}
1002
{
1070
     2
1000
-2000051
1002
}
1002
{
1070
     3
1000
-2000042
1002
}
  0
LWPOLYLINE
  5
326
330
70
100
AcDbEntity
  8
A-COB-___-___-EXI
100
AcDbPolyline
 90
        6
 70
     0
 43
0.0
 10
-55208.54283803501
 20
-5497.801668984497
 10
-55542.66188814557
 20
-5631.833233749016
 10
-55582.63945770939
 20
-5630.49385636795
 10
-55597.24720439072
 20
-5644.154520220557
 10
-55597.91689308124
 20
-5664.143305002481
 10
-55573.84141400933
 20
-5724.159587081981
1001
REVIT
1002
{
1070
     1
1000
22685401
1002
}
1002
{
1070
     2
1000
-2000051
1002
}
1002
{
1070
     3
1000
-2000042
1002
}
  0
LWPOLYLINE
  5
327
330
70
100
AcDbEntity
  8
A-COB-___-___-EXI
100
AcDbPolyline
 90
        6
 70
     0
 43
0.0
 10
-54815.6633864497
 20
-5329.69842055439
 10
-55149.78243656026
 20
-5463.729985318909
 10
-55189.76000612408
 20
-5462.390607937845
 10
-55204.36775280541
 20
-5476.051271790451
 10
-55205.03744149594
 20
-5496.040056572374
 10
-55180.90749722081
 20
-5556.192111609494
1001
REVIT
1002
{
1070
     1
1000
22685395
1002
}
1002
{
1070
     2
1000
-2000051
1002
}
1002
{
1070
     3
1000
-2000042
1002
}
  0
LWPOLYLINE
  5
328
330
70
100
AcDbEntity
  8
A-COB-___-___-EXI
100
AcDbPolyline
 90
        6
 70
     0
 43
0.0
 10
-54422.78393486421
 20
-5161.595172124284
 10
-54756.90298497476
 20
-5295.626736888802
 10
-54796.88055453858
 20
-5294.287359507737
 10
-54811.48830121991
 20
-5307.948023360345
 10
-54812.15798991044
 20
-5327.936808142268
 10
-54788.02804563532
 20
-5388.088863179389
1001
REVIT
1002
{
1070
     1
1000
22685389
1002
}
1002
{
1070
     2
1000
-2000051
1002
}
1002
{
1070
     3
1000
-2000042
1002
}
  0
LWPOLYLINE
  5
329
330
70
100
AcDbEntity
  8
A-COB-___-___-EXI
100
AcDbPolyline
 90
        6
 70
     0
 43
0.0
 10
-54029.9044832789
 20
-4993.491923694178
 10
-54364.02353338945
 20
-5127.523488458697
 10
-54404.00110295327
 20
-5126.184111077631
 10
-54418.6088496346
 20
-5139.844774930239
 10
-54419.27853832513
 20
-5159.833559712162
 10
-54395.14859405001
 20
-5219.985614749283
1001
REVIT
1002
{
1070
     1
1000
22685383
1002
}
1002
{
1070
     2
1000
-2000051
1002
}
1002
{
1070
     3
1000
-2000042
1002
}
  0
LWPOLYLINE
  5
32A
330
70
100
AcDbEntity
  8
A-COB-___-___-EXI
100
AcDbPolyline
 90
        6
 70
     0
 43
0.0
 10
-53637.02503169356
 20
-4825.388675264075
 10
-53971.14408180411
 20
-4959.420240028593
 10
-54011.12165136794
 20
-4958.080862647527
 10
-54025.72939804927
 20
-4971.741526500135
 10
-54026.39908673979
 20
-4991.730311282058
 10
-54002.26914246466
 20
-5051.882366319179
1001
REVIT
1002
{
1070
     1
1000
22685377
1002
}
1002
{
1070
     2
1000
-2000051
1002
}
1002
{
1070
     3
1000
-2000042
1002
}
  0
LWPOLYLINE
  5
32B
330
70
100
AcDbEntity
  8
A-COB-___-___-EXI
100
AcDbPolyline
 90
        6
 70
     0
 43
0.0
 10
-53244.14558010811
 20
-4657.285426833964
 10
-53578.26463021867
 20
-4791.316991598483
 10
-53618.24219978249
 20
-4789.977614217415
 10
-53632.84994646382
 20
-4803.638278070025
 10
-53633.51963515435
 20
-4823.627062851947
 10
-53609.38969087922
 20
-4883.779117889068
1001
REVIT
1002
{
1070
     1
1000
22685371
1002
}
1002
{
1070
     2
1000
-2000051
1002
}
1002
{
1070
     3
1000
-2000042
1002
}
  0
LWPOLYLINE
  5
32C
330
70
100
AcDbEntity
  8
A-COB-___-___-EXI
100
AcDbPolyline
 90
        6
 70
     0
 43
0.0
 10
-52851.26612852276
 20
-4489.182178403859
 10
-53185.38517863331
 20
-4623.213743168377
 10
-53225.36274819714
 20
-4621.874365787311
 10
-53239.97049487847
 20
-4635.535029639919
 10
-53240.64018356899
 20
-4655.523814421842
 10
-53216.51023929387
 20
-4715.675869458963
1001
REVIT
1002
{
1070
     1
1000
22685365
1002
}
1002
{
1070
     2
1000
-2000051
1002
}
1002
{
1070
     3
1000
-2000042
1002
}
  0
LWPOLYLINE
  5
32D
330
70
100
AcDbEntity
  8
A-COB-___-___-EXI
100
AcDbPolyline
 90
        6
 70
     0
 43
0.0
 10
-52458.38667693742
 20
-4321.078929973746
 10
-52792.50572704798
 20
-4455.110494738264
 10
-52832.4832966118
 20
-4453.771117357199
 10
-52847.09104329312
 20
-4467.431781209807
 10
-52847.76073198366
 20
-4487.42056599173
 10
-52823.63078770853
 20
-4547.572621028851
1001
REVIT
1002
{
1070
     1
1000
22685359
1002
}
1002
{
1070
     2
1000
-2000051
1002
}
1002
{
1070
     3
1000
-2000042
1002
}
  0
LWPOLYLINE
  5
32E
330
70
100
AcDbEntity
  8
A-COB-___-___-EXI
100
AcDbPolyline
 90
        6
 70
     0
 43
0.0
 10
-52065.50722535197
 20
-4152.97568154364
 10
-52399.62627546253
 20
-4287.007246308163
 10
-52439.60384502635
 20
-4285.667868927096
 10
-52454.21159170767
 20
-4299.328532779704
 10
-52454.88128039821
 20
-4319.31731756163
 10
-52430.75133612308
 20
-4379.469372598751
1001
REVIT
1002
{
1070
     1
1000
22685353
1002
}
1002
{
1070
     2
1000
-2000051
1002
}
1002
{
1070
     3
1000
-2000042
1002
}
  0
LWPOLYLINE
  5
32F
330
70
100
AcDbEntity
  8
A-COB-___-___-EXI
100
AcDbPolyline
 90
        6
 70
     0
 43
0.0
 10
-51672.62777376664
 20
-3984.872433113537
 10
-52006.74682387719
 20
-4118.903997878056
 10
-52046.72439344101
 20
-4117.56462049699
 10
-52061.33214012234
 20
-4131.225284349598
 10
-52062.00182881287
 20
-4151.214069131521
 10
-52037.87188453775
 20
-4211.366124168641
1001
REVIT
1002
{
1070
     1
1000
22685347
1002
}
1002
{
1070
     2
1000
-2000051
1002
}
1002
{
1070
     3
1000
-2000042
1002
}
  0
LWPOLYLINE
  5
330
330
70
100
AcDbEntity
  8
A-COB-___-___-EXI
100
AcDbPolyline
 90
        6
 70
     0
 43
0.0
 10
-51279.74832218118
 20
-3816.769184683425
 10
-51613.86737229173
 20
-3950.800749447944
 10
-51653.84494185556
 20
-3949.461372066877
 10
-51668.45268853688
 20
-3963.122035919486
 10
-51669.1223772274
 20
-3983.110820701408
 10
-51644.99243295229
 20
-4043.262875738529
1001
REVIT
1002
{
1070
     1
1000
22685341
1002
}
1002
{
1070
     2
1000
-2000051
1002
}
1002
{
1070
     3
1000
-2000042
1002
}
  0
LWPOLYLINE
  5
331
330
70
100
AcDbEntity
  8
A-COB-___-___-EXI
100
AcDbPolyline
 90
        6
 70
     0
 43
0.0
 10
-44983.59188520732
 20
-5828.029299381139
 10
-44651.86289639014
 20
-5967.871631950116
 10
-44611.86804024539
 20
-5967.230163355115
 10
-44597.5009298524
 20
-5981.143686954659
 10
-44597.1801955549
 20
-6001.141115027034
 10
-44622.35626283519
 20
-6060.862883020041
1001
REVIT
1002
{
1070
     1
1000
22685330
1002
}
1002
{
1070
     2
1000
-2000051
1002
}
1002
{
1070
     3
1000
-2000042
1002
}
  0
LWPOLYLINE
  5
332
330
70
100
AcDbEntity
  8
A-COB-___-___-EXI
100
AcDbPolyline
 90
        6
 70
     0
 43
0.0
 10
-45368.95341646379
 20
-5660.83350266928
 10
-45037.22442764661
 20
-5800.675835238258
 10
-44997.22957150185
 20
-5800.034366643256
 10
-44982.86246110886
 20
-5813.947890242801
 10
-44982.54172681136
 20
-5833.945318315175
 10
-45007.71779409165
 20
-5893.667086308183
1001
REVIT
1002
{
1070
     1
1000
22685324
1002
}
1002
{
1070
     2
1000
-2000051
1002
}
1002
{
1070
     3
1000
-2000042
1002
}
  0
LWPOLYLINE
  5
333
330
70
100
AcDbEntity
  8
A-COB-___-___-EXI
100
AcDbPolyline
 90
        6
 70
     0
 43
0.0
 10
-45754.31494772025
 20
-5493.637705957421
 10
-45422.58595890307
 20
-5633.480038526399
 10
-45382.59110275832
 20
-5632.838569931396
 10
-45368.22399236533
 20
-5646.752093530942
 10
-45367.90325806782
 20
-5666.749521603316
 10
-45393.07932534812
 20
-5726.471289596323
1001
REVIT
1002
{
1070
     1
1000
22685318
1002
}
1002
{
1070
     2
1000
-2000051
1002
}
1002
{
1070
     3
1000
-2000042
1002
}
  0
LWPOLYLINE
  5
334
330
70
100
AcDbEntity
  8
A-COB-___-___-EXI
100
AcDbPolyline
 90
        6
 70
     0
 43
0.0
 10
-46139.67647897671
 20
-5326.44190924556
 10
-45807.94749015953
 20
-5466.284241814538
 10
-45767.95263401478
 20
-5465.642773219535
 10
-45753.58552362179
 20
-5479.55629681908
 10
-45753.26478932429
 20
-5499.553724891455
 10
-45778.44085660458
 20
-5559.275492884463
1001
REVIT
1002
{
1070
     1
1000
22685312
1002
}
1002
{
1070
     2
1000
-2000051
1002
}
1002
{
1070
     3
1000
-2000042
1002
}
  0
LWPOLYLINE
  5
335
330
70
100
AcDbEntity
  8
A-COB-___-___-EXI
100
AcDbPolyline
 90
        6
 70
     0
 43
0.0
 10
-46525.03801023318
 20
-5159.246112533701
 10
-46193.309021416
 20
-5299.088445102679
 10
-46153.31416527124
 20
-5298.446976507677
 10
-46138.94705487825
 20
-5312.360500107222
 10
-46138.62632058075
 20
-5332.357928179597
 10
-46163.80238786105
 20
-5392.079696172604
1001
REVIT
1002
{
1070
     1
1000
22685306
1002
}
1002
{
1070
     2
1000
-2000051
1002
}
1002
{
1070
     3
1000
-2000042
1002
}
  0
LWPOLYLINE
  5
336
330
70
100
AcDbEntity
  8
A-COB-___-___-EXI
100
AcDbPolyline
 90
        6
 70
     0
 43
0.0
 10
-46910.39954148963
 20
-4992.050315821844
 10
-46578.67055267245
 20
-5131.89264839082
 10
-46538.67569652771
 20
-5131.251179795818
 10
-46524.30858613472
 20
-5145.164703395363
 10
-46523.98785183721
 20
-5165.162131467738
 10
-46549.16391911751
 20
-5224.883899460746
1001
REVIT
1002
{
1070
     1
1000
22685300
1002
}
1002
{
1070
     2
1000
-2000051
1002
}
1002
{
1070
     3
1000
-2000042
1002
}
  0
LWPOLYLINE
  5
337
330
70
100
AcDbEntity
  8
A-COB-___-___-EXI
100
AcDbPolyline
 90
        6
 70
     0
 43
0.0
 10
-47295.7610727461
 20
-4824.854519109983
 10
-46964.03208392892
 20
-4964.696851678962
 10
-46924.03722778417
 20
-4964.055383083959
 10
-46909.67011739117
 20
-4977.968906683504
 10
-46909.34938309368
 20
-4997.966334755879
 10
-46934.52545037397
 20
-5057.688102748885
1001
REVIT
1002
{
1070
     1
1000
22685294
1002
}
1002
{
1070
     2
1000
-2000051
1002
}
1002
{
1070
     3
1000
-2000042
1002
}
  0
LWPOLYLINE
  5
338
330
70
100
AcDbEntity
  8
A-COB-___-___-EXI
100
AcDbPolyline
 90
        6
 70
     0
 43
0.0
 10
-47681.12260400256
 20
-4657.658722398124
 10
-47349.39361518539
 20
-4797.501054967102
 10
-47309.39875904063
 20
-4796.8595863721
 10
-47295.03164864764
 20
-4810.773109971645
 10
-47294.71091435013
 20
-4830.770538044021
 10
-47319.88698163044
 20
-4890.492306037026
1001
REVIT
1002
{
1070
     1
1000
22685288
1002
}
1002
{
1070
     2
1000
-2000051
1002
}
1002
{
1070
     3
1000
-2000042
1002
}
  0
LWPOLYLINE
  5
339
330
70
100
AcDbEntity
  8
A-COB-___-___-EXI
100
AcDbPolyline
 90
        6
 70
     0
 43
0.0
 10
-48066.48413525902
 20
-4490.462925686265
 10
-47734.75514644186
 20
-4630.305258255242
 10
-47694.7602902971
 20
-4629.663789660241
 10
-47680.3931799041
 20
-4643.577313259785
 10
-47680.0724456066
 20
-4663.574741332161
 10
-47705.2485128869
 20
-4723.296509325168
1001
REVIT
1002
{
1070
     1
1000
22685282
1002
}
1002
{
1070
     2
1000
-2000051
1002
}
1002
{
1070
     3
1000
-2000042
1002
}
  0
LWPOLYLINE
  5
33A
330
70
100
AcDbEntity
  8
A-COB-___-___-EXI
100
AcDbPolyline
 90
        6
 70
     0
 43
0.0
 10
-48451.84566651549
 20
-4323.267128974406
 10
-48120.11667769831
 20
-4463.109461543384
 10
-48080.12182155355
 20
-4462.467992948382
 10
-48065.75471116056
 20
-4476.381516547927
 10
-48065.43397686306
 20
-4496.378944620302
 10
-48090.61004414336
 20
-4556.100712613309
1001
REVIT
1002
{
1070
     1
1000
22685276
1002
}
1002
{
1070
     2
1000
-2000051
1002
}
1002
{
1070
     3
1000
-2000042
1002
}
  0
LWPOLYLINE
  5
33B
330
70
100
AcDbEntity
  8
A-COB-___-___-EXI
100
AcDbPolyline
 90
        6
 70
     0
 43
0.0
 10
-48837.20719777201
 20
-4156.071332262543
 10
-48505.47820895482
 20
-4295.913664831525
 10
-48465.48335281002
 20
-4295.272196236523
 10
-48451.11624241703
 20
-4309.185719836068
 10
-48450.79550811952
 20
-4329.183147908443
 10
-48475.97157539982
 20
-4388.904915901449
1001
REVIT
1002
{
1070
     1
1000
22685270
1002
}
1002
{
1070
     2
1000
-2000051
1002
}
1002
{
1070
     3
1000
-2000042
1002
}
  0
LWPOLYLINE
  5
33C
330
70
100
AcDbEntity
  8
A-COB-___-___-EXI
100
AcDbPolyline
 90
        6
 70
     0
 43
0.0
 10
-49222.56872902847
 20
-3988.875535550685
 10
-48890.8397402113
 20
-4128.717868119662
 10
-48850.84488406654
 20
-4128.07639952466
 10
-48836.47777367356
 20
-4141.989923124206
 10
-48836.15703937604
 20
-4161.987351196581
 10
-48861.33310665634
 20
-4221.709119189585
1001
REVIT
1002
{
1070
     1
1000
22685264
1002
}
1002
{
1070
     2
1000
-2000051
1002
}
1002
{
1070
     3
1000
-2000042
1002
}
  0
LWPOLYLINE
  5
33D
330
70
100
AcDbEntity
  8
A-COB-___-___-EXI
100
AcDbPolyline
 90
        6
 70
     0
 43
0.0
 10
-49607.93026028493
 20
-3821.679738838825
 10
-49276.20127146776
 20
-3961.522071407802
 10
-49236.20641532301
 20
-3960.8806028128
 10
-49221.83930493002
 20
-3974.794126412346
 10
-49221.51857063251
 20
-3994.79155448472
 10
-49246.69463791281
 20
-4054.513322477727
1001
REVIT
1002
{
1070
     1
1000
22685258
1002
}
1002
{
1070
     2
1000
-2000051
1002
}
1002
{
1070
     3
1000
-2000042
1002
}
  0
LWPOLYLINE
  5
33E
330
70
100
AcDbEntity
  8
A-COB-___-___-EXI
100
AcDbPolyline
 90
        4
 70
     0
 43
0.0
 10
-37296.76343268134
 20
-6419.36390374765
 10
-37296.76343268134
 20
-6339.363903747625
 10
-36876.76343268134
 20
-6339.363903747627
 10
-36876.76343268134
 20
-6366.918045438469
1001
REVIT
1002
{
1070
     1
1000
22685237
1002
}
1002
{
1070
     2
1000
-2000051
1002
}
1002
{
1070
     3
1000
-2000042
1002
}
  0
LWPOLYLINE
  5
33F
330
70
100
AcDbEntity
  8
A-COB-___-___-EXI
100
AcDbPolyline
 90
        3
 70
     0
 43
0.0
 10
-37716.76343268135
 20
-6419.363903747648
 10
-37716.76343268135
 20
-6339.363903747625
 10
-37296.76343268134
 20
-6339.363903747627
1001
REVIT
1002
{
1070
     1
1000
22685233
1002
}
1002
{
1070
     2
1000
-2000051
1002
}
1002
{
1070
     3
1000
-2000042
1002
}
  0
LWPOLYLINE
  5
340
330
70
100
AcDbEntity
  8
A-COB-___-___-EXI
100
AcDbPolyline
 90
        3
 70
     0
 43
0.0
 10
-38136.76343268134
 20
-6419.363903747647
 10
-38136.76343268134
 20
-6339.363903747625
 10
-37716.76343268135
 20
-6339.363903747627
1001
REVIT
1002
{
1070
     1
1000
22685230
1002
}
1002
{
1070
     2
1000
-2000051
1002
}
1002
{
1070
     3
1000
-2000042
1002
}
  0
LWPOLYLINE
  5
341
330
70
100
AcDbEntity
  8
A-COB-___-___-EXI
100
AcDbPolyline
 90
        3
 70
     0
 43
0.0
 10
-38556.76343268134
 20
-6419.363903747646
 10
-38556.76343268134
 20
-6339.363903747625
 10
-38136.76343268134
 20
-6339.363903747627
1001
REVIT
1002
{
1070
     1
1000
22685227
1002
}
1002
{
1070
     2
1000
-2000051
1002
}
1002
{
1070
     3
1000
-2000042
1002
}
  0
LWPOLYLINE
  5
342
330
70
100
AcDbEntity
  8
A-COB-___-___-EXI
100
AcDbPolyline
 90
        3
 70
     0
 43
0.0
 10
-38976.76343268134
 20
-6419.363903747644
 10
-38976.76343268134
 20
-6339.363903747625
 10
-38556.76343268134
 20
-6339.363903747627
1001
REVIT
1002
{
1070
     1
1000
22685224
1002
}
1002
{
1070
     2
1000
-2000051
1002
}
1002
{
1070
     3
1000
-2000042
1002
}
  0
LWPOLYLINE
  5
343
330
70
100
AcDbEntity
  8
A-COB-___-___-EXI
100
AcDbPolyline
 90
        3
 70
     0
 43
0.0
 10
-39396.76343268134
 20
-6419.363903747643
 10
-39396.76343268134
 20
-6339.363903747625
 10
-38976.76343268134
 20
-6339.363903747627
1001
REVIT
1002
{
1070
     1
1000
22685221
1002
}
1002
{
1070
     2
1000
-2000051
1002
}
1002
{
1070
     3
1000
-2000042
1002
}
  0
LWPOLYLINE
  5
344
330
70
100
AcDbEntity
  8
A-COB-___-___-EXI
100
AcDbPolyline
 90
        3
 70
     0
 43
0.0
 10
-39816.76343268135
 20
-6419.363903747641
 10
-39816.76343268135
 20
-6339.363903747625
 10
-39396.76343268134
 20
-6339.363903747627
1001
REVIT
1002
{
1070
     1
1000
22685218
1002
}
1002
{
1070
     2
1000
-2000051
1002
}
1002
{
1070
     3
1000
-2000042
1002
}
  0
LWPOLYLINE
  5
345
330
70
100
AcDbEntity
  8
A-COB-___-___-EXI
100
AcDbPolyline
 90
        3
 70
     0
 43
0.0
 10
-40236.76343268134
 20
-6419.36390374764
 10
-40236.76343268134
 20
-6339.363903747625
 10
-39816.76343268135
 20
-6339.363903747627
1001
REVIT
1002
{
1070
     1
1000
22685215
1002
}
1002
{
1070
     2
1000
-2000051
1002
}
1002
{
1070
     3
1000
-2000042
1002
}
  0
LWPOLYLINE
  5
346
330
70
100
AcDbEntity
  8
A-COB-___-___-EXI
100
AcDbPolyline
 90
        3
 70
     0
 43
0.0
 10
-40656.76343268134
 20
-6419.363903747639
 10
-40656.76343268134
 20
-6339.363903747625
 10
-40236.76343268134
 20
-6339.363903747627
1001
REVIT
1002
{
1070
     1
1000
22685212
1002
}
1002
{
1070
     2
1000
-2000051
1002
}
1002
{
1070
     3
1000
-2000042
1002
}
  0
LWPOLYLINE
  5
347
330
70
100
AcDbEntity
  8
A-COB-___-___-EXI
100
AcDbPolyline
 90
        3
 70
     0
 43
0.0
 10
-41076.76343268134
 20
-6419.363903747637
 10
-41076.76343268134
 20
-6339.363903747625
 10
-40656.76343268134
 20
-6339.363903747627
1001
REVIT
1002
{
1070
     1
1000
22685209
1002
}
1002
{
1070
     2
1000
-2000051
1002
}
1002
{
1070
     3
1000
-2000042
1002
}
  0
LWPOLYLINE
  5
348
330
70
100
AcDbEntity
  8
A-COB-___-___-EXI
100
AcDbPolyline
 90
        3
 70
     0
 43
0.0
 10
-41496.76343268134
 20
-6419.363903747637
 10
-41496.76343268134
 20
-6339.363903747625
 10
-41076.76343268134
 20
-6339.363903747627
1001
REVIT
1002
{
1070
     1
1000
22685206
1002
}
1002
{
1070
     2
1000
-2000051
1002
}
1002
{
1070
     3
1000
-2000042
1002
}
  0
LWPOLYLINE
  5
349
330
70
100
AcDbEntity
  8
A-COB-___-___-EXI
100
AcDbPolyline
 90
        3
 70
     0
 43
0.0
 10
-41916.76343268134
 20
-6419.363903747634
 10
-41916.76343268134
 20
-6339.363903747625
 10
-41496.76343268134
 20
-6339.363903747627
1001
REVIT
1002
{
1070
     1
1000
22685203
1002
}
1002
{
1070
     2
1000
-2000051
1002
}
1002
{
1070
     3
1000
-2000042
1002
}
  0
LWPOLYLINE
  5
34A
330
70
100
AcDbEntity
  8
A-COB-___-___-EXI
100
AcDbPolyline
 90
        3
 70
     0
 43
0.0
 10
-42336.76343268134
 20
-6419.363903747633
 10
-42336.76343268134
 20
-6339.363903747625
 10
-41916.76343268134
 20
-6339.363903747627
1001
REVIT
1002
{
1070
     1
1000
22685200
1002
}
1002
{
1070
     2
1000
-2000051
1002
}
1002
{
1070
     3
1000
-2000042
1002
}
  0
LWPOLYLINE
  5
34B
330
70
100
AcDbEntity
  8
A-COB-___-___-EXI
100
AcDbPolyline
 90
        3
 70
     0
 43
0.0
 10
-42756.76343268134
 20
-6419.363903747633
 10
-42756.76343268134
 20
-6339.363903747625
 10
-42336.76343268134
 20
-6339.363903747627
1001
REVIT
1002
{
1070
     1
1000
22685197
1002
}
1002
{
1070
     2
1000
-2000051
1002
}
1002
{
1070
     3
1000
-2000042
1002
}
  0
LWPOLYLINE
  5
34C
330
70
100
AcDbEntity
  8
A-COB-___-___-EXI
100
AcDbPolyline
 90
        3
 70
     0
 43
0.0
 10
-43176.76343268134
 20
-6419.363903747631
 10
-43176.76343268134
 20
-6339.363903747625
 10
-42756.76343268134
 20
-6339.363903747627
1001
REVIT
1002
{
1070
     1
1000
22685194
1002
}
1002
{
1070
     2
1000
-2000051
1002
}
1002
{
1070
     3
1000
-2000042
1002
}
  0
LWPOLYLINE
  5
34D
330
70
100
AcDbEntity
  8
A-COB-___-___-EXI
100
AcDbPolyline
 90
        3
 70
     0
 43
0.0
 10
-43596.76343268134
 20
-6419.36390374763
 10
-43596.76343268134
 20
-6339.363903747625
 10
-43176.76343268134
 20
-6339.363903747627
1001
REVIT
1002
{
1070
     1
1000
22685191
1002
}
1002
{
1070
     2
1000
-2000051
1002
}
1002
{
1070
     3
1000
-2000042
1002
}
  0
LWPOLYLINE
  5
34E
330
70
100
AcDbEntity
  8
A-COB-___-___-EXI
100
AcDbPolyline
 90
        3
 70
     0
 43
0.0
 10
-44016.76343268134
 20
-6419.363903747627
 10
-44016.76343268134
 20
-6339.363903747625
 10
-43596.76343268134
 20
-6339.363903747627
1001
REVIT
1002
{
1070
     1
1000
22685188
1002
}
1002
{
1070
     2
1000
-2000051
1002
}
1002
{
1070
     3
1000
-2000042
1002
}
  0
LWPOLYLINE
  5
34F
330
70
100
AcDbEntity
  8
A-COB-___-___-EXI
100
AcDbPolyline
 90
        3
 70
     0
 43
0.0
 10
-44436.76343268134
 20
-6419.363903747627
 10
-44436.76343268134
 20
-6339.363903747627
 10
-44016.76343268134
 20
-6339.363903747628
1001
REVIT
1002
{
1070
     1
1000
22685185
1002
}
1002
{
1070
     2
1000
-2000051
1002
}
1002
{
1070
     3
1000
-2000042
1002
}
  0
LWPOLYLINE
  5
350
330
70
100
AcDbEntity
  8
A-COB-___-___-EXI
100
AcDbPolyline
 90
        3
 70
     0
 43
0.0
 10
-45376.76343268134
 20
-5999.524017126006
 10
-47026.75008403959
 20
-5431.388051504007
 10
-48481.08531545824
 20
-5226.994564143331
1001
REVIT
1002
{
1070
     1
1000
22685152
1002
}
1002
{
1070
     2
1000
-2000051
1002
}
1002
{
1070
     3
1000
-2000042
1002
}
  0
LWPOLYLINE
  5
351
330
70
100
AcDbEntity
  8
A-POR-___-___-EXI
100
AcDbPolyline
 90
        4
 70
     0
 43
0.0
 10
-50796.116043011
 20
-5368.104942631705
 10
-50796.116043011
 20
-4918.905396975737
 10
-51823.61604301101
 20
-4918.905396975734
 10
-51823.61604301101
 20
-5368.104942631702
1001
REVIT
1002
{
1070
     1
1000
22685148
1002
}
1002
{
1070
     2
1000
-2000051
1002
}
1002
{
1070
     3
1000
-2000042
1002
}
  0
LWPOLYLINE
  5
352
330
70
100
AcDbEntity
  8
A-POR-___-___-EXI
100
AcDbPolyline
 90
        4
 70
     0
 43
0.0
 10
-51723.61604301101
 20
-5368.104942631702
 10
-51723.61604301101
 20
-5016.389575184653
 10
-50896.11604301101
 20
-5016.389575184656
 10
-50896.11604301101
 20
-5368.104942631705
1001
REVIT
1002
{
1070
     1
1000
22685145
1002
}
1002
{
1070
     2
1000
-2000051
1002
}
1002
{
1070
     3
1000
-2000042
1002
}
  0
LWPOLYLINE
  5
353
330
70
100
AcDbEntity
  8
A-ALV-___-___-EXI
100
AcDbPolyline
 90
        3
 70
     0
 43
0.0
 10
-48481.08531545824
 20
-9226.918045438431
 10
-48481.08531545824
 20
-6679.999756144808
 10
-52142.73280825414
 20
-6679.999756144797
1001
REVIT
1002
{
1070
     1
1000
22685139
1002
}
1002
{
1070
     2
1000
-2000051
1002
}
1002
{
1070
     3
1000
-2000042
1002
}
  0
LWPOLYLINE
  5
355
330
70
100
AcDbEntity
  8
A-COB-___-___-EXI
100
AcDbPolyline
 90
        3
 70
     0
 43
0.0
 10
-52361.31390766824
 20
-5083.414321580007
 10
-53952.54894025748
 20
-5250.659862808252
 10
-55823.30129989939
 20
-5968.774412132425
1001
REVIT
1002
{
1070
     1
1000
22685131
1002
}
1002
{
1070
     2
1000
-2000051
1002
}
1002
{
1070
     3
1000
-2000042
1002
}
  0
LWPOLYLINE
  5
358
330
70
100
AcDbEntity
  8
A-JAN-___-___-EXI
100
AcDbPolyline
 90
        4
 70
     1
 43
0.0
 10
-53709.20722940892
 20
-8207.41267165746
 10
-53709.20722940892
 20
-6807.412671657458
 10
-54509.20722940892
 20
-6807.412671657458
 10
-54509.20722940892
 20
-8207.41267165746
1001
REVIT
1002
{
1070
     1
1000
22685106
1002
}
1002
{
1070
     2
1000
-2000051
1002
}
1002
{
1070
     3
1000
-2000042
1002
}
  0
LWPOLYLINE
  5
359
330
70
100
AcDbEntity
  8
A-COB-___-___-EXI
100
AcDbPolyline
 90
        7
 70
     0
 43
0.0
 10
-50368.51477493985
 20
-3507.495759886252
 42
0.4604602830226777
 10
-50550.7939373389
 20
-3507.495759886243
 10
-50828.10846912095
 20
-3621.936357850864
 10
-50868.08603868479
 20
-3620.596980469796
 10
-50882.69378536611
 20
-3634.257644322406
 10
-50883.36347405665
 20
-3654.24642910432
 10
-50859.23352978152
 20
-3714.39848414145
1001
REVIT
1002
{
1070
     1
1000
22685084
1002
}
1002
{
1070
     2
1000
-2000051
1002
}
1002
{
1070
     3
1000
-2000042
1002
}
  0
LWPOLYLINE
  5
35A
330
70
100
AcDbEntity
  8
A-POR-___-___-EXI
100
AcDbPolyline
 90
        4
 70
     1
 43
0.0
 10
-46560.02847916131
 20
-7389.363903747642
 10
-46560.02847916131
 20
-9226.918045438438
 10
-45739.9120802825
 20
-9226.918045438438
 10
-45739.9120802825
 20
-7389.363903747642
1001
REVIT
1002
{
1070
     1
1000
22685175
1002
}
1002
{
1070
     2
1000
-2000051
1002
}
1002
{
1070
     3
1000
-2000042
1002
}
  0
LWPOLYLINE
  5
35B
330
70
100
AcDbEntity
  8
A-COB-___-___-EXI
100
AcDbPolyline
 90
        6
 70
     0
 43
0.0
 10
-50886.86887059578
 20
-3648.66593625332
 10
-51220.98792070634
 20
-3782.697501017838
 10
-51260.96549027016
 20
-3781.358123636772
 10
-51275.57323695149
 20
-3795.01878748938
 10
-51276.24292564202
 20
-3815.007572271304
 10
-51252.11298136689
 20
-3875.159627308424
1001
REVIT
1002
{
1070
     1
1000
22685082
1002
}
1002
{
1070
     2
1000
-2000051
1002
}
1002
{
1070
     3
1000
-2000042
1002
}
  0
LWPOLYLINE
  5
35C
330
70
100
AcDbEntity
  8
A-COB-___-___-EXI
100
AcDbPolyline
 90
        6
 70
     0
 43
0.0
 10
-49993.29179154132
 20
-3654.483942126971
 10
-49661.56280272416
 20
-3794.326274695948
 10
-49621.5679465794
 20
-3793.684806100946
 10
-49607.20083618642
 20
-3807.598329700491
 10
-49606.8801018889
 20
-3827.595757772866
 10
-49632.0561691692
 20
-3887.317525765872
1001
REVIT
1002
{
1070
     1
1000
22685076
1002
}
1002
{
1070
     2
1000
-2000051
1002
}
1002
{
1070
     3
1000
-2000042
1002
}
  0
LWPOLYLINE
  5
35D
330
70
100
AcDbEntity
  8
A-POR-___-___-EXI
100
AcDbPolyline
 90
        4
 70
     1
 43
0.0
 10
-44240.02847916129
 20
-7259.363903747651
 10
-44240.02847916129
 20
-9226.918045438445
 10
-43329.91208028246
 20
-9226.918045438445
 10
-43329.91208028246
 20
-7259.363903747651
1001
REVIT
1002
{
1070
     1
1000
22685066
1002
}
1002
{
1070
     2
1000
-2000051
1002
}
1002
{
1070
     3
1000
-2000042
1002
}
  0
LWPOLYLINE
  5
35E
330
70
100
AcDbEntity
  8
A-POR-___-___-EXI
100
AcDbPolyline
 90
        4
 70
     1
 43
0.0
 10
-44150.02847916129
 20
-7349.363903747651
 10
-44150.02847916129
 20
-9226.918045438445
 10
-43419.91208028247
 20
-9226.918045438445
 10
-43419.91208028247
 20
-7349.363903747651
1001
REVIT
1002
{
1070
     1
1000
22685062
1002
}
1002
{
1070
     2
1000
-2000051
1002
}
1002
{
1070
     3
1000
-2000042
1002
}
  0
LWPOLYLINE
  5
35F
330
70
100
AcDbEntity
  8
A-COB-___-___-EXI
100
AcDbPolyline
 90
        6
 70
     0
 43
0.0
 10
-50369.11789436652
 20
-3507.241511296934
 10
-50046.60359968314
 20
-3643.199334627885
 10
-50006.60874353837
 20
-3642.557866032882
 10
-49992.24163314537
 20
-3656.471389632436
 10
-49991.92089884786
 20
-3676.468817704832
 10
-50017.09696612816
 20
-3736.190585697817
1001
REVIT
1002
{
1070
     1
1000
22685040
1002
}
1002
{
1070
     2
1000
-2000051
1002
}
1002
{
1070
     3
1000
-2000042
1002
}
  0
LWPOLYLINE
  5
360
330
70
100
AcDbEntity
  8
A-ALV-___-___-EXI
100
AcDbPolyline
 90
        6
 70
     0
 43
0.0
 10
-48618.74204482979
 20
-4560.523606386384
 10
-48666.08531545822
 20
-4533.189956344738
 10
-48666.08531545822
 20
-6679.999756144808
 10
-48481.08531545824
 20
-6679.999756144808
 10
-48481.08531545824
 20
-4639.99975614481
 10
-48520.43118944727
 20
-4617.283405205745
1001
REVIT
1002
{
1070
     1
1000
22685045
1002
}
1002
{
1070
     5
1000
383807
1002
}
1002
{
1070
     2
1000
-2000051
1002
}
1002
{
1070
     3
1000
-2000042
1002
}
  0
LWPOLYLINE
  5
361
330
70
100
AcDbEntity
  8
A-ALV-___-___-EXI
100
AcDbPolyline
 90
        4
 70
     1
 43
0.0
 10
-36839.8436694256
 20
-9226.91804543847
 10
-36839.8436694256
 20
-6366.918045438469
 10
-37003.50751543655
 20
-6366.918045438469
 10
-37003.50751543655
 20
-9226.91804543847
1001
REVIT
1002
{
1070
     1
1000
22685045
1002
}
1002
{
1070
     5
1000
383807
1002
}
1002
{
1070
     2
1000
-2000051
1002
}
1002
{
1070
     3
1000
-2000042
1002
}
  0
LWPOLYLINE
  5
362
330
70
100
AcDbEntity
  8
A-ALV-___-___-EXI
100
AcDbPolyline
 90
        3
 70
     0
 43
0.0
 10
-45376.76343268134
 20
-9226.918045438438
 10
-44856.76343268134
 20
-9226.918045438438
 10
-44856.76343268134
 20
-6052.49700825182
1001
REVIT
1002
{
1070
     1
1000
22685045
1002
}
1002
{
1070
     5
1000
383807
1002
}
1002
{
1070
     2
1000
-2000051
1002
}
1002
{
1070
     3
1000
-2000042
1002
}
  0
LWPOLYLINE
  5
364
330
70
100
AcDbEntity
  8
A-COB-___-___-EXI
100
AcDbPolyline
 90
        2
 70
     1
 43
0.0
 10
-56219.04747074281
 20
-6899.962461222924
 10
-56099.04747074281
 20
-6899.962461222924
1001
REVIT
1002
{
1070
     1
1000
22685249
1002
}
1002
{
1070
     2
1000
-2000051
1002
}
1002
{
1070
     3
1000
-2000042
1002
}
  0
LWPOLYLINE
  5
365
330
70
100
AcDbEntity
  8
A-COB-___-___-EXI
100
AcDbPolyline
 90
        4
 70
     1
 43
0.0
 10
-45376.76343268134
 20
-6009.524017126007
 10
-45266.76343268134
 20
-6009.524017126007
 10
-45266.76343268134
 20
-5875.88184057419
 10
-45376.76343268134
 20
-5875.88184057419
1001
REVIT
1002
{
1070
     1
1000
22685462
1002
}
1002
{
1070
     5
1000
383807
1002
}
1002
{
1070
     2
1000
-2000051
1002
}
1002
{
1070
     3
1000
-2000042
1002
}
  0
LWPOLYLINE
  5
366
330
70
100
AcDbEntity
  8
A-ALV-___-___-EXI
100
AcDbPolyline
 90
        3
 70
     0
 43
0.0
 10
-52142.73280825414
 20
-6759.999756144797
 10
-52142.73280825414
 20
-4443.999216195329
 10
-52238.80975980001
 20
-4513.80320745451
1001
REVIT
1002
{
1070
     1
1000
22685045
1002
}
1002
{
1070
     5
1000
383807
1002
}
1002
{
1070
     2
1000
-2000051
1002
}
1002
{
1070
     3
1000
-2000042
1002
}
  0
LINE
  5
380
330
70
100
AcDbEntity
  8
A-COB-___-___-EXI
100
AcDbLine
 10
-48481.08531545824
 20
-6009.524017125997
 30
0.0
 11
-45376.76343268134
 21
-6009.524017126007
 31
0.0
1001
REVIT
1002
{
1070
     1
1000
22685028
1002
}
1002
{
1070
     5
1000
383807
1002
}
1002
{
1070
     2
1000
-2000051
1002
}
1002
{
1070
     3
1000
-2000042
1002
}
  0
LINE
  5
381
330
70
100
AcDbEntity
  8
A-ALV-___-___-EXI
100
AcDbLine
 10
-45376.76343268134
 20
-6009.524017126007
 30
0.0
 11
-45376.76343268134
 21
-9226.918045438443
 31
0.0
1001
REVIT
1002
{
1070
     1
1000
22685028
1002
}
1002
{
1070
     5
1000
383807
1002
}
1002
{
1070
     2
1000
-2000051
1002
}
1002
{
1070
     3
1000
-2000042
1002
}
  0
LINE
  5
382
330
70
100
AcDbEntity
  8
A-BAS-___-___-EXI
100
AcDbLine
 10
-45376.76343268134
 20
-9226.918045438443
 30
0.0
 11
-48962.11315243118
 21
-9226.918045438429
 31
0.0
1001
REVIT
1002
{
1070
     1
1000
22685028
1002
}
1002
{
1070
     5
1000
383807
1002
}
1002
{
1070
     2
1000
-2000051
1002
}
1002
{
1070
     3
1000
-2000042
1002
}
  0
LINE
  5
383
330
70
100
AcDbEntity
  8
A-ALV-___-___-EXI
100
AcDbLine
 10
-48962.11315243118
 20
-9226.918045438429
 30
0.0
 11
-48962.11315243118
 21
-9231.918045438423
 31
0.0
1001
REVIT
1002
{
1070
     1
1000
22685028
1002
}
1002
{
1070
     5
1000
383807
1002
}
1002
{
1070
     2
1000
-2000051
1002
}
1002
{
1070
     3
1000
-2000042
1002
}
  0
LINE
  5
384
330
70
100
AcDbEntity
  8
A-BAS-___-___-EXI
100
AcDbLine
 10
-48962.11315243118
 20
-9231.918045438423
 30
0.0
 11
-58988.94981819931
 21
-9231.918045438389
 31
0.0
1001
REVIT
1002
{
1070
     1
1000
22685028
1002
}
1002
{
1070
     5
1000
383807
1002
}
1002
{
1070
     2
1000
-2000051
1002
}
1002
{
1070
     3
1000
-2000042
1002
}
  0
LINE
  5
385
330
70
100
AcDbEntity
  8
A-BAS-___-___-EXI
100
AcDbLine
 10
-58988.94981819931
 20
-9231.918045438389
 30
0.0
 11
-58988.94981819931
 21
-9386.724581422056
 31
0.0
1001
REVIT
1002
{
1070
     1
1000
22685028
1002
}
1002
{
1070
     5
1000
383807
1002
}
1002
{
1070
     2
1000
-2000051
1002
}
1002
{
1070
     3
1000
-2000042
1002
}
  0
LINE
  5
386
330
70
100
AcDbEntity
  8
A-BAS-___-___-EXI
100
AcDbLine
 10
-58988.94981819931
 20
-9386.724581422056
 30
0.0
 11
-59297.45084977046
 21
-9386.724581422054
 31
0.0
1001
REVIT
1002
{
1070
     1
1000
22685028
1002
}
1002
{
1070
     5
1000
383807
1002
}
1002
{
1070
     2
1000
-2000051
1002
}
1002
{
1070
     3
1000
-2000042
1002
}
  0
LINE
  5
387
330
70
100
AcDbEntity
  8
A-BAS-___-___-EXI
100
AcDbLine
 10
-59297.45084977046
 20
-9386.724581422054
 30
0.0
 11
-59297.45084977046
 21
-9589.349519317902
 31
0.0
1001
REVIT
1002
{
1070
     1
1000
22685028
1002
}
1002
{
1070
     5
1000
383807
1002
}
1002
{
1070
     2
1000
-2000051
1002
}
1002
{
1070
     3
1000
-2000042
1002
}
  0
LINE
  5
388
330
70
100
AcDbEntity
  8
A-BAS-___-___-EXI
100
AcDbLine
 10
-59297.45084977046
 20
-9589.349519317902
 30
0.0
 11
-59613.25368090543
 21
-9589.349519317902
 31
0.0
1001
REVIT
1002
{
1070
     1
1000
22685028
1002
}
1002
{
1070
     5
1000
383807
1002
}
1002
{
1070
     2
1000
-2000051
1002
}
1002
{
1070
     3
1000
-2000042
1002
}
  0
LINE
  5
389
330
70
100
AcDbEntity
  8
A-BAS-___-___-EXI
100
AcDbLine
 10
-59613.25368090543
 20
-9589.349519317902
 30
0.0
 11
-59613.25368090543
 21
-9782.2995727917
 31
0.0
1001
REVIT
1002
{
1070
     1
1000
22685028
1002
}
1002
{
1070
     5
1000
383807
1002
}
1002
{
1070
     2
1000
-2000051
1002
}
1002
{
1070
     3
1000
-2000042
1002
}
  0
LINE
  5
38A
330
70
100
AcDbEntity
  8
A-BAS-___-___-EXI
100
AcDbLine
 10
-59613.25368090543
 20
-9782.2995727917
 30
0.0
 11
-60580.45347384679
 21
-9782.2995727917
 31
0.0
1001
REVIT
1002
{
1070
     1
1000
22685028
1002
}
1002
{
1070
     5
1000
383807
1002
}
1002
{
1070
     2
1000
-2000051
1002
}
1002
{
1070
     3
1000
-2000042
1002
}
  0
LINE
  5
38B
330
70
100
AcDbEntity
  8
A-BAS-___-___-EXI
100
AcDbLine
 10
-60580.45347384679
 20
-9782.2995727917
 30
0.0
 11
-60580.45347384679
 21
-9926.918045438432
 31
0.0
1001
REVIT
1002
{
1070
     1
1000
22685028
1002
}
1002
{
1070
     5
1000
383807
1002
}
1002
{
1070
     2
1000
-2000051
1002
}
1002
{
1070
     3
1000
-2000042
1002
}
  0
LINE
  5
38C
330
70
100
AcDbEntity
  8
A-BAS-___-___-EXI
100
AcDbLine
 10
-60580.45347384679
 20
-9926.918045438432
 30
0.0
 11
-35859.57707798354
 21
-9926.918045438432
 31
0.0
1001
REVIT
1002
{
1070
     1
1000
22685028
1002
}
1002
{
1070
     5
1000
383807
1002
}
1002
{
1070
     2
1000
-2000051
1002
}
1002
{
1070
     3
1000
-2000042
1002
}
  0
LINE
  5
38D
330
70
100
AcDbEntity
  8
A-BAS-___-___-EXI
100
AcDbLine
 10
-35859.57707798354
 20
-9926.918045438432
 30
0.0
 11
-35859.57707798354
 21
-9333.482891878279
 31
0.0
1001
REVIT
1002
{
1070
     1
1000
22685028
1002
}
1002
{
1070
     5
1000
383807
1002
}
1002
{
1070
     2
1000
-2000051
1002
}
1002
{
1070
     3
1000
-2000042
1002
}
  0
LINE
  5
38E
330
70
100
AcDbEntity
  8
A-BAS-___-___-EXI
100
AcDbLine
 10
-35859.57707798354
 20
-9333.482891878279
 30
0.0
 11
-36839.8436694256
 21
-9333.482891878279
 31
0.0
1001
REVIT
1002
{
1070
     1
1000
22685028
1002
}
1002
{
1070
     5
1000
383807
1002
}
1002
{
1070
     2
1000
-2000051
1002
}
1002
{
1070
     3
1000
-2000042
1002
}
  0
LINE
  5
38F
330
70
100
AcDbEntity
  8
A-BAS-___-___-EXI
100
AcDbLine
 10
-36839.8436694256
 20
-9333.482891878279
 30
0.0
 11
-36839.8436694256
 21
-9226.91804543847
 31
0.0
1001
REVIT
1002
{
1070
     1
1000
22685028
1002
}
1002
{
1070
     5
1000
383807
1002
}
1002
{
1070
     2
1000
-2000051
1002
}
1002
{
1070
     3
1000
-2000042
1002
}
  0
LINE
  5
390
330
70
100
AcDbEntity
  8
A-COB-___-___-EXI
100
AcDbLine
 10
-58536.97250192346
 20
-7070.24309936946
 30
0.0
 11
-58672.84600971437
 21
-7128.163778582638
 31
0.0
1001
REVIT
1002
{
1070
     1
1000
22685129
1002
}
1002
{
1070
     2
1000
-2000051
1002
}
1002
{
1070
     3
1000
-2000042
1002
}
  0
LINE
  5
391
330
70
100
AcDbEntity
  8
A-PIL-___-___-EXI
100
AcDbLine
 10
-58672.84600971437
 20
-7128.163778582638
 30
0.0
 11
-58672.84600971437
 21
-9231.918045438389
 31
0.0
1001
REVIT
1002
{
1070
     1
1000
22685129
1002
}
1002
{
1070
     2
1000
-2000051
1002
}
1002
{
1070
     3
1000
-2000042
1002
}
  0
LINE
  5
392
330
70
100
AcDbEntity
  8
A-PIL-___-___-EXI
100
AcDbLine
 10
-58672.84600971437
 20
-9231.918045438389
 30
0.0
 11
-58524.07180417164
 21
-9231.918045438389
 31
0.0
1001
REVIT
1002
{
1070
     1
1000
22685129
1002
}
1002
{
1070
     2
1000
-2000051
1002
}
1002
{
1070
     3
1000
-2000042
1002
}
  0
LINE
  5
393
330
70
100
AcDbEntity
  8
A-PIL-___-___-EXI
100
AcDbLine
 10
-58524.07180417164
 20
-9231.918045438389
 30
0.0
 11
-58524.07180417164
 21
-7064.743740530097
 31
0.0
1001
REVIT
1002
{
1070
     1
1000
22685129
1002
}
1002
{
1070
     2
1000
-2000051
1002
}
1002
{
1070
     3
1000
-2000042
1002
}
  0
LINE
  5
394
330
70
100
AcDbEntity
  8
A-COB-___-___-EXI
100
AcDbLine
 10
-58524.07180417164
 20
-7064.743740530097
 30
0.0
 11
-58524.07180417164
 21
-7161.429765186138
 31
0.0
1001
REVIT
1002
{
1070
     1
1000
22685129
1002
}
1002
{
1070
     2
1000
-2000051
1002
}
1002
{
1070
     3
1000
-2000042
1002
}
  0
LINE
  5
395
330
70
100
AcDbEntity
  8
A-COB-___-___-EXI
100
AcDbLine
 10
-58524.07180417164
 20
-7161.429765186138
 30
0.0
 11
-56390.78512481033
 21
-6937.212300149417
 31
0.0
1001
REVIT
1002
{
1070
     1
1000
22685129
1002
}
1002
{
1070
     2
1000
-2000051
1002
}
1002
{
1070
     3
1000
-2000042
1002
}
  0
LINE
  5
39A
330
70
100
AcDbEntity
  8
A-ESC-___-___-EXI
100
AcDbLine
 10
-46681.08531545825
 20
-9226.918045438438
 30
0.0
 11
-46681.08531545825
 21
-9026.918045438439
 31
0.0
1001
REVIT
1002
{
1070
     1
1000
22685124
1002
}
1002
{
1070
     2
1000
-2000051
1002
}
1002
{
1070
     3
1000
-2000042
1002
}
  0
LWPOLYLINE
  5
3AD
330
70
100
AcDbEntity
  8
A-ESC-___-___-EXI
100
AcDbPolyline
 90
       18
 70
     0
 43
0.0
 10
-46681.08531545825
 20
-9026.918045438439
 10
-46871.08531545825
 20
-9026.918045438439
 10
-46871.08531545825
 20
-8766.918045438439
 10
-47081.08531545825
 20
-8766.918045438439
 10
-47081.08531545825
 20
-8516.918045438439
 10
-47276.08531545825
 20
-8516.918045438439
 10
-47276.08531545825
 20
-8266.918045438439
 10
-47491.08531545824
 20
-8266.918045438439
 10
-47491.08531545824
 20
-8026.918045438439
 10
-47681.08531545824
 20
-8026.918045438439
 10
-47681.08531545824
 20
-7776.918045438439
 10
-47891.08531545825
 20
-7776.918045438439
 10
-47891.08531545825
 20
-7506.918045438438
 10
-48091.08531545825
 20
-7506.918045438438
 10
-48091.08531545825
 20
-7256.918045438439
 10
-48281.08531545825
 20
-7256.918045438439
 10
-48281.08531545825
 20
-7006.918045438438
 10
-48481.08531545824
 20
-7006.918045438438
1001
REVIT
1002
{
1070
     1
1000
22685124
1002
}
1002
{
1070
     2
1000
-2000051
1002
}
1002
{
1070
     3
1000
-2000042
1002
}
  0
LWPOLYLINE
  5
3AE
330
70
100
AcDbEntity
  8
A-POR-___-___-EXI
100
AcDbPolyline
 90
        4
 70
     1
 43
0.0
 10
-46681.08531545825
 20
-7279.363903747642
 10
-46681.08531545825
 20
-9226.918045438438
 10
-45629.91208028251
 20
-9226.918045438438
 10
-45629.91208028251
 20
-7279.363903747642
1001
REVIT
1002
{
1070
     1
1000
22685124
1002
}
1002
{
1070
     2
1000
-2000051
1002
}
1002
{
1070
     3
1000
-2000042
1002
}
  0
LINE
  5
3AF
330
70
100
AcDbEntity
  8
A-ALV-___-___-EXI
100
AcDbLine
 10
-56099.04747074281
 20
-6897.263384945592
 30
0.0
 11
-55823.30129989939
 21
-6848.641895198851
 31
0.0
1001
REVIT
1002
{
1070
     1
1000
22685134
1002
}
1002
{
1070
     2
1000
-2000051
1002
}
1002
{
1070
     3
1000
-2000042
1002
}
  0
LINE
  5
3B0
330
70
100
AcDbEntity
  8
A-ALV-___-___-EXI
100
AcDbLine
 10
-55823.30129989939
 20
-6848.641895198851
 30
0.0
 11
-55823.30129989939
 21
-6105.191799886814
 31
0.0
1001
REVIT
1002
{
1070
     1
1000
22685134
1002
}
1002
{
1070
     2
1000
-2000051
1002
}
1002
{
1070
     3
1000
-2000042
1002
}
  0
LINE
  5
3B1
330
70
100
AcDbEntity
  8
A-COB-___-___-EXI
100
AcDbLine
 10
-55823.30129989939
 20
-6105.191799886814
 30
0.0
 11
-55823.30129989939
 21
-6129.660218575924
 31
0.0
1001
REVIT
1002
{
1070
     1
1000
22685134
1002
}
1002
{
1070
     2
1000
-2000051
1002
}
1002
{
1070
     3
1000
-2000042
1002
}
  0
LINE
  5
3B2
330
70
100
AcDbEntity
  8
A-COB-___-___-EXI
100
AcDbLine
 10
-55823.30129989939
 20
-6129.660218575924
 30
0.0
 11
-53915.19630478853
 21
-5397.207335881443
 31
0.0
1001
REVIT
1002
{
1070
     1
1000
22685134
1002
}
1002
{
1070
     2
1000
-2000051
1002
}
1002
{
1070
     3
1000
-2000042
1002
}
  0
LINE
  5
3B3
330
70
100
AcDbEntity
  8
A-COB-___-___-EXI
100
AcDbLine
 10
-53915.19630478853
 20
-5397.207335881443
 30
0.0
 11
-52345.67131886042
 21
-5232.243612505103
 31
0.0
1001
REVIT
1002
{
1070
     1
1000
22685134
1002
}
1002
{
1070
     2
1000
-2000051
1002
}
1002
{
1070
     3
1000
-2000042
1002
}
  0
VIEWPORT
  5
2D2
330
6C
100
AcDbEntity
 67
     1
  8
A-ALV-___-___-EXI
100
AcDbViewport
 10
169.0584974404084
 20
209.2899860917802
 30
0.0
 40
247.2087639586325
 41
64.61388442905884
 68
     2
 69
     2
 12
-48220.01527591517
 22
-6696.22382398549
 13
0.0
 23
0.0
 14
0.0
 24
0.0
 15
0.0
 25
0.0
 16
0.0
 26
0.0
 36
1.0
 17
0.0
 27
0.0
 37
0.0
 42
0.0
 43
0.0
 44
0.0
 45
6461.388442905884
 50
0.0
 51
0.0
 72
  1000
 90
    32768
  1

281
     0
 71
     1
 74
     1
110
0.0
120
0.0
130
0.0
111
1.0
121
0.0
131
0.0
112
0.0
122
1.0
132
0.0
 79
     0
146
0.0
170
     0
 61
     5
292
     1
282
     1
141
0.0
142
0.0
 63
   250
421
  3355443
  0
VIEWPORT
  5
2D4
330
6C
100
AcDbEntity
 67
     1
  8
0
100
AcDbViewport
 10
169.2970334376927
 20
208.004843242271
 30
0.0
 40
535.8362829545795
 41
211.6918788377746
 68
     1
 69
     1
 12
169.2970334376927
 22
208.004843242271
 13
0.0
 23
0.0
 14
0.0
 24
0.0
 15
0.0
 25
0.0
 16
0.0
 26
0.0
 36
1.0
 17
0.0
 27
0.0
 37
0.0
 42
50.0
 43
0.0
 44
0.0
 45
211.6918788377746
 50
0.0
 51
0.0
 72
   100
 90
    32800
  1

281
     0
 71
     1
 74
     1
110
0.0
120
0.0
130
0.0
111
1.0
121
0.0
131
0.0
112
0.0
122
1.0
132
0.0
 79
     0
146
0.0
170
     0
 61
     5
348
2F
292
     1
282
     1
141
0.0
142
0.0
 63
   250
421
  3355443
  0
INSERT
  5
2E0
330
6C
100
AcDbEntity
 67
     1
  8
A-JAN-___-___-EXI
100
AcDbBlockReference
  2
A4 HORIZONTAL - A4-22688951-Não nomeada
 10
0.0
 20
0.0
 30
0.0
1001
REVIT
1002
{
1070
     1
1000
22687555
1002
}
1002
{
1070
     5
1000
22688951
1002
}
1002
{
1070
     2
1000
-2000280
1002
}
  0
ENDSEC
  0
SECTION
  2
OBJECTS
  0
DICTIONARY
  5
C
330
0
100
AcDbDictionary
281
     1
  3
ACAD_CIP_PREVIOUS_PRODUCT_INFO
350
79
  3
ACAD_COLOR
350
63
  3
ACAD_DETAILVIEWSTYLE
350
6A
  3
ACAD_GROUP
350
D
  3
ACAD_IMAGE_VARS
350
7A
  3
ACAD_LAYOUT
350
62
  3
ACAD_MATERIAL
350
10
  3
ACAD_MLEADERSTYLE
350
66
  3
ACAD_MLINESTYLE
350
5F
  3
ACAD_PLOTSETTINGS
350
61
  3
ACAD_PLOTSTYLENAME
350
E
  3
ACAD_RENDER_ACTIVE_RAPIDRT_SETTINGS
350
300
  3
ACAD_RENDER_RAPIDRT_SETTINGS
350
2F9
  3
ACAD_SCALELIST
350
42
  3
ACAD_SECTIONVIEWSTYLE
350
68
  3
ACAD_TABLESTYLE
350
64
  3
ACAD_VISUALSTYLE
350
29
  3
ACDB_RECOMPOSE_DATA
350
3CE
  3
AcDbVariableDictionary
350
2E9
  3
REVIT_DICTIONARY
350
2E1
  0
SUN
  5
2E8
330
57
100
AcDbSun
 90
        1
290
     1
 63
     7
421
 16777215
 40
0.3
291
     1
 91
  2460364
 92
 47198000
292
     0
 70
     1
 71
   128
280
     1
  0
DICTIONARY
  5
305
330
2
100
AcDbDictionary
280
     1
281
     1
  3
ACAD_LAYERSTATES
360
306
  0
DICTIONARY
  5
2E6
330
70
100
AcDbDictionary
280
     1
281
     1
  3
ACAD_SORTENTS
360
2E7
  0
XRECORD
  5
79
102
{ACAD_REACTORS
330
C
102
}
330
C
100
AcDbXrecord
280
     1
300
ACD
300
2022
300

  0
DICTIONARY
  5
63
102
{ACAD_REACTORS
330
C
102
}
330
C
100
AcDbDictionary
281
     1
  0
DICTIONARY
  5
6A
102
{ACAD_REACTORS
330
C
102
}
330
C
100
AcDbDictionary
281
     1
  3
Imperial24
350
6B
  3
Metric50
350
2F1
  0
DICTIONARY
  5
D
102
{ACAD_REACTORS
330
C
102
}
330
C
100
AcDbDictionary
281
     1
  0
RASTERVARIABLES
  5
7A
102
{ACAD_REACTORS
330
C
102
}
330
C
100
AcDbRasterVariables
 90
        0
 70
     0
 71
     1
 72
     1
  0
DICTIONARY
  5
62
102
{ACAD_REACTORS
330
C
102
}
330
C
100
AcDbDictionary
281
     1
  3
Layout1
350
6F
  3
Model
350
73
  0
DICTIONARY
  5
10
102
{ACAD_REACTORS
330
C
102
}
330
C
100
AcDbDictionary
281
     1
  3
ByBlock
350
19
  3
ByLayer
350
11
  3
Global
350
21
  0
DICTIONARY
  5
66
102
{ACAD_REACTORS
330
C
102
}
330
C
100
AcDbDictionary
281
     1
  3
Standard
350
67
  0
DICTIONARY
  5
5F
102
{ACAD_REACTORS
330
C
102
}
330
C
100
AcDbDictionary
281
     1
  3
Standard
350
60
  0
DICTIONARY
  5
61
102
{ACAD_REACTORS
330
C
102
}
330
C
100
AcDbDictionary
281
     1
  0
ACDBDICTIONARYWDFLT
  5
E
102
{ACAD_REACTORS
330
C
102
}
330
C
100
AcDbDictionary
281
     1
  3
Normal
350
F
100
AcDbDictionaryWithDefault
340
F
  0
RAPIDRTRENDERSETTINGS
  5
300
102
{ACAD_REACTORS
330
C
102
}
330
C
100
AcDbRenderSettings
 90
        2
  1
Médio
290
     1
290
     0
290
     1
290
     1
  1

  1
Aplica 5 níveis de renderização
 90
        0
100
AcDbRapidRTRenderSettings
 90
        3
 70
     0
 90
        5
 90
        1
 70
     1
 70
     2
 40
3.0
 40
3.0
290
     1
  0
DICTIONARY
  5
2F9
102
{ACAD_REACTORS
330
C
102
}
330
C
100
AcDbDictionary
281
     1
  3
Alto
350
2FC
  3
Baixo
350
2FA
  3
Médio
350
2FB
  3
Qualidade de curta duração
350
2FD
  3
Qualidade de longa duração
350
2FF
  3
Qualidade de média duração
350
2FE
  0
DICTIONARY
  5
42
102
{ACAD_REACTORS
330
C
102
}
330
C
100
AcDbDictionary
281
     1
  3
A0
350
43
  3
A1
350
44
  3
A2
350
45
  3
A3
350
46
  3
A4
350
47
  3
A5
350
48
  3
A6
350
49
  3
A7
350
4A
  3
A8
350
4B
  3
A9
350
4C
  3
B0
350
4D
  3
B1
350
4E
  3
B2
350
4F
  3
B3
350
50
  3
B4
350
51
  3
B5
350
52
  3
B6
350
53
  0
DICTIONARY
  5
68
102
{ACAD_REACTORS
330
C
102
}
330
C
100
AcDbDictionary
281
     1
  3
Imperial24
350
69
  3
Metric50
350
2F0
  0
DICTIONARY
  5
64
102
{ACAD_REACTORS
330
C
102
}
330
C
100
AcDbDictionary
281
     1
  3
Standard
350
65
  0
DICTIONARY
  5
29
102
{ACAD_REACTORS
330
C
102
}
330
C
100
AcDbDictionary
281
     1
  3
2dWireframe
350
2F
  3
Basic
350
2E
  3
Brighten
350
35
  3
ColorChange
350
39
  3
Conceptual
350
32
  3
Dim
350
34
  3
EdgeColorOff
350
41
  3
Facepattern
350
38
  3
Flat
350
2A
  3
FlatWithEdges
350
2B
  3
Gouraud
350
2C
  3
GouraudWithEdges
350
2D
  3
Hidden
350
31
  3
JitterOff
350
3F
  3
Linepattern
350
37
  3
OverhangOff
350
40
  3
Realistic
350
33
  3
Shaded
350
3E
  3
Shaded with edges
350
3D
  3
Shades of Gray
350
3A
  3
Sketchy
350
3B
  3
Thicken
350
36
  3
Wireframe
350
30
  3
X-Ray
350
3C
  0
XRECORD
  5
3CE
102
{ACAD_REACTORS
330
C
102
}
330
C
100
AcDbXrecord
280
     1
 90
        1
330
65
  0
DICTIONARY
  5
2E9
102
{ACAD_REACTORS
330
C
102
}
330
C
100
AcDbDictionary
281
     1
  3
CANNOSCALE
350
2EE
  3
CMLEADERSTYLE
350
2EB
  3
CTABLESTYLE
350
2EA
  3
CVIEWDETAILSTYLE
350
2EC
  3
CVIEWSECTIONSTYLE
350
2ED
  0
DICTIONARY
  5
2E1
102
{ACAD_REACTORS
330
C
102
}
330
C
100
AcDbDictionary
281
     1
  3
DRAWING_TOOL
350
2E5
  3
REVIT_CATEGORY_MAPPING
350
2E3
  3
REVIT_SUB_CATEGORY_MAPPING
350
2E4
  3
REVIT_TYPE_MAPPING
350
2E2
  0
DICTIONARY
  5
306
102
{ACAD_REACTORS
330
305
102
}
330
305
100
AcDbDictionary
281
     1
  0
SORTENTSTABLE
  5
2E7
102
{ACAD_REACTORS
330
2E6
102
}
330
2E6
100
AcDbSortentsTable
330
70
331
355
  5
35B
331
358
  5
393
331
359
  5
394
331
35A
  5
395
331
35B
  5
396
331
35C
  5
397
331
35D
  5
398
331
35E
  5
399
331
35F
  5
39A
331
360
  5
39B
331
361
  5
39C
331
362
  5
39D
331
364
  5
3AF
331
365
  5
3B0
331
366
  5
3B1
331
380
  5
39E
331
381
  5
39F
331
382
  5
3A0
331
383
  5
3A1
331
384
  5
3A2
331
385
  5
3A3
331
386
  5
3A4
331
387
  5
3A5
331
388
  5
3A6
331
389
  5
3A7
331
38A
  5
3A8
331
38B
  5
3A9
331
38C
  5
3AA
331
38D
  5
3AB
331
38E
  5
3AD
331
38F
  5
3AE
331
390
  5
35C
331
391
  5
362
331
392
  5
38E
331
393
  5
38F
331
394
  5
390
331
395
  5
391
331
39A
  5
392
331
3AD
  5
3B2
331
3AE
  5
3B3
331
3AF
  5
355
331
3B0
  5
357
331
3B1
  5
358
331
3B2
  5
359
331
3B3
  5
35A
  0
ACDBDETAILVIEWSTYLE
  5
6B
102
{ACAD_REACTORS
330
6A
102
}
330
6A
100
AcDbModelDocViewStyle
 70
     0
  3
Imperial24
290
     1
300
Imperial24
 90
        0
100
AcDbDetailViewStyle
 70
     0
 71
     0
 90
        3
 71
     1
340
55
 62
   256
 40
0.24
340
0
 62
   256
 40
0.24
300

 40
0.36
280
     3
 71
     2
340
5D
 90
       25
 62
   256
 71
     3
340
55
 62
   256
 40
0.24
 90
        1
 40
0.75
 90
        1
300
%<\AcVar ViewType \f "%tc1">% %<\AcVar ViewDetailId>%\PSCALE %<\AcVar ViewScale \f "%sn">%
 71
     4
340
5D
 90
       25
 62
   256
340
5D
 90
       25
 62
   256
280
     0
  0
ACDBDETAILVIEWSTYLE
  5
2F1
102
{ACAD_REACTORS
330
6A
102
}
330
6A
100
AcDbModelDocViewStyle
 70
     0
  3
Metric50
290
     1
300
Metric50
 90
        0
100
AcDbDetailViewStyle
 70
     0
 71
     0
 90
        3
 71
     1
340
55
 62
   256
 40
5.0
340
0
 62
   256
 40
5.0
300

 40
0.0
280
     1
 71
     2
340
5D
 90
       25
 62
   256
 71
     3
340
55
 62
   256
 40
5.0
 90
        0
 40
15.0
 90
        1
300
%<\AcVar ViewDetailId>% (%<\AcVar ViewScale \f "%sn">%)
 71
     4
340
5D
 90
       25
 62
   256
340
5D
 90
       25
 62
   256
280
     0
  0
LAYOUT
  5
6F
102
{ACAD_REACTORS
330
62
102
}
330
62
100
AcDbPlotSettings
  1

  2
PDF24
  4
A4
  6

 40
0.0
 41
0.0
 42
0.1113433837890625
 43
0.0
 44
210.0
 45
297.0
 46
0.0
 47
0.0
 48
0.0
 49
0.0
140
0.0
141
0.0
142
1.0
143
1.000647896891756
 70
   688
 72
     1
 73
     1
 74
     1
  7

 75
     0
147
0.9993525226068337
 76
     0
 77
     2
 78
   300
148
-20.76884200533789
149
-102.9849099062627
100
AcDbLayout
  1
Layout1
 70
     0
 71
     1
 10
20.76884200533789
 20
102.9849099062627
 11
317.9612673821897
 21
313.1209682535316
 12
0.0
 22
0.0
 32
0.0
 14
20.78244708689817
 24
102.9945296609012
 34
-0.0000000349181948
 15
317.8116197884872
 25
313.0151568236408
 35
0.0000000814935746
146
0.0
 13
0.0
 23
0.0
 33
0.0
 16
1.0
 26
0.0
 36
0.0
 17
0.0
 27
1.0
 37
0.0
 76
     0
330
6C
331
2D4
1001
ACAD_PSEXT
1000
PDF24
1000
PDF24
1000
\\.\pipe\PDFPrint
1000
PDF24 Printer
1070
     0
  0
LAYOUT
  5
73
102
{ACAD_REACTORS
330
62
102
}
330
62
100
AcDbPlotSettings
  1

  2

  4

  6

 40
0.0
 41
0.0
 42
0.0
 43
0.0
 44
0.0
 45
0.0
 46
0.0
 47
0.0
 48
0.0
 49
0.0
140
0.0
141
0.0
142
1.0
143
1.0
 70
  1712
 72
     0
 73
     0
 74
     0
  7

 75
     0
147
1.0
 76
     0
 77
     2
 78
   300
148
0.0
149
0.0
100
AcDbLayout
  1
Model
 70
     1
 71
     0
 10
0.0
 20
0.0
 11
12.0
 21
9.0
 12
0.0
 22
0.0
 32
0.0
 14
0.0
 24
0.0
 34
0.0
 15
0.0
 25
0.0
 35
0.0
146
0.0
 13
0.0
 23
0.0
 33
0.0
 16
1.0
 26
0.0
 36
0.0
 17
0.0
 27
1.0
 37
0.0
 76
     0
330
70
331
57
  0
MATERIAL
  5
19
102
{ACAD_XDICTIONARY
360
1A
102
}
102
{ACAD_REACTORS
330
10
102
}
330
10
100
AcDbMaterial
  1
ByBlock
 72
     0
 43
0.0208333333333333
 43
0.0
 43
0.0
 43
0.0
 43
0.0
 43
0.0208333333333333
 43
0.0
 43
0.0
 43
0.0
 43
0.0
 43
1.0
 43
0.0
 43
0.0
 43
0.0
 43
0.0
 43
1.0
 77
     0
 47
0.0208333333333333
 47
0.0
 47
0.0
 47
0.0
 47
0.0
 47
0.0208333333333333
 47
0.0
 47
0.0
 47
0.0
 47
0.0
 47
1.0
 47
0.0
 47
0.0
 47
0.0
 47
0.0
 47
1.0
171
     0
 49
0.0208333333333333
 49
0.0
 49
0.0
 49
0.0
 49
0.0
 49
0.0208333333333333
 49
0.0
 49
0.0
 49
0.0
 49
0.0
 49
1.0
 49
0.0
 49
0.0
 49
0.0
 49
0.0
 49
1.0
175
     0
142
0.0208333333333333
142
0.0
142
0.0
142
0.0
142
0.0
142
0.0208333333333333
142
0.0
142
0.0
142
0.0
142
0.0
142
1.0
142
0.0
142
0.0
142
0.0
142
0.0
142
1.0
179
     0
144
0.0208333333333333
144
0.0
144
0.0
144
0.0
144
0.0
144
0.0208333333333333
144
0.0
144
0.0
144
0.0
144
0.0
144
1.0
144
0.0
144
0.0
144
0.0
144
0.0
144
1.0
147
0.0208333333333333
147
0.0
147
0.0
147
0.0
147
0.0
147
0.0208333333333333
147
0.0
147
0.0
147
0.0
147
0.0
147
1.0
147
0.0
147
0.0
147
0.0
147
0.0
147
1.0
  0
MATERIAL
  5
11
102
{ACAD_XDICTIONARY
360
12
102
}
102
{ACAD_REACTORS
330
10
102
}
330
10
100
AcDbMaterial
  1
ByLayer
 72
     0
 43
0.0208333333333333
 43
0.0
 43
0.0
 43
0.0
 43
0.0
 43
0.0208333333333333
 43
0.0
 43
0.0
 43
0.0
 43
0.0
 43
1.0
 43
0.0
 43
0.0
 43
0.0
 43
0.0
 43
1.0
 77
     0
 47
0.0208333333333333
 47
0.0
 47
0.0
 47
0.0
 47
0.0
 47
0.0208333333333333
 47
0.0
 47
0.0
 47
0.0
 47
0.0
 47
1.0
 47
0.0
 47
0.0
 47
0.0
 47
0.0
 47
1.0
171
     0
 49
0.0208333333333333
 49
0.0
 49
0.0
 49
0.0
 49
0.0
 49
0.0208333333333333
 49
0.0
 49
0.0
 49
0.0
 49
0.0
 49
1.0
 49
0.0
 49
0.0
 49
0.0
 49
0.0
 49
1.0
175
     0
142
0.0208333333333333
142
0.0
142
0.0
142
0.0
142
0.0
142
0.0208333333333333
142
0.0
142
0.0
142
0.0
142
0.0
142
1.0
142
0.0
142
0.0
142
0.0
142
0.0
142
1.0
179
     0
144
0.0208333333333333
144
0.0
144
0.0
144
0.0
144
0.0
144
0.0208333333333333
144
0.0
144
0.0
144
0.0
144
0.0
144
1.0
144
0.0
144
0.0
144
0.0
144
0.0
144
1.0
147
0.0208333333333333
147
0.0
147
0.0
147
0.0
147
0.0
147
0.0208333333333333
147
0.0
147
0.0
147
0.0
147
0.0
147
1.0
147
0.0
147
0.0
147
0.0
147
0.0
147
1.0
  0
MATERIAL
  5
21
102
{ACAD_XDICTIONARY
360
22
102
}
102
{ACAD_REACTORS
330
10
102
}
330
10
100
AcDbMaterial
  1
Global
 72
     0
 43
0.0208333333333333
 43
0.0
 43
0.0
 43
0.0
 43
0.0
 43
0.0208333333333333
 43
0.0
 43
0.0
 43
0.0
 43
0.0
 43
1.0
 43
0.0
 43
0.0
 43
0.0
 43
0.0
 43
1.0
 77
     0
 47
0.0208333333333333
 47
0.0
 47
0.0
 47
0.0
 47
0.0
 47
0.0208333333333333
 47
0.0
 47
0.0
 47
0.0
 47
0.0
 47
1.0
 47
0.0
 47
0.0
 47
0.0
 47
0.0
 47
1.0
171
     0
 49
0.0208333333333333
 49
0.0
 49
0.0
 49
0.0
 49
0.0
 49
0.0208333333333333
 49
0.0
 49
0.0
 49
0.0
 49
0.0
 49
1.0
 49
0.0
 49
0.0
 49
0.0
 49
0.0
 49
1.0
175
     0
142
0.0208333333333333
142
0.0
142
0.0
142
0.0
142
0.0
142
0.0208333333333333
142
0.0
142
0.0
142
0.0
142
0.0
142
1.0
142
0.0
142
0.0
142
0.0
142
0.0
142
1.0
179
     0
144
0.0208333333333333
144
0.0
144
0.0
144
0.0
144
0.0
144
0.0208333333333333
144
0.0
144
0.0
144
0.0
144
0.0
144
1.0
144
0.0
144
0.0
144
0.0
144
0.0
144
1.0
147
0.0208333333333333
147
0.0
147
0.0
147
0.0
147
0.0
147
0.0208333333333333
147
0.0
147
0.0
147
0.0
147
0.0
147
1.0
147
0.0
147
0.0
147
0.0
147
0.0
147
1.0
  0
MLEADERSTYLE
  5
67
102
{ACAD_REACTORS
330
66
102
}
330
66
100
AcDbMLeaderStyle
179
     2
170
     2
171
     1
172
     0
 90
        2
 40
0.0
 41
0.0
173
     1
 91
-1056964608
340
5B
 92
       -2
290
     1
 42
0.09
291
     1
 43
0.36
  3
Standard
 44
0.18
300

342
55
174
     1
178
     6
175
     1
176
     0
 93
-1056964608
 45
0.18
292
     0
297
     0
 46
0.18
 94
-1056964608
 47
1.0
 49
1.0
140
1.0
293
     1
141
0.0
294
     1
177
     0
142
1.0
295
     1
296
     0
143
0.125
271
     0
272
     9
273
     9
298
     1
  0
MLINESTYLE
  5
60
102
{ACAD_REACTORS
330
5F
102
}
330
5F
100
AcDbMlineStyle
  2
STANDARD
 70
     0
  3

 62
   256
 51
90.0
 52
90.0
 71
     2
 49
0.5
 62
   256
  6
BYLAYER
 49
-0.5
 62
   256
  6
BYLAYER
  0
ACDBPLACEHOLDER
  5
F
102
{ACAD_REACTORS
330
E
102
}
330
E
  0
RAPIDRTRENDERSETTINGS
  5
2FC
102
{ACAD_REACTORS
330
2F9
102
}
330
2F9
100
AcDbRenderSettings
 90
        2
  1
Alto
290
     1
290
     0
290
     1
290
     1
  1

  1
Aplica 10 níveis de renderização
 90
        2
100
AcDbRapidRTRenderSettings
 90
        3
 70
     0
 90
       10
 90
        1
 70
     2
 70
     2
 40
3.0
 40
3.0
290
     1
  0
RAPIDRTRENDERSETTINGS
  5
2FA
102
{ACAD_REACTORS
330
2F9
102
}
330
2F9
100
AcDbRenderSettings
 90
        2
  1
Baixo
290
     1
290
     0
290
     1
290
     1
  1

  1
Aplica 1 nível de renderização
 90
        0
100
AcDbRapidRTRenderSettings
 90
        3
 70
     0
 90
        1
 90
        1
 70
     0
 70
     2
 40
3.0
 40
3.0
290
     1
  0
RAPIDRTRENDERSETTINGS
  5
2FB
102
{ACAD_REACTORS
330
2F9
102
}
330
2F9
100
AcDbRenderSettings
 90
        2
  1
Médio
290
     1
290
     0
290
     1
290
     1
  1

  1
Aplica 5 níveis de renderização
 90
        1
100
AcDbRapidRTRenderSettings
 90
        3
 70
     0
 90
        5
 90
        1
 70
     1
 70
     2
 40
3.0
 40
3.0
290
     1
  0
RAPIDRTRENDERSETTINGS
  5
2FD
102
{ACAD_REACTORS
330
2F9
102
}
330
2F9
100
AcDbRenderSettings
 90
        2
  1
Qualidade de curta duração
290
     1
290
     0
290
     1
290
     1
  1

  1
Renderiza por 10 minutos
 90
        3
100
AcDbRapidRTRenderSettings
 90
        3
 70
     1
 90
        1
 90
       10
 70
     1
 70
     2
 40
3.0
 40
3.0
290
     1
  0
RAPIDRTRENDERSETTINGS
  5
2FF
102
{ACAD_REACTORS
330
2F9
102
}
330
2F9
100
AcDbRenderSettings
 90
        2
  1
Qualidade de longa duração
290
     1
290
     0
290
     1
290
     1
  1

  1
Renderiza por 12 horas
 90
        5
100
AcDbRapidRTRenderSettings
 90
        3
 70
     1
 90
        1
 90
      720
 70
     2
 70
     2
 40
3.0
 40
3.0
290
     1
  0
RAPIDRTRENDERSETTINGS
  5
2FE
102
{ACAD_REACTORS
330
2F9
102
}
330
2F9
100
AcDbRenderSettings
 90
        2
  1
Qualidade de média duração
290
     1
290
     0
290
     1
290
     1
  1

  1
Renderiza por 60 minutos
 90
        4
100
AcDbRapidRTRenderSettings
 90
        3
 70
     1
 90
        1
 90
       60
 70
     2
 70
     2
 40
3.0
 40
3.0
290
     1
  0
SCALE
  5
43
102
{ACAD_REACTORS
330
42
102
}
330
42
100
AcDbScale
 70
     0
300
1:1
140
1.0
141
1.0
290
     1
  0
SCALE
  5
44
102
{ACAD_REACTORS
330
42
102
}
330
42
100
AcDbScale
 70
     0
300
1/128" = 1'-0"
140
0.0078125
141
12.0
290
     0
  0
SCALE
  5
45
102
{ACAD_REACTORS
330
42
102
}
330
42
100
AcDbScale
 70
     0
300
1/64" = 1'-0"
140
0.015625
141
12.0
290
     0
  0
SCALE
  5
46
102
{ACAD_REACTORS
330
42
102
}
330
42
100
AcDbScale
 70
     0
300
1/32" = 1'-0"
140
0.03125
141
12.0
290
     0
  0
SCALE
  5
47
102
{ACAD_REACTORS
330
42
102
}
330
42
100
AcDbScale
 70
     0
300
1/16" = 1'-0"
140
0.0625
141
12.0
290
     0
  0
SCALE
  5
48
102
{ACAD_REACTORS
330
42
102
}
330
42
100
AcDbScale
 70
     0
300
3/32" = 1'-0"
140
0.09375
141
12.0
290
     0
  0
SCALE
  5
49
102
{ACAD_REACTORS
330
42
102
}
330
42
100
AcDbScale
 70
     0
300
1/8" = 1'-0"
140
0.125
141
12.0
290
     0
  0
SCALE
  5
4A
102
{ACAD_REACTORS
330
42
102
}
330
42
100
AcDbScale
 70
     0
300
3/16" = 1'-0"
140
0.1875
141
12.0
290
     0
  0
SCALE
  5
4B
102
{ACAD_REACTORS
330
42
102
}
330
42
100
AcDbScale
 70
     0
300
1/4" = 1'-0"
140
0.25
141
12.0
290
     0
  0
SCALE
  5
4C
102
{ACAD_REACTORS
330
42
102
}
330
42
100
AcDbScale
 70
     0
300
3/8" = 1'-0"
140
0.375
141
12.0
290
     0
  0
SCALE
  5
4D
102
{ACAD_REACTORS
330
42
102
}
330
42
100
AcDbScale
 70
     0
300
1/2" = 1'-0"
140
0.5
141
12.0
290
     0
  0
SCALE
  5
4E
102
{ACAD_REACTORS
330
42
102
}
330
42
100
AcDbScale
 70
     0
300
3/4" = 1'-0"
140
0.75
141
12.0
290
     0
  0
SCALE
  5
4F
102
{ACAD_REACTORS
330
42
102
}
330
42
100
AcDbScale
 70
     0
300
1" = 1'-0"
140
1.0
141
12.0
290
     0
  0
SCALE
  5
50
102
{ACAD_REACTORS
330
42
102
}
330
42
100
AcDbScale
 70
     0
300
1-1/2" = 1'-0"
140
1.5
141
12.0
290
     0
  0
SCALE
  5
51
102
{ACAD_REACTORS
330
42
102
}
330
42
100
AcDbScale
 70
     0
300
3" = 1'-0"
140
3.0
141
12.0
290
     0
  0
SCALE
  5
52
102
{ACAD_REACTORS
330
42
102
}
330
42
100
AcDbScale
 70
     0
300
6" = 1'-0"
140
6.0
141
12.0
290
     0
  0
SCALE
  5
53
102
{ACAD_REACTORS
330
42
102
}
330
42
100
AcDbScale
 70
     0
300
1'-0" = 1'-0"
140
12.0
141
12.0
290
     0
  0
ACDBSECTIONVIEWSTYLE
  5
69
102
{ACAD_REACTORS
330
68
102
}
330
68
100
AcDbModelDocViewStyle
 70
     0
  3
Imperial24
290
     1
300
Imperial24
 90
        0
100
AcDbSectionViewStyle
 70
     0
 71
     0
 90
       78
 71
     1
340
55
 62
   256
 40
0.24
340
0
340
0
 62
   256
 40
0.24
300
I, O, Q, S, X, Z
 40
0.48
 90
        3
 40
0.18
 90
        1
 71
     2
340
5D
 90
       25
 62
   256
340
5D
 90
       50
 62
   256
 40
0.24
 40
0.0
 40
0.24
 71
     3
340
55
 62
   256
 40
0.24
 90
        1
 40
0.75
 90
        1
300
%<\AcVar ViewType \f "%tc1">% %<\AcVar ViewSectionStartId>%-%<\AcVar ViewSectionEndId>%\PSCALE %<\AcVar ViewScale \f "%sn">%
 71
     4
 62
   256
 62
   257
300
ANSI31
 40
1.0
 90
        0
290
     0
290
     0
 90
        6
 40
0.0
 40
1.570796326794896
 40
0.2617993877991494
 40
1.308996938995747
 40
-0.2617993877991494
 40
1.832595714594046
  0
ACDBSECTIONVIEWSTYLE
  5
2F0
102
{ACAD_REACTORS
330
68
102
}
330
68
100
AcDbModelDocViewStyle
 70
     0
  3
Metric50
290
     1
300
Metric50
 90
        0
100
AcDbSectionViewStyle
 70
     0
 71
     0
 90
      102
 71
     1
340
55
 62
   256
 40
5.0
340
0
340
0
 62
   256
 40
5.0
300
I, O, Q, S, X, Z
 40
10.0
 90
        0
 40
2.5
 90
        0
 71
     2
340
5D
 90
       25
 62
   256
340
5D
 90
       50
 62
   256
 40
5.0
 40
2.5
 40
5.0
 71
     3
340
55
 62
   256
 40
5.0
 90
        0
 40
15.0
 90
        1
300
%<\AcVar ViewSectionStartId>%-%<\AcVar ViewSectionEndId>% (%<\AcVar ViewScale \f "%sn">%)
 71
     4
 62
   256
 62
   257
300
ANSI31
 40
1.0
 90
        0
290
     0
290
     0
 90
        6
 40
0.0
 40
1.570796326794896
 40
0.2617993877991494
 40
1.308996938995747
 40
-0.2617993877991494
 40
1.832595714594046
  0
TABLESTYLE
  5
65
102
{ACAD_XDICTIONARY
360
3CC
102
}
102
{ACAD_REACTORS
330
64
102
}
330
64
100
AcDbTableStyle
280
     0
  3
Standard
 70
     0
 71
     0
 40
0.06
 41
0.06
280
     0
281
     0
  7
Standard
140
0.18
170
     2
 62
     0
 63
     7
283
     0
 90
      512
 91
        0
  1

274
    -2
284
     1
 64
     0
275
    -2
285
     1
 65
     0
276
    -2
286
     1
 66
     0
277
    -2
287
     1
 67
     0
278
    -2
288
     1
 68
     0
279
    -2
289
     1
 69
     0
  7
Standard
140
0.25
170
     5
 62
     0
 63
     7
283
     0
 90
      512
 91
        0
  1

274
    -2
284
     1
 64
     0
275
    -2
285
     1
 65
     0
276
    -2
286
     1
 66
     0
277
    -2
287
     1
 67
     0
278
    -2
288
     1
 68
     0
279
    -2
289
     1
 69
     0
  7
Standard
140
0.18
170
     5
 62
     0
 63
     7
283
     0
 90
      512
 91
        0
  1

274
    -2
284
     1
 64
     0
275
    -2
285
     1
 65
     0
276
    -2
286
     1
 66
     0
277
    -2
287
     1
 67
     0
278
    -2
288
     1
 68
     0
279
    -2
289
     1
 69
     0
  0
VISUALSTYLE
  5
2F
102
{ACAD_REACTORS
330
29
102
}
330
29
100
AcDbVisualStyle
  2
2dWireframe
 70
     4
177
     3
291
     0
 70
    58
 90
        0
176
     1
 90
        2
176
     1
 90
        0
176
     1
 90
        0
176
     1
 40
0.6
176
     1
 40
30.0
176
     1
 62
     7
420
 16777215
176
     1
 90
        1
176
     1
 90
        4
176
     1
 62
     7
176
     1
 62
   257
176
     1
 90
        1
176
     1
 90
        1
176
     1
 40
1.0
176
     1
 90
        0
176
     1
 62
   257
176
     1
 40
1.0
176
     1
 90
        1
176
     1
 90
        6
176
     1
 90
        2
176
     1
 62
     7
176
     1
 90
        5
176
     1
 90
        0
176
     1
 90
        0
176
     1
290
     0
176
     1
 90
        1
176
     1
 40
0.0
176
     1
 90
        0
176
     1
290
     1
176
     1
290
     1
176
     1
290
     0
176
     1
290
     0
176
     1
290
     0
176
     1
290
     0
176
     1
290
     0
176
     1
290
     0
176
     1
290
     0
176
     1
 90
       50
176
     1
 40
0.0
176
     1
 40
1.0
176
     1
 90
        0
176
     1
 62
    18
420
        0
176
     1
 90
       50
176
     1
 90
        3
176
     1
 62
     5
420
      255
176
     1
290
     0
176
     1
 90
       50
176
     1
 90
       50
176
     1
 90
       50
176
     1
290
     0
176
     1
 90
       50
176
     1
 62
   256
176
     0
 40
1.0
176
     0
 90
        2
176
     1
  1
strokes_ogs.tif
176
     1
290
     0
176
     1
 40
1.0
176
     1
 40
1.0
176
     1
  0
VISUALSTYLE
  5
2E
102
{ACAD_REACTORS
330
29
102
}
330
29
100
AcDbVisualStyle
  2
Basic
 70
     7
177
     3
291
     1
 70
    58
 90
        1
176
     1
 90
        0
176
     1
 90
        1
176
     1
 90
        0
176
     1
 40
0.6
176
     1
 40
30.0
176
     1
 62
     7
420
 16777215
176
     1
 90
        0
176
     1
 90
        4
176
     1
 62
     7
176
     1
 62
   257
176
     1
 90
        1
176
     1
 90
        1
176
     1
 40
1.0
176
     1
 90
        8
176
     1
 62
     7
176
     1
 40
1.0
176
     1
 90
        1
176
     1
 90
        6
176
     1
 90
        2
176
     1
 62
     7
176
     1
 90
        5
176
     1
 90
        0
176
     1
 90
        0
176
     1
290
     0
176
     1
 90
        1
176
     1
 40
0.0
176
     1
 90
        0
176
     1
290
     0
176
     1
290
     1
176
     1
290
     1
176
     1
290
     0
176
     1
290
     0
176
     1
290
     0
176
     1
290
     0
176
     1
290
     0
176
     1
290
     0
176
     1
 90
       50
176
     1
 40
0.0
176
     1
 40
1.0
176
     1
 90
        0
176
     1
 62
    18
420
        0
176
     1
 90
       50
176
     1
 90
        3
176
     1
 62
     5
420
      255
176
     1
290
     0
176
     1
 90
       50
176
     1
 90
       50
176
     1
 90
       50
176
     1
290
     0
176
     1
 90
       50
176
     1
 62
   256
176
     0
 40
1.0
176
     0
 90
        2
176
     1
  1
strokes_ogs.tif
176
     1
290
     0
176
     1
 40
1.0
176
     1
 40
1.0
176
     1
  0
VISUALSTYLE
  5
35
102
{ACAD_REACTORS
330
29
102
}
330
29
100
AcDbVisualStyle
  2
Brighten
 70
    12
177
     3
291
     1
 70
    58
 90
        2
176
     1
 90
        2
176
     1
 90
        0
176
     1
 90
        0
176
     1
 40
0.6
176
     1
 40
30.0
176
     1
 62
     7
420
 16777215
176
     1
 90
        1
176
     1
 90
        4
176
     1
 62
     7
176
     1
 62
   257
176
     1
 90
        1
176
     1
 90
        1
176
     1
 40
1.0
176
     1
 90
        8
176
     1
 62
     7
176
     1
 40
1.0
176
     1
 90
        1
176
     1
 90
        6
176
     1
 90
        2
176
     1
 62
     7
176
     1
 90
        5
176
     1
 90
        0
176
     1
 90
        0
176
     1
290
     0
176
     1
 90
        1
176
     1
 40
50.0
176
     1
 90
        0
176
     1
290
     0
176
     1
290
     1
176
     1
290
     1
176
     1
290
     0
176
     1
290
     0
176
     1
290
     0
176
     1
290
     0
176
     1
290
     0
176
     1
290
     0
176
     1
 90
       50
176
     1
 40
0.0
176
     1
 40
1.0
176
     1
 90
        0
176
     1
 62
    18
420
        0
176
     1
 90
       50
176
     1
 90
        3
176
     1
 62
     5
420
      255
176
     1
290
     0
176
     1
 90
       50
176
     1
 90
       50
176
     1
 90
       50
176
     1
290
     0
176
     1
 90
       50
176
     1
 62
   256
176
     0
 40
1.0
176
     0
 90
        2
176
     1
  1
strokes_ogs.tif
176
     1
290
     0
176
     1
 40
1.0
176
     1
 40
1.0
176
     1
  0
VISUALSTYLE
  5
39
102
{ACAD_REACTORS
330
29
102
}
330
29
100
AcDbVisualStyle
  2
ColorChange
 70
    16
177
     3
291
     1
 70
    58
 90
        2
176
     1
 90
        2
176
     1
 90
        3
176
     1
 90
        0
176
     1
 40
0.6
176
     1
 40
30.0
176
     1
 62
     8
420
  8421504
176
     1
 90
        1
176
     1
 90
        4
176
     1
 62
     7
176
     1
 62
   257
176
     1
 90
        1
176
     1
 90
        1
176
     1
 40
1.0
176
     1
 90
        8
176
     1
 62
     8
420
  8421504
176
     1
 40
1.0
176
     1
 90
        1
176
     1
 90
        6
176
     1
 90
        2
176
     1
 62
     7
176
     1
 90
        5
176
     1
 90
        0
176
     1
 90
        0
176
     1
290
     0
176
     1
 90
        1
176
     1
 40
0.0
176
     1
 90
        0
176
     1
290
     0
176
     1
290
     1
176
     1
290
     1
176
     1
290
     0
176
     1
290
     0
176
     1
290
     0
176
     1
290
     0
176
     1
290
     0
176
     1
290
     0
176
     1
 90
       50
176
     1
 40
0.0
176
     1
 40
1.0
176
     1
 90
        0
176
     1
 62
    18
420
        0
176
     1
 90
       50
176
     1
 90
        3
176
     1
 62
     5
420
      255
176
     1
290
     0
176
     1
 90
       50
176
     1
 90
       50
176
     1
 90
       50
176
     1
290
     0
176
     1
 90
       50
176
     1
 62
   256
176
     0
 40
1.0
176
     0
 90
        2
176
     1
  1
strokes_ogs.tif
176
     1
290
     0
176
     1
 40
1.0
176
     1
 40
1.0
176
     1
  0
VISUALSTYLE
  5
32
102
{ACAD_REACTORS
330
29
102
}
330
29
100
AcDbVisualStyle
  2
Conceptual
 70
     9
177
     3
291
     0
 70
    58
 90
        3
176
     1
 90
        2
176
     1
 90
        0
176
     1
 90
        0
176
     1
 40
0.6
176
     1
 40
30.0
176
     1
 62
     7
420
 16777215
176
     1
 90
        2
176
     1
 90
        2
176
     1
 62
     7
176
     1
 62
   257
176
     1
 90
        1
176
     1
 90
        1
176
     1
 40
179.0
176
     1
 90
        8
176
     1
 62
     7
176
     1
 40
1.0
176
     1
 90
        1
176
     1
 90
        6
176
     1
 90
        2
176
     1
 62
     7
176
     1
 90
        3
176
     1
 90
        0
176
     1
 90
        0
176
     1
290
     0
176
     1
 90
        1
176
     1
 40
0.0
176
     1
 90
        0
176
     1
290
     0
176
     1
290
     1
176
     1
290
     1
176
     1
290
     0
176
     1
290
     0
176
     1
290
     0
176
     1
290
     0
176
     1
290
     0
176
     1
290
     0
176
     1
 90
       50
176
     1
 40
0.0
176
     1
 40
1.0
176
     1
 90
        0
176
     1
 62
    18
420
        0
176
     1
 90
       50
176
     1
 90
        3
176
     1
 62
     5
420
      255
176
     1
290
     0
176
     1
 90
       50
176
     1
 90
       50
176
     1
 90
       50
176
     1
290
     0
176
     1
 90
       50
176
     1
 62
   256
176
     0
 40
1.0
176
     0
 90
        2
176
     1
  1
strokes_ogs.tif
176
     1
290
     0
176
     1
 40
1.0
176
     1
 40
1.0
176
     1
  0
VISUALSTYLE
  5
34
102
{ACAD_REACTORS
330
29
102
}
330
29
100
AcDbVisualStyle
  2
Dim
 70
    11
177
     3
291
     1
 70
    58
 90
        2
176
     1
 90
        2
176
     1
 90
        0
176
     1
 90
        0
176
     1
 40
0.6
176
     1
 40
30.0
176
     1
 62
     7
420
 16777215
176
     1
 90
        1
176
     1
 90
        4
176
     1
 62
     7
176
     1
 62
   257
176
     1
 90
        1
176
     1
 90
        1
176
     1
 40
1.0
176
     1
 90
        8
176
     1
 62
     7
176
     1
 40
1.0
176
     1
 90
        1
176
     1
 90
        6
176
     1
 90
        2
176
     1
 62
     7
176
     1
 90
        5
176
     1
 90
        0
176
     1
 90
        0
176
     1
290
     0
176
     1
 90
        1
176
     1
 40
-50.0
176
     1
 90
        0
176
     1
290
     0
176
     1
290
     1
176
     1
290
     1
176
     1
290
     0
176
     1
290
     0
176
     1
290
     0
176
     1
290
     0
176
     1
290
     0
176
     1
290
     0
176
     1
 90
       50
176
     1
 40
0.0
176
     1
 40
1.0
176
     1
 90
        0
176
     1
 62
    18
420
        0
176
     1
 90
       50
176
     1
 90
        3
176
     1
 62
     5
420
      255
176
     1
290
     0
176
     1
 90
       50
176
     1
 90
       50
176
     1
 90
       50
176
     1
290
     0
176
     1
 90
       50
176
     1
 62
   256
176
     0
 40
1.0
176
     0
 90
        2
176
     1
  1
strokes_ogs.tif
176
     1
290
     0
176
     1
 40
1.0
176
     1
 40
1.0
176
     1
  0
VISUALSTYLE
  5
41
102
{ACAD_REACTORS
330
29
102
}
330
29
100
AcDbVisualStyle
  2
EdgeColorOff
 70
    22
177
     3
291
     1
 70
    58
 90
        2
176
     0
 90
        2
176
     0
 90
        0
176
     0
 90
        0
176
     0
 40
0.6
176
     0
 40
30.0
176
     0
 62
     7
420
 16777215
176
     0
 90
        1
176
     0
 90
        4
176
     0
 62
     7
176
     0
 62
   257
176
     0
 90
        1
176
     0
 90
        1
176
     0
 40
1.0
176
     0
 90
        8
176
     2
 62
     7
176
     0
 40
1.0
176
     0
 90
        1
176
     0
 90
        6
176
     0
 90
        2
176
     0
 62
     7
176
     0
 90
        5
176
     0
 90
        0
176
     0
 90
        0
176
     0
290
     0
176
     0
 90
        1
176
     0
 40
0.0
176
     0
 90
        0
176
     0
290
     0
176
     0
290
     1
176
     0
290
     1
176
     0
290
     0
176
     0
290
     0
176
     0
290
     0
176
     0
290
     0
176
     0
290
     0
176
     0
290
     0
176
     0
 90
       50
176
     0
 40
0.0
176
     0
 40
1.0
176
     0
 90
        0
176
     0
 62
    18
420
        0
176
     0
 90
       50
176
     0
 90
        3
176
     0
 62
     5
420
      255
176
     0
290
     0
176
     0
 90
       50
176
     0
 90
       50
176
     0
 90
       50
176
     0
290
     0
176
     0
 90
       50
176
     0
 62
   256
176
     0
 40
1.0
176
     0
 90
        2
176
     0
  1
strokes_ogs.tif
176
     0
290
     0
176
     0
 40
1.0
176
     0
 40
1.0
176
     0
  0
VISUALSTYLE
  5
38
102
{ACAD_REACTORS
330
29
102
}
330
29
100
AcDbVisualStyle
  2
Facepattern
 70
    15
177
     3
291
     1
 70
    58
 90
        2
176
     1
 90
        2
176
     1
 90
        0
176
     1
 90
        0
176
     1
 40
0.6
176
     1
 40
30.0
176
     1
 62
     7
420
 16777215
176
     1
 90
        1
176
     1
 90
        4
176
     1
 62
     7
176
     1
 62
   257
176
     1
 90
        1
176
     1
 90
        1
176
     1
 40
1.0
176
     1
 90
        8
176
     1
 62
     7
176
     1
 40
1.0
176
     1
 90
        1
176
     1
 90
        6
176
     1
 90
        2
176
     1
 62
     7
176
     1
 90
        5
176
     1
 90
        0
176
     1
 90
        0
176
     1
290
     0
176
     1
 90
        1
176
     1
 40
0.0
176
     1
 90
        0
176
     1
290
     0
176
     1
290
     1
176
     1
290
     1
176
     1
290
     0
176
     1
290
     0
176
     1
290
     0
176
     1
290
     0
176
     1
290
     0
176
     1
290
     0
176
     1
 90
       50
176
     1
 40
0.0
176
     1
 40
1.0
176
     1
 90
        0
176
     1
 62
    18
420
        0
176
     1
 90
       50
176
     1
 90
        3
176
     1
 62
     5
420
      255
176
     1
290
     0
176
     1
 90
       50
176
     1
 90
       50
176
     1
 90
       50
176
     1
290
     0
176
     1
 90
       50
176
     1
 62
   256
176
     0
 40
1.0
176
     0
 90
        2
176
     1
  1
strokes_ogs.tif
176
     1
290
     0
176
     1
 40
1.0
176
     1
 40
1.0
176
     1
  0
VISUALSTYLE
  5
2A
102
{ACAD_REACTORS
330
29
102
}
330
29
100
AcDbVisualStyle
  2
Flat
 70
     0
177
     3
291
     1
 70
    58
 90
        2
176
     1
 90
        1
176
     1
 90
        1
176
     1
 90
        2
176
     1
 40
0.6
176
     1
 40
30.0
176
     1
 62
     7
420
 16777215
176
     1
 90
        0
176
     1
 90
        0
176
     1
 62
     7
176
     1
 62
   257
176
     1
 90
        1
176
     1
 90
        1
176
     1
 40
1.0
176
     1
 90
        8
176
     1
 62
     7
176
     1
 40
1.0
176
     1
 90
        1
176
     1
 90
        6
176
     1
 90
        2
176
     1
 62
     7
176
     1
 90
        5
176
     1
 90
        0
176
     1
 90
        0
176
     1
290
     0
176
     1
 90
       13
176
     1
 40
0.0
176
     1
 90
        0
176
     1
290
     0
176
     1
290
     1
176
     1
290
     1
176
     1
290
     0
176
     1
290
     0
176
     1
290
     0
176
     1
290
     0
176
     1
290
     0
176
     1
290
     0
176
     1
 90
       50
176
     1
 40
0.0
176
     1
 40
1.0
176
     1
 90
        0
176
     1
 62
    18
420
        0
176
     1
 90
       50
176
     1
 90
        3
176
     1
 62
     5
420
      255
176
     1
290
     0
176
     1
 90
       50
176
     1
 90
       50
176
     1
 90
       50
176
     1
290
     0
176
     1
 90
       50
176
     1
 62
   256
176
     0
 40
1.0
176
     0
 90
        2
176
     1
  1
strokes_ogs.tif
176
     1
290
     0
176
     1
 40
1.0
176
     1
 40
1.0
176
     1
  0
VISUALSTYLE
  5
2B
102
{ACAD_REACTORS
330
29
102
}
330
29
100
AcDbVisualStyle
  2
FlatWithEdges
 70
     1
177
     3
291
     1
 70
    58
 90
        2
176
     1
 90
        1
176
     1
 90
        1
176
     1
 90
        2
176
     1
 40
0.6
176
     1
 40
30.0
176
     1
 62
     7
420
 16777215
176
     1
 90
        1
176
     1
 90
        0
176
     1
 62
     7
176
     1
 62
   257
176
     1
 90
        1
176
     1
 90
        1
176
     1
 40
1.0
176
     1
 90
        0
176
     1
 62
   257
176
     1
 40
1.0
176
     1
 90
        1
176
     1
 90
        6
176
     1
 90
        2
176
     1
 62
     7
176
     1
 90
        5
176
     1
 90
        0
176
     1
 90
        0
176
     1
290
     0
176
     1
 90
       13
176
     1
 40
0.0
176
     1
 90
        0
176
     1
290
     0
176
     1
290
     1
176
     1
290
     1
176
     1
290
     0
176
     1
290
     0
176
     1
290
     0
176
     1
290
     0
176
     1
290
     0
176
     1
290
     0
176
     1
 90
       50
176
     1
 40
0.0
176
     1
 40
1.0
176
     1
 90
        0
176
     1
 62
    18
420
        0
176
     1
 90
       50
176
     1
 90
        3
176
     1
 62
     5
420
      255
176
     1
290
     0
176
     1
 90
       50
176
     1
 90
       50
176
     1
 90
       50
176
     1
290
     0
176
     1
 90
       50
176
     1
 62
   256
176
     0
 40
1.0
176
     0
 90
        2
176
     1
  1
strokes_ogs.tif
176
     1
290
     0
176
     1
 40
1.0
176
     1
 40
1.0
176
     1
  0
VISUALSTYLE
  5
2C
102
{ACAD_REACTORS
330
29
102
}
330
29
100
AcDbVisualStyle
  2
Gouraud
 70
     2
177
     3
291
     1
 70
    58
 90
        2
176
     1
 90
        2
176
     1
 90
        1
176
     1
 90
        2
176
     1
 40
0.6
176
     1
 40
30.0
176
     1
 62
     7
420
 16777215
176
     1
 90
        0
176
     1
 90
        0
176
     1
 62
     7
176
     1
 62
   257
176
     1
 90
        1
176
     1
 90
        1
176
     1
 40
1.0
176
     1
 90
        0
176
     1
 62
     7
176
     1
 40
1.0
176
     1
 90
        1
176
     1
 90
        6
176
     1
 90
        2
176
     1
 62
     7
176
     1
 90
        5
176
     1
 90
        0
176
     1
 90
        0
176
     1
290
     0
176
     1
 90
       13
176
     1
 40
0.0
176
     1
 90
        0
176
     1
290
     0
176
     1
290
     1
176
     1
290
     1
176
     1
290
     0
176
     1
290
     0
176
     1
290
     0
176
     1
290
     0
176
     1
290
     0
176
     1
290
     0
176
     1
 90
       50
176
     1
 40
0.0
176
     1
 40
1.0
176
     1
 90
        0
176
     1
 62
    18
420
        0
176
     1
 90
       50
176
     1
 90
        3
176
     1
 62
     5
420
      255
176
     1
290
     0
176
     1
 90
       50
176
     1
 90
       50
176
     1
 90
       50
176
     1
290
     0
176
     1
 90
       50
176
     1
 62
   256
176
     0
 40
1.0
176
     0
 90
        2
176
     1
  1
strokes_ogs.tif
176
     1
290
     0
176
     1
 40
1.0
176
     1
 40
1.0
176
     1
  0
VISUALSTYLE
  5
2D
102
{ACAD_REACTORS
330
29
102
}
330
29
100
AcDbVisualStyle
  2
GouraudWithEdges
 70
     3
177
     3
291
     1
 70
    58
 90
        2
176
     1
 90
        2
176
     1
 90
        1
176
     1
 90
        2
176
     1
 40
0.6
176
     1
 40
30.0
176
     1
 62
     7
420
 16777215
176
     1
 90
        1
176
     1
 90
        0
176
     1
 62
     7
176
     1
 62
   257
176
     1
 90
        1
176
     1
 90
        1
176
     1
 40
1.0
176
     1
 90
        0
176
     1
 62
   257
176
     1
 40
1.0
176
     1
 90
        1
176
     1
 90
        6
176
     1
 90
        2
176
     1
 62
     7
176
     1
 90
        5
176
     1
 90
        0
176
     1
 90
        0
176
     1
290
     0
176
     1
 90
       13
176
     1
 40
0.0
176
     1
 90
        0
176
     1
290
     0
176
     1
290
     1
176
     1
290
     1
176
     1
290
     0
176
     1
290
     0
176
     1
290
     0
176
     1
290
     0
176
     1
290
     0
176
     1
290
     0
176
     1
 90
       50
176
     1
 40
0.0
176
     1
 40
1.0
176
     1
 90
        0
176
     1
 62
    18
420
        0
176
     1
 90
       50
176
     1
 90
        3
176
     1
 62
     5
420
      255
176
     1
290
     0
176
     1
 90
       50
176
     1
 90
       50
176
     1
 90
       50
176
     1
290
     0
176
     1
 90
       50
176
     1
 62
   256
176
     0
 40
1.0
176
     0
 90
        2
176
     1
  1
strokes_ogs.tif
176
     1
290
     0
176
     1
 40
1.0
176
     1
 40
1.0
176
     1
  0
VISUALSTYLE
  5
31
102
{ACAD_REACTORS
330
29
102
}
330
29
100
AcDbVisualStyle
  2
Hidden
 70
     6
177
     3
291
     0
 70
    58
 90
        1
176
     1
 90
        2
176
     1
 90
        2
176
     1
 90
        0
176
     1
 40
0.6
176
     1
 40
30.0
176
     1
 62
     7
420
 16777215
176
     1
 90
        2
176
     1
 90
        2
176
     1
 62
     7
176
     1
 62
   257
176
     1
 90
        2
176
     1
 90
        1
176
     1
 40
40.0
176
     1
 90
        0
176
     1
 62
   257
176
     1
 40
1.0
176
     1
 90
        1
176
     1
 90
        6
176
     1
 90
        2
176
     1
 62
     7
176
     1
 90
        3
176
     1
 90
        0
176
     1
 90
        0
176
     1
290
     0
176
     1
 90
        1
176
     1
 40
0.0
176
     1
 90
        0
176
     1
290
     0
176
     1
290
     1
176
     1
290
     1
176
     1
290
     0
176
     1
290
     0
176
     1
290
     0
176
     1
290
     0
176
     1
290
     0
176
     1
290
     0
176
     1
 90
       50
176
     1
 40
0.0
176
     1
 40
1.0
176
     1
 90
        0
176
     1
 62
    18
420
        0
176
     1
 90
       50
176
     1
 90
        3
176
     1
 62
     5
420
      255
176
     1
290
     0
176
     1
 90
       50
176
     1
 90
       50
176
     1
 90
       50
176
     1
290
     0
176
     1
 90
       50
176
     1
 62
   256
176
     0
 40
1.0
176
     0
 90
        2
176
     1
  1
strokes_ogs.tif
176
     1
290
     0
176
     1
 40
1.0
176
     1
 40
1.0
176
     1
  0
VISUALSTYLE
  5
3F
102
{ACAD_REACTORS
330
29
102
}
330
29
100
AcDbVisualStyle
  2
JitterOff
 70
    20
177
     3
291
     1
 70
    58
 90
        2
176
     0
 90
        2
176
     0
 90
        0
176
     0
 90
        0
176
     0
 40
0.6
176
     0
 40
30.0
176
     0
 62
     7
420
 16777215
176
     0
 90
        1
176
     0
 90
        4
176
     0
 62
     7
176
     0
 62
   257
176
     0
 90
        1
176
     0
 90
        1
176
     0
 40
1.0
176
     0
 90
       10
176
     2
 62
     7
176
     0
 40
1.0
176
     0
 90
        1
176
     0
 90
        6
176
     0
 90
        2
176
     0
 62
     7
176
     0
 90
        5
176
     0
 90
        0
176
     0
 90
        0
176
     0
290
     0
176
     0
 90
        1
176
     0
 40
0.0
176
     0
 90
        0
176
     0
290
     0
176
     0
290
     1
176
     0
290
     1
176
     0
290
     0
176
     0
290
     0
176
     0
290
     0
176
     0
290
     0
176
     0
290
     0
176
     0
290
     0
176
     0
 90
       50
176
     0
 40
0.0
176
     0
 40
1.0
176
     0
 90
        0
176
     0
 62
    18
420
        0
176
     0
 90
       50
176
     0
 90
        3
176
     0
 62
     5
420
      255
176
     0
290
     0
176
     0
 90
       50
176
     0
 90
       50
176
     0
 90
       50
176
     0
290
     0
176
     0
 90
       50
176
     0
 62
   256
176
     0
 40
1.0
176
     0
 90
        2
176
     0
  1
strokes_ogs.tif
176
     0
290
     0
176
     0
 40
1.0
176
     0
 40
1.0
176
     0
  0
VISUALSTYLE
  5
37
102
{ACAD_REACTORS
330
29
102
}
330
29
100
AcDbVisualStyle
  2
Linepattern
 70
    14
177
     3
291
     1
 70
    58
 90
        2
176
     1
 90
        2
176
     1
 90
        0
176
     1
 90
        0
176
     1
 40
0.6
176
     1
 40
30.0
176
     1
 62
     7
420
 16777215
176
     1
 90
        1
176
     1
 90
        4
176
     1
 62
     7
176
     1
 62
   257
176
     1
 90
        7
176
     1
 90
        7
176
     1
 40
1.0
176
     1
 90
        8
176
     1
 62
     7
176
     1
 40
1.0
176
     1
 90
        1
176
     1
 90
        6
176
     1
 90
        2
176
     1
 62
     7
176
     1
 90
        5
176
     1
 90
        0
176
     1
 90
        0
176
     1
290
     0
176
     1
 90
        1
176
     1
 40
0.0
176
     1
 90
        0
176
     1
290
     0
176
     1
290
     1
176
     1
290
     1
176
     1
290
     0
176
     1
290
     0
176
     1
290
     0
176
     1
290
     0
176
     1
290
     0
176
     1
290
     0
176
     1
 90
       50
176
     1
 40
0.0
176
     1
 40
1.0
176
     1
 90
        0
176
     1
 62
    18
420
        0
176
     1
 90
       50
176
     1
 90
        3
176
     1
 62
     5
420
      255
176
     1
290
     0
176
     1
 90
       50
176
     1
 90
       50
176
     1
 90
       50
176
     1
290
     0
176
     1
 90
       50
176
     1
 62
   256
176
     0
 40
1.0
176
     0
 90
        2
176
     1
  1
strokes_ogs.tif
176
     1
290
     0
176
     1
 40
1.0
176
     1
 40
1.0
176
     1
  0
VISUALSTYLE
  5
40
102
{ACAD_REACTORS
330
29
102
}
330
29
100
AcDbVisualStyle
  2
OverhangOff
 70
    21
177
     3
291
     1
 70
    58
 90
        2
176
     0
 90
        2
176
     0
 90
        0
176
     0
 90
        0
176
     0
 40
0.6
176
     0
 40
30.0
176
     0
 62
     7
420
 16777215
176
     0
 90
        1
176
     0
 90
        4
176
     0
 62
     7
176
     0
 62
   257
176
     0
 90
        1
176
     0
 90
        1
176
     0
 40
1.0
176
     0
 90
        9
176
     2
 62
     7
176
     0
 40
1.0
176
     0
 90
        1
176
     0
 90
        6
176
     0
 90
        2
176
     0
 62
     7
176
     0
 90
        5
176
     0
 90
        0
176
     0
 90
        0
176
     0
290
     0
176
     0
 90
        1
176
     0
 40
0.0
176
     0
 90
        0
176
     0
290
     0
176
     0
290
     1
176
     0
290
     1
176
     0
290
     0
176
     0
290
     0
176
     0
290
     0
176
     0
290
     0
176
     0
290
     0
176
     0
290
     0
176
     0
 90
       50
176
     0
 40
0.0
176
     0
 40
1.0
176
     0
 90
        0
176
     0
 62
    18
420
        0
176
     0
 90
       50
176
     0
 90
        3
176
     0
 62
     5
420
      255
176
     0
290
     0
176
     0
 90
       50
176
     0
 90
       50
176
     0
 90
       50
176
     0
290
     0
176
     0
 90
       50
176
     0
 62
   256
176
     0
 40
1.0
176
     0
 90
        2
176
     0
  1
strokes_ogs.tif
176
     0
290
     0
176
     0
 40
1.0
176
     0
 40
1.0
176
     0
  0
VISUALSTYLE
  5
33
102
{ACAD_REACTORS
330
29
102
}
330
29
100
AcDbVisualStyle
  2
Realistic
 70
     8
177
     3
291
     0
 70
    58
 90
        2
176
     1
 90
        3
176
     1
 90
        0
176
     1
 90
        2
176
     1
 40
0.6
176
     1
 40
30.0
176
     1
 62
     7
420
 16777215
176
     1
 90
        0
176
     1
 90
        0
176
     1
 62
     7
176
     1
 62
   257
176
     1
 90
        1
176
     1
 90
        1
176
     1
 40
1.0
176
     1
 90
        8
176
     1
 62
   257
176
     1
 40
1.0
176
     1
 90
        1
176
     1
 90
        6
176
     1
 90
        2
176
     1
 62
     7
176
     1
 90
        3
176
     1
 90
        0
176
     1
 90
        0
176
     1
290
     0
176
     1
 90
       13
176
     1
 40
0.0
176
     1
 90
        0
176
     1
290
     0
176
     1
290
     1
176
     1
290
     1
176
     1
290
     0
176
     1
290
     0
176
     1
290
     0
176
     1
290
     0
176
     1
290
     0
176
     1
290
     0
176
     1
 90
       50
176
     1
 40
0.0
176
     1
 40
1.0
176
     1
 90
        0
176
     1
 62
    18
420
        0
176
     1
 90
       50
176
     1
 90
        3
176
     1
 62
     5
420
      255
176
     1
290
     0
176
     1
 90
       50
176
     1
 90
       50
176
     1
 90
       50
176
     1
290
     0
176
     1
 90
       50
176
     1
 62
   256
176
     0
 40
1.0
176
     0
 90
        2
176
     1
  1
strokes_ogs.tif
176
     1
290
     0
176
     1
 40
1.0
176
     1
 40
1.0
176
     1
  0
VISUALSTYLE
  5
3E
102
{ACAD_REACTORS
330
29
102
}
330
29
100
AcDbVisualStyle
  2
Shaded
 70
    27
177
     3
291
     0
 70
    58
 90
        2
176
     1
 90
        2
176
     1
 90
        1
176
     1
 90
        2
176
     1
 40
0.6
176
     1
 40
30.0
176
     1
 62
     7
420
 16777215
176
     1
 90
        0
176
     1
 90
        4
176
     1
 62
     7
176
     1
 62
   257
176
     1
 90
        1
176
     1
 90
        1
176
     1
 40
1.0
176
     1
 90
        8
176
     1
 62
   257
176
     1
 40
1.0
176
     1
 90
        1
176
     1
 90
        6
176
     1
 90
        2
176
     1
 62
     8
420
  7895160
176
     1
 90
        3
176
     1
 90
        0
176
     1
 90
        0
176
     1
290
     0
176
     1
 90
        5
176
     1
 40
0.0
176
     1
 90
        0
176
     1
290
     0
176
     1
290
     1
176
     1
290
     1
176
     1
290
     0
176
     1
290
     0
176
     1
290
     0
176
     1
290
     0
176
     1
290
     0
176
     1
290
     0
176
     1
 90
       50
176
     1
 40
0.0
176
     1
 40
1.0
176
     1
 90
        0
176
     1
 62
    18
420
        0
176
     1
 90
       50
176
     1
 90
        3
176
     1
 62
     5
420
      255
176
     1
290
     0
176
     1
 90
       50
176
     1
 90
       50
176
     1
 90
       50
176
     1
290
     0
176
     1
 90
       50
176
     1
 62
   256
176
     0
 40
1.0
176
     0
 90
        2
176
     1
  1
strokes_ogs.tif
176
     1
290
     0
176
     1
 40
1.0
176
     1
 40
1.0
176
     1
  0
VISUALSTYLE
  5
3D
102
{ACAD_REACTORS
330
29
102
}
330
29
100
AcDbVisualStyle
  2
Shaded with edges
 70
    26
177
     3
291
     0
 70
    58
 90
        2
176
     1
 90
        2
176
     1
 90
        1
176
     1
 90
        2
176
     1
 40
0.6
176
     1
 40
30.0
176
     1
 62
     7
420
 16777215
176
     1
 90
        1
176
     1
 90
        2
176
     1
 62
     7
176
     1
 62
   257
176
     1
 90
        2
176
     1
 90
        1
176
     1
 40
1.0
176
     1
 90
        8
176
     1
 62
   257
176
     1
 40
1.0
176
     1
 90
        1
176
     1
 90
        6
176
     1
 90
        2
176
     1
 62
     7
176
     1
 90
        3
176
     1
 90
        0
176
     1
 90
        0
176
     1
290
     0
176
     1
 90
        5
176
     1
 40
0.0
176
     1
 90
        0
176
     1
290
     0
176
     1
290
     1
176
     1
290
     1
176
     1
290
     0
176
     1
290
     0
176
     1
290
     0
176
     1
290
     0
176
     1
290
     0
176
     1
290
     0
176
     1
 90
       50
176
     1
 40
0.0
176
     1
 40
1.0
176
     1
 90
        0
176
     1
 62
    18
420
        0
176
     1
 90
       50
176
     1
 90
        3
176
     1
 62
     5
420
      255
176
     1
290
     0
176
     1
 90
       50
176
     1
 90
       50
176
     1
 90
       50
176
     1
290
     0
176
     1
 90
       50
176
     1
 62
   256
176
     0
 40
1.0
176
     0
 90
        2
176
     1
  1
strokes_ogs.tif
176
     1
290
     0
176
     1
 40
1.0
176
     1
 40
1.0
176
     1
  0
VISUALSTYLE
  5
3A
102
{ACAD_REACTORS
330
29
102
}
330
29
100
AcDbVisualStyle
  2
Shades of Gray
 70
    23
177
     3
291
     0
 70
    58
 90
        2
176
     1
 90
        2
176
     1
 90
        3
176
     1
 90
        0
176
     1
 40
0.6
176
     1
 40
30.0
176
     1
 62
     7
420
 16777215
176
     1
 90
        2
176
     1
 90
        2
176
     1
 62
     7
176
     1
 62
     7
176
     1
 90
        1
176
     1
 90
        1
176
     1
 40
40.0
176
     1
 90
        8
176
     1
 62
     7
176
     1
 40
1.0
176
     1
 90
        1
176
     1
 90
        6
176
     1
 90
        2
176
     1
 62
     7
176
     1
 90
        3
176
     1
 90
        0
176
     1
 90
        0
176
     1
290
     0
176
     1
 90
        1
176
     1
 40
0.0
176
     1
 90
        0
176
     1
290
     0
176
     1
290
     1
176
     1
290
     1
176
     1
290
     0
176
     1
290
     0
176
     1
290
     0
176
     1
290
     0
176
     1
290
     0
176
     1
290
     0
176
     1
 90
       50
176
     1
 40
0.0
176
     1
 40
1.0
176
     1
 90
        0
176
     1
 62
    18
420
        0
176
     1
 90
       50
176
     1
 90
        3
176
     1
 62
     5
420
      255
176
     1
290
     0
176
     1
 90
       50
176
     1
 90
       50
176
     1
 90
       50
176
     1
290
     0
176
     1
 90
       50
176
     1
 62
   256
176
     0
 40
1.0
176
     0
 90
        2
176
     1
  1
strokes_ogs.tif
176
     1
290
     0
176
     1
 40
1.0
176
     1
 40
1.0
176
     1
  0
VISUALSTYLE
  5
3B
102
{ACAD_REACTORS
330
29
102
}
330
29
100
AcDbVisualStyle
  2
Sketchy
 70
    24
177
     3
291
     0
 70
    58
 90
        1
176
     1
 90
        2
176
     1
 90
        2
176
     1
 90
        0
176
     1
 40
0.6
176
     1
 40
30.0
176
     1
 62
     7
420
 16777215
176
     1
 90
        2
176
     1
 90
        2
176
     1
 62
     7
176
     1
 62
     7
176
     1
 90
        1
176
     1
 90
        1
176
     1
 40
40.0
176
     1
 90
       11
176
     1
 62
     7
176
     1
 40
1.0
176
     1
 90
        1
176
     1
 90
        6
176
     1
 90
        2
176
     1
 62
     7
176
     1
 90
        6
176
     1
 90
        0
176
     1
 90
        0
176
     1
290
     0
176
     1
 90
        1
176
     1
 40
0.0
176
     1
 90
        0
176
     1
290
     0
176
     1
290
     1
176
     1
290
     1
176
     1
290
     0
176
     1
290
     0
176
     1
290
     0
176
     1
290
     0
176
     1
290
     0
176
     1
290
     0
176
     1
 90
       50
176
     1
 40
0.0
176
     1
 40
1.0
176
     1
 90
        0
176
     1
 62
    18
420
        0
176
     1
 90
       50
176
     1
 90
        3
176
     1
 62
     5
420
      255
176
     1
290
     0
176
     1
 90
       50
176
     1
 90
       50
176
     1
 90
       50
176
     1
290
     0
176
     1
 90
       50
176
     1
 62
   256
176
     0
 40
1.0
176
     0
 90
        2
176
     1
  1
strokes_ogs.tif
176
     1
290
     0
176
     1
 40
1.0
176
     1
 40
1.0
176
     1
  0
VISUALSTYLE
  5
36
102
{ACAD_REACTORS
330
29
102
}
330
29
100
AcDbVisualStyle
  2
Thicken
 70
    13
177
     3
291
     1
 70
    58
 90
        2
176
     1
 90
        2
176
     1
 90
        0
176
     1
 90
        0
176
     1
 40
0.6
176
     1
 40
30.0
176
     1
 62
     7
420
 16777215
176
     1
 90
        1
176
     1
 90
        4
176
     1
 62
     7
176
     1
 62
   257
176
     1
 90
        1
176
     1
 90
        1
176
     1
 40
1.0
176
     1
 90
       12
176
     1
 62
     7
176
     1
 40
1.0
176
     1
 90
        1
176
     1
 90
        6
176
     1
 90
        2
176
     1
 62
     7
176
     1
 90
        5
176
     1
 90
        0
176
     1
 90
        0
176
     1
290
     0
176
     1
 90
        1
176
     1
 40
0.0
176
     1
 90
        0
176
     1
290
     0
176
     1
290
     1
176
     1
290
     1
176
     1
290
     0
176
     1
290
     0
176
     1
290
     0
176
     1
290
     0
176
     1
290
     0
176
     1
290
     0
176
     1
 90
       50
176
     1
 40
0.0
176
     1
 40
1.0
176
     1
 90
        0
176
     1
 62
    18
420
        0
176
     1
 90
       50
176
     1
 90
        3
176
     1
 62
     5
420
      255
176
     1
290
     0
176
     1
 90
       50
176
     1
 90
       50
176
     1
 90
       50
176
     1
290
     0
176
     1
 90
       50
176
     1
 62
   256
176
     0
 40
1.0
176
     0
 90
        2
176
     1
  1
strokes_ogs.tif
176
     1
290
     0
176
     1
 40
1.0
176
     1
 40
1.0
176
     1
  0
VISUALSTYLE
  5
30
102
{ACAD_REACTORS
330
29
102
}
330
29
100
AcDbVisualStyle
  2
Wireframe
 70
     5
177
     3
291
     0
 70
    58
 90
        0
176
     1
 90
        2
176
     1
 90
        0
176
     1
 90
        0
176
     1
 40
0.6
176
     1
 40
30.0
176
     1
 62
     7
420
 16777215
176
     1
 90
        1
176
     1
 90
        4
176
     1
 62
     7
176
     1
 62
   257
176
     1
 90
        1
176
     1
 90
        1
176
     1
 40
1.0
176
     1
 90
        0
176
     1
 62
   257
176
     1
 40
1.0
176
     1
 90
        1
176
     1
 90
        6
176
     1
 90
        2
176
     1
 62
     7
176
     1
 90
        3
176
     1
 90
        0
176
     1
 90
        0
176
     1
290
     0
176
     1
 90
        1
176
     1
 40
0.0
176
     1
 90
        0
176
     1
290
     0
176
     1
290
     1
176
     1
290
     1
176
     1
290
     0
176
     1
290
     0
176
     1
290
     0
176
     1
290
     0
176
     1
290
     0
176
     1
290
     0
176
     1
 90
       50
176
     1
 40
0.0
176
     1
 40
1.0
176
     1
 90
        0
176
     1
 62
    18
420
        0
176
     1
 90
       50
176
     1
 90
        3
176
     1
 62
     5
420
      255
176
     1
290
     0
176
     1
 90
       50
176
     1
 90
       50
176
     1
 90
       50
176
     1
290
     0
176
     1
 90
       50
176
     1
 62
   256
176
     0
 40
1.0
176
     0
 90
        2
176
     1
  1
strokes_ogs.tif
176
     1
290
     0
176
     1
 40
1.0
176
     1
 40
1.0
176
     1
  0
VISUALSTYLE
  5
3C
102
{ACAD_REACTORS
330
29
102
}
330
29
100
AcDbVisualStyle
  2
X-Ray
 70
    25
177
     3
291
     0
 70
    58
 90
        2
176
     1
 90
        2
176
     1
 90
        1
176
     1
 90
        1
176
     1
 40
0.5
176
     1
 40
30.0
176
     1
 62
     7
420
 16777215
176
     1
 90
        1
176
     1
 90
        0
176
     1
 62
     7
176
     1
 62
   257
176
     1
 90
        1
176
     1
 90
        1
176
     1
 40
1.0
176
     1
 90
        8
176
     1
 62
     7
176
     1
 40
1.0
176
     1
 90
        1
176
     1
 90
        6
176
     1
 90
        2
176
     1
 62
     7
176
     1
 90
        3
176
     1
 90
        0
176
     1
 90
        0
176
     1
290
     0
176
     1
 90
       13
176
     1
 40
0.0
176
     1
 90
        0
176
     1
290
     0
176
     1
290
     1
176
     1
290
     1
176
     1
290
     0
176
     1
290
     0
176
     1
290
     0
176
     1
290
     0
176
     1
290
     0
176
     1
290
     0
176
     1
 90
       50
176
     1
 40
0.0
176
     1
 40
1.0
176
     1
 90
        0
176
     1
 62
    18
420
        0
176
     1
 90
       50
176
     1
 90
        3
176
     1
 62
     5
420
      255
176
     1
290
     0
176
     1
 90
       50
176
     1
 90
       50
176
     1
 90
       50
176
     1
290
     0
176
     1
 90
       50
176
     1
 62
   256
176
     0
 40
1.0
176
     0
 90
        2
176
     1
  1
strokes_ogs.tif
176
     1
290
     0
176
     1
 40
1.0
176
     1
 40
1.0
176
     1
  0
DICTIONARYVAR
  5
2EE
102
{ACAD_REACTORS
330
2E9
102
}
330
2E9
100
DictionaryVariables
280
     0
  1
1:1
  0
DICTIONARYVAR
  5
2EB
102
{ACAD_REACTORS
330
2E9
102
}
330
2E9
100
DictionaryVariables
280
     0
  1
STANDARD
  0
DICTIONARYVAR
  5
2EA
102
{ACAD_REACTORS
330
2E9
102
}
330
2E9
100
DictionaryVariables
280
     0
  1
STANDARD
  0
DICTIONARYVAR
  5
2EC
102
{ACAD_REACTORS
330
2E9
102
}
330
2E9
100
DictionaryVariables
280
     0
  1
Imperial24
  0
DICTIONARYVAR
  5
2ED
102
{ACAD_REACTORS
330
2E9
102
}
330
2E9
100
DictionaryVariables
280
     0
  1
Imperial24
  0
XRECORD
  5
2E5
102
{ACAD_REACTORS
330
2E1
102
}
330
2E1
100
AcDbXrecord
280
     1
  1
BUILDING_ID
  1
Fazenda Sobradinho, Acarí, Rio Grande do Norte
  1
FLOOR_ID
  1
22687550
  0
XRECORD
  5
2E3
102
{ACAD_REACTORS
330
2E1
102
}
330
2E1
100
AcDbXrecord
280
     1
  1
-2000051
  1
Linhas
  1
-2000280
  1
Blocos de margens e carimbo
  1
-2002000
  1
Itens de detalhe
  0
XRECORD
  5
2E4
102
{ACAD_REACTORS
330
2E1
102
}
330
2E1
100
AcDbXrecord
280
     1
  1
-2000042
  1
<Linhas finas>
  1
-2000281
  1
<Linhas finas>
  0
XRECORD
  5
2E2
102
{ACAD_REACTORS
330
2E1
102
}
330
2E1
100
AcDbXrecord
280
     1
  1
22688951
  1
A4 HORIZONTAL : A4
  1
383807
  1
Região preenchida : Marcenaria corte
  0
DICTIONARY
  5
1A
330
19
100
AcDbDictionary
280
     1
281
     1
  3
BUMPTILE
360
1C
  3
DIFFUSETILE
360
1B
  3
OPACITYTILE
360
1F
  3
REFLECTIONTILE
360
1E
  3
REFRACTIONTILE
360
20
  3
SPECULARTILE
360
1D
  0
DICTIONARY
  5
12
330
11
100
AcDbDictionary
280
     1
281
     1
  3
BUMPTILE
360
14
  3
DIFFUSETILE
360
13
  3
OPACITYTILE
360
17
  3
REFLECTIONTILE
360
16
  3
REFRACTIONTILE
360
18
  3
SPECULARTILE
360
15
  0
DICTIONARY
  5
22
330
21
100
AcDbDictionary
280
     1
281
     1
  3
BUMPTILE
360
24
  3
DIFFUSETILE
360
23
  3
OPACITYTILE
360
27
  3
REFLECTIONTILE
360
26
  3
REFRACTIONTILE
360
28
  3
SPECULARTILE
360
25
  0
DICTIONARY
  5
3CC
330
65
100
AcDbDictionary
280
     1
281
     1
  3
ACAD_ROUNDTRIP_2008_TABLESTYLE_CELLSTYLEMAP
360
3CD
  0
XRECORD
  5
1C
102
{ACAD_REACTORS
330
1A
102
}
330
1A
100
AcDbXrecord
280
     1
270
     1
271
     1
  0
XRECORD
  5
1B
102
{ACAD_REACTORS
330
1A
102
}
330
1A
100
AcDbXrecord
280
     1
270
     1
271
     1
  0
XRECORD
  5
1F
102
{ACAD_REACTORS
330
1A
102
}
330
1A
100
AcDbXrecord
280
     1
270
     1
271
     1
  0
XRECORD
  5
1E
102
{ACAD_REACTORS
330
1A
102
}
330
1A
100
AcDbXrecord
280
     1
270
     1
271
     1
  0
XRECORD
  5
20
102
{ACAD_REACTORS
330
1A
102
}
330
1A
100
AcDbXrecord
280
     1
270
     1
271
     1
  0
XRECORD
  5
1D
102
{ACAD_REACTORS
330
1A
102
}
330
1A
100
AcDbXrecord
280
     1
270
     1
271
     1
  0
XRECORD
  5
14
102
{ACAD_REACTORS
330
12
102
}
330
12
100
AcDbXrecord
280
     1
270
     1
271
     1
  0
XRECORD
  5
13
102
{ACAD_REACTORS
330
12
102
}
330
12
100
AcDbXrecord
280
     1
270
     1
271
     1
  0
XRECORD
  5
17
102
{ACAD_REACTORS
330
12
102
}
330
12
100
AcDbXrecord
280
     1
270
     1
271
     1
  0
XRECORD
  5
16
102
{ACAD_REACTORS
330
12
102
}
330
12
100
AcDbXrecord
280
     1
270
     1
271
     1
  0
XRECORD
  5
18
102
{ACAD_REACTORS
330
12
102
}
330
12
100
AcDbXrecord
280
     1
270
     1
271
     1
  0
XRECORD
  5
15
102
{ACAD_REACTORS
330
12
102
}
330
12
100
AcDbXrecord
280
     1
270
     1
271
     1
  0
XRECORD
  5
24
102
{ACAD_REACTORS
330
22
102
}
330
22
100
AcDbXrecord
280
     1
270
     1
271
     1
  0
XRECORD
  5
23
102
{ACAD_REACTORS
330
22
102
}
330
22
100
AcDbXrecord
280
     1
270
     1
271
     1
  0
XRECORD
  5
27
102
{ACAD_REACTORS
330
22
102
}
330
22
100
AcDbXrecord
280
     1
270
     1
271
     1
  0
XRECORD
  5
26
102
{ACAD_REACTORS
330
22
102
}
330
22
100
AcDbXrecord
280
     1
270
     1
271
     1
  0
XRECORD
  5
28
102
{ACAD_REACTORS
330
22
102
}
330
22
100
AcDbXrecord
280
     1
270
     1
271
     1
  0
XRECORD
  5
25
102
{ACAD_REACTORS
330
22
102
}
330
22
100
AcDbXrecord
280
     1
270
     1
271
     1
  0
CELLSTYLEMAP
  5
3CD
102
{ACAD_REACTORS
330
3CC
102
}
330
3CC
100
AcDbCellStyleMap
 90
        3
300
CELLSTYLE
  1
TABLEFORMAT_BEGIN
 90
        5
170
     1
 91
        0
 92
    32768
 62
   257
 93
        1
300
CONTENTFORMAT
  1
CONTENTFORMAT_BEGIN
 90
        0
 91
        0
 92
      512
 93
        0
300

 40
0.0
140
1.0
 94
        5
 62
     0
340
55
144
0.25
309
CONTENTFORMAT_END
171
     0
 94
        0
309
TABLEFORMAT_END
  1
CELLSTYLE_BEGIN
 90
        1
 91
        1
300
_TITLE
309
CELLSTYLE_END
300
CELLSTYLE
  1
TABLEFORMAT_BEGIN
 90
        5
170
     1
 91
        0
 92
        0
 62
   257
 93
        1
300
CONTENTFORMAT
  1
CONTENTFORMAT_BEGIN
 90
        0
 91
        0
 92
      512
 93
        0
300

 40
0.0
140
1.0
 94
        5
 62
     0
340
55
144
0.18
309
CONTENTFORMAT_END
171
     0
 94
        0
309
TABLEFORMAT_END
  1
CELLSTYLE_BEGIN
 90
        2
 91
        1
300
_HEADER
309
CELLSTYLE_END
300
CELLSTYLE
  1
TABLEFORMAT_BEGIN
 90
        5
170
     1
 91
        0
 92
        0
 62
   257
 93
        1
300
CONTENTFORMAT
  1
CONTENTFORMAT_BEGIN
 90
        0
 91
        0
 92
      512
 93
        0
300

 40
0.0
140
1.0
 94
        2
 62
     0
340
55
144
0.18
309
CONTENTFORMAT_END
171
     0
 94
        0
309
TABLEFORMAT_END
  1
CELLSTYLE_BEGIN
 90
        3
 91
        2
300
_DATA
309
CELLSTYLE_END
  0
ENDSEC
  0
SECTION
  2
ACDSDATA
 70
     2
 71
     8
  0
ACDSSCHEMA
 90
        0
  1
AcDb_Thumbnail_Schema
  2
AcDbDs::ID
280
    10
 91
        8
  2
Thumbnail_Data
280
    15
 91
        0
101
ACDSRECORD
 95
        0
 90
        1
  2
AcDbDs::TreatedAsObjectData
280
     1
291
     1
101
ACDSRECORD
 95
        0
 90
        2
  2
AcDbDs::Legacy
280
     1
291
     1
101
ACDSRECORD
  1
AcDbDs::ID
 90
        3
  2
AcDs:Indexable
280
     1
291
     1
101
ACDSRECORD
  1
AcDbDs::ID
 90
        4
  2
AcDbDs::HandleAttribute
280
     7
282
     1
  0
ACDSSCHEMA
 90
        1
  1
AcDbDs::TreatedAsObjectDataSchema
  2
AcDbDs::TreatedAsObjectData
280
     1
 91
        0
  0
ACDSSCHEMA
 90
        2
  1
AcDbDs::LegacySchema
  2
AcDbDs::Legacy
280
     1
 91
        0
  0
ACDSSCHEMA
 90
        3
  1
AcDbDs::IndexedPropertySchema
  2
AcDs:Indexable
280
     1
 91
        0
  0
ACDSSCHEMA
 90
        4
  1
AcDbDs::HandleAttributeSchema
  2
AcDbDs::HandleAttribute
280
     7
 91
        1
284
     1
  0
ACDSRECORD
 90
        0
  2
AcDbDs::ID
280
    10
320
6F
  2
Thumbnail_Data
280
    15
 94
     1547
310
89504E470D0A1A0A0000000D4948445200000100000000B5080300000087DCD12600000300504C5445FFFFFFFFFFFFFFFFFF0000000000000000000000000000000000000000000000000000330000660000990000CC0000FF0033000033330033660033990033CC0033FF0066000066330066660066990066CC0066FF0099
310
000099330099660099990099CC0099FF00CC0000CC3300CC6600CC9900CCCC00CCFF00FF0000FF3300FF6600FF9900FFCC00FFFF3300003300333300663300993300CC3300FF3333003333333333663333993333CC3333FF3366003366333366663366993366CC3366FF3399003399333399663399993399CC3399FF33CC00
310
33CC3333CC6633CC9933CCCC33CCFF33FF0033FF3333FF6633FF9933FFCC33FFFF6600006600336600666600996600CC6600FF6633006633336633666633996633CC6633FF6666006666336666666666996666CC6666FF6699006699336699666699996699CC6699FF66CC0066CC3366CC6666CC9966CCCC66CCFF66FF0066
310
FF3366FF6666FF9966FFCC66FFFF9900009900339900669900999900CC9900FF9933009933339933669933999933CC9933FF9966009966339966669966999966CC9966FF9999009999339999669999999999CC9999FF99CC0099CC3399CC6699CC9999CCCC99CCFF99FF0099FF3399FF6699FF9999FFCC99FFFFCC0000CC00
310
33CC0066CC0099CC00CCCC00FFCC3300CC3333CC3366CC3399CC33CCCC33FFCC6600CC6633CC6666CC6699CC66CCCC66FFCC9900CC9933CC9966CC9999CC99CCCC99FFCCCC00CCCC33CCCC66CCCC99CCCCCCCCCCFFCCFF00CCFF33CCFF66CCFF99CCFFCCCCFFFFFF0000FF0033FF0066FF0099FF00CCFF00FFFF3300FF3333
310
FF3366FF3399FF33CCFF33FFFF6600FF6633FF6666FF6699FF66CCFF66FFFF9900FF9933FF9966FF9999FF99CCFF99FFFFCC00FFCC33FFCC66FFCC99FFCCCCFFCCFFFFFF00FFFF33FFFF66FFFF99FFFFCCFFFFFF0000000D0D0D1A1A1A2828283535354343435050505D5D5D6B6B6B787878868686939393A1A1A1AEAEAEBB
310
BBBBC9C9C9D6D6D6E4E4E4F1F1F1FFFFFF000000000000000000000000000000000000000000000000000000000000AD4AB4E4000002C64944415478DAEDDC6D7284200C8061EF7F364F91DF1CA2B38B28200ABA8095BC4CA7D32F1D790831B0752751DE269954370000000000000000000000000000000000000000000000
310
00000000000000000000000000000000000000000000000000000000000000000000000000000000000000000000000000181B60CCC7A4AF00D49776CF6ACB7363FD208088F97E9C0CC5D0004BAF974FE61982A700ECA09BC901B89F28010866BDFBCAD830100500EBE007006B180C0EB0EB63FC5D5F83CE00A984BFEB6ED7
310
84D817C0763E03D0F7AED81160ED561E6032DD107A01F81DCA01CCD2712674020886D34E03392A831DC0120603004878DB2B06F812B45E26340708637F4D70DE7448007807B54E896D018E97A05980E0E8A95D1C340570211EADF7722BF459FCC8B1F7846602ED008EF71C8A00BCE499D9BCF89F0072B2D5114D81F84EE803
310
B8BA60B92736306804B0F65ED26BC12B009B418B28680020B97DAEEB00DE1FD636A80E5090B76F01D830A83F136A0394EC72E601CE32E43C557DC7CB9A00EE0AE7F97C846E4680FDDDE7EC3543A01E801B7A7B894D016ABE1E500B60AB5B5402F8F5FE3B00E67A0051CE2B02B8F57255E1D9CB667E3580DD157FD3A024AA82
310
3101C2EB4DF540F687FA3B63FE14D896802F0190B52C89DF943A07902D265E01900E5A4500E972A40EC0E1326205F86D895C29073403D8E50CD99559C30344BBC86EFBCC03283BD75B01FC2300500AE06DA2AA04D88ED10B204300A4D602859B1443005C2AF4628070B1AC0F604D878A01E2D711B5012C55A16A80E03F4B14
310
027815110000FC2B80411E94F801C0BCBAFDFAC4C867437488760B4086E9FE5D00334EBB06E09A7A00AD8FCDE969000000000000000000000000000000000000000000000000000000000000000000000000000000000000000000000000000000000000000000000000000000000000000000000000000000A300286F9351
310
DEFE001CC9ADFA0292F4970000000049454E44AE426082
  0
ACDSRECORD
 90
        0
  2
AcDbDs::ID
280
    10
320
73
  2
Thumbnail_Data
280
    15
 94
     1211
310
89504E470D0A1A0A0000000D494844520000010000000065080300000095E2CD0900000300504C5445FFFFFFFFFFFFFFFFFF0000000000000000000000000000000000000000000000000000330000660000990000CC0000FF0033000033330033660033990033CC0033FF0066000066330066660066990066CC0066FF0099
310
000099330099660099990099CC0099FF00CC0000CC3300CC6600CC9900CCCC00CCFF00FF0000FF3300FF6600FF9900FFCC00FFFF3300003300333300663300993300CC3300FF3333003333333333663333993333CC3333FF3366003366333366663366993366CC3366FF3399003399333399663399993399CC3399FF33CC00
310
33CC3333CC6633CC9933CCCC33CCFF33FF0033FF3333FF6633FF9933FFCC33FFFF6600006600336600666600996600CC6600FF6633006633336633666633996633CC6633FF6666006666336666666666996666CC6666FF6699006699336699666699996699CC6699FF66CC0066CC3366CC6666CC9966CCCC66CCFF66FF0066
310
FF3366FF6666FF9966FFCC66FFFF9900009900339900669900999900CC9900FF9933009933339933669933999933CC9933FF9966009966339966669966999966CC9966FF9999009999339999669999999999CC9999FF99CC0099CC3399CC6699CC9999CCCC99CCFF99FF0099FF3399FF6699FF9999FFCC99FFFFCC0000CC00
310
33CC0066CC0099CC00CCCC00FFCC3300CC3333CC3366CC3399CC33CCCC33FFCC6600CC6633CC6666CC6699CC66CCCC66FFCC9900CC9933CC9966CC9999CC99CCCC99FFCCCC00CCCC33CCCC66CCCC99CCCCCCCCCCFFCCFF00CCFF33CCFF66CCFF99CCFFCCCCFFFFFF0000FF0033FF0066FF0099FF00CCFF00FFFF3300FF3333
310
FF3366FF3399FF33CCFF33FFFF6600FF6633FF6666FF6699FF66CCFF66FFFF9900FF9933FF9966FF9999FF99CCFF99FFFFCC00FFCC33FFCC66FFCC99FFCCCCFFCCFFFFFF00FFFF33FFFF66FFFF99FFFFCCFFFFFF0000000D0D0D1A1A1A2828283535354343435050505D5D5D6B6B6B787878868686939393A1A1A1AEAEAEBB
310
BBBBC9C9C9D6D6D6E4E4E4F1F1F1FFFFFF000000000000000000000000000000000000000000000000000000000000AD4AB4E4000001764944415478DAED9A510EC2201005F7FE67E314FBCD219414DA1581B47ED8C2CE24368D56E50D2C50A3080000000000000000000000C01DE81BE7F1FD2A28E9A3530739753AC464C1
310
61EFE7B37474360A6CD8FDCC8D826ADA33A7D18501ED0B10074BC21650434FC036192C5FFA49401909958085270333EF8F05C88AC320F76AD9FB2401DBF38D3960C16190BBDA964087C3D13A136223CB4840256C7A07CD18B604EC3A5097C3F4EB62AF13CF08B0EFD7B5E28F04E8B836A64B1FDA2D3F3B02F2C5613E057989
310
0FA1DDEC9F045CE409773B4E05D8E5DE9F808F2FFFBCEDB72F840BCDEE6A1CB7E3D6CE6F24D2FD20E56E70DBF71D0F995DC0575FF605F4DAD75E332713D0F9E5EBA480AF4D411170ADB46F2B817E9C73028E6BFC0A50FB0E3102AEE49A588020409D0B289FB29A806A873410204B0AA85F180A50F52D206F0E3D0B1004A873
310
01FB256E05CC5802FA44FE1A3F3E0FF51DFF2F02CA5FBDA273014F450000000000000000000000000000000000DCF102B82B726171F393FC0000000049454E44AE426082
  0
ENDSEC
  0
EOF
