  0
SECTION
  2
HEADER
  9
$ACADVER
  1
AC1032
  9
$ACADMAINTVER
 90
      204
  9
$DWGCODEPAGE
  3
ANSI_1252
  9
$LASTSAVEDBY
  1
duda-
  9
$REQUIREDVERSIONS
160
                 0
  9
$INSBASE
 10
0.0
 20
0.0
 30
0.0
  9
$EXTMIN
 10
-84327.85073668966
 20
-8696.73689348075
 30
0.0
  9
$EXTMAX
 10
-65361.43274154281
 20
-4258.915410878558
 30
0.0
  9
$LIMMIN
 10
0.0
 20
0.0
  9
$LIMMAX
 10
12.0
 20
9.0
  9
$ORTHOMODE
 70
     0
  9
$REGENMODE
 70
     1
  9
$FILLMODE
 70
     1
  9
$QTEXTMODE
 70
     0
  9
$MIRRTEXT
 70
     0
  9
$LTSCALE
 40
1.0
  9
$ATTMODE
 70
     1
  9
$TEXTSIZE
 40
0.2
  9
$TRACEWID
 40
0.05
  9
$TEXTSTYLE
  7
Standard
  9
$CLAYER
  8
0
  9
$CELTYPE
  6
ByLayer
  9
$CECOLOR
 62
   256
  9
$CELTSCALE
 40
1.0
  9
$DISPSILH
 70
     0
  9
$DIMSCALE
 40
1.0
  9
$DIMASZ
 40
0.18
  9
$DIMEXO
 40
0.0625
  9
$DIMDLI
 40
0.38
  9
$DIMRND
 40
0.0
  9
$DIMDLE
 40
0.0
  9
$DIMEXE
 40
0.18
  9
$DIMTP
 40
0.0
  9
$DIMTM
 40
0.0
  9
$DIMTXT
 40
0.18
  9
$DIMCEN
 40
0.09
  9
$DIMTSZ
 40
0.0
  9
$DIMTOL
 70
     0
  9
$DIMLIM
 70
     0
  9
$DIMTIH
 70
     1
  9
$DIMTOH
 70
     1
  9
$DIMSE1
 70
     0
  9
$DIMSE2
 70
     0
  9
$DIMTAD
 70
     0
  9
$DIMZIN
 70
     0
  9
$DIMBLK
  1

  9
$DIMASO
 70
     1
  9
$DIMSHO
 70
     1
  9
$DIMPOST
  1

  9
$DIMAPOST
  1

  9
$DIMALT
 70
     0
  9
$DIMALTD
 70
     2
  9
$DIMALTF
 40
25.4
  9
$DIMLFAC
 40
1.0
  9
$DIMTOFL
 70
     0
  9
$DIMTVP
 40
0.0
  9
$DIMTIX
 70
     0
  9
$DIMSOXD
 70
     0
  9
$DIMSAH
 70
     0
  9
$DIMBLK1
  1

  9
$DIMBLK2
  1

  9
$DIMSTYLE
  2
Standard
  9
$DIMCLRD
 70
     0
  9
$DIMCLRE
 70
     0
  9
$DIMCLRT
 70
     0
  9
$DIMTFAC
 40
1.0
  9
$DIMGAP
 40
0.09
  9
$DIMJUST
 70
     0
  9
$DIMSD1
 70
     0
  9
$DIMSD2
 70
     0
  9
$DIMTOLJ
 70
     1
  9
$DIMTZIN
 70
     0
  9
$DIMALTZ
 70
     0
  9
$DIMALTTZ
 70
     0
  9
$DIMUPT
 70
     0
  9
$DIMDEC
 70
     4
  9
$DIMTDEC
 70
     4
  9
$DIMALTU
 70
     2
  9
$DIMALTTD
 70
     2
  9
$DIMTXSTY
  7
Standard
  9
$DIMAUNIT
 70
     0
  9
$DIMADEC
 70
     0
  9
$DIMALTRND
 40
0.0
  9
$DIMAZIN
 70
     0
  9
$DIMDSEP
 70
    46
  9
$DIMATFIT
 70
     3
  9
$DIMFRAC
 70
     0
  9
$DIMLDRBLK
  1

  9
$DIMLUNIT
 70
     2
  9
$DIMLWD
 70
    -2
  9
$DIMLWE
 70
    -2
  9
$DIMTMOVE
 70
     0
  9
$DIMFXL
 40
1.0
  9
$DIMFXLON
 70
     0
  9
$DIMJOGANG
 40
0.7853981633974483
  9
$DIMTFILL
 70
     0
  9
$DIMTFILLCLR
 70
     0
  9
$DIMARCSYM
 70
     0
  9
$DIMLTYPE
  6

  9
$DIMLTEX1
  6

  9
$DIMLTEX2
  6

  9
$DIMTXTDIRECTION
 70
     0
  9
$LUNITS
 70
     2
  9
$LUPREC
 70
     4
  9
$SKETCHINC
 40
0.1
  9
$FILLETRAD
 40
0.0
  9
$AUNITS
 70
     0
  9
$AUPREC
 70
     0
  9
$MENU
  1
.
  9
$ELEVATION
 40
0.0
  9
$PELEVATION
 40
0.0
  9
$THICKNESS
 40
0.0
  9
$LIMCHECK
 70
     0
  9
$CHAMFERA
 40
0.0
  9
$CHAMFERB
 40
0.0
  9
$CHAMFERC
 40
0.0
  9
$CHAMFERD
 40
0.0
  9
$SKPOLY
 70
     0
  9
$TDCREATE
 40
2460730.663240741
  9
$TDUCREATE
 40
2460730.788240740
  9
$TDUPDATE
 40
2460739.046377315
  9
$TDUUPDATE
 40
2460739.171377315
  9
$TDINDWG
 40
0.0318287037
  9
$TDUSRTIMER
 40
0.0318287037
  9
$USRTIMER
 70
     1
  9
$ANGBASE
 50
0.0
  9
$ANGDIR
 70
     0
  9
$PDMODE
 70
     0
  9
$PDSIZE
 40
0.0
  9
$PLINEWID
 40
0.0
  9
$SPLFRAME
 70
     0
  9
$SPLINETYPE
 70
     6
  9
$SPLINESEGS
 70
     8
  9
$HANDSEED
  5
179
  9
$SURFTAB1
 70
     6
  9
$SURFTAB2
 70
     6
  9
$SURFTYPE
 70
     6
  9
$SURFU
 70
     6
  9
$SURFV
 70
     6
  9
$UCSBASE
  2

  9
$UCSNAME
  2

  9
$UCSORG
 10
0.0
 20
0.0
 30
0.0
  9
$UCSXDIR
 10
1.0
 20
0.0
 30
0.0
  9
$UCSYDIR
 10
0.0
 20
1.0
 30
0.0
  9
$UCSORTHOREF
  2

  9
$UCSORTHOVIEW
 70
     0
  9
$UCSORGTOP
 10
0.0
 20
0.0
 30
0.0
  9
$UCSORGBOTTOM
 10
0.0
 20
0.0
 30
0.0
  9
$UCSORGLEFT
 10
0.0
 20
0.0
 30
0.0
  9
$UCSORGRIGHT
 10
0.0
 20
0.0
 30
0.0
  9
$UCSORGFRONT
 10
0.0
 20
0.0
 30
0.0
  9
$UCSORGBACK
 10
0.0
 20
0.0
 30
0.0
  9
$PUCSBASE
  2

  9
$PUCSNAME
  2

  9
$PUCSORG
 10
0.0
 20
0.0
 30
0.0
  9
$PUCSXDIR
 10
1.0
 20
0.0
 30
0.0
  9
$PUCSYDIR
 10
0.0
 20
1.0
 30
0.0
  9
$PUCSORTHOREF
  2

  9
$PUCSORTHOVIEW
 70
     0
  9
$PUCSORGTOP
 10
0.0
 20
0.0
 30
0.0
  9
$PUCSORGBOTTOM
 10
0.0
 20
0.0
 30
0.0
  9
$PUCSORGLEFT
 10
0.0
 20
0.0
 30
0.0
  9
$PUCSORGRIGHT
 10
0.0
 20
0.0
 30
0.0
  9
$PUCSORGFRONT
 10
0.0
 20
0.0
 30
0.0
  9
$PUCSORGBACK
 10
0.0
 20
0.0
 30
0.0
  9
$USERI1
 70
     0
  9
$USERI2
 70
     0
  9
$USERI3
 70
     0
  9
$USERI4
 70
     0
  9
$USERI5
 70
     0
  9
$USERR1
 40
0.0
  9
$USERR2
 40
0.0
  9
$USERR3
 40
0.0
  9
$USERR4
 40
0.0
  9
$USERR5
 40
0.0
  9
$WORLDVIEW
 70
     1
  9
$SHADEDGE
 70
     3
  9
$SHADEDIF
 70
    70
  9
$TILEMODE
 70
     1
  9
$MAXACTVP
 70
    64
  9
$PINSBASE
 10
0.0
 20
0.0
 30
0.0
  9
$PLIMCHECK
 70
     0
  9
$PEXTMIN
 10
20.76884200533789
 20
102.9849099062627
 30
-0.0015258207003583
  9
$PEXTMAX
 10
317.8025497169167
 20
313.0095527307103
 30
0.0000000349246037
  9
$PLIMMIN
 10
20.76884200533789
 20
102.9849099062627
  9
$PLIMMAX
 10
317.9612673821897
 20
313.1209682535316
  9
$UNITMODE
 70
     0
  9
$VISRETAIN
 70
     1
  9
$PLINEGEN
 70
     0
  9
$PSLTSCALE
 70
     0
  9
$TREEDEPTH
 70
  3020
  9
$CMLSTYLE
  2
Standard
  9
$CMLJUST
 70
     0
  9
$CMLSCALE
 40
1.0
  9
$PROXYGRAPHICS
 70
     1
  9
$MEASUREMENT
 70
     1
  9
$CELWEIGHT
370
    -1
  9
$ENDCAPS
280
     0
  9
$JOINSTYLE
280
     0
  9
$LWDISPLAY
290
     0
  9
$INSUNITS
 70
     4
  9
$HYPERLINKBASE
  1

  9
$STYLESHEET
  1

  9
$XEDIT
290
     1
  9
$CEPSNTYPE
380
     0
  9
$PSTYLEMODE
290
     1
  9
$FINGERPRINTGUID
  2
{5C895257-2376-CD4F-9218-627ABC28F95D}
  9
$VERSIONGUID
  2
{4B621406-D4ED-1547-9FB2-A46F48E2D215}
  9
$EXTNAMES
290
     1
  9
$PSVPSCALE
 40
0.0
  9
$OLESTARTUP
290
     0
  9
$SORTENTS
280
   127
  9
$INDEXCTL
280
     0
  9
$HIDETEXT
280
     1
  9
$XCLIPFRAME
280
     2
  9
$HALOGAP
280
     0
  9
$OBSCOLOR
 70
   257
  9
$OBSLTYPE
280
     0
  9
$INTERSECTIONDISPLAY
280
     0
  9
$INTERSECTIONCOLOR
 70
   257
  9
$DIMASSOC
280
     2
  9
$PROJECTNAME
  1

  9
$CAMERADISPLAY
290
     0
  9
$LENSLENGTH
 40
50.0
  9
$CAMERAHEIGHT
 40
0.0
  9
$STEPSPERSEC
 40
2.0
  9
$STEPSIZE
 40
6.0
  9
$3DDWFPREC
 40
2.0
  9
$PSOLWIDTH
 40
0.25
  9
$PSOLHEIGHT
 40
4.0
  9
$LOFTANG1
 40
1.570796326794896
  9
$LOFTANG2
 40
1.570796326794896
  9
$LOFTMAG1
 40
0.0
  9
$LOFTMAG2
 40
0.0
  9
$LOFTPARAM
 70
     7
  9
$LOFTNORMALS
280
     1
  9
$LATITUDE
 40
0.0
  9
$LONGITUDE
 40
0.0
  9
$NORTHDIRECTION
 40
0.0
  9
$TIMEZONE
 70
     0
  9
$LIGHTGLYPHDISPLAY
280
     1
  9
$TILEMODELIGHTSYNCH
280
     1
  9
$CMATERIAL
347
11
  9
$SOLIDHIST
280
     0
  9
$SHOWHIST
280
     1
  9
$DWFFRAME
280
     2
  9
$DGNFRAME
280
     0
  9
$REALWORLDSCALE
290
     1
  9
$INTERFERECOLOR
 62
     1
  9
$INTERFEREOBJVS
345
33
  9
$INTERFEREVPVS
346
30
  9
$CSHADOW
280
     0
  9
$SHADOWPLANELOCATION
 40
0.0
  0
ENDSEC
  0
SECTION
  2
CLASSES
  0
CLASS
  1
ACDBDICTIONARYWDFLT
  2
AcDbDictionaryWithDefault
  3
ObjectDBX Classes
 90
        0
 91
        1
280
     0
281
     0
  0
CLASS
  1
MATERIAL
  2
AcDbMaterial
  3
ObjectDBX Classes
 90
     1153
 91
        3
280
     0
281
     0
  0
CLASS
  1
VISUALSTYLE
  2
AcDbVisualStyle
  3
ObjectDBX Classes
 90
     4095
 91
       24
280
     0
281
     0
  0
CLASS
  1
SCALE
  2
AcDbScale
  3
ObjectDBX Classes
 90
     1153
 91
       17
280
     0
281
     0
  0
CLASS
  1
TABLESTYLE
  2
AcDbTableStyle
  3
ObjectDBX Classes
 90
     4095
 91
        1
280
     0
281
     0
  0
CLASS
  1
MLEADERSTYLE
  2
AcDbMLeaderStyle
  3
ACDB_MLEADERSTYLE_CLASS
 90
     4095
 91
        1
280
     0
281
     0
  0
CLASS
  1
ACDBSECTIONVIEWSTYLE
  2
AcDbSectionViewStyle
  3
ObjectDBX Classes
 90
     1025
 91
        2
280
     0
281
     0
  0
CLASS
  1
ACDBDETAILVIEWSTYLE
  2
AcDbDetailViewStyle
  3
ObjectDBX Classes
 90
     1025
 91
        2
280
     0
281
     0
  0
CLASS
  1
RASTERVARIABLES
  2
AcDbRasterVariables
  3
ISM
 90
        0
 91
        1
280
     0
281
     0
  0
CLASS
  1
DICTIONARYVAR
  2
AcDbDictionaryVar
  3
ObjectDBX Classes
 90
        0
 91
        5
280
     0
281
     0
  0
CLASS
  1
SORTENTSTABLE
  2
AcDbSortentsTable
  3
ObjectDBX Classes
 90
        0
 91
        1
280
     0
281
     0
  0
CLASS
  1
SUN
  2
AcDbSun
  3
SCENEOE
 90
     1153
 91
        1
280
     0
281
     0
  0
CLASS
  1
RAPIDRTRENDERSETTINGS
  2
AcDbRapidRTRenderSettings
  3
ObjectDBX Classes
 90
     1024
 91
        7
280
     0
281
     0
  0
CLASS
  1
CELLSTYLEMAP
  2
AcDbCellStyleMap
  3
ObjectDBX Classes
 90
     1152
 91
        1
280
     0
281
     0
  0
ENDSEC
  0
SECTION
  2
TABLES
  0
TABLE
  2
VPORT
  5
8
330
0
100
AcDbSymbolTable
 70
     1
  0
VPORT
  5
57
330
8
100
AcDbSymbolTableRecord
100
AcDbViewportTableRecord
  2
*Active
 70
     0
 10
0.0
 20
0.0
 11
1.0
 21
1.0
 12
-72517.74660015758
 22
-8210.004052289077
 13
0.0
 23
0.0
 14
1.0
 24
1.0
 15
0.0
 25
0.0
 16
0.0
 26
0.0
 36
1.0
 17
0.0
 27
0.0
 37
0.0
 40
12054.16623096293
 41
2.531208499335989
 42
50.0
 43
0.0
 44
0.0
 50
0.0
 51
0.0
 71
     0
 72
  1000
 73
     1
 74
     1
 75
     0
 76
     0
 77
     0
 78
     0
281
     0
 65
     1
110
0.0
120
0.0
130
0.0
111
1.0
121
0.0
131
0.0
112
0.0
122
1.0
132
0.0
 79
     0
146
0.0
348
2F
 60
     3
 61
     5
292
     1
282
     1
141
0.0
142
0.0
 63
   250
421
  3355443
361
F0
1001
ACAD_NAV_VCDISPLAY
1070
     3
  0
ENDTAB
  0
TABLE
  2
LTYPE
  5
5
330
0
100
AcDbSymbolTable
 70
     1
  0
LTYPE
  5
5B
330
5
100
AcDbSymbolTableRecord
100
AcDbLinetypeTableRecord
  2
ByBlock
 70
     0
  3

 72
    65
 73
     0
 40
0.0
  0
LTYPE
  5
5C
330
5
100
AcDbSymbolTableRecord
100
AcDbLinetypeTableRecord
  2
ByLayer
 70
     0
  3

 72
    65
 73
     0
 40
0.0
  0
LTYPE
  5
5D
330
5
100
AcDbSymbolTableRecord
100
AcDbLinetypeTableRecord
  2
Continuous
 70
     0
  3
Solid line
 72
    65
 73
     0
 40
0.0
  0
ENDTAB
  0
TABLE
  2
LAYER
  5
2
102
{ACAD_XDICTIONARY
360
10D
102
}
330
0
100
AcDbSymbolTable
 70
     7
  0
LAYER
  5
54
330
2
100
AcDbSymbolTableRecord
100
AcDbLayerTableRecord
  2
0
 70
     0
 62
   250
  6
Continuous
370
    25
390
F
347
21
348
0
  0
LAYER
  5
81
330
2
100
AcDbSymbolTableRecord
100
AcDbLayerTableRecord
  2
A-ALV-___-___-EXI
 70
     0
 62
   250
  6
Continuous
370
    25
390
F
347
21
348
0
  0
LAYER
  5
82
330
2
100
AcDbSymbolTableRecord
100
AcDbLayerTableRecord
  2
A-COB-___-___-EXI
 70
     0
 62
   250
  6
Continuous
370
    25
390
F
347
21
348
0
  0
LAYER
  5
D3
330
2
100
AcDbSymbolTableRecord
100
AcDbLayerTableRecord
  2
A-MOB-___-___-EXI
 70
     0
 62
   250
  6
Continuous
370
    25
390
F
347
21
348
0
  0
LAYER
  5
D9
330
2
100
AcDbSymbolTableRecord
100
AcDbLayerTableRecord
  2
A-JAN-___-___-EXI
 70
     0
 62
   250
  6
Continuous
370
    25
390
F
347
21
348
0
  0
LAYER
  5
DF
330
2
100
AcDbSymbolTableRecord
100
AcDbLayerTableRecord
  2
A-POR-___-___-EXI
 70
     0
 62
   250
  6
Continuous
370
    25
390
F
347
21
348
0
  0
LAYER
  5
E1
330
2
100
AcDbSymbolTableRecord
100
AcDbLayerTableRecord
  2
A-BAS-___-___-EXI
 70
     0
 62
   250
  6
Continuous
370
    25
390
F
347
21
348
0
  0
ENDTAB
  0
TABLE
  2
STYLE
  5
3
330
0
100
AcDbSymbolTable
 70
     2
  0
STYLE
  5
55
330
3
100
AcDbSymbolTableRecord
100
AcDbTextStyleTableRecord
  2
Standard
 70
     0
 40
0.0
 41
1.0
 50
0.0
 71
     0
 42
0.2
  3
txt
  4

  0
STYLE
  5
5A
330
3
100
AcDbSymbolTableRecord
100
AcDbTextStyleTableRecord
  2
Annotative
 70
     0
 40
0.0
 41
1.0
 50
0.0
 71
     0
 42
0.2
  3
txt
  4

1001
AcadAnnotative
1000
AnnotativeData
1002
{
1070
     1
1070
     1
1002
}
  0
ENDTAB
  0
TABLE
  2
VIEW
  5
6
330
0
100
AcDbSymbolTable
 70
     0
  0
ENDTAB
  0
TABLE
  2
UCS
  5
7
330
0
100
AcDbSymbolTable
 70
     0
  0
ENDTAB
  0
TABLE
  2
APPID
  5
9
330
0
100
AcDbSymbolTable
 70
     5
  0
APPID
  5
56
330
9
100
AcDbSymbolTableRecord
100
AcDbRegAppTableRecord
  2
ACAD
 70
     0
  0
APPID
  5
5E
330
9
100
AcDbSymbolTableRecord
100
AcDbRegAppTableRecord
  2
AcadAnnotative
 70
     0
  0
APPID
  5
78
330
9
100
AcDbSymbolTableRecord
100
AcDbRegAppTableRecord
  2
REVIT
 70
     0
  0
APPID
  5
100
330
9
100
AcDbSymbolTableRecord
100
AcDbRegAppTableRecord
  2
ACAD_PSEXT
 70
     0
  0
APPID
  5
11A
330
9
100
AcDbSymbolTableRecord
100
AcDbRegAppTableRecord
  2
ACAD_NAV_VCDISPLAY
 70
     0
  0
ENDTAB
  0
TABLE
  2
DIMSTYLE
  5
A
330
0
100
AcDbSymbolTable
 70
     2
100
AcDbDimStyleTable
 71
     0
  0
DIMSTYLE
105
58
330
A
100
AcDbSymbolTableRecord
100
AcDbDimStyleTableRecord
  2
Standard
 70
     0
340
55
  0
DIMSTYLE
105
59
330
A
100
AcDbSymbolTableRecord
100
AcDbDimStyleTableRecord
  2
Annotative
 70
     0
340
55
1001
AcadAnnotative
1000
AnnotativeData
1002
{
1070
     1
1070
     1
1002
}
  0
ENDTAB
  0
TABLE
  2
BLOCK_RECORD
  5
1
330
0
100
AcDbSymbolTable
 70
     2
  0
BLOCK_RECORD
  5
70
102
{ACAD_XDICTIONARY
360
EE
102
}
330
1
100
AcDbSymbolTableRecord
100
AcDbBlockTableRecord
  2
*Model_Space
340
73
 70
     0
280
     1
281
     0
  0
BLOCK_RECORD
  5
6C
330
1
100
AcDbSymbolTableRecord
100
AcDbBlockTableRecord
  2
*Paper_Space
340
6F
 70
     0
280
     1
281
     0
  0
BLOCK_RECORD
  5
89
330
1
100
AcDbSymbolTableRecord
100
AcDbBlockTableRecord
  2
page_1_a16b42ee5fb64c5f015ac54525f77bf5_65c64eee2528f_dwg-22903253-Fachada lateral_
340
0
 70
     0
280
     1
281
     0
  0
BLOCK_RECORD
  5
E0
330
1
100
AcDbSymbolTableRecord
100
AcDbBlockTableRecord
  2
A4 HORIZONTAL - A4-22933234-Não nomeada
340
0
102
{BLKREFS
331
E8
102
}
 70
     0
280
     1
281
     0
  0
ENDTAB
  0
ENDSEC
  0
SECTION
  2
BLOCKS
  0
BLOCK
  5
71
330
70
100
AcDbEntity
  8
0
100
AcDbBlockBegin
  2
*Model_Space
 70
     0
 10
0.0
 20
0.0
 30
0.0
  3
*Model_Space
  1

  0
ENDBLK
  5
72
330
70
100
AcDbEntity
  8
0
100
AcDbBlockEnd
  0
BLOCK
  5
6D
330
6C
100
AcDbEntity
 67
     1
  8
0
100
AcDbBlockBegin
  2
*Paper_Space
 70
     0
 10
0.0
 20
0.0
 30
0.0
  3
*Paper_Space
  1

  0
ENDBLK
  5
6E
330
6C
100
AcDbEntity
 67
     1
  8
0
100
AcDbBlockEnd
  0
BLOCK
  5
D0
330
89
100
AcDbEntity
  8
0
100
AcDbBlockBegin
  2
page_1_a16b42ee5fb64c5f015ac54525f77bf5_65c64eee2528f_dwg-22903253-Fachada lateral_
 70
     0
 10
0.0
 20
0.0
 30
0.0
  3
page_1_a16b42ee5fb64c5f015ac54525f77bf5_65c64eee2528f_dwg-22903253-Fachada lateral_
  1

  0
SPLINE
  5
8A
330
89
100
AcDbEntity
  8
0
 62
    18
370
     9
100
AcDbSpline
210
0.0
220
0.0
230
1.0
 70
     8
 71
     3
 72
     8
 73
     4
 74
     0
 42
0.000000001
 43
0.0000000001
 40
0.0
 40
0.0
 40
0.0
 40
0.0
 40
1.0
 40
1.0
 40
1.0
 40
1.0
 10
162.8187501737897
 20
218.2751942921091
 30
0.0
 10
162.7757240165873
 20
218.767958021862
 30
0.0
 10
162.363580353181
 20
219.145740964168
 30
0.0
 10
161.8687847130397
 20
219.145063998633
 30
0.0
1001
REVIT
1002
{
1070
     1
1000
22920847
1002
}
1002
{
1070
     5
1000
22903253
1002
}
1002
{
1070
     3
1000
22903256
1002
}
  0
SPLINE
  5
8B
330
89
100
AcDbEntity
  8
0
 62
    18
370
     9
100
AcDbSpline
210
0.0
220
0.0
230
1.0
 70
     8
 71
     3
 72
     8
 73
     4
 74
     0
 42
0.000000001
 43
0.0000000001
 40
0.0
 40
0.0
 40
0.0
 40
0.0
 40
1.0
 40
1.0
 40
1.0
 40
1.0
 10
161.8687847130397
 20
219.145063998633
 30
0.0
 10
161.3746608721341
 20
219.1443870330979
 30
0.0
 10
160.9633543739292
 20
218.7660924908837
 30
0.0
 10
160.9210103513353
 20
218.2738351933631
 30
0.0
1001
REVIT
1002
{
1070
     1
1000
22920847
1002
}
1002
{
1070
     5
1000
22903253
1002
}
1002
{
1070
     3
1000
22903256
1002
}
  0
SPLINE
  5
8C
330
89
100
AcDbEntity
  8
0
 62
    18
370
     9
100
AcDbSpline
210
0.0
220
0.0
230
1.0
 70
     8
 71
     3
 72
     8
 73
     4
 74
     0
 42
0.000000001
 43
0.0000000001
 40
0.0
 40
0.0
 40
0.0
 40
0.0
 40
1.0
 40
1.0
 40
1.0
 40
1.0
 10
162.599123500585
 20
218.2811164486221
 30
0.0
 10
162.5356229697535
 20
218.6343477630108
 30
0.0
 10
162.2279389198098
 20
218.891739361265
 30
0.0
 10
161.8687847130397
 20
218.8910623957299
 30
0.0
1001
REVIT
1002
{
1070
     1
1000
22920847
1002
}
1002
{
1070
     5
1000
22903253
1002
}
1002
{
1070
     3
1000
22903256
1002
}
  0
SPLINE
  5
8D
330
89
100
AcDbEntity
  8
0
 62
    18
370
     9
100
AcDbSpline
210
0.0
220
0.0
230
1.0
 70
     8
 71
     3
 72
     8
 73
     4
 74
     0
 42
0.000000001
 43
0.0000000001
 40
0.0
 40
0.0
 40
0.0
 40
0.0
 40
1.0
 40
1.0
 40
1.0
 40
1.0
 10
161.8687847130397
 20
218.8910623957299
 30
0.0
 10
161.5102919701325
 20
218.8903854301949
 30
0.0
 10
161.2032900547973
 20
218.6331695329192
 30
0.0
 10
161.1404819939472
 20
218.2799330508546
 30
0.0
1001
REVIT
1002
{
1070
     1
1000
22920847
1002
}
1002
{
1070
     5
1000
22903253
1002
}
1002
{
1070
     3
1000
22903256
1002
}
  0
SPLINE
  5
8E
330
89
100
AcDbEntity
  8
0
 62
    18
370
     9
100
AcDbSpline
210
0.0
220
0.0
230
1.0
 70
     8
 71
     3
 72
     8
 73
     4
 74
     0
 42
0.000000001
 43
0.0000000001
 40
0.0
 40
0.0
 40
0.0
 40
0.0
 40
1.0
 40
1.0
 40
1.0
 40
1.0
 10
22.3469356027686
 20
189.5347465244716
 30
0.0
 10
22.28343507193708
 20
189.463959700811
 30
0.0
 10
22.24431826951772
 20
189.3752307066329
 30
0.0
 10
22.23449966530386
 20
189.2814270547795
 30
0.0
1001
REVIT
1002
{
1070
     1
1000
22920847
1002
}
1002
{
1070
     5
1000
22903253
1002
}
1002
{
1070
     3
1000
22903256
1002
}
  0
SPLINE
  5
8F
330
89
100
AcDbEntity
  8
0
 62
    18
370
     9
100
AcDbSpline
210
0.0
220
0.0
230
1.0
 70
     8
 71
     3
 72
     8
 73
     4
 74
     0
 42
0.000000001
 43
0.0000000001
 40
0.0
 40
0.0
 40
0.0
 40
0.0
 40
1.0
 40
1.0
 40
1.0
 40
1.0
 10
22.23449966530386
 20
190.1650169406594
 30
0.0
 10
22.24431826951772
 20
190.0711926181027
 30
0.0
 10
22.28343507193708
 20
189.9817814907136
 30
0.0
 10
22.3469356027686
 20
189.911676800264
 30
0.0
1001
REVIT
1002
{
1070
     1
1000
22920847
1002
}
1002
{
1070
     5
1000
22903253
1002
}
1002
{
1070
     3
1000
22903256
1002
}
  0
SPLINE
  5
90
330
89
100
AcDbEntity
  8
0
 62
    18
370
     9
100
AcDbSpline
210
0.0
220
0.0
230
1.0
 70
     8
 71
     3
 72
     8
 73
     4
 74
     0
 42
0.000000001
 43
0.0000000001
 40
0.0
 40
0.0
 40
0.0
 40
0.0
 40
1.0
 40
1.0
 40
1.0
 40
1.0
 10
26.91033861861598
 20
185.320517212049
 30
0.0
 10
27.17890586614033
 20
185.320517212049
 30
0.0
 10
27.3971760216576
 20
185.5381073709811
 30
0.0
 10
27.3971760216576
 20
185.8073536176131
 30
0.0
1001
REVIT
1002
{
1070
     1
1000
22920847
1002
}
1002
{
1070
     5
1000
22903253
1002
}
1002
{
1070
     3
1000
22903256
1002
}
  0
SPLINE
  5
91
330
89
100
AcDbEntity
  8
0
 62
    18
370
     9
100
AcDbSpline
210
0.0
220
0.0
230
1.0
 70
     8
 71
     3
 72
     8
 73
     4
 74
     0
 42
0.000000001
 43
0.0000000001
 40
0.0
 40
0.0
 40
0.0
 40
0.0
 40
1.0
 40
1.0
 40
1.0
 40
1.0
 10
22.95213627960828
 20
185.8073536176131
 30
0.0
 10
22.95213627960828
 20
185.5381073709811
 30
0.0
 10
23.16973463588986
 20
185.320517212049
 30
0.0
 10
23.43897626649311
 20
185.320517212049
 30
0.0
1001
REVIT
1002
{
1070
     1
1000
22920847
1002
}
1002
{
1070
     5
1000
22903253
1002
}
1002
{
1070
     3
1000
22903256
1002
}
  0
LINE
  5
92
330
89
100
AcDbEntity
  8
0
 62
    28
370
    15
100
AcDbLine
 10
106.6458333317028
 20
202.8042942118727
 30
0.0
 11
106.6458333317028
 21
181.1409556865804
 31
0.0
1001
REVIT
1002
{
1070
     1
1000
22920847
1002
}
1002
{
1070
     5
1000
22903253
1002
}
1002
{
1070
     3
1000
22903256
1002
}
  0
LWPOLYLINE
  5
93
330
89
100
AcDbEntity
  8
0
 62
    28
370
    15
100
AcDbPolyline
 90
        4
 70
   128
 43
0.0
 10
144.1534802095182
 20
182.230164376729
 10
144.1534802095182
 20
202.2539574055829
 10
152.154557429662
 20
202.2539574055829
 10
152.154557429662
 20
182.230164376729
1001
REVIT
1002
{
1070
     1
1000
22920847
1002
}
1002
{
1070
     5
1000
22903253
1002
}
1002
{
1070
     3
1000
22903256
1002
}
  0
LWPOLYLINE
  5
94
330
89
100
AcDbEntity
  8
0
 62
    28
370
    15
100
AcDbPolyline
 90
        6
 70
   128
 43
0.0
 10
143.687819985459
 20
181.6399249974991
 10
143.687819985459
 20
182.230164376729
 10
143.687819985459
 20
202.761960611389
 10
152.6625616763132
 20
202.761960611389
 10
152.6625616763132
 20
182.230164376729
 10
143.687819985459
 20
182.230164376729
1001
REVIT
1002
{
1070
     1
1000
22920847
1002
}
1002
{
1070
     5
1000
22903253
1002
}
1002
{
1070
     3
1000
22903256
1002
}
  0
LWPOLYLINE
  5
95
330
89
100
AcDbEntity
  8
0
 62
    28
370
    15
100
AcDbPolyline
 90
        4
 70
   129
 43
0.0
 10
125.6536692293094
 20
192.7288972967201
 10
125.6536692293094
 20
198.7402685654246
 10
130.6490443213887
 20
198.7402685654246
 10
130.6490443213887
 20
192.7288972967201
1001
REVIT
1002
{
1070
     1
1000
22920847
1002
}
1002
{
1070
     5
1000
22903253
1002
}
1002
{
1070
     3
1000
22903256
1002
}
  0
LWPOLYLINE
  5
96
330
89
100
AcDbEntity
  8
0
 62
    28
370
    15
100
AcDbPolyline
 90
        4
 70
   129
 43
0.0
 10
124.6799840878533
 20
191.7552244855919
 10
124.6799840878533
 20
199.7562749770366
 10
131.6650528146929
 20
199.7562749770366
 10
131.6650528146929
 20
191.7552244855919
1001
REVIT
1002
{
1070
     1
1000
22920847
1002
}
1002
{
1070
     5
1000
22903253
1002
}
1002
{
1070
     3
1000
22903256
1002
}
  0
LWPOLYLINE
  5
97
330
89
100
AcDbEntity
  8
0
 62
    28
370
    15
100
AcDbPolyline
 90
        4
 70
   128
 43
0.0
 10
22.14779880625229
 20
180.7908219602786
 10
22.14779880625229
 20
193.7872373088159
 10
20.66612104543853
 20
193.7872373088159
 10
20.66612104543853
 20
209.8316718921893
1001
REVIT
1002
{
1070
     1
1000
22920847
1002
}
1002
{
1070
     5
1000
22903253
1002
}
1002
{
1070
     3
1000
22903256
1002
}
  0
LWPOLYLINE
  5
98
330
89
100
AcDbEntity
  8
0
 62
    28
370
    15
100
AcDbPolyline
 90
        6
 70
   128
 43
0.0
 10
192.1175685016688
 20
208.4769966767066
 10
191.9059000655638
 20
207.7573254684814
 10
161.8913054904944
 20
216.7743823715382
 10
133.6547257787076
 20
208.3076622747713
 10
106.3918312083768
 20
202.7619606113889
 10
106.2648404820866
 20
203.4816318196141
1001
REVIT
1002
{
1070
     1
1000
22920847
1002
}
1002
{
1070
     5
1000
22903253
1002
}
1002
{
1070
     3
1000
22903256
1002
}
  0
LWPOLYLINE
  5
99
330
89
100
AcDbEntity
  8
0
 62
    28
370
    15
100
AcDbPolyline
 90
        7
 70
   128
 43
0.0
 10
110.7522113275127
 20
205.3019766404191
 10
106.0108383587595
 20
204.6669726331615
 10
106.2648404820856
 20
203.4816318196142
 10
133.4853910298225
 20
209.0273334829965
 10
133.6547257787066
 20
208.3076622747713
 10
190.0855515150594
 20
208.3076622747713
 10
190.0855515150594
 20
182.2649196649266
1001
REVIT
1002
{
1070
     1
1000
22920847
1002
}
1002
{
1070
     5
1000
22903253
1002
}
1002
{
1070
     3
1000
22903256
1002
}
  0
LWPOLYLINE
  5
9A
330
89
100
AcDbEntity
  8
0
 62
    28
370
    15
100
AcDbPolyline
 90
        5
 70
   128
 43
0.0
 10
189.5352135811872
 20
210.2126742965438
 10
194.1919191754983
 20
209.1120006839641
 10
193.8532496777303
 20
207.9689934709006
 10
161.8913054904944
 20
217.5363871802472
 10
161.8913054904944
 20
216.7743823715382
1001
REVIT
1002
{
1070
     1
1000
22920847
1002
}
1002
{
1070
     5
1000
22903253
1002
}
1002
{
1070
     3
1000
22903256
1002
}
  0
LWPOLYLINE
  5
9B
330
89
100
AcDbEntity
  8
0
 62
    28
370
    15
100
AcDbPolyline
 90
        5
 70
   128
 43
0.0
 10
157.4886020195093
 20
216.2240455652483
 10
157.1499325217413
 20
217.3670527783119
 10
161.8913054904944
 20
218.4677263908916
 10
161.8913054904944
 20
217.5363871802472
 10
133.4853910298235
 20
209.0273334829964
1001
REVIT
1002
{
1070
     1
1000
22920847
1002
}
1002
{
1070
     5
1000
22903253
1002
}
1002
{
1070
     3
1000
22903256
1002
}
  0
LWPOLYLINE
  5
9C
330
89
100
AcDbEntity
  8
0
 62
    28
370
    15
100
AcDbPolyline
 90
        3
 70
   128
 43
0.0
 10
152.8742197770463
 20
214.8693703497656
 10
152.5355502792782
 20
216.0123775628292
 10
157.2345998961833
 20
217.070717574925
1001
REVIT
1002
{
1070
     1
1000
22920847
1002
}
1002
{
1070
     5
1000
22903253
1002
}
1002
{
1070
     3
1000
22903256
1002
}
  0
LWPOLYLINE
  5
9D
330
89
100
AcDbEntity
  8
0
 62
    28
370
    15
100
AcDbPolyline
 90
        3
 70
   128
 43
0.0
 10
148.3021815571772
 20
213.4723615337991
 10
147.921188707561
 20
214.6153687468626
 10
152.6202176537203
 20
215.6737087589585
1001
REVIT
1002
{
1070
     1
1000
22920847
1002
}
1002
{
1070
     5
1000
22903253
1002
}
1002
{
1070
     3
1000
22903256
1002
}
  0
LINE
  5
9E
330
89
100
AcDbEntity
  8
0
 62
    28
370
    15
100
AcDbLine
 10
80.65295454568882
 20
197.8089293547802
 30
0.0
 11
80.65295454568882
 21
180.7908219602786
 31
0.0
1001
REVIT
1002
{
1070
     1
1000
22920847
1002
}
1002
{
1070
     5
1000
22903253
1002
}
1002
{
1070
     3
1000
22903256
1002
}
  0
LINE
  5
9F
330
89
100
AcDbEntity
  8
0
 62
    28
370
    15
100
AcDbLine
 10
46.65900370721739
 20
201.9999558026799
 30
0.0
 11
46.65900370721739
 21
180.7908219602786
 31
0.0
1001
REVIT
1002
{
1070
     1
1000
22920847
1002
}
1002
{
1070
     5
1000
22903253
1002
}
1002
{
1070
     3
1000
22903256
1002
}
  0
LINE
  5
A0
330
89
100
AcDbEntity
  8
0
 62
    28
370
    15
100
AcDbLine
 10
24.89948589177476
 20
189.4692100594648
 30
0.0
 11
25.11115691172303
 21
189.3845428584971
 31
0.0
1001
REVIT
1002
{
1070
     1
1000
22920847
1002
}
1002
{
1070
     5
1000
22903253
1002
}
1002
{
1070
     3
1000
22903256
1002
}
  0
LINE
  5
A1
330
89
100
AcDbEntity
  8
0
 62
    28
370
    15
100
AcDbLine
 10
24.89948589177476
 20
189.5115436599486
 30
0.0
 11
25.11115691172303
 21
189.4268764589809
 31
0.0
1001
REVIT
1002
{
1070
     1
1000
22920847
1002
}
1002
{
1070
     5
1000
22903253
1002
}
1002
{
1070
     3
1000
22903256
1002
}
  0
LWPOLYLINE
  5
A2
330
89
100
AcDbEntity
  8
0
 62
    28
370
    15
100
AcDbPolyline
 90
        4
 70
   128
 43
0.0
 10
24.94182216283898
 20
189.6385444614001
 10
25.15348801510083
 20
189.4692100594648
 10
25.06882064065881
 20
189.2998756575295
 10
24.81481851733274
 20
189.2998756575295
1001
REVIT
1002
{
1070
     1
1000
22920847
1002
}
1002
{
1070
     5
1000
22903253
1002
}
1002
{
1070
     3
1000
22903256
1002
}
  0
LWPOLYLINE
  5
A3
330
89
100
AcDbEntity
  8
0
 62
    28
370
    15
100
AcDbPolyline
 90
        4
 70
   129
 43
0.0
 10
22.19012990963009
 20
189.2575420570456
 10
22.14779880625229
 20
189.2575420570456
 10
22.14779880625229
 20
190.1465476672061
 10
22.19012990963009
 20
190.1465476672061
1001
REVIT
1002
{
1070
     1
1000
22920847
1002
}
1002
{
1070
     5
1000
22903253
1002
}
1002
{
1070
     3
1000
22903256
1002
}
  0
LINE
  5
A4
330
89
100
AcDbEntity
  8
0
 62
    28
370
    15
100
AcDbLine
 10
24.77248741395494
 20
189.2152084565618
 30
0.0
 11
24.77248741395494
 21
189.1728748560779
 31
0.0
1001
REVIT
1002
{
1070
     1
1000
22920847
1002
}
1002
{
1070
     5
1000
22903253
1002
}
1002
{
1070
     3
1000
22903256
1002
}
  0
LINE
  5
A5
330
89
100
AcDbEntity
  8
0
 62
    28
370
    15
100
AcDbLine
 10
24.47614901956465
 20
189.2152084565618
 30
0.0
 11
24.47614901956465
 21
189.1728748560779
 31
0.0
1001
REVIT
1002
{
1070
     1
1000
22920847
1002
}
1002
{
1070
     5
1000
22903253
1002
}
1002
{
1070
     3
1000
22903256
1002
}
  0
LWPOLYLINE
  5
A6
330
89
100
AcDbEntity
  8
0
 62
    28
370
    15
100
AcDbPolyline
 90
        4
 70
   129
 43
0.0
 10
24.81481851733274
 20
189.0882076551103
 10
24.43381791618686
 20
189.0882076551103
 10
24.43381791618686
 20
189.1728748560779
 10
24.81481851733274
 20
189.1728748560779
1001
REVIT
1002
{
1070
     1
1000
22920847
1002
}
1002
{
1070
     5
1000
22903253
1002
}
1002
{
1070
     3
1000
22903256
1002
}
  0
LWPOLYLINE
  5
A7
330
89
100
AcDbEntity
  8
0
 62
    28
370
    15
100
AcDbPolyline
 90
        8
 70
   128
 43
0.0
 10
24.94182216283898
 20
189.7655452628516
 10
24.6454837684487
 20
189.8502124638193
 10
22.31713355513633
 20
189.8502124638193
 10
22.31713355513633
 20
189.5115436599486
 10
24.34915054174484
 20
189.5115436599486
 10
24.43381791618686
 20
189.2152084565618
 10
24.81481851733274
 20
189.2152084565618
 10
24.98415326621678
 20
189.7232116623678
1001
REVIT
1002
{
1070
     1
1000
22920847
1002
}
1002
{
1070
     5
1000
22903253
1002
}
1002
{
1070
     3
1000
22903256
1002
}
  0
LINE
  5
A8
330
89
100
AcDbEntity
  8
0
 62
    28
370
    15
100
AcDbLine
 10
22.31713355513633
 20
189.6808780618839
 30
0.0
 11
24.89948589177476
 21
189.6808780618839
 31
0.0
1001
REVIT
1002
{
1070
     1
1000
22920847
1002
}
1002
{
1070
     5
1000
22903253
1002
}
1002
{
1070
     3
1000
22903256
1002
}
  0
LINE
  5
A9
330
89
100
AcDbEntity
  8
0
 62
    28
370
    15
100
AcDbLine
 10
27.3971760216576
 20
187.3101964347892
 30
0.0
 11
27.3971760216576
 21
185.7861868173712
 31
0.0
1001
REVIT
1002
{
1070
     1
1000
22920847
1002
}
1002
{
1070
     5
1000
22903253
1002
}
1002
{
1070
     3
1000
22903256
1002
}
  0
LINE
  5
AA
330
89
100
AcDbEntity
  8
0
 62
    28
370
    15
100
AcDbLine
 10
26.88917177500547
 20
185.2781836115651
 30
0.0
 11
23.41780942288261
 21
185.2781836115651
 31
0.0
1001
REVIT
1002
{
1070
     1
1000
22920847
1002
}
1002
{
1070
     5
1000
22903253
1002
}
1002
{
1070
     3
1000
22903256
1002
}
  0
LINE
  5
AB
330
89
100
AcDbEntity
  8
0
 62
    28
370
    15
100
AcDbLine
 10
22.90980517623048
 20
185.7861868173712
 30
0.0
 11
22.90980517623048
 21
187.3101964347892
 31
0.0
1001
REVIT
1002
{
1070
     1
1000
22920847
1002
}
1002
{
1070
     5
1000
22903253
1002
}
1002
{
1070
     3
1000
22903256
1002
}
  0
LWPOLYLINE
  5
AC
330
89
100
AcDbEntity
  8
0
 62
    28
370
    15
100
AcDbPolyline
 90
        4
 70
   128
 43
0.0
 10
22.14779880625229
 20
187.3101964347892
 10
28.15918239163578
 20
187.3101964347892
 10
28.15918239163578
 20
187.7758660401114
 10
22.14779880625229
 20
187.7758660401114
1001
REVIT
1002
{
1070
     1
1000
22920847
1002
}
1002
{
1070
     5
1000
22903253
1002
}
1002
{
1070
     3
1000
22903256
1002
}
  0
LWPOLYLINE
  5
AD
330
89
100
AcDbEntity
  8
0
 62
    28
370
    15
100
AcDbPolyline
 90
        7
 70
   128
 43
0.0
 10
44.24598353561978
 20
204.2859702288069
 10
48.22535013439477
 20
203.3546310181626
 10
47.9713480110687
 20
202.4232918075183
 10
20.66612104543853
 20
210.5936767008983
 10
20.66612104543853
 20
209.8316718921893
 10
47.25167532831153
 20
201.8306214007445
 10
47.46334376441658
 20
202.5502926089697
1001
REVIT
1002
{
1070
     1
1000
22920847
1002
}
1002
{
1070
     5
1000
22903253
1002
}
1002
{
1070
     3
1000
22903256
1002
}
  0
LWPOLYLINE
  5
AE
330
89
100
AcDbEntity
  8
0
 62
    28
370
    15
100
AcDbPolyline
 90
        3
 70
   128
 43
0.0
 10
40.13961329133855
 20
204.793973434613
 10
40.43595168572883
 20
205.7253126452573
 10
36.45658508695384
 20
206.6143182554179
1001
REVIT
1002
{
1070
     1
1000
22920847
1002
}
1002
{
1070
     5
1000
22903253
1002
}
1002
{
1070
     3
1000
22903256
1002
}
  0
LWPOLYLINE
  5
AF
330
89
100
AcDbEntity
  8
0
 62
    28
370
    15
100
AcDbPolyline
 90
        3
 70
   128
 43
0.0
 10
36.24491406700558
 20
205.9369806476765
 10
36.54125246139587
 20
206.9106534588047
 10
32.56188586262088
 20
207.7996590689652
1001
REVIT
1002
{
1070
     1
1000
22920847
1002
}
1002
{
1070
     5
1000
22903253
1002
}
1002
{
1070
     3
1000
22903256
1002
}
  0
LWPOLYLINE
  5
B0
330
89
100
AcDbEntity
  8
0
 62
    28
370
    15
100
AcDbPolyline
 90
        3
 70
   128
 43
0.0
 10
44.03431509951473
 20
203.5662990205818
 10
44.3306509100618
 20
204.53997183171
 10
40.35128431128681
 20
205.4713110423543
1001
REVIT
1002
{
1070
     1
1000
22920847
1002
}
1002
{
1070
     5
1000
22903253
1002
}
1002
{
1070
     3
1000
22903256
1002
}
  0
LWPOLYLINE
  5
B1
330
89
100
AcDbEntity
  8
0
 62
    28
370
    15
100
AcDbPolyline
 90
        3
 70
   128
 43
0.0
 10
28.41318451496185
 20
208.3076622747713
 10
28.70951774166571
 20
209.2390014854156
 10
24.73015114289072
 20
210.1280070955762
1001
REVIT
1002
{
1070
     1
1000
22920847
1002
}
1002
{
1070
     5
1000
22903253
1002
}
1002
{
1070
     3
1000
22903256
1002
}
  0
LWPOLYLINE
  5
B2
330
89
100
AcDbEntity
  8
0
 62
    28
370
    15
100
AcDbPolyline
 90
        3
 70
   128
 43
0.0
 10
32.30788373929482
 20
207.0799878607401
 10
32.60421696599868
 20
208.0536606718682
 10
28.62485036722369
 20
208.9849998825126
1001
REVIT
1002
{
1070
     1
1000
22920847
1002
}
1002
{
1070
     5
1000
22903253
1002
}
1002
{
1070
     3
1000
22903256
1002
}
  0
LWPOLYLINE
  5
B3
330
89
100
AcDbEntity
  8
0
 62
    28
370
    15
100
AcDbPolyline
 90
        4
 70
   128
 43
0.0
 10
24.47614901956465
 20
209.408335887351
 10
24.77248741395494
 20
210.3820086984792
 10
20.66612104543853
 20
211.3133479091235
 10
20.66612104543853
 20
210.5936767008983
1001
REVIT
1002
{
1070
     1
1000
22920847
1002
}
1002
{
1070
     5
1000
22903253
1002
}
1002
{
1070
     3
1000
22903256
1002
}
  0
LINE
  5
B4
330
89
100
AcDbEntity
  8
0
 62
    28
370
    15
100
AcDbLine
 10
161.1292991205163
 20
216.562714369119
 30
0.0
 11
161.1292991205163
 21
208.3076622747713
 31
0.0
1001
REVIT
1002
{
1070
     1
1000
22920847
1002
}
1002
{
1070
     5
1000
22903253
1002
}
1002
{
1070
     3
1000
22903256
1002
}
  0
LINE
  5
B5
330
89
100
AcDbEntity
  8
0
 62
    28
370
    15
100
AcDbLine
 10
161.1292991205163
 20
206.7836526573532
 30
0.0
 11
161.1292991205163
 21
182.230164376729
 31
0.0
1001
REVIT
1002
{
1070
     1
1000
22920847
1002
}
1002
{
1070
     5
1000
22903253
1002
}
1002
{
1070
     3
1000
22903256
1002
}
  0
LINE
  5
B6
330
89
100
AcDbEntity
  8
0
 62
    28
370
    15
100
AcDbLine
 10
162.6109678378788
 20
216.562714369119
 30
0.0
 11
162.6109678378788
 21
208.3076622747713
 31
0.0
1001
REVIT
1002
{
1070
     1
1000
22920847
1002
}
1002
{
1070
     5
1000
22903253
1002
}
1002
{
1070
     3
1000
22903256
1002
}
  0
LINE
  5
B7
330
89
100
AcDbEntity
  8
0
 62
    28
370
    15
100
AcDbLine
 10
162.6109678378788
 20
206.7836526573532
 30
0.0
 11
162.6109678378788
 21
182.230164376729
 31
0.0
1001
REVIT
1002
{
1070
     1
1000
22920847
1002
}
1002
{
1070
     5
1000
22903253
1002
}
1002
{
1070
     3
1000
22903256
1002
}
  0
LINE
  5
B8
330
89
100
AcDbEntity
  8
0
 62
    28
370
    15
100
AcDbLine
 10
20.66612104543853
 20
193.7872373088159
 30
0.0
 11
20.66612104543853
 21
180.7908219602786
 31
0.0
1001
REVIT
1002
{
1070
     1
1000
22920847
1002
}
1002
{
1070
     5
1000
22903253
1002
}
1002
{
1070
     3
1000
22903256
1002
}
  0
LINE
  5
B9
330
89
100
AcDbEntity
  8
0
 62
    28
370
    15
100
AcDbLine
 10
133.6547257787076
 20
206.7836526573532
 30
0.0
 11
190.0855515150603
 21
206.7836526573532
 31
0.0
1001
REVIT
1002
{
1070
     1
1000
22920847
1002
}
1002
{
1070
     5
1000
22903253
1002
}
1002
{
1070
     3
1000
22903256
1002
}
  0
LINE
  5
BA
330
89
100
AcDbEntity
  8
0
 62
    28
370
    15
100
AcDbLine
 10
133.6547257787076
 20
208.3076622747713
 30
0.0
 11
133.6547257787076
 21
181.5104931685038
 31
0.0
1001
REVIT
1002
{
1070
     1
1000
22920847
1002
}
1002
{
1070
     5
1000
22903253
1002
}
1002
{
1070
     3
1000
22903256
1002
}
  0
LINE
  5
BB
330
89
100
AcDbEntity
  8
0
 62
    28
370
    15
100
AcDbLine
 10
149.6145361964014
 20
208.3076622747713
 30
0.0
 11
147.7518539586769
 21
212.5410223231547
 31
0.0
1001
REVIT
1002
{
1070
     1
1000
22920847
1002
}
1002
{
1070
     5
1000
22903253
1002
}
1002
{
1070
     3
1000
22903256
1002
}
  0
LINE
  5
BC
330
89
100
AcDbEntity
  8
0
 62
    28
370
    15
100
AcDbLine
 10
151.2655396626479
 20
208.3076622747713
 30
0.0
 11
149.2335226760394
 21
212.9643583279931
 31
0.0
1001
REVIT
1002
{
1070
     1
1000
22920847
1002
}
1002
{
1070
     5
1000
22903253
1002
}
1002
{
1070
     3
1000
22903256
1002
}
  0
LINE
  5
BD
330
89
100
AcDbEntity
  8
0
 62
    28
370
    15
100
AcDbLine
 10
174.1257514327393
 20
208.3076622747713
 30
0.0
 11
175.9884336704638
 21
212.5410223231547
 31
0.0
1001
REVIT
1002
{
1070
     1
1000
22920847
1002
}
1002
{
1070
     5
1000
22903253
1002
}
1002
{
1070
     3
1000
22903256
1002
}
  0
LINE
  5
BE
330
89
100
AcDbEntity
  8
0
 62
    28
370
    15
100
AcDbLine
 10
172.5170506475952
 20
208.3076622747713
 30
0.0
 11
174.5067546177284
 21
212.9643583279931
 31
0.0
1001
REVIT
1002
{
1070
     1
1000
22920847
1002
}
1002
{
1070
     5
1000
22903253
1002
}
1002
{
1070
     3
1000
22903256
1002
}
  0
LINE
  5
BF
330
89
100
AcDbEntity
  8
0
 62
    28
370
    15
100
AcDbLine
 10
152.6625616763142
 20
182.230164376729
 30
0.0
 11
152.6625616763142
 21
181.7644947714068
 31
0.0
1001
REVIT
1002
{
1070
     1
1000
22920847
1002
}
1002
{
1070
     5
1000
22903253
1002
}
1002
{
1070
     3
1000
22903256
1002
}
  0
LWPOLYLINE
  5
C0
330
89
100
AcDbEntity
  8
0
 62
    28
370
    15
100
AcDbPolyline
 90
        4
 70
   128
 43
0.0
 10
106.2648404820866
 20
203.4392982191302
 10
78.15526699964921
 20
198.1052645581671
 10
78.11293331242819
 20
198.3592661610701
 10
106.1801731076446
 20
203.7356334225171
1001
REVIT
1002
{
1070
     1
1000
22920847
1002
}
1002
{
1070
     5
1000
22903253
1002
}
1002
{
1070
     3
1000
22903256
1002
}
  0
LWPOLYLINE
  5
C1
330
89
100
AcDbEntity
  8
0
 62
    28
370
    15
100
AcDbPolyline
 90
        3
 70
   128
 43
0.0
 10
106.3918312083768
 20
202.7619606113889
 10
79.29827655461649
 20
197.5549277518772
 10
79.12894180573245
 20
198.2745989601024
1001
REVIT
1002
{
1070
     1
1000
22920847
1002
}
1002
{
1070
     5
1000
22903253
1002
}
1002
{
1070
     3
1000
22903256
1002
}
  0
LWPOLYLINE
  5
C2
330
89
100
AcDbEntity
  8
0
 62
    28
370
    15
100
AcDbPolyline
 90
        3
 70
   128
 43
0.0
 10
143.6878199854599
 20
212.1176863183164
 10
143.3491504876918
 20
213.2606935313799
 10
148.005856082003
 20
214.3190335434758
1001
REVIT
1002
{
1070
     1
1000
22920847
1002
}
1002
{
1070
     5
1000
22903253
1002
}
1002
{
1070
     3
1000
22903256
1002
}
  0
LWPOLYLINE
  5
C3
330
89
100
AcDbEntity
  8
0
 62
    28
370
    15
100
AcDbPolyline
 90
        3
 70
   128
 43
0.0
 10
139.0734377429969
 20
210.7206775023498
 10
138.7347682452288
 20
211.8636847154134
 10
143.4338178621338
 20
212.9220247275092
1001
REVIT
1002
{
1070
     1
1000
22920847
1002
}
1002
{
1070
     5
1000
22903253
1002
}
1002
{
1070
     3
1000
22903256
1002
}
  0
LWPOLYLINE
  5
C4
330
89
100
AcDbEntity
  8
0
 62
    28
370
    15
100
AcDbPolyline
 90
        3
 70
   128
 43
0.0
 10
134.5013995231278
 20
209.3660022868671
 10
134.1204066735115
 20
210.5090094999306
 10
138.8194356196708
 20
211.5673495120265
1001
REVIT
1002
{
1070
     1
1000
22920847
1002
}
1002
{
1070
     5
1000
22903253
1002
}
1002
{
1070
     3
1000
22903256
1002
}
  0
LWPOLYLINE
  5
C5
330
89
100
AcDbEntity
  8
0
 62
    28
370
    15
100
AcDbPolyline
 90
        3
 70
   128
 43
0.0
 10
129.8446939288166
 20
208.3076622747713
 10
129.5060244310485
 20
209.4506694878348
 10
134.2473973998017
 20
210.17034069606
1001
REVIT
1002
{
1070
     1
1000
22920847
1002
}
1002
{
1070
     5
1000
22903253
1002
}
1002
{
1070
     3
1000
22903256
1002
}
  0
LWPOLYLINE
  5
C6
330
89
100
AcDbEntity
  8
0
 62
    28
370
    15
100
AcDbPolyline
 90
        3
 70
   128
 43
0.0
 10
125.0609976082153
 20
207.333989463643
 10
124.8069954848892
 20
208.4769966767066
 10
129.5906918054905
 20
209.154334284448
1001
REVIT
1002
{
1070
     1
1000
22920847
1002
}
1002
{
1070
     5
1000
22903253
1002
}
1002
{
1070
     3
1000
22903256
1002
}
  0
LWPOLYLINE
  5
C7
330
89
100
AcDbEntity
  8
0
 62
    28
370
    15
100
AcDbPolyline
 90
        3
 70
   128
 43
0.0
 10
120.3619479913103
 20
206.3603166525148
 10
120.1079458679842
 20
207.5456574660623
 10
124.8916628593312
 20
208.1806614733197
1001
REVIT
1002
{
1070
     1
1000
22920847
1002
}
1002
{
1070
     5
1000
22903253
1002
}
1002
{
1070
     3
1000
22903256
1002
}
  0
LWPOLYLINE
  5
C8
330
89
100
AcDbEntity
  8
0
 62
    28
370
    15
100
AcDbPolyline
 90
        3
 70
   128
 43
0.0
 10
115.6629190451509
 20
205.3866438413867
 10
115.4089169218249
 20
206.571984654934
 10
120.1926132424262
 20
207.2069886621915
1001
REVIT
1002
{
1070
     1
1000
22920847
1002
}
1002
{
1070
     5
1000
22903253
1002
}
1002
{
1070
     3
1000
22903256
1002
}
  0
LWPOLYLINE
  5
C9
330
89
100
AcDbEntity
  8
0
 62
    28
370
    15
100
AcDbPolyline
 90
        3
 70
   128
 43
0.0
 10
110.9638694282459
 20
204.4553046307423
 10
110.7098673049198
 20
205.5983118438058
 10
115.451240273673
 20
206.2756494515472
1001
REVIT
1002
{
1070
     1
1000
22920847
1002
}
1002
{
1070
     5
1000
22903253
1002
}
1002
{
1070
     3
1000
22903256
1002
}
  0
LWPOLYLINE
  5
CA
330
89
100
AcDbEntity
  8
0
 62
    28
370
    15
100
AcDbPolyline
 90
        3
 70
   128
 43
0.0
 10
166.2516649388857
 20
216.2240455652483
 10
166.5903344366537
 20
217.3670527783119
 10
161.8913054904944
 20
218.4677263908916
1001
REVIT
1002
{
1070
     1
1000
22920847
1002
}
1002
{
1070
     5
1000
22903253
1002
}
1002
{
1070
     3
1000
22903256
1002
}
  0
LWPOLYLINE
  5
CB
330
89
100
AcDbEntity
  8
0
 62
    28
370
    15
100
AcDbPolyline
 90
        3
 70
   128
 43
0.0
 10
170.8660471813487
 20
214.8693703497656
 10
171.2047166791168
 20
216.0123775628292
 10
166.5480110848056
 20
217.070717574925
1001
REVIT
1002
{
1070
     1
1000
22920847
1002
}
1002
{
1070
     5
1000
22903253
1002
}
1002
{
1070
     3
1000
22903256
1002
}
  0
LWPOLYLINE
  5
CC
330
89
100
AcDbEntity
  8
0
 62
    28
370
    15
100
AcDbPolyline
 90
        3
 70
   128
 43
0.0
 10
175.4380957365907
 20
213.4723615337991
 10
175.8190989215798
 20
214.6153687468626
 10
171.1200493046748
 20
215.6737087589585
1001
REVIT
1002
{
1070
     1
1000
22920847
1002
}
1002
{
1070
     5
1000
22903253
1002
}
1002
{
1070
     3
1000
22903256
1002
}
  0
LWPOLYLINE
  5
CD
330
89
100
AcDbEntity
  8
0
 62
    28
370
    15
100
AcDbPolyline
 90
        3
 70
   128
 43
0.0
 10
180.0524676436808
 20
212.1176863183164
 10
180.3911371414489
 20
213.2606935313799
 10
175.7344315471377
 20
214.3190335434758
1001
REVIT
1002
{
1070
     1
1000
22920847
1002
}
1002
{
1070
     5
1000
22903253
1002
}
1002
{
1070
     3
1000
22903256
1002
}
  0
LWPOLYLINE
  5
CE
330
89
100
AcDbEntity
  8
0
 62
    28
370
    15
100
AcDbPolyline
 90
        3
 70
   128
 43
0.0
 10
184.666839550771
 20
210.7206775023498
 10
185.005509048539
 20
211.8636847154134
 10
180.3064697670069
 20
212.9220247275092
1001
REVIT
1002
{
1070
     1
1000
22920847
1002
}
1002
{
1070
     5
1000
22903253
1002
}
1002
{
1070
     3
1000
22903256
1002
}
  0
LWPOLYLINE
  5
CF
330
89
100
AcDbEntity
  8
0
 62
    28
370
    15
100
AcDbPolyline
 90
        3
 70
   128
 43
0.0
 10
189.2388777706401
 20
209.3660022868671
 10
189.6198809556292
 20
210.5090094999306
 10
184.920841674097
 20
211.5673495120265
1001
REVIT
1002
{
1070
     1
1000
22920847
1002
}
1002
{
1070
     5
1000
22903253
1002
}
1002
{
1070
     3
1000
22903256
1002
}
  0
ENDBLK
  5
D1
330
89
100
AcDbEntity
  8
0
100
AcDbBlockEnd
  0
BLOCK
  5
E6
330
E0
100
AcDbEntity
  8
0
100
AcDbBlockBegin
  2
A4 HORIZONTAL - A4-22933234-Não nomeada
 70
     0
 10
0.0
 20
0.0
 30
0.0
  3
A4 HORIZONTAL - A4-22933234-Não nomeada
  1

  0
LINE
  5
E2
330
E0
100
AcDbEntity
  8
A-BAS-___-___-EXI
100
AcDbLine
 10
317.7928507088368
 20
312.9999999999862
 30
0.0
 11
20.7928507088368
 21
312.9999999999856
 31
0.0
1001
REVIT
1002
{
1070
     1
1000
22925294
1002
}
1002
{
1070
     5
1000
22933234
1002
}
1002
{
1070
     3
1000
-2000281
1002
}
  0
LINE
  5
E3
330
E0
100
AcDbEntity
  8
A-BAS-___-___-EXI
100
AcDbLine
 10
20.7928507088368
 20
312.9999999999856
 30
0.0
 11
20.7928507088372
 21
102.9999999999856
 31
0.0
1001
REVIT
1002
{
1070
     1
1000
22925294
1002
}
1002
{
1070
     5
1000
22933234
1002
}
1002
{
1070
     3
1000
-2000281
1002
}
  0
LINE
  5
E4
330
E0
100
AcDbEntity
  8
A-BAS-___-___-EXI
100
AcDbLine
 10
20.7928507088372
 20
102.9999999999855
 30
0.0
 11
317.7928507088372
 21
102.9999999999861
 31
0.0
1001
REVIT
1002
{
1070
     1
1000
22925294
1002
}
1002
{
1070
     5
1000
22933234
1002
}
1002
{
1070
     3
1000
-2000281
1002
}
  0
LINE
  5
E5
330
E0
100
AcDbEntity
  8
A-BAS-___-___-EXI
100
AcDbLine
 10
317.7928507088372
 20
102.9999999999861
 30
0.0
 11
317.7928507088368
 21
312.9999999999862
 31
0.0
1001
REVIT
1002
{
1070
     1
1000
22925294
1002
}
1002
{
1070
     5
1000
22933234
1002
}
1002
{
1070
     3
1000
-2000281
1002
}
  0
ENDBLK
  5
E7
330
E0
100
AcDbEntity
  8
0
100
AcDbBlockEnd
  0
ENDSEC
  0
SECTION
  2
ENTITIES
  0
HATCH
  5
88
330
70
100
AcDbEntity
  8
A-BAS-___-___-EXI
 62
   253
420
 13342872
100
AcDbHatch
 10
0.0
 20
0.0
 30
0.0
210
0.0
220
0.0
230
1.0
  2
SOLID
 70
     1
 71
     0
 91
        1
 92
        1
 93
        5
 72
     1
 10
-65361.43274154288
 20
-8696.73689348075
 11
-65361.43274154288
 21
-7935.63058515528
 72
     1
 10
-65361.43274154288
 20
-7935.63058515528
 11
-77321.48237232554
 21
-8096.736893480684
 72
     1
 10
-77321.48237232554
 20
-8096.736893480684
 11
-84327.85073668966
 21
-8096.736893480684
 72
     1
 10
-84327.85073668966
 20
-8096.736893480684
 11
-84327.85073668966
 21
-8696.736893480684
 72
     1
 10
-84327.85073668966
 20
-8696.736893480684
 11
-65361.43274154288
 21
-8696.73689348075
 97
        0
 75
     0
 76
     1
 98
        1
 10
0.0
 20
0.0
450
        0
451
        0
460
0.0
461
0.0
452
        0
462
0.0
453
        0
470

1001
REVIT
1002
{
1070
     1
1000
22920846
1002
}
1002
{
1070
     5
1000
383807
1002
}
1002
{
1070
     2
1000
-2002000
1002
}
  0
LWPOLYLINE
  5
112
330
70
100
AcDbEntity
  8
A-BAS-___-___-EXI
100
AcDbPolyline
 90
        6
 70
     0
 43
0.0
 10
-77321.48237232545
 20
-8096.736893480676
 10
-84327.85073668958
 20
-8096.736893480676
 10
-84327.85073668958
 20
-8696.736893480673
 10
-65361.43274154281
 20
-8696.736893480737
 10
-65361.43274154281
 20
-7935.630585155272
 10
-77321.48237231085
 20
-8096.736893480599
1001
REVIT
1002
{
1070
     1
1000
22920846
1002
}
1002
{
1070
     5
1000
383807
1002
}
1002
{
1070
     2
1000
-2000051
1002
}
1002
{
1070
     3
1000
-2000042
1002
}
  0
SPLINE
  5
122
330
70
100
AcDbEntity
  8
A-COB-___-___-EXI
 62
    18
370
     9
100
AcDbSpline
210
0.0
220
0.0
230
1.0
 70
     8
 71
     3
 72
     8
 73
     4
 74
     0
 42
0.000000001
 43
0.0000000001
 40
0.0
 40
0.0
 40
0.0
 40
0.0
 40
1.0
 40
1.0
 40
1.0
 40
1.0
 10
-69099.76715027457
 20
-4345.956751531924
 30
0.0
 10
-69104.07245528516
 20
-4296.649579042325
 30
0.0
 10
-69145.31258209454
 20
-4258.847672012256
 30
0.0
 10
-69194.82307262471
 20
-4258.915410878558
 30
0.0
1001
REVIT
1002
{
1070
     1
1000
22920847
1002
}
1002
{
1070
     5
1000
22903253
1002
}
1002
{
1070
     3
1000
22903256
1002
}
  0
SPLINE
  5
123
330
70
100
AcDbEntity
  8
A-COB-___-___-EXI
 62
    18
370
     9
100
AcDbSpline
210
0.0
220
0.0
230
1.0
 70
     8
 71
     3
 72
     8
 73
     4
 74
     0
 42
0.000000001
 43
0.0000000001
 40
0.0
 40
0.0
 40
0.0
 40
0.0
 40
1.0
 40
1.0
 40
1.0
 40
1.0
 10
-69194.82307262471
 20
-4258.915410878558
 30
0.0
 10
-69244.26634124144
 20
-4258.983149744858
 30
0.0
 10
-69285.42269920482
 20
-4296.836248742588
 30
0.0
 10
-69289.65974811869
 20
-4346.092746355108
 30
0.0
1001
REVIT
1002
{
1070
     1
1000
22920847
1002
}
1002
{
1070
     5
1000
22903253
1002
}
1002
{
1070
     3
1000
22903256
1002
}
  0
SPLINE
  5
124
330
70
100
AcDbEntity
  8
A-COB-___-___-EXI
 62
    18
370
     9
100
AcDbSpline
210
0.0
220
0.0
230
1.0
 70
     8
 71
     3
 72
     8
 73
     4
 74
     0
 42
0.000000001
 43
0.0000000001
 40
0.0
 40
0.0
 40
0.0
 40
0.0
 40
1.0
 40
1.0
 40
1.0
 40
1.0
 10
-69121.743545056
 20
-4345.364165724436
 30
0.0
 10
-69128.09756715186
 20
-4310.018956051593
 30
0.0
 10
-69158.88520351154
 20
-4284.263708320879
 30
0.0
 10
-69194.82307262471
 20
-4284.331447187182
 30
0.0
1001
REVIT
1002
{
1070
     1
1000
22920847
1002
}
1002
{
1070
     5
1000
22903253
1002
}
1002
{
1070
     3
1000
22903256
1002
}
  0
SPLINE
  5
125
330
70
100
AcDbEntity
  8
A-COB-___-___-EXI
 62
    18
370
     9
100
AcDbSpline
210
0.0
220
0.0
230
1.0
 70
     8
 71
     3
 72
     8
 73
     4
 74
     0
 42
0.000000001
 43
0.0000000001
 40
0.0
 40
0.0
 40
0.0
 40
0.0
 40
1.0
 40
1.0
 40
1.0
 40
1.0
 10
-69194.82307262471
 20
-4284.331447187182
 30
0.0
 10
-69230.69475400771
 20
-4284.399186053484
 30
0.0
 10
-69261.41413427066
 20
-4310.136852704392
 30
0.0
 10
-69267.69886608652
 20
-4345.482579467818
 30
0.0
1001
REVIT
1002
{
1070
     1
1000
22920847
1002
}
1002
{
1070
     5
1000
22903253
1002
}
1002
{
1070
     3
1000
22903256
1002
}
  0
SPLINE
  5
126
330
70
100
AcDbEntity
  8
A-MOB-___-___-EXI
 62
    18
370
     9
100
AcDbSpline
210
0.0
220
0.0
230
1.0
 70
     8
 71
     3
 72
     8
 73
     4
 74
     0
 42
0.000000001
 43
0.0000000001
 40
0.0
 40
0.0
 40
0.0
 40
0.0
 40
1.0
 40
1.0
 40
1.0
 40
1.0
 10
-83155.72860355162
 20
-7221.797910169404
 30
0.0
 10
-83162.08262564748
 20
-7228.881016967815
 30
0.0
 10
-83165.99675083098
 20
-7237.759462268495
 30
0.0
 10
-83166.97922495061
 20
-7247.145690521145
 30
0.0
1001
REVIT
1002
{
1070
     1
1000
22920847
1002
}
1002
{
1070
     5
1000
22903253
1002
}
1002
{
1070
     3
1000
22903256
1002
}
  0
SPLINE
  5
127
330
70
100
AcDbEntity
  8
A-MOB-___-___-EXI
 62
    18
370
     9
100
AcDbSpline
210
0.0
220
0.0
230
1.0
 70
     8
 71
     3
 72
     8
 73
     4
 74
     0
 42
0.000000001
 43
0.0000000001
 40
0.0
 40
0.0
 40
0.0
 40
0.0
 40
1.0
 40
1.0
 40
1.0
 40
1.0
 10
-83166.97922495061
 20
-7158.731474371371
 30
0.0
 10
-83165.99675083098
 20
-7168.119770986352
 30
0.0
 10
-83162.08262564748
 20
-7177.066472243915
 30
0.0
 10
-83155.72860355162
 20
-7184.081323085441
 30
0.0
1001
REVIT
1002
{
1070
     1
1000
22920847
1002
}
1002
{
1070
     5
1000
22903253
1002
}
1002
{
1070
     3
1000
22903256
1002
}
  0
SPLINE
  5
128
330
70
100
AcDbEntity
  8
A-MOB-___-___-EXI
 62
    18
370
     9
100
AcDbSpline
210
0.0
220
0.0
230
1.0
 70
     8
 71
     3
 72
     8
 73
     4
 74
     0
 42
0.000000001
 43
0.0000000001
 40
0.0
 40
0.0
 40
0.0
 40
0.0
 40
1.0
 40
1.0
 40
1.0
 40
1.0
 10
-82699.10307278303
 20
-7643.484245976892
 30
0.0
 10
-82672.22956160685
 20
-7643.484245976892
 30
0.0
 10
-82650.38890338141
 20
-7621.711629912221
 30
0.0
 10
-82650.38890338141
 20
-7594.770176385366
 30
0.0
1001
REVIT
1002
{
1070
     1
1000
22920847
1002
}
1002
{
1070
     5
1000
22903253
1002
}
1002
{
1070
     3
1000
22903256
1002
}
  0
SPLINE
  5
129
330
70
100
AcDbEntity
  8
A-MOB-___-___-EXI
 62
    18
370
     9
100
AcDbSpline
210
0.0
220
0.0
230
1.0
 70
     8
 71
     3
 72
     8
 73
     4
 74
     0
 42
0.000000001
 43
0.0000000001
 40
0.0
 40
0.0
 40
0.0
 40
0.0
 40
1.0
 40
1.0
 40
1.0
 40
1.0
 10
-83095.17070863773
 20
-7594.770176385366
 30
0.0
 10
-83095.17070863773
 20
-7621.711629912221
 30
0.0
 10
-83073.39727232575
 20
-7643.484245976892
 30
0.0
 10
-83046.45628069028
 20
-7643.484245976892
 30
0.0
1001
REVIT
1002
{
1070
     1
1000
22920847
1002
}
1002
{
1070
     5
1000
22903253
1002
}
1002
{
1070
     3
1000
22903256
1002
}
  0
LINE
  5
12A
330
70
100
AcDbEntity
  8
A-ALV-___-___-EXI
 62
    28
370
    15
100
AcDbLine
 10
-74720.56984483445
 20
-5894.013746733326
 30
0.0
 11
-74720.56984483445
 21
-8061.701636226983
 31
0.0
1001
REVIT
1002
{
1070
     1
1000
22920847
1002
}
1002
{
1070
     5
1000
22903253
1002
}
1002
{
1070
     3
1000
22903256
1002
}
  0
LWPOLYLINE
  5
12B
330
70
100
AcDbEntity
  8
A-POR-___-___-EXI
 62
    28
370
    15
100
AcDbPolyline
 90
        4
 70
   128
 43
0.0
 10
-70967.46079354396
 20
-7952.712687731811
 10
-70967.46079354396
 20
-5949.081825402009
 10
-70166.85297528177
 20
-5949.081825402009
 10
-70166.85297528177
 20
-7952.712687731811
1001
REVIT
1002
{
1070
     1
1000
22920847
1002
}
1002
{
1070
     5
1000
22903253
1002
}
1002
{
1070
     3
1000
22903256
1002
}
  0
LWPOLYLINE
  5
12C
330
70
100
AcDbEntity
  8
A-POR-___-___-EXI
 62
    28
370
    15
100
AcDbPolyline
 90
        6
 70
   128
 43
0.0
 10
-71014.0559213971
 20
-8011.773517749549
 10
-71014.0559213971
 20
-7952.712687731811
 10
-71014.0559213971
 20
-5898.249752784752
 10
-70116.02079851495
 20
-5898.249752784752
 10
-70116.02079851495
 20
-7952.712687731811
 10
-71014.0559213971
 20
-7952.712687731811
1001
REVIT
1002
{
1070
     1
1000
22920847
1002
}
1002
{
1070
     5
1000
22903253
1002
}
1002
{
1070
     3
1000
22903256
1002
}
  0
LWPOLYLINE
  5
12D
330
70
100
AcDbEntity
  8
A-JAN-___-___-EXI
 62
    28
370
    15
100
AcDbPolyline
 90
        4
 70
   129
 43
0.0
 10
-72818.59819662245
 20
-6902.183186975381
 10
-72818.59819662245
 20
-6300.670327671298
 10
-72318.74845841447
 20
-6300.670327671298
 10
-72318.74845841447
 20
-6902.183186975381
1001
REVIT
1002
{
1070
     1
1000
22920847
1002
}
1002
{
1070
     5
1000
22903253
1002
}
1002
{
1070
     3
1000
22903256
1002
}
  0
LWPOLYLINE
  5
12E
330
70
100
AcDbEntity
  8
A-JAN-___-___-EXI
 62
    28
370
    15
100
AcDbPolyline
 90
        4
 70
   129
 43
0.0
 10
-72916.027569609
 20
-6999.611326158436
 10
-72916.027569609
 20
-6199.006182436802
 10
-72217.08410488063
 20
-6199.006182436802
 10
-72217.08410488063
 20
-6999.611326158436
1001
REVIT
1002
{
1070
     1
1000
22920847
1002
}
1002
{
1070
     5
1000
22903253
1002
}
1002
{
1070
     3
1000
22903256
1002
}
  0
LWPOLYLINE
  5
12F
330
70
100
AcDbEntity
  8
A-ALV-___-___-EXI
 62
    28
370
    15
100
AcDbPolyline
 90
        4
 70
   128
 43
0.0
 10
-83175.65472997285
 20
-8096.736893480677
 10
-83175.65472997285
 20
-6796.283035689448
 10
-83323.91511627012
 20
-6796.283035689448
 10
-83323.91511627012
 20
-5190.836742194744
1001
REVIT
1002
{
1070
     1
1000
22920847
1002
}
1002
{
1070
     5
1000
22903253
1002
}
1002
{
1070
     3
1000
22903256
1002
}
  0
LWPOLYLINE
  5
130
330
70
100
AcDbEntity
  8
A-COB-___-___-EXI
 62
    28
370
    15
100
AcDbPolyline
 90
        6
 70
   128
 43
0.0
 10
-66168.05403543455
 20
-5326.388935840736
 10
-66189.23410908745
 20
-5398.401038715168
 10
-69192.56958724925
 20
-4496.131749759043
 10
-72017.99244672685
 20
-5343.332960046486
 10
-74745.98593321791
 20
-5898.249752784763
 10
-74758.69294322635
 20
-5826.237649910327
1001
REVIT
1002
{
1070
     1
1000
22920847
1002
}
1002
{
1070
     5
1000
22903253
1002
}
1002
{
1070
     3
1000
22903256
1002
}
  0
LWPOLYLINE
  5
131
330
70
100
AcDbEntity
  8
A-ALV-___-___-EXI
 62
    28
370
    15
100
AcDbPolyline
 90
        7
 70
   128
 43
0.0
 10
-74309.67538178538
 20
-5644.089389698521
 10
-74784.1090316099
 20
-5707.629480470077
 10
-74758.69294322644
 20
-5826.237649910323
 10
-72034.93650564924
 20
-5271.32085717205
 10
-72017.99244672694
 20
-5343.332960046478
 10
-66371.38274250232
 20
-5343.332960046478
 10
-66371.38274250232
 20
-7949.234986580911
1001
REVIT
1002
{
1070
     1
1000
22920847
1002
}
1002
{
1070
     5
1000
22903253
1002
}
1002
{
1070
     3
1000
22903256
1002
}
  0
LWPOLYLINE
  5
132
330
70
100
AcDbEntity
  8
A-COB-___-___-EXI
 62
    28
370
    15
100
AcDbPolyline
 90
        5
 70
   128
 43
0.0
 10
-66426.45093399972
 20
-5152.712687731812
 10
-65960.48931363633
 20
-5262.84884506918
 10
-65994.37743148094
 20
-5377.221008457982
 10
-69192.56958724925
 20
-4419.883640833173
 10
-69192.56958724925
 20
-4496.131749759043
1001
REVIT
1002
{
1070
     1
1000
22920847
1002
}
1002
{
1070
     5
1000
22903253
1002
}
1002
{
1070
     3
1000
22903256
1002
}
  0
LWPOLYLINE
  5
133
330
70
100
AcDbEntity
  8
A-COB-___-___-EXI
 62
    28
370
    15
100
AcDbPolyline
 90
        5
 70
   128
 43
0.0
 10
-69633.11511922917
 20
-4551.199828427729
 10
-69667.00323707377
 20
-4436.827665038923
 10
-69192.56958724925
 20
-4326.691507701554
 10
-69192.56958724925
 20
-4419.883640833173
 10
-72034.93650564915
 20
-5271.320857172057
1001
REVIT
1002
{
1070
     1
1000
22920847
1002
}
1002
{
1070
     5
1000
22903253
1002
}
1002
{
1070
     3
1000
22903256
1002
}
  0
LWPOLYLINE
  5
134
330
70
100
AcDbEntity
  8
A-COB-___-___-EXI
 62
    28
370
    15
100
AcDbPolyline
 90
        3
 70
   128
 43
0.0
 10
-70094.84175904526
 20
-4686.752022073717
 10
-70128.72987688986
 20
-4572.379858684915
 10
-69658.53120761263
 20
-4466.479707398983
1001
REVIT
1002
{
1070
     1
1000
22920847
1002
}
1002
{
1070
     5
1000
22903253
1002
}
1002
{
1070
     3
1000
22903256
1002
}
  0
LWPOLYLINE
  5
135
330
70
100
AcDbEntity
  8
A-COB-___-___-EXI
 62
    28
370
    15
100
AcDbPolyline
 90
        3
 70
   128
 43
0.0
 10
-70552.33134994749
 20
-4826.540221771149
 10
-70590.45444833938
 20
-4712.168058382339
 10
-70120.25784742871
 20
-4606.267907096412
1001
REVIT
1002
{
1070
     1
1000
22920847
1002
}
1002
{
1070
     5
1000
22903253
1002
}
1002
{
1070
     3
1000
22903256
1002
}
  0
LINE
  5
136
330
70
100
AcDbEntity
  8
A-ALV-___-___-EXI
 62
    28
370
    15
100
AcDbLine
 10
-77321.48237231657
 20
-6393.862460802913
 30
0.0
 11
-77321.48237231657
 21
-8096.736893480677
 31
0.0
1001
REVIT
1002
{
1070
     1
1000
22920847
1002
}
1002
{
1070
     5
1000
22903253
1002
}
1002
{
1070
     3
1000
22903256
1002
}
  0
LINE
  5
137
330
70
100
AcDbEntity
  8
A-ALV-___-___-EXI
 62
    28
370
    15
100
AcDbLine
 10
-80723.00220096925
 20
-5974.497861710628
 30
0.0
 11
-80723.00220096925
 21
-8096.736893480677
 31
0.0
1001
REVIT
1002
{
1070
     1
1000
22920847
1002
}
1002
{
1070
     5
1000
22903253
1002
}
1002
{
1070
     3
1000
22903256
1002
}
  0
LINE
  5
138
330
70
100
AcDbEntity
  8
A-MOB-___-___-EXI
 62
    28
370
    15
100
AcDbLine
 10
-82900.31403103123
 20
-7228.355652936047
 30
0.0
 11
-82879.13369883252
 21
-7236.82766503892
 31
0.0
1001
REVIT
1002
{
1070
     1
1000
22920847
1002
}
1002
{
1070
     5
1000
22903253
1002
}
1002
{
1070
     3
1000
22903256
1002
}
  0
LINE
  5
139
330
70
100
AcDbEntity
  8
A-MOB-___-___-EXI
 62
    28
370
    15
100
AcDbLine
 10
-82900.31403103123
 20
-7224.119646884607
 30
0.0
 11
-82879.13369883252
 21
-7232.591658987484
 31
0.0
1001
REVIT
1002
{
1070
     1
1000
22920847
1002
}
1002
{
1070
     5
1000
22903253
1002
}
1002
{
1070
     3
1000
22903256
1002
}
  0
LWPOLYLINE
  5
13A
330
70
100
AcDbEntity
  8
A-MOB-___-___-EXI
 62
    28
370
    15
100
AcDbPolyline
 90
        4
 70
   128
 43
0.0
 10
-82896.07775775483
 20
-7211.411628730296
 10
-82874.89794264777
 20
-7228.355652936047
 10
-82883.36997210892
 20
-7245.299677141793
 10
-82908.78606049238
 20
-7245.299677141793
1001
REVIT
1002
{
1070
     1
1000
22920847
1002
}
1002
{
1070
     5
1000
22903253
1002
}
1002
{
1070
     3
1000
22903256
1002
}
  0
LWPOLYLINE
  5
13B
330
70
100
AcDbEntity
  8
A-MOB-___-___-EXI
 62
    28
370
    15
100
AcDbPolyline
 90
        4
 70
   129
 43
0.0
 10
-83171.4189737881
 20
-7249.535683193233
 10
-83175.65472997285
 20
-7249.535683193233
 10
-83175.65472997285
 20
-7160.57955611305
 10
-83171.4189737881
 20
-7160.57955611305
1001
REVIT
1002
{
1070
     1
1000
22920847
1002
}
1002
{
1070
     5
1000
22903253
1002
}
1002
{
1070
     3
1000
22903256
1002
}
  0
LINE
  5
13C
330
70
100
AcDbEntity
  8
A-MOB-___-___-EXI
 62
    28
370
    15
100
AcDbLine
 10
-82913.02181667713
 20
-7253.771689244669
 30
0.0
 11
-82913.02181667713
 21
-7258.007695296107
 31
0.0
1001
REVIT
1002
{
1070
     1
1000
22920847
1002
}
1002
{
1070
     5
1000
22903253
1002
}
1002
{
1070
     3
1000
22903256
1002
}
  0
LINE
  5
13D
330
70
100
AcDbEntity
  8
A-MOB-___-___-EXI
 62
    28
370
    15
100
AcDbLine
 10
-82942.67417833699
 20
-7253.771689244669
 30
0.0
 11
-82942.67417833699
 21
-7258.007695296107
 31
0.0
1001
REVIT
1002
{
1070
     1
1000
22920847
1002
}
1002
{
1070
     5
1000
22903253
1002
}
1002
{
1070
     3
1000
22903256
1002
}
  0
LWPOLYLINE
  5
13E
330
70
100
AcDbEntity
  8
A-MOB-___-___-EXI
 62
    28
370
    15
100
AcDbPolyline
 90
        4
 70
   129
 43
0.0
 10
-82908.78606049238
 20
-7266.479707398978
 10
-82946.90993452174
 20
-7266.479707398978
 10
-82946.90993452174
 20
-7258.007695296107
 10
-82908.78606049238
 20
-7258.007695296107
1001
REVIT
1002
{
1070
     1
1000
22920847
1002
}
1002
{
1070
     5
1000
22903253
1002
}
1002
{
1070
     3
1000
22903256
1002
}
  0
LWPOLYLINE
  5
13F
330
70
100
AcDbEntity
  8
A-MOB-___-___-EXI
 62
    28
370
    15
100
AcDbPolyline
 90
        8
 70
   128
 43
0.0
 10
-82896.07775775483
 20
-7198.703610575987
 10
-82925.73011941469
 20
-7190.231598473115
 10
-83158.71067105057
 20
-7190.231598473115
 10
-83158.71067105057
 20
-7224.119646884607
 10
-82955.3819639829
 20
-7224.119646884607
 10
-82946.90993452174
 20
-7253.771689244669
 10
-82908.78606049238
 20
-7253.771689244669
 10
-82891.84200157007
 20
-7202.939616627424
1001
REVIT
1002
{
1070
     1
1000
22920847
1002
}
1002
{
1070
     5
1000
22903253
1002
}
1002
{
1070
     3
1000
22903256
1002
}
  0
LINE
  5
140
330
70
100
AcDbEntity
  8
A-MOB-___-___-EXI
 62
    28
370
    15
100
AcDbLine
 10
-83158.71067105057
 20
-7207.17562267886
 30
0.0
 11
-82900.31403103123
 21
-7207.17562267886
 31
0.0
1001
REVIT
1002
{
1070
     1
1000
22920847
1002
}
1002
{
1070
     5
1000
22903253
1002
}
1002
{
1070
     3
1000
22903256
1002
}
  0
LINE
  5
141
330
70
100
AcDbEntity
  8
A-MOB-___-___-EXI
 62
    28
370
    15
100
AcDbLine
 10
-82650.38890338141
 20
-7444.391961559344
 30
0.0
 11
-82650.38890338141
 21
-7596.888179411085
 31
0.0
1001
REVIT
1002
{
1070
     1
1000
22920847
1002
}
1002
{
1070
     5
1000
22903253
1002
}
1002
{
1070
     3
1000
22903256
1002
}
  0
LINE
  5
142
330
70
100
AcDbEntity
  8
A-MOB-___-___-EXI
 62
    28
370
    15
100
AcDbLine
 10
-82701.22108014833
 20
-7647.720252028328
 30
0.0
 11
-83048.57428805558
 21
-7647.720252028328
 31
0.0
1001
REVIT
1002
{
1070
     1
1000
22920847
1002
}
1002
{
1070
     5
1000
22903253
1002
}
1002
{
1070
     3
1000
22903256
1002
}
  0
LINE
  5
143
330
70
100
AcDbEntity
  8
A-MOB-___-___-EXI
 62
    28
370
    15
100
AcDbLine
 10
-83099.4064648225
 20
-7596.888179411085
 30
0.0
 11
-83099.4064648225
 21
-7444.391961559344
 31
0.0
1001
REVIT
1002
{
1070
     1
1000
22920847
1002
}
1002
{
1070
     5
1000
22903253
1002
}
1002
{
1070
     3
1000
22903256
1002
}
  0
LWPOLYLINE
  5
144
330
70
100
AcDbEntity
  8
A-MOB-___-___-EXI
 62
    28
370
    15
100
AcDbPolyline
 90
        4
 70
   128
 43
0.0
 10
-83175.65472997285
 20
-7444.391961559344
 10
-82574.14063823103
 20
-7444.391961559344
 10
-82574.14063823103
 20
-7397.795894993534
 10
-83175.65472997285
 20
-7397.795894993534
1001
REVIT
1002
{
1070
     1
1000
22920847
1002
}
1002
{
1070
     5
1000
22903253
1002
}
1002
{
1070
     3
1000
22903256
1002
}
  0
LWPOLYLINE
  5
145
330
70
100
AcDbEntity
  8
A-COB-___-___-EXI
 62
    28
370
    15
100
AcDbPolyline
 90
        7
 70
   128
 43
0.0
 10
-80964.45504061209
 20
-5745.753534933021
 10
-80566.26965593792
 20
-5838.945668064639
 10
-80591.6857443214
 20
-5932.137801196258
 10
-83323.91511627012
 20
-5114.588633268875
 10
-83323.91511627012
 20
-5190.836742194744
 10
-80663.69799474118
 20
-5991.441885916378
 10
-80642.5179210883
 20
-5919.429783041949
1001
REVIT
1002
{
1070
     1
1000
22920847
1002
}
1002
{
1070
     5
1000
22903253
1002
}
1002
{
1070
     3
1000
22903256
1002
}
  0
LWPOLYLINE
  5
146
330
70
100
AcDbEntity
  8
A-COB-___-___-EXI
 62
    28
370
    15
100
AcDbPolyline
 90
        3
 70
   128
 43
0.0
 10
-81375.3487280238
 20
-5694.921462315775
 10
-81345.69636636395
 20
-5601.729329184156
 10
-81743.8817510381
 20
-5512.773202103974
1001
REVIT
1002
{
1070
     1
1000
22920847
1002
}
1002
{
1070
     5
1000
22903253
1002
}
1002
{
1070
     3
1000
22903256
1002
}
  0
LWPOLYLINE
  5
147
330
70
100
AcDbEntity
  8
A-COB-___-___-EXI
 62
    28
370
    15
100
AcDbPolyline
 90
        3
 70
   128
 43
0.0
 10
-81765.06208323681
 20
-5580.549298926969
 10
-81735.40972157695
 20
-5483.121159743914
 10
-82133.59510625112
 20
-5394.165032663732
1001
REVIT
1002
{
1070
     1
1000
22920847
1002
}
1002
{
1070
     5
1000
22903253
1002
}
1002
{
1070
     3
1000
22903256
1002
}
  0
LWPOLYLINE
  5
148
330
70
100
AcDbEntity
  8
A-COB-___-___-EXI
 62
    28
370
    15
100
AcDbPolyline
 90
        3
 70
   128
 43
0.0
 10
-80985.63511426497
 20
-5817.765637807454
 10
-80955.98301115094
 20
-5720.337498624398
 10
-81354.16839582511
 20
-5627.145365492779
1001
REVIT
1002
{
1070
     1
1000
22920847
1002
}
1002
{
1070
     5
1000
22903253
1002
}
1002
{
1070
     3
1000
22903256
1002
}
  0
LWPOLYLINE
  5
149
330
70
100
AcDbEntity
  8
A-COB-___-___-EXI
 62
    28
370
    15
100
AcDbPolyline
 90
        3
 70
   128
 43
0.0
 10
-82548.72454984758
 20
-5343.332960046486
 10
-82519.07270527937
 20
-5250.14082691487
 10
-82917.25808995353
 20
-5161.184699834684
1001
REVIT
1002
{
1070
     1
1000
22920847
1002
}
1002
{
1070
     5
1000
22903253
1002
}
1002
{
1070
     3
1000
22903256
1002
}
  0
LWPOLYLINE
  5
14A
330
70
100
AcDbEntity
  8
A-COB-___-___-EXI
 62
    28
370
    15
100
AcDbPolyline
 90
        3
 70
   128
 43
0.0
 10
-82159.01119463458
 20
-5466.177135538164
 10
-82129.35935006637
 20
-5368.748996355108
 10
-82527.54473474052
 20
-5275.556863223489
1001
REVIT
1002
{
1070
     1
1000
22920847
1002
}
1002
{
1070
     5
1000
22903253
1002
}
1002
{
1070
     3
1000
22903256
1002
}
  0
LWPOLYLINE
  5
14B
330
70
100
AcDbEntity
  8
A-COB-___-___-EXI
 62
    28
370
    15
100
AcDbPolyline
 90
        4
 70
   128
 43
0.0
 10
-82942.67417833699
 20
-5233.196802709117
 10
-82913.02181667713
 20
-5135.768663526062
 10
-83323.91511627012
 20
-5042.576530394443
 10
-83323.91511627012
 20
-5114.588633268875
1001
REVIT
1002
{
1070
     1
1000
22920847
1002
}
1002
{
1070
     5
1000
22903253
1002
}
1002
{
1070
     3
1000
22903256
1002
}
  0
LINE
  5
14C
330
70
100
AcDbEntity
  8
A-COB-___-___-EXI
 62
    28
370
    15
100
AcDbLine
 10
-69268.81785239961
 20
-4517.311780016228
 30
0.0
 11
-69268.81785239961
 21
-5343.332960046486
 31
0.0
1001
REVIT
1002
{
1070
     1
1000
22920847
1002
}
1002
{
1070
     5
1000
22903253
1002
}
1002
{
1070
     3
1000
22903256
1002
}
  0
LINE
  5
14D
330
70
100
AcDbEntity
  8
A-ALV-___-___-EXI
 62
    28
370
    15
100
AcDbLine
 10
-69268.81785239961
 20
-5495.829177898228
 30
0.0
 11
-69268.81785239961
 21
-7952.712687731811
 31
0.0
1001
REVIT
1002
{
1070
     1
1000
22920847
1002
}
1002
{
1070
     5
1000
22903253
1002
}
1002
{
1070
     3
1000
22903256
1002
}
  0
LINE
  5
14E
330
70
100
AcDbEntity
  8
A-COB-___-___-EXI
 62
    28
370
    15
100
AcDbLine
 10
-69120.55837101274
 20
-4517.311780016228
 30
0.0
 11
-69120.55837101274
 21
-5343.332960046486
 31
0.0
1001
REVIT
1002
{
1070
     1
1000
22920847
1002
}
1002
{
1070
     5
1000
22903253
1002
}
1002
{
1070
     3
1000
22903256
1002
}
  0
LINE
  5
14F
330
70
100
AcDbEntity
  8
A-ALV-___-___-EXI
 62
    28
370
    15
100
AcDbLine
 10
-69120.55837101274
 20
-5495.829177898228
 30
0.0
 11
-69120.55837101274
 21
-7952.712687731811
 31
0.0
1001
REVIT
1002
{
1070
     1
1000
22920847
1002
}
1002
{
1070
     5
1000
22903253
1002
}
1002
{
1070
     3
1000
22903256
1002
}
  0
LINE
  5
150
330
70
100
AcDbEntity
  8
A-ALV-___-___-EXI
 62
    28
370
    15
100
AcDbLine
 10
-83323.91511627012
 20
-6796.283035689448
 30
0.0
 11
-83323.91511627012
 21
-8096.736893480677
 31
0.0
1001
REVIT
1002
{
1070
     1
1000
22920847
1002
}
1002
{
1070
     5
1000
22903253
1002
}
1002
{
1070
     3
1000
22903256
1002
}
  0
LINE
  5
151
330
70
100
AcDbEntity
  8
A-ALV-___-___-EXI
 62
    28
370
    15
100
AcDbLine
 10
-72017.99244672685
 20
-5495.829177898228
 30
0.0
 11
-66371.38274250223
 21
-5495.829177898228
 31
0.0
1001
REVIT
1002
{
1070
     1
1000
22920847
1002
}
1002
{
1070
     5
1000
22903253
1002
}
1002
{
1070
     3
1000
22903256
1002
}
  0
LINE
  5
152
330
70
100
AcDbEntity
  8
A-ALV-___-___-EXI
 62
    28
370
    15
100
AcDbLine
 10
-72017.99244672685
 20
-5343.332960046486
 30
0.0
 11
-72017.99244672685
 21
-8024.724790606244
 31
0.0
1001
REVIT
1002
{
1070
     1
1000
22920847
1002
}
1002
{
1070
     5
1000
22903253
1002
}
1002
{
1070
     3
1000
22903256
1002
}
  0
LINE
  5
153
330
70
100
AcDbEntity
  8
A-COB-___-___-EXI
 62
    28
370
    15
100
AcDbLine
 10
-70421.01385911634
 20
-5343.332960046486
 30
0.0
 11
-70607.39850726169
 21
-4919.732354902764
 31
0.0
1001
REVIT
1002
{
1070
     1
1000
22920847
1002
}
1002
{
1070
     5
1000
22903253
1002
}
1002
{
1070
     3
1000
22903256
1002
}
  0
LINE
  5
154
330
70
100
AcDbEntity
  8
A-COB-___-___-EXI
 62
    28
370
    15
100
AcDbLine
 10
-70255.81031880715
 20
-5343.332960046486
 30
0.0
 11
-70459.13902587481
 21
-4877.372294388391
 31
0.0
1001
REVIT
1002
{
1070
     1
1000
22920847
1002
}
1002
{
1070
     5
1000
22903253
1002
}
1002
{
1070
     3
1000
22903256
1002
}
  0
LINE
  5
155
330
70
100
AcDbEntity
  8
A-COB-___-___-EXI
 62
    28
370
    15
100
AcDbLine
 10
-67968.36029592945
 20
-5343.332960046486
 30
0.0
 11
-67781.9756477841
 21
-4919.732354902764
 31
0.0
1001
REVIT
1002
{
1070
     1
1000
22920847
1002
}
1002
{
1070
     5
1000
22903253
1002
}
1002
{
1070
     3
1000
22903256
1002
}
  0
LINE
  5
156
330
70
100
AcDbEntity
  8
A-COB-___-___-EXI
 62
    28
370
    15
100
AcDbLine
 10
-68129.33092405791
 20
-5343.332960046486
 30
0.0
 11
-67930.23616335426
 21
-4877.372294388391
 31
0.0
1001
REVIT
1002
{
1070
     1
1000
22920847
1002
}
1002
{
1070
     5
1000
22903253
1002
}
1002
{
1070
     3
1000
22903256
1002
}
  0
LINE
  5
157
330
70
100
AcDbEntity
  8
A-ALV-___-___-EXI
 62
    28
370
    15
100
AcDbLine
 10
-70116.02079851484
 20
-7952.712687731811
 30
0.0
 11
-70116.02079851484
 21
-7999.308754297621
 31
0.0
1001
REVIT
1002
{
1070
     1
1000
22920847
1002
}
1002
{
1070
     5
1000
22903253
1002
}
1002
{
1070
     3
1000
22903256
1002
}
  0
LWPOLYLINE
  5
158
330
70
100
AcDbEntity
  8
A-COB-___-___-EXI
 62
    28
370
    15
100
AcDbPolyline
 90
        4
 70
   128
 43
0.0
 10
-74758.69294322635
 20
-5830.473655961767
 10
-77571.40724142058
 20
-6364.210418442854
 10
-77575.64325615114
 20
-6338.794382134234
 10
-74767.1649726875
 20
-5800.821613601704
1001
REVIT
1002
{
1070
     1
1000
22920847
1002
}
1002
{
1070
     5
1000
22903253
1002
}
1002
{
1070
     3
1000
22903256
1002
}
  0
LWPOLYLINE
  5
159
330
70
100
AcDbEntity
  8
A-COB-___-___-EXI
 62
    28
370
    15
100
AcDbPolyline
 90
        3
 70
   128
 43
0.0
 10
-74745.98593321791
 20
-5898.249752784763
 10
-77457.03484369501
 20
-6419.278497111536
 10
-77473.97890261733
 20
-6347.266394237108
1001
REVIT
1002
{
1070
     1
1000
22920847
1002
}
1002
{
1070
     5
1000
22903253
1002
}
1002
{
1070
     3
1000
22903256
1002
}
  0
LWPOLYLINE
  5
15A
330
70
100
AcDbEntity
  8
A-COB-___-___-EXI
 62
    28
370
    15
100
AcDbPolyline
 90
        3
 70
   128
 43
0.0
 10
-71014.05592139699
 20
-4962.092415417137
 10
-71047.94403924161
 20
-4847.720252028335
 10
-70581.98241887824
 20
-4741.820100742403
1001
REVIT
1002
{
1070
     1
1000
22920847
1002
}
1002
{
1070
     5
1000
22903253
1002
}
1002
{
1070
     3
1000
22903256
1002
}
  0
LWPOLYLINE
  5
15B
330
70
100
AcDbEntity
  8
A-COB-___-___-EXI
 62
    28
370
    15
100
AcDbPolyline
 90
        3
 70
   128
 43
0.0
 10
-71475.78256121308
 20
-5101.880615114565
 10
-71509.6706790577
 20
-4987.50845172576
 10
-71039.47200978047
 20
-4881.608300439828
1001
REVIT
1002
{
1070
     1
1000
22920847
1002
}
1002
{
1070
     5
1000
22903253
1002
}
1002
{
1070
     3
1000
22903256
1002
}
  0
LWPOLYLINE
  5
15C
330
70
100
AcDbEntity
  8
A-COB-___-___-EXI
 62
    28
370
    15
100
AcDbPolyline
 90
        3
 70
   128
 43
0.0
 10
-71933.27215211532
 20
-5237.432808760558
 10
-71971.39525050722
 20
-5123.060645371752
 10
-71501.19864959656
 20
-5017.160494085823
1001
REVIT
1002
{
1070
     1
1000
22920847
1002
}
1002
{
1070
     5
1000
22903253
1002
}
1002
{
1070
     3
1000
22903256
1002
}
  0
LWPOLYLINE
  5
15D
330
70
100
AcDbEntity
  8
A-COB-___-___-EXI
 62
    28
370
    15
100
AcDbPolyline
 90
        3
 70
   128
 43
0.0
 10
-72399.23377247869
 20
-5343.332960046486
 10
-72433.12189032331
 20
-5228.960796657684
 10
-71958.68824049877
 20
-5156.948693783248
1001
REVIT
1002
{
1070
     1
1000
22920847
1002
}
1002
{
1070
     5
1000
22903253
1002
}
1002
{
1070
     3
1000
22903256
1002
}
  0
LWPOLYLINE
  5
15E
330
70
100
AcDbEntity
  8
A-COB-___-___-EXI
 62
    28
370
    15
100
AcDbPolyline
 90
        3
 70
   128
 43
0.0
 10
-72877.90240285052
 20
-5440.761099229542
 10
-72903.31849123398
 20
-5326.388935840736
 10
-72424.64986086215
 20
-5258.612839017743
1001
REVIT
1002
{
1070
     1
1000
22920847
1002
}
1002
{
1070
     5
1000
22903253
1002
}
1002
{
1070
     3
1000
22903256
1002
}
  0
LWPOLYLINE
  5
15F
330
70
100
AcDbEntity
  8
A-COB-___-___-EXI
 62
    28
370
    15
100
AcDbPolyline
 90
        3
 70
   128
 43
0.0
 10
-73348.10107212775
 20
-5538.189238412597
 10
-73373.51716051123
 20
-5419.581068972355
 10
-72894.84646177283
 20
-5356.040978200799
1001
REVIT
1002
{
1070
     1
1000
22920847
1002
}
1002
{
1070
     5
1000
22903253
1002
}
1002
{
1070
     3
1000
22903256
1002
}
  0
LWPOLYLINE
  5
160
330
70
100
AcDbEntity
  8
A-COB-___-___-EXI
 62
    28
370
    15
100
AcDbPolyline
 90
        3
 70
   128
 43
0.0
 10
-73818.29767303844
 20
-5635.617377595652
 10
-73843.7137614219
 20
-5517.00920815541
 10
-73365.04513105007
 20
-5453.469117383854
1001
REVIT
1002
{
1070
     1
1000
22920847
1002
}
1002
{
1070
     5
1000
22903253
1002
}
1002
{
1070
     3
1000
22903256
1002
}
  0
LWPOLYLINE
  5
161
330
70
100
AcDbEntity
  8
A-COB-___-___-EXI
 62
    28
370
    15
100
AcDbPolyline
 90
        3
 70
   128
 43
0.0
 10
-74288.49634231567
 20
-5728.809510727271
 10
-74313.91243069913
 20
-5614.437347338466
 10
-73839.4787808746
 20
-5546.661250515469
1001
REVIT
1002
{
1070
     1
1000
22920847
1002
}
1002
{
1070
     5
1000
22903253
1002
}
1002
{
1070
     3
1000
22903256
1002
}
  0
LWPOLYLINE
  5
162
330
70
100
AcDbEntity
  8
A-COB-___-___-EXI
 62
    28
370
    15
100
AcDbPolyline
 90
        3
 70
   128
 43
0.0
 10
-68756.26110418318
 20
-4551.199828427729
 10
-68722.37298633857
 20
-4436.827665038923
 10
-69192.56958724925
 20
-4326.691507701554
1001
REVIT
1002
{
1070
     1
1000
22920847
1002
}
1002
{
1070
     5
1000
22903253
1002
}
1002
{
1070
     3
1000
22903256
1002
}
  0
LWPOLYLINE
  5
163
330
70
100
AcDbEntity
  8
A-COB-___-___-EXI
 62
    28
370
    15
100
AcDbPolyline
 90
        3
 70
   128
 43
0.0
 10
-68294.53446436709
 20
-4686.752022073717
 10
-68260.64634652248
 20
-4572.379858684915
 10
-68726.60796688587
 20
-4466.479707398983
1001
REVIT
1002
{
1070
     1
1000
22920847
1002
}
1002
{
1070
     5
1000
22903253
1002
}
1002
{
1070
     3
1000
22903256
1002
}
  0
LWPOLYLINE
  5
164
330
70
100
AcDbEntity
  8
A-COB-___-___-EXI
 62
    28
370
    15
100
AcDbPolyline
 90
        3
 70
   128
 43
0.0
 10
-67837.04383928158
 20
-4826.540221771149
 10
-67798.91970670639
 20
-4712.168058382339
 10
-68269.11837598364
 20
-4606.267907096412
1001
REVIT
1002
{
1070
     1
1000
22920847
1002
}
1002
{
1070
     5
1000
22903253
1002
}
1002
{
1070
     3
1000
22903256
1002
}
  0
LWPOLYLINE
  5
165
330
70
100
AcDbEntity
  8
A-COB-___-___-EXI
 62
    28
370
    15
100
AcDbPolyline
 90
        3
 70
   128
 43
0.0
 10
-67375.31823364878
 20
-4962.092415417137
 10
-67341.43011580417
 20
-4847.720252028335
 10
-67807.39173616756
 20
-4741.820100742403
1001
REVIT
1002
{
1070
     1
1000
22920847
1002
}
1002
{
1070
     5
1000
22903253
1002
}
1002
{
1070
     3
1000
22903256
1002
}
  0
LWPOLYLINE
  5
166
330
70
100
AcDbEntity
  8
A-COB-___-___-EXI
 62
    28
370
    15
100
AcDbPolyline
 90
        3
 70
   128
 43
0.0
 10
-66913.59262801597
 20
-5101.880615114565
 10
-66879.70451017137
 20
-4987.50845172576
 10
-67349.90214526533
 20
-4881.608300439828
1001
REVIT
1002
{
1070
     1
1000
22920847
1002
}
1002
{
1070
     5
1000
22903253
1002
}
1002
{
1070
     3
1000
22903256
1002
}
  0
LWPOLYLINE
  5
167
330
70
100
AcDbEntity
  8
A-COB-___-___-EXI
 62
    28
370
    15
100
AcDbPolyline
 90
        3
 70
   128
 43
0.0
 10
-66456.10303711374
 20
-5237.432808760558
 10
-66417.97890453855
 20
-5123.060645371752
 10
-66888.17653963252
 20
-5017.160494085823
1001
REVIT
1002
{
1070
     1
1000
22920847
1002
}
1002
{
1070
     5
1000
22903253
1002
}
1002
{
1070
     3
1000
22903256
1002
}
  0
VIEWPORT
  5
DA
330
6C
100
AcDbEntity
 67
     1
  8
A-JAN-___-___-EXI
100
AcDbViewport
 10
165.6593644431896
 20
208.4899158553409
 30
0.0
 40
205.6600924454615
 41
57.00853054600102
 68
     2
 69
     2
 12
-74809.00883779354
 22
-6379.100350016617
 13
0.0
 23
0.0
 14
0.0
 24
0.0
 15
0.0
 25
0.0
 16
0.0
 26
0.0
 36
1.0
 17
0.0
 27
0.0
 37
0.0
 42
0.0
 43
0.0
 44
0.0
 45
5700.853054600102
 50
0.0
 51
0.0
 72
  1000
 90
    32768
  1

281
     0
 71
     1
 74
     1
110
0.0
120
0.0
130
0.0
111
1.0
121
0.0
131
0.0
112
0.0
122
1.0
132
0.0
 79
     0
146
0.0
170
     0
 61
     5
292
     1
282
     1
141
0.0
142
0.0
 63
   250
421
  3355443
  0
VIEWPORT
  5
DC
330
6C
100
AcDbEntity
 67
     1
  8
0
100
AcDbViewport
 10
18.7258212041736
 20
6.518460682297714
 30
0.0
 40
50.18819718823261
 41
19.82776100878234
 68
     1
 69
     1
 12
18.7258212041736
 22
6.518460682297714
 13
0.0
 23
0.0
 14
0.0
 24
0.0
 15
0.0
 25
0.0
 16
0.0
 26
0.0
 36
1.0
 17
0.0
 27
0.0
 37
0.0
 42
50.0
 43
0.0
 44
0.0
 45
19.82776100878234
 50
0.0
 51
0.0
 72
   100
 90
    32800
  1

281
     0
 71
     1
 74
     1
110
0.0
120
0.0
130
0.0
111
1.0
121
0.0
131
0.0
112
0.0
122
1.0
132
0.0
 79
     0
146
0.0
170
     0
 61
     5
348
2F
292
     1
282
     1
141
0.0
142
0.0
 63
   250
421
  3355443
  0
INSERT
  5
E8
330
6C
100
AcDbEntity
 67
     1
  8
A-POR-___-___-EXI
100
AcDbBlockReference
  2
A4 HORIZONTAL - A4-22933234-Não nomeada
 10
0.0
 20
0.0
 30
0.0
1001
REVIT
1002
{
1070
     1
1000
22925294
1002
}
1002
{
1070
     5
1000
22933234
1002
}
1002
{
1070
     2
1000
-2000280
1002
}
  0
ENDSEC
  0
SECTION
  2
OBJECTS
  0
DICTIONARY
  5
C
330
0
100
AcDbDictionary
281
     1
  3
ACAD_CIP_PREVIOUS_PRODUCT_INFO
350
79
  3
ACAD_COLOR
350
63
  3
ACAD_DETAILVIEWSTYLE
350
6A
  3
ACAD_GROUP
350
D
  3
ACAD_IMAGE_VARS
350
7A
  3
ACAD_LAYOUT
350
62
  3
ACAD_MATERIAL
350
10
  3
ACAD_MLEADERSTYLE
350
66
  3
ACAD_MLINESTYLE
350
5F
  3
ACAD_PLOTSETTINGS
350
61
  3
ACAD_PLOTSTYLENAME
350
E
  3
ACAD_RENDER_ACTIVE_RAPIDRT_SETTINGS
350
108
  3
ACAD_RENDER_RAPIDRT_SETTINGS
350
101
  3
ACAD_SCALELIST
350
42
  3
ACAD_SECTIONVIEWSTYLE
350
68
  3
ACAD_TABLESTYLE
350
64
  3
ACAD_VISUALSTYLE
350
29
  3
ACDB_RECOMPOSE_DATA
350
178
  3
AcDbVariableDictionary
350
F1
  3
REVIT_DICTIONARY
350
E9
  0
SUN
  5
F0
330
57
100
AcDbSun
 90
        1
290
     1
 63
     7
421
 16777215
 40
0.3
291
     1
 91
  2460364
 92
 57304000
292
     0
 70
     1
 71
   128
280
     1
  0
DICTIONARY
  5
10D
330
2
100
AcDbDictionary
280
     1
281
     1
  3
ACAD_LAYERSTATES
360
10E
  0
DICTIONARY
  5
EE
330
70
100
AcDbDictionary
280
     1
281
     1
  3
ACAD_SORTENTS
360
EF
  0
XRECORD
  5
79
102
{ACAD_REACTORS
330
C
102
}
330
C
100
AcDbXrecord
280
     1
300
ACD
300
2022
300

  0
DICTIONARY
  5
63
102
{ACAD_REACTORS
330
C
102
}
330
C
100
AcDbDictionary
281
     1
  0
DICTIONARY
  5
6A
102
{ACAD_REACTORS
330
C
102
}
330
C
100
AcDbDictionary
281
     1
  3
Imperial24
350
6B
  3
Metric50
350
F9
  0
DICTIONARY
  5
D
102
{ACAD_REACTORS
330
C
102
}
330
C
100
AcDbDictionary
281
     1
  0
RASTERVARIABLES
  5
7A
102
{ACAD_REACTORS
330
C
102
}
330
C
100
AcDbRasterVariables
 90
        0
 70
     0
 71
     1
 72
     1
  0
DICTIONARY
  5
62
102
{ACAD_REACTORS
330
C
102
}
330
C
100
AcDbDictionary
281
     1
  3
Layout1
350
6F
  3
Model
350
73
  0
DICTIONARY
  5
10
102
{ACAD_REACTORS
330
C
102
}
330
C
100
AcDbDictionary
281
     1
  3
ByBlock
350
19
  3
ByLayer
350
11
  3
Global
350
21
  0
DICTIONARY
  5
66
102
{ACAD_REACTORS
330
C
102
}
330
C
100
AcDbDictionary
281
     1
  3
Standard
350
67
  0
DICTIONARY
  5
5F
102
{ACAD_REACTORS
330
C
102
}
330
C
100
AcDbDictionary
281
     1
  3
Standard
350
60
  0
DICTIONARY
  5
61
102
{ACAD_REACTORS
330
C
102
}
330
C
100
AcDbDictionary
281
     1
  0
ACDBDICTIONARYWDFLT
  5
E
102
{ACAD_REACTORS
330
C
102
}
330
C
100
AcDbDictionary
281
     1
  3
Normal
350
F
100
AcDbDictionaryWithDefault
340
F
  0
RAPIDRTRENDERSETTINGS
  5
108
102
{ACAD_REACTORS
330
C
102
}
330
C
100
AcDbRenderSettings
 90
        2
  1
Médio
290
     1
290
     0
290
     1
290
     1
  1

  1
Aplica 5 níveis de renderização
 90
        0
100
AcDbRapidRTRenderSettings
 90
        3
 70
     0
 90
        5
 90
        1
 70
     1
 70
     2
 40
3.0
 40
3.0
290
     1
  0
DICTIONARY
  5
101
102
{ACAD_REACTORS
330
C
102
}
330
C
100
AcDbDictionary
281
     1
  3
Alto
350
104
  3
Baixo
350
102
  3
Médio
350
103
  3
Qualidade de curta duração
350
105
  3
Qualidade de longa duração
350
107
  3
Qualidade de média duração
350
106
  0
DICTIONARY
  5
42
102
{ACAD_REACTORS
330
C
102
}
330
C
100
AcDbDictionary
281
     1
  3
A0
350
43
  3
A1
350
44
  3
A2
350
45
  3
A3
350
46
  3
A4
350
47
  3
A5
350
48
  3
A6
350
49
  3
A7
350
4A
  3
A8
350
4B
  3
A9
350
4C
  3
B0
350
4D
  3
B1
350
4E
  3
B2
350
4F
  3
B3
350
50
  3
B4
350
51
  3
B5
350
52
  3
B6
350
53
  0
DICTIONARY
  5
68
102
{ACAD_REACTORS
330
C
102
}
330
C
100
AcDbDictionary
281
     1
  3
Imperial24
350
69
  3
Metric50
350
F8
  0
DICTIONARY
  5
64
102
{ACAD_REACTORS
330
C
102
}
330
C
100
AcDbDictionary
281
     1
  3
Standard
350
65
  0
DICTIONARY
  5
29
102
{ACAD_REACTORS
330
C
102
}
330
C
100
AcDbDictionary
281
     1
  3
2dWireframe
350
2F
  3
Basic
350
2E
  3
Brighten
350
35
  3
ColorChange
350
39
  3
Conceptual
350
32
  3
Dim
350
34
  3
EdgeColorOff
350
41
  3
Facepattern
350
38
  3
Flat
350
2A
  3
FlatWithEdges
350
2B
  3
Gouraud
350
2C
  3
GouraudWithEdges
350
2D
  3
Hidden
350
31
  3
JitterOff
350
3F
  3
Linepattern
350
37
  3
OverhangOff
350
40
  3
Realistic
350
33
  3
Shaded
350
3E
  3
Shaded with edges
350
3D
  3
Shades of Gray
350
3A
  3
Sketchy
350
3B
  3
Thicken
350
36
  3
Wireframe
350
30
  3
X-Ray
350
3C
  0
XRECORD
  5
178
102
{ACAD_REACTORS
330
C
102
}
330
C
100
AcDbXrecord
280
     1
 90
        1
330
65
  0
DICTIONARY
  5
F1
102
{ACAD_REACTORS
330
C
102
}
330
C
100
AcDbDictionary
281
     1
  3
CANNOSCALE
350
F6
  3
CMLEADERSTYLE
350
F3
  3
CTABLESTYLE
350
F2
  3
CVIEWDETAILSTYLE
350
F4
  3
CVIEWSECTIONSTYLE
350
F5
  0
DICTIONARY
  5
E9
102
{ACAD_REACTORS
330
C
102
}
330
C
100
AcDbDictionary
281
     1
  3
DRAWING_TOOL
350
ED
  3
REVIT_CATEGORY_MAPPING
350
EB
  3
REVIT_SUB_CATEGORY_MAPPING
350
EC
  3
REVIT_TYPE_MAPPING
350
EA
  0
DICTIONARY
  5
10E
102
{ACAD_REACTORS
330
10D
102
}
330
10D
100
AcDbDictionary
281
     1
  0
SORTENTSTABLE
  5
EF
102
{ACAD_REACTORS
330
EE
102
}
330
EE
100
AcDbSortentsTable
330
70
331
112
  5
167
331
122
  5
112
331
123
  5
122
331
124
  5
123
331
125
  5
124
331
126
  5
125
331
127
  5
126
331
128
  5
127
331
129
  5
128
331
12A
  5
129
331
12B
  5
12A
331
12C
  5
12B
331
12D
  5
12C
331
12E
  5
12D
331
12F
  5
12E
331
130
  5
12F
331
131
  5
130
331
132
  5
131
331
133
  5
132
331
134
  5
133
331
135
  5
134
331
136
  5
135
331
137
  5
136
331
138
  5
137
331
139
  5
138
331
13A
  5
139
331
13B
  5
13A
331
13C
  5
13B
331
13D
  5
13C
331
13E
  5
13D
331
13F
  5
13E
331
140
  5
13F
331
141
  5
140
331
142
  5
141
331
143
  5
142
331
144
  5
143
331
145
  5
144
331
146
  5
145
331
147
  5
146
331
148
  5
147
331
149
  5
148
331
14A
  5
149
331
14B
  5
14A
331
14C
  5
14B
331
14D
  5
14C
331
14E
  5
14D
331
14F
  5
14E
331
150
  5
14F
331
151
  5
150
331
152
  5
151
331
153
  5
152
331
154
  5
153
331
155
  5
154
331
156
  5
155
331
157
  5
156
331
158
  5
157
331
159
  5
158
331
15A
  5
159
331
15B
  5
15A
331
15C
  5
15B
331
15D
  5
15C
331
15E
  5
15D
331
15F
  5
15E
331
160
  5
15F
331
161
  5
160
331
162
  5
161
331
163
  5
162
331
164
  5
163
331
165
  5
164
331
166
  5
165
331
167
  5
166
  0
ACDBDETAILVIEWSTYLE
  5
6B
102
{ACAD_REACTORS
330
6A
102
}
330
6A
100
AcDbModelDocViewStyle
 70
     0
  3
Imperial24
290
     1
300
Imperial24
 90
        0
100
AcDbDetailViewStyle
 70
     0
 71
     0
 90
        3
 71
     1
340
55
 62
   256
 40
0.24
340
0
 62
   256
 40
0.24
300

 40
0.36
280
     3
 71
     2
340
5D
 90
       25
 62
   256
 71
     3
340
55
 62
   256
 40
0.24
 90
        1
 40
0.75
 90
        1
300
%<\AcVar ViewType \f "%tc1">% %<\AcVar ViewDetailId>%\PSCALE %<\AcVar ViewScale \f "%sn">%
 71
     4
340
5D
 90
       25
 62
   256
340
5D
 90
       25
 62
   256
280
     0
  0
ACDBDETAILVIEWSTYLE
  5
F9
102
{ACAD_REACTORS
330
6A
102
}
330
6A
100
AcDbModelDocViewStyle
 70
     0
  3
Metric50
290
     1
300
Metric50
 90
        0
100
AcDbDetailViewStyle
 70
     0
 71
     0
 90
        3
 71
     1
340
55
 62
   256
 40
5.0
340
0
 62
   256
 40
5.0
300

 40
0.0
280
     1
 71
     2
340
5D
 90
       25
 62
   256
 71
     3
340
55
 62
   256
 40
5.0
 90
        0
 40
15.0
 90
        1
300
%<\AcVar ViewDetailId>% (%<\AcVar ViewScale \f "%sn">%)
 71
     4
340
5D
 90
       25
 62
   256
340
5D
 90
       25
 62
   256
280
     0
  0
LAYOUT
  5
6F
102
{ACAD_REACTORS
330
62
102
}
330
62
100
AcDbPlotSettings
  1

  2
PDF24
  4
A4
  6

 40
0.0
 41
0.0
 42
0.1113433837890625
 43
0.0
 44
210.0
 45
297.0
 46
0.0
 47
0.0
 48
0.0
 49
0.0
140
0.0
141
0.0
142
1.0
143
1.000647896891756
 70
   688
 72
     1
 73
     1
 74
     1
  7

 75
     0
147
0.9993525226068337
 76
     0
 77
     2
 78
   300
148
-20.76884200533789
149
-102.9849099062627
100
AcDbLayout
  1
Layout1
 70
     0
 71
     1
 10
20.76884200533789
 20
102.9849099062627
 11
317.9612673821897
 21
313.1209682535316
 12
0.0
 22
0.0
 32
0.0
 14
20.76884200533789
 24
102.9849099062627
 34
-0.0015258207003583
 15
317.8025497169167
 25
313.0095527307103
 35
0.0000000349246037
146
0.0
 13
0.0
 23
0.0
 33
0.0
 16
1.0
 26
0.0
 36
0.0
 17
0.0
 27
1.0
 37
0.0
 76
     0
330
6C
331
DC
1001
ACAD_PSEXT
1000
PDF24
1000
PDF24
1000
\\.\pipe\PDFPrint
1000
PDF24 Printer
1070
     0
  0
LAYOUT
  5
73
102
{ACAD_REACTORS
330
62
102
}
330
62
100
AcDbPlotSettings
  1

  2

  4

  6

 40
0.0
 41
0.0
 42
0.0
 43
0.0
 44
0.0
 45
0.0
 46
0.0
 47
0.0
 48
0.0
 49
0.0
140
0.0
141
0.0
142
1.0
143
1.0
 70
  1712
 72
     0
 73
     0
 74
     0
  7

 75
     0
147
1.0
 76
     0
 77
     2
 78
   300
148
0.0
149
0.0
100
AcDbLayout
  1
Model
 70
     1
 71
     0
 10
0.0
 20
0.0
 11
12.0
 21
9.0
 12
0.0
 22
0.0
 32
0.0
 14
0.0
 24
0.0
 34
0.0
 15
0.0
 25
0.0
 35
0.0
146
0.0
 13
0.0
 23
0.0
 33
0.0
 16
1.0
 26
0.0
 36
0.0
 17
0.0
 27
1.0
 37
0.0
 76
     0
330
70
331
57
  0
MATERIAL
  5
19
102
{ACAD_XDICTIONARY
360
1A
102
}
102
{ACAD_REACTORS
330
10
102
}
330
10
100
AcDbMaterial
  1
ByBlock
 72
     0
 43
0.0208333333333333
 43
0.0
 43
0.0
 43
0.0
 43
0.0
 43
0.0208333333333333
 43
0.0
 43
0.0
 43
0.0
 43
0.0
 43
1.0
 43
0.0
 43
0.0
 43
0.0
 43
0.0
 43
1.0
 77
     0
 47
0.0208333333333333
 47
0.0
 47
0.0
 47
0.0
 47
0.0
 47
0.0208333333333333
 47
0.0
 47
0.0
 47
0.0
 47
0.0
 47
1.0
 47
0.0
 47
0.0
 47
0.0
 47
0.0
 47
1.0
171
     0
 49
0.0208333333333333
 49
0.0
 49
0.0
 49
0.0
 49
0.0
 49
0.0208333333333333
 49
0.0
 49
0.0
 49
0.0
 49
0.0
 49
1.0
 49
0.0
 49
0.0
 49
0.0
 49
0.0
 49
1.0
175
     0
142
0.0208333333333333
142
0.0
142
0.0
142
0.0
142
0.0
142
0.0208333333333333
142
0.0
142
0.0
142
0.0
142
0.0
142
1.0
142
0.0
142
0.0
142
0.0
142
0.0
142
1.0
179
     0
144
0.0208333333333333
144
0.0
144
0.0
144
0.0
144
0.0
144
0.0208333333333333
144
0.0
144
0.0
144
0.0
144
0.0
144
1.0
144
0.0
144
0.0
144
0.0
144
0.0
144
1.0
147
0.0208333333333333
147
0.0
147
0.0
147
0.0
147
0.0
147
0.0208333333333333
147
0.0
147
0.0
147
0.0
147
0.0
147
1.0
147
0.0
147
0.0
147
0.0
147
0.0
147
1.0
  0
MATERIAL
  5
11
102
{ACAD_XDICTIONARY
360
12
102
}
102
{ACAD_REACTORS
330
10
102
}
330
10
100
AcDbMaterial
  1
ByLayer
 72
     0
 43
0.0208333333333333
 43
0.0
 43
0.0
 43
0.0
 43
0.0
 43
0.0208333333333333
 43
0.0
 43
0.0
 43
0.0
 43
0.0
 43
1.0
 43
0.0
 43
0.0
 43
0.0
 43
0.0
 43
1.0
 77
     0
 47
0.0208333333333333
 47
0.0
 47
0.0
 47
0.0
 47
0.0
 47
0.0208333333333333
 47
0.0
 47
0.0
 47
0.0
 47
0.0
 47
1.0
 47
0.0
 47
0.0
 47
0.0
 47
0.0
 47
1.0
171
     0
 49
0.0208333333333333
 49
0.0
 49
0.0
 49
0.0
 49
0.0
 49
0.0208333333333333
 49
0.0
 49
0.0
 49
0.0
 49
0.0
 49
1.0
 49
0.0
 49
0.0
 49
0.0
 49
0.0
 49
1.0
175
     0
142
0.0208333333333333
142
0.0
142
0.0
142
0.0
142
0.0
142
0.0208333333333333
142
0.0
142
0.0
142
0.0
142
0.0
142
1.0
142
0.0
142
0.0
142
0.0
142
0.0
142
1.0
179
     0
144
0.0208333333333333
144
0.0
144
0.0
144
0.0
144
0.0
144
0.0208333333333333
144
0.0
144
0.0
144
0.0
144
0.0
144
1.0
144
0.0
144
0.0
144
0.0
144
0.0
144
1.0
147
0.0208333333333333
147
0.0
147
0.0
147
0.0
147
0.0
147
0.0208333333333333
147
0.0
147
0.0
147
0.0
147
0.0
147
1.0
147
0.0
147
0.0
147
0.0
147
0.0
147
1.0
  0
MATERIAL
  5
21
102
{ACAD_XDICTIONARY
360
22
102
}
102
{ACAD_REACTORS
330
10
102
}
330
10
100
AcDbMaterial
  1
Global
 72
     0
 43
0.0208333333333333
 43
0.0
 43
0.0
 43
0.0
 43
0.0
 43
0.0208333333333333
 43
0.0
 43
0.0
 43
0.0
 43
0.0
 43
1.0
 43
0.0
 43
0.0
 43
0.0
 43
0.0
 43
1.0
 77
     0
 47
0.0208333333333333
 47
0.0
 47
0.0
 47
0.0
 47
0.0
 47
0.0208333333333333
 47
0.0
 47
0.0
 47
0.0
 47
0.0
 47
1.0
 47
0.0
 47
0.0
 47
0.0
 47
0.0
 47
1.0
171
     0
 49
0.0208333333333333
 49
0.0
 49
0.0
 49
0.0
 49
0.0
 49
0.0208333333333333
 49
0.0
 49
0.0
 49
0.0
 49
0.0
 49
1.0
 49
0.0
 49
0.0
 49
0.0
 49
0.0
 49
1.0
175
     0
142
0.0208333333333333
142
0.0
142
0.0
142
0.0
142
0.0
142
0.0208333333333333
142
0.0
142
0.0
142
0.0
142
0.0
142
1.0
142
0.0
142
0.0
142
0.0
142
0.0
142
1.0
179
     0
144
0.0208333333333333
144
0.0
144
0.0
144
0.0
144
0.0
144
0.0208333333333333
144
0.0
144
0.0
144
0.0
144
0.0
144
1.0
144
0.0
144
0.0
144
0.0
144
0.0
144
1.0
147
0.0208333333333333
147
0.0
147
0.0
147
0.0
147
0.0
147
0.0208333333333333
147
0.0
147
0.0
147
0.0
147
0.0
147
1.0
147
0.0
147
0.0
147
0.0
147
0.0
147
1.0
  0
MLEADERSTYLE
  5
67
102
{ACAD_REACTORS
330
66
102
}
330
66
100
AcDbMLeaderStyle
179
     2
170
     2
171
     1
172
     0
 90
        2
 40
0.0
 41
0.0
173
     1
 91
-1056964608
340
5B
 92
       -2
290
     1
 42
0.09
291
     1
 43
0.36
  3
Standard
 44
0.18
300

342
55
174
     1
178
     6
175
     1
176
     0
 93
-1056964608
 45
0.18
292
     0
297
     0
 46
0.18
 94
-1056964608
 47
1.0
 49
1.0
140
1.0
293
     1
141
0.0
294
     1
177
     0
142
1.0
295
     1
296
     0
143
0.125
271
     0
272
     9
273
     9
298
     1
  0
MLINESTYLE
  5
60
102
{ACAD_REACTORS
330
5F
102
}
330
5F
100
AcDbMlineStyle
  2
STANDARD
 70
     0
  3

 62
   256
 51
90.0
 52
90.0
 71
     2
 49
0.5
 62
   256
  6
BYLAYER
 49
-0.5
 62
   256
  6
BYLAYER
  0
ACDBPLACEHOLDER
  5
F
102
{ACAD_REACTORS
330
E
102
}
330
E
  0
RAPIDRTRENDERSETTINGS
  5
104
102
{ACAD_REACTORS
330
101
102
}
330
101
100
AcDbRenderSettings
 90
        2
  1
Alto
290
     1
290
     0
290
     1
290
     1
  1

  1
Aplica 10 níveis de renderização
 90
        2
100
AcDbRapidRTRenderSettings
 90
        3
 70
     0
 90
       10
 90
        1
 70
     2
 70
     2
 40
3.0
 40
3.0
290
     1
  0
RAPIDRTRENDERSETTINGS
  5
102
102
{ACAD_REACTORS
330
101
102
}
330
101
100
AcDbRenderSettings
 90
        2
  1
Baixo
290
     1
290
     0
290
     1
290
     1
  1

  1
Aplica 1 nível de renderização
 90
        0
100
AcDbRapidRTRenderSettings
 90
        3
 70
     0
 90
        1
 90
        1
 70
     0
 70
     2
 40
3.0
 40
3.0
290
     1
  0
RAPIDRTRENDERSETTINGS
  5
103
102
{ACAD_REACTORS
330
101
102
}
330
101
100
AcDbRenderSettings
 90
        2
  1
Médio
290
     1
290
     0
290
     1
290
     1
  1

  1
Aplica 5 níveis de renderização
 90
        1
100
AcDbRapidRTRenderSettings
 90
        3
 70
     0
 90
        5
 90
        1
 70
     1
 70
     2
 40
3.0
 40
3.0
290
     1
  0
RAPIDRTRENDERSETTINGS
  5
105
102
{ACAD_REACTORS
330
101
102
}
330
101
100
AcDbRenderSettings
 90
        2
  1
Qualidade de curta duração
290
     1
290
     0
290
     1
290
     1
  1

  1
Renderiza por 10 minutos
 90
        3
100
AcDbRapidRTRenderSettings
 90
        3
 70
     1
 90
        1
 90
       10
 70
     1
 70
     2
 40
3.0
 40
3.0
290
     1
  0
RAPIDRTRENDERSETTINGS
  5
107
102
{ACAD_REACTORS
330
101
102
}
330
101
100
AcDbRenderSettings
 90
        2
  1
Qualidade de longa duração
290
     1
290
     0
290
     1
290
     1
  1

  1
Renderiza por 12 horas
 90
        5
100
AcDbRapidRTRenderSettings
 90
        3
 70
     1
 90
        1
 90
      720
 70
     2
 70
     2
 40
3.0
 40
3.0
290
     1
  0
RAPIDRTRENDERSETTINGS
  5
106
102
{ACAD_REACTORS
330
101
102
}
330
101
100
AcDbRenderSettings
 90
        2
  1
Qualidade de média duração
290
     1
290
     0
290
     1
290
     1
  1

  1
Renderiza por 60 minutos
 90
        4
100
AcDbRapidRTRenderSettings
 90
        3
 70
     1
 90
        1
 90
       60
 70
     2
 70
     2
 40
3.0
 40
3.0
290
     1
  0
SCALE
  5
43
102
{ACAD_REACTORS
330
42
102
}
330
42
100
AcDbScale
 70
     0
300
1:1
140
1.0
141
1.0
290
     1
  0
SCALE
  5
44
102
{ACAD_REACTORS
330
42
102
}
330
42
100
AcDbScale
 70
     0
300
1/128" = 1'-0"
140
0.0078125
141
12.0
290
     0
  0
SCALE
  5
45
102
{ACAD_REACTORS
330
42
102
}
330
42
100
AcDbScale
 70
     0
300
1/64" = 1'-0"
140
0.015625
141
12.0
290
     0
  0
SCALE
  5
46
102
{ACAD_REACTORS
330
42
102
}
330
42
100
AcDbScale
 70
     0
300
1/32" = 1'-0"
140
0.03125
141
12.0
290
     0
  0
SCALE
  5
47
102
{ACAD_REACTORS
330
42
102
}
330
42
100
AcDbScale
 70
     0
300
1/16" = 1'-0"
140
0.0625
141
12.0
290
     0
  0
SCALE
  5
48
102
{ACAD_REACTORS
330
42
102
}
330
42
100
AcDbScale
 70
     0
300
3/32" = 1'-0"
140
0.09375
141
12.0
290
     0
  0
SCALE
  5
49
102
{ACAD_REACTORS
330
42
102
}
330
42
100
AcDbScale
 70
     0
300
1/8" = 1'-0"
140
0.125
141
12.0
290
     0
  0
SCALE
  5
4A
102
{ACAD_REACTORS
330
42
102
}
330
42
100
AcDbScale
 70
     0
300
3/16" = 1'-0"
140
0.1875
141
12.0
290
     0
  0
SCALE
  5
4B
102
{ACAD_REACTORS
330
42
102
}
330
42
100
AcDbScale
 70
     0
300
1/4" = 1'-0"
140
0.25
141
12.0
290
     0
  0
SCALE
  5
4C
102
{ACAD_REACTORS
330
42
102
}
330
42
100
AcDbScale
 70
     0
300
3/8" = 1'-0"
140
0.375
141
12.0
290
     0
  0
SCALE
  5
4D
102
{ACAD_REACTORS
330
42
102
}
330
42
100
AcDbScale
 70
     0
300
1/2" = 1'-0"
140
0.5
141
12.0
290
     0
  0
SCALE
  5
4E
102
{ACAD_REACTORS
330
42
102
}
330
42
100
AcDbScale
 70
     0
300
3/4" = 1'-0"
140
0.75
141
12.0
290
     0
  0
SCALE
  5
4F
102
{ACAD_REACTORS
330
42
102
}
330
42
100
AcDbScale
 70
     0
300
1" = 1'-0"
140
1.0
141
12.0
290
     0
  0
SCALE
  5
50
102
{ACAD_REACTORS
330
42
102
}
330
42
100
AcDbScale
 70
     0
300
1-1/2" = 1'-0"
140
1.5
141
12.0
290
     0
  0
SCALE
  5
51
102
{ACAD_REACTORS
330
42
102
}
330
42
100
AcDbScale
 70
     0
300
3" = 1'-0"
140
3.0
141
12.0
290
     0
  0
SCALE
  5
52
102
{ACAD_REACTORS
330
42
102
}
330
42
100
AcDbScale
 70
     0
300
6" = 1'-0"
140
6.0
141
12.0
290
     0
  0
SCALE
  5
53
102
{ACAD_REACTORS
330
42
102
}
330
42
100
AcDbScale
 70
     0
300
1'-0" = 1'-0"
140
12.0
141
12.0
290
     0
  0
ACDBSECTIONVIEWSTYLE
  5
69
102
{ACAD_REACTORS
330
68
102
}
330
68
100
AcDbModelDocViewStyle
 70
     0
  3
Imperial24
290
     1
300
Imperial24
 90
        0
100
AcDbSectionViewStyle
 70
     0
 71
     0
 90
       78
 71
     1
340
55
 62
   256
 40
0.24
340
0
340
0
 62
   256
 40
0.24
300
I, O, Q, S, X, Z
 40
0.48
 90
        3
 40
0.18
 90
        1
 71
     2
340
5D
 90
       25
 62
   256
340
5D
 90
       50
 62
   256
 40
0.24
 40
0.0
 40
0.24
 71
     3
340
55
 62
   256
 40
0.24
 90
        1
 40
0.75
 90
        1
300
%<\AcVar ViewType \f "%tc1">% %<\AcVar ViewSectionStartId>%-%<\AcVar ViewSectionEndId>%\PSCALE %<\AcVar ViewScale \f "%sn">%
 71
     4
 62
   256
 62
   257
300
ANSI31
 40
1.0
 90
        0
290
     0
290
     0
 90
        6
 40
0.0
 40
1.570796326794896
 40
0.2617993877991494
 40
1.308996938995747
 40
-0.2617993877991494
 40
1.832595714594046
  0
ACDBSECTIONVIEWSTYLE
  5
F8
102
{ACAD_REACTORS
330
68
102
}
330
68
100
AcDbModelDocViewStyle
 70
     0
  3
Metric50
290
     1
300
Metric50
 90
        0
100
AcDbSectionViewStyle
 70
     0
 71
     0
 90
      102
 71
     1
340
55
 62
   256
 40
5.0
340
0
340
0
 62
   256
 40
5.0
300
I, O, Q, S, X, Z
 40
10.0
 90
        0
 40
2.5
 90
        0
 71
     2
340
5D
 90
       25
 62
   256
340
5D
 90
       50
 62
   256
 40
5.0
 40
2.5
 40
5.0
 71
     3
340
55
 62
   256
 40
5.0
 90
        0
 40
15.0
 90
        1
300
%<\AcVar ViewSectionStartId>%-%<\AcVar ViewSectionEndId>% (%<\AcVar ViewScale \f "%sn">%)
 71
     4
 62
   256
 62
   257
300
ANSI31
 40
1.0
 90
        0
290
     0
290
     0
 90
        6
 40
0.0
 40
1.570796326794896
 40
0.2617993877991494
 40
1.308996938995747
 40
-0.2617993877991494
 40
1.832595714594046
  0
TABLESTYLE
  5
65
102
{ACAD_XDICTIONARY
360
176
102
}
102
{ACAD_REACTORS
330
64
102
}
330
64
100
AcDbTableStyle
280
     0
  3
Standard
 70
     0
 71
     0
 40
0.06
 41
0.06
280
     0
281
     0
  7
Standard
140
0.18
170
     2
 62
     0
 63
     7
283
     0
 90
      512
 91
        0
  1

274
    -2
284
     1
 64
     0
275
    -2
285
     1
 65
     0
276
    -2
286
     1
 66
     0
277
    -2
287
     1
 67
     0
278
    -2
288
     1
 68
     0
279
    -2
289
     1
 69
     0
  7
Standard
140
0.25
170
     5
 62
     0
 63
     7
283
     0
 90
      512
 91
        0
  1

274
    -2
284
     1
 64
     0
275
    -2
285
     1
 65
     0
276
    -2
286
     1
 66
     0
277
    -2
287
     1
 67
     0
278
    -2
288
     1
 68
     0
279
    -2
289
     1
 69
     0
  7
Standard
140
0.18
170
     5
 62
     0
 63
     7
283
     0
 90
      512
 91
        0
  1

274
    -2
284
     1
 64
     0
275
    -2
285
     1
 65
     0
276
    -2
286
     1
 66
     0
277
    -2
287
     1
 67
     0
278
    -2
288
     1
 68
     0
279
    -2
289
     1
 69
     0
  0
VISUALSTYLE
  5
2F
102
{ACAD_REACTORS
330
29
102
}
330
29
100
AcDbVisualStyle
  2
2dWireframe
 70
     4
177
     3
291
     0
 70
    58
 90
        0
176
     1
 90
        2
176
     1
 90
        0
176
     1
 90
        0
176
     1
 40
0.6
176
     1
 40
30.0
176
     1
 62
     7
420
 16777215
176
     1
 90
        1
176
     1
 90
        4
176
     1
 62
     7
176
     1
 62
   257
176
     1
 90
        1
176
     1
 90
        1
176
     1
 40
1.0
176
     1
 90
        0
176
     1
 62
   257
176
     1
 40
1.0
176
     1
 90
        1
176
     1
 90
        6
176
     1
 90
        2
176
     1
 62
     7
176
     1
 90
        5
176
     1
 90
        0
176
     1
 90
        0
176
     1
290
     0
176
     1
 90
        1
176
     1
 40
0.0
176
     1
 90
        0
176
     1
290
     1
176
     1
290
     1
176
     1
290
     0
176
     1
290
     0
176
     1
290
     0
176
     1
290
     0
176
     1
290
     0
176
     1
290
     0
176
     1
290
     0
176
     1
 90
       50
176
     1
 40
0.0
176
     1
 40
1.0
176
     1
 90
        0
176
     1
 62
    18
420
        0
176
     1
 90
       50
176
     1
 90
        3
176
     1
 62
     5
420
      255
176
     1
290
     0
176
     1
 90
       50
176
     1
 90
       50
176
     1
 90
       50
176
     1
290
     0
176
     1
 90
       50
176
     1
 62
   256
176
     0
 40
1.0
176
     0
 90
        2
176
     1
  1
strokes_ogs.tif
176
     1
290
     0
176
     1
 40
1.0
176
     1
 40
1.0
176
     1
  0
VISUALSTYLE
  5
2E
102
{ACAD_REACTORS
330
29
102
}
330
29
100
AcDbVisualStyle
  2
Basic
 70
     7
177
     3
291
     1
 70
    58
 90
        1
176
     1
 90
        0
176
     1
 90
        1
176
     1
 90
        0
176
     1
 40
0.6
176
     1
 40
30.0
176
     1
 62
     7
420
 16777215
176
     1
 90
        0
176
     1
 90
        4
176
     1
 62
     7
176
     1
 62
   257
176
     1
 90
        1
176
     1
 90
        1
176
     1
 40
1.0
176
     1
 90
        8
176
     1
 62
     7
176
     1
 40
1.0
176
     1
 90
        1
176
     1
 90
        6
176
     1
 90
        2
176
     1
 62
     7
176
     1
 90
        5
176
     1
 90
        0
176
     1
 90
        0
176
     1
290
     0
176
     1
 90
        1
176
     1
 40
0.0
176
     1
 90
        0
176
     1
290
     0
176
     1
290
     1
176
     1
290
     1
176
     1
290
     0
176
     1
290
     0
176
     1
290
     0
176
     1
290
     0
176
     1
290
     0
176
     1
290
     0
176
     1
 90
       50
176
     1
 40
0.0
176
     1
 40
1.0
176
     1
 90
        0
176
     1
 62
    18
420
        0
176
     1
 90
       50
176
     1
 90
        3
176
     1
 62
     5
420
      255
176
     1
290
     0
176
     1
 90
       50
176
     1
 90
       50
176
     1
 90
       50
176
     1
290
     0
176
     1
 90
       50
176
     1
 62
   256
176
     0
 40
1.0
176
     0
 90
        2
176
     1
  1
strokes_ogs.tif
176
     1
290
     0
176
     1
 40
1.0
176
     1
 40
1.0
176
     1
  0
VISUALSTYLE
  5
35
102
{ACAD_REACTORS
330
29
102
}
330
29
100
AcDbVisualStyle
  2
Brighten
 70
    12
177
     3
291
     1
 70
    58
 90
        2
176
     1
 90
        2
176
     1
 90
        0
176
     1
 90
        0
176
     1
 40
0.6
176
     1
 40
30.0
176
     1
 62
     7
420
 16777215
176
     1
 90
        1
176
     1
 90
        4
176
     1
 62
     7
176
     1
 62
   257
176
     1
 90
        1
176
     1
 90
        1
176
     1
 40
1.0
176
     1
 90
        8
176
     1
 62
     7
176
     1
 40
1.0
176
     1
 90
        1
176
     1
 90
        6
176
     1
 90
        2
176
     1
 62
     7
176
     1
 90
        5
176
     1
 90
        0
176
     1
 90
        0
176
     1
290
     0
176
     1
 90
        1
176
     1
 40
50.0
176
     1
 90
        0
176
     1
290
     0
176
     1
290
     1
176
     1
290
     1
176
     1
290
     0
176
     1
290
     0
176
     1
290
     0
176
     1
290
     0
176
     1
290
     0
176
     1
290
     0
176
     1
 90
       50
176
     1
 40
0.0
176
     1
 40
1.0
176
     1
 90
        0
176
     1
 62
    18
420
        0
176
     1
 90
       50
176
     1
 90
        3
176
     1
 62
     5
420
      255
176
     1
290
     0
176
     1
 90
       50
176
     1
 90
       50
176
     1
 90
       50
176
     1
290
     0
176
     1
 90
       50
176
     1
 62
   256
176
     0
 40
1.0
176
     0
 90
        2
176
     1
  1
strokes_ogs.tif
176
     1
290
     0
176
     1
 40
1.0
176
     1
 40
1.0
176
     1
  0
VISUALSTYLE
  5
39
102
{ACAD_REACTORS
330
29
102
}
330
29
100
AcDbVisualStyle
  2
ColorChange
 70
    16
177
     3
291
     1
 70
    58
 90
        2
176
     1
 90
        2
176
     1
 90
        3
176
     1
 90
        0
176
     1
 40
0.6
176
     1
 40
30.0
176
     1
 62
     8
420
  8421504
176
     1
 90
        1
176
     1
 90
        4
176
     1
 62
     7
176
     1
 62
   257
176
     1
 90
        1
176
     1
 90
        1
176
     1
 40
1.0
176
     1
 90
        8
176
     1
 62
     8
420
  8421504
176
     1
 40
1.0
176
     1
 90
        1
176
     1
 90
        6
176
     1
 90
        2
176
     1
 62
     7
176
     1
 90
        5
176
     1
 90
        0
176
     1
 90
        0
176
     1
290
     0
176
     1
 90
        1
176
     1
 40
0.0
176
     1
 90
        0
176
     1
290
     0
176
     1
290
     1
176
     1
290
     1
176
     1
290
     0
176
     1
290
     0
176
     1
290
     0
176
     1
290
     0
176
     1
290
     0
176
     1
290
     0
176
     1
 90
       50
176
     1
 40
0.0
176
     1
 40
1.0
176
     1
 90
        0
176
     1
 62
    18
420
        0
176
     1
 90
       50
176
     1
 90
        3
176
     1
 62
     5
420
      255
176
     1
290
     0
176
     1
 90
       50
176
     1
 90
       50
176
     1
 90
       50
176
     1
290
     0
176
     1
 90
       50
176
     1
 62
   256
176
     0
 40
1.0
176
     0
 90
        2
176
     1
  1
strokes_ogs.tif
176
     1
290
     0
176
     1
 40
1.0
176
     1
 40
1.0
176
     1
  0
VISUALSTYLE
  5
32
102
{ACAD_REACTORS
330
29
102
}
330
29
100
AcDbVisualStyle
  2
Conceptual
 70
     9
177
     3
291
     0
 70
    58
 90
        3
176
     1
 90
        2
176
     1
 90
        0
176
     1
 90
        0
176
     1
 40
0.6
176
     1
 40
30.0
176
     1
 62
     7
420
 16777215
176
     1
 90
        2
176
     1
 90
        2
176
     1
 62
     7
176
     1
 62
   257
176
     1
 90
        1
176
     1
 90
        1
176
     1
 40
179.0
176
     1
 90
        8
176
     1
 62
     7
176
     1
 40
1.0
176
     1
 90
        1
176
     1
 90
        6
176
     1
 90
        2
176
     1
 62
     7
176
     1
 90
        3
176
     1
 90
        0
176
     1
 90
        0
176
     1
290
     0
176
     1
 90
        1
176
     1
 40
0.0
176
     1
 90
        0
176
     1
290
     0
176
     1
290
     1
176
     1
290
     1
176
     1
290
     0
176
     1
290
     0
176
     1
290
     0
176
     1
290
     0
176
     1
290
     0
176
     1
290
     0
176
     1
 90
       50
176
     1
 40
0.0
176
     1
 40
1.0
176
     1
 90
        0
176
     1
 62
    18
420
        0
176
     1
 90
       50
176
     1
 90
        3
176
     1
 62
     5
420
      255
176
     1
290
     0
176
     1
 90
       50
176
     1
 90
       50
176
     1
 90
       50
176
     1
290
     0
176
     1
 90
       50
176
     1
 62
   256
176
     0
 40
1.0
176
     0
 90
        2
176
     1
  1
strokes_ogs.tif
176
     1
290
     0
176
     1
 40
1.0
176
     1
 40
1.0
176
     1
  0
VISUALSTYLE
  5
34
102
{ACAD_REACTORS
330
29
102
}
330
29
100
AcDbVisualStyle
  2
Dim
 70
    11
177
     3
291
     1
 70
    58
 90
        2
176
     1
 90
        2
176
     1
 90
        0
176
     1
 90
        0
176
     1
 40
0.6
176
     1
 40
30.0
176
     1
 62
     7
420
 16777215
176
     1
 90
        1
176
     1
 90
        4
176
     1
 62
     7
176
     1
 62
   257
176
     1
 90
        1
176
     1
 90
        1
176
     1
 40
1.0
176
     1
 90
        8
176
     1
 62
     7
176
     1
 40
1.0
176
     1
 90
        1
176
     1
 90
        6
176
     1
 90
        2
176
     1
 62
     7
176
     1
 90
        5
176
     1
 90
        0
176
     1
 90
        0
176
     1
290
     0
176
     1
 90
        1
176
     1
 40
-50.0
176
     1
 90
        0
176
     1
290
     0
176
     1
290
     1
176
     1
290
     1
176
     1
290
     0
176
     1
290
     0
176
     1
290
     0
176
     1
290
     0
176
     1
290
     0
176
     1
290
     0
176
     1
 90
       50
176
     1
 40
0.0
176
     1
 40
1.0
176
     1
 90
        0
176
     1
 62
    18
420
        0
176
     1
 90
       50
176
     1
 90
        3
176
     1
 62
     5
420
      255
176
     1
290
     0
176
     1
 90
       50
176
     1
 90
       50
176
     1
 90
       50
176
     1
290
     0
176
     1
 90
       50
176
     1
 62
   256
176
     0
 40
1.0
176
     0
 90
        2
176
     1
  1
strokes_ogs.tif
176
     1
290
     0
176
     1
 40
1.0
176
     1
 40
1.0
176
     1
  0
VISUALSTYLE
  5
41
102
{ACAD_REACTORS
330
29
102
}
330
29
100
AcDbVisualStyle
  2
EdgeColorOff
 70
    22
177
     3
291
     1
 70
    58
 90
        2
176
     0
 90
        2
176
     0
 90
        0
176
     0
 90
        0
176
     0
 40
0.6
176
     0
 40
30.0
176
     0
 62
     7
420
 16777215
176
     0
 90
        1
176
     0
 90
        4
176
     0
 62
     7
176
     0
 62
   257
176
     0
 90
        1
176
     0
 90
        1
176
     0
 40
1.0
176
     0
 90
        8
176
     2
 62
     7
176
     0
 40
1.0
176
     0
 90
        1
176
     0
 90
        6
176
     0
 90
        2
176
     0
 62
     7
176
     0
 90
        5
176
     0
 90
        0
176
     0
 90
        0
176
     0
290
     0
176
     0
 90
        1
176
     0
 40
0.0
176
     0
 90
        0
176
     0
290
     0
176
     0
290
     1
176
     0
290
     1
176
     0
290
     0
176
     0
290
     0
176
     0
290
     0
176
     0
290
     0
176
     0
290
     0
176
     0
290
     0
176
     0
 90
       50
176
     0
 40
0.0
176
     0
 40
1.0
176
     0
 90
        0
176
     0
 62
    18
420
        0
176
     0
 90
       50
176
     0
 90
        3
176
     0
 62
     5
420
      255
176
     0
290
     0
176
     0
 90
       50
176
     0
 90
       50
176
     0
 90
       50
176
     0
290
     0
176
     0
 90
       50
176
     0
 62
   256
176
     0
 40
1.0
176
     0
 90
        2
176
     0
  1
strokes_ogs.tif
176
     0
290
     0
176
     0
 40
1.0
176
     0
 40
1.0
176
     0
  0
VISUALSTYLE
  5
38
102
{ACAD_REACTORS
330
29
102
}
330
29
100
AcDbVisualStyle
  2
Facepattern
 70
    15
177
     3
291
     1
 70
    58
 90
        2
176
     1
 90
        2
176
     1
 90
        0
176
     1
 90
        0
176
     1
 40
0.6
176
     1
 40
30.0
176
     1
 62
     7
420
 16777215
176
     1
 90
        1
176
     1
 90
        4
176
     1
 62
     7
176
     1
 62
   257
176
     1
 90
        1
176
     1
 90
        1
176
     1
 40
1.0
176
     1
 90
        8
176
     1
 62
     7
176
     1
 40
1.0
176
     1
 90
        1
176
     1
 90
        6
176
     1
 90
        2
176
     1
 62
     7
176
     1
 90
        5
176
     1
 90
        0
176
     1
 90
        0
176
     1
290
     0
176
     1
 90
        1
176
     1
 40
0.0
176
     1
 90
        0
176
     1
290
     0
176
     1
290
     1
176
     1
290
     1
176
     1
290
     0
176
     1
290
     0
176
     1
290
     0
176
     1
290
     0
176
     1
290
     0
176
     1
290
     0
176
     1
 90
       50
176
     1
 40
0.0
176
     1
 40
1.0
176
     1
 90
        0
176
     1
 62
    18
420
        0
176
     1
 90
       50
176
     1
 90
        3
176
     1
 62
     5
420
      255
176
     1
290
     0
176
     1
 90
       50
176
     1
 90
       50
176
     1
 90
       50
176
     1
290
     0
176
     1
 90
       50
176
     1
 62
   256
176
     0
 40
1.0
176
     0
 90
        2
176
     1
  1
strokes_ogs.tif
176
     1
290
     0
176
     1
 40
1.0
176
     1
 40
1.0
176
     1
  0
VISUALSTYLE
  5
2A
102
{ACAD_REACTORS
330
29
102
}
330
29
100
AcDbVisualStyle
  2
Flat
 70
     0
177
     3
291
     1
 70
    58
 90
        2
176
     1
 90
        1
176
     1
 90
        1
176
     1
 90
        2
176
     1
 40
0.6
176
     1
 40
30.0
176
     1
 62
     7
420
 16777215
176
     1
 90
        0
176
     1
 90
        0
176
     1
 62
     7
176
     1
 62
   257
176
     1
 90
        1
176
     1
 90
        1
176
     1
 40
1.0
176
     1
 90
        8
176
     1
 62
     7
176
     1
 40
1.0
176
     1
 90
        1
176
     1
 90
        6
176
     1
 90
        2
176
     1
 62
     7
176
     1
 90
        5
176
     1
 90
        0
176
     1
 90
        0
176
     1
290
     0
176
     1
 90
       13
176
     1
 40
0.0
176
     1
 90
        0
176
     1
290
     0
176
     1
290
     1
176
     1
290
     1
176
     1
290
     0
176
     1
290
     0
176
     1
290
     0
176
     1
290
     0
176
     1
290
     0
176
     1
290
     0
176
     1
 90
       50
176
     1
 40
0.0
176
     1
 40
1.0
176
     1
 90
        0
176
     1
 62
    18
420
        0
176
     1
 90
       50
176
     1
 90
        3
176
     1
 62
     5
420
      255
176
     1
290
     0
176
     1
 90
       50
176
     1
 90
       50
176
     1
 90
       50
176
     1
290
     0
176
     1
 90
       50
176
     1
 62
   256
176
     0
 40
1.0
176
     0
 90
        2
176
     1
  1
strokes_ogs.tif
176
     1
290
     0
176
     1
 40
1.0
176
     1
 40
1.0
176
     1
  0
VISUALSTYLE
  5
2B
102
{ACAD_REACTORS
330
29
102
}
330
29
100
AcDbVisualStyle
  2
FlatWithEdges
 70
     1
177
     3
291
     1
 70
    58
 90
        2
176
     1
 90
        1
176
     1
 90
        1
176
     1
 90
        2
176
     1
 40
0.6
176
     1
 40
30.0
176
     1
 62
     7
420
 16777215
176
     1
 90
        1
176
     1
 90
        0
176
     1
 62
     7
176
     1
 62
   257
176
     1
 90
        1
176
     1
 90
        1
176
     1
 40
1.0
176
     1
 90
        0
176
     1
 62
   257
176
     1
 40
1.0
176
     1
 90
        1
176
     1
 90
        6
176
     1
 90
        2
176
     1
 62
     7
176
     1
 90
        5
176
     1
 90
        0
176
     1
 90
        0
176
     1
290
     0
176
     1
 90
       13
176
     1
 40
0.0
176
     1
 90
        0
176
     1
290
     0
176
     1
290
     1
176
     1
290
     1
176
     1
290
     0
176
     1
290
     0
176
     1
290
     0
176
     1
290
     0
176
     1
290
     0
176
     1
290
     0
176
     1
 90
       50
176
     1
 40
0.0
176
     1
 40
1.0
176
     1
 90
        0
176
     1
 62
    18
420
        0
176
     1
 90
       50
176
     1
 90
        3
176
     1
 62
     5
420
      255
176
     1
290
     0
176
     1
 90
       50
176
     1
 90
       50
176
     1
 90
       50
176
     1
290
     0
176
     1
 90
       50
176
     1
 62
   256
176
     0
 40
1.0
176
     0
 90
        2
176
     1
  1
strokes_ogs.tif
176
     1
290
     0
176
     1
 40
1.0
176
     1
 40
1.0
176
     1
  0
VISUALSTYLE
  5
2C
102
{ACAD_REACTORS
330
29
102
}
330
29
100
AcDbVisualStyle
  2
Gouraud
 70
     2
177
     3
291
     1
 70
    58
 90
        2
176
     1
 90
        2
176
     1
 90
        1
176
     1
 90
        2
176
     1
 40
0.6
176
     1
 40
30.0
176
     1
 62
     7
420
 16777215
176
     1
 90
        0
176
     1
 90
        0
176
     1
 62
     7
176
     1
 62
   257
176
     1
 90
        1
176
     1
 90
        1
176
     1
 40
1.0
176
     1
 90
        0
176
     1
 62
     7
176
     1
 40
1.0
176
     1
 90
        1
176
     1
 90
        6
176
     1
 90
        2
176
     1
 62
     7
176
     1
 90
        5
176
     1
 90
        0
176
     1
 90
        0
176
     1
290
     0
176
     1
 90
       13
176
     1
 40
0.0
176
     1
 90
        0
176
     1
290
     0
176
     1
290
     1
176
     1
290
     1
176
     1
290
     0
176
     1
290
     0
176
     1
290
     0
176
     1
290
     0
176
     1
290
     0
176
     1
290
     0
176
     1
 90
       50
176
     1
 40
0.0
176
     1
 40
1.0
176
     1
 90
        0
176
     1
 62
    18
420
        0
176
     1
 90
       50
176
     1
 90
        3
176
     1
 62
     5
420
      255
176
     1
290
     0
176
     1
 90
       50
176
     1
 90
       50
176
     1
 90
       50
176
     1
290
     0
176
     1
 90
       50
176
     1
 62
   256
176
     0
 40
1.0
176
     0
 90
        2
176
     1
  1
strokes_ogs.tif
176
     1
290
     0
176
     1
 40
1.0
176
     1
 40
1.0
176
     1
  0
VISUALSTYLE
  5
2D
102
{ACAD_REACTORS
330
29
102
}
330
29
100
AcDbVisualStyle
  2
GouraudWithEdges
 70
     3
177
     3
291
     1
 70
    58
 90
        2
176
     1
 90
        2
176
     1
 90
        1
176
     1
 90
        2
176
     1
 40
0.6
176
     1
 40
30.0
176
     1
 62
     7
420
 16777215
176
     1
 90
        1
176
     1
 90
        0
176
     1
 62
     7
176
     1
 62
   257
176
     1
 90
        1
176
     1
 90
        1
176
     1
 40
1.0
176
     1
 90
        0
176
     1
 62
   257
176
     1
 40
1.0
176
     1
 90
        1
176
     1
 90
        6
176
     1
 90
        2
176
     1
 62
     7
176
     1
 90
        5
176
     1
 90
        0
176
     1
 90
        0
176
     1
290
     0
176
     1
 90
       13
176
     1
 40
0.0
176
     1
 90
        0
176
     1
290
     0
176
     1
290
     1
176
     1
290
     1
176
     1
290
     0
176
     1
290
     0
176
     1
290
     0
176
     1
290
     0
176
     1
290
     0
176
     1
290
     0
176
     1
 90
       50
176
     1
 40
0.0
176
     1
 40
1.0
176
     1
 90
        0
176
     1
 62
    18
420
        0
176
     1
 90
       50
176
     1
 90
        3
176
     1
 62
     5
420
      255
176
     1
290
     0
176
     1
 90
       50
176
     1
 90
       50
176
     1
 90
       50
176
     1
290
     0
176
     1
 90
       50
176
     1
 62
   256
176
     0
 40
1.0
176
     0
 90
        2
176
     1
  1
strokes_ogs.tif
176
     1
290
     0
176
     1
 40
1.0
176
     1
 40
1.0
176
     1
  0
VISUALSTYLE
  5
31
102
{ACAD_REACTORS
330
29
102
}
330
29
100
AcDbVisualStyle
  2
Hidden
 70
     6
177
     3
291
     0
 70
    58
 90
        1
176
     1
 90
        2
176
     1
 90
        2
176
     1
 90
        0
176
     1
 40
0.6
176
     1
 40
30.0
176
     1
 62
     7
420
 16777215
176
     1
 90
        2
176
     1
 90
        2
176
     1
 62
     7
176
     1
 62
   257
176
     1
 90
        2
176
     1
 90
        1
176
     1
 40
40.0
176
     1
 90
        0
176
     1
 62
   257
176
     1
 40
1.0
176
     1
 90
        1
176
     1
 90
        6
176
     1
 90
        2
176
     1
 62
     7
176
     1
 90
        3
176
     1
 90
        0
176
     1
 90
        0
176
     1
290
     0
176
     1
 90
        1
176
     1
 40
0.0
176
     1
 90
        0
176
     1
290
     0
176
     1
290
     1
176
     1
290
     1
176
     1
290
     0
176
     1
290
     0
176
     1
290
     0
176
     1
290
     0
176
     1
290
     0
176
     1
290
     0
176
     1
 90
       50
176
     1
 40
0.0
176
     1
 40
1.0
176
     1
 90
        0
176
     1
 62
    18
420
        0
176
     1
 90
       50
176
     1
 90
        3
176
     1
 62
     5
420
      255
176
     1
290
     0
176
     1
 90
       50
176
     1
 90
       50
176
     1
 90
       50
176
     1
290
     0
176
     1
 90
       50
176
     1
 62
   256
176
     0
 40
1.0
176
     0
 90
        2
176
     1
  1
strokes_ogs.tif
176
     1
290
     0
176
     1
 40
1.0
176
     1
 40
1.0
176
     1
  0
VISUALSTYLE
  5
3F
102
{ACAD_REACTORS
330
29
102
}
330
29
100
AcDbVisualStyle
  2
JitterOff
 70
    20
177
     3
291
     1
 70
    58
 90
        2
176
     0
 90
        2
176
     0
 90
        0
176
     0
 90
        0
176
     0
 40
0.6
176
     0
 40
30.0
176
     0
 62
     7
420
 16777215
176
     0
 90
        1
176
     0
 90
        4
176
     0
 62
     7
176
     0
 62
   257
176
     0
 90
        1
176
     0
 90
        1
176
     0
 40
1.0
176
     0
 90
       10
176
     2
 62
     7
176
     0
 40
1.0
176
     0
 90
        1
176
     0
 90
        6
176
     0
 90
        2
176
     0
 62
     7
176
     0
 90
        5
176
     0
 90
        0
176
     0
 90
        0
176
     0
290
     0
176
     0
 90
        1
176
     0
 40
0.0
176
     0
 90
        0
176
     0
290
     0
176
     0
290
     1
176
     0
290
     1
176
     0
290
     0
176
     0
290
     0
176
     0
290
     0
176
     0
290
     0
176
     0
290
     0
176
     0
290
     0
176
     0
 90
       50
176
     0
 40
0.0
176
     0
 40
1.0
176
     0
 90
        0
176
     0
 62
    18
420
        0
176
     0
 90
       50
176
     0
 90
        3
176
     0
 62
     5
420
      255
176
     0
290
     0
176
     0
 90
       50
176
     0
 90
       50
176
     0
 90
       50
176
     0
290
     0
176
     0
 90
       50
176
     0
 62
   256
176
     0
 40
1.0
176
     0
 90
        2
176
     0
  1
strokes_ogs.tif
176
     0
290
     0
176
     0
 40
1.0
176
     0
 40
1.0
176
     0
  0
VISUALSTYLE
  5
37
102
{ACAD_REACTORS
330
29
102
}
330
29
100
AcDbVisualStyle
  2
Linepattern
 70
    14
177
     3
291
     1
 70
    58
 90
        2
176
     1
 90
        2
176
     1
 90
        0
176
     1
 90
        0
176
     1
 40
0.6
176
     1
 40
30.0
176
     1
 62
     7
420
 16777215
176
     1
 90
        1
176
     1
 90
        4
176
     1
 62
     7
176
     1
 62
   257
176
     1
 90
        7
176
     1
 90
        7
176
     1
 40
1.0
176
     1
 90
        8
176
     1
 62
     7
176
     1
 40
1.0
176
     1
 90
        1
176
     1
 90
        6
176
     1
 90
        2
176
     1
 62
     7
176
     1
 90
        5
176
     1
 90
        0
176
     1
 90
        0
176
     1
290
     0
176
     1
 90
        1
176
     1
 40
0.0
176
     1
 90
        0
176
     1
290
     0
176
     1
290
     1
176
     1
290
     1
176
     1
290
     0
176
     1
290
     0
176
     1
290
     0
176
     1
290
     0
176
     1
290
     0
176
     1
290
     0
176
     1
 90
       50
176
     1
 40
0.0
176
     1
 40
1.0
176
     1
 90
        0
176
     1
 62
    18
420
        0
176
     1
 90
       50
176
     1
 90
        3
176
     1
 62
     5
420
      255
176
     1
290
     0
176
     1
 90
       50
176
     1
 90
       50
176
     1
 90
       50
176
     1
290
     0
176
     1
 90
       50
176
     1
 62
   256
176
     0
 40
1.0
176
     0
 90
        2
176
     1
  1
strokes_ogs.tif
176
     1
290
     0
176
     1
 40
1.0
176
     1
 40
1.0
176
     1
  0
VISUALSTYLE
  5
40
102
{ACAD_REACTORS
330
29
102
}
330
29
100
AcDbVisualStyle
  2
OverhangOff
 70
    21
177
     3
291
     1
 70
    58
 90
        2
176
     0
 90
        2
176
     0
 90
        0
176
     0
 90
        0
176
     0
 40
0.6
176
     0
 40
30.0
176
     0
 62
     7
420
 16777215
176
     0
 90
        1
176
     0
 90
        4
176
     0
 62
     7
176
     0
 62
   257
176
     0
 90
        1
176
     0
 90
        1
176
     0
 40
1.0
176
     0
 90
        9
176
     2
 62
     7
176
     0
 40
1.0
176
     0
 90
        1
176
     0
 90
        6
176
     0
 90
        2
176
     0
 62
     7
176
     0
 90
        5
176
     0
 90
        0
176
     0
 90
        0
176
     0
290
     0
176
     0
 90
        1
176
     0
 40
0.0
176
     0
 90
        0
176
     0
290
     0
176
     0
290
     1
176
     0
290
     1
176
     0
290
     0
176
     0
290
     0
176
     0
290
     0
176
     0
290
     0
176
     0
290
     0
176
     0
290
     0
176
     0
 90
       50
176
     0
 40
0.0
176
     0
 40
1.0
176
     0
 90
        0
176
     0
 62
    18
420
        0
176
     0
 90
       50
176
     0
 90
        3
176
     0
 62
     5
420
      255
176
     0
290
     0
176
     0
 90
       50
176
     0
 90
       50
176
     0
 90
       50
176
     0
290
     0
176
     0
 90
       50
176
     0
 62
   256
176
     0
 40
1.0
176
     0
 90
        2
176
     0
  1
strokes_ogs.tif
176
     0
290
     0
176
     0
 40
1.0
176
     0
 40
1.0
176
     0
  0
VISUALSTYLE
  5
33
102
{ACAD_REACTORS
330
29
102
}
330
29
100
AcDbVisualStyle
  2
Realistic
 70
     8
177
     3
291
     0
 70
    58
 90
        2
176
     1
 90
        3
176
     1
 90
        0
176
     1
 90
        2
176
     1
 40
0.6
176
     1
 40
30.0
176
     1
 62
     7
420
 16777215
176
     1
 90
        0
176
     1
 90
        0
176
     1
 62
     7
176
     1
 62
   257
176
     1
 90
        1
176
     1
 90
        1
176
     1
 40
1.0
176
     1
 90
        8
176
     1
 62
   257
176
     1
 40
1.0
176
     1
 90
        1
176
     1
 90
        6
176
     1
 90
        2
176
     1
 62
     7
176
     1
 90
        3
176
     1
 90
        0
176
     1
 90
        0
176
     1
290
     0
176
     1
 90
       13
176
     1
 40
0.0
176
     1
 90
        0
176
     1
290
     0
176
     1
290
     1
176
     1
290
     1
176
     1
290
     0
176
     1
290
     0
176
     1
290
     0
176
     1
290
     0
176
     1
290
     0
176
     1
290
     0
176
     1
 90
       50
176
     1
 40
0.0
176
     1
 40
1.0
176
     1
 90
        0
176
     1
 62
    18
420
        0
176
     1
 90
       50
176
     1
 90
        3
176
     1
 62
     5
420
      255
176
     1
290
     0
176
     1
 90
       50
176
     1
 90
       50
176
     1
 90
       50
176
     1
290
     0
176
     1
 90
       50
176
     1
 62
   256
176
     0
 40
1.0
176
     0
 90
        2
176
     1
  1
strokes_ogs.tif
176
     1
290
     0
176
     1
 40
1.0
176
     1
 40
1.0
176
     1
  0
VISUALSTYLE
  5
3E
102
{ACAD_REACTORS
330
29
102
}
330
29
100
AcDbVisualStyle
  2
Shaded
 70
    27
177
     3
291
     0
 70
    58
 90
        2
176
     1
 90
        2
176
     1
 90
        1
176
     1
 90
        2
176
     1
 40
0.6
176
     1
 40
30.0
176
     1
 62
     7
420
 16777215
176
     1
 90
        0
176
     1
 90
        4
176
     1
 62
     7
176
     1
 62
   257
176
     1
 90
        1
176
     1
 90
        1
176
     1
 40
1.0
176
     1
 90
        8
176
     1
 62
   257
176
     1
 40
1.0
176
     1
 90
        1
176
     1
 90
        6
176
     1
 90
        2
176
     1
 62
     8
420
  7895160
176
     1
 90
        3
176
     1
 90
        0
176
     1
 90
        0
176
     1
290
     0
176
     1
 90
        5
176
     1
 40
0.0
176
     1
 90
        0
176
     1
290
     0
176
     1
290
     1
176
     1
290
     1
176
     1
290
     0
176
     1
290
     0
176
     1
290
     0
176
     1
290
     0
176
     1
290
     0
176
     1
290
     0
176
     1
 90
       50
176
     1
 40
0.0
176
     1
 40
1.0
176
     1
 90
        0
176
     1
 62
    18
420
        0
176
     1
 90
       50
176
     1
 90
        3
176
     1
 62
     5
420
      255
176
     1
290
     0
176
     1
 90
       50
176
     1
 90
       50
176
     1
 90
       50
176
     1
290
     0
176
     1
 90
       50
176
     1
 62
   256
176
     0
 40
1.0
176
     0
 90
        2
176
     1
  1
strokes_ogs.tif
176
     1
290
     0
176
     1
 40
1.0
176
     1
 40
1.0
176
     1
  0
VISUALSTYLE
  5
3D
102
{ACAD_REACTORS
330
29
102
}
330
29
100
AcDbVisualStyle
  2
Shaded with edges
 70
    26
177
     3
291
     0
 70
    58
 90
        2
176
     1
 90
        2
176
     1
 90
        1
176
     1
 90
        2
176
     1
 40
0.6
176
     1
 40
30.0
176
     1
 62
     7
420
 16777215
176
     1
 90
        1
176
     1
 90
        2
176
     1
 62
     7
176
     1
 62
   257
176
     1
 90
        2
176
     1
 90
        1
176
     1
 40
1.0
176
     1
 90
        8
176
     1
 62
   257
176
     1
 40
1.0
176
     1
 90
        1
176
     1
 90
        6
176
     1
 90
        2
176
     1
 62
     7
176
     1
 90
        3
176
     1
 90
        0
176
     1
 90
        0
176
     1
290
     0
176
     1
 90
        5
176
     1
 40
0.0
176
     1
 90
        0
176
     1
290
     0
176
     1
290
     1
176
     1
290
     1
176
     1
290
     0
176
     1
290
     0
176
     1
290
     0
176
     1
290
     0
176
     1
290
     0
176
     1
290
     0
176
     1
 90
       50
176
     1
 40
0.0
176
     1
 40
1.0
176
     1
 90
        0
176
     1
 62
    18
420
        0
176
     1
 90
       50
176
     1
 90
        3
176
     1
 62
     5
420
      255
176
     1
290
     0
176
     1
 90
       50
176
     1
 90
       50
176
     1
 90
       50
176
     1
290
     0
176
     1
 90
       50
176
     1
 62
   256
176
     0
 40
1.0
176
     0
 90
        2
176
     1
  1
strokes_ogs.tif
176
     1
290
     0
176
     1
 40
1.0
176
     1
 40
1.0
176
     1
  0
VISUALSTYLE
  5
3A
102
{ACAD_REACTORS
330
29
102
}
330
29
100
AcDbVisualStyle
  2
Shades of Gray
 70
    23
177
     3
291
     0
 70
    58
 90
        2
176
     1
 90
        2
176
     1
 90
        3
176
     1
 90
        0
176
     1
 40
0.6
176
     1
 40
30.0
176
     1
 62
     7
420
 16777215
176
     1
 90
        2
176
     1
 90
        2
176
     1
 62
     7
176
     1
 62
     7
176
     1
 90
        1
176
     1
 90
        1
176
     1
 40
40.0
176
     1
 90
        8
176
     1
 62
     7
176
     1
 40
1.0
176
     1
 90
        1
176
     1
 90
        6
176
     1
 90
        2
176
     1
 62
     7
176
     1
 90
        3
176
     1
 90
        0
176
     1
 90
        0
176
     1
290
     0
176
     1
 90
        1
176
     1
 40
0.0
176
     1
 90
        0
176
     1
290
     0
176
     1
290
     1
176
     1
290
     1
176
     1
290
     0
176
     1
290
     0
176
     1
290
     0
176
     1
290
     0
176
     1
290
     0
176
     1
290
     0
176
     1
 90
       50
176
     1
 40
0.0
176
     1
 40
1.0
176
     1
 90
        0
176
     1
 62
    18
420
        0
176
     1
 90
       50
176
     1
 90
        3
176
     1
 62
     5
420
      255
176
     1
290
     0
176
     1
 90
       50
176
     1
 90
       50
176
     1
 90
       50
176
     1
290
     0
176
     1
 90
       50
176
     1
 62
   256
176
     0
 40
1.0
176
     0
 90
        2
176
     1
  1
strokes_ogs.tif
176
     1
290
     0
176
     1
 40
1.0
176
     1
 40
1.0
176
     1
  0
VISUALSTYLE
  5
3B
102
{ACAD_REACTORS
330
29
102
}
330
29
100
AcDbVisualStyle
  2
Sketchy
 70
    24
177
     3
291
     0
 70
    58
 90
        1
176
     1
 90
        2
176
     1
 90
        2
176
     1
 90
        0
176
     1
 40
0.6
176
     1
 40
30.0
176
     1
 62
     7
420
 16777215
176
     1
 90
        2
176
     1
 90
        2
176
     1
 62
     7
176
     1
 62
     7
176
     1
 90
        1
176
     1
 90
        1
176
     1
 40
40.0
176
     1
 90
       11
176
     1
 62
     7
176
     1
 40
1.0
176
     1
 90
        1
176
     1
 90
        6
176
     1
 90
        2
176
     1
 62
     7
176
     1
 90
        6
176
     1
 90
        0
176
     1
 90
        0
176
     1
290
     0
176
     1
 90
        1
176
     1
 40
0.0
176
     1
 90
        0
176
     1
290
     0
176
     1
290
     1
176
     1
290
     1
176
     1
290
     0
176
     1
290
     0
176
     1
290
     0
176
     1
290
     0
176
     1
290
     0
176
     1
290
     0
176
     1
 90
       50
176
     1
 40
0.0
176
     1
 40
1.0
176
     1
 90
        0
176
     1
 62
    18
420
        0
176
     1
 90
       50
176
     1
 90
        3
176
     1
 62
     5
420
      255
176
     1
290
     0
176
     1
 90
       50
176
     1
 90
       50
176
     1
 90
       50
176
     1
290
     0
176
     1
 90
       50
176
     1
 62
   256
176
     0
 40
1.0
176
     0
 90
        2
176
     1
  1
strokes_ogs.tif
176
     1
290
     0
176
     1
 40
1.0
176
     1
 40
1.0
176
     1
  0
VISUALSTYLE
  5
36
102
{ACAD_REACTORS
330
29
102
}
330
29
100
AcDbVisualStyle
  2
Thicken
 70
    13
177
     3
291
     1
 70
    58
 90
        2
176
     1
 90
        2
176
     1
 90
        0
176
     1
 90
        0
176
     1
 40
0.6
176
     1
 40
30.0
176
     1
 62
     7
420
 16777215
176
     1
 90
        1
176
     1
 90
        4
176
     1
 62
     7
176
     1
 62
   257
176
     1
 90
        1
176
     1
 90
        1
176
     1
 40
1.0
176
     1
 90
       12
176
     1
 62
     7
176
     1
 40
1.0
176
     1
 90
        1
176
     1
 90
        6
176
     1
 90
        2
176
     1
 62
     7
176
     1
 90
        5
176
     1
 90
        0
176
     1
 90
        0
176
     1
290
     0
176
     1
 90
        1
176
     1
 40
0.0
176
     1
 90
        0
176
     1
290
     0
176
     1
290
     1
176
     1
290
     1
176
     1
290
     0
176
     1
290
     0
176
     1
290
     0
176
     1
290
     0
176
     1
290
     0
176
     1
290
     0
176
     1
 90
       50
176
     1
 40
0.0
176
     1
 40
1.0
176
     1
 90
        0
176
     1
 62
    18
420
        0
176
     1
 90
       50
176
     1
 90
        3
176
     1
 62
     5
420
      255
176
     1
290
     0
176
     1
 90
       50
176
     1
 90
       50
176
     1
 90
       50
176
     1
290
     0
176
     1
 90
       50
176
     1
 62
   256
176
     0
 40
1.0
176
     0
 90
        2
176
     1
  1
strokes_ogs.tif
176
     1
290
     0
176
     1
 40
1.0
176
     1
 40
1.0
176
     1
  0
VISUALSTYLE
  5
30
102
{ACAD_REACTORS
330
29
102
}
330
29
100
AcDbVisualStyle
  2
Wireframe
 70
     5
177
     3
291
     0
 70
    58
 90
        0
176
     1
 90
        2
176
     1
 90
        0
176
     1
 90
        0
176
     1
 40
0.6
176
     1
 40
30.0
176
     1
 62
     7
420
 16777215
176
     1
 90
        1
176
     1
 90
        4
176
     1
 62
     7
176
     1
 62
   257
176
     1
 90
        1
176
     1
 90
        1
176
     1
 40
1.0
176
     1
 90
        0
176
     1
 62
   257
176
     1
 40
1.0
176
     1
 90
        1
176
     1
 90
        6
176
     1
 90
        2
176
     1
 62
     7
176
     1
 90
        3
176
     1
 90
        0
176
     1
 90
        0
176
     1
290
     0
176
     1
 90
        1
176
     1
 40
0.0
176
     1
 90
        0
176
     1
290
     0
176
     1
290
     1
176
     1
290
     1
176
     1
290
     0
176
     1
290
     0
176
     1
290
     0
176
     1
290
     0
176
     1
290
     0
176
     1
290
     0
176
     1
 90
       50
176
     1
 40
0.0
176
     1
 40
1.0
176
     1
 90
        0
176
     1
 62
    18
420
        0
176
     1
 90
       50
176
     1
 90
        3
176
     1
 62
     5
420
      255
176
     1
290
     0
176
     1
 90
       50
176
     1
 90
       50
176
     1
 90
       50
176
     1
290
     0
176
     1
 90
       50
176
     1
 62
   256
176
     0
 40
1.0
176
     0
 90
        2
176
     1
  1
strokes_ogs.tif
176
     1
290
     0
176
     1
 40
1.0
176
     1
 40
1.0
176
     1
  0
VISUALSTYLE
  5
3C
102
{ACAD_REACTORS
330
29
102
}
330
29
100
AcDbVisualStyle
  2
X-Ray
 70
    25
177
     3
291
     0
 70
    58
 90
        2
176
     1
 90
        2
176
     1
 90
        1
176
     1
 90
        1
176
     1
 40
0.5
176
     1
 40
30.0
176
     1
 62
     7
420
 16777215
176
     1
 90
        1
176
     1
 90
        0
176
     1
 62
     7
176
     1
 62
   257
176
     1
 90
        1
176
     1
 90
        1
176
     1
 40
1.0
176
     1
 90
        8
176
     1
 62
     7
176
     1
 40
1.0
176
     1
 90
        1
176
     1
 90
        6
176
     1
 90
        2
176
     1
 62
     7
176
     1
 90
        3
176
     1
 90
        0
176
     1
 90
        0
176
     1
290
     0
176
     1
 90
       13
176
     1
 40
0.0
176
     1
 90
        0
176
     1
290
     0
176
     1
290
     1
176
     1
290
     1
176
     1
290
     0
176
     1
290
     0
176
     1
290
     0
176
     1
290
     0
176
     1
290
     0
176
     1
290
     0
176
     1
 90
       50
176
     1
 40
0.0
176
     1
 40
1.0
176
     1
 90
        0
176
     1
 62
    18
420
        0
176
     1
 90
       50
176
     1
 90
        3
176
     1
 62
     5
420
      255
176
     1
290
     0
176
     1
 90
       50
176
     1
 90
       50
176
     1
 90
       50
176
     1
290
     0
176
     1
 90
       50
176
     1
 62
   256
176
     0
 40
1.0
176
     0
 90
        2
176
     1
  1
strokes_ogs.tif
176
     1
290
     0
176
     1
 40
1.0
176
     1
 40
1.0
176
     1
  0
DICTIONARYVAR
  5
F6
102
{ACAD_REACTORS
330
F1
102
}
330
F1
100
DictionaryVariables
280
     0
  1
1:1
  0
DICTIONARYVAR
  5
F3
102
{ACAD_REACTORS
330
F1
102
}
330
F1
100
DictionaryVariables
280
     0
  1
STANDARD
  0
DICTIONARYVAR
  5
F2
102
{ACAD_REACTORS
330
F1
102
}
330
F1
100
DictionaryVariables
280
     0
  1
STANDARD
  0
DICTIONARYVAR
  5
F4
102
{ACAD_REACTORS
330
F1
102
}
330
F1
100
DictionaryVariables
280
     0
  1
Imperial24
  0
DICTIONARYVAR
  5
F5
102
{ACAD_REACTORS
330
F1
102
}
330
F1
100
DictionaryVariables
280
     0
  1
Imperial24
  0
XRECORD
  5
ED
102
{ACAD_REACTORS
330
E9
102
}
330
E9
100
AcDbXrecord
280
     1
  1
BUILDING_ID
  1
Casa à rua Direita (Praça das Mães), nº32, Pilar de Goiás, GO
  1
FLOOR_ID
  1
22925289
  0
XRECORD
  5
EB
102
{ACAD_REACTORS
330
E9
102
}
330
E9
100
AcDbXrecord
280
     1
  1
-2000051
  1
Linhas
  1
-2000280
  1
Blocos de margens e carimbo
  1
-2002000
  1
Itens de detalhe
  1
22903254
  1
page_1_a16b42ee5fb64c5f015ac54525f77bf5_65c64eee2528f.dwg
  0
XRECORD
  5
EC
102
{ACAD_REACTORS
330
E9
102
}
330
E9
100
AcDbXrecord
280
     1
  1
-2000042
  1
<Linhas finas>
  1
-2000281
  1
<Linhas finas>
  1
22903256
  1
0
  0
XRECORD
  5
EA
102
{ACAD_REACTORS
330
E9
102
}
330
E9
100
AcDbXrecord
280
     1
  1
22903253
  1
Símbolo de importação : page_1_a16b42ee5fb64c5f015ac54525f77bf5_65c64eee2528f.dwg
  1
22933234
  1
A4 HORIZONTAL : A4
  1
383807
  1
Região preenchida : Marcenaria corte
  0
DICTIONARY
  5
1A
330
19
100
AcDbDictionary
280
     1
281
     1
  3
BUMPTILE
360
1C
  3
DIFFUSETILE
360
1B
  3
OPACITYTILE
360
1F
  3
REFLECTIONTILE
360
1E
  3
REFRACTIONTILE
360
20
  3
SPECULARTILE
360
1D
  0
DICTIONARY
  5
12
330
11
100
AcDbDictionary
280
     1
281
     1
  3
BUMPTILE
360
14
  3
DIFFUSETILE
360
13
  3
OPACITYTILE
360
17
  3
REFLECTIONTILE
360
16
  3
REFRACTIONTILE
360
18
  3
SPECULARTILE
360
15
  0
DICTIONARY
  5
22
330
21
100
AcDbDictionary
280
     1
281
     1
  3
BUMPTILE
360
24
  3
DIFFUSETILE
360
23
  3
OPACITYTILE
360
27
  3
REFLECTIONTILE
360
26
  3
REFRACTIONTILE
360
28
  3
SPECULARTILE
360
25
  0
DICTIONARY
  5
176
330
65
100
AcDbDictionary
280
     1
281
     1
  3
ACAD_ROUNDTRIP_2008_TABLESTYLE_CELLSTYLEMAP
360
177
  0
XRECORD
  5
1C
102
{ACAD_REACTORS
330
1A
102
}
330
1A
100
AcDbXrecord
280
     1
270
     1
271
     1
  0
XRECORD
  5
1B
102
{ACAD_REACTORS
330
1A
102
}
330
1A
100
AcDbXrecord
280
     1
270
     1
271
     1
  0
XRECORD
  5
1F
102
{ACAD_REACTORS
330
1A
102
}
330
1A
100
AcDbXrecord
280
     1
270
     1
271
     1
  0
XRECORD
  5
1E
102
{ACAD_REACTORS
330
1A
102
}
330
1A
100
AcDbXrecord
280
     1
270
     1
271
     1
  0
XRECORD
  5
20
102
{ACAD_REACTORS
330
1A
102
}
330
1A
100
AcDbXrecord
280
     1
270
     1
271
     1
  0
XRECORD
  5
1D
102
{ACAD_REACTORS
330
1A
102
}
330
1A
100
AcDbXrecord
280
     1
270
     1
271
     1
  0
XRECORD
  5
14
102
{ACAD_REACTORS
330
12
102
}
330
12
100
AcDbXrecord
280
     1
270
     1
271
     1
  0
XRECORD
  5
13
102
{ACAD_REACTORS
330
12
102
}
330
12
100
AcDbXrecord
280
     1
270
     1
271
     1
  0
XRECORD
  5
17
102
{ACAD_REACTORS
330
12
102
}
330
12
100
AcDbXrecord
280
     1
270
     1
271
     1
  0
XRECORD
  5
16
102
{ACAD_REACTORS
330
12
102
}
330
12
100
AcDbXrecord
280
     1
270
     1
271
     1
  0
XRECORD
  5
18
102
{ACAD_REACTORS
330
12
102
}
330
12
100
AcDbXrecord
280
     1
270
     1
271
     1
  0
XRECORD
  5
15
102
{ACAD_REACTORS
330
12
102
}
330
12
100
AcDbXrecord
280
     1
270
     1
271
     1
  0
XRECORD
  5
24
102
{ACAD_REACTORS
330
22
102
}
330
22
100
AcDbXrecord
280
     1
270
     1
271
     1
  0
XRECORD
  5
23
102
{ACAD_REACTORS
330
22
102
}
330
22
100
AcDbXrecord
280
     1
270
     1
271
     1
  0
XRECORD
  5
27
102
{ACAD_REACTORS
330
22
102
}
330
22
100
AcDbXrecord
280
     1
270
     1
271
     1
  0
XRECORD
  5
26
102
{ACAD_REACTORS
330
22
102
}
330
22
100
AcDbXrecord
280
     1
270
     1
271
     1
  0
XRECORD
  5
28
102
{ACAD_REACTORS
330
22
102
}
330
22
100
AcDbXrecord
280
     1
270
     1
271
     1
  0
XRECORD
  5
25
102
{ACAD_REACTORS
330
22
102
}
330
22
100
AcDbXrecord
280
     1
270
     1
271
     1
  0
CELLSTYLEMAP
  5
177
102
{ACAD_REACTORS
330
176
102
}
330
176
100
AcDbCellStyleMap
 90
        3
300
CELLSTYLE
  1
TABLEFORMAT_BEGIN
 90
        5
170
     1
 91
        0
 92
    32768
 62
   257
 93
        1
300
CONTENTFORMAT
  1
CONTENTFORMAT_BEGIN
 90
        0
 91
        0
 92
      512
 93
        0
300

 40
0.0
140
1.0
 94
        5
 62
     0
340
55
144
0.25
309
CONTENTFORMAT_END
171
     0
 94
        0
309
TABLEFORMAT_END
  1
CELLSTYLE_BEGIN
 90
        1
 91
        1
300
_TITLE
309
CELLSTYLE_END
300
CELLSTYLE
  1
TABLEFORMAT_BEGIN
 90
        5
170
     1
 91
        0
 92
        0
 62
   257
 93
        1
300
CONTENTFORMAT
  1
CONTENTFORMAT_BEGIN
 90
        0
 91
        0
 92
      512
 93
        0
300

 40
0.0
140
1.0
 94
        5
 62
     0
340
55
144
0.18
309
CONTENTFORMAT_END
171
     0
 94
        0
309
TABLEFORMAT_END
  1
CELLSTYLE_BEGIN
 90
        2
 91
        1
300
_HEADER
309
CELLSTYLE_END
300
CELLSTYLE
  1
TABLEFORMAT_BEGIN
 90
        5
170
     1
 91
        0
 92
        0
 62
   257
 93
        1
300
CONTENTFORMAT
  1
CONTENTFORMAT_BEGIN
 90
        0
 91
        0
 92
      512
 93
        0
300

 40
0.0
140
1.0
 94
        2
 62
     0
340
55
144
0.18
309
CONTENTFORMAT_END
171
     0
 94
        0
309
TABLEFORMAT_END
  1
CELLSTYLE_BEGIN
 90
        3
 91
        2
300
_DATA
309
CELLSTYLE_END
  0
ENDSEC
  0
SECTION
  2
ACDSDATA
 70
     2
 71
     8
  0
ACDSSCHEMA
 90
        0
  1
AcDb_Thumbnail_Schema
  2
AcDbDs::ID
280
    10
 91
        8
  2
Thumbnail_Data
280
    15
 91
        0
101
ACDSRECORD
 95
        0
 90
        1
  2
AcDbDs::TreatedAsObjectData
280
     1
291
     1
101
ACDSRECORD
 95
        0
 90
        2
  2
AcDbDs::Legacy
280
     1
291
     1
101
ACDSRECORD
  1
AcDbDs::ID
 90
        3
  2
AcDs:Indexable
280
     1
291
     1
101
ACDSRECORD
  1
AcDbDs::ID
 90
        4
  2
AcDbDs::HandleAttribute
280
     7
282
     1
  0
ACDSSCHEMA
 90
        1
  1
AcDbDs::TreatedAsObjectDataSchema
  2
AcDbDs::TreatedAsObjectData
280
     1
 91
        0
  0
ACDSSCHEMA
 90
        2
  1
AcDbDs::LegacySchema
  2
AcDbDs::Legacy
280
     1
 91
        0
  0
ACDSSCHEMA
 90
        3
  1
AcDbDs::IndexedPropertySchema
  2
AcDs:Indexable
280
     1
 91
        0
  0
ACDSSCHEMA
 90
        4
  1
AcDbDs::HandleAttributeSchema
  2
AcDbDs::HandleAttribute
280
     7
 91
        1
284
     1
  0
ACDSRECORD
 90
        0
  2
AcDbDs::ID
280
    10
320
6F
  2
Thumbnail_Data
280
    15
 94
     1338
310
89504E470D0A1A0A0000000D4948445200000100000000B5080300000087DCD12600000300504C5445FFFFFFFFFFFFFFFFFF0000000000000000000000000000000000000000000000000000330000660000990000CC0000FF0033000033330033660033990033CC0033FF0066000066330066660066990066CC0066FF0099
310
000099330099660099990099CC0099FF00CC0000CC3300CC6600CC9900CCCC00CCFF00FF0000FF3300FF6600FF9900FFCC00FFFF3300003300333300663300993300CC3300FF3333003333333333663333993333CC3333FF3366003366333366663366993366CC3366FF3399003399333399663399993399CC3399FF33CC00
310
33CC3333CC6633CC9933CCCC33CCFF33FF0033FF3333FF6633FF9933FFCC33FFFF6600006600336600666600996600CC6600FF6633006633336633666633996633CC6633FF6666006666336666666666996666CC6666FF6699006699336699666699996699CC6699FF66CC0066CC3366CC6666CC9966CCCC66CCFF66FF0066
310
FF3366FF6666FF9966FFCC66FFFF9900009900339900669900999900CC9900FF9933009933339933669933999933CC9933FF9966009966339966669966999966CC9966FF9999009999339999669999999999CC9999FF99CC0099CC3399CC6699CC9999CCCC99CCFF99FF0099FF3399FF6699FF9999FFCC99FFFFCC0000CC00
310
33CC0066CC0099CC00CCCC00FFCC3300CC3333CC3366CC3399CC33CCCC33FFCC6600CC6633CC6666CC6699CC66CCCC66FFCC9900CC9933CC9966CC9999CC99CCCC99FFCCCC00CCCC33CCCC66CCCC99CCCCCCCCCCFFCCFF00CCFF33CCFF66CCFF99CCFFCCCCFFFFFF0000FF0033FF0066FF0099FF00CCFF00FFFF3300FF3333
310
FF3366FF3399FF33CCFF33FFFF6600FF6633FF6666FF6699FF66CCFF66FFFF9900FF9933FF9966FF9999FF99CCFF99FFFFCC00FFCC33FFCC66FFCC99FFCCCCFFCCFFFFFF00FFFF33FFFF66FFFF99FFFFCCFFFFFF0000000D0D0D1A1A1A2828283535354343435050505D5D5D6B6B6B787878868686939393A1A1A1AEAEAEBB
310
BBBBC9C9C9D6D6D6E4E4E4F1F1F1FFFFFF000000000000000000000000000000000000000000000000000000000000AD4AB4E4000001F54944415478DAEDDD518E82301000504ED4AB79B0BD1A87D8C4DD55C40A85A58476DE7CA8F107E775988E26A6C32D780CB72174000000000000000000000000000000000000000000
310
000000000000000000000000000000000000000000000000000000000000000000000000000000000000000000000000006100BE9A8BA3015A5B5700000000E81020A5141820FD454C80348D6800CFC4A78F41005E57FDFE5452097D00BC2FF7E3D51A42FB003FB9FD96FCF00630D5C921540648E5FBD1DEF427574939803B
310
CB04E97C804A0899663F2981F79BE15108E7026CDB94B795FDEB8E5718F319A93A406133DED3F01E65BD9160381B60F3745632E2A4D90572BD21F7FED93D60EF845A3ADFB504F08F9B217DE860CD013C93D9B3F48B09CD3784EB022C7CBA61A15ED6129AF5848B039427BF72337509902FF828001F1B44CA8EC03D5640D927
310
0700A01180540DA0912608A01240338350765B0B0590FD3A10AC02D6A6BACE0132575501A17A40F45DE03480FC0F220B67C6B407B0E7689CF153D405A873CECF78645406182F1F00000068AE091E7C74DA29DBE0F503000000C70244FFC344C701000000000000000000000000000000000000000000000000000000000000
310
000000000000000000000000000000000000000000000000000000000000000000000000000000F401103C8631787C03C3BF552ECA8CF55F0000000049454E44AE426082
  0
ACDSRECORD
 90
        0
  2
AcDbDs::ID
280
    10
320
73
  2
Thumbnail_Data
280
    15
 94
      984
310
89504E470D0A1A0A0000000D494844520000010000000065080300000095E2CD0900000300504C5445FFFFFFFFFFFFFFFFFF0000000000000000000000000000000000000000000000000000330000660000990000CC0000FF0033000033330033660033990033CC0033FF0066000066330066660066990066CC0066FF0099
310
000099330099660099990099CC0099FF00CC0000CC3300CC6600CC9900CCCC00CCFF00FF0000FF3300FF6600FF9900FFCC00FFFF3300003300333300663300993300CC3300FF3333003333333333663333993333CC3333FF3366003366333366663366993366CC3366FF3399003399333399663399993399CC3399FF33CC00
310
33CC3333CC6633CC9933CCCC33CCFF33FF0033FF3333FF6633FF9933FFCC33FFFF6600006600336600666600996600CC6600FF6633006633336633666633996633CC6633FF6666006666336666666666996666CC6666FF6699006699336699666699996699CC6699FF66CC0066CC3366CC6666CC9966CCCC66CCFF66FF0066
310
FF3366FF6666FF9966FFCC66FFFF9900009900339900669900999900CC9900FF9933009933339933669933999933CC9933FF9966009966339966669966999966CC9966FF9999009999339999669999999999CC9999FF99CC0099CC3399CC6699CC9999CCCC99CCFF99FF0099FF3399FF6699FF9999FFCC99FFFFCC0000CC00
310
33CC0066CC0099CC00CCCC00FFCC3300CC3333CC3366CC3399CC33CCCC33FFCC6600CC6633CC6666CC6699CC66CCCC66FFCC9900CC9933CC9966CC9999CC99CCCC99FFCCCC00CCCC33CCCC66CCCC99CCCCCCCCCCFFCCFF00CCFF33CCFF66CCFF99CCFFCCCCFFFFFF0000FF0033FF0066FF0099FF00CCFF00FFFF3300FF3333
310
FF3366FF3399FF33CCFF33FFFF6600FF6633FF6666FF6699FF66CCFF66FFFF9900FF9933FF9966FF9999FF99CCFF99FFFFCC00FFCC33FFCC66FFCC99FFCCCCFFCCFFFFFF00FFFF33FFFF66FFFF99FFFFCCFFFFFF0000000D0D0D1A1A1A2828283535354343435050505D5D5D6B6B6B787878868686939393A1A1A1AEAEAEBB
310
BBBBC9C9C9D6D6D6E4E4E4F1F1F1FFFFFF000000000000000000000000000000000000000000000000000000000000AD4AB4E4000000594944415478DAEDD0510D80400C05C12AAA7F3D2881A4E4C27D9C00F2661CEC5601000000000000F00BFD08EBDDE347D080B5A0BF9206544FFEBC98F8A401FD0E98EAB801D7890100
310
000000000000000000000000000000996EE06D36359DDC6A900000000049454E44AE42608257227201F9B280E00B58EF7DA780F2082A206001DD3B010AE8DFE82C00000000000000800F0C5D0F94185EB5ECBA0000000049454E44AE426082
  0
ENDSEC
  0
EOF
