  0
SECTION
  2
HEADER
  9
$ACADVER
  1
AC1032
  9
$ACADMAINTVER
 90
      204
  9
$DWGCODEPAGE
  3
ANSI_1252
  9
$LASTSAVEDBY
  1
duda-
  9
$REQUIREDVERSIONS
160
                 0
  9
$INSBASE
 10
0.0
 20
0.0
 30
0.0
  9
$EXTMIN
 10
-1134.170819987637
 20
-11460.94554112213
 30
0.0
  9
$EXTMAX
 10
20207.78837989432
 20
-4134.035186501805
 30
0.0
  9
$LIMMIN
 10
0.0
 20
0.0
  9
$LIMMAX
 10
12.0
 20
9.0
  9
$ORTHOMODE
 70
     0
  9
$REGENMODE
 70
     1
  9
$FILLMODE
 70
     1
  9
$QTEXTMODE
 70
     0
  9
$MIRRTEXT
 70
     0
  9
$LTSCALE
 40
1.0
  9
$ATTMODE
 70
     1
  9
$TEXTSIZE
 40
0.2
  9
$TRACEWID
 40
0.05
  9
$TEXTSTYLE
  7
Standard
  9
$CLAYER
  8
0
  9
$CELTYPE
  6
ByLayer
  9
$CECOLOR
 62
   256
  9
$CELTSCALE
 40
1.0
  9
$DISPSILH
 70
     0
  9
$DIMSCALE
 40
1.0
  9
$DIMASZ
 40
0.18
  9
$DIMEXO
 40
0.0625
  9
$DIMDLI
 40
0.38
  9
$DIMRND
 40
0.0
  9
$DIMDLE
 40
0.0
  9
$DIMEXE
 40
0.18
  9
$DIMTP
 40
0.0
  9
$DIMTM
 40
0.0
  9
$DIMTXT
 40
0.18
  9
$DIMCEN
 40
0.09
  9
$DIMTSZ
 40
0.0
  9
$DIMTOL
 70
     0
  9
$DIMLIM
 70
     0
  9
$DIMTIH
 70
     1
  9
$DIMTOH
 70
     1
  9
$DIMSE1
 70
     0
  9
$DIMSE2
 70
     0
  9
$DIMTAD
 70
     0
  9
$DIMZIN
 70
     0
  9
$DIMBLK
  1

  9
$DIMASO
 70
     1
  9
$DIMSHO
 70
     1
  9
$DIMPOST
  1

  9
$DIMAPOST
  1

  9
$DIMALT
 70
     0
  9
$DIMALTD
 70
     2
  9
$DIMALTF
 40
25.4
  9
$DIMLFAC
 40
1.0
  9
$DIMTOFL
 70
     0
  9
$DIMTVP
 40
0.0
  9
$DIMTIX
 70
     0
  9
$DIMSOXD
 70
     0
  9
$DIMSAH
 70
     0
  9
$DIMBLK1
  1

  9
$DIMBLK2
  1

  9
$DIMSTYLE
  2
Standard
  9
$DIMCLRD
 70
     0
  9
$DIMCLRE
 70
     0
  9
$DIMCLRT
 70
     0
  9
$DIMTFAC
 40
1.0
  9
$DIMGAP
 40
0.09
  9
$DIMJUST
 70
     0
  9
$DIMSD1
 70
     0
  9
$DIMSD2
 70
     0
  9
$DIMTOLJ
 70
     1
  9
$DIMTZIN
 70
     0
  9
$DIMALTZ
 70
     0
  9
$DIMALTTZ
 70
     0
  9
$DIMUPT
 70
     0
  9
$DIMDEC
 70
     4
  9
$DIMTDEC
 70
     4
  9
$DIMALTU
 70
     2
  9
$DIMALTTD
 70
     2
  9
$DIMTXSTY
  7
Standard
  9
$DIMAUNIT
 70
     0
  9
$DIMADEC
 70
     0
  9
$DIMALTRND
 40
0.0
  9
$DIMAZIN
 70
     0
  9
$DIMDSEP
 70
    46
  9
$DIMATFIT
 70
     3
  9
$DIMFRAC
 70
     0
  9
$DIMLDRBLK
  1

  9
$DIMLUNIT
 70
     2
  9
$DIMLWD
 70
    -2
  9
$DIMLWE
 70
    -2
  9
$DIMTMOVE
 70
     0
  9
$DIMFXL
 40
1.0
  9
$DIMFXLON
 70
     0
  9
$DIMJOGANG
 40
0.7853981633974483
  9
$DIMTFILL
 70
     0
  9
$DIMTFILLCLR
 70
     0
  9
$DIMARCSYM
 70
     0
  9
$DIMLTYPE
  6

  9
$DIMLTEX1
  6

  9
$DIMLTEX2
  6

  9
$DIMTXTDIRECTION
 70
     0
  9
$LUNITS
 70
     2
  9
$LUPREC
 70
     4
  9
$SKETCHINC
 40
0.1
  9
$FILLETRAD
 40
0.0
  9
$AUNITS
 70
     0
  9
$AUPREC
 70
     0
  9
$MENU
  1
.
  9
$ELEVATION
 40
0.0
  9
$PELEVATION
 40
0.0
  9
$THICKNESS
 40
0.0
  9
$LIMCHECK
 70
     0
  9
$CHAMFERA
 40
0.0
  9
$CHAMFERB
 40
0.0
  9
$CHAMFERC
 40
0.0
  9
$CHAMFERD
 40
0.0
  9
$SKPOLY
 70
     0
  9
$TDCREATE
 40
2460730.503680556
  9
$TDUCREATE
 40
2460730.628680556
  9
$TDUPDATE
 40
2460738.927592593
  9
$TDUUPDATE
 40
2460739.052592593
  9
$TDINDWG
 40
0.0185532407
  9
$TDUSRTIMER
 40
0.0185532407
  9
$USRTIMER
 70
     1
  9
$ANGBASE
 50
0.0
  9
$ANGDIR
 70
     0
  9
$PDMODE
 70
     0
  9
$PDSIZE
 40
0.0
  9
$PLINEWID
 40
0.0
  9
$SPLFRAME
 70
     0
  9
$SPLINETYPE
 70
     6
  9
$SPLINESEGS
 70
     8
  9
$HANDSEED
  5
470
  9
$SURFTAB1
 70
     6
  9
$SURFTAB2
 70
     6
  9
$SURFTYPE
 70
     6
  9
$SURFU
 70
     6
  9
$SURFV
 70
     6
  9
$UCSBASE
  2

  9
$UCSNAME
  2

  9
$UCSORG
 10
0.0
 20
0.0
 30
0.0
  9
$UCSXDIR
 10
1.0
 20
0.0
 30
0.0
  9
$UCSYDIR
 10
0.0
 20
1.0
 30
0.0
  9
$UCSORTHOREF
  2

  9
$UCSORTHOVIEW
 70
     0
  9
$UCSORGTOP
 10
0.0
 20
0.0
 30
0.0
  9
$UCSORGBOTTOM
 10
0.0
 20
0.0
 30
0.0
  9
$UCSORGLEFT
 10
0.0
 20
0.0
 30
0.0
  9
$UCSORGRIGHT
 10
0.0
 20
0.0
 30
0.0
  9
$UCSORGFRONT
 10
0.0
 20
0.0
 30
0.0
  9
$UCSORGBACK
 10
0.0
 20
0.0
 30
0.0
  9
$PUCSBASE
  2

  9
$PUCSNAME
  2

  9
$PUCSORG
 10
0.0
 20
0.0
 30
0.0
  9
$PUCSXDIR
 10
1.0
 20
0.0
 30
0.0
  9
$PUCSYDIR
 10
0.0
 20
1.0
 30
0.0
  9
$PUCSORTHOREF
  2

  9
$PUCSORTHOVIEW
 70
     0
  9
$PUCSORGTOP
 10
0.0
 20
0.0
 30
0.0
  9
$PUCSORGBOTTOM
 10
0.0
 20
0.0
 30
0.0
  9
$PUCSORGLEFT
 10
0.0
 20
0.0
 30
0.0
  9
$PUCSORGRIGHT
 10
0.0
 20
0.0
 30
0.0
  9
$PUCSORGFRONT
 10
0.0
 20
0.0
 30
0.0
  9
$PUCSORGBACK
 10
0.0
 20
0.0
 30
0.0
  9
$USERI1
 70
     0
  9
$USERI2
 70
     0
  9
$USERI3
 70
     0
  9
$USERI4
 70
     0
  9
$USERI5
 70
     0
  9
$USERR1
 40
0.0
  9
$USERR2
 40
0.0
  9
$USERR3
 40
0.0
  9
$USERR4
 40
0.0
  9
$USERR5
 40
0.0
  9
$WORLDVIEW
 70
     1
  9
$SHADEDGE
 70
     3
  9
$SHADEDIF
 70
    70
  9
$TILEMODE
 70
     1
  9
$MAXACTVP
 70
    64
  9
$PINSBASE
 10
0.0
 20
0.0
 30
0.0
  9
$PLIMCHECK
 70
     0
  9
$PEXTMIN
 10
29.69999999999999
 20
20.98886566162111
 30
0.0
  9
$PEXTMAX
 10
267.3
 20
188.8997909545898
 30
0.0
  9
$PLIMMIN
 10
0.0
 20
0.0
  9
$PLIMMAX
 10
297.0
 20
210.0
  9
$UNITMODE
 70
     0
  9
$VISRETAIN
 70
     1
  9
$PLINEGEN
 70
     0
  9
$PSLTSCALE
 70
     1
  9
$TREEDEPTH
 70
  3020
  9
$CMLSTYLE
  2
Standard
  9
$CMLJUST
 70
     0
  9
$CMLSCALE
 40
1.0
  9
$PROXYGRAPHICS
 70
     1
  9
$MEASUREMENT
 70
     1
  9
$CELWEIGHT
370
    -1
  9
$ENDCAPS
280
     0
  9
$JOINSTYLE
280
     0
  9
$LWDISPLAY
290
     0
  9
$INSUNITS
 70
     4
  9
$HYPERLINKBASE
  1

  9
$STYLESHEET
  1

  9
$XEDIT
290
     1
  9
$CEPSNTYPE
380
     0
  9
$PSTYLEMODE
290
     1
  9
$FINGERPRINTGUID
  2
{33124F7E-5B82-AB4C-A6DD-F32FA4792F91}
  9
$VERSIONGUID
  2
{7614D3DC-28E7-5F4C-8534-6B70270602DB}
  9
$EXTNAMES
290
     1
  9
$PSVPSCALE
 40
0.0
  9
$OLESTARTUP
290
     0
  9
$SORTENTS
280
   127
  9
$INDEXCTL
280
     0
  9
$HIDETEXT
280
     1
  9
$XCLIPFRAME
280
     2
  9
$HALOGAP
280
     0
  9
$OBSCOLOR
 70
   257
  9
$OBSLTYPE
280
     0
  9
$INTERSECTIONDISPLAY
280
     0
  9
$INTERSECTIONCOLOR
 70
   257
  9
$DIMASSOC
280
     2
  9
$PROJECTNAME
  1

  9
$CAMERADISPLAY
290
     0
  9
$LENSLENGTH
 40
50.0
  9
$CAMERAHEIGHT
 40
0.0
  9
$STEPSPERSEC
 40
2.0
  9
$STEPSIZE
 40
6.0
  9
$3DDWFPREC
 40
2.0
  9
$PSOLWIDTH
 40
0.25
  9
$PSOLHEIGHT
 40
4.0
  9
$LOFTANG1
 40
1.570796326794896
  9
$LOFTANG2
 40
1.570796326794896
  9
$LOFTMAG1
 40
0.0
  9
$LOFTMAG2
 40
0.0
  9
$LOFTPARAM
 70
     7
  9
$LOFTNORMALS
280
     1
  9
$LATITUDE
 40
0.0
  9
$LONGITUDE
 40
0.0
  9
$NORTHDIRECTION
 40
0.0
  9
$TIMEZONE
 70
     0
  9
$LIGHTGLYPHDISPLAY
280
     1
  9
$TILEMODELIGHTSYNCH
280
     1
  9
$CMATERIAL
347
11
  9
$SOLIDHIST
280
     0
  9
$SHOWHIST
280
     1
  9
$DWFFRAME
280
     2
  9
$DGNFRAME
280
     0
  9
$REALWORLDSCALE
290
     1
  9
$INTERFERECOLOR
 62
     1
  9
$INTERFEREOBJVS
345
33
  9
$INTERFEREVPVS
346
30
  9
$CSHADOW
280
     0
  9
$SHADOWPLANELOCATION
 40
0.0
  0
ENDSEC
  0
SECTION
  2
CLASSES
  0
CLASS
  1
ACDBDICTIONARYWDFLT
  2
AcDbDictionaryWithDefault
  3
ObjectDBX Classes
 90
        0
 91
        1
280
     0
281
     0
  0
CLASS
  1
MATERIAL
  2
AcDbMaterial
  3
ObjectDBX Classes
 90
     1153
 91
        3
280
     0
281
     0
  0
CLASS
  1
VISUALSTYLE
  2
AcDbVisualStyle
  3
ObjectDBX Classes
 90
     4095
 91
       24
280
     0
281
     0
  0
CLASS
  1
SCALE
  2
AcDbScale
  3
ObjectDBX Classes
 90
     1153
 91
       17
280
     0
281
     0
  0
CLASS
  1
TABLESTYLE
  2
AcDbTableStyle
  3
ObjectDBX Classes
 90
     4095
 91
        1
280
     0
281
     0
  0
CLASS
  1
MLEADERSTYLE
  2
AcDbMLeaderStyle
  3
ACDB_MLEADERSTYLE_CLASS
 90
     4095
 91
        1
280
     0
281
     0
  0
CLASS
  1
ACDBSECTIONVIEWSTYLE
  2
AcDbSectionViewStyle
  3
ObjectDBX Classes
 90
     1025
 91
        2
280
     0
281
     0
  0
CLASS
  1
ACDBDETAILVIEWSTYLE
  2
AcDbDetailViewStyle
  3
ObjectDBX Classes
 90
     1025
 91
        2
280
     0
281
     0
  0
CLASS
  1
RASTERVARIABLES
  2
AcDbRasterVariables
  3
ISM
 90
        0
 91
        1
280
     0
281
     0
  0
CLASS
  1
DICTIONARYVAR
  2
AcDbDictionaryVar
  3
ObjectDBX Classes
 90
        0
 91
        5
280
     0
281
     0
  0
CLASS
  1
SORTENTSTABLE
  2
AcDbSortentsTable
  3
ObjectDBX Classes
 90
        0
 91
        1
280
     0
281
     0
  0
CLASS
  1
SUN
  2
AcDbSun
  3
SCENEOE
 90
     1153
 91
        1
280
     0
281
     0
  0
CLASS
  1
RAPIDRTRENDERSETTINGS
  2
AcDbRapidRTRenderSettings
  3
ObjectDBX Classes
 90
     1024
 91
        7
280
     0
281
     0
  0
CLASS
  1
CELLSTYLEMAP
  2
AcDbCellStyleMap
  3
ObjectDBX Classes
 90
     1152
 91
        1
280
     0
281
     0
  0
ENDSEC
  0
SECTION
  2
TABLES
  0
TABLE
  2
VPORT
  5
8
330
0
100
AcDbSymbolTable
 70
     1
  0
VPORT
  5
57
330
8
100
AcDbSymbolTableRecord
100
AcDbViewportTableRecord
  2
*Active
 70
     0
 10
0.0
 20
0.0
 11
1.0
 21
1.0
 12
13131.29610809585
 22
-9256.784581544044
 13
0.0
 23
0.0
 14
1.0
 24
1.0
 15
0.0
 25
0.0
 16
0.0
 26
0.0
 36
1.0
 17
0.0
 27
0.0
 37
0.0
 40
16602.77059964917
 41
2.159362549800796
 42
50.0
 43
0.0
 44
0.0
 50
0.0
 51
0.0
 71
     0
 72
  1000
 73
     1
 74
     1
 75
     0
 76
     0
 77
     0
 78
     0
281
     0
 65
     1
110
0.0
120
0.0
130
0.0
111
1.0
121
0.0
131
0.0
112
0.0
122
1.0
132
0.0
 79
     0
146
0.0
348
2F
 60
     3
 61
     5
292
     1
282
     1
141
0.0
142
0.0
 63
   250
421
  3355443
361
38D
1001
ACAD_NAV_VCDISPLAY
1070
     3
  0
ENDTAB
  0
TABLE
  2
LTYPE
  5
5
330
0
100
AcDbSymbolTable
 70
     1
  0
LTYPE
  5
5B
330
5
100
AcDbSymbolTableRecord
100
AcDbLinetypeTableRecord
  2
ByBlock
 70
     0
  3

 72
    65
 73
     0
 40
0.0
  0
LTYPE
  5
5C
330
5
100
AcDbSymbolTableRecord
100
AcDbLinetypeTableRecord
  2
ByLayer
 70
     0
  3

 72
    65
 73
     0
 40
0.0
  0
LTYPE
  5
5D
330
5
100
AcDbSymbolTableRecord
100
AcDbLinetypeTableRecord
  2
Continuous
 70
     0
  3
Solid line
 72
    65
 73
     0
 40
0.0
  0
ENDTAB
  0
TABLE
  2
LAYER
  5
2
102
{ACAD_XDICTIONARY
360
3AA
102
}
330
0
100
AcDbSymbolTable
 70
     8
  0
LAYER
  5
54
330
2
100
AcDbSymbolTableRecord
100
AcDbLayerTableRecord
  2
0
 70
     0
 62
   250
  6
Continuous
370
    25
390
F
347
21
348
0
  0
LAYER
  5
81
330
2
100
AcDbSymbolTableRecord
100
AcDbLayerTableRecord
  2
A-BAS-___-___-EXI
 70
     0
 62
   250
  6
Continuous
370
    25
390
F
347
21
348
0
  0
LAYER
  5
105
330
2
100
AcDbSymbolTableRecord
100
AcDbLayerTableRecord
  2
A-ALV-___-___-EXI
 70
     0
 62
   250
  6
Continuous
370
    25
390
F
347
21
348
0
  0
LAYER
  5
376
330
2
100
AcDbSymbolTableRecord
100
AcDbLayerTableRecord
  2
A-PIL-___-___-EXI
 70
     0
 62
   250
  6
Continuous
370
    25
390
F
347
21
348
0
  0
LAYER
  5
37C
330
2
100
AcDbSymbolTableRecord
100
AcDbLayerTableRecord
  2
A-ESC-___-___-EXI
 70
     0
 62
   250
  6
Continuous
370
    25
390
F
347
21
348
0
  0
LAYER
  5
37E
330
2
100
AcDbSymbolTableRecord
100
AcDbLayerTableRecord
  2
A-COB-___-___-EXI
 70
     0
 62
   250
  6
Continuous
370
    25
390
F
347
21
348
0
  0
LAYER
  5
41E
330
2
100
AcDbSymbolTableRecord
100
AcDbLayerTableRecord
  2
A-POR-___-___-EXI
 70
     0
 62
   250
  6
Continuous
370
    25
390
F
347
21
348
0
1001
AcAecLayerStandard
1000

1000

1001
AcCmTransparency
1071
        0
  0
LAYER
  5
421
330
2
100
AcDbSymbolTableRecord
100
AcDbLayerTableRecord
  2
A-JAN-___-___-EXI
 70
     0
 62
   250
  6
Continuous
370
    25
390
F
347
21
348
0
1001
AcAecLayerStandard
1000

1000

1001
AcCmTransparency
1071
        0
  0
ENDTAB
  0
TABLE
  2
STYLE
  5
3
330
0
100
AcDbSymbolTable
 70
     2
  0
STYLE
  5
55
330
3
100
AcDbSymbolTableRecord
100
AcDbTextStyleTableRecord
  2
Standard
 70
     0
 40
0.0
 41
1.0
 50
0.0
 71
     0
 42
0.2
  3
txt
  4

  0
STYLE
  5
5A
330
3
100
AcDbSymbolTableRecord
100
AcDbTextStyleTableRecord
  2
Annotative
 70
     0
 40
0.0
 41
1.0
 50
0.0
 71
     0
 42
0.2
  3
txt
  4

1001
AcadAnnotative
1000
AnnotativeData
1002
{
1070
     1
1070
     1
1002
}
  0
ENDTAB
  0
TABLE
  2
VIEW
  5
6
330
0
100
AcDbSymbolTable
 70
     0
  0
ENDTAB
  0
TABLE
  2
UCS
  5
7
330
0
100
AcDbSymbolTable
 70
     0
  0
ENDTAB
  0
TABLE
  2
APPID
  5
9
330
0
100
AcDbSymbolTable
 70
     7
  0
APPID
  5
56
330
9
100
AcDbSymbolTableRecord
100
AcDbRegAppTableRecord
  2
ACAD
 70
     0
  0
APPID
  5
5E
330
9
100
AcDbSymbolTableRecord
100
AcDbRegAppTableRecord
  2
AcadAnnotative
 70
     0
  0
APPID
  5
78
330
9
100
AcDbSymbolTableRecord
100
AcDbRegAppTableRecord
  2
REVIT
 70
     0
  0
APPID
  5
39D
330
9
100
AcDbSymbolTableRecord
100
AcDbRegAppTableRecord
  2
ACAD_PSEXT
 70
     0
  0
APPID
  5
40D
330
9
100
AcDbSymbolTableRecord
100
AcDbRegAppTableRecord
  2
ACAD_NAV_VCDISPLAY
 70
     0
  0
APPID
  5
41F
330
9
100
AcDbSymbolTableRecord
100
AcDbRegAppTableRecord
  2
AcAecLayerStandard
 70
     0
  0
APPID
  5
420
330
9
100
AcDbSymbolTableRecord
100
AcDbRegAppTableRecord
  2
AcCmTransparency
 70
     0
  0
ENDTAB
  0
TABLE
  2
DIMSTYLE
  5
A
330
0
100
AcDbSymbolTable
 70
     2
100
AcDbDimStyleTable
 71
     0
  0
DIMSTYLE
105
58
330
A
100
AcDbSymbolTableRecord
100
AcDbDimStyleTableRecord
  2
Standard
 70
     0
340
55
  0
DIMSTYLE
105
59
330
A
100
AcDbSymbolTableRecord
100
AcDbDimStyleTableRecord
  2
Annotative
 70
     0
340
55
1001
AcadAnnotative
1000
AnnotativeData
1002
{
1070
     1
1070
     1
1002
}
  0
ENDTAB
  0
TABLE
  2
BLOCK_RECORD
  5
1
330
0
100
AcDbSymbolTable
 70
     1
  0
BLOCK_RECORD
  5
70
102
{ACAD_XDICTIONARY
360
38B
102
}
330
1
100
AcDbSymbolTableRecord
100
AcDbBlockTableRecord
  2
*Model_Space
340
73
 70
     0
280
     1
281
     0
  0
BLOCK_RECORD
  5
74
330
1
100
AcDbSymbolTableRecord
100
AcDbBlockTableRecord
  2
*Paper_Space
340
77
 70
     0
280
     1
281
     0
  0
BLOCK_RECORD
  5
37D
330
1
100
AcDbSymbolTableRecord
100
AcDbBlockTableRecord
  2
A4 HORIZONTAL - A4-22556574-Não nomeada
340
0
 70
     0
280
     1
281
     0
  0
ENDTAB
  0
ENDSEC
  0
SECTION
  2
BLOCKS
  0
BLOCK
  5
71
330
70
100
AcDbEntity
  8
0
100
AcDbBlockBegin
  2
*Model_Space
 70
     0
 10
0.0
 20
0.0
 30
0.0
  3
*Model_Space
  1

  0
ENDBLK
  5
72
330
70
100
AcDbEntity
  8
0
100
AcDbBlockEnd
  0
BLOCK
  5
75
330
74
100
AcDbEntity
 67
     1
  8
0
100
AcDbBlockBegin
  2
*Paper_Space
 70
     0
 10
0.0
 20
0.0
 30
0.0
  3
*Paper_Space
  1

  0
ENDBLK
  5
76
330
74
100
AcDbEntity
 67
     1
  8
0
100
AcDbBlockEnd
  0
BLOCK
  5
383
330
37D
100
AcDbEntity
  8
0
100
AcDbBlockBegin
  2
A4 HORIZONTAL - A4-22556574-Não nomeada
 70
     0
 10
0.0
 20
0.0
 30
0.0
  3
A4 HORIZONTAL - A4-22556574-Não nomeada
  1

  0
LINE
  5
37F
330
37D
100
AcDbEntity
  8
A-COB-___-___-EXI
100
AcDbLine
 10
317.7928507088368
 20
312.9999999999862
 30
0.0
 11
20.7928507088368
 21
312.9999999999856
 31
0.0
1001
REVIT
1002
{
1070
     1
1000
22555178
1002
}
1002
{
1070
     5
1000
22556574
1002
}
1002
{
1070
     3
1000
-2000281
1002
}
  0
LINE
  5
380
330
37D
100
AcDbEntity
  8
A-COB-___-___-EXI
100
AcDbLine
 10
20.7928507088368
 20
312.9999999999856
 30
0.0
 11
20.7928507088372
 21
102.9999999999856
 31
0.0
1001
REVIT
1002
{
1070
     1
1000
22555178
1002
}
1002
{
1070
     5
1000
22556574
1002
}
1002
{
1070
     3
1000
-2000281
1002
}
  0
LINE
  5
381
330
37D
100
AcDbEntity
  8
A-COB-___-___-EXI
100
AcDbLine
 10
20.7928507088372
 20
102.9999999999855
 30
0.0
 11
317.7928507088372
 21
102.9999999999861
 31
0.0
1001
REVIT
1002
{
1070
     1
1000
22555178
1002
}
1002
{
1070
     5
1000
22556574
1002
}
1002
{
1070
     3
1000
-2000281
1002
}
  0
LINE
  5
382
330
37D
100
AcDbEntity
  8
A-COB-___-___-EXI
100
AcDbLine
 10
317.7928507088372
 20
102.9999999999861
 30
0.0
 11
317.7928507088368
 21
312.9999999999862
 31
0.0
1001
REVIT
1002
{
1070
     1
1000
22555178
1002
}
1002
{
1070
     5
1000
22556574
1002
}
1002
{
1070
     3
1000
-2000281
1002
}
  0
ENDBLK
  5
384
330
37D
100
AcDbEntity
  8
0
100
AcDbBlockEnd
  0
ENDSEC
  0
SECTION
  2
ENTITIES
  0
HATCH
  5
A8
330
70
100
AcDbEntity
  8
A-ALV-___-___-EXI
 62
    11
100
AcDbHatch
 10
0.0
 20
0.0
 30
0.0
210
0.0
220
0.0
230
1.0
  2
SOLID
 70
     1
 71
     0
 91
        4
 92
        1
 93
        8
 72
     1
 10
15224.65338523048
 20
-8395.50036326454
 11
15224.65338523048
 21
-8355.500363264537
 72
     1
 10
15224.65338523048
 20
-8355.500363264537
 11
15324.65338523048
 21
-8355.500363264537
 72
     1
 10
15324.65338523048
 20
-8355.500363264537
 11
15324.65338523048
 21
-8395.50036326454
 72
     1
 10
15324.65338523048
 20
-8395.50036326454
 11
15375.97874031963
 21
-8395.50036326454
 72
     1
 10
15375.97874031963
 20
-8395.50036326454
 11
15375.97874031963
 21
-6831.036775376874
 72
     1
 10
15375.97874031963
 20
-6831.036775376874
 11
15179.65338523048
 21
-6831.036775376874
 72
     1
 10
15179.65338523048
 20
-6831.036775376874
 11
15179.65338523048
 21
-8395.50036326454
 72
     1
 10
15179.65338523048
 20
-8395.50036326454
 11
15224.65338523048
 21
-8395.50036326454
 97
        0
 92
        1
 93
        4
 72
     1
 10
10574.66015601708
 20
-8276.088827259711
 11
10574.66015601708
 21
-4641.28971001843
 72
     1
 10
10574.66015601708
 20
-4641.28971001843
 11
10390.91415231577
 21
-4563.294158868065
 72
     1
 10
10390.91415231577
 20
-4563.294158868065
 11
10390.91415231577
 21
-8276.088827259711
 72
     1
 10
10390.91415231577
 20
-8276.088827259711
 11
10574.66015601708
 21
-8276.088827259711
 97
        0
 92
        1
 93
       15
 72
     1
 10
2606.916822386011
 20
-8131.443872511365
 11
2606.916822386011
 21
-8006.481748814575
 72
     1
 10
2606.916822386011
 20
-8006.481748814575
 11
2748.469072393346
 21
-8006.481748814575
 72
     1
 10
2748.469072393346
 20
-8006.481748814575
 11
2748.469072393346
 21
-8126.050260979409
 72
     1
 10
2748.469072393346
 20
-8126.050260979409
 11
2970.154507943126
 21
-8006.481748814573
 72
     1
 10
2970.154507943126
 20
-8006.481748814573
 11
2970.154507943126
 21
-7418.66789489147
 72
     1
 10
2970.154507943126
 20
-7418.66789489147
 11
2833.794722117333
 21
-7418.66789489147
 72
     1
 10
2833.794722117333
 20
-7418.66789489147
 11
2833.794722117333
 21
-7325.945541122145
 72
     1
 10
2833.794722117333
 20
-7325.945541122145
 11
2673.794722117335
 21
-7325.945541122145
 72
     1
 10
2673.794722117335
 20
-7325.945541122145
 11
2673.794722117335
 21
-7365.94554112214
 72
     1
 10
2673.794722117335
 20
-7365.94554112214
 11
2553.794722117335
 21
-7365.94554112214
 72
     1
 10
2553.794722117335
 20
-7365.94554112214
 11
2553.794722117335
 21
-7418.919456227429
 72
     1
 10
2553.794722117335
 20
-7418.919456227429
 11
2436.916822386013
 21
-7418.919456227429
 72
     1
 10
2436.916822386013
 20
-7418.919456227429
 11
2436.916822386013
 21
-8131.443872511365
 72
     1
 10
2436.916822386013
 20
-8131.443872511365
 11
2553.794722117335
 21
-8131.443872511365
 72
     1
 10
2553.794722117335
 20
-8131.443872511365
 11
2606.916822386011
 21
-8131.443872511365
 97
        0
 92
        1
 93
       10
 72
     1
 10
6807.648526644766
 20
-8103.479110394616
 11
6807.64852664477
 21
-5703.479110394611
 72
     1
 10
6807.64852664477
 20
-5703.479110394611
 11
6787.64852664477
 21
-5703.479110394611
 72
     1
 10
6787.64852664477
 20
-5703.479110394611
 11
6787.64852664477
 21
-5663.479110394614
 72
     1
 10
6787.64852664477
 20
-5663.479110394614
 11
6727.64852664477
 21
-5663.479110394614
 72
     1
 10
6727.64852664477
 20
-5663.479110394614
 11
6727.64852664477
 21
-5723.47911039461
 72
     1
 10
6727.64852664477
 20
-5723.47911039461
 11
6627.648526644772
 21
-5723.47911039461
 72
     1
 10
6627.648526644772
 20
-5723.47911039461
 11
6627.648526644768
 21
-8023.479110394614
 72
     1
 10
6627.648526644768
 20
-8023.479110394614
 11
6747.64852664477
 21
-8023.479110394614
 72
     1
 10
6747.64852664477
 20
-8023.479110394614
 11
6747.64852664477
 21
-8103.479110394616
 72
     1
 10
6747.64852664477
 20
-8103.479110394616
 11
6807.648526644766
 21
-8103.479110394616
 97
        0
 75
     0
 76
     1
 98
        1
 10
0.0
 20
0.0
450
        0
451
        0
460
0.0
461
0.0
452
        0
462
0.0
453
        0
470

1001
REVIT
1002
{
1070
     1
1000
22552363
1002
}
1002
{
1070
     5
1000
383807
1002
}
1002
{
1070
     2
1000
-2002000
1002
}
  0
HATCH
  5
B0
330
70
100
AcDbEntity
  8
A-BAS-___-___-EXI
 62
   253
420
 13342872
100
AcDbHatch
 10
0.0
 20
0.0
 30
0.0
210
0.0
220
0.0
230
1.0
  2
SOLID
 70
     1
 71
     0
 91
        1
 92
        1
 93
        7
 72
     1
 10
20207.78837989432
 20
-11460.94554112213
 11
20207.78837989432
 21
-10740.9455411222
 72
     1
 10
20207.78837989432
 20
-10740.9455411222
 11
19247.78837989431
 21
-10740.9455411222
 72
     1
 10
19247.78837989431
 20
-10740.9455411222
 11
19247.78837989431
 21
-10285.9455411222
 72
     1
 10
19247.78837989431
 20
-10285.9455411222
 11
-174.1708199876375
 21
-10285.94554112214
 72
     1
 10
-174.1708199876364
 20
-10285.94554112214
 11
-174.1708199876375
 21
-11460.94554112212
 72
     1
 10
-174.1708199876375
 20
-11460.94554112212
 11
17984.72804913938
 21
-11460.94554112212
 72
     1
 10
17984.72804913938
 20
-11460.94554112212
 11
20207.78837989432
 21
-11460.94554112213
 97
        0
 75
     0
 76
     1
 98
        1
 10
0.0
 20
0.0
450
        0
451
        0
460
0.0
461
0.0
452
        0
462
0.0
453
        0
470

1001
REVIT
1002
{
1070
     1
1000
22552373
1002
}
1002
{
1070
     5
1000
383807
1002
}
1002
{
1070
     2
1000
-2002000
1002
}
  0
HATCH
  5
104
330
70
100
AcDbEntity
  8
A-COB-___-___-EXI
 62
    33
420
 12688002
100
AcDbHatch
 10
0.0
 20
0.0
 30
0.0
210
0.0
220
0.0
230
1.0
  2
SOLID
 70
     1
 71
     0
 91
        5
 92
        1
 93
       67
 72
     1
 10
-333.697833665769
 20
-8629.059663245676
 11
1271.690613897145
 21
-7947.612697021387
 72
     1
 10
1271.690613897145
 20
-7947.612697021387
 11
1271.690613897145
 21
-8059.108928749209
 72
     1
 10
1271.690613897145
 20
-8059.108928749209
 11
1371.282602417128
 21
-8022.860409356555
 72
     1
 10
1371.282602417128
 20
-8022.860409356555
 11
1371.282602417128
 21
-7901.237039268986
 72
     1
 10
1371.282602417128
 20
-7901.237039268986
 11
2436.916822386013
 21
-7448.902149601028
 72
     1
 10
2436.916822386013
 20
-7448.902149601028
 11
2436.916822386013
 21
-7418.919456227429
 72
     1
 10
2436.916822386013
 20
-7418.919456227429
 11
2553.794722117335
 21
-7418.919456227429
 72
     1
 10
2553.794722117335
 20
-7418.919456227429
 11
2553.794722117335
 21
-7365.94554112214
 72
     1
 10
2553.794722117335
 20
-7365.94554112214
 11
2673.794722117335
 21
-7365.94554112214
 72
     1
 10
2673.794722117335
 20
-7365.94554112214
 11
2673.794722117335
 21
-7325.945541122145
 72
     1
 10
2673.794722117335
 20
-7325.945541122145
 11
2833.794722117333
 21
-7325.945541122145
 72
     1
 10
2833.794722117333
 20
-7325.945541122145
 11
2833.794722117333
 21
-7418.66789489147
 72
     1
 10
2833.794722117333
 20
-7418.66789489147
 11
2970.154507943126
 21
-7418.66789489147
 72
     1
 10
2970.154507943126
 20
-7418.66789489147
 11
2970.154507943126
 21
-7238.667894891472
 72
     1
 10
2970.154507943126
 20
-7238.667894891472
 11
4728.684120712308
 21
-6469.182940762902
 72
     1
 10
4728.684120712308
 20
-6469.182940762902
 11
4768.684120712306
 21
-6469.182940762902
 72
     1
 10
4768.684120712306
 20
-6469.182940762902
 11
4768.684120712306
 21
-6569.182940762901
 72
     1
 10
4768.684120712306
 20
-6569.182940762901
 11
4868.684120712307
 21
-6569.182940762901
 72
     1
 10
4868.684120712307
 20
-6569.182940762901
 11
4868.684120712307
 21
-6429.182940762903
 72
     1
 10
4868.684120712307
 20
-6429.182940762903
 11
6627.648526644772
 21
-5646.041530805082
 72
     1
 10
6627.648526644772
 20
-5646.041530805082
 11
6627.648526644772
 21
-5723.47911039461
 72
     1
 10
6627.648526644772
 20
-5723.47911039461
 11
6727.64852664477
 21
-5723.47911039461
 72
     1
 10
6727.64852664477
 20
-5723.47911039461
 11
6727.64852664477
 21
-5663.479110394614
 72
     1
 10
6727.64852664477
 20
-5663.479110394614
 11
6787.64852664477
 21
-5663.479110394614
 72
     1
 10
6787.64852664477
 20
-5663.479110394614
 11
6787.64852664477
 21
-5703.479110394611
 72
     1
 10
6787.64852664477
 20
-5703.479110394611
 11
6807.64852664477
 21
-5703.479110394611
 72
     1
 10
6807.64852664477
 20
-5703.479110394611
 11
6807.64852664477
 21
-5565.900367449547
 72
     1
 10
6807.64852664477
 20
-5565.900367449547
 11
8216.96798558629
 21
-4996.498345457361
 72
     1
 10
8216.96798558629
 20
-4996.498345457361
 11
8216.96798558629
 21
-5096.49834545736
 72
     1
 10
8216.96798558629
 20
-5096.49834545736
 11
8316.967985586289
 21
-5096.49834545736
 72
     1
 10
8316.967985586289
 20
-5096.49834545736
 11
8316.967985586289
 21
-4956.095722873845
 72
     1
 10
8316.967985586289
 20
-4956.095722873845
 11
9756.914440411064
 21
-4374.319591326278
 72
     1
 10
9756.914440411064
 20
-4374.319591326278
 11
9756.914440411064
 21
-4463.409881774192
 72
     1
 10
9756.914440411064
 20
-4463.409881774192
 11
9903.346518455879
 21
-4463.409881774192
 72
     1
 10
9903.346518455879
 20
-4463.409881774192
 11
9903.346518455879
 21
-4356.333977095633
 72
     1
 10
9903.346518455879
 20
-4356.333977095633
 11
11553.12523494221
 21
-5056.623494562691
 72
     1
 10
11553.12523494221
 20
-5056.623494562691
 11
11553.12523494221
 21
-5215.120203589894
 72
     1
 10
11553.12523494221
 20
-5215.120203589894
 11
11653.12523494221
 21
-5215.120203589894
 72
     1
 10
11653.12523494221
 20
-5215.120203589894
 11
11653.12523494221
 21
-5135.120203589895
 72
     1
 10
11653.12523494221
 20
-5135.120203589895
 11
11693.12523494221
 21
-5135.120203589895
 72
     1
 10
11693.12523494221
 20
-5135.120203589895
 11
13392.28805851685
 21
-5856.372030836944
 72
     1
 10
13392.28805851685
 20
-5856.372030836944
 11
13392.28805851685
 21
-6011.997499582133
 72
     1
 10
13392.28805851685
 20
-6011.997499582133
 11
13548.85660101177
 21
-6011.997499582133
 72
     1
 10
13548.85660101177
 20
-6011.997499582133
 11
13548.85660101177
 21
-5915.428957087208
 72
     1
 10
13548.85660101177
 20
-5915.428957087208
 11
15195.19891033811
 21
-6683.130983870665
 72
     1
 10
15195.19891033811
 20
-6683.130983870665
 11
15195.19891033811
 21
-6831.036775376872
 72
     1
 10
15195.19891033811
 20
-6831.036775376872
 11
15375.97874031963
 21
-6831.036775376874
 72
     1
 10
15375.97874031963
 20
-6831.036775376874
 11
15375.97874031963
 21
-6752.670675905114
 72
     1
 10
15375.97874031963
 20
-6752.670675905114
 11
17141.3717195488
 21
-7479.30842280799
 72
     1
 10
17141.3717195488
 20
-7479.30842280799
 11
17113.23124438154
 21
-7624.078617341019
 72
     1
 10
17113.23124438154
 20
-7624.078617341019
 11
17224.19900574369
 21
-7669.753073421759
 72
     1
 10
17224.19900574369
 20
-7669.753073421759
 11
17251.52565796423
 21
-7524.647908443433
 72
     1
 10
17251.52565796423
 20
-7524.647908443433
 11
19425.7455239162
 21
-8520.059509066337
 72
     1
 10
19425.7455239162
 20
-8520.059509066337
 11
19425.7455239162
 21
-8419.559264302924
 72
     1
 10
19425.7455239162
 20
-8419.559264302924
 11
9884.314431025973
 21
-4263.096405245636
 72
     1
 10
9884.314431025973
 20
-4263.096405245636
 11
9869.154570956119
 21
-4275.882231647258
 72
     1
 10
9869.154570956119
 20
-4275.882231647258
 11
9852.573114151205
 21
-4287.052721395482
 72
     1
 10
9852.573114151205
 20
-4287.052721395482
 11
9840.286455728142
 21
-4290.781271137614
 72
     1
 10
9840.286455728142
 20
-4290.781271137614
 11
9828.876807184711
 21
-4292.641735744778
 72
     1
 10
9828.876807184711
 20
-4292.641735744778
 11
9811.073235795994
 21
-4292.74854248292
 72
     1
 10
9811.073235795994
 20
-4292.74854248292
 11
9801.515722281111
 21
-4291.310912516435
 72
     1
 10
9801.515722281111
 20
-4291.310912516435
 11
9786.259930891567
 21
-4285.859633978075
 72
     1
 10
9786.259930891567
 20
-4285.859633978075
 11
9774.146763615043
 21
-4279.158119135614
 72
     1
 10
9774.146763615043
 20
-4279.158119135614
 11
9763.576514681934
 21
-4269.734446936261
 72
     1
 10
9763.576514681934
 20
-4269.734446936261
 11
9754.376028368872
 21
-4259.288945237721
 72
     1
 10
9754.376028368872
 20
-4259.288945237721
 11
-395.2204513453726
 21
-8567.537045566073
 72
     1
 10
-395.2204513453724
 20
-8567.537045566073
 11
-333.697833665769
 21
-8629.059663245676
 97
        0
 92
        1
 93
        4
 72
     1
 10
15324.65338523048
 20
-8455.500363264539
 11
15324.65338523048
 21
-8355.500363264537
 72
     1
 10
15324.65338523048
 20
-8355.500363264537
 11
15224.65338523048
 21
-8355.500363264537
 72
     1
 10
15224.65338523048
 20
-8355.500363264537
 11
15224.65338523048
 21
-8455.500363264539
 72
     1
 10
15224.65338523048
 20
-8455.500363264539
 11
15324.65338523048
 21
-8455.500363264539
 97
        0
 92
        1
 93
        4
 72
     1
 10
10574.66015601708
 20
-8342.830211156323
 11
10574.66015601708
 21
-8276.088827259711
 72
     1
 10
10574.66015601708
 20
-8276.088827259711
 11
10390.91415231577
 21
-8276.088827259711
 72
     1
 10
10390.91415231577
 20
-8276.088827259711
 11
10390.91415231577
 21
-8342.830211156323
 72
     1
 10
10390.91415231577
 20
-8342.830211156323
 11
10574.66015601708
 21
-8342.830211156323
 97
        0
 92
        1
 93
        4
 72
     1
 10
2606.916822386011
 20
-8126.050260979409
 11
2748.469072393346
 21
-8126.050260979409
 72
     1
 10
2748.469072393346
 20
-8126.050260979409
 11
2748.469072393346
 21
-8006.481748814575
 72
     1
 10
2748.469072393346
 20
-8006.481748814575
 11
2606.916822386011
 21
-8006.481748814575
 72
     1
 10
2606.916822386011
 20
-8006.481748814575
 11
2606.916822386011
 21
-8126.050260979409
 97
        0
 92
        1
 93
        4
 72
     1
 10
6747.64852664477
 20
-8103.479110394616
 11
6747.64852664477
 21
-8023.479110394614
 72
     1
 10
6747.64852664477
 20
-8023.479110394614
 11
6627.648526644768
 21
-8023.479110394614
 72
     1
 10
6627.648526644768
 20
-8023.479110394614
 11
6627.648526644768
 21
-8103.479110394616
 72
     1
 10
6627.648526644768
 20
-8103.479110394616
 11
6747.64852664477
 21
-8103.479110394616
 97
        0
 75
     0
 76
     1
 98
        1
 10
0.0
 20
0.0
450
        0
451
        0
460
0.0
461
0.0
452
        0
462
0.0
453
        0
470

1001
REVIT
1002
{
1070
     1
1000
22552570
1002
}
1002
{
1070
     5
1000
383807
1002
}
1002
{
1070
     2
1000
-2002000
1002
}
  0
LINE
  5
106
330
70
100
AcDbEntity
  8
A-ALV-___-___-EXI
100
AcDbLine
 10
10574.66015601707
 20
-8276.0888272597
 30
0.0
 11
10574.66015601707
 21
-4641.289710018424
 31
0.0
1001
REVIT
1002
{
1070
     1
1000
22552363
1002
}
1002
{
1070
     5
1000
383807
1002
}
1002
{
1070
     2
1000
-2000051
1002
}
1002
{
1070
     3
1000
-2000042
1002
}
  0
LINE
  5
107
330
70
100
AcDbEntity
  8
A-ALV-___-___-EXI
100
AcDbLine
 10
10390.91415231575
 20
-4563.29415886806
 30
0.0
 11
10390.91415231575
 21
-8276.0888272597
 31
0.0
1001
REVIT
1002
{
1070
     1
1000
22552363
1002
}
1002
{
1070
     5
1000
383807
1002
}
1002
{
1070
     2
1000
-2000051
1002
}
1002
{
1070
     3
1000
-2000042
1002
}
  0
LINE
  5
108
330
70
100
AcDbEntity
  8
A-COB-___-___-EXI
100
AcDbLine
 10
2436.91682238601
 20
-8131.443872511356
 30
0.0
 11
2606.916822386008
 21
-8131.443872511356
 31
0.0
1001
REVIT
1002
{
1070
     1
1000
22552363
1002
}
1002
{
1070
     5
1000
383807
1002
}
1002
{
1070
     2
1000
-2000051
1002
}
1002
{
1070
     3
1000
-2000042
1002
}
  0
LINE
  5
10B
330
70
100
AcDbEntity
  8
A-ALV-___-___-EXI
100
AcDbLine
 10
2970.154507943123
 20
-8006.481748814564
 30
0.0
 11
2970.154507943123
 21
-7418.667894891463
 31
0.0
1001
REVIT
1002
{
1070
     1
1000
22552363
1002
}
1002
{
1070
     5
1000
383807
1002
}
1002
{
1070
     2
1000
-2000051
1002
}
1002
{
1070
     3
1000
-2000042
1002
}
  0
LINE
  5
110
330
70
100
AcDbEntity
  8
A-COB-___-___-EXI
100
AcDbLine
 10
15195.19891033809
 20
-6831.036775376865
 30
0.0
 11
15179.65338523046
 21
-6831.036775376865
 31
0.0
1001
REVIT
1002
{
1070
     1
1000
22552363
1002
}
1002
{
1070
     5
1000
383807
1002
}
1002
{
1070
     2
1000
-2000051
1002
}
1002
{
1070
     3
1000
-2000042
1002
}
  0
SPLINE
  5
318
330
70
100
AcDbEntity
  8
A-COB-___-___-EXI
100
AcDbSpline
210
0.0
220
0.0
230
1.0
 70
    12
 71
     3
 72
    89
 73
    85
 74
     0
 42
0.000000001
 43
0.0000000001
 40
0.0
 40
0.0
 40
0.0
 40
0.0
 40
1.0
 40
1.0
 40
1.0
 40
2.0
 40
2.0
 40
2.0
 40
3.0
 40
3.0
 40
3.0
 40
4.0
 40
4.0
 40
4.0
 40
5.0
 40
5.0
 40
5.0
 40
6.0
 40
6.0
 40
6.0
 40
7.0
 40
7.0
 40
7.0
 40
7.020833333333333
 40
7.03125
 40
7.041666666666666
 40
7.052083333333333
 40
7.0625
 40
7.072916666666666
 40
7.083333333333333
 40
7.09375
 40
7.104166666666666
 40
7.125
 40
7.145833333333333
 40
7.166666666666666
 40
7.1875
 40
7.197916666666666
 40
7.208333333333333
 40
7.21875
 40
7.229166666666666
 40
7.239583333333333
 40
7.25
 40
7.260416666666666
 40
7.270833333333333
 40
7.291666666666666
 40
7.3125
 40
7.333333333333333
 40
7.354166666666666
 40
7.375
 40
7.416666666666666
 40
7.458333333333333
 40
7.5
 40
7.541666666666666
 40
7.583333333333333
 40
7.625
 40
7.645833333333333
 40
7.666666666666666
 40
7.6875
 40
7.708333333333333
 40
7.75
 40
7.770833333333333
 40
7.791666666666666
 40
7.8125
 40
7.822916666666666
 40
7.833333333333333
 40
7.84375
 40
7.854166666666666
 40
7.864583333333333
 40
7.875
 40
7.885416666666666
 40
7.895833333333333
 40
7.90625
 40
7.911458333333333
 40
7.916666666666666
 40
7.921875
 40
7.927083333333333
 40
7.9375
 40
7.947916666666666
 40
7.958333333333333
 40
7.979166666666666
 40
8.0
 40
8.0
 40
8.0
 40
9.0
 40
9.0
 40
9.0
 40
9.0
 10
19115.7101645531
 20
-8204.62039488169
 30
0.0
 41
1.0
 10
19219.35912666838
 20
-8250.460738432661
 30
0.0
 41
1.0
 10
19323.00808878366
 20
-8296.301081983633
 30
0.0
 41
1.0
 10
19426.65705089895
 20
-8342.141425534604
 30
0.0
 41
1.0
 10
19439.99037086733
 20
-8342.16030406414
 30
0.0
 41
1.0
 10
19453.3236908357
 20
-8342.179182593676
 30
0.0
 41
1.0
 10
19466.65701080408
 20
-8342.198061123211
 30
0.0
 41
1.0
 10
19471.36437671862
 20
-8346.918776174021
 30
0.0
 41
1.0
 10
19476.07174263317
 20
-8351.639491224828
 30
0.0
 41
1.0
 10
19480.77910854773
 20
-8356.360206275637
 30
0.0
 41
1.0
 10
19480.76966928296
 20
-8363.02686625982
 30
0.0
 41
1.0
 10
19480.76023001819
 20
-8369.693526244008
 30
0.0
 41
1.0
 10
19480.75079075342
 20
-8376.360186228195
 30
0.0
 41
1.0
 10
19472.42458240828
 20
-8395.18645990938
 30
0.0
 41
1.0
 10
19464.09837406313
 20
-8414.012733590563
 30
0.0
 41
1.0
 10
19455.77216571798
 20
-8432.839007271747
 30
0.0
 41
1.0
 10
19445.76328511738
 20
-8428.412426282134
 30
0.0
 41
1.0
 10
19435.75440451678
 20
-8423.985845292525
 30
0.0
 41
1.0
 10
19425.74552391617
 20
-8419.559264302916
 30
0.0
 41
1.0
 10
16245.26849295277
 20
-7034.071644617153
 30
0.0
 41
1.0
 10
13064.79146198937
 20
-5648.584024931393
 30
0.0
 41
1.0
 10
9884.314431025975
 20
-4263.096405245634
 30
0.0
 41
1.0
 10
9883.290467014937
 20
-4264.080729935237
 30
0.0
 41
1.0
 10
9881.666658050125
 20
-4265.586345308545
 30
0.0
 41
1.0
 10
9879.314476485198
 20
-4267.65993101605
 30
0.0
 41
1.0
 10
9877.479542936121
 20
-4269.232485837636
 30
0.0
 41
1.0
 10
9875.482795622875
 20
-4270.885141122535
 30
0.0
 41
1.0
 10
9873.34345953125
 20
-4272.604646539929
 30
0.0
 41
1.0
 10
9871.183013264234
 20
-4274.307266614719
 30
0.0
 41
1.0
 10
9869.140490368433
 20
-4275.897182322105
 30
0.0
 41
1.0
 10
9867.182450998676
 20
-4277.397393980384
 30
0.0
 41
1.0
 10
9864.574431846422
 20
-4279.353834554084
 30
0.0
 41
1.0
 10
9861.576227817424
 20
-4281.540628143172
 30
0.0
 41
1.0
 10
9858.785904031071
 20
-4283.482326119684
 30
0.0
 41
1.0
 10
9856.369794560338
 20
-4285.041351768671
 30
0.0
 41
1.0
 10
9854.675576375576
 20
-4286.0169696465
 30
0.0
 41
1.0
 10
9853.478494839627
 20
-4286.626271217384
 30
0.0
 41
1.0
 10
9852.568940961974
 20
-4287.060712293815
 30
0.0
 41
1.0
 10
9851.684426219634
 20
-4287.447207980219
 30
0.0
 41
1.0
 10
9850.855543049719
 20
-4287.764482223844
 30
0.0
 41
1.0
 10
9850.020604743317
 20
-4288.055283249147
 30
0.0
 41
1.0
 10
9849.127298062192
 20
-4288.355394786597
 30
0.0
 41
1.0
 10
9848.178095031288
 20
-4288.664434265406
 30
0.0
 41
1.0
 10
9846.886202862359
 20
-4289.055224482619
 30
0.0
 41
1.0
 10
9845.15756625425
 20
-4289.539621888274
 30
0.0
 41
1.0
 10
9842.819931573098
 20
-4290.175244337295
 30
0.0
 41
1.0
 10
9840.314401377904
 20
-4290.78663981355
 30
0.0
 41
1.0
 10
9837.64119728405
 20
-4291.365823234161
 30
0.0
 41
1.0
 10
9833.895716774682
 20
-4292.062153413151
 30
0.0
 41
1.0
 10
9828.914451280096
 20
-4292.712033062833
 30
0.0
 41
1.0
 10
9822.711068114179
 20
-4293.070104734098
 30
0.0
 41
1.0
 10
9816.617691996178
 20
-4293.081052207099
 30
0.0
 41
1.0
 10
9810.944697904062
 20
-4292.789204461485
 30
0.0
 41
1.0
 10
9806.042931163446
 20
-4292.253384844456
 30
0.0
 41
1.0
 10
9802.281076569739
 20
-4291.529549300263
 30
0.0
 41
1.0
 10
9799.232642785076
 20
-4290.728871839923
 30
0.0
 41
1.0
 10
9796.902048564351
 20
-4290.016042221531
 30
0.0
 41
1.0
 10
9794.370998697838
 20
-4289.139479272238
 30
0.0
 41
1.0
 10
9790.913069714939
 20
-4287.833919430588
 30
0.0
 41
1.0
 10
9787.094499967347
 20
-4286.244402053831
 30
0.0
 41
1.0
 10
9783.636150303097
 20
-4284.692718482368
 30
0.0
 41
1.0
 10
9781.192896761575
 20
-4283.523459782904
 30
0.0
 41
1.0
 10
9779.570776431015
 20
-4282.692188459192
 30
0.0
 41
1.0
 10
9778.380344399259
 20
-4282.033856862273
 30
0.0
 41
1.0
 10
9777.485695096061
 20
-4281.501202713158
 30
0.0
 41
1.0
 10
9776.636391004032
 20
-4280.961077824977
 30
0.0
 41
1.0
 10
9775.851377793301
 20
-4280.427031589903
 30
0.0
 41
1.0
 10
9775.052713919722
 20
-4279.849227754006
 30
0.0
 41
1.0
 10
9774.157078137207
 20
-4279.168274787392
 30
0.0
 41
1.0
 10
9773.199555221632
 20
-4278.426387910096
 30
0.0
 41
1.0
 10
9772.225377790523
 20
-4277.649791227895
 30
0.0
 41
1.0
 10
9771.330580647202
 20
-4276.904226882885
 30
0.0
 41
1.0
 10
9770.543245536989
 20
-4276.225806560261
 30
0.0
 41
1.0
 10
9769.904700780708
 20
-4275.659975776012
 30
0.0
 41
1.0
 10
9769.2308813739
 20
-4275.063030691629
 30
0.0
 41
1.0
 10
9768.3051641964
 20
-4274.25356853031
 30
0.0
 41
1.0
 10
9767.072456037578
 20
-4273.163364511549
 30
0.0
 41
1.0
 10
9765.441683222986
 20
-4271.645958339815
 30
0.0
 41
1.0
 10
9762.998504437838
 20
-4269.169936960958
 30
0.0
 41
1.0
 10
9759.452764173346
 20
-4265.25747969613
 30
0.0
 41
1.0
 10
9756.149291031261
 20
-4261.40695873543
 30
0.0
 41
1.0
 10
9754.376028368859
 20
-4259.288945237716
 30
0.0
 41
1.0
 10
6371.177201797451
 20
-5695.371645347166
 30
0.0
 41
1.0
 10
2987.978375226041
 20
-7131.454345456615
 30
0.0
 41
1.0
 10
-395.2204513453689
 20
-8567.537045566062
 30
0.0
 41
1.0
1001
REVIT
1002
{
1070
     1
1000
22552570
1002
}
1002
{
1070
     5
1000
383807
1002
}
1002
{
1070
     2
1000
-2000051
1002
}
1002
{
1070
     3
1000
-2000042
1002
}
  0
LINE
  5
323
330
70
100
AcDbEntity
  8
A-COB-___-___-EXI
100
AcDbLine
 10
10574.66015601707
 20
-8276.0888272597
 30
0.0
 11
10390.91415231575
 21
-8276.0888272597
 31
0.0
1001
REVIT
1002
{
1070
     1
1000
22552570
1002
}
1002
{
1070
     5
1000
383807
1002
}
1002
{
1070
     2
1000
-2000051
1002
}
1002
{
1070
     3
1000
-2000042
1002
}
  0
LINE
  5
324
330
70
100
AcDbEntity
  8
A-COB-___-___-EXI
100
AcDbLine
 10
10390.91415231575
 20
-8276.0888272597
 30
0.0
 11
10390.91415231575
 21
-8342.830211156314
 31
0.0
1001
REVIT
1002
{
1070
     1
1000
22552570
1002
}
1002
{
1070
     5
1000
383807
1002
}
1002
{
1070
     2
1000
-2000051
1002
}
1002
{
1070
     3
1000
-2000042
1002
}
  0
LINE
  5
325
330
70
100
AcDbEntity
  8
A-COB-___-___-EXI
100
AcDbLine
 10
10390.91415231575
 20
-8342.830211156314
 30
0.0
 11
10574.66015601707
 21
-8342.830211156314
 31
0.0
1001
REVIT
1002
{
1070
     1
1000
22552570
1002
}
1002
{
1070
     5
1000
383807
1002
}
1002
{
1070
     2
1000
-2000051
1002
}
1002
{
1070
     3
1000
-2000042
1002
}
  0
LINE
  5
326
330
70
100
AcDbEntity
  8
A-COB-___-___-EXI
100
AcDbLine
 10
10574.66015601707
 20
-8342.830211156314
 30
0.0
 11
10574.66015601707
 21
-8276.0888272597
 31
0.0
1001
REVIT
1002
{
1070
     1
1000
22552570
1002
}
1002
{
1070
     5
1000
383807
1002
}
1002
{
1070
     2
1000
-2000051
1002
}
1002
{
1070
     3
1000
-2000042
1002
}
  0
LINE
  5
340
330
70
100
AcDbEntity
  8
A-COB-___-___-EXI
100
AcDbLine
 10
17113.23124438152
 20
-8019.308422807981
 30
0.0
 11
17113.23124438152
 21
-7479.308422807982
 31
0.0
1001
REVIT
1002
{
1070
     1
1000
22552515
1002
}
1002
{
1070
     2
1000
-2000051
1002
}
1002
{
1070
     3
1000
-2000042
1002
}
  0
LINE
  5
341
330
70
100
AcDbEntity
  8
A-ESC-___-___-EXI
100
AcDbLine
 10
11491.60514959333
 20
-8883.155913924271
 30
0.0
 11
10574.66015601707
 21
-7621.08940269935
 31
0.0
1001
REVIT
1002
{
1070
     1
1000
22552516
1002
}
1002
{
1070
     2
1000
-2000051
1002
}
1002
{
1070
     3
1000
-2000042
1002
}
  0
LINE
  5
342
330
70
100
AcDbEntity
  8
A-ESC-___-___-EXI
100
AcDbLine
 10
11465.87894279613
 20
-9890.197378813445
 30
0.0
 11
10574.66015601707
 21
-8663.539953506484
 31
0.0
1001
REVIT
1002
{
1070
     1
1000
22552517
1002
}
1002
{
1070
     2
1000
-2000051
1002
}
1002
{
1070
     3
1000
-2000042
1002
}
  0
ELLIPSE
  5
343
330
70
100
AcDbEntity
  8
A-ESC-___-___-EXI
100
AcDbEllipse
 10
11542.11939830356
 20
-8907.03708376815
 30
0.0
 11
80.0
 21
0.0
 31
0.0
210
0.0
220
0.0
230
1.0
 40
0.3749999999999773
 41
0.0
 42
6.28318530717958
1001
REVIT
1002
{
1070
     1
1000
22552518
1002
}
1002
{
1070
     2
1000
-2000051
1002
}
1002
{
1070
     3
1000
-2000042
1002
}
  0
LINE
  5
34C
330
70
100
AcDbEntity
  8
A-ESC-___-___-EXI
100
AcDbLine
 10
11612.61658386757
 20
-10092.16441503676
 30
0.0
 11
11806.39770995297
 21
-10285.94554112216
 31
0.0
1001
REVIT
1002
{
1070
     1
1000
22552527
1002
}
1002
{
1070
     2
1000
-2000051
1002
}
1002
{
1070
     3
1000
-2000042
1002
}
  0
LINE
  5
351
330
70
100
AcDbEntity
  8
A-ESC-___-___-EXI
100
AcDbLine
 10
11474.19093554412
 20
-9805.945541122165
 30
0.0
 11
11404.66639965081
 21
-9805.945541122165
 31
0.0
1001
REVIT
1002
{
1070
     1
1000
22552532
1002
}
1002
{
1070
     2
1000
-2000051
1002
}
1002
{
1070
     3
1000
-2000042
1002
}
  0
LINE
  5
35C
330
70
100
AcDbEntity
  8
A-COB-___-___-EXI
100
AcDbLine
 10
2970.154507943123
 20
-7510.51109845844
 30
0.0
 11
6627.648526644762
 21
-7638.233604002978
 31
0.0
1001
REVIT
1002
{
1070
     1
1000
22552543
1002
}
1002
{
1070
     2
1000
-2000051
1002
}
1002
{
1070
     3
1000
-2000042
1002
}
  0
LINE
  5
35D
330
70
100
AcDbEntity
  8
A-COB-___-___-EXI
100
AcDbLine
 10
6627.648526644762
 20
-7468.512085157158
 30
0.0
 11
2970.154507943123
 21
-7340.789579612608
 31
0.0
1001
REVIT
1002
{
1070
     1
1000
22552544
1002
}
1002
{
1070
     2
1000
-2000051
1002
}
1002
{
1070
     3
1000
-2000042
1002
}
  0
LINE
  5
35E
330
70
100
AcDbEntity
  8
A-PIL-___-___-EXI
100
AcDbLine
 10
-74.1708199876334
 20
-10285.94554112212
 30
0.0
 11
-74.17081998763054
 21
-8518.896981813211
 31
0.0
1001
REVIT
1002
{
1070
     1
1000
22552549
1002
}
1002
{
1070
     2
1000
-2000051
1002
}
1002
{
1070
     3
1000
-2000042
1002
}
  0
LINE
  5
361
330
70
100
AcDbEntity
  8
A-COB-___-___-EXI
100
AcDbLine
 10
63.68732787731262
 20
-8498.786167756179
 30
0.0
 11
2437.166833213029
 21
-7634.91027617311
 31
0.0
1001
REVIT
1002
{
1070
     1
1000
22552552
1002
}
1002
{
1070
     2
1000
-2000051
1002
}
1002
{
1070
     3
1000
-2000042
1002
}
  0
CIRCLE
  5
373
330
70
100
AcDbEntity
  8
A-COB-___-___-EXI
100
AcDbCircle
 10
9820.346455988151
 20
-4214.035186501805
 30
0.0
 40
80.0
1001
REVIT
1002
{
1070
     1
1000
22552819
1002
}
1002
{
1070
     2
1000
-2000051
1002
}
1002
{
1070
     3
1000
-2000042
1002
}
  0
LWPOLYLINE
  5
3AF
330
70
100
AcDbEntity
  8
A-COB-___-___-EXI
100
AcDbPolyline
 90
        3
 70
     0
 43
0.0
 10
63.68732787731259
 20
-8460.379669835241
 10
63.68732787731262
 20
-8498.786167756179
 10
63.68732787731239
 20
-8638.78616775618
1001
REVIT
1002
{
1070
     1
1000
22553166
1002
}
1002
{
1070
     2
1000
-2000051
1002
}
1002
{
1070
     3
1000
-2000042
1002
}
  0
LWPOLYLINE
  5
3B0
330
70
100
AcDbEntity
  8
A-COB-___-___-EXI
100
AcDbPolyline
 90
        6
 70
     0
 43
0.0
 10
11693.12523494219
 20
-6675.120203589888
 10
11693.1252349422
 20
-5135.120203589889
 10
11653.1252349422
 20
-5135.120203589889
 10
11653.1252349422
 20
-5215.12020358989
 10
11553.1252349422
 20
-5215.12020358989
 10
11553.12523494219
 20
-6682.457292689516
1001
REVIT
1002
{
1070
     1
1000
22552567
1002
}
1002
{
1070
     2
1000
-2000051
1002
}
1002
{
1070
     3
1000
-2000042
1002
}
  0
LWPOLYLINE
  5
3B1
330
70
100
AcDbEntity
  8
A-COB-___-___-EXI
100
AcDbPolyline
 90
        3
 70
     0
 43
0.0
 10
13452.28805851683
 20
-6011.997499582125
 10
13392.28805851683
 20
-6011.997499582125
 10
13392.28805851683
 20
-6655.428957087204
1001
REVIT
1002
{
1070
     1
1000
22552562
1002
}
1002
{
1070
     2
1000
-2000051
1002
}
1002
{
1070
     3
1000
-2000042
1002
}
  0
LWPOLYLINE
  5
3B2
330
70
100
AcDbEntity
  8
A-COB-___-___-EXI
100
AcDbPolyline
 90
        5
 70
     0
 43
0.0
 10
13548.85660101176
 20
-6655.428957087202
 10
13548.85660101176
 20
-5915.428957087204
 10
15195.19891033808
 20
-6683.130983870656
 10
15195.19891033808
 20
-6831.036775376865
 10
15375.9787403196
 20
-6831.036775376865
1001
REVIT
1002
{
1070
     1
1000
22552560
1002
}
1002
{
1070
     2
1000
-2000051
1002
}
1002
{
1070
     3
1000
-2000042
1002
}
  0
LWPOLYLINE
  5
3B3
330
70
100
AcDbEntity
  8
A-COB-___-___-EXI
100
AcDbPolyline
 90
        8
 70
     0
 43
0.0
 10
4928.6841207123
 20
-7409.182940762896
 10
4928.684120712301
 20
-6429.182940762895
 10
4868.684120712302
 20
-6429.182940762895
 10
4868.684120712302
 20
-6569.182940762894
 10
4768.684120712301
 20
-6569.182940762894
 10
4768.684120712301
 20
-6469.182940762895
 10
4728.684120712301
 20
-6469.182940762895
 10
4728.6841207123
 20
-7402.198786864545
1001
REVIT
1002
{
1070
     1
1000
22552559
1002
}
1002
{
1070
     2
1000
-2000051
1002
}
1002
{
1070
     3
1000
-2000042
1002
}
  0
LWPOLYLINE
  5
3B5
330
70
100
AcDbEntity
  8
A-COB-___-___-EXI
100
AcDbPolyline
 90
        4
 70
     0
 43
0.0
 10
15179.65338523046
 20
-7011.036775376867
 10
13508.85660101178
 20
-6835.428957087204
 10
12068.85660101173
 20
-6835.428957087201
 10
10574.66015601707
 20
-6913.736474581987
1001
REVIT
1002
{
1070
     1
1000
22552542
1002
}
1002
{
1070
     2
1000
-2000051
1002
}
1002
{
1070
     3
1000
-2000042
1002
}
  0
LWPOLYLINE
  5
3B7
330
70
100
AcDbEntity
  8
A-COB-___-___-EXI
100
AcDbPolyline
 90
        4
 70
     1
 43
0.0
 10
6807.648526644759
 20
-7368.184725246026
 10
6807.648526644759
 20
-7468.512085157158
 10
10390.91415231575
 20
-7468.512085157158
 10
10390.91415231575
 20
-7368.184725246026
1001
REVIT
1002
{
1070
     1
1000
22552536
1002
}
1002
{
1070
     2
1000
-2000051
1002
}
1002
{
1070
     3
1000
-2000042
1002
}
  0
LWPOLYLINE
  5
3B8
330
70
100
AcDbEntity
  8
A-ESC-___-___-EXI
100
AcDbPolyline
 90
        4
 70
     0
 43
0.0
 10
11875.41914915393
 20
-10065.94554112216
 10
11715.41914915393
 20
-10065.94554112216
 10
11715.41914915393
 20
-9805.945541122165
 10
11612.61658386757
 20
-9805.945541122165
1001
REVIT
1002
{
1070
     1
1000
22552531
1002
}
1002
{
1070
     2
1000
-2000051
1002
}
1002
{
1070
     3
1000
-2000042
1002
}
  0
LWPOLYLINE
  5
3BA
330
70
100
AcDbEntity
  8
A-ESC-___-___-EXI
100
AcDbPolyline
 90
        4
 70
     1
 43
0.0
 10
11612.61658386757
 20
-9096.923284343537
 10
11612.61658386757
 20
-10285.94554112216
 10
11474.19093554412
 20
-10285.94554112216
 10
11474.19093554412
 20
-9096.923284343537
1001
REVIT
1002
{
1070
     1
1000
22552526
1002
}
1002
{
1070
     2
1000
-2000051
1002
}
1002
{
1070
     3
1000
-2000042
1002
}
  0
LWPOLYLINE
  5
3BB
330
70
100
AcDbEntity
  8
A-ESC-___-___-EXI
100
AcDbPolyline
 90
        4
 70
     1
 43
0.0
 10
11572.38105648687
 20
-9096.923284343537
 10
11572.38105648687
 20
-8936.923284343537
 10
11512.38105648687
 20
-8936.923284343537
 10
11512.38105648687
 20
-9096.923284343537
1001
REVIT
1002
{
1070
     1
1000
22552522
1002
}
1002
{
1070
     2
1000
-2000051
1002
}
1002
{
1070
     3
1000
-2000042
1002
}
  0
LWPOLYLINE
  5
3BD
330
70
100
AcDbEntity
  8
A-COB-___-___-EXI
100
AcDbPolyline
 90
        9
 70
     0
 43
0.0
 10
17293.23124438152
 20
-8019.308422807981
 10
19098.41915859798
 20
-8370.201407625058
 10
19098.41915859795
 20
-8483.683714948119
 10
19018.41915859795
 20
-8483.683714948119
 10
17295.97874031961
 20
-8159.308422807987
 10
15375.9787403196
 20
-8159.308422807981
 10
15375.9787403196
 20
-8019.308422807981
 10
17293.23124438152
 20
-8019.308422807981
 10
17293.23124438152
 20
-7559.308422807982
1001
REVIT
1002
{
1070
     1
1000
22552512
1002
}
1002
{
1070
     2
1000
-2000051
1002
}
1002
{
1070
     3
1000
-2000042
1002
}
  0
LWPOLYLINE
  5
3BE
330
70
100
AcDbEntity
  8
A-ALV-___-___-EXI
100
AcDbPolyline
 90
       21
 70
     0
 43
0.0
 10
13548.85660101176
 20
-5915.428957087201
 10
13548.85660101176
 20
-6011.997499582125
 10
13392.28805851683
 20
-6011.997499582125
 10
13392.28805851683
 20
-5856.37203083694
 10
11693.1252349422
 20
-5135.120203589889
 10
11653.1252349422
 20
-5135.120203589889
 10
11653.1252349422
 20
-5215.12020358989
 10
11553.1252349422
 20
-5215.12020358989
 10
11553.1252349422
 20
-5056.623494562686
 10
9903.346518455867
 20
-4356.333977095628
 10
9903.346518455867
 20
-4463.409881774188
 10
9756.914440411051
 20
-4463.409881774188
 10
9756.914440411051
 20
-4374.319591326272
 10
8316.967985586279
 20
-4956.09572287384
 10
8316.967985586279
 20
-5096.498345457355
 10
8216.967985586279
 20
-5096.498345457355
 10
8216.967985586279
 20
-4996.498345457355
 10
6807.648526644763
 20
-5565.900367449541
 10
6807.648526644763
 20
-5703.479110394606
 10
6807.648526644758
 20
-8103.479110394607
 10
6807.648526644754
 20
-10285.94554112215
1001
REVIT
1002
{
1070
     1
1000
22552500
1002
}
1002
{
1070
     2
1000
-2000051
1002
}
1002
{
1070
     3
1000
-2000042
1002
}
  0
LWPOLYLINE
  5
3BF
330
70
100
AcDbEntity
  8
A-POR-___-___-EXI
100
AcDbPolyline
 90
        5
 70
     0
 43
0.0
 10
6807.648526644758
 20
-8103.479110394607
 10
6747.648526644759
 20
-8103.479110394607
 10
6627.648526644762
 20
-8103.479110394607
 10
6627.648526644762
 20
-8023.479110394607
 10
6627.648526644758
 20
-10285.94554112214
1001
REVIT
1002
{
1070
     1
1000
22552499
1002
}
1002
{
1070
     2
1000
-2000051
1002
}
1002
{
1070
     3
1000
-2000042
1002
}
  0
LWPOLYLINE
  5
3C0
330
70
100
AcDbEntity
  8
A-POR-___-___-EXI
100
AcDbPolyline
 90
        4
 70
     1
 43
0.0
 10
10574.66015601707
 20
-8276.0888272597
 10
10574.66015601707
 20
-10285.94554112216
 10
10390.91415231575
 20
-10285.94554112216
 10
10390.91415231575
 20
-8276.0888272597
1001
REVIT
1002
{
1070
     1
1000
22552498
1002
}
1002
{
1070
     2
1000
-2000051
1002
}
1002
{
1070
     3
1000
-2000042
1002
}
  0
LWPOLYLINE
  5
3C2
330
70
100
AcDbEntity
  8
A-BAS-___-___-EXI
100
AcDbPolyline
 90
       12
 70
     0
 43
0.0
 10
-174.1708199876375
 20
-11460.94554112211
 10
17984.72804913936
 20
-11460.94554112211
 10
20207.78837989429
 20
-11460.94554112212
 10
20207.78837989429
 20
-10740.94554112219
 10
19247.78837989429
 20
-10740.94554112219
 10
19247.78837989429
 20
-10285.94554112219
 10
15693.26477906678
 20
-10285.94554112217
 10
3753.264779066782
 20
-10285.94554112214
 10
3553.264779066785
 20
-10285.94554112214
 10
-174.1708199876369
 20
-10285.94554112212
 10
-174.1708199876375
 20
-11460.94554112211
 10
-1134.170819987637
 20
-11460.94554112211
1001
REVIT
1002
{
1070
     1
1000
22552416
1002
}
1002
{
1070
     2
1000
-2000051
1002
}
1002
{
1070
     3
1000
-2000042
1002
}
  0
LWPOLYLINE
  5
3C3
330
70
100
AcDbEntity
  8
A-COB-___-___-EXI
100
AcDbPolyline
 90
        4
 70
     1
 43
0.0
 10
15324.65338523046
 20
-8455.500363264532
 10
15324.65338523046
 20
-8355.50036326453
 10
15224.65338523046
 20
-8355.50036326453
 10
15224.65338523046
 20
-8455.500363264532
1001
REVIT
1002
{
1070
     1
1000
22552570
1002
}
1002
{
1070
     5
1000
383807
1002
}
1002
{
1070
     2
1000
-2000051
1002
}
1002
{
1070
     3
1000
-2000042
1002
}
  0
LWPOLYLINE
  5
3C4
330
70
100
AcDbEntity
  8
A-COB-___-___-EXI
100
AcDbPolyline
 90
        4
 70
     1
 43
0.0
 10
2748.469072393342
 20
-8126.050260979399
 10
2748.469072393342
 20
-8006.481748814566
 10
2606.916822386008
 20
-8006.481748814566
 10
2606.916822386008
 20
-8126.050260979399
1001
REVIT
1002
{
1070
     1
1000
22552570
1002
}
1002
{
1070
     5
1000
383807
1002
}
1002
{
1070
     2
1000
-2000051
1002
}
1002
{
1070
     3
1000
-2000042
1002
}
  0
LWPOLYLINE
  5
3C5
330
70
100
AcDbEntity
  8
A-ALV-___-___-EXI
100
AcDbPolyline
 90
        4
 70
     0
 43
0.0
 10
6747.648526644759
 20
-8103.479110394607
 10
6747.648526644759
 20
-8023.479110394607
 10
6627.648526644762
 20
-8023.479110394607
 10
6627.648526644765
 20
-5723.479110394606
1001
REVIT
1002
{
1070
     1
1000
22552570
1002
}
1002
{
1070
     5
1000
383807
1002
}
1002
{
1070
     2
1000
-2000051
1002
}
1002
{
1070
     3
1000
-2000042
1002
}
  0
LWPOLYLINE
  5
3C6
330
70
100
AcDbEntity
  8
A-COB-___-___-EXI
100
AcDbPolyline
 90
       10
 70
     1
 43
0.0
 10
163.1248829583064
 20
-8239.393802427734
 10
-147.8220033875495
 20
-8376.914833080652
 10
-187.8219632926606
 20
-8376.97146866926
 10
-201.9440610363187
 20
-8391.133613821681
 10
-201.9157432420138
 20
-8411.133593774243
 10
-175.7012218305535
 20
-8470.406882894028
 10
-201.9157432420138
 20
-8411.133593774243
 10
-201.9440610363187
 20
-8391.133613821681
 10
-187.8219632926606
 20
-8376.97146866926
 10
-147.8220033875495
 20
-8376.914833080652
1001
REVIT
1002
{
1070
     1
1000
22553147
1002
}
1002
{
1070
     2
1000
-2000051
1002
}
1002
{
1070
     3
1000
-2000042
1002
}
  0
LWPOLYLINE
  5
3C7
330
70
100
AcDbEntity
  8
A-COB-___-___-EXI
100
AcDbPolyline
 90
       10
 70
     1
 43
0.0
 10
531.97373563371
 20
-8083.187815827574
 10
221.0268492878589
 20
-8220.708846480489
 10
181.026889382743
 20
-8220.765482069099
 10
166.9047916390852
 20
-8234.927627221519
 10
166.9331094333901
 20
-8254.92760717408
 10
193.1476308448505
 20
-8314.200896293863
 10
166.9331094333901
 20
-8254.92760717408
 10
166.9047916390852
 20
-8234.927627221519
 10
181.026889382743
 20
-8220.765482069099
 10
221.0268492878589
 20
-8220.708846480489
1001
REVIT
1002
{
1070
     1
1000
22553141
1002
}
1002
{
1070
     2
1000
-2000051
1002
}
1002
{
1070
     3
1000
-2000042
1002
}
  0
LWPOLYLINE
  5
3C8
330
70
100
AcDbEntity
  8
A-COB-___-___-EXI
100
AcDbPolyline
 90
       10
 70
     1
 43
0.0
 10
900.8225883091141
 20
-7926.981829227404
 10
589.8757019632632
 20
-8064.502859880319
 10
549.875742058147
 20
-8064.559495468929
 10
535.7536443144892
 20
-8078.721640621349
 10
535.7819621087942
 20
-8098.721620573911
 10
561.9964835202544
 20
-8157.994909693695
 10
535.7819621087942
 20
-8098.721620573911
 10
535.7536443144892
 20
-8078.721640621349
 10
549.875742058147
 20
-8064.559495468929
 10
589.8757019632632
 20
-8064.502859880319
1001
REVIT
1002
{
1070
     1
1000
22553135
1002
}
1002
{
1070
     2
1000
-2000051
1002
}
1002
{
1070
     3
1000
-2000042
1002
}
  0
LWPOLYLINE
  5
3C9
330
70
100
AcDbEntity
  8
A-COB-___-___-EXI
100
AcDbPolyline
 90
       10
 70
     1
 43
0.0
 10
1269.671440984517
 20
-7770.775842627242
 10
958.7245546386656
 20
-7908.296873280156
 10
918.7245947335496
 20
-7908.353508868767
 10
904.6024969898919
 20
-7922.515654021187
 10
904.6308147841969
 20
-7942.515633973748
 10
930.8453361956571
 20
-8001.788923093531
 10
904.6308147841969
 20
-7942.515633973748
 10
904.6024969898919
 20
-7922.515654021187
 10
918.7245947335496
 20
-7908.353508868767
 10
958.7245546386656
 20
-7908.296873280156
1001
REVIT
1002
{
1070
     1
1000
22553129
1002
}
1002
{
1070
     2
1000
-2000051
1002
}
1002
{
1070
     3
1000
-2000042
1002
}
  0
LWPOLYLINE
  5
3CA
330
70
100
AcDbEntity
  8
A-COB-___-___-EXI
100
AcDbPolyline
 90
       10
 70
     1
 43
0.0
 10
1638.520293659921
 20
-7614.569856027085
 10
1327.573407314069
 20
-7752.09088668
 10
1287.573447408952
 20
-7752.147522268611
 10
1273.451349665295
 20
-7766.309667421031
 10
1273.4796674596
 20
-7786.309647373593
 10
1299.69418887106
 20
-7845.582936493375
 10
1273.4796674596
 20
-7786.309647373593
 10
1273.451349665295
 20
-7766.309667421031
 10
1287.573447408952
 20
-7752.147522268611
 10
1327.573407314069
 20
-7752.09088668
1001
REVIT
1002
{
1070
     1
1000
22553123
1002
}
1002
{
1070
     2
1000
-2000051
1002
}
1002
{
1070
     3
1000
-2000042
1002
}
  0
LWPOLYLINE
  5
3CB
330
70
100
AcDbEntity
  8
A-COB-___-___-EXI
100
AcDbPolyline
 90
       10
 70
     1
 43
0.0
 10
2007.369146335323
 20
-7458.363869426925
 10
1696.422259989472
 20
-7595.884900079839
 10
1656.422300084357
 20
-7595.94153566845
 10
1642.300202340699
 20
-7610.10368082087
 10
1642.328520135004
 20
-7630.103660773432
 10
1668.543041546464
 20
-7689.376949893214
 10
1642.328520135004
 20
-7630.103660773432
 10
1642.300202340699
 20
-7610.10368082087
 10
1656.422300084357
 20
-7595.94153566845
 10
1696.422259989472
 20
-7595.884900079839
1001
REVIT
1002
{
1070
     1
1000
22553117
1002
}
1002
{
1070
     2
1000
-2000051
1002
}
1002
{
1070
     3
1000
-2000042
1002
}
  0
LWPOLYLINE
  5
3CC
330
70
100
AcDbEntity
  8
A-COB-___-___-EXI
100
AcDbPolyline
 90
       10
 70
     1
 43
0.0
 10
2376.217999010728
 20
-7302.157882826754
 10
2065.271112664877
 20
-7439.678913479669
 10
2025.27115275976
 20
-7439.73554906828
 10
2011.149055016102
 20
-7453.897694220699
 10
2011.177372810407
 20
-7473.897674173262
 10
2037.391894221867
 20
-7533.170963293044
 10
2011.177372810407
 20
-7473.897674173262
 10
2011.149055016102
 20
-7453.897694220699
 10
2025.27115275976
 20
-7439.73554906828
 10
2065.271112664877
 20
-7439.678913479669
1001
REVIT
1002
{
1070
     1
1000
22553111
1002
}
1002
{
1070
     2
1000
-2000051
1002
}
1002
{
1070
     3
1000
-2000042
1002
}
  0
LWPOLYLINE
  5
3CD
330
70
100
AcDbEntity
  8
A-COB-___-___-EXI
100
AcDbPolyline
 90
       10
 70
     1
 43
0.0
 10
2745.066851686131
 20
-7145.951896226596
 10
2434.11996534028
 20
-7283.472926879511
 10
2394.120005435164
 20
-7283.529562468121
 10
2379.997907691507
 20
-7297.691707620541
 10
2380.026225485811
 20
-7317.691687573104
 10
2406.240746897271
 20
-7376.964976692885
 10
2380.026225485811
 20
-7317.691687573104
 10
2379.997907691507
 20
-7297.691707620541
 10
2394.120005435164
 20
-7283.529562468121
 10
2434.11996534028
 20
-7283.472926879511
1001
REVIT
1002
{
1070
     1
1000
22553105
1002
}
1002
{
1070
     2
1000
-2000051
1002
}
1002
{
1070
     3
1000
-2000042
1002
}
  0
LWPOLYLINE
  5
3CE
330
70
100
AcDbEntity
  8
A-COB-___-___-EXI
100
AcDbPolyline
 90
       10
 70
     1
 43
0.0
 10
3113.915704361537
 20
-6989.745909626434
 10
2802.968818015686
 20
-7127.26694027935
 10
2762.968858110566
 20
-7127.323575867959
 10
2748.846760366908
 20
-7141.48572102038
 10
2748.875078161213
 20
-7161.485700972942
 10
2775.089599572674
 20
-7220.758990092725
 10
2748.875078161213
 20
-7161.485700972942
 10
2748.846760366908
 20
-7141.48572102038
 10
2762.968858110566
 20
-7127.323575867959
 10
2802.968818015686
 20
-7127.26694027935
1001
REVIT
1002
{
1070
     1
1000
22553099
1002
}
1002
{
1070
     2
1000
-2000051
1002
}
1002
{
1070
     3
1000
-2000042
1002
}
  0
LWPOLYLINE
  5
3CF
330
70
100
AcDbEntity
  8
A-COB-___-___-EXI
100
AcDbPolyline
 90
       10
 70
     1
 43
0.0
 10
3482.76455703694
 20
-6833.539923026267
 10
3171.817670691089
 20
-6971.060953679182
 10
3131.817710785973
 20
-6971.117589267793
 10
3117.695613042316
 20
-6985.279734420211
 10
3117.723930836621
 20
-7005.279714372774
 10
3143.938452248081
 20
-7064.553003492555
 10
3117.723930836621
 20
-7005.279714372774
 10
3117.695613042316
 20
-6985.279734420211
 10
3131.817710785973
 20
-6971.117589267793
 10
3171.817670691089
 20
-6971.060953679182
1001
REVIT
1002
{
1070
     1
1000
22553093
1002
}
1002
{
1070
     2
1000
-2000051
1002
}
1002
{
1070
     3
1000
-2000042
1002
}
  0
LWPOLYLINE
  5
3D0
330
70
100
AcDbEntity
  8
A-COB-___-___-EXI
100
AcDbPolyline
 90
       10
 70
     1
 43
0.0
 10
3851.61340971234
 20
-6677.333936426103
 10
3540.66652336649
 20
-6814.854967079019
 10
3500.666563461374
 20
-6814.911602667629
 10
3486.544465717717
 20
-6829.07374782005
 10
3486.572783512021
 20
-6849.073727772612
 10
3512.787304923481
 20
-6908.347016892394
 10
3486.572783512021
 20
-6849.073727772612
 10
3486.544465717717
 20
-6829.07374782005
 10
3500.666563461374
 20
-6814.911602667629
 10
3540.66652336649
 20
-6814.854967079019
1001
REVIT
1002
{
1070
     1
1000
22553087
1002
}
1002
{
1070
     2
1000
-2000051
1002
}
1002
{
1070
     3
1000
-2000042
1002
}
  0
LWPOLYLINE
  5
3D1
330
70
100
AcDbEntity
  8
A-COB-___-___-EXI
100
AcDbPolyline
 90
       10
 70
     1
 43
0.0
 10
4220.462262387744
 20
-6521.127949825947
 10
3909.515376041894
 20
-6658.648980478862
 10
3869.515416136779
 20
-6658.705616067472
 10
3855.393318393121
 20
-6672.867761219892
 10
3855.421636187426
 20
-6692.867741172455
 10
3881.627999987284
 20
-6752.122585230302
 10
3855.421636187426
 20
-6692.867741172455
 10
3855.393318393121
 20
-6672.867761219892
 10
3869.515416136779
 20
-6658.705616067472
 10
3909.515376041894
 20
-6658.648980478862
1001
REVIT
1002
{
1070
     1
1000
22553081
1002
}
1002
{
1070
     2
1000
-2000051
1002
}
1002
{
1070
     3
1000
-2000042
1002
}
  0
LWPOLYLINE
  5
3D2
330
70
100
AcDbEntity
  8
A-COB-___-___-EXI
100
AcDbPolyline
 90
       10
 70
     1
 43
0.0
 10
4589.31111506315
 20
-6364.921963225786
 10
4278.3642287173
 20
-6502.442993878701
 10
4238.364268812179
 20
-6502.499629467312
 10
4224.242171068522
 20
-6516.661774619731
 10
4224.270488862827
 20
-6536.661754572293
 10
4250.342406874993
 20
-6595.612605132807
 10
4224.270488862827
 20
-6536.661754572293
 10
4224.242171068522
 20
-6516.661774619731
 10
4238.364268812179
 20
-6502.499629467312
 10
4278.3642287173
 20
-6502.442993878701
1001
REVIT
1002
{
1070
     1
1000
22553075
1002
}
1002
{
1070
     2
1000
-2000051
1002
}
1002
{
1070
     3
1000
-2000042
1002
}
  0
LWPOLYLINE
  5
3D3
330
70
100
AcDbEntity
  8
A-COB-___-___-EXI
100
AcDbPolyline
 90
       10
 70
     1
 43
0.0
 10
4958.159967738553
 20
-6208.715976625619
 10
4647.213081392702
 20
-6346.237007278535
 10
4607.213121487588
 20
-6346.293642867144
 10
4593.091023743931
 20
-6360.455788019564
 10
4593.119341538236
 20
-6380.455767972126
 10
4619.056813762713
 20
-6439.102625035312
 10
4593.119341538236
 20
-6380.455767972126
 10
4593.091023743931
 20
-6360.455788019564
 10
4607.213121487588
 20
-6346.293642867144
 10
4647.213081392702
 20
-6346.237007278535
1001
REVIT
1002
{
1070
     1
1000
22553069
1002
}
1002
{
1070
     2
1000
-2000051
1002
}
1002
{
1070
     3
1000
-2000042
1002
}
  0
LWPOLYLINE
  5
3D4
330
70
100
AcDbEntity
  8
A-COB-___-___-EXI
100
AcDbPolyline
 90
       10
 70
     1
 43
0.0
 10
5327.008820413954
 20
-6052.509990025452
 10
5016.061934068093
 20
-6190.031020678372
 10
4976.061974162988
 20
-6190.087656266982
 10
4961.93987641933
 20
-6204.249801419401
 10
4961.968194213635
 20
-6224.249781371963
 10
4987.771220650421
 20
-6282.592644937816
 10
4961.968194213635
 20
-6224.249781371963
 10
4961.93987641933
 20
-6204.249801419401
 10
4976.061974162988
 20
-6190.087656266982
 10
5016.061934068093
 20
-6190.031020678372
1001
REVIT
1002
{
1070
     1
1000
22553063
1002
}
1002
{
1070
     2
1000
-2000051
1002
}
1002
{
1070
     3
1000
-2000042
1002
}
  0
LWPOLYLINE
  5
3D5
330
70
100
AcDbEntity
  8
A-COB-___-___-EXI
100
AcDbPolyline
 90
       10
 70
     1
 43
0.0
 10
5695.857673089353
 20
-5896.30400342529
 10
5384.910786743496
 20
-6033.825034078207
 10
5344.910826838386
 20
-6033.881669666817
 10
5330.788729094728
 20
-6048.043814819237
 10
5330.817046889034
 20
-6068.043794771804
 10
5356.485627538128
 20
-6126.082664840325
 10
5330.817046889034
 20
-6068.043794771804
 10
5330.788729094728
 20
-6048.043814819237
 10
5344.910826838386
 20
-6033.881669666817
 10
5384.910786743496
 20
-6033.825034078207
1001
REVIT
1002
{
1070
     1
1000
22553057
1002
}
1002
{
1070
     2
1000
-2000051
1002
}
1002
{
1070
     3
1000
-2000042
1002
}
  0
LWPOLYLINE
  5
3D6
330
70
100
AcDbEntity
  8
A-COB-___-___-EXI
100
AcDbPolyline
 90
       10
 70
     1
 43
0.0
 10
6064.706525764755
 20
-5740.098016825128
 10
5753.759639418905
 20
-5877.619047478043
 10
5713.759679513788
 20
-5877.675683066653
 10
5699.637581770131
 20
-5891.837828219074
 10
5699.665899564436
 20
-5911.837808171636
 10
5725.200034425841
 20
-5969.572684742828
 10
5699.665899564436
 20
-5911.837808171636
 10
5699.637581770131
 20
-5891.837828219074
 10
5713.759679513788
 20
-5877.675683066653
 10
5753.759639418905
 20
-5877.619047478043
1001
REVIT
1002
{
1070
     1
1000
22553051
1002
}
1002
{
1070
     2
1000
-2000051
1002
}
1002
{
1070
     3
1000
-2000042
1002
}
  0
LWPOLYLINE
  5
3D7
330
70
100
AcDbEntity
  8
A-COB-___-___-EXI
100
AcDbPolyline
 90
       10
 70
     1
 43
0.0
 10
6433.555378440177
 20
-5583.892030224957
 10
6122.608492094325
 20
-5721.413060877872
 10
6082.608532189201
 20
-5721.469696466481
 10
6068.486434445543
 20
-5735.631841618903
 10
6068.514752239849
 20
-5755.631821571465
 10
6093.914441313564
 20
-5813.06270464533
 10
6068.514752239849
 20
-5755.631821571465
 10
6068.486434445543
 20
-5735.631841618903
 10
6082.608532189201
 20
-5721.469696466481
 10
6122.608492094325
 20
-5721.413060877872
1001
REVIT
1002
{
1070
     1
1000
22553045
1002
}
1002
{
1070
     2
1000
-2000051
1002
}
1002
{
1070
     3
1000
-2000042
1002
}
  0
LWPOLYLINE
  5
3D8
330
70
100
AcDbEntity
  8
A-COB-___-___-EXI
100
AcDbPolyline
 90
       10
 70
     1
 43
0.0
 10
6802.404231115573
 20
-5427.686043624797
 10
6491.457344769724
 20
-5565.207074277711
 10
6451.457384864608
 20
-5565.263709866322
 10
6437.335287120951
 20
-5579.425855018742
 10
6437.363604915255
 20
-5599.425834971305
 10
6462.628848201278
 20
-5656.552724547832
 10
6437.363604915255
 20
-5599.425834971305
 10
6437.335287120951
 20
-5579.425855018742
 10
6451.457384864608
 20
-5565.263709866322
 10
6491.457344769724
 20
-5565.207074277711
1001
REVIT
1002
{
1070
     1
1000
22553039
1002
}
1002
{
1070
     2
1000
-2000051
1002
}
1002
{
1070
     3
1000
-2000042
1002
}
  0
LWPOLYLINE
  5
3D9
330
70
100
AcDbEntity
  8
A-COB-___-___-EXI
100
AcDbPolyline
 90
       10
 70
     1
 43
0.0
 10
7171.253083790976
 20
-5271.480057024639
 10
6860.306197445125
 20
-5409.001087677555
 10
6820.306237540009
 20
-5409.057723266164
 10
6806.184139796352
 20
-5423.219868418585
 10
6806.212457590657
 20
-5443.219848371147
 10
6831.343255088988
 20
-5500.042744450343
 10
6806.212457590657
 20
-5443.219848371147
 10
6806.184139796352
 20
-5423.219868418585
 10
6820.306237540009
 20
-5409.057723266164
 10
6860.306197445125
 20
-5409.001087677555
1001
REVIT
1002
{
1070
     1
1000
22553033
1002
}
1002
{
1070
     2
1000
-2000051
1002
}
1002
{
1070
     3
1000
-2000042
1002
}
  0
LWPOLYLINE
  5
3DA
330
70
100
AcDbEntity
  8
A-COB-___-___-EXI
100
AcDbPolyline
 90
       10
 70
     1
 43
0.0
 10
7540.101936466372
 20
-5115.274070424476
 10
7229.155050120521
 20
-5252.795101077391
 10
7189.155090215407
 20
-5252.851736666002
 10
7175.032992471749
 20
-5267.013881818421
 10
7175.061310266054
 20
-5287.013861770983
 10
7200.057661976693
 20
-5343.532764352847
 10
7175.061310266054
 20
-5287.013861770983
 10
7175.032992471749
 20
-5267.013881818421
 10
7189.155090215407
 20
-5252.851736666002
 10
7229.155050120521
 20
-5252.795101077391
1001
REVIT
1002
{
1070
     1
1000
22553027
1002
}
1002
{
1070
     2
1000
-2000051
1002
}
1002
{
1070
     3
1000
-2000042
1002
}
  0
LWPOLYLINE
  5
3DB
330
70
100
AcDbEntity
  8
A-COB-___-___-EXI
100
AcDbPolyline
 90
       10
 70
     1
 43
0.0
 10
7908.950789141775
 20
-4959.068083824312
 10
7598.003902795923
 20
-5096.589114477227
 10
7558.00394289081
 20
-5096.645750065836
 10
7543.881845147152
 20
-5110.807895218257
 10
7543.910162941457
 20
-5130.80787517082
 10
7568.772068864406
 20
-5187.022784255352
 10
7543.910162941457
 20
-5130.80787517082
 10
7543.881845147152
 20
-5110.807895218257
 10
7558.00394289081
 20
-5096.645750065836
 10
7598.003902795923
 20
-5096.589114477227
1001
REVIT
1002
{
1070
     1
1000
22553021
1002
}
1002
{
1070
     2
1000
-2000051
1002
}
1002
{
1070
     3
1000
-2000042
1002
}
  0
LWPOLYLINE
  5
3DC
330
70
100
AcDbEntity
  8
A-COB-___-___-EXI
100
AcDbPolyline
 90
       10
 70
     1
 43
0.0
 10
8277.799641817187
 20
-4802.862097224149
 10
7966.852755471335
 20
-4940.383127877064
 10
7926.852795566219
 20
-4940.439763465675
 10
7912.730697822562
 20
-4954.601908618094
 10
7912.759015616867
 20
-4974.601888570657
 10
7937.486475752123
 20
-5030.512804157856
 10
7912.759015616867
 20
-4974.601888570657
 10
7912.730697822562
 20
-4954.601908618094
 10
7926.852795566219
 20
-4940.439763465675
 10
7966.852755471335
 20
-4940.383127877064
1001
REVIT
1002
{
1070
     1
1000
22553015
1002
}
1002
{
1070
     2
1000
-2000051
1002
}
1002
{
1070
     3
1000
-2000042
1002
}
  0
LWPOLYLINE
  5
3DD
330
70
100
AcDbEntity
  8
A-COB-___-___-EXI
100
AcDbPolyline
 90
       10
 70
     1
 43
0.0
 10
8646.648494492593
 20
-4646.656110623989
 10
8335.701608146743
 20
-4784.177141276903
 10
8295.701648241616
 20
-4784.233776865512
 10
8281.57955049796
 20
-4798.395922017931
 10
8281.607868292265
 20
-4818.395901970497
 10
8306.200882639831
 20
-4874.002824060362
 10
8281.607868292265
 20
-4818.395901970497
 10
8281.57955049796
 20
-4798.395922017931
 10
8295.701648241616
 20
-4784.233776865512
 10
8335.701608146743
 20
-4784.177141276903
1001
REVIT
1002
{
1070
     1
1000
22553009
1002
}
1002
{
1070
     2
1000
-2000051
1002
}
1002
{
1070
     3
1000
-2000042
1002
}
  0
LWPOLYLINE
  5
3DE
330
70
100
AcDbEntity
  8
A-COB-___-___-EXI
100
AcDbPolyline
 90
       10
 70
     1
 43
0.0
 10
9015.497347167993
 20
-4490.450124023828
 10
8704.550460822144
 20
-4627.971154676742
 10
8664.550500917028
 20
-4628.027790265352
 10
8650.42840317337
 20
-4642.189935417772
 10
8650.456720967673
 20
-4662.189915370335
 10
8674.915289527547
 20
-4717.492843962866
 10
8650.456720967673
 20
-4662.189915370335
 10
8650.42840317337
 20
-4642.189935417772
 10
8664.550500917028
 20
-4628.027790265352
 10
8704.550460822144
 20
-4627.971154676742
1001
REVIT
1002
{
1070
     1
1000
22553003
1002
}
1002
{
1070
     2
1000
-2000051
1002
}
1002
{
1070
     3
1000
-2000042
1002
}
  0
LWPOLYLINE
  5
3DF
330
70
100
AcDbEntity
  8
A-COB-___-___-EXI
100
AcDbPolyline
 90
       10
 70
     1
 43
0.0
 10
9384.346199843394
 20
-4334.244137423664
 10
9073.399313497544
 20
-4471.765168076578
 10
9033.399353592427
 20
-4471.821803665187
 10
9019.27725584877
 20
-4485.983948817607
 10
9019.305573643077
 20
-4505.983928770173
 10
9043.629696415257
 20
-4560.982863865372
 10
9019.305573643077
 20
-4505.983928770173
 10
9019.27725584877
 20
-4485.983948817607
 10
9033.399353592427
 20
-4471.821803665187
 10
9073.399313497544
 20
-4471.765168076578
1001
REVIT
1002
{
1070
     1
1000
22552993
1002
}
1002
{
1070
     2
1000
-2000051
1002
}
1002
{
1070
     3
1000
-2000042
1002
}
  0
LWPOLYLINE
  5
3E0
330
70
100
AcDbEntity
  8
A-COB-___-___-EXI
100
AcDbPolyline
 90
       10
 70
     1
 43
0.0
 10
9753.195052518801
 20
-4178.038150823502
 10
9442.248166172952
 20
-4315.559181476415
 10
9402.248206267834
 20
-4315.615817065024
 10
9388.126108524177
 20
-4329.777962217444
 10
9388.154426318482
 20
-4349.777942170009
 10
9412.344103302972
 20
-4404.472883767874
 10
9388.154426318482
 20
-4349.777942170009
 10
9388.126108524177
 20
-4329.777962217444
 10
9402.248206267834
 20
-4315.615817065024
 10
9442.248166172952
 20
-4315.559181476415
1001
REVIT
1002
{
1070
     1
1000
22552987
1002
}
1002
{
1070
     2
1000
-2000051
1002
}
1002
{
1070
     3
1000
-2000042
1002
}
  0
LWPOLYLINE
  5
3E1
330
70
100
AcDbEntity
  8
A-COB-___-___-EXI
100
AcDbPolyline
 90
        6
 70
     0
 43
0.0
 10
18746.8613118777
 20
-8043.799023666137
 10
19057.80819822355
 20
-8181.320054319051
 10
19097.80815812867
 20
-8181.376689907661
 10
19111.93025587233
 20
-8195.538835060082
 10
19111.90193807802
 20
-8215.538815012644
 10
19086.94444193324
 20
-8271.96986181592
1001
REVIT
1002
{
1070
     1
1000
22552974
1002
}
1002
{
1070
     2
1000
-2000051
1002
}
1002
{
1070
     3
1000
-2000042
1002
}
  0
LWPOLYLINE
  5
3E2
330
70
100
AcDbEntity
  8
A-COB-___-___-EXI
100
AcDbPolyline
 90
        6
 70
     0
 43
0.0
 10
18378.01245920229
 20
-7882.977652450593
 10
18688.95934554814
 20
-8020.498683103507
 10
18728.95930545326
 20
-8020.555318692117
 10
18743.08140319691
 20
-8034.717463844536
 10
18743.05308540261
 20
-8054.717443797098
 10
18718.04275401981
 20
-8111.267955620917
1001
REVIT
1002
{
1070
     1
1000
22552968
1002
}
1002
{
1070
     2
1000
-2000051
1002
}
1002
{
1070
     3
1000
-2000042
1002
}
  0
LWPOLYLINE
  5
3E3
330
70
100
AcDbEntity
  8
A-COB-___-___-EXI
100
AcDbPolyline
 90
        6
 70
     0
 43
0.0
 10
18009.16360652691
 20
-7722.156281235061
 10
18320.11049287276
 20
-7859.677311887977
 10
18360.11045277788
 20
-7859.733947476588
 10
18374.23255052154
 20
-7873.896092629006
 10
18374.20423272723
 20
-7893.896072581568
 10
18349.14106610641
 20
-7950.566049425933
1001
REVIT
1002
{
1070
     1
1000
22552962
1002
}
1002
{
1070
     2
1000
-2000051
1002
}
1002
{
1070
     3
1000
-2000042
1002
}
  0
LWPOLYLINE
  5
3E4
330
70
100
AcDbEntity
  8
A-COB-___-___-EXI
100
AcDbPolyline
 90
        6
 70
     0
 43
0.0
 10
17640.31475385151
 20
-7561.334910019509
 10
17951.26164019737
 20
-7698.855940672425
 10
17991.26160010248
 20
-7698.912576261034
 10
18005.38369784614
 20
-7713.074721413453
 10
18005.35538005183
 20
-7733.074701366014
 10
17980.23937819298
 20
-7789.864143230935
1001
REVIT
1002
{
1070
     1
1000
22552956
1002
}
1002
{
1070
     2
1000
-2000051
1002
}
1002
{
1070
     3
1000
-2000042
1002
}
  0
LWPOLYLINE
  5
3E5
330
70
100
AcDbEntity
  8
A-COB-___-___-EXI
100
AcDbPolyline
 90
        6
 70
     0
 43
0.0
 10
17271.46590117609
 20
-7400.513538803953
 10
17582.41278752194
 20
-7538.034569456868
 10
17622.41274742706
 20
-7538.091205045479
 10
17636.53484517072
 20
-7552.253350197903
 10
17636.50652737641
 20
-7572.253330150459
 10
17611.33769027954
 20
-7629.162237035926
1001
REVIT
1002
{
1070
     1
1000
22552950
1002
}
1002
{
1070
     2
1000
-2000051
1002
}
1002
{
1070
     3
1000
-2000042
1002
}
  0
LWPOLYLINE
  5
3E6
330
70
100
AcDbEntity
  8
A-COB-___-___-EXI
100
AcDbPolyline
 90
        6
 70
     0
 43
0.0
 10
16902.61704850066
 20
-7239.692167588417
 10
17213.56393484652
 20
-7377.213198241332
 10
17253.56389475167
 20
-7377.269833829942
 10
17267.68599249533
 20
-7391.43197898236
 10
17267.65767470102
 20
-7411.431958934922
 10
17242.43600236613
 20
-7468.460330840932
1001
REVIT
1002
{
1070
     1
1000
22552944
1002
}
1002
{
1070
     2
1000
-2000051
1002
}
1002
{
1070
     3
1000
-2000042
1002
}
  0
LWPOLYLINE
  5
3E7
330
70
100
AcDbEntity
  8
A-COB-___-___-EXI
100
AcDbPolyline
 90
        6
 70
     0
 43
0.0
 10
16533.76819582526
 20
-7078.87079637287
 10
16844.71508217111
 20
-7216.391827025784
 10
16884.71504207623
 20
-7216.448462614394
 10
16898.83713981989
 20
-7230.610607766813
 10
16898.80882202558
 20
-7250.610587719375
 10
16873.53431445267
 20
-7307.758424645918
1001
REVIT
1002
{
1070
     1
1000
22552938
1002
}
1002
{
1070
     2
1000
-2000051
1002
}
1002
{
1070
     3
1000
-2000042
1002
}
  0
LWPOLYLINE
  5
3E8
330
70
100
AcDbEntity
  8
A-COB-___-___-EXI
100
AcDbPolyline
 90
        6
 70
     0
 43
0.0
 10
16164.91934314987
 20
-6918.04942515732
 10
16475.86622949572
 20
-7055.570455810235
 10
16515.86618940083
 20
-7055.627091398846
 10
16529.98828714449
 20
-7069.789236551264
 10
16529.95996935018
 20
-7089.789216503826
 10
16504.63262653924
 20
-7147.056518450918
1001
REVIT
1002
{
1070
     1
1000
22552932
1002
}
1002
{
1070
     2
1000
-2000051
1002
}
1002
{
1070
     3
1000
-2000042
1002
}
  0
LWPOLYLINE
  5
3E9
330
70
100
AcDbEntity
  8
A-COB-___-___-EXI
100
AcDbPolyline
 90
        6
 70
     0
 43
0.0
 10
15796.07049047447
 20
-6757.228053941772
 10
16107.01737682032
 20
-6894.749084594687
 10
16147.01733672544
 20
-6894.805720183296
 10
16161.1394344691
 20
-6908.967865335715
 10
16161.11111667479
 20
-6928.967845288276
 10
16135.73093862583
 20
-6986.354612255921
1001
REVIT
1002
{
1070
     1
1000
22552926
1002
}
1002
{
1070
     2
1000
-2000051
1002
}
1002
{
1070
     3
1000
-2000042
1002
}
  0
LWPOLYLINE
  5
3EA
330
70
100
AcDbEntity
  8
A-COB-___-___-EXI
100
AcDbPolyline
 90
        6
 70
     0
 43
0.0
 10
15427.22163779904
 20
-6596.406682726237
 10
15738.16852414489
 20
-6733.927713379152
 10
15778.16848405
 20
-6733.984348967762
 10
15792.29058179366
 20
-6748.146494120182
 10
15792.26226399936
 20
-6768.146474072743
 10
15766.82925071238
 20
-6825.652706060911
1001
REVIT
1002
{
1070
     1
1000
22552920
1002
}
1002
{
1070
     2
1000
-2000051
1002
}
1002
{
1070
     3
1000
-2000042
1002
}
  0
LWPOLYLINE
  5
3EB
330
70
100
AcDbEntity
  8
A-COB-___-___-EXI
100
AcDbPolyline
 90
        6
 70
     0
 43
0.0
 10
15058.37278512366
 20
-6435.585311510688
 10
15369.31967146951
 20
-6573.106342163602
 10
15409.31963137463
 20
-6573.162977752213
 10
15423.44172911829
 20
-6587.325122904632
 10
15423.41341132398
 20
-6607.325102857193
 10
15397.92756279898
 20
-6664.950799865922
1001
REVIT
1002
{
1070
     1
1000
22552914
1002
}
1002
{
1070
     2
1000
-2000051
1002
}
1002
{
1070
     3
1000
-2000042
1002
}
  0
LWPOLYLINE
  5
3EC
330
70
100
AcDbEntity
  8
A-COB-___-___-EXI
100
AcDbPolyline
 90
        6
 70
     0
 43
0.0
 10
14689.52393244826
 20
-6274.763940295139
 10
15000.47081879412
 20
-6412.284970948054
 10
15040.47077869923
 20
-6412.341606536664
 10
15054.59287644289
 20
-6426.503751689086
 10
15054.56455864858
 20
-6446.503731641644
 10
15029.02587488555
 20
-6504.248893670925
1001
REVIT
1002
{
1070
     1
1000
22552908
1002
}
1002
{
1070
     2
1000
-2000051
1002
}
1002
{
1070
     3
1000
-2000042
1002
}
  0
LWPOLYLINE
  5
3ED
330
70
100
AcDbEntity
  8
A-COB-___-___-EXI
100
AcDbPolyline
 90
        6
 70
     0
 43
0.0
 10
14320.67507977287
 20
-6113.942569079569
 10
14631.62196611877
 20
-6251.463599732509
 10
14671.62192602384
 20
-6251.520235321118
 10
14685.74402376749
 20
-6265.682380473538
 10
14685.71570597319
 20
-6285.682360426099
 10
14660.12418697213
 20
-6343.546987475929
1001
REVIT
1002
{
1070
     1
1000
22552902
1002
}
1002
{
1070
     2
1000
-2000051
1002
}
1002
{
1070
     3
1000
-2000042
1002
}
  0
LWPOLYLINE
  5
3EE
330
70
100
AcDbEntity
  8
A-COB-___-___-EXI
100
AcDbPolyline
 90
        6
 70
     0
 43
0.0
 10
13951.82622709747
 20
-5953.121197864028
 10
14262.77311344333
 20
-6090.642228516947
 10
14302.77307334843
 20
-6090.698864105557
 10
14316.89517109209
 20
-6104.861009257976
 10
14316.86685329779
 20
-6124.860989210549
 10
14291.22249905871
 20
-6182.84508128093
1001
REVIT
1002
{
1070
     1
1000
22552896
1002
}
1002
{
1070
     2
1000
-2000051
1002
}
1002
{
1070
     3
1000
-2000042
1002
}
  0
LWPOLYLINE
  5
3EF
330
70
100
AcDbEntity
  8
A-COB-___-___-EXI
100
AcDbPolyline
 90
        6
 70
     0
 43
0.0
 10
13582.97737442205
 20
-5792.299826648475
 10
13893.92426076791
 20
-5929.820857301391
 10
13933.92422067302
 20
-5929.877492890001
 10
13948.04631841668
 20
-5944.03963804242
 10
13948.01800062237
 20
-5964.039617994981
 10
13922.32081114527
 20
-6022.143175085922
1001
REVIT
1002
{
1070
     1
1000
22552890
1002
}
1002
{
1070
     2
1000
-2000051
1002
}
1002
{
1070
     3
1000
-2000042
1002
}
  0
LWPOLYLINE
  5
3F0
330
70
100
AcDbEntity
  8
A-COB-___-___-EXI
100
AcDbPolyline
 90
        6
 70
     0
 43
0.0
 10
13214.12852174665
 20
-5631.478455432923
 10
13525.07540809251
 20
-5768.999486085839
 10
13565.07536799763
 20
-5769.056121674449
 10
13579.19746574129
 20
-5783.218266826867
 10
13579.16914794699
 20
-5803.218246779429
 10
13553.41912323185
 20
-5861.441268890925
1001
REVIT
1002
{
1070
     1
1000
22552884
1002
}
1002
{
1070
     2
1000
-2000051
1002
}
1002
{
1070
     3
1000
-2000042
1002
}
  0
LWPOLYLINE
  5
3F1
330
70
100
AcDbEntity
  8
A-COB-___-___-EXI
100
AcDbPolyline
 90
        6
 70
     0
 43
0.0
 10
12845.27966907125
 20
-5470.657084217376
 10
13156.22655541711
 20
-5608.178114870292
 10
13196.22651532222
 20
-5608.234750458902
 10
13210.34861306588
 20
-5622.396895611321
 10
13210.32029527158
 20
-5642.396875563882
 10
13184.51743531842
 20
-5700.739362695923
1001
REVIT
1002
{
1070
     1
1000
22552878
1002
}
1002
{
1070
     2
1000
-2000051
1002
}
1002
{
1070
     3
1000
-2000042
1002
}
  0
LWPOLYLINE
  5
3F2
330
70
100
AcDbEntity
  8
A-COB-___-___-EXI
100
AcDbPolyline
 90
        6
 70
     0
 43
0.0
 10
12476.43081639587
 20
-5309.835713001847
 10
12787.37770274172
 20
-5447.356743654761
 10
12827.37766264683
 20
-5447.413379243372
 10
12841.49976039049
 20
-5461.575524395791
 10
12841.47144259618
 20
-5481.575504348352
 10
12815.61574740501
 20
-5540.037456500932
1001
REVIT
1002
{
1070
     1
1000
22552872
1002
}
1002
{
1070
     2
1000
-2000051
1002
}
1002
{
1070
     3
1000
-2000042
1002
}
  0
LWPOLYLINE
  5
3F3
330
70
100
AcDbEntity
  8
A-COB-___-___-EXI
100
AcDbPolyline
 90
        6
 70
     0
 43
0.0
 10
12107.58196372042
 20
-5149.014341786291
 10
12418.52885006628
 20
-5286.535372439205
 10
12458.52880997143
 20
-5286.592008027816
 10
12472.65090771509
 20
-5300.754153180235
 10
12472.62258992078
 20
-5320.754133132796
 10
12446.71405949158
 20
-5379.335550305928
1001
REVIT
1002
{
1070
     1
1000
22552866
1002
}
1002
{
1070
     2
1000
-2000051
1002
}
1002
{
1070
     3
1000
-2000042
1002
}
  0
LWPOLYLINE
  5
3F4
330
70
100
AcDbEntity
  8
A-COB-___-___-EXI
100
AcDbPolyline
 90
        6
 70
     0
 43
0.0
 10
11738.73311104501
 20
-4988.192970570747
 10
12049.67999739086
 20
-5125.714001223663
 10
12089.67995729598
 20
-5125.770636812273
 10
12103.80205503963
 20
-5139.932781964692
 10
12103.77373724533
 20
-5159.932761917254
 10
12077.81237157811
 20
-5218.633644110912
1001
REVIT
1002
{
1070
     1
1000
22552860
1002
}
1002
{
1070
     2
1000
-2000051
1002
}
1002
{
1070
     3
1000
-2000042
1002
}
  0
LWPOLYLINE
  5
3F5
330
70
100
AcDbEntity
  8
A-COB-___-___-EXI
100
AcDbPolyline
 90
        6
 70
     0
 43
0.0
 10
11369.88425836964
 20
-4827.371599355203
 10
11680.83114471549
 20
-4964.892630008119
 10
11720.8311046206
 20
-4964.94926559673
 10
11734.95320236426
 20
-4979.111410749148
 10
11734.92488456995
 20
-4999.11139070171
 10
11708.91068366471
 20
-5057.931737915926
1001
REVIT
1002
{
1070
     1
1000
22552854
1002
}
1002
{
1070
     2
1000
-2000051
1002
}
1002
{
1070
     3
1000
-2000042
1002
}
  0
LWPOLYLINE
  5
3F6
330
70
100
AcDbEntity
  8
A-COB-___-___-EXI
100
AcDbPolyline
 90
        6
 70
     0
 43
0.0
 10
11001.03540569421
 20
-4666.550228139661
 10
11311.98229204006
 20
-4804.071258792575
 10
11351.98225194519
 20
-4804.127894381185
 10
11366.10434968885
 20
-4818.290039533603
 10
11366.07603189454
 20
-4838.290019486167
 10
11340.00899575128
 20
-4897.229831720924
1001
REVIT
1002
{
1070
     1
1000
22552848
1002
}
1002
{
1070
     2
1000
-2000051
1002
}
1002
{
1070
     3
1000
-2000042
1002
}
  0
LWPOLYLINE
  5
3F7
330
70
100
AcDbEntity
  8
A-COB-___-___-EXI
100
AcDbPolyline
 90
        6
 70
     0
 43
0.0
 10
10632.18655301882
 20
-4505.728856924114
 10
10943.13343936467
 20
-4643.249887577026
 10
10983.13339926979
 20
-4643.306523165636
 10
10997.25549701345
 20
-4657.46866831806
 10
10997.22717921914
 20
-4677.468648270618
 10
10971.10730783785
 20
-4736.527925525924
1001
REVIT
1002
{
1070
     1
1000
22552842
1002
}
1002
{
1070
     2
1000
-2000051
1002
}
1002
{
1070
     3
1000
-2000042
1002
}
  0
LWPOLYLINE
  5
3F8
330
70
100
AcDbEntity
  8
A-COB-___-___-EXI
100
AcDbPolyline
 90
        6
 70
     0
 43
0.0
 10
10263.33770034342
 20
-4344.90748570857
 10
10574.28458668927
 20
-4482.428516361483
 10
10614.28454659439
 20
-4482.485151950093
 10
10628.40664433804
 20
-4496.647297102512
 10
10628.37832654374
 20
-4516.647277055075
 10
10602.20561992443
 20
-4575.826019330923
1001
REVIT
1002
{
1070
     1
1000
22552832
1002
}
1002
{
1070
     2
1000
-2000051
1002
}
1002
{
1070
     3
1000
-2000042
1002
}
  0
LWPOLYLINE
  5
3F9
330
70
100
AcDbEntity
  8
A-COB-___-___-EXI
100
AcDbPolyline
 90
        6
 70
     0
 43
0.0
 10
9894.488847668014
 20
-4184.08611449301
 10
10205.43573401388
 20
-4321.607145145932
 10
10245.43569391898
 20
-4321.663780734541
 10
10259.55779166263
 20
-4335.825925886961
 10
10259.52947386833
 20
-4355.825905839523
 10
10233.31495245687
 20
-4415.099194959308
1001
REVIT
1002
{
1070
     1
1000
22552826
1002
}
1002
{
1070
     2
1000
-2000051
1002
}
1002
{
1070
     3
1000
-2000042
1002
}
  0
LWPOLYLINE
  5
3FA
330
70
100
AcDbEntity
  8
A-COB-___-___-EXI
100
AcDbPolyline
 90
       37
 70
     0
 43
0.0
 10
-541.9727208084147
 20
-8632.440488029754
 10
-570.7645959174166
 20
-8567.33958037441
 10
-570.7929137117215
 20
-8547.339600421844
 10
-556.6708159680642
 20
-8533.177455269425
 10
-516.670856062946
 20
-8533.120819680815
 10
-556.6708159680647
 20
-8533.177455269425
 10
-570.7929137117213
 20
-8547.339600421844
 10
-570.7645959174165
 20
-8567.33958037441
 10
-541.9727208084147
 20
-8632.440488029754
 10
-395.2204513453697
 20
-8567.53704556606
 10
-333.6978336657692
 20
-8629.059663245666
 10
1271.690613897143
 20
-7947.612697021376
 10
1271.690613897143
 20
-8059.108928749202
 10
1371.282602417126
 20
-8022.860409356546
 10
1371.282602417126
 20
-7901.237039268976
 10
2436.91682238601
 20
-7448.902149601019
 10
2436.91682238601
 20
-7418.91945622742
 10
2553.794722117333
 20
-7418.91945622742
 10
2553.794722117333
 20
-7365.945541122134
 10
2673.794722117332
 20
-7365.945541122134
 10
2673.794722117332
 20
-7325.945541122135
 10
2833.79472211733
 20
-7325.945541122135
 10
2833.79472211733
 20
-7418.667894891463
 10
2970.154507943123
 20
-7418.667894891463
 10
2970.154507943123
 20
-7238.667894891462
 10
4728.684120712301
 20
-6469.182940762895
 10
4768.6841207123
 20
-6469.182940762895
 10
4768.6841207123
 20
-6569.182940762894
 10
4868.684120712301
 20
-6569.182940762894
 10
4868.684120712301
 20
-6429.182940762895
 10
6627.648526644765
 20
-5646.041530805075
 10
6627.648526644765
 20
-5723.479110394606
 10
6727.648526644763
 20
-5723.479110394606
 10
6727.648526644763
 20
-5663.479110394606
 10
6787.648526644763
 20
-5663.479110394606
 10
6787.648526644763
 20
-5703.479110394606
 10
6807.648526644763
 20
-5703.479110394606
1001
REVIT
1002
{
1070
     1
1000
22552815
1002
}
1002
{
1070
     2
1000
-2000051
1002
}
1002
{
1070
     3
1000
-2000042
1002
}
  0
LWPOLYLINE
  5
3FC
330
70
100
AcDbEntity
  8
A-ALV-___-___-EXI
100
AcDbPolyline
 90
        3
 70
     0
 43
0.0
 10
2436.91682238601
 20
-7448.902149601019
 10
2436.91682238601
 20
-8131.443872511356
 10
2436.91682238601
 20
-10285.94554112213
1001
REVIT
1002
{
1070
     1
1000
22552545
1002
}
1002
{
1070
     2
1000
-2000051
1002
}
1002
{
1070
     3
1000
-2000042
1002
}
  0
LWPOLYLINE
  5
3FD
330
70
100
AcDbEntity
  8
A-POR-___-___-EXI
100
AcDbPolyline
 90
        4
 70
     1
 43
0.0
 10
9185.16141034679
 20
-5430.511098458445
 10
9185.16141034679
 20
-7365.945541122146
 10
10153.06703761167
 20
-7365.945541122146
 10
10153.06703761167
 20
-5430.511098458445
1001
REVIT
1002
{
1070
     1
1000
22552508
1002
}
1002
{
1070
     2
1000
-2000051
1002
}
1002
{
1070
     3
1000
-2000042
1002
}
  0
LWPOLYLINE
  5
3FE
330
70
100
AcDbEntity
  8
A-POR-___-___-EXI
100
AcDbPolyline
 90
        4
 70
     1
 43
0.0
 10
9305.161410346789
 20
-5550.511098458445
 10
9305.161410346789
 20
-7365.945541122146
 10
10033.06703761167
 20
-7365.945541122146
 10
10033.06703761167
 20
-5550.511098458445
1001
REVIT
1002
{
1070
     1
1000
22552504
1002
}
1002
{
1070
     2
1000
-2000051
1002
}
1002
{
1070
     3
1000
-2000042
1002
}
  0
LWPOLYLINE
  5
3FF
330
70
100
AcDbEntity
  8
A-POR-___-___-EXI
100
AcDbPolyline
 90
        4
 70
     1
 43
0.0
 10
4155.419149153931
 20
-8110.51109845844
 10
4155.419149153931
 20
-10285.94554112214
 10
5443.32477641881
 20
-10285.94554112214
 10
5443.32477641881
 20
-8110.51109845844
1001
REVIT
1002
{
1070
     1
1000
22552482
1002
}
1002
{
1070
     2
1000
-2000051
1002
}
1002
{
1070
     3
1000
-2000042
1002
}
  0
LWPOLYLINE
  5
400
330
70
100
AcDbEntity
  8
A-POR-___-___-EXI
100
AcDbPolyline
 90
        4
 70
     1
 43
0.0
 10
4275.419149153932
 20
-8240.511098458439
 10
4275.419149153932
 20
-10285.94554112214
 10
5318.324776418811
 20
-10285.94554112214
 10
5318.324776418811
 20
-8240.511098458439
1001
REVIT
1002
{
1070
     1
1000
22552478
1002
}
1002
{
1070
     2
1000
-2000051
1002
}
1002
{
1070
     3
1000
-2000042
1002
}
  0
LWPOLYLINE
  5
401
330
70
100
AcDbEntity
  8
A-POR-___-___-EXI
100
AcDbPolyline
 90
        4
 70
     1
 43
0.0
 10
11975.41914915393
 20
-8390.51109845846
 10
11975.41914915393
 20
-10285.94554112216
 10
12923.32477641881
 20
-10285.94554112216
 10
12923.32477641881
 20
-8390.51109845846
1001
REVIT
1002
{
1070
     1
1000
22552470
1002
}
1002
{
1070
     2
1000
-2000051
1002
}
1002
{
1070
     3
1000
-2000042
1002
}
  0
LWPOLYLINE
  5
402
330
70
100
AcDbEntity
  8
A-POR-___-___-EXI
100
AcDbPolyline
 90
        4
 70
     1
 43
0.0
 10
14135.41914915393
 20
-8270.511098458472
 10
14135.41914915393
 20
-10285.94554112217
 10
15179.65338523046
 20
-10285.94554112217
 10
15179.65338523046
 20
-8270.511098458472
1001
REVIT
1002
{
1070
     1
1000
22552406
1002
}
1002
{
1070
     2
1000
-2000051
1002
}
1002
{
1070
     3
1000
-2000042
1002
}
  0
LWPOLYLINE
  5
403
330
70
100
AcDbEntity
  8
A-POR-___-___-EXI
100
AcDbPolyline
 90
        4
 70
     1
 43
0.0
 10
14255.41914915393
 20
-8390.511098458473
 10
14255.41914915393
 20
-10285.94554112217
 10
15083.32477641881
 20
-10285.94554112217
 10
15083.32477641881
 20
-8390.511098458473
1001
REVIT
1002
{
1070
     1
1000
22552402
1002
}
1002
{
1070
     2
1000
-2000051
1002
}
1002
{
1070
     3
1000
-2000042
1002
}
  0
LWPOLYLINE
  5
404
330
70
100
AcDbEntity
  8
A-COB-___-___-EXI
100
AcDbPolyline
 90
        2
 70
     1
 43
0.0
 10
-205.7239697170978
 20
-8395.599789027903
 10
-516.6708560629464
 20
-8533.120819680815
1001
REVIT
1002
{
1070
     1
1000
22553149
1002
}
1002
{
1070
     2
1000
-2000051
1002
}
1002
{
1070
     3
1000
-2000042
1002
}
  0
LWPOLYLINE
  5
405
330
70
100
AcDbEntity
  8
A-POR-___-___-EXI
100
AcDbPolyline
 90
        3
 70
     0
 43
0.0
 10
2606.916822386008
 20
-8126.050260979399
 10
2606.916822386008
 20
-8131.443872511356
 10
2606.916822386008
 20
-10285.94554112213
1001
REVIT
1002
{
1070
     1
1000
22552547
1002
}
1002
{
1070
     2
1000
-2000051
1002
}
1002
{
1070
     3
1000
-2000042
1002
}
  0
LINE
  5
42A
330
70
100
AcDbEntity
  8
A-COB-___-___-EXI
100
AcDbLine
 10
15375.9787403196
 20
-8395.500363264529
 30
0.0
 11
15324.65338523046
 21
-8395.500363264529
 31
0.0
1001
REVIT
1002
{
1070
     1
1000
22552539
1002
}
1002
{
1070
     2
1000
-2000051
1002
}
1002
{
1070
     3
1000
-2000042
1002
}
  0
LINE
  5
42B
330
70
100
AcDbEntity
  8
A-COB-___-___-EXI
100
AcDbLine
 10
15324.65338523046
 20
-8395.500363264529
 30
0.0
 11
15324.65338523046
 21
-8455.500363264532
 31
0.0
1001
REVIT
1002
{
1070
     1
1000
22552539
1002
}
1002
{
1070
     2
1000
-2000051
1002
}
1002
{
1070
     3
1000
-2000042
1002
}
  0
LINE
  5
42C
330
70
100
AcDbEntity
  8
A-COB-___-___-EXI
100
AcDbLine
 10
15324.65338523046
 20
-8455.500363264532
 30
0.0
 11
15224.65338523046
 21
-8455.500363264532
 31
0.0
1001
REVIT
1002
{
1070
     1
1000
22552539
1002
}
1002
{
1070
     2
1000
-2000051
1002
}
1002
{
1070
     3
1000
-2000042
1002
}
  0
LINE
  5
42D
330
70
100
AcDbEntity
  8
A-COB-___-___-EXI
100
AcDbLine
 10
15224.65338523046
 20
-8455.500363264532
 30
0.0
 11
15224.65338523046
 21
-8395.500363264529
 31
0.0
1001
REVIT
1002
{
1070
     1
1000
22552539
1002
}
1002
{
1070
     2
1000
-2000051
1002
}
1002
{
1070
     3
1000
-2000042
1002
}
  0
LINE
  5
42E
330
70
100
AcDbEntity
  8
A-COB-___-___-EXI
100
AcDbLine
 10
15224.65338523046
 20
-8395.500363264529
 30
0.0
 11
15179.65338523046
 21
-8395.500363264529
 31
0.0
1001
REVIT
1002
{
1070
     1
1000
22552539
1002
}
1002
{
1070
     2
1000
-2000051
1002
}
1002
{
1070
     3
1000
-2000042
1002
}
  0
LINE
  5
42F
330
70
100
AcDbEntity
  8
A-ALV-___-___-EXI
100
AcDbLine
 10
15179.65338523046
 20
-8395.500363264529
 30
0.0
 11
15179.65338523046
 21
-6831.036775376865
 31
0.0
1001
REVIT
1002
{
1070
     1
1000
22552539
1002
}
1002
{
1070
     2
1000
-2000051
1002
}
1002
{
1070
     3
1000
-2000042
1002
}
  0
LINE
  5
430
330
70
100
AcDbEntity
  8
A-COB-___-___-EXI
100
AcDbLine
 10
15179.65338523046
 20
-6831.036775376865
 30
0.0
 11
13508.85660101178
 21
-6655.428957087204
 31
0.0
1001
REVIT
1002
{
1070
     1
1000
22552539
1002
}
1002
{
1070
     2
1000
-2000051
1002
}
1002
{
1070
     3
1000
-2000042
1002
}
  0
LINE
  5
431
330
70
100
AcDbEntity
  8
A-COB-___-___-EXI
100
AcDbLine
 10
13508.85660101178
 20
-6655.428957087204
 30
0.0
 11
12068.85660101173
 21
-6655.4289570872
 31
0.0
1001
REVIT
1002
{
1070
     1
1000
22552539
1002
}
1002
{
1070
     2
1000
-2000051
1002
}
1002
{
1070
     3
1000
-2000042
1002
}
  0
LINE
  5
432
330
70
100
AcDbEntity
  8
A-COB-___-___-EXI
100
AcDbLine
 10
12068.85660101173
 20
-6655.4289570872
 30
0.0
 11
10574.66015601707
 21
-6733.736474581985
 31
0.0
1001
REVIT
1002
{
1070
     1
1000
22552539
1002
}
1002
{
1070
     2
1000
-2000051
1002
}
1002
{
1070
     3
1000
-2000042
1002
}
  0
LWPOLYLINE
  5
43F
330
70
100
AcDbEntity
  8
A-ALV-___-___-EXI
100
AcDbPolyline
 90
        4
 70
     0
 43
0.0
 10
2748.469072393342
 20
-10285.94554112213
 10
2748.469072393342
 20
-8126.050260979399
 10
2970.154507943123
 20
-8006.481748814564
 10
2970.154507943123
 20
-10285.94554112213
1001
REVIT
1002
{
1070
     1
1000
22552548
1002
}
1002
{
1070
     2
1000
-2000051
1002
}
1002
{
1070
     3
1000
-2000042
1002
}
  0
LWPOLYLINE
  5
440
330
70
100
AcDbEntity
  8
A-ALV-___-___-EXI
100
AcDbPolyline
 90
       11
 70
     0
 43
0.0
 10
19425.74552391617
 20
-8419.559264302915
 10
19425.74552391617
 20
-8520.059509066328
 10
19098.41915859798
 20
-8370.201407625058
 10
17251.52565796421
 20
-7524.647908443423
 10
17224.19900574367
 20
-7669.753073421749
 10
17113.23124438152
 20
-7624.078617341009
 10
17141.37171954877
 20
-7479.308422807982
 10
15375.9787403196
 20
-6752.670675905108
 10
15375.9787403196
 20
-6831.036775376865
 10
15375.9787403196
 20
-8395.500363264529
 10
15375.9787403196
 20
-10285.94554112217
1001
REVIT
1002
{
1070
     1
1000
22552494
1002
}
1002
{
1070
     2
1000
-2000051
1002
}
1002
{
1070
     3
1000
-2000042
1002
}
  0
LWPOLYLINE
  5
441
330
70
100
AcDbEntity
  8
A-ALV-___-___-EXI
100
AcDbPolyline
 90
        6
 70
     0
 43
0.0
 10
19247.78837989429
 20
-8438.586329491849
 10
19247.78837989429
 20
-10285.94554112219
 10
18927.78837989429
 20
-10285.94554112219
 10
18927.78837989429
 20
-9105.94554112219
 10
19018.41915859795
 20
-9063.683714948117
 10
19018.41915859795
 20
-8483.683714948119
1001
REVIT
1002
{
1070
     1
1000
22552514
1002
}
1002
{
1070
     2
1000
-2000051
1002
}
1002
{
1070
     3
1000
-2000042
1002
}
  0
LWPOLYLINE
  5
442
330
70
100
AcDbEntity
  8
A-ESC-___-___-EXI
100
AcDbPolyline
 90
        6
 70
     0
 43
0.0
 10
11875.41914915393
 20
-10285.94554112216
 10
13023.32477641881
 20
-10285.94554112216
 10
13023.32477641881
 20
-8270.511098458461
 10
11875.41914915393
 20
-8270.511098458461
 10
11875.41914915393
 20
-10285.94554112216
 10
11612.61658386757
 20
-10023.1429758358
1001
REVIT
1002
{
1070
     1
1000
22552528
1002
}
1002
{
1070
     2
1000
-2000051
1002
}
1002
{
1070
     3
1000
-2000042
1002
}
  0
LWPOLYLINE
  5
443
330
70
100
AcDbEntity
  8
A-COB-___-___-EXI
100
AcDbPolyline
 90
        3
 70
     0
 43
0.0
 10
63.43731705029195
 20
-10285.94554112212
 10
63.43731705029473
 20
-8636.91804543853
 10
2436.916822386011
 20
-7773.042153855461
1001
REVIT
1002
{
1070
     1
1000
22552551
1002
}
1002
{
1070
     2
1000
-2000051
1002
}
1002
{
1070
     3
1000
-2000042
1002
}
  0
VIEWPORT
  5
455
102
{ACAD_XDICTIONARY
360
456
102
}
330
74
100
AcDbEntity
 67
     1
  8
0
100
AcDbViewport
 10
110.04267921414
 20
100.8937502233252
 30
0.0
 40
136.8205492044737
 41
54.4148358106288
 68
     1
 69
     1
 12
110.04267921414
 22
100.8937502233252
 13
0.0
 23
0.0
 14
10.0
 24
10.0
 15
10.0
 25
10.0
 16
0.0
 26
0.0
 36
1.0
 17
0.0
 27
0.0
 37
0.0
 42
50.0
 43
0.0
 44
0.0
 45
54.4148358106288
 50
0.0
 51
0.0
 72
   100
 90
   819232
  1

281
     0
 71
     1
 74
     0
110
0.0
120
0.0
130
0.0
111
1.0
121
0.0
131
0.0
112
0.0
122
1.0
132
0.0
 79
     0
146
0.0
170
     0
 61
     5
348
2F
292
     1
282
     1
141
0.0
142
0.0
 63
   250
421
  3355443
  0
VIEWPORT
  5
459
102
{ACAD_XDICTIONARY
360
45A
102
}
330
74
100
AcDbEntity
 67
     1
  8
0
100
AcDbViewport
 10
148.5
 20
104.9443283081054
 30
0.0
 40
237.6
 41
167.9109252929687
 68
     2
 69
     2
 12
9536.808779953338
 22
-7797.49036381197
 13
0.0
 23
0.0
 14
1.0
 24
1.0
 15
0.0
 25
0.0
 16
0.0
 26
0.0
 36
1.0
 17
0.0
 27
0.0
 37
0.0
 42
50.0
 43
0.0
 44
0.0
 45
15193.17228671285
 50
0.0
 51
0.0
 72
  1000
 90
   819232
  1

281
     0
 71
     1
 74
     0
110
0.0
120
0.0
130
0.0
111
1.0
121
0.0
131
0.0
112
0.0
122
1.0
132
0.0
 79
     0
146
0.0
170
     0
 61
     5
348
2F
292
     1
282
     1
141
0.0
142
0.0
 63
   250
421
  3355443
  0
ENDSEC
  0
SECTION
  2
OBJECTS
  0
DICTIONARY
  5
C
330
0
100
AcDbDictionary
281
     1
  3
ACAD_CIP_PREVIOUS_PRODUCT_INFO
350
79
  3
ACAD_COLOR
350
63
  3
ACAD_DETAILVIEWSTYLE
350
6A
  3
ACAD_GROUP
350
D
  3
ACAD_IMAGE_VARS
350
7A
  3
ACAD_LAYOUT
350
62
  3
ACAD_MATERIAL
350
10
  3
ACAD_MLEADERSTYLE
350
66
  3
ACAD_MLINESTYLE
350
5F
  3
ACAD_PLOTSETTINGS
350
61
  3
ACAD_PLOTSTYLENAME
350
E
  3
ACAD_RENDER_ACTIVE_RAPIDRT_SETTINGS
350
3A5
  3
ACAD_RENDER_RAPIDRT_SETTINGS
350
39E
  3
ACAD_SCALELIST
350
42
  3
ACAD_SECTIONVIEWSTYLE
350
68
  3
ACAD_TABLESTYLE
350
64
  3
ACAD_VISUALSTYLE
350
29
  3
ACDB_RECOMPOSE_DATA
350
46F
  3
AcDbVariableDictionary
350
38E
  3
REVIT_DICTIONARY
350
386
  0
SUN
  5
38D
330
57
100
AcDbSun
 90
        1
290
     1
 63
     7
421
 16777215
 40
0.3
291
     1
 91
  2460364
 92
 43518000
292
     0
 70
     1
 71
   128
280
     1
  0
DICTIONARY
  5
3AA
330
2
100
AcDbDictionary
280
     1
281
     1
  3
ACAD_LAYERSTATES
360
3AB
  0
DICTIONARY
  5
38B
330
70
100
AcDbDictionary
280
     1
281
     1
  3
ACAD_SORTENTS
360
38C
  0
DICTIONARY
  5
456
330
455
100
AcDbDictionary
280
     1
281
     1
  3
ASDK_XREC_ANNOTATION_SCALE_INFO
360
457
  0
DICTIONARY
  5
45A
330
459
100
AcDbDictionary
280
     1
281
     1
  3
ASDK_XREC_ANNOTATION_SCALE_INFO
360
45B
  0
XRECORD
  5
79
102
{ACAD_REACTORS
330
C
102
}
330
C
100
AcDbXrecord
280
     1
300
ACD
300
2022
300

  0
DICTIONARY
  5
63
102
{ACAD_REACTORS
330
C
102
}
330
C
100
AcDbDictionary
281
     1
  0
DICTIONARY
  5
6A
102
{ACAD_REACTORS
330
C
102
}
330
C
100
AcDbDictionary
281
     1
  3
Imperial24
350
6B
  3
Metric50
350
396
  0
DICTIONARY
  5
D
102
{ACAD_REACTORS
330
C
102
}
330
C
100
AcDbDictionary
281
     1
  0
RASTERVARIABLES
  5
7A
102
{ACAD_REACTORS
330
C
102
}
330
C
100
AcDbRasterVariables
 90
        0
 70
     0
 71
     1
 72
     1
  0
DICTIONARY
  5
62
102
{ACAD_REACTORS
330
C
102
}
330
C
100
AcDbDictionary
281
     1
  3
Layout2
350
77
  3
Model
350
73
  0
DICTIONARY
  5
10
102
{ACAD_REACTORS
330
C
102
}
330
C
100
AcDbDictionary
281
     1
  3
ByBlock
350
19
  3
ByLayer
350
11
  3
Global
350
21
  0
DICTIONARY
  5
66
102
{ACAD_REACTORS
330
C
102
}
330
C
100
AcDbDictionary
281
     1
  3
Standard
350
67
  0
DICTIONARY
  5
5F
102
{ACAD_REACTORS
330
C
102
}
330
C
100
AcDbDictionary
281
     1
  3
Standard
350
60
  0
DICTIONARY
  5
61
102
{ACAD_REACTORS
330
C
102
}
330
C
100
AcDbDictionary
281
     1
  0
ACDBDICTIONARYWDFLT
  5
E
102
{ACAD_REACTORS
330
C
102
}
330
C
100
AcDbDictionary
281
     1
  3
Normal
350
F
100
AcDbDictionaryWithDefault
340
F
  0
RAPIDRTRENDERSETTINGS
  5
3A5
102
{ACAD_REACTORS
330
C
102
}
330
C
100
AcDbRenderSettings
 90
        2
  1
Médio
290
     1
290
     0
290
     1
290
     1
  1

  1
Aplica 5 níveis de renderização
 90
        0
100
AcDbRapidRTRenderSettings
 90
        3
 70
     0
 90
        5
 90
        1
 70
     1
 70
     2
 40
3.0
 40
3.0
290
     1
  0
DICTIONARY
  5
39E
102
{ACAD_REACTORS
330
C
102
}
330
C
100
AcDbDictionary
281
     1
  3
Alto
350
3A1
  3
Baixo
350
39F
  3
Médio
350
3A0
  3
Qualidade de curta duração
350
3A2
  3
Qualidade de longa duração
350
3A4
  3
Qualidade de média duração
350
3A3
  0
DICTIONARY
  5
42
102
{ACAD_REACTORS
330
C
102
}
330
C
100
AcDbDictionary
281
     1
  3
A0
350
43
  3
A1
350
44
  3
A2
350
45
  3
A3
350
46
  3
A4
350
47
  3
A5
350
48
  3
A6
350
49
  3
A7
350
4A
  3
A8
350
4B
  3
A9
350
4C
  3
B0
350
4D
  3
B1
350
4E
  3
B2
350
4F
  3
B3
350
50
  3
B4
350
51
  3
B5
350
52
  3
B6
350
53
  0
DICTIONARY
  5
68
102
{ACAD_REACTORS
330
C
102
}
330
C
100
AcDbDictionary
281
     1
  3
Imperial24
350
69
  3
Metric50
350
395
  0
DICTIONARY
  5
64
102
{ACAD_REACTORS
330
C
102
}
330
C
100
AcDbDictionary
281
     1
  3
Standard
350
65
  0
DICTIONARY
  5
29
102
{ACAD_REACTORS
330
C
102
}
330
C
100
AcDbDictionary
281
     1
  3
2dWireframe
350
2F
  3
Basic
350
2E
  3
Brighten
350
35
  3
ColorChange
350
39
  3
Conceptual
350
32
  3
Dim
350
34
  3
EdgeColorOff
350
41
  3
Facepattern
350
38
  3
Flat
350
2A
  3
FlatWithEdges
350
2B
  3
Gouraud
350
2C
  3
GouraudWithEdges
350
2D
  3
Hidden
350
31
  3
JitterOff
350
3F
  3
Linepattern
350
37
  3
OverhangOff
350
40
  3
Realistic
350
33
  3
Shaded
350
3E
  3
Shaded with edges
350
3D
  3
Shades of Gray
350
3A
  3
Sketchy
350
3B
  3
Thicken
350
36
  3
Wireframe
350
30
  3
X-Ray
350
3C
  0
XRECORD
  5
46F
102
{ACAD_REACTORS
330
C
102
}
330
C
100
AcDbXrecord
280
     1
 90
        1
330
65
  0
DICTIONARY
  5
38E
102
{ACAD_REACTORS
330
C
102
}
330
C
100
AcDbDictionary
281
     1
  3
CANNOSCALE
350
393
  3
CMLEADERSTYLE
350
390
  3
CTABLESTYLE
350
38F
  3
CVIEWDETAILSTYLE
350
391
  3
CVIEWSECTIONSTYLE
350
392
  0
DICTIONARY
  5
386
102
{ACAD_REACTORS
330
C
102
}
330
C
100
AcDbDictionary
281
     1
  3
DRAWING_TOOL
350
38A
  3
REVIT_CATEGORY_MAPPING
350
388
  3
REVIT_SUB_CATEGORY_MAPPING
350
389
  3
REVIT_TYPE_MAPPING
350
387
  0
DICTIONARY
  5
3AB
102
{ACAD_REACTORS
330
3AA
102
}
330
3AA
100
AcDbDictionary
281
     1
  0
SORTENTSTABLE
  5
38C
102
{ACAD_REACTORS
330
38B
102
}
330
38B
100
AcDbSortentsTable
330
70
331
3B5
  5
3B8
331
3B7
  5
3C4
331
3B8
  5
3C5
331
3BA
  5
3CB
331
3BB
  5
3CC
331
3BD
  5
3D6
331
3BE
  5
3D7
331
3BF
  5
3D9
331
3C0
  5
3DA
331
3C2
  5
3E5
331
3C3
  5
3E6
331
3C4
  5
3E7
331
3C5
  5
3E8
331
3C6
  5
3E9
331
3C7
  5
3EA
331
3C8
  5
3EB
331
3C9
  5
3EC
331
3CA
  5
3ED
331
3CB
  5
3EE
331
3CC
  5
3EF
331
3CD
  5
3F0
331
3CE
  5
3F1
331
3CF
  5
3F2
331
3D0
  5
3F3
331
3D1
  5
3F4
331
3D2
  5
3F5
331
3D3
  5
3F6
331
3D4
  5
3F7
331
3D5
  5
3F8
331
3D6
  5
3F9
331
3D7
  5
3FA
331
3D8
  5
3FB
331
3D9
  5
3FC
331
3DA
  5
3FD
331
3DB
  5
3FE
331
3DC
  5
3FF
331
3DD
  5
400
331
3DE
  5
401
331
3DF
  5
402
331
3E0
  5
403
331
3E1
  5
404
331
3E2
  5
405
331
3E3
  5
415
331
3E4
  5
416
331
3E5
  5
417
331
3E6
  5
419
331
3E7
  5
41A
331
3E8
  5
41B
331
3E9
  5
41C
331
3EA
  5
41D
331
3EB
  5
422
331
3EC
  5
423
331
3ED
  5
424
331
3EE
  5
425
331
3EF
  5
426
331
3F0
  5
427
331
3F1
  5
428
331
3F2
  5
429
331
3F3
  5
42A
331
3F4
  5
42B
331
3F5
  5
42C
331
3F6
  5
42D
331
3F7
  5
42E
331
3F8
  5
42F
331
3F9
  5
430
331
3FA
  5
431
331
3FC
  5
435
331
3FD
  5
436
331
3FE
  5
437
331
3FF
  5
438
331
400
  5
439
331
401
  5
43A
331
402
  5
43B
331
403
  5
43C
331
404
  5
43D
331
405
  5
43E
331
42A
  5
3BA
331
42B
  5
3BB
331
42C
  5
3BD
331
42D
  5
3BE
331
42E
  5
3BF
331
42F
  5
3C0
331
430
  5
3C1
331
431
  5
3C2
331
432
  5
3C3
  0
XRECORD
  5
457
102
{ACAD_REACTORS
330
456
102
}
330
456
100
AcDbXrecord
280
     1
 90
        1
340
43
  0
XRECORD
  5
45B
102
{ACAD_REACTORS
330
45A
102
}
330
45A
100
AcDbXrecord
280
     1
 90
        1
340
43
  0
ACDBDETAILVIEWSTYLE
  5
6B
102
{ACAD_REACTORS
330
6A
102
}
330
6A
100
AcDbModelDocViewStyle
 70
     0
  3
Imperial24
290
     1
300
Imperial24
 90
        0
100
AcDbDetailViewStyle
 70
     0
 71
     0
 90
        3
 71
     1
340
55
 62
   256
 40
0.24
340
0
 62
   256
 40
0.24
300

 40
0.36
280
     3
 71
     2
340
5D
 90
       25
 62
   256
 71
     3
340
55
 62
   256
 40
0.24
 90
        1
 40
0.75
 90
        1
300
%<\AcVar ViewType \f "%tc1">% %<\AcVar ViewDetailId>%\PSCALE %<\AcVar ViewScale \f "%sn">%
 71
     4
340
5D
 90
       25
 62
   256
340
5D
 90
       25
 62
   256
280
     0
  0
ACDBDETAILVIEWSTYLE
  5
396
102
{ACAD_REACTORS
330
6A
102
}
330
6A
100
AcDbModelDocViewStyle
 70
     0
  3
Metric50
290
     1
300
Metric50
 90
        0
100
AcDbDetailViewStyle
 70
     0
 71
     0
 90
        3
 71
     1
340
55
 62
   256
 40
5.0
340
0
 62
   256
 40
5.0
300

 40
0.0
280
     1
 71
     2
340
5D
 90
       25
 62
   256
 71
     3
340
55
 62
   256
 40
5.0
 90
        0
 40
15.0
 90
        1
300
%<\AcVar ViewDetailId>% (%<\AcVar ViewScale \f "%sn">%)
 71
     4
340
5D
 90
       25
 62
   256
340
5D
 90
       25
 62
   256
280
     0
  0
LAYOUT
  5
77
102
{ACAD_REACTORS
330
62
102
}
330
62
100
AcDbPlotSettings
  1

  2
PDF24
  4
A4
  6

 40
0.0
 41
0.0
 42
0.1113433837890625
 43
0.0
 44
210.0
 45
297.0
 46
0.0
 47
0.0
 48
0.0
 49
0.0
140
0.0
141
0.0
142
1.0
143
1.0
 70
   688
 72
     1
 73
     1
 74
     5
  7

 75
    16
147
1.0
 76
     0
 77
     2
 78
   300
148
0.0
149
0.0
100
AcDbLayout
  1
Layout2
 70
     1
 71
     1
 10
0.0
 20
0.0
 11
297.0
 21
210.0
 12
0.0
 22
0.0
 32
0.0
 14
29.69999999999999
 24
20.98886566162111
 34
0.0
 15
267.3
 25
188.8997909545898
 35
0.0
146
0.0
 13
0.0
 23
0.0
 33
0.0
 16
1.0
 26
0.0
 36
0.0
 17
0.0
 27
1.0
 37
0.0
 76
     0
330
74
331
455
1001
ACAD_PSEXT
1000
PDF24
1000
PDF24
1000
\\.\pipe\PDFPrint
1000
PDF24 Printer
1070
     0
  0
LAYOUT
  5
73
102
{ACAD_REACTORS
330
62
102
}
330
62
100
AcDbPlotSettings
  1

  2

  4

  6

 40
0.0
 41
0.0
 42
0.0
 43
0.0
 44
0.0
 45
0.0
 46
0.0
 47
0.0
 48
0.0
 49
0.0
140
0.0
141
0.0
142
1.0
143
1.0
 70
  1712
 72
     0
 73
     0
 74
     0
  7

 75
     0
147
1.0
 76
     0
 77
     2
 78
   300
148
0.0
149
0.0
100
AcDbLayout
  1
Model
 70
     1
 71
     0
 10
0.0
 20
0.0
 11
12.0
 21
9.0
 12
0.0
 22
0.0
 32
0.0
 14
0.0
 24
0.0
 34
0.0
 15
0.0
 25
0.0
 35
0.0
146
0.0
 13
0.0
 23
0.0
 33
0.0
 16
1.0
 26
0.0
 36
0.0
 17
0.0
 27
1.0
 37
0.0
 76
     0
330
70
331
57
  0
MATERIAL
  5
19
102
{ACAD_XDICTIONARY
360
1A
102
}
102
{ACAD_REACTORS
330
10
102
}
330
10
100
AcDbMaterial
  1
ByBlock
 72
     0
 43
0.0208333333333333
 43
0.0
 43
0.0
 43
0.0
 43
0.0
 43
0.0208333333333333
 43
0.0
 43
0.0
 43
0.0
 43
0.0
 43
1.0
 43
0.0
 43
0.0
 43
0.0
 43
0.0
 43
1.0
 77
     0
 47
0.0208333333333333
 47
0.0
 47
0.0
 47
0.0
 47
0.0
 47
0.0208333333333333
 47
0.0
 47
0.0
 47
0.0
 47
0.0
 47
1.0
 47
0.0
 47
0.0
 47
0.0
 47
0.0
 47
1.0
171
     0
 49
0.0208333333333333
 49
0.0
 49
0.0
 49
0.0
 49
0.0
 49
0.0208333333333333
 49
0.0
 49
0.0
 49
0.0
 49
0.0
 49
1.0
 49
0.0
 49
0.0
 49
0.0
 49
0.0
 49
1.0
175
     0
142
0.0208333333333333
142
0.0
142
0.0
142
0.0
142
0.0
142
0.0208333333333333
142
0.0
142
0.0
142
0.0
142
0.0
142
1.0
142
0.0
142
0.0
142
0.0
142
0.0
142
1.0
179
     0
144
0.0208333333333333
144
0.0
144
0.0
144
0.0
144
0.0
144
0.0208333333333333
144
0.0
144
0.0
144
0.0
144
0.0
144
1.0
144
0.0
144
0.0
144
0.0
144
0.0
144
1.0
147
0.0208333333333333
147
0.0
147
0.0
147
0.0
147
0.0
147
0.0208333333333333
147
0.0
147
0.0
147
0.0
147
0.0
147
1.0
147
0.0
147
0.0
147
0.0
147
0.0
147
1.0
  0
MATERIAL
  5
11
102
{ACAD_XDICTIONARY
360
12
102
}
102
{ACAD_REACTORS
330
10
102
}
330
10
100
AcDbMaterial
  1
ByLayer
 72
     0
 43
0.0208333333333333
 43
0.0
 43
0.0
 43
0.0
 43
0.0
 43
0.0208333333333333
 43
0.0
 43
0.0
 43
0.0
 43
0.0
 43
1.0
 43
0.0
 43
0.0
 43
0.0
 43
0.0
 43
1.0
 77
     0
 47
0.0208333333333333
 47
0.0
 47
0.0
 47
0.0
 47
0.0
 47
0.0208333333333333
 47
0.0
 47
0.0
 47
0.0
 47
0.0
 47
1.0
 47
0.0
 47
0.0
 47
0.0
 47
0.0
 47
1.0
171
     0
 49
0.0208333333333333
 49
0.0
 49
0.0
 49
0.0
 49
0.0
 49
0.0208333333333333
 49
0.0
 49
0.0
 49
0.0
 49
0.0
 49
1.0
 49
0.0
 49
0.0
 49
0.0
 49
0.0
 49
1.0
175
     0
142
0.0208333333333333
142
0.0
142
0.0
142
0.0
142
0.0
142
0.0208333333333333
142
0.0
142
0.0
142
0.0
142
0.0
142
1.0
142
0.0
142
0.0
142
0.0
142
0.0
142
1.0
179
     0
144
0.0208333333333333
144
0.0
144
0.0
144
0.0
144
0.0
144
0.0208333333333333
144
0.0
144
0.0
144
0.0
144
0.0
144
1.0
144
0.0
144
0.0
144
0.0
144
0.0
144
1.0
147
0.0208333333333333
147
0.0
147
0.0
147
0.0
147
0.0
147
0.0208333333333333
147
0.0
147
0.0
147
0.0
147
0.0
147
1.0
147
0.0
147
0.0
147
0.0
147
0.0
147
1.0
  0
MATERIAL
  5
21
102
{ACAD_XDICTIONARY
360
22
102
}
102
{ACAD_REACTORS
330
10
102
}
330
10
100
AcDbMaterial
  1
Global
 72
     0
 43
0.0208333333333333
 43
0.0
 43
0.0
 43
0.0
 43
0.0
 43
0.0208333333333333
 43
0.0
 43
0.0
 43
0.0
 43
0.0
 43
1.0
 43
0.0
 43
0.0
 43
0.0
 43
0.0
 43
1.0
 77
     0
 47
0.0208333333333333
 47
0.0
 47
0.0
 47
0.0
 47
0.0
 47
0.0208333333333333
 47
0.0
 47
0.0
 47
0.0
 47
0.0
 47
1.0
 47
0.0
 47
0.0
 47
0.0
 47
0.0
 47
1.0
171
     0
 49
0.0208333333333333
 49
0.0
 49
0.0
 49
0.0
 49
0.0
 49
0.0208333333333333
 49
0.0
 49
0.0
 49
0.0
 49
0.0
 49
1.0
 49
0.0
 49
0.0
 49
0.0
 49
0.0
 49
1.0
175
     0
142
0.0208333333333333
142
0.0
142
0.0
142
0.0
142
0.0
142
0.0208333333333333
142
0.0
142
0.0
142
0.0
142
0.0
142
1.0
142
0.0
142
0.0
142
0.0
142
0.0
142
1.0
179
     0
144
0.0208333333333333
144
0.0
144
0.0
144
0.0
144
0.0
144
0.0208333333333333
144
0.0
144
0.0
144
0.0
144
0.0
144
1.0
144
0.0
144
0.0
144
0.0
144
0.0
144
1.0
147
0.0208333333333333
147
0.0
147
0.0
147
0.0
147
0.0
147
0.0208333333333333
147
0.0
147
0.0
147
0.0
147
0.0
147
1.0
147
0.0
147
0.0
147
0.0
147
0.0
147
1.0
  0
MLEADERSTYLE
  5
67
102
{ACAD_REACTORS
330
66
102
}
330
66
100
AcDbMLeaderStyle
179
     2
170
     2
171
     1
172
     0
 90
        2
 40
0.0
 41
0.0
173
     1
 91
-1056964608
340
5B
 92
       -2
290
     1
 42
0.09
291
     1
 43
0.36
  3
Standard
 44
0.18
300

342
55
174
     1
178
     6
175
     1
176
     0
 93
-1056964608
 45
0.18
292
     0
297
     0
 46
0.18
 94
-1056964608
 47
1.0
 49
1.0
140
1.0
293
     1
141
0.0
294
     1
177
     0
142
1.0
295
     1
296
     0
143
0.125
271
     0
272
     9
273
     9
298
     1
  0
MLINESTYLE
  5
60
102
{ACAD_REACTORS
330
5F
102
}
330
5F
100
AcDbMlineStyle
  2
STANDARD
 70
     0
  3

 62
   256
 51
90.0
 52
90.0
 71
     2
 49
0.5
 62
   256
  6
BYLAYER
 49
-0.5
 62
   256
  6
BYLAYER
  0
ACDBPLACEHOLDER
  5
F
102
{ACAD_REACTORS
330
E
102
}
330
E
  0
RAPIDRTRENDERSETTINGS
  5
3A1
102
{ACAD_REACTORS
330
39E
102
}
330
39E
100
AcDbRenderSettings
 90
        2
  1
Alto
290
     1
290
     0
290
     1
290
     1
  1

  1
Aplica 10 níveis de renderização
 90
        2
100
AcDbRapidRTRenderSettings
 90
        3
 70
     0
 90
       10
 90
        1
 70
     2
 70
     2
 40
3.0
 40
3.0
290
     1
  0
RAPIDRTRENDERSETTINGS
  5
39F
102
{ACAD_REACTORS
330
39E
102
}
330
39E
100
AcDbRenderSettings
 90
        2
  1
Baixo
290
     1
290
     0
290
     1
290
     1
  1

  1
Aplica 1 nível de renderização
 90
        0
100
AcDbRapidRTRenderSettings
 90
        3
 70
     0
 90
        1
 90
        1
 70
     0
 70
     2
 40
3.0
 40
3.0
290
     1
  0
RAPIDRTRENDERSETTINGS
  5
3A0
102
{ACAD_REACTORS
330
39E
102
}
330
39E
100
AcDbRenderSettings
 90
        2
  1
Médio
290
     1
290
     0
290
     1
290
     1
  1

  1
Aplica 5 níveis de renderização
 90
        1
100
AcDbRapidRTRenderSettings
 90
        3
 70
     0
 90
        5
 90
        1
 70
     1
 70
     2
 40
3.0
 40
3.0
290
     1
  0
RAPIDRTRENDERSETTINGS
  5
3A2
102
{ACAD_REACTORS
330
39E
102
}
330
39E
100
AcDbRenderSettings
 90
        2
  1
Qualidade de curta duração
290
     1
290
     0
290
     1
290
     1
  1

  1
Renderiza por 10 minutos
 90
        3
100
AcDbRapidRTRenderSettings
 90
        3
 70
     1
 90
        1
 90
       10
 70
     1
 70
     2
 40
3.0
 40
3.0
290
     1
  0
RAPIDRTRENDERSETTINGS
  5
3A4
102
{ACAD_REACTORS
330
39E
102
}
330
39E
100
AcDbRenderSettings
 90
        2
  1
Qualidade de longa duração
290
     1
290
     0
290
     1
290
     1
  1

  1
Renderiza por 12 horas
 90
        5
100
AcDbRapidRTRenderSettings
 90
        3
 70
     1
 90
        1
 90
      720
 70
     2
 70
     2
 40
3.0
 40
3.0
290
     1
  0
RAPIDRTRENDERSETTINGS
  5
3A3
102
{ACAD_REACTORS
330
39E
102
}
330
39E
100
AcDbRenderSettings
 90
        2
  1
Qualidade de média duração
290
     1
290
     0
290
     1
290
     1
  1

  1
Renderiza por 60 minutos
 90
        4
100
AcDbRapidRTRenderSettings
 90
        3
 70
     1
 90
        1
 90
       60
 70
     2
 70
     2
 40
3.0
 40
3.0
290
     1
  0
SCALE
  5
43
102
{ACAD_REACTORS
330
42
102
}
330
42
100
AcDbScale
 70
     0
300
1:1
140
1.0
141
1.0
290
     1
  0
SCALE
  5
44
102
{ACAD_REACTORS
330
42
102
}
330
42
100
AcDbScale
 70
     0
300
1/128" = 1'-0"
140
0.0078125
141
12.0
290
     0
  0
SCALE
  5
45
102
{ACAD_REACTORS
330
42
102
}
330
42
100
AcDbScale
 70
     0
300
1/64" = 1'-0"
140
0.015625
141
12.0
290
     0
  0
SCALE
  5
46
102
{ACAD_REACTORS
330
42
102
}
330
42
100
AcDbScale
 70
     0
300
1/32" = 1'-0"
140
0.03125
141
12.0
290
     0
  0
SCALE
  5
47
102
{ACAD_REACTORS
330
42
102
}
330
42
100
AcDbScale
 70
     0
300
1/16" = 1'-0"
140
0.0625
141
12.0
290
     0
  0
SCALE
  5
48
102
{ACAD_REACTORS
330
42
102
}
330
42
100
AcDbScale
 70
     0
300
3/32" = 1'-0"
140
0.09375
141
12.0
290
     0
  0
SCALE
  5
49
102
{ACAD_REACTORS
330
42
102
}
330
42
100
AcDbScale
 70
     0
300
1/8" = 1'-0"
140
0.125
141
12.0
290
     0
  0
SCALE
  5
4A
102
{ACAD_REACTORS
330
42
102
}
330
42
100
AcDbScale
 70
     0
300
3/16" = 1'-0"
140
0.1875
141
12.0
290
     0
  0
SCALE
  5
4B
102
{ACAD_REACTORS
330
42
102
}
330
42
100
AcDbScale
 70
     0
300
1/4" = 1'-0"
140
0.25
141
12.0
290
     0
  0
SCALE
  5
4C
102
{ACAD_REACTORS
330
42
102
}
330
42
100
AcDbScale
 70
     0
300
3/8" = 1'-0"
140
0.375
141
12.0
290
     0
  0
SCALE
  5
4D
102
{ACAD_REACTORS
330
42
102
}
330
42
100
AcDbScale
 70
     0
300
1/2" = 1'-0"
140
0.5
141
12.0
290
     0
  0
SCALE
  5
4E
102
{ACAD_REACTORS
330
42
102
}
330
42
100
AcDbScale
 70
     0
300
3/4" = 1'-0"
140
0.75
141
12.0
290
     0
  0
SCALE
  5
4F
102
{ACAD_REACTORS
330
42
102
}
330
42
100
AcDbScale
 70
     0
300
1" = 1'-0"
140
1.0
141
12.0
290
     0
  0
SCALE
  5
50
102
{ACAD_REACTORS
330
42
102
}
330
42
100
AcDbScale
 70
     0
300
1-1/2" = 1'-0"
140
1.5
141
12.0
290
     0
  0
SCALE
  5
51
102
{ACAD_REACTORS
330
42
102
}
330
42
100
AcDbScale
 70
     0
300
3" = 1'-0"
140
3.0
141
12.0
290
     0
  0
SCALE
  5
52
102
{ACAD_REACTORS
330
42
102
}
330
42
100
AcDbScale
 70
     0
300
6" = 1'-0"
140
6.0
141
12.0
290
     0
  0
SCALE
  5
53
102
{ACAD_REACTORS
330
42
102
}
330
42
100
AcDbScale
 70
     0
300
1'-0" = 1'-0"
140
12.0
141
12.0
290
     0
  0
ACDBSECTIONVIEWSTYLE
  5
69
102
{ACAD_REACTORS
330
68
102
}
330
68
100
AcDbModelDocViewStyle
 70
     0
  3
Imperial24
290
     1
300
Imperial24
 90
        0
100
AcDbSectionViewStyle
 70
     0
 71
     0
 90
       78
 71
     1
340
55
 62
   256
 40
0.24
340
0
340
0
 62
   256
 40
0.24
300
I, O, Q, S, X, Z
 40
0.48
 90
        3
 40
0.18
 90
        1
 71
     2
340
5D
 90
       25
 62
   256
340
5D
 90
       50
 62
   256
 40
0.24
 40
0.0
 40
0.24
 71
     3
340
55
 62
   256
 40
0.24
 90
        1
 40
0.75
 90
        1
300
%<\AcVar ViewType \f "%tc1">% %<\AcVar ViewSectionStartId>%-%<\AcVar ViewSectionEndId>%\PSCALE %<\AcVar ViewScale \f "%sn">%
 71
     4
 62
   256
 62
   257
300
ANSI31
 40
1.0
 90
        0
290
     0
290
     0
 90
        6
 40
0.0
 40
1.570796326794896
 40
0.2617993877991494
 40
1.308996938995747
 40
-0.2617993877991494
 40
1.832595714594046
  0
ACDBSECTIONVIEWSTYLE
  5
395
102
{ACAD_REACTORS
330
68
102
}
330
68
100
AcDbModelDocViewStyle
 70
     0
  3
Metric50
290
     1
300
Metric50
 90
        0
100
AcDbSectionViewStyle
 70
     0
 71
     0
 90
      102
 71
     1
340
55
 62
   256
 40
5.0
340
0
340
0
 62
   256
 40
5.0
300
I, O, Q, S, X, Z
 40
10.0
 90
        0
 40
2.5
 90
        0
 71
     2
340
5D
 90
       25
 62
   256
340
5D
 90
       50
 62
   256
 40
5.0
 40
2.5
 40
5.0
 71
     3
340
55
 62
   256
 40
5.0
 90
        0
 40
15.0
 90
        1
300
%<\AcVar ViewSectionStartId>%-%<\AcVar ViewSectionEndId>% (%<\AcVar ViewScale \f "%sn">%)
 71
     4
 62
   256
 62
   257
300
ANSI31
 40
1.0
 90
        0
290
     0
290
     0
 90
        6
 40
0.0
 40
1.570796326794896
 40
0.2617993877991494
 40
1.308996938995747
 40
-0.2617993877991494
 40
1.832595714594046
  0
TABLESTYLE
  5
65
102
{ACAD_XDICTIONARY
360
46D
102
}
102
{ACAD_REACTORS
330
64
102
}
330
64
100
AcDbTableStyle
280
     0
  3
Standard
 70
     0
 71
     0
 40
0.06
 41
0.06
280
     0
281
     0
  7
Standard
140
0.18
170
     2
 62
     0
 63
     7
283
     0
 90
      512
 91
        0
  1

274
    -2
284
     1
 64
     0
275
    -2
285
     1
 65
     0
276
    -2
286
     1
 66
     0
277
    -2
287
     1
 67
     0
278
    -2
288
     1
 68
     0
279
    -2
289
     1
 69
     0
  7
Standard
140
0.25
170
     5
 62
     0
 63
     7
283
     0
 90
      512
 91
        0
  1

274
    -2
284
     1
 64
     0
275
    -2
285
     1
 65
     0
276
    -2
286
     1
 66
     0
277
    -2
287
     1
 67
     0
278
    -2
288
     1
 68
     0
279
    -2
289
     1
 69
     0
  7
Standard
140
0.18
170
     5
 62
     0
 63
     7
283
     0
 90
      512
 91
        0
  1

274
    -2
284
     1
 64
     0
275
    -2
285
     1
 65
     0
276
    -2
286
     1
 66
     0
277
    -2
287
     1
 67
     0
278
    -2
288
     1
 68
     0
279
    -2
289
     1
 69
     0
  0
VISUALSTYLE
  5
2F
102
{ACAD_REACTORS
330
29
102
}
330
29
100
AcDbVisualStyle
  2
2dWireframe
 70
     4
177
     3
291
     0
 70
    58
 90
        0
176
     1
 90
        2
176
     1
 90
        0
176
     1
 90
        0
176
     1
 40
0.6
176
     1
 40
30.0
176
     1
 62
     7
420
 16777215
176
     1
 90
        1
176
     1
 90
        4
176
     1
 62
     7
176
     1
 62
   257
176
     1
 90
        1
176
     1
 90
        1
176
     1
 40
1.0
176
     1
 90
        0
176
     1
 62
   257
176
     1
 40
1.0
176
     1
 90
        1
176
     1
 90
        6
176
     1
 90
        2
176
     1
 62
     7
176
     1
 90
        5
176
     1
 90
        0
176
     1
 90
        0
176
     1
290
     0
176
     1
 90
        1
176
     1
 40
0.0
176
     1
 90
        0
176
     1
290
     1
176
     1
290
     1
176
     1
290
     0
176
     1
290
     0
176
     1
290
     0
176
     1
290
     0
176
     1
290
     0
176
     1
290
     0
176
     1
290
     0
176
     1
 90
       50
176
     1
 40
0.0
176
     1
 40
1.0
176
     1
 90
        0
176
     1
 62
    18
420
        0
176
     1
 90
       50
176
     1
 90
        3
176
     1
 62
     5
420
      255
176
     1
290
     0
176
     1
 90
       50
176
     1
 90
       50
176
     1
 90
       50
176
     1
290
     0
176
     1
 90
       50
176
     1
 62
   256
176
     0
 40
1.0
176
     0
 90
        2
176
     1
  1
strokes_ogs.tif
176
     1
290
     0
176
     1
 40
1.0
176
     1
 40
1.0
176
     1
  0
VISUALSTYLE
  5
2E
102
{ACAD_REACTORS
330
29
102
}
330
29
100
AcDbVisualStyle
  2
Basic
 70
     7
177
     3
291
     1
 70
    58
 90
        1
176
     1
 90
        0
176
     1
 90
        1
176
     1
 90
        0
176
     1
 40
0.6
176
     1
 40
30.0
176
     1
 62
     7
420
 16777215
176
     1
 90
        0
176
     1
 90
        4
176
     1
 62
     7
176
     1
 62
   257
176
     1
 90
        1
176
     1
 90
        1
176
     1
 40
1.0
176
     1
 90
        8
176
     1
 62
     7
176
     1
 40
1.0
176
     1
 90
        1
176
     1
 90
        6
176
     1
 90
        2
176
     1
 62
     7
176
     1
 90
        5
176
     1
 90
        0
176
     1
 90
        0
176
     1
290
     0
176
     1
 90
        1
176
     1
 40
0.0
176
     1
 90
        0
176
     1
290
     0
176
     1
290
     1
176
     1
290
     1
176
     1
290
     0
176
     1
290
     0
176
     1
290
     0
176
     1
290
     0
176
     1
290
     0
176
     1
290
     0
176
     1
 90
       50
176
     1
 40
0.0
176
     1
 40
1.0
176
     1
 90
        0
176
     1
 62
    18
420
        0
176
     1
 90
       50
176
     1
 90
        3
176
     1
 62
     5
420
      255
176
     1
290
     0
176
     1
 90
       50
176
     1
 90
       50
176
     1
 90
       50
176
     1
290
     0
176
     1
 90
       50
176
     1
 62
   256
176
     0
 40
1.0
176
     0
 90
        2
176
     1
  1
strokes_ogs.tif
176
     1
290
     0
176
     1
 40
1.0
176
     1
 40
1.0
176
     1
  0
VISUALSTYLE
  5
35
102
{ACAD_REACTORS
330
29
102
}
330
29
100
AcDbVisualStyle
  2
Brighten
 70
    12
177
     3
291
     1
 70
    58
 90
        2
176
     1
 90
        2
176
     1
 90
        0
176
     1
 90
        0
176
     1
 40
0.6
176
     1
 40
30.0
176
     1
 62
     7
420
 16777215
176
     1
 90
        1
176
     1
 90
        4
176
     1
 62
     7
176
     1
 62
   257
176
     1
 90
        1
176
     1
 90
        1
176
     1
 40
1.0
176
     1
 90
        8
176
     1
 62
     7
176
     1
 40
1.0
176
     1
 90
        1
176
     1
 90
        6
176
     1
 90
        2
176
     1
 62
     7
176
     1
 90
        5
176
     1
 90
        0
176
     1
 90
        0
176
     1
290
     0
176
     1
 90
        1
176
     1
 40
50.0
176
     1
 90
        0
176
     1
290
     0
176
     1
290
     1
176
     1
290
     1
176
     1
290
     0
176
     1
290
     0
176
     1
290
     0
176
     1
290
     0
176
     1
290
     0
176
     1
290
     0
176
     1
 90
       50
176
     1
 40
0.0
176
     1
 40
1.0
176
     1
 90
        0
176
     1
 62
    18
420
        0
176
     1
 90
       50
176
     1
 90
        3
176
     1
 62
     5
420
      255
176
     1
290
     0
176
     1
 90
       50
176
     1
 90
       50
176
     1
 90
       50
176
     1
290
     0
176
     1
 90
       50
176
     1
 62
   256
176
     0
 40
1.0
176
     0
 90
        2
176
     1
  1
strokes_ogs.tif
176
     1
290
     0
176
     1
 40
1.0
176
     1
 40
1.0
176
     1
  0
VISUALSTYLE
  5
39
102
{ACAD_REACTORS
330
29
102
}
330
29
100
AcDbVisualStyle
  2
ColorChange
 70
    16
177
     3
291
     1
 70
    58
 90
        2
176
     1
 90
        2
176
     1
 90
        3
176
     1
 90
        0
176
     1
 40
0.6
176
     1
 40
30.0
176
     1
 62
     8
420
  8421504
176
     1
 90
        1
176
     1
 90
        4
176
     1
 62
     7
176
     1
 62
   257
176
     1
 90
        1
176
     1
 90
        1
176
     1
 40
1.0
176
     1
 90
        8
176
     1
 62
     8
420
  8421504
176
     1
 40
1.0
176
     1
 90
        1
176
     1
 90
        6
176
     1
 90
        2
176
     1
 62
     7
176
     1
 90
        5
176
     1
 90
        0
176
     1
 90
        0
176
     1
290
     0
176
     1
 90
        1
176
     1
 40
0.0
176
     1
 90
        0
176
     1
290
     0
176
     1
290
     1
176
     1
290
     1
176
     1
290
     0
176
     1
290
     0
176
     1
290
     0
176
     1
290
     0
176
     1
290
     0
176
     1
290
     0
176
     1
 90
       50
176
     1
 40
0.0
176
     1
 40
1.0
176
     1
 90
        0
176
     1
 62
    18
420
        0
176
     1
 90
       50
176
     1
 90
        3
176
     1
 62
     5
420
      255
176
     1
290
     0
176
     1
 90
       50
176
     1
 90
       50
176
     1
 90
       50
176
     1
290
     0
176
     1
 90
       50
176
     1
 62
   256
176
     0
 40
1.0
176
     0
 90
        2
176
     1
  1
strokes_ogs.tif
176
     1
290
     0
176
     1
 40
1.0
176
     1
 40
1.0
176
     1
  0
VISUALSTYLE
  5
32
102
{ACAD_REACTORS
330
29
102
}
330
29
100
AcDbVisualStyle
  2
Conceptual
 70
     9
177
     3
291
     0
 70
    58
 90
        3
176
     1
 90
        2
176
     1
 90
        0
176
     1
 90
        0
176
     1
 40
0.6
176
     1
 40
30.0
176
     1
 62
     7
420
 16777215
176
     1
 90
        2
176
     1
 90
        2
176
     1
 62
     7
176
     1
 62
   257
176
     1
 90
        1
176
     1
 90
        1
176
     1
 40
179.0
176
     1
 90
        8
176
     1
 62
     7
176
     1
 40
1.0
176
     1
 90
        1
176
     1
 90
        6
176
     1
 90
        2
176
     1
 62
     7
176
     1
 90
        3
176
     1
 90
        0
176
     1
 90
        0
176
     1
290
     0
176
     1
 90
        1
176
     1
 40
0.0
176
     1
 90
        0
176
     1
290
     0
176
     1
290
     1
176
     1
290
     1
176
     1
290
     0
176
     1
290
     0
176
     1
290
     0
176
     1
290
     0
176
     1
290
     0
176
     1
290
     0
176
     1
 90
       50
176
     1
 40
0.0
176
     1
 40
1.0
176
     1
 90
        0
176
     1
 62
    18
420
        0
176
     1
 90
       50
176
     1
 90
        3
176
     1
 62
     5
420
      255
176
     1
290
     0
176
     1
 90
       50
176
     1
 90
       50
176
     1
 90
       50
176
     1
290
     0
176
     1
 90
       50
176
     1
 62
   256
176
     0
 40
1.0
176
     0
 90
        2
176
     1
  1
strokes_ogs.tif
176
     1
290
     0
176
     1
 40
1.0
176
     1
 40
1.0
176
     1
  0
VISUALSTYLE
  5
34
102
{ACAD_REACTORS
330
29
102
}
330
29
100
AcDbVisualStyle
  2
Dim
 70
    11
177
     3
291
     1
 70
    58
 90
        2
176
     1
 90
        2
176
     1
 90
        0
176
     1
 90
        0
176
     1
 40
0.6
176
     1
 40
30.0
176
     1
 62
     7
420
 16777215
176
     1
 90
        1
176
     1
 90
        4
176
     1
 62
     7
176
     1
 62
   257
176
     1
 90
        1
176
     1
 90
        1
176
     1
 40
1.0
176
     1
 90
        8
176
     1
 62
     7
176
     1
 40
1.0
176
     1
 90
        1
176
     1
 90
        6
176
     1
 90
        2
176
     1
 62
     7
176
     1
 90
        5
176
     1
 90
        0
176
     1
 90
        0
176
     1
290
     0
176
     1
 90
        1
176
     1
 40
-50.0
176
     1
 90
        0
176
     1
290
     0
176
     1
290
     1
176
     1
290
     1
176
     1
290
     0
176
     1
290
     0
176
     1
290
     0
176
     1
290
     0
176
     1
290
     0
176
     1
290
     0
176
     1
 90
       50
176
     1
 40
0.0
176
     1
 40
1.0
176
     1
 90
        0
176
     1
 62
    18
420
        0
176
     1
 90
       50
176
     1
 90
        3
176
     1
 62
     5
420
      255
176
     1
290
     0
176
     1
 90
       50
176
     1
 90
       50
176
     1
 90
       50
176
     1
290
     0
176
     1
 90
       50
176
     1
 62
   256
176
     0
 40
1.0
176
     0
 90
        2
176
     1
  1
strokes_ogs.tif
176
     1
290
     0
176
     1
 40
1.0
176
     1
 40
1.0
176
     1
  0
VISUALSTYLE
  5
41
102
{ACAD_REACTORS
330
29
102
}
330
29
100
AcDbVisualStyle
  2
EdgeColorOff
 70
    22
177
     3
291
     1
 70
    58
 90
        2
176
     0
 90
        2
176
     0
 90
        0
176
     0
 90
        0
176
     0
 40
0.6
176
     0
 40
30.0
176
     0
 62
     7
420
 16777215
176
     0
 90
        1
176
     0
 90
        4
176
     0
 62
     7
176
     0
 62
   257
176
     0
 90
        1
176
     0
 90
        1
176
     0
 40
1.0
176
     0
 90
        8
176
     2
 62
     7
176
     0
 40
1.0
176
     0
 90
        1
176
     0
 90
        6
176
     0
 90
        2
176
     0
 62
     7
176
     0
 90
        5
176
     0
 90
        0
176
     0
 90
        0
176
     0
290
     0
176
     0
 90
        1
176
     0
 40
0.0
176
     0
 90
        0
176
     0
290
     0
176
     0
290
     1
176
     0
290
     1
176
     0
290
     0
176
     0
290
     0
176
     0
290
     0
176
     0
290
     0
176
     0
290
     0
176
     0
290
     0
176
     0
 90
       50
176
     0
 40
0.0
176
     0
 40
1.0
176
     0
 90
        0
176
     0
 62
    18
420
        0
176
     0
 90
       50
176
     0
 90
        3
176
     0
 62
     5
420
      255
176
     0
290
     0
176
     0
 90
       50
176
     0
 90
       50
176
     0
 90
       50
176
     0
290
     0
176
     0
 90
       50
176
     0
 62
   256
176
     0
 40
1.0
176
     0
 90
        2
176
     0
  1
strokes_ogs.tif
176
     0
290
     0
176
     0
 40
1.0
176
     0
 40
1.0
176
     0
  0
VISUALSTYLE
  5
38
102
{ACAD_REACTORS
330
29
102
}
330
29
100
AcDbVisualStyle
  2
Facepattern
 70
    15
177
     3
291
     1
 70
    58
 90
        2
176
     1
 90
        2
176
     1
 90
        0
176
     1
 90
        0
176
     1
 40
0.6
176
     1
 40
30.0
176
     1
 62
     7
420
 16777215
176
     1
 90
        1
176
     1
 90
        4
176
     1
 62
     7
176
     1
 62
   257
176
     1
 90
        1
176
     1
 90
        1
176
     1
 40
1.0
176
     1
 90
        8
176
     1
 62
     7
176
     1
 40
1.0
176
     1
 90
        1
176
     1
 90
        6
176
     1
 90
        2
176
     1
 62
     7
176
     1
 90
        5
176
     1
 90
        0
176
     1
 90
        0
176
     1
290
     0
176
     1
 90
        1
176
     1
 40
0.0
176
     1
 90
        0
176
     1
290
     0
176
     1
290
     1
176
     1
290
     1
176
     1
290
     0
176
     1
290
     0
176
     1
290
     0
176
     1
290
     0
176
     1
290
     0
176
     1
290
     0
176
     1
 90
       50
176
     1
 40
0.0
176
     1
 40
1.0
176
     1
 90
        0
176
     1
 62
    18
420
        0
176
     1
 90
       50
176
     1
 90
        3
176
     1
 62
     5
420
      255
176
     1
290
     0
176
     1
 90
       50
176
     1
 90
       50
176
     1
 90
       50
176
     1
290
     0
176
     1
 90
       50
176
     1
 62
   256
176
     0
 40
1.0
176
     0
 90
        2
176
     1
  1
strokes_ogs.tif
176
     1
290
     0
176
     1
 40
1.0
176
     1
 40
1.0
176
     1
  0
VISUALSTYLE
  5
2A
102
{ACAD_REACTORS
330
29
102
}
330
29
100
AcDbVisualStyle
  2
Flat
 70
     0
177
     3
291
     1
 70
    58
 90
        2
176
     1
 90
        1
176
     1
 90
        1
176
     1
 90
        2
176
     1
 40
0.6
176
     1
 40
30.0
176
     1
 62
     7
420
 16777215
176
     1
 90
        0
176
     1
 90
        0
176
     1
 62
     7
176
     1
 62
   257
176
     1
 90
        1
176
     1
 90
        1
176
     1
 40
1.0
176
     1
 90
        8
176
     1
 62
     7
176
     1
 40
1.0
176
     1
 90
        1
176
     1
 90
        6
176
     1
 90
        2
176
     1
 62
     7
176
     1
 90
        5
176
     1
 90
        0
176
     1
 90
        0
176
     1
290
     0
176
     1
 90
       13
176
     1
 40
0.0
176
     1
 90
        0
176
     1
290
     0
176
     1
290
     1
176
     1
290
     1
176
     1
290
     0
176
     1
290
     0
176
     1
290
     0
176
     1
290
     0
176
     1
290
     0
176
     1
290
     0
176
     1
 90
       50
176
     1
 40
0.0
176
     1
 40
1.0
176
     1
 90
        0
176
     1
 62
    18
420
        0
176
     1
 90
       50
176
     1
 90
        3
176
     1
 62
     5
420
      255
176
     1
290
     0
176
     1
 90
       50
176
     1
 90
       50
176
     1
 90
       50
176
     1
290
     0
176
     1
 90
       50
176
     1
 62
   256
176
     0
 40
1.0
176
     0
 90
        2
176
     1
  1
strokes_ogs.tif
176
     1
290
     0
176
     1
 40
1.0
176
     1
 40
1.0
176
     1
  0
VISUALSTYLE
  5
2B
102
{ACAD_REACTORS
330
29
102
}
330
29
100
AcDbVisualStyle
  2
FlatWithEdges
 70
     1
177
     3
291
     1
 70
    58
 90
        2
176
     1
 90
        1
176
     1
 90
        1
176
     1
 90
        2
176
     1
 40
0.6
176
     1
 40
30.0
176
     1
 62
     7
420
 16777215
176
     1
 90
        1
176
     1
 90
        0
176
     1
 62
     7
176
     1
 62
   257
176
     1
 90
        1
176
     1
 90
        1
176
     1
 40
1.0
176
     1
 90
        0
176
     1
 62
   257
176
     1
 40
1.0
176
     1
 90
        1
176
     1
 90
        6
176
     1
 90
        2
176
     1
 62
     7
176
     1
 90
        5
176
     1
 90
        0
176
     1
 90
        0
176
     1
290
     0
176
     1
 90
       13
176
     1
 40
0.0
176
     1
 90
        0
176
     1
290
     0
176
     1
290
     1
176
     1
290
     1
176
     1
290
     0
176
     1
290
     0
176
     1
290
     0
176
     1
290
     0
176
     1
290
     0
176
     1
290
     0
176
     1
 90
       50
176
     1
 40
0.0
176
     1
 40
1.0
176
     1
 90
        0
176
     1
 62
    18
420
        0
176
     1
 90
       50
176
     1
 90
        3
176
     1
 62
     5
420
      255
176
     1
290
     0
176
     1
 90
       50
176
     1
 90
       50
176
     1
 90
       50
176
     1
290
     0
176
     1
 90
       50
176
     1
 62
   256
176
     0
 40
1.0
176
     0
 90
        2
176
     1
  1
strokes_ogs.tif
176
     1
290
     0
176
     1
 40
1.0
176
     1
 40
1.0
176
     1
  0
VISUALSTYLE
  5
2C
102
{ACAD_REACTORS
330
29
102
}
330
29
100
AcDbVisualStyle
  2
Gouraud
 70
     2
177
     3
291
     1
 70
    58
 90
        2
176
     1
 90
        2
176
     1
 90
        1
176
     1
 90
        2
176
     1
 40
0.6
176
     1
 40
30.0
176
     1
 62
     7
420
 16777215
176
     1
 90
        0
176
     1
 90
        0
176
     1
 62
     7
176
     1
 62
   257
176
     1
 90
        1
176
     1
 90
        1
176
     1
 40
1.0
176
     1
 90
        0
176
     1
 62
     7
176
     1
 40
1.0
176
     1
 90
        1
176
     1
 90
        6
176
     1
 90
        2
176
     1
 62
     7
176
     1
 90
        5
176
     1
 90
        0
176
     1
 90
        0
176
     1
290
     0
176
     1
 90
       13
176
     1
 40
0.0
176
     1
 90
        0
176
     1
290
     0
176
     1
290
     1
176
     1
290
     1
176
     1
290
     0
176
     1
290
     0
176
     1
290
     0
176
     1
290
     0
176
     1
290
     0
176
     1
290
     0
176
     1
 90
       50
176
     1
 40
0.0
176
     1
 40
1.0
176
     1
 90
        0
176
     1
 62
    18
420
        0
176
     1
 90
       50
176
     1
 90
        3
176
     1
 62
     5
420
      255
176
     1
290
     0
176
     1
 90
       50
176
     1
 90
       50
176
     1
 90
       50
176
     1
290
     0
176
     1
 90
       50
176
     1
 62
   256
176
     0
 40
1.0
176
     0
 90
        2
176
     1
  1
strokes_ogs.tif
176
     1
290
     0
176
     1
 40
1.0
176
     1
 40
1.0
176
     1
  0
VISUALSTYLE
  5
2D
102
{ACAD_REACTORS
330
29
102
}
330
29
100
AcDbVisualStyle
  2
GouraudWithEdges
 70
     3
177
     3
291
     1
 70
    58
 90
        2
176
     1
 90
        2
176
     1
 90
        1
176
     1
 90
        2
176
     1
 40
0.6
176
     1
 40
30.0
176
     1
 62
     7
420
 16777215
176
     1
 90
        1
176
     1
 90
        0
176
     1
 62
     7
176
     1
 62
   257
176
     1
 90
        1
176
     1
 90
        1
176
     1
 40
1.0
176
     1
 90
        0
176
     1
 62
   257
176
     1
 40
1.0
176
     1
 90
        1
176
     1
 90
        6
176
     1
 90
        2
176
     1
 62
     7
176
     1
 90
        5
176
     1
 90
        0
176
     1
 90
        0
176
     1
290
     0
176
     1
 90
       13
176
     1
 40
0.0
176
     1
 90
        0
176
     1
290
     0
176
     1
290
     1
176
     1
290
     1
176
     1
290
     0
176
     1
290
     0
176
     1
290
     0
176
     1
290
     0
176
     1
290
     0
176
     1
290
     0
176
     1
 90
       50
176
     1
 40
0.0
176
     1
 40
1.0
176
     1
 90
        0
176
     1
 62
    18
420
        0
176
     1
 90
       50
176
     1
 90
        3
176
     1
 62
     5
420
      255
176
     1
290
     0
176
     1
 90
       50
176
     1
 90
       50
176
     1
 90
       50
176
     1
290
     0
176
     1
 90
       50
176
     1
 62
   256
176
     0
 40
1.0
176
     0
 90
        2
176
     1
  1
strokes_ogs.tif
176
     1
290
     0
176
     1
 40
1.0
176
     1
 40
1.0
176
     1
  0
VISUALSTYLE
  5
31
102
{ACAD_REACTORS
330
29
102
}
330
29
100
AcDbVisualStyle
  2
Hidden
 70
     6
177
     3
291
     0
 70
    58
 90
        1
176
     1
 90
        2
176
     1
 90
        2
176
     1
 90
        0
176
     1
 40
0.6
176
     1
 40
30.0
176
     1
 62
     7
420
 16777215
176
     1
 90
        2
176
     1
 90
        2
176
     1
 62
     7
176
     1
 62
   257
176
     1
 90
        2
176
     1
 90
        1
176
     1
 40
40.0
176
     1
 90
        0
176
     1
 62
   257
176
     1
 40
1.0
176
     1
 90
        1
176
     1
 90
        6
176
     1
 90
        2
176
     1
 62
     7
176
     1
 90
        3
176
     1
 90
        0
176
     1
 90
        0
176
     1
290
     0
176
     1
 90
        1
176
     1
 40
0.0
176
     1
 90
        0
176
     1
290
     0
176
     1
290
     1
176
     1
290
     1
176
     1
290
     0
176
     1
290
     0
176
     1
290
     0
176
     1
290
     0
176
     1
290
     0
176
     1
290
     0
176
     1
 90
       50
176
     1
 40
0.0
176
     1
 40
1.0
176
     1
 90
        0
176
     1
 62
    18
420
        0
176
     1
 90
       50
176
     1
 90
        3
176
     1
 62
     5
420
      255
176
     1
290
     0
176
     1
 90
       50
176
     1
 90
       50
176
     1
 90
       50
176
     1
290
     0
176
     1
 90
       50
176
     1
 62
   256
176
     0
 40
1.0
176
     0
 90
        2
176
     1
  1
strokes_ogs.tif
176
     1
290
     0
176
     1
 40
1.0
176
     1
 40
1.0
176
     1
  0
VISUALSTYLE
  5
3F
102
{ACAD_REACTORS
330
29
102
}
330
29
100
AcDbVisualStyle
  2
JitterOff
 70
    20
177
     3
291
     1
 70
    58
 90
        2
176
     0
 90
        2
176
     0
 90
        0
176
     0
 90
        0
176
     0
 40
0.6
176
     0
 40
30.0
176
     0
 62
     7
420
 16777215
176
     0
 90
        1
176
     0
 90
        4
176
     0
 62
     7
176
     0
 62
   257
176
     0
 90
        1
176
     0
 90
        1
176
     0
 40
1.0
176
     0
 90
       10
176
     2
 62
     7
176
     0
 40
1.0
176
     0
 90
        1
176
     0
 90
        6
176
     0
 90
        2
176
     0
 62
     7
176
     0
 90
        5
176
     0
 90
        0
176
     0
 90
        0
176
     0
290
     0
176
     0
 90
        1
176
     0
 40
0.0
176
     0
 90
        0
176
     0
290
     0
176
     0
290
     1
176
     0
290
     1
176
     0
290
     0
176
     0
290
     0
176
     0
290
     0
176
     0
290
     0
176
     0
290
     0
176
     0
290
     0
176
     0
 90
       50
176
     0
 40
0.0
176
     0
 40
1.0
176
     0
 90
        0
176
     0
 62
    18
420
        0
176
     0
 90
       50
176
     0
 90
        3
176
     0
 62
     5
420
      255
176
     0
290
     0
176
     0
 90
       50
176
     0
 90
       50
176
     0
 90
       50
176
     0
290
     0
176
     0
 90
       50
176
     0
 62
   256
176
     0
 40
1.0
176
     0
 90
        2
176
     0
  1
strokes_ogs.tif
176
     0
290
     0
176
     0
 40
1.0
176
     0
 40
1.0
176
     0
  0
VISUALSTYLE
  5
37
102
{ACAD_REACTORS
330
29
102
}
330
29
100
AcDbVisualStyle
  2
Linepattern
 70
    14
177
     3
291
     1
 70
    58
 90
        2
176
     1
 90
        2
176
     1
 90
        0
176
     1
 90
        0
176
     1
 40
0.6
176
     1
 40
30.0
176
     1
 62
     7
420
 16777215
176
     1
 90
        1
176
     1
 90
        4
176
     1
 62
     7
176
     1
 62
   257
176
     1
 90
        7
176
     1
 90
        7
176
     1
 40
1.0
176
     1
 90
        8
176
     1
 62
     7
176
     1
 40
1.0
176
     1
 90
        1
176
     1
 90
        6
176
     1
 90
        2
176
     1
 62
     7
176
     1
 90
        5
176
     1
 90
        0
176
     1
 90
        0
176
     1
290
     0
176
     1
 90
        1
176
     1
 40
0.0
176
     1
 90
        0
176
     1
290
     0
176
     1
290
     1
176
     1
290
     1
176
     1
290
     0
176
     1
290
     0
176
     1
290
     0
176
     1
290
     0
176
     1
290
     0
176
     1
290
     0
176
     1
 90
       50
176
     1
 40
0.0
176
     1
 40
1.0
176
     1
 90
        0
176
     1
 62
    18
420
        0
176
     1
 90
       50
176
     1
 90
        3
176
     1
 62
     5
420
      255
176
     1
290
     0
176
     1
 90
       50
176
     1
 90
       50
176
     1
 90
       50
176
     1
290
     0
176
     1
 90
       50
176
     1
 62
   256
176
     0
 40
1.0
176
     0
 90
        2
176
     1
  1
strokes_ogs.tif
176
     1
290
     0
176
     1
 40
1.0
176
     1
 40
1.0
176
     1
  0
VISUALSTYLE
  5
40
102
{ACAD_REACTORS
330
29
102
}
330
29
100
AcDbVisualStyle
  2
OverhangOff
 70
    21
177
     3
291
     1
 70
    58
 90
        2
176
     0
 90
        2
176
     0
 90
        0
176
     0
 90
        0
176
     0
 40
0.6
176
     0
 40
30.0
176
     0
 62
     7
420
 16777215
176
     0
 90
        1
176
     0
 90
        4
176
     0
 62
     7
176
     0
 62
   257
176
     0
 90
        1
176
     0
 90
        1
176
     0
 40
1.0
176
     0
 90
        9
176
     2
 62
     7
176
     0
 40
1.0
176
     0
 90
        1
176
     0
 90
        6
176
     0
 90
        2
176
     0
 62
     7
176
     0
 90
        5
176
     0
 90
        0
176
     0
 90
        0
176
     0
290
     0
176
     0
 90
        1
176
     0
 40
0.0
176
     0
 90
        0
176
     0
290
     0
176
     0
290
     1
176
     0
290
     1
176
     0
290
     0
176
     0
290
     0
176
     0
290
     0
176
     0
290
     0
176
     0
290
     0
176
     0
290
     0
176
     0
 90
       50
176
     0
 40
0.0
176
     0
 40
1.0
176
     0
 90
        0
176
     0
 62
    18
420
        0
176
     0
 90
       50
176
     0
 90
        3
176
     0
 62
     5
420
      255
176
     0
290
     0
176
     0
 90
       50
176
     0
 90
       50
176
     0
 90
       50
176
     0
290
     0
176
     0
 90
       50
176
     0
 62
   256
176
     0
 40
1.0
176
     0
 90
        2
176
     0
  1
strokes_ogs.tif
176
     0
290
     0
176
     0
 40
1.0
176
     0
 40
1.0
176
     0
  0
VISUALSTYLE
  5
33
102
{ACAD_REACTORS
330
29
102
}
330
29
100
AcDbVisualStyle
  2
Realistic
 70
     8
177
     3
291
     0
 70
    58
 90
        2
176
     1
 90
        3
176
     1
 90
        0
176
     1
 90
        2
176
     1
 40
0.6
176
     1
 40
30.0
176
     1
 62
     7
420
 16777215
176
     1
 90
        0
176
     1
 90
        0
176
     1
 62
     7
176
     1
 62
   257
176
     1
 90
        1
176
     1
 90
        1
176
     1
 40
1.0
176
     1
 90
        8
176
     1
 62
   257
176
     1
 40
1.0
176
     1
 90
        1
176
     1
 90
        6
176
     1
 90
        2
176
     1
 62
     7
176
     1
 90
        3
176
     1
 90
        0
176
     1
 90
        0
176
     1
290
     0
176
     1
 90
       13
176
     1
 40
0.0
176
     1
 90
        0
176
     1
290
     0
176
     1
290
     1
176
     1
290
     1
176
     1
290
     0
176
     1
290
     0
176
     1
290
     0
176
     1
290
     0
176
     1
290
     0
176
     1
290
     0
176
     1
 90
       50
176
     1
 40
0.0
176
     1
 40
1.0
176
     1
 90
        0
176
     1
 62
    18
420
        0
176
     1
 90
       50
176
     1
 90
        3
176
     1
 62
     5
420
      255
176
     1
290
     0
176
     1
 90
       50
176
     1
 90
       50
176
     1
 90
       50
176
     1
290
     0
176
     1
 90
       50
176
     1
 62
   256
176
     0
 40
1.0
176
     0
 90
        2
176
     1
  1
strokes_ogs.tif
176
     1
290
     0
176
     1
 40
1.0
176
     1
 40
1.0
176
     1
  0
VISUALSTYLE
  5
3E
102
{ACAD_REACTORS
330
29
102
}
330
29
100
AcDbVisualStyle
  2
Shaded
 70
    27
177
     3
291
     0
 70
    58
 90
        2
176
     1
 90
        2
176
     1
 90
        1
176
     1
 90
        2
176
     1
 40
0.6
176
     1
 40
30.0
176
     1
 62
     7
420
 16777215
176
     1
 90
        0
176
     1
 90
        4
176
     1
 62
     7
176
     1
 62
   257
176
     1
 90
        1
176
     1
 90
        1
176
     1
 40
1.0
176
     1
 90
        8
176
     1
 62
   257
176
     1
 40
1.0
176
     1
 90
        1
176
     1
 90
        6
176
     1
 90
        2
176
     1
 62
     8
420
  7895160
176
     1
 90
        3
176
     1
 90
        0
176
     1
 90
        0
176
     1
290
     0
176
     1
 90
        5
176
     1
 40
0.0
176
     1
 90
        0
176
     1
290
     0
176
     1
290
     1
176
     1
290
     1
176
     1
290
     0
176
     1
290
     0
176
     1
290
     0
176
     1
290
     0
176
     1
290
     0
176
     1
290
     0
176
     1
 90
       50
176
     1
 40
0.0
176
     1
 40
1.0
176
     1
 90
        0
176
     1
 62
    18
420
        0
176
     1
 90
       50
176
     1
 90
        3
176
     1
 62
     5
420
      255
176
     1
290
     0
176
     1
 90
       50
176
     1
 90
       50
176
     1
 90
       50
176
     1
290
     0
176
     1
 90
       50
176
     1
 62
   256
176
     0
 40
1.0
176
     0
 90
        2
176
     1
  1
strokes_ogs.tif
176
     1
290
     0
176
     1
 40
1.0
176
     1
 40
1.0
176
     1
  0
VISUALSTYLE
  5
3D
102
{ACAD_REACTORS
330
29
102
}
330
29
100
AcDbVisualStyle
  2
Shaded with edges
 70
    26
177
     3
291
     0
 70
    58
 90
        2
176
     1
 90
        2
176
     1
 90
        1
176
     1
 90
        2
176
     1
 40
0.6
176
     1
 40
30.0
176
     1
 62
     7
420
 16777215
176
     1
 90
        1
176
     1
 90
        2
176
     1
 62
     7
176
     1
 62
   257
176
     1
 90
        2
176
     1
 90
        1
176
     1
 40
1.0
176
     1
 90
        8
176
     1
 62
   257
176
     1
 40
1.0
176
     1
 90
        1
176
     1
 90
        6
176
     1
 90
        2
176
     1
 62
     7
176
     1
 90
        3
176
     1
 90
        0
176
     1
 90
        0
176
     1
290
     0
176
     1
 90
        5
176
     1
 40
0.0
176
     1
 90
        0
176
     1
290
     0
176
     1
290
     1
176
     1
290
     1
176
     1
290
     0
176
     1
290
     0
176
     1
290
     0
176
     1
290
     0
176
     1
290
     0
176
     1
290
     0
176
     1
 90
       50
176
     1
 40
0.0
176
     1
 40
1.0
176
     1
 90
        0
176
     1
 62
    18
420
        0
176
     1
 90
       50
176
     1
 90
        3
176
     1
 62
     5
420
      255
176
     1
290
     0
176
     1
 90
       50
176
     1
 90
       50
176
     1
 90
       50
176
     1
290
     0
176
     1
 90
       50
176
     1
 62
   256
176
     0
 40
1.0
176
     0
 90
        2
176
     1
  1
strokes_ogs.tif
176
     1
290
     0
176
     1
 40
1.0
176
     1
 40
1.0
176
     1
  0
VISUALSTYLE
  5
3A
102
{ACAD_REACTORS
330
29
102
}
330
29
100
AcDbVisualStyle
  2
Shades of Gray
 70
    23
177
     3
291
     0
 70
    58
 90
        2
176
     1
 90
        2
176
     1
 90
        3
176
     1
 90
        0
176
     1
 40
0.6
176
     1
 40
30.0
176
     1
 62
     7
420
 16777215
176
     1
 90
        2
176
     1
 90
        2
176
     1
 62
     7
176
     1
 62
     7
176
     1
 90
        1
176
     1
 90
        1
176
     1
 40
40.0
176
     1
 90
        8
176
     1
 62
     7
176
     1
 40
1.0
176
     1
 90
        1
176
     1
 90
        6
176
     1
 90
        2
176
     1
 62
     7
176
     1
 90
        3
176
     1
 90
        0
176
     1
 90
        0
176
     1
290
     0
176
     1
 90
        1
176
     1
 40
0.0
176
     1
 90
        0
176
     1
290
     0
176
     1
290
     1
176
     1
290
     1
176
     1
290
     0
176
     1
290
     0
176
     1
290
     0
176
     1
290
     0
176
     1
290
     0
176
     1
290
     0
176
     1
 90
       50
176
     1
 40
0.0
176
     1
 40
1.0
176
     1
 90
        0
176
     1
 62
    18
420
        0
176
     1
 90
       50
176
     1
 90
        3
176
     1
 62
     5
420
      255
176
     1
290
     0
176
     1
 90
       50
176
     1
 90
       50
176
     1
 90
       50
176
     1
290
     0
176
     1
 90
       50
176
     1
 62
   256
176
     0
 40
1.0
176
     0
 90
        2
176
     1
  1
strokes_ogs.tif
176
     1
290
     0
176
     1
 40
1.0
176
     1
 40
1.0
176
     1
  0
VISUALSTYLE
  5
3B
102
{ACAD_REACTORS
330
29
102
}
330
29
100
AcDbVisualStyle
  2
Sketchy
 70
    24
177
     3
291
     0
 70
    58
 90
        1
176
     1
 90
        2
176
     1
 90
        2
176
     1
 90
        0
176
     1
 40
0.6
176
     1
 40
30.0
176
     1
 62
     7
420
 16777215
176
     1
 90
        2
176
     1
 90
        2
176
     1
 62
     7
176
     1
 62
     7
176
     1
 90
        1
176
     1
 90
        1
176
     1
 40
40.0
176
     1
 90
       11
176
     1
 62
     7
176
     1
 40
1.0
176
     1
 90
        1
176
     1
 90
        6
176
     1
 90
        2
176
     1
 62
     7
176
     1
 90
        6
176
     1
 90
        0
176
     1
 90
        0
176
     1
290
     0
176
     1
 90
        1
176
     1
 40
0.0
176
     1
 90
        0
176
     1
290
     0
176
     1
290
     1
176
     1
290
     1
176
     1
290
     0
176
     1
290
     0
176
     1
290
     0
176
     1
290
     0
176
     1
290
     0
176
     1
290
     0
176
     1
 90
       50
176
     1
 40
0.0
176
     1
 40
1.0
176
     1
 90
        0
176
     1
 62
    18
420
        0
176
     1
 90
       50
176
     1
 90
        3
176
     1
 62
     5
420
      255
176
     1
290
     0
176
     1
 90
       50
176
     1
 90
       50
176
     1
 90
       50
176
     1
290
     0
176
     1
 90
       50
176
     1
 62
   256
176
     0
 40
1.0
176
     0
 90
        2
176
     1
  1
strokes_ogs.tif
176
     1
290
     0
176
     1
 40
1.0
176
     1
 40
1.0
176
     1
  0
VISUALSTYLE
  5
36
102
{ACAD_REACTORS
330
29
102
}
330
29
100
AcDbVisualStyle
  2
Thicken
 70
    13
177
     3
291
     1
 70
    58
 90
        2
176
     1
 90
        2
176
     1
 90
        0
176
     1
 90
        0
176
     1
 40
0.6
176
     1
 40
30.0
176
     1
 62
     7
420
 16777215
176
     1
 90
        1
176
     1
 90
        4
176
     1
 62
     7
176
     1
 62
   257
176
     1
 90
        1
176
     1
 90
        1
176
     1
 40
1.0
176
     1
 90
       12
176
     1
 62
     7
176
     1
 40
1.0
176
     1
 90
        1
176
     1
 90
        6
176
     1
 90
        2
176
     1
 62
     7
176
     1
 90
        5
176
     1
 90
        0
176
     1
 90
        0
176
     1
290
     0
176
     1
 90
        1
176
     1
 40
0.0
176
     1
 90
        0
176
     1
290
     0
176
     1
290
     1
176
     1
290
     1
176
     1
290
     0
176
     1
290
     0
176
     1
290
     0
176
     1
290
     0
176
     1
290
     0
176
     1
290
     0
176
     1
 90
       50
176
     1
 40
0.0
176
     1
 40
1.0
176
     1
 90
        0
176
     1
 62
    18
420
        0
176
     1
 90
       50
176
     1
 90
        3
176
     1
 62
     5
420
      255
176
     1
290
     0
176
     1
 90
       50
176
     1
 90
       50
176
     1
 90
       50
176
     1
290
     0
176
     1
 90
       50
176
     1
 62
   256
176
     0
 40
1.0
176
     0
 90
        2
176
     1
  1
strokes_ogs.tif
176
     1
290
     0
176
     1
 40
1.0
176
     1
 40
1.0
176
     1
  0
VISUALSTYLE
  5
30
102
{ACAD_REACTORS
330
29
102
}
330
29
100
AcDbVisualStyle
  2
Wireframe
 70
     5
177
     3
291
     0
 70
    58
 90
        0
176
     1
 90
        2
176
     1
 90
        0
176
     1
 90
        0
176
     1
 40
0.6
176
     1
 40
30.0
176
     1
 62
     7
420
 16777215
176
     1
 90
        1
176
     1
 90
        4
176
     1
 62
     7
176
     1
 62
   257
176
     1
 90
        1
176
     1
 90
        1
176
     1
 40
1.0
176
     1
 90
        0
176
     1
 62
   257
176
     1
 40
1.0
176
     1
 90
        1
176
     1
 90
        6
176
     1
 90
        2
176
     1
 62
     7
176
     1
 90
        3
176
     1
 90
        0
176
     1
 90
        0
176
     1
290
     0
176
     1
 90
        1
176
     1
 40
0.0
176
     1
 90
        0
176
     1
290
     0
176
     1
290
     1
176
     1
290
     1
176
     1
290
     0
176
     1
290
     0
176
     1
290
     0
176
     1
290
     0
176
     1
290
     0
176
     1
290
     0
176
     1
 90
       50
176
     1
 40
0.0
176
     1
 40
1.0
176
     1
 90
        0
176
     1
 62
    18
420
        0
176
     1
 90
       50
176
     1
 90
        3
176
     1
 62
     5
420
      255
176
     1
290
     0
176
     1
 90
       50
176
     1
 90
       50
176
     1
 90
       50
176
     1
290
     0
176
     1
 90
       50
176
     1
 62
   256
176
     0
 40
1.0
176
     0
 90
        2
176
     1
  1
strokes_ogs.tif
176
     1
290
     0
176
     1
 40
1.0
176
     1
 40
1.0
176
     1
  0
VISUALSTYLE
  5
3C
102
{ACAD_REACTORS
330
29
102
}
330
29
100
AcDbVisualStyle
  2
X-Ray
 70
    25
177
     3
291
     0
 70
    58
 90
        2
176
     1
 90
        2
176
     1
 90
        1
176
     1
 90
        1
176
     1
 40
0.5
176
     1
 40
30.0
176
     1
 62
     7
420
 16777215
176
     1
 90
        1
176
     1
 90
        0
176
     1
 62
     7
176
     1
 62
   257
176
     1
 90
        1
176
     1
 90
        1
176
     1
 40
1.0
176
     1
 90
        8
176
     1
 62
     7
176
     1
 40
1.0
176
     1
 90
        1
176
     1
 90
        6
176
     1
 90
        2
176
     1
 62
     7
176
     1
 90
        3
176
     1
 90
        0
176
     1
 90
        0
176
     1
290
     0
176
     1
 90
       13
176
     1
 40
0.0
176
     1
 90
        0
176
     1
290
     0
176
     1
290
     1
176
     1
290
     1
176
     1
290
     0
176
     1
290
     0
176
     1
290
     0
176
     1
290
     0
176
     1
290
     0
176
     1
290
     0
176
     1
 90
       50
176
     1
 40
0.0
176
     1
 40
1.0
176
     1
 90
        0
176
     1
 62
    18
420
        0
176
     1
 90
       50
176
     1
 90
        3
176
     1
 62
     5
420
      255
176
     1
290
     0
176
     1
 90
       50
176
     1
 90
       50
176
     1
 90
       50
176
     1
290
     0
176
     1
 90
       50
176
     1
 62
   256
176
     0
 40
1.0
176
     0
 90
        2
176
     1
  1
strokes_ogs.tif
176
     1
290
     0
176
     1
 40
1.0
176
     1
 40
1.0
176
     1
  0
DICTIONARYVAR
  5
393
102
{ACAD_REACTORS
330
38E
102
}
330
38E
100
DictionaryVariables
280
     0
  1
1:1
  0
DICTIONARYVAR
  5
390
102
{ACAD_REACTORS
330
38E
102
}
330
38E
100
DictionaryVariables
280
     0
  1
STANDARD
  0
DICTIONARYVAR
  5
38F
102
{ACAD_REACTORS
330
38E
102
}
330
38E
100
DictionaryVariables
280
     0
  1
STANDARD
  0
DICTIONARYVAR
  5
391
102
{ACAD_REACTORS
330
38E
102
}
330
38E
100
DictionaryVariables
280
     0
  1
Imperial24
  0
DICTIONARYVAR
  5
392
102
{ACAD_REACTORS
330
38E
102
}
330
38E
100
DictionaryVariables
280
     0
  1
Imperial24
  0
XRECORD
  5
38A
102
{ACAD_REACTORS
330
386
102
}
330
386
100
AcDbXrecord
280
     1
  1
BUILDING_ID
  1
08 - Fazenda Caiçarinha,  Acarí, Rio Grande do Norte
  1
FLOOR_ID
  1
22555173
  0
XRECORD
  5
388
102
{ACAD_REACTORS
330
386
102
}
330
386
100
AcDbXrecord
280
     1
  1
-2000051
  1
Linhas
  1
-2000280
  1
Blocos de margens e carimbo
  1
-2002000
  1
Itens de detalhe
  0
XRECORD
  5
389
102
{ACAD_REACTORS
330
386
102
}
330
386
100
AcDbXrecord
280
     1
  1
-2000042
  1
<Linhas finas>
  1
-2000281
  1
<Linhas finas>
  0
XRECORD
  5
387
102
{ACAD_REACTORS
330
386
102
}
330
386
100
AcDbXrecord
280
     1
  1
22556574
  1
A4 HORIZONTAL : A4
  1
383807
  1
Região preenchida : Marcenaria corte
  0
DICTIONARY
  5
1A
330
19
100
AcDbDictionary
280
     1
281
     1
  3
BUMPTILE
360
1C
  3
DIFFUSETILE
360
1B
  3
OPACITYTILE
360
1F
  3
REFLECTIONTILE
360
1E
  3
REFRACTIONTILE
360
20
  3
SPECULARTILE
360
1D
  0
DICTIONARY
  5
12
330
11
100
AcDbDictionary
280
     1
281
     1
  3
BUMPTILE
360
14
  3
DIFFUSETILE
360
13
  3
OPACITYTILE
360
17
  3
REFLECTIONTILE
360
16
  3
REFRACTIONTILE
360
18
  3
SPECULARTILE
360
15
  0
DICTIONARY
  5
22
330
21
100
AcDbDictionary
280
     1
281
     1
  3
BUMPTILE
360
24
  3
DIFFUSETILE
360
23
  3
OPACITYTILE
360
27
  3
REFLECTIONTILE
360
26
  3
REFRACTIONTILE
360
28
  3
SPECULARTILE
360
25
  0
DICTIONARY
  5
46D
330
65
100
AcDbDictionary
280
     1
281
     1
  3
ACAD_ROUNDTRIP_2008_TABLESTYLE_CELLSTYLEMAP
360
46E
  0
XRECORD
  5
1C
102
{ACAD_REACTORS
330
1A
102
}
330
1A
100
AcDbXrecord
280
     1
270
     1
271
     1
  0
XRECORD
  5
1B
102
{ACAD_REACTORS
330
1A
102
}
330
1A
100
AcDbXrecord
280
     1
270
     1
271
     1
  0
XRECORD
  5
1F
102
{ACAD_REACTORS
330
1A
102
}
330
1A
100
AcDbXrecord
280
     1
270
     1
271
     1
  0
XRECORD
  5
1E
102
{ACAD_REACTORS
330
1A
102
}
330
1A
100
AcDbXrecord
280
     1
270
     1
271
     1
  0
XRECORD
  5
20
102
{ACAD_REACTORS
330
1A
102
}
330
1A
100
AcDbXrecord
280
     1
270
     1
271
     1
  0
XRECORD
  5
1D
102
{ACAD_REACTORS
330
1A
102
}
330
1A
100
AcDbXrecord
280
     1
270
     1
271
     1
  0
XRECORD
  5
14
102
{ACAD_REACTORS
330
12
102
}
330
12
100
AcDbXrecord
280
     1
270
     1
271
     1
  0
XRECORD
  5
13
102
{ACAD_REACTORS
330
12
102
}
330
12
100
AcDbXrecord
280
     1
270
     1
271
     1
  0
XRECORD
  5
17
102
{ACAD_REACTORS
330
12
102
}
330
12
100
AcDbXrecord
280
     1
270
     1
271
     1
  0
XRECORD
  5
16
102
{ACAD_REACTORS
330
12
102
}
330
12
100
AcDbXrecord
280
     1
270
     1
271
     1
  0
XRECORD
  5
18
102
{ACAD_REACTORS
330
12
102
}
330
12
100
AcDbXrecord
280
     1
270
     1
271
     1
  0
XRECORD
  5
15
102
{ACAD_REACTORS
330
12
102
}
330
12
100
AcDbXrecord
280
     1
270
     1
271
     1
  0
XRECORD
  5
24
102
{ACAD_REACTORS
330
22
102
}
330
22
100
AcDbXrecord
280
     1
270
     1
271
     1
  0
XRECORD
  5
23
102
{ACAD_REACTORS
330
22
102
}
330
22
100
AcDbXrecord
280
     1
270
     1
271
     1
  0
XRECORD
  5
27
102
{ACAD_REACTORS
330
22
102
}
330
22
100
AcDbXrecord
280
     1
270
     1
271
     1
  0
XRECORD
  5
26
102
{ACAD_REACTORS
330
22
102
}
330
22
100
AcDbXrecord
280
     1
270
     1
271
     1
  0
XRECORD
  5
28
102
{ACAD_REACTORS
330
22
102
}
330
22
100
AcDbXrecord
280
     1
270
     1
271
     1
  0
XRECORD
  5
25
102
{ACAD_REACTORS
330
22
102
}
330
22
100
AcDbXrecord
280
     1
270
     1
271
     1
  0
CELLSTYLEMAP
  5
46E
102
{ACAD_REACTORS
330
46D
102
}
330
46D
100
AcDbCellStyleMap
 90
        3
300
CELLSTYLE
  1
TABLEFORMAT_BEGIN
 90
        5
170
     1
 91
        0
 92
    32768
 62
   257
 93
        1
300
CONTENTFORMAT
  1
CONTENTFORMAT_BEGIN
 90
        0
 91
        0
 92
      512
 93
        0
300

 40
0.0
140
1.0
 94
        5
 62
     0
340
55
144
0.25
309
CONTENTFORMAT_END
171
     0
 94
        0
309
TABLEFORMAT_END
  1
CELLSTYLE_BEGIN
 90
        1
 91
        1
300
_TITLE
309
CELLSTYLE_END
300
CELLSTYLE
  1
TABLEFORMAT_BEGIN
 90
        5
170
     1
 91
        0
 92
        0
 62
   257
 93
        1
300
CONTENTFORMAT
  1
CONTENTFORMAT_BEGIN
 90
        0
 91
        0
 92
      512
 93
        0
300

 40
0.0
140
1.0
 94
        5
 62
     0
340
55
144
0.18
309
CONTENTFORMAT_END
171
     0
 94
        0
309
TABLEFORMAT_END
  1
CELLSTYLE_BEGIN
 90
        2
 91
        1
300
_HEADER
309
CELLSTYLE_END
300
CELLSTYLE
  1
TABLEFORMAT_BEGIN
 90
        5
170
     1
 91
        0
 92
        0
 62
   257
 93
        1
300
CONTENTFORMAT
  1
CONTENTFORMAT_BEGIN
 90
        0
 91
        0
 92
      512
 93
        0
300

 40
0.0
140
1.0
 94
        2
 62
     0
340
55
144
0.18
309
CONTENTFORMAT_END
171
     0
 94
        0
309
TABLEFORMAT_END
  1
CELLSTYLE_BEGIN
 90
        3
 91
        2
300
_DATA
309
CELLSTYLE_END
  0
ENDSEC
  0
SECTION
  2
ACDSDATA
 70
     2
 71
     8
  0
ACDSSCHEMA
 90
        0
  1
AcDb_Thumbnail_Schema
  2
AcDbDs::ID
280
    10
 91
        8
  2
Thumbnail_Data
280
    15
 91
        0
101
ACDSRECORD
 95
        0
 90
        1
  2
AcDbDs::TreatedAsObjectData
280
     1
291
     1
101
ACDSRECORD
 95
        0
 90
        2
  2
AcDbDs::Legacy
280
     1
291
     1
101
ACDSRECORD
  1
AcDbDs::ID
 90
        3
  2
AcDs:Indexable
280
     1
291
     1
101
ACDSRECORD
  1
AcDbDs::ID
 90
        4
  2
AcDbDs::HandleAttribute
280
     7
282
     1
  0
ACDSSCHEMA
 90
        1
  1
AcDbDs::TreatedAsObjectDataSchema
  2
AcDbDs::TreatedAsObjectData
280
     1
 91
        0
  0
ACDSSCHEMA
 90
        2
  1
AcDbDs::LegacySchema
  2
AcDbDs::Legacy
280
     1
 91
        0
  0
ACDSSCHEMA
 90
        3
  1
AcDbDs::IndexedPropertySchema
  2
AcDs:Indexable
280
     1
 91
        0
  0
ACDSSCHEMA
 90
        4
  1
AcDbDs::HandleAttributeSchema
  2
AcDbDs::HandleAttribute
280
     7
 91
        1
284
     1
  0
ACDSRECORD
 90
        0
  2
AcDbDs::ID
280
    10
320
77
  2
Thumbnail_Data
280
    15
 94
     1669
310
89504E470D0A1A0A0000000D4948445200000100000000B5080300000087DCD12600000300504C5445FFFFFFFFFFFFFFFFFF0000000000000000000000000000000000000000000000000000330000660000990000CC0000FF0033000033330033660033990033CC0033FF0066000066330066660066990066CC0066FF0099
310
000099330099660099990099CC0099FF00CC0000CC3300CC6600CC9900CCCC00CCFF00FF0000FF3300FF6600FF9900FFCC00FFFF3300003300333300663300993300CC3300FF3333003333333333663333993333CC3333FF3366003366333366663366993366CC3366FF3399003399333399663399993399CC3399FF33CC00
310
33CC3333CC6633CC9933CCCC33CCFF33FF0033FF3333FF6633FF9933FFCC33FFFF6600006600336600666600996600CC6600FF6633006633336633666633996633CC6633FF6666006666336666666666996666CC6666FF6699006699336699666699996699CC6699FF66CC0066CC3366CC6666CC9966CCCC66CCFF66FF0066
310
FF3366FF6666FF9966FFCC66FFFF9900009900339900669900999900CC9900FF9933009933339933669933999933CC9933FF9966009966339966669966999966CC9966FF9999009999339999669999999999CC9999FF99CC0099CC3399CC6699CC9999CCCC99CCFF99FF0099FF3399FF6699FF9999FFCC99FFFFCC0000CC00
310
33CC0066CC0099CC00CCCC00FFCC3300CC3333CC3366CC3399CC33CCCC33FFCC6600CC6633CC6666CC6699CC66CCCC66FFCC9900CC9933CC9966CC9999CC99CCCC99FFCCCC00CCCC33CCCC66CCCC99CCCCCCCCCCFFCCFF00CCFF33CCFF66CCFF99CCFFCCCCFFFFFF0000FF0033FF0066FF0099FF00CCFF00FFFF3300FF3333
310
FF3366FF3399FF33CCFF33FFFF6600FF6633FF6666FF6699FF66CCFF66FFFF9900FF9933FF9966FF9999FF99CCFF99FFFFCC00FFCC33FFCC66FFCC99FFCCCCFFCCFFFFFF00FFFF33FFFF66FFFF99FFFFCCFFFFFF0000000D0D0D1A1A1A2828283535354343435050505D5D5D6B6B6B787878868686939393A1A1A1AEAEAEBB
310
BBBBC9C9C9D6D6D6E4E4E4F1F1F1FFFFFF000000000000000000000000000000000000000000000000000000000000AD4AB4E4000003404944415478DAEDDD4B96AC200C80E1EC7F6D8E6A0919F722BAAF2FB42E204AE28B9FD323CF292D3E4240B04BF969BC0800D27001000000000000000000000000000000000000D645
310
5F548E01BCA7A101000000000000000000000000000000000000000000000000000000000000000000000000000000000000800B01B47180DC435CEF07D87C8EEDE500AA9FCF1902F704F8ABF5BFDA4BFFE78B704380EF2A7F5C096E07106971D720B81940B4AAFD012F843B01A4EA381EFBB810DC07201DE8E1A083C05D00
310
C6DA6F0038A4835B006C546B052049A7C7026C36EA1A60FCC06B0092892FCC84BF014C7BC2B500E97AE4018621C1A4275C09906BC7E9700AC0AC275C0730A5FDC300363DE11A80F0CDB5AB00182706550457002CDBAD12A03E082E00587DE37A80CA6C7032C07F0D66025043702A40245C8D008E139C0910BDD5B502387AC3
310
7C16808EAB5C8E00D34ADA1D01C6EA8B4A0D40C13F40EF273803605AE294C30061DA90CDAD7A605C7407D065A37847C0BCAA501E06CE00BA8EC9EA0890ED08E886382825700508B12F161150E6DDE9AE31C10F402309C91B6075C24F5118780168341F9F0A50D6137C00D2D92A0250F13B1F5B0025EB6DF600C335BBBF121D
310
A7BF8A33C0268139C034E3EB01D2F5DEEA02C9D9DE6E00D1EC7D82314008F51540A69314016815C0BCC7EC0D30357E9FB73600764680D64540E676D10E60B98ABB1D01E7032408AC00C20AE7708D21B9894978F767DD019049A39105090B80B0AFA7CB79BB686A64DC0F502C901D562204F500615B7335DE492180948E021A
310
3951ECEC9D96CC4CAC0092A37504203AAC1D0088B5839685D4BC17B15896AE0298977962935E6300D1B208D0D2696A3D80661EE2720098AF9A3B65D188B15C9AAA0290F4DE9607C0349E9B009825C1D4DE9E29802E87831601167DAE69006917609100EB01F4890021011A00C813014401681C40B47500D1D601ACE6018F06
310
D0A6010480AFBD6000AE0778FC8FEA57033CF3558A00000040E30066EF187928402C1600000000008A0178D3D46B0A000000000000000000000000000000000000000000000000000000000000000000000000000000000000000040E453AD3F25D64201000000000000000000000000000000008056011A2FCD03FC02DC00
310
CD0F00DF8FEE0000000049454E44AE426082
  0
ACDSRECORD
 90
        0
  2
AcDbDs::ID
280
    10
320
73
  2
Thumbnail_Data
280
    15
 94
     1136
310
89504E470D0A1A0A0000000D494844520000010000000065080300000095E2CD0900000300504C5445FFFFFFFFFFFFFFFFFF0000000000000000000000000000000000000000000000000000330000660000990000CC0000FF0033000033330033660033990033CC0033FF0066000066330066660066990066CC0066FF0099
310
000099330099660099990099CC0099FF00CC0000CC3300CC6600CC9900CCCC00CCFF00FF0000FF3300FF6600FF9900FFCC00FFFF3300003300333300663300993300CC3300FF3333003333333333663333993333CC3333FF3366003366333366663366993366CC3366FF3399003399333399663399993399CC3399FF33CC00
310
33CC3333CC6633CC9933CCCC33CCFF33FF0033FF3333FF6633FF9933FFCC33FFFF6600006600336600666600996600CC6600FF6633006633336633666633996633CC6633FF6666006666336666666666996666CC6666FF6699006699336699666699996699CC6699FF66CC0066CC3366CC6666CC9966CCCC66CCFF66FF0066
310
FF3366FF6666FF9966FFCC66FFFF9900009900339900669900999900CC9900FF9933009933339933669933999933CC9933FF9966009966339966669966999966CC9966FF9999009999339999669999999999CC9999FF99CC0099CC3399CC6699CC9999CCCC99CCFF99FF0099FF3399FF6699FF9999FFCC99FFFFCC0000CC00
310
33CC0066CC0099CC00CCCC00FFCC3300CC3333CC3366CC3399CC33CCCC33FFCC6600CC6633CC6666CC6699CC66CCCC66FFCC9900CC9933CC9966CC9999CC99CCCC99FFCCCC00CCCC33CCCC66CCCC99CCCCCCCCCCFFCCFF00CCFF33CCFF66CCFF99CCFFCCCCFFFFFF0000FF0033FF0066FF0099FF00CCFF00FFFF3300FF3333
310
FF3366FF3399FF33CCFF33FFFF6600FF6633FF6666FF6699FF66CCFF66FFFF9900FF9933FF9966FF9999FF99CCFF99FFFFCC00FFCC33FFCC66FFCC99FFCCCCFFCCFFFFFF00FFFF33FFFF66FFFF99FFFFCCFFFFFF0000000D0D0D1A1A1A2828283535354343435050505D5D5D6B6B6B787878868686939393A1A1A1AEAEAEBB
310
BBBBC9C9C9D6D6D6E4E4E4F1F1F1FFFFFF000000000000000000000000000000000000000000000000000000000000AD4AB4E40000012B4944415478DAEDD84B6EC3300C0051DEFF6C5EE5085CE71041645B921D7D1220064C721EBA29D002E5C895AC880000000000000000EE43838FFF167CFCB009F2E83113D443EB235A
310
83D3731FED31A8465DC7D6B5429006C7B5AF03883CDC2728F3EEDFA7A5AFDE075C27D877FD5100717B2E96B96601D2CF7A7EE39B07F076286C5B5D3F408F9FF9CBD2F602B4933968508698FC0B7CFEE2762EFAB8ED8C750388ED0D310DB7E8F4EE370C60763FDCA75DE6F336E73B063097202F763EFC9BEF01C300760F85FA
310
EFFD2A40B90F6A73CD6D15D0F375A74CDD0D90BEF26BF2F631C9E01275FB06F2FF0062691BF835801E2F4AF10294B74102040D9077CEB00184009E02E845EC04785E8200661E838B02D8790C4207D0AB090000000000000000000000000000000000F202E2A8D9A097C8AADA0000000049454E44AE426082
  0
ENDSEC
  0
EOF
