  0
SECTION
  2
HEADER
  9
$ACADVER
  1
AC1032
  9
$ACADMAINTVER
 90
      204
  9
$DWGCODEPAGE
  3
ANSI_1252
  9
$LASTSAVEDBY
  1
duda-
  9
$REQUIREDVERSIONS
160
                 0
  9
$INSBASE
 10
0.0
 20
0.0
 30
0.0
  9
$EXTMIN
 10
-46986.68267585486
 20
-11546.48360277476
 30
0.0
  9
$EXTMAX
 10
-25718.60248504632
 20
-4992.46277411471
 30
0.0
  9
$LIMMIN
 10
0.0
 20
0.0
  9
$LIMMAX
 10
12.0
 20
9.0
  9
$ORTHOMODE
 70
     0
  9
$REGENMODE
 70
     1
  9
$FILLMODE
 70
     1
  9
$QTEXTMODE
 70
     0
  9
$MIRRTEXT
 70
     0
  9
$LTSCALE
 40
1.0
  9
$ATTMODE
 70
     1
  9
$TEXTSIZE
 40
0.2
  9
$TRACEWID
 40
0.05
  9
$TEXTSTYLE
  7
Standard
  9
$CLAYER
  8
0
  9
$CELTYPE
  6
ByLayer
  9
$CECOLOR
 62
   256
  9
$CELTSCALE
 40
1.0
  9
$DISPSILH
 70
     0
  9
$DIMSCALE
 40
1.0
  9
$DIMASZ
 40
0.18
  9
$DIMEXO
 40
0.0625
  9
$DIMDLI
 40
0.38
  9
$DIMRND
 40
0.0
  9
$DIMDLE
 40
0.0
  9
$DIMEXE
 40
0.18
  9
$DIMTP
 40
0.0
  9
$DIMTM
 40
0.0
  9
$DIMTXT
 40
0.18
  9
$DIMCEN
 40
0.09
  9
$DIMTSZ
 40
0.0
  9
$DIMTOL
 70
     0
  9
$DIMLIM
 70
     0
  9
$DIMTIH
 70
     1
  9
$DIMTOH
 70
     1
  9
$DIMSE1
 70
     0
  9
$DIMSE2
 70
     0
  9
$DIMTAD
 70
     0
  9
$DIMZIN
 70
     0
  9
$DIMBLK
  1

  9
$DIMASO
 70
     1
  9
$DIMSHO
 70
     1
  9
$DIMPOST
  1

  9
$DIMAPOST
  1

  9
$DIMALT
 70
     0
  9
$DIMALTD
 70
     2
  9
$DIMALTF
 40
25.4
  9
$DIMLFAC
 40
1.0
  9
$DIMTOFL
 70
     0
  9
$DIMTVP
 40
0.0
  9
$DIMTIX
 70
     0
  9
$DIMSOXD
 70
     0
  9
$DIMSAH
 70
     0
  9
$DIMBLK1
  1

  9
$DIMBLK2
  1

  9
$DIMSTYLE
  2
Standard
  9
$DIMCLRD
 70
     0
  9
$DIMCLRE
 70
     0
  9
$DIMCLRT
 70
     0
  9
$DIMTFAC
 40
1.0
  9
$DIMGAP
 40
0.09
  9
$DIMJUST
 70
     0
  9
$DIMSD1
 70
     0
  9
$DIMSD2
 70
     0
  9
$DIMTOLJ
 70
     1
  9
$DIMTZIN
 70
     0
  9
$DIMALTZ
 70
     0
  9
$DIMALTTZ
 70
     0
  9
$DIMUPT
 70
     0
  9
$DIMDEC
 70
     4
  9
$DIMTDEC
 70
     4
  9
$DIMALTU
 70
     2
  9
$DIMALTTD
 70
     2
  9
$DIMTXSTY
  7
Standard
  9
$DIMAUNIT
 70
     0
  9
$DIMADEC
 70
     0
  9
$DIMALTRND
 40
0.0
  9
$DIMAZIN
 70
     0
  9
$DIMDSEP
 70
    46
  9
$DIMATFIT
 70
     3
  9
$DIMFRAC
 70
     0
  9
$DIMLDRBLK
  1

  9
$DIMLUNIT
 70
     2
  9
$DIMLWD
 70
    -2
  9
$DIMLWE
 70
    -2
  9
$DIMTMOVE
 70
     0
  9
$DIMFXL
 40
1.0
  9
$DIMFXLON
 70
     0
  9
$DIMJOGANG
 40
0.7853981633974483
  9
$DIMTFILL
 70
     0
  9
$DIMTFILLCLR
 70
     0
  9
$DIMARCSYM
 70
     0
  9
$DIMLTYPE
  6

  9
$DIMLTEX1
  6

  9
$DIMLTEX2
  6

  9
$DIMTXTDIRECTION
 70
     0
  9
$LUNITS
 70
     2
  9
$LUPREC
 70
     4
  9
$SKETCHINC
 40
0.1
  9
$FILLETRAD
 40
0.0
  9
$AUNITS
 70
     0
  9
$AUPREC
 70
     0
  9
$MENU
  1
.
  9
$ELEVATION
 40
0.0
  9
$PELEVATION
 40
0.0
  9
$THICKNESS
 40
0.0
  9
$LIMCHECK
 70
     0
  9
$CHAMFERA
 40
0.0
  9
$CHAMFERB
 40
0.0
  9
$CHAMFERC
 40
0.0
  9
$CHAMFERD
 40
0.0
  9
$SKPOLY
 70
     0
  9
$TDCREATE
 40
2460730.524363426
  9
$TDUCREATE
 40
2460730.649363426
  9
$TDUPDATE
 40
2460738.949733796
  9
$TDUUPDATE
 40
2460739.074733796
  9
$TDINDWG
 40
0.0136458333
  9
$TDUSRTIMER
 40
0.0136458333
  9
$USRTIMER
 70
     1
  9
$ANGBASE
 50
0.0
  9
$ANGDIR
 70
     0
  9
$PDMODE
 70
     0
  9
$PDSIZE
 40
0.0
  9
$PLINEWID
 40
0.0
  9
$SPLFRAME
 70
     0
  9
$SPLINETYPE
 70
     6
  9
$SPLINESEGS
 70
     8
  9
$HANDSEED
  5
3F6
  9
$SURFTAB1
 70
     6
  9
$SURFTAB2
 70
     6
  9
$SURFTYPE
 70
     6
  9
$SURFU
 70
     6
  9
$SURFV
 70
     6
  9
$UCSBASE
  2

  9
$UCSNAME
  2

  9
$UCSORG
 10
0.0
 20
0.0
 30
0.0
  9
$UCSXDIR
 10
1.0
 20
0.0
 30
0.0
  9
$UCSYDIR
 10
0.0
 20
1.0
 30
0.0
  9
$UCSORTHOREF
  2

  9
$UCSORTHOVIEW
 70
     0
  9
$UCSORGTOP
 10
0.0
 20
0.0
 30
0.0
  9
$UCSORGBOTTOM
 10
0.0
 20
0.0
 30
0.0
  9
$UCSORGLEFT
 10
0.0
 20
0.0
 30
0.0
  9
$UCSORGRIGHT
 10
0.0
 20
0.0
 30
0.0
  9
$UCSORGFRONT
 10
0.0
 20
0.0
 30
0.0
  9
$UCSORGBACK
 10
0.0
 20
0.0
 30
0.0
  9
$PUCSBASE
  2

  9
$PUCSNAME
  2

  9
$PUCSORG
 10
0.0
 20
0.0
 30
0.0
  9
$PUCSXDIR
 10
1.0
 20
0.0
 30
0.0
  9
$PUCSYDIR
 10
0.0
 20
1.0
 30
0.0
  9
$PUCSORTHOREF
  2

  9
$PUCSORTHOVIEW
 70
     0
  9
$PUCSORGTOP
 10
0.0
 20
0.0
 30
0.0
  9
$PUCSORGBOTTOM
 10
0.0
 20
0.0
 30
0.0
  9
$PUCSORGLEFT
 10
0.0
 20
0.0
 30
0.0
  9
$PUCSORGRIGHT
 10
0.0
 20
0.0
 30
0.0
  9
$PUCSORGFRONT
 10
0.0
 20
0.0
 30
0.0
  9
$PUCSORGBACK
 10
0.0
 20
0.0
 30
0.0
  9
$USERI1
 70
     0
  9
$USERI2
 70
     0
  9
$USERI3
 70
     0
  9
$USERI4
 70
     0
  9
$USERI5
 70
     0
  9
$USERR1
 40
0.0
  9
$USERR2
 40
0.0
  9
$USERR3
 40
0.0
  9
$USERR4
 40
0.0
  9
$USERR5
 40
0.0
  9
$WORLDVIEW
 70
     1
  9
$SHADEDGE
 70
     3
  9
$SHADEDIF
 70
    70
  9
$TILEMODE
 70
     1
  9
$MAXACTVP
 70
    64
  9
$PINSBASE
 10
0.0
 20
0.0
 30
0.0
  9
$PLIMCHECK
 70
     0
  9
$PEXTMIN
 10
29.69999999999999
 20
20.98886566162111
 30
0.0
  9
$PEXTMAX
 10
267.3
 20
188.8997909545898
 30
0.0
  9
$PLIMMIN
 10
0.0
 20
0.0
  9
$PLIMMAX
 10
297.0
 20
210.0
  9
$UNITMODE
 70
     0
  9
$VISRETAIN
 70
     1
  9
$PLINEGEN
 70
     0
  9
$PSLTSCALE
 70
     1
  9
$TREEDEPTH
 70
  3020
  9
$CMLSTYLE
  2
Standard
  9
$CMLJUST
 70
     0
  9
$CMLSCALE
 40
1.0
  9
$PROXYGRAPHICS
 70
     1
  9
$MEASUREMENT
 70
     1
  9
$CELWEIGHT
370
    -1
  9
$ENDCAPS
280
     0
  9
$JOINSTYLE
280
     0
  9
$LWDISPLAY
290
     0
  9
$INSUNITS
 70
     4
  9
$HYPERLINKBASE
  1

  9
$STYLESHEET
  1

  9
$XEDIT
290
     1
  9
$CEPSNTYPE
380
     0
  9
$PSTYLEMODE
290
     1
  9
$FINGERPRINTGUID
  2
{B8AAC116-8926-E348-A564-A2FCC48123CF}
  9
$VERSIONGUID
  2
{E20A733A-D01F-F142-BC78-385AA464949B}
  9
$EXTNAMES
290
     1
  9
$PSVPSCALE
 40
0.0
  9
$OLESTARTUP
290
     0
  9
$SORTENTS
280
   127
  9
$INDEXCTL
280
     0
  9
$HIDETEXT
280
     1
  9
$XCLIPFRAME
280
     2
  9
$HALOGAP
280
     0
  9
$OBSCOLOR
 70
   257
  9
$OBSLTYPE
280
     0
  9
$INTERSECTIONDISPLAY
280
     0
  9
$INTERSECTIONCOLOR
 70
   257
  9
$DIMASSOC
280
     2
  9
$PROJECTNAME
  1

  9
$CAMERADISPLAY
290
     0
  9
$LENSLENGTH
 40
50.0
  9
$CAMERAHEIGHT
 40
0.0
  9
$STEPSPERSEC
 40
2.0
  9
$STEPSIZE
 40
6.0
  9
$3DDWFPREC
 40
2.0
  9
$PSOLWIDTH
 40
0.25
  9
$PSOLHEIGHT
 40
4.0
  9
$LOFTANG1
 40
1.570796326794896
  9
$LOFTANG2
 40
1.570796326794896
  9
$LOFTMAG1
 40
0.0
  9
$LOFTMAG2
 40
0.0
  9
$LOFTPARAM
 70
     7
  9
$LOFTNORMALS
280
     1
  9
$LATITUDE
 40
0.0
  9
$LONGITUDE
 40
0.0
  9
$NORTHDIRECTION
 40
0.0
  9
$TIMEZONE
 70
     0
  9
$LIGHTGLYPHDISPLAY
280
     1
  9
$TILEMODELIGHTSYNCH
280
     1
  9
$CMATERIAL
347
11
  9
$SOLIDHIST
280
     0
  9
$SHOWHIST
280
     1
  9
$DWFFRAME
280
     2
  9
$DGNFRAME
280
     0
  9
$REALWORLDSCALE
290
     1
  9
$INTERFERECOLOR
 62
     1
  9
$INTERFEREOBJVS
345
33
  9
$INTERFEREVPVS
346
30
  9
$CSHADOW
280
     0
  9
$SHADOWPLANELOCATION
 40
0.0
  0
ENDSEC
  0
SECTION
  2
CLASSES
  0
CLASS
  1
ACDBDICTIONARYWDFLT
  2
AcDbDictionaryWithDefault
  3
ObjectDBX Classes
 90
        0
 91
        1
280
     0
281
     0
  0
CLASS
  1
MATERIAL
  2
AcDbMaterial
  3
ObjectDBX Classes
 90
     1153
 91
        3
280
     0
281
     0
  0
CLASS
  1
VISUALSTYLE
  2
AcDbVisualStyle
  3
ObjectDBX Classes
 90
     4095
 91
       24
280
     0
281
     0
  0
CLASS
  1
SCALE
  2
AcDbScale
  3
ObjectDBX Classes
 90
     1153
 91
       17
280
     0
281
     0
  0
CLASS
  1
TABLESTYLE
  2
AcDbTableStyle
  3
ObjectDBX Classes
 90
     4095
 91
        1
280
     0
281
     0
  0
CLASS
  1
MLEADERSTYLE
  2
AcDbMLeaderStyle
  3
ACDB_MLEADERSTYLE_CLASS
 90
     4095
 91
        1
280
     0
281
     0
  0
CLASS
  1
ACDBSECTIONVIEWSTYLE
  2
AcDbSectionViewStyle
  3
ObjectDBX Classes
 90
     1025
 91
        2
280
     0
281
     0
  0
CLASS
  1
ACDBDETAILVIEWSTYLE
  2
AcDbDetailViewStyle
  3
ObjectDBX Classes
 90
     1025
 91
        2
280
     0
281
     0
  0
CLASS
  1
RASTERVARIABLES
  2
AcDbRasterVariables
  3
ISM
 90
        0
 91
        1
280
     0
281
     0
  0
CLASS
  1
DICTIONARYVAR
  2
AcDbDictionaryVar
  3
ObjectDBX Classes
 90
        0
 91
        5
280
     0
281
     0
  0
CLASS
  1
SORTENTSTABLE
  2
AcDbSortentsTable
  3
ObjectDBX Classes
 90
        0
 91
        1
280
     0
281
     0
  0
CLASS
  1
SUN
  2
AcDbSun
  3
SCENEOE
 90
     1153
 91
        1
280
     0
281
     0
  0
CLASS
  1
RAPIDRTRENDERSETTINGS
  2
AcDbRapidRTRenderSettings
  3
ObjectDBX Classes
 90
     1024
 91
        7
280
     0
281
     0
  0
CLASS
  1
CELLSTYLEMAP
  2
AcDbCellStyleMap
  3
ObjectDBX Classes
 90
     1152
 91
        1
280
     0
281
     0
  0
ENDSEC
  0
SECTION
  2
TABLES
  0
TABLE
  2
VPORT
  5
8
330
0
100
AcDbSymbolTable
 70
     1
  0
VPORT
  5
57
330
8
100
AcDbSymbolTableRecord
100
AcDbViewportTableRecord
  2
*Active
 70
     0
 10
0.0
 20
0.0
 11
1.0
 21
1.0
 12
-35993.13806394534
 22
-9367.81786415197
 13
0.0
 23
0.0
 14
1.0
 24
1.0
 15
0.0
 25
0.0
 16
0.0
 26
0.0
 36
1.0
 17
0.0
 27
0.0
 37
0.0
 40
13924.51752475947
 41
2.531208499335989
 42
50.0
 43
0.0
 44
0.0
 50
0.0
 51
0.0
 71
     0
 72
  1000
 73
     1
 74
     1
 75
     0
 76
     0
 77
     0
 78
     0
281
     0
 65
     1
110
0.0
120
0.0
130
0.0
111
1.0
121
0.0
131
0.0
112
0.0
122
1.0
132
0.0
 79
     0
146
0.0
348
2F
 60
     3
 61
     5
292
     1
282
     1
141
0.0
142
0.0
 63
   250
421
  3355443
361
328
1001
ACAD_NAV_VCDISPLAY
1070
     3
  0
ENDTAB
  0
TABLE
  2
LTYPE
  5
5
330
0
100
AcDbSymbolTable
 70
     1
  0
LTYPE
  5
5B
330
5
100
AcDbSymbolTableRecord
100
AcDbLinetypeTableRecord
  2
ByBlock
 70
     0
  3

 72
    65
 73
     0
 40
0.0
  0
LTYPE
  5
5C
330
5
100
AcDbSymbolTableRecord
100
AcDbLinetypeTableRecord
  2
ByLayer
 70
     0
  3

 72
    65
 73
     0
 40
0.0
  0
LTYPE
  5
5D
330
5
100
AcDbSymbolTableRecord
100
AcDbLinetypeTableRecord
  2
Continuous
 70
     0
  3
Solid line
 72
    65
 73
     0
 40
0.0
  0
ENDTAB
  0
TABLE
  2
LAYER
  5
2
102
{ACAD_XDICTIONARY
360
345
102
}
330
0
100
AcDbSymbolTable
 70
     6
  0
LAYER
  5
54
330
2
100
AcDbSymbolTableRecord
100
AcDbLayerTableRecord
  2
0
 70
     0
 62
   250
  6
Continuous
370
    25
390
F
347
21
348
0
  0
LAYER
  5
81
330
2
100
AcDbSymbolTableRecord
100
AcDbLayerTableRecord
  2
A-ALV-___-___-EXI
 70
     0
 62
   250
  6
Continuous
370
    35
390
F
347
21
348
0
  0
LAYER
  5
10C
330
2
100
AcDbSymbolTableRecord
100
AcDbLayerTableRecord
  2
A-COB-___-___-EXI
 70
     0
 62
   250
  6
Continuous
370
    25
390
F
347
21
348
0
  0
LAYER
  5
311
330
2
100
AcDbSymbolTableRecord
100
AcDbLayerTableRecord
  2
A-JAN-___-___-EXI
 70
     0
 62
   250
  6
Continuous
370
    25
390
F
347
21
348
0
  0
LAYER
  5
317
330
2
100
AcDbSymbolTableRecord
100
AcDbLayerTableRecord
  2
A-POR-___-___-EXI
 70
     0
 62
   250
  6
Continuous
370
    25
390
F
347
21
348
0
  0
LAYER
  5
319
330
2
100
AcDbSymbolTableRecord
100
AcDbLayerTableRecord
  2
A-BAS-___-___-EXI
 70
     0
 62
   250
  6
Continuous
370
    25
390
F
347
21
348
0
  0
ENDTAB
  0
TABLE
  2
STYLE
  5
3
330
0
100
AcDbSymbolTable
 70
     2
  0
STYLE
  5
55
330
3
100
AcDbSymbolTableRecord
100
AcDbTextStyleTableRecord
  2
Standard
 70
     0
 40
0.0
 41
1.0
 50
0.0
 71
     0
 42
0.2
  3
txt
  4

  0
STYLE
  5
5A
330
3
100
AcDbSymbolTableRecord
100
AcDbTextStyleTableRecord
  2
Annotative
 70
     0
 40
0.0
 41
1.0
 50
0.0
 71
     0
 42
0.2
  3
txt
  4

1001
AcadAnnotative
1000
AnnotativeData
1002
{
1070
     1
1070
     1
1002
}
  0
ENDTAB
  0
TABLE
  2
VIEW
  5
6
330
0
100
AcDbSymbolTable
 70
     1
  0
ENDTAB
  0
TABLE
  2
UCS
  5
7
330
0
100
AcDbSymbolTable
 70
     0
  0
ENDTAB
  0
TABLE
  2
APPID
  5
9
330
0
100
AcDbSymbolTable
 70
     6
  0
APPID
  5
56
330
9
100
AcDbSymbolTableRecord
100
AcDbRegAppTableRecord
  2
ACAD
 70
     0
  0
APPID
  5
5E
330
9
100
AcDbSymbolTableRecord
100
AcDbRegAppTableRecord
  2
AcadAnnotative
 70
     0
  0
APPID
  5
78
330
9
100
AcDbSymbolTableRecord
100
AcDbRegAppTableRecord
  2
REVIT
 70
     0
  0
APPID
  5
338
330
9
100
AcDbSymbolTableRecord
100
AcDbRegAppTableRecord
  2
ACAD_PSEXT
 70
     0
  0
APPID
  5
3B2
330
9
100
AcDbSymbolTableRecord
100
AcDbRegAppTableRecord
  2
ACAD_NAV_VCDISPLAY
 70
     0
  0
APPID
  5
3C3
330
9
100
AcDbSymbolTableRecord
100
AcDbRegAppTableRecord
  2
ACAD_EXEMPT_FROM_CAD_STANDARDS
 70
     0
  0
ENDTAB
  0
TABLE
  2
DIMSTYLE
  5
A
330
0
100
AcDbSymbolTable
 70
     2
100
AcDbDimStyleTable
 71
     0
  0
DIMSTYLE
105
58
330
A
100
AcDbSymbolTableRecord
100
AcDbDimStyleTableRecord
  2
Standard
 70
     0
340
55
  0
DIMSTYLE
105
59
330
A
100
AcDbSymbolTableRecord
100
AcDbDimStyleTableRecord
  2
Annotative
 70
     0
340
55
1001
AcadAnnotative
1000
AnnotativeData
1002
{
1070
     1
1070
     1
1002
}
  0
ENDTAB
  0
TABLE
  2
BLOCK_RECORD
  5
1
330
0
100
AcDbSymbolTable
 70
     1
  0
BLOCK_RECORD
  5
70
102
{ACAD_XDICTIONARY
360
326
102
}
330
1
100
AcDbSymbolTableRecord
100
AcDbBlockTableRecord
  2
*Model_Space
340
73
 70
     0
280
     1
281
     0
  0
BLOCK_RECORD
  5
74
330
1
100
AcDbSymbolTableRecord
100
AcDbBlockTableRecord
  2
*Paper_Space
340
77
 70
     0
280
     1
281
     0
  0
BLOCK_RECORD
  5
318
330
1
100
AcDbSymbolTableRecord
100
AcDbBlockTableRecord
  2
A4 HORIZONTAL - A4-22627141-Não nomeada
340
0
 70
     0
280
     1
281
     0
  0
ENDTAB
  0
ENDSEC
  0
SECTION
  2
BLOCKS
  0
BLOCK
  5
71
330
70
100
AcDbEntity
  8
0
100
AcDbBlockBegin
  2
*Model_Space
 70
     0
 10
0.0
 20
0.0
 30
0.0
  3
*Model_Space
  1

  0
ENDBLK
  5
72
330
70
100
AcDbEntity
  8
0
100
AcDbBlockEnd
  0
BLOCK
  5
75
330
74
100
AcDbEntity
 67
     1
  8
0
100
AcDbBlockBegin
  2
*Paper_Space
 70
     0
 10
0.0
 20
0.0
 30
0.0
  3
*Paper_Space
  1

  0
ENDBLK
  5
76
330
74
100
AcDbEntity
 67
     1
  8
0
100
AcDbBlockEnd
  0
BLOCK
  5
31E
330
318
100
AcDbEntity
  8
0
100
AcDbBlockBegin
  2
A4 HORIZONTAL - A4-22627141-Não nomeada
 70
     0
 10
0.0
 20
0.0
 30
0.0
  3
A4 HORIZONTAL - A4-22627141-Não nomeada
  1

  0
LINE
  5
31A
330
318
100
AcDbEntity
  8
A-BAS-___-___-EXI
100
AcDbLine
 10
317.7928507088368
 20
312.9999999999862
 30
0.0
 11
20.7928507088368
 21
312.9999999999856
 31
0.0
1001
REVIT
1002
{
1070
     1
1000
22625752
1002
}
1002
{
1070
     5
1000
22627141
1002
}
1002
{
1070
     3
1000
-2000281
1002
}
  0
LINE
  5
31B
330
318
100
AcDbEntity
  8
A-BAS-___-___-EXI
100
AcDbLine
 10
20.7928507088368
 20
312.9999999999856
 30
0.0
 11
20.7928507088372
 21
102.9999999999856
 31
0.0
1001
REVIT
1002
{
1070
     1
1000
22625752
1002
}
1002
{
1070
     5
1000
22627141
1002
}
1002
{
1070
     3
1000
-2000281
1002
}
  0
LINE
  5
31C
330
318
100
AcDbEntity
  8
A-BAS-___-___-EXI
100
AcDbLine
 10
20.7928507088372
 20
102.9999999999855
 30
0.0
 11
317.7928507088372
 21
102.9999999999861
 31
0.0
1001
REVIT
1002
{
1070
     1
1000
22625752
1002
}
1002
{
1070
     5
1000
22627141
1002
}
1002
{
1070
     3
1000
-2000281
1002
}
  0
LINE
  5
31D
330
318
100
AcDbEntity
  8
A-BAS-___-___-EXI
100
AcDbLine
 10
317.7928507088372
 20
102.9999999999861
 30
0.0
 11
317.7928507088368
 21
312.9999999999862
 31
0.0
1001
REVIT
1002
{
1070
     1
1000
22625752
1002
}
1002
{
1070
     5
1000
22627141
1002
}
1002
{
1070
     3
1000
-2000281
1002
}
  0
ENDBLK
  5
31F
330
318
100
AcDbEntity
  8
0
100
AcDbBlockEnd
  0
ENDSEC
  0
SECTION
  2
ENTITIES
  0
HATCH
  5
A4
330
70
100
AcDbEntity
  8
A-ALV-___-___-EXI
 62
    11
100
AcDbHatch
 10
0.0
 20
0.0
 30
0.0
210
0.0
220
0.0
230
1.0
  2
SOLID
 70
     1
 71
     0
 91
        5
 92
        1
 93
       11
 72
     1
 10
-29372.71966384611
 20
-11046.48360277474
 11
-29372.83634112529
 21
-8299.886058807169
 72
     1
 10
-29372.83634112529
 20
-8299.886058807169
 11
-29787.39401412211
 21
-8121.728425986114
 72
     1
 10
-29787.39401412211
 20
-8121.728425986114
 11
-29787.39401412211
 21
-8203.959186490811
 72
     1
 10
-29787.39401412211
 20
-8203.959186490811
 11
-29934.27191385344
 21
-8203.959186490811
 72
     1
 10
-29934.27191385344
 20
-8203.959186490811
 11
-29934.27191385344
 21
-8806.483602774727
 72
     1
 10
-29934.27191385344
 20
-8806.483602774727
 11
-29534.27191385344
 21
-8806.483602774731
 72
     1
 10
-29534.27191385344
 20
-8806.483602774731
 11
-29534.27191385344
 21
-10506.48360277473
 72
     1
 10
-29534.27191385344
 20
-10506.48360277473
 11
-29934.27191385344
 21
-10506.48360277473
 72
     1
 10
-29934.27191385344
 20
-10506.48360277473
 11
-29934.27191385344
 21
-11046.48360277473
 72
     1
 10
-29934.27191385344
 20
-11046.48360277473
 11
-29540.25242973079
 21
-11046.48360277473
 72
     1
 10
-29540.25242973079
 20
-11046.48360277473
 11
-29372.71966384611
 21
-11046.48360277474
 97
        0
 92
        1
 93
        5
 72
     1
 10
-46297.79648717826
 20
-11046.48360277469
 11
-46141.07823803307
 21
-11046.48360277469
 72
     1
 10
-46141.07823803307
 20
-11046.48360277469
 11
-46141.07823803307
 21
-9136.171756878008
 72
     1
 10
-46141.07823803307
 20
-9136.171756878008
 11
-46297.79648717826
 21
-9136.171756878008
 72
     1
 10
-46297.79648717826
 20
-9136.171756878008
 11
-46297.79648717826
 21
-9236.171756878006
 72
     1
 10
-46297.79648717826
 20
-9236.171756878006
 11
-46297.79648717826
 21
-11046.48360277469
 97
        0
 92
        1
 93
        4
 72
     1
 10
-33376.3669194741
 20
-8943.715769595323
 11
-33376.3669194741
 21
-6678.291231228037
 72
     1
 10
-33376.3669194741
 20
-6678.291231228037
 11
-33578.39051759514
 21
-6566.307722182489
 72
     1
 10
-33578.39051759514
 20
-6566.307722182489
 11
-33578.39051759514
 21
-8943.715769595323
 72
     1
 10
-33578.39051759514
 20
-8943.715769595323
 11
-33376.3669194741
 21
-8943.715769595323
 97
        0
 92
        1
 93
        9
 72
     1
 10
-43496.69723683571
 20
-8938.697096505425
 11
-43496.69723683571
 21
-8045.721562120297
 72
     1
 10
-43496.69723683571
 20
-8045.721562120297
 11
-43742.81998174781
 21
-8045.721562120297
 72
     1
 10
-43742.81998174781
 20
-8045.721562120297
 11
-44020.20595097757
 21
-8155.288339451224
 72
     1
 10
-44020.20595097757
 20
-8155.288339451224
 11
-44020.20595097757
 21
-8938.697096505419
 72
     1
 10
-44020.20595097757
 20
-8938.697096505419
 11
-43827.76058502883
 21
-8938.697096505419
 72
     1
 10
-43827.76058502883
 20
-8938.697096505419
 11
-43827.76058502883
 21
-8833.020752470956
 72
     1
 10
-43827.76058502883
 20
-8833.020752470956
 11
-43693.33149495656
 21
-8833.020752470956
 72
     1
 10
-43693.33149495656
 20
-8833.020752470956
 11
-43693.33149495656
 21
-8938.697096505419
 72
     1
 10
-43693.33149495656
 20
-8938.697096505419
 11
-43496.69723683571
 21
-8938.697096505425
 97
        0
 92
        1
 93
        4
 72
     1
 10
-39861.07823803308
 20
-8856.171756878008
 11
-39861.07823803308
 21
-6576.171756878006
 72
     1
 10
-39861.07823803308
 20
-6576.171756878006
 11
-40021.07823803307
 21
-6576.171756878006
 72
     1
 10
-40021.07823803307
 20
-6576.171756878006
 11
-40021.07823803307
 21
-8856.171756878005
 72
     1
 10
-40021.07823803307
 20
-8856.171756878005
 11
-39861.07823803308
 21
-8856.171756878008
 97
        0
 75
     0
 76
     1
 98
        1
 10
0.0
 20
0.0
450
        0
451
        0
460
0.0
461
0.0
452
        0
462
0.0
453
        0
470

1001
REVIT
1002
{
1070
     1
1000
22623247
1002
}
1002
{
1070
     5
1000
383807
1002
}
1002
{
1070
     2
1000
-2002000
1002
}
  0
HATCH
  5
AC
330
70
100
AcDbEntity
  8
A-BAS-___-___-EXI
 62
   253
420
 13342872
100
AcDbHatch
 10
0.0
 20
0.0
 30
0.0
210
0.0
220
0.0
230
1.0
  2
SOLID
 70
     1
 71
     0
 91
        1
 92
        1
 93
        7
 72
     1
 10
-25718.60248504634
 20
-11546.48360277476
 11
-25718.60248504634
 21
-11286.48360277475
 72
     1
 10
-25718.60248504634
 20
-11286.48360277475
 11
-26721.02327523887
 21
-11286.48360277475
 72
     1
 10
-26721.02327523887
 20
-11286.48360277475
 11
-26721.02327523887
 21
-11046.48360277475
 72
     1
 10
-26721.02327523887
 20
-11046.48360277475
 11
-46612.83955184482
 21
-11046.48360277469
 72
     1
 10
-46612.83955184482
 20
-11046.48360277469
 11
-46612.83955184482
 21
-11546.48360277476
 72
     1
 10
-46612.83955184482
 20
-11546.48360277476
 11
-35064.24565235002
 21
-11546.48360277476
 72
     1
 10
-35064.24565235002
 20
-11546.48360277476
 11
-25718.60248504634
 21
-11546.48360277476
 97
        0
 75
     0
 76
     1
 98
        1
 10
0.0
 20
0.0
450
        0
451
        0
460
0.0
461
0.0
452
        0
462
0.0
453
        0
470

1001
REVIT
1002
{
1070
     1
1000
22623257
1002
}
1002
{
1070
     5
1000
383807
1002
}
1002
{
1070
     2
1000
-2002000
1002
}
  0
HATCH
  5
10B
330
70
100
AcDbEntity
  8
A-COB-___-___-EXI
 62
    33
420
 12688002
100
AcDbHatch
 10
0.0
 20
0.0
 30
0.0
210
0.0
220
0.0
230
1.0
  2
SOLID
 70
     1
 71
     0
 91
       12
 92
        1
 93
       50
 72
     1
 10
-26770.12074890073
 20
-9420.50130303793
 11
-26770.12074890073
 21
-9326.477623932694
 72
     1
 10
-26770.12074890073
 20
-9326.477623932694
 11
-36438.71467221615
 21
-5163.604902413538
 72
     1
 10
-36438.71467221615
 20
-5163.604902413538
 11
-36699.4429201761
 21
-5163.604902413538
 72
     1
 10
-36699.4429201761
 20
-5163.604902413538
 11
-46756.63666173706
 21
-9136.171756878008
 72
     1
 10
-46756.63666173706
 20
-9136.171756878008
 11
-46756.63666173706
 21
-9236.171756878006
 72
     1
 10
-46756.63666173706
 20
-9236.171756878006
 11
-46297.79648717826
 21
-9054.931013606214
 72
     1
 10
-46297.79648717826
 20
-9054.931013606214
 11
-46297.79648717826
 21
-9136.171756878008
 72
     1
 10
-46297.79648717826
 20
-9136.171756878008
 11
-46137.79648717827
 21
-9136.171756878008
 72
     1
 10
-46137.79648717827
 20
-9136.171756878008
 11
-46137.79648717827
 21
-9016.171756878007
 72
     1
 10
-46137.79648717827
 20
-9016.171756878007
 11
-46199.67117715198
 21
-9016.171756878007
 72
     1
 10
-46199.67117715198
 20
-9016.171756878007
 11
-43742.81998174781
 21
-8045.721562120297
 72
     1
 10
-43742.81998174781
 20
-8045.721562120297
 11
-43496.69723683571
 21
-8045.721562120297
 72
     1
 10
-43496.69723683571
 20
-8045.721562120297
 11
-43496.69723683571
 21
-7948.503681696336
 72
     1
 10
-43496.69723683571
 20
-7948.503681696336
 11
-41774.78050010031
 21
-7268.350795087942
 72
     1
 10
-41774.78050010031
 20
-7268.350795087942
 11
-41757.3578250852
 21
-7285.773470103059
 72
     1
 10
-41757.3578250852
 20
-7285.773470103059
 11
-41627.14769084149
 21
-7234.340786523112
 72
     1
 10
-41627.14769084149
 20
-7234.340786523112
 11
-41644.5703658566
 21
-7216.918111507998
 72
     1
 10
-41644.5703658566
 20
-7216.918111507998
 11
-40022.41762084471
 21
-6576.171756878006
 72
     1
 10
-40022.41762084471
 20
-6576.171756878006
 11
-39861.07823803308
 21
-6576.171756878006
 72
     1
 10
-39861.07823803308
 20
-6576.171756878006
 11
-39861.07823803308
 21
-6512.443096483547
 72
     1
 10
-39861.07823803308
 20
-6512.443096483547
 11
-38276.39285682217
 21
-5886.496258635744
 72
     1
 10
-38276.39285682217
 20
-5886.496258635744
 11
-38230.50674191408
 21
-5952.028422178868
 72
     1
 10
-38230.50674191408
 20
-5952.028422178868
 11
-38100.29660767037
 21
-5900.59573859892
 72
     1
 10
-38100.29660767037
 20
-5900.59573859892
 11
-38146.18272257846
 21
-5835.063575055797
 72
     1
 10
-38146.18272257846
 20
-5835.063575055797
 11
-36683.79721448597
 21
-5257.424887049809
 72
     1
 10
-36683.79721448597
 20
-5257.424887049809
 11
-36683.79721448597
 21
-5283.604902413539
 72
     1
 10
-36683.79721448597
 20
-5283.604902413539
 11
-36459.29809683047
 21
-5283.604902413539
 72
     1
 10
-36459.29809683047
 20
-5283.604902413539
 11
-36459.29809683047
 21
-5248.766261152241
 72
     1
 10
-36459.29809683047
 20
-5248.766261152241
 11
-35111.31864711359
 21
-5829.14712365418
 72
     1
 10
-35111.31864711359
 20
-5829.14712365418
 11
-35150.86452936504
 21
-5920.995494336274
 72
     1
 10
-35150.86452936504
 20
-5920.995494336274
 11
-35024.4800599023
 21
-5941.760057832721
 72
     1
 10
-35024.4800599023
 20
-5941.760057832721
 11
-34997.15699529941
 21
-5878.300126660622
 72
     1
 10
-34997.15699529941
 20
-5878.300126660622
 11
-33550.36828725646
 21
-6501.22392450368
 72
     1
 10
-33550.36828725646
 20
-6501.22392450368
 11
-33578.39051759514
 21
-6566.307722182557
 72
     1
 10
-33578.39051759514
 20
-6566.307722182557
 11
-33376.3669194741
 21
-6678.29123122811
 72
     1
 10
-33376.3669194741
 20
-6678.29123122811
 11
-33339.26376255561
 21
-6592.116279093857
 72
     1
 10
-33339.26376255561
 20
-6592.116279093857
 11
-31738.37895699147
 21
-7281.387101742312
 72
     1
 10
-31738.37895699147
 20
-7281.387101742312
 11
-31738.37895699147
 21
-7404.001571043135
 72
     1
 10
-31738.37895699147
 20
-7404.001571043135
 11
-31619.96883277691
 21
-7404.001571043135
 72
     1
 10
-31619.96883277691
 20
-7404.001571043135
 11
-31619.96883277691
 21
-7332.369310732992
 72
     1
 10
-31619.96883277691
 20
-7332.369310732992
 11
-29836.08295611288
 21
-8100.432372763163
 72
     1
 10
-29836.08295611288
 20
-8100.432372763163
 11
-29935.65218598255
 21
-8100.432372763163
 72
     1
 10
-29935.65218598255
 20
-8100.432372763163
 11
-29935.65218598255
 21
-8203.959186490811
 72
     1
 10
-29935.65218598255
 20
-8203.959186490811
 11
-29787.39401412211
 21
-8203.959186490811
 72
     1
 10
-29787.39401412211
 20
-8203.959186490811
 11
-29787.39401412211
 21
-8121.395696909422
 72
     1
 10
-29787.39401412211
 20
-8121.395696909422
 11
-27314.39560388849
 21
-9186.160408714755
 72
     1
 10
-27314.39560388849
 20
-9186.160408714755
 11
-27314.39560388849
 21
-9326.477623932694
 72
     1
 10
-27314.39560388849
 20
-9326.477623932694
 11
-27145.82579793481
 21
-9326.477623932694
 72
     1
 10
-27145.82579793481
 20
-9326.477623932694
 11
-27145.82579793481
 21
-9258.739177917602
 72
     1
 10
-27145.82579793481
 20
-9258.739177917602
 11
-26770.12074890073
 21
-9420.50130303793
 97
        0
 92
        1
 93
        4
 72
     1
 10
-33578.39051759514
 20
-9026.483602774741
 11
-33376.3669194741
 21
-9026.483602774741
 72
     1
 10
-33376.3669194741
 20
-9026.483602774741
 11
-33376.3669194741
 21
-8946.215769595323
 72
     1
 10
-33376.3669194741
 20
-8946.215769595323
 11
-33578.39051759514
 21
-8946.215769595323
 72
     1
 10
-33578.39051759514
 20
-8946.215769595323
 11
-33578.39051759514
 21
-9026.483602774741
 97
        0
 92
        1
 93
        4
 72
     1
 10
-39040.69947190859
 20
-8943.715769595323
 11
-39040.69947190859
 21
-8804.195726214759
 72
     1
 10
-39040.69947190859
 20
-8804.195726214759
 11
-39160.87886367682
 21
-8804.195726214759
 72
     1
 10
-39160.87886367682
 20
-8804.195726214759
 11
-39160.87886367682
 21
-8943.715769595323
 72
     1
 10
-39160.87886367682
 20
-8943.715769595323
 11
-39040.69947190859
 21
-8943.715769595323
 97
        0
 92
        1
 93
        4
 72
     1
 10
-34216.98239027509
 20
-8943.715769595323
 11
-34216.98239027509
 21
-8804.195726214759
 72
     1
 10
-34216.98239027509
 20
-8804.195726214759
 11
-34339.83282907862
 21
-8804.195726214759
 72
     1
 10
-34339.83282907862
 20
-8804.195726214759
 11
-34339.83282907862
 21
-8943.715769595323
 72
     1
 10
-34339.83282907862
 20
-8943.715769595323
 11
-34216.98239027509
 21
-8943.715769595323
 97
        0
 92
        1
 93
        4
 72
     1
 10
-39721.71602526191
 20
-8943.715769595323
 11
-39721.71602526191
 21
-8804.195726214759
 72
     1
 10
-39721.71602526191
 20
-8804.195726214759
 11
-39861.07823803308
 21
-8804.195726214759
 72
     1
 10
-39861.07823803308
 20
-8804.195726214759
 11
-39861.07823803308
 21
-8943.715769595323
 72
     1
 10
-39861.07823803308
 20
-8943.715769595323
 11
-39721.71602526191
 21
-8943.715769595323
 97
        0
 92
        1
 93
        4
 72
     1
 10
-36074.31444811818
 20
-8943.715769595323
 11
-36074.31444811818
 21
-8804.195726214759
 72
     1
 10
-36074.31444811818
 20
-8804.195726214759
 11
-36258.39051759514
 21
-8804.195726214759
 72
     1
 10
-36258.39051759514
 20
-8804.195726214759
 11
-36258.39051759514
 21
-8943.715769595323
 72
     1
 10
-36258.39051759514
 20
-8943.715769595323
 11
-36074.31444811818
 21
-8943.715769595323
 97
        0
 92
        1
 93
        4
 72
     1
 10
-38450.48489033026
 20
-8943.715769595323
 11
-38334.19032030137
 21
-8943.715769595323
 72
     1
 10
-38334.19032030137
 20
-8943.715769595323
 11
-38334.19032030137
 21
-8804.195726214759
 72
     1
 10
-38334.19032030137
 20
-8804.195726214759
 11
-38450.48489033026
 21
-8804.195726214759
 72
     1
 10
-38450.48489033026
 20
-8804.195726214759
 11
-38450.48489033026
 21
-8943.715769595323
 97
        0
 92
        1
 93
        4
 72
     1
 10
-34956.16723392341
 20
-8943.715769595323
 11
-34835.39900594706
 21
-8943.715769595323
 72
     1
 10
-34835.39900594706
 20
-8943.715769595323
 11
-34835.39900594706
 21
-8804.195726214759
 72
     1
 10
-34835.39900594706
 20
-8804.195726214759
 11
-34956.16723392341
 21
-8804.195726214759
 72
     1
 10
-34956.16723392341
 20
-8804.195726214759
 11
-34956.16723392341
 21
-8943.715769595323
 97
        0
 92
        1
 93
        4
 72
     1
 10
-35605.81701200306
 20
-8943.715769595323
 11
-35466.3088865821
 21
-8943.715769595323
 72
     1
 10
-35466.3088865821
 20
-8943.715769595323
 11
-35466.3088865821
 21
-8804.195726214759
 72
     1
 10
-35466.3088865821
 20
-8804.195726214759
 11
-35605.81701200306
 21
-8804.195726214759
 72
     1
 10
-35605.81701200306
 20
-8804.195726214759
 11
-35605.81701200306
 21
-8943.715769595323
 97
        0
 92
        1
 93
        4
 72
     1
 10
-37633.0251506453
 20
-8943.715769595323
 11
-37633.0251506453
 21
-8804.195726214759
 72
     1
 10
-37633.0251506453
 20
-8804.195726214759
 11
-37776.99495846684
 21
-8804.195726214759
 72
     1
 10
-37776.99495846684
 20
-8804.195726214759
 11
-37776.99495846684
 21
-8943.715769595323
 72
     1
 10
-37776.99495846684
 20
-8943.715769595323
 11
-37633.0251506453
 21
-8943.715769595323
 97
        0
 92
        1
 93
        4
 72
     1
 10
-33700.59410513487
 20
-8941.215769595322
 11
-33578.39051759514
 21
-8941.215769595322
 72
     1
 10
-33578.39051759514
 20
-8941.215769595322
 11
-33578.39051759514
 21
-8804.195726214759
 72
     1
 10
-33578.39051759514
 20
-8804.195726214759
 11
-33700.59410513487
 21
-8804.195726214759
 72
     1
 10
-33700.59410513487
 20
-8804.195726214759
 11
-33700.59410513487
 21
-8941.215769595322
 97
        0
 92
        1
 93
        4
 72
     1
 10
-43693.33149495656
 20
-8938.697096505419
 11
-43693.33149495656
 21
-8833.020752470956
 72
     1
 10
-43693.33149495656
 20
-8833.020752470956
 11
-43827.76058502883
 21
-8833.020752470956
 72
     1
 10
-43827.76058502883
 20
-8833.020752470956
 11
-43827.76058502883
 21
-8938.697096505419
 72
     1
 10
-43827.76058502883
 20
-8938.697096505419
 11
-43693.33149495656
 21
-8938.697096505419
 97
        0
 75
     0
 76
     1
 98
        1
 10
0.0
 20
0.0
450
        0
451
        0
460
0.0
461
0.0
452
        0
462
0.0
453
        0
470

1001
REVIT
1002
{
1070
     1
1000
22623278
1002
}
1002
{
1070
     5
1000
383807
1002
}
1002
{
1070
     2
1000
-2002000
1002
}
  0
LINE
  5
10D
330
70
100
AcDbEntity
  8
A-ALV-___-___-EXI
100
AcDbLine
 10
-33376.36691947407
 20
-8943.715769595312
 30
0.0
 11
-33376.36691947407
 21
-6678.29123122803
 31
0.0
1001
REVIT
1002
{
1070
     1
1000
22623247
1002
}
1002
{
1070
     5
1000
383807
1002
}
1002
{
1070
     2
1000
-2000051
1002
}
1002
{
1070
     3
1000
-2000042
1002
}
  0
LINE
  5
10E
330
70
100
AcDbEntity
  8
A-ALV-___-___-EXI
100
AcDbLine
 10
-33578.3905175951
 20
-6566.307722182481
 30
0.0
 11
-33578.3905175951
 21
-8804.195726214748
 31
0.0
1001
REVIT
1002
{
1070
     1
1000
22623247
1002
}
1002
{
1070
     5
1000
383807
1002
}
1002
{
1070
     2
1000
-2000051
1002
}
1002
{
1070
     3
1000
-2000042
1002
}
  0
LINE
  5
10F
330
70
100
AcDbEntity
  8
A-COB-___-___-EXI
100
AcDbLine
 10
-33578.3905175951
 20
-8941.215769595315
 30
0.0
 11
-33578.3905175951
 21
-8943.715769595312
 31
0.0
1001
REVIT
1002
{
1070
     1
1000
22623247
1002
}
1002
{
1070
     5
1000
383807
1002
}
1002
{
1070
     2
1000
-2000051
1002
}
1002
{
1070
     3
1000
-2000042
1002
}
  0
LINE
  5
110
330
70
100
AcDbEntity
  8
A-COB-___-___-EXI
100
AcDbLine
 10
-33578.3905175951
 20
-8943.715769595312
 30
0.0
 11
-33376.36691947407
 21
-8943.715769595312
 31
0.0
1001
REVIT
1002
{
1070
     1
1000
22623247
1002
}
1002
{
1070
     5
1000
383807
1002
}
1002
{
1070
     2
1000
-2000051
1002
}
1002
{
1070
     3
1000
-2000042
1002
}
  0
LINE
  5
111
330
70
100
AcDbEntity
  8
A-COB-___-___-EXI
100
AcDbLine
 10
-40021.07823803303
 20
-8856.171756877996
 30
0.0
 11
-39861.07823803304
 21
-8856.171756877996
 31
0.0
1001
REVIT
1002
{
1070
     1
1000
22623247
1002
}
1002
{
1070
     5
1000
383807
1002
}
1002
{
1070
     2
1000
-2000051
1002
}
1002
{
1070
     3
1000
-2000042
1002
}
  0
LINE
  5
112
330
70
100
AcDbEntity
  8
A-ALV-___-___-EXI
100
AcDbLine
 10
-39861.07823803304
 20
-8804.195726214748
 30
0.0
 11
-39861.07823803304
 21
-6576.171756877997
 31
0.0
1001
REVIT
1002
{
1070
     1
1000
22623247
1002
}
1002
{
1070
     5
1000
383807
1002
}
1002
{
1070
     2
1000
-2000051
1002
}
1002
{
1070
     3
1000
-2000042
1002
}
  0
LINE
  5
113
330
70
100
AcDbEntity
  8
A-ALV-___-___-EXI
100
AcDbLine
 10
-40021.07823803303
 20
-6576.171756877997
 30
0.0
 11
-40021.07823803303
 21
-8856.171756877996
 31
0.0
1001
REVIT
1002
{
1070
     1
1000
22623247
1002
}
1002
{
1070
     5
1000
383807
1002
}
1002
{
1070
     2
1000
-2000051
1002
}
1002
{
1070
     3
1000
-2000042
1002
}
  0
LINE
  5
114
330
70
100
AcDbEntity
  8
A-ALV-___-___-EXI
100
AcDbLine
 10
-46141.07823803303
 20
-11046.48360277467
 30
0.0
 11
-46141.07823803303
 21
-9136.171756877997
 31
0.0
1001
REVIT
1002
{
1070
     1
1000
22623247
1002
}
1002
{
1070
     5
1000
383807
1002
}
1002
{
1070
     2
1000
-2000051
1002
}
1002
{
1070
     3
1000
-2000042
1002
}
  0
LINE
  5
115
330
70
100
AcDbEntity
  8
A-ALV-___-___-EXI
100
AcDbLine
 10
-46297.79648717821
 20
-9136.171756877997
 30
0.0
 11
-46297.79648717821
 21
-11046.48360277467
 31
0.0
1001
REVIT
1002
{
1070
     1
1000
22623247
1002
}
1002
{
1070
     5
1000
383807
1002
}
1002
{
1070
     2
1000
-2000051
1002
}
1002
{
1070
     3
1000
-2000042
1002
}
  0
LINE
  5
116
330
70
100
AcDbEntity
  8
A-ALV-___-___-EXI
100
AcDbLine
 10
-44020.20595097752
 20
-8938.697096505407
 30
0.0
 11
-43827.76058502878
 21
-8938.697096505411
 31
0.0
1001
REVIT
1002
{
1070
     1
1000
22623247
1002
}
1002
{
1070
     5
1000
383807
1002
}
1002
{
1070
     2
1000
-2000051
1002
}
1002
{
1070
     3
1000
-2000042
1002
}
  0
LINE
  5
117
330
70
100
AcDbEntity
  8
A-ALV-___-___-EXI
100
AcDbLine
 10
-43693.33149495651
 20
-8938.697096505411
 30
0.0
 11
-43496.69723683565
 21
-8938.697096505411
 31
0.0
1001
REVIT
1002
{
1070
     1
1000
22623247
1002
}
1002
{
1070
     5
1000
383807
1002
}
1002
{
1070
     2
1000
-2000051
1002
}
1002
{
1070
     3
1000
-2000042
1002
}
  0
LINE
  5
118
330
70
100
AcDbEntity
  8
A-ALV-___-___-EXI
100
AcDbLine
 10
-43496.69723683565
 20
-8938.697096505411
 30
0.0
 11
-43496.69723683565
 21
-8045.721562120288
 31
0.0
1001
REVIT
1002
{
1070
     1
1000
22623247
1002
}
1002
{
1070
     5
1000
383807
1002
}
1002
{
1070
     2
1000
-2000051
1002
}
1002
{
1070
     3
1000
-2000042
1002
}
  0
LINE
  5
119
330
70
100
AcDbEntity
  8
A-ALV-___-___-EXI
100
AcDbLine
 10
-44020.20595097752
 20
-8155.288339451214
 30
0.0
 11
-44020.20595097752
 21
-8938.697096505407
 31
0.0
1001
REVIT
1002
{
1070
     1
1000
22623247
1002
}
1002
{
1070
     5
1000
383807
1002
}
1002
{
1070
     2
1000
-2000051
1002
}
1002
{
1070
     3
1000
-2000042
1002
}
  0
LINE
  5
11E
330
70
100
AcDbEntity
  8
A-ALV-___-___-EXI
100
AcDbLine
 10
-29372.71966384608
 20
-11046.48360277472
 30
0.0
 11
-29372.71966384608
 21
-8299.936294929032
 31
0.0
1001
REVIT
1002
{
1070
     1
1000
22623247
1002
}
1002
{
1070
     5
1000
383807
1002
}
1002
{
1070
     2
1000
-2000051
1002
}
1002
{
1070
     3
1000
-2000042
1002
}
  0
LINE
  5
11F
330
70
100
AcDbEntity
  8
A-COB-___-___-EXI
100
AcDbLine
 10
-29603.20926306703
 20
-8200.697576993329
 30
0.0
 11
-29787.39401412208
 21
-8121.728425986104
 31
0.0
1001
REVIT
1002
{
1070
     1
1000
22623247
1002
}
1002
{
1070
     5
1000
383807
1002
}
1002
{
1070
     2
1000
-2000051
1002
}
1002
{
1070
     3
1000
-2000042
1002
}
  0
LINE
  5
2FD
330
70
100
AcDbEntity
  8
A-COB-___-___-EXI
100
AcDbLine
 10
-36683.79721448593
 20
-5503.604902413531
 30
0.0
 11
-36552.28789125393
 21
-5503.604902413531
 31
0.0
1001
REVIT
1002
{
1070
     1
1000
22623402
1002
}
1002
{
1070
     2
1000
-2000051
1002
}
1002
{
1070
     3
1000
-2000042
1002
}
  0
LINE
  5
2FE
330
70
100
AcDbEntity
  8
A-COB-___-___-EXI
100
AcDbLine
 10
-36683.79721448593
 20
-7319.634993454156
 30
0.0
 11
-36552.28789125393
 21
-7319.634993454156
 31
0.0
1001
REVIT
1002
{
1070
     1
1000
22623403
1002
}
1002
{
1070
     2
1000
-2000051
1002
}
1002
{
1070
     3
1000
-2000042
1002
}
  0
LINE
  5
303
330
70
100
AcDbEntity
  8
A-COB-___-___-EXI
100
AcDbLine
 10
-38217.67381268211
 20
-6136.003429096934
 30
0.0
 11
-38342.37555551048
 21
-6136.003429096934
 31
0.0
1001
REVIT
1002
{
1070
     1
1000
22623408
1002
}
1002
{
1070
     2
1000
-2000051
1002
}
1002
{
1070
     3
1000
-2000042
1002
}
  0
LINE
  5
304
330
70
100
AcDbEntity
  8
A-COB-___-___-EXI
100
AcDbLine
 10
-38217.67381268211
 20
-7319.634993454156
 30
0.0
 11
-38342.37555551048
 21
-7319.634993454156
 31
0.0
1001
REVIT
1002
{
1070
     1
1000
22623409
1002
}
1002
{
1070
     2
1000
-2000051
1002
}
1002
{
1070
     3
1000
-2000042
1002
}
  0
LWPOLYLINE
  5
34A
330
70
100
AcDbEntity
  8
A-COB-___-___-EXI
100
AcDbPolyline
 90
       12
 70
     0
 43
0.0
 10
-36476.71689484404
 20
-5163.604902413531
 42
1.65525210484936
 10
-36683.79721448593
 20
-5164.091426430663
 10
-36683.79721448593
 20
-5257.424887049801
 10
-46756.63666173702
 20
-9236.171756877993
 10
-46297.79648717821
 20
-9054.931013606204
 10
-46297.79648717821
 20
-9136.171756877997
 10
-46137.79648717821
 20
-9136.171756877997
 10
-46137.79648717821
 20
-9016.171756877996
 10
-46199.67117715193
 20
-9016.171756877996
 10
-43742.81998174778
 20
-8045.721562120288
 10
-43496.69723683565
 20
-8045.721562120288
 10
-43496.69723683565
 20
-7948.503681696327
1001
REVIT
1002
{
1070
     1
1000
22624006
1002
}
1002
{
1070
     2
1000
-2000051
1002
}
1002
{
1070
     3
1000
-2000042
1002
}
  0
LWPOLYLINE
  5
34B
330
70
100
AcDbEntity
  8
A-COB-___-___-EXI
100
AcDbPolyline
 90
        3
 70
     0
 43
0.0
 10
-46756.63666173702
 20
-9236.171756877995
 10
-46756.63666173702
 20
-9136.171756877997
 10
-46957.51937407515
 20
-9215.519935423234
1001
REVIT
1002
{
1070
     1
1000
22624005
1002
}
1002
{
1070
     2
1000
-2000051
1002
}
1002
{
1070
     3
1000
-2000042
1002
}
  0
LWPOLYLINE
  5
34C
330
70
100
AcDbEntity
  8
A-COB-___-___-EXI
100
AcDbPolyline
 90
       10
 70
     0
 43
0.0
 10
-46756.63666173702
 20
-9136.171756877997
 10
-36699.44292017605
 20
-5163.604902413531
 10
-36438.71467221611
 20
-5163.604902413535
 10
-26770.1207489007
 20
-9326.477623932682
 10
-26642.59213061605
 20
-9382.879111757002
 10
-26615.34237794517
 20
-9321.265075660281
 10
-26615.31406015086
 20
-9301.265095707718
 10
-26629.43615789452
 20
-9287.102950555299
 10
-26669.43611779962
 20
-9287.046314966689
 10
-26980.42057435148
 20
-9149.508668313812
1001
REVIT
1002
{
1070
     1
1000
22623832
1002
}
1002
{
1070
     2
1000
-2000051
1002
}
1002
{
1070
     3
1000
-2000042
1002
}
  0
LWPOLYLINE
  5
34D
330
70
100
AcDbEntity
  8
A-COB-___-___-EXI
100
AcDbPolyline
 90
        4
 70
     0
 43
0.0
 10
-26770.1207489007
 20
-9326.477623932682
 10
-26770.1207489007
 20
-9420.501303037919
 10
-36459.29809683042
 20
-5248.766261152225
 10
-36459.29809683042
 20
-5163.604902413531
1001
REVIT
1002
{
1070
     1
1000
22623624
1002
}
1002
{
1070
     2
1000
-2000051
1002
}
1002
{
1070
     3
1000
-2000042
1002
}
  0
LWPOLYLINE
  5
34E
330
70
100
AcDbEntity
  8
A-COB-___-___-EXI
100
AcDbPolyline
 90
        3
 70
     0
 43
0.0
 10
-40021.07823803303
 20
-7236.171756877998
 10
-41621.07823803303
 20
-7236.171756877992
 10
-43496.69723683242
 20
-7948.503681695097
1001
REVIT
1002
{
1070
     1
1000
22623411
1002
}
1002
{
1070
     2
1000
-2000051
1002
}
1002
{
1070
     3
1000
-2000042
1002
}
  0
LWPOLYLINE
  5
34F
330
70
100
AcDbEntity
  8
A-COB-___-___-EXI
100
AcDbPolyline
 90
        5
 70
     0
 43
0.0
 10
-38217.67381268211
 20
-5946.959446615444
 10
-38217.67381268211
 20
-7549.586664289269
 10
-38342.37555551048
 20
-7549.586664289269
 10
-38342.37555551048
 20
-5916.003429096934
 10
-38255.73171363396
 20
-5916.003429096934
1001
REVIT
1002
{
1070
     1
1000
22623407
1002
}
1002
{
1070
     2
1000
-2000051
1002
}
1002
{
1070
     3
1000
-2000042
1002
}
  0
LWPOLYLINE
  5
350
330
70
100
AcDbEntity
  8
A-COB-___-___-EXI
100
AcDbPolyline
 90
        4
 70
     1
 43
0.0
 10
-35024.48005990226
 20
-7319.634993454156
 10
-35024.48005990226
 20
-6155.351613202604
 10
-35133.36987244377
 20
-6155.351613202604
 10
-35133.36987244377
 20
-7319.634993454156
1001
REVIT
1002
{
1070
     1
1000
22623397
1002
}
1002
{
1070
     2
1000
-2000051
1002
}
1002
{
1070
     3
1000
-2000042
1002
}
  0
LWPOLYLINE
  5
351
330
70
100
AcDbEntity
  8
A-COB-___-___-EXI
100
AcDbPolyline
 90
        4
 70
     1
 43
0.0
 10
-35024.48005990226
 20
-5941.760057832714
 10
-35024.48005990226
 20
-7549.586664289269
 10
-35133.36987244377
 20
-7549.586664289269
 10
-35133.36987244377
 20
-5941.760057832714
1001
REVIT
1002
{
1070
     1
1000
22623393
1002
}
1002
{
1070
     2
1000
-2000051
1002
}
1002
{
1070
     3
1000
-2000042
1002
}
  0
LWPOLYLINE
  5
352
330
70
100
AcDbEntity
  8
A-COB-___-___-EXI
100
AcDbPolyline
 90
        5
 70
     0
 43
0.0
 10
-29787.39401412208
 20
-8203.9591864908
 10
-29935.65218598252
 20
-8203.9591864908
 10
-29935.65218598252
 20
-8100.432372763156
 10
-29836.08295611284
 20
-8100.432372763156
 10
-33376.36691947407
 20
-8100.432372763144
1001
REVIT
1002
{
1070
     1
1000
22623384
1002
}
1002
{
1070
     2
1000
-2000051
1002
}
1002
{
1070
     3
1000
-2000042
1002
}
  0
LWPOLYLINE
  5
353
330
70
100
AcDbEntity
  8
A-ALV-___-___-EXI
100
AcDbPolyline
 90
        4
 70
     1
 43
0.0
 10
-27314.39560388847
 20
-10828.20273585325
 10
-27314.39560388847
 20
-9609.683852816599
 10
-27145.82579793479
 20
-9609.683852816599
 10
-27145.82579793479
 20
-10828.20273585325
1001
REVIT
1002
{
1070
     1
1000
22623383
1002
}
1002
{
1070
     2
1000
-2000051
1002
}
1002
{
1070
     3
1000
-2000042
1002
}
  0
LWPOLYLINE
  5
354
330
70
100
AcDbEntity
  8
A-ALV-___-___-EXI
100
AcDbPolyline
 90
        4
 70
     1
 43
0.0
 10
-33578.3905175951
 20
-8943.715769595312
 10
-33578.3905175951
 20
-6566.307722182552
 10
-33376.36691947407
 20
-6678.291231228101
 10
-33376.36691947407
 20
-8943.715769595312
1001
REVIT
1002
{
1070
     1
1000
22623375
1002
}
1002
{
1070
     2
1000
-2000051
1002
}
1002
{
1070
     3
1000
-2000042
1002
}
  0
LWPOLYLINE
  5
355
330
70
100
AcDbEntity
  8
A-ALV-___-___-EXI
100
AcDbPolyline
 90
        4
 70
     1
 43
0.0
 10
-40021.07823803303
 20
-8856.171756877996
 10
-40021.07823803303
 20
-6576.171756877997
 10
-39861.07823803304
 20
-6576.171756877997
 10
-39861.07823803304
 20
-8856.171756877996
1001
REVIT
1002
{
1070
     1
1000
22623371
1002
}
1002
{
1070
     2
1000
-2000051
1002
}
1002
{
1070
     3
1000
-2000042
1002
}
  0
LWPOLYLINE
  5
356
330
70
100
AcDbEntity
  8
A-POR-___-___-EXI
100
AcDbPolyline
 90
        4
 70
     1
 43
0.0
 10
-33486.2505079149
 20
-9026.48360277473
 10
-33486.2505079149
 20
-11046.48360277472
 10
-33432.27367111026
 20
-11046.48360277472
 10
-33432.27367111026
 20
-9026.48360277473
1001
REVIT
1002
{
1070
     1
1000
22623367
1002
}
1002
{
1070
     2
1000
-2000051
1002
}
1002
{
1070
     3
1000
-2000042
1002
}
  0
LWPOLYLINE
  5
357
330
70
100
AcDbEntity
  8
A-POR-___-___-EXI
100
AcDbPolyline
 90
        4
 70
     1
 43
0.0
 10
-33596.13409635573
 20
-9026.48360277473
 10
-33596.13409635573
 20
-11046.48360277472
 10
-33376.36691947407
 20
-11046.48360277472
 10
-33376.36691947407
 20
-9026.48360277473
1001
REVIT
1002
{
1070
     1
1000
22623363
1002
}
1002
{
1070
     2
1000
-2000051
1002
}
1002
{
1070
     3
1000
-2000042
1002
}
  0
LWPOLYLINE
  5
358
330
70
100
AcDbEntity
  8
A-POR-___-___-EXI
100
AcDbPolyline
 90
        4
 70
     1
 43
0.0
 10
-43827.76058502878
 20
-8938.697096505407
 10
-43827.76058502878
 20
-11046.48360277468
 10
-43758.45159390658
 20
-11046.48360277468
 10
-43758.45159390658
 20
-8938.697096505407
1001
REVIT
1002
{
1070
     1
1000
22623355
1002
}
1002
{
1070
     2
1000
-2000051
1002
}
1002
{
1070
     3
1000
-2000042
1002
}
  0
LWPOLYLINE
  5
359
330
70
100
AcDbEntity
  8
A-ALV-___-___-EXI
100
AcDbPolyline
 90
        4
 70
     1
 43
0.0
 10
-44020.20595097752
 20
-8938.697096505407
 10
-44020.20595097752
 20
-11046.48360277468
 10
-43496.69723683565
 20
-11046.48360277468
 10
-43496.69723683565
 20
-8938.697096505407
1001
REVIT
1002
{
1070
     1
1000
22623351
1002
}
1002
{
1070
     2
1000
-2000051
1002
}
1002
{
1070
     3
1000
-2000042
1002
}
  0
LWPOLYLINE
  5
35A
330
70
100
AcDbEntity
  8
A-COB-___-___-EXI
100
AcDbPolyline
 90
        4
 70
     1
 43
0.0
 10
-39861.07823803304
 20
-7649.58666428927
 10
-39861.07823803304
 20
-7549.586664289269
 10
-33578.3905175951
 20
-7549.586664289269
 10
-33578.3905175951
 20
-7649.58666428927
1001
REVIT
1002
{
1070
     1
1000
22623343
1002
}
1002
{
1070
     2
1000
-2000051
1002
}
1002
{
1070
     3
1000
-2000042
1002
}
  0
LWPOLYLINE
  5
35B
330
70
100
AcDbEntity
  8
A-COB-___-___-EXI
100
AcDbPolyline
 90
        4
 70
     1
 43
0.0
 10
-39861.07823803304
 20
-8804.195726214748
 10
-39861.07823803304
 20
-8744.195726214748
 10
-37633.02515064526
 20
-8744.195726214748
 10
-37633.02515064526
 20
-8804.195726214748
1001
REVIT
1002
{
1070
     1
1000
22623339
1002
}
1002
{
1070
     2
1000
-2000051
1002
}
1002
{
1070
     3
1000
-2000042
1002
}
  0
LWPOLYLINE
  5
35C
330
70
100
AcDbEntity
  8
A-COB-___-___-EXI
100
AcDbPolyline
 90
        4
 70
     1
 43
0.0
 10
-33578.3905175951
 20
-8804.195726214748
 10
-33578.3905175951
 20
-8744.195726214748
 10
-36258.3905175951
 20
-8744.195726214748
 10
-36258.3905175951
 20
-8804.195726214748
1001
REVIT
1002
{
1070
     1
1000
22623335
1002
}
1002
{
1070
     2
1000
-2000051
1002
}
1002
{
1070
     3
1000
-2000042
1002
}
  0
LWPOLYLINE
  5
35D
330
70
100
AcDbEntity
  8
A-JAN-___-___-EXI
100
AcDbPolyline
 90
        4
 70
     1
 43
0.0
 10
-41425.45805411864
 20
-8557.168163558527
 10
-41425.45805411864
 20
-10037.16816355852
 10
-42295.45805411864
 20
-10037.16816355852
 10
-42295.45805411864
 20
-8557.168163558527
1001
REVIT
1002
{
1070
     1
1000
22623331
1002
}
1002
{
1070
     2
1000
-2000051
1002
}
1002
{
1070
     3
1000
-2000042
1002
}
  0
LWPOLYLINE
  5
35E
330
70
100
AcDbEntity
  8
A-JAN-___-___-EXI
100
AcDbPolyline
 90
        4
 70
     1
 43
0.0
 10
-41365.89670195674
 20
-10085.72156212029
 10
-41365.89670195674
 20
-8485.721562120293
 10
-42365.89670195674
 20
-8485.721562120293
 10
-42365.89670195674
 20
-10085.72156212029
1001
REVIT
1002
{
1070
     1
1000
22623327
1002
}
1002
{
1070
     2
1000
-2000051
1002
}
1002
{
1070
     3
1000
-2000042
1002
}
  0
LWPOLYLINE
  5
35F
330
70
100
AcDbEntity
  8
A-COB-___-___-EXI
100
AcDbPolyline
 90
        6
 70
     0
 43
0.0
 10
-46613.15415894084
 20
-8991.592909188245
 10
-46930.87219802854
 20
-9112.651769410462
 10
-46970.82030345644
 20
-9110.614891230655
 10
-46985.66423676496
 20
-9124.018534165776
 10
-46986.68267585486
 20
-9143.992586879743
 10
-46962.71018062264
 20
-9206.908214560675
1001
REVIT
1002
{
1070
     1
1000
22624003
1002
}
1002
{
1070
     2
1000
-2000051
1002
}
1002
{
1070
     3
1000
-2000042
1002
}
  0
LWPOLYLINE
  5
360
330
70
100
AcDbEntity
  8
A-COB-___-___-EXI
100
AcDbPolyline
 90
        6
 70
     0
 43
0.0
 10
-46251.03845165472
 20
-8836.686129257016
 10
-46561.98533800059
 20
-8974.207159909939
 10
-46601.98529790568
 20
-8974.263795498549
 10
-46616.10739564935
 20
-8988.425940650975
 10
-46616.07907785504
 20
-9008.42592060353
 10
-46589.86455644359
 20
-9067.699209723313
1001
REVIT
1002
{
1070
     1
1000
22623997
1002
}
1002
{
1070
     2
1000
-2000051
1002
}
1002
{
1070
     3
1000
-2000042
1002
}
  0
LWPOLYLINE
  5
361
330
70
100
AcDbEntity
  8
A-COB-___-___-EXI
100
AcDbPolyline
 90
        6
 70
     0
 43
0.0
 10
-45883.11552490527
 20
-8691.463048639773
 10
-46194.06241125113
 20
-8828.984079292697
 10
-46234.06237115624
 20
-8829.040714881307
 10
-46248.18446889989
 20
-8843.202860033718
 10
-46248.15615110558
 20
-8863.202839986289
 10
-46221.94162969412
 20
-8922.476129106073
1001
REVIT
1002
{
1070
     1
1000
22623991
1002
}
1002
{
1070
     2
1000
-2000051
1002
}
1002
{
1070
     3
1000
-2000042
1002
}
  0
LWPOLYLINE
  5
362
330
70
100
AcDbEntity
  8
A-COB-___-___-EXI
100
AcDbPolyline
 90
        6
 70
     0
 43
0.0
 10
-45515.19259815582
 20
-8546.239968022517
 10
-45826.13948450168
 20
-8683.760998675436
 10
-45866.13944440677
 20
-8683.817634264048
 10
-45880.26154215044
 20
-8697.979779416476
 10
-45880.23322435613
 20
-8717.979759369031
 10
-45854.01870294467
 20
-8777.253048488814
1001
REVIT
1002
{
1070
     1
1000
22623985
1002
}
1002
{
1070
     2
1000
-2000051
1002
}
1002
{
1070
     3
1000
-2000042
1002
}
  0
LWPOLYLINE
  5
363
330
70
100
AcDbEntity
  8
A-COB-___-___-EXI
100
AcDbPolyline
 90
        6
 70
     0
 43
0.0
 10
-45147.26967140625
 20
-8401.016887405239
 10
-45458.21655775216
 20
-8538.53791805818
 10
-45498.21651765721
 20
-8538.59455364679
 10
-45512.33861540088
 20
-8552.756698799218
 10
-45512.31029760658
 20
-8572.756678751773
 10
-45486.09577619511
 20
-8632.029967871558
1001
REVIT
1002
{
1070
     1
1000
22623979
1002
}
1002
{
1070
     2
1000
-2000051
1002
}
1002
{
1070
     3
1000
-2000042
1002
}
  0
LWPOLYLINE
  5
364
330
70
100
AcDbEntity
  8
A-COB-___-___-EXI
100
AcDbPolyline
 90
        6
 70
     0
 43
0.0
 10
-44779.34674465692
 20
-8255.793806787975
 10
-45090.2936310028
 20
-8393.314837440902
 10
-45130.29359090788
 20
-8393.37147302951
 10
-45144.41568865154
 20
-8407.533618181938
 10
-45144.38737085724
 20
-8427.533598134496
 10
-45118.17284944578
 20
-8486.80688725428
1001
REVIT
1002
{
1070
     1
1000
22623973
1002
}
1002
{
1070
     2
1000
-2000051
1002
}
1002
{
1070
     3
1000
-2000042
1002
}
  0
LWPOLYLINE
  5
365
330
70
100
AcDbEntity
  8
A-COB-___-___-EXI
100
AcDbPolyline
 90
        6
 70
     0
 43
0.0
 10
-44411.42381790734
 20
-8110.57072617072
 10
-44722.37070425321
 20
-8248.091756823646
 10
-44762.37066415831
 20
-8248.148392412257
 10
-44776.49276190195
 20
-8262.310537564665
 10
-44776.46444410765
 20
-8282.31051751724
 10
-44750.24992269619
 20
-8341.583806637023
1001
REVIT
1002
{
1070
     1
1000
22623967
1002
}
1002
{
1070
     2
1000
-2000051
1002
}
1002
{
1070
     3
1000
-2000042
1002
}
  0
LWPOLYLINE
  5
366
330
70
100
AcDbEntity
  8
A-COB-___-___-EXI
100
AcDbPolyline
 90
        6
 70
     0
 43
0.0
 10
-44043.50089115783
 20
-7965.347645553467
 10
-44354.44777750369
 20
-8102.868676206389
 10
-44394.44773740879
 20
-8102.925311794999
 10
-44408.56983515245
 20
-8117.087456947428
 10
-44408.54151735814
 20
-8137.087436899982
 10
-44382.32699594669
 20
-8196.360726019767
1001
REVIT
1002
{
1070
     1
1000
22623961
1002
}
1002
{
1070
     2
1000
-2000051
1002
}
1002
{
1070
     3
1000
-2000042
1002
}
  0
LWPOLYLINE
  5
367
330
70
100
AcDbEntity
  8
A-COB-___-___-EXI
100
AcDbPolyline
 90
        6
 70
     0
 43
0.0
 10
-43675.57796440838
 20
-7820.1245649362
 10
-43986.52485075424
 20
-7957.645595589122
 10
-44026.52481065933
 20
-7957.702231177731
 10
-44040.646908403
 20
-7971.864376330159
 10
-44040.61859060869
 20
-7991.864356282714
 10
-44014.40406919724
 20
-8051.137645402498
1001
REVIT
1002
{
1070
     1
1000
22623955
1002
}
1002
{
1070
     2
1000
-2000051
1002
}
1002
{
1070
     3
1000
-2000042
1002
}
  0
LWPOLYLINE
  5
368
330
70
100
AcDbEntity
  8
A-COB-___-___-EXI
100
AcDbPolyline
 90
        6
 70
     0
 43
0.0
 10
-43307.65503765896
 20
-7674.901484318946
 10
-43618.60192400483
 20
-7812.422514971868
 10
-43658.60188390992
 20
-7812.479150560477
 10
-43672.72398165359
 20
-7826.641295712907
 10
-43672.69566385928
 20
-7846.641275665461
 10
-43646.48114244782
 20
-7905.914564785245
1001
REVIT
1002
{
1070
     1
1000
22623949
1002
}
1002
{
1070
     2
1000
-2000051
1002
}
1002
{
1070
     3
1000
-2000042
1002
}
  0
LWPOLYLINE
  5
369
330
70
100
AcDbEntity
  8
A-COB-___-___-EXI
100
AcDbPolyline
 90
        6
 70
     0
 43
0.0
 10
-42939.73211090952
 20
-7529.678403701699
 10
-43250.6789972554
 20
-7667.19943435462
 10
-43290.6789571605
 20
-7667.256069943231
 10
-43304.80105490415
 20
-7681.418215095641
 10
-43304.77273710985
 20
-7701.418195048214
 10
-43278.55821569839
 20
-7760.691484167998
1001
REVIT
1002
{
1070
     1
1000
22623943
1002
}
1002
{
1070
     2
1000
-2000051
1002
}
1002
{
1070
     3
1000
-2000042
1002
}
  0
LWPOLYLINE
  5
36A
330
70
100
AcDbEntity
  8
A-COB-___-___-EXI
100
AcDbPolyline
 90
        6
 70
     0
 43
0.0
 10
-42571.80918416004
 20
-7384.455323084427
 10
-42882.7560705059
 20
-7521.976353737348
 10
-42922.756030411
 20
-7522.032989325959
 10
-42936.87812815466
 20
-7536.195134478386
 10
-42936.84981036036
 20
-7556.19511443094
 10
-42910.63528894889
 20
-7615.468403550726
1001
REVIT
1002
{
1070
     1
1000
22623937
1002
}
1002
{
1070
     2
1000
-2000051
1002
}
1002
{
1070
     3
1000
-2000042
1002
}
  0
LWPOLYLINE
  5
36B
330
70
100
AcDbEntity
  8
A-COB-___-___-EXI
100
AcDbPolyline
 90
        6
 70
     0
 43
0.0
 10
-42203.88625741039
 20
-7239.23224246718
 10
-42514.83314375625
 20
-7376.753273120101
 10
-42554.83310366135
 20
-7376.809908708712
 10
-42568.95520140501
 20
-7390.97205386114
 10
-42568.9268836107
 20
-7410.972033813695
 10
-42542.71236219925
 20
-7470.245322933479
1001
REVIT
1002
{
1070
     1
1000
22623931
1002
}
1002
{
1070
     2
1000
-2000051
1002
}
1002
{
1070
     3
1000
-2000042
1002
}
  0
LWPOLYLINE
  5
36C
330
70
100
AcDbEntity
  8
A-COB-___-___-EXI
100
AcDbPolyline
 90
        6
 70
     0
 43
0.0
 10
-41835.96333066097
 20
-7094.009161849929
 10
-42146.91021700684
 20
-7231.530192502851
 10
-42186.91017691193
 20
-7231.586828091462
 10
-42201.0322746556
 20
-7245.748973243888
 10
-42201.00395686129
 20
-7265.748953196442
 10
-42174.78943544983
 20
-7325.022242316227
1001
REVIT
1002
{
1070
     1
1000
22623925
1002
}
1002
{
1070
     2
1000
-2000051
1002
}
1002
{
1070
     3
1000
-2000042
1002
}
  0
LWPOLYLINE
  5
36D
330
70
100
AcDbEntity
  8
A-COB-___-___-EXI
100
AcDbPolyline
 90
        6
 70
     0
 43
0.0
 10
-41468.04040391153
 20
-6948.786081232658
 10
-41778.9872902574
 20
-7086.307111885578
 10
-41818.9872501625
 20
-7086.363747474189
 10
-41833.10934790616
 20
-7100.525892626608
 10
-41833.08103011186
 20
-7120.525872579171
 10
-41806.8665087004
 20
-7179.799161698955
1001
REVIT
1002
{
1070
     1
1000
22623919
1002
}
1002
{
1070
     2
1000
-2000051
1002
}
1002
{
1070
     3
1000
-2000042
1002
}
  0
LWPOLYLINE
  5
36E
330
70
100
AcDbEntity
  8
A-COB-___-___-EXI
100
AcDbPolyline
 90
        6
 70
     0
 43
0.0
 10
-41100.11747716206
 20
-6803.563000615405
 10
-41411.06436350792
 20
-6941.084031268326
 10
-41451.06432341302
 20
-6941.140666856937
 10
-41465.18642115668
 20
-6955.302812009356
 10
-41465.15810336238
 20
-6975.30279196192
 10
-41438.94358195092
 20
-7034.576081081704
1001
REVIT
1002
{
1070
     1
1000
22623913
1002
}
1002
{
1070
     2
1000
-2000051
1002
}
1002
{
1070
     3
1000
-2000042
1002
}
  0
LWPOLYLINE
  5
36F
330
70
100
AcDbEntity
  8
A-COB-___-___-EXI
100
AcDbPolyline
 90
        6
 70
     0
 43
0.0
 10
-40732.19455041261
 20
-6658.339919998164
 10
-41043.14143675847
 20
-6795.860950651086
 10
-41083.14139666357
 20
-6795.917586239695
 10
-41097.26349440723
 20
-6810.079731392114
 10
-41097.23517661293
 20
-6830.079711344677
 10
-41071.02065520147
 20
-6889.353000464462
1001
REVIT
1002
{
1070
     1
1000
22623907
1002
}
1002
{
1070
     2
1000
-2000051
1002
}
1002
{
1070
     3
1000
-2000042
1002
}
  0
LWPOLYLINE
  5
370
330
70
100
AcDbEntity
  8
A-COB-___-___-EXI
100
AcDbPolyline
 90
        6
 70
     0
 43
0.0
 10
-40364.27162366316
 20
-6513.116839380895
 10
-40675.21851000902
 20
-6650.637870033816
 10
-40715.21846991413
 20
-6650.694505622427
 10
-40729.34056765778
 20
-6664.856650774845
 10
-40729.31224986348
 20
-6684.856630727408
 10
-40703.09772845202
 20
-6744.129919847193
1001
REVIT
1002
{
1070
     1
1000
22623901
1002
}
1002
{
1070
     2
1000
-2000051
1002
}
1002
{
1070
     3
1000
-2000042
1002
}
  0
LWPOLYLINE
  5
371
330
70
100
AcDbEntity
  8
A-COB-___-___-EXI
100
AcDbPolyline
 90
        6
 70
     0
 43
0.0
 10
-39996.34869691368
 20
-6367.893758763639
 10
-40307.29558325955
 20
-6505.414789416561
 10
-40347.29554316465
 20
-6505.47142500517
 10
-40361.4176409083
 20
-6519.633570157591
 10
-40361.389323114
 20
-6539.633550110153
 10
-40335.17480170254
 20
-6598.906839229937
1001
REVIT
1002
{
1070
     1
1000
22623895
1002
}
1002
{
1070
     2
1000
-2000051
1002
}
1002
{
1070
     3
1000
-2000042
1002
}
  0
LWPOLYLINE
  5
372
330
70
100
AcDbEntity
  8
A-COB-___-___-EXI
100
AcDbPolyline
 90
        6
 70
     0
 43
0.0
 10
-39628.42577016409
 20
-6222.670678146388
 10
-39939.37265650996
 20
-6360.19170879931
 10
-39979.37261641506
 20
-6360.24834438792
 10
-39993.49471415871
 20
-6374.410489540339
 10
-39993.46639636442
 20
-6394.410469492903
 10
-39967.25187495295
 20
-6453.683758612687
1001
REVIT
1002
{
1070
     1
1000
22623889
1002
}
1002
{
1070
     2
1000
-2000051
1002
}
1002
{
1070
     3
1000
-2000042
1002
}
  0
LWPOLYLINE
  5
373
330
70
100
AcDbEntity
  8
A-COB-___-___-EXI
100
AcDbPolyline
 90
        6
 70
     0
 43
0.0
 10
-39260.50284341464
 20
-6077.447597529098
 10
-39571.44972976055
 20
-6214.968628182035
 10
-39611.44968966561
 20
-6215.025263770646
 10
-39625.57178740926
 20
-6229.187408923065
 10
-39625.54346961496
 20
-6249.187388875628
 10
-39599.32894820349
 20
-6308.460677995412
1001
REVIT
1002
{
1070
     1
1000
22623883
1002
}
1002
{
1070
     2
1000
-2000051
1002
}
1002
{
1070
     3
1000
-2000042
1002
}
  0
LWPOLYLINE
  5
374
330
70
100
AcDbEntity
  8
A-COB-___-___-EXI
100
AcDbPolyline
 90
        6
 70
     0
 43
0.0
 10
-38892.57991666521
 20
-5932.224516911849
 10
-39203.5268030111
 20
-6069.745547564782
 10
-39243.52676291617
 20
-6069.802183153393
 10
-39257.64886065983
 20
-6083.964328305811
 10
-39257.62054286552
 20
-6103.964308258391
 10
-39231.40602145407
 20
-6163.237597378176
1001
REVIT
1002
{
1070
     1
1000
22623877
1002
}
1002
{
1070
     2
1000
-2000051
1002
}
1002
{
1070
     3
1000
-2000042
1002
}
  0
LWPOLYLINE
  5
375
330
70
100
AcDbEntity
  8
A-COB-___-___-EXI
100
AcDbPolyline
 90
        6
 70
     0
 43
0.0
 10
-38524.65698991575
 20
-5787.001436294588
 10
-38835.60387626161
 20
-5924.52246694751
 10
-38875.60383616671
 20
-5924.579102536121
 10
-38889.72593391037
 20
-5938.74124768854
 10
-38889.69761611607
 20
-5958.741227641102
 10
-38863.48309470461
 20
-6018.014516760886
1001
REVIT
1002
{
1070
     1
1000
22623871
1002
}
1002
{
1070
     2
1000
-2000051
1002
}
1002
{
1070
     3
1000
-2000042
1002
}
  0
LWPOLYLINE
  5
376
330
70
100
AcDbEntity
  8
A-COB-___-___-EXI
100
AcDbPolyline
 90
        6
 70
     0
 43
0.0
 10
-38156.73406316631
 20
-5641.778355677328
 10
-38467.68094951218
 20
-5779.29938633025
 10
-38507.68090941728
 20
-5779.356021918859
 10
-38521.80300716094
 20
-5793.51816707128
 10
-38521.77468936663
 20
-5813.518147023842
 10
-38495.56016795517
 20
-5872.791436143626
1001
REVIT
1002
{
1070
     1
1000
22623865
1002
}
1002
{
1070
     2
1000
-2000051
1002
}
1002
{
1070
     3
1000
-2000042
1002
}
  0
LWPOLYLINE
  5
377
330
70
100
AcDbEntity
  8
A-COB-___-___-EXI
100
AcDbPolyline
 90
        6
 70
     0
 43
0.0
 10
-37788.81113641676
 20
-5496.555275060059
 10
-38099.75802276262
 20
-5634.07630571298
 10
-38139.75798266772
 20
-5634.132941301591
 10
-38153.88008041138
 20
-5648.29508645401
 10
-38153.85176261708
 20
-5668.295066406574
 10
-38127.63724120562
 20
-5727.568355526358
1001
REVIT
1002
{
1070
     1
1000
22623859
1002
}
1002
{
1070
     2
1000
-2000051
1002
}
1002
{
1070
     3
1000
-2000042
1002
}
  0
LWPOLYLINE
  5
378
330
70
100
AcDbEntity
  8
A-COB-___-___-EXI
100
AcDbPolyline
 90
        6
 70
     0
 43
0.0
 10
-37420.88820966733
 20
-5351.332194442816
 10
-37731.8350960132
 20
-5488.853225095738
 10
-37771.83505591829
 20
-5488.909860684348
 10
-37785.95715366195
 20
-5503.072005836767
 10
-37785.92883586764
 20
-5523.071985789331
 10
-37759.71431445618
 20
-5582.345274909115
1001
REVIT
1002
{
1070
     1
1000
22623853
1002
}
1002
{
1070
     2
1000
-2000051
1002
}
1002
{
1070
     3
1000
-2000042
1002
}
  0
LWPOLYLINE
  5
379
330
70
100
AcDbEntity
  8
A-COB-___-___-EXI
100
AcDbPolyline
 90
        6
 70
     0
 43
0.0
 10
-37052.96528291787
 20
-5206.109113825557
 10
-37363.91216926373
 20
-5343.630144478479
 10
-37403.91212916883
 20
-5343.686780067089
 10
-37418.03422691249
 20
-5357.848925219508
 10
-37418.00590911819
 20
-5377.848905172072
 10
-37391.79138770673
 20
-5437.122194291855
1001
REVIT
1002
{
1070
     1
1000
22623843
1002
}
1002
{
1070
     2
1000
-2000051
1002
}
1002
{
1070
     3
1000
-2000042
1002
}
  0
LWPOLYLINE
  5
37A
330
70
100
AcDbEntity
  8
A-COB-___-___-EXI
100
AcDbPolyline
 90
        6
 70
     0
 43
0.0
 10
-36681.1144379025
 20
-5067.308209893797
 10
-36996.67131856251
 20
-5193.893576615859
 10
-37036.64888812633
 20
-5192.554199234789
 10
-37051.25663480766
 20
-5206.214863087392
 10
-37051.92632349819
 20
-5226.203647869319
 10
-37027.79637922306
 20
-5286.355702906439
1001
REVIT
1002
{
1070
     1
1000
22623837
1002
}
1002
{
1070
     2
1000
-2000051
1002
}
1002
{
1070
     3
1000
-2000042
1002
}
  0
LWPOLYLINE
  5
37B
330
70
100
AcDbEntity
  8
A-COB-___-___-EXI
100
AcDbPolyline
 90
        6
 70
     0
 43
0.0
 10
-27345.5194270269
 20
-8992.341143252094
 10
-27034.53497047502
 20
-9129.878789904983
 10
-26994.53501056992
 20
-9129.935425493592
 10
-26980.41291282626
 20
-9144.09757064601
 10
-26980.44123062057
 20
-9164.097550598574
 10
-27006.65575203203
 20
-9223.370839718358
1001
REVIT
1002
{
1070
     1
1000
22623824
1002
}
1002
{
1070
     2
1000
-2000051
1002
}
1002
{
1070
     3
1000
-2000042
1002
}
  0
LWPOLYLINE
  5
37C
330
70
100
AcDbEntity
  8
A-COB-___-___-EXI
100
AcDbPolyline
 90
        6
 70
     0
 43
0.0
 10
-27710.6182797023
 20
-8835.173618190401
 10
-27399.63382315044
 20
-8972.711264843276
 10
-27359.63386324534
 20
-8972.767900431886
 10
-27345.51176550169
 20
-8986.930045584305
 10
-27345.54008329599
 20
-9006.930025536867
 10
-27371.75460470745
 20
-9066.203314656652
1001
REVIT
1002
{
1070
     1
1000
22623818
1002
}
1002
{
1070
     2
1000
-2000051
1002
}
1002
{
1070
     3
1000
-2000042
1002
}
  0
LWPOLYLINE
  5
37D
330
70
100
AcDbEntity
  8
A-COB-___-___-EXI
100
AcDbPolyline
 90
        6
 70
     0
 43
0.0
 10
-28075.71713237771
 20
-8678.006093128685
 10
-27764.73267582584
 20
-8815.543739781571
 10
-27724.73271592074
 20
-8815.600375370179
 10
-27710.61061817708
 20
-8829.762520522599
 10
-27710.63893597139
 20
-8849.762500475163
 10
-27736.85345738285
 20
-8909.035789594945
1001
REVIT
1002
{
1070
     1
1000
22623812
1002
}
1002
{
1070
     2
1000
-2000051
1002
}
1002
{
1070
     3
1000
-2000042
1002
}
  0
LWPOLYLINE
  5
37E
330
70
100
AcDbEntity
  8
A-COB-___-___-EXI
100
AcDbPolyline
 90
        6
 70
     0
 43
0.0
 10
-28440.81598505313
 20
-8520.838568066976
 10
-28129.83152850124
 20
-8658.376214719863
 10
-28089.83156859616
 20
-8658.432850308475
 10
-28075.7094708525
 20
-8672.594995460894
 10
-28075.7377886468
 20
-8692.594975413456
 10
-28101.95231005826
 20
-8751.868264533241
1001
REVIT
1002
{
1070
     1
1000
22623806
1002
}
1002
{
1070
     2
1000
-2000051
1002
}
1002
{
1070
     3
1000
-2000042
1002
}
  0
LWPOLYLINE
  5
37F
330
70
100
AcDbEntity
  8
A-COB-___-___-EXI
100
AcDbPolyline
 90
        6
 70
     0
 43
0.0
 10
-28805.91483772853
 20
-8363.671043005279
 10
-28494.93038117667
 20
-8501.208689658156
 10
-28454.93042127158
 20
-8501.265325246766
 10
-28440.80832352792
 20
-8515.427470399185
 10
-28440.83664132222
 20
-8535.427450351752
 10
-28467.05116273368
 20
-8594.700739471537
1001
REVIT
1002
{
1070
     1
1000
22623800
1002
}
1002
{
1070
     2
1000
-2000051
1002
}
1002
{
1070
     3
1000
-2000042
1002
}
  0
LWPOLYLINE
  5
380
330
70
100
AcDbEntity
  8
A-COB-___-___-EXI
100
AcDbPolyline
 90
        6
 70
     0
 43
0.0
 10
-29171.01369040394
 20
-8206.503517943566
 10
-28860.02923385207
 20
-8344.041164596449
 10
-28820.02927394697
 20
-8344.097800185059
 10
-28805.90717620332
 20
-8358.259945337477
 10
-28805.93549399762
 20
-8378.259925290043
 10
-28832.15001540909
 20
-8437.533214409825
1001
REVIT
1002
{
1070
     1
1000
22623794
1002
}
1002
{
1070
     2
1000
-2000051
1002
}
1002
{
1070
     3
1000
-2000042
1002
}
  0
LWPOLYLINE
  5
381
330
70
100
AcDbEntity
  8
A-COB-___-___-EXI
100
AcDbPolyline
 90
        6
 70
     0
 43
0.0
 10
-29536.11254307936
 20
-8049.335992881857
 10
-29225.12808652749
 20
-8186.873639534743
 10
-29185.12812662238
 20
-8186.930275123355
 10
-29171.00602887872
 20
-8201.092420275776
 10
-29171.03434667303
 20
-8221.092400228338
 10
-29197.24886808449
 20
-8280.365689348121
1001
REVIT
1002
{
1070
     1
1000
22623788
1002
}
1002
{
1070
     2
1000
-2000051
1002
}
1002
{
1070
     3
1000
-2000042
1002
}
  0
LWPOLYLINE
  5
382
330
70
100
AcDbEntity
  8
A-COB-___-___-EXI
100
AcDbPolyline
 90
        6
 70
     0
 43
0.0
 10
-29901.21139575478
 20
-7892.168467820153
 10
-29590.2269392029
 20
-8029.706114473038
 10
-29550.22697929781
 20
-8029.762750061648
 10
-29536.10488155415
 20
-8043.924895214066
 10
-29536.13319934845
 20
-8063.92487516663
 10
-29562.34772075991
 20
-8123.198164286414
1001
REVIT
1002
{
1070
     1
1000
22623782
1002
}
1002
{
1070
     2
1000
-2000051
1002
}
1002
{
1070
     3
1000
-2000042
1002
}
  0
LWPOLYLINE
  5
383
330
70
100
AcDbEntity
  8
A-COB-___-___-EXI
100
AcDbPolyline
 90
        6
 70
     0
 43
0.0
 10
-30266.31024843018
 20
-7735.000942758451
 10
-29955.32579187832
 20
-7872.53858941133
 10
-29915.32583197322
 20
-7872.59522499994
 10
-29901.20373422956
 20
-7886.757370152359
 10
-29901.23205202387
 20
-7906.757350104922
 10
-29927.44657343532
 20
-7966.030639224706
1001
REVIT
1002
{
1070
     1
1000
22623776
1002
}
1002
{
1070
     2
1000
-2000051
1002
}
1002
{
1070
     3
1000
-2000042
1002
}
  0
LWPOLYLINE
  5
384
330
70
100
AcDbEntity
  8
A-COB-___-___-EXI
100
AcDbPolyline
 90
        6
 70
     0
 43
0.0
 10
-30631.40910110559
 20
-7577.833417696749
 10
-30320.42464455372
 20
-7715.371064349629
 10
-30280.42468464863
 20
-7715.42769993824
 10
-30266.30258690497
 20
-7729.589845090659
 10
-30266.33090469927
 20
-7749.589825043222
 10
-30292.54542611073
 20
-7808.863114163007
1001
REVIT
1002
{
1070
     1
1000
22623770
1002
}
1002
{
1070
     2
1000
-2000051
1002
}
1002
{
1070
     3
1000
-2000042
1002
}
  0
LWPOLYLINE
  5
385
330
70
100
AcDbEntity
  8
A-COB-___-___-EXI
100
AcDbPolyline
 90
        6
 70
     0
 43
0.0
 10
-30996.50795378101
 20
-7420.665892635035
 10
-30685.52349722913
 20
-7558.203539287922
 10
-30645.52353732403
 20
-7558.260174876533
 10
-30631.40143958038
 20
-7572.422320028952
 10
-30631.42975737468
 20
-7592.422299981514
 10
-30657.64427878614
 20
-7651.695589101298
1001
REVIT
1002
{
1070
     1
1000
22623764
1002
}
1002
{
1070
     2
1000
-2000051
1002
}
1002
{
1070
     3
1000
-2000042
1002
}
  0
LWPOLYLINE
  5
386
330
70
100
AcDbEntity
  8
A-COB-___-___-EXI
100
AcDbPolyline
 90
        6
 70
     0
 43
0.0
 10
-31361.60680645642
 20
-7263.498367573333
 10
-31050.62234990455
 20
-7401.036014226214
 10
-31010.62238999945
 20
-7401.092649814825
 10
-30996.5002922558
 20
-7415.254794967244
 10
-30996.5286100501
 20
-7435.254774919807
 10
-31022.74313146156
 20
-7494.528064039592
1001
REVIT
1002
{
1070
     1
1000
22623758
1002
}
1002
{
1070
     2
1000
-2000051
1002
}
1002
{
1070
     3
1000
-2000042
1002
}
  0
LWPOLYLINE
  5
387
330
70
100
AcDbEntity
  8
A-COB-___-___-EXI
100
AcDbPolyline
 90
        6
 70
     0
 43
0.0
 10
-31726.70565913183
 20
-7106.330842511629
 10
-31415.72120257996
 20
-7243.868489164509
 10
-31375.72124267486
 20
-7243.92512475312
 10
-31361.5991449312
 20
-7258.087269905539
 10
-31361.6274627255
 20
-7278.087249858103
 10
-31387.84198413697
 20
-7337.360538977887
1001
REVIT
1002
{
1070
     1
1000
22623752
1002
}
1002
{
1070
     2
1000
-2000051
1002
}
1002
{
1070
     3
1000
-2000042
1002
}
  0
LWPOLYLINE
  5
388
330
70
100
AcDbEntity
  8
A-COB-___-___-EXI
100
AcDbPolyline
 90
        6
 70
     0
 43
0.0
 10
-32091.80451180724
 20
-6949.163317449917
 10
-31780.82005525537
 20
-7086.7009641028
 10
-31740.82009535027
 20
-7086.757599691411
 10
-31726.69799760661
 20
-7100.919744843832
 10
-31726.72631540091
 20
-7120.919724796394
 10
-31752.94083681237
 20
-7180.193013916178
1001
REVIT
1002
{
1070
     1
1000
22623746
1002
}
1002
{
1070
     2
1000
-2000051
1002
}
1002
{
1070
     3
1000
-2000042
1002
}
  0
LWPOLYLINE
  5
389
330
70
100
AcDbEntity
  8
A-COB-___-___-EXI
100
AcDbPolyline
 90
        6
 70
     0
 43
0.0
 10
-32456.90336448265
 20
-6791.995792388218
 10
-32145.91890793078
 20
-6929.533439041098
 10
-32105.91894802568
 20
-6929.590074629707
 10
-32091.79685028203
 20
-6943.752219782128
 10
-32091.82516807633
 20
-6963.752199734691
 10
-32118.03968948779
 20
-7023.025488854475
1001
REVIT
1002
{
1070
     1
1000
22623740
1002
}
1002
{
1070
     2
1000
-2000051
1002
}
1002
{
1070
     3
1000
-2000042
1002
}
  0
LWPOLYLINE
  5
38A
330
70
100
AcDbEntity
  8
A-COB-___-___-EXI
100
AcDbPolyline
 90
        6
 70
     0
 43
0.0
 10
-32822.00221715806
 20
-6634.828267326515
 10
-32511.01776060619
 20
-6772.365913979395
 10
-32471.01780070109
 20
-6772.422549568005
 10
-32456.89570295744
 20
-6786.584694720424
 10
-32456.92402075174
 20
-6806.584674672989
 10
-32483.1385421632
 20
-6865.857963792773
1001
REVIT
1002
{
1070
     1
1000
22623734
1002
}
1002
{
1070
     2
1000
-2000051
1002
}
1002
{
1070
     3
1000
-2000042
1002
}
  0
LWPOLYLINE
  5
38B
330
70
100
AcDbEntity
  8
A-COB-___-___-EXI
100
AcDbPolyline
 90
        6
 70
     0
 43
0.0
 10
-33187.10106983349
 20
-6477.660742264799
 10
-32876.1166132816
 20
-6615.198388917689
 10
-32836.1166533765
 20
-6615.255024506298
 10
-32821.99455563284
 20
-6629.417169658719
 10
-32822.02287342714
 20
-6649.417149611281
 10
-32848.23739483861
 20
-6708.690438731065
1001
REVIT
1002
{
1070
     1
1000
22623728
1002
}
1002
{
1070
     2
1000
-2000051
1002
}
1002
{
1070
     3
1000
-2000042
1002
}
  0
LWPOLYLINE
  5
38C
330
70
100
AcDbEntity
  8
A-COB-___-___-EXI
100
AcDbPolyline
 90
        6
 70
     0
 43
0.0
 10
-33552.19992250889
 20
-6320.493217203107
 10
-33241.21546595702
 20
-6458.030863855985
 10
-33201.21550605193
 20
-6458.087499444596
 10
-33187.09340830827
 20
-6472.249644597015
 10
-33187.12172610258
 20
-6492.249624549578
 10
-33213.33624751403
 20
-6551.522913669362
1001
REVIT
1002
{
1070
     1
1000
22623722
1002
}
1002
{
1070
     2
1000
-2000051
1002
}
1002
{
1070
     3
1000
-2000042
1002
}
  0
LWPOLYLINE
  5
38D
330
70
100
AcDbEntity
  8
A-COB-___-___-EXI
100
AcDbPolyline
 90
        6
 70
     0
 43
0.0
 10
-33917.29877518431
 20
-6163.325692141393
 10
-33606.31431863243
 20
-6300.863338794275
 10
-33566.31435872733
 20
-6300.919974382885
 10
-33552.19226098368
 20
-6315.082119535304
 10
-33552.22057877798
 20
-6335.082099487869
 10
-33578.43510018944
 20
-6394.355388607653
1001
REVIT
1002
{
1070
     1
1000
22623716
1002
}
1002
{
1070
     2
1000
-2000051
1002
}
1002
{
1070
     3
1000
-2000042
1002
}
  0
LWPOLYLINE
  5
38E
330
70
100
AcDbEntity
  8
A-COB-___-___-EXI
100
AcDbPolyline
 90
        6
 70
     0
 43
0.0
 10
-34282.39762785972
 20
-6006.15816707969
 10
-33971.41317130786
 20
-6143.695813732573
 10
-33931.41321140275
 20
-6143.752449321183
 10
-33917.29111365909
 20
-6157.914594473602
 10
-33917.31943145339
 20
-6177.914574426166
 10
-33943.53395286485
 20
-6237.18786354595
1001
REVIT
1002
{
1070
     1
1000
22623710
1002
}
1002
{
1070
     2
1000
-2000051
1002
}
1002
{
1070
     3
1000
-2000042
1002
}
  0
LWPOLYLINE
  5
38F
330
70
100
AcDbEntity
  8
A-COB-___-___-EXI
100
AcDbPolyline
 90
        6
 70
     0
 43
0.0
 10
-34647.49648053514
 20
-5848.990642017976
 10
-34336.51202398326
 20
-5986.528288670862
 10
-34296.51206407816
 20
-5986.584924259472
 10
-34282.38996633451
 20
-6000.747069411892
 10
-34282.41828412881
 20
-6020.747049364455
 10
-34308.63280554027
 20
-6080.020338484239
1001
REVIT
1002
{
1070
     1
1000
22623704
1002
}
1002
{
1070
     2
1000
-2000051
1002
}
1002
{
1070
     3
1000
-2000042
1002
}
  0
LWPOLYLINE
  5
390
330
70
100
AcDbEntity
  8
A-COB-___-___-EXI
100
AcDbPolyline
 90
        6
 70
     0
 43
0.0
 10
-35012.59533321055
 20
-5691.823116956279
 10
-34701.61087665868
 20
-5829.360763609159
 10
-34661.61091675358
 20
-5829.417399197768
 10
-34647.48881900993
 20
-5843.579544350188
 10
-34647.51713680423
 20
-5863.579524302751
 10
-34673.7316582157
 20
-5922.852813422534
1001
REVIT
1002
{
1070
     1
1000
22623698
1002
}
1002
{
1070
     2
1000
-2000051
1002
}
1002
{
1070
     3
1000
-2000042
1002
}
  0
LWPOLYLINE
  5
391
330
70
100
AcDbEntity
  8
A-COB-___-___-EXI
100
AcDbPolyline
 90
        6
 70
     0
 43
0.0
 10
-35377.69418588596
 20
-5534.655591894573
 10
-35066.70972933409
 20
-5672.193238547453
 10
-35026.70976942899
 20
-5672.249874136063
 10
-35012.58767168533
 20
-5686.412019288483
 10
-35012.61598947964
 20
-5706.411999241046
 10
-35038.83051089109
 20
-5765.68528836083
1001
REVIT
1002
{
1070
     1
1000
22623692
1002
}
1002
{
1070
     2
1000
-2000051
1002
}
1002
{
1070
     3
1000
-2000042
1002
}
  0
LWPOLYLINE
  5
392
330
70
100
AcDbEntity
  8
A-COB-___-___-EXI
100
AcDbPolyline
 90
        6
 70
     0
 43
0.0
 10
-35742.79303856137
 20
-5377.48806683286
 10
-35431.80858200949
 20
-5515.025713485745
 10
-35391.80862210439
 20
-5515.082349074356
 10
-35377.68652436074
 20
-5529.244494226775
 10
-35377.71484215505
 20
-5549.244474179339
 10
-35403.9293635665
 20
-5608.517763299122
1001
REVIT
1002
{
1070
     1
1000
22623686
1002
}
1002
{
1070
     2
1000
-2000051
1002
}
1002
{
1070
     3
1000
-2000042
1002
}
  0
LWPOLYLINE
  5
393
330
70
100
AcDbEntity
  8
A-COB-___-___-EXI
100
AcDbPolyline
 90
        6
 70
     0
 43
0.0
 10
-36107.85432103079
 20
-5220.337157771112
 10
-35796.90743468492
 20
-5357.858188424033
 10
-35756.90747477981
 20
-5357.914824012642
 10
-35742.78537703616
 20
-5372.076969165062
 10
-35742.81369483046
 20
-5392.076949117625
 10
-35769.02821624193
 20
-5451.350238237409
1001
REVIT
1002
{
1070
     1
1000
22623676
1002
}
1002
{
1070
     2
1000
-2000051
1002
}
1002
{
1070
     3
1000
-2000042
1002
}
  0
LWPOLYLINE
  5
394
330
70
100
AcDbEntity
  8
A-COB-___-___-EXI
100
AcDbPolyline
 90
        6
 70
     0
 43
0.0
 10
-36472.95317370619
 20
-5063.169632709414
 10
-36162.00628736033
 20
-5200.690663362336
 10
-36122.00632745522
 20
-5200.747298950946
 10
-36107.88422971157
 20
-5214.909444103365
 10
-36107.91254750587
 20
-5234.909424055928
 10
-36134.12706891733
 20
-5294.182713175713
1001
REVIT
1002
{
1070
     1
1000
22623670
1002
}
1002
{
1070
     2
1000
-2000051
1002
}
1002
{
1070
     3
1000
-2000042
1002
}
  0
LWPOLYLINE
  5
395
330
70
100
AcDbEntity
  8
A-POR-___-___-EXI
100
AcDbPolyline
 90
        4
 70
     1
 43
0.0
 10
-39378.39051759509
 20
-9006.483602774705
 10
-39378.39051759509
 20
-11046.4836027747
 10
-38450.48489033022
 20
-11046.4836027747
 10
-38450.48489033022
 20
-9006.483602774705
1001
REVIT
1002
{
1070
     1
1000
22623323
1002
}
1002
{
1070
     2
1000
-2000051
1002
}
1002
{
1070
     3
1000
-2000042
1002
}
  0
LWPOLYLINE
  5
396
330
70
100
AcDbEntity
  8
A-POR-___-___-EXI
100
AcDbPolyline
 90
        4
 70
     1
 43
0.0
 10
-39318.39051759509
 20
-9076.049160111002
 10
-39318.39051759509
 20
-11046.4836027747
 10
-38510.48489033022
 20
-11046.4836027747
 10
-38510.48489033022
 20
-9076.049160111002
1001
REVIT
1002
{
1070
     1
1000
22623319
1002
}
1002
{
1070
     2
1000
-2000051
1002
}
1002
{
1070
     3
1000
-2000042
1002
}
  0
LWPOLYLINE
  5
397
330
70
100
AcDbEntity
  8
A-POR-___-___-EXI
100
AcDbPolyline
 90
        4
 70
     1
 43
0.0
 10
-36258.3905175951
 20
-9026.483602774716
 10
-36258.3905175951
 20
-11046.48360277471
 10
-35270.48489033022
 20
-11046.48360277471
 10
-35270.48489033022
 20
-9026.483602774716
1001
REVIT
1002
{
1070
     1
1000
22623315
1002
}
1002
{
1070
     2
1000
-2000051
1002
}
1002
{
1070
     3
1000
-2000042
1002
}
  0
LWPOLYLINE
  5
398
330
70
100
AcDbEntity
  8
A-POR-___-___-EXI
100
AcDbPolyline
 90
        4
 70
     1
 43
0.0
 10
-36178.3905175951
 20
-9116.049160111014
 10
-36178.3905175951
 20
-11046.48360277471
 10
-35350.48489033022
 20
-11046.48360277471
 10
-35350.48489033022
 20
-9116.049160111014
1001
REVIT
1002
{
1070
     1
1000
22623311
1002
}
1002
{
1070
     2
1000
-2000051
1002
}
1002
{
1070
     3
1000
-2000042
1002
}
  0
LWPOLYLINE
  5
399
330
70
100
AcDbEntity
  8
A-POR-___-___-EXI
100
AcDbPolyline
 90
        4
 70
     1
 43
0.0
 10
-32258.3905175951
 20
-9026.48360277473
 10
-32258.3905175951
 20
-11046.48360277472
 10
-31150.48489033022
 20
-11046.48360277472
 10
-31150.48489033022
 20
-9026.48360277473
1001
REVIT
1002
{
1070
     1
1000
22623287
1002
}
1002
{
1070
     2
1000
-2000051
1002
}
1002
{
1070
     3
1000
-2000042
1002
}
  0
LWPOLYLINE
  5
39A
330
70
100
AcDbEntity
  8
A-POR-___-___-EXI
100
AcDbPolyline
 90
        4
 70
     1
 43
0.0
 10
-32178.3905175951
 20
-9116.049160111026
 10
-32178.3905175951
 20
-11046.48360277472
 10
-31230.48489033022
 20
-11046.48360277472
 10
-31230.48489033022
 20
-9116.049160111026
1001
REVIT
1002
{
1070
     1
1000
22623283
1002
}
1002
{
1070
     2
1000
-2000051
1002
}
1002
{
1070
     3
1000
-2000042
1002
}
  0
LWPOLYLINE
  5
39B
330
70
100
AcDbEntity
  8
A-COB-___-___-EXI
100
AcDbPolyline
 90
        4
 70
     1
 43
0.0
 10
-39721.71602526186
 20
-8943.715769595312
 10
-39721.71602526186
 20
-8804.195726214748
 10
-39861.07823803304
 20
-8804.195726214748
 10
-39861.07823803304
 20
-8943.715769595312
1001
REVIT
1002
{
1070
     1
1000
22623278
1002
}
1002
{
1070
     5
1000
383807
1002
}
1002
{
1070
     2
1000
-2000051
1002
}
1002
{
1070
     3
1000
-2000042
1002
}
  0
LWPOLYLINE
  5
39C
330
70
100
AcDbEntity
  8
A-COB-___-___-EXI
100
AcDbPolyline
 90
        4
 70
     1
 43
0.0
 10
-39040.69947190854
 20
-8943.715769595312
 10
-39040.69947190854
 20
-8804.195726214748
 10
-39160.87886367677
 20
-8804.195726214748
 10
-39160.87886367677
 20
-8943.715769595312
1001
REVIT
1002
{
1070
     1
1000
22623278
1002
}
1002
{
1070
     5
1000
383807
1002
}
1002
{
1070
     2
1000
-2000051
1002
}
1002
{
1070
     3
1000
-2000042
1002
}
  0
LWPOLYLINE
  5
39D
330
70
100
AcDbEntity
  8
A-COB-___-___-EXI
100
AcDbPolyline
 90
        4
 70
     1
 43
0.0
 10
-38334.19032030134
 20
-8943.715769595312
 10
-38334.19032030134
 20
-8804.195726214748
 10
-38450.48489033022
 20
-8804.195726214748
 10
-38450.48489033022
 20
-8943.715769595312
1001
REVIT
1002
{
1070
     1
1000
22623278
1002
}
1002
{
1070
     5
1000
383807
1002
}
1002
{
1070
     2
1000
-2000051
1002
}
1002
{
1070
     3
1000
-2000042
1002
}
  0
LWPOLYLINE
  5
39E
330
70
100
AcDbEntity
  8
A-COB-___-___-EXI
100
AcDbPolyline
 90
        4
 70
     1
 43
0.0
 10
-35466.30888658206
 20
-8943.715769595312
 10
-35466.30888658206
 20
-8804.195726214748
 10
-35605.81701200301
 20
-8804.195726214748
 10
-35605.81701200301
 20
-8943.715769595312
1001
REVIT
1002
{
1070
     1
1000
22623278
1002
}
1002
{
1070
     5
1000
383807
1002
}
1002
{
1070
     2
1000
-2000051
1002
}
1002
{
1070
     3
1000
-2000042
1002
}
  0
LWPOLYLINE
  5
39F
330
70
100
AcDbEntity
  8
A-COB-___-___-EXI
100
AcDbPolyline
 90
        4
 70
     1
 43
0.0
 10
-34835.39900594703
 20
-8943.715769595312
 10
-34835.39900594703
 20
-8804.195726214748
 10
-34956.16723392337
 20
-8804.195726214748
 10
-34956.16723392337
 20
-8943.715769595312
1001
REVIT
1002
{
1070
     1
1000
22623278
1002
}
1002
{
1070
     5
1000
383807
1002
}
1002
{
1070
     2
1000
-2000051
1002
}
1002
{
1070
     3
1000
-2000042
1002
}
  0
LWPOLYLINE
  5
3A0
330
70
100
AcDbEntity
  8
A-COB-___-___-EXI
100
AcDbPolyline
 90
        4
 70
     1
 43
0.0
 10
-34216.98239027507
 20
-8943.715769595312
 10
-34216.98239027507
 20
-8804.195726214748
 10
-34339.83282907859
 20
-8804.195726214748
 10
-34339.83282907859
 20
-8943.715769595312
1001
REVIT
1002
{
1070
     1
1000
22623278
1002
}
1002
{
1070
     5
1000
383807
1002
}
1002
{
1070
     2
1000
-2000051
1002
}
1002
{
1070
     3
1000
-2000042
1002
}
  0
LWPOLYLINE
  5
3A1
330
70
100
AcDbEntity
  8
A-COB-___-___-EXI
100
AcDbPolyline
 90
        4
 70
     1
 43
0.0
 10
-33578.3905175951
 20
-8941.215769595313
 10
-33578.3905175951
 20
-8804.195726214748
 10
-33700.59410513484
 20
-8804.195726214748
 10
-33700.59410513484
 20
-8941.215769595313
1001
REVIT
1002
{
1070
     1
1000
22623278
1002
}
1002
{
1070
     5
1000
383807
1002
}
1002
{
1070
     2
1000
-2000051
1002
}
1002
{
1070
     3
1000
-2000042
1002
}
  0
LWPOLYLINE
  5
3A2
330
70
100
AcDbEntity
  8
A-COB-___-___-EXI
100
AcDbPolyline
 90
        4
 70
     1
 43
0.0
 10
-43693.33149495651
 20
-8938.697096505411
 10
-43693.33149495651
 20
-8833.020752470943
 10
-43827.76058502878
 20
-8833.020752470943
 10
-43827.76058502878
 20
-8938.697096505411
1001
REVIT
1002
{
1070
     1
1000
22623278
1002
}
1002
{
1070
     5
1000
383807
1002
}
1002
{
1070
     2
1000
-2000051
1002
}
1002
{
1070
     3
1000
-2000042
1002
}
  0
LWPOLYLINE
  5
3A3
330
70
100
AcDbEntity
  8
A-COB-___-___-EXI
100
AcDbPolyline
 90
       36
 70
     0
 43
0.0
 10
-40021.07823803303
 20
-7388.521678335473
 10
-41581.15629929047
 20
-7388.521678335468
 10
-43496.69723683565
 20
-8085.721562120289
 10
-43496.69723683565
 20
-7948.503681696327
 10
-41774.78050010027
 20
-7268.350795087934
 10
-41757.35782508516
 20
-7285.773470103051
 10
-41627.14769084145
 20
-7234.340786523105
 10
-41644.57036585656
 20
-7216.918111507988
 10
-40022.41762084466
 20
-6576.171756877997
 10
-39861.07823803304
 20
-6576.171756877997
 10
-39861.07823803304
 20
-6512.443096483538
 10
-38276.39285682213
 20
-5886.496258635737
 10
-38230.50674191404
 20
-5952.028422178858
 10
-38100.29660767033
 20
-5900.595738598911
 10
-38146.18272257841
 20
-5835.06357505579
 10
-36683.79721448593
 20
-5257.424887049801
 10
-36683.79721448593
 20
-5283.604902413532
 10
-36459.29809683043
 20
-5283.604902413532
 10
-36459.29809683043
 20
-5248.766261152237
 10
-35111.31864711355
 20
-5829.147123654173
 10
-35150.86452936499
 20
-5920.995494336267
 10
-35024.48005990226
 20
-5941.760057832714
 10
-34997.15699529938
 20
-5878.300126660614
 10
-33550.36828725642
 20
-6501.223924503673
 10
-33578.3905175951
 20
-6566.30772218255
 10
-33376.36691947407
 20
-6678.291231228101
 10
-33339.26376255557
 20
-6592.116279093848
 10
-31738.37895699143
 20
-7281.387101742303
 10
-31738.37895699143
 20
-7404.001571043124
 10
-31619.96883277688
 20
-7404.001571043124
 10
-31738.37895699143
 20
-7404.001571043124
 10
-31738.37895699143
 20
-8100.432372763149
 10
-31619.96883277688
 20
-8100.432372763149
 10
-31619.96883277688
 20
-7404.001571043124
 10
-31619.96883277687
 20
-7332.369310732982
 10
-29836.08295611284
 20
-8100.432372763156
1001
REVIT
1002
{
1070
     1
1000
22623278
1002
}
1002
{
1070
     5
1000
383807
1002
}
1002
{
1070
     2
1000
-2000051
1002
}
1002
{
1070
     3
1000
-2000042
1002
}
  0
LWPOLYLINE
  5
3A4
330
70
100
AcDbEntity
  8
A-ALV-___-___-EXI
100
AcDbPolyline
 90
       12
 70
     0
 43
0.0
 10
-33376.36691947407
 20
-8203.959186490788
 10
-29787.39401412208
 20
-8203.9591864908
 10
-29787.39401412208
 20
-8121.395696909411
 10
-27314.39560388847
 20
-9186.160408714743
 10
-27314.39560388847
 20
-9326.477623932682
 10
-27145.82579793479
 20
-9326.477623932682
 10
-27314.39560388847
 20
-9326.477623932682
 10
-27314.39560388847
 20
-11046.48360277473
 10
-27145.82579793479
 20
-11046.48360277473
 10
-27145.82579793479
 20
-9326.477623932682
 10
-27145.82579793479
 20
-9258.73917791759
 10
-26770.1207489007
 20
-9420.501303037919
1001
REVIT
1002
{
1070
     1
1000
22623278
1002
}
1002
{
1070
     5
1000
383807
1002
}
1002
{
1070
     2
1000
-2000051
1002
}
1002
{
1070
     3
1000
-2000042
1002
}
  0
LWPOLYLINE
  5
3A5
330
70
100
AcDbEntity
  8
A-BAS-___-___-EXI
100
AcDbPolyline
 90
        9
 70
     1
 43
0.0
 10
-25718.60248504632
 20
-11546.48360277475
 10
-25718.60248504632
 20
-11286.48360277474
 10
-26721.02327523885
 20
-11286.48360277474
 10
-26721.02327523885
 20
-11046.48360277474
 10
-27736.26194401783
 20
-11046.48360277473
 10
-39676.26194401782
 20
-11046.4836027747
 10
-39876.26194401782
 20
-11046.4836027747
 10
-46612.83955184477
 20
-11046.48360277467
 10
-46612.83955184477
 20
-11546.48360277475
1001
REVIT
1002
{
1070
     1
1000
22623257
1002
}
1002
{
1070
     5
1000
383807
1002
}
1002
{
1070
     2
1000
-2000051
1002
}
1002
{
1070
     3
1000
-2000042
1002
}
  0
LWPOLYLINE
  5
3A7
330
70
100
AcDbEntity
  8
A-COB-___-___-EXI
100
AcDbPolyline
 90
        4
 70
     1
 43
0.0
 10
-36552.28789125393
 20
-5283.604902413532
 10
-36552.28789125393
 20
-7549.586664289269
 10
-36683.79721448593
 20
-7549.586664289269
 10
-36683.79721448593
 20
-5283.604902413532
1001
REVIT
1002
{
1070
     1
1000
22623401
1002
}
1002
{
1070
     2
1000
-2000051
1002
}
1002
{
1070
     3
1000
-2000042
1002
}
  0
LWPOLYLINE
  5
3A8
330
70
100
AcDbEntity
  8
A-COB-___-___-EXI
100
AcDbPolyline
 90
        4
 70
     1
 43
0.0
 10
-37776.9949584668
 20
-8943.715769595312
 10
-37633.02515064526
 20
-8943.715769595312
 10
-37633.02515064526
 20
-8804.195726214748
 10
-37776.9949584668
 20
-8804.195726214748
1001
REVIT
1002
{
1070
     1
1000
22623278
1002
}
1002
{
1070
     5
1000
383807
1002
}
1002
{
1070
     2
1000
-2000051
1002
}
1002
{
1070
     3
1000
-2000042
1002
}
  0
LWPOLYLINE
  5
3A9
330
70
100
AcDbEntity
  8
A-COB-___-___-EXI
100
AcDbPolyline
 90
        4
 70
     1
 43
0.0
 10
-36074.31444811814
 20
-8943.715769595312
 10
-36074.31444811814
 20
-8804.195726214748
 10
-36258.3905175951
 20
-8804.195726214748
 10
-36258.3905175951
 20
-8943.715769595312
1001
REVIT
1002
{
1070
     1
1000
22623278
1002
}
1002
{
1070
     5
1000
383807
1002
}
1002
{
1070
     2
1000
-2000051
1002
}
1002
{
1070
     3
1000
-2000042
1002
}
  0
LWPOLYLINE
  5
3AA
330
70
100
AcDbEntity
  8
A-COB-___-___-EXI
100
AcDbPolyline
 90
        4
 70
     1
 43
0.0
 10
-33376.36691947407
 20
-9026.48360277473
 10
-33376.36691947407
 20
-8946.215769595312
 10
-33578.3905175951
 20
-8946.215769595312
 10
-33578.3905175951
 20
-9026.48360277473
1001
REVIT
1002
{
1070
     1
1000
22623278
1002
}
1002
{
1070
     5
1000
383807
1002
}
1002
{
1070
     2
1000
-2000051
1002
}
1002
{
1070
     3
1000
-2000042
1002
}
  0
LINE
  5
3BA
330
70
100
AcDbEntity
  8
A-COB-___-___-EXI
100
AcDbLine
 10
-29934.27191385341
 20
-8203.9591864908
 30
0.0
 11
-29934.27191385341
 21
-8806.483602774719
 31
0.0
1001
REVIT
1002
{
1070
     1
1000
22623247
1002
}
1002
{
1070
     5
1000
383807
1002
}
1002
{
1070
     2
1000
-2000051
1002
}
1002
{
1070
     3
1000
-2000042
1002
}
  0
LINE
  5
3BB
330
70
100
AcDbEntity
  8
A-COB-___-___-EXI
100
AcDbLine
 10
-29934.27191385341
 20
-8806.483602774719
 30
0.0
 11
-29534.27191385341
 21
-8806.483602774719
 31
0.0
1001
REVIT
1002
{
1070
     1
1000
22623247
1002
}
1002
{
1070
     5
1000
383807
1002
}
1002
{
1070
     2
1000
-2000051
1002
}
1002
{
1070
     3
1000
-2000042
1002
}
  0
LINE
  5
3BC
330
70
100
AcDbEntity
  8
A-COB-___-___-EXI
100
AcDbLine
 10
-29534.27191385341
 20
-8806.483602774719
 30
0.0
 11
-29934.27191385341
 21
-8806.483602774719
 31
0.0
1001
REVIT
1002
{
1070
     1
1000
22623247
1002
}
1002
{
1070
     5
1000
383807
1002
}
1002
{
1070
     2
1000
-2000051
1002
}
1002
{
1070
     3
1000
-2000042
1002
}
  0
LINE
  5
3BD
330
70
100
AcDbEntity
  8
A-JAN-___-___-EXI
100
AcDbLine
 10
-29934.27191385341
 20
-8806.483602774719
 30
0.0
 11
-29934.27191385341
 21
-10506.48360277472
 31
0.0
1001
REVIT
1002
{
1070
     1
1000
22623247
1002
}
1002
{
1070
     5
1000
383807
1002
}
1002
{
1070
     2
1000
-2000051
1002
}
1002
{
1070
     3
1000
-2000042
1002
}
  0
LINE
  5
3BE
330
70
100
AcDbEntity
  8
A-ALV-___-___-EXI
100
AcDbLine
 10
-29934.27191385341
 20
-10506.48360277472
 30
0.0
 11
-29534.27191385341
 21
-10506.48360277472
 31
0.0
1001
REVIT
1002
{
1070
     1
1000
22623247
1002
}
1002
{
1070
     5
1000
383807
1002
}
1002
{
1070
     2
1000
-2000051
1002
}
1002
{
1070
     3
1000
-2000042
1002
}
  0
LINE
  5
3BF
330
70
100
AcDbEntity
  8
A-ALV-___-___-EXI
100
AcDbLine
 10
-29534.27191385341
 20
-10506.48360277472
 30
0.0
 11
-29534.27191385341
 21
-8806.483602774719
 31
0.0
1001
REVIT
1002
{
1070
     1
1000
22623247
1002
}
1002
{
1070
     5
1000
383807
1002
}
1002
{
1070
     2
1000
-2000051
1002
}
1002
{
1070
     3
1000
-2000042
1002
}
  0
LINE
  5
3C0
330
70
100
AcDbEntity
  8
A-ALV-___-___-EXI
100
AcDbLine
 10
-29534.27191385341
 20
-8806.483602774719
 30
0.0
 11
-29534.27191385341
 21
-10506.48360277472
 31
0.0
1001
REVIT
1002
{
1070
     1
1000
22623247
1002
}
1002
{
1070
     5
1000
383807
1002
}
1002
{
1070
     2
1000
-2000051
1002
}
1002
{
1070
     3
1000
-2000042
1002
}
  0
LINE
  5
3C1
330
70
100
AcDbEntity
  8
A-ALV-___-___-EXI
100
AcDbLine
 10
-29534.27191385341
 20
-10506.48360277472
 30
0.0
 11
-29934.27191385341
 21
-10506.48360277472
 31
0.0
1001
REVIT
1002
{
1070
     1
1000
22623247
1002
}
1002
{
1070
     5
1000
383807
1002
}
1002
{
1070
     2
1000
-2000051
1002
}
1002
{
1070
     3
1000
-2000042
1002
}
  0
LINE
  5
3C2
330
70
100
AcDbEntity
  8
A-ALV-___-___-EXI
100
AcDbLine
 10
-29934.27191385341
 20
-10506.48360277472
 30
0.0
 11
-29934.27191385341
 21
-11046.48360277472
 31
0.0
1001
REVIT
1002
{
1070
     1
1000
22623247
1002
}
1002
{
1070
     5
1000
383807
1002
}
1002
{
1070
     2
1000
-2000051
1002
}
1002
{
1070
     3
1000
-2000042
1002
}
  0
VIEWPORT
  5
3DB
102
{ACAD_XDICTIONARY
360
3DC
102
}
330
74
100
AcDbEntity
 67
     1
  8
0
100
AcDbViewport
 10
310.0099751035407
 20
71.61358827990795
 30
0.0
 40
1109.322461660431
 41
438.258034433528
 68
     1
 69
     1
 12
310.0099751035407
 22
71.61358827990795
 13
0.0
 23
0.0
 14
10.0
 24
10.0
 15
10.0
 25
10.0
 16
0.0
 26
0.0
 36
1.0
 17
0.0
 27
0.0
 37
0.0
 42
50.0
 43
0.0
 44
0.0
 45
438.258034433528
 50
0.0
 51
0.0
 72
   100
 90
   819232
  1

281
     0
 71
     1
 74
     0
110
0.0
120
0.0
130
0.0
111
1.0
121
0.0
131
0.0
112
0.0
122
1.0
132
0.0
 79
     0
146
0.0
170
     0
 61
     5
348
2F
292
     1
282
     1
141
0.0
142
0.0
 63
   250
421
  3355443
  0
VIEWPORT
  5
3DF
102
{ACAD_XDICTIONARY
360
3E0
102
}
330
74
100
AcDbEntity
 67
     1
  8
0
100
AcDbViewport
 10
148.5
 20
104.9443283081054
 30
0.0
 40
237.6
 41
167.9109252929687
 68
     2
 69
     2
 12
-36352.64258045058
 22
-8269.473188444736
 13
0.0
 23
0.0
 14
1.0
 24
1.0
 15
0.0
 25
0.0
 16
0.0
 26
0.0
 36
1.0
 17
0.0
 27
0.0
 37
0.0
 42
50.0
 43
0.0
 44
0.0
 45
15140.57840333451
 50
0.0
 51
0.0
 72
  1000
 90
   819232
  1

281
     0
 71
     1
 74
     0
110
0.0
120
0.0
130
0.0
111
1.0
121
0.0
131
0.0
112
0.0
122
1.0
132
0.0
 79
     0
146
0.0
170
     0
 61
     5
348
2F
292
     1
282
     1
141
0.0
142
0.0
 63
   250
421
  3355443
  0
ENDSEC
  0
SECTION
  2
OBJECTS
  0
DICTIONARY
  5
C
330
0
100
AcDbDictionary
281
     1
  3
ACAD_CIP_PREVIOUS_PRODUCT_INFO
350
79
  3
ACAD_COLOR
350
63
  3
ACAD_DETAILVIEWSTYLE
350
6A
  3
ACAD_GROUP
350
D
  3
ACAD_IMAGE_VARS
350
7A
  3
ACAD_LAYOUT
350
62
  3
ACAD_MATERIAL
350
10
  3
ACAD_MLEADERSTYLE
350
66
  3
ACAD_MLINESTYLE
350
5F
  3
ACAD_PLOTSETTINGS
350
61
  3
ACAD_PLOTSTYLENAME
350
E
  3
ACAD_RENDER_ACTIVE_RAPIDRT_SETTINGS
350
340
  3
ACAD_RENDER_RAPIDRT_SETTINGS
350
339
  3
ACAD_SCALELIST
350
42
  3
ACAD_SECTIONVIEWSTYLE
350
68
  3
ACAD_TABLESTYLE
350
64
  3
ACAD_VISUALSTYLE
350
29
  3
ACDB_RECOMPOSE_DATA
350
3F5
  3
AcDbVariableDictionary
350
329
  3
REVIT_DICTIONARY
350
321
  0
SUN
  5
328
330
57
100
AcDbSun
 90
        1
290
     1
 63
     7
421
 16777215
 40
0.3
291
     1
 91
  2460364
 92
 45306000
292
     0
 70
     1
 71
   128
280
     1
  0
DICTIONARY
  5
345
330
2
100
AcDbDictionary
280
     1
281
     1
  3
ACAD_LAYERSTATES
360
346
  0
DICTIONARY
  5
326
330
70
100
AcDbDictionary
280
     1
281
     1
  3
ACAD_SORTENTS
360
327
  0
DICTIONARY
  5
3DC
330
3DB
100
AcDbDictionary
280
     1
281
     1
  3
ASDK_XREC_ANNOTATION_SCALE_INFO
360
3DD
  0
DICTIONARY
  5
3E0
330
3DF
100
AcDbDictionary
280
     1
281
     1
  3
ASDK_XREC_ANNOTATION_SCALE_INFO
360
3E1
  0
XRECORD
  5
79
102
{ACAD_REACTORS
330
C
102
}
330
C
100
AcDbXrecord
280
     1
300
ACD
300
2022
300

  0
DICTIONARY
  5
63
102
{ACAD_REACTORS
330
C
102
}
330
C
100
AcDbDictionary
281
     1
  0
DICTIONARY
  5
6A
102
{ACAD_REACTORS
330
C
102
}
330
C
100
AcDbDictionary
281
     1
  3
Imperial24
350
6B
  3
Metric50
350
331
  0
DICTIONARY
  5
D
102
{ACAD_REACTORS
330
C
102
}
330
C
100
AcDbDictionary
281
     1
  0
RASTERVARIABLES
  5
7A
102
{ACAD_REACTORS
330
C
102
}
330
C
100
AcDbRasterVariables
 90
        0
 70
     0
 71
     1
 72
     1
  0
DICTIONARY
  5
62
102
{ACAD_REACTORS
330
C
102
}
330
C
100
AcDbDictionary
281
     1
  3
Layout2
350
77
  3
Model
350
73
  0
DICTIONARY
  5
10
102
{ACAD_REACTORS
330
C
102
}
330
C
100
AcDbDictionary
281
     1
  3
ByBlock
350
19
  3
ByLayer
350
11
  3
Global
350
21
  0
DICTIONARY
  5
66
102
{ACAD_REACTORS
330
C
102
}
330
C
100
AcDbDictionary
281
     1
  3
Standard
350
67
  0
DICTIONARY
  5
5F
102
{ACAD_REACTORS
330
C
102
}
330
C
100
AcDbDictionary
281
     1
  3
Standard
350
60
  0
DICTIONARY
  5
61
102
{ACAD_REACTORS
330
C
102
}
330
C
100
AcDbDictionary
281
     1
  0
ACDBDICTIONARYWDFLT
  5
E
102
{ACAD_REACTORS
330
C
102
}
330
C
100
AcDbDictionary
281
     1
  3
Normal
350
F
100
AcDbDictionaryWithDefault
340
F
  0
RAPIDRTRENDERSETTINGS
  5
340
102
{ACAD_REACTORS
330
C
102
}
330
C
100
AcDbRenderSettings
 90
        2
  1
Médio
290
     1
290
     0
290
     1
290
     1
  1

  1
Aplica 5 níveis de renderização
 90
        0
100
AcDbRapidRTRenderSettings
 90
        3
 70
     0
 90
        5
 90
        1
 70
     1
 70
     2
 40
3.0
 40
3.0
290
     1
  0
DICTIONARY
  5
339
102
{ACAD_REACTORS
330
C
102
}
330
C
100
AcDbDictionary
281
     1
  3
Alto
350
33C
  3
Baixo
350
33A
  3
Médio
350
33B
  3
Qualidade de curta duração
350
33D
  3
Qualidade de longa duração
350
33F
  3
Qualidade de média duração
350
33E
  0
DICTIONARY
  5
42
102
{ACAD_REACTORS
330
C
102
}
330
C
100
AcDbDictionary
281
     1
  3
A0
350
43
  3
A1
350
44
  3
A2
350
45
  3
A3
350
46
  3
A4
350
47
  3
A5
350
48
  3
A6
350
49
  3
A7
350
4A
  3
A8
350
4B
  3
A9
350
4C
  3
B0
350
4D
  3
B1
350
4E
  3
B2
350
4F
  3
B3
350
50
  3
B4
350
51
  3
B5
350
52
  3
B6
350
53
  0
DICTIONARY
  5
68
102
{ACAD_REACTORS
330
C
102
}
330
C
100
AcDbDictionary
281
     1
  3
Imperial24
350
69
  3
Metric50
350
330
  0
DICTIONARY
  5
64
102
{ACAD_REACTORS
330
C
102
}
330
C
100
AcDbDictionary
281
     1
  3
Standard
350
65
  0
DICTIONARY
  5
29
102
{ACAD_REACTORS
330
C
102
}
330
C
100
AcDbDictionary
281
     1
  3
2dWireframe
350
2F
  3
Basic
350
2E
  3
Brighten
350
35
  3
ColorChange
350
39
  3
Conceptual
350
32
  3
Dim
350
34
  3
EdgeColorOff
350
41
  3
Facepattern
350
38
  3
Flat
350
2A
  3
FlatWithEdges
350
2B
  3
Gouraud
350
2C
  3
GouraudWithEdges
350
2D
  3
Hidden
350
31
  3
JitterOff
350
3F
  3
Linepattern
350
37
  3
OverhangOff
350
40
  3
Realistic
350
33
  3
Shaded
350
3E
  3
Shaded with edges
350
3D
  3
Shades of Gray
350
3A
  3
Sketchy
350
3B
  3
Thicken
350
36
  3
Wireframe
350
30
  3
X-Ray
350
3C
  0
XRECORD
  5
3F5
102
{ACAD_REACTORS
330
C
102
}
330
C
100
AcDbXrecord
280
     1
 90
        1
330
65
  0
DICTIONARY
  5
329
102
{ACAD_REACTORS
330
C
102
}
330
C
100
AcDbDictionary
281
     1
  3
CANNOSCALE
350
32E
  3
CMLEADERSTYLE
350
32B
  3
CTABLESTYLE
350
32A
  3
CVIEWDETAILSTYLE
350
32C
  3
CVIEWSECTIONSTYLE
350
32D
  0
DICTIONARY
  5
321
102
{ACAD_REACTORS
330
C
102
}
330
C
100
AcDbDictionary
281
     1
  3
DRAWING_TOOL
350
325
  3
REVIT_CATEGORY_MAPPING
350
323
  3
REVIT_SUB_CATEGORY_MAPPING
350
324
  3
REVIT_TYPE_MAPPING
350
322
  0
DICTIONARY
  5
346
102
{ACAD_REACTORS
330
345
102
}
330
345
100
AcDbDictionary
281
     1
  0
SORTENTSTABLE
  5
327
102
{ACAD_REACTORS
330
326
102
}
330
326
100
AcDbSortentsTable
330
70
331
3A7
  5
3BF
331
3A8
  5
3C0
331
3A9
  5
3C1
331
3AA
  5
3C2
331
3BA
  5
3A7
331
3BB
  5
3A8
331
3BC
  5
3A9
331
3BD
  5
3AA
331
3BE
  5
3BA
331
3BF
  5
3BB
331
3C0
  5
3BC
331
3C1
  5
3BD
331
3C2
  5
3BE
  0
XRECORD
  5
3DD
102
{ACAD_REACTORS
330
3DC
102
}
330
3DC
100
AcDbXrecord
280
     1
 90
        1
340
43
  0
XRECORD
  5
3E1
102
{ACAD_REACTORS
330
3E0
102
}
330
3E0
100
AcDbXrecord
280
     1
 90
        1
340
43
  0
ACDBDETAILVIEWSTYLE
  5
6B
102
{ACAD_REACTORS
330
6A
102
}
330
6A
100
AcDbModelDocViewStyle
 70
     0
  3
Imperial24
290
     1
300
Imperial24
 90
        0
100
AcDbDetailViewStyle
 70
     0
 71
     0
 90
        3
 71
     1
340
55
 62
   256
 40
0.24
340
0
 62
   256
 40
0.24
300

 40
0.36
280
     3
 71
     2
340
5D
 90
       25
 62
   256
 71
     3
340
55
 62
   256
 40
0.24
 90
        1
 40
0.75
 90
        1
300
%<\AcVar ViewType \f "%tc1">% %<\AcVar ViewDetailId>%\PSCALE %<\AcVar ViewScale \f "%sn">%
 71
     4
340
5D
 90
       25
 62
   256
340
5D
 90
       25
 62
   256
280
     0
  0
ACDBDETAILVIEWSTYLE
  5
331
102
{ACAD_REACTORS
330
6A
102
}
330
6A
100
AcDbModelDocViewStyle
 70
     0
  3
Metric50
290
     1
300
Metric50
 90
        0
100
AcDbDetailViewStyle
 70
     0
 71
     0
 90
        3
 71
     1
340
55
 62
   256
 40
5.0
340
0
 62
   256
 40
5.0
300

 40
0.0
280
     1
 71
     2
340
5D
 90
       25
 62
   256
 71
     3
340
55
 62
   256
 40
5.0
 90
        0
 40
15.0
 90
        1
300
%<\AcVar ViewDetailId>% (%<\AcVar ViewScale \f "%sn">%)
 71
     4
340
5D
 90
       25
 62
   256
340
5D
 90
       25
 62
   256
280
     0
  0
LAYOUT
  5
77
102
{ACAD_REACTORS
330
62
102
}
330
62
100
AcDbPlotSettings
  1

  2
PDF24
  4
A4
  6

 40
0.0
 41
0.0
 42
0.1113433837890625
 43
0.0
 44
210.0
 45
297.0
 46
0.0
 47
0.0
 48
0.0
 49
0.0
140
0.0
141
0.0
142
1.0
143
1.0
 70
   688
 72
     1
 73
     1
 74
     5
  7

 75
    16
147
1.0
 76
     0
 77
     2
 78
   300
148
0.0
149
0.0
100
AcDbLayout
  1
Layout2
 70
     1
 71
     1
 10
0.0
 20
0.0
 11
297.0
 21
210.0
 12
0.0
 22
0.0
 32
0.0
 14
29.69999999999999
 24
20.98886566162111
 34
0.0
 15
267.3
 25
188.8997909545898
 35
0.0
146
0.0
 13
0.0
 23
0.0
 33
0.0
 16
1.0
 26
0.0
 36
0.0
 17
0.0
 27
1.0
 37
0.0
 76
     0
330
74
331
3DB
1001
ACAD_PSEXT
1000
PDF24
1000
PDF24
1000
\\.\pipe\PDFPrint
1000
PDF24 Printer
1070
     0
  0
LAYOUT
  5
73
102
{ACAD_REACTORS
330
62
102
}
330
62
100
AcDbPlotSettings
  1

  2

  4

  6

 40
0.0
 41
0.0
 42
0.0
 43
0.0
 44
0.0
 45
0.0
 46
0.0
 47
0.0
 48
0.0
 49
0.0
140
0.0
141
0.0
142
1.0
143
1.0
 70
  1712
 72
     0
 73
     0
 74
     0
  7

 75
     0
147
1.0
 76
     0
 77
     2
 78
   300
148
0.0
149
0.0
100
AcDbLayout
  1
Model
 70
     1
 71
     0
 10
0.0
 20
0.0
 11
12.0
 21
9.0
 12
0.0
 22
0.0
 32
0.0
 14
0.0
 24
0.0
 34
0.0
 15
0.0
 25
0.0
 35
0.0
146
0.0
 13
0.0
 23
0.0
 33
0.0
 16
1.0
 26
0.0
 36
0.0
 17
0.0
 27
1.0
 37
0.0
 76
     0
330
70
331
57
  0
MATERIAL
  5
19
102
{ACAD_XDICTIONARY
360
1A
102
}
102
{ACAD_REACTORS
330
10
102
}
330
10
100
AcDbMaterial
  1
ByBlock
 72
     0
 43
0.0208333333333333
 43
0.0
 43
0.0
 43
0.0
 43
0.0
 43
0.0208333333333333
 43
0.0
 43
0.0
 43
0.0
 43
0.0
 43
1.0
 43
0.0
 43
0.0
 43
0.0
 43
0.0
 43
1.0
 77
     0
 47
0.0208333333333333
 47
0.0
 47
0.0
 47
0.0
 47
0.0
 47
0.0208333333333333
 47
0.0
 47
0.0
 47
0.0
 47
0.0
 47
1.0
 47
0.0
 47
0.0
 47
0.0
 47
0.0
 47
1.0
171
     0
 49
0.0208333333333333
 49
0.0
 49
0.0
 49
0.0
 49
0.0
 49
0.0208333333333333
 49
0.0
 49
0.0
 49
0.0
 49
0.0
 49
1.0
 49
0.0
 49
0.0
 49
0.0
 49
0.0
 49
1.0
175
     0
142
0.0208333333333333
142
0.0
142
0.0
142
0.0
142
0.0
142
0.0208333333333333
142
0.0
142
0.0
142
0.0
142
0.0
142
1.0
142
0.0
142
0.0
142
0.0
142
0.0
142
1.0
179
     0
144
0.0208333333333333
144
0.0
144
0.0
144
0.0
144
0.0
144
0.0208333333333333
144
0.0
144
0.0
144
0.0
144
0.0
144
1.0
144
0.0
144
0.0
144
0.0
144
0.0
144
1.0
147
0.0208333333333333
147
0.0
147
0.0
147
0.0
147
0.0
147
0.0208333333333333
147
0.0
147
0.0
147
0.0
147
0.0
147
1.0
147
0.0
147
0.0
147
0.0
147
0.0
147
1.0
  0
MATERIAL
  5
11
102
{ACAD_XDICTIONARY
360
12
102
}
102
{ACAD_REACTORS
330
10
102
}
330
10
100
AcDbMaterial
  1
ByLayer
 72
     0
 43
0.0208333333333333
 43
0.0
 43
0.0
 43
0.0
 43
0.0
 43
0.0208333333333333
 43
0.0
 43
0.0
 43
0.0
 43
0.0
 43
1.0
 43
0.0
 43
0.0
 43
0.0
 43
0.0
 43
1.0
 77
     0
 47
0.0208333333333333
 47
0.0
 47
0.0
 47
0.0
 47
0.0
 47
0.0208333333333333
 47
0.0
 47
0.0
 47
0.0
 47
0.0
 47
1.0
 47
0.0
 47
0.0
 47
0.0
 47
0.0
 47
1.0
171
     0
 49
0.0208333333333333
 49
0.0
 49
0.0
 49
0.0
 49
0.0
 49
0.0208333333333333
 49
0.0
 49
0.0
 49
0.0
 49
0.0
 49
1.0
 49
0.0
 49
0.0
 49
0.0
 49
0.0
 49
1.0
175
     0
142
0.0208333333333333
142
0.0
142
0.0
142
0.0
142
0.0
142
0.0208333333333333
142
0.0
142
0.0
142
0.0
142
0.0
142
1.0
142
0.0
142
0.0
142
0.0
142
0.0
142
1.0
179
     0
144
0.0208333333333333
144
0.0
144
0.0
144
0.0
144
0.0
144
0.0208333333333333
144
0.0
144
0.0
144
0.0
144
0.0
144
1.0
144
0.0
144
0.0
144
0.0
144
0.0
144
1.0
147
0.0208333333333333
147
0.0
147
0.0
147
0.0
147
0.0
147
0.0208333333333333
147
0.0
147
0.0
147
0.0
147
0.0
147
1.0
147
0.0
147
0.0
147
0.0
147
0.0
147
1.0
  0
MATERIAL
  5
21
102
{ACAD_XDICTIONARY
360
22
102
}
102
{ACAD_REACTORS
330
10
102
}
330
10
100
AcDbMaterial
  1
Global
 72
     0
 43
0.0208333333333333
 43
0.0
 43
0.0
 43
0.0
 43
0.0
 43
0.0208333333333333
 43
0.0
 43
0.0
 43
0.0
 43
0.0
 43
1.0
 43
0.0
 43
0.0
 43
0.0
 43
0.0
 43
1.0
 77
     0
 47
0.0208333333333333
 47
0.0
 47
0.0
 47
0.0
 47
0.0
 47
0.0208333333333333
 47
0.0
 47
0.0
 47
0.0
 47
0.0
 47
1.0
 47
0.0
 47
0.0
 47
0.0
 47
0.0
 47
1.0
171
     0
 49
0.0208333333333333
 49
0.0
 49
0.0
 49
0.0
 49
0.0
 49
0.0208333333333333
 49
0.0
 49
0.0
 49
0.0
 49
0.0
 49
1.0
 49
0.0
 49
0.0
 49
0.0
 49
0.0
 49
1.0
175
     0
142
0.0208333333333333
142
0.0
142
0.0
142
0.0
142
0.0
142
0.0208333333333333
142
0.0
142
0.0
142
0.0
142
0.0
142
1.0
142
0.0
142
0.0
142
0.0
142
0.0
142
1.0
179
     0
144
0.0208333333333333
144
0.0
144
0.0
144
0.0
144
0.0
144
0.0208333333333333
144
0.0
144
0.0
144
0.0
144
0.0
144
1.0
144
0.0
144
0.0
144
0.0
144
0.0
144
1.0
147
0.0208333333333333
147
0.0
147
0.0
147
0.0
147
0.0
147
0.0208333333333333
147
0.0
147
0.0
147
0.0
147
0.0
147
1.0
147
0.0
147
0.0
147
0.0
147
0.0
147
1.0
  0
MLEADERSTYLE
  5
67
102
{ACAD_REACTORS
330
66
102
}
330
66
100
AcDbMLeaderStyle
179
     2
170
     2
171
     1
172
     0
 90
        2
 40
0.0
 41
0.0
173
     1
 91
-1056964608
340
5B
 92
       -2
290
     1
 42
0.09
291
     1
 43
0.36
  3
Standard
 44
0.18
300

342
55
174
     1
178
     6
175
     1
176
     0
 93
-1056964608
 45
0.18
292
     0
297
     0
 46
0.18
 94
-1056964608
 47
1.0
 49
1.0
140
1.0
293
     1
141
0.0
294
     1
177
     0
142
1.0
295
     1
296
     0
143
0.125
271
     0
272
     9
273
     9
298
     1
  0
MLINESTYLE
  5
60
102
{ACAD_REACTORS
330
5F
102
}
330
5F
100
AcDbMlineStyle
  2
STANDARD
 70
     0
  3

 62
   256
 51
90.0
 52
90.0
 71
     2
 49
0.5
 62
   256
  6
BYLAYER
 49
-0.5
 62
   256
  6
BYLAYER
  0
ACDBPLACEHOLDER
  5
F
102
{ACAD_REACTORS
330
E
102
}
330
E
  0
RAPIDRTRENDERSETTINGS
  5
33C
102
{ACAD_REACTORS
330
339
102
}
330
339
100
AcDbRenderSettings
 90
        2
  1
Alto
290
     1
290
     0
290
     1
290
     1
  1

  1
Aplica 10 níveis de renderização
 90
        2
100
AcDbRapidRTRenderSettings
 90
        3
 70
     0
 90
       10
 90
        1
 70
     2
 70
     2
 40
3.0
 40
3.0
290
     1
  0
RAPIDRTRENDERSETTINGS
  5
33A
102
{ACAD_REACTORS
330
339
102
}
330
339
100
AcDbRenderSettings
 90
        2
  1
Baixo
290
     1
290
     0
290
     1
290
     1
  1

  1
Aplica 1 nível de renderização
 90
        0
100
AcDbRapidRTRenderSettings
 90
        3
 70
     0
 90
        1
 90
        1
 70
     0
 70
     2
 40
3.0
 40
3.0
290
     1
  0
RAPIDRTRENDERSETTINGS
  5
33B
102
{ACAD_REACTORS
330
339
102
}
330
339
100
AcDbRenderSettings
 90
        2
  1
Médio
290
     1
290
     0
290
     1
290
     1
  1

  1
Aplica 5 níveis de renderização
 90
        1
100
AcDbRapidRTRenderSettings
 90
        3
 70
     0
 90
        5
 90
        1
 70
     1
 70
     2
 40
3.0
 40
3.0
290
     1
  0
RAPIDRTRENDERSETTINGS
  5
33D
102
{ACAD_REACTORS
330
339
102
}
330
339
100
AcDbRenderSettings
 90
        2
  1
Qualidade de curta duração
290
     1
290
     0
290
     1
290
     1
  1

  1
Renderiza por 10 minutos
 90
        3
100
AcDbRapidRTRenderSettings
 90
        3
 70
     1
 90
        1
 90
       10
 70
     1
 70
     2
 40
3.0
 40
3.0
290
     1
  0
RAPIDRTRENDERSETTINGS
  5
33F
102
{ACAD_REACTORS
330
339
102
}
330
339
100
AcDbRenderSettings
 90
        2
  1
Qualidade de longa duração
290
     1
290
     0
290
     1
290
     1
  1

  1
Renderiza por 12 horas
 90
        5
100
AcDbRapidRTRenderSettings
 90
        3
 70
     1
 90
        1
 90
      720
 70
     2
 70
     2
 40
3.0
 40
3.0
290
     1
  0
RAPIDRTRENDERSETTINGS
  5
33E
102
{ACAD_REACTORS
330
339
102
}
330
339
100
AcDbRenderSettings
 90
        2
  1
Qualidade de média duração
290
     1
290
     0
290
     1
290
     1
  1

  1
Renderiza por 60 minutos
 90
        4
100
AcDbRapidRTRenderSettings
 90
        3
 70
     1
 90
        1
 90
       60
 70
     2
 70
     2
 40
3.0
 40
3.0
290
     1
  0
SCALE
  5
43
102
{ACAD_REACTORS
330
42
102
}
330
42
100
AcDbScale
 70
     0
300
1:1
140
1.0
141
1.0
290
     1
  0
SCALE
  5
44
102
{ACAD_REACTORS
330
42
102
}
330
42
100
AcDbScale
 70
     0
300
1/128" = 1'-0"
140
0.0078125
141
12.0
290
     0
  0
SCALE
  5
45
102
{ACAD_REACTORS
330
42
102
}
330
42
100
AcDbScale
 70
     0
300
1/64" = 1'-0"
140
0.015625
141
12.0
290
     0
  0
SCALE
  5
46
102
{ACAD_REACTORS
330
42
102
}
330
42
100
AcDbScale
 70
     0
300
1/32" = 1'-0"
140
0.03125
141
12.0
290
     0
  0
SCALE
  5
47
102
{ACAD_REACTORS
330
42
102
}
330
42
100
AcDbScale
 70
     0
300
1/16" = 1'-0"
140
0.0625
141
12.0
290
     0
  0
SCALE
  5
48
102
{ACAD_REACTORS
330
42
102
}
330
42
100
AcDbScale
 70
     0
300
3/32" = 1'-0"
140
0.09375
141
12.0
290
     0
  0
SCALE
  5
49
102
{ACAD_REACTORS
330
42
102
}
330
42
100
AcDbScale
 70
     0
300
1/8" = 1'-0"
140
0.125
141
12.0
290
     0
  0
SCALE
  5
4A
102
{ACAD_REACTORS
330
42
102
}
330
42
100
AcDbScale
 70
     0
300
3/16" = 1'-0"
140
0.1875
141
12.0
290
     0
  0
SCALE
  5
4B
102
{ACAD_REACTORS
330
42
102
}
330
42
100
AcDbScale
 70
     0
300
1/4" = 1'-0"
140
0.25
141
12.0
290
     0
  0
SCALE
  5
4C
102
{ACAD_REACTORS
330
42
102
}
330
42
100
AcDbScale
 70
     0
300
3/8" = 1'-0"
140
0.375
141
12.0
290
     0
  0
SCALE
  5
4D
102
{ACAD_REACTORS
330
42
102
}
330
42
100
AcDbScale
 70
     0
300
1/2" = 1'-0"
140
0.5
141
12.0
290
     0
  0
SCALE
  5
4E
102
{ACAD_REACTORS
330
42
102
}
330
42
100
AcDbScale
 70
     0
300
3/4" = 1'-0"
140
0.75
141
12.0
290
     0
  0
SCALE
  5
4F
102
{ACAD_REACTORS
330
42
102
}
330
42
100
AcDbScale
 70
     0
300
1" = 1'-0"
140
1.0
141
12.0
290
     0
  0
SCALE
  5
50
102
{ACAD_REACTORS
330
42
102
}
330
42
100
AcDbScale
 70
     0
300
1-1/2" = 1'-0"
140
1.5
141
12.0
290
     0
  0
SCALE
  5
51
102
{ACAD_REACTORS
330
42
102
}
330
42
100
AcDbScale
 70
     0
300
3" = 1'-0"
140
3.0
141
12.0
290
     0
  0
SCALE
  5
52
102
{ACAD_REACTORS
330
42
102
}
330
42
100
AcDbScale
 70
     0
300
6" = 1'-0"
140
6.0
141
12.0
290
     0
  0
SCALE
  5
53
102
{ACAD_REACTORS
330
42
102
}
330
42
100
AcDbScale
 70
     0
300
1'-0" = 1'-0"
140
12.0
141
12.0
290
     0
  0
ACDBSECTIONVIEWSTYLE
  5
69
102
{ACAD_REACTORS
330
68
102
}
330
68
100
AcDbModelDocViewStyle
 70
     0
  3
Imperial24
290
     1
300
Imperial24
 90
        0
100
AcDbSectionViewStyle
 70
     0
 71
     0
 90
       78
 71
     1
340
55
 62
   256
 40
0.24
340
0
340
0
 62
   256
 40
0.24
300
I, O, Q, S, X, Z
 40
0.48
 90
        3
 40
0.18
 90
        1
 71
     2
340
5D
 90
       25
 62
   256
340
5D
 90
       50
 62
   256
 40
0.24
 40
0.0
 40
0.24
 71
     3
340
55
 62
   256
 40
0.24
 90
        1
 40
0.75
 90
        1
300
%<\AcVar ViewType \f "%tc1">% %<\AcVar ViewSectionStartId>%-%<\AcVar ViewSectionEndId>%\PSCALE %<\AcVar ViewScale \f "%sn">%
 71
     4
 62
   256
 62
   257
300
ANSI31
 40
1.0
 90
        0
290
     0
290
     0
 90
        6
 40
0.0
 40
1.570796326794896
 40
0.2617993877991494
 40
1.308996938995747
 40
-0.2617993877991494
 40
1.832595714594046
  0
ACDBSECTIONVIEWSTYLE
  5
330
102
{ACAD_REACTORS
330
68
102
}
330
68
100
AcDbModelDocViewStyle
 70
     0
  3
Metric50
290
     1
300
Metric50
 90
        0
100
AcDbSectionViewStyle
 70
     0
 71
     0
 90
      102
 71
     1
340
55
 62
   256
 40
5.0
340
0
340
0
 62
   256
 40
5.0
300
I, O, Q, S, X, Z
 40
10.0
 90
        0
 40
2.5
 90
        0
 71
     2
340
5D
 90
       25
 62
   256
340
5D
 90
       50
 62
   256
 40
5.0
 40
2.5
 40
5.0
 71
     3
340
55
 62
   256
 40
5.0
 90
        0
 40
15.0
 90
        1
300
%<\AcVar ViewSectionStartId>%-%<\AcVar ViewSectionEndId>% (%<\AcVar ViewScale \f "%sn">%)
 71
     4
 62
   256
 62
   257
300
ANSI31
 40
1.0
 90
        0
290
     0
290
     0
 90
        6
 40
0.0
 40
1.570796326794896
 40
0.2617993877991494
 40
1.308996938995747
 40
-0.2617993877991494
 40
1.832595714594046
  0
TABLESTYLE
  5
65
102
{ACAD_XDICTIONARY
360
3F3
102
}
102
{ACAD_REACTORS
330
64
102
}
330
64
100
AcDbTableStyle
280
     0
  3
Standard
 70
     0
 71
     0
 40
0.06
 41
0.06
280
     0
281
     0
  7
Standard
140
0.18
170
     2
 62
     0
 63
     7
283
     0
 90
      512
 91
        0
  1

274
    -2
284
     1
 64
     0
275
    -2
285
     1
 65
     0
276
    -2
286
     1
 66
     0
277
    -2
287
     1
 67
     0
278
    -2
288
     1
 68
     0
279
    -2
289
     1
 69
     0
  7
Standard
140
0.25
170
     5
 62
     0
 63
     7
283
     0
 90
      512
 91
        0
  1

274
    -2
284
     1
 64
     0
275
    -2
285
     1
 65
     0
276
    -2
286
     1
 66
     0
277
    -2
287
     1
 67
     0
278
    -2
288
     1
 68
     0
279
    -2
289
     1
 69
     0
  7
Standard
140
0.18
170
     5
 62
     0
 63
     7
283
     0
 90
      512
 91
        0
  1

274
    -2
284
     1
 64
     0
275
    -2
285
     1
 65
     0
276
    -2
286
     1
 66
     0
277
    -2
287
     1
 67
     0
278
    -2
288
     1
 68
     0
279
    -2
289
     1
 69
     0
  0
VISUALSTYLE
  5
2F
102
{ACAD_REACTORS
330
29
102
}
330
29
100
AcDbVisualStyle
  2
2dWireframe
 70
     4
177
     3
291
     0
 70
    58
 90
        0
176
     1
 90
        2
176
     1
 90
        0
176
     1
 90
        0
176
     1
 40
0.6
176
     1
 40
30.0
176
     1
 62
     7
420
 16777215
176
     1
 90
        1
176
     1
 90
        4
176
     1
 62
     7
176
     1
 62
   257
176
     1
 90
        1
176
     1
 90
        1
176
     1
 40
1.0
176
     1
 90
        0
176
     1
 62
   257
176
     1
 40
1.0
176
     1
 90
        1
176
     1
 90
        6
176
     1
 90
        2
176
     1
 62
     7
176
     1
 90
        5
176
     1
 90
        0
176
     1
 90
        0
176
     1
290
     0
176
     1
 90
        1
176
     1
 40
0.0
176
     1
 90
        0
176
     1
290
     1
176
     1
290
     1
176
     1
290
     0
176
     1
290
     0
176
     1
290
     0
176
     1
290
     0
176
     1
290
     0
176
     1
290
     0
176
     1
290
     0
176
     1
 90
       50
176
     1
 40
0.0
176
     1
 40
1.0
176
     1
 90
        0
176
     1
 62
    18
420
        0
176
     1
 90
       50
176
     1
 90
        3
176
     1
 62
     5
420
      255
176
     1
290
     0
176
     1
 90
       50
176
     1
 90
       50
176
     1
 90
       50
176
     1
290
     0
176
     1
 90
       50
176
     1
 62
   256
176
     0
 40
1.0
176
     0
 90
        2
176
     1
  1
strokes_ogs.tif
176
     1
290
     0
176
     1
 40
1.0
176
     1
 40
1.0
176
     1
  0
VISUALSTYLE
  5
2E
102
{ACAD_REACTORS
330
29
102
}
330
29
100
AcDbVisualStyle
  2
Basic
 70
     7
177
     3
291
     1
 70
    58
 90
        1
176
     1
 90
        0
176
     1
 90
        1
176
     1
 90
        0
176
     1
 40
0.6
176
     1
 40
30.0
176
     1
 62
     7
420
 16777215
176
     1
 90
        0
176
     1
 90
        4
176
     1
 62
     7
176
     1
 62
   257
176
     1
 90
        1
176
     1
 90
        1
176
     1
 40
1.0
176
     1
 90
        8
176
     1
 62
     7
176
     1
 40
1.0
176
     1
 90
        1
176
     1
 90
        6
176
     1
 90
        2
176
     1
 62
     7
176
     1
 90
        5
176
     1
 90
        0
176
     1
 90
        0
176
     1
290
     0
176
     1
 90
        1
176
     1
 40
0.0
176
     1
 90
        0
176
     1
290
     0
176
     1
290
     1
176
     1
290
     1
176
     1
290
     0
176
     1
290
     0
176
     1
290
     0
176
     1
290
     0
176
     1
290
     0
176
     1
290
     0
176
     1
 90
       50
176
     1
 40
0.0
176
     1
 40
1.0
176
     1
 90
        0
176
     1
 62
    18
420
        0
176
     1
 90
       50
176
     1
 90
        3
176
     1
 62
     5
420
      255
176
     1
290
     0
176
     1
 90
       50
176
     1
 90
       50
176
     1
 90
       50
176
     1
290
     0
176
     1
 90
       50
176
     1
 62
   256
176
     0
 40
1.0
176
     0
 90
        2
176
     1
  1
strokes_ogs.tif
176
     1
290
     0
176
     1
 40
1.0
176
     1
 40
1.0
176
     1
  0
VISUALSTYLE
  5
35
102
{ACAD_REACTORS
330
29
102
}
330
29
100
AcDbVisualStyle
  2
Brighten
 70
    12
177
     3
291
     1
 70
    58
 90
        2
176
     1
 90
        2
176
     1
 90
        0
176
     1
 90
        0
176
     1
 40
0.6
176
     1
 40
30.0
176
     1
 62
     7
420
 16777215
176
     1
 90
        1
176
     1
 90
        4
176
     1
 62
     7
176
     1
 62
   257
176
     1
 90
        1
176
     1
 90
        1
176
     1
 40
1.0
176
     1
 90
        8
176
     1
 62
     7
176
     1
 40
1.0
176
     1
 90
        1
176
     1
 90
        6
176
     1
 90
        2
176
     1
 62
     7
176
     1
 90
        5
176
     1
 90
        0
176
     1
 90
        0
176
     1
290
     0
176
     1
 90
        1
176
     1
 40
50.0
176
     1
 90
        0
176
     1
290
     0
176
     1
290
     1
176
     1
290
     1
176
     1
290
     0
176
     1
290
     0
176
     1
290
     0
176
     1
290
     0
176
     1
290
     0
176
     1
290
     0
176
     1
 90
       50
176
     1
 40
0.0
176
     1
 40
1.0
176
     1
 90
        0
176
     1
 62
    18
420
        0
176
     1
 90
       50
176
     1
 90
        3
176
     1
 62
     5
420
      255
176
     1
290
     0
176
     1
 90
       50
176
     1
 90
       50
176
     1
 90
       50
176
     1
290
     0
176
     1
 90
       50
176
     1
 62
   256
176
     0
 40
1.0
176
     0
 90
        2
176
     1
  1
strokes_ogs.tif
176
     1
290
     0
176
     1
 40
1.0
176
     1
 40
1.0
176
     1
  0
VISUALSTYLE
  5
39
102
{ACAD_REACTORS
330
29
102
}
330
29
100
AcDbVisualStyle
  2
ColorChange
 70
    16
177
     3
291
     1
 70
    58
 90
        2
176
     1
 90
        2
176
     1
 90
        3
176
     1
 90
        0
176
     1
 40
0.6
176
     1
 40
30.0
176
     1
 62
     8
420
  8421504
176
     1
 90
        1
176
     1
 90
        4
176
     1
 62
     7
176
     1
 62
   257
176
     1
 90
        1
176
     1
 90
        1
176
     1
 40
1.0
176
     1
 90
        8
176
     1
 62
     8
420
  8421504
176
     1
 40
1.0
176
     1
 90
        1
176
     1
 90
        6
176
     1
 90
        2
176
     1
 62
     7
176
     1
 90
        5
176
     1
 90
        0
176
     1
 90
        0
176
     1
290
     0
176
     1
 90
        1
176
     1
 40
0.0
176
     1
 90
        0
176
     1
290
     0
176
     1
290
     1
176
     1
290
     1
176
     1
290
     0
176
     1
290
     0
176
     1
290
     0
176
     1
290
     0
176
     1
290
     0
176
     1
290
     0
176
     1
 90
       50
176
     1
 40
0.0
176
     1
 40
1.0
176
     1
 90
        0
176
     1
 62
    18
420
        0
176
     1
 90
       50
176
     1
 90
        3
176
     1
 62
     5
420
      255
176
     1
290
     0
176
     1
 90
       50
176
     1
 90
       50
176
     1
 90
       50
176
     1
290
     0
176
     1
 90
       50
176
     1
 62
   256
176
     0
 40
1.0
176
     0
 90
        2
176
     1
  1
strokes_ogs.tif
176
     1
290
     0
176
     1
 40
1.0
176
     1
 40
1.0
176
     1
  0
VISUALSTYLE
  5
32
102
{ACAD_REACTORS
330
29
102
}
330
29
100
AcDbVisualStyle
  2
Conceptual
 70
     9
177
     3
291
     0
 70
    58
 90
        3
176
     1
 90
        2
176
     1
 90
        0
176
     1
 90
        0
176
     1
 40
0.6
176
     1
 40
30.0
176
     1
 62
     7
420
 16777215
176
     1
 90
        2
176
     1
 90
        2
176
     1
 62
     7
176
     1
 62
   257
176
     1
 90
        1
176
     1
 90
        1
176
     1
 40
179.0
176
     1
 90
        8
176
     1
 62
     7
176
     1
 40
1.0
176
     1
 90
        1
176
     1
 90
        6
176
     1
 90
        2
176
     1
 62
     7
176
     1
 90
        3
176
     1
 90
        0
176
     1
 90
        0
176
     1
290
     0
176
     1
 90
        1
176
     1
 40
0.0
176
     1
 90
        0
176
     1
290
     0
176
     1
290
     1
176
     1
290
     1
176
     1
290
     0
176
     1
290
     0
176
     1
290
     0
176
     1
290
     0
176
     1
290
     0
176
     1
290
     0
176
     1
 90
       50
176
     1
 40
0.0
176
     1
 40
1.0
176
     1
 90
        0
176
     1
 62
    18
420
        0
176
     1
 90
       50
176
     1
 90
        3
176
     1
 62
     5
420
      255
176
     1
290
     0
176
     1
 90
       50
176
     1
 90
       50
176
     1
 90
       50
176
     1
290
     0
176
     1
 90
       50
176
     1
 62
   256
176
     0
 40
1.0
176
     0
 90
        2
176
     1
  1
strokes_ogs.tif
176
     1
290
     0
176
     1
 40
1.0
176
     1
 40
1.0
176
     1
  0
VISUALSTYLE
  5
34
102
{ACAD_REACTORS
330
29
102
}
330
29
100
AcDbVisualStyle
  2
Dim
 70
    11
177
     3
291
     1
 70
    58
 90
        2
176
     1
 90
        2
176
     1
 90
        0
176
     1
 90
        0
176
     1
 40
0.6
176
     1
 40
30.0
176
     1
 62
     7
420
 16777215
176
     1
 90
        1
176
     1
 90
        4
176
     1
 62
     7
176
     1
 62
   257
176
     1
 90
        1
176
     1
 90
        1
176
     1
 40
1.0
176
     1
 90
        8
176
     1
 62
     7
176
     1
 40
1.0
176
     1
 90
        1
176
     1
 90
        6
176
     1
 90
        2
176
     1
 62
     7
176
     1
 90
        5
176
     1
 90
        0
176
     1
 90
        0
176
     1
290
     0
176
     1
 90
        1
176
     1
 40
-50.0
176
     1
 90
        0
176
     1
290
     0
176
     1
290
     1
176
     1
290
     1
176
     1
290
     0
176
     1
290
     0
176
     1
290
     0
176
     1
290
     0
176
     1
290
     0
176
     1
290
     0
176
     1
 90
       50
176
     1
 40
0.0
176
     1
 40
1.0
176
     1
 90
        0
176
     1
 62
    18
420
        0
176
     1
 90
       50
176
     1
 90
        3
176
     1
 62
     5
420
      255
176
     1
290
     0
176
     1
 90
       50
176
     1
 90
       50
176
     1
 90
       50
176
     1
290
     0
176
     1
 90
       50
176
     1
 62
   256
176
     0
 40
1.0
176
     0
 90
        2
176
     1
  1
strokes_ogs.tif
176
     1
290
     0
176
     1
 40
1.0
176
     1
 40
1.0
176
     1
  0
VISUALSTYLE
  5
41
102
{ACAD_REACTORS
330
29
102
}
330
29
100
AcDbVisualStyle
  2
EdgeColorOff
 70
    22
177
     3
291
     1
 70
    58
 90
        2
176
     0
 90
        2
176
     0
 90
        0
176
     0
 90
        0
176
     0
 40
0.6
176
     0
 40
30.0
176
     0
 62
     7
420
 16777215
176
     0
 90
        1
176
     0
 90
        4
176
     0
 62
     7
176
     0
 62
   257
176
     0
 90
        1
176
     0
 90
        1
176
     0
 40
1.0
176
     0
 90
        8
176
     2
 62
     7
176
     0
 40
1.0
176
     0
 90
        1
176
     0
 90
        6
176
     0
 90
        2
176
     0
 62
     7
176
     0
 90
        5
176
     0
 90
        0
176
     0
 90
        0
176
     0
290
     0
176
     0
 90
        1
176
     0
 40
0.0
176
     0
 90
        0
176
     0
290
     0
176
     0
290
     1
176
     0
290
     1
176
     0
290
     0
176
     0
290
     0
176
     0
290
     0
176
     0
290
     0
176
     0
290
     0
176
     0
290
     0
176
     0
 90
       50
176
     0
 40
0.0
176
     0
 40
1.0
176
     0
 90
        0
176
     0
 62
    18
420
        0
176
     0
 90
       50
176
     0
 90
        3
176
     0
 62
     5
420
      255
176
     0
290
     0
176
     0
 90
       50
176
     0
 90
       50
176
     0
 90
       50
176
     0
290
     0
176
     0
 90
       50
176
     0
 62
   256
176
     0
 40
1.0
176
     0
 90
        2
176
     0
  1
strokes_ogs.tif
176
     0
290
     0
176
     0
 40
1.0
176
     0
 40
1.0
176
     0
  0
VISUALSTYLE
  5
38
102
{ACAD_REACTORS
330
29
102
}
330
29
100
AcDbVisualStyle
  2
Facepattern
 70
    15
177
     3
291
     1
 70
    58
 90
        2
176
     1
 90
        2
176
     1
 90
        0
176
     1
 90
        0
176
     1
 40
0.6
176
     1
 40
30.0
176
     1
 62
     7
420
 16777215
176
     1
 90
        1
176
     1
 90
        4
176
     1
 62
     7
176
     1
 62
   257
176
     1
 90
        1
176
     1
 90
        1
176
     1
 40
1.0
176
     1
 90
        8
176
     1
 62
     7
176
     1
 40
1.0
176
     1
 90
        1
176
     1
 90
        6
176
     1
 90
        2
176
     1
 62
     7
176
     1
 90
        5
176
     1
 90
        0
176
     1
 90
        0
176
     1
290
     0
176
     1
 90
        1
176
     1
 40
0.0
176
     1
 90
        0
176
     1
290
     0
176
     1
290
     1
176
     1
290
     1
176
     1
290
     0
176
     1
290
     0
176
     1
290
     0
176
     1
290
     0
176
     1
290
     0
176
     1
290
     0
176
     1
 90
       50
176
     1
 40
0.0
176
     1
 40
1.0
176
     1
 90
        0
176
     1
 62
    18
420
        0
176
     1
 90
       50
176
     1
 90
        3
176
     1
 62
     5
420
      255
176
     1
290
     0
176
     1
 90
       50
176
     1
 90
       50
176
     1
 90
       50
176
     1
290
     0
176
     1
 90
       50
176
     1
 62
   256
176
     0
 40
1.0
176
     0
 90
        2
176
     1
  1
strokes_ogs.tif
176
     1
290
     0
176
     1
 40
1.0
176
     1
 40
1.0
176
     1
  0
VISUALSTYLE
  5
2A
102
{ACAD_REACTORS
330
29
102
}
330
29
100
AcDbVisualStyle
  2
Flat
 70
     0
177
     3
291
     1
 70
    58
 90
        2
176
     1
 90
        1
176
     1
 90
        1
176
     1
 90
        2
176
     1
 40
0.6
176
     1
 40
30.0
176
     1
 62
     7
420
 16777215
176
     1
 90
        0
176
     1
 90
        0
176
     1
 62
     7
176
     1
 62
   257
176
     1
 90
        1
176
     1
 90
        1
176
     1
 40
1.0
176
     1
 90
        8
176
     1
 62
     7
176
     1
 40
1.0
176
     1
 90
        1
176
     1
 90
        6
176
     1
 90
        2
176
     1
 62
     7
176
     1
 90
        5
176
     1
 90
        0
176
     1
 90
        0
176
     1
290
     0
176
     1
 90
       13
176
     1
 40
0.0
176
     1
 90
        0
176
     1
290
     0
176
     1
290
     1
176
     1
290
     1
176
     1
290
     0
176
     1
290
     0
176
     1
290
     0
176
     1
290
     0
176
     1
290
     0
176
     1
290
     0
176
     1
 90
       50
176
     1
 40
0.0
176
     1
 40
1.0
176
     1
 90
        0
176
     1
 62
    18
420
        0
176
     1
 90
       50
176
     1
 90
        3
176
     1
 62
     5
420
      255
176
     1
290
     0
176
     1
 90
       50
176
     1
 90
       50
176
     1
 90
       50
176
     1
290
     0
176
     1
 90
       50
176
     1
 62
   256
176
     0
 40
1.0
176
     0
 90
        2
176
     1
  1
strokes_ogs.tif
176
     1
290
     0
176
     1
 40
1.0
176
     1
 40
1.0
176
     1
  0
VISUALSTYLE
  5
2B
102
{ACAD_REACTORS
330
29
102
}
330
29
100
AcDbVisualStyle
  2
FlatWithEdges
 70
     1
177
     3
291
     1
 70
    58
 90
        2
176
     1
 90
        1
176
     1
 90
        1
176
     1
 90
        2
176
     1
 40
0.6
176
     1
 40
30.0
176
     1
 62
     7
420
 16777215
176
     1
 90
        1
176
     1
 90
        0
176
     1
 62
     7
176
     1
 62
   257
176
     1
 90
        1
176
     1
 90
        1
176
     1
 40
1.0
176
     1
 90
        0
176
     1
 62
   257
176
     1
 40
1.0
176
     1
 90
        1
176
     1
 90
        6
176
     1
 90
        2
176
     1
 62
     7
176
     1
 90
        5
176
     1
 90
        0
176
     1
 90
        0
176
     1
290
     0
176
     1
 90
       13
176
     1
 40
0.0
176
     1
 90
        0
176
     1
290
     0
176
     1
290
     1
176
     1
290
     1
176
     1
290
     0
176
     1
290
     0
176
     1
290
     0
176
     1
290
     0
176
     1
290
     0
176
     1
290
     0
176
     1
 90
       50
176
     1
 40
0.0
176
     1
 40
1.0
176
     1
 90
        0
176
     1
 62
    18
420
        0
176
     1
 90
       50
176
     1
 90
        3
176
     1
 62
     5
420
      255
176
     1
290
     0
176
     1
 90
       50
176
     1
 90
       50
176
     1
 90
       50
176
     1
290
     0
176
     1
 90
       50
176
     1
 62
   256
176
     0
 40
1.0
176
     0
 90
        2
176
     1
  1
strokes_ogs.tif
176
     1
290
     0
176
     1
 40
1.0
176
     1
 40
1.0
176
     1
  0
VISUALSTYLE
  5
2C
102
{ACAD_REACTORS
330
29
102
}
330
29
100
AcDbVisualStyle
  2
Gouraud
 70
     2
177
     3
291
     1
 70
    58
 90
        2
176
     1
 90
        2
176
     1
 90
        1
176
     1
 90
        2
176
     1
 40
0.6
176
     1
 40
30.0
176
     1
 62
     7
420
 16777215
176
     1
 90
        0
176
     1
 90
        0
176
     1
 62
     7
176
     1
 62
   257
176
     1
 90
        1
176
     1
 90
        1
176
     1
 40
1.0
176
     1
 90
        0
176
     1
 62
     7
176
     1
 40
1.0
176
     1
 90
        1
176
     1
 90
        6
176
     1
 90
        2
176
     1
 62
     7
176
     1
 90
        5
176
     1
 90
        0
176
     1
 90
        0
176
     1
290
     0
176
     1
 90
       13
176
     1
 40
0.0
176
     1
 90
        0
176
     1
290
     0
176
     1
290
     1
176
     1
290
     1
176
     1
290
     0
176
     1
290
     0
176
     1
290
     0
176
     1
290
     0
176
     1
290
     0
176
     1
290
     0
176
     1
 90
       50
176
     1
 40
0.0
176
     1
 40
1.0
176
     1
 90
        0
176
     1
 62
    18
420
        0
176
     1
 90
       50
176
     1
 90
        3
176
     1
 62
     5
420
      255
176
     1
290
     0
176
     1
 90
       50
176
     1
 90
       50
176
     1
 90
       50
176
     1
290
     0
176
     1
 90
       50
176
     1
 62
   256
176
     0
 40
1.0
176
     0
 90
        2
176
     1
  1
strokes_ogs.tif
176
     1
290
     0
176
     1
 40
1.0
176
     1
 40
1.0
176
     1
  0
VISUALSTYLE
  5
2D
102
{ACAD_REACTORS
330
29
102
}
330
29
100
AcDbVisualStyle
  2
GouraudWithEdges
 70
     3
177
     3
291
     1
 70
    58
 90
        2
176
     1
 90
        2
176
     1
 90
        1
176
     1
 90
        2
176
     1
 40
0.6
176
     1
 40
30.0
176
     1
 62
     7
420
 16777215
176
     1
 90
        1
176
     1
 90
        0
176
     1
 62
     7
176
     1
 62
   257
176
     1
 90
        1
176
     1
 90
        1
176
     1
 40
1.0
176
     1
 90
        0
176
     1
 62
   257
176
     1
 40
1.0
176
     1
 90
        1
176
     1
 90
        6
176
     1
 90
        2
176
     1
 62
     7
176
     1
 90
        5
176
     1
 90
        0
176
     1
 90
        0
176
     1
290
     0
176
     1
 90
       13
176
     1
 40
0.0
176
     1
 90
        0
176
     1
290
     0
176
     1
290
     1
176
     1
290
     1
176
     1
290
     0
176
     1
290
     0
176
     1
290
     0
176
     1
290
     0
176
     1
290
     0
176
     1
290
     0
176
     1
 90
       50
176
     1
 40
0.0
176
     1
 40
1.0
176
     1
 90
        0
176
     1
 62
    18
420
        0
176
     1
 90
       50
176
     1
 90
        3
176
     1
 62
     5
420
      255
176
     1
290
     0
176
     1
 90
       50
176
     1
 90
       50
176
     1
 90
       50
176
     1
290
     0
176
     1
 90
       50
176
     1
 62
   256
176
     0
 40
1.0
176
     0
 90
        2
176
     1
  1
strokes_ogs.tif
176
     1
290
     0
176
     1
 40
1.0
176
     1
 40
1.0
176
     1
  0
VISUALSTYLE
  5
31
102
{ACAD_REACTORS
330
29
102
}
330
29
100
AcDbVisualStyle
  2
Hidden
 70
     6
177
     3
291
     0
 70
    58
 90
        1
176
     1
 90
        2
176
     1
 90
        2
176
     1
 90
        0
176
     1
 40
0.6
176
     1
 40
30.0
176
     1
 62
     7
420
 16777215
176
     1
 90
        2
176
     1
 90
        2
176
     1
 62
     7
176
     1
 62
   257
176
     1
 90
        2
176
     1
 90
        1
176
     1
 40
40.0
176
     1
 90
        0
176
     1
 62
   257
176
     1
 40
1.0
176
     1
 90
        1
176
     1
 90
        6
176
     1
 90
        2
176
     1
 62
     7
176
     1
 90
        3
176
     1
 90
        0
176
     1
 90
        0
176
     1
290
     0
176
     1
 90
        1
176
     1
 40
0.0
176
     1
 90
        0
176
     1
290
     0
176
     1
290
     1
176
     1
290
     1
176
     1
290
     0
176
     1
290
     0
176
     1
290
     0
176
     1
290
     0
176
     1
290
     0
176
     1
290
     0
176
     1
 90
       50
176
     1
 40
0.0
176
     1
 40
1.0
176
     1
 90
        0
176
     1
 62
    18
420
        0
176
     1
 90
       50
176
     1
 90
        3
176
     1
 62
     5
420
      255
176
     1
290
     0
176
     1
 90
       50
176
     1
 90
       50
176
     1
 90
       50
176
     1
290
     0
176
     1
 90
       50
176
     1
 62
   256
176
     0
 40
1.0
176
     0
 90
        2
176
     1
  1
strokes_ogs.tif
176
     1
290
     0
176
     1
 40
1.0
176
     1
 40
1.0
176
     1
  0
VISUALSTYLE
  5
3F
102
{ACAD_REACTORS
330
29
102
}
330
29
100
AcDbVisualStyle
  2
JitterOff
 70
    20
177
     3
291
     1
 70
    58
 90
        2
176
     0
 90
        2
176
     0
 90
        0
176
     0
 90
        0
176
     0
 40
0.6
176
     0
 40
30.0
176
     0
 62
     7
420
 16777215
176
     0
 90
        1
176
     0
 90
        4
176
     0
 62
     7
176
     0
 62
   257
176
     0
 90
        1
176
     0
 90
        1
176
     0
 40
1.0
176
     0
 90
       10
176
     2
 62
     7
176
     0
 40
1.0
176
     0
 90
        1
176
     0
 90
        6
176
     0
 90
        2
176
     0
 62
     7
176
     0
 90
        5
176
     0
 90
        0
176
     0
 90
        0
176
     0
290
     0
176
     0
 90
        1
176
     0
 40
0.0
176
     0
 90
        0
176
     0
290
     0
176
     0
290
     1
176
     0
290
     1
176
     0
290
     0
176
     0
290
     0
176
     0
290
     0
176
     0
290
     0
176
     0
290
     0
176
     0
290
     0
176
     0
 90
       50
176
     0
 40
0.0
176
     0
 40
1.0
176
     0
 90
        0
176
     0
 62
    18
420
        0
176
     0
 90
       50
176
     0
 90
        3
176
     0
 62
     5
420
      255
176
     0
290
     0
176
     0
 90
       50
176
     0
 90
       50
176
     0
 90
       50
176
     0
290
     0
176
     0
 90
       50
176
     0
 62
   256
176
     0
 40
1.0
176
     0
 90
        2
176
     0
  1
strokes_ogs.tif
176
     0
290
     0
176
     0
 40
1.0
176
     0
 40
1.0
176
     0
  0
VISUALSTYLE
  5
37
102
{ACAD_REACTORS
330
29
102
}
330
29
100
AcDbVisualStyle
  2
Linepattern
 70
    14
177
     3
291
     1
 70
    58
 90
        2
176
     1
 90
        2
176
     1
 90
        0
176
     1
 90
        0
176
     1
 40
0.6
176
     1
 40
30.0
176
     1
 62
     7
420
 16777215
176
     1
 90
        1
176
     1
 90
        4
176
     1
 62
     7
176
     1
 62
   257
176
     1
 90
        7
176
     1
 90
        7
176
     1
 40
1.0
176
     1
 90
        8
176
     1
 62
     7
176
     1
 40
1.0
176
     1
 90
        1
176
     1
 90
        6
176
     1
 90
        2
176
     1
 62
     7
176
     1
 90
        5
176
     1
 90
        0
176
     1
 90
        0
176
     1
290
     0
176
     1
 90
        1
176
     1
 40
0.0
176
     1
 90
        0
176
     1
290
     0
176
     1
290
     1
176
     1
290
     1
176
     1
290
     0
176
     1
290
     0
176
     1
290
     0
176
     1
290
     0
176
     1
290
     0
176
     1
290
     0
176
     1
 90
       50
176
     1
 40
0.0
176
     1
 40
1.0
176
     1
 90
        0
176
     1
 62
    18
420
        0
176
     1
 90
       50
176
     1
 90
        3
176
     1
 62
     5
420
      255
176
     1
290
     0
176
     1
 90
       50
176
     1
 90
       50
176
     1
 90
       50
176
     1
290
     0
176
     1
 90
       50
176
     1
 62
   256
176
     0
 40
1.0
176
     0
 90
        2
176
     1
  1
strokes_ogs.tif
176
     1
290
     0
176
     1
 40
1.0
176
     1
 40
1.0
176
     1
  0
VISUALSTYLE
  5
40
102
{ACAD_REACTORS
330
29
102
}
330
29
100
AcDbVisualStyle
  2
OverhangOff
 70
    21
177
     3
291
     1
 70
    58
 90
        2
176
     0
 90
        2
176
     0
 90
        0
176
     0
 90
        0
176
     0
 40
0.6
176
     0
 40
30.0
176
     0
 62
     7
420
 16777215
176
     0
 90
        1
176
     0
 90
        4
176
     0
 62
     7
176
     0
 62
   257
176
     0
 90
        1
176
     0
 90
        1
176
     0
 40
1.0
176
     0
 90
        9
176
     2
 62
     7
176
     0
 40
1.0
176
     0
 90
        1
176
     0
 90
        6
176
     0
 90
        2
176
     0
 62
     7
176
     0
 90
        5
176
     0
 90
        0
176
     0
 90
        0
176
     0
290
     0
176
     0
 90
        1
176
     0
 40
0.0
176
     0
 90
        0
176
     0
290
     0
176
     0
290
     1
176
     0
290
     1
176
     0
290
     0
176
     0
290
     0
176
     0
290
     0
176
     0
290
     0
176
     0
290
     0
176
     0
290
     0
176
     0
 90
       50
176
     0
 40
0.0
176
     0
 40
1.0
176
     0
 90
        0
176
     0
 62
    18
420
        0
176
     0
 90
       50
176
     0
 90
        3
176
     0
 62
     5
420
      255
176
     0
290
     0
176
     0
 90
       50
176
     0
 90
       50
176
     0
 90
       50
176
     0
290
     0
176
     0
 90
       50
176
     0
 62
   256
176
     0
 40
1.0
176
     0
 90
        2
176
     0
  1
strokes_ogs.tif
176
     0
290
     0
176
     0
 40
1.0
176
     0
 40
1.0
176
     0
  0
VISUALSTYLE
  5
33
102
{ACAD_REACTORS
330
29
102
}
330
29
100
AcDbVisualStyle
  2
Realistic
 70
     8
177
     3
291
     0
 70
    58
 90
        2
176
     1
 90
        3
176
     1
 90
        0
176
     1
 90
        2
176
     1
 40
0.6
176
     1
 40
30.0
176
     1
 62
     7
420
 16777215
176
     1
 90
        0
176
     1
 90
        0
176
     1
 62
     7
176
     1
 62
   257
176
     1
 90
        1
176
     1
 90
        1
176
     1
 40
1.0
176
     1
 90
        8
176
     1
 62
   257
176
     1
 40
1.0
176
     1
 90
        1
176
     1
 90
        6
176
     1
 90
        2
176
     1
 62
     7
176
     1
 90
        3
176
     1
 90
        0
176
     1
 90
        0
176
     1
290
     0
176
     1
 90
       13
176
     1
 40
0.0
176
     1
 90
        0
176
     1
290
     0
176
     1
290
     1
176
     1
290
     1
176
     1
290
     0
176
     1
290
     0
176
     1
290
     0
176
     1
290
     0
176
     1
290
     0
176
     1
290
     0
176
     1
 90
       50
176
     1
 40
0.0
176
     1
 40
1.0
176
     1
 90
        0
176
     1
 62
    18
420
        0
176
     1
 90
       50
176
     1
 90
        3
176
     1
 62
     5
420
      255
176
     1
290
     0
176
     1
 90
       50
176
     1
 90
       50
176
     1
 90
       50
176
     1
290
     0
176
     1
 90
       50
176
     1
 62
   256
176
     0
 40
1.0
176
     0
 90
        2
176
     1
  1
strokes_ogs.tif
176
     1
290
     0
176
     1
 40
1.0
176
     1
 40
1.0
176
     1
  0
VISUALSTYLE
  5
3E
102
{ACAD_REACTORS
330
29
102
}
330
29
100
AcDbVisualStyle
  2
Shaded
 70
    27
177
     3
291
     0
 70
    58
 90
        2
176
     1
 90
        2
176
     1
 90
        1
176
     1
 90
        2
176
     1
 40
0.6
176
     1
 40
30.0
176
     1
 62
     7
420
 16777215
176
     1
 90
        0
176
     1
 90
        4
176
     1
 62
     7
176
     1
 62
   257
176
     1
 90
        1
176
     1
 90
        1
176
     1
 40
1.0
176
     1
 90
        8
176
     1
 62
   257
176
     1
 40
1.0
176
     1
 90
        1
176
     1
 90
        6
176
     1
 90
        2
176
     1
 62
     8
420
  7895160
176
     1
 90
        3
176
     1
 90
        0
176
     1
 90
        0
176
     1
290
     0
176
     1
 90
        5
176
     1
 40
0.0
176
     1
 90
        0
176
     1
290
     0
176
     1
290
     1
176
     1
290
     1
176
     1
290
     0
176
     1
290
     0
176
     1
290
     0
176
     1
290
     0
176
     1
290
     0
176
     1
290
     0
176
     1
 90
       50
176
     1
 40
0.0
176
     1
 40
1.0
176
     1
 90
        0
176
     1
 62
    18
420
        0
176
     1
 90
       50
176
     1
 90
        3
176
     1
 62
     5
420
      255
176
     1
290
     0
176
     1
 90
       50
176
     1
 90
       50
176
     1
 90
       50
176
     1
290
     0
176
     1
 90
       50
176
     1
 62
   256
176
     0
 40
1.0
176
     0
 90
        2
176
     1
  1
strokes_ogs.tif
176
     1
290
     0
176
     1
 40
1.0
176
     1
 40
1.0
176
     1
  0
VISUALSTYLE
  5
3D
102
{ACAD_REACTORS
330
29
102
}
330
29
100
AcDbVisualStyle
  2
Shaded with edges
 70
    26
177
     3
291
     0
 70
    58
 90
        2
176
     1
 90
        2
176
     1
 90
        1
176
     1
 90
        2
176
     1
 40
0.6
176
     1
 40
30.0
176
     1
 62
     7
420
 16777215
176
     1
 90
        1
176
     1
 90
        2
176
     1
 62
     7
176
     1
 62
   257
176
     1
 90
        2
176
     1
 90
        1
176
     1
 40
1.0
176
     1
 90
        8
176
     1
 62
   257
176
     1
 40
1.0
176
     1
 90
        1
176
     1
 90
        6
176
     1
 90
        2
176
     1
 62
     7
176
     1
 90
        3
176
     1
 90
        0
176
     1
 90
        0
176
     1
290
     0
176
     1
 90
        5
176
     1
 40
0.0
176
     1
 90
        0
176
     1
290
     0
176
     1
290
     1
176
     1
290
     1
176
     1
290
     0
176
     1
290
     0
176
     1
290
     0
176
     1
290
     0
176
     1
290
     0
176
     1
290
     0
176
     1
 90
       50
176
     1
 40
0.0
176
     1
 40
1.0
176
     1
 90
        0
176
     1
 62
    18
420
        0
176
     1
 90
       50
176
     1
 90
        3
176
     1
 62
     5
420
      255
176
     1
290
     0
176
     1
 90
       50
176
     1
 90
       50
176
     1
 90
       50
176
     1
290
     0
176
     1
 90
       50
176
     1
 62
   256
176
     0
 40
1.0
176
     0
 90
        2
176
     1
  1
strokes_ogs.tif
176
     1
290
     0
176
     1
 40
1.0
176
     1
 40
1.0
176
     1
  0
VISUALSTYLE
  5
3A
102
{ACAD_REACTORS
330
29
102
}
330
29
100
AcDbVisualStyle
  2
Shades of Gray
 70
    23
177
     3
291
     0
 70
    58
 90
        2
176
     1
 90
        2
176
     1
 90
        3
176
     1
 90
        0
176
     1
 40
0.6
176
     1
 40
30.0
176
     1
 62
     7
420
 16777215
176
     1
 90
        2
176
     1
 90
        2
176
     1
 62
     7
176
     1
 62
     7
176
     1
 90
        1
176
     1
 90
        1
176
     1
 40
40.0
176
     1
 90
        8
176
     1
 62
     7
176
     1
 40
1.0
176
     1
 90
        1
176
     1
 90
        6
176
     1
 90
        2
176
     1
 62
     7
176
     1
 90
        3
176
     1
 90
        0
176
     1
 90
        0
176
     1
290
     0
176
     1
 90
        1
176
     1
 40
0.0
176
     1
 90
        0
176
     1
290
     0
176
     1
290
     1
176
     1
290
     1
176
     1
290
     0
176
     1
290
     0
176
     1
290
     0
176
     1
290
     0
176
     1
290
     0
176
     1
290
     0
176
     1
 90
       50
176
     1
 40
0.0
176
     1
 40
1.0
176
     1
 90
        0
176
     1
 62
    18
420
        0
176
     1
 90
       50
176
     1
 90
        3
176
     1
 62
     5
420
      255
176
     1
290
     0
176
     1
 90
       50
176
     1
 90
       50
176
     1
 90
       50
176
     1
290
     0
176
     1
 90
       50
176
     1
 62
   256
176
     0
 40
1.0
176
     0
 90
        2
176
     1
  1
strokes_ogs.tif
176
     1
290
     0
176
     1
 40
1.0
176
     1
 40
1.0
176
     1
  0
VISUALSTYLE
  5
3B
102
{ACAD_REACTORS
330
29
102
}
330
29
100
AcDbVisualStyle
  2
Sketchy
 70
    24
177
     3
291
     0
 70
    58
 90
        1
176
     1
 90
        2
176
     1
 90
        2
176
     1
 90
        0
176
     1
 40
0.6
176
     1
 40
30.0
176
     1
 62
     7
420
 16777215
176
     1
 90
        2
176
     1
 90
        2
176
     1
 62
     7
176
     1
 62
     7
176
     1
 90
        1
176
     1
 90
        1
176
     1
 40
40.0
176
     1
 90
       11
176
     1
 62
     7
176
     1
 40
1.0
176
     1
 90
        1
176
     1
 90
        6
176
     1
 90
        2
176
     1
 62
     7
176
     1
 90
        6
176
     1
 90
        0
176
     1
 90
        0
176
     1
290
     0
176
     1
 90
        1
176
     1
 40
0.0
176
     1
 90
        0
176
     1
290
     0
176
     1
290
     1
176
     1
290
     1
176
     1
290
     0
176
     1
290
     0
176
     1
290
     0
176
     1
290
     0
176
     1
290
     0
176
     1
290
     0
176
     1
 90
       50
176
     1
 40
0.0
176
     1
 40
1.0
176
     1
 90
        0
176
     1
 62
    18
420
        0
176
     1
 90
       50
176
     1
 90
        3
176
     1
 62
     5
420
      255
176
     1
290
     0
176
     1
 90
       50
176
     1
 90
       50
176
     1
 90
       50
176
     1
290
     0
176
     1
 90
       50
176
     1
 62
   256
176
     0
 40
1.0
176
     0
 90
        2
176
     1
  1
strokes_ogs.tif
176
     1
290
     0
176
     1
 40
1.0
176
     1
 40
1.0
176
     1
  0
VISUALSTYLE
  5
36
102
{ACAD_REACTORS
330
29
102
}
330
29
100
AcDbVisualStyle
  2
Thicken
 70
    13
177
     3
291
     1
 70
    58
 90
        2
176
     1
 90
        2
176
     1
 90
        0
176
     1
 90
        0
176
     1
 40
0.6
176
     1
 40
30.0
176
     1
 62
     7
420
 16777215
176
     1
 90
        1
176
     1
 90
        4
176
     1
 62
     7
176
     1
 62
   257
176
     1
 90
        1
176
     1
 90
        1
176
     1
 40
1.0
176
     1
 90
       12
176
     1
 62
     7
176
     1
 40
1.0
176
     1
 90
        1
176
     1
 90
        6
176
     1
 90
        2
176
     1
 62
     7
176
     1
 90
        5
176
     1
 90
        0
176
     1
 90
        0
176
     1
290
     0
176
     1
 90
        1
176
     1
 40
0.0
176
     1
 90
        0
176
     1
290
     0
176
     1
290
     1
176
     1
290
     1
176
     1
290
     0
176
     1
290
     0
176
     1
290
     0
176
     1
290
     0
176
     1
290
     0
176
     1
290
     0
176
     1
 90
       50
176
     1
 40
0.0
176
     1
 40
1.0
176
     1
 90
        0
176
     1
 62
    18
420
        0
176
     1
 90
       50
176
     1
 90
        3
176
     1
 62
     5
420
      255
176
     1
290
     0
176
     1
 90
       50
176
     1
 90
       50
176
     1
 90
       50
176
     1
290
     0
176
     1
 90
       50
176
     1
 62
   256
176
     0
 40
1.0
176
     0
 90
        2
176
     1
  1
strokes_ogs.tif
176
     1
290
     0
176
     1
 40
1.0
176
     1
 40
1.0
176
     1
  0
VISUALSTYLE
  5
30
102
{ACAD_REACTORS
330
29
102
}
330
29
100
AcDbVisualStyle
  2
Wireframe
 70
     5
177
     3
291
     0
 70
    58
 90
        0
176
     1
 90
        2
176
     1
 90
        0
176
     1
 90
        0
176
     1
 40
0.6
176
     1
 40
30.0
176
     1
 62
     7
420
 16777215
176
     1
 90
        1
176
     1
 90
        4
176
     1
 62
     7
176
     1
 62
   257
176
     1
 90
        1
176
     1
 90
        1
176
     1
 40
1.0
176
     1
 90
        0
176
     1
 62
   257
176
     1
 40
1.0
176
     1
 90
        1
176
     1
 90
        6
176
     1
 90
        2
176
     1
 62
     7
176
     1
 90
        3
176
     1
 90
        0
176
     1
 90
        0
176
     1
290
     0
176
     1
 90
        1
176
     1
 40
0.0
176
     1
 90
        0
176
     1
290
     0
176
     1
290
     1
176
     1
290
     1
176
     1
290
     0
176
     1
290
     0
176
     1
290
     0
176
     1
290
     0
176
     1
290
     0
176
     1
290
     0
176
     1
 90
       50
176
     1
 40
0.0
176
     1
 40
1.0
176
     1
 90
        0
176
     1
 62
    18
420
        0
176
     1
 90
       50
176
     1
 90
        3
176
     1
 62
     5
420
      255
176
     1
290
     0
176
     1
 90
       50
176
     1
 90
       50
176
     1
 90
       50
176
     1
290
     0
176
     1
 90
       50
176
     1
 62
   256
176
     0
 40
1.0
176
     0
 90
        2
176
     1
  1
strokes_ogs.tif
176
     1
290
     0
176
     1
 40
1.0
176
     1
 40
1.0
176
     1
  0
VISUALSTYLE
  5
3C
102
{ACAD_REACTORS
330
29
102
}
330
29
100
AcDbVisualStyle
  2
X-Ray
 70
    25
177
     3
291
     0
 70
    58
 90
        2
176
     1
 90
        2
176
     1
 90
        1
176
     1
 90
        1
176
     1
 40
0.5
176
     1
 40
30.0
176
     1
 62
     7
420
 16777215
176
     1
 90
        1
176
     1
 90
        0
176
     1
 62
     7
176
     1
 62
   257
176
     1
 90
        1
176
     1
 90
        1
176
     1
 40
1.0
176
     1
 90
        8
176
     1
 62
     7
176
     1
 40
1.0
176
     1
 90
        1
176
     1
 90
        6
176
     1
 90
        2
176
     1
 62
     7
176
     1
 90
        3
176
     1
 90
        0
176
     1
 90
        0
176
     1
290
     0
176
     1
 90
       13
176
     1
 40
0.0
176
     1
 90
        0
176
     1
290
     0
176
     1
290
     1
176
     1
290
     1
176
     1
290
     0
176
     1
290
     0
176
     1
290
     0
176
     1
290
     0
176
     1
290
     0
176
     1
290
     0
176
     1
 90
       50
176
     1
 40
0.0
176
     1
 40
1.0
176
     1
 90
        0
176
     1
 62
    18
420
        0
176
     1
 90
       50
176
     1
 90
        3
176
     1
 62
     5
420
      255
176
     1
290
     0
176
     1
 90
       50
176
     1
 90
       50
176
     1
 90
       50
176
     1
290
     0
176
     1
 90
       50
176
     1
 62
   256
176
     0
 40
1.0
176
     0
 90
        2
176
     1
  1
strokes_ogs.tif
176
     1
290
     0
176
     1
 40
1.0
176
     1
 40
1.0
176
     1
  0
DICTIONARYVAR
  5
32E
102
{ACAD_REACTORS
330
329
102
}
330
329
100
DictionaryVariables
280
     0
  1
1:1
  0
DICTIONARYVAR
  5
32B
102
{ACAD_REACTORS
330
329
102
}
330
329
100
DictionaryVariables
280
     0
  1
STANDARD
  0
DICTIONARYVAR
  5
32A
102
{ACAD_REACTORS
330
329
102
}
330
329
100
DictionaryVariables
280
     0
  1
STANDARD
  0
DICTIONARYVAR
  5
32C
102
{ACAD_REACTORS
330
329
102
}
330
329
100
DictionaryVariables
280
     0
  1
Imperial24
  0
DICTIONARYVAR
  5
32D
102
{ACAD_REACTORS
330
329
102
}
330
329
100
DictionaryVariables
280
     0
  1
Imperial24
  0
XRECORD
  5
325
102
{ACAD_REACTORS
330
321
102
}
330
321
100
AcDbXrecord
280
     1
  1
BUILDING_ID
  1
Fazenda Ingá, Acarí, Rio Grande do Norte
  1
FLOOR_ID
  1
22625747
  0
XRECORD
  5
323
102
{ACAD_REACTORS
330
321
102
}
330
321
100
AcDbXrecord
280
     1
  1
-2000051
  1
Linhas
  1
-2000280
  1
Blocos de margens e carimbo
  1
-2002000
  1
Itens de detalhe
  0
XRECORD
  5
324
102
{ACAD_REACTORS
330
321
102
}
330
321
100
AcDbXrecord
280
     1
  1
-2000042
  1
<Linhas finas>
  1
-2000281
  1
<Linhas finas>
  0
XRECORD
  5
322
102
{ACAD_REACTORS
330
321
102
}
330
321
100
AcDbXrecord
280
     1
  1
22627141
  1
A4 HORIZONTAL : A4
  1
383807
  1
Região preenchida : Marcenaria corte
  0
DICTIONARY
  5
1A
330
19
100
AcDbDictionary
280
     1
281
     1
  3
BUMPTILE
360
1C
  3
DIFFUSETILE
360
1B
  3
OPACITYTILE
360
1F
  3
REFLECTIONTILE
360
1E
  3
REFRACTIONTILE
360
20
  3
SPECULARTILE
360
1D
  0
DICTIONARY
  5
12
330
11
100
AcDbDictionary
280
     1
281
     1
  3
BUMPTILE
360
14
  3
DIFFUSETILE
360
13
  3
OPACITYTILE
360
17
  3
REFLECTIONTILE
360
16
  3
REFRACTIONTILE
360
18
  3
SPECULARTILE
360
15
  0
DICTIONARY
  5
22
330
21
100
AcDbDictionary
280
     1
281
     1
  3
BUMPTILE
360
24
  3
DIFFUSETILE
360
23
  3
OPACITYTILE
360
27
  3
REFLECTIONTILE
360
26
  3
REFRACTIONTILE
360
28
  3
SPECULARTILE
360
25
  0
DICTIONARY
  5
3F3
330
65
100
AcDbDictionary
280
     1
281
     1
  3
ACAD_ROUNDTRIP_2008_TABLESTYLE_CELLSTYLEMAP
360
3F4
  0
XRECORD
  5
1C
102
{ACAD_REACTORS
330
1A
102
}
330
1A
100
AcDbXrecord
280
     1
270
     1
271
     1
  0
XRECORD
  5
1B
102
{ACAD_REACTORS
330
1A
102
}
330
1A
100
AcDbXrecord
280
     1
270
     1
271
     1
  0
XRECORD
  5
1F
102
{ACAD_REACTORS
330
1A
102
}
330
1A
100
AcDbXrecord
280
     1
270
     1
271
     1
  0
XRECORD
  5
1E
102
{ACAD_REACTORS
330
1A
102
}
330
1A
100
AcDbXrecord
280
     1
270
     1
271
     1
  0
XRECORD
  5
20
102
{ACAD_REACTORS
330
1A
102
}
330
1A
100
AcDbXrecord
280
     1
270
     1
271
     1
  0
XRECORD
  5
1D
102
{ACAD_REACTORS
330
1A
102
}
330
1A
100
AcDbXrecord
280
     1
270
     1
271
     1
  0
XRECORD
  5
14
102
{ACAD_REACTORS
330
12
102
}
330
12
100
AcDbXrecord
280
     1
270
     1
271
     1
  0
XRECORD
  5
13
102
{ACAD_REACTORS
330
12
102
}
330
12
100
AcDbXrecord
280
     1
270
     1
271
     1
  0
XRECORD
  5
17
102
{ACAD_REACTORS
330
12
102
}
330
12
100
AcDbXrecord
280
     1
270
     1
271
     1
  0
XRECORD
  5
16
102
{ACAD_REACTORS
330
12
102
}
330
12
100
AcDbXrecord
280
     1
270
     1
271
     1
  0
XRECORD
  5
18
102
{ACAD_REACTORS
330
12
102
}
330
12
100
AcDbXrecord
280
     1
270
     1
271
     1
  0
XRECORD
  5
15
102
{ACAD_REACTORS
330
12
102
}
330
12
100
AcDbXrecord
280
     1
270
     1
271
     1
  0
XRECORD
  5
24
102
{ACAD_REACTORS
330
22
102
}
330
22
100
AcDbXrecord
280
     1
270
     1
271
     1
  0
XRECORD
  5
23
102
{ACAD_REACTORS
330
22
102
}
330
22
100
AcDbXrecord
280
     1
270
     1
271
     1
  0
XRECORD
  5
27
102
{ACAD_REACTORS
330
22
102
}
330
22
100
AcDbXrecord
280
     1
270
     1
271
     1
  0
XRECORD
  5
26
102
{ACAD_REACTORS
330
22
102
}
330
22
100
AcDbXrecord
280
     1
270
     1
271
     1
  0
XRECORD
  5
28
102
{ACAD_REACTORS
330
22
102
}
330
22
100
AcDbXrecord
280
     1
270
     1
271
     1
  0
XRECORD
  5
25
102
{ACAD_REACTORS
330
22
102
}
330
22
100
AcDbXrecord
280
     1
270
     1
271
     1
  0
CELLSTYLEMAP
  5
3F4
102
{ACAD_REACTORS
330
3F3
102
}
330
3F3
100
AcDbCellStyleMap
 90
        3
300
CELLSTYLE
  1
TABLEFORMAT_BEGIN
 90
        5
170
     1
 91
        0
 92
    32768
 62
   257
 93
        1
300
CONTENTFORMAT
  1
CONTENTFORMAT_BEGIN
 90
        0
 91
        0
 92
      512
 93
        0
300

 40
0.0
140
1.0
 94
        5
 62
     0
340
55
144
0.25
309
CONTENTFORMAT_END
171
     0
 94
        0
309
TABLEFORMAT_END
  1
CELLSTYLE_BEGIN
 90
        1
 91
        1
300
_TITLE
309
CELLSTYLE_END
300
CELLSTYLE
  1
TABLEFORMAT_BEGIN
 90
        5
170
     1
 91
        0
 92
        0
 62
   257
 93
        1
300
CONTENTFORMAT
  1
CONTENTFORMAT_BEGIN
 90
        0
 91
        0
 92
      512
 93
        0
300

 40
0.0
140
1.0
 94
        5
 62
     0
340
55
144
0.18
309
CONTENTFORMAT_END
171
     0
 94
        0
309
TABLEFORMAT_END
  1
CELLSTYLE_BEGIN
 90
        2
 91
        1
300
_HEADER
309
CELLSTYLE_END
300
CELLSTYLE
  1
TABLEFORMAT_BEGIN
 90
        5
170
     1
 91
        0
 92
        0
 62
   257
 93
        1
300
CONTENTFORMAT
  1
CONTENTFORMAT_BEGIN
 90
        0
 91
        0
 92
      512
 93
        0
300

 40
0.0
140
1.0
 94
        2
 62
     0
340
55
144
0.18
309
CONTENTFORMAT_END
171
     0
 94
        0
309
TABLEFORMAT_END
  1
CELLSTYLE_BEGIN
 90
        3
 91
        2
300
_DATA
309
CELLSTYLE_END
  0
ENDSEC
  0
SECTION
  2
ACDSDATA
 70
     2
 71
     8
  0
ACDSSCHEMA
 90
        0
  1
AcDb_Thumbnail_Schema
  2
AcDbDs::ID
280
    10
 91
        8
  2
Thumbnail_Data
280
    15
 91
        0
101
ACDSRECORD
 95
        0
 90
        1
  2
AcDbDs::TreatedAsObjectData
280
     1
291
     1
101
ACDSRECORD
 95
        0
 90
        2
  2
AcDbDs::Legacy
280
     1
291
     1
101
ACDSRECORD
  1
AcDbDs::ID
 90
        3
  2
AcDs:Indexable
280
     1
291
     1
101
ACDSRECORD
  1
AcDbDs::ID
 90
        4
  2
AcDbDs::HandleAttribute
280
     7
282
     1
  0
ACDSSCHEMA
 90
        1
  1
AcDbDs::TreatedAsObjectDataSchema
  2
AcDbDs::TreatedAsObjectData
280
     1
 91
        0
  0
ACDSSCHEMA
 90
        2
  1
AcDbDs::LegacySchema
  2
AcDbDs::Legacy
280
     1
 91
        0
  0
ACDSSCHEMA
 90
        3
  1
AcDbDs::IndexedPropertySchema
  2
AcDs:Indexable
280
     1
 91
        0
  0
ACDSSCHEMA
 90
        4
  1
AcDbDs::HandleAttributeSchema
  2
AcDbDs::HandleAttribute
280
     7
 91
        1
284
     1
  0
ACDSRECORD
 90
        0
  2
AcDbDs::ID
280
    10
320
77
  2
Thumbnail_Data
280
    15
 94
     1620
310
89504E470D0A1A0A0000000D4948445200000100000000B5080300000087DCD12600000300504C5445FFFFFFFFFFFFFFFFFF0000000000000000000000000000000000000000000000000000330000660000990000CC0000FF0033000033330033660033990033CC0033FF0066000066330066660066990066CC0066FF0099
310
000099330099660099990099CC0099FF00CC0000CC3300CC6600CC9900CCCC00CCFF00FF0000FF3300FF6600FF9900FFCC00FFFF3300003300333300663300993300CC3300FF3333003333333333663333993333CC3333FF3366003366333366663366993366CC3366FF3399003399333399663399993399CC3399FF33CC00
310
33CC3333CC6633CC9933CCCC33CCFF33FF0033FF3333FF6633FF9933FFCC33FFFF6600006600336600666600996600CC6600FF6633006633336633666633996633CC6633FF6666006666336666666666996666CC6666FF6699006699336699666699996699CC6699FF66CC0066CC3366CC6666CC9966CCCC66CCFF66FF0066
310
FF3366FF6666FF9966FFCC66FFFF9900009900339900669900999900CC9900FF9933009933339933669933999933CC9933FF9966009966339966669966999966CC9966FF9999009999339999669999999999CC9999FF99CC0099CC3399CC6699CC9999CCCC99CCFF99FF0099FF3399FF6699FF9999FFCC99FFFFCC0000CC00
310
33CC0066CC0099CC00CCCC00FFCC3300CC3333CC3366CC3399CC33CCCC33FFCC6600CC6633CC6666CC6699CC66CCCC66FFCC9900CC9933CC9966CC9999CC99CCCC99FFCCCC00CCCC33CCCC66CCCC99CCCCCCCCCCFFCCFF00CCFF33CCFF66CCFF99CCFFCCCCFFFFFF0000FF0033FF0066FF0099FF00CCFF00FFFF3300FF3333
310
FF3366FF3399FF33CCFF33FFFF6600FF6633FF6666FF6699FF66CCFF66FFFF9900FF9933FF9966FF9999FF99CCFF99FFFFCC00FFCC33FFCC66FFCC99FFCCCCFFCCFFFFFF00FFFF33FFFF66FFFF99FFFFCCFFFFFF0000000D0D0D1A1A1A2828283535354343435050505D5D5D6B6B6B787878868686939393A1A1A1AEAEAEBB
310
BBBBC9C9C9D6D6D6E4E4E4F1F1F1FFFFFF000000000000000000000000000000000000000000000000000000000000AD4AB4E40000030F4944415478DAEDDD5B768320108061F6BF996EC455CC634E16D19C982841409419BCF0D31E5F9A1EE463865BD2EA9E22F27848AFD7A77BBAAE0B0000000000000000000000000000
310
0000000000805FE446651FC07DFA19000000000000000000000000000000000000000000000000000000000000000000000000000000000000000000000000680D90FF08E3ED010A3EC6796780A9F57F2D04CE06F0EDF9F7D79B407A0298037FBA5A67C29900FCC6CAA70E7381D300042D95B90E5B8373002CDB287E1D9699
310
700280E89C27BF75D8091C0E300DFBE2B200E3B7BEC1C100FEB0BF026094090702FCB6A700C024130E03F844B4044DCC0318181C041019F60B01B433E10880680BCA0174A3A03D4062A7B705C08D9B041583D600D38DD7010CA295094D01FC5BAE0650CA847600418F2900A818340258C6AB0E403D411380E8625F0920D846
310
9F11A0ECCFB617B362394055181803CCADDD0AE0B600544C09A600F37277796BDA007BA3C010C0EFFCF2C4282B438C6F571858014872C56307B06B30B001F81C68273A3F9A02DBBA6D4826D056020B806CE85B036CCD047500499C71B503D81606BA00538A0EB29E25750095FF22C60240BE993FBC8AB8C3018622033D8079
310
D86F02B0FA8AF75DAC132801F821772680F57D8202409870014022231B01ACEE95AA01C6B58E5FC3022071AED70A204F500910EDDB4280D5617BC34A300F9023A80190F06C7FAEEC7880F055A979713740A2F54BEDD421D8CFFEE53B7E4AE44C20762D9ADD22A706CBCCDB092099F1759C0B5701824ECEEF97625544E2240F
310
10CD84DD00A203901B12F5012299509102A9C1581120F5D3688AB91280F13D15FF976A66814B02BC16EC7FD23380139D59E0C211D03980030080D600994503001D00149DC700000000CA00A953836E0086C4D12C00DD030811A0047093E74A54003C2F5C005078C6C8A50162B100405783208FD95159070000000000000000
310
000000000000000000000000000000000000000000000000000000000000000000000000000000C02D016E54760174510000000000000000000000000000000000A04F8047D7E505D079F90741A21142CF472A920000000049454E44AE426082
  0
ACDSRECORD
 90
        0
  2
AcDbDs::ID
280
    10
320
73
  2
Thumbnail_Data
280
    15
 94
     1044
310
89504E470D0A1A0A0000000D494844520000010000000065080300000095E2CD0900000300504C5445FFFFFFFFFFFFFFFFFF0000000000000000000000000000000000000000000000000000330000660000990000CC0000FF0033000033330033660033990033CC0033FF0066000066330066660066990066CC0066FF0099
310
000099330099660099990099CC0099FF00CC0000CC3300CC6600CC9900CCCC00CCFF00FF0000FF3300FF6600FF9900FFCC00FFFF3300003300333300663300993300CC3300FF3333003333333333663333993333CC3333FF3366003366333366663366993366CC3366FF3399003399333399663399993399CC3399FF33CC00
310
33CC3333CC6633CC9933CCCC33CCFF33FF0033FF3333FF6633FF9933FFCC33FFFF6600006600336600666600996600CC6600FF6633006633336633666633996633CC6633FF6666006666336666666666996666CC6666FF6699006699336699666699996699CC6699FF66CC0066CC3366CC6666CC9966CCCC66CCFF66FF0066
310
FF3366FF6666FF9966FFCC66FFFF9900009900339900669900999900CC9900FF9933009933339933669933999933CC9933FF9966009966339966669966999966CC9966FF9999009999339999669999999999CC9999FF99CC0099CC3399CC6699CC9999CCCC99CCFF99FF0099FF3399FF6699FF9999FFCC99FFFFCC0000CC00
310
33CC0066CC0099CC00CCCC00FFCC3300CC3333CC3366CC3399CC33CCCC33FFCC6600CC6633CC6666CC6699CC66CCCC66FFCC9900CC9933CC9966CC9999CC99CCCC99FFCCCC00CCCC33CCCC66CCCC99CCCCCCCCCCFFCCFF00CCFF33CCFF66CCFF99CCFFCCCCFFFFFF0000FF0033FF0066FF0099FF00CCFF00FFFF3300FF3333
310
FF3366FF3399FF33CCFF33FFFF6600FF6633FF6666FF6699FF66CCFF66FFFF9900FF9933FF9966FF9999FF99CCFF99FFFFCC00FFCC33FFCC66FFCC99FFCCCCFFCCFFFFFF00FFFF33FFFF66FFFF99FFFFCCFFFFFF0000000D0D0D1A1A1A2828283535354343435050505D5D5D6B6B6B787878868686939393A1A1A1AEAEAEBB
310
BBBBC9C9C9D6D6D6E4E4E4F1F1F1FFFFFF000000000000000000000000000000000000000000000000000000000000AD4AB4E4000000BB4944415478DAEDD84B0E83300C0540EE7FB69E2227E927A431085A09B1B2678410CACE2F4E022C0B0000000000000000B769C5CB7F295E7EDD087AE99FAB620463E6D75BB10CD682
310
6700A53683B9EC630065BA20EE7BBB000AB441FB69D31DB97BFFE8F5A7256F83DD89DFFE7547CAF21F737E679D0735678B202CF07EE29D0610DE0D3265302A8901BCEF63B43F6CD2C9F6997029804CDF8931806F3F140D208C09A04C00EDB2F201D4FE5F040000000000000000000000DCE909AD978710D97AE22200000000
310
49454E44AE426082DDA1EF715C95CDFB0000000049454E44AE426082
  0
ENDSEC
  0
EOF
