  0
SECTION
  2
HEADER
  9
$ACADVER
  1
AC1032
  9
$ACADMAINTVER
 90
      204
  9
$DWGCODEPAGE
  3
ANSI_1252
  9
$LASTSAVEDBY
  1
duda-
  9
$REQUIREDVERSIONS
160
                 0
  9
$INSBASE
 10
0.0
 20
0.0
 30
0.0
  9
$EXTMIN
 10
1929.273566493437
 20
-23900.95687416633
 30
0.0
  9
$EXTMAX
 10
13729.27356649353
 20
-10740.95687416629
 30
0.0
  9
$LIMMIN
 10
0.0
 20
0.0
  9
$LIMMAX
 10
12.0
 20
9.0
  9
$ORTHOMODE
 70
     0
  9
$REGENMODE
 70
     1
  9
$FILLMODE
 70
     1
  9
$QTEXTMODE
 70
     0
  9
$MIRRTEXT
 70
     0
  9
$LTSCALE
 40
1.0
  9
$ATTMODE
 70
     1
  9
$TEXTSIZE
 40
0.2
  9
$TRACEWID
 40
0.05
  9
$TEXTSTYLE
  7
Standard
  9
$CLAYER
  8
0
  9
$CELTYPE
  6
ByLayer
  9
$CECOLOR
 62
   256
  9
$CELTSCALE
 40
1.0
  9
$DISPSILH
 70
     0
  9
$DIMSCALE
 40
1.0
  9
$DIMASZ
 40
0.18
  9
$DIMEXO
 40
0.0625
  9
$DIMDLI
 40
0.38
  9
$DIMRND
 40
0.0
  9
$DIMDLE
 40
0.0
  9
$DIMEXE
 40
0.18
  9
$DIMTP
 40
0.0
  9
$DIMTM
 40
0.0
  9
$DIMTXT
 40
0.18
  9
$DIMCEN
 40
0.09
  9
$DIMTSZ
 40
0.0
  9
$DIMTOL
 70
     0
  9
$DIMLIM
 70
     0
  9
$DIMTIH
 70
     1
  9
$DIMTOH
 70
     1
  9
$DIMSE1
 70
     0
  9
$DIMSE2
 70
     0
  9
$DIMTAD
 70
     0
  9
$DIMZIN
 70
     0
  9
$DIMBLK
  1

  9
$DIMASO
 70
     1
  9
$DIMSHO
 70
     1
  9
$DIMPOST
  1

  9
$DIMAPOST
  1

  9
$DIMALT
 70
     0
  9
$DIMALTD
 70
     2
  9
$DIMALTF
 40
25.4
  9
$DIMLFAC
 40
1.0
  9
$DIMTOFL
 70
     0
  9
$DIMTVP
 40
0.0
  9
$DIMTIX
 70
     0
  9
$DIMSOXD
 70
     0
  9
$DIMSAH
 70
     0
  9
$DIMBLK1
  1

  9
$DIMBLK2
  1

  9
$DIMSTYLE
  2
Standard
  9
$DIMCLRD
 70
     0
  9
$DIMCLRE
 70
     0
  9
$DIMCLRT
 70
     0
  9
$DIMTFAC
 40
1.0
  9
$DIMGAP
 40
0.09
  9
$DIMJUST
 70
     0
  9
$DIMSD1
 70
     0
  9
$DIMSD2
 70
     0
  9
$DIMTOLJ
 70
     1
  9
$DIMTZIN
 70
     0
  9
$DIMALTZ
 70
     0
  9
$DIMALTTZ
 70
     0
  9
$DIMUPT
 70
     0
  9
$DIMDEC
 70
     4
  9
$DIMTDEC
 70
     4
  9
$DIMALTU
 70
     2
  9
$DIMALTTD
 70
     2
  9
$DIMTXSTY
  7
Standard
  9
$DIMAUNIT
 70
     0
  9
$DIMADEC
 70
     0
  9
$DIMALTRND
 40
0.0
  9
$DIMAZIN
 70
     0
  9
$DIMDSEP
 70
    46
  9
$DIMATFIT
 70
     3
  9
$DIMFRAC
 70
     0
  9
$DIMLDRBLK
  1

  9
$DIMLUNIT
 70
     2
  9
$DIMLWD
 70
    -2
  9
$DIMLWE
 70
    -2
  9
$DIMTMOVE
 70
     0
  9
$DIMFXL
 40
1.0
  9
$DIMFXLON
 70
     0
  9
$DIMJOGANG
 40
0.7853981633974483
  9
$DIMTFILL
 70
     0
  9
$DIMTFILLCLR
 70
     0
  9
$DIMARCSYM
 70
     0
  9
$DIMLTYPE
  6

  9
$DIMLTEX1
  6

  9
$DIMLTEX2
  6

  9
$DIMTXTDIRECTION
 70
     0
  9
$LUNITS
 70
     2
  9
$LUPREC
 70
     4
  9
$SKETCHINC
 40
0.1
  9
$FILLETRAD
 40
0.0
  9
$AUNITS
 70
     0
  9
$AUPREC
 70
     0
  9
$MENU
  1
.
  9
$ELEVATION
 40
0.0
  9
$PELEVATION
 40
0.0
  9
$THICKNESS
 40
0.0
  9
$LIMCHECK
 70
     0
  9
$CHAMFERA
 40
0.0
  9
$CHAMFERB
 40
0.0
  9
$CHAMFERC
 40
0.0
  9
$CHAMFERD
 40
0.0
  9
$SKPOLY
 70
     0
  9
$TDCREATE
 40
2460730.530138889
  9
$TDUCREATE
 40
2460730.655138889
  9
$TDUPDATE
 40
2460738.955578704
  9
$TDUUPDATE
 40
2460739.080578704
  9
$TDINDWG
 40
0.0178703704
  9
$TDUSRTIMER
 40
0.0178703704
  9
$USRTIMER
 70
     1
  9
$ANGBASE
 50
0.0
  9
$ANGDIR
 70
     0
  9
$PDMODE
 70
     0
  9
$PDSIZE
 40
0.0
  9
$PLINEWID
 40
0.0
  9
$SPLFRAME
 70
     0
  9
$SPLINETYPE
 70
     6
  9
$SPLINESEGS
 70
     8
  9
$HANDSEED
  5
2DA
  9
$SURFTAB1
 70
     6
  9
$SURFTAB2
 70
     6
  9
$SURFTYPE
 70
     6
  9
$SURFU
 70
     6
  9
$SURFV
 70
     6
  9
$UCSBASE
  2

  9
$UCSNAME
  2

  9
$UCSORG
 10
0.0
 20
0.0
 30
0.0
  9
$UCSXDIR
 10
1.0
 20
0.0
 30
0.0
  9
$UCSYDIR
 10
0.0
 20
1.0
 30
0.0
  9
$UCSORTHOREF
  2

  9
$UCSORTHOVIEW
 70
     0
  9
$UCSORGTOP
 10
0.0
 20
0.0
 30
0.0
  9
$UCSORGBOTTOM
 10
0.0
 20
0.0
 30
0.0
  9
$UCSORGLEFT
 10
0.0
 20
0.0
 30
0.0
  9
$UCSORGRIGHT
 10
0.0
 20
0.0
 30
0.0
  9
$UCSORGFRONT
 10
0.0
 20
0.0
 30
0.0
  9
$UCSORGBACK
 10
0.0
 20
0.0
 30
0.0
  9
$PUCSBASE
  2

  9
$PUCSNAME
  2

  9
$PUCSORG
 10
0.0
 20
0.0
 30
0.0
  9
$PUCSXDIR
 10
1.0
 20
0.0
 30
0.0
  9
$PUCSYDIR
 10
0.0
 20
1.0
 30
0.0
  9
$PUCSORTHOREF
  2

  9
$PUCSORTHOVIEW
 70
     0
  9
$PUCSORGTOP
 10
0.0
 20
0.0
 30
0.0
  9
$PUCSORGBOTTOM
 10
0.0
 20
0.0
 30
0.0
  9
$PUCSORGLEFT
 10
0.0
 20
0.0
 30
0.0
  9
$PUCSORGRIGHT
 10
0.0
 20
0.0
 30
0.0
  9
$PUCSORGFRONT
 10
0.0
 20
0.0
 30
0.0
  9
$PUCSORGBACK
 10
0.0
 20
0.0
 30
0.0
  9
$USERI1
 70
     0
  9
$USERI2
 70
     0
  9
$USERI3
 70
     0
  9
$USERI4
 70
     0
  9
$USERI5
 70
     0
  9
$USERR1
 40
0.0
  9
$USERR2
 40
0.0
  9
$USERR3
 40
0.0
  9
$USERR4
 40
0.0
  9
$USERR5
 40
0.0
  9
$WORLDVIEW
 70
     1
  9
$SHADEDGE
 70
     3
  9
$SHADEDIF
 70
    70
  9
$TILEMODE
 70
     1
  9
$MAXACTVP
 70
    64
  9
$PINSBASE
 10
0.0
 20
0.0
 30
0.0
  9
$PLIMCHECK
 70
     0
  9
$PEXTMIN
 10
64.29285070883699
 20
59.49999999998593
 30
0.0
  9
$PEXTMAX
 10
274.292850708837
 20
356.4999999999859
 30
0.0
  9
$PLIMMIN
 10
64.27901684485153
 20
59.47287840171589
  9
$PLIMMAX
 10
484.5984757423225
 20
356.6684553999278
  9
$UNITMODE
 70
     0
  9
$VISRETAIN
 70
     1
  9
$PLINEGEN
 70
     0
  9
$PSLTSCALE
 70
     0
  9
$TREEDEPTH
 70
  3020
  9
$CMLSTYLE
  2
Standard
  9
$CMLJUST
 70
     0
  9
$CMLSCALE
 40
1.0
  9
$PROXYGRAPHICS
 70
     1
  9
$MEASUREMENT
 70
     1
  9
$CELWEIGHT
370
    -1
  9
$ENDCAPS
280
     0
  9
$JOINSTYLE
280
     0
  9
$LWDISPLAY
290
     0
  9
$INSUNITS
 70
     4
  9
$HYPERLINKBASE
  1

  9
$STYLESHEET
  1

  9
$XEDIT
290
     1
  9
$CEPSNTYPE
380
     0
  9
$PSTYLEMODE
290
     1
  9
$FINGERPRINTGUID
  2
{21A3B195-1C69-C044-BDE2-E4F3034EA017}
  9
$VERSIONGUID
  2
{D162601C-FD60-124C-9340-3D1CB5F16651}
  9
$EXTNAMES
290
     1
  9
$PSVPSCALE
 40
0.0
  9
$OLESTARTUP
290
     0
  9
$SORTENTS
280
   127
  9
$INDEXCTL
280
     0
  9
$HIDETEXT
280
     1
  9
$XCLIPFRAME
280
     2
  9
$HALOGAP
280
     0
  9
$OBSCOLOR
 70
   257
  9
$OBSLTYPE
280
     0
  9
$INTERSECTIONDISPLAY
280
     0
  9
$INTERSECTIONCOLOR
 70
   257
  9
$DIMASSOC
280
     2
  9
$PROJECTNAME
  1

  9
$CAMERADISPLAY
290
     0
  9
$LENSLENGTH
 40
50.0
  9
$CAMERAHEIGHT
 40
0.0
  9
$STEPSPERSEC
 40
2.0
  9
$STEPSIZE
 40
6.0
  9
$3DDWFPREC
 40
2.0
  9
$PSOLWIDTH
 40
0.25
  9
$PSOLHEIGHT
 40
4.0
  9
$LOFTANG1
 40
1.570796326794896
  9
$LOFTANG2
 40
1.570796326794896
  9
$LOFTMAG1
 40
0.0
  9
$LOFTMAG2
 40
0.0
  9
$LOFTPARAM
 70
     7
  9
$LOFTNORMALS
280
     1
  9
$LATITUDE
 40
0.0
  9
$LONGITUDE
 40
0.0
  9
$NORTHDIRECTION
 40
0.0
  9
$TIMEZONE
 70
     0
  9
$LIGHTGLYPHDISPLAY
280
     1
  9
$TILEMODELIGHTSYNCH
280
     1
  9
$CMATERIAL
347
11
  9
$SOLIDHIST
280
     0
  9
$SHOWHIST
280
     1
  9
$DWFFRAME
280
     2
  9
$DGNFRAME
280
     0
  9
$REALWORLDSCALE
290
     1
  9
$INTERFERECOLOR
 62
     1
  9
$INTERFEREOBJVS
345
33
  9
$INTERFEREVPVS
346
30
  9
$CSHADOW
280
     0
  9
$SHADOWPLANELOCATION
 40
0.0
  0
ENDSEC
  0
SECTION
  2
CLASSES
  0
CLASS
  1
ACDBDICTIONARYWDFLT
  2
AcDbDictionaryWithDefault
  3
ObjectDBX Classes
 90
        0
 91
        1
280
     0
281
     0
  0
CLASS
  1
MATERIAL
  2
AcDbMaterial
  3
ObjectDBX Classes
 90
     1153
 91
        3
280
     0
281
     0
  0
CLASS
  1
VISUALSTYLE
  2
AcDbVisualStyle
  3
ObjectDBX Classes
 90
     4095
 91
       24
280
     0
281
     0
  0
CLASS
  1
SCALE
  2
AcDbScale
  3
ObjectDBX Classes
 90
     1153
 91
       17
280
     0
281
     0
  0
CLASS
  1
TABLESTYLE
  2
AcDbTableStyle
  3
ObjectDBX Classes
 90
     4095
 91
        1
280
     0
281
     0
  0
CLASS
  1
MLEADERSTYLE
  2
AcDbMLeaderStyle
  3
ACDB_MLEADERSTYLE_CLASS
 90
     4095
 91
        1
280
     0
281
     0
  0
CLASS
  1
ACDBSECTIONVIEWSTYLE
  2
AcDbSectionViewStyle
  3
ObjectDBX Classes
 90
     1025
 91
        2
280
     0
281
     0
  0
CLASS
  1
ACDBDETAILVIEWSTYLE
  2
AcDbDetailViewStyle
  3
ObjectDBX Classes
 90
     1025
 91
        2
280
     0
281
     0
  0
CLASS
  1
RASTERVARIABLES
  2
AcDbRasterVariables
  3
ISM
 90
        0
 91
        1
280
     0
281
     0
  0
CLASS
  1
DICTIONARYVAR
  2
AcDbDictionaryVar
  3
ObjectDBX Classes
 90
        0
 91
        5
280
     0
281
     0
  0
CLASS
  1
SORTENTSTABLE
  2
AcDbSortentsTable
  3
ObjectDBX Classes
 90
        0
 91
        1
280
     0
281
     0
  0
CLASS
  1
SUN
  2
AcDbSun
  3
SCENEOE
 90
     1153
 91
        1
280
     0
281
     0
  0
CLASS
  1
RAPIDRTRENDERSETTINGS
  2
AcDbRapidRTRenderSettings
  3
ObjectDBX Classes
 90
     1024
 91
        7
280
     0
281
     0
  0
CLASS
  1
CELLSTYLEMAP
  2
AcDbCellStyleMap
  3
ObjectDBX Classes
 90
     1152
 91
        1
280
     0
281
     0
  0
ENDSEC
  0
SECTION
  2
TABLES
  0
TABLE
  2
VPORT
  5
8
330
0
100
AcDbSymbolTable
 70
     1
  0
VPORT
  5
57
330
8
100
AcDbSymbolTableRecord
100
AcDbViewportTableRecord
  2
*Active
 70
     0
 10
0.0
 20
0.0
 11
1.0
 21
1.0
 12
6442.136094680623
 22
-20668.79460561494
 13
0.0
 23
0.0
 14
1.0
 24
1.0
 15
0.0
 25
0.0
 16
0.0
 26
0.0
 36
1.0
 17
0.0
 27
0.0
 37
0.0
 40
21687.44778824515
 41
2.531208499335989
 42
50.0
 43
0.0
 44
0.0
 50
0.0
 51
0.0
 71
     0
 72
  1000
 73
     1
 74
     1
 75
     0
 76
     0
 77
     0
 78
     0
281
     0
 65
     1
110
0.0
120
0.0
130
0.0
111
1.0
121
0.0
131
0.0
112
0.0
122
1.0
132
0.0
 79
     0
146
0.0
348
2F
 60
     3
 61
     5
292
     1
282
     1
141
0.0
142
0.0
 63
   250
421
  3355443
361
236
1001
ACAD_NAV_VCDISPLAY
1070
     3
  0
ENDTAB
  0
TABLE
  2
LTYPE
  5
5
330
0
100
AcDbSymbolTable
 70
     1
  0
LTYPE
  5
5B
330
5
100
AcDbSymbolTableRecord
100
AcDbLinetypeTableRecord
  2
ByBlock
 70
     0
  3

 72
    65
 73
     0
 40
0.0
  0
LTYPE
  5
5C
330
5
100
AcDbSymbolTableRecord
100
AcDbLinetypeTableRecord
  2
ByLayer
 70
     0
  3

 72
    65
 73
     0
 40
0.0
  0
LTYPE
  5
5D
330
5
100
AcDbSymbolTableRecord
100
AcDbLinetypeTableRecord
  2
Continuous
 70
     0
  3
Solid line
 72
    65
 73
     0
 40
0.0
  0
ENDTAB
  0
TABLE
  2
LAYER
  5
2
102
{ACAD_XDICTIONARY
360
253
102
}
330
0
100
AcDbSymbolTable
 70
     6
  0
LAYER
  5
54
330
2
100
AcDbSymbolTableRecord
100
AcDbLayerTableRecord
  2
0
 70
     0
 62
   250
  6
Continuous
370
    25
390
F
347
21
348
0
  0
LAYER
  5
15B
330
2
100
AcDbSymbolTableRecord
100
AcDbLayerTableRecord
  2
A-POR-___-___-EXI
 70
     0
 62
   250
  6
Continuous
370
    25
390
F
347
21
348
0
  0
LAYER
  5
168
330
2
100
AcDbSymbolTableRecord
100
AcDbLayerTableRecord
  2
A-JAN-___-___-EXI
 70
     0
 62
   250
  6
Continuous
370
    25
390
F
347
21
348
0
  0
LAYER
  5
21F
330
2
100
AcDbSymbolTableRecord
100
AcDbLayerTableRecord
  2
A-ALV-___-___-EXI
 70
     0
 62
   250
  6
Continuous
370
    35
390
F
347
21
348
0
  0
LAYER
  5
225
330
2
100
AcDbSymbolTableRecord
100
AcDbLayerTableRecord
  2
A-PIS-___-___-EXI
 70
     0
 62
   250
  6
Continuous
370
    25
390
F
347
21
348
0
  0
LAYER
  5
227
330
2
100
AcDbSymbolTableRecord
100
AcDbLayerTableRecord
  2
A-PIL-___-___-EXI
 70
     0
 62
   250
  6
Continuous
370
    25
390
F
347
21
348
0
  0
ENDTAB
  0
TABLE
  2
STYLE
  5
3
330
0
100
AcDbSymbolTable
 70
     2
  0
STYLE
  5
55
330
3
100
AcDbSymbolTableRecord
100
AcDbTextStyleTableRecord
  2
Standard
 70
     0
 40
0.0
 41
1.0
 50
0.0
 71
     0
 42
0.2
  3
txt
  4

  0
STYLE
  5
5A
330
3
100
AcDbSymbolTableRecord
100
AcDbTextStyleTableRecord
  2
Annotative
 70
     0
 40
0.0
 41
1.0
 50
0.0
 71
     0
 42
0.2
  3
txt
  4

1001
AcadAnnotative
1000
AnnotativeData
1002
{
1070
     1
1070
     1
1002
}
  0
ENDTAB
  0
TABLE
  2
VIEW
  5
6
330
0
100
AcDbSymbolTable
 70
     0
  0
ENDTAB
  0
TABLE
  2
UCS
  5
7
330
0
100
AcDbSymbolTable
 70
     0
  0
ENDTAB
  0
TABLE
  2
APPID
  5
9
330
0
100
AcDbSymbolTable
 70
     6
  0
APPID
  5
56
330
9
100
AcDbSymbolTableRecord
100
AcDbRegAppTableRecord
  2
ACAD
 70
     0
  0
APPID
  5
5E
330
9
100
AcDbSymbolTableRecord
100
AcDbRegAppTableRecord
  2
AcadAnnotative
 70
     0
  0
APPID
  5
78
330
9
100
AcDbSymbolTableRecord
100
AcDbRegAppTableRecord
  2
REVIT
 70
     0
  0
APPID
  5
246
330
9
100
AcDbSymbolTableRecord
100
AcDbRegAppTableRecord
  2
ACAD_PSEXT
 70
     0
  0
APPID
  5
27D
330
9
100
AcDbSymbolTableRecord
100
AcDbRegAppTableRecord
  2
ACAD_NAV_VCDISPLAY
 70
     0
  0
APPID
  5
285
330
9
100
AcDbSymbolTableRecord
100
AcDbRegAppTableRecord
  2
ACAD_EXEMPT_FROM_CAD_STANDARDS
 70
     0
  0
ENDTAB
  0
TABLE
  2
DIMSTYLE
  5
A
330
0
100
AcDbSymbolTable
 70
     2
100
AcDbDimStyleTable
 71
     0
  0
DIMSTYLE
105
58
330
A
100
AcDbSymbolTableRecord
100
AcDbDimStyleTableRecord
  2
Standard
 70
     0
340
55
  0
DIMSTYLE
105
59
330
A
100
AcDbSymbolTableRecord
100
AcDbDimStyleTableRecord
  2
Annotative
 70
     0
340
55
1001
AcadAnnotative
1000
AnnotativeData
1002
{
1070
     1
1070
     1
1002
}
  0
ENDTAB
  0
TABLE
  2
BLOCK_RECORD
  5
1
330
0
100
AcDbSymbolTable
 70
     8
  0
BLOCK_RECORD
  5
70
102
{ACAD_XDICTIONARY
360
234
102
}
330
1
100
AcDbSymbolTableRecord
100
AcDbBlockTableRecord
  2
*Model_Space
340
73
 70
     0
280
     1
281
     0
  0
BLOCK_RECORD
  5
6C
330
1
100
AcDbSymbolTableRecord
100
AcDbBlockTableRecord
  2
*Paper_Space
340
6F
 70
     0
280
     1
281
     0
  0
BLOCK_RECORD
  5
15A
330
1
100
AcDbSymbolTableRecord
100
AcDbBlockTableRecord
  2
porta multiplas_original - Simples - 90 cm-22616581-Planta baixa - Térreo_
340
0
102
{BLKREFS
331
16C
102
}
 70
     0
280
     1
281
     0
  0
BLOCK_RECORD
  5
16D
330
1
100
AcDbSymbolTableRecord
100
AcDbBlockTableRecord
  2
porta multiplas_original - Simples - 70 cm-22616893-Planta baixa - Térreo_
340
0
102
{BLKREFS
331
17D
331
17E
102
}
 70
     0
280
     1
281
     0
  0
BLOCK_RECORD
  5
17F
330
1
100
AcDbSymbolTableRecord
100
AcDbBlockTableRecord
  2
porta multiplas_original - Simples - 90 cm-22616526-Planta baixa - Térreo_
340
0
102
{BLKREFS
331
18F
102
}
 70
     0
280
     1
281
     0
  0
BLOCK_RECORD
  5
190
330
1
100
AcDbSymbolTableRecord
100
AcDbBlockTableRecord
  2
porta multiplas_original - Simples - 90 cm-22616582-Planta baixa - Térreo_
340
0
102
{BLKREFS
331
1A0
102
}
 70
     0
280
     1
281
     0
  0
BLOCK_RECORD
  5
1A1
330
1
100
AcDbSymbolTableRecord
100
AcDbBlockTableRecord
  2
porta multiplas_original - Simples - 70 cm-22616731-Planta baixa - Térreo_
340
0
102
{BLKREFS
331
1B1
331
1B2
102
}
 70
     0
280
     1
281
     0
  0
BLOCK_RECORD
  5
1B3
330
1
100
AcDbSymbolTableRecord
100
AcDbBlockTableRecord
  2
porta multiplas_original - Simples - 60 cm-22616851-Planta baixa - Térreo_
340
0
102
{BLKREFS
331
1C3
102
}
 70
     0
280
     1
281
     0
  0
BLOCK_RECORD
  5
1C4
330
1
100
AcDbSymbolTableRecord
100
AcDbBlockTableRecord
  2
porta multiplas_original - Simples - 60 cm-22616868-Planta baixa - Térreo_
340
0
102
{BLKREFS
331
1D4
102
}
 70
     0
280
     1
281
     0
  0
BLOCK_RECORD
  5
226
330
1
100
AcDbSymbolTableRecord
100
AcDbBlockTableRecord
  2
SVG - A4-22645566-Não nomeada
340
0
102
{BLKREFS
331
22E
102
}
 70
     0
280
     1
281
     0
  0
ENDTAB
  0
ENDSEC
  0
SECTION
  2
BLOCKS
  0
BLOCK
  5
71
330
70
100
AcDbEntity
  8
0
100
AcDbBlockBegin
  2
*Model_Space
 70
     0
 10
0.0
 20
0.0
 30
0.0
  3
*Model_Space
  1

  0
ENDBLK
  5
72
330
70
100
AcDbEntity
  8
0
100
AcDbBlockEnd
  0
BLOCK
  5
6D
330
6C
100
AcDbEntity
 67
     1
  8
0
100
AcDbBlockBegin
  2
*Paper_Space
 70
     0
 10
0.0
 20
0.0
 30
0.0
  3
*Paper_Space
  1

  0
ENDBLK
  5
6E
330
6C
100
AcDbEntity
 67
     1
  8
0
100
AcDbBlockEnd
  0
BLOCK
  5
16A
330
15A
100
AcDbEntity
  8
0
100
AcDbBlockBegin
  2
porta multiplas_original - Simples - 90 cm-22616581-Planta baixa - Térreo_
 70
     0
 10
0.0
 20
0.0
 30
0.0
  3
porta multiplas_original - Simples - 90 cm-22616581-Planta baixa - Térreo_
  1

  0
LINE
  5
15C
330
15A
100
AcDbEntity
  8
A-POR-___-___-EXI
100
AcDbLine
 10
479.9999999999916
 20
-150.0000000000009
 30
0.0
 11
479.9999999999926
 21
150.0000000009617
 31
0.0
1001
REVIT
1002
{
1070
     1
1000
22615759
1002
}
1002
{
1070
     5
1000
22369137
1002
}
  0
LINE
  5
15D
330
15A
100
AcDbEntity
  8
A-POR-___-___-EXI
100
AcDbLine
 10
479.9999999999926
 20
150.0000000009617
 30
0.0
 11
449.9999999999929
 21
150.0000000009618
 31
0.0
1001
REVIT
1002
{
1070
     1
1000
22615759
1002
}
1002
{
1070
     5
1000
22369137
1002
}
  0
LINE
  5
15E
330
15A
100
AcDbEntity
  8
A-POR-___-___-EXI
100
AcDbLine
 10
449.9999999999929
 20
150.0000000009618
 30
0.0
 11
449.9999999999919
 21
-150.0000000000009
 31
0.0
1001
REVIT
1002
{
1070
     1
1000
22615759
1002
}
1002
{
1070
     5
1000
22369137
1002
}
  0
LINE
  5
15F
330
15A
100
AcDbEntity
  8
A-POR-___-___-EXI
100
AcDbLine
 10
449.9999999999919
 20
-150.0000000000009
 30
0.0
 11
479.9999999999916
 21
-150.0000000000009
 31
0.0
1001
REVIT
1002
{
1070
     1
1000
22615759
1002
}
1002
{
1070
     5
1000
22369137
1002
}
  0
LINE
  5
160
330
15A
100
AcDbEntity
  8
A-POR-___-___-EXI
100
AcDbLine
 10
-480.0000000000078
 20
-149.9999999999992
 30
0.0
 11
-450.000000000007
 21
-149.9999999999993
 31
0.0
1001
REVIT
1002
{
1070
     1
1000
22615759
1002
}
1002
{
1070
     5
1000
22369137
1002
}
  0
LINE
  5
161
330
15A
100
AcDbEntity
  8
A-POR-___-___-EXI
100
AcDbLine
 10
-450.000000000007
 20
-149.9999999999993
 30
0.0
 11
-450.0000000000059
 21
150.0000000009634
 31
0.0
1001
REVIT
1002
{
1070
     1
1000
22615759
1002
}
1002
{
1070
     5
1000
22369137
1002
}
  0
LINE
  5
162
330
15A
100
AcDbEntity
  8
A-POR-___-___-EXI
100
AcDbLine
 10
-450.0000000000059
 20
150.0000000009634
 30
0.0
 11
-480.0000000000067
 21
150.0000000009634
 31
0.0
1001
REVIT
1002
{
1070
     1
1000
22615759
1002
}
1002
{
1070
     5
1000
22369137
1002
}
  0
LINE
  5
163
330
15A
100
AcDbEntity
  8
A-POR-___-___-EXI
100
AcDbLine
 10
-480.0000000000067
 20
150.0000000009634
 30
0.0
 11
-480.0000000000078
 21
-149.9999999999992
 31
0.0
1001
REVIT
1002
{
1070
     1
1000
22615759
1002
}
1002
{
1070
     5
1000
22369137
1002
}
  0
LINE
  5
164
330
15A
100
AcDbEntity
  8
A-POR-___-___-EXI
100
AcDbLine
 10
-418.0000000000078
 20
1046.000000000963
 30
0.0
 11
-448.0000000000075
 21
1046.000000000963
 31
0.0
1001
REVIT
1002
{
1070
     1
1000
22615759
1002
}
1002
{
1070
     5
1000
22369137
1002
}
  0
LINE
  5
165
330
15A
100
AcDbEntity
  8
A-POR-___-___-EXI
100
AcDbLine
 10
-448.0000000000075
 20
1046.000000000963
 30
0.0
 11
-448.0000000000064
 21
150.0000000009634
 31
0.0
1001
REVIT
1002
{
1070
     1
1000
22615759
1002
}
1002
{
1070
     5
1000
22369137
1002
}
  0
LINE
  5
166
330
15A
100
AcDbEntity
  8
A-POR-___-___-EXI
100
AcDbLine
 10
-448.0000000000064
 20
150.0000000009634
 30
0.0
 11
-418.0000000000068
 21
150.0000000009633
 31
0.0
1001
REVIT
1002
{
1070
     1
1000
22615759
1002
}
1002
{
1070
     5
1000
22369137
1002
}
  0
LINE
  5
167
330
15A
100
AcDbEntity
  8
A-POR-___-___-EXI
100
AcDbLine
 10
-418.0000000000068
 20
150.0000000009633
 30
0.0
 11
-418.0000000000078
 21
1046.000000000963
 31
0.0
1001
REVIT
1002
{
1070
     1
1000
22615759
1002
}
1002
{
1070
     5
1000
22369137
1002
}
  0
ARC
  5
169
330
15A
100
AcDbEntity
  8
A-JAN-___-___-EXI
100
AcDbCircle
 10
-448.0000000000064
 20
150.0000000009634
 30
0.0
 40
895.999999999999
100
AcDbArc
 50
359.9999999999996
 51
89.99999999999994
1001
REVIT
1002
{
1070
     1
1000
22615759
1002
}
1002
{
1070
     5
1000
22369137
1002
}
1002
{
1070
     3
1000
-2000027
1002
}
  0
ENDBLK
  5
16B
330
15A
100
AcDbEntity
  8
0
100
AcDbBlockEnd
  0
BLOCK
  5
17B
330
16D
100
AcDbEntity
  8
0
100
AcDbBlockBegin
  2
porta multiplas_original - Simples - 70 cm-22616893-Planta baixa - Térreo_
 70
     0
 10
0.0
 20
0.0
 30
0.0
  3
porta multiplas_original - Simples - 70 cm-22616893-Planta baixa - Térreo_
  1

  0
LINE
  5
16E
330
16D
100
AcDbEntity
  8
A-POR-___-___-EXI
100
AcDbLine
 10
379.9999999999905
 20
-75.00000000000048
 30
0.0
 11
379.9999999999905
 21
74.99999999998273
 31
0.0
1001
REVIT
1002
{
1070
     1
1000
22615920
1002
}
1002
{
1070
     5
1000
22369135
1002
}
  0
LINE
  5
16F
330
16D
100
AcDbEntity
  8
A-POR-___-___-EXI
100
AcDbLine
 10
379.9999999999905
 20
74.99999999998273
 30
0.0
 11
349.9999999999908
 21
74.99999999998279
 31
0.0
1001
REVIT
1002
{
1070
     1
1000
22615920
1002
}
1002
{
1070
     5
1000
22369135
1002
}
  0
LINE
  5
170
330
16D
100
AcDbEntity
  8
A-POR-___-___-EXI
100
AcDbLine
 10
349.9999999999908
 20
74.99999999998279
 30
0.0
 11
349.9999999999908
 21
-75.00000000000042
 31
0.0
1001
REVIT
1002
{
1070
     1
1000
22615920
1002
}
1002
{
1070
     5
1000
22369135
1002
}
  0
LINE
  5
171
330
16D
100
AcDbEntity
  8
A-POR-___-___-EXI
100
AcDbLine
 10
349.9999999999908
 20
-75.00000000000042
 30
0.0
 11
379.9999999999905
 21
-75.00000000000048
 31
0.0
1001
REVIT
1002
{
1070
     1
1000
22615920
1002
}
1002
{
1070
     5
1000
22369135
1002
}
  0
LINE
  5
172
330
16D
100
AcDbEntity
  8
A-POR-___-___-EXI
100
AcDbLine
 10
-380.0000000000078
 20
-74.99999999999913
 30
0.0
 11
-350.0000000000071
 21
-74.99999999999919
 31
0.0
1001
REVIT
1002
{
1070
     1
1000
22615920
1002
}
1002
{
1070
     5
1000
22369135
1002
}
  0
LINE
  5
173
330
16D
100
AcDbEntity
  8
A-POR-___-___-EXI
100
AcDbLine
 10
-350.0000000000071
 20
-74.99999999999919
 30
0.0
 11
-350.0000000000071
 21
74.99999999998836
 31
0.0
1001
REVIT
1002
{
1070
     1
1000
22615920
1002
}
1002
{
1070
     5
1000
22369135
1002
}
  0
LINE
  5
174
330
16D
100
AcDbEntity
  8
A-POR-___-___-EXI
100
AcDbLine
 10
-350.0000000000071
 20
74.99999999998836
 30
0.0
 11
-380.0000000000078
 21
74.99999999998841
 31
0.0
1001
REVIT
1002
{
1070
     1
1000
22615920
1002
}
1002
{
1070
     5
1000
22369135
1002
}
  0
LINE
  5
175
330
16D
100
AcDbEntity
  8
A-POR-___-___-EXI
100
AcDbLine
 10
-380.0000000000078
 20
74.99999999998841
 30
0.0
 11
-380.0000000000078
 21
-74.99999999999913
 31
0.0
1001
REVIT
1002
{
1070
     1
1000
22615920
1002
}
1002
{
1070
     5
1000
22369135
1002
}
  0
LINE
  5
176
330
16D
100
AcDbEntity
  8
A-POR-___-___-EXI
100
AcDbLine
 10
-318.0000000000068
 20
770.999999999986
 30
0.0
 11
-348.0000000000075
 21
770.999999999986
 31
0.0
1001
REVIT
1002
{
1070
     1
1000
22615920
1002
}
1002
{
1070
     5
1000
22369135
1002
}
  0
LINE
  5
177
330
16D
100
AcDbEntity
  8
A-POR-___-___-EXI
100
AcDbLine
 10
-348.0000000000075
 20
770.999999999986
 30
0.0
 11
-348.0000000000086
 21
74.99999999998836
 31
0.0
1001
REVIT
1002
{
1070
     1
1000
22615920
1002
}
1002
{
1070
     5
1000
22369135
1002
}
  0
LINE
  5
178
330
16D
100
AcDbEntity
  8
A-POR-___-___-EXI
100
AcDbLine
 10
-348.0000000000086
 20
74.99999999998836
 30
0.0
 11
-318.0000000000078
 21
74.99999999998832
 31
0.0
1001
REVIT
1002
{
1070
     1
1000
22615920
1002
}
1002
{
1070
     5
1000
22369135
1002
}
  0
LINE
  5
179
330
16D
100
AcDbEntity
  8
A-POR-___-___-EXI
100
AcDbLine
 10
-318.0000000000078
 20
74.99999999998832
 30
0.0
 11
-318.0000000000068
 21
770.999999999986
 31
0.0
1001
REVIT
1002
{
1070
     1
1000
22615920
1002
}
1002
{
1070
     5
1000
22369135
1002
}
  0
ARC
  5
17A
330
16D
100
AcDbEntity
  8
A-JAN-___-___-EXI
100
AcDbCircle
 10
-348.0000000000086
 20
74.99999999998836
 30
0.0
 40
695.9999999999999
100
AcDbArc
 50
359.9999999999995
 51
89.99999999999984
1001
REVIT
1002
{
1070
     1
1000
22615920
1002
}
1002
{
1070
     5
1000
22369135
1002
}
1002
{
1070
     3
1000
-2000027
1002
}
  0
ENDBLK
  5
17C
330
16D
100
AcDbEntity
  8
0
100
AcDbBlockEnd
  0
BLOCK
  5
18D
330
17F
100
AcDbEntity
  8
0
100
AcDbBlockBegin
  2
porta multiplas_original - Simples - 90 cm-22616526-Planta baixa - Térreo_
 70
     0
 10
0.0
 20
0.0
 30
0.0
  3
porta multiplas_original - Simples - 90 cm-22616526-Planta baixa - Térreo_
  1

  0
LINE
  5
180
330
17F
100
AcDbEntity
  8
A-POR-___-___-EXI
100
AcDbLine
 10
-480.0000000000078
 20
-150.0000000009608
 30
0.0
 11
-480.0000000000067
 21
150.0000000000019
 31
0.0
1001
REVIT
1002
{
1070
     1
1000
22616047
1002
}
1002
{
1070
     5
1000
22369137
1002
}
  0
LINE
  5
181
330
17F
100
AcDbEntity
  8
A-POR-___-___-EXI
100
AcDbLine
 10
-450.000000000007
 20
-150.0000000009609
 30
0.0
 11
-480.0000000000078
 21
-150.0000000009608
 31
0.0
1001
REVIT
1002
{
1070
     1
1000
22616047
1002
}
1002
{
1070
     5
1000
22369137
1002
}
  0
LINE
  5
182
330
17F
100
AcDbEntity
  8
A-POR-___-___-EXI
100
AcDbLine
 10
-450.0000000000059
 20
150.0000000000018
 30
0.0
 11
-450.000000000007
 21
-150.0000000009609
 31
0.0
1001
REVIT
1002
{
1070
     1
1000
22616047
1002
}
1002
{
1070
     5
1000
22369137
1002
}
  0
LINE
  5
183
330
17F
100
AcDbEntity
  8
A-POR-___-___-EXI
100
AcDbLine
 10
-480.0000000000067
 20
150.0000000000019
 30
0.0
 11
-450.0000000000059
 21
150.0000000000018
 31
0.0
1001
REVIT
1002
{
1070
     1
1000
22616047
1002
}
1002
{
1070
     5
1000
22369137
1002
}
  0
LINE
  5
184
330
17F
100
AcDbEntity
  8
A-POR-___-___-EXI
100
AcDbLine
 10
449.9999999999929
 20
150.0000000000002
 30
0.0
 11
479.9999999999926
 21
150.0000000000001
 31
0.0
1001
REVIT
1002
{
1070
     1
1000
22616047
1002
}
1002
{
1070
     5
1000
22369137
1002
}
  0
LINE
  5
185
330
17F
100
AcDbEntity
  8
A-POR-___-___-EXI
100
AcDbLine
 10
449.9999999999919
 20
-150.0000000009625
 30
0.0
 11
449.9999999999929
 21
150.0000000000002
 31
0.0
1001
REVIT
1002
{
1070
     1
1000
22616047
1002
}
1002
{
1070
     5
1000
22369137
1002
}
  0
LINE
  5
186
330
17F
100
AcDbEntity
  8
A-POR-___-___-EXI
100
AcDbLine
 10
479.9999999999916
 20
-150.0000000009625
 30
0.0
 11
449.9999999999919
 21
-150.0000000009625
 31
0.0
1001
REVIT
1002
{
1070
     1
1000
22616047
1002
}
1002
{
1070
     5
1000
22369137
1002
}
  0
LINE
  5
187
330
17F
100
AcDbEntity
  8
A-POR-___-___-EXI
100
AcDbLine
 10
479.9999999999926
 20
150.0000000000001
 30
0.0
 11
479.9999999999916
 21
-150.0000000009625
 31
0.0
1001
REVIT
1002
{
1070
     1
1000
22616047
1002
}
1002
{
1070
     5
1000
22369137
1002
}
  0
LINE
  5
188
330
17F
100
AcDbEntity
  8
A-POR-___-___-EXI
100
AcDbLine
 10
-418.0000000000078
 20
-150.0000000009609
 30
0.0
 11
-418.0000000000068
 21
-1046.000000000961
 31
0.0
1001
REVIT
1002
{
1070
     1
1000
22616047
1002
}
1002
{
1070
     5
1000
22369137
1002
}
  0
LINE
  5
189
330
17F
100
AcDbEntity
  8
A-POR-___-___-EXI
100
AcDbLine
 10
-448.0000000000075
 20
-150.0000000009609
 30
0.0
 11
-418.0000000000078
 21
-150.0000000009609
 31
0.0
1001
REVIT
1002
{
1070
     1
1000
22616047
1002
}
1002
{
1070
     5
1000
22369137
1002
}
  0
LINE
  5
18A
330
17F
100
AcDbEntity
  8
A-POR-___-___-EXI
100
AcDbLine
 10
-448.0000000000064
 20
-1046.000000000961
 30
0.0
 11
-448.0000000000075
 21
-150.0000000009609
 31
0.0
1001
REVIT
1002
{
1070
     1
1000
22616047
1002
}
1002
{
1070
     5
1000
22369137
1002
}
  0
LINE
  5
18B
330
17F
100
AcDbEntity
  8
A-POR-___-___-EXI
100
AcDbLine
 10
-418.0000000000068
 20
-1046.000000000961
 30
0.0
 11
-448.0000000000064
 21
-1046.000000000961
 31
0.0
1001
REVIT
1002
{
1070
     1
1000
22616047
1002
}
1002
{
1070
     5
1000
22369137
1002
}
  0
ARC
  5
18C
330
17F
100
AcDbEntity
  8
A-JAN-___-___-EXI
100
AcDbCircle
 10
-448.0000000000075
 20
-150.0000000009609
 30
0.0
 40
895.9999999999981
100
AcDbArc
 50
269.9999999999997
 51
0.0000000000000064
1001
REVIT
1002
{
1070
     1
1000
22616047
1002
}
1002
{
1070
     5
1000
22369137
1002
}
1002
{
1070
     3
1000
-2000027
1002
}
  0
ENDBLK
  5
18E
330
17F
100
AcDbEntity
  8
0
100
AcDbBlockEnd
  0
BLOCK
  5
19E
330
190
100
AcDbEntity
  8
0
100
AcDbBlockBegin
  2
porta multiplas_original - Simples - 90 cm-22616582-Planta baixa - Térreo_
 70
     0
 10
0.0
 20
0.0
 30
0.0
  3
porta multiplas_original - Simples - 90 cm-22616582-Planta baixa - Térreo_
  1

  0
LINE
  5
191
330
190
100
AcDbEntity
  8
A-POR-___-___-EXI
100
AcDbLine
 10
449.9999999999919
 20
74.99999999999994
 30
0.0
 11
479.9999999999916
 21
74.99999999999989
 31
0.0
1001
REVIT
1002
{
1070
     1
1000
22616113
1002
}
1002
{
1070
     5
1000
22369137
1002
}
  0
LINE
  5
192
330
190
100
AcDbEntity
  8
A-POR-___-___-EXI
100
AcDbLine
 10
449.9999999999919
 20
-74.99999999998327
 30
0.0
 11
449.9999999999919
 21
74.99999999999994
 31
0.0
1001
REVIT
1002
{
1070
     1
1000
22616113
1002
}
1002
{
1070
     5
1000
22369137
1002
}
  0
LINE
  5
193
330
190
100
AcDbEntity
  8
A-POR-___-___-EXI
100
AcDbLine
 10
479.9999999999916
 20
-74.99999999998334
 30
0.0
 11
449.9999999999919
 21
-74.99999999998327
 31
0.0
1001
REVIT
1002
{
1070
     1
1000
22616113
1002
}
1002
{
1070
     5
1000
22369137
1002
}
  0
LINE
  5
194
330
190
100
AcDbEntity
  8
A-POR-___-___-EXI
100
AcDbLine
 10
479.9999999999916
 20
74.99999999999989
 30
0.0
 11
479.9999999999916
 21
-74.99999999998334
 31
0.0
1001
REVIT
1002
{
1070
     1
1000
22616113
1002
}
1002
{
1070
     5
1000
22369137
1002
}
  0
LINE
  5
195
330
190
100
AcDbEntity
  8
A-POR-___-___-EXI
100
AcDbLine
 10
-480.0000000000078
 20
-74.99999999998596
 30
0.0
 11
-480.0000000000078
 21
75.00000000000159
 31
0.0
1001
REVIT
1002
{
1070
     1
1000
22616113
1002
}
1002
{
1070
     5
1000
22369137
1002
}
  0
LINE
  5
196
330
190
100
AcDbEntity
  8
A-POR-___-___-EXI
100
AcDbLine
 10
-450.000000000007
 20
-74.99999999998602
 30
0.0
 11
-480.0000000000078
 21
-74.99999999998596
 31
0.0
1001
REVIT
1002
{
1070
     1
1000
22616113
1002
}
1002
{
1070
     5
1000
22369137
1002
}
  0
LINE
  5
197
330
190
100
AcDbEntity
  8
A-POR-___-___-EXI
100
AcDbLine
 10
-450.000000000007
 20
75.00000000000153
 30
0.0
 11
-450.000000000007
 21
-74.99999999998602
 31
0.0
1001
REVIT
1002
{
1070
     1
1000
22616113
1002
}
1002
{
1070
     5
1000
22369137
1002
}
  0
LINE
  5
198
330
190
100
AcDbEntity
  8
A-POR-___-___-EXI
100
AcDbLine
 10
-480.0000000000078
 20
75.00000000000159
 30
0.0
 11
-450.000000000007
 21
75.00000000000153
 31
0.0
1001
REVIT
1002
{
1070
     1
1000
22616113
1002
}
1002
{
1070
     5
1000
22369137
1002
}
  0
LINE
  5
199
330
190
100
AcDbEntity
  8
A-POR-___-___-EXI
100
AcDbLine
 10
-418.0000000000078
 20
-74.99999999998607
 30
0.0
 11
-418.0000000000068
 21
-970.9999999999858
 31
0.0
1001
REVIT
1002
{
1070
     1
1000
22616113
1002
}
1002
{
1070
     5
1000
22369137
1002
}
  0
LINE
  5
19A
330
190
100
AcDbEntity
  8
A-POR-___-___-EXI
100
AcDbLine
 10
-448.0000000000085
 20
-74.99999999998602
 30
0.0
 11
-418.0000000000078
 21
-74.99999999998607
 31
0.0
1001
REVIT
1002
{
1070
     1
1000
22616113
1002
}
1002
{
1070
     5
1000
22369137
1002
}
  0
LINE
  5
19B
330
190
100
AcDbEntity
  8
A-POR-___-___-EXI
100
AcDbLine
 10
-448.0000000000075
 20
-970.9999999999858
 30
0.0
 11
-448.0000000000085
 21
-74.99999999998602
 31
0.0
1001
REVIT
1002
{
1070
     1
1000
22616113
1002
}
1002
{
1070
     5
1000
22369137
1002
}
  0
LINE
  5
19C
330
190
100
AcDbEntity
  8
A-POR-___-___-EXI
100
AcDbLine
 10
-418.0000000000068
 20
-970.9999999999858
 30
0.0
 11
-448.0000000000075
 21
-970.9999999999858
 31
0.0
1001
REVIT
1002
{
1070
     1
1000
22616113
1002
}
1002
{
1070
     5
1000
22369137
1002
}
  0
ARC
  5
19D
330
190
100
AcDbEntity
  8
A-JAN-___-___-EXI
100
AcDbCircle
 10
-448.0000000000085
 20
-74.99999999998602
 30
0.0
 40
895.9999999999984
100
AcDbArc
 50
269.9999999999997
 51
0.0000000000000191
1001
REVIT
1002
{
1070
     1
1000
22616113
1002
}
1002
{
1070
     5
1000
22369137
1002
}
1002
{
1070
     3
1000
-2000027
1002
}
  0
ENDBLK
  5
19F
330
190
100
AcDbEntity
  8
0
100
AcDbBlockEnd
  0
BLOCK
  5
1AF
330
1A1
100
AcDbEntity
  8
0
100
AcDbBlockBegin
  2
porta multiplas_original - Simples - 70 cm-22616731-Planta baixa - Térreo_
 70
     0
 10
0.0
 20
0.0
 30
0.0
  3
porta multiplas_original - Simples - 70 cm-22616731-Planta baixa - Térreo_
  1

  0
LINE
  5
1A2
330
1A1
100
AcDbEntity
  8
A-POR-___-___-EXI
100
AcDbLine
 10
-380.0000000000078
 20
-150.000000000961
 30
0.0
 11
-380.0000000000068
 21
150.0000000000017
 31
0.0
1001
REVIT
1002
{
1070
     1
1000
22616148
1002
}
1002
{
1070
     5
1000
22369135
1002
}
  0
LINE
  5
1A3
330
1A1
100
AcDbEntity
  8
A-POR-___-___-EXI
100
AcDbLine
 10
-350.0000000000071
 20
-150.000000000961
 30
0.0
 11
-380.0000000000078
 21
-150.000000000961
 31
0.0
1001
REVIT
1002
{
1070
     1
1000
22616148
1002
}
1002
{
1070
     5
1000
22369135
1002
}
  0
LINE
  5
1A4
330
1A1
100
AcDbEntity
  8
A-POR-___-___-EXI
100
AcDbLine
 10
-350.000000000006
 20
150.0000000000016
 30
0.0
 11
-350.0000000000071
 21
-150.000000000961
 31
0.0
1001
REVIT
1002
{
1070
     1
1000
22616148
1002
}
1002
{
1070
     5
1000
22369135
1002
}
  0
LINE
  5
1A5
330
1A1
100
AcDbEntity
  8
A-POR-___-___-EXI
100
AcDbLine
 10
-380.0000000000068
 20
150.0000000000017
 30
0.0
 11
-350.000000000006
 21
150.0000000000016
 31
0.0
1001
REVIT
1002
{
1070
     1
1000
22616148
1002
}
1002
{
1070
     5
1000
22369135
1002
}
  0
LINE
  5
1A6
330
1A1
100
AcDbEntity
  8
A-POR-___-___-EXI
100
AcDbLine
 10
349.9999999999919
 20
150.0000000000004
 30
0.0
 11
379.9999999999916
 21
150.0000000000003
 31
0.0
1001
REVIT
1002
{
1070
     1
1000
22616148
1002
}
1002
{
1070
     5
1000
22369135
1002
}
  0
LINE
  5
1A7
330
1A1
100
AcDbEntity
  8
A-POR-___-___-EXI
100
AcDbLine
 10
349.9999999999908
 20
-150.0000000009623
 30
0.0
 11
349.9999999999919
 21
150.0000000000004
 31
0.0
1001
REVIT
1002
{
1070
     1
1000
22616148
1002
}
1002
{
1070
     5
1000
22369135
1002
}
  0
LINE
  5
1A8
330
1A1
100
AcDbEntity
  8
A-POR-___-___-EXI
100
AcDbLine
 10
379.9999999999905
 20
-150.0000000009623
 30
0.0
 11
349.9999999999908
 21
-150.0000000009623
 31
0.0
1001
REVIT
1002
{
1070
     1
1000
22616148
1002
}
1002
{
1070
     5
1000
22369135
1002
}
  0
LINE
  5
1A9
330
1A1
100
AcDbEntity
  8
A-POR-___-___-EXI
100
AcDbLine
 10
379.9999999999916
 20
150.0000000000003
 30
0.0
 11
379.9999999999905
 21
-150.0000000009623
 31
0.0
1001
REVIT
1002
{
1070
     1
1000
22616148
1002
}
1002
{
1070
     5
1000
22369135
1002
}
  0
LINE
  5
1AA
330
1A1
100
AcDbEntity
  8
A-POR-___-___-EXI
100
AcDbLine
 10
-318.0000000000078
 20
-150.0000000009611
 30
0.0
 11
-318.0000000000078
 21
-846.000000000963
 31
0.0
1001
REVIT
1002
{
1070
     1
1000
22616148
1002
}
1002
{
1070
     5
1000
22369135
1002
}
  0
LINE
  5
1AB
330
1A1
100
AcDbEntity
  8
A-POR-___-___-EXI
100
AcDbLine
 10
-348.0000000000075
 20
-150.000000000961
 30
0.0
 11
-318.0000000000078
 21
-150.0000000009611
 31
0.0
1001
REVIT
1002
{
1070
     1
1000
22616148
1002
}
1002
{
1070
     5
1000
22369135
1002
}
  0
LINE
  5
1AC
330
1A1
100
AcDbEntity
  8
A-POR-___-___-EXI
100
AcDbLine
 10
-348.0000000000086
 20
-846.000000000963
 30
0.0
 11
-348.0000000000086
 21
-150.000000000961
 31
0.0
1001
REVIT
1002
{
1070
     1
1000
22616148
1002
}
1002
{
1070
     5
1000
22369135
1002
}
  0
LINE
  5
1AD
330
1A1
100
AcDbEntity
  8
A-POR-___-___-EXI
100
AcDbLine
 10
-318.0000000000078
 20
-846.000000000963
 30
0.0
 11
-348.0000000000086
 21
-846.000000000963
 31
0.0
1001
REVIT
1002
{
1070
     1
1000
22616148
1002
}
1002
{
1070
     5
1000
22369135
1002
}
  0
ARC
  5
1AE
330
1A1
100
AcDbEntity
  8
A-JAN-___-___-EXI
100
AcDbCircle
 10
-348.0000000000075
 20
-150.000000000961
 30
0.0
 40
695.9999999999985
100
AcDbArc
 50
269.9999999999995
 51
359.9999999999996
1001
REVIT
1002
{
1070
     1
1000
22616148
1002
}
1002
{
1070
     5
1000
22369135
1002
}
1002
{
1070
     3
1000
-2000027
1002
}
  0
ENDBLK
  5
1B0
330
1A1
100
AcDbEntity
  8
0
100
AcDbBlockEnd
  0
BLOCK
  5
1C1
330
1B3
100
AcDbEntity
  8
0
100
AcDbBlockBegin
  2
porta multiplas_original - Simples - 60 cm-22616851-Planta baixa - Térreo_
 70
     0
 10
0.0
 20
0.0
 30
0.0
  3
porta multiplas_original - Simples - 60 cm-22616851-Planta baixa - Térreo_
  1

  0
LINE
  5
1B4
330
1B3
100
AcDbEntity
  8
A-POR-___-___-EXI
100
AcDbLine
 10
329.999999999991
 20
-75.00000000000039
 30
0.0
 11
329.999999999991
 21
74.99999999998284
 31
0.0
1001
REVIT
1002
{
1070
     1
1000
22616302
1002
}
1002
{
1070
     5
1000
22369133
1002
}
  0
LINE
  5
1B5
330
1B3
100
AcDbEntity
  8
A-POR-___-___-EXI
100
AcDbLine
 10
329.999999999991
 20
74.99999999998284
 30
0.0
 11
299.9999999999914
 21
74.99999999998287
 31
0.0
1001
REVIT
1002
{
1070
     1
1000
22616302
1002
}
1002
{
1070
     5
1000
22369133
1002
}
  0
LINE
  5
1B6
330
1B3
100
AcDbEntity
  8
A-POR-___-___-EXI
100
AcDbLine
 10
299.9999999999914
 20
74.99999999998287
 30
0.0
 11
299.9999999999914
 21
-75.00000000000034
 31
0.0
1001
REVIT
1002
{
1070
     1
1000
22616302
1002
}
1002
{
1070
     5
1000
22369133
1002
}
  0
LINE
  5
1B7
330
1B3
100
AcDbEntity
  8
A-POR-___-___-EXI
100
AcDbLine
 10
299.9999999999914
 20
-75.00000000000034
 30
0.0
 11
329.999999999991
 21
-75.00000000000039
 31
0.0
1001
REVIT
1002
{
1070
     1
1000
22616302
1002
}
1002
{
1070
     5
1000
22369133
1002
}
  0
LINE
  5
1B8
330
1B3
100
AcDbEntity
  8
A-POR-___-___-EXI
100
AcDbLine
 10
-330.0000000000073
 20
-74.99999999999923
 30
0.0
 11
-300.0000000000076
 21
-74.99999999999928
 31
0.0
1001
REVIT
1002
{
1070
     1
1000
22616302
1002
}
1002
{
1070
     5
1000
22369133
1002
}
  0
LINE
  5
1B9
330
1B3
100
AcDbEntity
  8
A-POR-___-___-EXI
100
AcDbLine
 10
-300.0000000000076
 20
-74.99999999999928
 30
0.0
 11
-300.0000000000076
 21
74.99999999998827
 31
0.0
1001
REVIT
1002
{
1070
     1
1000
22616302
1002
}
1002
{
1070
     5
1000
22369133
1002
}
  0
LINE
  5
1BA
330
1B3
100
AcDbEntity
  8
A-POR-___-___-EXI
100
AcDbLine
 10
-300.0000000000076
 20
74.99999999998827
 30
0.0
 11
-330.0000000000073
 21
74.99999999998833
 31
0.0
1001
REVIT
1002
{
1070
     1
1000
22616302
1002
}
1002
{
1070
     5
1000
22369133
1002
}
  0
LINE
  5
1BB
330
1B3
100
AcDbEntity
  8
A-POR-___-___-EXI
100
AcDbLine
 10
-330.0000000000073
 20
74.99999999998833
 30
0.0
 11
-330.0000000000073
 21
-74.99999999999923
 31
0.0
1001
REVIT
1002
{
1070
     1
1000
22616302
1002
}
1002
{
1070
     5
1000
22369133
1002
}
  0
LINE
  5
1BC
330
1B3
100
AcDbEntity
  8
A-POR-___-___-EXI
100
AcDbLine
 10
-268.0000000000084
 20
670.999999999987
 30
0.0
 11
-298.0000000000091
 21
670.999999999987
 31
0.0
1001
REVIT
1002
{
1070
     1
1000
22616302
1002
}
1002
{
1070
     5
1000
22369133
1002
}
  0
LINE
  5
1BD
330
1B3
100
AcDbEntity
  8
A-POR-___-___-EXI
100
AcDbLine
 10
-298.0000000000091
 20
670.999999999987
 30
0.0
 11
-298.0000000000091
 21
74.99999999998827
 31
0.0
1001
REVIT
1002
{
1070
     1
1000
22616302
1002
}
1002
{
1070
     5
1000
22369133
1002
}
  0
LINE
  5
1BE
330
1B3
100
AcDbEntity
  8
A-POR-___-___-EXI
100
AcDbLine
 10
-298.0000000000091
 20
74.99999999998827
 30
0.0
 11
-268.0000000000084
 21
74.99999999998822
 31
0.0
1001
REVIT
1002
{
1070
     1
1000
22616302
1002
}
1002
{
1070
     5
1000
22369133
1002
}
  0
LINE
  5
1BF
330
1B3
100
AcDbEntity
  8
A-POR-___-___-EXI
100
AcDbLine
 10
-268.0000000000084
 20
74.99999999998822
 30
0.0
 11
-268.0000000000084
 21
670.999999999987
 31
0.0
1001
REVIT
1002
{
1070
     1
1000
22616302
1002
}
1002
{
1070
     5
1000
22369133
1002
}
  0
ARC
  5
1C0
330
1B3
100
AcDbEntity
  8
A-JAN-___-___-EXI
100
AcDbCircle
 10
-298.0000000000091
 20
74.99999999998827
 30
0.0
 40
596.0000000000008
100
AcDbArc
 50
359.9999999999989
 51
89.99999999999932
1001
REVIT
1002
{
1070
     1
1000
22616302
1002
}
1002
{
1070
     5
1000
22369133
1002
}
1002
{
1070
     3
1000
-2000027
1002
}
  0
ENDBLK
  5
1C2
330
1B3
100
AcDbEntity
  8
0
100
AcDbBlockEnd
  0
BLOCK
  5
1D2
330
1C4
100
AcDbEntity
  8
0
100
AcDbBlockBegin
  2
porta multiplas_original - Simples - 60 cm-22616868-Planta baixa - Térreo_
 70
     0
 10
0.0
 20
0.0
 30
0.0
  3
porta multiplas_original - Simples - 60 cm-22616868-Planta baixa - Térreo_
  1

  0
LINE
  5
1C5
330
1C4
100
AcDbEntity
  8
A-POR-___-___-EXI
100
AcDbLine
 10
299.9999999999914
 20
75.00000000000021
 30
0.0
 11
329.999999999991
 21
75.00000000000015
 31
0.0
1001
REVIT
1002
{
1070
     1
1000
22616380
1002
}
1002
{
1070
     5
1000
22369133
1002
}
  0
LINE
  5
1C6
330
1C4
100
AcDbEntity
  8
A-POR-___-___-EXI
100
AcDbLine
 10
299.9999999999914
 20
-74.99999999998301
 30
0.0
 11
299.9999999999914
 21
75.00000000000021
 31
0.0
1001
REVIT
1002
{
1070
     1
1000
22616380
1002
}
1002
{
1070
     5
1000
22369133
1002
}
  0
LINE
  5
1C7
330
1C4
100
AcDbEntity
  8
A-POR-___-___-EXI
100
AcDbLine
 10
329.999999999991
 20
-74.99999999998308
 30
0.0
 11
299.9999999999914
 21
-74.99999999998301
 31
0.0
1001
REVIT
1002
{
1070
     1
1000
22616380
1002
}
1002
{
1070
     5
1000
22369133
1002
}
  0
LINE
  5
1C8
330
1C4
100
AcDbEntity
  8
A-POR-___-___-EXI
100
AcDbLine
 10
329.999999999991
 20
75.00000000000015
 30
0.0
 11
329.999999999991
 21
-74.99999999998308
 31
0.0
1001
REVIT
1002
{
1070
     1
1000
22616380
1002
}
1002
{
1070
     5
1000
22369133
1002
}
  0
LINE
  5
1C9
330
1C4
100
AcDbEntity
  8
A-POR-___-___-EXI
100
AcDbLine
 10
-330.0000000000073
 20
-74.99999999998623
 30
0.0
 11
-330.0000000000073
 21
75.00000000000132
 31
0.0
1001
REVIT
1002
{
1070
     1
1000
22616380
1002
}
1002
{
1070
     5
1000
22369133
1002
}
  0
LINE
  5
1CA
330
1C4
100
AcDbEntity
  8
A-POR-___-___-EXI
100
AcDbLine
 10
-300.0000000000076
 20
-74.99999999998628
 30
0.0
 11
-330.0000000000073
 21
-74.99999999998623
 31
0.0
1001
REVIT
1002
{
1070
     1
1000
22616380
1002
}
1002
{
1070
     5
1000
22369133
1002
}
  0
LINE
  5
1CB
330
1C4
100
AcDbEntity
  8
A-POR-___-___-EXI
100
AcDbLine
 10
-300.0000000000076
 20
75.00000000000127
 30
0.0
 11
-300.0000000000076
 21
-74.99999999998628
 31
0.0
1001
REVIT
1002
{
1070
     1
1000
22616380
1002
}
1002
{
1070
     5
1000
22369133
1002
}
  0
LINE
  5
1CC
330
1C4
100
AcDbEntity
  8
A-POR-___-___-EXI
100
AcDbLine
 10
-330.0000000000073
 20
75.00000000000132
 30
0.0
 11
-300.0000000000076
 21
75.00000000000127
 31
0.0
1001
REVIT
1002
{
1070
     1
1000
22616380
1002
}
1002
{
1070
     5
1000
22369133
1002
}
  0
LINE
  5
1CD
330
1C4
100
AcDbEntity
  8
A-POR-___-___-EXI
100
AcDbLine
 10
-268.0000000000084
 20
-74.99999999998634
 30
0.0
 11
-268.0000000000084
 21
-670.9999999999851
 31
0.0
1001
REVIT
1002
{
1070
     1
1000
22616380
1002
}
1002
{
1070
     5
1000
22369133
1002
}
  0
LINE
  5
1CE
330
1C4
100
AcDbEntity
  8
A-POR-___-___-EXI
100
AcDbLine
 10
-298.0000000000091
 20
-74.99999999998628
 30
0.0
 11
-268.0000000000084
 21
-74.99999999998634
 31
0.0
1001
REVIT
1002
{
1070
     1
1000
22616380
1002
}
1002
{
1070
     5
1000
22369133
1002
}
  0
LINE
  5
1CF
330
1C4
100
AcDbEntity
  8
A-POR-___-___-EXI
100
AcDbLine
 10
-298.0000000000091
 20
-670.9999999999851
 30
0.0
 11
-298.0000000000091
 21
-74.99999999998628
 31
0.0
1001
REVIT
1002
{
1070
     1
1000
22616380
1002
}
1002
{
1070
     5
1000
22369133
1002
}
  0
LINE
  5
1D0
330
1C4
100
AcDbEntity
  8
A-POR-___-___-EXI
100
AcDbLine
 10
-268.0000000000084
 20
-670.9999999999851
 30
0.0
 11
-298.0000000000091
 21
-670.9999999999851
 31
0.0
1001
REVIT
1002
{
1070
     1
1000
22616380
1002
}
1002
{
1070
     5
1000
22369133
1002
}
  0
ARC
  5
1D1
330
1C4
100
AcDbEntity
  8
A-JAN-___-___-EXI
100
AcDbCircle
 10
-298.0000000000091
 20
-74.99999999998628
 30
0.0
 40
595.9999999999983
100
AcDbArc
 50
269.9999999999997
 51
0.0
1001
REVIT
1002
{
1070
     1
1000
22616380
1002
}
1002
{
1070
     5
1000
22369133
1002
}
1002
{
1070
     3
1000
-2000027
1002
}
  0
ENDBLK
  5
1D3
330
1C4
100
AcDbEntity
  8
0
100
AcDbBlockEnd
  0
BLOCK
  5
22C
330
226
100
AcDbEntity
  8
0
100
AcDbBlockBegin
  2
SVG - A4-22645566-Não nomeada
 70
     0
 10
0.0
 20
0.0
 30
0.0
  3
SVG - A4-22645566-Não nomeada
  1

  0
LINE
  5
228
330
226
100
AcDbEntity
  8
A-PIL-___-___-EXI
100
AcDbLine
 10
64.29285070883699
 20
356.4999999999859
 30
0.0
 11
64.29285070883699
 21
59.49999999998593
 31
0.0
1001
REVIT
1002
{
1070
     1
1000
22645587
1002
}
1002
{
1070
     5
1000
22645566
1002
}
1002
{
1070
     3
1000
-2000281
1002
}
  0
LINE
  5
229
330
226
100
AcDbEntity
  8
A-PIL-___-___-EXI
100
AcDbLine
 10
64.29285070883699
 20
59.49999999998593
 30
0.0
 11
274.292850708837
 21
59.49999999998593
 31
0.0
1001
REVIT
1002
{
1070
     1
1000
22645587
1002
}
1002
{
1070
     5
1000
22645566
1002
}
1002
{
1070
     3
1000
-2000281
1002
}
  0
LINE
  5
22A
330
226
100
AcDbEntity
  8
A-PIL-___-___-EXI
100
AcDbLine
 10
274.292850708837
 20
59.49999999998593
 30
0.0
 11
274.292850708837
 21
356.4999999999859
 31
0.0
1001
REVIT
1002
{
1070
     1
1000
22645587
1002
}
1002
{
1070
     5
1000
22645566
1002
}
1002
{
1070
     3
1000
-2000281
1002
}
  0
LINE
  5
22B
330
226
100
AcDbEntity
  8
A-PIL-___-___-EXI
100
AcDbLine
 10
274.292850708837
 20
356.4999999999859
 30
0.0
 11
64.29285070883699
 21
356.4999999999859
 31
0.0
1001
REVIT
1002
{
1070
     1
1000
22645587
1002
}
1002
{
1070
     5
1000
22645566
1002
}
1002
{
1070
     3
1000
-2000281
1002
}
  0
ENDBLK
  5
22D
330
226
100
AcDbEntity
  8
0
100
AcDbBlockEnd
  0
ENDSEC
  0
SECTION
  2
ENTITIES
  0
HATCH
  5
8A
330
70
100
AcDbEntity
  8
A-ALV-___-___-EXI
 62
    11
100
AcDbHatch
 10
0.0
 20
0.0
 30
0.0
210
0.0
220
0.0
230
1.0
  2
SOLID
 70
     1
 71
     0
 91
        1
 92
        1
 93
        4
 72
     1
 10
1929.27356649345
 20
-23900.95687416629
 11
2229.273566493451
 21
-23900.95687416629
 72
     1
 10
2229.273566493451
 20
-23900.95687416629
 11
2229.273566493459
 21
-22200.95687416629
 72
     1
 10
2229.273566493459
 20
-22200.95687416629
 11
1929.273566493458
 21
-22200.95687416629
 72
     1
 10
1929.273566493458
 20
-22200.95687416629
 11
1929.27356649345
 21
-23900.95687416629
 97
        0
 75
     0
 76
     1
 98
        1
 10
0.0
 20
0.0
450
        0
451
        0
460
0.0
461
0.0
452
        0
462
0.0
453
        0
470

1001
REVIT
1002
{
1070
     1
1000
22614499
1002
}
1002
{
1070
     5
1000
22474519
1002
}
1002
{
1070
     2
1000
-2000011
1002
}
1002
{
1070
     3
1000
-2000588
1002
}
  0
HATCH
  5
91
330
70
100
AcDbEntity
  8
A-ALV-___-___-EXI
 62
    11
100
AcDbHatch
 10
0.0
 20
0.0
 30
0.0
210
0.0
220
0.0
230
1.0
  2
SOLID
 70
     1
 71
     0
 91
        1
 92
        1
 93
        6
 72
     1
 10
13429.27356649353
 20
-11040.95687416632
 11
13729.27356649353
 21
-11040.95687416632
 72
     1
 10
13729.27356649353
 20
-11040.95687416632
 11
13729.27356649352
 21
-10740.95687416632
 72
     1
 10
13729.27356649352
 20
-10740.95687416632
 11
2229.273566493521
 21
-10740.9568741663
 72
     1
 10
2229.273566493521
 20
-10740.9568741663
 11
2229.273566493517
 21
-11040.9568741663
 72
     1
 10
2229.273566493517
 20
-11040.9568741663
 11
9929.273566493527
 21
-11040.95687416631
 72
     1
 10
9929.273566493527
 20
-11040.95687416631
 11
13429.27356649353
 21
-11040.95687416632
 97
        0
 75
     0
 76
     1
 98
        1
 10
0.0
 20
0.0
450
        0
451
        0
460
0.0
461
0.0
452
        0
462
0.0
453
        0
470

1001
REVIT
1002
{
1070
     1
1000
22614587
1002
}
1002
{
1070
     5
1000
22474519
1002
}
1002
{
1070
     2
1000
-2000011
1002
}
1002
{
1070
     3
1000
-2000588
1002
}
  0
HATCH
  5
9B
330
70
100
AcDbEntity
  8
A-ALV-___-___-EXI
 62
    11
100
AcDbHatch
 10
0.0
 20
0.0
 30
0.0
210
0.0
220
0.0
230
1.0
  2
SOLID
 70
     1
 71
     0
 91
        2
 92
        1
 93
        5
 72
     1
 10
13429.27356649352
 20
-15740.95687416632
 11
13729.27356649351
 21
-15740.95687416632
 72
     1
 10
13729.27356649351
 20
-15740.95687416632
 11
13729.27356649352
 21
-13190.95687416632
 72
     1
 10
13729.27356649352
 20
-13190.95687416632
 11
13429.27356649352
 21
-13190.95687416632
 72
     1
 10
13429.27356649352
 20
-13190.95687416632
 11
13429.27356649352
 21
-15440.95687416632
 72
     1
 10
13429.27356649352
 20
-15440.95687416632
 11
13429.27356649352
 21
-15740.95687416632
 97
        0
 92
        1
 93
        4
 72
     1
 10
13729.27356649352
 20
-12430.95687416632
 11
13729.27356649353
 21
-11040.95687416632
 72
     1
 10
13729.27356649353
 20
-11040.95687416632
 11
13429.27356649353
 21
-11040.95687416632
 72
     1
 10
13429.27356649353
 20
-11040.95687416632
 11
13429.27356649352
 21
-12430.95687416632
 72
     1
 10
13429.27356649352
 20
-12430.95687416632
 11
13729.27356649352
 21
-12430.95687416632
 97
        0
 75
     0
 76
     1
 98
        1
 10
0.0
 20
0.0
450
        0
451
        0
460
0.0
461
0.0
452
        0
462
0.0
453
        0
470

1001
REVIT
1002
{
1070
     1
1000
22614664
1002
}
1002
{
1070
     5
1000
22474519
1002
}
1002
{
1070
     2
1000
-2000011
1002
}
1002
{
1070
     3
1000
-2000588
1002
}
  0
HATCH
  5
A0
330
70
100
AcDbEntity
  8
A-ALV-___-___-EXI
 62
    11
100
AcDbHatch
 10
0.0
 20
0.0
 30
0.0
210
0.0
220
0.0
230
1.0
  2
SOLID
 70
     1
 71
     0
 91
        1
 92
        1
 93
        4
 72
     1
 10
13429.27356649352
 20
-15740.95687416632
 11
13429.27356649352
 21
-15440.95687416632
 72
     1
 10
13429.27356649352
 20
-15440.95687416632
 11
9929.27356649352
 21
-15440.95687416631
 72
     1
 10
9929.27356649352
 20
-15440.95687416631
 11
9929.273566493518
 21
-15740.95687416631
 72
     1
 10
9929.273566493518
 20
-15740.95687416631
 11
13429.27356649352
 21
-15740.95687416632
 97
        0
 75
     0
 76
     1
 98
        1
 10
0.0
 20
0.0
450
        0
451
        0
460
0.0
461
0.0
452
        0
462
0.0
453
        0
470

1001
REVIT
1002
{
1070
     1
1000
22614729
1002
}
1002
{
1070
     5
1000
22474519
1002
}
1002
{
1070
     2
1000
-2000011
1002
}
1002
{
1070
     3
1000
-2000588
1002
}
  0
HATCH
  5
A9
330
70
100
AcDbEntity
  8
A-ALV-___-___-EXI
 62
    11
100
AcDbHatch
 10
0.0
 20
0.0
 30
0.0
210
0.0
220
0.0
230
1.0
  2
SOLID
 70
     1
 71
     0
 91
        2
 92
        1
 93
        4
 72
     1
 10
9629.27356649352
 20
-16640.95687416632
 11
9929.273566493515
 21
-16640.95687416632
 72
     1
 10
9929.273566493515
 20
-16640.95687416632
 11
9929.27356649352
 21
-15425.95687416631
 72
     1
 10
9929.27356649352
 20
-15425.95687416631
 11
9629.27356649352
 21
-15425.95687416631
 72
     1
 10
9629.27356649352
 20
-15425.95687416631
 11
9629.27356649352
 21
-16640.95687416632
 97
        0
 92
        1
 93
        4
 72
     1
 10
9929.273566493513
 20
-14665.95687416631
 11
9929.273566493527
 21
-11040.95687416631
 72
     1
 10
9929.273566493527
 20
-11040.95687416631
 11
9629.273566493525
 21
-11040.95687416631
 72
     1
 10
9629.273566493525
 20
-11040.95687416631
 11
9629.273566493518
 21
-14665.95687416631
 72
     1
 10
9629.273566493518
 20
-14665.95687416631
 11
9929.273566493513
 21
-14665.95687416631
 97
        0
 75
     0
 76
     1
 98
        1
 10
0.0
 20
0.0
450
        0
451
        0
460
0.0
461
0.0
452
        0
462
0.0
453
        0
470

1001
REVIT
1002
{
1070
     1
1000
22614800
1002
}
1002
{
1070
     5
1000
22474519
1002
}
1002
{
1070
     2
1000
-2000011
1002
}
1002
{
1070
     3
1000
-2000588
1002
}
  0
HATCH
  5
B3
330
70
100
AcDbEntity
  8
A-ALV-___-___-EXI
 62
    11
100
AcDbHatch
 10
0.0
 20
0.0
 30
0.0
210
0.0
220
0.0
230
1.0
  2
SOLID
 70
     1
 71
     0
 91
        2
 92
        1
 93
        4
 72
     1
 10
9519.273566493501
 20
-23900.95687416632
 11
9629.273566493507
 21
-23900.95687416632
 72
     1
 10
9629.273566493507
 20
-23900.95687416632
 11
9629.273566493507
 21
-23600.95687416632
 72
     1
 10
9629.273566493507
 20
-23600.95687416632
 11
9519.273566493501
 21
-23600.95687416632
 72
     1
 10
9519.273566493501
 20
-23600.95687416632
 11
9519.273566493501
 21
-23900.95687416632
 97
        0
 92
        1
 93
        5
 72
     1
 10
8233.794060430215
 20
-23900.95687416631
 11
8559.273566493493
 21
-23900.95687416631
 72
     1
 10
8559.273566493493
 20
-23900.95687416631
 11
8559.273566493494
 21
-23600.95687416631
 72
     1
 10
8559.273566493494
 20
-23600.95687416631
 11
7229.273566493498
 21
-23600.95687416632
 72
     1
 10
7229.273566493498
 20
-23600.95687416632
 11
7229.273566493496
 21
-23900.95687416631
 72
     1
 10
7229.273566493496
 20
-23900.95687416631
 11
8233.794060430215
 21
-23900.95687416631
 97
        0
 75
     0
 76
     1
 98
        1
 10
0.0
 20
0.0
450
        0
451
        0
460
0.0
461
0.0
452
        0
462
0.0
453
        0
470

1001
REVIT
1002
{
1070
     1
1000
22614883
1002
}
1002
{
1070
     5
1000
22474519
1002
}
1002
{
1070
     2
1000
-2000011
1002
}
1002
{
1070
     3
1000
-2000588
1002
}
  0
HATCH
  5
C1
330
70
100
AcDbEntity
  8
A-ALV-___-___-EXI
 62
    11
100
AcDbHatch
 10
0.0
 20
0.0
 30
0.0
210
0.0
220
0.0
230
1.0
  2
SOLID
 70
     1
 71
     0
 91
        3
 92
        1
 93
        5
 72
     1
 10
9629.27356649352
 20
-14490.95687416631
 11
9629.273566493523
 21
-14340.95687416631
 72
     1
 10
9629.273566493523
 20
-14340.95687416631
 11
6739.2735664935
 21
-14340.9568741663
 72
     1
 10
6739.2735664935
 20
-14340.9568741663
 11
6739.2735664935
 21
-14490.9568741663
 72
     1
 10
6739.2735664935
 20
-14490.9568741663
 11
8233.794060430215
 21
-14490.95687416631
 72
     1
 10
8233.794060430215
 20
-14490.95687416631
 11
9629.27356649352
 21
-14490.95687416631
 97
        0
 92
        1
 93
        4
 72
     1
 10
6079.273566493503
 20
-14490.9568741663
 11
6079.273566493503
 21
-14340.9568741663
 72
     1
 10
6079.273566493503
 20
-14340.9568741663
 11
5399.273566493501
 21
-14340.9568741663
 72
     1
 10
5399.273566493501
 20
-14340.9568741663
 11
5399.273566493501
 21
-14490.9568741663
 72
     1
 10
5399.273566493501
 20
-14490.9568741663
 11
6079.273566493503
 21
-14490.9568741663
 97
        0
 92
        1
 93
        4
 72
     1
 10
4739.273566493504
 20
-14490.9568741663
 11
4739.273566493499
 21
-14340.9568741663
 72
     1
 10
4739.273566493499
 20
-14340.9568741663
 11
2229.273566493499
 21
-14340.95687416629
 72
     1
 10
2229.273566493499
 20
-14340.95687416629
 11
2229.273566493499
 21
-14490.95687416629
 72
     1
 10
2229.273566493499
 20
-14490.95687416629
 11
4739.273566493504
 21
-14490.9568741663
 97
        0
 75
     0
 76
     1
 98
        1
 10
0.0
 20
0.0
450
        0
451
        0
460
0.0
461
0.0
452
        0
462
0.0
453
        0
470

1001
REVIT
1002
{
1070
     1
1000
22615034
1002
}
1002
{
1070
     5
1000
3324767
1002
}
1002
{
1070
     2
1000
-2000011
1002
}
1002
{
1070
     3
1000
-2000588
1002
}
  0
HATCH
  5
C6
330
70
100
AcDbEntity
  8
A-ALV-___-___-EXI
 62
    11
100
AcDbHatch
 10
0.0
 20
0.0
 30
0.0
210
0.0
220
0.0
230
1.0
  2
SOLID
 70
     1
 71
     0
 91
        1
 92
        1
 93
        4
 72
     1
 10
5579.2735664935
 20
-14340.9568741663
 11
5579.273566493518
 21
-11040.9568741663
 72
     1
 10
5579.273566493518
 20
-11040.9568741663
 11
5429.273566493517
 21
-11040.9568741663
 72
     1
 10
5429.273566493517
 20
-11040.9568741663
 11
5429.273566493499
 21
-14340.9568741663
 72
     1
 10
5429.273566493499
 20
-14340.9568741663
 11
5579.2735664935
 21
-14340.9568741663
 97
        0
 75
     0
 76
     1
 98
        1
 10
0.0
 20
0.0
450
        0
451
        0
460
0.0
461
0.0
452
        0
462
0.0
453
        0
470

1001
REVIT
1002
{
1070
     1
1000
22615114
1002
}
1002
{
1070
     5
1000
3324767
1002
}
1002
{
1070
     2
1000
-2000011
1002
}
1002
{
1070
     3
1000
-2000588
1002
}
  0
HATCH
  5
D5
330
70
100
AcDbEntity
  8
A-ALV-___-___-EXI
 62
    11
100
AcDbHatch
 10
0.0
 20
0.0
 30
0.0
210
0.0
220
0.0
230
1.0
  2
SOLID
 70
     1
 71
     0
 91
        3
 92
        1
 93
        4
 72
     1
 10
9629.273566493509
 20
-19890.95687416632
 11
9629.273566493509
 21
-19740.95687416632
 72
     1
 10
9629.273566493509
 20
-19740.95687416632
 11
9519.273566493511
 21
-19740.95687416632
 72
     1
 10
9519.273566493511
 20
-19740.95687416632
 11
9519.273566493508
 21
-19890.95687416632
 72
     1
 10
9519.273566493508
 20
-19890.95687416632
 11
9629.273566493509
 21
-19890.95687416632
 97
        0
 92
        1
 93
        5
 72
     1
 10
8233.794060430213
 20
-19890.95687416631
 11
8559.2735664935
 21
-19890.95687416631
 72
     1
 10
8559.2735664935
 20
-19890.95687416631
 11
8559.273566493507
 21
-19740.9568741663
 72
     1
 10
8559.273566493507
 20
-19740.9568741663
 11
3339.273566493477
 21
-19740.95687416629
 72
     1
 10
3339.273566493477
 20
-19740.95687416629
 11
3339.273566493475
 21
-19890.95687416629
 72
     1
 10
3339.273566493475
 20
-19890.95687416629
 11
8233.794060430213
 21
-19890.95687416631
 97
        0
 92
        1
 93
        5
 72
     1
 10
2528.306751147456
 20
-19890.95687416629
 11
2579.273566493475
 21
-19890.95687416629
 72
     1
 10
2579.273566493475
 20
-19890.95687416629
 11
2579.273566493475
 21
-19740.95687416629
 72
     1
 10
2579.273566493475
 20
-19740.95687416629
 11
2229.273566493472
 21
-19740.95687416629
 72
     1
 10
2229.273566493472
 20
-19740.95687416629
 11
2229.273566493472
 21
-19890.95687416629
 72
     1
 10
2229.273566493472
 20
-19890.95687416629
 11
2528.306751147456
 21
-19890.95687416629
 97
        0
 75
     0
 76
     1
 98
        1
 10
0.0
 20
0.0
450
        0
451
        0
460
0.0
461
0.0
452
        0
462
0.0
453
        0
470

1001
REVIT
1002
{
1070
     1
1000
22615208
1002
}
1002
{
1070
     5
1000
3324767
1002
}
1002
{
1070
     2
1000
-2000011
1002
}
1002
{
1070
     3
1000
-2000588
1002
}
  0
HATCH
  5
DE
330
70
100
AcDbEntity
  8
A-ALV-___-___-EXI
 62
    11
100
AcDbHatch
 10
0.0
 20
0.0
 30
0.0
210
0.0
220
0.0
230
1.0
  2
SOLID
 70
     1
 71
     0
 91
        2
 92
        1
 93
        4
 72
     1
 10
5579.273566493477
 20
-19740.9568741663
 11
5729.273566493475
 21
-19740.9568741663
 72
     1
 10
5729.273566493475
 20
-19740.9568741663
 11
5729.273566493478
 21
-19350.9568741663
 72
     1
 10
5729.273566493478
 20
-19350.9568741663
 11
5579.273566493478
 21
-19350.9568741663
 72
     1
 10
5579.273566493478
 20
-19350.9568741663
 11
5579.273566493477
 21
-19740.9568741663
 97
        0
 92
        1
 93
        4
 72
     1
 10
5729.273566493482
 20
-18590.95687416631
 11
5729.273566493489
 21
-16440.9568741663
 72
     1
 10
5729.273566493489
 20
-16440.9568741663
 11
5579.273566493489
 21
-16440.9568741663
 72
     1
 10
5579.273566493489
 20
-16440.9568741663
 11
5579.273566493483
 21
-18590.9568741663
 72
     1
 10
5579.273566493483
 20
-18590.9568741663
 11
5729.273566493482
 21
-18590.95687416631
 97
        0
 75
     0
 76
     1
 98
        1
 10
0.0
 20
0.0
450
        0
451
        0
460
0.0
461
0.0
452
        0
462
0.0
453
        0
470

1001
REVIT
1002
{
1070
     1
1000
22615270
1002
}
1002
{
1070
     5
1000
3324767
1002
}
1002
{
1070
     2
1000
-2000011
1002
}
1002
{
1070
     3
1000
-2000588
1002
}
  0
HATCH
  5
E3
330
70
100
AcDbEntity
  8
A-ALV-___-___-EXI
 62
    11
100
AcDbHatch
 10
0.0
 20
0.0
 30
0.0
210
0.0
220
0.0
230
1.0
  2
SOLID
 70
     1
 71
     0
 91
        1
 92
        1
 93
        4
 72
     1
 10
5579.27356649349
 20
-16590.95687416629
 11
5579.273566493489
 21
-16440.9568741663
 72
     1
 10
5579.273566493489
 20
-16440.9568741663
 11
2229.273566493488
 21
-16440.95687416629
 72
     1
 10
2229.273566493488
 20
-16440.95687416629
 11
2229.273566493486
 21
-16590.95687416629
 72
     1
 10
2229.273566493486
 20
-16590.95687416629
 11
5579.27356649349
 21
-16590.95687416629
 97
        0
 75
     0
 76
     1
 98
        1
 10
0.0
 20
0.0
450
        0
451
        0
460
0.0
461
0.0
452
        0
462
0.0
453
        0
470

1001
REVIT
1002
{
1070
     1
1000
22615334
1002
}
1002
{
1070
     5
1000
3324767
1002
}
1002
{
1070
     2
1000
-2000011
1002
}
1002
{
1070
     3
1000
-2000588
1002
}
  0
HATCH
  5
E8
330
70
100
AcDbEntity
  8
A-ALV-___-___-EXI
 62
    11
100
AcDbHatch
 10
0.0
 20
0.0
 30
0.0
210
0.0
220
0.0
230
1.0
  2
SOLID
 70
     1
 71
     0
 91
        1
 92
        1
 93
        4
 72
     1
 10
2229.273566493464
 20
-21400.95687416629
 11
2229.273566493473
 21
-19180.95687416629
 72
     1
 10
2229.273566493473
 20
-19180.95687416629
 11
1929.273566493472
 21
-19180.95687416628
 72
     1
 10
1929.273566493472
 20
-19180.95687416628
 11
1929.273566493463
 21
-21400.95687416629
 72
     1
 10
1929.273566493463
 20
-21400.95687416629
 11
2229.273566493464
 21
-21400.95687416629
 97
        0
 75
     0
 76
     1
 98
        1
 10
0.0
 20
0.0
450
        0
451
        0
460
0.0
461
0.0
452
        0
462
0.0
453
        0
470

1001
REVIT
1002
{
1070
     1
1000
22617085
1002
}
1002
{
1070
     5
1000
22474519
1002
}
1002
{
1070
     2
1000
-2000011
1002
}
1002
{
1070
     3
1000
-2000588
1002
}
  0
HATCH
  5
ED
330
70
100
AcDbEntity
  8
A-ALV-___-___-EXI
 62
    11
100
AcDbHatch
 10
0.0
 20
0.0
 30
0.0
210
0.0
220
0.0
230
1.0
  2
SOLID
 70
     1
 71
     0
 91
        1
 92
        1
 93
        4
 72
     1
 10
2229.27356649348
 20
-18400.95687416629
 11
2229.273566493505
 21
-13360.9568741663
 72
     1
 10
2229.273566493505
 20
-13360.9568741663
 11
1929.273566493503
 21
-13360.9568741663
 72
     1
 10
1929.273566493503
 20
-13360.9568741663
 11
1929.273566493479
 21
-18400.95687416628
 72
     1
 10
1929.273566493479
 20
-18400.95687416628
 11
2229.27356649348
 21
-18400.95687416629
 97
        0
 75
     0
 76
     1
 98
        1
 10
0.0
 20
0.0
450
        0
451
        0
460
0.0
461
0.0
452
        0
462
0.0
453
        0
470

1001
REVIT
1002
{
1070
     1
1000
22617142
1002
}
1002
{
1070
     5
1000
22474519
1002
}
1002
{
1070
     2
1000
-2000011
1002
}
1002
{
1070
     3
1000
-2000588
1002
}
  0
HATCH
  5
F2
330
70
100
AcDbEntity
  8
A-ALV-___-___-EXI
 62
    11
100
AcDbHatch
 10
0.0
 20
0.0
 30
0.0
210
0.0
220
0.0
230
1.0
  2
SOLID
 70
     1
 71
     0
 91
        1
 92
        1
 93
        4
 72
     1
 10
2229.273566493509
 20
-12540.9568741663
 11
2229.273566493521
 21
-10740.9568741663
 72
     1
 10
2229.273566493521
 20
-10740.9568741663
 11
1929.273566493515
 21
-10740.95687416629
 72
     1
 10
1929.273566493515
 20
-10740.95687416629
 11
1929.273566493507
 21
-12540.9568741663
 72
     1
 10
1929.273566493507
 20
-12540.9568741663
 11
2229.273566493509
 21
-12540.9568741663
 97
        0
 75
     0
 76
     1
 98
        1
 10
0.0
 20
0.0
450
        0
451
        0
460
0.0
461
0.0
452
        0
462
0.0
453
        0
470

1001
REVIT
1002
{
1070
     1
1000
22617406
1002
}
1002
{
1070
     5
1000
22474519
1002
}
1002
{
1070
     2
1000
-2000011
1002
}
1002
{
1070
     3
1000
-2000588
1002
}
  0
HATCH
  5
F8
330
70
100
AcDbEntity
  8
A-ALV-___-___-EXI
 62
    11
100
AcDbHatch
 10
0.0
 20
0.0
 30
0.0
210
0.0
220
0.0
230
1.0
  2
SOLID
 70
     1
 71
     0
 91
        1
 92
        1
 93
        5
 72
     1
 10
9629.273566493509
 20
-21300.95687416632
 11
9929.273566493506
 21
-21300.95687416632
 72
     1
 10
9929.273566493506
 20
-21300.95687416632
 11
9929.273566493513
 21
-17440.95687416632
 72
     1
 10
9929.273566493513
 20
-17440.95687416632
 11
9629.273566493514
 21
-17440.95687416632
 72
     1
 10
9629.273566493514
 20
-17440.95687416632
 11
9629.273566493509
 21
-19890.95687416632
 72
     1
 10
9629.273566493509
 20
-19890.95687416632
 11
9629.273566493509
 21
-21300.95687416632
 97
        0
 75
     0
 76
     1
 98
        1
 10
0.0
 20
0.0
450
        0
451
        0
460
0.0
461
0.0
452
        0
462
0.0
453
        0
470

1001
REVIT
1002
{
1070
     1
1000
22617733
1002
}
1002
{
1070
     5
1000
22474519
1002
}
1002
{
1070
     2
1000
-2000011
1002
}
1002
{
1070
     3
1000
-2000588
1002
}
  0
HATCH
  5
FE
330
70
100
AcDbEntity
  8
A-ALV-___-___-EXI
 62
    11
100
AcDbHatch
 10
0.0
 20
0.0
 30
0.0
210
0.0
220
0.0
230
1.0
  2
SOLID
 70
     1
 71
     0
 91
        1
 92
        1
 93
        5
 72
     1
 10
9629.273566493507
 20
-23900.95687416632
 11
9929.273566493503
 21
-23900.95687416632
 72
     1
 10
9929.273566493503
 20
-23900.95687416632
 11
9929.273566493506
 21
-22200.95687416632
 72
     1
 10
9929.273566493506
 20
-22200.95687416632
 11
9629.273566493505
 21
-22200.95687416632
 72
     1
 10
9629.273566493505
 20
-22200.95687416632
 11
9629.273566493507
 21
-23600.95687416632
 72
     1
 10
9629.273566493507
 20
-23600.95687416632
 11
9629.273566493507
 21
-23900.95687416632
 97
        0
 75
     0
 76
     1
 98
        1
 10
0.0
 20
0.0
450
        0
451
        0
460
0.0
461
0.0
452
        0
462
0.0
453
        0
470

1001
REVIT
1002
{
1070
     1
1000
22617980
1002
}
1002
{
1070
     5
1000
22474519
1002
}
1002
{
1070
     2
1000
-2000011
1002
}
1002
{
1070
     3
1000
-2000588
1002
}
  0
HATCH
  5
103
330
70
100
AcDbEntity
  8
A-ALV-___-___-EXI
 62
    11
100
AcDbHatch
 10
0.0
 20
0.0
 30
0.0
210
0.0
220
0.0
230
1.0
  2
SOLID
 70
     1
 71
     0
 91
        1
 92
        1
 93
        4
 72
     1
 10
7229.273566493496
 20
-23900.95687416631
 11
7229.273566493495
 21
-23750.95687416632
 72
     1
 10
7229.273566493495
 20
-23750.95687416632
 11
6229.273566493493
 21
-23750.9568741663
 72
     1
 10
6229.273566493493
 20
-23750.9568741663
 11
6229.273566493494
 21
-23900.9568741663
 72
     1
 10
6229.273566493494
 20
-23900.9568741663
 11
7229.273566493496
 21
-23900.95687416631
 97
        0
 75
     0
 76
     1
 98
        1
 10
0.0
 20
0.0
450
        0
451
        0
460
0.0
461
0.0
452
        0
462
0.0
453
        0
470

1001
REVIT
1002
{
1070
     1
1000
22618106
1002
}
1002
{
1070
     5
1000
3324767
1002
}
1002
{
1070
     2
1000
-2000011
1002
}
1002
{
1070
     3
1000
-2000588
1002
}
  0
HATCH
  5
10D
330
70
100
AcDbEntity
  8
A-ALV-___-___-EXI
 62
    11
100
AcDbHatch
 10
0.0
 20
0.0
 30
0.0
210
0.0
220
0.0
230
1.0
  2
SOLID
 70
     1
 71
     0
 91
        2
 92
        1
 93
        4
 72
     1
 10
6229.273566493499
 20
-23900.9568741663
 11
6229.273566493498
 21
-23600.95687416631
 72
     1
 10
6229.273566493498
 20
-23600.95687416631
 11
3579.273566493455
 21
-23600.9568741663
 72
     1
 10
3579.273566493455
 20
-23600.9568741663
 11
3579.273566493456
 21
-23900.95687416629
 72
     1
 10
3579.273566493456
 20
-23900.95687416629
 11
6229.273566493499
 21
-23900.9568741663
 97
        0
 92
        1
 93
        5
 72
     1
 10
2619.273566493454
 20
-23900.95687416629
 11
2619.273566493455
 21
-23600.9568741663
 72
     1
 10
2619.273566493455
 20
-23600.9568741663
 11
2229.273566493454
 21
-23600.9568741663
 72
     1
 10
2229.273566493454
 20
-23600.9568741663
 11
2229.273566493451
 21
-23900.95687416629
 72
     1
 10
2229.273566493451
 20
-23900.95687416629
 11
2528.306751147453
 21
-23900.95687416629
 72
     1
 10
2528.306751147453
 20
-23900.95687416629
 11
2619.273566493454
 21
-23900.95687416629
 97
        0
 75
     0
 76
     1
 98
        1
 10
0.0
 20
0.0
450
        0
451
        0
460
0.0
461
0.0
452
        0
462
0.0
453
        0
470

1001
REVIT
1002
{
1070
     1
1000
22618186
1002
}
1002
{
1070
     5
1000
22474519
1002
}
1002
{
1070
     2
1000
-2000011
1002
}
1002
{
1070
     3
1000
-2000588
1002
}
  0
LINE
  5
110
330
70
100
AcDbEntity
  8
A-ALV-___-___-EXI
 62
     7
370
    35
100
AcDbLine
 10
2229.273566493448
 20
-22200.95687416629
 30
0.0
 11
1929.273566493447
 21
-22200.95687416629
 31
0.0
1001
REVIT
1002
{
1070
     1
1000
22614499
1002
}
1002
{
1070
     5
1000
22474519
1002
}
1002
{
1070
     2
1000
-2000011
1002
}
  0
LINE
  5
11D
330
70
100
AcDbEntity
  8
A-POR-___-___-EXI
 62
   250
100
AcDbLine
 10
13429.2735664935
 20
-13160.95687416633
 30
0.0
 11
13429.2735664935
 21
-12492.95687416633
 31
0.0
1001
REVIT
1002
{
1070
     1
1000
22614664
1002
}
1002
{
1070
     5
1000
22474519
1002
}
1002
{
1070
     2
1000
-2000011
1002
}
  0
LINE
  5
11E
330
70
100
AcDbEntity
  8
A-ALV-___-___-EXI
 62
   250
100
AcDbLine
 10
13429.2735664935
 20
-12462.95687416633
 30
0.0
 11
13429.2735664935
 21
-12460.95687416633
 31
0.0
1001
REVIT
1002
{
1070
     1
1000
22614664
1002
}
1002
{
1070
     5
1000
22474519
1002
}
1002
{
1070
     2
1000
-2000011
1002
}
  0
LINE
  5
11F
330
70
100
AcDbEntity
  8
A-POR-___-___-EXI
 62
   250
100
AcDbLine
 10
13729.2735664935
 20
-12460.95687416633
 30
0.0
 11
13729.2735664935
 21
-13160.95687416633
 31
0.0
1001
REVIT
1002
{
1070
     1
1000
22614664
1002
}
1002
{
1070
     5
1000
22474519
1002
}
1002
{
1070
     2
1000
-2000011
1002
}
  0
LINE
  5
125
330
70
100
AcDbEntity
  8
A-ALV-___-___-EXI
 62
     7
370
    35
100
AcDbLine
 10
9629.273566493498
 20
-15425.95687416632
 30
0.0
 11
9629.273566493495
 21
-16640.95687416633
 31
0.0
1001
REVIT
1002
{
1070
     1
1000
22614800
1002
}
1002
{
1070
     5
1000
22474519
1002
}
1002
{
1070
     2
1000
-2000011
1002
}
  0
LINE
  5
129
330
70
100
AcDbEntity
  8
A-POR-___-___-EXI
 62
   250
100
AcDbLine
 10
9629.273566493498
 20
-15395.95687416632
 30
0.0
 11
9629.273566493495
 21
-14695.95687416632
 31
0.0
1001
REVIT
1002
{
1070
     1
1000
22614800
1002
}
1002
{
1070
     5
1000
22474519
1002
}
1002
{
1070
     2
1000
-2000011
1002
}
  0
LINE
  5
12A
330
70
100
AcDbEntity
  8
A-POR-___-___-EXI
 62
   250
100
AcDbLine
 10
9929.273566493495
 20
-14695.95687416632
 30
0.0
 11
9929.273566493499
 21
-15363.95687416632
 31
0.0
1001
REVIT
1002
{
1070
     1
1000
22614800
1002
}
1002
{
1070
     5
1000
22474519
1002
}
1002
{
1070
     2
1000
-2000011
1002
}
  0
LINE
  5
12B
330
70
100
AcDbEntity
  8
A-ALV-___-___-EXI
 62
   250
100
AcDbLine
 10
9929.273566493499
 20
-15393.95687416632
 30
0.0
 11
9929.273566493499
 21
-15395.95687416632
 31
0.0
1001
REVIT
1002
{
1070
     1
1000
22614800
1002
}
1002
{
1070
     5
1000
22474519
1002
}
1002
{
1070
     2
1000
-2000011
1002
}
  0
LINE
  5
12E
330
70
100
AcDbEntity
  8
A-ALV-___-___-EXI
 62
     7
370
    35
100
AcDbLine
 10
8559.273566493478
 20
-23600.95687416631
 30
0.0
 11
7229.273566493481
 21
-23600.95687416631
 31
0.0
1001
REVIT
1002
{
1070
     1
1000
22614883
1002
}
1002
{
1070
     5
1000
22474519
1002
}
1002
{
1070
     2
1000
-2000011
1002
}
  0
LINE
  5
131
330
70
100
AcDbEntity
  8
A-POR-___-___-EXI
 62
   250
100
AcDbLine
 10
8589.273566493478
 20
-23600.95687416631
 30
0.0
 11
9457.273566493476
 21
-23600.95687416632
 31
0.0
1001
REVIT
1002
{
1070
     1
1000
22614883
1002
}
1002
{
1070
     5
1000
22474519
1002
}
1002
{
1070
     2
1000
-2000011
1002
}
  0
LINE
  5
132
330
70
100
AcDbEntity
  8
A-ALV-___-___-EXI
 62
   250
100
AcDbLine
 10
9487.273566493479
 20
-23600.95687416632
 30
0.0
 11
9489.273566493478
 21
-23600.95687416632
 31
0.0
1001
REVIT
1002
{
1070
     1
1000
22614883
1002
}
1002
{
1070
     5
1000
22474519
1002
}
1002
{
1070
     2
1000
-2000011
1002
}
  0
LINE
  5
133
330
70
100
AcDbEntity
  8
A-POR-___-___-EXI
 62
   250
100
AcDbLine
 10
9489.273566493478
 20
-23900.95687416632
 30
0.0
 11
8589.27356649348
 21
-23900.95687416631
 31
0.0
1001
REVIT
1002
{
1070
     1
1000
22614883
1002
}
1002
{
1070
     5
1000
22474519
1002
}
1002
{
1070
     2
1000
-2000011
1002
}
  0
LINE
  5
138
330
70
100
AcDbEntity
  8
A-ALV-___-___-EXI
 62
     7
370
    35
100
AcDbLine
 10
5399.273566493484
 20
-14490.95687416631
 30
0.0
 11
6079.273566493485
 21
-14490.95687416631
 31
0.0
1001
REVIT
1002
{
1070
     1
1000
22615034
1002
}
1002
{
1070
     5
1000
3324767
1002
}
1002
{
1070
     2
1000
-2000011
1002
}
  0
LINE
  5
13B
330
70
100
AcDbEntity
  8
A-POR-___-___-EXI
 62
   250
100
AcDbLine
 10
4769.273566493484
 20
-14340.9568741663
 30
0.0
 11
5337.273566493485
 21
-14340.95687416631
 31
0.0
1001
REVIT
1002
{
1070
     1
1000
22615034
1002
}
1002
{
1070
     5
1000
3324767
1002
}
1002
{
1070
     2
1000
-2000011
1002
}
  0
LINE
  5
13C
330
70
100
AcDbEntity
  8
A-ALV-___-___-EXI
 62
   250
100
AcDbLine
 10
5367.273566493487
 20
-14340.95687416631
 30
0.0
 11
5369.273566493482
 21
-14340.95687416631
 31
0.0
1001
REVIT
1002
{
1070
     1
1000
22615034
1002
}
1002
{
1070
     5
1000
3324767
1002
}
1002
{
1070
     2
1000
-2000011
1002
}
  0
LINE
  5
13D
330
70
100
AcDbEntity
  8
A-ALV-___-___-EXI
 62
   250
100
AcDbLine
 10
6109.273566493487
 20
-14340.95687416631
 30
0.0
 11
6111.273566493482
 21
-14340.95687416631
 31
0.0
1001
REVIT
1002
{
1070
     1
1000
22615034
1002
}
1002
{
1070
     5
1000
3324767
1002
}
1002
{
1070
     2
1000
-2000011
1002
}
  0
LINE
  5
13E
330
70
100
AcDbEntity
  8
A-POR-___-___-EXI
 62
   250
100
AcDbLine
 10
6141.273566493484
 20
-14340.95687416631
 30
0.0
 11
6709.273566493481
 21
-14340.95687416631
 31
0.0
1001
REVIT
1002
{
1070
     1
1000
22615034
1002
}
1002
{
1070
     5
1000
3324767
1002
}
1002
{
1070
     2
1000
-2000011
1002
}
  0
LINE
  5
13F
330
70
100
AcDbEntity
  8
A-POR-___-___-EXI
 62
   250
100
AcDbLine
 10
6709.273566493485
 20
-14490.95687416631
 30
0.0
 11
6109.273566493484
 21
-14490.95687416631
 31
0.0
1001
REVIT
1002
{
1070
     1
1000
22615034
1002
}
1002
{
1070
     5
1000
3324767
1002
}
1002
{
1070
     2
1000
-2000011
1002
}
  0
LINE
  5
140
330
70
100
AcDbEntity
  8
A-POR-___-___-EXI
 62
   250
100
AcDbLine
 10
5369.273566493487
 20
-14490.95687416631
 30
0.0
 11
4769.273566493484
 21
-14490.9568741663
 31
0.0
1001
REVIT
1002
{
1070
     1
1000
22615034
1002
}
1002
{
1070
     5
1000
3324767
1002
}
1002
{
1070
     2
1000
-2000011
1002
}
  0
LINE
  5
147
330
70
100
AcDbEntity
  8
A-ALV-___-___-EXI
 62
     7
370
    35
100
AcDbLine
 10
3339.273566493462
 20
-19890.95687416629
 30
0.0
 11
8559.273566493486
 21
-19890.95687416631
 31
0.0
1001
REVIT
1002
{
1070
     1
1000
22615208
1002
}
1002
{
1070
     5
1000
3324767
1002
}
1002
{
1070
     2
1000
-2000011
1002
}
  0
LINE
  5
14A
330
70
100
AcDbEntity
  8
A-POR-___-___-EXI
 62
   250
100
AcDbLine
 10
2609.273566493461
 20
-19740.95687416629
 30
0.0
 11
2611.273566493459
 21
-19740.95687416629
 31
0.0
1001
REVIT
1002
{
1070
     1
1000
22615208
1002
}
1002
{
1070
     5
1000
3324767
1002
}
1002
{
1070
     2
1000
-2000011
1002
}
  0
LINE
  5
14B
330
70
100
AcDbEntity
  8
A-POR-___-___-EXI
 62
   250
100
AcDbLine
 10
2641.273566493459
 20
-19740.95687416629
 30
0.0
 11
3309.27356649346
 21
-19740.95687416629
 31
0.0
1001
REVIT
1002
{
1070
     1
1000
22615208
1002
}
1002
{
1070
     5
1000
3324767
1002
}
1002
{
1070
     2
1000
-2000011
1002
}
  0
LINE
  5
14C
330
70
100
AcDbEntity
  8
A-POR-___-___-EXI
 62
   250
100
AcDbLine
 10
8589.273566493487
 20
-19740.95687416631
 30
0.0
 11
9457.273566493482
 21
-19740.95687416632
 31
0.0
1001
REVIT
1002
{
1070
     1
1000
22615208
1002
}
1002
{
1070
     5
1000
3324767
1002
}
1002
{
1070
     2
1000
-2000011
1002
}
  0
LINE
  5
14D
330
70
100
AcDbEntity
  8
A-ALV-___-___-EXI
 62
   250
100
AcDbLine
 10
9487.273566493483
 20
-19740.95687416632
 30
0.0
 11
9489.27356649348
 21
-19740.95687416632
 31
0.0
1001
REVIT
1002
{
1070
     1
1000
22615208
1002
}
1002
{
1070
     5
1000
3324767
1002
}
1002
{
1070
     2
1000
-2000011
1002
}
  0
LINE
  5
14E
330
70
100
AcDbEntity
  8
A-POR-___-___-EXI
 62
   250
100
AcDbLine
 10
9489.273566493483
 20
-19890.95687416632
 30
0.0
 11
8589.273566493485
 21
-19890.95687416631
 31
0.0
1001
REVIT
1002
{
1070
     1
1000
22615208
1002
}
1002
{
1070
     5
1000
3324767
1002
}
1002
{
1070
     2
1000
-2000011
1002
}
  0
LINE
  5
14F
330
70
100
AcDbEntity
  8
A-POR-___-___-EXI
 62
   250
100
AcDbLine
 10
3309.27356649346
 20
-19890.95687416629
 30
0.0
 11
2609.273566493461
 21
-19890.95687416629
 31
0.0
1001
REVIT
1002
{
1070
     1
1000
22615208
1002
}
1002
{
1070
     5
1000
3324767
1002
}
1002
{
1070
     2
1000
-2000011
1002
}
  0
LINE
  5
155
330
70
100
AcDbEntity
  8
A-POR-___-___-EXI
 62
   250
100
AcDbLine
 10
5729.273566493464
 20
-18620.95687416631
 30
0.0
 11
5729.273566493461
 21
-19320.95687416631
 31
0.0
1001
REVIT
1002
{
1070
     1
1000
22615270
1002
}
1002
{
1070
     5
1000
3324767
1002
}
1002
{
1070
     2
1000
-2000011
1002
}
  0
LINE
  5
156
330
70
100
AcDbEntity
  8
A-ALV-___-___-EXI
 62
   250
100
AcDbLine
 10
5579.273566493461
 20
-19320.95687416631
 30
0.0
 11
5579.273566493461
 21
-19318.95687416631
 31
0.0
1001
REVIT
1002
{
1070
     1
1000
22615270
1002
}
1002
{
1070
     5
1000
3324767
1002
}
1002
{
1070
     2
1000
-2000011
1002
}
  0
LINE
  5
157
330
70
100
AcDbEntity
  8
A-POR-___-___-EXI
 62
   250
100
AcDbLine
 10
5579.273566493461
 20
-19288.95687416631
 30
0.0
 11
5579.273566493464
 21
-18620.95687416631
 31
0.0
1001
REVIT
1002
{
1070
     1
1000
22615270
1002
}
1002
{
1070
     5
1000
3324767
1002
}
1002
{
1070
     2
1000
-2000011
1002
}
  0
INSERT
  5
16C
330
70
100
AcDbEntity
  8
A-POR-___-___-EXI
100
AcDbBlockReference
  2
porta multiplas_original - Simples - 90 cm-22616581-Planta baixa - Térreo_
 10
3099.273566493446
 20
-23750.9568741663
 30
0.0
1001
REVIT
1002
{
1070
     1
1000
22615759
1002
}
1002
{
1070
     5
1000
22369137
1002
}
1002
{
1070
     2
1000
-2000023
1002
}
  0
INSERT
  5
17D
330
70
100
AcDbEntity
  8
A-POR-___-___-EXI
100
AcDbBlockReference
  2
porta multiplas_original - Simples - 70 cm-22616893-Planta baixa - Térreo_
 10
2959.27356649347
 20
-19815.95687416629
 30
0.0
1001
REVIT
1002
{
1070
     1
1000
22615920
1002
}
1002
{
1070
     5
1000
22369135
1002
}
1002
{
1070
     2
1000
-2000023
1002
}
  0
INSERT
  5
17E
330
70
100
AcDbEntity
  8
A-POR-___-___-EXI
100
AcDbBlockReference
  2
porta multiplas_original - Simples - 70 cm-22616893-Planta baixa - Térreo_
 10
5654.273566493461
 20
-18970.9568741663
 30
0.0
 50
89.99999999999971
1001
REVIT
1002
{
1070
     1
1000
22615983
1002
}
1002
{
1070
     5
1000
22369135
1002
}
1002
{
1070
     2
1000
-2000023
1002
}
  0
INSERT
  5
18F
330
70
100
AcDbEntity
  8
A-POR-___-___-EXI
100
AcDbBlockReference
  2
porta multiplas_original - Simples - 90 cm-22616526-Planta baixa - Térreo_
 10
9039.273566493468
 20
-23750.95687416632
 30
0.0
 50
180.0
1001
REVIT
1002
{
1070
     1
1000
22616047
1002
}
1002
{
1070
     5
1000
22369137
1002
}
1002
{
1070
     2
1000
-2000023
1002
}
  0
INSERT
  5
1A0
330
70
100
AcDbEntity
  8
A-POR-___-___-EXI
100
AcDbBlockReference
  2
porta multiplas_original - Simples - 90 cm-22616582-Planta baixa - Térreo_
 10
9039.273566493477
 20
-19815.95687416632
 30
0.0
 50
180.0
1001
REVIT
1002
{
1070
     1
1000
22616113
1002
}
1002
{
1070
     5
1000
22369137
1002
}
1002
{
1070
     2
1000
-2000023
1002
}
  0
INSERT
  5
1B1
330
70
100
AcDbEntity
  8
A-POR-___-___-EXI
100
AcDbBlockReference
  2
porta multiplas_original - Simples - 70 cm-22616731-Planta baixa - Térreo_
 10
9779.273566493495
 20
-15045.95687416631
 30
0.0
 50
89.99999999999991
1001
REVIT
1002
{
1070
     1
1000
22616148
1002
}
1002
{
1070
     5
1000
22369135
1002
}
1002
{
1070
     2
1000
-2000023
1002
}
  0
INSERT
  5
1B2
330
70
100
AcDbEntity
  8
A-POR-___-___-EXI
100
AcDbBlockReference
  2
porta multiplas_original - Simples - 70 cm-22616731-Planta baixa - Térreo_
 10
13579.27356649349
 20
-12810.95687416634
 30
0.0
 50
269.9999999999999
1001
REVIT
1002
{
1070
     1
1000
22616210
1002
}
1002
{
1070
     5
1000
22369135
1002
}
1002
{
1070
     2
1000
-2000023
1002
}
  0
INSERT
  5
1C3
330
70
100
AcDbEntity
  8
A-POR-___-___-EXI
100
AcDbBlockReference
  2
porta multiplas_original - Simples - 60 cm-22616851-Planta baixa - Térreo_
 10
6409.273566493492
 20
-14415.95687416631
 30
0.0
1001
REVIT
1002
{
1070
     1
1000
22616302
1002
}
1002
{
1070
     5
1000
22369133
1002
}
1002
{
1070
     2
1000
-2000023
1002
}
  0
INSERT
  5
1D4
330
70
100
AcDbEntity
  8
A-POR-___-___-EXI
100
AcDbBlockReference
  2
porta multiplas_original - Simples - 60 cm-22616868-Planta baixa - Térreo_
 10
5069.273566493477
 20
-14415.9568741663
 30
0.0
 50
180.0
1001
REVIT
1002
{
1070
     1
1000
22616380
1002
}
1002
{
1070
     5
1000
22369133
1002
}
1002
{
1070
     2
1000
-2000023
1002
}
  0
LINE
  5
1D7
330
70
100
AcDbEntity
  8
A-ALV-___-___-EXI
 62
     7
370
    35
100
AcDbLine
 10
2229.273566493464
 20
-19180.95687416629
 30
0.0
 11
1929.273566493463
 21
-19180.95687416629
 31
0.0
1001
REVIT
1002
{
1070
     1
1000
22617085
1002
}
1002
{
1070
     5
1000
22474519
1002
}
1002
{
1070
     2
1000
-2000011
1002
}
  0
LINE
  5
1DD
330
70
100
AcDbEntity
  8
A-ALV-___-___-EXI
 62
     7
370
    35
100
AcDbLine
 10
2229.273566493491
 20
-13360.95687416631
 30
0.0
 11
1929.27356649349
 21
-13360.95687416631
 31
0.0
1001
REVIT
1002
{
1070
     1
1000
22617142
1002
}
1002
{
1070
     5
1000
22474519
1002
}
1002
{
1070
     2
1000
-2000011
1002
}
  0
LINE
  5
1E6
330
70
100
AcDbEntity
  8
A-ALV-___-___-EXI
 62
     7
370
    35
100
AcDbLine
 10
9629.273566493482
 20
-21300.95687416632
 30
0.0
 11
9929.273566493483
 21
-21300.95687416632
 31
0.0
1001
REVIT
1002
{
1070
     1
1000
22617733
1002
}
1002
{
1070
     5
1000
22474519
1002
}
1002
{
1070
     2
1000
-2000011
1002
}
  0
LINE
  5
1F0
330
70
100
AcDbEntity
  8
A-ALV-___-___-EXI
 62
     7
370
    35
100
AcDbLine
 10
3579.273566493439
 20
-23900.9568741663
 30
0.0
 11
8559.273566493478
 21
-23900.95687416631
 31
0.0
1001
REVIT
1002
{
1070
     1
1000
22618186
1002
}
1002
{
1070
     5
1000
22474519
1002
}
1002
{
1070
     2
1000
-2000011
1002
}
  0
LINE
  5
1F4
330
70
100
AcDbEntity
  8
A-ALV-___-___-EXI
 62
   250
100
AcDbLine
 10
2649.27356649344
 20
-23600.9568741663
 30
0.0
 11
2651.273566493437
 21
-23600.9568741663
 31
0.0
1001
REVIT
1002
{
1070
     1
1000
22618186
1002
}
1002
{
1070
     5
1000
22474519
1002
}
1002
{
1070
     2
1000
-2000011
1002
}
  0
LINE
  5
1F5
330
70
100
AcDbEntity
  8
A-POR-___-___-EXI
 62
   250
100
AcDbLine
 10
2681.273566493436
 20
-23600.9568741663
 30
0.0
 11
3549.273566493438
 21
-23600.9568741663
 31
0.0
1001
REVIT
1002
{
1070
     1
1000
22618186
1002
}
1002
{
1070
     5
1000
22474519
1002
}
1002
{
1070
     2
1000
-2000011
1002
}
  0
LINE
  5
1F6
330
70
100
AcDbEntity
  8
A-POR-___-___-EXI
 62
   250
100
AcDbLine
 10
3549.273566493437
 20
-23900.9568741663
 30
0.0
 11
2649.273566493438
 21
-23900.95687416629
 31
0.0
1001
REVIT
1002
{
1070
     1
1000
22618186
1002
}
1002
{
1070
     5
1000
22474519
1002
}
1002
{
1070
     2
1000
-2000011
1002
}
  0
LWPOLYLINE
  5
258
330
70
100
AcDbEntity
  8
A-ALV-___-___-EXI
100
AcDbPolyline
 90
        4
 70
     1
 43
0.0
 10
3079.273566493483
 20
-15450.9568741663
 10
4529.273566493478
 20
-15450.9568741663
 10
4529.273566493482
 20
-14490.9568741663
 10
3079.273566493488
 20
-14490.9568741663
1001
REVIT
1002
{
1070
     1
1000
22643200
1002
}
1002
{
1070
     2
1000
-2000051
1002
}
1002
{
1070
     3
1000
-2000042
1002
}
  0
LWPOLYLINE
  5
259
330
70
100
AcDbEntity
  8
A-ALV-___-___-EXI
100
AcDbPolyline
 90
        4
 70
     0
 43
0.0
 10
4679.273566493487
 20
-14490.9568741663
 10
4679.273566493479
 20
-15600.9568741663
 10
2929.273566493479
 20
-15600.95687416629
 10
2929.273566493487
 20
-14490.9568741663
1001
REVIT
1002
{
1070
     1
1000
22643196
1002
}
1002
{
1070
     2
1000
-2000051
1002
}
1002
{
1070
     3
1000
-2000042
1002
}
  0
LWPOLYLINE
  5
25A
330
70
100
AcDbEntity
  8
A-JAN-___-___-EXI
100
AcDbPolyline
 90
        4
 70
     1
 43
0.0
 10
2229.273566493451
 20
-21360.95687416629
 10
2929.273566493453
 20
-21360.95687416629
 10
2929.273566493453
 20
-21400.95687416629
 10
2229.273566493451
 20
-21400.95687416629
1001
REVIT
1002
{
1070
     1
1000
22643186
1002
}
1002
{
1070
     2
1000
-2000051
1002
}
1002
{
1070
     3
1000
-2000042
1002
}
  0
LWPOLYLINE
  5
25B
330
70
100
AcDbEntity
  8
A-JAN-___-___-EXI
100
AcDbPolyline
 90
        4
 70
     1
 43
0.0
 10
2229.273566493465
 20
-18360.95687416629
 10
2849.273566493465
 20
-18360.95687416629
 10
2849.273566493465
 20
-18400.95687416629
 10
2229.273566493465
 20
-18400.95687416629
1001
REVIT
1002
{
1070
     1
1000
22643182
1002
}
1002
{
1070
     2
1000
-2000051
1002
}
1002
{
1070
     3
1000
-2000042
1002
}
  0
LWPOLYLINE
  5
25C
330
70
100
AcDbEntity
  8
A-JAN-___-___-EXI
100
AcDbPolyline
 90
        4
 70
     1
 43
0.0
 10
2229.273566493496
 20
-12495.95687416632
 10
2849.273566493496
 20
-12495.95687416632
 10
2849.273566493496
 20
-12540.95687416631
 10
2229.273566493496
 20
-12540.95687416631
1001
REVIT
1002
{
1070
     1
1000
22643178
1002
}
1002
{
1070
     2
1000
-2000051
1002
}
1002
{
1070
     3
1000
-2000042
1002
}
  0
LWPOLYLINE
  5
25D
330
70
100
AcDbEntity
  8
A-JAN-___-___-EXI
100
AcDbPolyline
 90
        4
 70
     1
 43
0.0
 10
9629.273566493498
 20
-16584.42766783823
 10
8909.273566493505
 20
-16584.42766783822
 10
8909.273566493505
 20
-16640.95687416632
 10
9629.273566493498
 20
-16640.95687416633
1001
REVIT
1002
{
1070
     1
1000
22643174
1002
}
1002
{
1070
     2
1000
-2000051
1002
}
1002
{
1070
     3
1000
-2000042
1002
}
  0
LWPOLYLINE
  5
25E
330
70
100
AcDbEntity
  8
A-JAN-___-___-EXI
100
AcDbPolyline
 90
        4
 70
     1
 43
0.0
 10
9629.273566493488
 20
-21240.95687416632
 10
8929.273566493485
 20
-21240.95687416632
 10
8929.273566493485
 20
-21300.95687416632
 10
9629.273566493488
 20
-21300.95687416632
1001
REVIT
1002
{
1070
     1
1000
22643170
1002
}
1002
{
1070
     2
1000
-2000051
1002
}
1002
{
1070
     3
1000
-2000042
1002
}
  0
LWPOLYLINE
  5
25F
330
70
100
AcDbEntity
  8
A-ALV-___-___-EXI
100
AcDbPolyline
 90
        7
 70
     0
 43
0.0
 10
7229.273566493477
 20
-23750.95687416631
 10
7229.273566493481
 20
-23600.95687416631
 10
6229.273566493481
 20
-23600.95687416631
 10
7229.273566493477
 20
-23750.95687416631
 10
6229.273566493475
 20
-23750.9568741663
 10
6229.273566493481
 20
-23600.95687416631
 10
3579.27356649344
 20
-23600.9568741663
1001
REVIT
1002
{
1070
     1
1000
22643163
1002
}
1002
{
1070
     2
1000
-2000051
1002
}
1002
{
1070
     3
1000
-2000042
1002
}
  0
LWPOLYLINE
  5
266
330
70
100
AcDbEntity
  8
A-ALV-___-___-EXI
 62
     7
370
    35
100
AcDbPolyline
 90
        3
 70
     0
 43
0.0
 10
9519.273566493479
 20
-23900.95687416632
 10
9929.273566493481
 20
-23900.95687416632
 10
9929.273566493483
 20
-22200.95687416632
1001
REVIT
1002
{
1070
     1
1000
22617980
1002
}
1002
{
1070
     5
1000
22474519
1002
}
1002
{
1070
     2
1000
-2000011
1002
}
  0
LWPOLYLINE
  5
268
330
70
100
AcDbEntity
  8
A-ALV-___-___-EXI
 62
     7
370
    35
100
AcDbPolyline
 90
        4
 70
     0
 43
0.0
 10
13729.2735664935
 20
-12430.95687416633
 10
13729.2735664935
 20
-10740.95687416633
 10
1929.273566493506
 20
-10740.95687416631
 10
1929.273566493495
 20
-12540.95687416631
1001
REVIT
1002
{
1070
     1
1000
22617406
1002
}
1002
{
1070
     5
1000
22474519
1002
}
1002
{
1070
     2
1000
-2000011
1002
}
  0
LWPOLYLINE
  5
26A
330
70
100
AcDbEntity
  8
A-ALV-___-___-EXI
 62
     7
370
    35
100
AcDbPolyline
 90
        5
 70
     0
 43
0.0
 10
5729.273566493464
 20
-18590.95687416631
 10
5729.273566493471
 20
-16440.9568741663
 10
2229.273566493475
 20
-16440.95687416629
 10
2229.273566493486
 20
-14490.9568741663
 10
4739.273566493487
 20
-14490.9568741663
1001
REVIT
1002
{
1070
     1
1000
22617142
1002
}
1002
{
1070
     5
1000
22474519
1002
}
1002
{
1070
     2
1000
-2000011
1002
}
  0
LWPOLYLINE
  5
26C
330
70
100
AcDbEntity
  8
A-ALV-___-___-EXI
 62
     7
370
    35
100
AcDbPolyline
 90
        3
 70
     0
 43
0.0
 10
5579.273566493461
 20
-19350.95687416631
 10
5579.273566493458
 20
-19740.9568741663
 10
3339.273566493462
 20
-19740.95687416629
1001
REVIT
1002
{
1070
     1
1000
22615270
1002
}
1002
{
1070
     5
1000
3324767
1002
}
1002
{
1070
     2
1000
-2000011
1002
}
  0
LWPOLYLINE
  5
26D
330
70
100
AcDbEntity
  8
A-ALV-___-___-EXI
 62
     7
370
    35
100
AcDbPolyline
 90
        3
 70
     0
 43
0.0
 10
8559.273566493486
 20
-19740.95687416631
 10
5729.273566493458
 20
-19740.9568741663
 10
5729.273566493461
 20
-19350.95687416631
1001
REVIT
1002
{
1070
     1
1000
22615270
1002
}
1002
{
1070
     5
1000
3324767
1002
}
1002
{
1070
     2
1000
-2000011
1002
}
  0
LWPOLYLINE
  5
26E
330
70
100
AcDbEntity
  8
A-ALV-___-___-EXI
 62
     7
370
    35
100
AcDbPolyline
 90
        6
 70
     0
 43
0.0
 10
6079.273566493485
 20
-14340.95687416631
 10
5579.273566493487
 20
-14340.95687416631
 10
5579.273566493501
 20
-11040.95687416632
 10
9629.273566493502
 20
-11040.95687416633
 10
9629.273566493498
 20
-14340.95687416632
 10
6739.273566493487
 20
-14340.95687416631
1001
REVIT
1002
{
1070
     1
1000
22615114
1002
}
1002
{
1070
     5
1000
3324767
1002
}
1002
{
1070
     2
1000
-2000011
1002
}
  0
LWPOLYLINE
  5
26F
330
70
100
AcDbEntity
  8
A-ALV-___-___-EXI
 62
     7
370
    35
100
AcDbPolyline
 90
        3
 70
     0
 43
0.0
 10
6739.273566493487
 20
-14490.95687416631
 10
9629.273566493498
 20
-14490.95687416632
 10
9629.273566493495
 20
-14665.95687416632
1001
REVIT
1002
{
1070
     1
1000
22615034
1002
}
1002
{
1070
     5
1000
3324767
1002
}
1002
{
1070
     2
1000
-2000011
1002
}
  0
LWPOLYLINE
  5
270
330
70
100
AcDbEntity
  8
A-ALV-___-___-EXI
 62
     7
370
    35
100
AcDbPolyline
 90
        4
 70
     0
 43
0.0
 10
13429.2735664935
 20
-13190.95687416633
 10
13429.27356649349
 20
-15440.95687416633
 10
9929.273566493499
 20
-15440.95687416632
 10
9929.273566493499
 20
-15425.95687416632
1001
REVIT
1002
{
1070
     1
1000
22614800
1002
}
1002
{
1070
     5
1000
22474519
1002
}
1002
{
1070
     2
1000
-2000011
1002
}
  0
LWPOLYLINE
  5
271
330
70
100
AcDbEntity
  8
A-ALV-___-___-EXI
 62
     7
370
    35
100
AcDbPolyline
 90
        4
 70
     0
 43
0.0
 10
9929.273566493495
 20
-14665.95687416632
 10
9929.273566493506
 20
-11040.95687416633
 10
13429.2735664935
 20
-11040.95687416633
 10
13429.2735664935
 20
-12430.95687416633
1001
REVIT
1002
{
1070
     1
1000
22614800
1002
}
1002
{
1070
     5
1000
22474519
1002
}
1002
{
1070
     2
1000
-2000011
1002
}
  0
LWPOLYLINE
  5
272
330
70
100
AcDbEntity
  8
A-ALV-___-___-EXI
 62
     7
370
    35
100
AcDbPolyline
 90
        3
 70
     0
 43
0.0
 10
9629.273566493482
 20
-22200.95687416632
 10
9629.27356649348
 20
-23600.95687416632
 10
9519.273566493478
 20
-23600.95687416632
1001
REVIT
1002
{
1070
     1
1000
22617980
1002
}
1002
{
1070
     5
1000
22474519
1002
}
1002
{
1070
     2
1000
-2000011
1002
}
  0
LWPOLYLINE
  5
273
330
70
100
AcDbEntity
  8
A-ALV-___-___-EXI
 62
     7
370
    35
100
AcDbPolyline
 90
        3
 70
     0
 43
0.0
 10
9629.273566493493
 20
-17440.95687416633
 10
9629.273566493488
 20
-19740.95687416632
 10
9519.273566493486
 20
-19740.95687416632
1001
REVIT
1002
{
1070
     1
1000
22617733
1002
}
1002
{
1070
     5
1000
22474519
1002
}
1002
{
1070
     2
1000
-2000011
1002
}
  0
LWPOLYLINE
  5
274
330
70
100
AcDbEntity
  8
A-ALV-___-___-EXI
 62
     7
370
    35
100
AcDbPolyline
 90
        5
 70
     0
 43
0.0
 10
2229.273566493496
 20
-12540.95687416631
 10
2229.273566493505
 20
-11040.95687416631
 10
5429.2735664935
 20
-11040.95687416632
 10
5429.273566493487
 20
-14340.95687416631
 10
5399.273566493484
 20
-14340.95687416631
1001
REVIT
1002
{
1070
     1
1000
22617406
1002
}
1002
{
1070
     5
1000
22474519
1002
}
1002
{
1070
     2
1000
-2000011
1002
}
  0
LWPOLYLINE
  5
275
330
70
100
AcDbEntity
  8
A-ALV-___-___-EXI
 62
     7
370
    35
100
AcDbPolyline
 90
        4
 70
     0
 43
0.0
 10
2229.273566493468
 20
-18400.95687416629
 10
2229.273566493477
 20
-16590.95687416629
 10
5579.273566493474
 20
-16590.9568741663
 10
5579.273566493464
 20
-18590.95687416631
1001
REVIT
1002
{
1070
     1
1000
22617142
1002
}
1002
{
1070
     5
1000
22474519
1002
}
1002
{
1070
     2
1000
-2000011
1002
}
  0
LINE
  5
28C
330
70
100
AcDbEntity
  8
A-ALV-___-___-EXI
100
AcDbLine
 10
13729.2735664935
 20
-13190.95687416633
 30
0.0
 11
13729.27356649349
 21
-15740.95687416633
 31
0.0
1001
REVIT
1002
{
1070
     1
1000
22619450
1002
}
1002
{
1070
     2
1000
-2000051
1002
}
1002
{
1070
     3
1000
-2000066
1002
}
  0
LINE
  5
28D
330
70
100
AcDbEntity
  8
A-ALV-___-___-EXI
100
AcDbLine
 10
13729.27356649349
 20
-15740.95687416633
 30
0.0
 11
9929.273566493495
 21
-15740.95687416632
 31
0.0
1001
REVIT
1002
{
1070
     1
1000
22619450
1002
}
1002
{
1070
     2
1000
-2000051
1002
}
1002
{
1070
     3
1000
-2000066
1002
}
  0
LINE
  5
28E
330
70
100
AcDbEntity
  8
A-ALV-___-___-EXI
100
AcDbLine
 10
9929.273566493495
 20
-15740.95687416632
 30
0.0
 11
9929.273566493494
 21
-16640.95687416633
 31
0.0
1001
REVIT
1002
{
1070
     1
1000
22619450
1002
}
1002
{
1070
     2
1000
-2000051
1002
}
1002
{
1070
     3
1000
-2000066
1002
}
  0
LINE
  5
28F
330
70
100
AcDbEntity
  8
A-JAN-___-___-EXI
100
AcDbLine
 10
9929.273566493494
 20
-16640.95687416633
 30
0.0
 11
9929.273566493492
 21
-17440.95687416633
 31
0.0
1001
REVIT
1002
{
1070
     1
1000
22619450
1002
}
1002
{
1070
     2
1000
-2000051
1002
}
1002
{
1070
     3
1000
-2000066
1002
}
  0
LINE
  5
290
330
70
100
AcDbEntity
  8
A-ALV-___-___-EXI
100
AcDbLine
 10
9929.273566493492
 20
-17440.95687416633
 30
0.0
 11
9629.273566493493
 21
-17440.95687416633
 31
0.0
1001
REVIT
1002
{
1070
     1
1000
22619450
1002
}
1002
{
1070
     2
1000
-2000051
1002
}
1002
{
1070
     3
1000
-2000066
1002
}
  0
LINE
  5
291
330
70
100
AcDbEntity
  8
A-JAN-___-___-EXI
100
AcDbLine
 10
9629.273566493493
 20
-17440.95687416633
 30
0.0
 11
9629.273566493498
 21
-16640.95687416633
 31
0.0
1001
REVIT
1002
{
1070
     1
1000
22619450
1002
}
1002
{
1070
     2
1000
-2000051
1002
}
1002
{
1070
     3
1000
-2000066
1002
}
  0
LINE
  5
292
330
70
100
AcDbEntity
  8
A-ALV-___-___-EXI
100
AcDbLine
 10
9629.273566493498
 20
-16640.95687416633
 30
0.0
 11
9929.273566493494
 21
-16640.95687416633
 31
0.0
1001
REVIT
1002
{
1070
     1
1000
22619450
1002
}
1002
{
1070
     2
1000
-2000051
1002
}
1002
{
1070
     3
1000
-2000066
1002
}
  0
LINE
  5
293
330
70
100
AcDbEntity
  8
A-JAN-___-___-EXI
 62
     7
370
    35
100
AcDbLine
 10
1929.27356649345
 20
-21400.95687416629
 30
0.0
 11
1929.273566493447
 21
-22200.95687416629
 31
0.0
1001
REVIT
1002
{
1070
     1
1000
22618186
1002
}
1002
{
1070
     5
1000
22474519
1002
}
1002
{
1070
     2
1000
-2000011
1002
}
  0
LINE
  5
294
330
70
100
AcDbEntity
  8
A-ALV-___-___-EXI
 62
     7
370
    35
100
AcDbLine
 10
1929.273566493447
 20
-22200.95687416629
 30
0.0
 11
1929.273566493437
 21
-23900.95687416629
 31
0.0
1001
REVIT
1002
{
1070
     1
1000
22618186
1002
}
1002
{
1070
     5
1000
22474519
1002
}
1002
{
1070
     2
1000
-2000011
1002
}
  0
LINE
  5
295
330
70
100
AcDbEntity
  8
A-ALV-___-___-EXI
 62
     7
370
    35
100
AcDbLine
 10
1929.273566493437
 20
-23900.95687416629
 30
0.0
 11
2619.273566493441
 21
-23900.95687416629
 31
0.0
1001
REVIT
1002
{
1070
     1
1000
22618186
1002
}
1002
{
1070
     5
1000
22474519
1002
}
1002
{
1070
     2
1000
-2000011
1002
}
  0
LINE
  5
296
330
70
100
AcDbEntity
  8
A-ALV-___-___-EXI
 62
     7
370
    35
100
AcDbLine
 10
2619.273566493439
 20
-23600.9568741663
 30
0.0
 11
2229.273566493441
 21
-23600.9568741663
 31
0.0
1001
REVIT
1002
{
1070
     1
1000
22618186
1002
}
1002
{
1070
     5
1000
22474519
1002
}
1002
{
1070
     2
1000
-2000011
1002
}
  0
LINE
  5
297
330
70
100
AcDbEntity
  8
A-ALV-___-___-EXI
 62
     7
370
    35
100
AcDbLine
 10
2229.273566493441
 20
-23600.9568741663
 30
0.0
 11
2229.273566493448
 21
-22200.95687416629
 31
0.0
1001
REVIT
1002
{
1070
     1
1000
22618186
1002
}
1002
{
1070
     5
1000
22474519
1002
}
1002
{
1070
     2
1000
-2000011
1002
}
  0
LINE
  5
298
330
70
100
AcDbEntity
  8
A-JAN-___-___-EXI
 62
     7
370
    35
100
AcDbLine
 10
2229.273566493448
 20
-22200.95687416629
 30
0.0
 11
2229.273566493451
 21
-21400.95687416629
 31
0.0
1001
REVIT
1002
{
1070
     1
1000
22618186
1002
}
1002
{
1070
     5
1000
22474519
1002
}
1002
{
1070
     2
1000
-2000011
1002
}
  0
LINE
  5
299
330
70
100
AcDbEntity
  8
A-ALV-___-___-EXI
 62
     7
370
    35
100
AcDbLine
 10
9519.273566493485
 20
-19890.95687416632
 30
0.0
 11
9629.273566493488
 21
-19890.95687416632
 31
0.0
1001
REVIT
1002
{
1070
     1
1000
22617733
1002
}
1002
{
1070
     5
1000
22474519
1002
}
1002
{
1070
     2
1000
-2000011
1002
}
  0
LINE
  5
29A
330
70
100
AcDbEntity
  8
A-ALV-___-___-EXI
 62
     7
370
    35
100
AcDbLine
 10
9629.273566493488
 20
-19890.95687416632
 30
0.0
 11
9629.273566493482
 21
-21300.95687416632
 31
0.0
1001
REVIT
1002
{
1070
     1
1000
22617733
1002
}
1002
{
1070
     5
1000
22474519
1002
}
1002
{
1070
     2
1000
-2000011
1002
}
  0
LINE
  5
29B
330
70
100
AcDbEntity
  8
A-JAN-___-___-EXI
 62
     7
370
    35
100
AcDbLine
 10
9629.273566493482
 20
-21300.95687416632
 30
0.0
 11
9629.273566493482
 21
-22200.95687416632
 31
0.0
1001
REVIT
1002
{
1070
     1
1000
22617733
1002
}
1002
{
1070
     5
1000
22474519
1002
}
1002
{
1070
     2
1000
-2000011
1002
}
  0
LINE
  5
29C
330
70
100
AcDbEntity
  8
A-ALV-___-___-EXI
 62
     7
370
    35
100
AcDbLine
 10
9629.273566493482
 20
-22200.95687416632
 30
0.0
 11
9929.273566493467
 21
-22200.95687416632
 31
0.0
1001
REVIT
1002
{
1070
     1
1000
22617733
1002
}
1002
{
1070
     5
1000
22474519
1002
}
1002
{
1070
     2
1000
-2000011
1002
}
  0
LINE
  5
29D
330
70
100
AcDbEntity
  8
A-JAN-___-___-EXI
 62
     7
370
    35
100
AcDbLine
 10
9929.273566493467
 20
-22200.95687416632
 30
0.0
 11
9929.273566493471
 21
-21300.95687416632
 31
0.0
1001
REVIT
1002
{
1070
     1
1000
22617733
1002
}
1002
{
1070
     5
1000
22474519
1002
}
1002
{
1070
     2
1000
-2000011
1002
}
  0
LINE
  5
29E
330
70
100
AcDbEntity
  8
A-ALV-___-___-EXI
 62
     7
370
    35
100
AcDbLine
 10
9929.273566493471
 20
-21300.95687416632
 30
0.0
 11
9929.273566493492
 21
-17440.95687416633
 31
0.0
1001
REVIT
1002
{
1070
     1
1000
22617733
1002
}
1002
{
1070
     5
1000
22474519
1002
}
1002
{
1070
     2
1000
-2000011
1002
}
  0
LINE
  5
29F
330
70
100
AcDbEntity
  8
A-ALV-___-___-EXI
 62
     7
370
    35
100
AcDbLine
 10
4739.273566493487
 20
-14340.9568741663
 30
0.0
 11
2229.27356649349
 21
-14340.9568741663
 31
0.0
1001
REVIT
1002
{
1070
     1
1000
22617142
1002
}
1002
{
1070
     5
1000
22474519
1002
}
1002
{
1070
     2
1000
-2000011
1002
}
  0
LINE
  5
2A0
330
70
100
AcDbEntity
  8
A-ALV-___-___-EXI
 62
     7
370
    35
100
AcDbLine
 10
2229.27356649349
 20
-14340.9568741663
 30
0.0
 11
2229.273566493491
 21
-13360.95687416631
 31
0.0
1001
REVIT
1002
{
1070
     1
1000
22617142
1002
}
1002
{
1070
     5
1000
22474519
1002
}
1002
{
1070
     2
1000
-2000011
1002
}
  0
LINE
  5
2A1
330
70
100
AcDbEntity
  8
A-JAN-___-___-EXI
 62
     7
370
    35
100
AcDbLine
 10
2229.273566493491
 20
-13360.95687416631
 30
0.0
 11
2229.273566493496
 21
-12540.95687416631
 31
0.0
1001
REVIT
1002
{
1070
     1
1000
22617142
1002
}
1002
{
1070
     5
1000
22474519
1002
}
1002
{
1070
     2
1000
-2000011
1002
}
  0
LINE
  5
2A2
330
70
100
AcDbEntity
  8
A-ALV-___-___-EXI
 62
     7
370
    35
100
AcDbLine
 10
2229.273566493496
 20
-12540.95687416631
 30
0.0
 11
1929.273566493495
 21
-12540.95687416631
 31
0.0
1001
REVIT
1002
{
1070
     1
1000
22617142
1002
}
1002
{
1070
     5
1000
22474519
1002
}
1002
{
1070
     2
1000
-2000011
1002
}
  0
LINE
  5
2A3
330
70
100
AcDbEntity
  8
A-JAN-___-___-EXI
 62
     7
370
    35
100
AcDbLine
 10
1929.273566493495
 20
-12540.95687416631
 30
0.0
 11
1929.27356649349
 21
-13360.95687416631
 31
0.0
1001
REVIT
1002
{
1070
     1
1000
22617142
1002
}
1002
{
1070
     5
1000
22474519
1002
}
1002
{
1070
     2
1000
-2000011
1002
}
  0
LINE
  5
2A4
330
70
100
AcDbEntity
  8
A-ALV-___-___-EXI
 62
     7
370
    35
100
AcDbLine
 10
1929.27356649349
 20
-13360.95687416631
 30
0.0
 11
1929.273566493466
 21
-18400.95687416629
 31
0.0
1001
REVIT
1002
{
1070
     1
1000
22617142
1002
}
1002
{
1070
     5
1000
22474519
1002
}
1002
{
1070
     2
1000
-2000011
1002
}
  0
LINE
  5
2A5
330
70
100
AcDbEntity
  8
A-ALV-___-___-EXI
 62
     7
370
    35
100
AcDbLine
 10
2579.273566493462
 20
-19740.95687416629
 30
0.0
 11
2229.273566493459
 21
-19740.95687416629
 31
0.0
1001
REVIT
1002
{
1070
     1
1000
22617085
1002
}
1002
{
1070
     5
1000
22474519
1002
}
1002
{
1070
     2
1000
-2000011
1002
}
  0
LINE
  5
2A6
330
70
100
AcDbEntity
  8
A-ALV-___-___-EXI
 62
     7
370
    35
100
AcDbLine
 10
2229.273566493459
 20
-19740.95687416629
 30
0.0
 11
2229.273566493464
 21
-19180.95687416629
 31
0.0
1001
REVIT
1002
{
1070
     1
1000
22617085
1002
}
1002
{
1070
     5
1000
22474519
1002
}
1002
{
1070
     2
1000
-2000011
1002
}
  0
LINE
  5
2A7
330
70
100
AcDbEntity
  8
A-JAN-___-___-EXI
 62
     7
370
    35
100
AcDbLine
 10
2229.273566493464
 20
-19180.95687416629
 30
0.0
 11
2229.273566493468
 21
-18400.95687416629
 31
0.0
1001
REVIT
1002
{
1070
     1
1000
22617085
1002
}
1002
{
1070
     5
1000
22474519
1002
}
1002
{
1070
     2
1000
-2000011
1002
}
  0
LINE
  5
2A8
330
70
100
AcDbEntity
  8
A-ALV-___-___-EXI
 62
     7
370
    35
100
AcDbLine
 10
2229.273566493468
 20
-18400.95687416629
 30
0.0
 11
1929.273566493464
 21
-18400.95687416629
 31
0.0
1001
REVIT
1002
{
1070
     1
1000
22617085
1002
}
1002
{
1070
     5
1000
22474519
1002
}
1002
{
1070
     2
1000
-2000011
1002
}
  0
LINE
  5
2A9
330
70
100
AcDbEntity
  8
A-JAN-___-___-EXI
 62
     7
370
    35
100
AcDbLine
 10
1929.273566493464
 20
-18400.95687416629
 30
0.0
 11
1929.273566493463
 21
-19180.95687416629
 31
0.0
1001
REVIT
1002
{
1070
     1
1000
22617085
1002
}
1002
{
1070
     5
1000
22474519
1002
}
1002
{
1070
     2
1000
-2000011
1002
}
  0
LINE
  5
2AA
330
70
100
AcDbEntity
  8
A-ALV-___-___-EXI
 62
     7
370
    35
100
AcDbLine
 10
1929.273566493463
 20
-19180.95687416629
 30
0.0
 11
1929.27356649345
 21
-21400.95687416629
 31
0.0
1001
REVIT
1002
{
1070
     1
1000
22617085
1002
}
1002
{
1070
     5
1000
22474519
1002
}
1002
{
1070
     2
1000
-2000011
1002
}
  0
LINE
  5
2AB
330
70
100
AcDbEntity
  8
A-ALV-___-___-EXI
 62
     7
370
    35
100
AcDbLine
 10
1929.27356649345
 20
-21400.95687416629
 30
0.0
 11
2229.273566493451
 21
-21400.95687416629
 31
0.0
1001
REVIT
1002
{
1070
     1
1000
22617085
1002
}
1002
{
1070
     5
1000
22474519
1002
}
1002
{
1070
     2
1000
-2000011
1002
}
  0
LINE
  5
2AC
330
70
100
AcDbEntity
  8
A-ALV-___-___-EXI
 62
     7
370
    35
100
AcDbLine
 10
2229.273566493451
 20
-21400.95687416629
 30
0.0
 11
2229.273566493459
 21
-19890.95687416629
 31
0.0
1001
REVIT
1002
{
1070
     1
1000
22617085
1002
}
1002
{
1070
     5
1000
22474519
1002
}
1002
{
1070
     2
1000
-2000011
1002
}
  0
LINE
  5
2AD
330
70
100
AcDbEntity
  8
A-ALV-___-___-EXI
 62
     7
370
    35
100
AcDbLine
 10
2229.273566493459
 20
-19890.95687416629
 30
0.0
 11
2579.273566493462
 21
-19890.95687416629
 31
0.0
1001
REVIT
1002
{
1070
     1
1000
22617085
1002
}
1002
{
1070
     5
1000
22474519
1002
}
1002
{
1070
     2
1000
-2000011
1002
}
  0
VIEWPORT
  5
220
330
6C
100
AcDbEntity
 67
     1
  8
A-ALV-___-___-EXI
100
AcDbViewport
 10
174.4073919551247
 20
207.5851005606622
 30
0.0
 40
118.1000000000004
 41
131.6999999999999
 68
     2
 69
     2
 12
7834.273566493468
 22
-17325.95687416632
 13
0.0
 23
0.0
 14
0.0
 24
0.0
 15
0.0
 25
0.0
 16
0.0
 26
0.0
 36
1.0
 17
0.0
 27
0.0
 37
0.0
 42
0.0
 43
0.0
 44
0.0
 45
13169.99999999999
 50
0.0
 51
0.0
 72
  1000
 90
    32768
  1

281
     0
 71
     1
 74
     1
110
0.0
120
0.0
130
0.0
111
1.0
121
0.0
131
0.0
112
0.0
122
1.0
132
0.0
 79
     0
146
0.0
170
     0
 61
     5
348
2F
292
     1
282
     1
141
0.0
142
0.0
 63
   250
421
  3355443
  0
VIEWPORT
  5
222
330
6C
100
AcDbEntity
 67
     1
  8
0
100
AcDbViewport
 10
222.4655517141257
 20
151.7551795447878
 30
0.0
 40
1195.152402792137
 41
472.1667152688767
 68
     1
 69
     1
 12
222.4655517141257
 22
151.7551795447878
 13
0.0
 23
0.0
 14
0.0
 24
0.0
 15
0.0
 25
0.0
 16
0.0
 26
0.0
 36
1.0
 17
0.0
 27
0.0
 37
0.0
 42
50.0
 43
0.0
 44
0.0
 45
472.1667152688767
 50
0.0
 51
0.0
 72
   100
 90
    32800
  1

281
     0
 71
     1
 74
     1
110
0.0
120
0.0
130
0.0
111
1.0
121
0.0
131
0.0
112
0.0
122
1.0
132
0.0
 79
     0
146
0.0
170
     0
 61
     5
348
2F
292
     1
282
     1
141
0.0
142
0.0
 63
   250
421
  3355443
  0
INSERT
  5
22E
330
6C
100
AcDbEntity
 67
     1
  8
A-PIS-___-___-EXI
100
AcDbBlockReference
  2
SVG - A4-22645566-Não nomeada
 10
0.0
 20
0.0
 30
0.0
1001
REVIT
1002
{
1070
     1
1000
22645587
1002
}
1002
{
1070
     5
1000
22645566
1002
}
1002
{
1070
     2
1000
-2000280
1002
}
  0
ENDSEC
  0
SECTION
  2
OBJECTS
  0
DICTIONARY
  5
C
330
0
100
AcDbDictionary
281
     1
  3
ACAD_CIP_PREVIOUS_PRODUCT_INFO
350
79
  3
ACAD_COLOR
350
63
  3
ACAD_DETAILVIEWSTYLE
350
6A
  3
ACAD_GROUP
350
D
  3
ACAD_IMAGE_VARS
350
7A
  3
ACAD_LAYOUT
350
62
  3
ACAD_MATERIAL
350
10
  3
ACAD_MLEADERSTYLE
350
66
  3
ACAD_MLINESTYLE
350
5F
  3
ACAD_PLOTSETTINGS
350
61
  3
ACAD_PLOTSTYLENAME
350
E
  3
ACAD_RENDER_ACTIVE_RAPIDRT_SETTINGS
350
24E
  3
ACAD_RENDER_RAPIDRT_SETTINGS
350
247
  3
ACAD_SCALELIST
350
42
  3
ACAD_SECTIONVIEWSTYLE
350
68
  3
ACAD_TABLESTYLE
350
64
  3
ACAD_VISUALSTYLE
350
29
  3
ACDB_RECOMPOSE_DATA
350
2D9
  3
AcDbVariableDictionary
350
237
  3
REVIT_DICTIONARY
350
22F
  0
SUN
  5
236
330
57
100
AcDbSun
 90
        1
290
     1
 63
     7
421
 16777215
 40
0.3
291
     1
 91
  2460364
 92
 45805000
292
     0
 70
     1
 71
   128
280
     1
  0
DICTIONARY
  5
253
330
2
100
AcDbDictionary
280
     1
281
     1
  3
ACAD_LAYERSTATES
360
254
  0
DICTIONARY
  5
234
330
70
100
AcDbDictionary
280
     1
281
     1
  3
ACAD_SORTENTS
360
235
  0
XRECORD
  5
79
102
{ACAD_REACTORS
330
C
102
}
330
C
100
AcDbXrecord
280
     1
300
ACD
300
2022
300

  0
DICTIONARY
  5
63
102
{ACAD_REACTORS
330
C
102
}
330
C
100
AcDbDictionary
281
     1
  0
DICTIONARY
  5
6A
102
{ACAD_REACTORS
330
C
102
}
330
C
100
AcDbDictionary
281
     1
  3
Imperial24
350
6B
  3
Metric50
350
23F
  0
DICTIONARY
  5
D
102
{ACAD_REACTORS
330
C
102
}
330
C
100
AcDbDictionary
281
     1
  0
RASTERVARIABLES
  5
7A
102
{ACAD_REACTORS
330
C
102
}
330
C
100
AcDbRasterVariables
 90
        0
 70
     0
 71
     1
 72
     1
  0
DICTIONARY
  5
62
102
{ACAD_REACTORS
330
C
102
}
330
C
100
AcDbDictionary
281
     1
  3
Layout1
350
6F
  3
Model
350
73
  0
DICTIONARY
  5
10
102
{ACAD_REACTORS
330
C
102
}
330
C
100
AcDbDictionary
281
     1
  3
ByBlock
350
19
  3
ByLayer
350
11
  3
Global
350
21
  0
DICTIONARY
  5
66
102
{ACAD_REACTORS
330
C
102
}
330
C
100
AcDbDictionary
281
     1
  3
Standard
350
67
  0
DICTIONARY
  5
5F
102
{ACAD_REACTORS
330
C
102
}
330
C
100
AcDbDictionary
281
     1
  3
Standard
350
60
  0
DICTIONARY
  5
61
102
{ACAD_REACTORS
330
C
102
}
330
C
100
AcDbDictionary
281
     1
  0
ACDBDICTIONARYWDFLT
  5
E
102
{ACAD_REACTORS
330
C
102
}
330
C
100
AcDbDictionary
281
     1
  3
Normal
350
F
100
AcDbDictionaryWithDefault
340
F
  0
RAPIDRTRENDERSETTINGS
  5
24E
102
{ACAD_REACTORS
330
C
102
}
330
C
100
AcDbRenderSettings
 90
        2
  1
Médio
290
     1
290
     0
290
     1
290
     1
  1

  1
Aplica 5 níveis de renderização
 90
        0
100
AcDbRapidRTRenderSettings
 90
        3
 70
     0
 90
        5
 90
        1
 70
     1
 70
     2
 40
3.0
 40
3.0
290
     1
  0
DICTIONARY
  5
247
102
{ACAD_REACTORS
330
C
102
}
330
C
100
AcDbDictionary
281
     1
  3
Alto
350
24A
  3
Baixo
350
248
  3
Médio
350
249
  3
Qualidade de curta duração
350
24B
  3
Qualidade de longa duração
350
24D
  3
Qualidade de média duração
350
24C
  0
DICTIONARY
  5
42
102
{ACAD_REACTORS
330
C
102
}
330
C
100
AcDbDictionary
281
     1
  3
A0
350
43
  3
A1
350
44
  3
A2
350
45
  3
A3
350
46
  3
A4
350
47
  3
A5
350
48
  3
A6
350
49
  3
A7
350
4A
  3
A8
350
4B
  3
A9
350
4C
  3
B0
350
4D
  3
B1
350
4E
  3
B2
350
4F
  3
B3
350
50
  3
B4
350
51
  3
B5
350
52
  3
B6
350
53
  0
DICTIONARY
  5
68
102
{ACAD_REACTORS
330
C
102
}
330
C
100
AcDbDictionary
281
     1
  3
Imperial24
350
69
  3
Metric50
350
23E
  0
DICTIONARY
  5
64
102
{ACAD_REACTORS
330
C
102
}
330
C
100
AcDbDictionary
281
     1
  3
Standard
350
65
  0
DICTIONARY
  5
29
102
{ACAD_REACTORS
330
C
102
}
330
C
100
AcDbDictionary
281
     1
  3
2dWireframe
350
2F
  3
Basic
350
2E
  3
Brighten
350
35
  3
ColorChange
350
39
  3
Conceptual
350
32
  3
Dim
350
34
  3
EdgeColorOff
350
41
  3
Facepattern
350
38
  3
Flat
350
2A
  3
FlatWithEdges
350
2B
  3
Gouraud
350
2C
  3
GouraudWithEdges
350
2D
  3
Hidden
350
31
  3
JitterOff
350
3F
  3
Linepattern
350
37
  3
OverhangOff
350
40
  3
Realistic
350
33
  3
Shaded
350
3E
  3
Shaded with edges
350
3D
  3
Shades of Gray
350
3A
  3
Sketchy
350
3B
  3
Thicken
350
36
  3
Wireframe
350
30
  3
X-Ray
350
3C
  0
XRECORD
  5
2D9
102
{ACAD_REACTORS
330
C
102
}
330
C
100
AcDbXrecord
280
     1
 90
        1
330
65
  0
DICTIONARY
  5
237
102
{ACAD_REACTORS
330
C
102
}
330
C
100
AcDbDictionary
281
     1
  3
CANNOSCALE
350
23C
  3
CMLEADERSTYLE
350
239
  3
CTABLESTYLE
350
238
  3
CVIEWDETAILSTYLE
350
23A
  3
CVIEWSECTIONSTYLE
350
23B
  0
DICTIONARY
  5
22F
102
{ACAD_REACTORS
330
C
102
}
330
C
100
AcDbDictionary
281
     1
  3
DRAWING_TOOL
350
233
  3
REVIT_CATEGORY_MAPPING
350
231
  3
REVIT_SUB_CATEGORY_MAPPING
350
232
  3
REVIT_TYPE_MAPPING
350
230
  0
DICTIONARY
  5
254
102
{ACAD_REACTORS
330
253
102
}
330
253
100
AcDbDictionary
281
     1
  0
SORTENTSTABLE
  5
235
102
{ACAD_REACTORS
330
234
102
}
330
234
100
AcDbSortentsTable
330
70
331
266
  5
28C
331
268
  5
293
331
26A
  5
29A
331
26C
  5
2A4
331
26D
  5
2A5
331
26E
  5
2A6
331
26F
  5
2A7
331
270
  5
2A8
331
271
  5
2A9
331
272
  5
2AA
331
273
  5
2AB
331
274
  5
2AC
331
275
  5
2AD
331
28C
  5
266
331
28D
  5
268
331
28E
  5
26A
331
28F
  5
26C
331
290
  5
26D
331
291
  5
26E
331
292
  5
26F
331
293
  5
270
331
294
  5
271
331
295
  5
272
331
296
  5
273
331
297
  5
274
331
298
  5
275
331
299
  5
28D
331
29A
  5
28E
331
29B
  5
28F
331
29C
  5
290
331
29D
  5
291
331
29E
  5
292
331
29F
  5
294
331
2A0
  5
295
331
2A1
  5
296
331
2A2
  5
297
331
2A3
  5
298
331
2A4
  5
299
331
2A5
  5
29B
331
2A6
  5
29C
331
2A7
  5
29D
331
2A8
  5
29E
331
2A9
  5
29F
331
2AA
  5
2A0
331
2AB
  5
2A1
331
2AC
  5
2A2
331
2AD
  5
2A3
  0
ACDBDETAILVIEWSTYLE
  5
6B
102
{ACAD_REACTORS
330
6A
102
}
330
6A
100
AcDbModelDocViewStyle
 70
     0
  3
Imperial24
290
     1
300
Imperial24
 90
        0
100
AcDbDetailViewStyle
 70
     0
 71
     0
 90
        3
 71
     1
340
55
 62
   256
 40
0.24
340
0
 62
   256
 40
0.24
300

 40
0.36
280
     3
 71
     2
340
5D
 90
       25
 62
   256
 71
     3
340
55
 62
   256
 40
0.24
 90
        1
 40
0.75
 90
        1
300
%<\AcVar ViewType \f "%tc1">% %<\AcVar ViewDetailId>%\PSCALE %<\AcVar ViewScale \f "%sn">%
 71
     4
340
5D
 90
       25
 62
   256
340
5D
 90
       25
 62
   256
280
     0
  0
ACDBDETAILVIEWSTYLE
  5
23F
102
{ACAD_REACTORS
330
6A
102
}
330
6A
100
AcDbModelDocViewStyle
 70
     0
  3
Metric50
290
     1
300
Metric50
 90
        0
100
AcDbDetailViewStyle
 70
     0
 71
     0
 90
        3
 71
     1
340
55
 62
   256
 40
5.0
340
0
 62
   256
 40
5.0
300

 40
0.0
280
     1
 71
     2
340
5D
 90
       25
 62
   256
 71
     3
340
55
 62
   256
 40
5.0
 90
        0
 40
15.0
 90
        1
300
%<\AcVar ViewDetailId>% (%<\AcVar ViewScale \f "%sn">%)
 71
     4
340
5D
 90
       25
 62
   256
340
5D
 90
       25
 62
   256
280
     0
  0
LAYOUT
  5
6F
102
{ACAD_REACTORS
330
62
102
}
330
62
100
AcDbPlotSettings
  1

  2
PDF24
  4
A4
  6

 40
0.0
 41
0.0
 42
0.1113433837890625
 43
0.0
 44
210.0
 45
297.0
 46
0.0
 47
0.0
 48
0.0
 49
0.0
140
0.0
141
0.0
142
1.0
143
1.415217033324818
 70
   688
 72
     1
 73
     1
 74
     1
  7

 75
     0
147
0.7066054014702363
 76
     0
 77
     2
 78
   300
148
-64.27901684485153
149
-59.47287840171589
100
AcDbLayout
  1
Layout1
 70
     0
 71
     1
 10
64.27901684485153
 20
59.47287840171589
 11
484.5984757423225
 21
356.6684553999278
 12
0.0
 22
0.0
 32
0.0
 14
64.29285070883699
 24
59.49999999998593
 34
0.0
 15
274.292850708837
 25
356.4999999999859
 35
0.0
146
0.0
 13
0.0
 23
0.0
 33
0.0
 16
1.0
 26
0.0
 36
0.0
 17
0.0
 27
1.0
 37
0.0
 76
     0
330
6C
331
222
1001
ACAD_PSEXT
1000
PDF24
1000
PDF24
1000
\\.\pipe\PDFPrint
1000
PDF24 Printer
1070
     0
  0
LAYOUT
  5
73
102
{ACAD_REACTORS
330
62
102
}
330
62
100
AcDbPlotSettings
  1

  2

  4

  6

 40
0.0
 41
0.0
 42
0.0
 43
0.0
 44
0.0
 45
0.0
 46
0.0
 47
0.0
 48
0.0
 49
0.0
140
0.0
141
0.0
142
1.0
143
1.0
 70
  1712
 72
     0
 73
     0
 74
     0
  7

 75
     0
147
1.0
 76
     0
 77
     2
 78
   300
148
0.0
149
0.0
100
AcDbLayout
  1
Model
 70
     1
 71
     0
 10
0.0
 20
0.0
 11
12.0
 21
9.0
 12
0.0
 22
0.0
 32
0.0
 14
0.0
 24
0.0
 34
0.0
 15
0.0
 25
0.0
 35
0.0
146
0.0
 13
0.0
 23
0.0
 33
0.0
 16
1.0
 26
0.0
 36
0.0
 17
0.0
 27
1.0
 37
0.0
 76
     0
330
70
331
57
  0
MATERIAL
  5
19
102
{ACAD_XDICTIONARY
360
1A
102
}
102
{ACAD_REACTORS
330
10
102
}
330
10
100
AcDbMaterial
  1
ByBlock
 72
     0
 43
0.0208333333333333
 43
0.0
 43
0.0
 43
0.0
 43
0.0
 43
0.0208333333333333
 43
0.0
 43
0.0
 43
0.0
 43
0.0
 43
1.0
 43
0.0
 43
0.0
 43
0.0
 43
0.0
 43
1.0
 77
     0
 47
0.0208333333333333
 47
0.0
 47
0.0
 47
0.0
 47
0.0
 47
0.0208333333333333
 47
0.0
 47
0.0
 47
0.0
 47
0.0
 47
1.0
 47
0.0
 47
0.0
 47
0.0
 47
0.0
 47
1.0
171
     0
 49
0.0208333333333333
 49
0.0
 49
0.0
 49
0.0
 49
0.0
 49
0.0208333333333333
 49
0.0
 49
0.0
 49
0.0
 49
0.0
 49
1.0
 49
0.0
 49
0.0
 49
0.0
 49
0.0
 49
1.0
175
     0
142
0.0208333333333333
142
0.0
142
0.0
142
0.0
142
0.0
142
0.0208333333333333
142
0.0
142
0.0
142
0.0
142
0.0
142
1.0
142
0.0
142
0.0
142
0.0
142
0.0
142
1.0
179
     0
144
0.0208333333333333
144
0.0
144
0.0
144
0.0
144
0.0
144
0.0208333333333333
144
0.0
144
0.0
144
0.0
144
0.0
144
1.0
144
0.0
144
0.0
144
0.0
144
0.0
144
1.0
147
0.0208333333333333
147
0.0
147
0.0
147
0.0
147
0.0
147
0.0208333333333333
147
0.0
147
0.0
147
0.0
147
0.0
147
1.0
147
0.0
147
0.0
147
0.0
147
0.0
147
1.0
  0
MATERIAL
  5
11
102
{ACAD_XDICTIONARY
360
12
102
}
102
{ACAD_REACTORS
330
10
102
}
330
10
100
AcDbMaterial
  1
ByLayer
 72
     0
 43
0.0208333333333333
 43
0.0
 43
0.0
 43
0.0
 43
0.0
 43
0.0208333333333333
 43
0.0
 43
0.0
 43
0.0
 43
0.0
 43
1.0
 43
0.0
 43
0.0
 43
0.0
 43
0.0
 43
1.0
 77
     0
 47
0.0208333333333333
 47
0.0
 47
0.0
 47
0.0
 47
0.0
 47
0.0208333333333333
 47
0.0
 47
0.0
 47
0.0
 47
0.0
 47
1.0
 47
0.0
 47
0.0
 47
0.0
 47
0.0
 47
1.0
171
     0
 49
0.0208333333333333
 49
0.0
 49
0.0
 49
0.0
 49
0.0
 49
0.0208333333333333
 49
0.0
 49
0.0
 49
0.0
 49
0.0
 49
1.0
 49
0.0
 49
0.0
 49
0.0
 49
0.0
 49
1.0
175
     0
142
0.0208333333333333
142
0.0
142
0.0
142
0.0
142
0.0
142
0.0208333333333333
142
0.0
142
0.0
142
0.0
142
0.0
142
1.0
142
0.0
142
0.0
142
0.0
142
0.0
142
1.0
179
     0
144
0.0208333333333333
144
0.0
144
0.0
144
0.0
144
0.0
144
0.0208333333333333
144
0.0
144
0.0
144
0.0
144
0.0
144
1.0
144
0.0
144
0.0
144
0.0
144
0.0
144
1.0
147
0.0208333333333333
147
0.0
147
0.0
147
0.0
147
0.0
147
0.0208333333333333
147
0.0
147
0.0
147
0.0
147
0.0
147
1.0
147
0.0
147
0.0
147
0.0
147
0.0
147
1.0
  0
MATERIAL
  5
21
102
{ACAD_XDICTIONARY
360
22
102
}
102
{ACAD_REACTORS
330
10
102
}
330
10
100
AcDbMaterial
  1
Global
 72
     0
 43
0.0208333333333333
 43
0.0
 43
0.0
 43
0.0
 43
0.0
 43
0.0208333333333333
 43
0.0
 43
0.0
 43
0.0
 43
0.0
 43
1.0
 43
0.0
 43
0.0
 43
0.0
 43
0.0
 43
1.0
 77
     0
 47
0.0208333333333333
 47
0.0
 47
0.0
 47
0.0
 47
0.0
 47
0.0208333333333333
 47
0.0
 47
0.0
 47
0.0
 47
0.0
 47
1.0
 47
0.0
 47
0.0
 47
0.0
 47
0.0
 47
1.0
171
     0
 49
0.0208333333333333
 49
0.0
 49
0.0
 49
0.0
 49
0.0
 49
0.0208333333333333
 49
0.0
 49
0.0
 49
0.0
 49
0.0
 49
1.0
 49
0.0
 49
0.0
 49
0.0
 49
0.0
 49
1.0
175
     0
142
0.0208333333333333
142
0.0
142
0.0
142
0.0
142
0.0
142
0.0208333333333333
142
0.0
142
0.0
142
0.0
142
0.0
142
1.0
142
0.0
142
0.0
142
0.0
142
0.0
142
1.0
179
     0
144
0.0208333333333333
144
0.0
144
0.0
144
0.0
144
0.0
144
0.0208333333333333
144
0.0
144
0.0
144
0.0
144
0.0
144
1.0
144
0.0
144
0.0
144
0.0
144
0.0
144
1.0
147
0.0208333333333333
147
0.0
147
0.0
147
0.0
147
0.0
147
0.0208333333333333
147
0.0
147
0.0
147
0.0
147
0.0
147
1.0
147
0.0
147
0.0
147
0.0
147
0.0
147
1.0
  0
MLEADERSTYLE
  5
67
102
{ACAD_REACTORS
330
66
102
}
330
66
100
AcDbMLeaderStyle
179
     2
170
     2
171
     1
172
     0
 90
        2
 40
0.0
 41
0.0
173
     1
 91
-1056964608
340
5B
 92
       -2
290
     1
 42
0.09
291
     1
 43
0.36
  3
Standard
 44
0.18
300

342
55
174
     1
178
     6
175
     1
176
     0
 93
-1056964608
 45
0.18
292
     0
297
     0
 46
0.18
 94
-1056964608
 47
1.0
 49
1.0
140
1.0
293
     1
141
0.0
294
     1
177
     0
142
1.0
295
     1
296
     0
143
0.125
271
     0
272
     9
273
     9
298
     1
  0
MLINESTYLE
  5
60
102
{ACAD_REACTORS
330
5F
102
}
330
5F
100
AcDbMlineStyle
  2
STANDARD
 70
     0
  3

 62
   256
 51
90.0
 52
90.0
 71
     2
 49
0.5
 62
   256
  6
BYLAYER
 49
-0.5
 62
   256
  6
BYLAYER
  0
ACDBPLACEHOLDER
  5
F
102
{ACAD_REACTORS
330
E
102
}
330
E
  0
RAPIDRTRENDERSETTINGS
  5
24A
102
{ACAD_REACTORS
330
247
102
}
330
247
100
AcDbRenderSettings
 90
        2
  1
Alto
290
     1
290
     0
290
     1
290
     1
  1

  1
Aplica 10 níveis de renderização
 90
        2
100
AcDbRapidRTRenderSettings
 90
        3
 70
     0
 90
       10
 90
        1
 70
     2
 70
     2
 40
3.0
 40
3.0
290
     1
  0
RAPIDRTRENDERSETTINGS
  5
248
102
{ACAD_REACTORS
330
247
102
}
330
247
100
AcDbRenderSettings
 90
        2
  1
Baixo
290
     1
290
     0
290
     1
290
     1
  1

  1
Aplica 1 nível de renderização
 90
        0
100
AcDbRapidRTRenderSettings
 90
        3
 70
     0
 90
        1
 90
        1
 70
     0
 70
     2
 40
3.0
 40
3.0
290
     1
  0
RAPIDRTRENDERSETTINGS
  5
249
102
{ACAD_REACTORS
330
247
102
}
330
247
100
AcDbRenderSettings
 90
        2
  1
Médio
290
     1
290
     0
290
     1
290
     1
  1

  1
Aplica 5 níveis de renderização
 90
        1
100
AcDbRapidRTRenderSettings
 90
        3
 70
     0
 90
        5
 90
        1
 70
     1
 70
     2
 40
3.0
 40
3.0
290
     1
  0
RAPIDRTRENDERSETTINGS
  5
24B
102
{ACAD_REACTORS
330
247
102
}
330
247
100
AcDbRenderSettings
 90
        2
  1
Qualidade de curta duração
290
     1
290
     0
290
     1
290
     1
  1

  1
Renderiza por 10 minutos
 90
        3
100
AcDbRapidRTRenderSettings
 90
        3
 70
     1
 90
        1
 90
       10
 70
     1
 70
     2
 40
3.0
 40
3.0
290
     1
  0
RAPIDRTRENDERSETTINGS
  5
24D
102
{ACAD_REACTORS
330
247
102
}
330
247
100
AcDbRenderSettings
 90
        2
  1
Qualidade de longa duração
290
     1
290
     0
290
     1
290
     1
  1

  1
Renderiza por 12 horas
 90
        5
100
AcDbRapidRTRenderSettings
 90
        3
 70
     1
 90
        1
 90
      720
 70
     2
 70
     2
 40
3.0
 40
3.0
290
     1
  0
RAPIDRTRENDERSETTINGS
  5
24C
102
{ACAD_REACTORS
330
247
102
}
330
247
100
AcDbRenderSettings
 90
        2
  1
Qualidade de média duração
290
     1
290
     0
290
     1
290
     1
  1

  1
Renderiza por 60 minutos
 90
        4
100
AcDbRapidRTRenderSettings
 90
        3
 70
     1
 90
        1
 90
       60
 70
     2
 70
     2
 40
3.0
 40
3.0
290
     1
  0
SCALE
  5
43
102
{ACAD_REACTORS
330
42
102
}
330
42
100
AcDbScale
 70
     0
300
1:1
140
1.0
141
1.0
290
     1
  0
SCALE
  5
44
102
{ACAD_REACTORS
330
42
102
}
330
42
100
AcDbScale
 70
     0
300
1/128" = 1'-0"
140
0.0078125
141
12.0
290
     0
  0
SCALE
  5
45
102
{ACAD_REACTORS
330
42
102
}
330
42
100
AcDbScale
 70
     0
300
1/64" = 1'-0"
140
0.015625
141
12.0
290
     0
  0
SCALE
  5
46
102
{ACAD_REACTORS
330
42
102
}
330
42
100
AcDbScale
 70
     0
300
1/32" = 1'-0"
140
0.03125
141
12.0
290
     0
  0
SCALE
  5
47
102
{ACAD_REACTORS
330
42
102
}
330
42
100
AcDbScale
 70
     0
300
1/16" = 1'-0"
140
0.0625
141
12.0
290
     0
  0
SCALE
  5
48
102
{ACAD_REACTORS
330
42
102
}
330
42
100
AcDbScale
 70
     0
300
3/32" = 1'-0"
140
0.09375
141
12.0
290
     0
  0
SCALE
  5
49
102
{ACAD_REACTORS
330
42
102
}
330
42
100
AcDbScale
 70
     0
300
1/8" = 1'-0"
140
0.125
141
12.0
290
     0
  0
SCALE
  5
4A
102
{ACAD_REACTORS
330
42
102
}
330
42
100
AcDbScale
 70
     0
300
3/16" = 1'-0"
140
0.1875
141
12.0
290
     0
  0
SCALE
  5
4B
102
{ACAD_REACTORS
330
42
102
}
330
42
100
AcDbScale
 70
     0
300
1/4" = 1'-0"
140
0.25
141
12.0
290
     0
  0
SCALE
  5
4C
102
{ACAD_REACTORS
330
42
102
}
330
42
100
AcDbScale
 70
     0
300
3/8" = 1'-0"
140
0.375
141
12.0
290
     0
  0
SCALE
  5
4D
102
{ACAD_REACTORS
330
42
102
}
330
42
100
AcDbScale
 70
     0
300
1/2" = 1'-0"
140
0.5
141
12.0
290
     0
  0
SCALE
  5
4E
102
{ACAD_REACTORS
330
42
102
}
330
42
100
AcDbScale
 70
     0
300
3/4" = 1'-0"
140
0.75
141
12.0
290
     0
  0
SCALE
  5
4F
102
{ACAD_REACTORS
330
42
102
}
330
42
100
AcDbScale
 70
     0
300
1" = 1'-0"
140
1.0
141
12.0
290
     0
  0
SCALE
  5
50
102
{ACAD_REACTORS
330
42
102
}
330
42
100
AcDbScale
 70
     0
300
1-1/2" = 1'-0"
140
1.5
141
12.0
290
     0
  0
SCALE
  5
51
102
{ACAD_REACTORS
330
42
102
}
330
42
100
AcDbScale
 70
     0
300
3" = 1'-0"
140
3.0
141
12.0
290
     0
  0
SCALE
  5
52
102
{ACAD_REACTORS
330
42
102
}
330
42
100
AcDbScale
 70
     0
300
6" = 1'-0"
140
6.0
141
12.0
290
     0
  0
SCALE
  5
53
102
{ACAD_REACTORS
330
42
102
}
330
42
100
AcDbScale
 70
     0
300
1'-0" = 1'-0"
140
12.0
141
12.0
290
     0
  0
ACDBSECTIONVIEWSTYLE
  5
69
102
{ACAD_REACTORS
330
68
102
}
330
68
100
AcDbModelDocViewStyle
 70
     0
  3
Imperial24
290
     1
300
Imperial24
 90
        0
100
AcDbSectionViewStyle
 70
     0
 71
     0
 90
       78
 71
     1
340
55
 62
   256
 40
0.24
340
0
340
0
 62
   256
 40
0.24
300
I, O, Q, S, X, Z
 40
0.48
 90
        3
 40
0.18
 90
        1
 71
     2
340
5D
 90
       25
 62
   256
340
5D
 90
       50
 62
   256
 40
0.24
 40
0.0
 40
0.24
 71
     3
340
55
 62
   256
 40
0.24
 90
        1
 40
0.75
 90
        1
300
%<\AcVar ViewType \f "%tc1">% %<\AcVar ViewSectionStartId>%-%<\AcVar ViewSectionEndId>%\PSCALE %<\AcVar ViewScale \f "%sn">%
 71
     4
 62
   256
 62
   257
300
ANSI31
 40
1.0
 90
        0
290
     0
290
     0
 90
        6
 40
0.0
 40
1.570796326794896
 40
0.2617993877991494
 40
1.308996938995747
 40
-0.2617993877991494
 40
1.832595714594046
  0
ACDBSECTIONVIEWSTYLE
  5
23E
102
{ACAD_REACTORS
330
68
102
}
330
68
100
AcDbModelDocViewStyle
 70
     0
  3
Metric50
290
     1
300
Metric50
 90
        0
100
AcDbSectionViewStyle
 70
     0
 71
     0
 90
      102
 71
     1
340
55
 62
   256
 40
5.0
340
0
340
0
 62
   256
 40
5.0
300
I, O, Q, S, X, Z
 40
10.0
 90
        0
 40
2.5
 90
        0
 71
     2
340
5D
 90
       25
 62
   256
340
5D
 90
       50
 62
   256
 40
5.0
 40
2.5
 40
5.0
 71
     3
340
55
 62
   256
 40
5.0
 90
        0
 40
15.0
 90
        1
300
%<\AcVar ViewSectionStartId>%-%<\AcVar ViewSectionEndId>% (%<\AcVar ViewScale \f "%sn">%)
 71
     4
 62
   256
 62
   257
300
ANSI31
 40
1.0
 90
        0
290
     0
290
     0
 90
        6
 40
0.0
 40
1.570796326794896
 40
0.2617993877991494
 40
1.308996938995747
 40
-0.2617993877991494
 40
1.832595714594046
  0
TABLESTYLE
  5
65
102
{ACAD_XDICTIONARY
360
2D7
102
}
102
{ACAD_REACTORS
330
64
102
}
330
64
100
AcDbTableStyle
280
     0
  3
Standard
 70
     0
 71
     0
 40
0.06
 41
0.06
280
     0
281
     0
  7
Standard
140
0.18
170
     2
 62
     0
 63
     7
283
     0
 90
      512
 91
        0
  1

274
    -2
284
     1
 64
     0
275
    -2
285
     1
 65
     0
276
    -2
286
     1
 66
     0
277
    -2
287
     1
 67
     0
278
    -2
288
     1
 68
     0
279
    -2
289
     1
 69
     0
  7
Standard
140
0.25
170
     5
 62
     0
 63
     7
283
     0
 90
      512
 91
        0
  1

274
    -2
284
     1
 64
     0
275
    -2
285
     1
 65
     0
276
    -2
286
     1
 66
     0
277
    -2
287
     1
 67
     0
278
    -2
288
     1
 68
     0
279
    -2
289
     1
 69
     0
  7
Standard
140
0.18
170
     5
 62
     0
 63
     7
283
     0
 90
      512
 91
        0
  1

274
    -2
284
     1
 64
     0
275
    -2
285
     1
 65
     0
276
    -2
286
     1
 66
     0
277
    -2
287
     1
 67
     0
278
    -2
288
     1
 68
     0
279
    -2
289
     1
 69
     0
  0
VISUALSTYLE
  5
2F
102
{ACAD_REACTORS
330
29
102
}
330
29
100
AcDbVisualStyle
  2
2dWireframe
 70
     4
177
     3
291
     0
 70
    58
 90
        0
176
     1
 90
        2
176
     1
 90
        0
176
     1
 90
        0
176
     1
 40
0.6
176
     1
 40
30.0
176
     1
 62
     7
420
 16777215
176
     1
 90
        1
176
     1
 90
        4
176
     1
 62
     7
176
     1
 62
   257
176
     1
 90
        1
176
     1
 90
        1
176
     1
 40
1.0
176
     1
 90
        0
176
     1
 62
   257
176
     1
 40
1.0
176
     1
 90
        1
176
     1
 90
        6
176
     1
 90
        2
176
     1
 62
     7
176
     1
 90
        5
176
     1
 90
        0
176
     1
 90
        0
176
     1
290
     0
176
     1
 90
        1
176
     1
 40
0.0
176
     1
 90
        0
176
     1
290
     1
176
     1
290
     1
176
     1
290
     0
176
     1
290
     0
176
     1
290
     0
176
     1
290
     0
176
     1
290
     0
176
     1
290
     0
176
     1
290
     0
176
     1
 90
       50
176
     1
 40
0.0
176
     1
 40
1.0
176
     1
 90
        0
176
     1
 62
    18
420
        0
176
     1
 90
       50
176
     1
 90
        3
176
     1
 62
     5
420
      255
176
     1
290
     0
176
     1
 90
       50
176
     1
 90
       50
176
     1
 90
       50
176
     1
290
     0
176
     1
 90
       50
176
     1
 62
   256
176
     0
 40
1.0
176
     0
 90
        2
176
     1
  1
strokes_ogs.tif
176
     1
290
     0
176
     1
 40
1.0
176
     1
 40
1.0
176
     1
  0
VISUALSTYLE
  5
2E
102
{ACAD_REACTORS
330
29
102
}
330
29
100
AcDbVisualStyle
  2
Basic
 70
     7
177
     3
291
     1
 70
    58
 90
        1
176
     1
 90
        0
176
     1
 90
        1
176
     1
 90
        0
176
     1
 40
0.6
176
     1
 40
30.0
176
     1
 62
     7
420
 16777215
176
     1
 90
        0
176
     1
 90
        4
176
     1
 62
     7
176
     1
 62
   257
176
     1
 90
        1
176
     1
 90
        1
176
     1
 40
1.0
176
     1
 90
        8
176
     1
 62
     7
176
     1
 40
1.0
176
     1
 90
        1
176
     1
 90
        6
176
     1
 90
        2
176
     1
 62
     7
176
     1
 90
        5
176
     1
 90
        0
176
     1
 90
        0
176
     1
290
     0
176
     1
 90
        1
176
     1
 40
0.0
176
     1
 90
        0
176
     1
290
     0
176
     1
290
     1
176
     1
290
     1
176
     1
290
     0
176
     1
290
     0
176
     1
290
     0
176
     1
290
     0
176
     1
290
     0
176
     1
290
     0
176
     1
 90
       50
176
     1
 40
0.0
176
     1
 40
1.0
176
     1
 90
        0
176
     1
 62
    18
420
        0
176
     1
 90
       50
176
     1
 90
        3
176
     1
 62
     5
420
      255
176
     1
290
     0
176
     1
 90
       50
176
     1
 90
       50
176
     1
 90
       50
176
     1
290
     0
176
     1
 90
       50
176
     1
 62
   256
176
     0
 40
1.0
176
     0
 90
        2
176
     1
  1
strokes_ogs.tif
176
     1
290
     0
176
     1
 40
1.0
176
     1
 40
1.0
176
     1
  0
VISUALSTYLE
  5
35
102
{ACAD_REACTORS
330
29
102
}
330
29
100
AcDbVisualStyle
  2
Brighten
 70
    12
177
     3
291
     1
 70
    58
 90
        2
176
     1
 90
        2
176
     1
 90
        0
176
     1
 90
        0
176
     1
 40
0.6
176
     1
 40
30.0
176
     1
 62
     7
420
 16777215
176
     1
 90
        1
176
     1
 90
        4
176
     1
 62
     7
176
     1
 62
   257
176
     1
 90
        1
176
     1
 90
        1
176
     1
 40
1.0
176
     1
 90
        8
176
     1
 62
     7
176
     1
 40
1.0
176
     1
 90
        1
176
     1
 90
        6
176
     1
 90
        2
176
     1
 62
     7
176
     1
 90
        5
176
     1
 90
        0
176
     1
 90
        0
176
     1
290
     0
176
     1
 90
        1
176
     1
 40
50.0
176
     1
 90
        0
176
     1
290
     0
176
     1
290
     1
176
     1
290
     1
176
     1
290
     0
176
     1
290
     0
176
     1
290
     0
176
     1
290
     0
176
     1
290
     0
176
     1
290
     0
176
     1
 90
       50
176
     1
 40
0.0
176
     1
 40
1.0
176
     1
 90
        0
176
     1
 62
    18
420
        0
176
     1
 90
       50
176
     1
 90
        3
176
     1
 62
     5
420
      255
176
     1
290
     0
176
     1
 90
       50
176
     1
 90
       50
176
     1
 90
       50
176
     1
290
     0
176
     1
 90
       50
176
     1
 62
   256
176
     0
 40
1.0
176
     0
 90
        2
176
     1
  1
strokes_ogs.tif
176
     1
290
     0
176
     1
 40
1.0
176
     1
 40
1.0
176
     1
  0
VISUALSTYLE
  5
39
102
{ACAD_REACTORS
330
29
102
}
330
29
100
AcDbVisualStyle
  2
ColorChange
 70
    16
177
     3
291
     1
 70
    58
 90
        2
176
     1
 90
        2
176
     1
 90
        3
176
     1
 90
        0
176
     1
 40
0.6
176
     1
 40
30.0
176
     1
 62
     8
420
  8421504
176
     1
 90
        1
176
     1
 90
        4
176
     1
 62
     7
176
     1
 62
   257
176
     1
 90
        1
176
     1
 90
        1
176
     1
 40
1.0
176
     1
 90
        8
176
     1
 62
     8
420
  8421504
176
     1
 40
1.0
176
     1
 90
        1
176
     1
 90
        6
176
     1
 90
        2
176
     1
 62
     7
176
     1
 90
        5
176
     1
 90
        0
176
     1
 90
        0
176
     1
290
     0
176
     1
 90
        1
176
     1
 40
0.0
176
     1
 90
        0
176
     1
290
     0
176
     1
290
     1
176
     1
290
     1
176
     1
290
     0
176
     1
290
     0
176
     1
290
     0
176
     1
290
     0
176
     1
290
     0
176
     1
290
     0
176
     1
 90
       50
176
     1
 40
0.0
176
     1
 40
1.0
176
     1
 90
        0
176
     1
 62
    18
420
        0
176
     1
 90
       50
176
     1
 90
        3
176
     1
 62
     5
420
      255
176
     1
290
     0
176
     1
 90
       50
176
     1
 90
       50
176
     1
 90
       50
176
     1
290
     0
176
     1
 90
       50
176
     1
 62
   256
176
     0
 40
1.0
176
     0
 90
        2
176
     1
  1
strokes_ogs.tif
176
     1
290
     0
176
     1
 40
1.0
176
     1
 40
1.0
176
     1
  0
VISUALSTYLE
  5
32
102
{ACAD_REACTORS
330
29
102
}
330
29
100
AcDbVisualStyle
  2
Conceptual
 70
     9
177
     3
291
     0
 70
    58
 90
        3
176
     1
 90
        2
176
     1
 90
        0
176
     1
 90
        0
176
     1
 40
0.6
176
     1
 40
30.0
176
     1
 62
     7
420
 16777215
176
     1
 90
        2
176
     1
 90
        2
176
     1
 62
     7
176
     1
 62
   257
176
     1
 90
        1
176
     1
 90
        1
176
     1
 40
179.0
176
     1
 90
        8
176
     1
 62
     7
176
     1
 40
1.0
176
     1
 90
        1
176
     1
 90
        6
176
     1
 90
        2
176
     1
 62
     7
176
     1
 90
        3
176
     1
 90
        0
176
     1
 90
        0
176
     1
290
     0
176
     1
 90
        1
176
     1
 40
0.0
176
     1
 90
        0
176
     1
290
     0
176
     1
290
     1
176
     1
290
     1
176
     1
290
     0
176
     1
290
     0
176
     1
290
     0
176
     1
290
     0
176
     1
290
     0
176
     1
290
     0
176
     1
 90
       50
176
     1
 40
0.0
176
     1
 40
1.0
176
     1
 90
        0
176
     1
 62
    18
420
        0
176
     1
 90
       50
176
     1
 90
        3
176
     1
 62
     5
420
      255
176
     1
290
     0
176
     1
 90
       50
176
     1
 90
       50
176
     1
 90
       50
176
     1
290
     0
176
     1
 90
       50
176
     1
 62
   256
176
     0
 40
1.0
176
     0
 90
        2
176
     1
  1
strokes_ogs.tif
176
     1
290
     0
176
     1
 40
1.0
176
     1
 40
1.0
176
     1
  0
VISUALSTYLE
  5
34
102
{ACAD_REACTORS
330
29
102
}
330
29
100
AcDbVisualStyle
  2
Dim
 70
    11
177
     3
291
     1
 70
    58
 90
        2
176
     1
 90
        2
176
     1
 90
        0
176
     1
 90
        0
176
     1
 40
0.6
176
     1
 40
30.0
176
     1
 62
     7
420
 16777215
176
     1
 90
        1
176
     1
 90
        4
176
     1
 62
     7
176
     1
 62
   257
176
     1
 90
        1
176
     1
 90
        1
176
     1
 40
1.0
176
     1
 90
        8
176
     1
 62
     7
176
     1
 40
1.0
176
     1
 90
        1
176
     1
 90
        6
176
     1
 90
        2
176
     1
 62
     7
176
     1
 90
        5
176
     1
 90
        0
176
     1
 90
        0
176
     1
290
     0
176
     1
 90
        1
176
     1
 40
-50.0
176
     1
 90
        0
176
     1
290
     0
176
     1
290
     1
176
     1
290
     1
176
     1
290
     0
176
     1
290
     0
176
     1
290
     0
176
     1
290
     0
176
     1
290
     0
176
     1
290
     0
176
     1
 90
       50
176
     1
 40
0.0
176
     1
 40
1.0
176
     1
 90
        0
176
     1
 62
    18
420
        0
176
     1
 90
       50
176
     1
 90
        3
176
     1
 62
     5
420
      255
176
     1
290
     0
176
     1
 90
       50
176
     1
 90
       50
176
     1
 90
       50
176
     1
290
     0
176
     1
 90
       50
176
     1
 62
   256
176
     0
 40
1.0
176
     0
 90
        2
176
     1
  1
strokes_ogs.tif
176
     1
290
     0
176
     1
 40
1.0
176
     1
 40
1.0
176
     1
  0
VISUALSTYLE
  5
41
102
{ACAD_REACTORS
330
29
102
}
330
29
100
AcDbVisualStyle
  2
EdgeColorOff
 70
    22
177
     3
291
     1
 70
    58
 90
        2
176
     0
 90
        2
176
     0
 90
        0
176
     0
 90
        0
176
     0
 40
0.6
176
     0
 40
30.0
176
     0
 62
     7
420
 16777215
176
     0
 90
        1
176
     0
 90
        4
176
     0
 62
     7
176
     0
 62
   257
176
     0
 90
        1
176
     0
 90
        1
176
     0
 40
1.0
176
     0
 90
        8
176
     2
 62
     7
176
     0
 40
1.0
176
     0
 90
        1
176
     0
 90
        6
176
     0
 90
        2
176
     0
 62
     7
176
     0
 90
        5
176
     0
 90
        0
176
     0
 90
        0
176
     0
290
     0
176
     0
 90
        1
176
     0
 40
0.0
176
     0
 90
        0
176
     0
290
     0
176
     0
290
     1
176
     0
290
     1
176
     0
290
     0
176
     0
290
     0
176
     0
290
     0
176
     0
290
     0
176
     0
290
     0
176
     0
290
     0
176
     0
 90
       50
176
     0
 40
0.0
176
     0
 40
1.0
176
     0
 90
        0
176
     0
 62
    18
420
        0
176
     0
 90
       50
176
     0
 90
        3
176
     0
 62
     5
420
      255
176
     0
290
     0
176
     0
 90
       50
176
     0
 90
       50
176
     0
 90
       50
176
     0
290
     0
176
     0
 90
       50
176
     0
 62
   256
176
     0
 40
1.0
176
     0
 90
        2
176
     0
  1
strokes_ogs.tif
176
     0
290
     0
176
     0
 40
1.0
176
     0
 40
1.0
176
     0
  0
VISUALSTYLE
  5
38
102
{ACAD_REACTORS
330
29
102
}
330
29
100
AcDbVisualStyle
  2
Facepattern
 70
    15
177
     3
291
     1
 70
    58
 90
        2
176
     1
 90
        2
176
     1
 90
        0
176
     1
 90
        0
176
     1
 40
0.6
176
     1
 40
30.0
176
     1
 62
     7
420
 16777215
176
     1
 90
        1
176
     1
 90
        4
176
     1
 62
     7
176
     1
 62
   257
176
     1
 90
        1
176
     1
 90
        1
176
     1
 40
1.0
176
     1
 90
        8
176
     1
 62
     7
176
     1
 40
1.0
176
     1
 90
        1
176
     1
 90
        6
176
     1
 90
        2
176
     1
 62
     7
176
     1
 90
        5
176
     1
 90
        0
176
     1
 90
        0
176
     1
290
     0
176
     1
 90
        1
176
     1
 40
0.0
176
     1
 90
        0
176
     1
290
     0
176
     1
290
     1
176
     1
290
     1
176
     1
290
     0
176
     1
290
     0
176
     1
290
     0
176
     1
290
     0
176
     1
290
     0
176
     1
290
     0
176
     1
 90
       50
176
     1
 40
0.0
176
     1
 40
1.0
176
     1
 90
        0
176
     1
 62
    18
420
        0
176
     1
 90
       50
176
     1
 90
        3
176
     1
 62
     5
420
      255
176
     1
290
     0
176
     1
 90
       50
176
     1
 90
       50
176
     1
 90
       50
176
     1
290
     0
176
     1
 90
       50
176
     1
 62
   256
176
     0
 40
1.0
176
     0
 90
        2
176
     1
  1
strokes_ogs.tif
176
     1
290
     0
176
     1
 40
1.0
176
     1
 40
1.0
176
     1
  0
VISUALSTYLE
  5
2A
102
{ACAD_REACTORS
330
29
102
}
330
29
100
AcDbVisualStyle
  2
Flat
 70
     0
177
     3
291
     1
 70
    58
 90
        2
176
     1
 90
        1
176
     1
 90
        1
176
     1
 90
        2
176
     1
 40
0.6
176
     1
 40
30.0
176
     1
 62
     7
420
 16777215
176
     1
 90
        0
176
     1
 90
        0
176
     1
 62
     7
176
     1
 62
   257
176
     1
 90
        1
176
     1
 90
        1
176
     1
 40
1.0
176
     1
 90
        8
176
     1
 62
     7
176
     1
 40
1.0
176
     1
 90
        1
176
     1
 90
        6
176
     1
 90
        2
176
     1
 62
     7
176
     1
 90
        5
176
     1
 90
        0
176
     1
 90
        0
176
     1
290
     0
176
     1
 90
       13
176
     1
 40
0.0
176
     1
 90
        0
176
     1
290
     0
176
     1
290
     1
176
     1
290
     1
176
     1
290
     0
176
     1
290
     0
176
     1
290
     0
176
     1
290
     0
176
     1
290
     0
176
     1
290
     0
176
     1
 90
       50
176
     1
 40
0.0
176
     1
 40
1.0
176
     1
 90
        0
176
     1
 62
    18
420
        0
176
     1
 90
       50
176
     1
 90
        3
176
     1
 62
     5
420
      255
176
     1
290
     0
176
     1
 90
       50
176
     1
 90
       50
176
     1
 90
       50
176
     1
290
     0
176
     1
 90
       50
176
     1
 62
   256
176
     0
 40
1.0
176
     0
 90
        2
176
     1
  1
strokes_ogs.tif
176
     1
290
     0
176
     1
 40
1.0
176
     1
 40
1.0
176
     1
  0
VISUALSTYLE
  5
2B
102
{ACAD_REACTORS
330
29
102
}
330
29
100
AcDbVisualStyle
  2
FlatWithEdges
 70
     1
177
     3
291
     1
 70
    58
 90
        2
176
     1
 90
        1
176
     1
 90
        1
176
     1
 90
        2
176
     1
 40
0.6
176
     1
 40
30.0
176
     1
 62
     7
420
 16777215
176
     1
 90
        1
176
     1
 90
        0
176
     1
 62
     7
176
     1
 62
   257
176
     1
 90
        1
176
     1
 90
        1
176
     1
 40
1.0
176
     1
 90
        0
176
     1
 62
   257
176
     1
 40
1.0
176
     1
 90
        1
176
     1
 90
        6
176
     1
 90
        2
176
     1
 62
     7
176
     1
 90
        5
176
     1
 90
        0
176
     1
 90
        0
176
     1
290
     0
176
     1
 90
       13
176
     1
 40
0.0
176
     1
 90
        0
176
     1
290
     0
176
     1
290
     1
176
     1
290
     1
176
     1
290
     0
176
     1
290
     0
176
     1
290
     0
176
     1
290
     0
176
     1
290
     0
176
     1
290
     0
176
     1
 90
       50
176
     1
 40
0.0
176
     1
 40
1.0
176
     1
 90
        0
176
     1
 62
    18
420
        0
176
     1
 90
       50
176
     1
 90
        3
176
     1
 62
     5
420
      255
176
     1
290
     0
176
     1
 90
       50
176
     1
 90
       50
176
     1
 90
       50
176
     1
290
     0
176
     1
 90
       50
176
     1
 62
   256
176
     0
 40
1.0
176
     0
 90
        2
176
     1
  1
strokes_ogs.tif
176
     1
290
     0
176
     1
 40
1.0
176
     1
 40
1.0
176
     1
  0
VISUALSTYLE
  5
2C
102
{ACAD_REACTORS
330
29
102
}
330
29
100
AcDbVisualStyle
  2
Gouraud
 70
     2
177
     3
291
     1
 70
    58
 90
        2
176
     1
 90
        2
176
     1
 90
        1
176
     1
 90
        2
176
     1
 40
0.6
176
     1
 40
30.0
176
     1
 62
     7
420
 16777215
176
     1
 90
        0
176
     1
 90
        0
176
     1
 62
     7
176
     1
 62
   257
176
     1
 90
        1
176
     1
 90
        1
176
     1
 40
1.0
176
     1
 90
        0
176
     1
 62
     7
176
     1
 40
1.0
176
     1
 90
        1
176
     1
 90
        6
176
     1
 90
        2
176
     1
 62
     7
176
     1
 90
        5
176
     1
 90
        0
176
     1
 90
        0
176
     1
290
     0
176
     1
 90
       13
176
     1
 40
0.0
176
     1
 90
        0
176
     1
290
     0
176
     1
290
     1
176
     1
290
     1
176
     1
290
     0
176
     1
290
     0
176
     1
290
     0
176
     1
290
     0
176
     1
290
     0
176
     1
290
     0
176
     1
 90
       50
176
     1
 40
0.0
176
     1
 40
1.0
176
     1
 90
        0
176
     1
 62
    18
420
        0
176
     1
 90
       50
176
     1
 90
        3
176
     1
 62
     5
420
      255
176
     1
290
     0
176
     1
 90
       50
176
     1
 90
       50
176
     1
 90
       50
176
     1
290
     0
176
     1
 90
       50
176
     1
 62
   256
176
     0
 40
1.0
176
     0
 90
        2
176
     1
  1
strokes_ogs.tif
176
     1
290
     0
176
     1
 40
1.0
176
     1
 40
1.0
176
     1
  0
VISUALSTYLE
  5
2D
102
{ACAD_REACTORS
330
29
102
}
330
29
100
AcDbVisualStyle
  2
GouraudWithEdges
 70
     3
177
     3
291
     1
 70
    58
 90
        2
176
     1
 90
        2
176
     1
 90
        1
176
     1
 90
        2
176
     1
 40
0.6
176
     1
 40
30.0
176
     1
 62
     7
420
 16777215
176
     1
 90
        1
176
     1
 90
        0
176
     1
 62
     7
176
     1
 62
   257
176
     1
 90
        1
176
     1
 90
        1
176
     1
 40
1.0
176
     1
 90
        0
176
     1
 62
   257
176
     1
 40
1.0
176
     1
 90
        1
176
     1
 90
        6
176
     1
 90
        2
176
     1
 62
     7
176
     1
 90
        5
176
     1
 90
        0
176
     1
 90
        0
176
     1
290
     0
176
     1
 90
       13
176
     1
 40
0.0
176
     1
 90
        0
176
     1
290
     0
176
     1
290
     1
176
     1
290
     1
176
     1
290
     0
176
     1
290
     0
176
     1
290
     0
176
     1
290
     0
176
     1
290
     0
176
     1
290
     0
176
     1
 90
       50
176
     1
 40
0.0
176
     1
 40
1.0
176
     1
 90
        0
176
     1
 62
    18
420
        0
176
     1
 90
       50
176
     1
 90
        3
176
     1
 62
     5
420
      255
176
     1
290
     0
176
     1
 90
       50
176
     1
 90
       50
176
     1
 90
       50
176
     1
290
     0
176
     1
 90
       50
176
     1
 62
   256
176
     0
 40
1.0
176
     0
 90
        2
176
     1
  1
strokes_ogs.tif
176
     1
290
     0
176
     1
 40
1.0
176
     1
 40
1.0
176
     1
  0
VISUALSTYLE
  5
31
102
{ACAD_REACTORS
330
29
102
}
330
29
100
AcDbVisualStyle
  2
Hidden
 70
     6
177
     3
291
     0
 70
    58
 90
        1
176
     1
 90
        2
176
     1
 90
        2
176
     1
 90
        0
176
     1
 40
0.6
176
     1
 40
30.0
176
     1
 62
     7
420
 16777215
176
     1
 90
        2
176
     1
 90
        2
176
     1
 62
     7
176
     1
 62
   257
176
     1
 90
        2
176
     1
 90
        1
176
     1
 40
40.0
176
     1
 90
        0
176
     1
 62
   257
176
     1
 40
1.0
176
     1
 90
        1
176
     1
 90
        6
176
     1
 90
        2
176
     1
 62
     7
176
     1
 90
        3
176
     1
 90
        0
176
     1
 90
        0
176
     1
290
     0
176
     1
 90
        1
176
     1
 40
0.0
176
     1
 90
        0
176
     1
290
     0
176
     1
290
     1
176
     1
290
     1
176
     1
290
     0
176
     1
290
     0
176
     1
290
     0
176
     1
290
     0
176
     1
290
     0
176
     1
290
     0
176
     1
 90
       50
176
     1
 40
0.0
176
     1
 40
1.0
176
     1
 90
        0
176
     1
 62
    18
420
        0
176
     1
 90
       50
176
     1
 90
        3
176
     1
 62
     5
420
      255
176
     1
290
     0
176
     1
 90
       50
176
     1
 90
       50
176
     1
 90
       50
176
     1
290
     0
176
     1
 90
       50
176
     1
 62
   256
176
     0
 40
1.0
176
     0
 90
        2
176
     1
  1
strokes_ogs.tif
176
     1
290
     0
176
     1
 40
1.0
176
     1
 40
1.0
176
     1
  0
VISUALSTYLE
  5
3F
102
{ACAD_REACTORS
330
29
102
}
330
29
100
AcDbVisualStyle
  2
JitterOff
 70
    20
177
     3
291
     1
 70
    58
 90
        2
176
     0
 90
        2
176
     0
 90
        0
176
     0
 90
        0
176
     0
 40
0.6
176
     0
 40
30.0
176
     0
 62
     7
420
 16777215
176
     0
 90
        1
176
     0
 90
        4
176
     0
 62
     7
176
     0
 62
   257
176
     0
 90
        1
176
     0
 90
        1
176
     0
 40
1.0
176
     0
 90
       10
176
     2
 62
     7
176
     0
 40
1.0
176
     0
 90
        1
176
     0
 90
        6
176
     0
 90
        2
176
     0
 62
     7
176
     0
 90
        5
176
     0
 90
        0
176
     0
 90
        0
176
     0
290
     0
176
     0
 90
        1
176
     0
 40
0.0
176
     0
 90
        0
176
     0
290
     0
176
     0
290
     1
176
     0
290
     1
176
     0
290
     0
176
     0
290
     0
176
     0
290
     0
176
     0
290
     0
176
     0
290
     0
176
     0
290
     0
176
     0
 90
       50
176
     0
 40
0.0
176
     0
 40
1.0
176
     0
 90
        0
176
     0
 62
    18
420
        0
176
     0
 90
       50
176
     0
 90
        3
176
     0
 62
     5
420
      255
176
     0
290
     0
176
     0
 90
       50
176
     0
 90
       50
176
     0
 90
       50
176
     0
290
     0
176
     0
 90
       50
176
     0
 62
   256
176
     0
 40
1.0
176
     0
 90
        2
176
     0
  1
strokes_ogs.tif
176
     0
290
     0
176
     0
 40
1.0
176
     0
 40
1.0
176
     0
  0
VISUALSTYLE
  5
37
102
{ACAD_REACTORS
330
29
102
}
330
29
100
AcDbVisualStyle
  2
Linepattern
 70
    14
177
     3
291
     1
 70
    58
 90
        2
176
     1
 90
        2
176
     1
 90
        0
176
     1
 90
        0
176
     1
 40
0.6
176
     1
 40
30.0
176
     1
 62
     7
420
 16777215
176
     1
 90
        1
176
     1
 90
        4
176
     1
 62
     7
176
     1
 62
   257
176
     1
 90
        7
176
     1
 90
        7
176
     1
 40
1.0
176
     1
 90
        8
176
     1
 62
     7
176
     1
 40
1.0
176
     1
 90
        1
176
     1
 90
        6
176
     1
 90
        2
176
     1
 62
     7
176
     1
 90
        5
176
     1
 90
        0
176
     1
 90
        0
176
     1
290
     0
176
     1
 90
        1
176
     1
 40
0.0
176
     1
 90
        0
176
     1
290
     0
176
     1
290
     1
176
     1
290
     1
176
     1
290
     0
176
     1
290
     0
176
     1
290
     0
176
     1
290
     0
176
     1
290
     0
176
     1
290
     0
176
     1
 90
       50
176
     1
 40
0.0
176
     1
 40
1.0
176
     1
 90
        0
176
     1
 62
    18
420
        0
176
     1
 90
       50
176
     1
 90
        3
176
     1
 62
     5
420
      255
176
     1
290
     0
176
     1
 90
       50
176
     1
 90
       50
176
     1
 90
       50
176
     1
290
     0
176
     1
 90
       50
176
     1
 62
   256
176
     0
 40
1.0
176
     0
 90
        2
176
     1
  1
strokes_ogs.tif
176
     1
290
     0
176
     1
 40
1.0
176
     1
 40
1.0
176
     1
  0
VISUALSTYLE
  5
40
102
{ACAD_REACTORS
330
29
102
}
330
29
100
AcDbVisualStyle
  2
OverhangOff
 70
    21
177
     3
291
     1
 70
    58
 90
        2
176
     0
 90
        2
176
     0
 90
        0
176
     0
 90
        0
176
     0
 40
0.6
176
     0
 40
30.0
176
     0
 62
     7
420
 16777215
176
     0
 90
        1
176
     0
 90
        4
176
     0
 62
     7
176
     0
 62
   257
176
     0
 90
        1
176
     0
 90
        1
176
     0
 40
1.0
176
     0
 90
        9
176
     2
 62
     7
176
     0
 40
1.0
176
     0
 90
        1
176
     0
 90
        6
176
     0
 90
        2
176
     0
 62
     7
176
     0
 90
        5
176
     0
 90
        0
176
     0
 90
        0
176
     0
290
     0
176
     0
 90
        1
176
     0
 40
0.0
176
     0
 90
        0
176
     0
290
     0
176
     0
290
     1
176
     0
290
     1
176
     0
290
     0
176
     0
290
     0
176
     0
290
     0
176
     0
290
     0
176
     0
290
     0
176
     0
290
     0
176
     0
 90
       50
176
     0
 40
0.0
176
     0
 40
1.0
176
     0
 90
        0
176
     0
 62
    18
420
        0
176
     0
 90
       50
176
     0
 90
        3
176
     0
 62
     5
420
      255
176
     0
290
     0
176
     0
 90
       50
176
     0
 90
       50
176
     0
 90
       50
176
     0
290
     0
176
     0
 90
       50
176
     0
 62
   256
176
     0
 40
1.0
176
     0
 90
        2
176
     0
  1
strokes_ogs.tif
176
     0
290
     0
176
     0
 40
1.0
176
     0
 40
1.0
176
     0
  0
VISUALSTYLE
  5
33
102
{ACAD_REACTORS
330
29
102
}
330
29
100
AcDbVisualStyle
  2
Realistic
 70
     8
177
     3
291
     0
 70
    58
 90
        2
176
     1
 90
        3
176
     1
 90
        0
176
     1
 90
        2
176
     1
 40
0.6
176
     1
 40
30.0
176
     1
 62
     7
420
 16777215
176
     1
 90
        0
176
     1
 90
        0
176
     1
 62
     7
176
     1
 62
   257
176
     1
 90
        1
176
     1
 90
        1
176
     1
 40
1.0
176
     1
 90
        8
176
     1
 62
   257
176
     1
 40
1.0
176
     1
 90
        1
176
     1
 90
        6
176
     1
 90
        2
176
     1
 62
     7
176
     1
 90
        3
176
     1
 90
        0
176
     1
 90
        0
176
     1
290
     0
176
     1
 90
       13
176
     1
 40
0.0
176
     1
 90
        0
176
     1
290
     0
176
     1
290
     1
176
     1
290
     1
176
     1
290
     0
176
     1
290
     0
176
     1
290
     0
176
     1
290
     0
176
     1
290
     0
176
     1
290
     0
176
     1
 90
       50
176
     1
 40
0.0
176
     1
 40
1.0
176
     1
 90
        0
176
     1
 62
    18
420
        0
176
     1
 90
       50
176
     1
 90
        3
176
     1
 62
     5
420
      255
176
     1
290
     0
176
     1
 90
       50
176
     1
 90
       50
176
     1
 90
       50
176
     1
290
     0
176
     1
 90
       50
176
     1
 62
   256
176
     0
 40
1.0
176
     0
 90
        2
176
     1
  1
strokes_ogs.tif
176
     1
290
     0
176
     1
 40
1.0
176
     1
 40
1.0
176
     1
  0
VISUALSTYLE
  5
3E
102
{ACAD_REACTORS
330
29
102
}
330
29
100
AcDbVisualStyle
  2
Shaded
 70
    27
177
     3
291
     0
 70
    58
 90
        2
176
     1
 90
        2
176
     1
 90
        1
176
     1
 90
        2
176
     1
 40
0.6
176
     1
 40
30.0
176
     1
 62
     7
420
 16777215
176
     1
 90
        0
176
     1
 90
        4
176
     1
 62
     7
176
     1
 62
   257
176
     1
 90
        1
176
     1
 90
        1
176
     1
 40
1.0
176
     1
 90
        8
176
     1
 62
   257
176
     1
 40
1.0
176
     1
 90
        1
176
     1
 90
        6
176
     1
 90
        2
176
     1
 62
     8
420
  7895160
176
     1
 90
        3
176
     1
 90
        0
176
     1
 90
        0
176
     1
290
     0
176
     1
 90
        5
176
     1
 40
0.0
176
     1
 90
        0
176
     1
290
     0
176
     1
290
     1
176
     1
290
     1
176
     1
290
     0
176
     1
290
     0
176
     1
290
     0
176
     1
290
     0
176
     1
290
     0
176
     1
290
     0
176
     1
 90
       50
176
     1
 40
0.0
176
     1
 40
1.0
176
     1
 90
        0
176
     1
 62
    18
420
        0
176
     1
 90
       50
176
     1
 90
        3
176
     1
 62
     5
420
      255
176
     1
290
     0
176
     1
 90
       50
176
     1
 90
       50
176
     1
 90
       50
176
     1
290
     0
176
     1
 90
       50
176
     1
 62
   256
176
     0
 40
1.0
176
     0
 90
        2
176
     1
  1
strokes_ogs.tif
176
     1
290
     0
176
     1
 40
1.0
176
     1
 40
1.0
176
     1
  0
VISUALSTYLE
  5
3D
102
{ACAD_REACTORS
330
29
102
}
330
29
100
AcDbVisualStyle
  2
Shaded with edges
 70
    26
177
     3
291
     0
 70
    58
 90
        2
176
     1
 90
        2
176
     1
 90
        1
176
     1
 90
        2
176
     1
 40
0.6
176
     1
 40
30.0
176
     1
 62
     7
420
 16777215
176
     1
 90
        1
176
     1
 90
        2
176
     1
 62
     7
176
     1
 62
   257
176
     1
 90
        2
176
     1
 90
        1
176
     1
 40
1.0
176
     1
 90
        8
176
     1
 62
   257
176
     1
 40
1.0
176
     1
 90
        1
176
     1
 90
        6
176
     1
 90
        2
176
     1
 62
     7
176
     1
 90
        3
176
     1
 90
        0
176
     1
 90
        0
176
     1
290
     0
176
     1
 90
        5
176
     1
 40
0.0
176
     1
 90
        0
176
     1
290
     0
176
     1
290
     1
176
     1
290
     1
176
     1
290
     0
176
     1
290
     0
176
     1
290
     0
176
     1
290
     0
176
     1
290
     0
176
     1
290
     0
176
     1
 90
       50
176
     1
 40
0.0
176
     1
 40
1.0
176
     1
 90
        0
176
     1
 62
    18
420
        0
176
     1
 90
       50
176
     1
 90
        3
176
     1
 62
     5
420
      255
176
     1
290
     0
176
     1
 90
       50
176
     1
 90
       50
176
     1
 90
       50
176
     1
290
     0
176
     1
 90
       50
176
     1
 62
   256
176
     0
 40
1.0
176
     0
 90
        2
176
     1
  1
strokes_ogs.tif
176
     1
290
     0
176
     1
 40
1.0
176
     1
 40
1.0
176
     1
  0
VISUALSTYLE
  5
3A
102
{ACAD_REACTORS
330
29
102
}
330
29
100
AcDbVisualStyle
  2
Shades of Gray
 70
    23
177
     3
291
     0
 70
    58
 90
        2
176
     1
 90
        2
176
     1
 90
        3
176
     1
 90
        0
176
     1
 40
0.6
176
     1
 40
30.0
176
     1
 62
     7
420
 16777215
176
     1
 90
        2
176
     1
 90
        2
176
     1
 62
     7
176
     1
 62
     7
176
     1
 90
        1
176
     1
 90
        1
176
     1
 40
40.0
176
     1
 90
        8
176
     1
 62
     7
176
     1
 40
1.0
176
     1
 90
        1
176
     1
 90
        6
176
     1
 90
        2
176
     1
 62
     7
176
     1
 90
        3
176
     1
 90
        0
176
     1
 90
        0
176
     1
290
     0
176
     1
 90
        1
176
     1
 40
0.0
176
     1
 90
        0
176
     1
290
     0
176
     1
290
     1
176
     1
290
     1
176
     1
290
     0
176
     1
290
     0
176
     1
290
     0
176
     1
290
     0
176
     1
290
     0
176
     1
290
     0
176
     1
 90
       50
176
     1
 40
0.0
176
     1
 40
1.0
176
     1
 90
        0
176
     1
 62
    18
420
        0
176
     1
 90
       50
176
     1
 90
        3
176
     1
 62
     5
420
      255
176
     1
290
     0
176
     1
 90
       50
176
     1
 90
       50
176
     1
 90
       50
176
     1
290
     0
176
     1
 90
       50
176
     1
 62
   256
176
     0
 40
1.0
176
     0
 90
        2
176
     1
  1
strokes_ogs.tif
176
     1
290
     0
176
     1
 40
1.0
176
     1
 40
1.0
176
     1
  0
VISUALSTYLE
  5
3B
102
{ACAD_REACTORS
330
29
102
}
330
29
100
AcDbVisualStyle
  2
Sketchy
 70
    24
177
     3
291
     0
 70
    58
 90
        1
176
     1
 90
        2
176
     1
 90
        2
176
     1
 90
        0
176
     1
 40
0.6
176
     1
 40
30.0
176
     1
 62
     7
420
 16777215
176
     1
 90
        2
176
     1
 90
        2
176
     1
 62
     7
176
     1
 62
     7
176
     1
 90
        1
176
     1
 90
        1
176
     1
 40
40.0
176
     1
 90
       11
176
     1
 62
     7
176
     1
 40
1.0
176
     1
 90
        1
176
     1
 90
        6
176
     1
 90
        2
176
     1
 62
     7
176
     1
 90
        6
176
     1
 90
        0
176
     1
 90
        0
176
     1
290
     0
176
     1
 90
        1
176
     1
 40
0.0
176
     1
 90
        0
176
     1
290
     0
176
     1
290
     1
176
     1
290
     1
176
     1
290
     0
176
     1
290
     0
176
     1
290
     0
176
     1
290
     0
176
     1
290
     0
176
     1
290
     0
176
     1
 90
       50
176
     1
 40
0.0
176
     1
 40
1.0
176
     1
 90
        0
176
     1
 62
    18
420
        0
176
     1
 90
       50
176
     1
 90
        3
176
     1
 62
     5
420
      255
176
     1
290
     0
176
     1
 90
       50
176
     1
 90
       50
176
     1
 90
       50
176
     1
290
     0
176
     1
 90
       50
176
     1
 62
   256
176
     0
 40
1.0
176
     0
 90
        2
176
     1
  1
strokes_ogs.tif
176
     1
290
     0
176
     1
 40
1.0
176
     1
 40
1.0
176
     1
  0
VISUALSTYLE
  5
36
102
{ACAD_REACTORS
330
29
102
}
330
29
100
AcDbVisualStyle
  2
Thicken
 70
    13
177
     3
291
     1
 70
    58
 90
        2
176
     1
 90
        2
176
     1
 90
        0
176
     1
 90
        0
176
     1
 40
0.6
176
     1
 40
30.0
176
     1
 62
     7
420
 16777215
176
     1
 90
        1
176
     1
 90
        4
176
     1
 62
     7
176
     1
 62
   257
176
     1
 90
        1
176
     1
 90
        1
176
     1
 40
1.0
176
     1
 90
       12
176
     1
 62
     7
176
     1
 40
1.0
176
     1
 90
        1
176
     1
 90
        6
176
     1
 90
        2
176
     1
 62
     7
176
     1
 90
        5
176
     1
 90
        0
176
     1
 90
        0
176
     1
290
     0
176
     1
 90
        1
176
     1
 40
0.0
176
     1
 90
        0
176
     1
290
     0
176
     1
290
     1
176
     1
290
     1
176
     1
290
     0
176
     1
290
     0
176
     1
290
     0
176
     1
290
     0
176
     1
290
     0
176
     1
290
     0
176
     1
 90
       50
176
     1
 40
0.0
176
     1
 40
1.0
176
     1
 90
        0
176
     1
 62
    18
420
        0
176
     1
 90
       50
176
     1
 90
        3
176
     1
 62
     5
420
      255
176
     1
290
     0
176
     1
 90
       50
176
     1
 90
       50
176
     1
 90
       50
176
     1
290
     0
176
     1
 90
       50
176
     1
 62
   256
176
     0
 40
1.0
176
     0
 90
        2
176
     1
  1
strokes_ogs.tif
176
     1
290
     0
176
     1
 40
1.0
176
     1
 40
1.0
176
     1
  0
VISUALSTYLE
  5
30
102
{ACAD_REACTORS
330
29
102
}
330
29
100
AcDbVisualStyle
  2
Wireframe
 70
     5
177
     3
291
     0
 70
    58
 90
        0
176
     1
 90
        2
176
     1
 90
        0
176
     1
 90
        0
176
     1
 40
0.6
176
     1
 40
30.0
176
     1
 62
     7
420
 16777215
176
     1
 90
        1
176
     1
 90
        4
176
     1
 62
     7
176
     1
 62
   257
176
     1
 90
        1
176
     1
 90
        1
176
     1
 40
1.0
176
     1
 90
        0
176
     1
 62
   257
176
     1
 40
1.0
176
     1
 90
        1
176
     1
 90
        6
176
     1
 90
        2
176
     1
 62
     7
176
     1
 90
        3
176
     1
 90
        0
176
     1
 90
        0
176
     1
290
     0
176
     1
 90
        1
176
     1
 40
0.0
176
     1
 90
        0
176
     1
290
     0
176
     1
290
     1
176
     1
290
     1
176
     1
290
     0
176
     1
290
     0
176
     1
290
     0
176
     1
290
     0
176
     1
290
     0
176
     1
290
     0
176
     1
 90
       50
176
     1
 40
0.0
176
     1
 40
1.0
176
     1
 90
        0
176
     1
 62
    18
420
        0
176
     1
 90
       50
176
     1
 90
        3
176
     1
 62
     5
420
      255
176
     1
290
     0
176
     1
 90
       50
176
     1
 90
       50
176
     1
 90
       50
176
     1
290
     0
176
     1
 90
       50
176
     1
 62
   256
176
     0
 40
1.0
176
     0
 90
        2
176
     1
  1
strokes_ogs.tif
176
     1
290
     0
176
     1
 40
1.0
176
     1
 40
1.0
176
     1
  0
VISUALSTYLE
  5
3C
102
{ACAD_REACTORS
330
29
102
}
330
29
100
AcDbVisualStyle
  2
X-Ray
 70
    25
177
     3
291
     0
 70
    58
 90
        2
176
     1
 90
        2
176
     1
 90
        1
176
     1
 90
        1
176
     1
 40
0.5
176
     1
 40
30.0
176
     1
 62
     7
420
 16777215
176
     1
 90
        1
176
     1
 90
        0
176
     1
 62
     7
176
     1
 62
   257
176
     1
 90
        1
176
     1
 90
        1
176
     1
 40
1.0
176
     1
 90
        8
176
     1
 62
     7
176
     1
 40
1.0
176
     1
 90
        1
176
     1
 90
        6
176
     1
 90
        2
176
     1
 62
     7
176
     1
 90
        3
176
     1
 90
        0
176
     1
 90
        0
176
     1
290
     0
176
     1
 90
       13
176
     1
 40
0.0
176
     1
 90
        0
176
     1
290
     0
176
     1
290
     1
176
     1
290
     1
176
     1
290
     0
176
     1
290
     0
176
     1
290
     0
176
     1
290
     0
176
     1
290
     0
176
     1
290
     0
176
     1
 90
       50
176
     1
 40
0.0
176
     1
 40
1.0
176
     1
 90
        0
176
     1
 62
    18
420
        0
176
     1
 90
       50
176
     1
 90
        3
176
     1
 62
     5
420
      255
176
     1
290
     0
176
     1
 90
       50
176
     1
 90
       50
176
     1
 90
       50
176
     1
290
     0
176
     1
 90
       50
176
     1
 62
   256
176
     0
 40
1.0
176
     0
 90
        2
176
     1
  1
strokes_ogs.tif
176
     1
290
     0
176
     1
 40
1.0
176
     1
 40
1.0
176
     1
  0
DICTIONARYVAR
  5
23C
102
{ACAD_REACTORS
330
237
102
}
330
237
100
DictionaryVariables
280
     0
  1
1:1
  0
DICTIONARYVAR
  5
239
102
{ACAD_REACTORS
330
237
102
}
330
237
100
DictionaryVariables
280
     0
  1
STANDARD
  0
DICTIONARYVAR
  5
238
102
{ACAD_REACTORS
330
237
102
}
330
237
100
DictionaryVariables
280
     0
  1
STANDARD
  0
DICTIONARYVAR
  5
23A
102
{ACAD_REACTORS
330
237
102
}
330
237
100
DictionaryVariables
280
     0
  1
Imperial24
  0
DICTIONARYVAR
  5
23B
102
{ACAD_REACTORS
330
237
102
}
330
237
100
DictionaryVariables
280
     0
  1
Imperial24
  0
XRECORD
  5
233
102
{ACAD_REACTORS
330
22F
102
}
330
22F
100
AcDbXrecord
280
     1
  1
BUILDING_ID
  1
Fazenda Maracujá, Acarí, Rio Grande do Norte
  1
FLOOR_ID
  1
22645582
  0
XRECORD
  5
231
102
{ACAD_REACTORS
330
22F
102
}
330
22F
100
AcDbXrecord
280
     1
  1
-2000011
  1
Paredes
  1
-2000023
  1
Portas
  1
-2000051
  1
Linhas
  1
-2000280
  1
Blocos de margens e carimbo
  0
XRECORD
  5
232
102
{ACAD_REACTORS
330
22F
102
}
330
22F
100
AcDbXrecord
280
     1
  1
-2000027
  1
Abertura
  1
-2000042
  1
<Linhas finas>
  1
-2000066
  1
<Separação de ambiente>
  1
-2000281
  1
<Linhas finas>
  1
-2000588
  1
Padrão de corte
  0
XRECORD
  5
230
102
{ACAD_REACTORS
330
22F
102
}
330
22F
100
AcDbXrecord
280
     1
  1
22369133
  1
porta multiplas_original : Simples - 60 cm
  1
22369135
  1
porta multiplas_original : Simples - 70 cm
  1
22369137
  1
porta multiplas_original : Simples - 90 cm
  1
22474519
  1
Parede básica : 00_PAREDE_GENERICA_30cm : 00_PAREDE_GENERICA_30cm
  1
22645566
  1
SVG : A4
  1
3324767
  1
Parede básica : 00_PAREDE_GENERICA_15_CM : 00_PAREDE_GENERICA_15_CM
  0
DICTIONARY
  5
1A
330
19
100
AcDbDictionary
280
     1
281
     1
  3
BUMPTILE
360
1C
  3
DIFFUSETILE
360
1B
  3
OPACITYTILE
360
1F
  3
REFLECTIONTILE
360
1E
  3
REFRACTIONTILE
360
20
  3
SPECULARTILE
360
1D
  0
DICTIONARY
  5
12
330
11
100
AcDbDictionary
280
     1
281
     1
  3
BUMPTILE
360
14
  3
DIFFUSETILE
360
13
  3
OPACITYTILE
360
17
  3
REFLECTIONTILE
360
16
  3
REFRACTIONTILE
360
18
  3
SPECULARTILE
360
15
  0
DICTIONARY
  5
22
330
21
100
AcDbDictionary
280
     1
281
     1
  3
BUMPTILE
360
24
  3
DIFFUSETILE
360
23
  3
OPACITYTILE
360
27
  3
REFLECTIONTILE
360
26
  3
REFRACTIONTILE
360
28
  3
SPECULARTILE
360
25
  0
DICTIONARY
  5
2D7
330
65
100
AcDbDictionary
280
     1
281
     1
  3
ACAD_ROUNDTRIP_2008_TABLESTYLE_CELLSTYLEMAP
360
2D8
  0
XRECORD
  5
1C
102
{ACAD_REACTORS
330
1A
102
}
330
1A
100
AcDbXrecord
280
     1
270
     1
271
     1
  0
XRECORD
  5
1B
102
{ACAD_REACTORS
330
1A
102
}
330
1A
100
AcDbXrecord
280
     1
270
     1
271
     1
  0
XRECORD
  5
1F
102
{ACAD_REACTORS
330
1A
102
}
330
1A
100
AcDbXrecord
280
     1
270
     1
271
     1
  0
XRECORD
  5
1E
102
{ACAD_REACTORS
330
1A
102
}
330
1A
100
AcDbXrecord
280
     1
270
     1
271
     1
  0
XRECORD
  5
20
102
{ACAD_REACTORS
330
1A
102
}
330
1A
100
AcDbXrecord
280
     1
270
     1
271
     1
  0
XRECORD
  5
1D
102
{ACAD_REACTORS
330
1A
102
}
330
1A
100
AcDbXrecord
280
     1
270
     1
271
     1
  0
XRECORD
  5
14
102
{ACAD_REACTORS
330
12
102
}
330
12
100
AcDbXrecord
280
     1
270
     1
271
     1
  0
XRECORD
  5
13
102
{ACAD_REACTORS
330
12
102
}
330
12
100
AcDbXrecord
280
     1
270
     1
271
     1
  0
XRECORD
  5
17
102
{ACAD_REACTORS
330
12
102
}
330
12
100
AcDbXrecord
280
     1
270
     1
271
     1
  0
XRECORD
  5
16
102
{ACAD_REACTORS
330
12
102
}
330
12
100
AcDbXrecord
280
     1
270
     1
271
     1
  0
XRECORD
  5
18
102
{ACAD_REACTORS
330
12
102
}
330
12
100
AcDbXrecord
280
     1
270
     1
271
     1
  0
XRECORD
  5
15
102
{ACAD_REACTORS
330
12
102
}
330
12
100
AcDbXrecord
280
     1
270
     1
271
     1
  0
XRECORD
  5
24
102
{ACAD_REACTORS
330
22
102
}
330
22
100
AcDbXrecord
280
     1
270
     1
271
     1
  0
XRECORD
  5
23
102
{ACAD_REACTORS
330
22
102
}
330
22
100
AcDbXrecord
280
     1
270
     1
271
     1
  0
XRECORD
  5
27
102
{ACAD_REACTORS
330
22
102
}
330
22
100
AcDbXrecord
280
     1
270
     1
271
     1
  0
XRECORD
  5
26
102
{ACAD_REACTORS
330
22
102
}
330
22
100
AcDbXrecord
280
     1
270
     1
271
     1
  0
XRECORD
  5
28
102
{ACAD_REACTORS
330
22
102
}
330
22
100
AcDbXrecord
280
     1
270
     1
271
     1
  0
XRECORD
  5
25
102
{ACAD_REACTORS
330
22
102
}
330
22
100
AcDbXrecord
280
     1
270
     1
271
     1
  0
CELLSTYLEMAP
  5
2D8
102
{ACAD_REACTORS
330
2D7
102
}
330
2D7
100
AcDbCellStyleMap
 90
        3
300
CELLSTYLE
  1
TABLEFORMAT_BEGIN
 90
        5
170
     1
 91
        0
 92
    32768
 62
   257
 93
        1
300
CONTENTFORMAT
  1
CONTENTFORMAT_BEGIN
 90
        0
 91
        0
 92
      512
 93
        0
300

 40
0.0
140
1.0
 94
        5
 62
     0
340
55
144
0.25
309
CONTENTFORMAT_END
171
     0
 94
        0
309
TABLEFORMAT_END
  1
CELLSTYLE_BEGIN
 90
        1
 91
        1
300
_TITLE
309
CELLSTYLE_END
300
CELLSTYLE
  1
TABLEFORMAT_BEGIN
 90
        5
170
     1
 91
        0
 92
        0
 62
   257
 93
        1
300
CONTENTFORMAT
  1
CONTENTFORMAT_BEGIN
 90
        0
 91
        0
 92
      512
 93
        0
300

 40
0.0
140
1.0
 94
        5
 62
     0
340
55
144
0.18
309
CONTENTFORMAT_END
171
     0
 94
        0
309
TABLEFORMAT_END
  1
CELLSTYLE_BEGIN
 90
        2
 91
        1
300
_HEADER
309
CELLSTYLE_END
300
CELLSTYLE
  1
TABLEFORMAT_BEGIN
 90
        5
170
     1
 91
        0
 92
        0
 62
   257
 93
        1
300
CONTENTFORMAT
  1
CONTENTFORMAT_BEGIN
 90
        0
 91
        0
 92
      512
 93
        0
300

 40
0.0
140
1.0
 94
        2
 62
     0
340
55
144
0.18
309
CONTENTFORMAT_END
171
     0
 94
        0
309
TABLEFORMAT_END
  1
CELLSTYLE_BEGIN
 90
        3
 91
        2
300
_DATA
309
CELLSTYLE_END
  0
ENDSEC
  0
SECTION
  2
ACDSDATA
 70
     2
 71
     8
  0
ACDSSCHEMA
 90
        0
  1
AcDb_Thumbnail_Schema
  2
AcDbDs::ID
280
    10
 91
        8
  2
Thumbnail_Data
280
    15
 91
        0
101
ACDSRECORD
 95
        0
 90
        1
  2
AcDbDs::TreatedAsObjectData
280
     1
291
     1
101
ACDSRECORD
 95
        0
 90
        2
  2
AcDbDs::Legacy
280
     1
291
     1
101
ACDSRECORD
  1
AcDbDs::ID
 90
        3
  2
AcDs:Indexable
280
     1
291
     1
101
ACDSRECORD
  1
AcDbDs::ID
 90
        4
  2
AcDbDs::HandleAttribute
280
     7
282
     1
  0
ACDSSCHEMA
 90
        1
  1
AcDbDs::TreatedAsObjectDataSchema
  2
AcDbDs::TreatedAsObjectData
280
     1
 91
        0
  0
ACDSSCHEMA
 90
        2
  1
AcDbDs::LegacySchema
  2
AcDbDs::Legacy
280
     1
 91
        0
  0
ACDSSCHEMA
 90
        3
  1
AcDbDs::IndexedPropertySchema
  2
AcDs:Indexable
280
     1
 91
        0
  0
ACDSSCHEMA
 90
        4
  1
AcDbDs::HandleAttributeSchema
  2
AcDbDs::HandleAttribute
280
     7
 91
        1
284
     1
  0
ACDSRECORD
 90
        0
  2
AcDbDs::ID
280
    10
320
6F
  2
Thumbnail_Data
280
    15
 94
     1402
310
89504E470D0A1A0A0000000D4948445200000100000000B5080300000087DCD12600000300504C5445FFFFFFFFFFFFFFFFFF0000000000000000000000000000000000000000000000000000330000660000990000CC0000FF0033000033330033660033990033CC0033FF0066000066330066660066990066CC0066FF0099
310
000099330099660099990099CC0099FF00CC0000CC3300CC6600CC9900CCCC00CCFF00FF0000FF3300FF6600FF9900FFCC00FFFF3300003300333300663300993300CC3300FF3333003333333333663333993333CC3333FF3366003366333366663366993366CC3366FF3399003399333399663399993399CC3399FF33CC00
310
33CC3333CC6633CC9933CCCC33CCFF33FF0033FF3333FF6633FF9933FFCC33FFFF6600006600336600666600996600CC6600FF6633006633336633666633996633CC6633FF6666006666336666666666996666CC6666FF6699006699336699666699996699CC6699FF66CC0066CC3366CC6666CC9966CCCC66CCFF66FF0066
310
FF3366FF6666FF9966FFCC66FFFF9900009900339900669900999900CC9900FF9933009933339933669933999933CC9933FF9966009966339966669966999966CC9966FF9999009999339999669999999999CC9999FF99CC0099CC3399CC6699CC9999CCCC99CCFF99FF0099FF3399FF6699FF9999FFCC99FFFFCC0000CC00
310
33CC0066CC0099CC00CCCC00FFCC3300CC3333CC3366CC3399CC33CCCC33FFCC6600CC6633CC6666CC6699CC66CCCC66FFCC9900CC9933CC9966CC9999CC99CCCC99FFCCCC00CCCC33CCCC66CCCC99CCCCCCCCCCFFCCFF00CCFF33CCFF66CCFF99CCFFCCCCFFFFFF0000FF0033FF0066FF0099FF00CCFF00FFFF3300FF3333
310
FF3366FF3399FF33CCFF33FFFF6600FF6633FF6666FF6699FF66CCFF66FFFF9900FF9933FF9966FF9999FF99CCFF99FFFFCC00FFCC33FFCC66FFCC99FFCCCCFFCCFFFFFF00FFFF33FFFF66FFFF99FFFFCCFFFFFF0000000D0D0D1A1A1A2828283535354343435050505D5D5D6B6B6B787878868686939393A1A1A1AEAEAEBB
310
BBBBC9C9C9D6D6D6E4E4E4F1F1F1FFFFFF000000000000000000000000000000000000000000000000000000000000AD4AB4E4000001E54944415478DAEDDC41AEC220100050EE7FB69E6296C643FCA8FD2EB4A8A49A869947A289A6D6F2043A0CAD2D0E2FA7D381CFE716EDD072F0D7370000000000000000000000000000
310
0000000000000000000000000000000000000000000000000000000000000000000000000000404180AFDD17322DC0F2953233C0D0EFBC74DF9E1860AB5F8C6C7D5304000000000000668D0376004C1F09C65E80EB636280B6B30B9407B87CBE36C0A517D506B80D24130F82E200005BAD22CA03445980585B401405887B17
310
883A7381819C2080945DE07EFC11EFA74EA501BA43432580E75D02A83506645C197ABFC8F9BF75C6B5C181DDBD3869960118AC28000000E69C0B744E81E501A24817E8D5331A0000004A03941F0417000000648C042B03447580B6B9385A1A20BA2D204A0044AF0B249D0E473CC4773D8048DA0296C7E5AE6E3E2035C0C366
310
B1793920804A29B1A1EB0300488B03000000000000B901B2AE0D7E7065D0EBF449C28C100000000A01C410408803002404F83010C89B10898F0E347956F8FD915607C89E16AF0C503D2BBCAC958AA79B406E555E5FA53D0D56FF3FC15F17000000000000000000000000000000000000000000000000000000000000000000
310
00000000000000000000000000000000000000C02F000E2EA763CBB99D8B973F91997EF869BF21190000000049454E44AE4260822CE8880000000049454E44AE4260820000000000000000000000000000000000000000000000000000000000000000F80F809DE3BC6F5CCA25797C0172ABEDDD9192C7A70000000049454E
310
44AE426082
  0
ACDSRECORD
 90
        0
  2
AcDbDs::ID
280
    10
320
73
  2
Thumbnail_Data
280
    15
 94
     1062
310
89504E470D0A1A0A0000000D494844520000010000000065080300000095E2CD0900000300504C5445FFFFFFFFFFFFFFFFFF0000000000000000000000000000000000000000000000000000330000660000990000CC0000FF0033000033330033660033990033CC0033FF0066000066330066660066990066CC0066FF0099
310
000099330099660099990099CC0099FF00CC0000CC3300CC6600CC9900CCCC00CCFF00FF0000FF3300FF6600FF9900FFCC00FFFF3300003300333300663300993300CC3300FF3333003333333333663333993333CC3333FF3366003366333366663366993366CC3366FF3399003399333399663399993399CC3399FF33CC00
310
33CC3333CC6633CC9933CCCC33CCFF33FF0033FF3333FF6633FF9933FFCC33FFFF6600006600336600666600996600CC6600FF6633006633336633666633996633CC6633FF6666006666336666666666996666CC6666FF6699006699336699666699996699CC6699FF66CC0066CC3366CC6666CC9966CCCC66CCFF66FF0066
310
FF3366FF6666FF9966FFCC66FFFF9900009900339900669900999900CC9900FF9933009933339933669933999933CC9933FF9966009966339966669966999966CC9966FF9999009999339999669999999999CC9999FF99CC0099CC3399CC6699CC9999CCCC99CCFF99FF0099FF3399FF6699FF9999FFCC99FFFFCC0000CC00
310
33CC0066CC0099CC00CCCC00FFCC3300CC3333CC3366CC3399CC33CCCC33FFCC6600CC6633CC6666CC6699CC66CCCC66FFCC9900CC9933CC9966CC9999CC99CCCC99FFCCCC00CCCC33CCCC66CCCC99CCCCCCCCCCFFCCFF00CCFF33CCFF66CCFF99CCFFCCCCFFFFFF0000FF0033FF0066FF0099FF00CCFF00FFFF3300FF3333
310
FF3366FF3399FF33CCFF33FFFF6600FF6633FF6666FF6699FF66CCFF66FFFF9900FF9933FF9966FF9999FF99CCFF99FFFFCC00FFCC33FFCC66FFCC99FFCCCCFFCCFFFFFF00FFFF33FFFF66FFFF99FFFFCCFFFFFF0000000D0D0D1A1A1A2828283535354343435050505D5D5D6B6B6B787878868686939393A1A1A1AEAEAEBB
310
BBBBC9C9C9D6D6D6E4E4E4F1F1F1FFFFFF000000000000000000000000000000000000000000000000000000000000AD4AB4E4000000B34944415478DAEDD8310E83301045C1BDFF31F724880A618C4589FC67AA04A5C993316BAA00000000807FE90F04D83BC0F3D3F965F60B0104D8740F5805B007D8048302747480FB13
310
3F6B135C0F3F026C7F0BF4B0E6877F1D106032F0479D05E2034C2F47BE0F102065FE7FDBEE43578000028407B88E435640CAF83BAC80D9EB80C05BE0F636A03307A198F9DF594000016A79F0E90E0FE01610207012FC9245004F01A3B0000000000000000000000040D50115457D703F747DE80000000049454E44AE426082
310
DB0A0B101BE0A440D859A0B78DB4B30000000000000000FCA52B296E7C0966A06C550000000049454E44AE426082
  0
ENDSEC
  0
EOF
