  0
SECTION
  2
HEADER
  9
$ACADVER
  1
AC1032
  9
$ACADMAINTVER
 90
      204
  9
$DWGCODEPAGE
  3
ANSI_1252
  9
$LASTSAVEDBY
  1
duda-
  9
$REQUIREDVERSIONS
160
                 0
  9
$INSBASE
 10
0.0
 20
0.0
 30
0.0
  9
$EXTMIN
 10
22024.34031912999
 20
-24952.15994407381
 30
0.0
  9
$EXTMAX
 10
28764.34031913004
 20
167.8400559262493
 30
0.0
  9
$LIMMIN
 10
0.0
 20
0.0
  9
$LIMMAX
 10
12.0
 20
9.0
  9
$ORTHOMODE
 70
     0
  9
$REGENMODE
 70
     1
  9
$FILLMODE
 70
     1
  9
$QTEXTMODE
 70
     0
  9
$MIRRTEXT
 70
     0
  9
$LTSCALE
 40
1.0
  9
$ATTMODE
 70
     1
  9
$TEXTSIZE
 40
0.2
  9
$TRACEWID
 40
0.05
  9
$TEXTSTYLE
  7
Standard
  9
$CLAYER
  8
0
  9
$CELTYPE
  6
ByLayer
  9
$CECOLOR
 62
   256
  9
$CELTSCALE
 40
1.0
  9
$DISPSILH
 70
     0
  9
$DIMSCALE
 40
1.0
  9
$DIMASZ
 40
0.18
  9
$DIMEXO
 40
0.0625
  9
$DIMDLI
 40
0.38
  9
$DIMRND
 40
0.0
  9
$DIMDLE
 40
0.0
  9
$DIMEXE
 40
0.18
  9
$DIMTP
 40
0.0
  9
$DIMTM
 40
0.0
  9
$DIMTXT
 40
0.18
  9
$DIMCEN
 40
0.09
  9
$DIMTSZ
 40
0.0
  9
$DIMTOL
 70
     0
  9
$DIMLIM
 70
     0
  9
$DIMTIH
 70
     1
  9
$DIMTOH
 70
     1
  9
$DIMSE1
 70
     0
  9
$DIMSE2
 70
     0
  9
$DIMTAD
 70
     0
  9
$DIMZIN
 70
     0
  9
$DIMBLK
  1

  9
$DIMASO
 70
     1
  9
$DIMSHO
 70
     1
  9
$DIMPOST
  1

  9
$DIMAPOST
  1

  9
$DIMALT
 70
     0
  9
$DIMALTD
 70
     2
  9
$DIMALTF
 40
25.4
  9
$DIMLFAC
 40
1.0
  9
$DIMTOFL
 70
     0
  9
$DIMTVP
 40
0.0
  9
$DIMTIX
 70
     0
  9
$DIMSOXD
 70
     0
  9
$DIMSAH
 70
     0
  9
$DIMBLK1
  1

  9
$DIMBLK2
  1

  9
$DIMSTYLE
  2
Standard
  9
$DIMCLRD
 70
     0
  9
$DIMCLRE
 70
     0
  9
$DIMCLRT
 70
     0
  9
$DIMTFAC
 40
1.0
  9
$DIMGAP
 40
0.09
  9
$DIMJUST
 70
     0
  9
$DIMSD1
 70
     0
  9
$DIMSD2
 70
     0
  9
$DIMTOLJ
 70
     1
  9
$DIMTZIN
 70
     0
  9
$DIMALTZ
 70
     0
  9
$DIMALTTZ
 70
     0
  9
$DIMUPT
 70
     0
  9
$DIMDEC
 70
     4
  9
$DIMTDEC
 70
     4
  9
$DIMALTU
 70
     2
  9
$DIMALTTD
 70
     2
  9
$DIMTXSTY
  7
Standard
  9
$DIMAUNIT
 70
     0
  9
$DIMADEC
 70
     0
  9
$DIMALTRND
 40
0.0
  9
$DIMAZIN
 70
     0
  9
$DIMDSEP
 70
    46
  9
$DIMATFIT
 70
     3
  9
$DIMFRAC
 70
     0
  9
$DIMLDRBLK
  1

  9
$DIMLUNIT
 70
     2
  9
$DIMLWD
 70
    -2
  9
$DIMLWE
 70
    -2
  9
$DIMTMOVE
 70
     0
  9
$DIMFXL
 40
1.0
  9
$DIMFXLON
 70
     0
  9
$DIMJOGANG
 40
0.7853981633974483
  9
$DIMTFILL
 70
     0
  9
$DIMTFILLCLR
 70
     0
  9
$DIMARCSYM
 70
     0
  9
$DIMLTYPE
  6

  9
$DIMLTEX1
  6

  9
$DIMLTEX2
  6

  9
$DIMTXTDIRECTION
 70
     0
  9
$LUNITS
 70
     2
  9
$LUPREC
 70
     4
  9
$SKETCHINC
 40
0.1
  9
$FILLETRAD
 40
0.0
  9
$AUNITS
 70
     0
  9
$AUPREC
 70
     0
  9
$MENU
  1
.
  9
$ELEVATION
 40
0.0
  9
$PELEVATION
 40
0.0
  9
$THICKNESS
 40
0.0
  9
$LIMCHECK
 70
     0
  9
$CHAMFERA
 40
0.0
  9
$CHAMFERB
 40
0.0
  9
$CHAMFERC
 40
0.0
  9
$CHAMFERD
 40
0.0
  9
$SKPOLY
 70
     0
  9
$TDCREATE
 40
2460730.600636574
  9
$TDUCREATE
 40
2460730.725636574
  9
$TDUPDATE
 40
2460738.998726852
  9
$TDUUPDATE
 40
2460739.123726852
  9
$TDINDWG
 40
0.0281365741
  9
$TDUSRTIMER
 40
0.0281365741
  9
$USRTIMER
 70
     1
  9
$ANGBASE
 50
0.0
  9
$ANGDIR
 70
     0
  9
$PDMODE
 70
     0
  9
$PDSIZE
 40
0.0
  9
$PLINEWID
 40
0.0
  9
$SPLFRAME
 70
     0
  9
$SPLINETYPE
 70
     6
  9
$SPLINESEGS
 70
     8
  9
$HANDSEED
  5
35C
  9
$SURFTAB1
 70
     6
  9
$SURFTAB2
 70
     6
  9
$SURFTYPE
 70
     6
  9
$SURFU
 70
     6
  9
$SURFV
 70
     6
  9
$UCSBASE
  2

  9
$UCSNAME
  2

  9
$UCSORG
 10
0.0
 20
0.0
 30
0.0
  9
$UCSXDIR
 10
1.0
 20
0.0
 30
0.0
  9
$UCSYDIR
 10
0.0
 20
1.0
 30
0.0
  9
$UCSORTHOREF
  2

  9
$UCSORTHOVIEW
 70
     0
  9
$UCSORGTOP
 10
0.0
 20
0.0
 30
0.0
  9
$UCSORGBOTTOM
 10
0.0
 20
0.0
 30
0.0
  9
$UCSORGLEFT
 10
0.0
 20
0.0
 30
0.0
  9
$UCSORGRIGHT
 10
0.0
 20
0.0
 30
0.0
  9
$UCSORGFRONT
 10
0.0
 20
0.0
 30
0.0
  9
$UCSORGBACK
 10
0.0
 20
0.0
 30
0.0
  9
$PUCSBASE
  2

  9
$PUCSNAME
  2

  9
$PUCSORG
 10
0.0
 20
0.0
 30
0.0
  9
$PUCSXDIR
 10
1.0
 20
0.0
 30
0.0
  9
$PUCSYDIR
 10
0.0
 20
1.0
 30
0.0
  9
$PUCSORTHOREF
  2

  9
$PUCSORTHOVIEW
 70
     0
  9
$PUCSORGTOP
 10
0.0
 20
0.0
 30
0.0
  9
$PUCSORGBOTTOM
 10
0.0
 20
0.0
 30
0.0
  9
$PUCSORGLEFT
 10
0.0
 20
0.0
 30
0.0
  9
$PUCSORGRIGHT
 10
0.0
 20
0.0
 30
0.0
  9
$PUCSORGFRONT
 10
0.0
 20
0.0
 30
0.0
  9
$PUCSORGBACK
 10
0.0
 20
0.0
 30
0.0
  9
$USERI1
 70
     0
  9
$USERI2
 70
     0
  9
$USERI3
 70
     0
  9
$USERI4
 70
     0
  9
$USERI5
 70
     0
  9
$USERR1
 40
0.0
  9
$USERR2
 40
0.0
  9
$USERR3
 40
0.0
  9
$USERR4
 40
0.0
  9
$USERR5
 40
0.0
  9
$WORLDVIEW
 70
     1
  9
$SHADEDGE
 70
     3
  9
$SHADEDIF
 70
    70
  9
$TILEMODE
 70
     0
  9
$MAXACTVP
 70
    64
  9
$PINSBASE
 10
0.0
 20
0.0
 30
0.0
  9
$PLIMCHECK
 70
     0
  9
$PEXTMIN
 10
64.29285070883699
 20
59.49999999998593
 30
0.0
  9
$PEXTMAX
 10
274.292850708837
 20
356.4999999999859
 30
0.0
  9
$PLIMMIN
 10
64.27901684485153
 20
59.47287840171589
  9
$PLIMMAX
 10
484.5984757423225
 20
356.6684553999278
  9
$UNITMODE
 70
     0
  9
$VISRETAIN
 70
     1
  9
$PLINEGEN
 70
     0
  9
$PSLTSCALE
 70
     0
  9
$TREEDEPTH
 70
  3020
  9
$CMLSTYLE
  2
Standard
  9
$CMLJUST
 70
     0
  9
$CMLSCALE
 40
1.0
  9
$PROXYGRAPHICS
 70
     1
  9
$MEASUREMENT
 70
     1
  9
$CELWEIGHT
370
    -1
  9
$ENDCAPS
280
     0
  9
$JOINSTYLE
280
     0
  9
$LWDISPLAY
290
     0
  9
$INSUNITS
 70
     4
  9
$HYPERLINKBASE
  1

  9
$STYLESHEET
  1

  9
$XEDIT
290
     1
  9
$CEPSNTYPE
380
     0
  9
$PSTYLEMODE
290
     1
  9
$FINGERPRINTGUID
  2
{4747D6D2-20C9-2D47-9002-11BF6694DB40}
  9
$VERSIONGUID
  2
{468CCE14-FA1C-084A-AE5D-32BE4420D20F}
  9
$EXTNAMES
290
     1
  9
$PSVPSCALE
 40
0.0
  9
$OLESTARTUP
290
     0
  9
$SORTENTS
280
   127
  9
$INDEXCTL
280
     0
  9
$HIDETEXT
280
     1
  9
$XCLIPFRAME
280
     2
  9
$HALOGAP
280
     0
  9
$OBSCOLOR
 70
   257
  9
$OBSLTYPE
280
     0
  9
$INTERSECTIONDISPLAY
280
     0
  9
$INTERSECTIONCOLOR
 70
   257
  9
$DIMASSOC
280
     2
  9
$PROJECTNAME
  1

  9
$CAMERADISPLAY
290
     0
  9
$LENSLENGTH
 40
50.0
  9
$CAMERAHEIGHT
 40
0.0
  9
$STEPSPERSEC
 40
2.0
  9
$STEPSIZE
 40
6.0
  9
$3DDWFPREC
 40
2.0
  9
$PSOLWIDTH
 40
0.25
  9
$PSOLHEIGHT
 40
4.0
  9
$LOFTANG1
 40
1.570796326794896
  9
$LOFTANG2
 40
1.570796326794896
  9
$LOFTMAG1
 40
0.0
  9
$LOFTMAG2
 40
0.0
  9
$LOFTPARAM
 70
     7
  9
$LOFTNORMALS
280
     1
  9
$LATITUDE
 40
0.0
  9
$LONGITUDE
 40
0.0
  9
$NORTHDIRECTION
 40
0.0
  9
$TIMEZONE
 70
     0
  9
$LIGHTGLYPHDISPLAY
280
     1
  9
$TILEMODELIGHTSYNCH
280
     1
  9
$CMATERIAL
347
11
  9
$SOLIDHIST
280
     0
  9
$SHOWHIST
280
     1
  9
$DWFFRAME
280
     2
  9
$DGNFRAME
280
     0
  9
$REALWORLDSCALE
290
     1
  9
$INTERFERECOLOR
 62
     1
  9
$INTERFEREOBJVS
345
33
  9
$INTERFEREVPVS
346
30
  9
$CSHADOW
280
     0
  9
$SHADOWPLANELOCATION
 40
0.0
  0
ENDSEC
  0
SECTION
  2
CLASSES
  0
CLASS
  1
ACDBDICTIONARYWDFLT
  2
AcDbDictionaryWithDefault
  3
ObjectDBX Classes
 90
        0
 91
        1
280
     0
281
     0
  0
CLASS
  1
MATERIAL
  2
AcDbMaterial
  3
ObjectDBX Classes
 90
     1153
 91
        3
280
     0
281
     0
  0
CLASS
  1
VISUALSTYLE
  2
AcDbVisualStyle
  3
ObjectDBX Classes
 90
     4095
 91
       24
280
     0
281
     0
  0
CLASS
  1
SCALE
  2
AcDbScale
  3
ObjectDBX Classes
 90
     1153
 91
       17
280
     0
281
     0
  0
CLASS
  1
TABLESTYLE
  2
AcDbTableStyle
  3
ObjectDBX Classes
 90
     4095
 91
        1
280
     0
281
     0
  0
CLASS
  1
MLEADERSTYLE
  2
AcDbMLeaderStyle
  3
ACDB_MLEADERSTYLE_CLASS
 90
     4095
 91
        1
280
     0
281
     0
  0
CLASS
  1
ACDBSECTIONVIEWSTYLE
  2
AcDbSectionViewStyle
  3
ObjectDBX Classes
 90
     1025
 91
        2
280
     0
281
     0
  0
CLASS
  1
ACDBDETAILVIEWSTYLE
  2
AcDbDetailViewStyle
  3
ObjectDBX Classes
 90
     1025
 91
        2
280
     0
281
     0
  0
CLASS
  1
RASTERVARIABLES
  2
AcDbRasterVariables
  3
ISM
 90
        0
 91
        1
280
     0
281
     0
  0
CLASS
  1
DICTIONARYVAR
  2
AcDbDictionaryVar
  3
ObjectDBX Classes
 90
        0
 91
        5
280
     0
281
     0
  0
CLASS
  1
SORTENTSTABLE
  2
AcDbSortentsTable
  3
ObjectDBX Classes
 90
        0
 91
        1
280
     0
281
     0
  0
CLASS
  1
SUN
  2
AcDbSun
  3
SCENEOE
 90
     1153
 91
        1
280
     0
281
     0
  0
CLASS
  1
RAPIDRTRENDERSETTINGS
  2
AcDbRapidRTRenderSettings
  3
ObjectDBX Classes
 90
     1024
 91
        7
280
     0
281
     0
  0
CLASS
  1
CELLSTYLEMAP
  2
AcDbCellStyleMap
  3
ObjectDBX Classes
 90
     1152
 91
        1
280
     0
281
     0
  0
ENDSEC
  0
SECTION
  2
TABLES
  0
TABLE
  2
VPORT
  5
8
330
0
100
AcDbSymbolTable
 70
     1
  0
VPORT
  5
57
330
8
100
AcDbSymbolTableRecord
100
AcDbViewportTableRecord
  2
*Active
 70
     0
 10
0.0
 20
0.0
 11
1.0
 21
1.0
 12
17377.95030845314
 22
-17958.80255098066
 13
0.0
 23
0.0
 14
1.0
 24
1.0
 15
0.0
 25
0.0
 16
0.0
 26
0.0
 36
1.0
 17
0.0
 27
0.0
 37
0.0
 40
40930.89199671443
 41
2.531208499335989
 42
50.0
 43
0.0
 44
0.0
 50
0.0
 51
0.0
 71
     0
 72
  1000
 73
     1
 74
     1
 75
     0
 76
     0
 77
     0
 78
     0
281
     0
 65
     1
110
0.0
120
0.0
130
0.0
111
1.0
121
0.0
131
0.0
112
0.0
122
1.0
132
0.0
 79
     0
146
0.0
348
2F
 60
     3
 61
     5
292
     1
282
     1
141
0.0
142
0.0
 63
   250
421
  3355443
361
2BF
1001
ACAD_NAV_VCDISPLAY
1070
     3
  0
ENDTAB
  0
TABLE
  2
LTYPE
  5
5
330
0
100
AcDbSymbolTable
 70
     2
  0
LTYPE
  5
5B
330
5
100
AcDbSymbolTableRecord
100
AcDbLinetypeTableRecord
  2
ByBlock
 70
     0
  3

 72
    65
 73
     0
 40
0.0
  0
LTYPE
  5
5C
330
5
100
AcDbSymbolTableRecord
100
AcDbLinetypeTableRecord
  2
ByLayer
 70
     0
  3

 72
    65
 73
     0
 40
0.0
  0
LTYPE
  5
5D
330
5
100
AcDbSymbolTableRecord
100
AcDbLinetypeTableRecord
  2
Continuous
 70
     0
  3
Solid line
 72
    65
 73
     0
 40
0.0
  0
LTYPE
  5
84
330
5
100
AcDbSymbolTableRecord
100
AcDbLinetypeTableRecord
  2
Projeção
 70
     0
  3

 72
    65
 73
     2
 40
396.875
 49
238.125
 74
     0
 49
-158.7499999999999
 74
     0
  0
ENDTAB
  0
TABLE
  2
LAYER
  5
2
102
{ACAD_XDICTIONARY
360
2DC
102
}
330
0
100
AcDbSymbolTable
 70
     6
  0
LAYER
  5
54
330
2
100
AcDbSymbolTableRecord
100
AcDbLayerTableRecord
  2
0
 70
     0
 62
   250
  6
Continuous
370
    25
390
F
347
21
348
0
  0
LAYER
  5
2A8
330
2
100
AcDbSymbolTableRecord
100
AcDbLayerTableRecord
  2
A-JAN-___-___-EXI
 70
     0
 62
   250
  6
Continuous
370
    25
390
F
347
21
348
0
  0
LAYER
  5
2AE
330
2
100
AcDbSymbolTableRecord
100
AcDbLayerTableRecord
  2
A-POR-___-___-EXI
 70
     0
 62
   250
  6
Continuous
370
    25
390
F
347
21
348
0
  0
LAYER
  5
2B0
330
2
100
AcDbSymbolTableRecord
100
AcDbLayerTableRecord
  2
A-ALV-___-___-EXI
 70
     0
 62
   250
  6
Continuous
370
    35
390
F
347
21
348
0
  0
LAYER
  5
316
330
2
100
AcDbSymbolTableRecord
100
AcDbLayerTableRecord
  2
A-ESC-___-___-EXI
 70
     0
 62
   250
  6
Continuous
370
    25
390
F
347
21
348
0
1001
AcAecLayerStandard
1000

1000

1001
AcCmTransparency
1071
        0
  0
LAYER
  5
319
330
2
100
AcDbSymbolTableRecord
100
AcDbLayerTableRecord
  2
A-MOB-___-___-EXI
 70
     0
 62
   250
  6
Continuous
370
    25
390
F
347
21
348
0
1001
AcAecLayerStandard
1000

1000

1001
AcCmTransparency
1071
        0
  0
ENDTAB
  0
TABLE
  2
STYLE
  5
3
330
0
100
AcDbSymbolTable
 70
     2
  0
STYLE
  5
55
330
3
100
AcDbSymbolTableRecord
100
AcDbTextStyleTableRecord
  2
Standard
 70
     0
 40
0.0
 41
1.0
 50
0.0
 71
     0
 42
0.2
  3
txt
  4

  0
STYLE
  5
5A
330
3
100
AcDbSymbolTableRecord
100
AcDbTextStyleTableRecord
  2
Annotative
 70
     0
 40
0.0
 41
1.0
 50
0.0
 71
     0
 42
0.2
  3
txt
  4

1001
AcadAnnotative
1000
AnnotativeData
1002
{
1070
     1
1070
     1
1002
}
  0
ENDTAB
  0
TABLE
  2
VIEW
  5
6
330
0
100
AcDbSymbolTable
 70
     1
  0
ENDTAB
  0
TABLE
  2
UCS
  5
7
330
0
100
AcDbSymbolTable
 70
     0
  0
ENDTAB
  0
TABLE
  2
APPID
  5
9
330
0
100
AcDbSymbolTable
 70
     8
  0
APPID
  5
56
330
9
100
AcDbSymbolTableRecord
100
AcDbRegAppTableRecord
  2
ACAD
 70
     0
  0
APPID
  5
5E
330
9
100
AcDbSymbolTableRecord
100
AcDbRegAppTableRecord
  2
AcadAnnotative
 70
     0
  0
APPID
  5
78
330
9
100
AcDbSymbolTableRecord
100
AcDbRegAppTableRecord
  2
REVIT
 70
     0
  0
APPID
  5
2CF
330
9
100
AcDbSymbolTableRecord
100
AcDbRegAppTableRecord
  2
ACAD_PSEXT
 70
     0
  0
APPID
  5
30E
330
9
100
AcDbSymbolTableRecord
100
AcDbRegAppTableRecord
  2
ACAD_NAV_VCDISPLAY
 70
     0
  0
APPID
  5
317
330
9
100
AcDbSymbolTableRecord
100
AcDbRegAppTableRecord
  2
AcAecLayerStandard
 70
     0
  0
APPID
  5
318
330
9
100
AcDbSymbolTableRecord
100
AcDbRegAppTableRecord
  2
AcCmTransparency
 70
     0
  0
APPID
  5
33D
330
9
100
AcDbSymbolTableRecord
100
AcDbRegAppTableRecord
  2
ACAD_EXEMPT_FROM_CAD_STANDARDS
 70
     0
  0
ENDTAB
  0
TABLE
  2
DIMSTYLE
  5
A
330
0
100
AcDbSymbolTable
 70
     2
100
AcDbDimStyleTable
 71
     0
  0
DIMSTYLE
105
58
330
A
100
AcDbSymbolTableRecord
100
AcDbDimStyleTableRecord
  2
Standard
 70
     0
340
55
  0
DIMSTYLE
105
59
330
A
100
AcDbSymbolTableRecord
100
AcDbDimStyleTableRecord
  2
Annotative
 70
     0
340
55
1001
AcadAnnotative
1000
AnnotativeData
1002
{
1070
     1
1070
     1
1002
}
  0
ENDTAB
  0
TABLE
  2
BLOCK_RECORD
  5
1
330
0
100
AcDbSymbolTable
 70
     1
  0
BLOCK_RECORD
  5
70
102
{ACAD_XDICTIONARY
360
2BD
102
}
330
1
100
AcDbSymbolTableRecord
100
AcDbBlockTableRecord
  2
*Model_Space
340
73
 70
     0
280
     1
281
     0
  0
BLOCK_RECORD
  5
6C
330
1
100
AcDbSymbolTableRecord
100
AcDbBlockTableRecord
  2
*Paper_Space
340
6F
 70
     0
280
     1
281
     0
  0
BLOCK_RECORD
  5
2AF
330
1
100
AcDbSymbolTableRecord
100
AcDbBlockTableRecord
  2
SVG - A4-23033332-Não nomeada
340
0
102
{BLKREFS
331
2B7
102
}
 70
     0
280
     1
281
     0
  0
ENDTAB
  0
ENDSEC
  0
SECTION
  2
BLOCKS
  0
BLOCK
  5
71
330
70
100
AcDbEntity
  8
0
100
AcDbBlockBegin
  2
*Model_Space
 70
     0
 10
0.0
 20
0.0
 30
0.0
  3
*Model_Space
  1

  0
ENDBLK
  5
72
330
70
100
AcDbEntity
  8
0
100
AcDbBlockEnd
  0
BLOCK
  5
6D
330
6C
100
AcDbEntity
 67
     1
  8
0
100
AcDbBlockBegin
  2
*Paper_Space
 70
     0
 10
0.0
 20
0.0
 30
0.0
  3
*Paper_Space
  1

  0
ENDBLK
  5
6E
330
6C
100
AcDbEntity
 67
     1
  8
0
100
AcDbBlockEnd
  0
BLOCK
  5
2B5
330
2AF
100
AcDbEntity
  8
0
100
AcDbBlockBegin
  2
SVG - A4-23033332-Não nomeada
 70
     0
 10
0.0
 20
0.0
 30
0.0
  3
SVG - A4-23033332-Não nomeada
  1

  0
LINE
  5
2B1
330
2AF
100
AcDbEntity
  8
A-ALV-___-___-EXI
100
AcDbLine
 10
64.29285070883699
 20
356.4999999999859
 30
0.0
 11
64.29285070883699
 21
59.49999999998593
 31
0.0
1001
REVIT
1002
{
1070
     1
1000
23033377
1002
}
1002
{
1070
     5
1000
23033332
1002
}
1002
{
1070
     3
1000
-2000281
1002
}
  0
LINE
  5
2B2
330
2AF
100
AcDbEntity
  8
A-ALV-___-___-EXI
100
AcDbLine
 10
64.29285070883699
 20
59.49999999998593
 30
0.0
 11
274.292850708837
 21
59.49999999998593
 31
0.0
1001
REVIT
1002
{
1070
     1
1000
23033377
1002
}
1002
{
1070
     5
1000
23033332
1002
}
1002
{
1070
     3
1000
-2000281
1002
}
  0
LINE
  5
2B3
330
2AF
100
AcDbEntity
  8
A-ALV-___-___-EXI
100
AcDbLine
 10
274.292850708837
 20
59.49999999998593
 30
0.0
 11
274.292850708837
 21
356.4999999999859
 31
0.0
1001
REVIT
1002
{
1070
     1
1000
23033377
1002
}
1002
{
1070
     5
1000
23033332
1002
}
1002
{
1070
     3
1000
-2000281
1002
}
  0
LINE
  5
2B4
330
2AF
100
AcDbEntity
  8
A-ALV-___-___-EXI
100
AcDbLine
 10
274.292850708837
 20
356.4999999999859
 30
0.0
 11
64.29285070883699
 21
356.4999999999859
 31
0.0
1001
REVIT
1002
{
1070
     1
1000
23033377
1002
}
1002
{
1070
     5
1000
23033332
1002
}
1002
{
1070
     3
1000
-2000281
1002
}
  0
ENDBLK
  5
2B6
330
2AF
100
AcDbEntity
  8
0
100
AcDbBlockEnd
  0
ENDSEC
  0
SECTION
  2
ENTITIES
  0
HATCH
  5
8A
330
70
100
AcDbEntity
  8
A-ALV-___-___-EXI
 62
    11
100
AcDbHatch
 10
0.0
 20
0.0
 30
0.0
210
0.0
220
0.0
230
1.0
  2
SOLID
 70
     1
 71
     0
 91
        1
 92
        1
 93
        4
 72
     1
 10
28764.34031913002
 20
-9312.159944073767
 11
28764.34031913003
 21
-652.1599440737881
 72
     1
 10
28764.34031913003
 20
-652.1599440737875
 11
28564.34031913003
 21
-652.1599440737857
 72
     1
 10
28564.34031913003
 20
-652.1599440737857
 11
28564.34031913001
 21
-9312.159944073767
 72
     1
 10
28564.34031913001
 20
-9312.159944073767
 11
28764.34031913002
 21
-9312.159944073767
 97
        0
 75
     0
 76
     1
 98
        1
 10
0.0
 20
0.0
450
        0
451
        0
460
0.0
461
0.0
452
        0
462
0.0
453
        0
470

1001
REVIT
1002
{
1070
     1
1000
22880359
1002
}
1002
{
1070
     5
1000
22554474
1002
}
1002
{
1070
     2
1000
-2000011
1002
}
1002
{
1070
     3
1000
-2000588
1002
}
  0
HATCH
  5
8F
330
70
100
AcDbEntity
  8
A-ALV-___-___-EXI
 62
    11
100
AcDbHatch
 10
0.0
 20
0.0
 30
0.0
210
0.0
220
0.0
230
1.0
  2
SOLID
 70
     1
 71
     0
 91
        1
 92
        1
 93
        4
 72
     1
 10
25764.34031913003
 20
-32.15994407376484
 11
26464.34031913003
 21
-32.15994407376792
 72
     1
 10
26464.34031913003
 20
-32.15994407376792
 11
26464.34031913003
 21
167.8400559262342
 72
     1
 10
26464.34031913003
 20
167.8400559262342
 11
25764.34031913003
 21
167.8400559262352
 72
     1
 10
25764.34031913003
 20
167.8400559262352
 11
25764.34031913003
 21
-32.15994407376485
 97
        0
 75
     0
 76
     1
 98
        1
 10
0.0
 20
0.0
450
        0
451
        0
460
0.0
461
0.0
452
        0
462
0.0
453
        0
470

1001
REVIT
1002
{
1070
     1
1000
22880364
1002
}
1002
{
1070
     5
1000
22554474
1002
}
1002
{
1070
     2
1000
-2000011
1002
}
1002
{
1070
     3
1000
-2000588
1002
}
  0
HATCH
  5
94
330
70
100
AcDbEntity
  8
A-ALV-___-___-EXI
 62
    11
100
AcDbHatch
 10
0.0
 20
0.0
 30
0.0
210
0.0
220
0.0
230
1.0
  2
SOLID
 70
     1
 71
     0
 91
        1
 92
        1
 93
        4
 72
     1
 10
25364.34031913006
 20
-7452.159944073774
 11
25364.34031913005
 21
-6952.159944073776
 72
     1
 10
25364.34031913005
 20
-6952.159944073776
 11
25164.34031913005
 21
-6952.159944073776
 72
     1
 10
25164.34031913005
 20
-6952.159944073776
 11
25164.34031913006
 21
-7452.159944073774
 72
     1
 10
25164.34031913006
 20
-7452.159944073774
 11
25364.34031913006
 21
-7452.159944073774
 97
        0
 75
     0
 76
     1
 98
        1
 10
0.0
 20
0.0
450
        0
451
        0
460
0.0
461
0.0
452
        0
462
0.0
453
        0
470

1001
REVIT
1002
{
1070
     1
1000
22880366
1002
}
1002
{
1070
     5
1000
22554474
1002
}
1002
{
1070
     2
1000
-2000011
1002
}
1002
{
1070
     3
1000
-2000588
1002
}
  0
HATCH
  5
99
330
70
100
AcDbEntity
  8
A-ALV-___-___-EXI
 62
    11
100
AcDbHatch
 10
0.0
 20
0.0
 30
0.0
210
0.0
220
0.0
230
1.0
  2
SOLID
 70
     1
 71
     0
 91
        1
 92
        1
 93
        4
 72
     1
 10
25364.34031913001
 20
-6952.159944073776
 11
25364.34031913002
 21
-6052.159944073771
 72
     1
 10
25364.34031913002
 20
-6052.159944073771
 11
25164.34031913002
 21
-6052.159944073771
 72
     1
 10
25164.34031913002
 20
-6052.159944073771
 11
25164.34031913002
 21
-6952.159944073776
 72
     1
 10
25164.34031913002
 20
-6952.159944073776
 11
25364.34031913001
 21
-6952.159944073776
 97
        0
 75
     0
 76
     1
 98
        1
 10
0.0
 20
0.0
450
        0
451
        0
460
0.0
461
0.0
452
        0
462
0.0
453
        0
470

1001
REVIT
1002
{
1070
     1
1000
22880367
1002
}
1002
{
1070
     5
1000
22554474
1002
}
1002
{
1070
     2
1000
-2000011
1002
}
1002
{
1070
     3
1000
-2000588
1002
}
  0
HATCH
  5
9E
330
70
100
AcDbEntity
  8
A-ALV-___-___-EXI
 62
    11
100
AcDbHatch
 10
0.0
 20
0.0
 30
0.0
210
0.0
220
0.0
230
1.0
  2
SOLID
 70
     1
 71
     0
 91
        1
 92
        1
 93
        4
 72
     1
 10
26564.34031913002
 20
-9312.159944073769
 11
28564.34031913001
 21
-9312.159944073767
 72
     1
 10
28564.34031913001
 20
-9312.159944073767
 11
28564.34031913002
 21
-9112.159944073768
 72
     1
 10
28564.34031913002
 20
-9112.159944073768
 11
26564.34031913002
 21
-9112.159944073772
 72
     1
 10
26564.34031913002
 20
-9112.159944073772
 11
26564.34031913002
 21
-9312.159944073769
 97
        0
 75
     0
 76
     1
 98
        1
 10
0.0
 20
0.0
450
        0
451
        0
460
0.0
461
0.0
452
        0
462
0.0
453
        0
470

1001
REVIT
1002
{
1070
     1
1000
22880368
1002
}
1002
{
1070
     5
1000
22554474
1002
}
1002
{
1070
     2
1000
-2000011
1002
}
1002
{
1070
     3
1000
-2000588
1002
}
  0
HATCH
  5
A3
330
70
100
AcDbEntity
  8
A-ALV-___-___-EXI
 62
    11
100
AcDbHatch
 10
0.0
 20
0.0
 30
0.0
210
0.0
220
0.0
230
1.0
  2
SOLID
 70
     1
 71
     0
 91
        1
 92
        1
 93
        4
 72
     1
 10
22724.34031912999
 20
-24952.1599440738
 11
22724.34031912999
 21
-24752.1599440738
 72
     1
 10
22724.34031912999
 20
-24752.1599440738
 11
22524.34031912999
 21
-24752.1599440738
 72
     1
 10
22524.34031912999
 20
-24752.1599440738
 11
22524.34031912999
 21
-24952.15994407379
 72
     1
 10
22524.34031912999
 20
-24952.15994407379
 11
22724.34031912999
 21
-24952.1599440738
 97
        0
 75
     0
 76
     1
 98
        1
 10
0.0
 20
0.0
450
        0
451
        0
460
0.0
461
0.0
452
        0
462
0.0
453
        0
470

1001
REVIT
1002
{
1070
     1
1000
22880371
1002
}
1002
{
1070
     5
1000
22554474
1002
}
1002
{
1070
     2
1000
-2000011
1002
}
1002
{
1070
     3
1000
-2000588
1002
}
  0
HATCH
  5
A8
330
70
100
AcDbEntity
  8
A-ALV-___-___-EXI
 62
    11
100
AcDbHatch
 10
0.0
 20
0.0
 30
0.0
210
0.0
220
0.0
230
1.0
  2
SOLID
 70
     1
 71
     0
 91
        1
 92
        1
 93
        4
 72
     1
 10
28764.34031913001
 20
-24952.15994407381
 11
28764.34031913001
 21
-24752.15994407381
 72
     1
 10
28764.34031913001
 20
-24752.15994407381
 11
28004.34031913
 21
-24752.1599440738
 72
     1
 10
28004.34031913
 20
-24752.1599440738
 11
28004.34031913
 21
-24952.1599440738
 72
     1
 10
28004.34031913
 20
-24952.1599440738
 11
28764.34031913001
 21
-24952.15994407381
 97
        0
 75
     0
 76
     1
 98
        1
 10
0.0
 20
0.0
450
        0
451
        0
460
0.0
461
0.0
452
        0
462
0.0
453
        0
470

1001
REVIT
1002
{
1070
     1
1000
22880375
1002
}
1002
{
1070
     5
1000
22554474
1002
}
1002
{
1070
     2
1000
-2000011
1002
}
1002
{
1070
     3
1000
-2000588
1002
}
  0
HATCH
  5
AD
330
70
100
AcDbEntity
  8
A-ALV-___-___-EXI
 62
    11
100
AcDbHatch
 10
0.0
 20
0.0
 30
0.0
210
0.0
220
0.0
230
1.0
  2
SOLID
 70
     1
 71
     0
 91
        1
 92
        1
 93
        4
 72
     1
 10
22604.34031913002
 20
-9312.159944073787
 11
22604.34031913002
 21
-9112.159944073779
 72
     1
 10
22604.34031913002
 20
-9112.159944073779
 11
22024.34031913001
 21
-9112.159944073781
 72
     1
 10
22024.34031913001
 20
-9112.159944073781
 11
22024.34031913001
 21
-9312.159944073782
 72
     1
 10
22024.34031913001
 20
-9312.159944073782
 11
22604.34031913002
 21
-9312.159944073787
 97
        0
 75
     0
 76
     1
 98
        1
 10
0.0
 20
0.0
450
        0
451
        0
460
0.0
461
0.0
452
        0
462
0.0
453
        0
470

1001
REVIT
1002
{
1070
     1
1000
22880376
1002
}
1002
{
1070
     5
1000
22554474
1002
}
1002
{
1070
     2
1000
-2000011
1002
}
1002
{
1070
     3
1000
-2000588
1002
}
  0
HATCH
  5
B2
330
70
100
AcDbEntity
  8
A-ALV-___-___-EXI
 62
    11
100
AcDbHatch
 10
0.0
 20
0.0
 30
0.0
210
0.0
220
0.0
230
1.0
  2
SOLID
 70
     1
 71
     0
 91
        1
 92
        1
 93
        4
 72
     1
 10
25164.34031913002
 20
-4990.164682510233
 11
25364.34031913001
 21
-4990.164682510233
 72
     1
 10
25364.34031913001
 20
-4990.164682510233
 11
25364.34031913002
 21
-3970.164682510237
 72
     1
 10
25364.34031913002
 20
-3970.164682510237
 11
25164.34031913002
 21
-3970.164682510239
 72
     1
 10
25164.34031913002
 20
-3970.164682510239
 11
25164.34031913002
 21
-4990.164682510233
 97
        0
 75
     0
 76
     1
 98
        1
 10
0.0
 20
0.0
450
        0
451
        0
460
0.0
461
0.0
452
        0
462
0.0
453
        0
470

1001
REVIT
1002
{
1070
     1
1000
22880377
1002
}
1002
{
1070
     5
1000
22554474
1002
}
1002
{
1070
     2
1000
-2000011
1002
}
1002
{
1070
     3
1000
-2000588
1002
}
  0
HATCH
  5
B8
330
70
100
AcDbEntity
  8
A-ALV-___-___-EXI
 62
    11
100
AcDbHatch
 10
0.0
 20
0.0
 30
0.0
210
0.0
220
0.0
230
1.0
  2
SOLID
 70
     1
 71
     0
 91
        1
 92
        1
 93
        5
 72
     1
 10
22024.34031913
 20
-16912.15994407379
 11
22224.34031913
 21
-16912.15994407379
 72
     1
 10
22224.34031913
 20
-16912.15994407379
 11
22224.34031913001
 21
-10012.15994407378
 72
     1
 10
22224.34031913001
 20
-10012.15994407378
 11
22024.34031913002
 21
-10012.15994407378
 72
     1
 10
22024.34031913002
 20
-10012.15994407378
 11
22024.34031913001
 21
-12467.61281010807
 72
     1
 10
22024.34031913001
 20
-12467.61281010807
 11
22024.34031913
 21
-16912.15994407379
 97
        0
 75
     0
 76
     1
 98
        1
 10
0.0
 20
0.0
450
        0
451
        0
460
0.0
461
0.0
452
        0
462
0.0
453
        0
470

1001
REVIT
1002
{
1070
     1
1000
22880379
1002
}
1002
{
1070
     5
1000
22554474
1002
}
1002
{
1070
     2
1000
-2000011
1002
}
1002
{
1070
     3
1000
-2000588
1002
}
  0
HATCH
  5
BE
330
70
100
AcDbEntity
  8
A-ALV-___-___-EXI
 62
    11
100
AcDbHatch
 10
0.0
 20
0.0
 30
0.0
210
0.0
220
0.0
230
1.0
  2
SOLID
 70
     1
 71
     0
 91
        1
 92
        1
 93
        5
 72
     1
 10
22024.34031912999
 20
-24152.15994407381
 11
22224.34031912999
 21
-24152.15994407381
 72
     1
 10
22224.34031912999
 20
-24152.15994407381
 11
22224.34031913
 21
-17692.15994407379
 72
     1
 10
22224.34031913
 20
-17692.15994407379
 11
22024.34031913
 21
-17692.15994407379
 72
     1
 10
22024.34031913
 20
-17692.15994407379
 11
22024.34031912999
 21
-18961.54978429886
 72
     1
 10
22024.34031912999
 20
-18961.54978429886
 11
22024.34031912999
 21
-24152.15994407381
 97
        0
 75
     0
 76
     1
 98
        1
 10
0.0
 20
0.0
450
        0
451
        0
460
0.0
461
0.0
452
        0
462
0.0
453
        0
470

1001
REVIT
1002
{
1070
     1
1000
22880381
1002
}
1002
{
1070
     5
1000
22554474
1002
}
1002
{
1070
     2
1000
-2000011
1002
}
1002
{
1070
     3
1000
-2000588
1002
}
  0
HATCH
  5
C3
330
70
100
AcDbEntity
  8
A-ALV-___-___-EXI
 62
    11
100
AcDbHatch
 10
0.0
 20
0.0
 30
0.0
210
0.0
220
0.0
230
1.0
  2
SOLID
 70
     1
 71
     0
 91
        1
 92
        1
 93
        4
 72
     1
 10
25364.34031913002
 20
-3970.164682510237
 11
25364.34031913002
 21
-3750.164682510234
 72
     1
 10
25364.34031913002
 20
-3750.164682510234
 11
25164.34031913002
 21
-3750.164682510237
 72
     1
 10
25164.34031913002
 20
-3750.164682510237
 11
25164.34031913002
 21
-3970.164682510239
 72
     1
 10
25164.34031913002
 20
-3970.164682510239
 11
25364.34031913002
 21
-3970.164682510237
 97
        0
 75
     0
 76
     1
 98
        1
 10
0.0
 20
0.0
450
        0
451
        0
460
0.0
461
0.0
452
        0
462
0.0
453
        0
470

1001
REVIT
1002
{
1070
     1
1000
22880382
1002
}
1002
{
1070
     5
1000
22554474
1002
}
1002
{
1070
     2
1000
-2000011
1002
}
1002
{
1070
     3
1000
-2000588
1002
}
  0
HATCH
  5
C8
330
70
100
AcDbEntity
  8
A-ALV-___-___-EXI
 62
    11
100
AcDbHatch
 10
0.0
 20
0.0
 30
0.0
210
0.0
220
0.0
230
1.0
  2
SOLID
 70
     1
 71
     0
 91
        1
 92
        1
 93
        4
 72
     1
 10
25364.34031913002
 20
-3750.164682510234
 11
25364.34031913003
 21
-612.15994407377
 72
     1
 10
25364.34031913003
 20
-612.1599440737701
 11
25164.34031913002
 21
-612.1599440737704
 72
     1
 10
25164.34031913002
 20
-612.1599440737704
 11
25164.34031913002
 21
-3750.164682510237
 72
     1
 10
25164.34031913002
 20
-3750.164682510237
 11
25364.34031913002
 21
-3750.164682510234
 97
        0
 75
     0
 76
     1
 98
        1
 10
0.0
 20
0.0
450
        0
451
        0
460
0.0
461
0.0
452
        0
462
0.0
453
        0
470

1001
REVIT
1002
{
1070
     1
1000
22880383
1002
}
1002
{
1070
     5
1000
22554474
1002
}
1002
{
1070
     2
1000
-2000011
1002
}
1002
{
1070
     3
1000
-2000588
1002
}
  0
HATCH
  5
CD
330
70
100
AcDbEntity
  8
A-ALV-___-___-EXI
 62
    11
100
AcDbHatch
 10
0.0
 20
0.0
 30
0.0
210
0.0
220
0.0
230
1.0
  2
SOLID
 70
     1
 71
     0
 91
        1
 92
        1
 93
        4
 72
     1
 10
24608.36909473228
 20
-24752.15994407381
 11
24808.36909473228
 21
-24752.15994407381
 72
     1
 10
24808.36909473228
 20
-24752.15994407381
 11
24808.36909473228
 21
-23752.15994407381
 72
     1
 10
24808.36909473228
 20
-23752.15994407381
 11
24608.36909473227
 21
-23752.15994407381
 72
     1
 10
24608.36909473227
 20
-23752.15994407381
 11
24608.36909473228
 21
-24752.15994407381
 97
        0
 75
     0
 76
     1
 98
        1
 10
0.0
 20
0.0
450
        0
451
        0
460
0.0
461
0.0
452
        0
462
0.0
453
        0
470

1001
REVIT
1002
{
1070
     1
1000
22880576
1002
}
1002
{
1070
     5
1000
22554474
1002
}
1002
{
1070
     2
1000
-2000011
1002
}
1002
{
1070
     3
1000
-2000588
1002
}
  0
HATCH
  5
D2
330
70
100
AcDbEntity
  8
A-ALV-___-___-EXI
 62
    11
100
AcDbHatch
 10
0.0
 20
0.0
 30
0.0
210
0.0
220
0.0
230
1.0
  2
SOLID
 70
     1
 71
     0
 91
        1
 92
        1
 93
        4
 72
     1
 10
24808.36909473228
 20
-20352.1599440738
 11
25458.36909473228
 21
-20352.15994407379
 72
     1
 10
25458.36909473228
 20
-20352.15994407379
 11
25458.36909473228
 21
-20152.15994407379
 72
     1
 10
25458.36909473228
 20
-20152.15994407379
 11
24808.36909473228
 21
-20152.15994407381
 72
     1
 10
24808.36909473228
 20
-20152.15994407381
 11
24808.36909473228
 21
-20352.1599440738
 97
        0
 75
     0
 76
     1
 98
        1
 10
0.0
 20
0.0
450
        0
451
        0
460
0.0
461
0.0
452
        0
462
0.0
453
        0
470

1001
REVIT
1002
{
1070
     1
1000
22880687
1002
}
1002
{
1070
     5
1000
22554474
1002
}
1002
{
1070
     2
1000
-2000011
1002
}
1002
{
1070
     3
1000
-2000588
1002
}
  0
HATCH
  5
D7
330
70
100
AcDbEntity
  8
A-ALV-___-___-EXI
 62
    11
100
AcDbHatch
 10
0.0
 20
0.0
 30
0.0
210
0.0
220
0.0
230
1.0
  2
SOLID
 70
     1
 71
     0
 91
        1
 92
        1
 93
        4
 72
     1
 10
24808.36909473229
 20
-14752.15994407379
 11
25458.36909473229
 21
-14752.15994407378
 72
     1
 10
25458.36909473229
 20
-14752.15994407378
 11
25458.36909473229
 21
-14552.15994407379
 72
     1
 10
25458.36909473229
 20
-14552.15994407379
 11
24808.36909473229
 21
-14552.15994407379
 72
     1
 10
24808.36909473229
 20
-14552.15994407379
 11
24808.36909473229
 21
-14752.15994407379
 97
        0
 75
     0
 76
     1
 98
        1
 10
0.0
 20
0.0
450
        0
451
        0
460
0.0
461
0.0
452
        0
462
0.0
453
        0
470

1001
REVIT
1002
{
1070
     1
1000
22880757
1002
}
1002
{
1070
     5
1000
22554474
1002
}
1002
{
1070
     2
1000
-2000011
1002
}
1002
{
1070
     3
1000
-2000588
1002
}
  0
HATCH
  5
DC
330
70
100
AcDbEntity
  8
A-ALV-___-___-EXI
 62
    11
100
AcDbHatch
 10
0.0
 20
0.0
 30
0.0
210
0.0
220
0.0
230
1.0
  2
SOLID
 70
     1
 71
     0
 91
        1
 92
        1
 93
        4
 72
     1
 10
26924.34031913001
 20
-17377.15994407379
 11
27124.34031913002
 21
-17377.15994407379
 72
     1
 10
27124.34031913002
 20
-17377.15994407379
 11
27124.34031913002
 21
-14752.15994407379
 72
     1
 10
27124.34031913002
 20
-14752.15994407379
 11
26924.34031913001
 21
-14752.15994407379
 72
     1
 10
26924.34031913001
 20
-14752.15994407379
 11
26924.34031913001
 21
-17377.15994407379
 97
        0
 75
     0
 76
     1
 98
        1
 10
0.0
 20
0.0
450
        0
451
        0
460
0.0
461
0.0
452
        0
462
0.0
453
        0
470

1001
REVIT
1002
{
1070
     1
1000
22880846
1002
}
1002
{
1070
     5
1000
22554474
1002
}
1002
{
1070
     2
1000
-2000011
1002
}
1002
{
1070
     3
1000
-2000588
1002
}
  0
HATCH
  5
E1
330
70
100
AcDbEntity
  8
A-ALV-___-___-EXI
 62
    11
100
AcDbHatch
 10
0.0
 20
0.0
 30
0.0
210
0.0
220
0.0
230
1.0
  2
SOLID
 70
     1
 71
     0
 91
        1
 92
        1
 93
        4
 72
     1
 10
26954.34031913003
 20
-6702.159944073773
 11
26954.34031913003
 21
-6502.159944073774
 72
     1
 10
26954.34031913003
 20
-6502.159944073774
 11
25364.34031913001
 21
-6502.159944073769
 72
     1
 10
25364.34031913001
 20
-6502.159944073769
 11
25364.34031913001
 21
-6702.159944073772
 72
     1
 10
25364.34031913001
 20
-6702.159944073772
 11
26954.34031913003
 21
-6702.159944073773
 97
        0
 75
     0
 76
     1
 98
        1
 10
0.0
 20
0.0
450
        0
451
        0
460
0.0
461
0.0
452
        0
462
0.0
453
        0
470

1001
REVIT
1002
{
1070
     1
1000
22881023
1002
}
1002
{
1070
     5
1000
22554474
1002
}
1002
{
1070
     2
1000
-2000011
1002
}
1002
{
1070
     3
1000
-2000588
1002
}
  0
HATCH
  5
E7
330
70
100
AcDbEntity
  8
A-ALV-___-___-EXI
 62
    11
100
AcDbHatch
 10
0.0
 20
0.0
 30
0.0
210
0.0
220
0.0
230
1.0
  2
SOLID
 70
     1
 71
     0
 91
        1
 92
        1
 93
        5
 72
     1
 10
26704.34031913003
 20
-6502.159944073776
 11
26904.34031913003
 21
-6502.159944073776
 72
     1
 10
26904.34031913003
 20
-6502.159944073776
 11
26904.34031913004
 21
-5842.159944073774
 72
     1
 10
26904.34031913004
 20
-5842.159944073774
 11
26704.34031913003
 21
-5842.159944073774
 72
     1
 10
26704.34031913003
 20
-5842.159944073774
 11
26704.34031913003
 21
-5973.675835917287
 72
     1
 10
26704.34031913003
 20
-5973.675835917287
 11
26704.34031913003
 21
-6502.159944073776
 97
        0
 75
     0
 76
     1
 98
        1
 10
0.0
 20
0.0
450
        0
451
        0
460
0.0
461
0.0
452
        0
462
0.0
453
        0
470

1001
REVIT
1002
{
1070
     1
1000
22881089
1002
}
1002
{
1070
     5
1000
22554474
1002
}
1002
{
1070
     2
1000
-2000011
1002
}
1002
{
1070
     3
1000
-2000588
1002
}
  0
HATCH
  5
EC
330
70
100
AcDbEntity
  8
A-ALV-___-___-EXI
 62
    11
100
AcDbHatch
 10
0.0
 20
0.0
 30
0.0
210
0.0
220
0.0
230
1.0
  2
SOLID
 70
     1
 71
     0
 91
        1
 92
        1
 93
        4
 72
     1
 10
26704.34031913004
 20
-3677.159944073773
 11
26704.34031913004
 21
-3477.159944073771
 72
     1
 10
26704.34031913004
 20
-3477.159944073771
 11
25364.34031913002
 21
-3477.159944073773
 72
     1
 10
25364.34031913002
 20
-3477.159944073773
 11
25364.34031913002
 21
-3677.15994407377
 72
     1
 10
25364.34031913002
 20
-3677.15994407377
 11
26704.34031913004
 21
-3677.159944073773
 97
        0
 75
     0
 76
     1
 98
        1
 10
0.0
 20
0.0
450
        0
451
        0
460
0.0
461
0.0
452
        0
462
0.0
453
        0
470

1001
REVIT
1002
{
1070
     1
1000
22881161
1002
}
1002
{
1070
     5
1000
22554474
1002
}
1002
{
1070
     2
1000
-2000011
1002
}
1002
{
1070
     3
1000
-2000588
1002
}
  0
HATCH
  5
F2
330
70
100
AcDbEntity
  8
A-ALV-___-___-EXI
 62
    11
100
AcDbHatch
 10
0.0
 20
0.0
 30
0.0
210
0.0
220
0.0
230
1.0
  2
SOLID
 70
     1
 71
     0
 91
        1
 92
        1
 93
        5
 72
     1
 10
28564.34031913004
 20
-652.1599440737857
 11
28764.34031913003
 21
-652.1599440737875
 72
     1
 10
28764.34031913003
 20
-652.1599440737875
 11
28764.34031913003
 21
-32.15994407376604
 72
     1
 10
28764.34031913003
 20
-32.15994407376601
 11
28164.34031913003
 21
-32.15994407376275
 72
     1
 10
28164.34031913003
 20
-32.15994407376275
 11
28164.34031913003
 21
-652.159944073782
 72
     1
 10
28164.34031913003
 20
-652.159944073782
 11
28564.34031913004
 21
-652.1599440737857
 97
        0
 75
     0
 76
     1
 98
        1
 10
0.0
 20
0.0
450
        0
451
        0
460
0.0
461
0.0
452
        0
462
0.0
453
        0
470

1001
REVIT
1002
{
1070
     1
1000
22881517
1002
}
1002
{
1070
     5
1000
22882467
1002
}
1002
{
1070
     2
1000
-2000011
1002
}
1002
{
1070
     3
1000
-2000588
1002
}
  0
HATCH
  5
F8
330
70
100
AcDbEntity
  8
A-ALV-___-___-EXI
 62
    11
100
AcDbHatch
 10
0.0
 20
0.0
 30
0.0
210
0.0
220
0.0
230
1.0
  2
SOLID
 70
     1
 71
     0
 91
        1
 92
        1
 93
        5
 72
     1
 10
25364.34031913003
 20
-612.1599440737723
 11
25764.34031913003
 21
-612.1599440737693
 72
     1
 10
25764.34031913003
 20
-612.1599440737693
 11
25764.34031913003
 21
167.8400559262352
 72
     1
 10
25764.34031913003
 20
167.8400559262352
 11
25164.34031913002
 21
167.8400559262319
 72
     1
 10
25164.34031913002
 20
167.8400559262319
 11
25164.34031913002
 21
-612.1599440737704
 72
     1
 10
25164.34031913002
 20
-612.1599440737704
 11
25364.34031913003
 21
-612.1599440737723
 97
        0
 75
     0
 76
     1
 98
        1
 10
0.0
 20
0.0
450
        0
451
        0
460
0.0
461
0.0
452
        0
462
0.0
453
        0
470

1001
REVIT
1002
{
1070
     1
1000
22881657
1002
}
1002
{
1070
     5
1000
22882467
1002
}
1002
{
1070
     2
1000
-2000011
1002
}
1002
{
1070
     3
1000
-2000588
1002
}
  0
HATCH
  5
FE
330
70
100
AcDbEntity
  8
A-ALV-___-___-EXI
 62
    11
100
AcDbHatch
 10
0.0
 20
0.0
 30
0.0
210
0.0
220
0.0
230
1.0
  2
SOLID
 70
     1
 71
     0
 91
        1
 92
        1
 93
        5
 72
     1
 10
22224.34031913001
 20
-10012.15994407378
 11
22624.34031913002
 21
-10012.15994407378
 72
     1
 10
22624.34031913002
 20
-10012.15994407378
 11
22624.34031913001
 21
-9312.159944073787
 72
     1
 10
22624.34031913001
 20
-9312.159944073787
 11
22024.34031913001
 21
-9312.159944073782
 72
     1
 10
22024.34031913001
 20
-9312.159944073782
 11
22024.34031913002
 21
-10012.15994407378
 72
     1
 10
22024.34031913002
 20
-10012.15994407378
 11
22224.34031913001
 21
-10012.15994407378
 97
        0
 75
     0
 76
     1
 98
        1
 10
0.0
 20
0.0
450
        0
451
        0
460
0.0
461
0.0
452
        0
462
0.0
453
        0
470

1001
REVIT
1002
{
1070
     1
1000
22881732
1002
}
1002
{
1070
     5
1000
22882467
1002
}
1002
{
1070
     2
1000
-2000011
1002
}
1002
{
1070
     3
1000
-2000588
1002
}
  0
HATCH
  5
104
330
70
100
AcDbEntity
  8
A-ALV-___-___-EXI
 62
    11
100
AcDbHatch
 10
0.0
 20
0.0
 30
0.0
210
0.0
220
0.0
230
1.0
  2
SOLID
 70
     1
 71
     0
 91
        1
 92
        1
 93
        5
 72
     1
 10
28564.34031913001
 20
-16872.15994407381
 11
28764.34031913001
 21
-16872.15994407381
 72
     1
 10
28764.34031913001
 20
-16872.15994407381
 11
28764.34031913003
 21
-10052.15994407379
 72
     1
 10
28764.34031913003
 20
-10052.15994407379
 11
28564.34031913003
 21
-10052.15994407379
 72
     1
 10
28564.34031913003
 20
-10052.15994407379
 11
28564.34031913001
 21
-14752.15994407378
 72
     1
 10
28564.34031913001
 20
-14752.15994407378
 11
28564.34031913001
 21
-16872.15994407381
 97
        0
 75
     0
 76
     1
 98
        1
 10
0.0
 20
0.0
450
        0
451
        0
460
0.0
461
0.0
452
        0
462
0.0
453
        0
470

1001
REVIT
1002
{
1070
     1
1000
22881879
1002
}
1002
{
1070
     5
1000
22554474
1002
}
1002
{
1070
     2
1000
-2000011
1002
}
1002
{
1070
     3
1000
-2000588
1002
}
  0
HATCH
  5
10A
330
70
100
AcDbEntity
  8
A-ALV-___-___-EXI
 62
    11
100
AcDbHatch
 10
0.0
 20
0.0
 30
0.0
210
0.0
220
0.0
230
1.0
  2
SOLID
 70
     1
 71
     0
 91
        1
 92
        1
 93
        5
 72
     1
 10
28564.34031913003
 20
-10052.15994407379
 11
28764.34031913003
 21
-10052.15994407379
 72
     1
 10
28764.34031913003
 20
-10052.15994407379
 11
28764.34031913002
 21
-9312.159944073767
 72
     1
 10
28764.34031913002
 20
-9312.159944073767
 11
28324.34031913002
 21
-9312.159944073767
 72
     1
 10
28324.34031913002
 20
-9312.159944073767
 11
28324.34031913003
 21
-10052.15994407379
 72
     1
 10
28324.34031913003
 20
-10052.15994407379
 11
28564.34031913003
 21
-10052.15994407379
 97
        0
 75
     0
 76
     1
 98
        1
 10
0.0
 20
0.0
450
        0
451
        0
460
0.0
461
0.0
452
        0
462
0.0
453
        0
470

1001
REVIT
1002
{
1070
     1
1000
22881960
1002
}
1002
{
1070
     5
1000
22422765
1002
}
1002
{
1070
     2
1000
-2000011
1002
}
1002
{
1070
     3
1000
-2000588
1002
}
  0
HATCH
  5
110
330
70
100
AcDbEntity
  8
A-ALV-___-___-EXI
 62
    11
100
AcDbHatch
 10
0.0
 20
0.0
 30
0.0
210
0.0
220
0.0
230
1.0
  2
SOLID
 70
     1
 71
     0
 91
        1
 92
        1
 93
        5
 72
     1
 10
22524.34031912999
 20
-17692.15994407379
 11
22524.34031912999
 21
-16912.15994407379
 72
     1
 10
22524.34031912999
 20
-16912.15994407379
 11
22024.34031913
 21
-16912.15994407379
 72
     1
 10
22024.34031913
 20
-16912.15994407379
 11
22024.34031913
 21
-17692.15994407379
 72
     1
 10
22024.34031913
 20
-17692.15994407379
 11
22224.34031913
 21
-17692.15994407379
 72
     1
 10
22224.34031913
 20
-17692.15994407379
 11
22524.34031912999
 21
-17692.15994407379
 97
        0
 75
     0
 76
     1
 98
        1
 10
0.0
 20
0.0
450
        0
451
        0
460
0.0
461
0.0
452
        0
462
0.0
453
        0
470

1001
REVIT
1002
{
1070
     1
1000
22882224
1002
}
1002
{
1070
     5
1000
22476260
1002
}
1002
{
1070
     2
1000
-2000011
1002
}
1002
{
1070
     3
1000
-2000588
1002
}
  0
HATCH
  5
115
330
70
100
AcDbEntity
  8
A-ALV-___-___-EXI
 62
    11
100
AcDbHatch
 10
0.0
 20
0.0
 30
0.0
210
0.0
220
0.0
230
1.0
  2
SOLID
 70
     1
 71
     0
 91
        1
 92
        1
 93
        4
 72
     1
 10
22524.34031912999
 20
-24952.15994407379
 11
22524.34031912998
 21
-24152.1599440738
 72
     1
 10
22524.34031912998
 20
-24152.1599440738
 11
22024.34031912999
 21
-24152.15994407381
 72
     1
 10
22024.34031912999
 20
-24152.15994407381
 11
22024.34031912999
 21
-24952.15994407381
 72
     1
 10
22024.34031912999
 20
-24952.15994407381
 11
22524.34031912999
 21
-24952.15994407379
 97
        0
 75
     0
 76
     1
 98
        1
 10
0.0
 20
0.0
450
        0
451
        0
460
0.0
461
0.0
452
        0
462
0.0
453
        0
470

1001
REVIT
1002
{
1070
     1
1000
22882308
1002
}
1002
{
1070
     5
1000
22476260
1002
}
1002
{
1070
     2
1000
-2000011
1002
}
1002
{
1070
     3
1000
-2000588
1002
}
  0
HATCH
  5
11A
330
70
100
AcDbEntity
  8
A-ALV-___-___-EXI
 62
    11
100
AcDbHatch
 10
0.0
 20
0.0
 30
0.0
210
0.0
220
0.0
230
1.0
  2
SOLID
 70
     1
 71
     0
 91
        1
 92
        1
 93
        4
 72
     1
 10
28764.34031913001
 20
-24012.15994407381
 11
28764.34031913002
 21
-17712.1599440738
 72
     1
 10
28764.34031913002
 20
-17712.1599440738
 11
28564.34031913002
 21
-17712.1599440738
 72
     1
 10
28564.34031913002
 20
-17712.1599440738
 11
28564.34031913
 21
-24012.15994407381
 72
     1
 10
28564.34031913
 20
-24012.15994407381
 11
28764.34031913001
 21
-24012.15994407381
 97
        0
 75
     0
 76
     1
 98
        1
 10
0.0
 20
0.0
450
        0
451
        0
460
0.0
461
0.0
452
        0
462
0.0
453
        0
470

1001
REVIT
1002
{
1070
     1
1000
22882624
1002
}
1002
{
1070
     5
1000
22554474
1002
}
1002
{
1070
     2
1000
-2000011
1002
}
1002
{
1070
     3
1000
-2000588
1002
}
  0
HATCH
  5
120
330
70
100
AcDbEntity
  8
A-ALV-___-___-EXI
 62
    11
100
AcDbHatch
 10
0.0
 20
0.0
 30
0.0
210
0.0
220
0.0
230
1.0
  2
SOLID
 70
     1
 71
     0
 91
        1
 92
        1
 93
        5
 72
     1
 10
28564.34031913002
 20
-17712.1599440738
 11
28764.34031913002
 21
-17712.1599440738
 72
     1
 10
28764.34031913002
 20
-17712.1599440738
 11
28764.34031913001
 21
-16872.15994407381
 72
     1
 10
28764.34031913001
 20
-16872.15994407381
 11
28264.34031913001
 21
-16872.1599440738
 72
     1
 10
28264.34031913001
 20
-16872.1599440738
 11
28264.34031913001
 21
-17712.1599440738
 72
     1
 10
28264.34031913001
 20
-17712.1599440738
 11
28564.34031913002
 21
-17712.1599440738
 97
        0
 75
     0
 76
     1
 98
        1
 10
0.0
 20
0.0
450
        0
451
        0
460
0.0
461
0.0
452
        0
462
0.0
453
        0
470

1001
REVIT
1002
{
1070
     1
1000
22882713
1002
}
1002
{
1070
     5
1000
22476260
1002
}
1002
{
1070
     2
1000
-2000011
1002
}
1002
{
1070
     3
1000
-2000588
1002
}
  0
HATCH
  5
126
330
70
100
AcDbEntity
  8
A-ALV-___-___-EXI
 62
    11
100
AcDbHatch
 10
0.0
 20
0.0
 30
0.0
210
0.0
220
0.0
230
1.0
  2
SOLID
 70
     1
 71
     0
 91
        1
 92
        1
 93
        5
 72
     1
 10
26924.34031913001
 20
-20152.1599440738
 11
27124.34031913001
 21
-20152.1599440738
 72
     1
 10
27124.34031913001
 20
-20152.1599440738
 11
27124.34031913002
 21
-17712.1599440738
 72
     1
 10
27124.34031913002
 20
-17712.1599440738
 11
26924.34031913001
 21
-17712.1599440738
 72
     1
 10
26924.34031913001
 20
-17712.1599440738
 11
26924.34031913001
 21
-18961.54978429886
 72
     1
 10
26924.34031913001
 20
-18961.54978429886
 11
26924.34031913001
 21
-20152.1599440738
 97
        0
 75
     0
 76
     1
 98
        1
 10
0.0
 20
0.0
450
        0
451
        0
460
0.0
461
0.0
452
        0
462
0.0
453
        0
470

1001
REVIT
1002
{
1070
     1
1000
22882806
1002
}
1002
{
1070
     5
1000
22554474
1002
}
1002
{
1070
     2
1000
-2000011
1002
}
1002
{
1070
     3
1000
-2000588
1002
}
  0
HATCH
  5
12C
330
70
100
AcDbEntity
  8
A-ALV-___-___-EXI
 62
    11
100
AcDbHatch
 10
0.0
 20
0.0
 30
0.0
210
0.0
220
0.0
230
1.0
  2
SOLID
 70
     1
 71
     0
 91
        1
 92
        1
 93
        5
 72
     1
 10
27199.34031913001
 20
-17712.1599440738
 11
27199.34031913002
 21
-17377.15994407379
 72
     1
 10
27199.34031913002
 20
-17377.15994407379
 11
26899.34031913002
 21
-17377.15994407379
 72
     1
 10
26899.34031913002
 20
-17377.15994407379
 11
26899.34031913002
 21
-17712.1599440738
 72
     1
 10
26899.34031913002
 20
-17712.1599440738
 11
27124.34031913002
 21
-17712.1599440738
 72
     1
 10
27124.34031913002
 20
-17712.1599440738
 11
27199.34031913001
 21
-17712.1599440738
 97
        0
 75
     0
 76
     1
 98
        1
 10
0.0
 20
0.0
450
        0
451
        0
460
0.0
461
0.0
452
        0
462
0.0
453
        0
470

1001
REVIT
1002
{
1070
     1
1000
22882934
1002
}
1002
{
1070
     5
1000
22542561
1002
}
1002
{
1070
     2
1000
-2000011
1002
}
1002
{
1070
     3
1000
-2000588
1002
}
  0
HATCH
  5
131
330
70
100
AcDbEntity
  8
A-ALV-___-___-EXI
 62
    11
100
AcDbHatch
 10
0.0
 20
0.0
 30
0.0
210
0.0
220
0.0
230
1.0
  2
SOLID
 70
     1
 71
     0
 91
        1
 92
        1
 93
        4
 72
     1
 10
28764.34031913001
 20
-24752.15994407381
 11
28764.34031913001
 21
-24012.15994407381
 72
     1
 10
28764.34031913001
 20
-24012.15994407381
 11
28264.34031913
 21
-24012.1599440738
 72
     1
 10
28264.34031913
 20
-24012.1599440738
 11
28264.34031913001
 21
-24752.1599440738
 72
     1
 10
28264.34031913001
 20
-24752.1599440738
 11
28764.34031913001
 21
-24752.15994407381
 97
        0
 75
     0
 76
     1
 98
        1
 10
0.0
 20
0.0
450
        0
451
        0
460
0.0
461
0.0
452
        0
462
0.0
453
        0
470

1001
REVIT
1002
{
1070
     1
1000
22883104
1002
}
1002
{
1070
     5
1000
22476260
1002
}
1002
{
1070
     2
1000
-2000011
1002
}
1002
{
1070
     3
1000
-2000588
1002
}
  0
HATCH
  5
136
330
70
100
AcDbEntity
  8
A-ALV-___-___-EXI
 62
    11
100
AcDbHatch
 10
0.0
 20
0.0
 30
0.0
210
0.0
220
0.0
230
1.0
  2
SOLID
 70
     1
 71
     0
 91
        1
 92
        1
 93
        4
 72
     1
 10
23668.36909473229
 20
-17402.15994407379
 11
23668.36909473229
 21
-17202.1599440738
 72
     1
 10
23668.36909473229
 20
-17202.1599440738
 11
22524.34031913
 21
-17202.1599440738
 72
     1
 10
22524.34031913
 20
-17202.1599440738
 11
22524.34031913
 21
-17402.15994407379
 72
     1
 10
22524.34031913
 20
-17402.15994407379
 11
23668.36909473229
 21
-17402.15994407379
 97
        0
 75
     0
 76
     1
 98
        1
 10
0.0
 20
0.0
450
        0
451
        0
460
0.0
461
0.0
452
        0
462
0.0
453
        0
470

1001
REVIT
1002
{
1070
     1
1000
22883277
1002
}
1002
{
1070
     5
1000
22554474
1002
}
1002
{
1070
     2
1000
-2000011
1002
}
1002
{
1070
     3
1000
-2000588
1002
}
  0
HATCH
  5
13C
330
70
100
AcDbEntity
  8
A-ALV-___-___-EXI
 62
    11
100
AcDbHatch
 10
0.0
 20
0.0
 30
0.0
210
0.0
220
0.0
230
1.0
  2
SOLID
 70
     1
 71
     0
 91
        1
 92
        1
 93
        5
 72
     1
 10
28164.34031913003
 20
-32.15994407376275
 11
28764.34031913003
 21
-32.15994407376601
 72
     1
 10
28764.34031913003
 20
-32.15994407376601
 11
28764.34031913003
 21
167.840055926234
 72
     1
 10
28764.34031913003
 20
167.840055926234
 11
27484.34031913003
 21
167.8400559262339
 72
     1
 10
27484.34031913003
 20
167.8400559262339
 11
27484.34031913003
 21
-32.15994407376613
 72
     1
 10
27484.34031913003
 20
-32.15994407376612
 11
28164.34031913003
 21
-32.15994407376275
 97
        0
 75
     0
 76
     1
 98
        1
 10
0.0
 20
0.0
450
        0
451
        0
460
0.0
461
0.0
452
        0
462
0.0
453
        0
470

1001
REVIT
1002
{
1070
     1
1000
22884324
1002
}
1002
{
1070
     5
1000
22554474
1002
}
1002
{
1070
     2
1000
-2000011
1002
}
1002
{
1070
     3
1000
-2000588
1002
}
  0
HATCH
  5
142
330
70
100
AcDbEntity
  8
A-ALV-___-___-EXI
 62
    11
100
AcDbHatch
 10
0.0
 20
0.0
 30
0.0
210
0.0
220
0.0
230
1.0
  2
SOLID
 70
     1
 71
     0
 91
        1
 92
        1
 93
        5
 72
     1
 10
26704.34031913003
 20
-5182.159944073773
 11
26904.34031913004
 21
-5182.159944073773
 72
     1
 10
26904.34031913004
 20
-5182.159944073773
 11
26904.34031913004
 21
-3477.159944073771
 72
     1
 10
26904.34031913004
 20
-3477.159944073771
 11
26704.34031913004
 21
-3477.159944073771
 72
     1
 10
26704.34031913004
 20
-3477.159944073771
 11
26704.34031913004
 21
-3677.159944073773
 72
     1
 10
26704.34031913004
 20
-3677.159944073773
 11
26704.34031913003
 21
-5182.159944073773
 97
        0
 75
     0
 76
     1
 98
        1
 10
0.0
 20
0.0
450
        0
451
        0
460
0.0
461
0.0
452
        0
462
0.0
453
        0
470

1001
REVIT
1002
{
1070
     1
1000
22884486
1002
}
1002
{
1070
     5
1000
22554474
1002
}
1002
{
1070
     2
1000
-2000011
1002
}
1002
{
1070
     3
1000
-2000588
1002
}
  0
HATCH
  5
147
330
70
100
AcDbEntity
  8
A-ALV-___-___-EXI
 62
    11
100
AcDbHatch
 10
0.0
 20
0.0
 30
0.0
210
0.0
220
0.0
230
1.0
  2
SOLID
 70
     1
 71
     0
 91
        1
 92
        1
 93
        4
 72
     1
 10
25364.34031913002
 20
-6052.159944073771
 11
25364.34031913002
 21
-5952.159944073773
 72
     1
 10
25364.34031913002
 20
-5952.159944073773
 11
25164.34031913002
 21
-5952.159944073773
 72
     1
 10
25164.34031913002
 20
-5952.159944073773
 11
25164.34031913002
 21
-6052.159944073771
 72
     1
 10
25164.34031913002
 20
-6052.159944073771
 11
25364.34031913002
 21
-6052.159944073771
 97
        0
 75
     0
 76
     1
 98
        1
 10
0.0
 20
0.0
450
        0
451
        0
460
0.0
461
0.0
452
        0
462
0.0
453
        0
470

1001
REVIT
1002
{
1070
     1
1000
22884577
1002
}
1002
{
1070
     5
1000
22554474
1002
}
1002
{
1070
     2
1000
-2000011
1002
}
1002
{
1070
     3
1000
-2000588
1002
}
  0
HATCH
  5
14C
330
70
100
AcDbEntity
  8
A-ALV-___-___-EXI
 62
    11
100
AcDbHatch
 10
0.0
 20
0.0
 30
0.0
210
0.0
220
0.0
230
1.0
  2
SOLID
 70
     1
 71
     0
 91
        1
 92
        1
 93
        4
 72
     1
 10
25164.34031913005
 20
-9112.159944073773
 11
25364.34031913005
 21
-9112.159944073773
 72
     1
 10
25364.34031913005
 20
-9112.159944073773
 11
25364.34031913005
 21
-8512.159944073772
 72
     1
 10
25364.34031913005
 20
-8512.159944073772
 11
25164.34031913005
 21
-8512.159944073772
 72
     1
 10
25164.34031913005
 20
-8512.159944073772
 11
25164.34031913005
 21
-9112.159944073773
 97
        0
 75
     0
 76
     1
 98
        1
 10
0.0
 20
0.0
450
        0
451
        0
460
0.0
461
0.0
452
        0
462
0.0
453
        0
470

1001
REVIT
1002
{
1070
     1
1000
22884672
1002
}
1002
{
1070
     5
1000
22554474
1002
}
1002
{
1070
     2
1000
-2000011
1002
}
1002
{
1070
     3
1000
-2000588
1002
}
  0
HATCH
  5
152
330
70
100
AcDbEntity
  8
A-ALV-___-___-EXI
 62
    11
100
AcDbHatch
 10
0.0
 20
0.0
 30
0.0
210
0.0
220
0.0
230
1.0
  2
SOLID
 70
     1
 71
     0
 91
        1
 92
        1
 93
        5
 72
     1
 10
22624.34031913001
 20
-9312.159944073787
 11
25864.34031913001
 21
-9312.159944073769
 72
     1
 10
25864.34031913001
 20
-9312.159944073769
 11
25864.34031913001
 21
-9112.159944073773
 72
     1
 10
25864.34031913001
 20
-9112.159944073773
 11
22604.34031913002
 21
-9112.159944073779
 72
     1
 10
22604.34031913002
 20
-9112.159944073779
 11
22604.34031913002
 21
-9312.159944073787
 72
     1
 10
22604.34031913002
 20
-9312.159944073787
 11
22624.34031913001
 21
-9312.159944073787
 97
        0
 75
     0
 76
     1
 98
        1
 10
0.0
 20
0.0
450
        0
451
        0
460
0.0
461
0.0
452
        0
462
0.0
453
        0
470

1001
REVIT
1002
{
1070
     1
1000
22884954
1002
}
1002
{
1070
     5
1000
22554474
1002
}
1002
{
1070
     2
1000
-2000011
1002
}
1002
{
1070
     3
1000
-2000588
1002
}
  0
HATCH
  5
159
330
70
100
AcDbEntity
  8
A-ALV-___-___-EXI
 62
    11
100
AcDbHatch
 10
0.0
 20
0.0
 30
0.0
210
0.0
220
0.0
230
1.0
  2
SOLID
 70
     1
 71
     0
 91
        1
 92
        1
 93
        6
 72
     1
 10
27124.34031913002
 20
-14752.15994407379
 11
27318.3690947323
 21
-14752.15994407379
 72
     1
 10
27318.3690947323
 20
-14752.15994407379
 11
27318.36909473229
 21
-14552.15994407379
 72
     1
 10
27318.36909473229
 20
-14552.15994407379
 11
26358.36909473229
 21
-14552.15994407379
 72
     1
 10
26358.36909473229
 20
-14552.15994407379
 11
26358.36909473229
 21
-14752.15994407379
 72
     1
 10
26358.36909473229
 20
-14752.15994407379
 11
26924.34031913001
 21
-14752.15994407378
 72
     1
 10
26924.34031913001
 20
-14752.15994407378
 11
27124.34031913002
 21
-14752.15994407379
 97
        0
 75
     0
 76
     1
 98
        1
 10
0.0
 20
0.0
450
        0
451
        0
460
0.0
461
0.0
452
        0
462
0.0
453
        0
470

1001
REVIT
1002
{
1070
     1
1000
22885004
1002
}
1002
{
1070
     5
1000
22554474
1002
}
1002
{
1070
     2
1000
-2000011
1002
}
1002
{
1070
     3
1000
-2000588
1002
}
  0
HATCH
  5
15E
330
70
100
AcDbEntity
  8
A-ALV-___-___-EXI
 62
    11
100
AcDbHatch
 10
0.0
 20
0.0
 30
0.0
210
0.0
220
0.0
230
1.0
  2
SOLID
 70
     1
 71
     0
 91
        1
 92
        1
 93
        4
 72
     1
 10
28104.34031913002
 20
-14752.15994407378
 11
28564.34031913001
 21
-14752.15994407378
 72
     1
 10
28564.34031913001
 20
-14752.15994407378
 11
28564.34031913001
 21
-14552.15994407379
 72
     1
 10
28564.34031913001
 20
-14552.15994407379
 11
28104.34031913001
 21
-14552.15994407379
 72
     1
 10
28104.34031913001
 20
-14552.15994407379
 11
28104.34031913002
 21
-14752.15994407378
 97
        0
 75
     0
 76
     1
 98
        1
 10
0.0
 20
0.0
450
        0
451
        0
460
0.0
461
0.0
452
        0
462
0.0
453
        0
470

1001
REVIT
1002
{
1070
     1
1000
22885265
1002
}
1002
{
1070
     5
1000
22554474
1002
}
1002
{
1070
     2
1000
-2000011
1002
}
1002
{
1070
     3
1000
-2000588
1002
}
  0
HATCH
  5
163
330
70
100
AcDbEntity
  8
A-ALV-___-___-EXI
 62
    11
100
AcDbHatch
 10
0.0
 20
0.0
 30
0.0
210
0.0
220
0.0
230
1.0
  2
SOLID
 70
     1
 71
     0
 91
        1
 92
        1
 93
        4
 72
     1
 10
28164.34031913001
 20
-20352.15994407379
 11
28564.34031913001
 21
-20352.15994407379
 72
     1
 10
28564.34031913001
 20
-20352.15994407379
 11
28564.34031913001
 21
-20152.15994407379
 72
     1
 10
28564.34031913001
 20
-20152.15994407379
 11
28164.34031913001
 21
-20152.15994407379
 72
     1
 10
28164.34031913001
 20
-20152.15994407379
 11
28164.34031913001
 21
-20352.15994407379
 97
        0
 75
     0
 76
     1
 98
        1
 10
0.0
 20
0.0
450
        0
451
        0
460
0.0
461
0.0
452
        0
462
0.0
453
        0
470

1001
REVIT
1002
{
1070
     1
1000
22885357
1002
}
1002
{
1070
     5
1000
22554474
1002
}
1002
{
1070
     2
1000
-2000011
1002
}
1002
{
1070
     3
1000
-2000588
1002
}
  0
HATCH
  5
168
330
70
100
AcDbEntity
  8
A-ALV-___-___-EXI
 62
    11
100
AcDbHatch
 10
0.0
 20
0.0
 30
0.0
210
0.0
220
0.0
230
1.0
  2
SOLID
 70
     1
 71
     0
 91
        1
 92
        1
 93
        4
 72
     1
 10
27364.34031913001
 20
-20352.15994407379
 11
27364.34031913001
 21
-20152.15994407379
 72
     1
 10
27364.34031913001
 20
-20152.15994407379
 11
26464.34031913001
 21
-20152.1599440738
 72
     1
 10
26464.34031913001
 20
-20152.1599440738
 11
26464.34031913001
 21
-20352.1599440738
 72
     1
 10
26464.34031913001
 20
-20352.1599440738
 11
27364.34031913001
 21
-20352.15994407379
 97
        0
 75
     0
 76
     1
 98
        1
 10
0.0
 20
0.0
450
        0
451
        0
460
0.0
461
0.0
452
        0
462
0.0
453
        0
470

1001
REVIT
1002
{
1070
     1
1000
22885469
1002
}
1002
{
1070
     5
1000
22554474
1002
}
1002
{
1070
     2
1000
-2000011
1002
}
1002
{
1070
     3
1000
-2000588
1002
}
  0
HATCH
  5
16D
330
70
100
AcDbEntity
  8
A-ALV-___-___-EXI
 62
    11
100
AcDbHatch
 10
0.0
 20
0.0
 30
0.0
210
0.0
220
0.0
230
1.0
  2
SOLID
 70
     1
 71
     0
 91
        1
 92
        1
 93
        4
 72
     1
 10
24808.36909473228
 20
-19012.15994407379
 11
24808.36909473229
 21
-11752.15994407379
 72
     1
 10
24808.36909473229
 20
-11752.15994407379
 11
24608.36909473229
 21
-11752.15994407379
 72
     1
 10
24608.36909473229
 20
-11752.15994407379
 11
24608.36909473228
 21
-19012.15994407379
 72
     1
 10
24608.36909473228
 20
-19012.15994407379
 11
24808.36909473228
 21
-19012.15994407379
 97
        0
 75
     0
 76
     1
 98
        1
 10
0.0
 20
0.0
450
        0
451
        0
460
0.0
461
0.0
452
        0
462
0.0
453
        0
470

1001
REVIT
1002
{
1070
     1
1000
22885694
1002
}
1002
{
1070
     5
1000
22554474
1002
}
1002
{
1070
     2
1000
-2000011
1002
}
1002
{
1070
     3
1000
-2000588
1002
}
  0
HATCH
  5
172
330
70
100
AcDbEntity
  8
A-ALV-___-___-EXI
 62
    11
100
AcDbHatch
 10
0.0
 20
0.0
 30
0.0
210
0.0
220
0.0
230
1.0
  2
SOLID
 70
     1
 71
     0
 91
        1
 92
        1
 93
        4
 72
     1
 10
24608.36909473228
 20
-22852.15994407381
 11
24808.36909473228
 21
-22852.15994407381
 72
     1
 10
24808.36909473228
 20
-22852.15994407381
 11
24808.36909473229
 21
-19732.15994407381
 72
     1
 10
24808.36909473229
 20
-19732.15994407381
 11
24608.36909473229
 21
-19732.15994407381
 72
     1
 10
24608.36909473229
 20
-19732.15994407381
 11
24608.36909473228
 21
-22852.15994407381
 97
        0
 75
     0
 76
     1
 98
        1
 10
0.0
 20
0.0
450
        0
451
        0
460
0.0
461
0.0
452
        0
462
0.0
453
        0
470

1001
REVIT
1002
{
1070
     1
1000
22885836
1002
}
1002
{
1070
     5
1000
22554474
1002
}
1002
{
1070
     2
1000
-2000011
1002
}
1002
{
1070
     3
1000
-2000588
1002
}
  0
HATCH
  5
177
330
70
100
AcDbEntity
  8
A-ALV-___-___-EXI
 62
    11
100
AcDbHatch
 10
0.0
 20
0.0
 30
0.0
210
0.0
220
0.0
230
1.0
  2
SOLID
 70
     1
 71
     0
 91
        1
 92
        1
 93
        4
 72
     1
 10
25042.04813442068
 20
-24952.15994407381
 11
25042.04813442068
 21
-24752.1599440738
 72
     1
 10
25042.04813442068
 20
-24752.1599440738
 11
23724.34031912999
 21
-24752.15994407381
 72
     1
 10
23724.34031912999
 20
-24752.15994407381
 11
23724.34031912999
 21
-24952.15994407381
 72
     1
 10
23724.34031912999
 20
-24952.15994407381
 11
25042.04813442068
 21
-24952.15994407381
 97
        0
 75
     0
 76
     1
 98
        1
 10
0.0
 20
0.0
450
        0
451
        0
460
0.0
461
0.0
452
        0
462
0.0
453
        0
470

1001
REVIT
1002
{
1070
     1
1000
22885913
1002
}
1002
{
1070
     5
1000
22554474
1002
}
1002
{
1070
     2
1000
-2000011
1002
}
1002
{
1070
     3
1000
-2000588
1002
}
  0
HATCH
  5
17C
330
70
100
AcDbEntity
  8
A-ALV-___-___-EXI
 62
    11
100
AcDbHatch
 10
0.0
 20
0.0
 30
0.0
210
0.0
220
0.0
230
1.0
  2
SOLID
 70
     1
 71
     0
 91
        1
 92
        1
 93
        4
 72
     1
 10
25942.04813442068
 20
-24952.15994407381
 11
27204.34031913
 21
-24952.15994407381
 72
     1
 10
27204.34031913
 20
-24952.15994407381
 11
27204.34031913
 21
-24752.15994407381
 72
     1
 10
27204.34031913
 20
-24752.15994407381
 11
25942.04813442068
 21
-24752.1599440738
 72
     1
 10
25942.04813442068
 20
-24752.1599440738
 11
25942.04813442068
 21
-24952.15994407381
 97
        0
 75
     0
 76
     1
 98
        1
 10
0.0
 20
0.0
450
        0
451
        0
460
0.0
461
0.0
452
        0
462
0.0
453
        0
470

1001
REVIT
1002
{
1070
     1
1000
22886072
1002
}
1002
{
1070
     5
1000
22554474
1002
}
1002
{
1070
     2
1000
-2000011
1002
}
1002
{
1070
     3
1000
-2000588
1002
}
  0
HATCH
  5
181
330
70
100
AcDbEntity
  8
A-ALV-___-___-EXI
 62
    11
100
AcDbHatch
 10
0.0
 20
0.0
 30
0.0
210
0.0
220
0.0
230
1.0
  2
SOLID
 70
     1
 71
     0
 91
        1
 92
        1
 93
        4
 72
     1
 10
24568.3690947323
 20
-17402.15994407379
 11
24608.36909473229
 21
-17402.15994407379
 72
     1
 10
24608.36909473229
 20
-17402.15994407379
 11
24608.3690947323
 21
-17202.1599440738
 72
     1
 10
24608.3690947323
 20
-17202.1599440738
 11
24568.3690947323
 21
-17202.1599440738
 72
     1
 10
24568.3690947323
 20
-17202.1599440738
 11
24568.3690947323
 21
-17402.15994407379
 97
        0
 75
     0
 76
     1
 98
        1
 10
0.0
 20
0.0
450
        0
451
        0
460
0.0
461
0.0
452
        0
462
0.0
453
        0
470

1001
REVIT
1002
{
1070
     1
1000
22887980
1002
}
1002
{
1070
     5
1000
22554474
1002
}
1002
{
1070
     2
1000
-2000011
1002
}
1002
{
1070
     3
1000
-2000588
1002
}
  0
HATCH
  5
186
330
70
100
AcDbEntity
  8
A-ALV-___-___-EXI
 62
    11
100
AcDbHatch
 10
0.0
 20
0.0
 30
0.0
210
0.0
220
0.0
230
1.0
  2
SOLID
 70
     1
 71
     0
 91
        1
 92
        1
 93
        4
 72
     1
 10
27870.82248435658
 20
-4877.15994407377
 11
27870.82248435658
 21
-4677.159944073768
 72
     1
 10
27870.82248435658
 20
-4677.159944073768
 11
27630.82248435658
 21
-4677.15994407377
 72
     1
 10
27630.82248435658
 20
-4677.15994407377
 11
27630.82248435658
 21
-4877.15994407377
 72
     1
 10
27630.82248435658
 20
-4877.15994407377
 11
27870.82248435658
 21
-4877.15994407377
 97
        0
 75
     0
 76
     1
 98
        1
 10
0.0
 20
0.0
450
        0
451
        0
460
0.0
461
0.0
452
        0
462
0.0
453
        0
470

1001
REVIT
1002
{
1070
     1
1000
22888915
1002
}
1002
{
1070
     5
1000
22554474
1002
}
1002
{
1070
     2
1000
-2000011
1002
}
1002
{
1070
     3
1000
-2000588
1002
}
  0
HATCH
  5
18B
330
70
100
AcDbEntity
  8
A-ALV-___-___-EXI
 62
    11
100
AcDbHatch
 10
0.0
 20
0.0
 30
0.0
210
0.0
220
0.0
230
1.0
  2
SOLID
 70
     1
 71
     0
 91
        1
 92
        1
 93
        4
 72
     1
 10
26904.34031913003
 20
-4877.159944073778
 11
26954.34031913003
 21
-4877.159944073774
 72
     1
 10
26954.34031913003
 20
-4877.159944073774
 11
26954.34031913003
 21
-4677.159944073773
 72
     1
 10
26954.34031913003
 20
-4677.159944073773
 11
26904.34031913004
 21
-4677.159944073773
 72
     1
 10
26904.34031913004
 20
-4677.159944073773
 11
26904.34031913003
 21
-4877.159944073778
 97
        0
 75
     0
 76
     1
 98
        1
 10
0.0
 20
0.0
450
        0
451
        0
460
0.0
461
0.0
452
        0
462
0.0
453
        0
470

1001
REVIT
1002
{
1070
     1
1000
22888953
1002
}
1002
{
1070
     5
1000
22554474
1002
}
1002
{
1070
     2
1000
-2000011
1002
}
1002
{
1070
     3
1000
-2000588
1002
}
  0
HATCH
  5
190
330
70
100
AcDbEntity
  8
A-ALV-___-___-EXI
 62
    11
100
AcDbHatch
 10
0.0
 20
0.0
 30
0.0
210
0.0
220
0.0
230
1.0
  2
SOLID
 70
     1
 71
     0
 91
        1
 92
        1
 93
        4
 72
     1
 10
27630.82248435658
 20
-6702.159944073772
 11
28564.34031913003
 21
-6702.159944073774
 72
     1
 10
28564.34031913003
 20
-6702.159944073774
 11
28564.34031913003
 21
-6502.159944073773
 72
     1
 10
28564.34031913003
 20
-6502.159944073773
 11
27630.82248435658
 21
-6502.159944073773
 72
     1
 10
27630.82248435658
 20
-6502.159944073773
 11
27630.82248435658
 21
-6702.159944073772
 97
        0
 75
     0
 76
     1
 98
        1
 10
0.0
 20
0.0
450
        0
451
        0
460
0.0
461
0.0
452
        0
462
0.0
453
        0
470

1001
REVIT
1002
{
1070
     1
1000
22897063
1002
}
1002
{
1070
     5
1000
22554474
1002
}
1002
{
1070
     2
1000
-2000011
1002
}
1002
{
1070
     3
1000
-2000588
1002
}
  0
LINE
  5
1EF
330
70
100
AcDbEntity
  8
A-ESC-___-___-EXI
100
AcDbLine
 10
27870.82248435659
 20
-5565.274434530159
 30
0.0
 11
28564.34031913004
 21
-5565.274434530154
 31
0.0
1001
REVIT
1002
{
1070
     1
1000
22883316
1002
}
1002
{
1070
     5
1000
141734
1002
}
1002
{
1070
     2
1000
-2000120
1002
}
1002
{
1070
     3
1000
-2000934
1002
}
  0
LINE
  5
297
330
70
100
AcDbEntity
  8
A-POR-___-___-EXI
100
AcDbLine
 10
24758.36909473231
 20
-19732.15994407376
 30
0.0
 11
25171.7061208342
 21
-19070.68242907175
 31
0.0
1001
REVIT
1002
{
1070
     1
1000
23025295
1002
}
1002
{
1070
     2
1000
-2000051
1002
}
1002
{
1070
     3
1000
-2000042
1002
}
  0
LINE
  5
29E
330
70
100
AcDbEntity
  8
A-POR-___-___-EXI
100
AcDbLine
 10
25864.34031913003
 20
-9112.159944073747
 30
0.0
 11
26437.74675013232
 21
-8710.656438628014
 31
0.0
1001
REVIT
1002
{
1070
     1
1000
23025302
1002
}
1002
{
1070
     2
1000
-2000051
1002
}
1002
{
1070
     3
1000
-2000042
1002
}
  0
LINE
  5
2A1
330
70
100
AcDbEntity
  8
A-POR-___-___-EXI
100
AcDbLine
 10
26704.34031913005
 20
-5182.159944073751
 30
0.0
 11
26280.07625041812
 21
-5606.424012785683
 31
0.0
1001
REVIT
1002
{
1070
     1
1000
23025305
1002
}
1002
{
1070
     2
1000
-2000051
1002
}
1002
{
1070
     3
1000
-2000042
1002
}
  0
LINE
  5
2A5
330
70
100
AcDbEntity
  8
A-ESC-___-___-EXI
100
AcDbLine
 10
23568.3690947323
 20
-18136.75994407376
 30
0.0
 11
23568.3690947323
 21
-17377.15994407376
 31
0.0
1001
REVIT
1002
{
1070
     1
1000
23025308
1002
}
1002
{
1070
     2
1000
-2000051
1002
}
1002
{
1070
     3
1000
-2000284
1002
}
  0
LINE
  5
2A6
330
70
100
AcDbEntity
  8
A-ESC-___-___-EXI
100
AcDbLine
 10
27630.82248435658
 20
-4852.159944073753
 30
0.0
 11
26954.34031913004
 21
-4852.159944073751
 31
0.0
1001
REVIT
1002
{
1070
     1
1000
23025309
1002
}
1002
{
1070
     2
1000
-2000051
1002
}
1002
{
1070
     3
1000
-2000284
1002
}
  0
LWPOLYLINE
  5
2E2
330
70
100
AcDbEntity
  8
A-JAN-___-___-EXI
100
AcDbPolyline
 90
        3
 70
     0
 43
0.0
 10
26464.34031913004
 20
-32.1599440737506
 10
26983.95556140071
 20
-332.1599440737486
 10
27484.34031913004
 20
-32.15994407374879
1001
REVIT
1002
{
1070
     1
1000
23025307
1002
}
1002
{
1070
     2
1000
-2000051
1002
}
1002
{
1070
     3
1000
-2000042
1002
}
  0
LWPOLYLINE
  5
2E3
330
70
100
AcDbEntity
  8
A-JAN-___-___-EXI
100
AcDbPolyline
 90
        3
 70
     0
 43
0.0
 10
25364.34031913007
 20
-8512.159944073749
 10
25719.95770966772
 20
-8004.285676614573
 10
25364.34031913007
 20
-7452.159944073753
1001
REVIT
1002
{
1070
     1
1000
23025304
1002
}
1002
{
1070
     2
1000
-2000051
1002
}
1002
{
1070
     3
1000
-2000042
1002
}
  0
LWPOLYLINE
  5
2E4
330
70
100
AcDbEntity
  8
A-POR-___-___-EXI
100
AcDbPolyline
 90
        3
 70
     0
 43
0.0
 10
27318.3690947323
 20
-14752.15994407375
 10
27734.06128854885
 20
-14992.15994407376
 10
28104.34031913002
 20
-14752.15994407376
1001
REVIT
1002
{
1070
     1
1000
23025301
1002
}
1002
{
1070
     2
1000
-2000051
1002
}
1002
{
1070
     3
1000
-2000042
1002
}
  0
LWPOLYLINE
  5
2E5
330
70
100
AcDbEntity
  8
A-POR-___-___-EXI
100
AcDbPolyline
 90
        3
 70
     0
 43
0.0
 10
25458.3690947323
 20
-14752.15994407375
 10
25874.06128854884
 20
-14992.15994407375
 10
26358.36909473231
 20
-14752.15994407375
1001
REVIT
1002
{
1070
     1
1000
23025299
1002
}
1002
{
1070
     2
1000
-2000051
1002
}
1002
{
1070
     3
1000
-2000042
1002
}
  0
LWPOLYLINE
  5
2E6
330
70
100
AcDbEntity
  8
A-POR-___-___-EXI
100
AcDbPolyline
 90
        3
 70
     0
 43
0.0
 10
23668.36909473231
 20
-17227.15994407376
 10
24187.98433700296
 20
-16927.15994407376
 10
24568.36909473231
 20
-17227.15994407376
1001
REVIT
1002
{
1070
     1
1000
23025297
1002
}
1002
{
1070
     2
1000
-2000051
1002
}
1002
{
1070
     3
1000
-2000042
1002
}
  0
LWPOLYLINE
  5
2E7
330
70
100
AcDbEntity
  8
A-POR-___-___-EXI
100
AcDbPolyline
 90
        3
 70
     0
 43
0.0
 10
26464.34031913003
 20
-20152.15994407377
 10
26040.31627105181
 20
-19887.20031195716
 10
25458.3690947323
 20
-20152.15994407375
1001
REVIT
1002
{
1070
     1
1000
23025294
1002
}
1002
{
1070
     2
1000
-2000051
1002
}
1002
{
1070
     3
1000
-2000042
1002
}
  0
LWPOLYLINE
  5
2E8
330
70
100
AcDbEntity
  8
A-POR-___-___-EXI
100
AcDbPolyline
 90
        3
 70
     0
 43
0.0
 10
27364.34031913002
 20
-20152.15994407375
 10
27780.03251294656
 20
-19912.15994407376
 10
28164.34031913002
 20
-20152.15994407376
1001
REVIT
1002
{
1070
     1
1000
23025292
1002
}
1002
{
1070
     2
1000
-2000051
1002
}
1002
{
1070
     3
1000
-2000042
1002
}
  0
LWPOLYLINE
  5
2E9
330
70
100
AcDbEntity
  8
A-JAN-___-___-EXI
100
AcDbPolyline
 90
        3
 70
     0
 43
0.0
 10
27204.34031913002
 20
-24752.15994407376
 10
27689.31454524929
 20
-24472.15994407376
 10
28004.34031913002
 20
-24752.15994407376
1001
REVIT
1002
{
1070
     1
1000
23025290
1002
}
1002
{
1070
     2
1000
-2000051
1002
}
1002
{
1070
     3
1000
-2000042
1002
}
  0
LWPOLYLINE
  5
2EA
330
70
100
AcDbEntity
  8
A-JAN-___-___-EXI
100
AcDbPolyline
 90
        3
 70
     0
 43
0.0
 10
25042.04813442069
 20
-24752.15994407376
 10
25499.04548732784
 20
-24504.06032812113
 10
25917.13051609492
 20
-24752.15994407376
1001
REVIT
1002
{
1070
     1
1000
23025288
1002
}
1002
{
1070
     2
1000
-2000051
1002
}
1002
{
1070
     3
1000
-2000042
1002
}
  0
LWPOLYLINE
  5
2EB
330
70
100
AcDbEntity
  8
A-POR-___-___-EXI
100
AcDbPolyline
 90
        3
 70
     0
 43
0.0
 10
24758.36909473229
 20
-23752.15994407377
 10
25013.53324731205
 20
-23322.1701125216
 10
24758.3690947323
 20
-22852.15994407377
1001
REVIT
1002
{
1070
     1
1000
23025286
1002
}
1002
{
1070
     2
1000
-2000051
1002
}
1002
{
1070
     3
1000
-2000042
1002
}
  0
LWPOLYLINE
  5
2EC
330
70
100
AcDbEntity
  8
A-JAN-___-___-EXI
100
AcDbPolyline
 90
        3
 70
     0
 43
0.0
 10
22724.34031913001
 20
-24752.15994407377
 10
23183.06546393184
 20
-24430.95713971718
 10
23724.34031913001
 20
-24752.15994407376
1001
REVIT
1002
{
1070
     1
1000
23025284
1002
}
1002
{
1070
     2
1000
-2000051
1002
}
1002
{
1070
     3
1000
-2000042
1002
}
  0
LWPOLYLINE
  5
2ED
330
70
100
AcDbEntity
  8
A-ALV-___-___-EXI
 62
     7
370
    35
100
AcDbPolyline
 90
        6
 70
     1
 43
0.0
 10
22024.34031913
 20
-24952.15994407377
 10
28764.34031913002
 20
-24952.15994407377
 10
28764.34031913004
 20
167.8400559262492
 10
25164.34031913004
 20
167.8400559262493
 10
25164.34031913006
 20
-9112.159944073749
 10
22024.34031913003
 20
-9112.159944073754
1001
REVIT
1002
{
1070
     1
1000
22886437
1002
}
1002
{
1070
     5
1000
22554474
1002
}
1002
{
1070
     2
1000
-2000011
1002
}
  0
LWPOLYLINE
  5
2EE
330
70
100
AcDbEntity
  8
A-ALV-___-___-EXI
 62
     7
370
    35
100
AcDbPolyline
 90
        6
 70
     1
 43
0.0
 10
28564.34031913001
 20
-24012.15994407377
 10
28264.34031913001
 20
-24012.15994407377
 10
28264.34031913002
 20
-24752.15994407376
 10
24808.36909473229
 20
-24752.15994407377
 10
24808.3690947323
 20
-20352.15994407376
 10
28564.34031913003
 20
-20352.15994407375
1001
REVIT
1002
{
1070
     1
1000
22886072
1002
}
1002
{
1070
     5
1000
22554474
1002
}
1002
{
1070
     2
1000
-2000011
1002
}
  0
LWPOLYLINE
  5
2EF
330
70
100
AcDbEntity
  8
A-ALV-___-___-EXI
 62
     7
370
    35
100
AcDbPolyline
 90
        8
 70
     1
 43
0.0
 10
26924.34031913002
 20
-17712.15994407377
 10
26924.34031913002
 20
-20152.15994407377
 10
24808.3690947323
 20
-20152.15994407376
 10
24808.3690947323
 20
-14752.15994407375
 10
26924.34031913002
 20
-14752.15994407375
 10
26924.34031913003
 20
-17377.15994407376
 10
26899.34031913002
 20
-17377.15994407376
 10
26899.34031913002
 20
-17712.15994407377
1001
REVIT
1002
{
1070
     1
1000
22885694
1002
}
1002
{
1070
     5
1000
22554474
1002
}
1002
{
1070
     2
1000
-2000011
1002
}
  0
LWPOLYLINE
  5
2F0
330
70
100
AcDbEntity
  8
A-ALV-___-___-EXI
 62
     7
370
    35
100
AcDbPolyline
 90
        4
 70
     1
 43
0.0
 10
25364.34031913003
 20
-6502.159944073752
 10
25364.34031913004
 20
-3677.159944073753
 10
26704.34031913005
 20
-3677.159944073751
 10
26704.34031913005
 20
-6502.159944073754
1001
REVIT
1002
{
1070
     1
1000
22884524
1002
}
1002
{
1070
     5
1000
22554474
1002
}
1002
{
1070
     2
1000
-2000011
1002
}
  0
LWPOLYLINE
  5
2F1
330
70
100
AcDbEntity
  8
A-ESC-___-___-EXI
100
AcDbPolyline
 90
        2
 70
     1
 43
0.0
 10
22224.34031913001
 20
-20437.15994407377
 10
23092.71255519956
 20
-20437.15994407376
1001
REVIT
1002
{
1070
     1
1000
22883739
1002
}
1002
{
1070
     5
1000
141734
1002
}
1002
{
1070
     2
1000
-2000120
1002
}
1002
{
1070
     3
1000
-2000932
1002
}
  0
LWPOLYLINE
  5
2F2
330
70
100
AcDbEntity
  8
A-ESC-___-___-EXI
100
AcDbPolyline
 90
        2
 70
     1
 43
0.0
 10
22224.34031913001
 20
-20187.15994407377
 10
23092.71255519956
 20
-20187.15994407376
1001
REVIT
1002
{
1070
     1
1000
22883739
1002
}
1002
{
1070
     5
1000
141734
1002
}
1002
{
1070
     2
1000
-2000120
1002
}
1002
{
1070
     3
1000
-2000932
1002
}
  0
LWPOLYLINE
  5
2F3
330
70
100
AcDbEntity
  8
A-ESC-___-___-EXI
100
AcDbPolyline
 90
        2
 70
     1
 43
0.0
 10
22224.34031913002
 20
-19937.15994407376
 10
23092.71255519957
 20
-19937.15994407376
1001
REVIT
1002
{
1070
     1
1000
22883739
1002
}
1002
{
1070
     5
1000
141734
1002
}
1002
{
1070
     2
1000
-2000120
1002
}
1002
{
1070
     3
1000
-2000932
1002
}
  0
LWPOLYLINE
  5
2F4
330
70
100
AcDbEntity
  8
A-ESC-___-___-EXI
100
AcDbPolyline
 90
        2
 70
     1
 43
0.0
 10
22224.34031913002
 20
-19687.15994407377
 10
23092.71255519957
 20
-19687.15994407376
1001
REVIT
1002
{
1070
     1
1000
22883739
1002
}
1002
{
1070
     5
1000
141734
1002
}
1002
{
1070
     2
1000
-2000120
1002
}
1002
{
1070
     3
1000
-2000932
1002
}
  0
LWPOLYLINE
  5
2F5
330
70
100
AcDbEntity
  8
A-ESC-___-___-EXI
100
AcDbPolyline
 90
        4
 70
     1
 43
0.0
 10
22224.34031913001
 20
-19437.15994407376
 10
22558.07661453612
 20
-19437.15994407376
 10
22658.52643716478
 20
-19437.15994407376
 10
22558.07661453612
 20
-19437.15994407376
1001
REVIT
1002
{
1070
     1
1000
22883739
1002
}
1002
{
1070
     5
1000
141734
1002
}
1002
{
1070
     2
1000
-2000120
1002
}
1002
{
1070
     3
1000
-2000932
1002
}
  0
LWPOLYLINE
  5
2F6
330
70
100
AcDbEntity
  8
A-ESC-___-___-EXI
100
AcDbPolyline
 90
        4
 70
     1
 43
0.0
 10
22658.52643716478
 20
-19437.15994407376
 10
22758.97625979345
 20
-19437.15994407376
 10
23092.71255519956
 20
-19437.15994407376
 10
22758.97625979345
 20
-19437.15994407376
1001
REVIT
1002
{
1070
     1
1000
22883739
1002
}
1002
{
1070
     5
1000
141734
1002
}
1002
{
1070
     2
1000
-2000120
1002
}
1002
{
1070
     3
1000
-2000932
1002
}
  0
LWPOLYLINE
  5
2F7
330
70
100
AcDbEntity
  8
A-ESC-___-___-EXI
100
AcDbPolyline
 90
        2
 70
     1
 43
0.0
 10
22224.34031913001
 20
-19187.15994407376
 10
23092.71255519956
 20
-19187.15994407376
1001
REVIT
1002
{
1070
     1
1000
22883739
1002
}
1002
{
1070
     5
1000
141734
1002
}
1002
{
1070
     2
1000
-2000120
1002
}
1002
{
1070
     3
1000
-2000933
1002
}
  0
LWPOLYLINE
  5
2F8
330
70
100
AcDbEntity
  8
A-ESC-___-___-EXI
100
AcDbPolyline
 90
        2
 70
     1
 43
0.0
 10
22224.34031913001
 20
-18937.15994407376
 10
23092.71255519956
 20
-18937.15994407376
1001
REVIT
1002
{
1070
     1
1000
22883739
1002
}
1002
{
1070
     5
1000
141734
1002
}
1002
{
1070
     2
1000
-2000120
1002
}
1002
{
1070
     3
1000
-2000933
1002
}
  0
LWPOLYLINE
  5
2F9
330
70
100
AcDbEntity
  8
A-ESC-___-___-EXI
100
AcDbPolyline
 90
        2
 70
     1
 43
0.0
 10
22224.34031913001
 20
-18687.15994407376
 10
23092.71255519956
 20
-18687.15994407376
1001
REVIT
1002
{
1070
     1
1000
22883739
1002
}
1002
{
1070
     5
1000
141734
1002
}
1002
{
1070
     2
1000
-2000120
1002
}
1002
{
1070
     3
1000
-2000933
1002
}
  0
LWPOLYLINE
  5
2FA
330
70
100
AcDbEntity
  8
A-ESC-___-___-EXI
100
AcDbPolyline
 90
        2
 70
     1
 43
0.0
 10
22224.34031913002
 20
-18437.15994407376
 10
23092.71255519957
 20
-18437.15994407376
1001
REVIT
1002
{
1070
     1
1000
22883739
1002
}
1002
{
1070
     5
1000
141734
1002
}
1002
{
1070
     2
1000
-2000120
1002
}
1002
{
1070
     3
1000
-2000933
1002
}
  0
LWPOLYLINE
  5
2FD
330
70
100
AcDbEntity
  8
A-ESC-___-___-EXI
  6
Continuous
100
AcDbPolyline
 90
        6
 70
     0
 43
0.0
 10
23092.71255519956
 20
-19234.69563216955
 10
22771.81491054436
 20
-19384.33266135617
 10
22724.56054056177
 20
-19578.77053579823
 10
22592.4923337678
 20
-19295.54935234929
 10
22545.2379637852
 20
-19489.98722679134
 10
22224.34031913002
 20
-19639.62425597797
1001
REVIT
1002
{
1070
     1
1000
22883739
1002
}
1002
{
1070
     5
1000
141734
1002
}
1002
{
1070
     2
1000
-2000120
1002
}
1002
{
1070
     3
1000
-2000930
1002
}
  0
LWPOLYLINE
  5
2FE
330
70
100
AcDbEntity
  8
A-ESC-___-___-EXI
100
AcDbPolyline
 90
        2
 70
     1
 43
0.0
 10
28564.34031913003
 20
-3665.274434530154
 10
27870.82248435659
 20
-3665.274434530157
1001
REVIT
1002
{
1070
     1
1000
22883316
1002
}
1002
{
1070
     5
1000
141734
1002
}
1002
{
1070
     2
1000
-2000120
1002
}
1002
{
1070
     3
1000
-2000932
1002
}
  0
LWPOLYLINE
  5
2FF
330
70
100
AcDbEntity
  8
A-ESC-___-___-EXI
100
AcDbPolyline
 90
        2
 70
     1
 43
0.0
 10
28564.34031913003
 20
-3915.274434530153
 10
27870.82248435659
 20
-3915.274434530156
1001
REVIT
1002
{
1070
     1
1000
22883316
1002
}
1002
{
1070
     5
1000
141734
1002
}
1002
{
1070
     2
1000
-2000120
1002
}
1002
{
1070
     3
1000
-2000932
1002
}
  0
LWPOLYLINE
  5
300
330
70
100
AcDbEntity
  8
A-ESC-___-___-EXI
100
AcDbPolyline
 90
        2
 70
     1
 43
0.0
 10
28564.34031913003
 20
-4165.274434530154
 10
27870.82248435659
 20
-4165.274434530156
1001
REVIT
1002
{
1070
     1
1000
22883316
1002
}
1002
{
1070
     5
1000
141734
1002
}
1002
{
1070
     2
1000
-2000120
1002
}
1002
{
1070
     3
1000
-2000932
1002
}
  0
LWPOLYLINE
  5
301
330
70
100
AcDbEntity
  8
A-ESC-___-___-EXI
  6
Projeção
100
AcDbPolyline
 90
       12
 70
     0
 43
0.0
 10
27870.82248435658
 20
-4677.159944073747
 10
27870.82248435659
 20
-4665.274434530154
 10
28564.34031913003
 20
-4665.274434530153
 10
27870.82248435659
 20
-4665.274434530154
 10
27870.82248435659
 20
-4415.274434530156
 10
27870.82248435659
 20
-4165.274434530156
 10
27870.82248435659
 20
-3915.274434530156
 10
27870.82248435659
 20
-3665.274434530157
 10
27870.82248435659
 20
-3415.274434530153
 10
27870.82248435659
 20
-3165.274434530154
 10
28564.34031913003
 20
-3165.274434530152
 10
27870.82248435659
 20
-3165.274434530154
1001
REVIT
1002
{
1070
     1
1000
22883316
1002
}
1002
{
1070
     5
1000
141734
1002
}
1002
{
1070
     2
1000
-2000120
1002
}
1002
{
1070
     3
1000
-2000936
1002
}
  0
LWPOLYLINE
  5
302
330
70
100
AcDbEntity
  8
A-ALV-___-___-EXI
 62
     7
370
    35
100
AcDbPolyline
 90
       12
 70
     1
 43
0.0
 10
27124.34031913003
 20
-17377.15994407376
 10
27124.34031913002
 20
-14752.15994407375
 10
28564.34031913003
 20
-14752.15994407375
 10
28564.34031913003
 20
-16872.15994407377
 10
28264.34031913002
 20
-16872.15994407377
 10
28264.34031913002
 20
-17712.15994407376
 10
28564.34031913003
 20
-17712.15994407376
 10
28564.34031913003
 20
-20152.15994407376
 10
27124.34031913002
 20
-20152.15994407377
 10
27124.34031913002
 20
-17712.15994407377
 10
27199.34031913002
 20
-17712.15994407377
 10
27199.34031913003
 20
-17377.15994407376
1001
REVIT
1002
{
1070
     1
1000
22882713
1002
}
1002
{
1070
     5
1000
22476260
1002
}
1002
{
1070
     2
1000
-2000011
1002
}
  0
LWPOLYLINE
  5
303
330
70
100
AcDbEntity
  8
A-ALV-___-___-EXI
 62
     7
370
    35
100
AcDbPolyline
 90
       14
 70
     1
 43
0.0
 10
24808.3690947323
 20
-14552.15994407376
 10
24808.3690947323
 20
-11752.15994407376
 10
24608.36909473231
 20
-11752.15994407376
 10
24608.36909473231
 20
-17202.15994407376
 10
22524.34031913002
 20
-17202.15994407376
 10
22524.34031913001
 20
-16912.15994407375
 10
22224.34031913001
 20
-16912.15994407375
 10
22224.34031913003
 20
-10012.15994407375
 10
22624.34031913004
 20
-10012.15994407375
 10
22624.34031913003
 20
-9312.15994407376
 10
28324.34031913003
 20
-9312.159944073744
 10
28324.34031913004
 20
-10052.15994407376
 10
28564.34031913003
 20
-10052.15994407376
 10
28564.34031913003
 20
-14552.15994407375
1001
REVIT
1002
{
1070
     1
1000
22881732
1002
}
1002
{
1070
     5
1000
22882467
1002
}
1002
{
1070
     2
1000
-2000011
1002
}
  0
LWPOLYLINE
  5
304
330
70
100
AcDbEntity
  8
A-ALV-___-___-EXI
 62
     7
370
    35
100
AcDbPolyline
 90
       22
 70
     1
 43
0.0
 10
26954.34031913005
 20
-6702.15994407375
 10
26954.34031913005
 20
-6502.159944073753
 10
26904.34031913005
 20
-6502.159944073754
 10
26904.34031913005
 20
-4877.159944073755
 10
26954.34031913004
 20
-4877.159944073753
 10
26954.34031913004
 20
-4677.159944073753
 10
26904.34031913005
 20
-4677.159944073753
 10
26904.34031913005
 20
-3477.159944073751
 10
25364.34031913004
 20
-3477.159944073751
 10
25364.34031913004
 20
-612.159944073755
 10
25764.34031913005
 20
-612.159944073752
 10
25764.34031913004
 20
-32.15994407374968
 10
28164.34031913005
 20
-32.15994407374758
 10
28164.34031913005
 20
-652.1599440737669
 10
28564.34031913005
 20
-652.1599440737684
 10
28564.34031913003
 20
-6502.15994407375
 10
27630.82248435659
 20
-6502.159944073752
 10
27630.82248435659
 20
-6702.159944073755
 10
28564.34031913003
 20
-6702.159944073753
 10
28564.34031913003
 20
-9112.159944073743
 10
25364.34031913007
 20
-9112.159944073749
 10
25364.34031913003
 20
-6702.15994407375
1001
REVIT
1002
{
1070
     1
1000
22881517
1002
}
1002
{
1070
     5
1000
22882467
1002
}
1002
{
1070
     2
1000
-2000011
1002
}
  0
LWPOLYLINE
  5
305
330
70
100
AcDbEntity
  8
A-ESC-___-___-EXI
100
AcDbPolyline
 90
        2
 70
     1
 43
0.0
 10
28564.34031913003
 20
-3415.274434530156
 10
27870.82248435659
 20
-3415.274434530153
1001
REVIT
1002
{
1070
     1
1000
22883316
1002
}
1002
{
1070
     5
1000
141734
1002
}
1002
{
1070
     2
1000
-2000120
1002
}
1002
{
1070
     3
1000
-2000932
1002
}
  0
LWPOLYLINE
  5
306
330
70
100
AcDbEntity
  8
A-ESC-___-___-EXI
100
AcDbPolyline
 90
        2
 70
     1
 43
0.0
 10
28564.34031913003
 20
-4415.274434530154
 10
27870.82248435659
 20
-4415.274434530156
1001
REVIT
1002
{
1070
     1
1000
22883316
1002
}
1002
{
1070
     5
1000
141734
1002
}
1002
{
1070
     2
1000
-2000120
1002
}
1002
{
1070
     3
1000
-2000932
1002
}
  0
LINE
  5
31A
330
70
100
AcDbEntity
  8
A-ALV-___-___-EXI
100
AcDbLine
 10
22224.34031913001
 20
-19187.15994407376
 30
0.0
 11
22224.34031913002
 21
-18187.15994407376
 31
0.0
1001
REVIT
1002
{
1070
     1
1000
22883739
1002
}
1002
{
1070
     5
1000
141734
1002
}
1002
{
1070
     2
1000
-2000120
1002
}
1002
{
1070
     3
1000
-2000937
1002
}
  0
LINE
  5
31B
330
70
100
AcDbEntity
  8
A-ESC-___-___-EXI
100
AcDbLine
 10
22224.34031913002
 20
-18187.15994407376
 30
0.0
 11
23092.71255519957
 21
-18187.15994407376
 31
0.0
1001
REVIT
1002
{
1070
     1
1000
22883739
1002
}
1002
{
1070
     5
1000
141734
1002
}
1002
{
1070
     2
1000
-2000120
1002
}
1002
{
1070
     3
1000
-2000937
1002
}
  0
LINE
  5
31C
330
70
100
AcDbEntity
  8
A-ESC-___-___-EXI
100
AcDbLine
 10
23092.71255519957
 20
-18187.15994407376
 30
0.0
 11
24608.3690947323
 21
-18187.15994407376
 31
0.0
1001
REVIT
1002
{
1070
     1
1000
22883739
1002
}
1002
{
1070
     5
1000
141734
1002
}
1002
{
1070
     2
1000
-2000120
1002
}
1002
{
1070
     3
1000
-2000937
1002
}
  0
LINE
  5
31D
330
70
100
AcDbEntity
  8
A-ALV-___-___-EXI
100
AcDbLine
 10
24608.3690947323
 20
-18187.15994407376
 30
0.0
 11
24608.3690947323
 21
-17377.15994407376
 31
0.0
1001
REVIT
1002
{
1070
     1
1000
22883739
1002
}
1002
{
1070
     5
1000
141734
1002
}
1002
{
1070
     2
1000
-2000120
1002
}
1002
{
1070
     3
1000
-2000937
1002
}
  0
LINE
  5
31F
330
70
100
AcDbEntity
  8
A-ALV-___-___-EXI
100
AcDbLine
 10
22524.34031913002
 20
-17377.15994407376
 30
0.0
 11
22524.34031913001
 21
-17692.15994407376
 31
0.0
1001
REVIT
1002
{
1070
     1
1000
22883739
1002
}
1002
{
1070
     5
1000
141734
1002
}
1002
{
1070
     2
1000
-2000120
1002
}
1002
{
1070
     3
1000
-2000937
1002
}
  0
LINE
  5
320
330
70
100
AcDbEntity
  8
A-ALV-___-___-EXI
100
AcDbLine
 10
22524.34031913001
 20
-17692.15994407376
 30
0.0
 11
22524.34031913002
 21
-17402.15994407375
 31
0.0
1001
REVIT
1002
{
1070
     1
1000
22883739
1002
}
1002
{
1070
     5
1000
141734
1002
}
1002
{
1070
     2
1000
-2000120
1002
}
1002
{
1070
     3
1000
-2000937
1002
}
  0
LINE
  5
321
330
70
100
AcDbEntity
  8
A-ALV-___-___-EXI
100
AcDbLine
 10
22524.34031913002
 20
-17402.15994407375
 30
0.0
 11
24608.36909473231
 21
-17402.15994407375
 31
0.0
1001
REVIT
1002
{
1070
     1
1000
22883739
1002
}
1002
{
1070
     5
1000
141734
1002
}
1002
{
1070
     2
1000
-2000120
1002
}
1002
{
1070
     3
1000
-2000937
1002
}
  0
LINE
  5
322
330
70
100
AcDbEntity
  8
A-ALV-___-___-EXI
100
AcDbLine
 10
24608.36909473231
 20
-17402.15994407375
 30
0.0
 11
24608.3690947323
 21
-24752.15994407377
 31
0.0
1001
REVIT
1002
{
1070
     1
1000
22883739
1002
}
1002
{
1070
     5
1000
141734
1002
}
1002
{
1070
     2
1000
-2000120
1002
}
1002
{
1070
     3
1000
-2000937
1002
}
  0
LINE
  5
323
330
70
100
AcDbEntity
  8
A-ALV-___-___-EXI
100
AcDbLine
 10
24608.3690947323
 20
-24752.15994407377
 30
0.0
 11
22524.34031913001
 21
-24752.15994407375
 31
0.0
1001
REVIT
1002
{
1070
     1
1000
22883739
1002
}
1002
{
1070
     5
1000
141734
1002
}
1002
{
1070
     2
1000
-2000120
1002
}
1002
{
1070
     3
1000
-2000937
1002
}
  0
LINE
  5
324
330
70
100
AcDbEntity
  8
A-ALV-___-___-EXI
100
AcDbLine
 10
22524.34031913001
 20
-24752.15994407375
 30
0.0
 11
22524.34031913
 21
-24152.15994407375
 31
0.0
1001
REVIT
1002
{
1070
     1
1000
22883739
1002
}
1002
{
1070
     5
1000
141734
1002
}
1002
{
1070
     2
1000
-2000120
1002
}
1002
{
1070
     3
1000
-2000937
1002
}
  0
LINE
  5
325
330
70
100
AcDbEntity
  8
A-ALV-___-___-EXI
100
AcDbLine
 10
22524.34031913
 20
-24152.15994407375
 30
0.0
 11
22224.34031913
 21
-24152.15994407377
 31
0.0
1001
REVIT
1002
{
1070
     1
1000
22883739
1002
}
1002
{
1070
     5
1000
141734
1002
}
1002
{
1070
     2
1000
-2000120
1002
}
1002
{
1070
     3
1000
-2000937
1002
}
  0
LINE
  5
326
330
70
100
AcDbEntity
  8
A-ALV-___-___-EXI
100
AcDbLine
 10
22224.34031913
 20
-24152.15994407377
 30
0.0
 11
22224.34031913002
 21
-17692.15994407376
 31
0.0
1001
REVIT
1002
{
1070
     1
1000
22883739
1002
}
1002
{
1070
     5
1000
141734
1002
}
1002
{
1070
     2
1000
-2000120
1002
}
1002
{
1070
     3
1000
-2000937
1002
}
  0
LINE
  5
327
330
70
100
AcDbEntity
  8
A-ALV-___-___-EXI
100
AcDbLine
 10
22224.34031913002
 20
-17692.15994407376
 30
0.0
 11
22524.34031913001
 21
-17692.15994407376
 31
0.0
1001
REVIT
1002
{
1070
     1
1000
22883739
1002
}
1002
{
1070
     5
1000
141734
1002
}
1002
{
1070
     2
1000
-2000120
1002
}
1002
{
1070
     3
1000
-2000937
1002
}
  0
LINE
  5
328
330
70
100
AcDbEntity
  8
A-ALV-___-___-EXI
100
AcDbLine
 10
22524.34031913001
 20
-17692.15994407376
 30
0.0
 11
22224.34031913002
 21
-17692.15994407376
 31
0.0
1001
REVIT
1002
{
1070
     1
1000
22883739
1002
}
1002
{
1070
     5
1000
141734
1002
}
1002
{
1070
     2
1000
-2000120
1002
}
1002
{
1070
     3
1000
-2000937
1002
}
  0
LINE
  5
329
330
70
100
AcDbEntity
  8
A-ALV-___-___-EXI
100
AcDbLine
 10
22224.34031913002
 20
-17692.15994407376
 30
0.0
 11
22224.34031913002
 21
-18187.15994407376
 31
0.0
1001
REVIT
1002
{
1070
     1
1000
22883739
1002
}
1002
{
1070
     5
1000
141734
1002
}
1002
{
1070
     2
1000
-2000120
1002
}
1002
{
1070
     3
1000
-2000937
1002
}
  0
LINE
  5
32A
330
70
100
AcDbEntity
  8
A-ESC-___-___-EXI
100
AcDbLine
 10
22224.34031913002
 20
-18187.15994407376
 30
0.0
 11
23092.71255519957
 21
-18187.15994407376
 31
0.0
1001
REVIT
1002
{
1070
     1
1000
22883739
1002
}
1002
{
1070
     5
1000
141734
1002
}
1002
{
1070
     2
1000
-2000120
1002
}
1002
{
1070
     3
1000
-2000937
1002
}
  0
LINE
  5
32B
330
70
100
AcDbEntity
  8
A-ESC-___-___-EXI
100
AcDbLine
 10
23092.71255519957
 20
-18187.15994407376
 30
0.0
 11
23092.71255519956
 21
-19234.69563216955
 31
0.0
1001
REVIT
1002
{
1070
     1
1000
22883739
1002
}
1002
{
1070
     5
1000
141734
1002
}
1002
{
1070
     2
1000
-2000120
1002
}
1002
{
1070
     3
1000
-2000937
1002
}
  0
LINE
  5
32C
330
70
100
AcDbEntity
  8
A-ESC-___-___-EXI
100
AcDbLine
 10
23092.71255519956
 20
-19234.69563216955
 30
0.0
 11
23092.71255519956
 21
-19437.15994407376
 31
0.0
1001
REVIT
1002
{
1070
     1
1000
22883739
1002
}
1002
{
1070
     5
1000
141734
1002
}
1002
{
1070
     2
1000
-2000120
1002
}
1002
{
1070
     3
1000
-2000937
1002
}
  0
LINE
  5
32D
330
70
100
AcDbEntity
  8
A-ESC-___-___-EXI
100
AcDbLine
 10
23092.71255519956
 20
-19437.15994407376
 30
0.0
 11
23092.71255519957
 21
-19687.15994407376
 31
0.0
1001
REVIT
1002
{
1070
     1
1000
22883739
1002
}
1002
{
1070
     5
1000
141734
1002
}
1002
{
1070
     2
1000
-2000120
1002
}
1002
{
1070
     3
1000
-2000937
1002
}
  0
LINE
  5
32E
330
70
100
AcDbEntity
  8
A-ESC-___-___-EXI
100
AcDbLine
 10
23092.71255519957
 20
-19687.15994407376
 30
0.0
 11
23092.71255519957
 21
-19937.15994407376
 31
0.0
1001
REVIT
1002
{
1070
     1
1000
22883739
1002
}
1002
{
1070
     5
1000
141734
1002
}
1002
{
1070
     2
1000
-2000120
1002
}
1002
{
1070
     3
1000
-2000937
1002
}
  0
LINE
  5
32F
330
70
100
AcDbEntity
  8
A-ESC-___-___-EXI
100
AcDbLine
 10
23092.71255519957
 20
-19937.15994407376
 30
0.0
 11
23092.71255519956
 21
-20187.15994407376
 31
0.0
1001
REVIT
1002
{
1070
     1
1000
22883739
1002
}
1002
{
1070
     5
1000
141734
1002
}
1002
{
1070
     2
1000
-2000120
1002
}
1002
{
1070
     3
1000
-2000937
1002
}
  0
LINE
  5
330
330
70
100
AcDbEntity
  8
A-ESC-___-___-EXI
100
AcDbLine
 10
23092.71255519956
 20
-20187.15994407376
 30
0.0
 11
23092.71255519956
 21
-20437.15994407376
 31
0.0
1001
REVIT
1002
{
1070
     1
1000
22883739
1002
}
1002
{
1070
     5
1000
141734
1002
}
1002
{
1070
     2
1000
-2000120
1002
}
1002
{
1070
     3
1000
-2000937
1002
}
  0
LINE
  5
331
330
70
100
AcDbEntity
  8
A-ESC-___-___-EXI
100
AcDbLine
 10
23092.71255519956
 20
-20437.15994407376
 30
0.0
 11
23092.71255519956
 21
-20687.15994407376
 31
0.0
1001
REVIT
1002
{
1070
     1
1000
22883739
1002
}
1002
{
1070
     5
1000
141734
1002
}
1002
{
1070
     2
1000
-2000120
1002
}
1002
{
1070
     3
1000
-2000937
1002
}
  0
LINE
  5
332
330
70
100
AcDbEntity
  8
A-ESC-___-___-EXI
100
AcDbLine
 10
23092.71255519956
 20
-20687.15994407376
 30
0.0
 11
22224.34031913001
 21
-20687.15994407376
 31
0.0
1001
REVIT
1002
{
1070
     1
1000
22883739
1002
}
1002
{
1070
     5
1000
141734
1002
}
1002
{
1070
     2
1000
-2000120
1002
}
1002
{
1070
     3
1000
-2000937
1002
}
  0
LINE
  5
333
330
70
100
AcDbEntity
  8
A-ESC-___-___-EXI
100
AcDbLine
 10
22224.34031913001
 20
-20687.15994407376
 30
0.0
 11
23092.71255519956
 21
-20687.15994407376
 31
0.0
1001
REVIT
1002
{
1070
     1
1000
22883739
1002
}
1002
{
1070
     5
1000
141734
1002
}
1002
{
1070
     2
1000
-2000120
1002
}
1002
{
1070
     3
1000
-2000937
1002
}
  0
LINE
  5
334
330
70
100
AcDbEntity
  8
A-ESC-___-___-EXI
100
AcDbLine
 10
23092.71255519956
 20
-20687.15994407376
 30
0.0
 11
23092.71255519956
 21
-20937.15994407376
 31
0.0
1001
REVIT
1002
{
1070
     1
1000
22883739
1002
}
1002
{
1070
     5
1000
141734
1002
}
1002
{
1070
     2
1000
-2000120
1002
}
1002
{
1070
     3
1000
-2000937
1002
}
  0
LINE
  5
335
330
70
100
AcDbEntity
  8
A-ESC-___-___-EXI
100
AcDbLine
 10
23092.71255519956
 20
-20937.15994407376
 30
0.0
 11
22224.34031913001
 21
-20937.15994407377
 31
0.0
1001
REVIT
1002
{
1070
     1
1000
22883739
1002
}
1002
{
1070
     5
1000
141734
1002
}
1002
{
1070
     2
1000
-2000120
1002
}
1002
{
1070
     3
1000
-2000937
1002
}
  0
LINE
  5
336
330
70
100
AcDbEntity
  8
A-ESC-___-___-EXI
100
AcDbLine
 10
22224.34031913001
 20
-20937.15994407377
 30
0.0
 11
23092.71255519956
 21
-20937.15994407376
 31
0.0
1001
REVIT
1002
{
1070
     1
1000
22883739
1002
}
1002
{
1070
     5
1000
141734
1002
}
1002
{
1070
     2
1000
-2000120
1002
}
1002
{
1070
     3
1000
-2000937
1002
}
  0
LINE
  5
337
330
70
100
AcDbEntity
  8
A-ALV-___-___-EXI
100
AcDbLine
 10
27870.82248435658
 20
-4877.159944073749
 30
0.0
 11
27630.82248435658
 21
-4877.159944073749
 31
0.0
1001
REVIT
1002
{
1070
     1
1000
23025310
1002
}
1002
{
1070
     2
1000
-2000051
1002
}
1002
{
1070
     3
1000
-2000284
1002
}
  0
LINE
  5
338
330
70
100
AcDbEntity
  8
A-ALV-___-___-EXI
100
AcDbLine
 10
27630.82248435658
 20
-4877.159944073749
 30
0.0
 11
27630.82248435658
 21
-4677.159944073752
 31
0.0
1001
REVIT
1002
{
1070
     1
1000
23025310
1002
}
1002
{
1070
     2
1000
-2000051
1002
}
1002
{
1070
     3
1000
-2000284
1002
}
  0
LINE
  5
339
330
70
100
AcDbEntity
  8
A-ALV-___-___-EXI
100
AcDbLine
 10
27630.82248435658
 20
-4677.159944073752
 30
0.0
 11
27870.82248435658
 21
-4677.159944073751
 31
0.0
1001
REVIT
1002
{
1070
     1
1000
23025310
1002
}
1002
{
1070
     2
1000
-2000051
1002
}
1002
{
1070
     3
1000
-2000284
1002
}
  0
LINE
  5
33A
330
70
100
AcDbEntity
  8
A-ALV-___-___-EXI
100
AcDbLine
 10
27870.82248435658
 20
-4677.159944073751
 30
0.0
 11
27870.82248435658
 21
-4877.159944073749
 31
0.0
1001
REVIT
1002
{
1070
     1
1000
23025310
1002
}
1002
{
1070
     2
1000
-2000051
1002
}
1002
{
1070
     3
1000
-2000284
1002
}
  0
LINE
  5
33B
330
70
100
AcDbEntity
  8
A-ESC-___-___-EXI
100
AcDbLine
 10
27870.82248435658
 20
-4877.159944073749
 30
0.0
 11
27870.82248435659
 21
-5565.274434530159
 31
0.0
1001
REVIT
1002
{
1070
     1
1000
23025310
1002
}
1002
{
1070
     2
1000
-2000051
1002
}
1002
{
1070
     3
1000
-2000284
1002
}
  0
LINE
  5
33C
330
70
100
AcDbEntity
  8
A-ESC-___-___-EXI
100
AcDbLine
 10
27870.82248435659
 20
-5565.274434530159
 30
0.0
 11
26904.34031913005
 21
-5565.274434530156
 31
0.0
1001
REVIT
1002
{
1070
     1
1000
23025310
1002
}
1002
{
1070
     2
1000
-2000051
1002
}
1002
{
1070
     3
1000
-2000284
1002
}
  0
VIEWPORT
  5
2A9
330
6C
100
AcDbEntity
 67
     1
  8
A-JAN-___-___-EXI
100
AcDbViewport
 10
170.9542701009846
 20
208.7959777802631
 30
0.0
 40
123.4740837145013
 41
259.7306241686412
 68
    -1
 69
     2
 12
25754.12491971674
 22
-12468.47988307133
 13
0.0
 23
0.0
 14
0.0
 24
0.0
 15
0.0
 25
0.0
 16
0.0
 26
0.0
 36
1.0
 17
0.0
 27
0.0
 37
0.0
 42
0.0
 43
0.0
 44
0.0
 45
25973.06241686412
 50
0.0
 51
0.0
 72
  1000
 90
    32768
  1

281
     0
 71
     1
 74
     1
110
0.0
120
0.0
130
0.0
111
1.0
121
0.0
131
0.0
112
0.0
122
1.0
132
0.0
 79
     0
146
0.0
170
     0
 61
     5
292
     1
282
     1
141
0.0
142
0.0
 63
   250
421
  3355443
  0
VIEWPORT
  5
2AB
330
6C
100
AcDbEntity
 67
     1
  8
0
100
AcDbViewport
 10
13.18725099601594
 20
4.5
 30
0.0
 40
30.37760594535972
 41
12.0012262732717
 68
     1
 69
     1
 12
13.18725099601594
 22
4.5
 13
0.0
 23
0.0
 14
0.0
 24
0.0
 15
0.0
 25
0.0
 16
0.0
 26
0.0
 36
1.0
 17
0.0
 27
0.0
 37
0.0
 42
50.0
 43
0.0
 44
0.0
 45
12.0012262732717
 50
0.0
 51
0.0
 72
   100
 90
    32800
  1

281
     0
 71
     1
 74
     1
110
0.0
120
0.0
130
0.0
111
1.0
121
0.0
131
0.0
112
0.0
122
1.0
132
0.0
 79
     0
146
0.0
170
     0
 61
     5
348
2F
292
     1
282
     1
141
0.0
142
0.0
 63
   250
421
  3355443
  0
INSERT
  5
2B7
330
6C
100
AcDbEntity
 67
     1
  8
A-POR-___-___-EXI
100
AcDbBlockReference
  2
SVG - A4-23033332-Não nomeada
 10
0.0
 20
0.0
 30
0.0
1001
REVIT
1002
{
1070
     1
1000
23033377
1002
}
1002
{
1070
     5
1000
23033332
1002
}
1002
{
1070
     2
1000
-2000280
1002
}
  0
ENDSEC
  0
SECTION
  2
OBJECTS
  0
DICTIONARY
  5
C
330
0
100
AcDbDictionary
281
     1
  3
ACAD_CIP_PREVIOUS_PRODUCT_INFO
350
79
  3
ACAD_COLOR
350
63
  3
ACAD_DETAILVIEWSTYLE
350
6A
  3
ACAD_GROUP
350
D
  3
ACAD_IMAGE_VARS
350
7A
  3
ACAD_LAYOUT
350
62
  3
ACAD_MATERIAL
350
10
  3
ACAD_MLEADERSTYLE
350
66
  3
ACAD_MLINESTYLE
350
5F
  3
ACAD_PLOTSETTINGS
350
61
  3
ACAD_PLOTSTYLENAME
350
E
  3
ACAD_RENDER_ACTIVE_RAPIDRT_SETTINGS
350
2D7
  3
ACAD_RENDER_RAPIDRT_SETTINGS
350
2D0
  3
ACAD_SCALELIST
350
42
  3
ACAD_SECTIONVIEWSTYLE
350
68
  3
ACAD_TABLESTYLE
350
64
  3
ACAD_VISUALSTYLE
350
29
  3
ACDB_RECOMPOSE_DATA
350
35B
  3
AcDbVariableDictionary
350
2C0
  3
REVIT_DICTIONARY
350
2B8
  0
SUN
  5
2BF
330
57
100
AcDbSun
 90
        1
290
     1
 63
     7
421
 16777215
 40
0.3
291
     1
 91
  2460364
 92
 51895000
292
     0
 70
     1
 71
   128
280
     1
  0
DICTIONARY
  5
2DC
330
2
100
AcDbDictionary
280
     1
281
     1
  3
ACAD_LAYERSTATES
360
2DD
  0
DICTIONARY
  5
2BD
330
70
100
AcDbDictionary
280
     1
281
     1
  3
ACAD_SORTENTS
360
2BE
  0
XRECORD
  5
79
102
{ACAD_REACTORS
330
C
102
}
330
C
100
AcDbXrecord
280
     1
300
ACD
300
2022
300

  0
DICTIONARY
  5
63
102
{ACAD_REACTORS
330
C
102
}
330
C
100
AcDbDictionary
281
     1
  0
DICTIONARY
  5
6A
102
{ACAD_REACTORS
330
C
102
}
330
C
100
AcDbDictionary
281
     1
  3
Imperial24
350
6B
  3
Metric50
350
2C8
  0
DICTIONARY
  5
D
102
{ACAD_REACTORS
330
C
102
}
330
C
100
AcDbDictionary
281
     1
  0
RASTERVARIABLES
  5
7A
102
{ACAD_REACTORS
330
C
102
}
330
C
100
AcDbRasterVariables
 90
        0
 70
     0
 71
     1
 72
     1
  0
DICTIONARY
  5
62
102
{ACAD_REACTORS
330
C
102
}
330
C
100
AcDbDictionary
281
     1
  3
Layout1
350
6F
  3
Model
350
73
  0
DICTIONARY
  5
10
102
{ACAD_REACTORS
330
C
102
}
330
C
100
AcDbDictionary
281
     1
  3
ByBlock
350
19
  3
ByLayer
350
11
  3
Global
350
21
  0
DICTIONARY
  5
66
102
{ACAD_REACTORS
330
C
102
}
330
C
100
AcDbDictionary
281
     1
  3
Standard
350
67
  0
DICTIONARY
  5
5F
102
{ACAD_REACTORS
330
C
102
}
330
C
100
AcDbDictionary
281
     1
  3
Standard
350
60
  0
DICTIONARY
  5
61
102
{ACAD_REACTORS
330
C
102
}
330
C
100
AcDbDictionary
281
     1
  0
ACDBDICTIONARYWDFLT
  5
E
102
{ACAD_REACTORS
330
C
102
}
330
C
100
AcDbDictionary
281
     1
  3
Normal
350
F
100
AcDbDictionaryWithDefault
340
F
  0
RAPIDRTRENDERSETTINGS
  5
2D7
102
{ACAD_REACTORS
330
C
102
}
330
C
100
AcDbRenderSettings
 90
        2
  1
Médio
290
     1
290
     0
290
     1
290
     1
  1

  1
Aplica 5 níveis de renderização
 90
        0
100
AcDbRapidRTRenderSettings
 90
        3
 70
     0
 90
        5
 90
        1
 70
     1
 70
     2
 40
3.0
 40
3.0
290
     1
  0
DICTIONARY
  5
2D0
102
{ACAD_REACTORS
330
C
102
}
330
C
100
AcDbDictionary
281
     1
  3
Alto
350
2D3
  3
Baixo
350
2D1
  3
Médio
350
2D2
  3
Qualidade de curta duração
350
2D4
  3
Qualidade de longa duração
350
2D6
  3
Qualidade de média duração
350
2D5
  0
DICTIONARY
  5
42
102
{ACAD_REACTORS
330
C
102
}
330
C
100
AcDbDictionary
281
     1
  3
A0
350
43
  3
A1
350
44
  3
A2
350
45
  3
A3
350
46
  3
A4
350
47
  3
A5
350
48
  3
A6
350
49
  3
A7
350
4A
  3
A8
350
4B
  3
A9
350
4C
  3
B0
350
4D
  3
B1
350
4E
  3
B2
350
4F
  3
B3
350
50
  3
B4
350
51
  3
B5
350
52
  3
B6
350
53
  0
DICTIONARY
  5
68
102
{ACAD_REACTORS
330
C
102
}
330
C
100
AcDbDictionary
281
     1
  3
Imperial24
350
69
  3
Metric50
350
2C7
  0
DICTIONARY
  5
64
102
{ACAD_REACTORS
330
C
102
}
330
C
100
AcDbDictionary
281
     1
  3
Standard
350
65
  0
DICTIONARY
  5
29
102
{ACAD_REACTORS
330
C
102
}
330
C
100
AcDbDictionary
281
     1
  3
2dWireframe
350
2F
  3
Basic
350
2E
  3
Brighten
350
35
  3
ColorChange
350
39
  3
Conceptual
350
32
  3
Dim
350
34
  3
EdgeColorOff
350
41
  3
Facepattern
350
38
  3
Flat
350
2A
  3
FlatWithEdges
350
2B
  3
Gouraud
350
2C
  3
GouraudWithEdges
350
2D
  3
Hidden
350
31
  3
JitterOff
350
3F
  3
Linepattern
350
37
  3
OverhangOff
350
40
  3
Realistic
350
33
  3
Shaded
350
3E
  3
Shaded with edges
350
3D
  3
Shades of Gray
350
3A
  3
Sketchy
350
3B
  3
Thicken
350
36
  3
Wireframe
350
30
  3
X-Ray
350
3C
  0
XRECORD
  5
35B
102
{ACAD_REACTORS
330
C
102
}
330
C
100
AcDbXrecord
280
     1
 90
        1
330
65
  0
DICTIONARY
  5
2C0
102
{ACAD_REACTORS
330
C
102
}
330
C
100
AcDbDictionary
281
     1
  3
CANNOSCALE
350
2C5
  3
CMLEADERSTYLE
350
2C2
  3
CTABLESTYLE
350
2C1
  3
CVIEWDETAILSTYLE
350
2C3
  3
CVIEWSECTIONSTYLE
350
2C4
  0
DICTIONARY
  5
2B8
102
{ACAD_REACTORS
330
C
102
}
330
C
100
AcDbDictionary
281
     1
  3
DRAWING_TOOL
350
2BC
  3
REVIT_CATEGORY_MAPPING
350
2BA
  3
REVIT_SUB_CATEGORY_MAPPING
350
2BB
  3
REVIT_TYPE_MAPPING
350
2B9
  0
DICTIONARY
  5
2DD
102
{ACAD_REACTORS
330
2DC
102
}
330
2DC
100
AcDbDictionary
281
     1
  0
SORTENTSTABLE
  5
2BE
102
{ACAD_REACTORS
330
2BD
102
}
330
2BD
100
AcDbSortentsTable
330
70
331
2E2
  5
2E8
331
2E3
  5
2E9
331
2E4
  5
2EA
331
2E5
  5
2EB
331
2E6
  5
2EC
331
2E7
  5
2ED
331
2E8
  5
2EE
331
2E9
  5
2EF
331
2EA
  5
2F0
331
2EB
  5
2F1
331
2EC
  5
2F2
331
2ED
  5
2F3
331
2EE
  5
2F4
331
2EF
  5
2F5
331
2F0
  5
2F6
331
2F1
  5
2F7
331
2F2
  5
2F8
331
2F3
  5
2F9
331
2F4
  5
2FA
331
2F5
  5
2FD
331
2F6
  5
2FE
331
2F7
  5
2FF
331
2F8
  5
300
331
2F9
  5
301
331
2FA
  5
302
331
2FD
  5
333
331
2FE
  5
334
331
2FF
  5
335
331
300
  5
336
331
301
  5
337
331
302
  5
338
331
303
  5
339
331
304
  5
33A
331
305
  5
33B
331
306
  5
33C
331
31A
  5
303
331
31B
  5
304
331
31C
  5
305
331
31D
  5
306
331
31F
  5
31B
331
320
  5
31C
331
321
  5
31D
331
322
  5
31E
331
323
  5
31F
331
324
  5
320
331
325
  5
321
331
326
  5
322
331
327
  5
323
331
328
  5
324
331
329
  5
325
331
32A
  5
326
331
32B
  5
327
331
32C
  5
328
331
32D
  5
329
331
32E
  5
32A
331
32F
  5
32B
331
330
  5
32C
331
331
  5
32D
331
332
  5
32E
331
333
  5
32F
331
334
  5
330
331
335
  5
331
331
336
  5
332
331
337
  5
2E2
331
338
  5
2E3
331
339
  5
2E4
331
33A
  5
2E5
331
33B
  5
2E6
331
33C
  5
2E7
  0
ACDBDETAILVIEWSTYLE
  5
6B
102
{ACAD_REACTORS
330
6A
102
}
330
6A
100
AcDbModelDocViewStyle
 70
     0
  3
Imperial24
290
     1
300
Imperial24
 90
        0
100
AcDbDetailViewStyle
 70
     0
 71
     0
 90
        3
 71
     1
340
55
 62
   256
 40
0.24
340
0
 62
   256
 40
0.24
300

 40
0.36
280
     3
 71
     2
340
5D
 90
       25
 62
   256
 71
     3
340
55
 62
   256
 40
0.24
 90
        1
 40
0.75
 90
        1
300
%<\AcVar ViewType \f "%tc1">% %<\AcVar ViewDetailId>%\PSCALE %<\AcVar ViewScale \f "%sn">%
 71
     4
340
5D
 90
       25
 62
   256
340
5D
 90
       25
 62
   256
280
     0
  0
ACDBDETAILVIEWSTYLE
  5
2C8
102
{ACAD_REACTORS
330
6A
102
}
330
6A
100
AcDbModelDocViewStyle
 70
     0
  3
Metric50
290
     1
300
Metric50
 90
        0
100
AcDbDetailViewStyle
 70
     0
 71
     0
 90
        3
 71
     1
340
55
 62
   256
 40
5.0
340
0
 62
   256
 40
5.0
300

 40
0.0
280
     1
 71
     2
340
5D
 90
       25
 62
   256
 71
     3
340
55
 62
   256
 40
5.0
 90
        0
 40
15.0
 90
        1
300
%<\AcVar ViewDetailId>% (%<\AcVar ViewScale \f "%sn">%)
 71
     4
340
5D
 90
       25
 62
   256
340
5D
 90
       25
 62
   256
280
     0
  0
LAYOUT
  5
6F
102
{ACAD_REACTORS
330
62
102
}
330
62
100
AcDbPlotSettings
  1

  2
PDF24
  4
A4
  6

 40
0.0
 41
0.0
 42
0.1113433837890625
 43
0.0
 44
210.0
 45
297.0
 46
0.0
 47
0.0
 48
0.0
 49
0.0
140
0.0
141
0.0
142
1.0
143
1.415217033324818
 70
   688
 72
     1
 73
     1
 74
     1
  7

 75
     0
147
0.7066054014702363
 76
     0
 77
     2
 78
   300
148
-64.27901684485153
149
-59.47287840171589
100
AcDbLayout
  1
Layout1
 70
     0
 71
     1
 10
64.27901684485153
 20
59.47287840171589
 11
484.5984757423225
 21
356.6684553999278
 12
0.0
 22
0.0
 32
0.0
 14
64.29285070883699
 24
59.49999999998593
 34
0.0
 15
274.292850708837
 25
356.4999999999859
 35
0.0
146
0.0
 13
0.0
 23
0.0
 33
0.0
 16
1.0
 26
0.0
 36
0.0
 17
0.0
 27
1.0
 37
0.0
 76
     0
330
6C
331
2AB
1001
ACAD_PSEXT
1000
PDF24
1000
PDF24
1000
\\.\pipe\PDFPrint
1000
PDF24 Printer
1070
     0
  0
LAYOUT
  5
73
102
{ACAD_REACTORS
330
62
102
}
330
62
100
AcDbPlotSettings
  1

  2

  4

  6

 40
0.0
 41
0.0
 42
0.0
 43
0.0
 44
0.0
 45
0.0
 46
0.0
 47
0.0
 48
0.0
 49
0.0
140
0.0
141
0.0
142
1.0
143
1.0
 70
  1712
 72
     0
 73
     0
 74
     0
  7

 75
     0
147
1.0
 76
     0
 77
     2
 78
   300
148
0.0
149
0.0
100
AcDbLayout
  1
Model
 70
     1
 71
     0
 10
0.0
 20
0.0
 11
12.0
 21
9.0
 12
0.0
 22
0.0
 32
0.0
 14
0.0
 24
0.0
 34
0.0
 15
0.0
 25
0.0
 35
0.0
146
0.0
 13
0.0
 23
0.0
 33
0.0
 16
1.0
 26
0.0
 36
0.0
 17
0.0
 27
1.0
 37
0.0
 76
     0
330
70
331
57
  0
MATERIAL
  5
19
102
{ACAD_XDICTIONARY
360
1A
102
}
102
{ACAD_REACTORS
330
10
102
}
330
10
100
AcDbMaterial
  1
ByBlock
 72
     0
 43
0.0208333333333333
 43
0.0
 43
0.0
 43
0.0
 43
0.0
 43
0.0208333333333333
 43
0.0
 43
0.0
 43
0.0
 43
0.0
 43
1.0
 43
0.0
 43
0.0
 43
0.0
 43
0.0
 43
1.0
 77
     0
 47
0.0208333333333333
 47
0.0
 47
0.0
 47
0.0
 47
0.0
 47
0.0208333333333333
 47
0.0
 47
0.0
 47
0.0
 47
0.0
 47
1.0
 47
0.0
 47
0.0
 47
0.0
 47
0.0
 47
1.0
171
     0
 49
0.0208333333333333
 49
0.0
 49
0.0
 49
0.0
 49
0.0
 49
0.0208333333333333
 49
0.0
 49
0.0
 49
0.0
 49
0.0
 49
1.0
 49
0.0
 49
0.0
 49
0.0
 49
0.0
 49
1.0
175
     0
142
0.0208333333333333
142
0.0
142
0.0
142
0.0
142
0.0
142
0.0208333333333333
142
0.0
142
0.0
142
0.0
142
0.0
142
1.0
142
0.0
142
0.0
142
0.0
142
0.0
142
1.0
179
     0
144
0.0208333333333333
144
0.0
144
0.0
144
0.0
144
0.0
144
0.0208333333333333
144
0.0
144
0.0
144
0.0
144
0.0
144
1.0
144
0.0
144
0.0
144
0.0
144
0.0
144
1.0
147
0.0208333333333333
147
0.0
147
0.0
147
0.0
147
0.0
147
0.0208333333333333
147
0.0
147
0.0
147
0.0
147
0.0
147
1.0
147
0.0
147
0.0
147
0.0
147
0.0
147
1.0
  0
MATERIAL
  5
11
102
{ACAD_XDICTIONARY
360
12
102
}
102
{ACAD_REACTORS
330
10
102
}
330
10
100
AcDbMaterial
  1
ByLayer
 72
     0
 43
0.0208333333333333
 43
0.0
 43
0.0
 43
0.0
 43
0.0
 43
0.0208333333333333
 43
0.0
 43
0.0
 43
0.0
 43
0.0
 43
1.0
 43
0.0
 43
0.0
 43
0.0
 43
0.0
 43
1.0
 77
     0
 47
0.0208333333333333
 47
0.0
 47
0.0
 47
0.0
 47
0.0
 47
0.0208333333333333
 47
0.0
 47
0.0
 47
0.0
 47
0.0
 47
1.0
 47
0.0
 47
0.0
 47
0.0
 47
0.0
 47
1.0
171
     0
 49
0.0208333333333333
 49
0.0
 49
0.0
 49
0.0
 49
0.0
 49
0.0208333333333333
 49
0.0
 49
0.0
 49
0.0
 49
0.0
 49
1.0
 49
0.0
 49
0.0
 49
0.0
 49
0.0
 49
1.0
175
     0
142
0.0208333333333333
142
0.0
142
0.0
142
0.0
142
0.0
142
0.0208333333333333
142
0.0
142
0.0
142
0.0
142
0.0
142
1.0
142
0.0
142
0.0
142
0.0
142
0.0
142
1.0
179
     0
144
0.0208333333333333
144
0.0
144
0.0
144
0.0
144
0.0
144
0.0208333333333333
144
0.0
144
0.0
144
0.0
144
0.0
144
1.0
144
0.0
144
0.0
144
0.0
144
0.0
144
1.0
147
0.0208333333333333
147
0.0
147
0.0
147
0.0
147
0.0
147
0.0208333333333333
147
0.0
147
0.0
147
0.0
147
0.0
147
1.0
147
0.0
147
0.0
147
0.0
147
0.0
147
1.0
  0
MATERIAL
  5
21
102
{ACAD_XDICTIONARY
360
22
102
}
102
{ACAD_REACTORS
330
10
102
}
330
10
100
AcDbMaterial
  1
Global
 72
     0
 43
0.0208333333333333
 43
0.0
 43
0.0
 43
0.0
 43
0.0
 43
0.0208333333333333
 43
0.0
 43
0.0
 43
0.0
 43
0.0
 43
1.0
 43
0.0
 43
0.0
 43
0.0
 43
0.0
 43
1.0
 77
     0
 47
0.0208333333333333
 47
0.0
 47
0.0
 47
0.0
 47
0.0
 47
0.0208333333333333
 47
0.0
 47
0.0
 47
0.0
 47
0.0
 47
1.0
 47
0.0
 47
0.0
 47
0.0
 47
0.0
 47
1.0
171
     0
 49
0.0208333333333333
 49
0.0
 49
0.0
 49
0.0
 49
0.0
 49
0.0208333333333333
 49
0.0
 49
0.0
 49
0.0
 49
0.0
 49
1.0
 49
0.0
 49
0.0
 49
0.0
 49
0.0
 49
1.0
175
     0
142
0.0208333333333333
142
0.0
142
0.0
142
0.0
142
0.0
142
0.0208333333333333
142
0.0
142
0.0
142
0.0
142
0.0
142
1.0
142
0.0
142
0.0
142
0.0
142
0.0
142
1.0
179
     0
144
0.0208333333333333
144
0.0
144
0.0
144
0.0
144
0.0
144
0.0208333333333333
144
0.0
144
0.0
144
0.0
144
0.0
144
1.0
144
0.0
144
0.0
144
0.0
144
0.0
144
1.0
147
0.0208333333333333
147
0.0
147
0.0
147
0.0
147
0.0
147
0.0208333333333333
147
0.0
147
0.0
147
0.0
147
0.0
147
1.0
147
0.0
147
0.0
147
0.0
147
0.0
147
1.0
  0
MLEADERSTYLE
  5
67
102
{ACAD_REACTORS
330
66
102
}
330
66
100
AcDbMLeaderStyle
179
     2
170
     2
171
     1
172
     0
 90
        2
 40
0.0
 41
0.0
173
     1
 91
-1056964608
340
5B
 92
       -2
290
     1
 42
0.09
291
     1
 43
0.36
  3
Standard
 44
0.18
300

342
55
174
     1
178
     6
175
     1
176
     0
 93
-1056964608
 45
0.18
292
     0
297
     0
 46
0.18
 94
-1056964608
 47
1.0
 49
1.0
140
1.0
293
     1
141
0.0
294
     1
177
     0
142
1.0
295
     1
296
     0
143
0.125
271
     0
272
     9
273
     9
298
     1
  0
MLINESTYLE
  5
60
102
{ACAD_REACTORS
330
5F
102
}
330
5F
100
AcDbMlineStyle
  2
STANDARD
 70
     0
  3

 62
   256
 51
90.0
 52
90.0
 71
     2
 49
0.5
 62
   256
  6
BYLAYER
 49
-0.5
 62
   256
  6
BYLAYER
  0
ACDBPLACEHOLDER
  5
F
102
{ACAD_REACTORS
330
E
102
}
330
E
  0
RAPIDRTRENDERSETTINGS
  5
2D3
102
{ACAD_REACTORS
330
2D0
102
}
330
2D0
100
AcDbRenderSettings
 90
        2
  1
Alto
290
     1
290
     0
290
     1
290
     1
  1

  1
Aplica 10 níveis de renderização
 90
        2
100
AcDbRapidRTRenderSettings
 90
        3
 70
     0
 90
       10
 90
        1
 70
     2
 70
     2
 40
3.0
 40
3.0
290
     1
  0
RAPIDRTRENDERSETTINGS
  5
2D1
102
{ACAD_REACTORS
330
2D0
102
}
330
2D0
100
AcDbRenderSettings
 90
        2
  1
Baixo
290
     1
290
     0
290
     1
290
     1
  1

  1
Aplica 1 nível de renderização
 90
        0
100
AcDbRapidRTRenderSettings
 90
        3
 70
     0
 90
        1
 90
        1
 70
     0
 70
     2
 40
3.0
 40
3.0
290
     1
  0
RAPIDRTRENDERSETTINGS
  5
2D2
102
{ACAD_REACTORS
330
2D0
102
}
330
2D0
100
AcDbRenderSettings
 90
        2
  1
Médio
290
     1
290
     0
290
     1
290
     1
  1

  1
Aplica 5 níveis de renderização
 90
        1
100
AcDbRapidRTRenderSettings
 90
        3
 70
     0
 90
        5
 90
        1
 70
     1
 70
     2
 40
3.0
 40
3.0
290
     1
  0
RAPIDRTRENDERSETTINGS
  5
2D4
102
{ACAD_REACTORS
330
2D0
102
}
330
2D0
100
AcDbRenderSettings
 90
        2
  1
Qualidade de curta duração
290
     1
290
     0
290
     1
290
     1
  1

  1
Renderiza por 10 minutos
 90
        3
100
AcDbRapidRTRenderSettings
 90
        3
 70
     1
 90
        1
 90
       10
 70
     1
 70
     2
 40
3.0
 40
3.0
290
     1
  0
RAPIDRTRENDERSETTINGS
  5
2D6
102
{ACAD_REACTORS
330
2D0
102
}
330
2D0
100
AcDbRenderSettings
 90
        2
  1
Qualidade de longa duração
290
     1
290
     0
290
     1
290
     1
  1

  1
Renderiza por 12 horas
 90
        5
100
AcDbRapidRTRenderSettings
 90
        3
 70
     1
 90
        1
 90
      720
 70
     2
 70
     2
 40
3.0
 40
3.0
290
     1
  0
RAPIDRTRENDERSETTINGS
  5
2D5
102
{ACAD_REACTORS
330
2D0
102
}
330
2D0
100
AcDbRenderSettings
 90
        2
  1
Qualidade de média duração
290
     1
290
     0
290
     1
290
     1
  1

  1
Renderiza por 60 minutos
 90
        4
100
AcDbRapidRTRenderSettings
 90
        3
 70
     1
 90
        1
 90
       60
 70
     2
 70
     2
 40
3.0
 40
3.0
290
     1
  0
SCALE
  5
43
102
{ACAD_REACTORS
330
42
102
}
330
42
100
AcDbScale
 70
     0
300
1:1
140
1.0
141
1.0
290
     1
  0
SCALE
  5
44
102
{ACAD_REACTORS
330
42
102
}
330
42
100
AcDbScale
 70
     0
300
1/128" = 1'-0"
140
0.0078125
141
12.0
290
     0
  0
SCALE
  5
45
102
{ACAD_REACTORS
330
42
102
}
330
42
100
AcDbScale
 70
     0
300
1/64" = 1'-0"
140
0.015625
141
12.0
290
     0
  0
SCALE
  5
46
102
{ACAD_REACTORS
330
42
102
}
330
42
100
AcDbScale
 70
     0
300
1/32" = 1'-0"
140
0.03125
141
12.0
290
     0
  0
SCALE
  5
47
102
{ACAD_REACTORS
330
42
102
}
330
42
100
AcDbScale
 70
     0
300
1/16" = 1'-0"
140
0.0625
141
12.0
290
     0
  0
SCALE
  5
48
102
{ACAD_REACTORS
330
42
102
}
330
42
100
AcDbScale
 70
     0
300
3/32" = 1'-0"
140
0.09375
141
12.0
290
     0
  0
SCALE
  5
49
102
{ACAD_REACTORS
330
42
102
}
330
42
100
AcDbScale
 70
     0
300
1/8" = 1'-0"
140
0.125
141
12.0
290
     0
  0
SCALE
  5
4A
102
{ACAD_REACTORS
330
42
102
}
330
42
100
AcDbScale
 70
     0
300
3/16" = 1'-0"
140
0.1875
141
12.0
290
     0
  0
SCALE
  5
4B
102
{ACAD_REACTORS
330
42
102
}
330
42
100
AcDbScale
 70
     0
300
1/4" = 1'-0"
140
0.25
141
12.0
290
     0
  0
SCALE
  5
4C
102
{ACAD_REACTORS
330
42
102
}
330
42
100
AcDbScale
 70
     0
300
3/8" = 1'-0"
140
0.375
141
12.0
290
     0
  0
SCALE
  5
4D
102
{ACAD_REACTORS
330
42
102
}
330
42
100
AcDbScale
 70
     0
300
1/2" = 1'-0"
140
0.5
141
12.0
290
     0
  0
SCALE
  5
4E
102
{ACAD_REACTORS
330
42
102
}
330
42
100
AcDbScale
 70
     0
300
3/4" = 1'-0"
140
0.75
141
12.0
290
     0
  0
SCALE
  5
4F
102
{ACAD_REACTORS
330
42
102
}
330
42
100
AcDbScale
 70
     0
300
1" = 1'-0"
140
1.0
141
12.0
290
     0
  0
SCALE
  5
50
102
{ACAD_REACTORS
330
42
102
}
330
42
100
AcDbScale
 70
     0
300
1-1/2" = 1'-0"
140
1.5
141
12.0
290
     0
  0
SCALE
  5
51
102
{ACAD_REACTORS
330
42
102
}
330
42
100
AcDbScale
 70
     0
300
3" = 1'-0"
140
3.0
141
12.0
290
     0
  0
SCALE
  5
52
102
{ACAD_REACTORS
330
42
102
}
330
42
100
AcDbScale
 70
     0
300
6" = 1'-0"
140
6.0
141
12.0
290
     0
  0
SCALE
  5
53
102
{ACAD_REACTORS
330
42
102
}
330
42
100
AcDbScale
 70
     0
300
1'-0" = 1'-0"
140
12.0
141
12.0
290
     0
  0
ACDBSECTIONVIEWSTYLE
  5
69
102
{ACAD_REACTORS
330
68
102
}
330
68
100
AcDbModelDocViewStyle
 70
     0
  3
Imperial24
290
     1
300
Imperial24
 90
        0
100
AcDbSectionViewStyle
 70
     0
 71
     0
 90
       78
 71
     1
340
55
 62
   256
 40
0.24
340
0
340
0
 62
   256
 40
0.24
300
I, O, Q, S, X, Z
 40
0.48
 90
        3
 40
0.18
 90
        1
 71
     2
340
5D
 90
       25
 62
   256
340
5D
 90
       50
 62
   256
 40
0.24
 40
0.0
 40
0.24
 71
     3
340
55
 62
   256
 40
0.24
 90
        1
 40
0.75
 90
        1
300
%<\AcVar ViewType \f "%tc1">% %<\AcVar ViewSectionStartId>%-%<\AcVar ViewSectionEndId>%\PSCALE %<\AcVar ViewScale \f "%sn">%
 71
     4
 62
   256
 62
   257
300
ANSI31
 40
1.0
 90
        0
290
     0
290
     0
 90
        6
 40
0.0
 40
1.570796326794896
 40
0.2617993877991494
 40
1.308996938995747
 40
-0.2617993877991494
 40
1.832595714594046
  0
ACDBSECTIONVIEWSTYLE
  5
2C7
102
{ACAD_REACTORS
330
68
102
}
330
68
100
AcDbModelDocViewStyle
 70
     0
  3
Metric50
290
     1
300
Metric50
 90
        0
100
AcDbSectionViewStyle
 70
     0
 71
     0
 90
      102
 71
     1
340
55
 62
   256
 40
5.0
340
0
340
0
 62
   256
 40
5.0
300
I, O, Q, S, X, Z
 40
10.0
 90
        0
 40
2.5
 90
        0
 71
     2
340
5D
 90
       25
 62
   256
340
5D
 90
       50
 62
   256
 40
5.0
 40
2.5
 40
5.0
 71
     3
340
55
 62
   256
 40
5.0
 90
        0
 40
15.0
 90
        1
300
%<\AcVar ViewSectionStartId>%-%<\AcVar ViewSectionEndId>% (%<\AcVar ViewScale \f "%sn">%)
 71
     4
 62
   256
 62
   257
300
ANSI31
 40
1.0
 90
        0
290
     0
290
     0
 90
        6
 40
0.0
 40
1.570796326794896
 40
0.2617993877991494
 40
1.308996938995747
 40
-0.2617993877991494
 40
1.832595714594046
  0
TABLESTYLE
  5
65
102
{ACAD_XDICTIONARY
360
359
102
}
102
{ACAD_REACTORS
330
64
102
}
330
64
100
AcDbTableStyle
280
     0
  3
Standard
 70
     0
 71
     0
 40
0.06
 41
0.06
280
     0
281
     0
  7
Standard
140
0.18
170
     2
 62
     0
 63
     7
283
     0
 90
      512
 91
        0
  1

274
    -2
284
     1
 64
     0
275
    -2
285
     1
 65
     0
276
    -2
286
     1
 66
     0
277
    -2
287
     1
 67
     0
278
    -2
288
     1
 68
     0
279
    -2
289
     1
 69
     0
  7
Standard
140
0.25
170
     5
 62
     0
 63
     7
283
     0
 90
      512
 91
        0
  1

274
    -2
284
     1
 64
     0
275
    -2
285
     1
 65
     0
276
    -2
286
     1
 66
     0
277
    -2
287
     1
 67
     0
278
    -2
288
     1
 68
     0
279
    -2
289
     1
 69
     0
  7
Standard
140
0.18
170
     5
 62
     0
 63
     7
283
     0
 90
      512
 91
        0
  1

274
    -2
284
     1
 64
     0
275
    -2
285
     1
 65
     0
276
    -2
286
     1
 66
     0
277
    -2
287
     1
 67
     0
278
    -2
288
     1
 68
     0
279
    -2
289
     1
 69
     0
  0
VISUALSTYLE
  5
2F
102
{ACAD_REACTORS
330
29
102
}
330
29
100
AcDbVisualStyle
  2
2dWireframe
 70
     4
177
     3
291
     0
 70
    58
 90
        0
176
     1
 90
        2
176
     1
 90
        0
176
     1
 90
        0
176
     1
 40
0.6
176
     1
 40
30.0
176
     1
 62
     7
420
 16777215
176
     1
 90
        1
176
     1
 90
        4
176
     1
 62
     7
176
     1
 62
   257
176
     1
 90
        1
176
     1
 90
        1
176
     1
 40
1.0
176
     1
 90
        0
176
     1
 62
   257
176
     1
 40
1.0
176
     1
 90
        1
176
     1
 90
        6
176
     1
 90
        2
176
     1
 62
     7
176
     1
 90
        5
176
     1
 90
        0
176
     1
 90
        0
176
     1
290
     0
176
     1
 90
        1
176
     1
 40
0.0
176
     1
 90
        0
176
     1
290
     1
176
     1
290
     1
176
     1
290
     0
176
     1
290
     0
176
     1
290
     0
176
     1
290
     0
176
     1
290
     0
176
     1
290
     0
176
     1
290
     0
176
     1
 90
       50
176
     1
 40
0.0
176
     1
 40
1.0
176
     1
 90
        0
176
     1
 62
    18
420
        0
176
     1
 90
       50
176
     1
 90
        3
176
     1
 62
     5
420
      255
176
     1
290
     0
176
     1
 90
       50
176
     1
 90
       50
176
     1
 90
       50
176
     1
290
     0
176
     1
 90
       50
176
     1
 62
   256
176
     0
 40
1.0
176
     0
 90
        2
176
     1
  1
strokes_ogs.tif
176
     1
290
     0
176
     1
 40
1.0
176
     1
 40
1.0
176
     1
  0
VISUALSTYLE
  5
2E
102
{ACAD_REACTORS
330
29
102
}
330
29
100
AcDbVisualStyle
  2
Basic
 70
     7
177
     3
291
     1
 70
    58
 90
        1
176
     1
 90
        0
176
     1
 90
        1
176
     1
 90
        0
176
     1
 40
0.6
176
     1
 40
30.0
176
     1
 62
     7
420
 16777215
176
     1
 90
        0
176
     1
 90
        4
176
     1
 62
     7
176
     1
 62
   257
176
     1
 90
        1
176
     1
 90
        1
176
     1
 40
1.0
176
     1
 90
        8
176
     1
 62
     7
176
     1
 40
1.0
176
     1
 90
        1
176
     1
 90
        6
176
     1
 90
        2
176
     1
 62
     7
176
     1
 90
        5
176
     1
 90
        0
176
     1
 90
        0
176
     1
290
     0
176
     1
 90
        1
176
     1
 40
0.0
176
     1
 90
        0
176
     1
290
     0
176
     1
290
     1
176
     1
290
     1
176
     1
290
     0
176
     1
290
     0
176
     1
290
     0
176
     1
290
     0
176
     1
290
     0
176
     1
290
     0
176
     1
 90
       50
176
     1
 40
0.0
176
     1
 40
1.0
176
     1
 90
        0
176
     1
 62
    18
420
        0
176
     1
 90
       50
176
     1
 90
        3
176
     1
 62
     5
420
      255
176
     1
290
     0
176
     1
 90
       50
176
     1
 90
       50
176
     1
 90
       50
176
     1
290
     0
176
     1
 90
       50
176
     1
 62
   256
176
     0
 40
1.0
176
     0
 90
        2
176
     1
  1
strokes_ogs.tif
176
     1
290
     0
176
     1
 40
1.0
176
     1
 40
1.0
176
     1
  0
VISUALSTYLE
  5
35
102
{ACAD_REACTORS
330
29
102
}
330
29
100
AcDbVisualStyle
  2
Brighten
 70
    12
177
     3
291
     1
 70
    58
 90
        2
176
     1
 90
        2
176
     1
 90
        0
176
     1
 90
        0
176
     1
 40
0.6
176
     1
 40
30.0
176
     1
 62
     7
420
 16777215
176
     1
 90
        1
176
     1
 90
        4
176
     1
 62
     7
176
     1
 62
   257
176
     1
 90
        1
176
     1
 90
        1
176
     1
 40
1.0
176
     1
 90
        8
176
     1
 62
     7
176
     1
 40
1.0
176
     1
 90
        1
176
     1
 90
        6
176
     1
 90
        2
176
     1
 62
     7
176
     1
 90
        5
176
     1
 90
        0
176
     1
 90
        0
176
     1
290
     0
176
     1
 90
        1
176
     1
 40
50.0
176
     1
 90
        0
176
     1
290
     0
176
     1
290
     1
176
     1
290
     1
176
     1
290
     0
176
     1
290
     0
176
     1
290
     0
176
     1
290
     0
176
     1
290
     0
176
     1
290
     0
176
     1
 90
       50
176
     1
 40
0.0
176
     1
 40
1.0
176
     1
 90
        0
176
     1
 62
    18
420
        0
176
     1
 90
       50
176
     1
 90
        3
176
     1
 62
     5
420
      255
176
     1
290
     0
176
     1
 90
       50
176
     1
 90
       50
176
     1
 90
       50
176
     1
290
     0
176
     1
 90
       50
176
     1
 62
   256
176
     0
 40
1.0
176
     0
 90
        2
176
     1
  1
strokes_ogs.tif
176
     1
290
     0
176
     1
 40
1.0
176
     1
 40
1.0
176
     1
  0
VISUALSTYLE
  5
39
102
{ACAD_REACTORS
330
29
102
}
330
29
100
AcDbVisualStyle
  2
ColorChange
 70
    16
177
     3
291
     1
 70
    58
 90
        2
176
     1
 90
        2
176
     1
 90
        3
176
     1
 90
        0
176
     1
 40
0.6
176
     1
 40
30.0
176
     1
 62
     8
420
  8421504
176
     1
 90
        1
176
     1
 90
        4
176
     1
 62
     7
176
     1
 62
   257
176
     1
 90
        1
176
     1
 90
        1
176
     1
 40
1.0
176
     1
 90
        8
176
     1
 62
     8
420
  8421504
176
     1
 40
1.0
176
     1
 90
        1
176
     1
 90
        6
176
     1
 90
        2
176
     1
 62
     7
176
     1
 90
        5
176
     1
 90
        0
176
     1
 90
        0
176
     1
290
     0
176
     1
 90
        1
176
     1
 40
0.0
176
     1
 90
        0
176
     1
290
     0
176
     1
290
     1
176
     1
290
     1
176
     1
290
     0
176
     1
290
     0
176
     1
290
     0
176
     1
290
     0
176
     1
290
     0
176
     1
290
     0
176
     1
 90
       50
176
     1
 40
0.0
176
     1
 40
1.0
176
     1
 90
        0
176
     1
 62
    18
420
        0
176
     1
 90
       50
176
     1
 90
        3
176
     1
 62
     5
420
      255
176
     1
290
     0
176
     1
 90
       50
176
     1
 90
       50
176
     1
 90
       50
176
     1
290
     0
176
     1
 90
       50
176
     1
 62
   256
176
     0
 40
1.0
176
     0
 90
        2
176
     1
  1
strokes_ogs.tif
176
     1
290
     0
176
     1
 40
1.0
176
     1
 40
1.0
176
     1
  0
VISUALSTYLE
  5
32
102
{ACAD_REACTORS
330
29
102
}
330
29
100
AcDbVisualStyle
  2
Conceptual
 70
     9
177
     3
291
     0
 70
    58
 90
        3
176
     1
 90
        2
176
     1
 90
        0
176
     1
 90
        0
176
     1
 40
0.6
176
     1
 40
30.0
176
     1
 62
     7
420
 16777215
176
     1
 90
        2
176
     1
 90
        2
176
     1
 62
     7
176
     1
 62
   257
176
     1
 90
        1
176
     1
 90
        1
176
     1
 40
179.0
176
     1
 90
        8
176
     1
 62
     7
176
     1
 40
1.0
176
     1
 90
        1
176
     1
 90
        6
176
     1
 90
        2
176
     1
 62
     7
176
     1
 90
        3
176
     1
 90
        0
176
     1
 90
        0
176
     1
290
     0
176
     1
 90
        1
176
     1
 40
0.0
176
     1
 90
        0
176
     1
290
     0
176
     1
290
     1
176
     1
290
     1
176
     1
290
     0
176
     1
290
     0
176
     1
290
     0
176
     1
290
     0
176
     1
290
     0
176
     1
290
     0
176
     1
 90
       50
176
     1
 40
0.0
176
     1
 40
1.0
176
     1
 90
        0
176
     1
 62
    18
420
        0
176
     1
 90
       50
176
     1
 90
        3
176
     1
 62
     5
420
      255
176
     1
290
     0
176
     1
 90
       50
176
     1
 90
       50
176
     1
 90
       50
176
     1
290
     0
176
     1
 90
       50
176
     1
 62
   256
176
     0
 40
1.0
176
     0
 90
        2
176
     1
  1
strokes_ogs.tif
176
     1
290
     0
176
     1
 40
1.0
176
     1
 40
1.0
176
     1
  0
VISUALSTYLE
  5
34
102
{ACAD_REACTORS
330
29
102
}
330
29
100
AcDbVisualStyle
  2
Dim
 70
    11
177
     3
291
     1
 70
    58
 90
        2
176
     1
 90
        2
176
     1
 90
        0
176
     1
 90
        0
176
     1
 40
0.6
176
     1
 40
30.0
176
     1
 62
     7
420
 16777215
176
     1
 90
        1
176
     1
 90
        4
176
     1
 62
     7
176
     1
 62
   257
176
     1
 90
        1
176
     1
 90
        1
176
     1
 40
1.0
176
     1
 90
        8
176
     1
 62
     7
176
     1
 40
1.0
176
     1
 90
        1
176
     1
 90
        6
176
     1
 90
        2
176
     1
 62
     7
176
     1
 90
        5
176
     1
 90
        0
176
     1
 90
        0
176
     1
290
     0
176
     1
 90
        1
176
     1
 40
-50.0
176
     1
 90
        0
176
     1
290
     0
176
     1
290
     1
176
     1
290
     1
176
     1
290
     0
176
     1
290
     0
176
     1
290
     0
176
     1
290
     0
176
     1
290
     0
176
     1
290
     0
176
     1
 90
       50
176
     1
 40
0.0
176
     1
 40
1.0
176
     1
 90
        0
176
     1
 62
    18
420
        0
176
     1
 90
       50
176
     1
 90
        3
176
     1
 62
     5
420
      255
176
     1
290
     0
176
     1
 90
       50
176
     1
 90
       50
176
     1
 90
       50
176
     1
290
     0
176
     1
 90
       50
176
     1
 62
   256
176
     0
 40
1.0
176
     0
 90
        2
176
     1
  1
strokes_ogs.tif
176
     1
290
     0
176
     1
 40
1.0
176
     1
 40
1.0
176
     1
  0
VISUALSTYLE
  5
41
102
{ACAD_REACTORS
330
29
102
}
330
29
100
AcDbVisualStyle
  2
EdgeColorOff
 70
    22
177
     3
291
     1
 70
    58
 90
        2
176
     0
 90
        2
176
     0
 90
        0
176
     0
 90
        0
176
     0
 40
0.6
176
     0
 40
30.0
176
     0
 62
     7
420
 16777215
176
     0
 90
        1
176
     0
 90
        4
176
     0
 62
     7
176
     0
 62
   257
176
     0
 90
        1
176
     0
 90
        1
176
     0
 40
1.0
176
     0
 90
        8
176
     2
 62
     7
176
     0
 40
1.0
176
     0
 90
        1
176
     0
 90
        6
176
     0
 90
        2
176
     0
 62
     7
176
     0
 90
        5
176
     0
 90
        0
176
     0
 90
        0
176
     0
290
     0
176
     0
 90
        1
176
     0
 40
0.0
176
     0
 90
        0
176
     0
290
     0
176
     0
290
     1
176
     0
290
     1
176
     0
290
     0
176
     0
290
     0
176
     0
290
     0
176
     0
290
     0
176
     0
290
     0
176
     0
290
     0
176
     0
 90
       50
176
     0
 40
0.0
176
     0
 40
1.0
176
     0
 90
        0
176
     0
 62
    18
420
        0
176
     0
 90
       50
176
     0
 90
        3
176
     0
 62
     5
420
      255
176
     0
290
     0
176
     0
 90
       50
176
     0
 90
       50
176
     0
 90
       50
176
     0
290
     0
176
     0
 90
       50
176
     0
 62
   256
176
     0
 40
1.0
176
     0
 90
        2
176
     0
  1
strokes_ogs.tif
176
     0
290
     0
176
     0
 40
1.0
176
     0
 40
1.0
176
     0
  0
VISUALSTYLE
  5
38
102
{ACAD_REACTORS
330
29
102
}
330
29
100
AcDbVisualStyle
  2
Facepattern
 70
    15
177
     3
291
     1
 70
    58
 90
        2
176
     1
 90
        2
176
     1
 90
        0
176
     1
 90
        0
176
     1
 40
0.6
176
     1
 40
30.0
176
     1
 62
     7
420
 16777215
176
     1
 90
        1
176
     1
 90
        4
176
     1
 62
     7
176
     1
 62
   257
176
     1
 90
        1
176
     1
 90
        1
176
     1
 40
1.0
176
     1
 90
        8
176
     1
 62
     7
176
     1
 40
1.0
176
     1
 90
        1
176
     1
 90
        6
176
     1
 90
        2
176
     1
 62
     7
176
     1
 90
        5
176
     1
 90
        0
176
     1
 90
        0
176
     1
290
     0
176
     1
 90
        1
176
     1
 40
0.0
176
     1
 90
        0
176
     1
290
     0
176
     1
290
     1
176
     1
290
     1
176
     1
290
     0
176
     1
290
     0
176
     1
290
     0
176
     1
290
     0
176
     1
290
     0
176
     1
290
     0
176
     1
 90
       50
176
     1
 40
0.0
176
     1
 40
1.0
176
     1
 90
        0
176
     1
 62
    18
420
        0
176
     1
 90
       50
176
     1
 90
        3
176
     1
 62
     5
420
      255
176
     1
290
     0
176
     1
 90
       50
176
     1
 90
       50
176
     1
 90
       50
176
     1
290
     0
176
     1
 90
       50
176
     1
 62
   256
176
     0
 40
1.0
176
     0
 90
        2
176
     1
  1
strokes_ogs.tif
176
     1
290
     0
176
     1
 40
1.0
176
     1
 40
1.0
176
     1
  0
VISUALSTYLE
  5
2A
102
{ACAD_REACTORS
330
29
102
}
330
29
100
AcDbVisualStyle
  2
Flat
 70
     0
177
     3
291
     1
 70
    58
 90
        2
176
     1
 90
        1
176
     1
 90
        1
176
     1
 90
        2
176
     1
 40
0.6
176
     1
 40
30.0
176
     1
 62
     7
420
 16777215
176
     1
 90
        0
176
     1
 90
        0
176
     1
 62
     7
176
     1
 62
   257
176
     1
 90
        1
176
     1
 90
        1
176
     1
 40
1.0
176
     1
 90
        8
176
     1
 62
     7
176
     1
 40
1.0
176
     1
 90
        1
176
     1
 90
        6
176
     1
 90
        2
176
     1
 62
     7
176
     1
 90
        5
176
     1
 90
        0
176
     1
 90
        0
176
     1
290
     0
176
     1
 90
       13
176
     1
 40
0.0
176
     1
 90
        0
176
     1
290
     0
176
     1
290
     1
176
     1
290
     1
176
     1
290
     0
176
     1
290
     0
176
     1
290
     0
176
     1
290
     0
176
     1
290
     0
176
     1
290
     0
176
     1
 90
       50
176
     1
 40
0.0
176
     1
 40
1.0
176
     1
 90
        0
176
     1
 62
    18
420
        0
176
     1
 90
       50
176
     1
 90
        3
176
     1
 62
     5
420
      255
176
     1
290
     0
176
     1
 90
       50
176
     1
 90
       50
176
     1
 90
       50
176
     1
290
     0
176
     1
 90
       50
176
     1
 62
   256
176
     0
 40
1.0
176
     0
 90
        2
176
     1
  1
strokes_ogs.tif
176
     1
290
     0
176
     1
 40
1.0
176
     1
 40
1.0
176
     1
  0
VISUALSTYLE
  5
2B
102
{ACAD_REACTORS
330
29
102
}
330
29
100
AcDbVisualStyle
  2
FlatWithEdges
 70
     1
177
     3
291
     1
 70
    58
 90
        2
176
     1
 90
        1
176
     1
 90
        1
176
     1
 90
        2
176
     1
 40
0.6
176
     1
 40
30.0
176
     1
 62
     7
420
 16777215
176
     1
 90
        1
176
     1
 90
        0
176
     1
 62
     7
176
     1
 62
   257
176
     1
 90
        1
176
     1
 90
        1
176
     1
 40
1.0
176
     1
 90
        0
176
     1
 62
   257
176
     1
 40
1.0
176
     1
 90
        1
176
     1
 90
        6
176
     1
 90
        2
176
     1
 62
     7
176
     1
 90
        5
176
     1
 90
        0
176
     1
 90
        0
176
     1
290
     0
176
     1
 90
       13
176
     1
 40
0.0
176
     1
 90
        0
176
     1
290
     0
176
     1
290
     1
176
     1
290
     1
176
     1
290
     0
176
     1
290
     0
176
     1
290
     0
176
     1
290
     0
176
     1
290
     0
176
     1
290
     0
176
     1
 90
       50
176
     1
 40
0.0
176
     1
 40
1.0
176
     1
 90
        0
176
     1
 62
    18
420
        0
176
     1
 90
       50
176
     1
 90
        3
176
     1
 62
     5
420
      255
176
     1
290
     0
176
     1
 90
       50
176
     1
 90
       50
176
     1
 90
       50
176
     1
290
     0
176
     1
 90
       50
176
     1
 62
   256
176
     0
 40
1.0
176
     0
 90
        2
176
     1
  1
strokes_ogs.tif
176
     1
290
     0
176
     1
 40
1.0
176
     1
 40
1.0
176
     1
  0
VISUALSTYLE
  5
2C
102
{ACAD_REACTORS
330
29
102
}
330
29
100
AcDbVisualStyle
  2
Gouraud
 70
     2
177
     3
291
     1
 70
    58
 90
        2
176
     1
 90
        2
176
     1
 90
        1
176
     1
 90
        2
176
     1
 40
0.6
176
     1
 40
30.0
176
     1
 62
     7
420
 16777215
176
     1
 90
        0
176
     1
 90
        0
176
     1
 62
     7
176
     1
 62
   257
176
     1
 90
        1
176
     1
 90
        1
176
     1
 40
1.0
176
     1
 90
        0
176
     1
 62
     7
176
     1
 40
1.0
176
     1
 90
        1
176
     1
 90
        6
176
     1
 90
        2
176
     1
 62
     7
176
     1
 90
        5
176
     1
 90
        0
176
     1
 90
        0
176
     1
290
     0
176
     1
 90
       13
176
     1
 40
0.0
176
     1
 90
        0
176
     1
290
     0
176
     1
290
     1
176
     1
290
     1
176
     1
290
     0
176
     1
290
     0
176
     1
290
     0
176
     1
290
     0
176
     1
290
     0
176
     1
290
     0
176
     1
 90
       50
176
     1
 40
0.0
176
     1
 40
1.0
176
     1
 90
        0
176
     1
 62
    18
420
        0
176
     1
 90
       50
176
     1
 90
        3
176
     1
 62
     5
420
      255
176
     1
290
     0
176
     1
 90
       50
176
     1
 90
       50
176
     1
 90
       50
176
     1
290
     0
176
     1
 90
       50
176
     1
 62
   256
176
     0
 40
1.0
176
     0
 90
        2
176
     1
  1
strokes_ogs.tif
176
     1
290
     0
176
     1
 40
1.0
176
     1
 40
1.0
176
     1
  0
VISUALSTYLE
  5
2D
102
{ACAD_REACTORS
330
29
102
}
330
29
100
AcDbVisualStyle
  2
GouraudWithEdges
 70
     3
177
     3
291
     1
 70
    58
 90
        2
176
     1
 90
        2
176
     1
 90
        1
176
     1
 90
        2
176
     1
 40
0.6
176
     1
 40
30.0
176
     1
 62
     7
420
 16777215
176
     1
 90
        1
176
     1
 90
        0
176
     1
 62
     7
176
     1
 62
   257
176
     1
 90
        1
176
     1
 90
        1
176
     1
 40
1.0
176
     1
 90
        0
176
     1
 62
   257
176
     1
 40
1.0
176
     1
 90
        1
176
     1
 90
        6
176
     1
 90
        2
176
     1
 62
     7
176
     1
 90
        5
176
     1
 90
        0
176
     1
 90
        0
176
     1
290
     0
176
     1
 90
       13
176
     1
 40
0.0
176
     1
 90
        0
176
     1
290
     0
176
     1
290
     1
176
     1
290
     1
176
     1
290
     0
176
     1
290
     0
176
     1
290
     0
176
     1
290
     0
176
     1
290
     0
176
     1
290
     0
176
     1
 90
       50
176
     1
 40
0.0
176
     1
 40
1.0
176
     1
 90
        0
176
     1
 62
    18
420
        0
176
     1
 90
       50
176
     1
 90
        3
176
     1
 62
     5
420
      255
176
     1
290
     0
176
     1
 90
       50
176
     1
 90
       50
176
     1
 90
       50
176
     1
290
     0
176
     1
 90
       50
176
     1
 62
   256
176
     0
 40
1.0
176
     0
 90
        2
176
     1
  1
strokes_ogs.tif
176
     1
290
     0
176
     1
 40
1.0
176
     1
 40
1.0
176
     1
  0
VISUALSTYLE
  5
31
102
{ACAD_REACTORS
330
29
102
}
330
29
100
AcDbVisualStyle
  2
Hidden
 70
     6
177
     3
291
     0
 70
    58
 90
        1
176
     1
 90
        2
176
     1
 90
        2
176
     1
 90
        0
176
     1
 40
0.6
176
     1
 40
30.0
176
     1
 62
     7
420
 16777215
176
     1
 90
        2
176
     1
 90
        2
176
     1
 62
     7
176
     1
 62
   257
176
     1
 90
        2
176
     1
 90
        1
176
     1
 40
40.0
176
     1
 90
        0
176
     1
 62
   257
176
     1
 40
1.0
176
     1
 90
        1
176
     1
 90
        6
176
     1
 90
        2
176
     1
 62
     7
176
     1
 90
        3
176
     1
 90
        0
176
     1
 90
        0
176
     1
290
     0
176
     1
 90
        1
176
     1
 40
0.0
176
     1
 90
        0
176
     1
290
     0
176
     1
290
     1
176
     1
290
     1
176
     1
290
     0
176
     1
290
     0
176
     1
290
     0
176
     1
290
     0
176
     1
290
     0
176
     1
290
     0
176
     1
 90
       50
176
     1
 40
0.0
176
     1
 40
1.0
176
     1
 90
        0
176
     1
 62
    18
420
        0
176
     1
 90
       50
176
     1
 90
        3
176
     1
 62
     5
420
      255
176
     1
290
     0
176
     1
 90
       50
176
     1
 90
       50
176
     1
 90
       50
176
     1
290
     0
176
     1
 90
       50
176
     1
 62
   256
176
     0
 40
1.0
176
     0
 90
        2
176
     1
  1
strokes_ogs.tif
176
     1
290
     0
176
     1
 40
1.0
176
     1
 40
1.0
176
     1
  0
VISUALSTYLE
  5
3F
102
{ACAD_REACTORS
330
29
102
}
330
29
100
AcDbVisualStyle
  2
JitterOff
 70
    20
177
     3
291
     1
 70
    58
 90
        2
176
     0
 90
        2
176
     0
 90
        0
176
     0
 90
        0
176
     0
 40
0.6
176
     0
 40
30.0
176
     0
 62
     7
420
 16777215
176
     0
 90
        1
176
     0
 90
        4
176
     0
 62
     7
176
     0
 62
   257
176
     0
 90
        1
176
     0
 90
        1
176
     0
 40
1.0
176
     0
 90
       10
176
     2
 62
     7
176
     0
 40
1.0
176
     0
 90
        1
176
     0
 90
        6
176
     0
 90
        2
176
     0
 62
     7
176
     0
 90
        5
176
     0
 90
        0
176
     0
 90
        0
176
     0
290
     0
176
     0
 90
        1
176
     0
 40
0.0
176
     0
 90
        0
176
     0
290
     0
176
     0
290
     1
176
     0
290
     1
176
     0
290
     0
176
     0
290
     0
176
     0
290
     0
176
     0
290
     0
176
     0
290
     0
176
     0
290
     0
176
     0
 90
       50
176
     0
 40
0.0
176
     0
 40
1.0
176
     0
 90
        0
176
     0
 62
    18
420
        0
176
     0
 90
       50
176
     0
 90
        3
176
     0
 62
     5
420
      255
176
     0
290
     0
176
     0
 90
       50
176
     0
 90
       50
176
     0
 90
       50
176
     0
290
     0
176
     0
 90
       50
176
     0
 62
   256
176
     0
 40
1.0
176
     0
 90
        2
176
     0
  1
strokes_ogs.tif
176
     0
290
     0
176
     0
 40
1.0
176
     0
 40
1.0
176
     0
  0
VISUALSTYLE
  5
37
102
{ACAD_REACTORS
330
29
102
}
330
29
100
AcDbVisualStyle
  2
Linepattern
 70
    14
177
     3
291
     1
 70
    58
 90
        2
176
     1
 90
        2
176
     1
 90
        0
176
     1
 90
        0
176
     1
 40
0.6
176
     1
 40
30.0
176
     1
 62
     7
420
 16777215
176
     1
 90
        1
176
     1
 90
        4
176
     1
 62
     7
176
     1
 62
   257
176
     1
 90
        7
176
     1
 90
        7
176
     1
 40
1.0
176
     1
 90
        8
176
     1
 62
     7
176
     1
 40
1.0
176
     1
 90
        1
176
     1
 90
        6
176
     1
 90
        2
176
     1
 62
     7
176
     1
 90
        5
176
     1
 90
        0
176
     1
 90
        0
176
     1
290
     0
176
     1
 90
        1
176
     1
 40
0.0
176
     1
 90
        0
176
     1
290
     0
176
     1
290
     1
176
     1
290
     1
176
     1
290
     0
176
     1
290
     0
176
     1
290
     0
176
     1
290
     0
176
     1
290
     0
176
     1
290
     0
176
     1
 90
       50
176
     1
 40
0.0
176
     1
 40
1.0
176
     1
 90
        0
176
     1
 62
    18
420
        0
176
     1
 90
       50
176
     1
 90
        3
176
     1
 62
     5
420
      255
176
     1
290
     0
176
     1
 90
       50
176
     1
 90
       50
176
     1
 90
       50
176
     1
290
     0
176
     1
 90
       50
176
     1
 62
   256
176
     0
 40
1.0
176
     0
 90
        2
176
     1
  1
strokes_ogs.tif
176
     1
290
     0
176
     1
 40
1.0
176
     1
 40
1.0
176
     1
  0
VISUALSTYLE
  5
40
102
{ACAD_REACTORS
330
29
102
}
330
29
100
AcDbVisualStyle
  2
OverhangOff
 70
    21
177
     3
291
     1
 70
    58
 90
        2
176
     0
 90
        2
176
     0
 90
        0
176
     0
 90
        0
176
     0
 40
0.6
176
     0
 40
30.0
176
     0
 62
     7
420
 16777215
176
     0
 90
        1
176
     0
 90
        4
176
     0
 62
     7
176
     0
 62
   257
176
     0
 90
        1
176
     0
 90
        1
176
     0
 40
1.0
176
     0
 90
        9
176
     2
 62
     7
176
     0
 40
1.0
176
     0
 90
        1
176
     0
 90
        6
176
     0
 90
        2
176
     0
 62
     7
176
     0
 90
        5
176
     0
 90
        0
176
     0
 90
        0
176
     0
290
     0
176
     0
 90
        1
176
     0
 40
0.0
176
     0
 90
        0
176
     0
290
     0
176
     0
290
     1
176
     0
290
     1
176
     0
290
     0
176
     0
290
     0
176
     0
290
     0
176
     0
290
     0
176
     0
290
     0
176
     0
290
     0
176
     0
 90
       50
176
     0
 40
0.0
176
     0
 40
1.0
176
     0
 90
        0
176
     0
 62
    18
420
        0
176
     0
 90
       50
176
     0
 90
        3
176
     0
 62
     5
420
      255
176
     0
290
     0
176
     0
 90
       50
176
     0
 90
       50
176
     0
 90
       50
176
     0
290
     0
176
     0
 90
       50
176
     0
 62
   256
176
     0
 40
1.0
176
     0
 90
        2
176
     0
  1
strokes_ogs.tif
176
     0
290
     0
176
     0
 40
1.0
176
     0
 40
1.0
176
     0
  0
VISUALSTYLE
  5
33
102
{ACAD_REACTORS
330
29
102
}
330
29
100
AcDbVisualStyle
  2
Realistic
 70
     8
177
     3
291
     0
 70
    58
 90
        2
176
     1
 90
        3
176
     1
 90
        0
176
     1
 90
        2
176
     1
 40
0.6
176
     1
 40
30.0
176
     1
 62
     7
420
 16777215
176
     1
 90
        0
176
     1
 90
        0
176
     1
 62
     7
176
     1
 62
   257
176
     1
 90
        1
176
     1
 90
        1
176
     1
 40
1.0
176
     1
 90
        8
176
     1
 62
   257
176
     1
 40
1.0
176
     1
 90
        1
176
     1
 90
        6
176
     1
 90
        2
176
     1
 62
     7
176
     1
 90
        3
176
     1
 90
        0
176
     1
 90
        0
176
     1
290
     0
176
     1
 90
       13
176
     1
 40
0.0
176
     1
 90
        0
176
     1
290
     0
176
     1
290
     1
176
     1
290
     1
176
     1
290
     0
176
     1
290
     0
176
     1
290
     0
176
     1
290
     0
176
     1
290
     0
176
     1
290
     0
176
     1
 90
       50
176
     1
 40
0.0
176
     1
 40
1.0
176
     1
 90
        0
176
     1
 62
    18
420
        0
176
     1
 90
       50
176
     1
 90
        3
176
     1
 62
     5
420
      255
176
     1
290
     0
176
     1
 90
       50
176
     1
 90
       50
176
     1
 90
       50
176
     1
290
     0
176
     1
 90
       50
176
     1
 62
   256
176
     0
 40
1.0
176
     0
 90
        2
176
     1
  1
strokes_ogs.tif
176
     1
290
     0
176
     1
 40
1.0
176
     1
 40
1.0
176
     1
  0
VISUALSTYLE
  5
3E
102
{ACAD_REACTORS
330
29
102
}
330
29
100
AcDbVisualStyle
  2
Shaded
 70
    27
177
     3
291
     0
 70
    58
 90
        2
176
     1
 90
        2
176
     1
 90
        1
176
     1
 90
        2
176
     1
 40
0.6
176
     1
 40
30.0
176
     1
 62
     7
420
 16777215
176
     1
 90
        0
176
     1
 90
        4
176
     1
 62
     7
176
     1
 62
   257
176
     1
 90
        1
176
     1
 90
        1
176
     1
 40
1.0
176
     1
 90
        8
176
     1
 62
   257
176
     1
 40
1.0
176
     1
 90
        1
176
     1
 90
        6
176
     1
 90
        2
176
     1
 62
     8
420
  7895160
176
     1
 90
        3
176
     1
 90
        0
176
     1
 90
        0
176
     1
290
     0
176
     1
 90
        5
176
     1
 40
0.0
176
     1
 90
        0
176
     1
290
     0
176
     1
290
     1
176
     1
290
     1
176
     1
290
     0
176
     1
290
     0
176
     1
290
     0
176
     1
290
     0
176
     1
290
     0
176
     1
290
     0
176
     1
 90
       50
176
     1
 40
0.0
176
     1
 40
1.0
176
     1
 90
        0
176
     1
 62
    18
420
        0
176
     1
 90
       50
176
     1
 90
        3
176
     1
 62
     5
420
      255
176
     1
290
     0
176
     1
 90
       50
176
     1
 90
       50
176
     1
 90
       50
176
     1
290
     0
176
     1
 90
       50
176
     1
 62
   256
176
     0
 40
1.0
176
     0
 90
        2
176
     1
  1
strokes_ogs.tif
176
     1
290
     0
176
     1
 40
1.0
176
     1
 40
1.0
176
     1
  0
VISUALSTYLE
  5
3D
102
{ACAD_REACTORS
330
29
102
}
330
29
100
AcDbVisualStyle
  2
Shaded with edges
 70
    26
177
     3
291
     0
 70
    58
 90
        2
176
     1
 90
        2
176
     1
 90
        1
176
     1
 90
        2
176
     1
 40
0.6
176
     1
 40
30.0
176
     1
 62
     7
420
 16777215
176
     1
 90
        1
176
     1
 90
        2
176
     1
 62
     7
176
     1
 62
   257
176
     1
 90
        2
176
     1
 90
        1
176
     1
 40
1.0
176
     1
 90
        8
176
     1
 62
   257
176
     1
 40
1.0
176
     1
 90
        1
176
     1
 90
        6
176
     1
 90
        2
176
     1
 62
     7
176
     1
 90
        3
176
     1
 90
        0
176
     1
 90
        0
176
     1
290
     0
176
     1
 90
        5
176
     1
 40
0.0
176
     1
 90
        0
176
     1
290
     0
176
     1
290
     1
176
     1
290
     1
176
     1
290
     0
176
     1
290
     0
176
     1
290
     0
176
     1
290
     0
176
     1
290
     0
176
     1
290
     0
176
     1
 90
       50
176
     1
 40
0.0
176
     1
 40
1.0
176
     1
 90
        0
176
     1
 62
    18
420
        0
176
     1
 90
       50
176
     1
 90
        3
176
     1
 62
     5
420
      255
176
     1
290
     0
176
     1
 90
       50
176
     1
 90
       50
176
     1
 90
       50
176
     1
290
     0
176
     1
 90
       50
176
     1
 62
   256
176
     0
 40
1.0
176
     0
 90
        2
176
     1
  1
strokes_ogs.tif
176
     1
290
     0
176
     1
 40
1.0
176
     1
 40
1.0
176
     1
  0
VISUALSTYLE
  5
3A
102
{ACAD_REACTORS
330
29
102
}
330
29
100
AcDbVisualStyle
  2
Shades of Gray
 70
    23
177
     3
291
     0
 70
    58
 90
        2
176
     1
 90
        2
176
     1
 90
        3
176
     1
 90
        0
176
     1
 40
0.6
176
     1
 40
30.0
176
     1
 62
     7
420
 16777215
176
     1
 90
        2
176
     1
 90
        2
176
     1
 62
     7
176
     1
 62
     7
176
     1
 90
        1
176
     1
 90
        1
176
     1
 40
40.0
176
     1
 90
        8
176
     1
 62
     7
176
     1
 40
1.0
176
     1
 90
        1
176
     1
 90
        6
176
     1
 90
        2
176
     1
 62
     7
176
     1
 90
        3
176
     1
 90
        0
176
     1
 90
        0
176
     1
290
     0
176
     1
 90
        1
176
     1
 40
0.0
176
     1
 90
        0
176
     1
290
     0
176
     1
290
     1
176
     1
290
     1
176
     1
290
     0
176
     1
290
     0
176
     1
290
     0
176
     1
290
     0
176
     1
290
     0
176
     1
290
     0
176
     1
 90
       50
176
     1
 40
0.0
176
     1
 40
1.0
176
     1
 90
        0
176
     1
 62
    18
420
        0
176
     1
 90
       50
176
     1
 90
        3
176
     1
 62
     5
420
      255
176
     1
290
     0
176
     1
 90
       50
176
     1
 90
       50
176
     1
 90
       50
176
     1
290
     0
176
     1
 90
       50
176
     1
 62
   256
176
     0
 40
1.0
176
     0
 90
        2
176
     1
  1
strokes_ogs.tif
176
     1
290
     0
176
     1
 40
1.0
176
     1
 40
1.0
176
     1
  0
VISUALSTYLE
  5
3B
102
{ACAD_REACTORS
330
29
102
}
330
29
100
AcDbVisualStyle
  2
Sketchy
 70
    24
177
     3
291
     0
 70
    58
 90
        1
176
     1
 90
        2
176
     1
 90
        2
176
     1
 90
        0
176
     1
 40
0.6
176
     1
 40
30.0
176
     1
 62
     7
420
 16777215
176
     1
 90
        2
176
     1
 90
        2
176
     1
 62
     7
176
     1
 62
     7
176
     1
 90
        1
176
     1
 90
        1
176
     1
 40
40.0
176
     1
 90
       11
176
     1
 62
     7
176
     1
 40
1.0
176
     1
 90
        1
176
     1
 90
        6
176
     1
 90
        2
176
     1
 62
     7
176
     1
 90
        6
176
     1
 90
        0
176
     1
 90
        0
176
     1
290
     0
176
     1
 90
        1
176
     1
 40
0.0
176
     1
 90
        0
176
     1
290
     0
176
     1
290
     1
176
     1
290
     1
176
     1
290
     0
176
     1
290
     0
176
     1
290
     0
176
     1
290
     0
176
     1
290
     0
176
     1
290
     0
176
     1
 90
       50
176
     1
 40
0.0
176
     1
 40
1.0
176
     1
 90
        0
176
     1
 62
    18
420
        0
176
     1
 90
       50
176
     1
 90
        3
176
     1
 62
     5
420
      255
176
     1
290
     0
176
     1
 90
       50
176
     1
 90
       50
176
     1
 90
       50
176
     1
290
     0
176
     1
 90
       50
176
     1
 62
   256
176
     0
 40
1.0
176
     0
 90
        2
176
     1
  1
strokes_ogs.tif
176
     1
290
     0
176
     1
 40
1.0
176
     1
 40
1.0
176
     1
  0
VISUALSTYLE
  5
36
102
{ACAD_REACTORS
330
29
102
}
330
29
100
AcDbVisualStyle
  2
Thicken
 70
    13
177
     3
291
     1
 70
    58
 90
        2
176
     1
 90
        2
176
     1
 90
        0
176
     1
 90
        0
176
     1
 40
0.6
176
     1
 40
30.0
176
     1
 62
     7
420
 16777215
176
     1
 90
        1
176
     1
 90
        4
176
     1
 62
     7
176
     1
 62
   257
176
     1
 90
        1
176
     1
 90
        1
176
     1
 40
1.0
176
     1
 90
       12
176
     1
 62
     7
176
     1
 40
1.0
176
     1
 90
        1
176
     1
 90
        6
176
     1
 90
        2
176
     1
 62
     7
176
     1
 90
        5
176
     1
 90
        0
176
     1
 90
        0
176
     1
290
     0
176
     1
 90
        1
176
     1
 40
0.0
176
     1
 90
        0
176
     1
290
     0
176
     1
290
     1
176
     1
290
     1
176
     1
290
     0
176
     1
290
     0
176
     1
290
     0
176
     1
290
     0
176
     1
290
     0
176
     1
290
     0
176
     1
 90
       50
176
     1
 40
0.0
176
     1
 40
1.0
176
     1
 90
        0
176
     1
 62
    18
420
        0
176
     1
 90
       50
176
     1
 90
        3
176
     1
 62
     5
420
      255
176
     1
290
     0
176
     1
 90
       50
176
     1
 90
       50
176
     1
 90
       50
176
     1
290
     0
176
     1
 90
       50
176
     1
 62
   256
176
     0
 40
1.0
176
     0
 90
        2
176
     1
  1
strokes_ogs.tif
176
     1
290
     0
176
     1
 40
1.0
176
     1
 40
1.0
176
     1
  0
VISUALSTYLE
  5
30
102
{ACAD_REACTORS
330
29
102
}
330
29
100
AcDbVisualStyle
  2
Wireframe
 70
     5
177
     3
291
     0
 70
    58
 90
        0
176
     1
 90
        2
176
     1
 90
        0
176
     1
 90
        0
176
     1
 40
0.6
176
     1
 40
30.0
176
     1
 62
     7
420
 16777215
176
     1
 90
        1
176
     1
 90
        4
176
     1
 62
     7
176
     1
 62
   257
176
     1
 90
        1
176
     1
 90
        1
176
     1
 40
1.0
176
     1
 90
        0
176
     1
 62
   257
176
     1
 40
1.0
176
     1
 90
        1
176
     1
 90
        6
176
     1
 90
        2
176
     1
 62
     7
176
     1
 90
        3
176
     1
 90
        0
176
     1
 90
        0
176
     1
290
     0
176
     1
 90
        1
176
     1
 40
0.0
176
     1
 90
        0
176
     1
290
     0
176
     1
290
     1
176
     1
290
     1
176
     1
290
     0
176
     1
290
     0
176
     1
290
     0
176
     1
290
     0
176
     1
290
     0
176
     1
290
     0
176
     1
 90
       50
176
     1
 40
0.0
176
     1
 40
1.0
176
     1
 90
        0
176
     1
 62
    18
420
        0
176
     1
 90
       50
176
     1
 90
        3
176
     1
 62
     5
420
      255
176
     1
290
     0
176
     1
 90
       50
176
     1
 90
       50
176
     1
 90
       50
176
     1
290
     0
176
     1
 90
       50
176
     1
 62
   256
176
     0
 40
1.0
176
     0
 90
        2
176
     1
  1
strokes_ogs.tif
176
     1
290
     0
176
     1
 40
1.0
176
     1
 40
1.0
176
     1
  0
VISUALSTYLE
  5
3C
102
{ACAD_REACTORS
330
29
102
}
330
29
100
AcDbVisualStyle
  2
X-Ray
 70
    25
177
     3
291
     0
 70
    58
 90
        2
176
     1
 90
        2
176
     1
 90
        1
176
     1
 90
        1
176
     1
 40
0.5
176
     1
 40
30.0
176
     1
 62
     7
420
 16777215
176
     1
 90
        1
176
     1
 90
        0
176
     1
 62
     7
176
     1
 62
   257
176
     1
 90
        1
176
     1
 90
        1
176
     1
 40
1.0
176
     1
 90
        8
176
     1
 62
     7
176
     1
 40
1.0
176
     1
 90
        1
176
     1
 90
        6
176
     1
 90
        2
176
     1
 62
     7
176
     1
 90
        3
176
     1
 90
        0
176
     1
 90
        0
176
     1
290
     0
176
     1
 90
       13
176
     1
 40
0.0
176
     1
 90
        0
176
     1
290
     0
176
     1
290
     1
176
     1
290
     1
176
     1
290
     0
176
     1
290
     0
176
     1
290
     0
176
     1
290
     0
176
     1
290
     0
176
     1
290
     0
176
     1
 90
       50
176
     1
 40
0.0
176
     1
 40
1.0
176
     1
 90
        0
176
     1
 62
    18
420
        0
176
     1
 90
       50
176
     1
 90
        3
176
     1
 62
     5
420
      255
176
     1
290
     0
176
     1
 90
       50
176
     1
 90
       50
176
     1
 90
       50
176
     1
290
     0
176
     1
 90
       50
176
     1
 62
   256
176
     0
 40
1.0
176
     0
 90
        2
176
     1
  1
strokes_ogs.tif
176
     1
290
     0
176
     1
 40
1.0
176
     1
 40
1.0
176
     1
  0
DICTIONARYVAR
  5
2C5
102
{ACAD_REACTORS
330
2C0
102
}
330
2C0
100
DictionaryVariables
280
     0
  1
1:1
  0
DICTIONARYVAR
  5
2C2
102
{ACAD_REACTORS
330
2C0
102
}
330
2C0
100
DictionaryVariables
280
     0
  1
STANDARD
  0
DICTIONARYVAR
  5
2C1
102
{ACAD_REACTORS
330
2C0
102
}
330
2C0
100
DictionaryVariables
280
     0
  1
STANDARD
  0
DICTIONARYVAR
  5
2C3
102
{ACAD_REACTORS
330
2C0
102
}
330
2C0
100
DictionaryVariables
280
     0
  1
Imperial24
  0
DICTIONARYVAR
  5
2C4
102
{ACAD_REACTORS
330
2C0
102
}
330
2C0
100
DictionaryVariables
280
     0
  1
Imperial24
  0
XRECORD
  5
2BC
102
{ACAD_REACTORS
330
2B8
102
}
330
2B8
100
AcDbXrecord
280
     1
  1
BUILDING_ID
  1
Três sobrados gêmeos
  1
FLOOR_ID
  1
23033372
  0
XRECORD
  5
2BA
102
{ACAD_REACTORS
330
2B8
102
}
330
2B8
100
AcDbXrecord
280
     1
  1
-2000011
  1
Paredes
  1
-2000051
  1
Linhas
  1
-2000120
  1
Escadas
  1
-2000280
  1
Blocos de margens e carimbo
  0
XRECORD
  5
2BB
102
{ACAD_REACTORS
330
2B8
102
}
330
2B8
100
AcDbXrecord
280
     1
  1
-2000042
  1
<Linhas finas>
  1
-2000281
  1
<Linhas finas>
  1
-2000284
  1
<Projeção>
  1
-2000588
  1
Padrão de corte
  1
-2000930
  1
Marcas de corte
  1
-2000932
  1
Linhas de bocel
  1
-2000933
  1
<Acima> Linhas de bocel
  1
-2000934
  1
Contornos
  1
-2000935
  1
<Acima> Contornos
  1
-2000936
  1
Linhas do espelho
  1
-2000937
  1
<Acima> Linhas do espelho
  0
XRECORD
  5
2B9
102
{ACAD_REACTORS
330
2B8
102
}
330
2B8
100
AcDbXrecord
280
     1
  1
141734
  1
Escada montada : Espelho máximo de 190 mm a 250 mm
  1
22422765
  1
Parede básica : 40 : 40
  1
22476260
  1
Parede básica : 50 : 50
  1
22542561
  1
Parede básica : 30 : 30
  1
22554474
  1
Parede básica : 20 : 20
  1
22882467
  1
Parede básica : 60 : 60
  1
23033332
  1
SVG : A4
  0
DICTIONARY
  5
1A
330
19
100
AcDbDictionary
280
     1
281
     1
  3
BUMPTILE
360
1C
  3
DIFFUSETILE
360
1B
  3
OPACITYTILE
360
1F
  3
REFLECTIONTILE
360
1E
  3
REFRACTIONTILE
360
20
  3
SPECULARTILE
360
1D
  0
DICTIONARY
  5
12
330
11
100
AcDbDictionary
280
     1
281
     1
  3
BUMPTILE
360
14
  3
DIFFUSETILE
360
13
  3
OPACITYTILE
360
17
  3
REFLECTIONTILE
360
16
  3
REFRACTIONTILE
360
18
  3
SPECULARTILE
360
15
  0
DICTIONARY
  5
22
330
21
100
AcDbDictionary
280
     1
281
     1
  3
BUMPTILE
360
24
  3
DIFFUSETILE
360
23
  3
OPACITYTILE
360
27
  3
REFLECTIONTILE
360
26
  3
REFRACTIONTILE
360
28
  3
SPECULARTILE
360
25
  0
DICTIONARY
  5
359
330
65
100
AcDbDictionary
280
     1
281
     1
  3
ACAD_ROUNDTRIP_2008_TABLESTYLE_CELLSTYLEMAP
360
35A
  0
XRECORD
  5
1C
102
{ACAD_REACTORS
330
1A
102
}
330
1A
100
AcDbXrecord
280
     1
270
     1
271
     1
  0
XRECORD
  5
1B
102
{ACAD_REACTORS
330
1A
102
}
330
1A
100
AcDbXrecord
280
     1
270
     1
271
     1
  0
XRECORD
  5
1F
102
{ACAD_REACTORS
330
1A
102
}
330
1A
100
AcDbXrecord
280
     1
270
     1
271
     1
  0
XRECORD
  5
1E
102
{ACAD_REACTORS
330
1A
102
}
330
1A
100
AcDbXrecord
280
     1
270
     1
271
     1
  0
XRECORD
  5
20
102
{ACAD_REACTORS
330
1A
102
}
330
1A
100
AcDbXrecord
280
     1
270
     1
271
     1
  0
XRECORD
  5
1D
102
{ACAD_REACTORS
330
1A
102
}
330
1A
100
AcDbXrecord
280
     1
270
     1
271
     1
  0
XRECORD
  5
14
102
{ACAD_REACTORS
330
12
102
}
330
12
100
AcDbXrecord
280
     1
270
     1
271
     1
  0
XRECORD
  5
13
102
{ACAD_REACTORS
330
12
102
}
330
12
100
AcDbXrecord
280
     1
270
     1
271
     1
  0
XRECORD
  5
17
102
{ACAD_REACTORS
330
12
102
}
330
12
100
AcDbXrecord
280
     1
270
     1
271
     1
  0
XRECORD
  5
16
102
{ACAD_REACTORS
330
12
102
}
330
12
100
AcDbXrecord
280
     1
270
     1
271
     1
  0
XRECORD
  5
18
102
{ACAD_REACTORS
330
12
102
}
330
12
100
AcDbXrecord
280
     1
270
     1
271
     1
  0
XRECORD
  5
15
102
{ACAD_REACTORS
330
12
102
}
330
12
100
AcDbXrecord
280
     1
270
     1
271
     1
  0
XRECORD
  5
24
102
{ACAD_REACTORS
330
22
102
}
330
22
100
AcDbXrecord
280
     1
270
     1
271
     1
  0
XRECORD
  5
23
102
{ACAD_REACTORS
330
22
102
}
330
22
100
AcDbXrecord
280
     1
270
     1
271
     1
  0
XRECORD
  5
27
102
{ACAD_REACTORS
330
22
102
}
330
22
100
AcDbXrecord
280
     1
270
     1
271
     1
  0
XRECORD
  5
26
102
{ACAD_REACTORS
330
22
102
}
330
22
100
AcDbXrecord
280
     1
270
     1
271
     1
  0
XRECORD
  5
28
102
{ACAD_REACTORS
330
22
102
}
330
22
100
AcDbXrecord
280
     1
270
     1
271
     1
  0
XRECORD
  5
25
102
{ACAD_REACTORS
330
22
102
}
330
22
100
AcDbXrecord
280
     1
270
     1
271
     1
  0
CELLSTYLEMAP
  5
35A
102
{ACAD_REACTORS
330
359
102
}
330
359
100
AcDbCellStyleMap
 90
        3
300
CELLSTYLE
  1
TABLEFORMAT_BEGIN
 90
        5
170
     1
 91
        0
 92
    32768
 62
   257
 93
        1
300
CONTENTFORMAT
  1
CONTENTFORMAT_BEGIN
 90
        0
 91
        0
 92
      512
 93
        0
300

 40
0.0
140
1.0
 94
        5
 62
     0
340
55
144
0.25
309
CONTENTFORMAT_END
171
     0
 94
        0
309
TABLEFORMAT_END
  1
CELLSTYLE_BEGIN
 90
        1
 91
        1
300
_TITLE
309
CELLSTYLE_END
300
CELLSTYLE
  1
TABLEFORMAT_BEGIN
 90
        5
170
     1
 91
        0
 92
        0
 62
   257
 93
        1
300
CONTENTFORMAT
  1
CONTENTFORMAT_BEGIN
 90
        0
 91
        0
 92
      512
 93
        0
300

 40
0.0
140
1.0
 94
        5
 62
     0
340
55
144
0.18
309
CONTENTFORMAT_END
171
     0
 94
        0
309
TABLEFORMAT_END
  1
CELLSTYLE_BEGIN
 90
        2
 91
        1
300
_HEADER
309
CELLSTYLE_END
300
CELLSTYLE
  1
TABLEFORMAT_BEGIN
 90
        5
170
     1
 91
        0
 92
        0
 62
   257
 93
        1
300
CONTENTFORMAT
  1
CONTENTFORMAT_BEGIN
 90
        0
 91
        0
 92
      512
 93
        0
300

 40
0.0
140
1.0
 94
        2
 62
     0
340
55
144
0.18
309
CONTENTFORMAT_END
171
     0
 94
        0
309
TABLEFORMAT_END
  1
CELLSTYLE_BEGIN
 90
        3
 91
        2
300
_DATA
309
CELLSTYLE_END
  0
ENDSEC
  0
SECTION
  2
ACDSDATA
 70
     2
 71
     8
  0
ACDSSCHEMA
 90
        0
  1
AcDb_Thumbnail_Schema
  2
AcDbDs::ID
280
    10
 91
        8
  2
Thumbnail_Data
280
    15
 91
        0
101
ACDSRECORD
 95
        0
 90
        1
  2
AcDbDs::TreatedAsObjectData
280
     1
291
     1
101
ACDSRECORD
 95
        0
 90
        2
  2
AcDbDs::Legacy
280
     1
291
     1
101
ACDSRECORD
  1
AcDbDs::ID
 90
        3
  2
AcDs:Indexable
280
     1
291
     1
101
ACDSRECORD
  1
AcDbDs::ID
 90
        4
  2
AcDbDs::HandleAttribute
280
     7
282
     1
  0
ACDSSCHEMA
 90
        1
  1
AcDbDs::TreatedAsObjectDataSchema
  2
AcDbDs::TreatedAsObjectData
280
     1
 91
        0
  0
ACDSSCHEMA
 90
        2
  1
AcDbDs::LegacySchema
  2
AcDbDs::Legacy
280
     1
 91
        0
  0
ACDSSCHEMA
 90
        3
  1
AcDbDs::IndexedPropertySchema
  2
AcDs:Indexable
280
     1
 91
        0
  0
ACDSSCHEMA
 90
        4
  1
AcDbDs::HandleAttributeSchema
  2
AcDbDs::HandleAttribute
280
     7
 91
        1
284
     1
  0
ACDSRECORD
 90
        0
  2
AcDbDs::ID
280
    10
320
73
  2
Thumbnail_Data
280
    15
 94
     1065
310
89504E470D0A1A0A0000000D494844520000010000000065080300000095E2CD0900000300504C5445FFFFFFFFFFFFFFFFFF0000000000000000000000000000000000000000000000000000330000660000990000CC0000FF0033000033330033660033990033CC0033FF0066000066330066660066990066CC0066FF0099
310
000099330099660099990099CC0099FF00CC0000CC3300CC6600CC9900CCCC00CCFF00FF0000FF3300FF6600FF9900FFCC00FFFF3300003300333300663300993300CC3300FF3333003333333333663333993333CC3333FF3366003366333366663366993366CC3366FF3399003399333399663399993399CC3399FF33CC00
310
33CC3333CC6633CC9933CCCC33CCFF33FF0033FF3333FF6633FF9933FFCC33FFFF6600006600336600666600996600CC6600FF6633006633336633666633996633CC6633FF6666006666336666666666996666CC6666FF6699006699336699666699996699CC6699FF66CC0066CC3366CC6666CC9966CCCC66CCFF66FF0066
310
FF3366FF6666FF9966FFCC66FFFF9900009900339900669900999900CC9900FF9933009933339933669933999933CC9933FF9966009966339966669966999966CC9966FF9999009999339999669999999999CC9999FF99CC0099CC3399CC6699CC9999CCCC99CCFF99FF0099FF3399FF6699FF9999FFCC99FFFFCC0000CC00
310
33CC0066CC0099CC00CCCC00FFCC3300CC3333CC3366CC3399CC33CCCC33FFCC6600CC6633CC6666CC6699CC66CCCC66FFCC9900CC9933CC9966CC9999CC99CCCC99FFCCCC00CCCC33CCCC66CCCC99CCCCCCCCCCFFCCFF00CCFF33CCFF66CCFF99CCFFCCCCFFFFFF0000FF0033FF0066FF0099FF00CCFF00FFFF3300FF3333
310
FF3366FF3399FF33CCFF33FFFF6600FF6633FF6666FF6699FF66CCFF66FFFF9900FF9933FF9966FF9999FF99CCFF99FFFFCC00FFCC33FFCC66FFCC99FFCCCCFFCCFFFFFF00FFFF33FFFF66FFFF99FFFFCCFFFFFF0000000D0D0D1A1A1A2828283535354343435050505D5D5D6B6B6B787878868686939393A1A1A1AEAEAEBB
310
BBBBC9C9C9D6D6D6E4E4E4F1F1F1FFFFFF000000000000000000000000000000000000000000000000000000000000AD4AB4E4000000E44944415478DAEDDB410E82301440C1DEFF6C9CE29F4494A01213376E4CDE4C74C192674BB1E25A00F04FE6291B607FEFAFAD1CE01808D500D7100208208000C500E9FB80FBB94F7A
310
191440803102CAABC0180193BE0FB00CBA138C071801EA53E038F55C80F9100FB04D74EE9F87F900BD29F03D8800023402BC4E5B000104104000018201BADF06CFCFFDF18CD0B4A7C0D4AF01022403CC6B176092FB016FD7FE69EE08BD0598E88ED0B4AF019729D00CB09600C7626004944740F9A73101EC07082080000208
310
204033C0F5D9B0E28DD0F95781E368F398DC0200000000000000E06737E5B18412D49CEE000000000049454E44AE426082
  0
ACDSRECORD
 90
        0
  2
AcDbDs::ID
280
    10
320
6F
  2
Thumbnail_Data
280
    15
 94
     1475
310
89504E470D0A1A0A0000000D4948445200000100000000B5080300000087DCD12600000300504C5445FFFFFFFFFFFFFFFFFF0000000000000000000000000000000000000000000000000000330000660000990000CC0000FF0033000033330033660033990033CC0033FF0066000066330066660066990066CC0066FF0099
310
000099330099660099990099CC0099FF00CC0000CC3300CC6600CC9900CCCC00CCFF00FF0000FF3300FF6600FF9900FFCC00FFFF3300003300333300663300993300CC3300FF3333003333333333663333993333CC3333FF3366003366333366663366993366CC3366FF3399003399333399663399993399CC3399FF33CC00
310
33CC3333CC6633CC9933CCCC33CCFF33FF0033FF3333FF6633FF9933FFCC33FFFF6600006600336600666600996600CC6600FF6633006633336633666633996633CC6633FF6666006666336666666666996666CC6666FF6699006699336699666699996699CC6699FF66CC0066CC3366CC6666CC9966CCCC66CCFF66FF0066
310
FF3366FF6666FF9966FFCC66FFFF9900009900339900669900999900CC9900FF9933009933339933669933999933CC9933FF9966009966339966669966999966CC9966FF9999009999339999669999999999CC9999FF99CC0099CC3399CC6699CC9999CCCC99CCFF99FF0099FF3399FF6699FF9999FFCC99FFFFCC0000CC00
310
33CC0066CC0099CC00CCCC00FFCC3300CC3333CC3366CC3399CC33CCCC33FFCC6600CC6633CC6666CC6699CC66CCCC66FFCC9900CC9933CC9966CC9999CC99CCCC99FFCCCC00CCCC33CCCC66CCCC99CCCCCCCCCCFFCCFF00CCFF33CCFF66CCFF99CCFFCCCCFFFFFF0000FF0033FF0066FF0099FF00CCFF00FFFF3300FF3333
310
FF3366FF3399FF33CCFF33FFFF6600FF6633FF6666FF6699FF66CCFF66FFFF9900FF9933FF9966FF9999FF99CCFF99FFFFCC00FFCC33FFCC66FFCC99FFCCCCFFCCFFFFFF00FFFF33FFFF66FFFF99FFFFCCFFFFFF0000000D0D0D1A1A1A2828283535354343435050505D5D5D6B6B6B787878868686939393A1A1A1AEAEAEBB
310
BBBBC9C9C9D6D6D6E4E4E4F1F1F1FFFFFF000000000000000000000000000000000000000000000000000000000000AD4AB4E40000027E4944415478DAEDDDE16DC2301086616F7C83750726F000F97D3F1143B48E4DE2404C231535E2BEF754455622A07EB02FC13826D9C9E17EBDBA9FB6BD254BA7C6C92F9F0000000000
310
000000000076E3EB8DF19900EF7B1D008202F87E0801E49C4B8DCD976DD9230630D7C3CA5FBF470C60A9892E40D204784A796A49D00FEE04000000000000000000000000000000202EC05443B80508026C878227BD2E708F3A0EA6DB0500C8AA5D801600005D600570176E0197122E9F0465014C1CC03CA9035C6A8826414B
310
AD05E88E077806000000240136032282F304B743628A0007770200000031014CBE051800EA39C06801007016E03AC0B401CCB45B80A97481C14D822673DFA0D77B047F8BB8374DED57EDA957000040E4247800207012F463CF0900000000000000000000407080E185B10C4006000000000000000000000000000000000000
310
04015C6B61E55D80F23B39D6D6555E8A5A5DA04D912A47DBDACA9A39603D0A000000000000000000000000E100BAAAD90820F874F9FBBF6DC94600B1274B77F7489822405D2EAFAE1634E901FC547A2E5CE6AD22402BBC06089C040F01443E0DB685A35FE780D000F31B2F7C2154DF78008401E80274811E206DD6CFD0F838
310
3CA50D80A9B7007500931C115A018CB3401B1C59BE13AE459916B0CC0F68B3026A31F4A7C1871630C75C5E8B39C71E10D97601C92932A32BC1BD742875290C800000F304010000000000000000000000203D0D8909028C1EAA03E0460B008024C86950096053B50180C654D95700E1D715B6318009009469D2B60258B7B47E
310
39141EC0BA05E573F76DE03283DA83AF2C7D2C8202FC250000E02301DE181F09F01F0100000000000000000000C0790027C7F5DCB8A59B787C03274BE4067BF616430000000049454E44AE426082
  0
ENDSEC
  0
EOF
