  0
SECTION
  2
HEADER
  9
$ACADVER
  1
AC1032
  9
$ACADMAINTVER
 90
      204
  9
$DWGCODEPAGE
  3
ANSI_1252
  9
$LASTSAVEDBY
  1
duda-
  9
$REQUIREDVERSIONS
160
                 0
  9
$INSBASE
 10
0.0
 20
0.0
 30
0.0
  9
$EXTMIN
 10
42685.8812777622
 20
-54200.91146887553
 30
0.0
  9
$EXTMAX
 10
47945.88127776226
 20
-29880.91146887547
 30
0.0
  9
$LIMMIN
 10
0.0
 20
0.0
  9
$LIMMAX
 10
12.0
 20
9.0
  9
$ORTHOMODE
 70
     0
  9
$REGENMODE
 70
     1
  9
$FILLMODE
 70
     1
  9
$QTEXTMODE
 70
     0
  9
$MIRRTEXT
 70
     0
  9
$LTSCALE
 40
1.0
  9
$ATTMODE
 70
     1
  9
$TEXTSIZE
 40
0.2
  9
$TRACEWID
 40
0.05
  9
$TEXTSTYLE
  7
Standard
  9
$CLAYER
  8
0
  9
$CELTYPE
  6
ByLayer
  9
$CECOLOR
 62
   256
  9
$CELTSCALE
 40
1.0
  9
$DISPSILH
 70
     0
  9
$DIMSCALE
 40
1.0
  9
$DIMASZ
 40
0.18
  9
$DIMEXO
 40
0.0625
  9
$DIMDLI
 40
0.38
  9
$DIMRND
 40
0.0
  9
$DIMDLE
 40
0.0
  9
$DIMEXE
 40
0.18
  9
$DIMTP
 40
0.0
  9
$DIMTM
 40
0.0
  9
$DIMTXT
 40
0.18
  9
$DIMCEN
 40
0.09
  9
$DIMTSZ
 40
0.0
  9
$DIMTOL
 70
     0
  9
$DIMLIM
 70
     0
  9
$DIMTIH
 70
     1
  9
$DIMTOH
 70
     1
  9
$DIMSE1
 70
     0
  9
$DIMSE2
 70
     0
  9
$DIMTAD
 70
     0
  9
$DIMZIN
 70
     0
  9
$DIMBLK
  1

  9
$DIMASO
 70
     1
  9
$DIMSHO
 70
     1
  9
$DIMPOST
  1

  9
$DIMAPOST
  1

  9
$DIMALT
 70
     0
  9
$DIMALTD
 70
     2
  9
$DIMALTF
 40
25.4
  9
$DIMLFAC
 40
1.0
  9
$DIMTOFL
 70
     0
  9
$DIMTVP
 40
0.0
  9
$DIMTIX
 70
     0
  9
$DIMSOXD
 70
     0
  9
$DIMSAH
 70
     0
  9
$DIMBLK1
  1

  9
$DIMBLK2
  1

  9
$DIMSTYLE
  2
Standard
  9
$DIMCLRD
 70
     0
  9
$DIMCLRE
 70
     0
  9
$DIMCLRT
 70
     0
  9
$DIMTFAC
 40
1.0
  9
$DIMGAP
 40
0.09
  9
$DIMJUST
 70
     0
  9
$DIMSD1
 70
     0
  9
$DIMSD2
 70
     0
  9
$DIMTOLJ
 70
     1
  9
$DIMTZIN
 70
     0
  9
$DIMALTZ
 70
     0
  9
$DIMALTTZ
 70
     0
  9
$DIMUPT
 70
     0
  9
$DIMDEC
 70
     4
  9
$DIMTDEC
 70
     4
  9
$DIMALTU
 70
     2
  9
$DIMALTTD
 70
     2
  9
$DIMTXSTY
  7
Standard
  9
$DIMAUNIT
 70
     0
  9
$DIMADEC
 70
     0
  9
$DIMALTRND
 40
0.0
  9
$DIMAZIN
 70
     0
  9
$DIMDSEP
 70
    46
  9
$DIMATFIT
 70
     3
  9
$DIMFRAC
 70
     0
  9
$DIMLDRBLK
  1

  9
$DIMLUNIT
 70
     2
  9
$DIMLWD
 70
    -2
  9
$DIMLWE
 70
    -2
  9
$DIMTMOVE
 70
     0
  9
$DIMFXL
 40
1.0
  9
$DIMFXLON
 70
     0
  9
$DIMJOGANG
 40
0.7853981633974483
  9
$DIMTFILL
 70
     0
  9
$DIMTFILLCLR
 70
     0
  9
$DIMARCSYM
 70
     0
  9
$DIMLTYPE
  6

  9
$DIMLTEX1
  6

  9
$DIMLTEX2
  6

  9
$DIMTXTDIRECTION
 70
     0
  9
$LUNITS
 70
     2
  9
$LUPREC
 70
     4
  9
$SKETCHINC
 40
0.1
  9
$FILLETRAD
 40
0.0
  9
$AUNITS
 70
     0
  9
$AUPREC
 70
     0
  9
$MENU
  1
.
  9
$ELEVATION
 40
0.0
  9
$PELEVATION
 40
0.0
  9
$THICKNESS
 40
0.0
  9
$LIMCHECK
 70
     0
  9
$CHAMFERA
 40
0.0
  9
$CHAMFERB
 40
0.0
  9
$CHAMFERC
 40
0.0
  9
$CHAMFERD
 40
0.0
  9
$SKPOLY
 70
     0
  9
$TDCREATE
 40
2460730.600671297
  9
$TDUCREATE
 40
2460730.725671297
  9
$TDUPDATE
 40
2460738.998865741
  9
$TDUUPDATE
 40
2460739.123865741
  9
$TDINDWG
 40
0.0243750000
  9
$TDUSRTIMER
 40
0.0243750000
  9
$USRTIMER
 70
     1
  9
$ANGBASE
 50
0.0
  9
$ANGDIR
 70
     0
  9
$PDMODE
 70
     0
  9
$PDSIZE
 40
0.0
  9
$PLINEWID
 40
0.0
  9
$SPLFRAME
 70
     0
  9
$SPLINETYPE
 70
     6
  9
$SPLINESEGS
 70
     8
  9
$HANDSEED
  5
320
  9
$SURFTAB1
 70
     6
  9
$SURFTAB2
 70
     6
  9
$SURFTYPE
 70
     6
  9
$SURFU
 70
     6
  9
$SURFV
 70
     6
  9
$UCSBASE
  2

  9
$UCSNAME
  2

  9
$UCSORG
 10
0.0
 20
0.0
 30
0.0
  9
$UCSXDIR
 10
1.0
 20
0.0
 30
0.0
  9
$UCSYDIR
 10
0.0
 20
1.0
 30
0.0
  9
$UCSORTHOREF
  2

  9
$UCSORTHOVIEW
 70
     0
  9
$UCSORGTOP
 10
0.0
 20
0.0
 30
0.0
  9
$UCSORGBOTTOM
 10
0.0
 20
0.0
 30
0.0
  9
$UCSORGLEFT
 10
0.0
 20
0.0
 30
0.0
  9
$UCSORGRIGHT
 10
0.0
 20
0.0
 30
0.0
  9
$UCSORGFRONT
 10
0.0
 20
0.0
 30
0.0
  9
$UCSORGBACK
 10
0.0
 20
0.0
 30
0.0
  9
$PUCSBASE
  2

  9
$PUCSNAME
  2

  9
$PUCSORG
 10
0.0
 20
0.0
 30
0.0
  9
$PUCSXDIR
 10
1.0
 20
0.0
 30
0.0
  9
$PUCSYDIR
 10
0.0
 20
1.0
 30
0.0
  9
$PUCSORTHOREF
  2

  9
$PUCSORTHOVIEW
 70
     0
  9
$PUCSORGTOP
 10
0.0
 20
0.0
 30
0.0
  9
$PUCSORGBOTTOM
 10
0.0
 20
0.0
 30
0.0
  9
$PUCSORGLEFT
 10
0.0
 20
0.0
 30
0.0
  9
$PUCSORGRIGHT
 10
0.0
 20
0.0
 30
0.0
  9
$PUCSORGFRONT
 10
0.0
 20
0.0
 30
0.0
  9
$PUCSORGBACK
 10
0.0
 20
0.0
 30
0.0
  9
$USERI1
 70
     0
  9
$USERI2
 70
     0
  9
$USERI3
 70
     0
  9
$USERI4
 70
     0
  9
$USERI5
 70
     0
  9
$USERR1
 40
0.0
  9
$USERR2
 40
0.0
  9
$USERR3
 40
0.0
  9
$USERR4
 40
0.0
  9
$USERR5
 40
0.0
  9
$WORLDVIEW
 70
     1
  9
$SHADEDGE
 70
     3
  9
$SHADEDIF
 70
    70
  9
$TILEMODE
 70
     1
  9
$MAXACTVP
 70
    64
  9
$PINSBASE
 10
0.0
 20
0.0
 30
0.0
  9
$PLIMCHECK
 70
     0
  9
$PEXTMIN
 10
64.27901684485153
 20
59.47287840171589
 30
-0.0015258207003583
  9
$PEXTMAX
 10
274.3012221009852
 20
356.5108803466415
 30
0.0000000349246037
  9
$PLIMMIN
 10
64.27901684485153
 20
59.47287840171589
  9
$PLIMMAX
 10
484.5984757423225
 20
356.6684553999278
  9
$UNITMODE
 70
     0
  9
$VISRETAIN
 70
     1
  9
$PLINEGEN
 70
     0
  9
$PSLTSCALE
 70
     0
  9
$TREEDEPTH
 70
  3020
  9
$CMLSTYLE
  2
Standard
  9
$CMLJUST
 70
     0
  9
$CMLSCALE
 40
1.0
  9
$PROXYGRAPHICS
 70
     1
  9
$MEASUREMENT
 70
     1
  9
$CELWEIGHT
370
    -1
  9
$ENDCAPS
280
     0
  9
$JOINSTYLE
280
     0
  9
$LWDISPLAY
290
     0
  9
$INSUNITS
 70
     4
  9
$HYPERLINKBASE
  1

  9
$STYLESHEET
  1

  9
$XEDIT
290
     1
  9
$CEPSNTYPE
380
     0
  9
$PSTYLEMODE
290
     1
  9
$FINGERPRINTGUID
  2
{1642CD92-889A-1D49-BC0A-42F5CC59CC8A}
  9
$VERSIONGUID
  2
{F308945E-689E-7042-9CFF-3BDD38EC70E3}
  9
$EXTNAMES
290
     1
  9
$PSVPSCALE
 40
0.0
  9
$OLESTARTUP
290
     0
  9
$SORTENTS
280
   127
  9
$INDEXCTL
280
     0
  9
$HIDETEXT
280
     1
  9
$XCLIPFRAME
280
     2
  9
$HALOGAP
280
     0
  9
$OBSCOLOR
 70
   257
  9
$OBSLTYPE
280
     0
  9
$INTERSECTIONDISPLAY
280
     0
  9
$INTERSECTIONCOLOR
 70
   257
  9
$DIMASSOC
280
     2
  9
$PROJECTNAME
  1

  9
$CAMERADISPLAY
290
     0
  9
$LENSLENGTH
 40
50.0
  9
$CAMERAHEIGHT
 40
0.0
  9
$STEPSPERSEC
 40
2.0
  9
$STEPSIZE
 40
6.0
  9
$3DDWFPREC
 40
2.0
  9
$PSOLWIDTH
 40
0.25
  9
$PSOLHEIGHT
 40
4.0
  9
$LOFTANG1
 40
1.570796326794896
  9
$LOFTANG2
 40
1.570796326794896
  9
$LOFTMAG1
 40
0.0
  9
$LOFTMAG2
 40
0.0
  9
$LOFTPARAM
 70
     7
  9
$LOFTNORMALS
280
     1
  9
$LATITUDE
 40
0.0
  9
$LONGITUDE
 40
0.0
  9
$NORTHDIRECTION
 40
0.0
  9
$TIMEZONE
 70
     0
  9
$LIGHTGLYPHDISPLAY
280
     1
  9
$TILEMODELIGHTSYNCH
280
     1
  9
$CMATERIAL
347
11
  9
$SOLIDHIST
280
     0
  9
$SHOWHIST
280
     1
  9
$DWFFRAME
280
     2
  9
$DGNFRAME
280
     0
  9
$REALWORLDSCALE
290
     1
  9
$INTERFERECOLOR
 62
     1
  9
$INTERFEREOBJVS
345
33
  9
$INTERFEREVPVS
346
30
  9
$CSHADOW
280
     0
  9
$SHADOWPLANELOCATION
 40
0.0
  0
ENDSEC
  0
SECTION
  2
CLASSES
  0
CLASS
  1
ACDBDICTIONARYWDFLT
  2
AcDbDictionaryWithDefault
  3
ObjectDBX Classes
 90
        0
 91
        1
280
     0
281
     0
  0
CLASS
  1
MATERIAL
  2
AcDbMaterial
  3
ObjectDBX Classes
 90
     1153
 91
        3
280
     0
281
     0
  0
CLASS
  1
VISUALSTYLE
  2
AcDbVisualStyle
  3
ObjectDBX Classes
 90
     4095
 91
       24
280
     0
281
     0
  0
CLASS
  1
SCALE
  2
AcDbScale
  3
ObjectDBX Classes
 90
     1153
 91
       17
280
     0
281
     0
  0
CLASS
  1
TABLESTYLE
  2
AcDbTableStyle
  3
ObjectDBX Classes
 90
     4095
 91
        1
280
     0
281
     0
  0
CLASS
  1
MLEADERSTYLE
  2
AcDbMLeaderStyle
  3
ACDB_MLEADERSTYLE_CLASS
 90
     4095
 91
        1
280
     0
281
     0
  0
CLASS
  1
ACDBSECTIONVIEWSTYLE
  2
AcDbSectionViewStyle
  3
ObjectDBX Classes
 90
     1025
 91
        2
280
     0
281
     0
  0
CLASS
  1
ACDBDETAILVIEWSTYLE
  2
AcDbDetailViewStyle
  3
ObjectDBX Classes
 90
     1025
 91
        2
280
     0
281
     0
  0
CLASS
  1
RASTERVARIABLES
  2
AcDbRasterVariables
  3
ISM
 90
        0
 91
        1
280
     0
281
     0
  0
CLASS
  1
DICTIONARYVAR
  2
AcDbDictionaryVar
  3
ObjectDBX Classes
 90
        0
 91
        5
280
     0
281
     0
  0
CLASS
  1
SORTENTSTABLE
  2
AcDbSortentsTable
  3
ObjectDBX Classes
 90
        0
 91
        1
280
     0
281
     0
  0
CLASS
  1
SUN
  2
AcDbSun
  3
SCENEOE
 90
     1153
 91
        1
280
     0
281
     0
  0
CLASS
  1
RAPIDRTRENDERSETTINGS
  2
AcDbRapidRTRenderSettings
  3
ObjectDBX Classes
 90
     1024
 91
        7
280
     0
281
     0
  0
CLASS
  1
CELLSTYLEMAP
  2
AcDbCellStyleMap
  3
ObjectDBX Classes
 90
     1152
 91
        1
280
     0
281
     0
  0
ENDSEC
  0
SECTION
  2
TABLES
  0
TABLE
  2
VPORT
  5
8
330
0
100
AcDbSymbolTable
 70
     1
  0
VPORT
  5
57
330
8
100
AcDbSymbolTableRecord
100
AcDbViewportTableRecord
  2
*Active
 70
     0
 10
0.0
 20
0.0
 11
1.0
 21
1.0
 12
42388.90442567901
 22
-46427.55608990394
 13
0.0
 23
0.0
 14
1.0
 24
1.0
 15
0.0
 25
0.0
 16
0.0
 26
0.0
 36
1.0
 17
0.0
 27
0.0
 37
0.0
 40
39661.36205156651
 41
2.531208499335989
 42
50.0
 43
0.0
 44
0.0
 50
0.0
 51
0.0
 71
     0
 72
  1000
 73
     1
 74
     1
 75
     0
 76
     0
 77
     0
 78
     0
281
     0
 65
     1
110
0.0
120
0.0
130
0.0
111
1.0
121
0.0
131
0.0
112
0.0
122
1.0
132
0.0
 79
     0
146
0.0
348
2F
 60
     3
 61
     5
292
     1
282
     1
141
0.0
142
0.0
 63
   250
421
  3355443
361
269
1001
ACAD_NAV_VCDISPLAY
1070
     3
  0
ENDTAB
  0
TABLE
  2
LTYPE
  5
5
330
0
100
AcDbSymbolTable
 70
     2
  0
LTYPE
  5
5B
330
5
100
AcDbSymbolTableRecord
100
AcDbLinetypeTableRecord
  2
ByBlock
 70
     0
  3

 72
    65
 73
     0
 40
0.0
  0
LTYPE
  5
5C
330
5
100
AcDbSymbolTableRecord
100
AcDbLinetypeTableRecord
  2
ByLayer
 70
     0
  3

 72
    65
 73
     0
 40
0.0
  0
LTYPE
  5
5D
330
5
100
AcDbSymbolTableRecord
100
AcDbLinetypeTableRecord
  2
Continuous
 70
     0
  3
Solid line
 72
    65
 73
     0
 40
0.0
  0
LTYPE
  5
84
330
5
100
AcDbSymbolTableRecord
100
AcDbLinetypeTableRecord
  2
Projeção
 70
     0
  3

 72
    65
 73
     2
 40
396.875
 49
238.125
 74
     0
 49
-158.7499999999999
 74
     0
  0
ENDTAB
  0
TABLE
  2
LAYER
  5
2
102
{ACAD_XDICTIONARY
360
286
102
}
330
0
100
AcDbSymbolTable
 70
    10
  0
LAYER
  5
54
330
2
100
AcDbSymbolTableRecord
100
AcDbLayerTableRecord
  2
0
 70
     0
 62
   250
  6
Continuous
370
    25
390
F
347
21
348
0
  0
LAYER
  5
82
330
2
100
AcDbSymbolTableRecord
100
AcDbLayerTableRecord
  2
A-JAN-___-___-EXI
 70
     0
 62
   250
  6
Continuous
370
    25
390
F
347
21
348
0
  0
LAYER
  5
85
330
2
100
AcDbSymbolTableRecord
100
AcDbLayerTableRecord
  2
A-ESC-___-___-EXI
 70
     0
 62
   250
  6
Continuous
370
    25
390
F
347
21
348
0
  0
LAYER
  5
14C
330
2
100
AcDbSymbolTableRecord
100
AcDbLayerTableRecord
  2
A-ALV-___-___-EXI
 70
     0
 62
   250
  6
Continuous
370
    35
390
F
347
21
348
0
  0
LAYER
  5
1CB
330
2
100
AcDbSymbolTableRecord
100
AcDbLayerTableRecord
  2
A-VIG-___-___-EXI
 70
     0
 62
   250
  6
Projeção
370
    25
390
F
347
21
348
0
  0
LAYER
  5
225
330
2
100
AcDbSymbolTableRecord
100
AcDbLayerTableRecord
  2
A-POR-___-___-EXI
 70
     0
 62
   250
  6
Continuous
370
    25
390
F
347
21
348
0
  0
LAYER
  5
24F
330
2
100
AcDbSymbolTableRecord
100
AcDbLayerTableRecord
  2
A-PIL-___-___-EXI
 70
     0
 62
   250
  6
Projeção
370
    25
390
F
347
21
348
0
  0
LAYER
  5
252
330
2
100
AcDbSymbolTableRecord
100
AcDbLayerTableRecord
  2
A-PIS-___-___-EXI
 70
     0
 62
   250
  6
Continuous
370
    25
390
F
347
21
348
0
  0
LAYER
  5
258
330
2
100
AcDbSymbolTableRecord
100
AcDbLayerTableRecord
  2
A-MOD-___-___-EXI
 70
     0
 62
   250
  6
Continuous
370
    25
390
F
347
21
348
0
  0
LAYER
  5
25A
330
2
100
AcDbSymbolTableRecord
100
AcDbLayerTableRecord
  2
A-COB-___-___-EXI
 70
     0
 62
   250
  6
Continuous
370
    25
390
F
347
21
348
0
  0
ENDTAB
  0
TABLE
  2
STYLE
  5
3
330
0
100
AcDbSymbolTable
 70
     2
  0
STYLE
  5
55
330
3
100
AcDbSymbolTableRecord
100
AcDbTextStyleTableRecord
  2
Standard
 70
     0
 40
0.0
 41
1.0
 50
0.0
 71
     0
 42
0.2
  3
txt
  4

  0
STYLE
  5
5A
330
3
100
AcDbSymbolTableRecord
100
AcDbTextStyleTableRecord
  2
Annotative
 70
     0
 40
0.0
 41
1.0
 50
0.0
 71
     0
 42
0.2
  3
txt
  4

1001
AcadAnnotative
1000
AnnotativeData
1002
{
1070
     1
1070
     1
1002
}
  0
ENDTAB
  0
TABLE
  2
VIEW
  5
6
330
0
100
AcDbSymbolTable
 70
     0
  0
ENDTAB
  0
TABLE
  2
UCS
  5
7
330
0
100
AcDbSymbolTable
 70
     0
  0
ENDTAB
  0
TABLE
  2
APPID
  5
9
330
0
100
AcDbSymbolTable
 70
     6
  0
APPID
  5
56
330
9
100
AcDbSymbolTableRecord
100
AcDbRegAppTableRecord
  2
ACAD
 70
     0
  0
APPID
  5
5E
330
9
100
AcDbSymbolTableRecord
100
AcDbRegAppTableRecord
  2
AcadAnnotative
 70
     0
  0
APPID
  5
78
330
9
100
AcDbSymbolTableRecord
100
AcDbRegAppTableRecord
  2
REVIT
 70
     0
  0
APPID
  5
279
330
9
100
AcDbSymbolTableRecord
100
AcDbRegAppTableRecord
  2
ACAD_PSEXT
 70
     0
  0
APPID
  5
2BA
330
9
100
AcDbSymbolTableRecord
100
AcDbRegAppTableRecord
  2
ACAD_NAV_VCDISPLAY
 70
     0
  0
APPID
  5
2C2
330
9
100
AcDbSymbolTableRecord
100
AcDbRegAppTableRecord
  2
ACAD_EXEMPT_FROM_CAD_STANDARDS
 70
     0
  0
ENDTAB
  0
TABLE
  2
DIMSTYLE
  5
A
330
0
100
AcDbSymbolTable
 70
     2
100
AcDbDimStyleTable
 71
     0
  0
DIMSTYLE
105
58
330
A
100
AcDbSymbolTableRecord
100
AcDbDimStyleTableRecord
  2
Standard
 70
     0
340
55
  0
DIMSTYLE
105
59
330
A
100
AcDbSymbolTableRecord
100
AcDbDimStyleTableRecord
  2
Annotative
 70
     0
340
55
1001
AcadAnnotative
1000
AnnotativeData
1002
{
1070
     1
1070
     1
1002
}
  0
ENDTAB
  0
TABLE
  2
BLOCK_RECORD
  5
1
330
0
100
AcDbSymbolTable
 70
     1
  0
BLOCK_RECORD
  5
70
102
{ACAD_XDICTIONARY
360
267
102
}
330
1
100
AcDbSymbolTableRecord
100
AcDbBlockTableRecord
  2
*Model_Space
340
73
 70
     0
280
     1
281
     0
  0
BLOCK_RECORD
  5
6C
330
1
100
AcDbSymbolTableRecord
100
AcDbBlockTableRecord
  2
*Paper_Space
340
6F
 70
     0
280
     1
281
     0
  0
BLOCK_RECORD
  5
259
330
1
100
AcDbSymbolTableRecord
100
AcDbBlockTableRecord
  2
SVG - A4-23033332-Não nomeada
340
0
102
{BLKREFS
331
261
102
}
 70
     0
280
     1
281
     0
  0
ENDTAB
  0
ENDSEC
  0
SECTION
  2
BLOCKS
  0
BLOCK
  5
71
330
70
100
AcDbEntity
  8
0
100
AcDbBlockBegin
  2
*Model_Space
 70
     0
 10
0.0
 20
0.0
 30
0.0
  3
*Model_Space
  1

  0
ENDBLK
  5
72
330
70
100
AcDbEntity
  8
0
100
AcDbBlockEnd
  0
BLOCK
  5
6D
330
6C
100
AcDbEntity
 67
     1
  8
0
100
AcDbBlockBegin
  2
*Paper_Space
 70
     0
 10
0.0
 20
0.0
 30
0.0
  3
*Paper_Space
  1

  0
ENDBLK
  5
6E
330
6C
100
AcDbEntity
 67
     1
  8
0
100
AcDbBlockEnd
  0
BLOCK
  5
25F
330
259
100
AcDbEntity
  8
0
100
AcDbBlockBegin
  2
SVG - A4-23033332-Não nomeada
 70
     0
 10
0.0
 20
0.0
 30
0.0
  3
SVG - A4-23033332-Não nomeada
  1

  0
LINE
  5
25B
330
259
100
AcDbEntity
  8
A-COB-___-___-EXI
100
AcDbLine
 10
64.29285070883699
 20
356.4999999999859
 30
0.0
 11
64.29285070883699
 21
59.49999999998593
 31
0.0
1001
REVIT
1002
{
1070
     1
1000
23033383
1002
}
1002
{
1070
     5
1000
23033332
1002
}
1002
{
1070
     3
1000
-2000281
1002
}
  0
LINE
  5
25C
330
259
100
AcDbEntity
  8
A-COB-___-___-EXI
100
AcDbLine
 10
64.29285070883699
 20
59.49999999998593
 30
0.0
 11
274.292850708837
 21
59.49999999998593
 31
0.0
1001
REVIT
1002
{
1070
     1
1000
23033383
1002
}
1002
{
1070
     5
1000
23033332
1002
}
1002
{
1070
     3
1000
-2000281
1002
}
  0
LINE
  5
25D
330
259
100
AcDbEntity
  8
A-COB-___-___-EXI
100
AcDbLine
 10
274.292850708837
 20
59.49999999998593
 30
0.0
 11
274.292850708837
 21
356.4999999999859
 31
0.0
1001
REVIT
1002
{
1070
     1
1000
23033383
1002
}
1002
{
1070
     5
1000
23033332
1002
}
1002
{
1070
     3
1000
-2000281
1002
}
  0
LINE
  5
25E
330
259
100
AcDbEntity
  8
A-COB-___-___-EXI
100
AcDbLine
 10
274.292850708837
 20
356.4999999999859
 30
0.0
 11
64.29285070883699
 21
356.4999999999859
 31
0.0
1001
REVIT
1002
{
1070
     1
1000
23033383
1002
}
1002
{
1070
     5
1000
23033332
1002
}
1002
{
1070
     3
1000
-2000281
1002
}
  0
ENDBLK
  5
260
330
259
100
AcDbEntity
  8
0
100
AcDbBlockEnd
  0
ENDSEC
  0
SECTION
  2
ENTITIES
  0
HATCH
  5
8A
330
70
100
AcDbEntity
  8
A-ALV-___-___-EXI
 62
    11
100
AcDbHatch
 10
0.0
 20
0.0
 30
0.0
210
0.0
220
0.0
230
1.0
  2
SOLID
 70
     1
 71
     0
 91
        1
 92
        1
 93
        4
 72
     1
 10
43365.88127776215
 20
-54200.91146887553
 11
43365.88127776215
 21
-54050.91146887553
 72
     1
 10
43365.88127776215
 20
-54050.91146887553
 11
42835.8812777622
 21
-54050.91146887552
 72
     1
 10
42835.8812777622
 20
-54050.91146887552
 11
42835.8812777622
 21
-54200.91146887553
 72
     1
 10
42835.8812777622
 20
-54200.91146887553
 11
43365.88127776215
 21
-54200.91146887553
 97
        0
 75
     0
 76
     1
 98
        1
 10
0.0
 20
0.0
450
        0
451
        0
460
0.0
461
0.0
452
        0
462
0.0
453
        0
470

1001
REVIT
1002
{
1070
     1
1000
22922112
1002
}
1002
{
1070
     5
1000
3324767
1002
}
1002
{
1070
     2
1000
-2000011
1002
}
1002
{
1070
     3
1000
-2000588
1002
}
  0
HATCH
  5
8F
330
70
100
AcDbEntity
  8
A-ALV-___-___-EXI
 62
    11
100
AcDbHatch
 10
0.0
 20
0.0
 30
0.0
210
0.0
220
0.0
230
1.0
  2
SOLID
 70
     1
 71
     0
 91
        1
 92
        1
 93
        4
 72
     1
 10
47795.88127776221
 20
-54050.91146887553
 11
47945.88127776221
 21
-54050.91146887553
 72
     1
 10
47945.88127776221
 20
-54050.91146887553
 11
47945.88127776222
 21
-53560.91146887552
 72
     1
 10
47945.88127776222
 20
-53560.91146887552
 11
47795.88127776221
 21
-53560.91146887552
 72
     1
 10
47795.88127776221
 20
-53560.91146887552
 11
47795.88127776221
 21
-54050.91146887553
 97
        0
 75
     0
 76
     1
 98
        1
 10
0.0
 20
0.0
450
        0
451
        0
460
0.0
461
0.0
452
        0
462
0.0
453
        0
470

1001
REVIT
1002
{
1070
     1
1000
22922113
1002
}
1002
{
1070
     5
1000
3324767
1002
}
1002
{
1070
     2
1000
-2000011
1002
}
1002
{
1070
     3
1000
-2000588
1002
}
  0
HATCH
  5
94
330
70
100
AcDbEntity
  8
A-ALV-___-___-EXI
 62
    11
100
AcDbHatch
 10
0.0
 20
0.0
 30
0.0
210
0.0
220
0.0
230
1.0
  2
SOLID
 70
     1
 71
     0
 91
        1
 92
        1
 93
        4
 72
     1
 10
44855.8812777622
 20
-39070.91146887552
 11
47795.88127776221
 21
-39070.91146887551
 72
     1
 10
47795.88127776221
 20
-39070.91146887551
 11
47795.88127776221
 21
-38920.91146887549
 72
     1
 10
47795.88127776221
 20
-38920.91146887549
 11
44855.8812777622
 21
-38920.91146887551
 72
     1
 10
44855.8812777622
 20
-38920.91146887551
 11
44855.8812777622
 21
-39070.91146887552
 97
        0
 75
     0
 76
     1
 98
        1
 10
0.0
 20
0.0
450
        0
451
        0
460
0.0
461
0.0
452
        0
462
0.0
453
        0
470

1001
REVIT
1002
{
1070
     1
1000
22922114
1002
}
1002
{
1070
     5
1000
3324767
1002
}
1002
{
1070
     2
1000
-2000011
1002
}
1002
{
1070
     3
1000
-2000588
1002
}
  0
HATCH
  5
99
330
70
100
AcDbEntity
  8
A-ALV-___-___-EXI
 62
    11
100
AcDbHatch
 10
0.0
 20
0.0
 30
0.0
210
0.0
220
0.0
230
1.0
  2
SOLID
 70
     1
 71
     0
 91
        1
 92
        1
 93
        4
 72
     1
 10
45055.88127776222
 20
-38920.91146887551
 11
45205.88127776222
 21
-38920.91146887551
 72
     1
 10
45205.88127776222
 20
-38920.91146887551
 11
45205.88127776222
 21
-38580.91146887552
 72
     1
 10
45205.88127776222
 20
-38580.91146887552
 11
45055.88127776222
 21
-38580.91146887552
 72
     1
 10
45055.88127776222
 20
-38580.91146887552
 11
45055.88127776222
 21
-38920.91146887551
 97
        0
 75
     0
 76
     1
 98
        1
 10
0.0
 20
0.0
450
        0
451
        0
460
0.0
461
0.0
452
        0
462
0.0
453
        0
470

1001
REVIT
1002
{
1070
     1
1000
22922115
1002
}
1002
{
1070
     5
1000
3324767
1002
}
1002
{
1070
     2
1000
-2000011
1002
}
1002
{
1070
     3
1000
-2000588
1002
}
  0
HATCH
  5
9E
330
70
100
AcDbEntity
  8
A-ALV-___-___-EXI
 62
    11
100
AcDbHatch
 10
0.0
 20
0.0
 30
0.0
210
0.0
220
0.0
230
1.0
  2
SOLID
 70
     1
 71
     0
 91
        1
 92
        1
 93
        4
 72
     1
 10
42685.88127776222
 20
-30310.9114688755
 11
45205.8812777622
 21
-30310.9114688755
 72
     1
 10
45205.8812777622
 20
-30310.9114688755
 11
45205.8812777622
 21
-30160.9114688755
 72
     1
 10
45205.8812777622
 20
-30160.9114688755
 11
42685.88127776222
 21
-30160.91146887551
 72
     1
 10
42685.88127776222
 20
-30160.91146887551
 11
42685.88127776222
 21
-30310.9114688755
 97
        0
 75
     0
 76
     1
 98
        1
 10
0.0
 20
0.0
450
        0
451
        0
460
0.0
461
0.0
452
        0
462
0.0
453
        0
470

1001
REVIT
1002
{
1070
     1
1000
22922116
1002
}
1002
{
1070
     5
1000
3324767
1002
}
1002
{
1070
     2
1000
-2000011
1002
}
1002
{
1070
     3
1000
-2000588
1002
}
  0
HATCH
  5
A4
330
70
100
AcDbEntity
  8
A-ALV-___-___-EXI
 62
    11
100
AcDbHatch
 10
0.0
 20
0.0
 30
0.0
210
0.0
220
0.0
230
1.0
  2
SOLID
 70
     1
 71
     0
 91
        1
 92
        1
 93
        5
 72
     1
 10
47795.8812777622
 20
-39660.9114688755
 11
47945.8812777622
 21
-39660.9114688755
 72
     1
 10
47945.8812777622
 20
-39660.9114688755
 11
47945.8812777622
 21
-38920.91146887549
 72
     1
 10
47945.8812777622
 20
-38920.91146887549
 11
47795.88127776221
 21
-38920.91146887549
 72
     1
 10
47795.88127776221
 20
-38920.91146887549
 11
47795.88127776221
 21
-39070.91146887551
 72
     1
 10
47795.88127776221
 20
-39070.91146887551
 11
47795.8812777622
 21
-39660.9114688755
 97
        0
 75
     0
 76
     1
 98
        1
 10
0.0
 20
0.0
450
        0
451
        0
460
0.0
461
0.0
452
        0
462
0.0
453
        0
470

1001
REVIT
1002
{
1070
     1
1000
22922122
1002
}
1002
{
1070
     5
1000
3324767
1002
}
1002
{
1070
     2
1000
-2000011
1002
}
1002
{
1070
     3
1000
-2000588
1002
}
  0
HATCH
  5
A9
330
70
100
AcDbEntity
  8
A-ALV-___-___-EXI
 62
    11
100
AcDbHatch
 10
0.0
 20
0.0
 30
0.0
210
0.0
220
0.0
230
1.0
  2
SOLID
 70
     1
 71
     0
 91
        1
 92
        1
 93
        4
 72
     1
 10
42835.8812777622
 20
-54200.91146887553
 11
42835.88127776223
 21
-30310.9114688755
 72
     1
 10
42835.88127776223
 20
-30310.9114688755
 11
42685.88127776222
 21
-30310.9114688755
 72
     1
 10
42685.88127776222
 20
-30310.9114688755
 11
42685.8812777622
 21
-54200.91146887553
 72
     1
 10
42685.8812777622
 20
-54200.91146887553
 11
42835.8812777622
 21
-54200.91146887553
 97
        0
 75
     0
 76
     1
 98
        1
 10
0.0
 20
0.0
450
        0
451
        0
460
0.0
461
0.0
452
        0
462
0.0
453
        0
470

1001
REVIT
1002
{
1070
     1
1000
22922125
1002
}
1002
{
1070
     5
1000
3324767
1002
}
1002
{
1070
     2
1000
-2000011
1002
}
1002
{
1070
     3
1000
-2000588
1002
}
  0
HATCH
  5
AF
330
70
100
AcDbEntity
  8
A-ALV-___-___-EXI
 62
    11
100
AcDbHatch
 10
0.0
 20
0.0
 30
0.0
210
0.0
220
0.0
230
1.0
  2
SOLID
 70
     1
 71
     0
 91
        1
 92
        1
 93
        5
 72
     1
 10
47795.88127776221
 20
-53560.91146887552
 11
47945.88127776222
 21
-53560.91146887552
 72
     1
 10
47945.88127776222
 20
-53560.91146887552
 11
47945.88127776222
 21
-39660.9114688755
 72
     1
 10
47945.88127776222
 20
-39660.9114688755
 11
47795.88127776221
 21
-39660.9114688755
 72
     1
 10
47795.88127776221
 20
-39660.9114688755
 11
47795.8812777622
 21
-49740.91146887548
 72
     1
 10
47795.8812777622
 20
-49740.91146887548
 11
47795.88127776221
 21
-53560.91146887552
 97
        0
 75
     0
 76
     1
 98
        1
 10
0.0
 20
0.0
450
        0
451
        0
460
0.0
461
0.0
452
        0
462
0.0
453
        0
470

1001
REVIT
1002
{
1070
     1
1000
22922126
1002
}
1002
{
1070
     5
1000
3324767
1002
}
1002
{
1070
     2
1000
-2000011
1002
}
1002
{
1070
     3
1000
-2000588
1002
}
  0
HATCH
  5
B4
330
70
100
AcDbEntity
  8
A-ALV-___-___-EXI
 62
    11
100
AcDbHatch
 10
0.0
 20
0.0
 30
0.0
210
0.0
220
0.0
230
1.0
  2
SOLID
 70
     1
 71
     0
 91
        1
 92
        1
 93
        4
 72
     1
 10
43265.88127776219
 20
-49740.91146887547
 11
43265.88127776219
 21
-49590.91146887548
 72
     1
 10
43265.88127776219
 20
-49590.91146887548
 11
42835.8812777622
 21
-49590.91146887548
 72
     1
 10
42835.8812777622
 20
-49590.91146887548
 11
42835.88127776219
 21
-49740.91146887547
 72
     1
 10
42835.88127776219
 20
-49740.91146887547
 11
43265.88127776219
 21
-49740.91146887547
 97
        0
 75
     0
 76
     1
 98
        1
 10
0.0
 20
0.0
450
        0
451
        0
460
0.0
461
0.0
452
        0
462
0.0
453
        0
470

1001
REVIT
1002
{
1070
     1
1000
22922130
1002
}
1002
{
1070
     5
1000
3324767
1002
}
1002
{
1070
     2
1000
-2000011
1002
}
1002
{
1070
     3
1000
-2000588
1002
}
  0
HATCH
  5
B9
330
70
100
AcDbEntity
  8
A-ALV-___-___-EXI
 62
    11
100
AcDbHatch
 10
0.0
 20
0.0
 30
0.0
210
0.0
220
0.0
230
1.0
  2
SOLID
 70
     1
 71
     0
 91
        1
 92
        1
 93
        4
 72
     1
 10
45055.88127776222
 20
-38580.91146887552
 11
45205.88127776222
 21
-38580.91146887552
 72
     1
 10
45205.88127776222
 20
-38580.91146887552
 11
45205.88127776224
 21
-37380.91146887552
 72
     1
 10
45205.88127776224
 20
-37380.91146887552
 11
45055.88127776222
 21
-37380.91146887552
 72
     1
 10
45055.88127776222
 20
-37380.91146887552
 11
45055.88127776222
 21
-38580.91146887552
 97
        0
 75
     0
 76
     1
 98
        1
 10
0.0
 20
0.0
450
        0
451
        0
460
0.0
461
0.0
452
        0
462
0.0
453
        0
470

1001
REVIT
1002
{
1070
     1
1000
22922135
1002
}
1002
{
1070
     5
1000
3324767
1002
}
1002
{
1070
     2
1000
-2000011
1002
}
1002
{
1070
     3
1000
-2000588
1002
}
  0
HATCH
  5
BE
330
70
100
AcDbEntity
  8
A-ALV-___-___-EXI
 62
    11
100
AcDbHatch
 10
0.0
 20
0.0
 30
0.0
210
0.0
220
0.0
230
1.0
  2
SOLID
 70
     1
 71
     0
 91
        1
 92
        1
 93
        4
 72
     1
 10
45205.88127776224
 20
-37380.91146887552
 11
45205.88127776222
 21
-36780.91146887551
 72
     1
 10
45205.88127776222
 20
-36780.91146887551
 11
45055.88127776222
 21
-36780.91146887551
 72
     1
 10
45055.88127776222
 20
-36780.91146887551
 11
45055.88127776222
 21
-37380.91146887552
 72
     1
 10
45055.88127776222
 20
-37380.91146887552
 11
45205.88127776224
 21
-37380.91146887552
 97
        0
 75
     0
 76
     1
 98
        1
 10
0.0
 20
0.0
450
        0
451
        0
460
0.0
461
0.0
452
        0
462
0.0
453
        0
470

1001
REVIT
1002
{
1070
     1
1000
22922136
1002
}
1002
{
1070
     5
1000
3324767
1002
}
1002
{
1070
     2
1000
-2000011
1002
}
1002
{
1070
     3
1000
-2000588
1002
}
  0
HATCH
  5
C3
330
70
100
AcDbEntity
  8
A-ALV-___-___-EXI
 62
    11
100
AcDbHatch
 10
0.0
 20
0.0
 30
0.0
210
0.0
220
0.0
230
1.0
  2
SOLID
 70
     1
 71
     0
 91
        1
 92
        1
 93
        4
 72
     1
 10
43265.88127776219
 20
-49740.91146887547
 11
43345.8812777622
 21
-49740.91146887547
 72
     1
 10
43345.8812777622
 20
-49740.91146887547
 11
43345.8812777622
 21
-49590.91146887548
 72
     1
 10
43345.8812777622
 20
-49590.91146887548
 11
43265.88127776219
 21
-49590.91146887548
 72
     1
 10
43265.88127776219
 20
-49590.91146887548
 11
43265.88127776219
 21
-49740.91146887547
 97
        0
 75
     0
 76
     1
 98
        1
 10
0.0
 20
0.0
450
        0
451
        0
460
0.0
461
0.0
452
        0
462
0.0
453
        0
470

1001
REVIT
1002
{
1070
     1
1000
22922139
1002
}
1002
{
1070
     5
1000
3324767
1002
}
1002
{
1070
     2
1000
-2000011
1002
}
1002
{
1070
     3
1000
-2000588
1002
}
  0
HATCH
  5
C8
330
70
100
AcDbEntity
  8
A-ALV-___-___-EXI
 62
    11
100
AcDbHatch
 10
0.0
 20
0.0
 30
0.0
210
0.0
220
0.0
230
1.0
  2
SOLID
 70
     1
 71
     0
 91
        1
 92
        1
 93
        4
 72
     1
 10
44865.8812777622
 20
-49740.91146887549
 11
44865.8812777622
 21
-49590.91146887549
 72
     1
 10
44865.8812777622
 20
-49590.91146887549
 11
44265.88127776221
 21
-49590.91146887549
 72
     1
 10
44265.88127776221
 20
-49590.91146887549
 11
44265.88127776221
 21
-49740.91146887549
 72
     1
 10
44265.88127776221
 20
-49740.91146887549
 11
44865.8812777622
 21
-49740.91146887549
 97
        0
 75
     0
 76
     1
 98
        1
 10
0.0
 20
0.0
450
        0
451
        0
460
0.0
461
0.0
452
        0
462
0.0
453
        0
470

1001
REVIT
1002
{
1070
     1
1000
22922140
1002
}
1002
{
1070
     5
1000
3324767
1002
}
1002
{
1070
     2
1000
-2000011
1002
}
1002
{
1070
     3
1000
-2000588
1002
}
  0
HATCH
  5
CD
330
70
100
AcDbEntity
  8
A-ALV-___-___-EXI
 62
    11
100
AcDbHatch
 10
0.0
 20
0.0
 30
0.0
210
0.0
220
0.0
230
1.0
  2
SOLID
 70
     1
 71
     0
 91
        1
 92
        1
 93
        4
 72
     1
 10
47795.88127776221
 20
-49740.91146887548
 11
47795.88127776221
 21
-49590.91146887549
 72
     1
 10
47795.88127776221
 20
-49590.91146887549
 11
47275.8812777622
 21
-49590.91146887548
 72
     1
 10
47275.8812777622
 20
-49590.91146887548
 11
47275.8812777622
 21
-49740.91146887547
 72
     1
 10
47275.8812777622
 20
-49740.91146887547
 11
47795.88127776221
 21
-49740.91146887548
 97
        0
 75
     0
 76
     1
 98
        1
 10
0.0
 20
0.0
450
        0
451
        0
460
0.0
461
0.0
452
        0
462
0.0
453
        0
470

1001
REVIT
1002
{
1070
     1
1000
22922142
1002
}
1002
{
1070
     5
1000
3324767
1002
}
1002
{
1070
     2
1000
-2000011
1002
}
1002
{
1070
     3
1000
-2000588
1002
}
  0
HATCH
  5
D2
330
70
100
AcDbEntity
  8
A-ALV-___-___-EXI
 62
    11
100
AcDbHatch
 10
0.0
 20
0.0
 30
0.0
210
0.0
220
0.0
230
1.0
  2
SOLID
 70
     1
 71
     0
 91
        1
 92
        1
 93
        4
 72
     1
 10
44885.88127776216
 20
-54200.91146887553
 11
44885.88127776216
 21
-54050.91146887553
 72
     1
 10
44885.88127776216
 20
-54050.91146887553
 11
44265.88127776216
 21
-54050.91146887553
 72
     1
 10
44265.88127776216
 20
-54050.91146887553
 11
44265.88127776216
 21
-54200.91146887553
 72
     1
 10
44265.88127776216
 20
-54200.91146887553
 11
44885.88127776216
 21
-54200.91146887553
 97
        0
 75
     0
 76
     1
 98
        1
 10
0.0
 20
0.0
450
        0
451
        0
460
0.0
461
0.0
452
        0
462
0.0
453
        0
470

1001
REVIT
1002
{
1070
     1
1000
22922144
1002
}
1002
{
1070
     5
1000
3324767
1002
}
1002
{
1070
     2
1000
-2000011
1002
}
1002
{
1070
     3
1000
-2000588
1002
}
  0
HATCH
  5
D7
330
70
100
AcDbEntity
  8
A-ALV-___-___-EXI
 62
    11
100
AcDbHatch
 10
0.0
 20
0.0
 30
0.0
210
0.0
220
0.0
230
1.0
  2
SOLID
 70
     1
 71
     0
 91
        1
 92
        1
 93
        4
 72
     1
 10
46365.88127776217
 20
-54200.91146887553
 11
46365.88127776217
 21
-54050.91146887553
 72
     1
 10
46365.88127776217
 20
-54050.91146887553
 11
45765.88127776216
 21
-54050.91146887553
 72
     1
 10
45765.88127776216
 20
-54050.91146887553
 11
45765.88127776215
 21
-54200.91146887553
 72
     1
 10
45765.88127776215
 20
-54200.91146887553
 11
46365.88127776217
 21
-54200.91146887553
 97
        0
 75
     0
 76
     1
 98
        1
 10
0.0
 20
0.0
450
        0
451
        0
460
0.0
461
0.0
452
        0
462
0.0
453
        0
470

1001
REVIT
1002
{
1070
     1
1000
22922146
1002
}
1002
{
1070
     5
1000
3324767
1002
}
1002
{
1070
     2
1000
-2000011
1002
}
1002
{
1070
     3
1000
-2000588
1002
}
  0
HATCH
  5
DC
330
70
100
AcDbEntity
  8
A-ALV-___-___-EXI
 62
    11
100
AcDbHatch
 10
0.0
 20
0.0
 30
0.0
210
0.0
220
0.0
230
1.0
  2
SOLID
 70
     1
 71
     0
 91
        1
 92
        1
 93
        4
 72
     1
 10
47265.88127776217
 20
-54200.91146887553
 11
47945.88127776221
 21
-54200.91146887553
 72
     1
 10
47945.88127776221
 20
-54200.91146887553
 11
47945.88127776221
 21
-54050.91146887553
 72
     1
 10
47945.88127776221
 20
-54050.91146887553
 11
47265.88127776217
 21
-54050.91146887553
 72
     1
 10
47265.88127776217
 20
-54050.91146887553
 11
47265.88127776217
 21
-54200.91146887553
 97
        0
 75
     0
 76
     1
 98
        1
 10
0.0
 20
0.0
450
        0
451
        0
460
0.0
461
0.0
452
        0
462
0.0
453
        0
470

1001
REVIT
1002
{
1070
     1
1000
22922148
1002
}
1002
{
1070
     5
1000
3324767
1002
}
1002
{
1070
     2
1000
-2000011
1002
}
1002
{
1070
     3
1000
-2000588
1002
}
  0
HATCH
  5
E1
330
70
100
AcDbEntity
  8
A-ALV-___-___-EXI
 62
    11
100
AcDbHatch
 10
0.0
 20
0.0
 30
0.0
210
0.0
220
0.0
230
1.0
  2
SOLID
 70
     1
 71
     0
 91
        1
 92
        1
 93
        4
 72
     1
 10
45055.88127776222
 20
-35470.91146887551
 11
45055.88127776224
 21
-35320.91146887552
 72
     1
 10
45055.88127776224
 20
-35320.91146887552
 11
42835.88127776224
 21
-35320.91146887552
 72
     1
 10
42835.88127776224
 20
-35320.91146887552
 11
42835.88127776224
 21
-35470.91146887551
 72
     1
 10
42835.88127776224
 20
-35470.91146887551
 11
45055.88127776222
 21
-35470.91146887551
 97
        0
 75
     0
 76
     1
 98
        1
 10
0.0
 20
0.0
450
        0
451
        0
460
0.0
461
0.0
452
        0
462
0.0
453
        0
470

1001
REVIT
1002
{
1070
     1
1000
22922737
1002
}
1002
{
1070
     5
1000
3324767
1002
}
1002
{
1070
     2
1000
-2000011
1002
}
1002
{
1070
     3
1000
-2000588
1002
}
  0
HATCH
  5
E6
330
70
100
AcDbEntity
  8
A-ALV-___-___-EXI
 62
    11
100
AcDbHatch
 10
0.0
 20
0.0
 30
0.0
210
0.0
220
0.0
230
1.0
  2
SOLID
 70
     1
 71
     0
 91
        1
 92
        1
 93
        4
 72
     1
 10
45055.88127776222
 20
-33170.91146887551
 11
45055.88127776222
 21
-33020.91146887552
 72
     1
 10
45055.88127776222
 20
-33020.91146887552
 11
42835.88127776224
 21
-33020.91146887552
 72
     1
 10
42835.88127776224
 20
-33020.91146887552
 11
42835.88127776224
 21
-33170.91146887551
 72
     1
 10
42835.88127776224
 20
-33170.91146887551
 11
45055.88127776222
 21
-33170.91146887551
 97
        0
 75
     0
 76
     1
 98
        1
 10
0.0
 20
0.0
450
        0
451
        0
460
0.0
461
0.0
452
        0
462
0.0
453
        0
470

1001
REVIT
1002
{
1070
     1
1000
22922872
1002
}
1002
{
1070
     5
1000
3324767
1002
}
1002
{
1070
     2
1000
-2000011
1002
}
1002
{
1070
     3
1000
-2000588
1002
}
  0
HATCH
  5
EB
330
70
100
AcDbEntity
  8
A-ALV-___-___-EXI
 62
    11
100
AcDbHatch
 10
0.0
 20
0.0
 30
0.0
210
0.0
220
0.0
230
1.0
  2
SOLID
 70
     1
 71
     0
 91
        1
 92
        1
 93
        4
 72
     1
 10
43735.88127776224
 20
-33020.91146887552
 11
43735.88127776224
 21
-32820.91146887552
 72
     1
 10
43735.88127776224
 20
-32820.91146887552
 11
43585.88127776223
 21
-32820.91146887552
 72
     1
 10
43585.88127776223
 20
-32820.91146887552
 11
43585.88127776223
 21
-33020.91146887552
 72
     1
 10
43585.88127776223
 20
-33020.91146887552
 11
43735.88127776224
 21
-33020.91146887552
 97
        0
 75
     0
 76
     1
 98
        1
 10
0.0
 20
0.0
450
        0
451
        0
460
0.0
461
0.0
452
        0
462
0.0
453
        0
470

1001
REVIT
1002
{
1070
     1
1000
22922976
1002
}
1002
{
1070
     5
1000
3324767
1002
}
1002
{
1070
     2
1000
-2000011
1002
}
1002
{
1070
     3
1000
-2000588
1002
}
  0
HATCH
  5
F0
330
70
100
AcDbEntity
  8
A-ALV-___-___-EXI
 62
    11
100
AcDbHatch
 10
0.0
 20
0.0
 30
0.0
210
0.0
220
0.0
230
1.0
  2
SOLID
 70
     1
 71
     0
 91
        1
 92
        1
 93
        4
 72
     1
 10
43585.88127776224
 20
-31570.91146887551
 11
43585.88127776224
 21
-31420.91146887551
 72
     1
 10
43585.88127776224
 20
-31420.91146887551
 11
42835.88127776224
 21
-31420.91146887551
 72
     1
 10
42835.88127776224
 20
-31420.91146887551
 11
42835.88127776224
 21
-31570.91146887551
 72
     1
 10
42835.88127776224
 20
-31570.91146887551
 11
43585.88127776224
 21
-31570.91146887551
 97
        0
 75
     0
 76
     1
 98
        1
 10
0.0
 20
0.0
450
        0
451
        0
460
0.0
461
0.0
452
        0
462
0.0
453
        0
470

1001
REVIT
1002
{
1070
     1
1000
22923036
1002
}
1002
{
1070
     5
1000
3324767
1002
}
1002
{
1070
     2
1000
-2000011
1002
}
1002
{
1070
     3
1000
-2000588
1002
}
  0
HATCH
  5
F5
330
70
100
AcDbEntity
  8
A-ALV-___-___-EXI
 62
    11
100
AcDbHatch
 10
0.0
 20
0.0
 30
0.0
210
0.0
220
0.0
230
1.0
  2
SOLID
 70
     1
 71
     0
 91
        1
 92
        1
 93
        4
 72
     1
 10
42835.88127776223
 20
-44340.91146887548
 11
43335.88127776222
 21
-44340.91146887549
 72
     1
 10
43335.88127776222
 20
-44340.91146887549
 11
43335.88127776222
 21
-44190.91146887548
 72
     1
 10
43335.88127776222
 20
-44190.91146887548
 11
42835.88127776223
 21
-44190.91146887548
 72
     1
 10
42835.88127776223
 20
-44190.91146887548
 11
42835.88127776223
 21
-44340.91146887548
 97
        0
 75
     0
 76
     1
 98
        1
 10
0.0
 20
0.0
450
        0
451
        0
460
0.0
461
0.0
452
        0
462
0.0
453
        0
470

1001
REVIT
1002
{
1070
     1
1000
22923205
1002
}
1002
{
1070
     5
1000
3324767
1002
}
1002
{
1070
     2
1000
-2000011
1002
}
1002
{
1070
     3
1000
-2000588
1002
}
  0
HATCH
  5
FA
330
70
100
AcDbEntity
  8
A-ALV-___-___-EXI
 62
    11
100
AcDbHatch
 10
0.0
 20
0.0
 30
0.0
210
0.0
220
0.0
230
1.0
  2
SOLID
 70
     1
 71
     0
 91
        1
 92
        1
 93
        4
 72
     1
 10
46015.88127776222
 20
-47040.91146887549
 11
46015.88127776223
 21
-44340.91146887549
 72
     1
 10
46015.88127776223
 20
-44340.91146887549
 11
45865.88127776224
 21
-44340.91146887549
 72
     1
 10
45865.88127776224
 20
-44340.91146887549
 11
45865.88127776223
 21
-47040.91146887549
 72
     1
 10
45865.88127776223
 20
-47040.91146887549
 11
46015.88127776222
 21
-47040.91146887549
 97
        0
 75
     0
 76
     1
 98
        1
 10
0.0
 20
0.0
450
        0
451
        0
460
0.0
461
0.0
452
        0
462
0.0
453
        0
470

1001
REVIT
1002
{
1070
     1
1000
22923350
1002
}
1002
{
1070
     5
1000
3324767
1002
}
1002
{
1070
     2
1000
-2000011
1002
}
1002
{
1070
     3
1000
-2000588
1002
}
  0
HATCH
  5
100
330
70
100
AcDbEntity
  8
A-ALV-___-___-EXI
 62
    11
100
AcDbHatch
 10
0.0
 20
0.0
 30
0.0
210
0.0
220
0.0
230
1.0
  2
SOLID
 70
     1
 71
     0
 91
        1
 92
        1
 93
        5
 72
     1
 10
44555.8812777622
 20
-49590.91146887549
 11
44705.8812777622
 21
-49590.91146887549
 72
     1
 10
44705.8812777622
 20
-49590.91146887549
 11
44705.88127776223
 21
-44340.91146887549
 72
     1
 10
44705.88127776223
 20
-44340.91146887549
 11
44555.88127776223
 21
-44340.91146887549
 72
     1
 10
44555.88127776223
 20
-44340.91146887549
 11
44555.88127776221
 21
-48723.52837956943
 72
     1
 10
44555.88127776221
 20
-48723.52837956943
 11
44555.8812777622
 21
-49590.91146887549
 97
        0
 75
     0
 76
     1
 98
        1
 10
0.0
 20
0.0
450
        0
451
        0
460
0.0
461
0.0
452
        0
462
0.0
453
        0
470

1001
REVIT
1002
{
1070
     1
1000
22923458
1002
}
1002
{
1070
     5
1000
3324767
1002
}
1002
{
1070
     2
1000
-2000011
1002
}
1002
{
1070
     3
1000
-2000588
1002
}
  0
HATCH
  5
105
330
70
100
AcDbEntity
  8
A-ALV-___-___-EXI
 62
    11
100
AcDbHatch
 10
0.0
 20
0.0
 30
0.0
210
0.0
220
0.0
230
1.0
  2
SOLID
 70
     1
 71
     0
 91
        1
 92
        1
 93
        4
 72
     1
 10
45865.88127776223
 20
-47990.9114688755
 11
47795.88127776221
 21
-47990.91146887549
 72
     1
 10
47795.88127776221
 20
-47990.91146887549
 11
47795.88127776221
 21
-47840.91146887549
 72
     1
 10
47795.88127776221
 20
-47840.91146887549
 11
45865.88127776223
 21
-47840.91146887551
 72
     1
 10
45865.88127776223
 20
-47840.91146887551
 11
45865.88127776223
 21
-47990.9114688755
 97
        0
 75
     0
 76
     1
 98
        1
 10
0.0
 20
0.0
450
        0
451
        0
460
0.0
461
0.0
452
        0
462
0.0
453
        0
470

1001
REVIT
1002
{
1070
     1
1000
22923575
1002
}
1002
{
1070
     5
1000
3324767
1002
}
1002
{
1070
     2
1000
-2000011
1002
}
1002
{
1070
     3
1000
-2000588
1002
}
  0
HATCH
  5
10A
330
70
100
AcDbEntity
  8
A-ALV-___-___-EXI
 62
    11
100
AcDbHatch
 10
0.0
 20
0.0
 30
0.0
210
0.0
220
0.0
230
1.0
  2
SOLID
 70
     1
 71
     0
 91
        1
 92
        1
 93
        4
 72
     1
 10
46015.88127776222
 20
-47040.91146887549
 11
47795.88127776222
 21
-47040.91146887549
 72
     1
 10
47795.88127776222
 20
-47040.91146887549
 11
47795.88127776222
 21
-46890.91146887547
 72
     1
 10
47795.88127776222
 20
-46890.91146887547
 11
46015.88127776222
 21
-46890.91146887549
 72
     1
 10
46015.88127776222
 20
-46890.91146887549
 11
46015.88127776222
 21
-47040.91146887549
 97
        0
 75
     0
 76
     1
 98
        1
 10
0.0
 20
0.0
450
        0
451
        0
460
0.0
461
0.0
452
        0
462
0.0
453
        0
470

1001
REVIT
1002
{
1070
     1
1000
22923677
1002
}
1002
{
1070
     5
1000
3324767
1002
}
1002
{
1070
     2
1000
-2000011
1002
}
1002
{
1070
     3
1000
-2000588
1002
}
  0
HATCH
  5
10F
330
70
100
AcDbEntity
  8
A-ALV-___-___-EXI
 62
    11
100
AcDbHatch
 10
0.0
 20
0.0
 30
0.0
210
0.0
220
0.0
230
1.0
  2
SOLID
 70
     1
 71
     0
 91
        1
 92
        1
 93
        4
 72
     1
 10
45750.8812777622
 20
-49740.91146887548
 11
46470.8812777622
 21
-49740.91146887547
 72
     1
 10
46470.8812777622
 20
-49740.91146887547
 11
46470.8812777622
 21
-49590.91146887548
 72
     1
 10
46470.8812777622
 20
-49590.91146887548
 11
45750.8812777622
 21
-49590.91146887549
 72
     1
 10
45750.8812777622
 20
-49590.91146887549
 11
45750.8812777622
 21
-49740.91146887548
 97
        0
 75
     0
 76
     1
 98
        1
 10
0.0
 20
0.0
450
        0
451
        0
460
0.0
461
0.0
452
        0
462
0.0
453
        0
470

1001
REVIT
1002
{
1070
     1
1000
22924745
1002
}
1002
{
1070
     5
1000
3324767
1002
}
1002
{
1070
     2
1000
-2000011
1002
}
1002
{
1070
     3
1000
-2000588
1002
}
  0
HATCH
  5
115
330
70
100
AcDbEntity
  8
A-ALV-___-___-EXI
 62
    11
100
AcDbHatch
 10
0.0
 20
0.0
 30
0.0
210
0.0
220
0.0
230
1.0
  2
SOLID
 70
     1
 71
     0
 91
        1
 92
        1
 93
        5
 72
     1
 10
45865.8812777622
 20
-49590.91146887549
 11
46015.88127776222
 21
-49590.91146887549
 72
     1
 10
46015.88127776222
 20
-49590.91146887549
 11
46015.88127776222
 21
-47990.9114688755
 72
     1
 10
46015.88127776222
 20
-47990.9114688755
 11
45865.88127776223
 21
-47990.9114688755
 72
     1
 10
45865.88127776223
 20
-47990.9114688755
 11
45865.88127776221
 21
-48723.52837956943
 72
     1
 10
45865.88127776221
 20
-48723.52837956943
 11
45865.8812777622
 21
-49590.91146887549
 97
        0
 75
     0
 76
     1
 98
        1
 10
0.0
 20
0.0
450
        0
451
        0
460
0.0
461
0.0
452
        0
462
0.0
453
        0
470

1001
REVIT
1002
{
1070
     1
1000
22924858
1002
}
1002
{
1070
     5
1000
3324767
1002
}
1002
{
1070
     2
1000
-2000011
1002
}
1002
{
1070
     3
1000
-2000588
1002
}
  0
HATCH
  5
11A
330
70
100
AcDbEntity
  8
A-ALV-___-___-EXI
 62
    11
100
AcDbHatch
 10
0.0
 20
0.0
 30
0.0
210
0.0
220
0.0
230
1.0
  2
SOLID
 70
     1
 71
     0
 91
        1
 92
        1
 93
        4
 72
     1
 10
47335.88127776223
 20
-44340.91146887548
 11
47795.88127776223
 21
-44340.91146887548
 72
     1
 10
47795.88127776223
 20
-44340.91146887548
 11
47795.88127776223
 21
-44190.91146887548
 72
     1
 10
47795.88127776223
 20
-44190.91146887548
 11
47335.88127776223
 21
-44190.91146887548
 72
     1
 10
47335.88127776223
 20
-44190.91146887548
 11
47335.88127776223
 21
-44340.91146887548
 97
        0
 75
     0
 76
     1
 98
        1
 10
0.0
 20
0.0
450
        0
451
        0
460
0.0
461
0.0
452
        0
462
0.0
453
        0
470

1001
REVIT
1002
{
1070
     1
1000
22925039
1002
}
1002
{
1070
     5
1000
3324767
1002
}
1002
{
1070
     2
1000
-2000011
1002
}
1002
{
1070
     3
1000
-2000588
1002
}
  0
HATCH
  5
11F
330
70
100
AcDbEntity
  8
A-ALV-___-___-EXI
 62
    11
100
AcDbHatch
 10
0.0
 20
0.0
 30
0.0
210
0.0
220
0.0
230
1.0
  2
SOLID
 70
     1
 71
     0
 91
        1
 92
        1
 93
        4
 72
     1
 10
45755.88127776223
 20
-44340.91146887549
 11
46395.88127776223
 21
-44340.91146887549
 72
     1
 10
46395.88127776223
 20
-44340.91146887549
 11
46395.88127776223
 21
-44190.91146887549
 72
     1
 10
46395.88127776223
 20
-44190.91146887549
 11
45755.88127776223
 21
-44190.91146887549
 72
     1
 10
45755.88127776223
 20
-44190.91146887549
 11
45755.88127776223
 21
-44340.91146887549
 97
        0
 75
     0
 76
     1
 98
        1
 10
0.0
 20
0.0
450
        0
451
        0
460
0.0
461
0.0
452
        0
462
0.0
453
        0
470

1001
REVIT
1002
{
1070
     1
1000
22925176
1002
}
1002
{
1070
     5
1000
3324767
1002
}
1002
{
1070
     2
1000
-2000011
1002
}
1002
{
1070
     3
1000
-2000588
1002
}
  0
HATCH
  5
126
330
70
100
AcDbEntity
  8
A-ALV-___-___-EXI
 62
    11
100
AcDbHatch
 10
0.0
 20
0.0
 30
0.0
210
0.0
220
0.0
230
1.0
  2
SOLID
 70
     1
 71
     0
 91
        1
 92
        1
 93
        6
 72
     1
 10
44705.88127776223
 20
-44340.91146887549
 11
44895.88127776222
 21
-44340.91146887549
 72
     1
 10
44895.88127776222
 20
-44340.91146887549
 11
44895.88127776222
 21
-44190.91146887548
 72
     1
 10
44895.88127776222
 20
-44190.91146887548
 11
44255.88127776222
 21
-44190.91146887548
 72
     1
 10
44255.88127776222
 20
-44190.91146887548
 11
44255.88127776222
 21
-44340.91146887549
 72
     1
 10
44255.88127776222
 20
-44340.91146887549
 11
44555.88127776223
 21
-44340.91146887549
 72
     1
 10
44555.88127776223
 20
-44340.91146887549
 11
44705.88127776223
 21
-44340.91146887549
 97
        0
 75
     0
 76
     1
 98
        1
 10
0.0
 20
0.0
450
        0
451
        0
460
0.0
461
0.0
452
        0
462
0.0
453
        0
470

1001
REVIT
1002
{
1070
     1
1000
22925480
1002
}
1002
{
1070
     5
1000
3324767
1002
}
1002
{
1070
     2
1000
-2000011
1002
}
1002
{
1070
     3
1000
-2000588
1002
}
  0
HATCH
  5
12B
330
70
100
AcDbEntity
  8
A-ALV-___-___-EXI
 62
    11
100
AcDbHatch
 10
0.0
 20
0.0
 30
0.0
210
0.0
220
0.0
230
1.0
  2
SOLID
 70
     1
 71
     0
 91
        1
 92
        1
 93
        4
 72
     1
 10
43995.88127776222
 20
-39070.91146887552
 11
43995.88127776222
 21
-38920.91146887552
 72
     1
 10
43995.88127776222
 20
-38920.91146887552
 11
42835.88127776221
 21
-38920.91146887552
 72
     1
 10
42835.88127776221
 20
-38920.91146887552
 11
42835.88127776221
 21
-39070.91146887552
 72
     1
 10
42835.88127776221
 20
-39070.91146887552
 11
43995.88127776222
 21
-39070.91146887552
 97
        0
 75
     0
 76
     1
 98
        1
 10
0.0
 20
0.0
450
        0
451
        0
460
0.0
461
0.0
452
        0
462
0.0
453
        0
470

1001
REVIT
1002
{
1070
     1
1000
22925774
1002
}
1002
{
1070
     5
1000
3324767
1002
}
1002
{
1070
     2
1000
-2000011
1002
}
1002
{
1070
     3
1000
-2000588
1002
}
  0
HATCH
  5
130
330
70
100
AcDbEntity
  8
A-ALV-___-___-EXI
 62
    11
100
AcDbHatch
 10
0.0
 20
0.0
 30
0.0
210
0.0
220
0.0
230
1.0
  2
SOLID
 70
     1
 71
     0
 91
        1
 92
        1
 93
        4
 72
     1
 10
45205.88127776222
 20
-35920.91146887552
 11
45205.88127776224
 21
-34520.91146887549
 72
     1
 10
45205.88127776224
 20
-34520.91146887549
 11
45055.88127776224
 21
-34520.91146887551
 72
     1
 10
45055.88127776224
 20
-34520.91146887551
 11
45055.88127776222
 21
-35920.91146887552
 72
     1
 10
45055.88127776222
 20
-35920.91146887552
 11
45205.88127776222
 21
-35920.91146887552
 97
        0
 75
     0
 76
     1
 98
        1
 10
0.0
 20
0.0
450
        0
451
        0
460
0.0
461
0.0
452
        0
462
0.0
453
        0
470

1001
REVIT
1002
{
1070
     1
1000
22926012
1002
}
1002
{
1070
     5
1000
3324767
1002
}
1002
{
1070
     2
1000
-2000011
1002
}
1002
{
1070
     3
1000
-2000588
1002
}
  0
HATCH
  5
136
330
70
100
AcDbEntity
  8
A-ALV-___-___-EXI
 62
    11
100
AcDbHatch
 10
0.0
 20
0.0
 30
0.0
210
0.0
220
0.0
230
1.0
  2
SOLID
 70
     1
 71
     0
 91
        1
 92
        1
 93
        5
 72
     1
 10
45055.88127776222
 20
-33620.91146887551
 11
45205.88127776224
 21
-33620.9114688755
 72
     1
 10
45205.88127776224
 20
-33620.9114688755
 11
45205.88127776224
 21
-32520.9114688755
 72
     1
 10
45205.88127776224
 20
-32520.9114688755
 11
45055.88127776225
 21
-32520.9114688755
 72
     1
 10
45055.88127776225
 20
-32520.9114688755
 11
45055.88127776222
 21
-33170.91146887551
 72
     1
 10
45055.88127776222
 20
-33170.91146887551
 11
45055.88127776222
 21
-33620.91146887551
 97
        0
 75
     0
 76
     1
 98
        1
 10
0.0
 20
0.0
450
        0
451
        0
460
0.0
461
0.0
452
        0
462
0.0
453
        0
470

1001
REVIT
1002
{
1070
     1
1000
22926241
1002
}
1002
{
1070
     5
1000
3324767
1002
}
1002
{
1070
     2
1000
-2000011
1002
}
1002
{
1070
     3
1000
-2000588
1002
}
  0
HATCH
  5
13B
330
70
100
AcDbEntity
  8
A-ALV-___-___-EXI
 62
    11
100
AcDbHatch
 10
0.0
 20
0.0
 30
0.0
210
0.0
220
0.0
230
1.0
  2
SOLID
 70
     1
 71
     0
 91
        1
 92
        1
 93
        4
 72
     1
 10
45055.88127776224
 20
-30910.91146887551
 11
45205.88127776224
 21
-30910.9114688755
 72
     1
 10
45205.88127776224
 20
-30910.9114688755
 11
45205.8812777622
 21
-30310.9114688755
 72
     1
 10
45205.8812777622
 20
-30310.9114688755
 11
45055.88127776221
 21
-30310.9114688755
 72
     1
 10
45055.88127776221
 20
-30310.9114688755
 11
45055.88127776224
 21
-30910.91146887551
 97
        0
 75
     0
 76
     1
 98
        1
 10
0.0
 20
0.0
450
        0
451
        0
460
0.0
461
0.0
452
        0
462
0.0
453
        0
470

1001
REVIT
1002
{
1070
     1
1000
22926476
1002
}
1002
{
1070
     5
1000
3324767
1002
}
1002
{
1070
     2
1000
-2000011
1002
}
1002
{
1070
     3
1000
-2000588
1002
}
  0
HATCH
  5
141
330
70
100
AcDbEntity
  8
A-ALV-___-___-EXI
 62
    11
100
AcDbHatch
 10
0.0
 20
0.0
 30
0.0
210
0.0
220
0.0
230
1.0
  2
SOLID
 70
     1
 71
     0
 91
        1
 92
        1
 93
        5
 72
     1
 10
43585.88127776223
 20
-32200.91146887551
 11
43735.88127776223
 21
-32200.91146887551
 72
     1
 10
43735.88127776223
 20
-32200.91146887551
 11
43735.88127776224
 21
-31420.91146887551
 72
     1
 10
43735.88127776224
 20
-31420.91146887551
 11
43585.88127776224
 21
-31420.91146887551
 72
     1
 10
43585.88127776224
 20
-31420.91146887551
 11
43585.88127776224
 21
-31570.91146887551
 72
     1
 10
43585.88127776224
 20
-31570.91146887551
 11
43585.88127776223
 21
-32200.91146887551
 97
        0
 75
     0
 76
     1
 98
        1
 10
0.0
 20
0.0
450
        0
451
        0
460
0.0
461
0.0
452
        0
462
0.0
453
        0
470

1001
REVIT
1002
{
1070
     1
1000
22926682
1002
}
1002
{
1070
     5
1000
3324767
1002
}
1002
{
1070
     2
1000
-2000011
1002
}
1002
{
1070
     3
1000
-2000588
1002
}
  0
HATCH
  5
146
330
70
100
AcDbEntity
  8
A-PIL-___-___-EXI
 62
    11
100
AcDbHatch
 10
0.0
 20
0.0
 30
0.0
210
0.0
220
0.0
230
1.0
  2
SOLID
 70
     1
 71
     0
 91
        1
 92
        1
 93
        4
 72
     1
 10
46455.8812777622
 20
-37156.77476647386
 11
46705.88127776222
 21
-37156.77476647386
 72
     1
 10
46705.88127776222
 20
-37156.77476647386
 11
46705.88127776222
 21
-36956.77476647387
 72
     1
 10
46705.88127776222
 20
-36956.77476647387
 11
46455.8812777622
 21
-36956.77476647387
 72
     1
 10
46455.8812777622
 20
-36956.77476647387
 11
46455.8812777622
 21
-37156.77476647386
 97
        0
 75
     0
 76
     1
 98
        1
 10
0.0
 20
0.0
450
        0
451
        0
460
0.0
461
0.0
452
        0
462
0.0
453
        0
470

1001
REVIT
1002
{
1070
     1
1000
22930723
1002
}
1002
{
1070
     5
1000
22554474
1002
}
1002
{
1070
     2
1000
-2000011
1002
}
1002
{
1070
     3
1000
-2000588
1002
}
  0
HATCH
  5
14B
330
70
100
AcDbEntity
  8
A-PIL-___-___-EXI
 62
    11
100
AcDbHatch
 10
0.0
 20
0.0
 30
0.0
210
0.0
220
0.0
230
1.0
  2
SOLID
 70
     1
 71
     0
 91
        1
 92
        1
 93
        4
 72
     1
 10
46455.88127776221
 20
-36136.77476647387
 11
46705.88127776222
 21
-36136.77476647387
 72
     1
 10
46705.88127776222
 20
-36136.77476647387
 11
46705.88127776222
 21
-35936.77476647388
 72
     1
 10
46705.88127776222
 20
-35936.77476647388
 11
46455.88127776221
 21
-35936.77476647388
 72
     1
 10
46455.88127776221
 20
-35936.77476647388
 11
46455.88127776221
 21
-36136.77476647387
 97
        0
 75
     0
 76
     1
 98
        1
 10
0.0
 20
0.0
450
        0
451
        0
460
0.0
461
0.0
452
        0
462
0.0
453
        0
470

1001
REVIT
1002
{
1070
     1
1000
22930724
1002
}
1002
{
1070
     5
1000
22554474
1002
}
1002
{
1070
     2
1000
-2000011
1002
}
1002
{
1070
     3
1000
-2000588
1002
}
  0
LINE
  5
164
330
70
100
AcDbEntity
  8
A-ALV-___-___-EXI
 62
     7
370
    35
100
AcDbLine
 10
42835.88127776228
 20
-35320.91146887547
 30
0.0
 11
42835.88127776228
 21
-33170.91146887547
 31
0.0
1001
REVIT
1002
{
1070
     1
1000
22922125
1002
}
1002
{
1070
     5
1000
3324767
1002
}
1002
{
1070
     2
1000
-2000011
1002
}
  0
LINE
  5
18C
330
70
100
AcDbEntity
  8
A-ALV-___-___-EXI
 62
     7
370
    35
100
AcDbLine
 10
45055.88127776229
 20
-35320.91146887547
 30
0.0
 11
42835.88127776228
 21
-35320.91146887547
 31
0.0
1001
REVIT
1002
{
1070
     1
1000
22922737
1002
}
1002
{
1070
     5
1000
3324767
1002
}
1002
{
1070
     2
1000
-2000011
1002
}
  0
LINE
  5
190
330
70
100
AcDbEntity
  8
A-ALV-___-___-EXI
 62
     7
370
    35
100
AcDbLine
 10
42835.88127776228
 20
-33170.91146887547
 30
0.0
 11
45055.88127776227
 21
-33170.91146887547
 31
0.0
1001
REVIT
1002
{
1070
     1
1000
22922872
1002
}
1002
{
1070
     5
1000
3324767
1002
}
1002
{
1070
     2
1000
-2000011
1002
}
  0
LINE
  5
1BA
330
70
100
AcDbEntity
  8
A-ALV-___-___-EXI
 62
     7
370
    35
100
AcDbLine
 10
45205.88127776227
 20
-35920.91146887546
 30
0.0
 11
45205.88127776228
 21
-34520.91146887546
 31
0.0
1001
REVIT
1002
{
1070
     1
1000
22926012
1002
}
1002
{
1070
     5
1000
3324767
1002
}
1002
{
1070
     2
1000
-2000011
1002
}
  0
LINE
  5
1BB
330
70
100
AcDbEntity
  8
A-ALV-___-___-EXI
 62
     7
370
    35
100
AcDbLine
 10
45205.88127776228
 20
-34520.91146887546
 30
0.0
 11
45055.88127776229
 21
-34520.91146887546
 31
0.0
1001
REVIT
1002
{
1070
     1
1000
22926012
1002
}
1002
{
1070
     5
1000
3324767
1002
}
1002
{
1070
     2
1000
-2000011
1002
}
  0
LINE
  5
1BC
330
70
100
AcDbEntity
  8
A-ALV-___-___-EXI
 62
     7
370
    35
100
AcDbLine
 10
45055.88127776229
 20
-34520.91146887546
 30
0.0
 11
45055.88127776229
 21
-35320.91146887548
 31
0.0
1001
REVIT
1002
{
1070
     1
1000
22926012
1002
}
1002
{
1070
     5
1000
3324767
1002
}
1002
{
1070
     2
1000
-2000011
1002
}
  0
LINE
  5
1C2
330
70
100
AcDbEntity
  8
A-ALV-___-___-EXI
 62
     7
370
    35
100
AcDbLine
 10
45055.88127776227
 20
-33170.91146887547
 30
0.0
 11
45055.88127776227
 21
-33620.91146887546
 31
0.0
1001
REVIT
1002
{
1070
     1
1000
22926241
1002
}
1002
{
1070
     5
1000
3324767
1002
}
1002
{
1070
     2
1000
-2000011
1002
}
  0
LINE
  5
1C3
330
70
100
AcDbEntity
  8
A-ALV-___-___-EXI
 62
     7
370
    35
100
AcDbLine
 10
45055.88127776227
 20
-33620.91146887546
 30
0.0
 11
45205.88127776227
 21
-33620.91146887546
 31
0.0
1001
REVIT
1002
{
1070
     1
1000
22926241
1002
}
1002
{
1070
     5
1000
3324767
1002
}
1002
{
1070
     2
1000
-2000011
1002
}
  0
LINE
  5
1CC
330
70
100
AcDbEntity
  8
A-ESC-___-___-EXI
100
AcDbLine
 10
45795.88127776227
 20
-47840.91146887543
 30
0.0
 11
45795.88127776227
 21
-47040.91146887543
 31
0.0
1001
REVIT
1002
{
1070
     1
1000
22930703
1002
}
1002
{
1070
     5
1000
141734
1002
}
1002
{
1070
     2
1000
-2000120
1002
}
1002
{
1070
     3
1000
-2000935
1002
}
  0
LINE
  5
1CD
330
70
100
AcDbEntity
  8
A-ALV-___-___-EXI
100
AcDbLine
 10
46045.88127776226
 20
-47040.91146887543
 30
0.0
 11
45795.88127776227
 21
-47040.91146887543
 31
0.0
1001
REVIT
1002
{
1070
     1
1000
22930703
1002
}
1002
{
1070
     5
1000
141734
1002
}
1002
{
1070
     2
1000
-2000120
1002
}
1002
{
1070
     3
1000
-2000935
1002
}
  0
LINE
  5
1CE
330
70
100
AcDbEntity
  8
A-ALV-___-___-EXI
100
AcDbLine
 10
46045.88127776226
 20
-47840.91146887543
 30
0.0
 11
45795.88127776227
 21
-47840.91146887543
 31
0.0
1001
REVIT
1002
{
1070
     1
1000
22930703
1002
}
1002
{
1070
     5
1000
141734
1002
}
1002
{
1070
     2
1000
-2000120
1002
}
1002
{
1070
     3
1000
-2000935
1002
}
  0
LINE
  5
1EE
330
70
100
AcDbEntity
  8
A-ESC-___-___-EXI
100
AcDbLine
 10
46205.8812777623
 20
-31346.77476647382
 30
0.0
 11
45205.88127776229
 21
-31346.77476647382
 31
0.0
1001
REVIT
1002
{
1070
     1
1000
22930706
1002
}
1002
{
1070
     5
1000
141734
1002
}
1002
{
1070
     2
1000
-2000120
1002
}
1002
{
1070
     3
1000
-2000934
1002
}
  0
LINE
  5
250
330
70
100
AcDbEntity
  8
A-ALV-___-___-EXI
100
AcDbLine
 10
42835.88127776225
 20
-46790.91146887542
 30
0.0
 11
44555.88127776225
 21
-46790.91146887542
 31
0.0
1001
REVIT
1002
{
1070
     1
1000
23031215
1002
}
1002
{
1070
     2
1000
-2000051
1002
}
1002
{
1070
     3
1000
-2000284
1002
}
  0
LINE
  5
251
330
70
100
AcDbEntity
  8
A-ALV-___-___-EXI
100
AcDbLine
 10
42835.88127776225
 20
-46946.20558652254
 30
0.0
 11
44555.88127776225
 21
-46946.20558652254
 31
0.0
1001
REVIT
1002
{
1070
     1
1000
23031216
1002
}
1002
{
1070
     2
1000
-2000051
1002
}
1002
{
1070
     3
1000
-2000284
1002
}
  0
LWPOLYLINE
  5
28C
330
70
100
AcDbEntity
  8
A-ALV-___-___-EXI
100
AcDbPolyline
 90
       13
 70
     0
 43
0.0
 10
45205.88127776227
 20
-33620.91146887546
 10
45205.88127776228
 20
-32520.91146887546
 10
45055.88127776229
 20
-32520.91146887546
 10
45205.88127776228
 20
-32520.91146887546
 10
45205.88127776228
 20
-30910.91146887547
 10
45055.88127776229
 20
-30910.91146887547
 10
45055.88127776226
 20
-30310.91146887547
 10
42835.88127776227
 20
-30310.91146887547
 10
42835.88127776229
 20
-31420.91146887547
 10
43735.8812777623
 20
-31420.91146887547
 10
43735.88127776228
 20
-32200.91146887547
 10
43585.88127776227
 20
-32200.91146887547
 10
42835.88127776228
 20
-32200.91146887547
1001
REVIT
1002
{
1070
     1
1000
23031213
1002
}
1002
{
1070
     2
1000
-2000051
1002
}
1002
{
1070
     3
1000
-2000042
1002
}
  0
LWPOLYLINE
  5
28D
330
70
100
AcDbEntity
  8
A-JAN-___-___-EXI
100
AcDbPolyline
 90
        3
 70
     0
 43
0.0
 10
45135.88127776227
 20
-36820.91146887546
 10
44785.88127776228
 20
-36370.91146887546
 10
45135.88127776228
 20
-35920.91146887546
1001
REVIT
1002
{
1070
     1
1000
23031210
1002
}
1002
{
1070
     2
1000
-2000051
1002
}
1002
{
1070
     3
1000
-2000042
1002
}
  0
LWPOLYLINE
  5
28E
330
70
100
AcDbEntity
  8
A-ALV-___-___-EXI
100
AcDbPolyline
 90
       10
 70
     0
 43
0.0
 10
44675.88127776227
 20
-30160.91146887547
 10
44675.88127776227
 20
-29940.91146887547
 10
45395.88127776227
 20
-29940.91146887547
 10
45395.8812777623
 20
-30910.91146887547
 10
45205.88127776229
 20
-30910.91146887547
 10
45055.88127776229
 20
-30910.91146887547
 10
45055.88127776227
 20
-32520.91146887546
 10
45055.88127776229
 20
-33020.91146887547
 10
43735.88127776228
 20
-33020.91146887548
 10
43735.88127776228
 20
-32820.91146887548
1001
REVIT
1002
{
1070
     1
1000
23031205
1002
}
1002
{
1070
     2
1000
-2000051
1002
}
1002
{
1070
     3
1000
-2000042
1002
}
  0
LWPOLYLINE
  5
290
330
70
100
AcDbEntity
  8
A-ALV-___-___-EXI
100
AcDbPolyline
 90
        4
 70
     1
 43
0.0
 10
45055.88127776227
 20
-33620.91146887546
 10
45205.88127776227
 20
-33620.91146887546
 10
45205.88127776227
 20
-34520.91146887546
 10
45055.88127776227
 20
-34520.91146887546
1001
REVIT
1002
{
1070
     1
1000
23031200
1002
}
1002
{
1070
     2
1000
-2000051
1002
}
1002
{
1070
     3
1000
-2000042
1002
}
  0
LWPOLYLINE
  5
294
330
70
100
AcDbEntity
  8
A-JAN-___-___-EXI
100
AcDbPolyline
 90
        3
 70
     0
 43
0.0
 10
46365.88127776221
 20
-54050.91146887547
 10
46857.74917353294
 20
-53743.55829562023
 10
47265.88127776222
 20
-54050.91146887547
1001
REVIT
1002
{
1070
     1
1000
23031180
1002
}
1002
{
1070
     2
1000
-2000051
1002
}
1002
{
1070
     3
1000
-2000042
1002
}
  0
LWPOLYLINE
  5
295
330
70
100
AcDbEntity
  8
A-JAN-___-___-EXI
100
AcDbPolyline
 90
        6
 70
     0
 43
0.0
 10
43365.8812777622
 20
-54050.91146887547
 10
43816.2144877301
 20
-53790.91146887547
 10
44265.88127776221
 20
-54050.91146887546
 10
44885.88127776219
 20
-54050.91146887546
 10
45295.4572999067
 20
-53764.12325069994
 10
45791.45398254524
 20
-54050.91146887546
1001
REVIT
1002
{
1070
     1
1000
23031178
1002
}
1002
{
1070
     2
1000
-2000051
1002
}
1002
{
1070
     3
1000
-2000042
1002
}
  0
LWPOLYLINE
  5
296
330
70
100
AcDbEntity
  8
A-PIL-___-___-EXI
 62
     7
370
    35
100
AcDbPolyline
 90
        4
 70
     1
 43
0.0
 10
46455.88127776225
 20
-36956.77476647383
 10
46455.88127776225
 20
-37156.77476647382
 10
46705.88127776226
 20
-37156.77476647382
 10
46705.88127776226
 20
-36956.77476647383
1001
REVIT
1002
{
1070
     1
1000
22930723
1002
}
1002
{
1070
     5
1000
22554474
1002
}
1002
{
1070
     2
1000
-2000011
1002
}
  0
LWPOLYLINE
  5
297
330
70
100
AcDbEntity
  8
A-ESC-___-___-EXI
100
AcDbPolyline
 90
        2
 70
     1
 43
0.0
 10
46205.8812777623
 20
-31596.77476647382
 10
45205.88127776229
 20
-31596.77476647382
1001
REVIT
1002
{
1070
     1
1000
22930706
1002
}
1002
{
1070
     5
1000
141734
1002
}
1002
{
1070
     2
1000
-2000120
1002
}
1002
{
1070
     3
1000
-2000932
1002
}
  0
LWPOLYLINE
  5
298
330
70
100
AcDbEntity
  8
A-ESC-___-___-EXI
100
AcDbPolyline
 90
        2
 70
     1
 43
0.0
 10
46205.88127776228
 20
-31846.77476647382
 10
45205.88127776228
 20
-31846.77476647382
1001
REVIT
1002
{
1070
     1
1000
22930706
1002
}
1002
{
1070
     5
1000
141734
1002
}
1002
{
1070
     2
1000
-2000120
1002
}
1002
{
1070
     3
1000
-2000932
1002
}
  0
LWPOLYLINE
  5
299
330
70
100
AcDbEntity
  8
A-ESC-___-___-EXI
100
AcDbPolyline
 90
        2
 70
     1
 43
0.0
 10
46205.88127776228
 20
-32096.77476647382
 10
45205.88127776228
 20
-32096.77476647382
1001
REVIT
1002
{
1070
     1
1000
22930706
1002
}
1002
{
1070
     5
1000
141734
1002
}
1002
{
1070
     2
1000
-2000120
1002
}
1002
{
1070
     3
1000
-2000932
1002
}
  0
LWPOLYLINE
  5
29A
330
70
100
AcDbEntity
  8
A-ESC-___-___-EXI
100
AcDbPolyline
 90
        2
 70
     1
 43
0.0
 10
46205.88127776228
 20
-32346.77476647382
 10
45205.88127776228
 20
-32346.77476647382
1001
REVIT
1002
{
1070
     1
1000
22930706
1002
}
1002
{
1070
     5
1000
141734
1002
}
1002
{
1070
     2
1000
-2000120
1002
}
1002
{
1070
     3
1000
-2000932
1002
}
  0
LWPOLYLINE
  5
29B
330
70
100
AcDbEntity
  8
A-ESC-___-___-EXI
100
AcDbPolyline
 90
        2
 70
     1
 43
0.0
 10
46205.88127776228
 20
-32596.77476647384
 10
45205.88127776228
 20
-32596.7747664738
1001
REVIT
1002
{
1070
     1
1000
22930706
1002
}
1002
{
1070
     5
1000
141734
1002
}
1002
{
1070
     2
1000
-2000120
1002
}
1002
{
1070
     3
1000
-2000932
1002
}
  0
LWPOLYLINE
  5
29C
330
70
100
AcDbEntity
  8
A-ESC-___-___-EXI
100
AcDbPolyline
 90
        4
 70
     1
 43
0.0
 10
46205.88127776227
 20
-32846.77476647382
 10
45806.33110039094
 20
-32846.77476647382
 10
45705.88127776227
 20
-32846.77476647382
 10
45806.33110039094
 20
-32846.77476647382
1001
REVIT
1002
{
1070
     1
1000
22930706
1002
}
1002
{
1070
     5
1000
141734
1002
}
1002
{
1070
     2
1000
-2000120
1002
}
1002
{
1070
     3
1000
-2000932
1002
}
  0
LWPOLYLINE
  5
29D
330
70
100
AcDbEntity
  8
A-ESC-___-___-EXI
100
AcDbPolyline
 90
        4
 70
     1
 43
0.0
 10
45705.88127776227
 20
-32846.77476647382
 10
45605.4314551336
 20
-32846.77476647382
 10
45205.88127776227
 20
-32846.77476647382
 10
45605.4314551336
 20
-32846.77476647382
1001
REVIT
1002
{
1070
     1
1000
22930706
1002
}
1002
{
1070
     5
1000
141734
1002
}
1002
{
1070
     2
1000
-2000120
1002
}
1002
{
1070
     3
1000
-2000932
1002
}
  0
LWPOLYLINE
  5
29E
330
70
100
AcDbEntity
  8
A-ESC-___-___-EXI
100
AcDbPolyline
 90
        2
 70
     1
 43
0.0
 10
46205.88127776227
 20
-33346.77476647382
 10
45205.88127776227
 20
-33346.77476647382
1001
REVIT
1002
{
1070
     1
1000
22930706
1002
}
1002
{
1070
     5
1000
141734
1002
}
1002
{
1070
     2
1000
-2000120
1002
}
1002
{
1070
     3
1000
-2000933
1002
}
  0
LWPOLYLINE
  5
29F
330
70
100
AcDbEntity
  8
A-ESC-___-___-EXI
100
AcDbPolyline
 90
        2
 70
     1
 43
0.0
 10
46205.88127776227
 20
-33596.77476647382
 10
45205.88127776227
 20
-33596.77476647382
1001
REVIT
1002
{
1070
     1
1000
22930706
1002
}
1002
{
1070
     5
1000
141734
1002
}
1002
{
1070
     2
1000
-2000120
1002
}
1002
{
1070
     3
1000
-2000933
1002
}
  0
LWPOLYLINE
  5
2A0
330
70
100
AcDbEntity
  8
A-ESC-___-___-EXI
100
AcDbPolyline
 90
        2
 70
     1
 43
0.0
 10
46205.88127776227
 20
-33846.77476647382
 10
45205.88127776227
 20
-33846.77476647382
1001
REVIT
1002
{
1070
     1
1000
22930706
1002
}
1002
{
1070
     5
1000
141734
1002
}
1002
{
1070
     2
1000
-2000120
1002
}
1002
{
1070
     3
1000
-2000933
1002
}
  0
LWPOLYLINE
  5
2A1
330
70
100
AcDbEntity
  8
A-ESC-___-___-EXI
  6
Projeção
100
AcDbPolyline
 90
       13
 70
     0
 43
0.0
 10
46205.88127776228
 20
-32613.62093739632
 10
46205.88127776228
 20
-32596.77476647384
 10
46205.88127776228
 20
-32346.77476647382
 10
46205.88127776228
 20
-32096.77476647382
 10
46205.88127776228
 20
-31846.77476647382
 10
46205.8812777623
 20
-31596.77476647382
 10
46205.8812777623
 20
-31346.77476647382
 10
45205.88127776229
 20
-31346.77476647382
 10
45205.88127776229
 20
-31596.77476647382
 10
45205.88127776228
 20
-31846.77476647382
 10
45205.88127776228
 20
-32096.77476647382
 10
45205.88127776228
 20
-32346.77476647382
 10
45205.88127776228
 20
-32520.91146887546
1001
REVIT
1002
{
1070
     1
1000
22930706
1002
}
1002
{
1070
     5
1000
141734
1002
}
1002
{
1070
     2
1000
-2000120
1002
}
1002
{
1070
     3
1000
-2000936
1002
}
  0
LWPOLYLINE
  5
2A2
330
70
100
AcDbEntity
  8
A-ESC-___-___-EXI
  6
Continuous
100
AcDbPolyline
 90
       19
 70
     0
 43
0.0
 10
45205.88127776227
 20
-33079.92859555132
 10
45592.59280438269
 20
-32899.6020491914
 10
45639.84717436529
 20
-32705.16417474934
 10
45771.91538115926
 20
-32988.38535819829
 10
45819.16975114185
 20
-32793.94748375623
 10
46205.88127776228
 20
-32613.62093739632
 10
46205.88127776227
 20
-34096.77476647382
 10
46205.88127776226
 20
-35936.77476647382
 10
46705.88127776226
 20
-35936.77476647382
 10
46705.88127776226
 20
-36136.77476647383
 10
46455.88127776226
 20
-36136.77476647383
 10
46455.88127776226
 20
-35936.77476647384
 10
46705.88127776226
 20
-35936.77476647384
 10
46705.88127776226
 20
-37156.77476647381
 10
45205.88127776226
 20
-37156.77476647381
 10
45205.88127776227
 20
-34096.77476647382
 10
45205.88127776227
 20
-33096.77476647382
 10
46205.88127776227
 20
-33096.77476647382
 10
45205.88127776227
 20
-33096.77476647382
1001
REVIT
1002
{
1070
     1
1000
22930706
1002
}
1002
{
1070
     5
1000
141734
1002
}
1002
{
1070
     2
1000
-2000120
1002
}
1002
{
1070
     3
1000
-2000930
1002
}
  0
LWPOLYLINE
  5
2A3
330
70
100
AcDbEntity
  8
A-ESC-___-___-EXI
100
AcDbPolyline
 90
        2
 70
     1
 43
0.0
 10
47545.88127776226
 20
-47840.91146887543
 10
47545.88127776226
 20
-47040.91146887543
1001
REVIT
1002
{
1070
     1
1000
22930703
1002
}
1002
{
1070
     5
1000
141734
1002
}
1002
{
1070
     2
1000
-2000120
1002
}
1002
{
1070
     3
1000
-2000932
1002
}
  0
LWPOLYLINE
  5
2A4
330
70
100
AcDbEntity
  8
A-ESC-___-___-EXI
100
AcDbPolyline
 90
        2
 70
     1
 43
0.0
 10
47295.88127776225
 20
-47840.91146887543
 10
47295.88127776225
 20
-47040.91146887543
1001
REVIT
1002
{
1070
     1
1000
22930703
1002
}
1002
{
1070
     5
1000
141734
1002
}
1002
{
1070
     2
1000
-2000120
1002
}
1002
{
1070
     3
1000
-2000932
1002
}
  0
LWPOLYLINE
  5
2A5
330
70
100
AcDbEntity
  8
A-ESC-___-___-EXI
100
AcDbPolyline
 90
        2
 70
     1
 43
0.0
 10
47045.88127776226
 20
-47840.91146887543
 10
47045.88127776226
 20
-47040.91146887543
1001
REVIT
1002
{
1070
     1
1000
22930703
1002
}
1002
{
1070
     5
1000
141734
1002
}
1002
{
1070
     2
1000
-2000120
1002
}
1002
{
1070
     3
1000
-2000932
1002
}
  0
LWPOLYLINE
  5
2A6
330
70
100
AcDbEntity
  8
A-ESC-___-___-EXI
100
AcDbPolyline
 90
        2
 70
     1
 43
0.0
 10
46795.88127776225
 20
-47840.91146887543
 10
46795.88127776225
 20
-47040.91146887543
1001
REVIT
1002
{
1070
     1
1000
22930703
1002
}
1002
{
1070
     5
1000
141734
1002
}
1002
{
1070
     2
1000
-2000120
1002
}
1002
{
1070
     3
1000
-2000932
1002
}
  0
LWPOLYLINE
  5
2A7
330
70
100
AcDbEntity
  8
A-ESC-___-___-EXI
100
AcDbPolyline
 90
        2
 70
     1
 43
0.0
 10
46545.88127776226
 20
-47840.91146887543
 10
46545.88127776226
 20
-47040.91146887543
1001
REVIT
1002
{
1070
     1
1000
22930703
1002
}
1002
{
1070
     5
1000
141734
1002
}
1002
{
1070
     2
1000
-2000120
1002
}
1002
{
1070
     3
1000
-2000932
1002
}
  0
LWPOLYLINE
  5
2A8
330
70
100
AcDbEntity
  8
A-ESC-___-___-EXI
100
AcDbPolyline
 90
        4
 70
     1
 43
0.0
 10
46295.88127776226
 20
-47840.91146887543
 10
46295.88127776226
 20
-47541.36129150411
 10
46295.88127776226
 20
-47440.91146887543
 10
46295.88127776226
 20
-47541.36129150411
1001
REVIT
1002
{
1070
     1
1000
22930703
1002
}
1002
{
1070
     5
1000
141734
1002
}
1002
{
1070
     2
1000
-2000120
1002
}
1002
{
1070
     3
1000
-2000932
1002
}
  0
LWPOLYLINE
  5
2A9
330
70
100
AcDbEntity
  8
A-ESC-___-___-EXI
100
AcDbPolyline
 90
        4
 70
     1
 43
0.0
 10
46295.88127776226
 20
-47440.91146887543
 10
46295.88127776226
 20
-47340.46164624676
 10
46295.88127776226
 20
-47040.91146887543
 10
46295.88127776226
 20
-47340.46164624676
1001
REVIT
1002
{
1070
     1
1000
22930703
1002
}
1002
{
1070
     5
1000
141734
1002
}
1002
{
1070
     2
1000
-2000120
1002
}
1002
{
1070
     3
1000
-2000932
1002
}
  0
LWPOLYLINE
  5
2AA
330
70
100
AcDbEntity
  8
A-ESC-___-___-EXI
100
AcDbPolyline
 90
        2
 70
     1
 43
0.0
 10
46045.88127776225
 20
-47840.91146887543
 10
46045.88127776225
 20
-47040.91146887543
1001
REVIT
1002
{
1070
     1
1000
22930703
1002
}
1002
{
1070
     5
1000
141734
1002
}
1002
{
1070
     2
1000
-2000120
1002
}
1002
{
1070
     3
1000
-2000933
1002
}
  0
LWPOLYLINE
  5
2AB
330
70
100
AcDbEntity
  8
A-ESC-___-___-EXI
  6
Continuous
100
AcDbPolyline
 90
        6
 70
     0
 43
0.0
 10
46109.35821450026
 20
-47040.91146887543
 10
46243.05399504468
 20
-47327.62299549585
 10
46437.49186948675
 20
-47374.87736547845
 10
46154.27068603779
 20
-47506.94557227242
 10
46348.70856047986
 20
-47554.19994225502
 10
46482.40434102427
 20
-47840.91146887543
1001
REVIT
1002
{
1070
     1
1000
22930703
1002
}
1002
{
1070
     5
1000
141734
1002
}
1002
{
1070
     2
1000
-2000120
1002
}
1002
{
1070
     3
1000
-2000930
1002
}
  0
LWPOLYLINE
  5
2AC
330
70
100
AcDbEntity
  8
A-ALV-___-___-EXI
 62
     7
370
    35
100
AcDbPolyline
 90
        3
 70
     0
 43
0.0
 10
45205.88127776228
 20
-30910.91146887547
 10
45205.88127776226
 20
-30160.91146887547
 10
42685.88127776227
 20
-30160.91146887547
1001
REVIT
1002
{
1070
     1
1000
22926476
1002
}
1002
{
1070
     5
1000
3324767
1002
}
1002
{
1070
     2
1000
-2000011
1002
}
  0
LWPOLYLINE
  5
2AE
330
70
100
AcDbEntity
  8
A-ALV-___-___-EXI
 62
     7
370
    35
100
AcDbPolyline
 90
        8
 70
     0
 43
0.0
 10
45755.88127776227
 20
-44340.91146887543
 10
45865.88127776228
 20
-44340.91146887543
 10
45865.88127776226
 20
-47040.91146887543
 10
47795.88127776226
 20
-47040.91146887543
 10
47795.88127776225
 20
-47840.91146887543
 10
45865.88127776226
 20
-47840.91146887543
 10
45865.88127776225
 20
-49590.91146887542
 10
45750.88127776225
 20
-49590.91146887542
1001
REVIT
1002
{
1070
     1
1000
22925176
1002
}
1002
{
1070
     5
1000
3324767
1002
}
1002
{
1070
     2
1000
-2000011
1002
}
  0
LWPOLYLINE
  5
2AF
330
70
100
AcDbEntity
  8
A-ALV-___-___-EXI
 62
     7
370
    35
100
AcDbPolyline
 90
        6
 70
     0
 43
0.0
 10
46470.88127776225
 20
-49590.91146887542
 10
46015.88127776226
 20
-49590.91146887542
 10
46015.88127776226
 20
-47990.91146887544
 10
47795.88127776225
 20
-47990.91146887544
 10
47795.88127776224
 20
-49590.91146887543
 10
47275.88127776225
 20
-49590.91146887542
1001
REVIT
1002
{
1070
     1
1000
22924858
1002
}
1002
{
1070
     5
1000
3324767
1002
}
1002
{
1070
     2
1000
-2000011
1002
}
  0
LWPOLYLINE
  5
2B1
330
70
100
AcDbEntity
  8
A-ALV-___-___-EXI
 62
     7
370
    35
100
AcDbPolyline
 90
       12
 70
     0
 43
0.0
 10
43115.88127776227
 20
-30160.91146887547
 10
43115.88127776227
 20
-29880.91146887547
 10
42685.88127776227
 20
-29880.91146887547
 10
42685.88127776227
 20
-30160.91146887547
 10
42685.88127776225
 20
-54200.91146887547
 10
47945.88127776226
 20
-54200.91146887547
 10
47945.88127776224
 20
-38920.91146887545
 10
45205.88127776226
 20
-38920.91146887546
 10
45205.88127776227
 20
-36780.91146887546
 10
45055.88127776227
 20
-36780.91146887546
 10
45055.88127776226
 20
-38920.91146887546
 10
44855.88127776225
 20
-38920.91146887546
1001
REVIT
1002
{
1070
     1
1000
22922136
1002
}
1002
{
1070
     5
1000
3324767
1002
}
1002
{
1070
     2
1000
-2000011
1002
}
  0
LWPOLYLINE
  5
2B2
330
70
100
AcDbEntity
  8
A-ESC-___-___-EXI
100
AcDbPolyline
 90
        2
 70
     1
 43
0.0
 10
46205.88127776227
 20
-34096.77476647382
 10
45205.88127776227
 20
-34096.77476647382
1001
REVIT
1002
{
1070
     1
1000
22930706
1002
}
1002
{
1070
     5
1000
141734
1002
}
1002
{
1070
     2
1000
-2000120
1002
}
1002
{
1070
     3
1000
-2000937
1002
}
  0
LINE
  5
2C9
330
70
100
AcDbEntity
  8
A-ALV-___-___-EXI
 62
     7
370
    35
100
AcDbLine
 10
44255.88127776227
 20
-44340.91146887543
 30
0.0
 11
44555.88127776228
 21
-44340.91146887543
 31
0.0
1001
REVIT
1002
{
1070
     1
1000
22925480
1002
}
1002
{
1070
     5
1000
3324767
1002
}
1002
{
1070
     2
1000
-2000011
1002
}
  0
LINE
  5
2CA
330
70
100
AcDbEntity
  8
A-ALV-___-___-EXI
 62
     7
370
    35
100
AcDbLine
 10
44555.88127776228
 20
-44340.91146887543
 30
0.0
 11
44555.88127776225
 21
-49590.91146887543
 31
0.0
1001
REVIT
1002
{
1070
     1
1000
22925480
1002
}
1002
{
1070
     5
1000
3324767
1002
}
1002
{
1070
     2
1000
-2000011
1002
}
  0
LINE
  5
2CB
330
70
100
AcDbEntity
  8
A-ALV-___-___-EXI
 62
     7
370
    35
100
AcDbLine
 10
44555.88127776225
 20
-49590.91146887543
 30
0.0
 11
44265.88127776224
 21
-49590.91146887543
 31
0.0
1001
REVIT
1002
{
1070
     1
1000
22925480
1002
}
1002
{
1070
     5
1000
3324767
1002
}
1002
{
1070
     2
1000
-2000011
1002
}
  0
LINE
  5
2CC
330
70
100
AcDbEntity
  8
A-ALV-___-___-EXI
 62
     7
370
    35
100
AcDbLine
 10
44265.88127776224
 20
-49590.91146887543
 30
0.0
 11
44265.88127776224
 21
-49740.91146887543
 31
0.0
1001
REVIT
1002
{
1070
     1
1000
22925480
1002
}
1002
{
1070
     5
1000
3324767
1002
}
1002
{
1070
     2
1000
-2000011
1002
}
  0
LINE
  5
2CD
330
70
100
AcDbEntity
  8
A-ALV-___-___-EXI
 62
     7
370
    35
100
AcDbLine
 10
44265.88127776224
 20
-49740.91146887543
 30
0.0
 11
44865.88127776225
 21
-49740.91146887543
 31
0.0
1001
REVIT
1002
{
1070
     1
1000
22925480
1002
}
1002
{
1070
     5
1000
3324767
1002
}
1002
{
1070
     2
1000
-2000011
1002
}
  0
LINE
  5
2CE
330
70
100
AcDbEntity
  8
A-ALV-___-___-EXI
 62
     7
370
    35
100
AcDbLine
 10
44865.88127776225
 20
-49740.91146887543
 30
0.0
 11
44865.88127776225
 21
-49590.91146887543
 31
0.0
1001
REVIT
1002
{
1070
     1
1000
22925480
1002
}
1002
{
1070
     5
1000
3324767
1002
}
1002
{
1070
     2
1000
-2000011
1002
}
  0
LINE
  5
2CF
330
70
100
AcDbEntity
  8
A-POR-___-___-EXI
 62
     7
370
    35
100
AcDbLine
 10
44865.88127776225
 20
-49590.91146887543
 30
0.0
 11
45308.38127776224
 21
-49290.91146887544
 31
0.0
1001
REVIT
1002
{
1070
     1
1000
22925480
1002
}
1002
{
1070
     5
1000
3324767
1002
}
1002
{
1070
     2
1000
-2000011
1002
}
  0
LINE
  5
2D0
330
70
100
AcDbEntity
  8
A-POR-___-___-EXI
 62
     7
370
    35
100
AcDbLine
 10
45308.38127776224
 20
-49290.91146887544
 30
0.0
 11
45750.88127776225
 21
-49590.91146887542
 31
0.0
1001
REVIT
1002
{
1070
     1
1000
22925480
1002
}
1002
{
1070
     5
1000
3324767
1002
}
1002
{
1070
     2
1000
-2000011
1002
}
  0
LINE
  5
2D1
330
70
100
AcDbEntity
  8
A-ALV-___-___-EXI
 62
     7
370
    35
100
AcDbLine
 10
45750.88127776225
 20
-49590.91146887542
 30
0.0
 11
45750.88127776225
 21
-49740.91146887542
 31
0.0
1001
REVIT
1002
{
1070
     1
1000
22925480
1002
}
1002
{
1070
     5
1000
3324767
1002
}
1002
{
1070
     2
1000
-2000011
1002
}
  0
LINE
  5
2D2
330
70
100
AcDbEntity
  8
A-ALV-___-___-EXI
 62
     7
370
    35
100
AcDbLine
 10
45750.88127776225
 20
-49740.91146887542
 30
0.0
 11
46470.88127776225
 21
-49740.91146887542
 31
0.0
1001
REVIT
1002
{
1070
     1
1000
22925480
1002
}
1002
{
1070
     5
1000
3324767
1002
}
1002
{
1070
     2
1000
-2000011
1002
}
  0
LINE
  5
2D3
330
70
100
AcDbEntity
  8
A-ALV-___-___-EXI
 62
     7
370
    35
100
AcDbLine
 10
46470.88127776225
 20
-49740.91146887542
 30
0.0
 11
46470.88127776225
 21
-49590.91146887542
 31
0.0
1001
REVIT
1002
{
1070
     1
1000
22925480
1002
}
1002
{
1070
     5
1000
3324767
1002
}
1002
{
1070
     2
1000
-2000011
1002
}
  0
LINE
  5
2D4
330
70
100
AcDbEntity
  8
A-POR-___-___-EXI
 62
     7
370
    35
100
AcDbLine
 10
46470.88127776225
 20
-49590.91146887542
 30
0.0
 11
46873.38127776225
 21
-49390.91146887543
 31
0.0
1001
REVIT
1002
{
1070
     1
1000
22925480
1002
}
1002
{
1070
     5
1000
3324767
1002
}
1002
{
1070
     2
1000
-2000011
1002
}
  0
LINE
  5
2D5
330
70
100
AcDbEntity
  8
A-POR-___-___-EXI
 62
     7
370
    35
100
AcDbLine
 10
46873.38127776225
 20
-49390.91146887543
 30
0.0
 11
47275.88127776225
 21
-49590.91146887542
 31
0.0
1001
REVIT
1002
{
1070
     1
1000
22925480
1002
}
1002
{
1070
     5
1000
3324767
1002
}
1002
{
1070
     2
1000
-2000011
1002
}
  0
LINE
  5
2D6
330
70
100
AcDbEntity
  8
A-ALV-___-___-EXI
 62
     7
370
    35
100
AcDbLine
 10
47275.88127776225
 20
-49590.91146887542
 30
0.0
 11
47275.88127776225
 21
-49740.91146887542
 31
0.0
1001
REVIT
1002
{
1070
     1
1000
22925480
1002
}
1002
{
1070
     5
1000
3324767
1002
}
1002
{
1070
     2
1000
-2000011
1002
}
  0
LINE
  5
2D7
330
70
100
AcDbEntity
  8
A-ALV-___-___-EXI
 62
     7
370
    35
100
AcDbLine
 10
47275.88127776225
 20
-49740.91146887542
 30
0.0
 11
47795.88127776224
 21
-49740.91146887543
 31
0.0
1001
REVIT
1002
{
1070
     1
1000
22925480
1002
}
1002
{
1070
     5
1000
3324767
1002
}
1002
{
1070
     2
1000
-2000011
1002
}
  0
LINE
  5
2D8
330
70
100
AcDbEntity
  8
A-ALV-___-___-EXI
 62
     7
370
    35
100
AcDbLine
 10
47795.88127776224
 20
-49740.91146887543
 30
0.0
 11
47795.88127776226
 21
-54050.91146887547
 31
0.0
1001
REVIT
1002
{
1070
     1
1000
22925480
1002
}
1002
{
1070
     5
1000
3324767
1002
}
1002
{
1070
     2
1000
-2000011
1002
}
  0
LINE
  5
2D9
330
70
100
AcDbEntity
  8
A-ALV-___-___-EXI
 62
     7
370
    35
100
AcDbLine
 10
47795.88127776226
 20
-54050.91146887547
 30
0.0
 11
42835.88127776225
 21
-54050.91146887547
 31
0.0
1001
REVIT
1002
{
1070
     1
1000
22925480
1002
}
1002
{
1070
     5
1000
3324767
1002
}
1002
{
1070
     2
1000
-2000011
1002
}
  0
LINE
  5
2DA
330
70
100
AcDbEntity
  8
A-ALV-___-___-EXI
 62
     7
370
    35
100
AcDbLine
 10
42835.88127776225
 20
-54050.91146887547
 30
0.0
 11
42835.88127776224
 21
-49740.91146887542
 31
0.0
1001
REVIT
1002
{
1070
     1
1000
22925480
1002
}
1002
{
1070
     5
1000
3324767
1002
}
1002
{
1070
     2
1000
-2000011
1002
}
  0
LINE
  5
2DB
330
70
100
AcDbEntity
  8
A-ALV-___-___-EXI
 62
     7
370
    35
100
AcDbLine
 10
42835.88127776224
 20
-49740.91146887542
 30
0.0
 11
43345.88127776225
 21
-49740.91146887542
 31
0.0
1001
REVIT
1002
{
1070
     1
1000
22925480
1002
}
1002
{
1070
     5
1000
3324767
1002
}
1002
{
1070
     2
1000
-2000011
1002
}
  0
LINE
  5
2DC
330
70
100
AcDbEntity
  8
A-ALV-___-___-EXI
 62
     7
370
    35
100
AcDbLine
 10
43345.88127776225
 20
-49740.91146887542
 30
0.0
 11
43345.88127776225
 21
-49590.91146887542
 31
0.0
1001
REVIT
1002
{
1070
     1
1000
22925480
1002
}
1002
{
1070
     5
1000
3324767
1002
}
1002
{
1070
     2
1000
-2000011
1002
}
  0
LINE
  5
2DD
330
70
100
AcDbEntity
  8
A-POR-___-___-EXI
 62
     7
370
    35
100
AcDbLine
 10
43345.88127776225
 20
-49590.91146887542
 30
0.0
 11
43799.03517128057
 21
-49379.60233800507
 31
0.0
1001
REVIT
1002
{
1070
     1
1000
22925480
1002
}
1002
{
1070
     5
1000
3324767
1002
}
1002
{
1070
     2
1000
-2000011
1002
}
  0
LINE
  5
2DE
330
70
100
AcDbEntity
  8
A-POR-___-___-EXI
 62
     7
370
    35
100
AcDbLine
 10
43799.03517128057
 20
-49379.60233800507
 30
0.0
 11
44265.88127776224
 21
-49590.91146887543
 31
0.0
1001
REVIT
1002
{
1070
     1
1000
22925480
1002
}
1002
{
1070
     5
1000
3324767
1002
}
1002
{
1070
     2
1000
-2000011
1002
}
  0
LINE
  5
2DF
330
70
100
AcDbEntity
  8
A-ALV-___-___-EXI
100
AcDbLine
 10
44865.88127776225
 20
-49590.91146887543
 30
0.0
 11
44705.88127776225
 21
-49590.91146887543
 31
0.0
1001
REVIT
1002
{
1070
     1
1000
23031192
1002
}
1002
{
1070
     2
1000
-2000051
1002
}
1002
{
1070
     3
1000
-2000042
1002
}
  0
LINE
  5
2E0
330
70
100
AcDbEntity
  8
A-ALV-___-___-EXI
100
AcDbLine
 10
44705.88127776225
 20
-49590.91146887543
 30
0.0
 11
44705.88127776228
 21
-44340.91146887543
 31
0.0
1001
REVIT
1002
{
1070
     1
1000
23031192
1002
}
1002
{
1070
     2
1000
-2000051
1002
}
1002
{
1070
     3
1000
-2000042
1002
}
  0
LINE
  5
2E1
330
70
100
AcDbEntity
  8
A-ALV-___-___-EXI
100
AcDbLine
 10
44705.88127776228
 20
-44340.91146887543
 30
0.0
 11
44895.88127776226
 21
-44340.91146887543
 31
0.0
1001
REVIT
1002
{
1070
     1
1000
23031192
1002
}
1002
{
1070
     2
1000
-2000051
1002
}
1002
{
1070
     3
1000
-2000042
1002
}
  0
LINE
  5
2E2
330
70
100
AcDbEntity
  8
A-ALV-___-___-EXI
100
AcDbLine
 10
44895.88127776226
 20
-44340.91146887543
 30
0.0
 11
44895.88127776226
 21
-44190.91146887543
 31
0.0
1001
REVIT
1002
{
1070
     1
1000
23031192
1002
}
1002
{
1070
     2
1000
-2000051
1002
}
1002
{
1070
     3
1000
-2000042
1002
}
  0
LINE
  5
2E3
330
70
100
AcDbEntity
  8
A-ALV-___-___-EXI
100
AcDbLine
 10
44895.88127776226
 20
-44190.91146887543
 30
0.0
 11
44255.88127776227
 21
-44190.91146887543
 31
0.0
1001
REVIT
1002
{
1070
     1
1000
23031192
1002
}
1002
{
1070
     2
1000
-2000051
1002
}
1002
{
1070
     3
1000
-2000042
1002
}
  0
LINE
  5
2E4
330
70
100
AcDbEntity
  8
A-ALV-___-___-EXI
100
AcDbLine
 10
44255.88127776227
 20
-44190.91146887543
 30
0.0
 11
44255.88127776227
 21
-44340.91146887543
 31
0.0
1001
REVIT
1002
{
1070
     1
1000
23031192
1002
}
1002
{
1070
     2
1000
-2000051
1002
}
1002
{
1070
     3
1000
-2000042
1002
}
  0
LINE
  5
2E5
330
70
100
AcDbEntity
  8
A-POR-___-___-EXI
100
AcDbLine
 10
44255.88127776227
 20
-44340.91146887543
 30
0.0
 11
43795.88127776226
 21
-44660.91146887542
 31
0.0
1001
REVIT
1002
{
1070
     1
1000
23031192
1002
}
1002
{
1070
     2
1000
-2000051
1002
}
1002
{
1070
     3
1000
-2000042
1002
}
  0
LINE
  5
2E6
330
70
100
AcDbEntity
  8
A-POR-___-___-EXI
100
AcDbLine
 10
43795.88127776226
 20
-44660.91146887542
 30
0.0
 11
43335.88127776226
 21
-44340.91146887543
 31
0.0
1001
REVIT
1002
{
1070
     1
1000
23031192
1002
}
1002
{
1070
     2
1000
-2000051
1002
}
1002
{
1070
     3
1000
-2000042
1002
}
  0
LINE
  5
2E7
330
70
100
AcDbEntity
  8
A-ALV-___-___-EXI
100
AcDbLine
 10
43335.88127776226
 20
-44340.91146887543
 30
0.0
 11
42835.88127776227
 21
-44340.91146887543
 31
0.0
1001
REVIT
1002
{
1070
     1
1000
23031192
1002
}
1002
{
1070
     2
1000
-2000051
1002
}
1002
{
1070
     3
1000
-2000042
1002
}
  0
LINE
  5
2E8
330
70
100
AcDbEntity
  8
A-ALV-___-___-EXI
100
AcDbLine
 10
42835.88127776227
 20
-44340.91146887543
 30
0.0
 11
42835.88127776224
 21
-49590.91146887542
 31
0.0
1001
REVIT
1002
{
1070
     1
1000
23031192
1002
}
1002
{
1070
     2
1000
-2000051
1002
}
1002
{
1070
     3
1000
-2000042
1002
}
  0
LINE
  5
2E9
330
70
100
AcDbEntity
  8
A-ALV-___-___-EXI
100
AcDbLine
 10
42835.88127776224
 20
-49590.91146887542
 30
0.0
 11
43345.88127776225
 21
-49590.91146887542
 31
0.0
1001
REVIT
1002
{
1070
     1
1000
23031192
1002
}
1002
{
1070
     2
1000
-2000051
1002
}
1002
{
1070
     3
1000
-2000042
1002
}
  0
LINE
  5
2EA
330
70
100
AcDbEntity
  8
A-ALV-___-___-EXI
100
AcDbLine
 10
47335.88127776227
 20
-44340.91146887543
 30
0.0
 11
47795.88127776226
 21
-44340.91146887543
 31
0.0
1001
REVIT
1002
{
1070
     1
1000
23031190
1002
}
1002
{
1070
     2
1000
-2000051
1002
}
1002
{
1070
     3
1000
-2000042
1002
}
  0
LINE
  5
2EB
330
70
100
AcDbEntity
  8
A-ALV-___-___-EXI
100
AcDbLine
 10
47795.88127776226
 20
-44340.91146887543
 30
0.0
 11
47795.88127776226
 21
-46890.91146887543
 31
0.0
1001
REVIT
1002
{
1070
     1
1000
23031190
1002
}
1002
{
1070
     2
1000
-2000051
1002
}
1002
{
1070
     3
1000
-2000042
1002
}
  0
LINE
  5
2EC
330
70
100
AcDbEntity
  8
A-ALV-___-___-EXI
100
AcDbLine
 10
47795.88127776226
 20
-46890.91146887543
 30
0.0
 11
46015.88127776226
 21
-46890.91146887543
 31
0.0
1001
REVIT
1002
{
1070
     1
1000
23031190
1002
}
1002
{
1070
     2
1000
-2000051
1002
}
1002
{
1070
     3
1000
-2000042
1002
}
  0
LINE
  5
2ED
330
70
100
AcDbEntity
  8
A-ALV-___-___-EXI
100
AcDbLine
 10
46015.88127776226
 20
-46890.91146887543
 30
0.0
 11
46015.88127776228
 21
-44340.91146887543
 31
0.0
1001
REVIT
1002
{
1070
     1
1000
23031190
1002
}
1002
{
1070
     2
1000
-2000051
1002
}
1002
{
1070
     3
1000
-2000042
1002
}
  0
LINE
  5
2EE
330
70
100
AcDbEntity
  8
A-ALV-___-___-EXI
100
AcDbLine
 10
46015.88127776228
 20
-44340.91146887543
 30
0.0
 11
46395.88127776227
 21
-44340.91146887543
 31
0.0
1001
REVIT
1002
{
1070
     1
1000
23031190
1002
}
1002
{
1070
     2
1000
-2000051
1002
}
1002
{
1070
     3
1000
-2000042
1002
}
  0
LINE
  5
2EF
330
70
100
AcDbEntity
  8
A-ALV-___-___-EXI
100
AcDbLine
 10
46395.88127776227
 20
-44340.91146887543
 30
0.0
 11
46395.88127776227
 21
-44190.91146887543
 31
0.0
1001
REVIT
1002
{
1070
     1
1000
23031190
1002
}
1002
{
1070
     2
1000
-2000051
1002
}
1002
{
1070
     3
1000
-2000042
1002
}
  0
LINE
  5
2F0
330
70
100
AcDbEntity
  8
A-ALV-___-___-EXI
100
AcDbLine
 10
46395.88127776227
 20
-44190.91146887543
 30
0.0
 11
45755.88127776227
 21
-44190.91146887543
 31
0.0
1001
REVIT
1002
{
1070
     1
1000
23031190
1002
}
1002
{
1070
     2
1000
-2000051
1002
}
1002
{
1070
     3
1000
-2000042
1002
}
  0
LINE
  5
2F1
330
70
100
AcDbEntity
  8
A-ALV-___-___-EXI
100
AcDbLine
 10
45755.88127776227
 20
-44190.91146887543
 30
0.0
 11
45755.88127776227
 21
-44340.91146887542
 31
0.0
1001
REVIT
1002
{
1070
     1
1000
23031190
1002
}
1002
{
1070
     2
1000
-2000051
1002
}
1002
{
1070
     3
1000
-2000042
1002
}
  0
LINE
  5
2F2
330
70
100
AcDbEntity
  8
A-POR-___-___-EXI
100
AcDbLine
 10
45755.88127776227
 20
-44340.91146887542
 30
0.0
 11
45325.88127776227
 21
-44680.91146887543
 31
0.0
1001
REVIT
1002
{
1070
     1
1000
23031190
1002
}
1002
{
1070
     2
1000
-2000051
1002
}
1002
{
1070
     3
1000
-2000042
1002
}
  0
LINE
  5
2F3
330
70
100
AcDbEntity
  8
A-POR-___-___-EXI
100
AcDbLine
 10
45325.88127776227
 20
-44680.91146887543
 30
0.0
 11
44895.88127776226
 21
-44340.91146887543
 31
0.0
1001
REVIT
1002
{
1070
     1
1000
23031190
1002
}
1002
{
1070
     2
1000
-2000051
1002
}
1002
{
1070
     3
1000
-2000042
1002
}
  0
LINE
  5
2F4
330
70
100
AcDbEntity
  8
A-ALV-___-___-EXI
 62
     7
370
    35
100
AcDbLine
 10
43335.88127776226
 20
-44340.91146887543
 30
0.0
 11
43335.88127776226
 21
-44190.91146887543
 31
0.0
1001
REVIT
1002
{
1070
     1
1000
22923205
1002
}
1002
{
1070
     5
1000
3324767
1002
}
1002
{
1070
     2
1000
-2000011
1002
}
  0
LINE
  5
2F5
330
70
100
AcDbEntity
  8
A-ALV-___-___-EXI
 62
     7
370
    35
100
AcDbLine
 10
43335.88127776226
 20
-44190.91146887543
 30
0.0
 11
42835.88127776227
 21
-44190.91146887543
 31
0.0
1001
REVIT
1002
{
1070
     1
1000
22923205
1002
}
1002
{
1070
     5
1000
3324767
1002
}
1002
{
1070
     2
1000
-2000011
1002
}
  0
LINE
  5
2F6
330
70
100
AcDbEntity
  8
A-ALV-___-___-EXI
 62
     7
370
    35
100
AcDbLine
 10
42835.88127776227
 20
-44190.91146887543
 30
0.0
 11
42835.88127776225
 21
-39070.91146887547
 31
0.0
1001
REVIT
1002
{
1070
     1
1000
22923205
1002
}
1002
{
1070
     5
1000
3324767
1002
}
1002
{
1070
     2
1000
-2000011
1002
}
  0
LINE
  5
2F7
330
70
100
AcDbEntity
  8
A-ALV-___-___-EXI
 62
     7
370
    35
100
AcDbLine
 10
42835.88127776225
 20
-39070.91146887547
 30
0.0
 11
43995.88127776225
 21
-39070.91146887547
 31
0.0
1001
REVIT
1002
{
1070
     1
1000
22923205
1002
}
1002
{
1070
     5
1000
3324767
1002
}
1002
{
1070
     2
1000
-2000011
1002
}
  0
LINE
  5
2F8
330
70
100
AcDbEntity
  8
A-ALV-___-___-EXI
 62
     7
370
    35
100
AcDbLine
 10
43995.88127776225
 20
-39070.91146887547
 30
0.0
 11
43995.88127776225
 21
-38920.91146887547
 31
0.0
1001
REVIT
1002
{
1070
     1
1000
22923205
1002
}
1002
{
1070
     5
1000
3324767
1002
}
1002
{
1070
     2
1000
-2000011
1002
}
  0
LINE
  5
2F9
330
70
100
AcDbEntity
  8
A-POR-___-___-EXI
 62
     7
370
    35
100
AcDbLine
 10
43995.88127776225
 20
-38920.91146887547
 30
0.0
 11
44425.88127776226
 21
-38640.91146887547
 31
0.0
1001
REVIT
1002
{
1070
     1
1000
22923205
1002
}
1002
{
1070
     5
1000
3324767
1002
}
1002
{
1070
     2
1000
-2000011
1002
}
  0
LINE
  5
2FA
330
70
100
AcDbEntity
  8
A-POR-___-___-EXI
 62
     7
370
    35
100
AcDbLine
 10
44425.88127776226
 20
-38640.91146887547
 30
0.0
 11
44855.88127776225
 21
-38920.91146887546
 31
0.0
1001
REVIT
1002
{
1070
     1
1000
22923205
1002
}
1002
{
1070
     5
1000
3324767
1002
}
1002
{
1070
     2
1000
-2000011
1002
}
  0
LINE
  5
2FB
330
70
100
AcDbEntity
  8
A-ALV-___-___-EXI
 62
     7
370
    35
100
AcDbLine
 10
44855.88127776225
 20
-38920.91146887546
 30
0.0
 11
44855.88127776225
 21
-39070.91146887547
 31
0.0
1001
REVIT
1002
{
1070
     1
1000
22923205
1002
}
1002
{
1070
     5
1000
3324767
1002
}
1002
{
1070
     2
1000
-2000011
1002
}
  0
LINE
  5
2FC
330
70
100
AcDbEntity
  8
A-ALV-___-___-EXI
 62
     7
370
    35
100
AcDbLine
 10
44855.88127776225
 20
-39070.91146887547
 30
0.0
 11
47795.88127776224
 21
-39070.91146887546
 31
0.0
1001
REVIT
1002
{
1070
     1
1000
22923205
1002
}
1002
{
1070
     5
1000
3324767
1002
}
1002
{
1070
     2
1000
-2000011
1002
}
  0
LINE
  5
2FD
330
70
100
AcDbEntity
  8
A-ALV-___-___-EXI
 62
     7
370
    35
100
AcDbLine
 10
47795.88127776224
 20
-39070.91146887546
 30
0.0
 11
47795.88127776226
 21
-44190.91146887543
 31
0.0
1001
REVIT
1002
{
1070
     1
1000
22923205
1002
}
1002
{
1070
     5
1000
3324767
1002
}
1002
{
1070
     2
1000
-2000011
1002
}
  0
LINE
  5
2FE
330
70
100
AcDbEntity
  8
A-ALV-___-___-EXI
 62
     7
370
    35
100
AcDbLine
 10
47795.88127776226
 20
-44190.91146887543
 30
0.0
 11
47335.88127776227
 21
-44190.91146887543
 31
0.0
1001
REVIT
1002
{
1070
     1
1000
22923205
1002
}
1002
{
1070
     5
1000
3324767
1002
}
1002
{
1070
     2
1000
-2000011
1002
}
  0
LINE
  5
2FF
330
70
100
AcDbEntity
  8
A-ALV-___-___-EXI
 62
     7
370
    35
100
AcDbLine
 10
47335.88127776227
 20
-44190.91146887543
 30
0.0
 11
47335.88127776227
 21
-44340.91146887543
 31
0.0
1001
REVIT
1002
{
1070
     1
1000
22923205
1002
}
1002
{
1070
     5
1000
3324767
1002
}
1002
{
1070
     2
1000
-2000011
1002
}
  0
LINE
  5
300
330
70
100
AcDbEntity
  8
A-POR-___-___-EXI
 62
     7
370
    35
100
AcDbLine
 10
47335.88127776227
 20
-44340.91146887543
 30
0.0
 11
46865.88127776227
 21
-44640.91146887543
 31
0.0
1001
REVIT
1002
{
1070
     1
1000
22923205
1002
}
1002
{
1070
     5
1000
3324767
1002
}
1002
{
1070
     2
1000
-2000011
1002
}
  0
LINE
  5
301
330
70
100
AcDbEntity
  8
A-POR-___-___-EXI
 62
     7
370
    35
100
AcDbLine
 10
46865.88127776227
 20
-44640.91146887543
 30
0.0
 11
46395.88127776226
 21
-44340.91146887543
 31
0.0
1001
REVIT
1002
{
1070
     1
1000
22923205
1002
}
1002
{
1070
     5
1000
3324767
1002
}
1002
{
1070
     2
1000
-2000011
1002
}
  0
LINE
  5
302
330
70
100
AcDbEntity
  8
A-JAN-___-___-EXI
100
AcDbLine
 10
45205.88127776226
 20
-36820.91146887546
 30
0.0
 11
45205.88127776226
 21
-35920.91146887546
 31
0.0
1001
REVIT
1002
{
1070
     1
1000
23031201
1002
}
1002
{
1070
     2
1000
-2000051
1002
}
1002
{
1070
     3
1000
-2000042
1002
}
  0
LINE
  5
303
330
70
100
AcDbEntity
  8
A-ALV-___-___-EXI
100
AcDbLine
 10
45205.88127776226
 20
-35920.91146887546
 30
0.0
 11
45055.88127776227
 21
-35920.91146887546
 31
0.0
1001
REVIT
1002
{
1070
     1
1000
23031201
1002
}
1002
{
1070
     2
1000
-2000051
1002
}
1002
{
1070
     3
1000
-2000042
1002
}
  0
LINE
  5
304
330
70
100
AcDbEntity
  8
A-ALV-___-___-EXI
100
AcDbLine
 10
45055.88127776227
 20
-35920.91146887546
 30
0.0
 11
45055.88127776229
 21
-35470.91146887547
 31
0.0
1001
REVIT
1002
{
1070
     1
1000
23031201
1002
}
1002
{
1070
     2
1000
-2000051
1002
}
1002
{
1070
     3
1000
-2000042
1002
}
  0
LINE
  5
305
330
70
100
AcDbEntity
  8
A-ALV-___-___-EXI
100
AcDbLine
 10
45055.88127776229
 20
-35470.91146887547
 30
0.0
 11
42835.88127776228
 21
-35470.91146887547
 31
0.0
1001
REVIT
1002
{
1070
     1
1000
23031201
1002
}
1002
{
1070
     2
1000
-2000051
1002
}
1002
{
1070
     3
1000
-2000042
1002
}
  0
LINE
  5
306
330
70
100
AcDbEntity
  8
A-ALV-___-___-EXI
100
AcDbLine
 10
42835.88127776228
 20
-35470.91146887547
 30
0.0
 11
42835.88127776225
 21
-38920.91146887547
 31
0.0
1001
REVIT
1002
{
1070
     1
1000
23031201
1002
}
1002
{
1070
     2
1000
-2000051
1002
}
1002
{
1070
     3
1000
-2000042
1002
}
  0
LINE
  5
307
330
70
100
AcDbEntity
  8
A-ALV-___-___-EXI
100
AcDbLine
 10
42835.88127776225
 20
-38920.91146887547
 30
0.0
 11
43995.88127776225
 21
-38920.91146887547
 31
0.0
1001
REVIT
1002
{
1070
     1
1000
23031201
1002
}
1002
{
1070
     2
1000
-2000051
1002
}
1002
{
1070
     3
1000
-2000042
1002
}
  0
LINE
  5
308
330
70
100
AcDbEntity
  8
A-ALV-___-___-EXI
100
AcDbLine
 10
43585.88127776227
 20
-32200.91146887547
 30
0.0
 11
43585.88127776229
 21
-31570.91146887548
 31
0.0
1001
REVIT
1002
{
1070
     1
1000
23031214
1002
}
1002
{
1070
     2
1000
-2000051
1002
}
1002
{
1070
     3
1000
-2000042
1002
}
  0
LINE
  5
309
330
70
100
AcDbEntity
  8
A-ALV-___-___-EXI
100
AcDbLine
 10
43585.88127776229
 20
-31570.91146887548
 30
0.0
 11
42835.88127776229
 21
-31570.91146887548
 31
0.0
1001
REVIT
1002
{
1070
     1
1000
23031214
1002
}
1002
{
1070
     2
1000
-2000051
1002
}
1002
{
1070
     3
1000
-2000042
1002
}
  0
LINE
  5
30A
330
70
100
AcDbEntity
  8
A-ALV-___-___-EXI
100
AcDbLine
 10
42835.88127776229
 20
-31570.91146887548
 30
0.0
 11
42835.88127776228
 21
-33020.91146887547
 31
0.0
1001
REVIT
1002
{
1070
     1
1000
23031214
1002
}
1002
{
1070
     2
1000
-2000051
1002
}
1002
{
1070
     3
1000
-2000042
1002
}
  0
LINE
  5
30B
330
70
100
AcDbEntity
  8
A-ALV-___-___-EXI
100
AcDbLine
 10
42835.88127776228
 20
-33020.91146887547
 30
0.0
 11
43585.88127776227
 21
-33020.91146887547
 31
0.0
1001
REVIT
1002
{
1070
     1
1000
23031214
1002
}
1002
{
1070
     2
1000
-2000051
1002
}
1002
{
1070
     3
1000
-2000042
1002
}
  0
LINE
  5
30C
330
70
100
AcDbEntity
  8
A-ALV-___-___-EXI
100
AcDbLine
 10
43585.88127776227
 20
-33020.91146887547
 30
0.0
 11
43585.88127776227
 21
-32820.91146887548
 31
0.0
1001
REVIT
1002
{
1070
     1
1000
23031214
1002
}
1002
{
1070
     2
1000
-2000051
1002
}
1002
{
1070
     3
1000
-2000042
1002
}
  0
LINE
  5
30D
330
70
100
AcDbEntity
  8
A-ALV-___-___-EXI
100
AcDbLine
 10
43585.88127776227
 20
-32820.91146887548
 30
0.0
 11
43735.88127776228
 21
-32820.91146887548
 31
0.0
1001
REVIT
1002
{
1070
     1
1000
23031214
1002
}
1002
{
1070
     2
1000
-2000051
1002
}
1002
{
1070
     3
1000
-2000042
1002
}
  0
LINE
  5
30E
330
70
100
AcDbEntity
  8
A-POR-___-___-EXI
100
AcDbLine
 10
43735.88127776228
 20
-32820.91146887548
 30
0.0
 11
44102.97019702695
 21
-32296.65416053053
 31
0.0
1001
REVIT
1002
{
1070
     1
1000
23031214
1002
}
1002
{
1070
     2
1000
-2000051
1002
}
1002
{
1070
     3
1000
-2000042
1002
}
  0
VIEWPORT
  5
253
330
6C
100
AcDbEntity
 67
     1
  8
A-PIS-___-___-EXI
100
AcDbViewport
 10
171.259915131994
 20
211.029313216495
 30
0.0
 40
106.6619835754191
 41
275.9083722445546
 68
     2
 69
     2
 12
45119.65567106478
 22
-41824.86145974364
 13
0.0
 23
0.0
 14
0.0
 24
0.0
 15
0.0
 25
0.0
 16
0.0
 26
0.0
 36
1.0
 17
0.0
 27
0.0
 37
0.0
 42
0.0
 43
0.0
 44
0.0
 45
27590.83722445546
 50
0.0
 51
0.0
 72
  1000
 90
    32768
  1

281
     0
 71
     1
 74
     1
110
0.0
120
0.0
130
0.0
111
1.0
121
0.0
131
0.0
112
0.0
122
1.0
132
0.0
 79
     0
146
0.0
170
     0
 61
     5
292
     1
282
     1
141
0.0
142
0.0
 63
   250
421
  3355443
  0
VIEWPORT
  5
255
330
6C
100
AcDbEntity
 67
     1
  8
0
100
AcDbViewport
 10
13.18725099601594
 20
4.5
 30
0.0
 40
30.37891090924133
 41
12.00174182301087
 68
     1
 69
     1
 12
13.18725099601594
 22
4.5
 13
0.0
 23
0.0
 14
0.0
 24
0.0
 15
0.0
 25
0.0
 16
0.0
 26
0.0
 36
1.0
 17
0.0
 27
0.0
 37
0.0
 42
50.0
 43
0.0
 44
0.0
 45
12.00174182301087
 50
0.0
 51
0.0
 72
   100
 90
    32800
  1

281
     0
 71
     1
 74
     1
110
0.0
120
0.0
130
0.0
111
1.0
121
0.0
131
0.0
112
0.0
122
1.0
132
0.0
 79
     0
146
0.0
170
     0
 61
     5
348
2F
292
     1
282
     1
141
0.0
142
0.0
 63
   250
421
  3355443
  0
INSERT
  5
261
330
6C
100
AcDbEntity
 67
     1
  8
A-MOD-___-___-EXI
100
AcDbBlockReference
  2
SVG - A4-23033332-Não nomeada
 10
0.0
 20
0.0
 30
0.0
1001
REVIT
1002
{
1070
     1
1000
23033383
1002
}
1002
{
1070
     5
1000
23033332
1002
}
1002
{
1070
     2
1000
-2000280
1002
}
  0
ENDSEC
  0
SECTION
  2
OBJECTS
  0
DICTIONARY
  5
C
330
0
100
AcDbDictionary
281
     1
  3
ACAD_CIP_PREVIOUS_PRODUCT_INFO
350
79
  3
ACAD_COLOR
350
63
  3
ACAD_DETAILVIEWSTYLE
350
6A
  3
ACAD_GROUP
350
D
  3
ACAD_IMAGE_VARS
350
7A
  3
ACAD_LAYOUT
350
62
  3
ACAD_MATERIAL
350
10
  3
ACAD_MLEADERSTYLE
350
66
  3
ACAD_MLINESTYLE
350
5F
  3
ACAD_PLOTSETTINGS
350
61
  3
ACAD_PLOTSTYLENAME
350
E
  3
ACAD_RENDER_ACTIVE_RAPIDRT_SETTINGS
350
281
  3
ACAD_RENDER_RAPIDRT_SETTINGS
350
27A
  3
ACAD_SCALELIST
350
42
  3
ACAD_SECTIONVIEWSTYLE
350
68
  3
ACAD_TABLESTYLE
350
64
  3
ACAD_VISUALSTYLE
350
29
  3
ACDB_RECOMPOSE_DATA
350
31F
  3
AcDbVariableDictionary
350
26A
  3
REVIT_DICTIONARY
350
262
  0
SUN
  5
269
330
57
100
AcDbSun
 90
        1
290
     1
 63
     7
421
 16777215
 40
0.3
291
     1
 91
  2460364
 92
 51898000
292
     0
 70
     1
 71
   128
280
     1
  0
DICTIONARY
  5
286
330
2
100
AcDbDictionary
280
     1
281
     1
  3
ACAD_LAYERSTATES
360
287
  0
DICTIONARY
  5
267
330
70
100
AcDbDictionary
280
     1
281
     1
  3
ACAD_SORTENTS
360
268
  0
XRECORD
  5
79
102
{ACAD_REACTORS
330
C
102
}
330
C
100
AcDbXrecord
280
     1
300
ACD
300
2022
300

  0
DICTIONARY
  5
63
102
{ACAD_REACTORS
330
C
102
}
330
C
100
AcDbDictionary
281
     1
  0
DICTIONARY
  5
6A
102
{ACAD_REACTORS
330
C
102
}
330
C
100
AcDbDictionary
281
     1
  3
Imperial24
350
6B
  3
Metric50
350
272
  0
DICTIONARY
  5
D
102
{ACAD_REACTORS
330
C
102
}
330
C
100
AcDbDictionary
281
     1
  0
RASTERVARIABLES
  5
7A
102
{ACAD_REACTORS
330
C
102
}
330
C
100
AcDbRasterVariables
 90
        0
 70
     0
 71
     1
 72
     1
  0
DICTIONARY
  5
62
102
{ACAD_REACTORS
330
C
102
}
330
C
100
AcDbDictionary
281
     1
  3
Layout1
350
6F
  3
Model
350
73
  0
DICTIONARY
  5
10
102
{ACAD_REACTORS
330
C
102
}
330
C
100
AcDbDictionary
281
     1
  3
ByBlock
350
19
  3
ByLayer
350
11
  3
Global
350
21
  0
DICTIONARY
  5
66
102
{ACAD_REACTORS
330
C
102
}
330
C
100
AcDbDictionary
281
     1
  3
Standard
350
67
  0
DICTIONARY
  5
5F
102
{ACAD_REACTORS
330
C
102
}
330
C
100
AcDbDictionary
281
     1
  3
Standard
350
60
  0
DICTIONARY
  5
61
102
{ACAD_REACTORS
330
C
102
}
330
C
100
AcDbDictionary
281
     1
  0
ACDBDICTIONARYWDFLT
  5
E
102
{ACAD_REACTORS
330
C
102
}
330
C
100
AcDbDictionary
281
     1
  3
Normal
350
F
100
AcDbDictionaryWithDefault
340
F
  0
RAPIDRTRENDERSETTINGS
  5
281
102
{ACAD_REACTORS
330
C
102
}
330
C
100
AcDbRenderSettings
 90
        2
  1
Médio
290
     1
290
     0
290
     1
290
     1
  1

  1
Aplica 5 níveis de renderização
 90
        0
100
AcDbRapidRTRenderSettings
 90
        3
 70
     0
 90
        5
 90
        1
 70
     1
 70
     2
 40
3.0
 40
3.0
290
     1
  0
DICTIONARY
  5
27A
102
{ACAD_REACTORS
330
C
102
}
330
C
100
AcDbDictionary
281
     1
  3
Alto
350
27D
  3
Baixo
350
27B
  3
Médio
350
27C
  3
Qualidade de curta duração
350
27E
  3
Qualidade de longa duração
350
280
  3
Qualidade de média duração
350
27F
  0
DICTIONARY
  5
42
102
{ACAD_REACTORS
330
C
102
}
330
C
100
AcDbDictionary
281
     1
  3
A0
350
43
  3
A1
350
44
  3
A2
350
45
  3
A3
350
46
  3
A4
350
47
  3
A5
350
48
  3
A6
350
49
  3
A7
350
4A
  3
A8
350
4B
  3
A9
350
4C
  3
B0
350
4D
  3
B1
350
4E
  3
B2
350
4F
  3
B3
350
50
  3
B4
350
51
  3
B5
350
52
  3
B6
350
53
  0
DICTIONARY
  5
68
102
{ACAD_REACTORS
330
C
102
}
330
C
100
AcDbDictionary
281
     1
  3
Imperial24
350
69
  3
Metric50
350
271
  0
DICTIONARY
  5
64
102
{ACAD_REACTORS
330
C
102
}
330
C
100
AcDbDictionary
281
     1
  3
Standard
350
65
  0
DICTIONARY
  5
29
102
{ACAD_REACTORS
330
C
102
}
330
C
100
AcDbDictionary
281
     1
  3
2dWireframe
350
2F
  3
Basic
350
2E
  3
Brighten
350
35
  3
ColorChange
350
39
  3
Conceptual
350
32
  3
Dim
350
34
  3
EdgeColorOff
350
41
  3
Facepattern
350
38
  3
Flat
350
2A
  3
FlatWithEdges
350
2B
  3
Gouraud
350
2C
  3
GouraudWithEdges
350
2D
  3
Hidden
350
31
  3
JitterOff
350
3F
  3
Linepattern
350
37
  3
OverhangOff
350
40
  3
Realistic
350
33
  3
Shaded
350
3E
  3
Shaded with edges
350
3D
  3
Shades of Gray
350
3A
  3
Sketchy
350
3B
  3
Thicken
350
36
  3
Wireframe
350
30
  3
X-Ray
350
3C
  0
XRECORD
  5
31F
102
{ACAD_REACTORS
330
C
102
}
330
C
100
AcDbXrecord
280
     1
 90
        1
330
65
  0
DICTIONARY
  5
26A
102
{ACAD_REACTORS
330
C
102
}
330
C
100
AcDbDictionary
281
     1
  3
CANNOSCALE
350
26F
  3
CMLEADERSTYLE
350
26C
  3
CTABLESTYLE
350
26B
  3
CVIEWDETAILSTYLE
350
26D
  3
CVIEWSECTIONSTYLE
350
26E
  0
DICTIONARY
  5
262
102
{ACAD_REACTORS
330
C
102
}
330
C
100
AcDbDictionary
281
     1
  3
DRAWING_TOOL
350
266
  3
REVIT_CATEGORY_MAPPING
350
264
  3
REVIT_SUB_CATEGORY_MAPPING
350
265
  3
REVIT_TYPE_MAPPING
350
263
  0
DICTIONARY
  5
287
102
{ACAD_REACTORS
330
286
102
}
330
286
100
AcDbDictionary
281
     1
  0
SORTENTSTABLE
  5
268
102
{ACAD_REACTORS
330
267
102
}
330
267
100
AcDbSortentsTable
330
70
331
28C
  5
297
331
28D
  5
298
331
28E
  5
299
331
290
  5
2A0
331
294
  5
2CD
331
295
  5
2CE
331
296
  5
2CF
331
297
  5
2D0
331
298
  5
2D1
331
299
  5
2D2
331
29A
  5
2D3
331
29B
  5
2D4
331
29C
  5
2D5
331
29D
  5
2D6
331
29E
  5
2D7
331
29F
  5
2D8
331
2A0
  5
2D9
331
2A1
  5
2DA
331
2A2
  5
2DB
331
2A3
  5
2DD
331
2A4
  5
2DE
331
2A5
  5
2DF
331
2A6
  5
2E0
331
2A7
  5
2E1
331
2A8
  5
2E2
331
2A9
  5
2E3
331
2AA
  5
2E4
331
2AB
  5
2E5
331
2AC
  5
2E6
331
2AE
  5
2FD
331
2AF
  5
2FE
331
2B1
  5
30D
331
2B2
  5
30E
331
2C9
  5
2E7
331
2CA
  5
2E8
331
2CB
  5
2E9
331
2CC
  5
2EA
331
2CD
  5
2EB
331
2CE
  5
2EC
331
2CF
  5
2ED
331
2D0
  5
2EE
331
2D1
  5
2EF
331
2D2
  5
2F0
331
2D3
  5
2F1
331
2D4
  5
2F2
331
2D5
  5
2F3
331
2D6
  5
2F4
331
2D7
  5
2F5
331
2D8
  5
2F6
331
2D9
  5
2F7
331
2DA
  5
2F8
331
2DB
  5
2F9
331
2DC
  5
2FA
331
2DD
  5
2FB
331
2DE
  5
2FC
331
2DF
  5
2A1
331
2E0
  5
2A2
331
2E1
  5
2A3
331
2E2
  5
2A4
331
2E3
  5
2A5
331
2E4
  5
2A6
331
2E5
  5
2A7
331
2E6
  5
2A8
331
2E7
  5
2A9
331
2E8
  5
2AA
331
2E9
  5
2AB
331
2EA
  5
2AC
331
2EB
  5
2AE
331
2EC
  5
2AF
331
2ED
  5
2B0
331
2EE
  5
2B1
331
2EF
  5
2B2
331
2F0
  5
2C9
331
2F1
  5
2CA
331
2F2
  5
2CB
331
2F3
  5
2CC
331
2F4
  5
2FF
331
2F5
  5
300
331
2F6
  5
301
331
2F7
  5
302
331
2F8
  5
303
331
2F9
  5
304
331
2FA
  5
305
331
2FB
  5
306
331
2FC
  5
307
331
2FD
  5
308
331
2FE
  5
309
331
2FF
  5
30A
331
300
  5
30B
331
301
  5
30C
331
302
  5
29A
331
303
  5
29B
331
304
  5
29C
331
305
  5
29D
331
306
  5
29E
331
307
  5
29F
331
308
  5
28C
331
309
  5
28D
331
30A
  5
28E
331
30B
  5
290
331
30C
  5
294
331
30D
  5
295
331
30E
  5
296
  0
ACDBDETAILVIEWSTYLE
  5
6B
102
{ACAD_REACTORS
330
6A
102
}
330
6A
100
AcDbModelDocViewStyle
 70
     0
  3
Imperial24
290
     1
300
Imperial24
 90
        0
100
AcDbDetailViewStyle
 70
     0
 71
     0
 90
        3
 71
     1
340
55
 62
   256
 40
0.24
340
0
 62
   256
 40
0.24
300

 40
0.36
280
     3
 71
     2
340
5D
 90
       25
 62
   256
 71
     3
340
55
 62
   256
 40
0.24
 90
        1
 40
0.75
 90
        1
300
%<\AcVar ViewType \f "%tc1">% %<\AcVar ViewDetailId>%\PSCALE %<\AcVar ViewScale \f "%sn">%
 71
     4
340
5D
 90
       25
 62
   256
340
5D
 90
       25
 62
   256
280
     0
  0
ACDBDETAILVIEWSTYLE
  5
272
102
{ACAD_REACTORS
330
6A
102
}
330
6A
100
AcDbModelDocViewStyle
 70
     0
  3
Metric50
290
     1
300
Metric50
 90
        0
100
AcDbDetailViewStyle
 70
     0
 71
     0
 90
        3
 71
     1
340
55
 62
   256
 40
5.0
340
0
 62
   256
 40
5.0
300

 40
0.0
280
     1
 71
     2
340
5D
 90
       25
 62
   256
 71
     3
340
55
 62
   256
 40
5.0
 90
        0
 40
15.0
 90
        1
300
%<\AcVar ViewDetailId>% (%<\AcVar ViewScale \f "%sn">%)
 71
     4
340
5D
 90
       25
 62
   256
340
5D
 90
       25
 62
   256
280
     0
  0
LAYOUT
  5
6F
102
{ACAD_REACTORS
330
62
102
}
330
62
100
AcDbPlotSettings
  1

  2
PDF24
  4
A4
  6

 40
0.0
 41
0.0
 42
0.1113433837890625
 43
0.0
 44
210.0
 45
297.0
 46
0.0
 47
0.0
 48
0.0
 49
0.0
140
0.0
141
0.0
142
1.0
143
1.415217033324818
 70
   688
 72
     1
 73
     1
 74
     1
  7

 75
     0
147
0.7066054014702363
 76
     0
 77
     2
 78
   300
148
-64.27901684485153
149
-59.47287840171589
100
AcDbLayout
  1
Layout1
 70
     0
 71
     1
 10
64.27901684485153
 20
59.47287840171589
 11
484.5984757423225
 21
356.6684553999278
 12
0.0
 22
0.0
 32
0.0
 14
64.27901684485153
 24
59.47287840171589
 34
-0.0015258207003583
 15
274.3012221009852
 25
356.5108803466415
 35
0.0000000349246037
146
0.0
 13
0.0
 23
0.0
 33
0.0
 16
1.0
 26
0.0
 36
0.0
 17
0.0
 27
1.0
 37
0.0
 76
     0
330
6C
331
255
1001
ACAD_PSEXT
1000
PDF24
1000
PDF24
1000
\\.\pipe\PDFPrint
1000
PDF24 Printer
1070
     0
  0
LAYOUT
  5
73
102
{ACAD_REACTORS
330
62
102
}
330
62
100
AcDbPlotSettings
  1

  2

  4

  6

 40
0.0
 41
0.0
 42
0.0
 43
0.0
 44
0.0
 45
0.0
 46
0.0
 47
0.0
 48
0.0
 49
0.0
140
0.0
141
0.0
142
1.0
143
1.0
 70
  1712
 72
     0
 73
     0
 74
     0
  7

 75
     0
147
1.0
 76
     0
 77
     2
 78
   300
148
0.0
149
0.0
100
AcDbLayout
  1
Model
 70
     1
 71
     0
 10
0.0
 20
0.0
 11
12.0
 21
9.0
 12
0.0
 22
0.0
 32
0.0
 14
0.0
 24
0.0
 34
0.0
 15
0.0
 25
0.0
 35
0.0
146
0.0
 13
0.0
 23
0.0
 33
0.0
 16
1.0
 26
0.0
 36
0.0
 17
0.0
 27
1.0
 37
0.0
 76
     0
330
70
331
57
  0
MATERIAL
  5
19
102
{ACAD_XDICTIONARY
360
1A
102
}
102
{ACAD_REACTORS
330
10
102
}
330
10
100
AcDbMaterial
  1
ByBlock
 72
     0
 43
0.0208333333333333
 43
0.0
 43
0.0
 43
0.0
 43
0.0
 43
0.0208333333333333
 43
0.0
 43
0.0
 43
0.0
 43
0.0
 43
1.0
 43
0.0
 43
0.0
 43
0.0
 43
0.0
 43
1.0
 77
     0
 47
0.0208333333333333
 47
0.0
 47
0.0
 47
0.0
 47
0.0
 47
0.0208333333333333
 47
0.0
 47
0.0
 47
0.0
 47
0.0
 47
1.0
 47
0.0
 47
0.0
 47
0.0
 47
0.0
 47
1.0
171
     0
 49
0.0208333333333333
 49
0.0
 49
0.0
 49
0.0
 49
0.0
 49
0.0208333333333333
 49
0.0
 49
0.0
 49
0.0
 49
0.0
 49
1.0
 49
0.0
 49
0.0
 49
0.0
 49
0.0
 49
1.0
175
     0
142
0.0208333333333333
142
0.0
142
0.0
142
0.0
142
0.0
142
0.0208333333333333
142
0.0
142
0.0
142
0.0
142
0.0
142
1.0
142
0.0
142
0.0
142
0.0
142
0.0
142
1.0
179
     0
144
0.0208333333333333
144
0.0
144
0.0
144
0.0
144
0.0
144
0.0208333333333333
144
0.0
144
0.0
144
0.0
144
0.0
144
1.0
144
0.0
144
0.0
144
0.0
144
0.0
144
1.0
147
0.0208333333333333
147
0.0
147
0.0
147
0.0
147
0.0
147
0.0208333333333333
147
0.0
147
0.0
147
0.0
147
0.0
147
1.0
147
0.0
147
0.0
147
0.0
147
0.0
147
1.0
  0
MATERIAL
  5
11
102
{ACAD_XDICTIONARY
360
12
102
}
102
{ACAD_REACTORS
330
10
102
}
330
10
100
AcDbMaterial
  1
ByLayer
 72
     0
 43
0.0208333333333333
 43
0.0
 43
0.0
 43
0.0
 43
0.0
 43
0.0208333333333333
 43
0.0
 43
0.0
 43
0.0
 43
0.0
 43
1.0
 43
0.0
 43
0.0
 43
0.0
 43
0.0
 43
1.0
 77
     0
 47
0.0208333333333333
 47
0.0
 47
0.0
 47
0.0
 47
0.0
 47
0.0208333333333333
 47
0.0
 47
0.0
 47
0.0
 47
0.0
 47
1.0
 47
0.0
 47
0.0
 47
0.0
 47
0.0
 47
1.0
171
     0
 49
0.0208333333333333
 49
0.0
 49
0.0
 49
0.0
 49
0.0
 49
0.0208333333333333
 49
0.0
 49
0.0
 49
0.0
 49
0.0
 49
1.0
 49
0.0
 49
0.0
 49
0.0
 49
0.0
 49
1.0
175
     0
142
0.0208333333333333
142
0.0
142
0.0
142
0.0
142
0.0
142
0.0208333333333333
142
0.0
142
0.0
142
0.0
142
0.0
142
1.0
142
0.0
142
0.0
142
0.0
142
0.0
142
1.0
179
     0
144
0.0208333333333333
144
0.0
144
0.0
144
0.0
144
0.0
144
0.0208333333333333
144
0.0
144
0.0
144
0.0
144
0.0
144
1.0
144
0.0
144
0.0
144
0.0
144
0.0
144
1.0
147
0.0208333333333333
147
0.0
147
0.0
147
0.0
147
0.0
147
0.0208333333333333
147
0.0
147
0.0
147
0.0
147
0.0
147
1.0
147
0.0
147
0.0
147
0.0
147
0.0
147
1.0
  0
MATERIAL
  5
21
102
{ACAD_XDICTIONARY
360
22
102
}
102
{ACAD_REACTORS
330
10
102
}
330
10
100
AcDbMaterial
  1
Global
 72
     0
 43
0.0208333333333333
 43
0.0
 43
0.0
 43
0.0
 43
0.0
 43
0.0208333333333333
 43
0.0
 43
0.0
 43
0.0
 43
0.0
 43
1.0
 43
0.0
 43
0.0
 43
0.0
 43
0.0
 43
1.0
 77
     0
 47
0.0208333333333333
 47
0.0
 47
0.0
 47
0.0
 47
0.0
 47
0.0208333333333333
 47
0.0
 47
0.0
 47
0.0
 47
0.0
 47
1.0
 47
0.0
 47
0.0
 47
0.0
 47
0.0
 47
1.0
171
     0
 49
0.0208333333333333
 49
0.0
 49
0.0
 49
0.0
 49
0.0
 49
0.0208333333333333
 49
0.0
 49
0.0
 49
0.0
 49
0.0
 49
1.0
 49
0.0
 49
0.0
 49
0.0
 49
0.0
 49
1.0
175
     0
142
0.0208333333333333
142
0.0
142
0.0
142
0.0
142
0.0
142
0.0208333333333333
142
0.0
142
0.0
142
0.0
142
0.0
142
1.0
142
0.0
142
0.0
142
0.0
142
0.0
142
1.0
179
     0
144
0.0208333333333333
144
0.0
144
0.0
144
0.0
144
0.0
144
0.0208333333333333
144
0.0
144
0.0
144
0.0
144
0.0
144
1.0
144
0.0
144
0.0
144
0.0
144
0.0
144
1.0
147
0.0208333333333333
147
0.0
147
0.0
147
0.0
147
0.0
147
0.0208333333333333
147
0.0
147
0.0
147
0.0
147
0.0
147
1.0
147
0.0
147
0.0
147
0.0
147
0.0
147
1.0
  0
MLEADERSTYLE
  5
67
102
{ACAD_REACTORS
330
66
102
}
330
66
100
AcDbMLeaderStyle
179
     2
170
     2
171
     1
172
     0
 90
        2
 40
0.0
 41
0.0
173
     1
 91
-1056964608
340
5B
 92
       -2
290
     1
 42
0.09
291
     1
 43
0.36
  3
Standard
 44
0.18
300

342
55
174
     1
178
     6
175
     1
176
     0
 93
-1056964608
 45
0.18
292
     0
297
     0
 46
0.18
 94
-1056964608
 47
1.0
 49
1.0
140
1.0
293
     1
141
0.0
294
     1
177
     0
142
1.0
295
     1
296
     0
143
0.125
271
     0
272
     9
273
     9
298
     1
  0
MLINESTYLE
  5
60
102
{ACAD_REACTORS
330
5F
102
}
330
5F
100
AcDbMlineStyle
  2
STANDARD
 70
     0
  3

 62
   256
 51
90.0
 52
90.0
 71
     2
 49
0.5
 62
   256
  6
BYLAYER
 49
-0.5
 62
   256
  6
BYLAYER
  0
ACDBPLACEHOLDER
  5
F
102
{ACAD_REACTORS
330
E
102
}
330
E
  0
RAPIDRTRENDERSETTINGS
  5
27D
102
{ACAD_REACTORS
330
27A
102
}
330
27A
100
AcDbRenderSettings
 90
        2
  1
Alto
290
     1
290
     0
290
     1
290
     1
  1

  1
Aplica 10 níveis de renderização
 90
        2
100
AcDbRapidRTRenderSettings
 90
        3
 70
     0
 90
       10
 90
        1
 70
     2
 70
     2
 40
3.0
 40
3.0
290
     1
  0
RAPIDRTRENDERSETTINGS
  5
27B
102
{ACAD_REACTORS
330
27A
102
}
330
27A
100
AcDbRenderSettings
 90
        2
  1
Baixo
290
     1
290
     0
290
     1
290
     1
  1

  1
Aplica 1 nível de renderização
 90
        0
100
AcDbRapidRTRenderSettings
 90
        3
 70
     0
 90
        1
 90
        1
 70
     0
 70
     2
 40
3.0
 40
3.0
290
     1
  0
RAPIDRTRENDERSETTINGS
  5
27C
102
{ACAD_REACTORS
330
27A
102
}
330
27A
100
AcDbRenderSettings
 90
        2
  1
Médio
290
     1
290
     0
290
     1
290
     1
  1

  1
Aplica 5 níveis de renderização
 90
        1
100
AcDbRapidRTRenderSettings
 90
        3
 70
     0
 90
        5
 90
        1
 70
     1
 70
     2
 40
3.0
 40
3.0
290
     1
  0
RAPIDRTRENDERSETTINGS
  5
27E
102
{ACAD_REACTORS
330
27A
102
}
330
27A
100
AcDbRenderSettings
 90
        2
  1
Qualidade de curta duração
290
     1
290
     0
290
     1
290
     1
  1

  1
Renderiza por 10 minutos
 90
        3
100
AcDbRapidRTRenderSettings
 90
        3
 70
     1
 90
        1
 90
       10
 70
     1
 70
     2
 40
3.0
 40
3.0
290
     1
  0
RAPIDRTRENDERSETTINGS
  5
280
102
{ACAD_REACTORS
330
27A
102
}
330
27A
100
AcDbRenderSettings
 90
        2
  1
Qualidade de longa duração
290
     1
290
     0
290
     1
290
     1
  1

  1
Renderiza por 12 horas
 90
        5
100
AcDbRapidRTRenderSettings
 90
        3
 70
     1
 90
        1
 90
      720
 70
     2
 70
     2
 40
3.0
 40
3.0
290
     1
  0
RAPIDRTRENDERSETTINGS
  5
27F
102
{ACAD_REACTORS
330
27A
102
}
330
27A
100
AcDbRenderSettings
 90
        2
  1
Qualidade de média duração
290
     1
290
     0
290
     1
290
     1
  1

  1
Renderiza por 60 minutos
 90
        4
100
AcDbRapidRTRenderSettings
 90
        3
 70
     1
 90
        1
 90
       60
 70
     2
 70
     2
 40
3.0
 40
3.0
290
     1
  0
SCALE
  5
43
102
{ACAD_REACTORS
330
42
102
}
330
42
100
AcDbScale
 70
     0
300
1:1
140
1.0
141
1.0
290
     1
  0
SCALE
  5
44
102
{ACAD_REACTORS
330
42
102
}
330
42
100
AcDbScale
 70
     0
300
1/128" = 1'-0"
140
0.0078125
141
12.0
290
     0
  0
SCALE
  5
45
102
{ACAD_REACTORS
330
42
102
}
330
42
100
AcDbScale
 70
     0
300
1/64" = 1'-0"
140
0.015625
141
12.0
290
     0
  0
SCALE
  5
46
102
{ACAD_REACTORS
330
42
102
}
330
42
100
AcDbScale
 70
     0
300
1/32" = 1'-0"
140
0.03125
141
12.0
290
     0
  0
SCALE
  5
47
102
{ACAD_REACTORS
330
42
102
}
330
42
100
AcDbScale
 70
     0
300
1/16" = 1'-0"
140
0.0625
141
12.0
290
     0
  0
SCALE
  5
48
102
{ACAD_REACTORS
330
42
102
}
330
42
100
AcDbScale
 70
     0
300
3/32" = 1'-0"
140
0.09375
141
12.0
290
     0
  0
SCALE
  5
49
102
{ACAD_REACTORS
330
42
102
}
330
42
100
AcDbScale
 70
     0
300
1/8" = 1'-0"
140
0.125
141
12.0
290
     0
  0
SCALE
  5
4A
102
{ACAD_REACTORS
330
42
102
}
330
42
100
AcDbScale
 70
     0
300
3/16" = 1'-0"
140
0.1875
141
12.0
290
     0
  0
SCALE
  5
4B
102
{ACAD_REACTORS
330
42
102
}
330
42
100
AcDbScale
 70
     0
300
1/4" = 1'-0"
140
0.25
141
12.0
290
     0
  0
SCALE
  5
4C
102
{ACAD_REACTORS
330
42
102
}
330
42
100
AcDbScale
 70
     0
300
3/8" = 1'-0"
140
0.375
141
12.0
290
     0
  0
SCALE
  5
4D
102
{ACAD_REACTORS
330
42
102
}
330
42
100
AcDbScale
 70
     0
300
1/2" = 1'-0"
140
0.5
141
12.0
290
     0
  0
SCALE
  5
4E
102
{ACAD_REACTORS
330
42
102
}
330
42
100
AcDbScale
 70
     0
300
3/4" = 1'-0"
140
0.75
141
12.0
290
     0
  0
SCALE
  5
4F
102
{ACAD_REACTORS
330
42
102
}
330
42
100
AcDbScale
 70
     0
300
1" = 1'-0"
140
1.0
141
12.0
290
     0
  0
SCALE
  5
50
102
{ACAD_REACTORS
330
42
102
}
330
42
100
AcDbScale
 70
     0
300
1-1/2" = 1'-0"
140
1.5
141
12.0
290
     0
  0
SCALE
  5
51
102
{ACAD_REACTORS
330
42
102
}
330
42
100
AcDbScale
 70
     0
300
3" = 1'-0"
140
3.0
141
12.0
290
     0
  0
SCALE
  5
52
102
{ACAD_REACTORS
330
42
102
}
330
42
100
AcDbScale
 70
     0
300
6" = 1'-0"
140
6.0
141
12.0
290
     0
  0
SCALE
  5
53
102
{ACAD_REACTORS
330
42
102
}
330
42
100
AcDbScale
 70
     0
300
1'-0" = 1'-0"
140
12.0
141
12.0
290
     0
  0
ACDBSECTIONVIEWSTYLE
  5
69
102
{ACAD_REACTORS
330
68
102
}
330
68
100
AcDbModelDocViewStyle
 70
     0
  3
Imperial24
290
     1
300
Imperial24
 90
        0
100
AcDbSectionViewStyle
 70
     0
 71
     0
 90
       78
 71
     1
340
55
 62
   256
 40
0.24
340
0
340
0
 62
   256
 40
0.24
300
I, O, Q, S, X, Z
 40
0.48
 90
        3
 40
0.18
 90
        1
 71
     2
340
5D
 90
       25
 62
   256
340
5D
 90
       50
 62
   256
 40
0.24
 40
0.0
 40
0.24
 71
     3
340
55
 62
   256
 40
0.24
 90
        1
 40
0.75
 90
        1
300
%<\AcVar ViewType \f "%tc1">% %<\AcVar ViewSectionStartId>%-%<\AcVar ViewSectionEndId>%\PSCALE %<\AcVar ViewScale \f "%sn">%
 71
     4
 62
   256
 62
   257
300
ANSI31
 40
1.0
 90
        0
290
     0
290
     0
 90
        6
 40
0.0
 40
1.570796326794896
 40
0.2617993877991494
 40
1.308996938995747
 40
-0.2617993877991494
 40
1.832595714594046
  0
ACDBSECTIONVIEWSTYLE
  5
271
102
{ACAD_REACTORS
330
68
102
}
330
68
100
AcDbModelDocViewStyle
 70
     0
  3
Metric50
290
     1
300
Metric50
 90
        0
100
AcDbSectionViewStyle
 70
     0
 71
     0
 90
      102
 71
     1
340
55
 62
   256
 40
5.0
340
0
340
0
 62
   256
 40
5.0
300
I, O, Q, S, X, Z
 40
10.0
 90
        0
 40
2.5
 90
        0
 71
     2
340
5D
 90
       25
 62
   256
340
5D
 90
       50
 62
   256
 40
5.0
 40
2.5
 40
5.0
 71
     3
340
55
 62
   256
 40
5.0
 90
        0
 40
15.0
 90
        1
300
%<\AcVar ViewSectionStartId>%-%<\AcVar ViewSectionEndId>% (%<\AcVar ViewScale \f "%sn">%)
 71
     4
 62
   256
 62
   257
300
ANSI31
 40
1.0
 90
        0
290
     0
290
     0
 90
        6
 40
0.0
 40
1.570796326794896
 40
0.2617993877991494
 40
1.308996938995747
 40
-0.2617993877991494
 40
1.832595714594046
  0
TABLESTYLE
  5
65
102
{ACAD_XDICTIONARY
360
31D
102
}
102
{ACAD_REACTORS
330
64
102
}
330
64
100
AcDbTableStyle
280
     0
  3
Standard
 70
     0
 71
     0
 40
0.06
 41
0.06
280
     0
281
     0
  7
Standard
140
0.18
170
     2
 62
     0
 63
     7
283
     0
 90
      512
 91
        0
  1

274
    -2
284
     1
 64
     0
275
    -2
285
     1
 65
     0
276
    -2
286
     1
 66
     0
277
    -2
287
     1
 67
     0
278
    -2
288
     1
 68
     0
279
    -2
289
     1
 69
     0
  7
Standard
140
0.25
170
     5
 62
     0
 63
     7
283
     0
 90
      512
 91
        0
  1

274
    -2
284
     1
 64
     0
275
    -2
285
     1
 65
     0
276
    -2
286
     1
 66
     0
277
    -2
287
     1
 67
     0
278
    -2
288
     1
 68
     0
279
    -2
289
     1
 69
     0
  7
Standard
140
0.18
170
     5
 62
     0
 63
     7
283
     0
 90
      512
 91
        0
  1

274
    -2
284
     1
 64
     0
275
    -2
285
     1
 65
     0
276
    -2
286
     1
 66
     0
277
    -2
287
     1
 67
     0
278
    -2
288
     1
 68
     0
279
    -2
289
     1
 69
     0
  0
VISUALSTYLE
  5
2F
102
{ACAD_REACTORS
330
29
102
}
330
29
100
AcDbVisualStyle
  2
2dWireframe
 70
     4
177
     3
291
     0
 70
    58
 90
        0
176
     1
 90
        2
176
     1
 90
        0
176
     1
 90
        0
176
     1
 40
0.6
176
     1
 40
30.0
176
     1
 62
     7
420
 16777215
176
     1
 90
        1
176
     1
 90
        4
176
     1
 62
     7
176
     1
 62
   257
176
     1
 90
        1
176
     1
 90
        1
176
     1
 40
1.0
176
     1
 90
        0
176
     1
 62
   257
176
     1
 40
1.0
176
     1
 90
        1
176
     1
 90
        6
176
     1
 90
        2
176
     1
 62
     7
176
     1
 90
        5
176
     1
 90
        0
176
     1
 90
        0
176
     1
290
     0
176
     1
 90
        1
176
     1
 40
0.0
176
     1
 90
        0
176
     1
290
     1
176
     1
290
     1
176
     1
290
     0
176
     1
290
     0
176
     1
290
     0
176
     1
290
     0
176
     1
290
     0
176
     1
290
     0
176
     1
290
     0
176
     1
 90
       50
176
     1
 40
0.0
176
     1
 40
1.0
176
     1
 90
        0
176
     1
 62
    18
420
        0
176
     1
 90
       50
176
     1
 90
        3
176
     1
 62
     5
420
      255
176
     1
290
     0
176
     1
 90
       50
176
     1
 90
       50
176
     1
 90
       50
176
     1
290
     0
176
     1
 90
       50
176
     1
 62
   256
176
     0
 40
1.0
176
     0
 90
        2
176
     1
  1
strokes_ogs.tif
176
     1
290
     0
176
     1
 40
1.0
176
     1
 40
1.0
176
     1
  0
VISUALSTYLE
  5
2E
102
{ACAD_REACTORS
330
29
102
}
330
29
100
AcDbVisualStyle
  2
Basic
 70
     7
177
     3
291
     1
 70
    58
 90
        1
176
     1
 90
        0
176
     1
 90
        1
176
     1
 90
        0
176
     1
 40
0.6
176
     1
 40
30.0
176
     1
 62
     7
420
 16777215
176
     1
 90
        0
176
     1
 90
        4
176
     1
 62
     7
176
     1
 62
   257
176
     1
 90
        1
176
     1
 90
        1
176
     1
 40
1.0
176
     1
 90
        8
176
     1
 62
     7
176
     1
 40
1.0
176
     1
 90
        1
176
     1
 90
        6
176
     1
 90
        2
176
     1
 62
     7
176
     1
 90
        5
176
     1
 90
        0
176
     1
 90
        0
176
     1
290
     0
176
     1
 90
        1
176
     1
 40
0.0
176
     1
 90
        0
176
     1
290
     0
176
     1
290
     1
176
     1
290
     1
176
     1
290
     0
176
     1
290
     0
176
     1
290
     0
176
     1
290
     0
176
     1
290
     0
176
     1
290
     0
176
     1
 90
       50
176
     1
 40
0.0
176
     1
 40
1.0
176
     1
 90
        0
176
     1
 62
    18
420
        0
176
     1
 90
       50
176
     1
 90
        3
176
     1
 62
     5
420
      255
176
     1
290
     0
176
     1
 90
       50
176
     1
 90
       50
176
     1
 90
       50
176
     1
290
     0
176
     1
 90
       50
176
     1
 62
   256
176
     0
 40
1.0
176
     0
 90
        2
176
     1
  1
strokes_ogs.tif
176
     1
290
     0
176
     1
 40
1.0
176
     1
 40
1.0
176
     1
  0
VISUALSTYLE
  5
35
102
{ACAD_REACTORS
330
29
102
}
330
29
100
AcDbVisualStyle
  2
Brighten
 70
    12
177
     3
291
     1
 70
    58
 90
        2
176
     1
 90
        2
176
     1
 90
        0
176
     1
 90
        0
176
     1
 40
0.6
176
     1
 40
30.0
176
     1
 62
     7
420
 16777215
176
     1
 90
        1
176
     1
 90
        4
176
     1
 62
     7
176
     1
 62
   257
176
     1
 90
        1
176
     1
 90
        1
176
     1
 40
1.0
176
     1
 90
        8
176
     1
 62
     7
176
     1
 40
1.0
176
     1
 90
        1
176
     1
 90
        6
176
     1
 90
        2
176
     1
 62
     7
176
     1
 90
        5
176
     1
 90
        0
176
     1
 90
        0
176
     1
290
     0
176
     1
 90
        1
176
     1
 40
50.0
176
     1
 90
        0
176
     1
290
     0
176
     1
290
     1
176
     1
290
     1
176
     1
290
     0
176
     1
290
     0
176
     1
290
     0
176
     1
290
     0
176
     1
290
     0
176
     1
290
     0
176
     1
 90
       50
176
     1
 40
0.0
176
     1
 40
1.0
176
     1
 90
        0
176
     1
 62
    18
420
        0
176
     1
 90
       50
176
     1
 90
        3
176
     1
 62
     5
420
      255
176
     1
290
     0
176
     1
 90
       50
176
     1
 90
       50
176
     1
 90
       50
176
     1
290
     0
176
     1
 90
       50
176
     1
 62
   256
176
     0
 40
1.0
176
     0
 90
        2
176
     1
  1
strokes_ogs.tif
176
     1
290
     0
176
     1
 40
1.0
176
     1
 40
1.0
176
     1
  0
VISUALSTYLE
  5
39
102
{ACAD_REACTORS
330
29
102
}
330
29
100
AcDbVisualStyle
  2
ColorChange
 70
    16
177
     3
291
     1
 70
    58
 90
        2
176
     1
 90
        2
176
     1
 90
        3
176
     1
 90
        0
176
     1
 40
0.6
176
     1
 40
30.0
176
     1
 62
     8
420
  8421504
176
     1
 90
        1
176
     1
 90
        4
176
     1
 62
     7
176
     1
 62
   257
176
     1
 90
        1
176
     1
 90
        1
176
     1
 40
1.0
176
     1
 90
        8
176
     1
 62
     8
420
  8421504
176
     1
 40
1.0
176
     1
 90
        1
176
     1
 90
        6
176
     1
 90
        2
176
     1
 62
     7
176
     1
 90
        5
176
     1
 90
        0
176
     1
 90
        0
176
     1
290
     0
176
     1
 90
        1
176
     1
 40
0.0
176
     1
 90
        0
176
     1
290
     0
176
     1
290
     1
176
     1
290
     1
176
     1
290
     0
176
     1
290
     0
176
     1
290
     0
176
     1
290
     0
176
     1
290
     0
176
     1
290
     0
176
     1
 90
       50
176
     1
 40
0.0
176
     1
 40
1.0
176
     1
 90
        0
176
     1
 62
    18
420
        0
176
     1
 90
       50
176
     1
 90
        3
176
     1
 62
     5
420
      255
176
     1
290
     0
176
     1
 90
       50
176
     1
 90
       50
176
     1
 90
       50
176
     1
290
     0
176
     1
 90
       50
176
     1
 62
   256
176
     0
 40
1.0
176
     0
 90
        2
176
     1
  1
strokes_ogs.tif
176
     1
290
     0
176
     1
 40
1.0
176
     1
 40
1.0
176
     1
  0
VISUALSTYLE
  5
32
102
{ACAD_REACTORS
330
29
102
}
330
29
100
AcDbVisualStyle
  2
Conceptual
 70
     9
177
     3
291
     0
 70
    58
 90
        3
176
     1
 90
        2
176
     1
 90
        0
176
     1
 90
        0
176
     1
 40
0.6
176
     1
 40
30.0
176
     1
 62
     7
420
 16777215
176
     1
 90
        2
176
     1
 90
        2
176
     1
 62
     7
176
     1
 62
   257
176
     1
 90
        1
176
     1
 90
        1
176
     1
 40
179.0
176
     1
 90
        8
176
     1
 62
     7
176
     1
 40
1.0
176
     1
 90
        1
176
     1
 90
        6
176
     1
 90
        2
176
     1
 62
     7
176
     1
 90
        3
176
     1
 90
        0
176
     1
 90
        0
176
     1
290
     0
176
     1
 90
        1
176
     1
 40
0.0
176
     1
 90
        0
176
     1
290
     0
176
     1
290
     1
176
     1
290
     1
176
     1
290
     0
176
     1
290
     0
176
     1
290
     0
176
     1
290
     0
176
     1
290
     0
176
     1
290
     0
176
     1
 90
       50
176
     1
 40
0.0
176
     1
 40
1.0
176
     1
 90
        0
176
     1
 62
    18
420
        0
176
     1
 90
       50
176
     1
 90
        3
176
     1
 62
     5
420
      255
176
     1
290
     0
176
     1
 90
       50
176
     1
 90
       50
176
     1
 90
       50
176
     1
290
     0
176
     1
 90
       50
176
     1
 62
   256
176
     0
 40
1.0
176
     0
 90
        2
176
     1
  1
strokes_ogs.tif
176
     1
290
     0
176
     1
 40
1.0
176
     1
 40
1.0
176
     1
  0
VISUALSTYLE
  5
34
102
{ACAD_REACTORS
330
29
102
}
330
29
100
AcDbVisualStyle
  2
Dim
 70
    11
177
     3
291
     1
 70
    58
 90
        2
176
     1
 90
        2
176
     1
 90
        0
176
     1
 90
        0
176
     1
 40
0.6
176
     1
 40
30.0
176
     1
 62
     7
420
 16777215
176
     1
 90
        1
176
     1
 90
        4
176
     1
 62
     7
176
     1
 62
   257
176
     1
 90
        1
176
     1
 90
        1
176
     1
 40
1.0
176
     1
 90
        8
176
     1
 62
     7
176
     1
 40
1.0
176
     1
 90
        1
176
     1
 90
        6
176
     1
 90
        2
176
     1
 62
     7
176
     1
 90
        5
176
     1
 90
        0
176
     1
 90
        0
176
     1
290
     0
176
     1
 90
        1
176
     1
 40
-50.0
176
     1
 90
        0
176
     1
290
     0
176
     1
290
     1
176
     1
290
     1
176
     1
290
     0
176
     1
290
     0
176
     1
290
     0
176
     1
290
     0
176
     1
290
     0
176
     1
290
     0
176
     1
 90
       50
176
     1
 40
0.0
176
     1
 40
1.0
176
     1
 90
        0
176
     1
 62
    18
420
        0
176
     1
 90
       50
176
     1
 90
        3
176
     1
 62
     5
420
      255
176
     1
290
     0
176
     1
 90
       50
176
     1
 90
       50
176
     1
 90
       50
176
     1
290
     0
176
     1
 90
       50
176
     1
 62
   256
176
     0
 40
1.0
176
     0
 90
        2
176
     1
  1
strokes_ogs.tif
176
     1
290
     0
176
     1
 40
1.0
176
     1
 40
1.0
176
     1
  0
VISUALSTYLE
  5
41
102
{ACAD_REACTORS
330
29
102
}
330
29
100
AcDbVisualStyle
  2
EdgeColorOff
 70
    22
177
     3
291
     1
 70
    58
 90
        2
176
     0
 90
        2
176
     0
 90
        0
176
     0
 90
        0
176
     0
 40
0.6
176
     0
 40
30.0
176
     0
 62
     7
420
 16777215
176
     0
 90
        1
176
     0
 90
        4
176
     0
 62
     7
176
     0
 62
   257
176
     0
 90
        1
176
     0
 90
        1
176
     0
 40
1.0
176
     0
 90
        8
176
     2
 62
     7
176
     0
 40
1.0
176
     0
 90
        1
176
     0
 90
        6
176
     0
 90
        2
176
     0
 62
     7
176
     0
 90
        5
176
     0
 90
        0
176
     0
 90
        0
176
     0
290
     0
176
     0
 90
        1
176
     0
 40
0.0
176
     0
 90
        0
176
     0
290
     0
176
     0
290
     1
176
     0
290
     1
176
     0
290
     0
176
     0
290
     0
176
     0
290
     0
176
     0
290
     0
176
     0
290
     0
176
     0
290
     0
176
     0
 90
       50
176
     0
 40
0.0
176
     0
 40
1.0
176
     0
 90
        0
176
     0
 62
    18
420
        0
176
     0
 90
       50
176
     0
 90
        3
176
     0
 62
     5
420
      255
176
     0
290
     0
176
     0
 90
       50
176
     0
 90
       50
176
     0
 90
       50
176
     0
290
     0
176
     0
 90
       50
176
     0
 62
   256
176
     0
 40
1.0
176
     0
 90
        2
176
     0
  1
strokes_ogs.tif
176
     0
290
     0
176
     0
 40
1.0
176
     0
 40
1.0
176
     0
  0
VISUALSTYLE
  5
38
102
{ACAD_REACTORS
330
29
102
}
330
29
100
AcDbVisualStyle
  2
Facepattern
 70
    15
177
     3
291
     1
 70
    58
 90
        2
176
     1
 90
        2
176
     1
 90
        0
176
     1
 90
        0
176
     1
 40
0.6
176
     1
 40
30.0
176
     1
 62
     7
420
 16777215
176
     1
 90
        1
176
     1
 90
        4
176
     1
 62
     7
176
     1
 62
   257
176
     1
 90
        1
176
     1
 90
        1
176
     1
 40
1.0
176
     1
 90
        8
176
     1
 62
     7
176
     1
 40
1.0
176
     1
 90
        1
176
     1
 90
        6
176
     1
 90
        2
176
     1
 62
     7
176
     1
 90
        5
176
     1
 90
        0
176
     1
 90
        0
176
     1
290
     0
176
     1
 90
        1
176
     1
 40
0.0
176
     1
 90
        0
176
     1
290
     0
176
     1
290
     1
176
     1
290
     1
176
     1
290
     0
176
     1
290
     0
176
     1
290
     0
176
     1
290
     0
176
     1
290
     0
176
     1
290
     0
176
     1
 90
       50
176
     1
 40
0.0
176
     1
 40
1.0
176
     1
 90
        0
176
     1
 62
    18
420
        0
176
     1
 90
       50
176
     1
 90
        3
176
     1
 62
     5
420
      255
176
     1
290
     0
176
     1
 90
       50
176
     1
 90
       50
176
     1
 90
       50
176
     1
290
     0
176
     1
 90
       50
176
     1
 62
   256
176
     0
 40
1.0
176
     0
 90
        2
176
     1
  1
strokes_ogs.tif
176
     1
290
     0
176
     1
 40
1.0
176
     1
 40
1.0
176
     1
  0
VISUALSTYLE
  5
2A
102
{ACAD_REACTORS
330
29
102
}
330
29
100
AcDbVisualStyle
  2
Flat
 70
     0
177
     3
291
     1
 70
    58
 90
        2
176
     1
 90
        1
176
     1
 90
        1
176
     1
 90
        2
176
     1
 40
0.6
176
     1
 40
30.0
176
     1
 62
     7
420
 16777215
176
     1
 90
        0
176
     1
 90
        0
176
     1
 62
     7
176
     1
 62
   257
176
     1
 90
        1
176
     1
 90
        1
176
     1
 40
1.0
176
     1
 90
        8
176
     1
 62
     7
176
     1
 40
1.0
176
     1
 90
        1
176
     1
 90
        6
176
     1
 90
        2
176
     1
 62
     7
176
     1
 90
        5
176
     1
 90
        0
176
     1
 90
        0
176
     1
290
     0
176
     1
 90
       13
176
     1
 40
0.0
176
     1
 90
        0
176
     1
290
     0
176
     1
290
     1
176
     1
290
     1
176
     1
290
     0
176
     1
290
     0
176
     1
290
     0
176
     1
290
     0
176
     1
290
     0
176
     1
290
     0
176
     1
 90
       50
176
     1
 40
0.0
176
     1
 40
1.0
176
     1
 90
        0
176
     1
 62
    18
420
        0
176
     1
 90
       50
176
     1
 90
        3
176
     1
 62
     5
420
      255
176
     1
290
     0
176
     1
 90
       50
176
     1
 90
       50
176
     1
 90
       50
176
     1
290
     0
176
     1
 90
       50
176
     1
 62
   256
176
     0
 40
1.0
176
     0
 90
        2
176
     1
  1
strokes_ogs.tif
176
     1
290
     0
176
     1
 40
1.0
176
     1
 40
1.0
176
     1
  0
VISUALSTYLE
  5
2B
102
{ACAD_REACTORS
330
29
102
}
330
29
100
AcDbVisualStyle
  2
FlatWithEdges
 70
     1
177
     3
291
     1
 70
    58
 90
        2
176
     1
 90
        1
176
     1
 90
        1
176
     1
 90
        2
176
     1
 40
0.6
176
     1
 40
30.0
176
     1
 62
     7
420
 16777215
176
     1
 90
        1
176
     1
 90
        0
176
     1
 62
     7
176
     1
 62
   257
176
     1
 90
        1
176
     1
 90
        1
176
     1
 40
1.0
176
     1
 90
        0
176
     1
 62
   257
176
     1
 40
1.0
176
     1
 90
        1
176
     1
 90
        6
176
     1
 90
        2
176
     1
 62
     7
176
     1
 90
        5
176
     1
 90
        0
176
     1
 90
        0
176
     1
290
     0
176
     1
 90
       13
176
     1
 40
0.0
176
     1
 90
        0
176
     1
290
     0
176
     1
290
     1
176
     1
290
     1
176
     1
290
     0
176
     1
290
     0
176
     1
290
     0
176
     1
290
     0
176
     1
290
     0
176
     1
290
     0
176
     1
 90
       50
176
     1
 40
0.0
176
     1
 40
1.0
176
     1
 90
        0
176
     1
 62
    18
420
        0
176
     1
 90
       50
176
     1
 90
        3
176
     1
 62
     5
420
      255
176
     1
290
     0
176
     1
 90
       50
176
     1
 90
       50
176
     1
 90
       50
176
     1
290
     0
176
     1
 90
       50
176
     1
 62
   256
176
     0
 40
1.0
176
     0
 90
        2
176
     1
  1
strokes_ogs.tif
176
     1
290
     0
176
     1
 40
1.0
176
     1
 40
1.0
176
     1
  0
VISUALSTYLE
  5
2C
102
{ACAD_REACTORS
330
29
102
}
330
29
100
AcDbVisualStyle
  2
Gouraud
 70
     2
177
     3
291
     1
 70
    58
 90
        2
176
     1
 90
        2
176
     1
 90
        1
176
     1
 90
        2
176
     1
 40
0.6
176
     1
 40
30.0
176
     1
 62
     7
420
 16777215
176
     1
 90
        0
176
     1
 90
        0
176
     1
 62
     7
176
     1
 62
   257
176
     1
 90
        1
176
     1
 90
        1
176
     1
 40
1.0
176
     1
 90
        0
176
     1
 62
     7
176
     1
 40
1.0
176
     1
 90
        1
176
     1
 90
        6
176
     1
 90
        2
176
     1
 62
     7
176
     1
 90
        5
176
     1
 90
        0
176
     1
 90
        0
176
     1
290
     0
176
     1
 90
       13
176
     1
 40
0.0
176
     1
 90
        0
176
     1
290
     0
176
     1
290
     1
176
     1
290
     1
176
     1
290
     0
176
     1
290
     0
176
     1
290
     0
176
     1
290
     0
176
     1
290
     0
176
     1
290
     0
176
     1
 90
       50
176
     1
 40
0.0
176
     1
 40
1.0
176
     1
 90
        0
176
     1
 62
    18
420
        0
176
     1
 90
       50
176
     1
 90
        3
176
     1
 62
     5
420
      255
176
     1
290
     0
176
     1
 90
       50
176
     1
 90
       50
176
     1
 90
       50
176
     1
290
     0
176
     1
 90
       50
176
     1
 62
   256
176
     0
 40
1.0
176
     0
 90
        2
176
     1
  1
strokes_ogs.tif
176
     1
290
     0
176
     1
 40
1.0
176
     1
 40
1.0
176
     1
  0
VISUALSTYLE
  5
2D
102
{ACAD_REACTORS
330
29
102
}
330
29
100
AcDbVisualStyle
  2
GouraudWithEdges
 70
     3
177
     3
291
     1
 70
    58
 90
        2
176
     1
 90
        2
176
     1
 90
        1
176
     1
 90
        2
176
     1
 40
0.6
176
     1
 40
30.0
176
     1
 62
     7
420
 16777215
176
     1
 90
        1
176
     1
 90
        0
176
     1
 62
     7
176
     1
 62
   257
176
     1
 90
        1
176
     1
 90
        1
176
     1
 40
1.0
176
     1
 90
        0
176
     1
 62
   257
176
     1
 40
1.0
176
     1
 90
        1
176
     1
 90
        6
176
     1
 90
        2
176
     1
 62
     7
176
     1
 90
        5
176
     1
 90
        0
176
     1
 90
        0
176
     1
290
     0
176
     1
 90
       13
176
     1
 40
0.0
176
     1
 90
        0
176
     1
290
     0
176
     1
290
     1
176
     1
290
     1
176
     1
290
     0
176
     1
290
     0
176
     1
290
     0
176
     1
290
     0
176
     1
290
     0
176
     1
290
     0
176
     1
 90
       50
176
     1
 40
0.0
176
     1
 40
1.0
176
     1
 90
        0
176
     1
 62
    18
420
        0
176
     1
 90
       50
176
     1
 90
        3
176
     1
 62
     5
420
      255
176
     1
290
     0
176
     1
 90
       50
176
     1
 90
       50
176
     1
 90
       50
176
     1
290
     0
176
     1
 90
       50
176
     1
 62
   256
176
     0
 40
1.0
176
     0
 90
        2
176
     1
  1
strokes_ogs.tif
176
     1
290
     0
176
     1
 40
1.0
176
     1
 40
1.0
176
     1
  0
VISUALSTYLE
  5
31
102
{ACAD_REACTORS
330
29
102
}
330
29
100
AcDbVisualStyle
  2
Hidden
 70
     6
177
     3
291
     0
 70
    58
 90
        1
176
     1
 90
        2
176
     1
 90
        2
176
     1
 90
        0
176
     1
 40
0.6
176
     1
 40
30.0
176
     1
 62
     7
420
 16777215
176
     1
 90
        2
176
     1
 90
        2
176
     1
 62
     7
176
     1
 62
   257
176
     1
 90
        2
176
     1
 90
        1
176
     1
 40
40.0
176
     1
 90
        0
176
     1
 62
   257
176
     1
 40
1.0
176
     1
 90
        1
176
     1
 90
        6
176
     1
 90
        2
176
     1
 62
     7
176
     1
 90
        3
176
     1
 90
        0
176
     1
 90
        0
176
     1
290
     0
176
     1
 90
        1
176
     1
 40
0.0
176
     1
 90
        0
176
     1
290
     0
176
     1
290
     1
176
     1
290
     1
176
     1
290
     0
176
     1
290
     0
176
     1
290
     0
176
     1
290
     0
176
     1
290
     0
176
     1
290
     0
176
     1
 90
       50
176
     1
 40
0.0
176
     1
 40
1.0
176
     1
 90
        0
176
     1
 62
    18
420
        0
176
     1
 90
       50
176
     1
 90
        3
176
     1
 62
     5
420
      255
176
     1
290
     0
176
     1
 90
       50
176
     1
 90
       50
176
     1
 90
       50
176
     1
290
     0
176
     1
 90
       50
176
     1
 62
   256
176
     0
 40
1.0
176
     0
 90
        2
176
     1
  1
strokes_ogs.tif
176
     1
290
     0
176
     1
 40
1.0
176
     1
 40
1.0
176
     1
  0
VISUALSTYLE
  5
3F
102
{ACAD_REACTORS
330
29
102
}
330
29
100
AcDbVisualStyle
  2
JitterOff
 70
    20
177
     3
291
     1
 70
    58
 90
        2
176
     0
 90
        2
176
     0
 90
        0
176
     0
 90
        0
176
     0
 40
0.6
176
     0
 40
30.0
176
     0
 62
     7
420
 16777215
176
     0
 90
        1
176
     0
 90
        4
176
     0
 62
     7
176
     0
 62
   257
176
     0
 90
        1
176
     0
 90
        1
176
     0
 40
1.0
176
     0
 90
       10
176
     2
 62
     7
176
     0
 40
1.0
176
     0
 90
        1
176
     0
 90
        6
176
     0
 90
        2
176
     0
 62
     7
176
     0
 90
        5
176
     0
 90
        0
176
     0
 90
        0
176
     0
290
     0
176
     0
 90
        1
176
     0
 40
0.0
176
     0
 90
        0
176
     0
290
     0
176
     0
290
     1
176
     0
290
     1
176
     0
290
     0
176
     0
290
     0
176
     0
290
     0
176
     0
290
     0
176
     0
290
     0
176
     0
290
     0
176
     0
 90
       50
176
     0
 40
0.0
176
     0
 40
1.0
176
     0
 90
        0
176
     0
 62
    18
420
        0
176
     0
 90
       50
176
     0
 90
        3
176
     0
 62
     5
420
      255
176
     0
290
     0
176
     0
 90
       50
176
     0
 90
       50
176
     0
 90
       50
176
     0
290
     0
176
     0
 90
       50
176
     0
 62
   256
176
     0
 40
1.0
176
     0
 90
        2
176
     0
  1
strokes_ogs.tif
176
     0
290
     0
176
     0
 40
1.0
176
     0
 40
1.0
176
     0
  0
VISUALSTYLE
  5
37
102
{ACAD_REACTORS
330
29
102
}
330
29
100
AcDbVisualStyle
  2
Linepattern
 70
    14
177
     3
291
     1
 70
    58
 90
        2
176
     1
 90
        2
176
     1
 90
        0
176
     1
 90
        0
176
     1
 40
0.6
176
     1
 40
30.0
176
     1
 62
     7
420
 16777215
176
     1
 90
        1
176
     1
 90
        4
176
     1
 62
     7
176
     1
 62
   257
176
     1
 90
        7
176
     1
 90
        7
176
     1
 40
1.0
176
     1
 90
        8
176
     1
 62
     7
176
     1
 40
1.0
176
     1
 90
        1
176
     1
 90
        6
176
     1
 90
        2
176
     1
 62
     7
176
     1
 90
        5
176
     1
 90
        0
176
     1
 90
        0
176
     1
290
     0
176
     1
 90
        1
176
     1
 40
0.0
176
     1
 90
        0
176
     1
290
     0
176
     1
290
     1
176
     1
290
     1
176
     1
290
     0
176
     1
290
     0
176
     1
290
     0
176
     1
290
     0
176
     1
290
     0
176
     1
290
     0
176
     1
 90
       50
176
     1
 40
0.0
176
     1
 40
1.0
176
     1
 90
        0
176
     1
 62
    18
420
        0
176
     1
 90
       50
176
     1
 90
        3
176
     1
 62
     5
420
      255
176
     1
290
     0
176
     1
 90
       50
176
     1
 90
       50
176
     1
 90
       50
176
     1
290
     0
176
     1
 90
       50
176
     1
 62
   256
176
     0
 40
1.0
176
     0
 90
        2
176
     1
  1
strokes_ogs.tif
176
     1
290
     0
176
     1
 40
1.0
176
     1
 40
1.0
176
     1
  0
VISUALSTYLE
  5
40
102
{ACAD_REACTORS
330
29
102
}
330
29
100
AcDbVisualStyle
  2
OverhangOff
 70
    21
177
     3
291
     1
 70
    58
 90
        2
176
     0
 90
        2
176
     0
 90
        0
176
     0
 90
        0
176
     0
 40
0.6
176
     0
 40
30.0
176
     0
 62
     7
420
 16777215
176
     0
 90
        1
176
     0
 90
        4
176
     0
 62
     7
176
     0
 62
   257
176
     0
 90
        1
176
     0
 90
        1
176
     0
 40
1.0
176
     0
 90
        9
176
     2
 62
     7
176
     0
 40
1.0
176
     0
 90
        1
176
     0
 90
        6
176
     0
 90
        2
176
     0
 62
     7
176
     0
 90
        5
176
     0
 90
        0
176
     0
 90
        0
176
     0
290
     0
176
     0
 90
        1
176
     0
 40
0.0
176
     0
 90
        0
176
     0
290
     0
176
     0
290
     1
176
     0
290
     1
176
     0
290
     0
176
     0
290
     0
176
     0
290
     0
176
     0
290
     0
176
     0
290
     0
176
     0
290
     0
176
     0
 90
       50
176
     0
 40
0.0
176
     0
 40
1.0
176
     0
 90
        0
176
     0
 62
    18
420
        0
176
     0
 90
       50
176
     0
 90
        3
176
     0
 62
     5
420
      255
176
     0
290
     0
176
     0
 90
       50
176
     0
 90
       50
176
     0
 90
       50
176
     0
290
     0
176
     0
 90
       50
176
     0
 62
   256
176
     0
 40
1.0
176
     0
 90
        2
176
     0
  1
strokes_ogs.tif
176
     0
290
     0
176
     0
 40
1.0
176
     0
 40
1.0
176
     0
  0
VISUALSTYLE
  5
33
102
{ACAD_REACTORS
330
29
102
}
330
29
100
AcDbVisualStyle
  2
Realistic
 70
     8
177
     3
291
     0
 70
    58
 90
        2
176
     1
 90
        3
176
     1
 90
        0
176
     1
 90
        2
176
     1
 40
0.6
176
     1
 40
30.0
176
     1
 62
     7
420
 16777215
176
     1
 90
        0
176
     1
 90
        0
176
     1
 62
     7
176
     1
 62
   257
176
     1
 90
        1
176
     1
 90
        1
176
     1
 40
1.0
176
     1
 90
        8
176
     1
 62
   257
176
     1
 40
1.0
176
     1
 90
        1
176
     1
 90
        6
176
     1
 90
        2
176
     1
 62
     7
176
     1
 90
        3
176
     1
 90
        0
176
     1
 90
        0
176
     1
290
     0
176
     1
 90
       13
176
     1
 40
0.0
176
     1
 90
        0
176
     1
290
     0
176
     1
290
     1
176
     1
290
     1
176
     1
290
     0
176
     1
290
     0
176
     1
290
     0
176
     1
290
     0
176
     1
290
     0
176
     1
290
     0
176
     1
 90
       50
176
     1
 40
0.0
176
     1
 40
1.0
176
     1
 90
        0
176
     1
 62
    18
420
        0
176
     1
 90
       50
176
     1
 90
        3
176
     1
 62
     5
420
      255
176
     1
290
     0
176
     1
 90
       50
176
     1
 90
       50
176
     1
 90
       50
176
     1
290
     0
176
     1
 90
       50
176
     1
 62
   256
176
     0
 40
1.0
176
     0
 90
        2
176
     1
  1
strokes_ogs.tif
176
     1
290
     0
176
     1
 40
1.0
176
     1
 40
1.0
176
     1
  0
VISUALSTYLE
  5
3E
102
{ACAD_REACTORS
330
29
102
}
330
29
100
AcDbVisualStyle
  2
Shaded
 70
    27
177
     3
291
     0
 70
    58
 90
        2
176
     1
 90
        2
176
     1
 90
        1
176
     1
 90
        2
176
     1
 40
0.6
176
     1
 40
30.0
176
     1
 62
     7
420
 16777215
176
     1
 90
        0
176
     1
 90
        4
176
     1
 62
     7
176
     1
 62
   257
176
     1
 90
        1
176
     1
 90
        1
176
     1
 40
1.0
176
     1
 90
        8
176
     1
 62
   257
176
     1
 40
1.0
176
     1
 90
        1
176
     1
 90
        6
176
     1
 90
        2
176
     1
 62
     8
420
  7895160
176
     1
 90
        3
176
     1
 90
        0
176
     1
 90
        0
176
     1
290
     0
176
     1
 90
        5
176
     1
 40
0.0
176
     1
 90
        0
176
     1
290
     0
176
     1
290
     1
176
     1
290
     1
176
     1
290
     0
176
     1
290
     0
176
     1
290
     0
176
     1
290
     0
176
     1
290
     0
176
     1
290
     0
176
     1
 90
       50
176
     1
 40
0.0
176
     1
 40
1.0
176
     1
 90
        0
176
     1
 62
    18
420
        0
176
     1
 90
       50
176
     1
 90
        3
176
     1
 62
     5
420
      255
176
     1
290
     0
176
     1
 90
       50
176
     1
 90
       50
176
     1
 90
       50
176
     1
290
     0
176
     1
 90
       50
176
     1
 62
   256
176
     0
 40
1.0
176
     0
 90
        2
176
     1
  1
strokes_ogs.tif
176
     1
290
     0
176
     1
 40
1.0
176
     1
 40
1.0
176
     1
  0
VISUALSTYLE
  5
3D
102
{ACAD_REACTORS
330
29
102
}
330
29
100
AcDbVisualStyle
  2
Shaded with edges
 70
    26
177
     3
291
     0
 70
    58
 90
        2
176
     1
 90
        2
176
     1
 90
        1
176
     1
 90
        2
176
     1
 40
0.6
176
     1
 40
30.0
176
     1
 62
     7
420
 16777215
176
     1
 90
        1
176
     1
 90
        2
176
     1
 62
     7
176
     1
 62
   257
176
     1
 90
        2
176
     1
 90
        1
176
     1
 40
1.0
176
     1
 90
        8
176
     1
 62
   257
176
     1
 40
1.0
176
     1
 90
        1
176
     1
 90
        6
176
     1
 90
        2
176
     1
 62
     7
176
     1
 90
        3
176
     1
 90
        0
176
     1
 90
        0
176
     1
290
     0
176
     1
 90
        5
176
     1
 40
0.0
176
     1
 90
        0
176
     1
290
     0
176
     1
290
     1
176
     1
290
     1
176
     1
290
     0
176
     1
290
     0
176
     1
290
     0
176
     1
290
     0
176
     1
290
     0
176
     1
290
     0
176
     1
 90
       50
176
     1
 40
0.0
176
     1
 40
1.0
176
     1
 90
        0
176
     1
 62
    18
420
        0
176
     1
 90
       50
176
     1
 90
        3
176
     1
 62
     5
420
      255
176
     1
290
     0
176
     1
 90
       50
176
     1
 90
       50
176
     1
 90
       50
176
     1
290
     0
176
     1
 90
       50
176
     1
 62
   256
176
     0
 40
1.0
176
     0
 90
        2
176
     1
  1
strokes_ogs.tif
176
     1
290
     0
176
     1
 40
1.0
176
     1
 40
1.0
176
     1
  0
VISUALSTYLE
  5
3A
102
{ACAD_REACTORS
330
29
102
}
330
29
100
AcDbVisualStyle
  2
Shades of Gray
 70
    23
177
     3
291
     0
 70
    58
 90
        2
176
     1
 90
        2
176
     1
 90
        3
176
     1
 90
        0
176
     1
 40
0.6
176
     1
 40
30.0
176
     1
 62
     7
420
 16777215
176
     1
 90
        2
176
     1
 90
        2
176
     1
 62
     7
176
     1
 62
     7
176
     1
 90
        1
176
     1
 90
        1
176
     1
 40
40.0
176
     1
 90
        8
176
     1
 62
     7
176
     1
 40
1.0
176
     1
 90
        1
176
     1
 90
        6
176
     1
 90
        2
176
     1
 62
     7
176
     1
 90
        3
176
     1
 90
        0
176
     1
 90
        0
176
     1
290
     0
176
     1
 90
        1
176
     1
 40
0.0
176
     1
 90
        0
176
     1
290
     0
176
     1
290
     1
176
     1
290
     1
176
     1
290
     0
176
     1
290
     0
176
     1
290
     0
176
     1
290
     0
176
     1
290
     0
176
     1
290
     0
176
     1
 90
       50
176
     1
 40
0.0
176
     1
 40
1.0
176
     1
 90
        0
176
     1
 62
    18
420
        0
176
     1
 90
       50
176
     1
 90
        3
176
     1
 62
     5
420
      255
176
     1
290
     0
176
     1
 90
       50
176
     1
 90
       50
176
     1
 90
       50
176
     1
290
     0
176
     1
 90
       50
176
     1
 62
   256
176
     0
 40
1.0
176
     0
 90
        2
176
     1
  1
strokes_ogs.tif
176
     1
290
     0
176
     1
 40
1.0
176
     1
 40
1.0
176
     1
  0
VISUALSTYLE
  5
3B
102
{ACAD_REACTORS
330
29
102
}
330
29
100
AcDbVisualStyle
  2
Sketchy
 70
    24
177
     3
291
     0
 70
    58
 90
        1
176
     1
 90
        2
176
     1
 90
        2
176
     1
 90
        0
176
     1
 40
0.6
176
     1
 40
30.0
176
     1
 62
     7
420
 16777215
176
     1
 90
        2
176
     1
 90
        2
176
     1
 62
     7
176
     1
 62
     7
176
     1
 90
        1
176
     1
 90
        1
176
     1
 40
40.0
176
     1
 90
       11
176
     1
 62
     7
176
     1
 40
1.0
176
     1
 90
        1
176
     1
 90
        6
176
     1
 90
        2
176
     1
 62
     7
176
     1
 90
        6
176
     1
 90
        0
176
     1
 90
        0
176
     1
290
     0
176
     1
 90
        1
176
     1
 40
0.0
176
     1
 90
        0
176
     1
290
     0
176
     1
290
     1
176
     1
290
     1
176
     1
290
     0
176
     1
290
     0
176
     1
290
     0
176
     1
290
     0
176
     1
290
     0
176
     1
290
     0
176
     1
 90
       50
176
     1
 40
0.0
176
     1
 40
1.0
176
     1
 90
        0
176
     1
 62
    18
420
        0
176
     1
 90
       50
176
     1
 90
        3
176
     1
 62
     5
420
      255
176
     1
290
     0
176
     1
 90
       50
176
     1
 90
       50
176
     1
 90
       50
176
     1
290
     0
176
     1
 90
       50
176
     1
 62
   256
176
     0
 40
1.0
176
     0
 90
        2
176
     1
  1
strokes_ogs.tif
176
     1
290
     0
176
     1
 40
1.0
176
     1
 40
1.0
176
     1
  0
VISUALSTYLE
  5
36
102
{ACAD_REACTORS
330
29
102
}
330
29
100
AcDbVisualStyle
  2
Thicken
 70
    13
177
     3
291
     1
 70
    58
 90
        2
176
     1
 90
        2
176
     1
 90
        0
176
     1
 90
        0
176
     1
 40
0.6
176
     1
 40
30.0
176
     1
 62
     7
420
 16777215
176
     1
 90
        1
176
     1
 90
        4
176
     1
 62
     7
176
     1
 62
   257
176
     1
 90
        1
176
     1
 90
        1
176
     1
 40
1.0
176
     1
 90
       12
176
     1
 62
     7
176
     1
 40
1.0
176
     1
 90
        1
176
     1
 90
        6
176
     1
 90
        2
176
     1
 62
     7
176
     1
 90
        5
176
     1
 90
        0
176
     1
 90
        0
176
     1
290
     0
176
     1
 90
        1
176
     1
 40
0.0
176
     1
 90
        0
176
     1
290
     0
176
     1
290
     1
176
     1
290
     1
176
     1
290
     0
176
     1
290
     0
176
     1
290
     0
176
     1
290
     0
176
     1
290
     0
176
     1
290
     0
176
     1
 90
       50
176
     1
 40
0.0
176
     1
 40
1.0
176
     1
 90
        0
176
     1
 62
    18
420
        0
176
     1
 90
       50
176
     1
 90
        3
176
     1
 62
     5
420
      255
176
     1
290
     0
176
     1
 90
       50
176
     1
 90
       50
176
     1
 90
       50
176
     1
290
     0
176
     1
 90
       50
176
     1
 62
   256
176
     0
 40
1.0
176
     0
 90
        2
176
     1
  1
strokes_ogs.tif
176
     1
290
     0
176
     1
 40
1.0
176
     1
 40
1.0
176
     1
  0
VISUALSTYLE
  5
30
102
{ACAD_REACTORS
330
29
102
}
330
29
100
AcDbVisualStyle
  2
Wireframe
 70
     5
177
     3
291
     0
 70
    58
 90
        0
176
     1
 90
        2
176
     1
 90
        0
176
     1
 90
        0
176
     1
 40
0.6
176
     1
 40
30.0
176
     1
 62
     7
420
 16777215
176
     1
 90
        1
176
     1
 90
        4
176
     1
 62
     7
176
     1
 62
   257
176
     1
 90
        1
176
     1
 90
        1
176
     1
 40
1.0
176
     1
 90
        0
176
     1
 62
   257
176
     1
 40
1.0
176
     1
 90
        1
176
     1
 90
        6
176
     1
 90
        2
176
     1
 62
     7
176
     1
 90
        3
176
     1
 90
        0
176
     1
 90
        0
176
     1
290
     0
176
     1
 90
        1
176
     1
 40
0.0
176
     1
 90
        0
176
     1
290
     0
176
     1
290
     1
176
     1
290
     1
176
     1
290
     0
176
     1
290
     0
176
     1
290
     0
176
     1
290
     0
176
     1
290
     0
176
     1
290
     0
176
     1
 90
       50
176
     1
 40
0.0
176
     1
 40
1.0
176
     1
 90
        0
176
     1
 62
    18
420
        0
176
     1
 90
       50
176
     1
 90
        3
176
     1
 62
     5
420
      255
176
     1
290
     0
176
     1
 90
       50
176
     1
 90
       50
176
     1
 90
       50
176
     1
290
     0
176
     1
 90
       50
176
     1
 62
   256
176
     0
 40
1.0
176
     0
 90
        2
176
     1
  1
strokes_ogs.tif
176
     1
290
     0
176
     1
 40
1.0
176
     1
 40
1.0
176
     1
  0
VISUALSTYLE
  5
3C
102
{ACAD_REACTORS
330
29
102
}
330
29
100
AcDbVisualStyle
  2
X-Ray
 70
    25
177
     3
291
     0
 70
    58
 90
        2
176
     1
 90
        2
176
     1
 90
        1
176
     1
 90
        1
176
     1
 40
0.5
176
     1
 40
30.0
176
     1
 62
     7
420
 16777215
176
     1
 90
        1
176
     1
 90
        0
176
     1
 62
     7
176
     1
 62
   257
176
     1
 90
        1
176
     1
 90
        1
176
     1
 40
1.0
176
     1
 90
        8
176
     1
 62
     7
176
     1
 40
1.0
176
     1
 90
        1
176
     1
 90
        6
176
     1
 90
        2
176
     1
 62
     7
176
     1
 90
        3
176
     1
 90
        0
176
     1
 90
        0
176
     1
290
     0
176
     1
 90
       13
176
     1
 40
0.0
176
     1
 90
        0
176
     1
290
     0
176
     1
290
     1
176
     1
290
     1
176
     1
290
     0
176
     1
290
     0
176
     1
290
     0
176
     1
290
     0
176
     1
290
     0
176
     1
290
     0
176
     1
 90
       50
176
     1
 40
0.0
176
     1
 40
1.0
176
     1
 90
        0
176
     1
 62
    18
420
        0
176
     1
 90
       50
176
     1
 90
        3
176
     1
 62
     5
420
      255
176
     1
290
     0
176
     1
 90
       50
176
     1
 90
       50
176
     1
 90
       50
176
     1
290
     0
176
     1
 90
       50
176
     1
 62
   256
176
     0
 40
1.0
176
     0
 90
        2
176
     1
  1
strokes_ogs.tif
176
     1
290
     0
176
     1
 40
1.0
176
     1
 40
1.0
176
     1
  0
DICTIONARYVAR
  5
26F
102
{ACAD_REACTORS
330
26A
102
}
330
26A
100
DictionaryVariables
280
     0
  1
1:1
  0
DICTIONARYVAR
  5
26C
102
{ACAD_REACTORS
330
26A
102
}
330
26A
100
DictionaryVariables
280
     0
  1
STANDARD
  0
DICTIONARYVAR
  5
26B
102
{ACAD_REACTORS
330
26A
102
}
330
26A
100
DictionaryVariables
280
     0
  1
STANDARD
  0
DICTIONARYVAR
  5
26D
102
{ACAD_REACTORS
330
26A
102
}
330
26A
100
DictionaryVariables
280
     0
  1
Imperial24
  0
DICTIONARYVAR
  5
26E
102
{ACAD_REACTORS
330
26A
102
}
330
26A
100
DictionaryVariables
280
     0
  1
Imperial24
  0
XRECORD
  5
266
102
{ACAD_REACTORS
330
262
102
}
330
262
100
AcDbXrecord
280
     1
  1
BUILDING_ID
  1
Três sobrados gêmeos
  1
FLOOR_ID
  1
23033378
  0
XRECORD
  5
264
102
{ACAD_REACTORS
330
262
102
}
330
262
100
AcDbXrecord
280
     1
  1
-2000011
  1
Paredes
  1
-2000051
  1
Linhas
  1
-2000120
  1
Escadas
  1
-2000280
  1
Blocos de margens e carimbo
  0
XRECORD
  5
265
102
{ACAD_REACTORS
330
262
102
}
330
262
100
AcDbXrecord
280
     1
  1
-2000042
  1
<Linhas finas>
  1
-2000281
  1
<Linhas finas>
  1
-2000284
  1
<Projeção>
  1
-2000588
  1
Padrão de corte
  1
-2000930
  1
Marcas de corte
  1
-2000932
  1
Linhas de bocel
  1
-2000933
  1
<Acima> Linhas de bocel
  1
-2000934
  1
Contornos
  1
-2000935
  1
<Acima> Contornos
  1
-2000936
  1
Linhas do espelho
  1
-2000937
  1
<Acima> Linhas do espelho
  0
XRECORD
  5
263
102
{ACAD_REACTORS
330
262
102
}
330
262
100
AcDbXrecord
280
     1
  1
141734
  1
Escada montada : Espelho máximo de 190 mm a 250 mm
  1
22554474
  1
Parede básica : 20 : 20
  1
23033332
  1
SVG : A4
  1
3324767
  1
Parede básica : 00_PAREDE_GENERICA_15_CM : 00_PAREDE_GENERICA_15_CM
  0
DICTIONARY
  5
1A
330
19
100
AcDbDictionary
280
     1
281
     1
  3
BUMPTILE
360
1C
  3
DIFFUSETILE
360
1B
  3
OPACITYTILE
360
1F
  3
REFLECTIONTILE
360
1E
  3
REFRACTIONTILE
360
20
  3
SPECULARTILE
360
1D
  0
DICTIONARY
  5
12
330
11
100
AcDbDictionary
280
     1
281
     1
  3
BUMPTILE
360
14
  3
DIFFUSETILE
360
13
  3
OPACITYTILE
360
17
  3
REFLECTIONTILE
360
16
  3
REFRACTIONTILE
360
18
  3
SPECULARTILE
360
15
  0
DICTIONARY
  5
22
330
21
100
AcDbDictionary
280
     1
281
     1
  3
BUMPTILE
360
24
  3
DIFFUSETILE
360
23
  3
OPACITYTILE
360
27
  3
REFLECTIONTILE
360
26
  3
REFRACTIONTILE
360
28
  3
SPECULARTILE
360
25
  0
DICTIONARY
  5
31D
330
65
100
AcDbDictionary
280
     1
281
     1
  3
ACAD_ROUNDTRIP_2008_TABLESTYLE_CELLSTYLEMAP
360
31E
  0
XRECORD
  5
1C
102
{ACAD_REACTORS
330
1A
102
}
330
1A
100
AcDbXrecord
280
     1
270
     1
271
     1
  0
XRECORD
  5
1B
102
{ACAD_REACTORS
330
1A
102
}
330
1A
100
AcDbXrecord
280
     1
270
     1
271
     1
  0
XRECORD
  5
1F
102
{ACAD_REACTORS
330
1A
102
}
330
1A
100
AcDbXrecord
280
     1
270
     1
271
     1
  0
XRECORD
  5
1E
102
{ACAD_REACTORS
330
1A
102
}
330
1A
100
AcDbXrecord
280
     1
270
     1
271
     1
  0
XRECORD
  5
20
102
{ACAD_REACTORS
330
1A
102
}
330
1A
100
AcDbXrecord
280
     1
270
     1
271
     1
  0
XRECORD
  5
1D
102
{ACAD_REACTORS
330
1A
102
}
330
1A
100
AcDbXrecord
280
     1
270
     1
271
     1
  0
XRECORD
  5
14
102
{ACAD_REACTORS
330
12
102
}
330
12
100
AcDbXrecord
280
     1
270
     1
271
     1
  0
XRECORD
  5
13
102
{ACAD_REACTORS
330
12
102
}
330
12
100
AcDbXrecord
280
     1
270
     1
271
     1
  0
XRECORD
  5
17
102
{ACAD_REACTORS
330
12
102
}
330
12
100
AcDbXrecord
280
     1
270
     1
271
     1
  0
XRECORD
  5
16
102
{ACAD_REACTORS
330
12
102
}
330
12
100
AcDbXrecord
280
     1
270
     1
271
     1
  0
XRECORD
  5
18
102
{ACAD_REACTORS
330
12
102
}
330
12
100
AcDbXrecord
280
     1
270
     1
271
     1
  0
XRECORD
  5
15
102
{ACAD_REACTORS
330
12
102
}
330
12
100
AcDbXrecord
280
     1
270
     1
271
     1
  0
XRECORD
  5
24
102
{ACAD_REACTORS
330
22
102
}
330
22
100
AcDbXrecord
280
     1
270
     1
271
     1
  0
XRECORD
  5
23
102
{ACAD_REACTORS
330
22
102
}
330
22
100
AcDbXrecord
280
     1
270
     1
271
     1
  0
XRECORD
  5
27
102
{ACAD_REACTORS
330
22
102
}
330
22
100
AcDbXrecord
280
     1
270
     1
271
     1
  0
XRECORD
  5
26
102
{ACAD_REACTORS
330
22
102
}
330
22
100
AcDbXrecord
280
     1
270
     1
271
     1
  0
XRECORD
  5
28
102
{ACAD_REACTORS
330
22
102
}
330
22
100
AcDbXrecord
280
     1
270
     1
271
     1
  0
XRECORD
  5
25
102
{ACAD_REACTORS
330
22
102
}
330
22
100
AcDbXrecord
280
     1
270
     1
271
     1
  0
CELLSTYLEMAP
  5
31E
102
{ACAD_REACTORS
330
31D
102
}
330
31D
100
AcDbCellStyleMap
 90
        3
300
CELLSTYLE
  1
TABLEFORMAT_BEGIN
 90
        5
170
     1
 91
        0
 92
    32768
 62
   257
 93
        1
300
CONTENTFORMAT
  1
CONTENTFORMAT_BEGIN
 90
        0
 91
        0
 92
      512
 93
        0
300

 40
0.0
140
1.0
 94
        5
 62
     0
340
55
144
0.25
309
CONTENTFORMAT_END
171
     0
 94
        0
309
TABLEFORMAT_END
  1
CELLSTYLE_BEGIN
 90
        1
 91
        1
300
_TITLE
309
CELLSTYLE_END
300
CELLSTYLE
  1
TABLEFORMAT_BEGIN
 90
        5
170
     1
 91
        0
 92
        0
 62
   257
 93
        1
300
CONTENTFORMAT
  1
CONTENTFORMAT_BEGIN
 90
        0
 91
        0
 92
      512
 93
        0
300

 40
0.0
140
1.0
 94
        5
 62
     0
340
55
144
0.18
309
CONTENTFORMAT_END
171
     0
 94
        0
309
TABLEFORMAT_END
  1
CELLSTYLE_BEGIN
 90
        2
 91
        1
300
_HEADER
309
CELLSTYLE_END
300
CELLSTYLE
  1
TABLEFORMAT_BEGIN
 90
        5
170
     1
 91
        0
 92
        0
 62
   257
 93
        1
300
CONTENTFORMAT
  1
CONTENTFORMAT_BEGIN
 90
        0
 91
        0
 92
      512
 93
        0
300

 40
0.0
140
1.0
 94
        2
 62
     0
340
55
144
0.18
309
CONTENTFORMAT_END
171
     0
 94
        0
309
TABLEFORMAT_END
  1
CELLSTYLE_BEGIN
 90
        3
 91
        2
300
_DATA
309
CELLSTYLE_END
  0
ENDSEC
  0
SECTION
  2
ACDSDATA
 70
     2
 71
     8
  0
ACDSSCHEMA
 90
        0
  1
AcDb_Thumbnail_Schema
  2
AcDbDs::ID
280
    10
 91
        8
  2
Thumbnail_Data
280
    15
 91
        0
101
ACDSRECORD
 95
        0
 90
        1
  2
AcDbDs::TreatedAsObjectData
280
     1
291
     1
101
ACDSRECORD
 95
        0
 90
        2
  2
AcDbDs::Legacy
280
     1
291
     1
101
ACDSRECORD
  1
AcDbDs::ID
 90
        3
  2
AcDs:Indexable
280
     1
291
     1
101
ACDSRECORD
  1
AcDbDs::ID
 90
        4
  2
AcDbDs::HandleAttribute
280
     7
282
     1
  0
ACDSSCHEMA
 90
        1
  1
AcDbDs::TreatedAsObjectDataSchema
  2
AcDbDs::TreatedAsObjectData
280
     1
 91
        0
  0
ACDSSCHEMA
 90
        2
  1
AcDbDs::LegacySchema
  2
AcDbDs::Legacy
280
     1
 91
        0
  0
ACDSSCHEMA
 90
        3
  1
AcDbDs::IndexedPropertySchema
  2
AcDs:Indexable
280
     1
 91
        0
  0
ACDSSCHEMA
 90
        4
  1
AcDbDs::HandleAttributeSchema
  2
AcDbDs::HandleAttribute
280
     7
 91
        1
284
     1
  0
ACDSRECORD
 90
        0
  2
AcDbDs::ID
280
    10
320
6F
  2
Thumbnail_Data
280
    15
 94
     1396
310
89504E470D0A1A0A0000000D4948445200000100000000B5080300000087DCD12600000300504C5445FFFFFFFFFFFFFFFFFF0000000000000000000000000000000000000000000000000000330000660000990000CC0000FF0033000033330033660033990033CC0033FF0066000066330066660066990066CC0066FF0099
310
000099330099660099990099CC0099FF00CC0000CC3300CC6600CC9900CCCC00CCFF00FF0000FF3300FF6600FF9900FFCC00FFFF3300003300333300663300993300CC3300FF3333003333333333663333993333CC3333FF3366003366333366663366993366CC3366FF3399003399333399663399993399CC3399FF33CC00
310
33CC3333CC6633CC9933CCCC33CCFF33FF0033FF3333FF6633FF9933FFCC33FFFF6600006600336600666600996600CC6600FF6633006633336633666633996633CC6633FF6666006666336666666666996666CC6666FF6699006699336699666699996699CC6699FF66CC0066CC3366CC6666CC9966CCCC66CCFF66FF0066
310
FF3366FF6666FF9966FFCC66FFFF9900009900339900669900999900CC9900FF9933009933339933669933999933CC9933FF9966009966339966669966999966CC9966FF9999009999339999669999999999CC9999FF99CC0099CC3399CC6699CC9999CCCC99CCFF99FF0099FF3399FF6699FF9999FFCC99FFFFCC0000CC00
310
33CC0066CC0099CC00CCCC00FFCC3300CC3333CC3366CC3399CC33CCCC33FFCC6600CC6633CC6666CC6699CC66CCCC66FFCC9900CC9933CC9966CC9999CC99CCCC99FFCCCC00CCCC33CCCC66CCCC99CCCCCCCCCCFFCCFF00CCFF33CCFF66CCFF99CCFFCCCCFFFFFF0000FF0033FF0066FF0099FF00CCFF00FFFF3300FF3333
310
FF3366FF3399FF33CCFF33FFFF6600FF6633FF6666FF6699FF66CCFF66FFFF9900FF9933FF9966FF9999FF99CCFF99FFFFCC00FFCC33FFCC66FFCC99FFCCCCFFCCFFFFFF00FFFF33FFFF66FFFF99FFFFCCFFFFFF0000000D0D0D1A1A1A2828283535354343435050505D5D5D6B6B6B787878868686939393A1A1A1AEAEAEBB
310
BBBBC9C9C9D6D6D6E4E4E4F1F1F1FFFFFF000000000000000000000000000000000000000000000000000000000000AD4AB4E40000022F4944415478DAEDDC5D8E82301440E1EEB80B9B3DCC3AFA7C1F8D8B18E9142C3033C6984963CFB9310A2811BED0F2D3DBA63C38222E978861EFD794D3D018FCF74900011E6EC1C7AB
310
F1F6002FFE850002082080000208208000D3002C37B1FD74CE34806EB3F3E39D98102022478B3A41038863F0000EB302B001786781134012807916D8004A0D016045A003A81F6400FC11800368AD9AF022B06D3CB5086CDB8E07B8CDDE761E5809AE2B46A15E08AD516A0D4806A0D601E0227000C05E07D04F8302E02F853D
310
023C0204F0342880004480D3DDA000160101E81742A5C461390520DF1F8E2201FA94B1C23E020480027419225080761AA45682F7C7E25C8078727D0104104000010410600A80CC06C8F5468808D07515CA710E0A40EC6650007FFE5E0001041040000104104000010410400001041040000104104000010410400001041040
310
804900D626F07D23F9FEBBC901DA184A7D9AC43D5F02510496F498253FA67618C8695D44AA03EA8AD126FA45A84A300E9F02082080000208208000020820C0C4009F5DF4CF0830E9F26780DA77B8BD9045A02CE30AB71716A0D0013C02D0006D0C056C2598B0BDC6BC121440000104108009006F1BDC5A8733B175B8CB0FF8
310
2151009621B25FE4000A264909208000020820800002082080000208208000020820800002083025403EEF03B0692CB58E9329D19AC6BE47175F629DDD2638638BFF16B3033C1902082080000208F0CE00AFC6BB03FC6F08208000020820C05080C171191BD77485C717D4D78B6C81951B350000000049454E44AE426082
  0
ACDSRECORD
 90
        0
  2
AcDbDs::ID
280
    10
320
73
  2
Thumbnail_Data
280
    15
 94
     1026
310
89504E470D0A1A0A0000000D494844520000010000000065080300000095E2CD0900000300504C5445FFFFFFFFFFFFFFFFFF0000000000000000000000000000000000000000000000000000330000660000990000CC0000FF0033000033330033660033990033CC0033FF0066000066330066660066990066CC0066FF0099
310
000099330099660099990099CC0099FF00CC0000CC3300CC6600CC9900CCCC00CCFF00FF0000FF3300FF6600FF9900FFCC00FFFF3300003300333300663300993300CC3300FF3333003333333333663333993333CC3333FF3366003366333366663366993366CC3366FF3399003399333399663399993399CC3399FF33CC00
310
33CC3333CC6633CC9933CCCC33CCFF33FF0033FF3333FF6633FF9933FFCC33FFFF6600006600336600666600996600CC6600FF6633006633336633666633996633CC6633FF6666006666336666666666996666CC6666FF6699006699336699666699996699CC6699FF66CC0066CC3366CC6666CC9966CCCC66CCFF66FF0066
310
FF3366FF6666FF9966FFCC66FFFF9900009900339900669900999900CC9900FF9933009933339933669933999933CC9933FF9966009966339966669966999966CC9966FF9999009999339999669999999999CC9999FF99CC0099CC3399CC6699CC9999CCCC99CCFF99FF0099FF3399FF6699FF9999FFCC99FFFFCC0000CC00
310
33CC0066CC0099CC00CCCC00FFCC3300CC3333CC3366CC3399CC33CCCC33FFCC6600CC6633CC6666CC6699CC66CCCC66FFCC9900CC9933CC9966CC9999CC99CCCC99FFCCCC00CCCC33CCCC66CCCC99CCCCCCCCCCFFCCFF00CCFF33CCFF66CCFF99CCFFCCCCFFFFFF0000FF0033FF0066FF0099FF00CCFF00FFFF3300FF3333
310
FF3366FF3399FF33CCFF33FFFF6600FF6633FF6666FF6699FF66CCFF66FFFF9900FF9933FF9966FF9999FF99CCFF99FFFFCC00FFCC33FFCC66FFCC99FFCCCCFFCCFFFFFF00FFFF33FFFF66FFFF99FFFFCCFFFFFF0000000D0D0D1A1A1A2828283535354343435050505D5D5D6B6B6B787878868686939393A1A1A1AEAEAEBB
310
BBBBC9C9C9D6D6D6E4E4E4F1F1F1FFFFFF000000000000000000000000000000000000000000000000000000000000AD4AB4E4000000BD4944415478DAEDDAC10D83301000C1EBBFCCAB2428119668803C7656823F8331D862469224E94FED7E4F1B06F8D51E0103A0FD08DC6700D949B00D701DF911B000DA8FC00C000003
310
A0BE183202F2001B071800F5EF80FC0818005D80FCAEF08497848F6B060000000000000000000000406931F438CA00D9D5E0CE7DF3B373C09E8D11000000F4DE02E73FB16D8F000000D6240820FD29BC5683F6030000000000000000009A001BDE114AFF2516079024499224499224499224BDD0074C4971F639106F2B0000
310
000049454E44AE426082
  0
ENDSEC
  0
EOF
