  0
SECTION
  2
HEADER
  9
$ACADVER
  1
AC1032
  9
$ACADMAINTVER
 90
      204
  9
$DWGCODEPAGE
  3
ANSI_1252
  9
$LASTSAVEDBY
  1
duda-
  9
$REQUIREDVERSIONS
160
                 0
  9
$INSBASE
 10
0.0
 20
0.0
 30
0.0
  9
$EXTMIN
 10
-7560.078715219084
 20
-1450.922596826728
 30
0.0
  9
$EXTMAX
 10
18785.35658245697
 20
9985.161291957476
 30
0.0
  9
$LIMMIN
 10
0.0
 20
0.0
  9
$LIMMAX
 10
12.0
 20
9.0
  9
$ORTHOMODE
 70
     0
  9
$REGENMODE
 70
     1
  9
$FILLMODE
 70
     1
  9
$QTEXTMODE
 70
     0
  9
$MIRRTEXT
 70
     0
  9
$LTSCALE
 40
1.0
  9
$ATTMODE
 70
     1
  9
$TEXTSIZE
 40
0.2
  9
$TRACEWID
 40
0.05
  9
$TEXTSTYLE
  7
Standard
  9
$CLAYER
  8
0
  9
$CELTYPE
  6
ByLayer
  9
$CECOLOR
 62
   256
  9
$CELTSCALE
 40
1.0
  9
$DISPSILH
 70
     0
  9
$DIMSCALE
 40
1.0
  9
$DIMASZ
 40
0.18
  9
$DIMEXO
 40
0.0625
  9
$DIMDLI
 40
0.38
  9
$DIMRND
 40
0.0
  9
$DIMDLE
 40
0.0
  9
$DIMEXE
 40
0.18
  9
$DIMTP
 40
0.0
  9
$DIMTM
 40
0.0
  9
$DIMTXT
 40
0.18
  9
$DIMCEN
 40
0.09
  9
$DIMTSZ
 40
0.0
  9
$DIMTOL
 70
     0
  9
$DIMLIM
 70
     0
  9
$DIMTIH
 70
     1
  9
$DIMTOH
 70
     1
  9
$DIMSE1
 70
     0
  9
$DIMSE2
 70
     0
  9
$DIMTAD
 70
     0
  9
$DIMZIN
 70
     0
  9
$DIMBLK
  1

  9
$DIMASO
 70
     1
  9
$DIMSHO
 70
     1
  9
$DIMPOST
  1

  9
$DIMAPOST
  1

  9
$DIMALT
 70
     0
  9
$DIMALTD
 70
     2
  9
$DIMALTF
 40
25.4
  9
$DIMLFAC
 40
1.0
  9
$DIMTOFL
 70
     0
  9
$DIMTVP
 40
0.0
  9
$DIMTIX
 70
     0
  9
$DIMSOXD
 70
     0
  9
$DIMSAH
 70
     0
  9
$DIMBLK1
  1

  9
$DIMBLK2
  1

  9
$DIMSTYLE
  2
Standard
  9
$DIMCLRD
 70
     0
  9
$DIMCLRE
 70
     0
  9
$DIMCLRT
 70
     0
  9
$DIMTFAC
 40
1.0
  9
$DIMGAP
 40
0.09
  9
$DIMJUST
 70
     0
  9
$DIMSD1
 70
     0
  9
$DIMSD2
 70
     0
  9
$DIMTOLJ
 70
     1
  9
$DIMTZIN
 70
     0
  9
$DIMALTZ
 70
     0
  9
$DIMALTTZ
 70
     0
  9
$DIMUPT
 70
     0
  9
$DIMDEC
 70
     4
  9
$DIMTDEC
 70
     4
  9
$DIMALTU
 70
     2
  9
$DIMALTTD
 70
     2
  9
$DIMTXSTY
  7
Standard
  9
$DIMAUNIT
 70
     0
  9
$DIMADEC
 70
     0
  9
$DIMALTRND
 40
0.0
  9
$DIMAZIN
 70
     0
  9
$DIMDSEP
 70
    46
  9
$DIMATFIT
 70
     3
  9
$DIMFRAC
 70
     0
  9
$DIMLDRBLK
  1

  9
$DIMLUNIT
 70
     2
  9
$DIMLWD
 70
    -2
  9
$DIMLWE
 70
    -2
  9
$DIMTMOVE
 70
     0
  9
$DIMFXL
 40
1.0
  9
$DIMFXLON
 70
     0
  9
$DIMJOGANG
 40
0.7853981633974483
  9
$DIMTFILL
 70
     0
  9
$DIMTFILLCLR
 70
     0
  9
$DIMARCSYM
 70
     0
  9
$DIMLTYPE
  6

  9
$DIMLTEX1
  6

  9
$DIMLTEX2
  6

  9
$DIMTXTDIRECTION
 70
     0
  9
$LUNITS
 70
     2
  9
$LUPREC
 70
     4
  9
$SKETCHINC
 40
0.1
  9
$FILLETRAD
 40
0.0
  9
$AUNITS
 70
     0
  9
$AUPREC
 70
     0
  9
$MENU
  1
.
  9
$ELEVATION
 40
0.0
  9
$PELEVATION
 40
0.0
  9
$THICKNESS
 40
0.0
  9
$LIMCHECK
 70
     0
  9
$CHAMFERA
 40
0.0
  9
$CHAMFERB
 40
0.0
  9
$CHAMFERC
 40
0.0
  9
$CHAMFERD
 40
0.0
  9
$SKPOLY
 70
     0
  9
$TDCREATE
 40
2460730.600451389
  9
$TDUCREATE
 40
2460730.725451389
  9
$TDUPDATE
 40
2460738.997546296
  9
$TDUUPDATE
 40
2460739.122546296
  9
$TDINDWG
 40
0.0504629630
  9
$TDUSRTIMER
 40
0.0504629630
  9
$USRTIMER
 70
     1
  9
$ANGBASE
 50
0.0
  9
$ANGDIR
 70
     0
  9
$PDMODE
 70
     0
  9
$PDSIZE
 40
0.0
  9
$PLINEWID
 40
0.0
  9
$SPLFRAME
 70
     0
  9
$SPLINETYPE
 70
     6
  9
$SPLINESEGS
 70
     8
  9
$HANDSEED
  5
347
  9
$SURFTAB1
 70
     6
  9
$SURFTAB2
 70
     6
  9
$SURFTYPE
 70
     6
  9
$SURFU
 70
     6
  9
$SURFV
 70
     6
  9
$UCSBASE
  2

  9
$UCSNAME
  2

  9
$UCSORG
 10
0.0
 20
0.0
 30
0.0
  9
$UCSXDIR
 10
1.0
 20
0.0
 30
0.0
  9
$UCSYDIR
 10
0.0
 20
1.0
 30
0.0
  9
$UCSORTHOREF
  2

  9
$UCSORTHOVIEW
 70
     0
  9
$UCSORGTOP
 10
0.0
 20
0.0
 30
0.0
  9
$UCSORGBOTTOM
 10
0.0
 20
0.0
 30
0.0
  9
$UCSORGLEFT
 10
0.0
 20
0.0
 30
0.0
  9
$UCSORGRIGHT
 10
0.0
 20
0.0
 30
0.0
  9
$UCSORGFRONT
 10
0.0
 20
0.0
 30
0.0
  9
$UCSORGBACK
 10
0.0
 20
0.0
 30
0.0
  9
$PUCSBASE
  2

  9
$PUCSNAME
  2

  9
$PUCSORG
 10
0.0
 20
0.0
 30
0.0
  9
$PUCSXDIR
 10
1.0
 20
0.0
 30
0.0
  9
$PUCSYDIR
 10
0.0
 20
1.0
 30
0.0
  9
$PUCSORTHOREF
  2

  9
$PUCSORTHOVIEW
 70
     0
  9
$PUCSORGTOP
 10
0.0
 20
0.0
 30
0.0
  9
$PUCSORGBOTTOM
 10
0.0
 20
0.0
 30
0.0
  9
$PUCSORGLEFT
 10
0.0
 20
0.0
 30
0.0
  9
$PUCSORGRIGHT
 10
0.0
 20
0.0
 30
0.0
  9
$PUCSORGFRONT
 10
0.0
 20
0.0
 30
0.0
  9
$PUCSORGBACK
 10
0.0
 20
0.0
 30
0.0
  9
$USERI1
 70
     0
  9
$USERI2
 70
     0
  9
$USERI3
 70
     0
  9
$USERI4
 70
     0
  9
$USERI5
 70
     0
  9
$USERR1
 40
0.0
  9
$USERR2
 40
0.0
  9
$USERR3
 40
0.0
  9
$USERR4
 40
0.0
  9
$USERR5
 40
0.0
  9
$WORLDVIEW
 70
     1
  9
$SHADEDGE
 70
     3
  9
$SHADEDIF
 70
    70
  9
$TILEMODE
 70
     1
  9
$MAXACTVP
 70
    64
  9
$PINSBASE
 10
0.0
 20
0.0
 30
0.0
  9
$PLIMCHECK
 70
     0
  9
$PEXTMIN
 10
-102.2199656961018
 20
102.9846201918336
 30
-0.0015258207003583
  9
$PEXTMAX
 10
317.8056690695531
 20
400.0122079625721
 30
0.0000000349246037
  9
$PLIMMIN
 10
-102.2199656961018
 20
102.9846201918336
  9
$PLIMMAX
 10
318.0847567702375
 20
400.1697774912654
  9
$UNITMODE
 70
     0
  9
$VISRETAIN
 70
     1
  9
$PLINEGEN
 70
     0
  9
$PSLTSCALE
 70
     0
  9
$TREEDEPTH
 70
  3020
  9
$CMLSTYLE
  2
Standard
  9
$CMLJUST
 70
     0
  9
$CMLSCALE
 40
1.0
  9
$PROXYGRAPHICS
 70
     1
  9
$MEASUREMENT
 70
     1
  9
$CELWEIGHT
370
    -1
  9
$ENDCAPS
280
     0
  9
$JOINSTYLE
280
     0
  9
$LWDISPLAY
290
     0
  9
$INSUNITS
 70
     4
  9
$HYPERLINKBASE
  1

  9
$STYLESHEET
  1

  9
$XEDIT
290
     1
  9
$CEPSNTYPE
380
     0
  9
$PSTYLEMODE
290
     1
  9
$FINGERPRINTGUID
  2
{EB361740-D4C5-8F40-A57D-0FA9CB0EA3E8}
  9
$VERSIONGUID
  2
{83C3F6AD-69F2-B441-89D8-5DF1B07AC250}
  9
$EXTNAMES
290
     1
  9
$PSVPSCALE
 40
0.0
  9
$OLESTARTUP
290
     0
  9
$SORTENTS
280
   127
  9
$INDEXCTL
280
     0
  9
$HIDETEXT
280
     1
  9
$XCLIPFRAME
280
     2
  9
$HALOGAP
280
     0
  9
$OBSCOLOR
 70
   257
  9
$OBSLTYPE
280
     0
  9
$INTERSECTIONDISPLAY
280
     0
  9
$INTERSECTIONCOLOR
 70
   257
  9
$DIMASSOC
280
     2
  9
$PROJECTNAME
  1

  9
$CAMERADISPLAY
290
     0
  9
$LENSLENGTH
 40
50.0
  9
$CAMERAHEIGHT
 40
0.0
  9
$STEPSPERSEC
 40
2.0
  9
$STEPSIZE
 40
6.0
  9
$3DDWFPREC
 40
2.0
  9
$PSOLWIDTH
 40
0.25
  9
$PSOLHEIGHT
 40
4.0
  9
$LOFTANG1
 40
1.570796326794896
  9
$LOFTANG2
 40
1.570796326794896
  9
$LOFTMAG1
 40
0.0
  9
$LOFTMAG2
 40
0.0
  9
$LOFTPARAM
 70
     7
  9
$LOFTNORMALS
280
     1
  9
$LATITUDE
 40
0.0
  9
$LONGITUDE
 40
0.0
  9
$NORTHDIRECTION
 40
0.0
  9
$TIMEZONE
 70
     0
  9
$LIGHTGLYPHDISPLAY
280
     1
  9
$TILEMODELIGHTSYNCH
280
     1
  9
$CMATERIAL
347
11
  9
$SOLIDHIST
280
     0
  9
$SHOWHIST
280
     1
  9
$DWFFRAME
280
     2
  9
$DGNFRAME
280
     0
  9
$REALWORLDSCALE
290
     1
  9
$INTERFERECOLOR
 62
     1
  9
$INTERFEREOBJVS
345
33
  9
$INTERFEREVPVS
346
30
  9
$CSHADOW
280
     0
  9
$SHADOWPLANELOCATION
 40
0.0
  0
ENDSEC
  0
SECTION
  2
CLASSES
  0
CLASS
  1
ACDBDICTIONARYWDFLT
  2
AcDbDictionaryWithDefault
  3
ObjectDBX Classes
 90
        0
 91
        1
280
     0
281
     0
  0
CLASS
  1
MATERIAL
  2
AcDbMaterial
  3
ObjectDBX Classes
 90
     1153
 91
        3
280
     0
281
     0
  0
CLASS
  1
VISUALSTYLE
  2
AcDbVisualStyle
  3
ObjectDBX Classes
 90
     4095
 91
       24
280
     0
281
     0
  0
CLASS
  1
SCALE
  2
AcDbScale
  3
ObjectDBX Classes
 90
     1153
 91
       17
280
     0
281
     0
  0
CLASS
  1
TABLESTYLE
  2
AcDbTableStyle
  3
ObjectDBX Classes
 90
     4095
 91
        1
280
     0
281
     0
  0
CLASS
  1
MLEADERSTYLE
  2
AcDbMLeaderStyle
  3
ACDB_MLEADERSTYLE_CLASS
 90
     4095
 91
        1
280
     0
281
     0
  0
CLASS
  1
ACDBSECTIONVIEWSTYLE
  2
AcDbSectionViewStyle
  3
ObjectDBX Classes
 90
     1025
 91
        2
280
     0
281
     0
  0
CLASS
  1
ACDBDETAILVIEWSTYLE
  2
AcDbDetailViewStyle
  3
ObjectDBX Classes
 90
     1025
 91
        2
280
     0
281
     0
  0
CLASS
  1
RASTERVARIABLES
  2
AcDbRasterVariables
  3
ISM
 90
        0
 91
        1
280
     0
281
     0
  0
CLASS
  1
DICTIONARYVAR
  2
AcDbDictionaryVar
  3
ObjectDBX Classes
 90
        0
 91
        5
280
     0
281
     0
  0
CLASS
  1
SORTENTSTABLE
  2
AcDbSortentsTable
  3
ObjectDBX Classes
 90
        0
 91
        1
280
     0
281
     0
  0
CLASS
  1
SUN
  2
AcDbSun
  3
SCENEOE
 90
     1153
 91
        1
280
     0
281
     0
  0
CLASS
  1
RAPIDRTRENDERSETTINGS
  2
AcDbRapidRTRenderSettings
  3
ObjectDBX Classes
 90
     1024
 91
        7
280
     0
281
     0
  0
CLASS
  1
CELLSTYLEMAP
  2
AcDbCellStyleMap
  3
ObjectDBX Classes
 90
     1152
 91
        1
280
     0
281
     0
  0
ENDSEC
  0
SECTION
  2
TABLES
  0
TABLE
  2
VPORT
  5
8
330
0
100
AcDbSymbolTable
 70
     1
  0
VPORT
  5
57
330
8
100
AcDbSymbolTableRecord
100
AcDbViewportTableRecord
  2
*Active
 70
     0
 10
0.0
 20
0.0
 11
1.0
 21
1.0
 12
4083.566729263988
 22
2766.104485799828
 13
0.0
 23
0.0
 14
1.0
 24
1.0
 15
0.0
 25
0.0
 16
0.0
 26
0.0
 36
1.0
 17
0.0
 27
0.0
 37
0.0
 40
18485.58384339429
 41
2.531208499335989
 42
50.0
 43
0.0
 44
0.0
 50
0.0
 51
0.0
 71
     0
 72
  1000
 73
     1
 74
     1
 75
     0
 76
     0
 77
     0
 78
     0
281
     0
 65
     1
110
0.0
120
0.0
130
0.0
111
1.0
121
0.0
131
0.0
112
0.0
122
1.0
132
0.0
 79
     0
146
0.0
348
2F
 60
     3
 61
     5
292
     1
282
     1
141
0.0
142
0.0
 63
   250
421
  3355443
361
2A6
1001
ACAD_NAV_VCDISPLAY
1070
     3
  0
ENDTAB
  0
TABLE
  2
LTYPE
  5
5
330
0
100
AcDbSymbolTable
 70
     1
  0
LTYPE
  5
5B
330
5
100
AcDbSymbolTableRecord
100
AcDbLinetypeTableRecord
  2
ByBlock
 70
     0
  3

 72
    65
 73
     0
 40
0.0
  0
LTYPE
  5
5C
330
5
100
AcDbSymbolTableRecord
100
AcDbLinetypeTableRecord
  2
ByLayer
 70
     0
  3

 72
    65
 73
     0
 40
0.0
  0
LTYPE
  5
5D
330
5
100
AcDbSymbolTableRecord
100
AcDbLinetypeTableRecord
  2
Continuous
 70
     0
  3
Solid line
 72
    65
 73
     0
 40
0.0
  0
ENDTAB
  0
TABLE
  2
LAYER
  5
2
102
{ACAD_XDICTIONARY
360
2C3
102
}
330
0
100
AcDbSymbolTable
 70
     8
  0
LAYER
  5
54
330
2
100
AcDbSymbolTableRecord
100
AcDbLayerTableRecord
  2
0
 70
     0
 62
   250
  6
Continuous
370
    25
390
F
347
21
348
0
  0
LAYER
  5
81
330
2
100
AcDbSymbolTableRecord
100
AcDbLayerTableRecord
  2
A-ALV-___-___-EXI
 70
     0
 62
   250
  6
Continuous
370
    35
390
F
347
21
348
0
  0
LAYER
  5
E4
330
2
100
AcDbSymbolTableRecord
100
AcDbLayerTableRecord
  2
A-JAN-___-___-EXI
 70
     0
 62
   250
  6
Continuous
370
    25
390
F
347
21
348
0
  0
LAYER
  5
137
330
2
100
AcDbSymbolTableRecord
100
AcDbLayerTableRecord
  2
A-POR-___-___-EXI
 70
     0
 62
   250
  6
Continuous
370
    25
390
F
347
21
348
0
  0
LAYER
  5
28F
330
2
100
AcDbSymbolTableRecord
100
AcDbLayerTableRecord
  2
A-COB-___-___-EXI
 70
     0
 62
   250
  6
Continuous
370
    25
390
F
347
21
348
0
  0
LAYER
  5
295
330
2
100
AcDbSymbolTableRecord
100
AcDbLayerTableRecord
  2
A-ESC-___-___-EXI
 70
     0
 62
   250
  6
Continuous
370
    25
390
F
347
21
348
0
  0
LAYER
  5
297
330
2
100
AcDbSymbolTableRecord
100
AcDbLayerTableRecord
  2
A-BAS-___-___-EXI
 70
     0
 62
   250
  6
Continuous
370
    25
390
F
347
21
348
0
  0
LAYER
  5
333
330
2
100
AcDbSymbolTableRecord
100
AcDbLayerTableRecord
  2
A-PIS-___-___-EXI
 70
     0
 62
   250
  6
Continuous
370
    25
390
F
347
21
348
0
1001
AcAecLayerStandard
1000

1000

1001
AcCmTransparency
1071
        0
  0
ENDTAB
  0
TABLE
  2
STYLE
  5
3
330
0
100
AcDbSymbolTable
 70
     2
  0
STYLE
  5
55
330
3
100
AcDbSymbolTableRecord
100
AcDbTextStyleTableRecord
  2
Standard
 70
     0
 40
0.0
 41
1.0
 50
0.0
 71
     0
 42
0.2
  3
txt
  4

  0
STYLE
  5
5A
330
3
100
AcDbSymbolTableRecord
100
AcDbTextStyleTableRecord
  2
Annotative
 70
     0
 40
0.0
 41
1.0
 50
0.0
 71
     0
 42
0.2
  3
txt
  4

1001
AcadAnnotative
1000
AnnotativeData
1002
{
1070
     1
1070
     1
1002
}
  0
ENDTAB
  0
TABLE
  2
VIEW
  5
6
330
0
100
AcDbSymbolTable
 70
     0
  0
ENDTAB
  0
TABLE
  2
UCS
  5
7
330
0
100
AcDbSymbolTable
 70
     0
  0
ENDTAB
  0
TABLE
  2
APPID
  5
9
330
0
100
AcDbSymbolTable
 70
     8
  0
APPID
  5
56
330
9
100
AcDbSymbolTableRecord
100
AcDbRegAppTableRecord
  2
ACAD
 70
     0
  0
APPID
  5
5E
330
9
100
AcDbSymbolTableRecord
100
AcDbRegAppTableRecord
  2
AcadAnnotative
 70
     0
  0
APPID
  5
78
330
9
100
AcDbSymbolTableRecord
100
AcDbRegAppTableRecord
  2
REVIT
 70
     0
  0
APPID
  5
2B6
330
9
100
AcDbSymbolTableRecord
100
AcDbRegAppTableRecord
  2
ACAD_PSEXT
 70
     0
  0
APPID
  5
321
330
9
100
AcDbSymbolTableRecord
100
AcDbRegAppTableRecord
  2
ACAD_NAV_VCDISPLAY
 70
     0
  0
APPID
  5
329
330
9
100
AcDbSymbolTableRecord
100
AcDbRegAppTableRecord
  2
ACAD_EXEMPT_FROM_CAD_STANDARDS
 70
     0
  0
APPID
  5
334
330
9
100
AcDbSymbolTableRecord
100
AcDbRegAppTableRecord
  2
AcAecLayerStandard
 70
     0
  0
APPID
  5
335
330
9
100
AcDbSymbolTableRecord
100
AcDbRegAppTableRecord
  2
AcCmTransparency
 70
     0
  0
ENDTAB
  0
TABLE
  2
DIMSTYLE
  5
A
330
0
100
AcDbSymbolTable
 70
     2
100
AcDbDimStyleTable
 71
     0
  0
DIMSTYLE
105
58
330
A
100
AcDbSymbolTableRecord
100
AcDbDimStyleTableRecord
  2
Standard
 70
     0
340
55
  0
DIMSTYLE
105
59
330
A
100
AcDbSymbolTableRecord
100
AcDbDimStyleTableRecord
  2
Annotative
 70
     0
340
55
1001
AcadAnnotative
1000
AnnotativeData
1002
{
1070
     1
1070
     1
1002
}
  0
ENDTAB
  0
TABLE
  2
BLOCK_RECORD
  5
1
330
0
100
AcDbSymbolTable
 70
     1
  0
BLOCK_RECORD
  5
70
102
{ACAD_XDICTIONARY
360
2A4
102
}
330
1
100
AcDbSymbolTableRecord
100
AcDbBlockTableRecord
  2
*Model_Space
340
73
 70
     0
280
     1
281
     0
  0
BLOCK_RECORD
  5
6C
330
1
100
AcDbSymbolTableRecord
100
AcDbBlockTableRecord
  2
*Paper_Space
340
6F
 70
     0
280
     1
281
     0
  0
BLOCK_RECORD
  5
296
330
1
100
AcDbSymbolTableRecord
100
AcDbBlockTableRecord
  2
A4 HORIZONTAL - A3-23034793-Não nomeada
340
0
102
{BLKREFS
331
29E
102
}
 70
     0
280
     1
281
     0
  0
ENDTAB
  0
ENDSEC
  0
SECTION
  2
BLOCKS
  0
BLOCK
  5
71
330
70
100
AcDbEntity
  8
0
100
AcDbBlockBegin
  2
*Model_Space
 70
     0
 10
0.0
 20
0.0
 30
0.0
  3
*Model_Space
  1

  0
ENDBLK
  5
72
330
70
100
AcDbEntity
  8
0
100
AcDbBlockEnd
  0
BLOCK
  5
6D
330
6C
100
AcDbEntity
 67
     1
  8
0
100
AcDbBlockBegin
  2
*Paper_Space
 70
     0
 10
0.0
 20
0.0
 30
0.0
  3
*Paper_Space
  1

  0
ENDBLK
  5
6E
330
6C
100
AcDbEntity
 67
     1
  8
0
100
AcDbBlockEnd
  0
BLOCK
  5
29C
330
296
100
AcDbEntity
  8
0
100
AcDbBlockBegin
  2
A4 HORIZONTAL - A3-23034793-Não nomeada
 70
     0
 10
0.0
 20
0.0
 30
0.0
  3
A4 HORIZONTAL - A3-23034793-Não nomeada
  1

  0
LINE
  5
298
330
296
100
AcDbEntity
  8
A-BAS-___-___-EXI
100
AcDbLine
 10
317.7928507088368
 20
399.9999999999856
 30
0.0
 11
-102.2071492911631
 21
399.9999999999856
 31
0.0
1001
REVIT
1002
{
1070
     1
1000
23033353
1002
}
1002
{
1070
     5
1000
23034793
1002
}
1002
{
1070
     3
1000
-2000281
1002
}
  0
LINE
  5
299
330
296
100
AcDbEntity
  8
A-BAS-___-___-EXI
100
AcDbLine
 10
-102.2071492911631
 20
399.9999999999856
 30
0.0
 11
-102.2071492911631
 21
102.9999999999856
 31
0.0
1001
REVIT
1002
{
1070
     1
1000
23033353
1002
}
1002
{
1070
     5
1000
23034793
1002
}
1002
{
1070
     3
1000
-2000281
1002
}
  0
LINE
  5
29A
330
296
100
AcDbEntity
  8
A-BAS-___-___-EXI
100
AcDbLine
 10
-102.2071492911631
 20
102.9999999999856
 30
0.0
 11
317.7928507088368
 21
102.9999999999856
 31
0.0
1001
REVIT
1002
{
1070
     1
1000
23033353
1002
}
1002
{
1070
     5
1000
23034793
1002
}
1002
{
1070
     3
1000
-2000281
1002
}
  0
LINE
  5
29B
330
296
100
AcDbEntity
  8
A-BAS-___-___-EXI
100
AcDbLine
 10
317.7928507088368
 20
102.9999999999856
 30
0.0
 11
317.7928507088368
 21
399.9999999999856
 31
0.0
1001
REVIT
1002
{
1070
     1
1000
23033353
1002
}
1002
{
1070
     5
1000
23034793
1002
}
1002
{
1070
     3
1000
-2000281
1002
}
  0
ENDBLK
  5
29D
330
296
100
AcDbEntity
  8
0
100
AcDbBlockEnd
  0
ENDSEC
  0
SECTION
  2
ENTITIES
  0
HATCH
  5
8A
330
70
100
AcDbEntity
  8
A-BAS-___-___-EXI
 62
   253
420
 13342872
100
AcDbHatch
 10
0.0
 20
0.0
 30
0.0
210
0.0
220
0.0
230
1.0
  2
SOLID
 70
     1
 71
     0
 91
        1
 92
        1
 93
        7
 72
     1
 10
18785.35658245697
 20
-1450.922596826728
 11
18785.35658245697
 21
-1071.00614186181
 72
     1
 10
18785.35658245697
 20
-1071.00614186181
 11
-6035.138596031338
 21
-1071.006141861728
 72
     1
 10
-6035.138596031339
 20
-1071.006141861728
 11
-6035.138596031339
 21
-1153.799759490603
 72
     1
 10
-6035.138596031339
 20
-1153.799759490603
 11
-7560.078715219084
 21
-1153.799759490599
 72
     1
 10
-7560.078715219084
 20
-1153.799759490599
 11
-7560.078715219084
 21
-1450.922596826645
 72
     1
 10
-7560.078715219084
 20
-1450.922596826645
 11
5612.638933618943
 21
-1450.922596826689
 72
     1
 10
5612.638933618942
 20
-1450.922596826689
 11
18785.35658245697
 21
-1450.922596826728
 97
        0
 75
     0
 76
     1
 98
        1
 10
0.0
 20
0.0
450
        0
451
        0
460
0.0
461
0.0
452
        0
462
0.0
453
        0
470

1001
REVIT
1002
{
1070
     1
1000
23028819
1002
}
1002
{
1070
     2
1000
-2002000
1002
}
  0
HATCH
  5
C1
330
70
100
AcDbEntity
  8
A-ALV-___-___-EXI
 62
    11
100
AcDbHatch
 10
0.0
 20
0.0
 30
0.0
210
0.0
220
0.0
230
1.0
  2
SOLID
 70
     1
 71
     0
 91
        9
 92
        1
 93
        4
 72
     1
 10
9104.012962387592
 20
-1071.00614186178
 11
9521.423910463349
 21
-1071.00614186178
 72
     1
 10
9521.423910463349
 20
-1071.00614186178
 11
9521.423910463349
 21
-349.0385282829438
 72
     1
 10
9521.423910463349
 20
-349.0385282829438
 11
9104.012962387592
 21
-349.0385282829438
 72
     1
 10
9104.012962387592
 20
-349.0385282829438
 11
9104.012962387592
 21
-1071.00614186178
 97
        0
 92
        1
 93
        4
 72
     1
 10
381.4192114475943
 20
-1071.00614186175
 11
542.7806514133434
 21
-1071.00614186175
 72
     1
 10
542.7806514133434
 20
-1071.00614186175
 11
542.7806514133434
 21
6202.510511352505
 72
     1
 10
542.7806514133434
 20
6202.510511352505
 11
381.4192114475943
 21
6202.510511352505
 72
     1
 10
381.4192114475943
 20
6202.510511352505
 11
381.4192114475943
 21
-1071.00614186175
 97
        0
 92
        1
 93
        6
 72
     1
 10
9104.012962387592
 20
1153.640884789767
 11
9521.423910463349
 21
1153.640884789767
 72
     1
 10
9521.423910463349
 20
1153.640884789767
 11
9521.423910463349
 21
3548.078366975772
 72
     1
 10
9521.423910463349
 20
3548.078366975772
 11
9344.012962387594
 21
3548.078366975774
 72
     1
 10
9344.012962387594
 20
3548.078366975774
 11
9344.012962387589
 21
2348.078366975769
 72
     1
 10
9344.012962387589
 20
2348.078366975769
 11
9104.012962387592
 21
2348.078366975769
 72
     1
 10
9104.012962387592
 20
2348.078366975769
 11
9104.012962387592
 21
1153.640884789767
 97
        0
 92
        1
 93
       20
 72
     1
 10
-5802.432011861101
 20
1199.902671367417
 11
-5802.432011861101
 21
6202.510511352505
 72
     1
 10
-5802.432011861101
 20
6202.510511352505
 11
-6122.432011861096
 21
6202.510511352505
 72
     1
 10
-6122.432011861096
 20
6202.510511352505
 11
-6122.432011861096
 21
6082.510511352504
 72
     1
 10
-6122.432011861096
 20
6082.510511352504
 11
-6062.432011861099
 21
6082.510511352504
 72
     1
 10
-6062.432011861099
 20
6082.510511352504
 11
-6062.432011861099
 21
5922.510511352503
 72
     1
 10
-6062.432011861099
 20
5922.510511352503
 11
-6002.4320118611
 21
5922.510511352503
 72
     1
 10
-6002.4320118611
 20
5922.510511352503
 11
-6002.4320118611
 21
3439.902671367422
 72
     1
 10
-6002.4320118611
 20
3439.902671367422
 11
-6122.432011861096
 21
3439.902671367422
 72
     1
 10
-6122.432011861096
 20
3439.902671367422
 11
-6122.432011861096
 21
3379.90267136742
 72
     1
 10
-6122.432011861096
 20
3379.90267136742
 11
-6182.432011861097
 21
3379.90267136742
 72
     1
 10
-6182.432011861097
 20
3379.90267136742
 11
-6182.432011861097
 21
3339.902671367422
 72
     1
 10
-6182.432011861097
 20
3339.902671367422
 11
-6062.432011861099
 21
3339.902671367421
 72
     1
 10
-6062.432011861099
 20
3339.902671367421
 11
-6062.432011861099
 21
2619.90267136742
 72
     1
 10
-6062.432011861099
 20
2619.90267136742
 11
-6182.432011861097
 21
2619.90267136742
 72
     1
 10
-6182.432011861097
 20
2619.90267136742
 11
-6182.432011861097
 21
2559.90267136742
 72
     1
 10
-6182.432011861097
 20
2559.90267136742
 11
-6062.432011861099
 21
2559.90267136742
 72
     1
 10
-6062.432011861099
 20
2559.90267136742
 11
-6062.432011861099
 21
2399.902671367422
 72
     1
 10
-6062.432011861099
 20
2399.902671367422
 11
-6035.138596031341
 21
2399.902671367422
 72
     1
 10
-6035.138596031341
 20
2399.902671367422
 11
-6035.138596031341
 21
1199.902671367417
 72
     1
 10
-6035.138596031341
 20
1199.902671367417
 11
-5802.432011861101
 21
1199.902671367417
 97
        0
 92
        1
 93
        4
 72
     1
 10
4006.033553409387
 20
1308.07836697577
 11
4206.03355340939
 21
1308.07836697577
 72
     1
 10
4206.03355340939
 20
1308.07836697577
 11
4206.03355340939
 21
2348.078366975769
 72
     1
 10
4206.03355340939
 20
2348.078366975769
 11
4006.033553409387
 21
2348.078366975769
 72
     1
 10
4006.033553409387
 20
2348.078366975769
 11
4006.033553409387
 21
1308.07836697577
 97
        0
 92
        1
 93
        4
 72
     1
 10
1307.124314408984
 20
2651.757225348271
 11
1527.93470594106
 21
2651.757225348271
 72
     1
 10
1527.93470594106
 20
2651.757225348271
 11
1527.93470594106
 21
6202.510511352505
 72
     1
 10
1527.93470594106
 20
6202.510511352505
 11
1307.124314408984
 21
6202.510511352505
 72
     1
 10
1307.124314408984
 20
6202.510511352505
 11
1307.124314408984
 21
2651.757225348271
 97
        0
 92
        1
 93
        4
 72
     1
 10
-1213.871110477978
 20
2651.757225348271
 11
-1213.871110477978
 21
6202.510511352505
 72
     1
 10
-1213.871110477978
 20
6202.510511352505
 11
-1409.203379910196
 21
6202.510511352505
 72
     1
 10
-1409.203379910196
 20
6202.510511352505
 11
-1409.203379910196
 21
2651.757225348271
 72
     1
 10
-1409.203379910196
 20
2651.757225348271
 11
-1213.871110477978
 21
2651.757225348271
 97
        0
 92
        1
 93
        4
 72
     1
 10
4206.03355340939
 20
2651.757225348271
 11
4206.03355340939
 21
6202.510511352505
 72
     1
 10
4206.03355340939
 20
6202.510511352505
 11
4006.033553409387
 21
6202.510511352505
 72
     1
 10
4006.033553409387
 20
6202.510511352505
 11
4006.033553409387
 21
2651.757225348271
 72
     1
 10
4006.033553409387
 20
2651.757225348271
 11
4206.03355340939
 21
2651.757225348271
 97
        0
 92
        1
 93
        4
 72
     1
 10
9521.423910463349
 20
4918.169132657872
 11
9521.423910463349
 21
6202.510511352505
 72
     1
 10
9521.423910463349
 20
6202.510511352505
 11
9344.0129623876
 21
6202.510511352505
 72
     1
 10
9344.0129623876
 20
6202.510511352505
 11
9344.0129623876
 21
4918.169132657872
 72
     1
 10
9344.0129623876
 20
4918.169132657872
 11
9521.423910463349
 21
4918.169132657872
 97
        0
 75
     0
 76
     1
 98
        1
 10
0.0
 20
0.0
450
        0
451
        0
460
0.0
461
0.0
452
        0
462
0.0
453
        0
470

1001
REVIT
1002
{
1070
     1
1000
23028832
1002
}
1002
{
1070
     2
1000
-2002000
1002
}
  0
HATCH
  5
E3
330
70
100
AcDbEntity
  8
A-COB-___-___-EXI
 62
    33
420
 12688002
100
AcDbHatch
 10
0.0
 20
0.0
 30
0.0
210
0.0
220
0.0
230
1.0
  2
SOLID
 70
     1
 71
     0
 91
        8
 92
        1
 93
        4
 72
     1
 10
4206.03355340939
 20
1133.348802799802
 11
4206.03355340939
 21
1308.078366975765
 72
     1
 10
4206.03355340939
 20
1308.078366975765
 11
4006.033553409387
 21
1308.078366975765
 72
     1
 10
4006.033553409387
 20
1308.078366975765
 11
4006.033553409387
 21
1133.348802799802
 72
     1
 10
4006.033553409387
 20
1133.348802799802
 11
4206.03355340939
 21
1133.348802799802
 97
        0
 92
        1
 93
        4
 72
     1
 10
8804.0129623876
 20
6730.917574222226
 11
8804.0129623876
 21
6889.986751206972
 72
     1
 10
8804.0129623876
 20
6889.986751206972
 11
8684.012962387603
 21
6943.414193443996
 72
     1
 10
8684.012962387603
 20
6943.414193443996
 11
8684.012962387603
 21
6784.34501645925
 72
     1
 10
8684.012962387603
 20
6784.34501645925
 11
8804.0129623876
 21
6730.917574222226
 97
        0
 92
        1
 93
        4
 72
     1
 10
-5249.032974406015
 20
6810.787640780645
 11
-5101.470279730425
 21
6873.424288482461
 72
     1
 10
-5101.470279730425
 20
6873.424288482461
 11
-5101.470279730425
 21
7033.530068025102
 72
     1
 10
-5101.470279730425
 20
7033.530068025102
 11
-5249.032974406015
 21
6970.89342032329
 72
     1
 10
-5249.032974406015
 20
6970.89342032329
 11
-5249.032974406015
 21
6810.787640780645
 97
        0
 92
        1
 93
        4
 72
     1
 10
6726.411520350237
 20
7589.245123857832
 11
6726.411520350237
 21
7814.994509840396
 72
     1
 10
6726.411520350237
 20
7814.994509840396
 11
6507.903535317109
 21
7912.280532746109
 72
     1
 10
6507.903535317109
 20
7912.280532746109
 11
6507.903535317109
 21
7589.245123857833
 72
     1
 10
6507.903535317109
 20
7589.245123857833
 11
6726.411520350237
 21
7589.245123857832
 97
        0
 92
        1
 93
        4
 72
     1
 10
-2889.622735196727
 20
7589.245123857833
 11
-2889.622735196727
 21
7972.403647974708
 72
     1
 10
-2889.622735196727
 20
7972.403647974708
 11
-3083.367929939818
 21
7890.163692044637
 72
     1
 10
-3083.367929939818
 20
7890.163692044637
 11
-3083.36792993982
 21
7589.245123857835
 72
     1
 10
-3083.36792993982
 20
7589.245123857835
 11
-2889.622735196727
 21
7589.245123857833
 97
        0
 92
        1
 93
        4
 72
     1
 10
4392.555375013508
 20
8585.561408292571
 11
4492.334757205666
 21
8809.66956997361
 72
     1
 10
4492.334757205666
 20
8809.66956997361
 11
4309.625665677149
 21
8891.016898588766
 72
     1
 10
4309.625665677149
 20
8891.016898588766
 11
4209.846283484986
 21
8666.908736907732
 72
     1
 10
4209.846283484986
 20
8666.908736907732
 11
4392.555375013508
 21
8585.561408292571
 97
        0
 92
        1
 93
        4
 72
     1
 10
-692.9851437527275
 20
8676.915954056832
 11
-510.276052224206
 21
8758.263282671995
 72
     1
 10
-510.276052224206
 20
8758.263282671995
 11
-590.8827925764328
 21
8948.16086263213
 72
     1
 10
-590.8827925764328
 20
8948.16086263213
 11
-774.9557237973728
 21
8870.026538982962
 72
     1
 10
-774.9557237973728
 20
8870.026538982962
 11
-692.9851437527275
 21
8676.915954056832
 97
        0
 92
        1
 93
        5
 72
     1
 10
1930.121947784179
 20
9758.078541321868
 11
1930.121947784179
 21
9950.440210593038
 72
     1
 10
1930.121947784179
 20
9950.440210593038
 11
1852.137122209931
 21
9985.161291957476
 72
     1
 10
1852.137122209931
 20
9985.161291957476
 11
1717.804263618713
 21
9928.14037649606
 72
     1
 10
1717.804263618713
 20
9928.14037649606
 11
1717.804263618713
 21
9758.078541321868
 72
     1
 10
1717.804263618713
 20
9758.078541321868
 11
1930.121947784179
 21
9758.078541321868
 97
        0
 75
     0
 76
     1
 98
        1
 10
0.0
 20
0.0
450
        0
451
        0
460
0.0
461
0.0
452
        0
462
0.0
453
        0
470

1001
REVIT
1002
{
1070
     1
1000
23029267
1002
}
1002
{
1070
     2
1000
-2002000
1002
}
  0
LINE
  5
E5
330
70
100
AcDbEntity
  8
A-BAS-___-___-EXI
100
AcDbLine
 10
-6035.138596031328
 20
-1153.799759490601
 30
0.0
 11
-7560.078715219072
 21
-1153.799759490596
 31
0.0
1001
REVIT
1002
{
1070
     1
1000
23028819
1002
}
1002
{
1070
     2
1000
-2000051
1002
}
1002
{
1070
     3
1000
-2000042
1002
}
  0
LINE
  5
E6
330
70
100
AcDbEntity
  8
A-BAS-___-___-EXI
100
AcDbLine
 10
-7560.078715219072
 20
-1450.922596826642
 30
0.0
 11
18785.35658245695
 21
-1450.922596826727
 31
0.0
1001
REVIT
1002
{
1070
     1
1000
23028819
1002
}
1002
{
1070
     2
1000
-2000051
1002
}
1002
{
1070
     3
1000
-2000042
1002
}
  0
LINE
  5
E7
330
70
100
AcDbEntity
  8
A-BAS-___-___-EXI
100
AcDbLine
 10
18785.35658245695
 20
-1071.006141861808
 30
0.0
 11
9521.423910463338
 21
-1071.006141861778
 31
0.0
1001
REVIT
1002
{
1070
     1
1000
23028819
1002
}
1002
{
1070
     2
1000
-2000051
1002
}
1002
{
1070
     3
1000
-2000042
1002
}
  0
LINE
  5
E8
330
70
100
AcDbEntity
  8
A-BAS-___-___-EXI
100
AcDbLine
 10
9104.012962387585
 20
-1071.006141861777
 30
0.0
 11
542.7806514133477
 21
-1071.006141861749
 31
0.0
1001
REVIT
1002
{
1070
     1
1000
23028819
1002
}
1002
{
1070
     2
1000
-2000051
1002
}
1002
{
1070
     3
1000
-2000042
1002
}
  0
LINE
  5
E9
330
70
100
AcDbEntity
  8
A-BAS-___-___-EXI
100
AcDbLine
 10
381.4192114475965
 20
-1071.006141861749
 30
0.0
 11
-6035.138596031328
 21
-1071.006141861728
 31
0.0
1001
REVIT
1002
{
1070
     1
1000
23028819
1002
}
1002
{
1070
     2
1000
-2000051
1002
}
1002
{
1070
     3
1000
-2000042
1002
}
  0
LINE
  5
EA
330
70
100
AcDbEntity
  8
A-BAS-___-___-EXI
100
AcDbLine
 10
-6035.138596031328
 20
-1071.006141861728
 30
0.0
 11
-6035.138596031328
 21
-1153.799759490601
 31
0.0
1001
REVIT
1002
{
1070
     1
1000
23028819
1002
}
1002
{
1070
     2
1000
-2000051
1002
}
1002
{
1070
     3
1000
-2000042
1002
}
  0
LINE
  5
EF
330
70
100
AcDbEntity
  8
A-ALV-___-___-EXI
100
AcDbLine
 10
9104.01296238759
 20
1153.64088478977
 30
0.0
 11
9521.423910463342
 21
1153.64088478977
 31
0.0
1001
REVIT
1002
{
1070
     1
1000
23028832
1002
}
1002
{
1070
     2
1000
-2000051
1002
}
1002
{
1070
     3
1000
-2000042
1002
}
  0
LINE
  5
F0
330
70
100
AcDbEntity
  8
A-ALV-___-___-EXI
100
AcDbLine
 10
9521.423910463342
 20
1153.64088478977
 30
0.0
 11
9521.423910463342
 21
3548.078366975769
 31
0.0
1001
REVIT
1002
{
1070
     1
1000
23028832
1002
}
1002
{
1070
     2
1000
-2000051
1002
}
1002
{
1070
     3
1000
-2000042
1002
}
  0
LINE
  5
F1
330
70
100
AcDbEntity
  8
A-ALV-___-___-EXI
100
AcDbLine
 10
9521.423910463342
 20
3548.078366975769
 30
0.0
 11
9344.012962387589
 21
3548.078366975771
 31
0.0
1001
REVIT
1002
{
1070
     1
1000
23028832
1002
}
1002
{
1070
     2
1000
-2000051
1002
}
1002
{
1070
     3
1000
-2000042
1002
}
  0
LINE
  5
F2
330
70
100
AcDbEntity
  8
A-ALV-___-___-EXI
100
AcDbLine
 10
9344.012962387589
 20
3548.078366975771
 30
0.0
 11
9344.012962387587
 21
2348.078366975769
 31
0.0
1001
REVIT
1002
{
1070
     1
1000
23028832
1002
}
1002
{
1070
     2
1000
-2000051
1002
}
1002
{
1070
     3
1000
-2000042
1002
}
  0
LINE
  5
F3
330
70
100
AcDbEntity
  8
A-ALV-___-___-EXI
100
AcDbLine
 10
9344.012962387587
 20
2348.078366975769
 30
0.0
 11
9104.01296238759
 21
2348.078366975769
 31
0.0
1001
REVIT
1002
{
1070
     1
1000
23028832
1002
}
1002
{
1070
     2
1000
-2000051
1002
}
1002
{
1070
     3
1000
-2000042
1002
}
  0
LINE
  5
F4
330
70
100
AcDbEntity
  8
A-ALV-___-___-EXI
100
AcDbLine
 10
9104.01296238759
 20
2348.078366975769
 30
0.0
 11
9104.01296238759
 21
1153.64088478977
 31
0.0
1001
REVIT
1002
{
1070
     1
1000
23028832
1002
}
1002
{
1070
     2
1000
-2000051
1002
}
1002
{
1070
     3
1000
-2000042
1002
}
  0
LINE
  5
FC
330
70
100
AcDbEntity
  8
A-ALV-___-___-EXI
100
AcDbLine
 10
4006.033553409386
 20
2651.757225348269
 30
0.0
 11
4206.033553409386
 21
2651.757225348269
 31
0.0
1001
REVIT
1002
{
1070
     1
1000
23028832
1002
}
1002
{
1070
     2
1000
-2000051
1002
}
1002
{
1070
     3
1000
-2000042
1002
}
  0
LINE
  5
FD
330
70
100
AcDbEntity
  8
A-ALV-___-___-EXI
100
AcDbLine
 10
4206.033553409386
 20
2651.757225348269
 30
0.0
 11
4206.033553409386
 21
6202.5105113525
 31
0.0
1001
REVIT
1002
{
1070
     1
1000
23028832
1002
}
1002
{
1070
     2
1000
-2000051
1002
}
1002
{
1070
     3
1000
-2000042
1002
}
  0
LINE
  5
FE
330
70
100
AcDbEntity
  8
A-COB-___-___-EXI
100
AcDbLine
 10
4206.033553409386
 20
6202.5105113525
 30
0.0
 11
4006.033553409386
 21
6202.5105113525
 31
0.0
1001
REVIT
1002
{
1070
     1
1000
23028832
1002
}
1002
{
1070
     2
1000
-2000051
1002
}
1002
{
1070
     3
1000
-2000042
1002
}
  0
LINE
  5
FF
330
70
100
AcDbEntity
  8
A-ALV-___-___-EXI
100
AcDbLine
 10
4006.033553409386
 20
6202.5105113525
 30
0.0
 11
4006.033553409386
 21
2651.757225348269
 31
0.0
1001
REVIT
1002
{
1070
     1
1000
23028832
1002
}
1002
{
1070
     2
1000
-2000051
1002
}
1002
{
1070
     3
1000
-2000042
1002
}
  0
LINE
  5
100
330
70
100
AcDbEntity
  8
A-ALV-___-___-EXI
100
AcDbLine
 10
1307.124314408987
 20
2651.757225348269
 30
0.0
 11
1527.934705941062
 21
2651.757225348269
 31
0.0
1001
REVIT
1002
{
1070
     1
1000
23028832
1002
}
1002
{
1070
     2
1000
-2000051
1002
}
1002
{
1070
     3
1000
-2000042
1002
}
  0
LINE
  5
101
330
70
100
AcDbEntity
  8
A-ALV-___-___-EXI
100
AcDbLine
 10
1527.934705941062
 20
2651.757225348269
 30
0.0
 11
1527.934705941062
 21
6202.5105113525
 31
0.0
1001
REVIT
1002
{
1070
     1
1000
23028832
1002
}
1002
{
1070
     2
1000
-2000051
1002
}
1002
{
1070
     3
1000
-2000042
1002
}
  0
LINE
  5
102
330
70
100
AcDbEntity
  8
A-COB-___-___-EXI
100
AcDbLine
 10
1527.934705941062
 20
6202.5105113525
 30
0.0
 11
1307.124314408987
 21
6202.5105113525
 31
0.0
1001
REVIT
1002
{
1070
     1
1000
23028832
1002
}
1002
{
1070
     2
1000
-2000051
1002
}
1002
{
1070
     3
1000
-2000042
1002
}
  0
LINE
  5
103
330
70
100
AcDbEntity
  8
A-ALV-___-___-EXI
100
AcDbLine
 10
1307.124314408987
 20
6202.5105113525
 30
0.0
 11
1307.124314408987
 21
2651.757225348269
 31
0.0
1001
REVIT
1002
{
1070
     1
1000
23028832
1002
}
1002
{
1070
     2
1000
-2000051
1002
}
1002
{
1070
     3
1000
-2000042
1002
}
  0
LINE
  5
104
330
70
100
AcDbEntity
  8
A-ALV-___-___-EXI
100
AcDbLine
 10
381.4192114475998
 20
6202.5105113525
 30
0.0
 11
381.4192114475998
 21
-1071.00614186175
 31
0.0
1001
REVIT
1002
{
1070
     1
1000
23028832
1002
}
1002
{
1070
     2
1000
-2000051
1002
}
1002
{
1070
     3
1000
-2000042
1002
}
  0
LINE
  5
105
330
70
100
AcDbEntity
  8
A-ALV-___-___-EXI
100
AcDbLine
 10
381.4192114475998
 20
-1071.00614186175
 30
0.0
 11
542.7806514133489
 21
-1071.006141861749
 31
0.0
1001
REVIT
1002
{
1070
     1
1000
23028832
1002
}
1002
{
1070
     2
1000
-2000051
1002
}
1002
{
1070
     3
1000
-2000042
1002
}
  0
LINE
  5
106
330
70
100
AcDbEntity
  8
A-ALV-___-___-EXI
100
AcDbLine
 10
542.7806514133489
 20
-1071.006141861749
 30
0.0
 11
542.7806514133489
 21
6202.5105113525
 31
0.0
1001
REVIT
1002
{
1070
     1
1000
23028832
1002
}
1002
{
1070
     2
1000
-2000051
1002
}
1002
{
1070
     3
1000
-2000042
1002
}
  0
LINE
  5
107
330
70
100
AcDbEntity
  8
A-COB-___-___-EXI
100
AcDbLine
 10
542.7806514133489
 20
6202.5105113525
 30
0.0
 11
381.4192114475998
 21
6202.5105113525
 31
0.0
1001
REVIT
1002
{
1070
     1
1000
23028832
1002
}
1002
{
1070
     2
1000
-2000051
1002
}
1002
{
1070
     3
1000
-2000042
1002
}
  0
LINE
  5
108
330
70
100
AcDbEntity
  8
A-ALV-___-___-EXI
100
AcDbLine
 10
-1409.203379910189
 20
2651.757225348269
 30
0.0
 11
-1213.871110477971
 21
2651.757225348269
 31
0.0
1001
REVIT
1002
{
1070
     1
1000
23028832
1002
}
1002
{
1070
     2
1000
-2000051
1002
}
1002
{
1070
     3
1000
-2000042
1002
}
  0
LINE
  5
109
330
70
100
AcDbEntity
  8
A-ALV-___-___-EXI
100
AcDbLine
 10
-1213.871110477971
 20
2651.757225348269
 30
0.0
 11
-1213.871110477971
 21
6202.5105113525
 31
0.0
1001
REVIT
1002
{
1070
     1
1000
23028832
1002
}
1002
{
1070
     2
1000
-2000051
1002
}
1002
{
1070
     3
1000
-2000042
1002
}
  0
LINE
  5
10A
330
70
100
AcDbEntity
  8
A-COB-___-___-EXI
100
AcDbLine
 10
-1213.871110477971
 20
6202.5105113525
 30
0.0
 11
-1409.203379910189
 21
6202.5105113525
 31
0.0
1001
REVIT
1002
{
1070
     1
1000
23028832
1002
}
1002
{
1070
     2
1000
-2000051
1002
}
1002
{
1070
     3
1000
-2000042
1002
}
  0
LINE
  5
10B
330
70
100
AcDbEntity
  8
A-ALV-___-___-EXI
100
AcDbLine
 10
-1409.203379910189
 20
6202.5105113525
 30
0.0
 11
-1409.203379910189
 21
2651.757225348269
 31
0.0
1001
REVIT
1002
{
1070
     1
1000
23028832
1002
}
1002
{
1070
     2
1000
-2000051
1002
}
1002
{
1070
     3
1000
-2000042
1002
}
  0
LINE
  5
120
330
70
100
AcDbEntity
  8
A-POR-___-___-EXI
100
AcDbLine
 10
-6035.138596031328
 20
-1153.799759490601
 30
0.0
 11
-6035.138596031323
 21
1199.902671367419
 31
0.0
1001
REVIT
1002
{
1070
     1
1000
23028939
1002
}
1002
{
1070
     2
1000
-2000051
1002
}
1002
{
1070
     3
1000
-2000042
1002
}
  0
LINE
  5
121
330
70
100
AcDbEntity
  8
A-ALV-___-___-EXI
100
AcDbLine
 10
-6035.138596031323
 20
1199.902671367419
 30
0.0
 11
-5802.43201186109
 21
1199.902671367419
 31
0.0
1001
REVIT
1002
{
1070
     1
1000
23028940
1002
}
1002
{
1070
     2
1000
-2000051
1002
}
1002
{
1070
     3
1000
-2000042
1002
}
  0
LINE
  5
122
330
70
100
AcDbEntity
  8
A-POR-___-___-EXI
100
AcDbLine
 10
-5802.43201186109
 20
1199.902671367419
 30
0.0
 11
-5802.432011861094
 21
-1071.006141861729
 31
0.0
1001
REVIT
1002
{
1070
     1
1000
23028941
1002
}
1002
{
1070
     2
1000
-2000051
1002
}
1002
{
1070
     3
1000
-2000042
1002
}
  0
LINE
  5
123
330
70
100
AcDbEntity
  8
A-POR-___-___-EXI
100
AcDbLine
 10
-4792.186802637323
 20
1489.375678786406
 30
0.0
 11
-3547.11054462309
 21
1489.375678786406
 31
0.0
1001
REVIT
1002
{
1070
     1
1000
23028942
1002
}
1002
{
1070
     2
1000
-2000051
1002
}
1002
{
1070
     3
1000
-2000042
1002
}
  0
ARC
  5
135
330
70
100
AcDbEntity
  8
A-POR-___-___-EXI
100
AcDbCircle
 10
-4166.636970673282
 20
165.4575299096899
 30
0.0
 40
1166.180886883766
100
AcDbArc
 50
68.9950834151379
 51
111.0049165848617
1001
REVIT
1002
{
1070
     1
1000
23028960
1002
}
1002
{
1070
     2
1000
-2000051
1002
}
1002
{
1070
     3
1000
-2000042
1002
}
  0
LINE
  5
136
330
70
100
AcDbEntity
  8
A-PIS-___-___-EXI
100
AcDbLine
 10
-1213.871110477971
 20
2651.757225348269
 30
0.0
 11
381.4192114475999
 21
2651.757225348264
 31
0.0
1001
REVIT
1002
{
1070
     1
1000
23028961
1002
}
1002
{
1070
     2
1000
-2000051
1002
}
1002
{
1070
     3
1000
-2000042
1002
}
  0
LINE
  5
138
330
70
100
AcDbEntity
  8
A-PIS-___-___-EXI
100
AcDbLine
 10
381.4192114475998
 20
2651.757225348264
 30
0.0
 11
-5802.43201186109
 21
2651.757225348284
 31
0.0
1001
REVIT
1002
{
1070
     1
1000
23028962
1002
}
1002
{
1070
     2
1000
-2000051
1002
}
1002
{
1070
     3
1000
-2000044
1002
}
  0
LINE
  5
13D
330
70
100
AcDbEntity
  8
A-PIS-___-___-EXI
100
AcDbLine
 10
1307.124314408987
 20
2651.757225348269
 30
0.0
 11
9344.012962387587
 21
2651.757225348269
 31
0.0
1001
REVIT
1002
{
1070
     1
1000
23028967
1002
}
1002
{
1070
     2
1000
-2000051
1002
}
1002
{
1070
     3
1000
-2000044
1002
}
  0
LINE
  5
13E
330
70
100
AcDbEntity
  8
A-ALV-___-___-EXI
100
AcDbLine
 10
1307.124314408987
 20
2348.078366975769
 30
0.0
 11
1307.124314408987
 21
2651.757225348269
 31
0.0
1001
REVIT
1002
{
1070
     1
1000
23028968
1002
}
1002
{
1070
     2
1000
-2000051
1002
}
1002
{
1070
     3
1000
-2000042
1002
}
  0
LINE
  5
13F
330
70
100
AcDbEntity
  8
A-PIS-___-___-EXI
100
AcDbLine
 10
9344.012962387587
 20
2348.078366975769
 30
0.0
 11
1307.124314408987
 21
2348.078366975769
 31
0.0
1001
REVIT
1002
{
1070
     1
1000
23028969
1002
}
1002
{
1070
     2
1000
-2000051
1002
}
1002
{
1070
     3
1000
-2000044
1002
}
  0
LINE
  5
140
330
70
100
AcDbEntity
  8
A-ALV-___-___-EXI
100
AcDbLine
 10
9344.012962387587
 20
2651.757225348269
 30
0.0
 11
9344.012962387587
 21
2348.078366975769
 31
0.0
1001
REVIT
1002
{
1070
     1
1000
23028970
1002
}
1002
{
1070
     2
1000
-2000051
1002
}
1002
{
1070
     3
1000
-2000042
1002
}
  0
LINE
  5
150
330
70
100
AcDbEntity
  8
A-ESC-___-___-EXI
100
AcDbLine
 10
1527.934705941062
 20
1448.078366975769
 30
0.0
 11
542.7806514133489
 21
1448.078366975773
 31
0.0
1001
REVIT
1002
{
1070
     1
1000
23028987
1002
}
1002
{
1070
     2
1000
-2000051
1002
}
1002
{
1070
     3
1000
-2000042
1002
}
  0
LINE
  5
15D
330
70
100
AcDbEntity
  8
A-ESC-___-___-EXI
100
AcDbLine
 10
1307.124314408987
 20
2049.917796162021
 30
0.0
 11
542.7806514133489
 21
2049.917796162021
 31
0.0
1001
REVIT
1002
{
1070
     1
1000
23029000
1002
}
1002
{
1070
     2
1000
-2000051
1002
}
1002
{
1070
     3
1000
-2000042
1002
}
  0
LINE
  5
15E
330
70
100
AcDbEntity
  8
A-ALV-___-___-EXI
100
AcDbLine
 10
1307.124314408987
 20
2651.757225348269
 30
0.0
 11
1307.124314408987
 21
2049.917796162021
 31
0.0
1001
REVIT
1002
{
1070
     1
1000
23029001
1002
}
1002
{
1070
     2
1000
-2000051
1002
}
1002
{
1070
     3
1000
-2000042
1002
}
  0
LINE
  5
15F
330
70
100
AcDbEntity
  8
A-ESC-___-___-EXI
100
AcDbLine
 10
542.7806514133489
 20
2651.757225348269
 30
0.0
 11
1307.124314408987
 21
2651.757225348269
 31
0.0
1001
REVIT
1002
{
1070
     1
1000
23029002
1002
}
1002
{
1070
     2
1000
-2000051
1002
}
1002
{
1070
     3
1000
-2000042
1002
}
  0
LINE
  5
160
330
70
100
AcDbEntity
  8
A-ALV-___-___-EXI
100
AcDbLine
 10
542.7806514133489
 20
2049.917796162021
 30
0.0
 11
542.7806514133489
 21
2651.757225348269
 31
0.0
1001
REVIT
1002
{
1070
     1
1000
23029003
1002
}
1002
{
1070
     2
1000
-2000051
1002
}
1002
{
1070
     3
1000
-2000042
1002
}
  0
LINE
  5
169
330
70
100
AcDbEntity
  8
A-ESC-___-___-EXI
100
AcDbLine
 10
1307.124314408987
 20
2049.917796162021
 30
0.0
 11
542.7806514133489
 21
2049.917796162021
 31
0.0
1001
REVIT
1002
{
1070
     1
1000
23029012
1002
}
1002
{
1070
     2
1000
-2000051
1002
}
1002
{
1070
     3
1000
-2000042
1002
}
  0
LINE
  5
16A
330
70
100
AcDbEntity
  8
A-ALV-___-___-EXI
100
AcDbLine
 10
1307.124314408987
 20
1829.955467111479
 30
0.0
 11
1307.124314408987
 21
2049.917796162021
 31
0.0
1001
REVIT
1002
{
1070
     1
1000
23029013
1002
}
1002
{
1070
     2
1000
-2000051
1002
}
1002
{
1070
     3
1000
-2000042
1002
}
  0
LINE
  5
16B
330
70
100
AcDbEntity
  8
A-ESC-___-___-EXI
100
AcDbLine
 10
542.7806514133489
 20
1829.955467111479
 30
0.0
 11
1307.124314408987
 21
1829.955467111479
 31
0.0
1001
REVIT
1002
{
1070
     1
1000
23029014
1002
}
1002
{
1070
     2
1000
-2000051
1002
}
1002
{
1070
     3
1000
-2000042
1002
}
  0
LINE
  5
16C
330
70
100
AcDbEntity
  8
A-ALV-___-___-EXI
100
AcDbLine
 10
542.7806514133489
 20
2049.917796162021
 30
0.0
 11
542.7806514133489
 21
1829.955467111479
 31
0.0
1001
REVIT
1002
{
1070
     1
1000
23029015
1002
}
1002
{
1070
     2
1000
-2000051
1002
}
1002
{
1070
     3
1000
-2000042
1002
}
  0
LINE
  5
24F
330
70
100
AcDbEntity
  8
A-COB-___-___-EXI
100
AcDbLine
 10
10348.10987828611
 20
6202.5105113525
 30
0.0
 11
8804.012962387593
 21
6889.986751206966
 31
0.0
1001
REVIT
1002
{
1070
     1
1000
23029245
1002
}
1002
{
1070
     2
1000
-2000051
1002
}
1002
{
1070
     3
1000
-2000044
1002
}
  0
LINE
  5
250
330
70
100
AcDbEntity
  8
A-COB-___-___-EXI
100
AcDbLine
 10
8684.012962387596
 20
6943.414193443992
 30
0.0
 11
6726.411520350232
 21
7814.994509840386
 31
0.0
1001
REVIT
1002
{
1070
     1
1000
23029245
1002
}
1002
{
1070
     2
1000
-2000051
1002
}
1002
{
1070
     3
1000
-2000044
1002
}
  0
LINE
  5
251
330
70
100
AcDbEntity
  8
A-COB-___-___-EXI
100
AcDbLine
 10
6507.903535317108
 20
7912.280532746102
 30
0.0
 11
4492.334757205666
 21
8809.669569973602
 31
0.0
1001
REVIT
1002
{
1070
     1
1000
23029245
1002
}
1002
{
1070
     2
1000
-2000051
1002
}
1002
{
1070
     3
1000
-2000044
1002
}
  0
LINE
  5
252
330
70
100
AcDbEntity
  8
A-COB-___-___-EXI
100
AcDbLine
 10
4309.625665677148
 20
8891.016898588759
 30
0.0
 11
1930.121947784181
 21
9950.440210593029
 31
0.0
1001
REVIT
1002
{
1070
     1
1000
23029245
1002
}
1002
{
1070
     2
1000
-2000051
1002
}
1002
{
1070
     3
1000
-2000044
1002
}
  0
LINE
  5
253
330
70
100
AcDbEntity
  8
A-COB-___-___-EXI
100
AcDbLine
 10
1717.804263618717
 20
9928.140376496052
 30
0.0
 11
-590.8827925764289
 21
8948.160862632125
 31
0.0
1001
REVIT
1002
{
1070
     1
1000
23029246
1002
}
1002
{
1070
     2
1000
-2000051
1002
}
1002
{
1070
     3
1000
-2000044
1002
}
  0
LINE
  5
254
330
70
100
AcDbEntity
  8
A-COB-___-___-EXI
100
AcDbLine
 10
-774.9557237973679
 20
8870.026538982953
 30
0.0
 11
-2889.622735196719
 21
7972.403647974701
 31
0.0
1001
REVIT
1002
{
1070
     1
1000
23029246
1002
}
1002
{
1070
     2
1000
-2000051
1002
}
1002
{
1070
     3
1000
-2000044
1002
}
  0
LINE
  5
255
330
70
100
AcDbEntity
  8
A-COB-___-___-EXI
100
AcDbLine
 10
-3083.36792993981
 20
7890.163692044634
 30
0.0
 11
-5101.470279730416
 21
7033.530068025095
 31
0.0
1001
REVIT
1002
{
1070
     1
1000
23029246
1002
}
1002
{
1070
     2
1000
-2000051
1002
}
1002
{
1070
     3
1000
-2000044
1002
}
  0
LINE
  5
25A
330
70
100
AcDbEntity
  8
A-COB-___-___-EXI
100
AcDbLine
 10
-2889.622735196719
 20
7812.29786843205
 30
0.0
 11
-717.3704940527292
 21
8734.364239252538
 31
0.0
1001
REVIT
1002
{
1070
     1
1000
23029248
1002
}
1002
{
1070
     2
1000
-2000051
1002
}
1002
{
1070
     3
1000
-2000044
1002
}
  0
LINE
  5
25B
330
70
100
AcDbEntity
  8
A-COB-___-___-EXI
100
AcDbLine
 10
-533.2975628317893
 20
8812.498562901708
 30
0.0
 11
1717.804263618717
 21
9768.034596953384
 31
0.0
1001
REVIT
1002
{
1070
     1
1000
23029248
1002
}
1002
{
1070
     2
1000
-2000051
1002
}
1002
{
1070
     3
1000
-2000044
1002
}
  0
LINE
  5
25C
330
70
100
AcDbEntity
  8
A-COB-___-___-EXI
100
AcDbLine
 10
1930.121947784182
 20
9791.371033608283
 30
0.0
 11
4250.519947792567
 21
8758.263282671986
 31
0.0
1001
REVIT
1002
{
1070
     1
1000
23029249
1002
}
1002
{
1070
     2
1000
-2000051
1002
}
1002
{
1070
     3
1000
-2000044
1002
}
  0
LINE
  5
25D
330
70
100
AcDbEntity
  8
A-COB-___-___-EXI
100
AcDbLine
 10
4433.229039321085
 20
8676.915954056825
 30
0.0
 11
6507.903535317109
 21
7753.211355761358
 31
0.0
1001
REVIT
1002
{
1070
     1
1000
23029249
1002
}
1002
{
1070
     2
1000
-2000051
1002
}
1002
{
1070
     3
1000
-2000044
1002
}
  0
LINE
  5
262
330
70
100
AcDbEntity
  8
A-COB-___-___-EXI
100
AcDbLine
 10
4392.555375013505
 20
8585.561408292566
 30
0.0
 11
3419.733653686347
 21
6400.568047738975
 31
0.0
1001
REVIT
1002
{
1070
     1
1000
23029252
1002
}
1002
{
1070
     2
1000
-2000051
1002
}
1002
{
1070
     3
1000
-2000042
1002
}
  0
LINE
  5
265
330
70
100
AcDbEntity
  8
A-COB-___-___-EXI
100
AcDbLine
 10
2930.121947784182
 20
6400.568047738973
 30
0.0
 11
1930.121947784181
 21
7940.433011553565
 31
0.0
1001
REVIT
1002
{
1070
     1
1000
23029255
1002
}
1002
{
1070
     2
1000
-2000051
1002
}
1002
{
1070
     3
1000
-2000042
1002
}
  0
LINE
  5
266
330
70
100
AcDbEntity
  8
A-COB-___-___-EXI
100
AcDbLine
 10
-692.9851437527205
 20
8676.915954056825
 30
0.0
 11
320.5102418820179
 21
6400.568047738973
 31
0.0
1001
REVIT
1002
{
1070
     1
1000
23029256
1002
}
1002
{
1070
     2
1000
-2000051
1002
}
1002
{
1070
     3
1000
-2000042
1002
}
  0
LINE
  5
269
330
70
100
AcDbEntity
  8
A-COB-___-___-EXI
100
AcDbLine
 10
810.1219477841819
 20
6400.568047738973
 30
0.0
 11
1717.804263618717
 21
7798.276244166662
 31
0.0
1001
REVIT
1002
{
1070
     1
1000
23029259
1002
}
1002
{
1070
     2
1000
-2000051
1002
}
1002
{
1070
     3
1000
-2000042
1002
}
  0
LINE
  5
26D
330
70
100
AcDbEntity
  8
A-ALV-___-___-EXI
100
AcDbLine
 10
18368.58167268693
 20
6102.5105113525
 30
0.0
 11
9521.423910463342
 21
6102.510511352527
 31
0.0
1001
REVIT
1002
{
1070
     1
1000
23029264
1002
}
1002
{
1070
     2
1000
-2000051
1002
}
1002
{
1070
     3
1000
-2000042
1002
}
  0
LWPOLYLINE
  5
2C8
330
70
100
AcDbEntity
  8
A-COB-___-___-EXI
100
AcDbPolyline
 90
        4
 70
     1
 43
0.0
 10
4206.033553409386
 20
1308.078366975768
 10
4006.033553409386
 20
1308.078366975768
 10
4006.033553409386
 20
1133.348802799801
 10
4206.033553409386
 20
1133.348802799801
1001
REVIT
1002
{
1070
     1
1000
23029267
1002
}
1002
{
1070
     2
1000
-2000051
1002
}
1002
{
1070
     3
1000
-2000042
1002
}
  0
LWPOLYLINE
  5
2C9
330
70
100
AcDbEntity
  8
A-COB-___-___-EXI
100
AcDbPolyline
 90
        4
 70
     1
 43
0.0
 10
-5249.032974406002
 20
6970.893420323283
 10
-5249.032974406002
 20
6810.787640780642
 10
-5101.470279730413
 20
6873.424288482455
 10
-5101.470279730413
 20
7033.530068025098
1001
REVIT
1002
{
1070
     1
1000
23029267
1002
}
1002
{
1070
     2
1000
-2000051
1002
}
1002
{
1070
     3
1000
-2000042
1002
}
  0
LWPOLYLINE
  5
2CA
330
70
100
AcDbEntity
  8
A-COB-___-___-EXI
100
AcDbPolyline
 90
        4
 70
     1
 43
0.0
 10
-510.2760522242006
 20
8758.263282671986
 10
-590.8827925764285
 20
8948.160862632123
 10
-774.9557237973673
 20
8870.026538982955
 10
-692.985143752721
 20
8676.915954056825
1001
REVIT
1002
{
1070
     1
1000
23029267
1002
}
1002
{
1070
     2
1000
-2000051
1002
}
1002
{
1070
     3
1000
-2000042
1002
}
  0
LWPOLYLINE
  5
2CB
330
70
100
AcDbEntity
  8
A-COB-___-___-EXI
100
AcDbPolyline
 90
        5
 70
     1
 43
0.0
 10
1930.121947784181
 20
9950.440210593029
 10
1852.137122209933
 20
9985.161291957469
 10
1717.804263618716
 20
9928.140376496052
 10
1717.804263618716
 20
9758.078541321857
 10
1930.121947784181
 20
9758.078541321857
1001
REVIT
1002
{
1070
     1
1000
23029267
1002
}
1002
{
1070
     2
1000
-2000051
1002
}
1002
{
1070
     3
1000
-2000042
1002
}
  0
LWPOLYLINE
  5
2CC
330
70
100
AcDbEntity
  8
A-COB-___-___-EXI
100
AcDbPolyline
 90
        4
 70
     1
 43
0.0
 10
4492.334757205665
 20
8809.669569973602
 10
4309.625665677146
 20
8891.016898588761
 10
4209.846283484985
 20
8666.908736907725
 10
4392.555375013504
 20
8585.561408292564
1001
REVIT
1002
{
1070
     1
1000
23029267
1002
}
1002
{
1070
     2
1000
-2000051
1002
}
1002
{
1070
     3
1000
-2000042
1002
}
  0
LWPOLYLINE
  5
2CD
330
70
100
AcDbEntity
  8
A-COB-___-___-EXI
100
AcDbPolyline
 90
        4
 70
     1
 43
0.0
 10
6507.903535317109
 20
7912.280532746102
 10
6507.903535317109
 20
7589.245123857828
 10
6726.411520350232
 20
7589.245123857828
 10
6726.411520350232
 20
7814.994509840388
1001
REVIT
1002
{
1070
     1
1000
23029267
1002
}
1002
{
1070
     2
1000
-2000051
1002
}
1002
{
1070
     3
1000
-2000042
1002
}
  0
LWPOLYLINE
  5
2CE
330
70
100
AcDbEntity
  8
A-COB-___-___-EXI
100
AcDbPolyline
 90
        4
 70
     1
 43
0.0
 10
8804.012962387593
 20
6889.986751206966
 10
8684.012962387596
 20
6943.414193443992
 10
8684.012962387596
 20
6784.345016459245
 10
8804.012962387593
 20
6730.917574222221
1001
REVIT
1002
{
1070
     1
1000
23029267
1002
}
1002
{
1070
     2
1000
-2000051
1002
}
1002
{
1070
     3
1000
-2000042
1002
}
  0
LWPOLYLINE
  5
2CF
330
70
100
AcDbEntity
  8
A-COB-___-___-EXI
100
AcDbPolyline
 90
        6
 70
     0
 43
0.0
 10
-6682.044088845791
 20
6202.510511352498
 10
-5249.032974406002
 20
6810.787640780642
 10
-5249.032974406002
 20
6202.5105113525
 10
-5101.470279730413
 20
6202.5105113525
 10
-5101.470279730413
 20
6873.424288482455
 10
-3083.367929939812
 20
7730.057912501983
1001
REVIT
1002
{
1070
     1
1000
23029263
1002
}
1002
{
1070
     2
1000
-2000051
1002
}
1002
{
1070
     3
1000
-2000042
1002
}
  0
LWPOLYLINE
  5
2D0
330
70
100
AcDbEntity
  8
A-COB-___-___-EXI
100
AcDbPolyline
 90
        3
 70
     0
 43
0.0
 10
-510.2760522242006
 20
8758.263282671986
 10
539.4374975832262
 20
6400.568047738973
 10
1717.804263618717
 20
8215.093745280528
1001
REVIT
1002
{
1070
     1
1000
23029258
1002
}
1002
{
1070
     2
1000
-2000051
1002
}
1002
{
1070
     3
1000
-2000042
1002
}
  0
LWPOLYLINE
  5
2D1
330
70
100
AcDbEntity
  8
A-COB-___-___-EXI
100
AcDbPolyline
 90
        3
 70
     0
 43
0.0
 10
4209.846283484984
 20
8666.908736907723
 10
3200.806397985138
 20
6400.568047738973
 10
1930.121947784181
 20
8357.250512667432
1001
REVIT
1002
{
1070
     1
1000
23029254
1002
}
1002
{
1070
     2
1000
-2000051
1002
}
1002
{
1070
     3
1000
-2000042
1002
}
  0
LWPOLYLINE
  5
2D2
330
70
100
AcDbEntity
  8
A-COB-___-___-EXI
100
AcDbPolyline
 90
        3
 70
     0
 43
0.0
 10
8684.012962387592
 20
6202.5105113525
 10
8684.012962387596
 20
6784.345016459245
 10
6726.411520350232
 20
7655.925332855642
1001
REVIT
1002
{
1070
     1
1000
23029250
1002
}
1002
{
1070
     2
1000
-2000051
1002
}
1002
{
1070
     3
1000
-2000042
1002
}
  0
LWPOLYLINE
  5
2D3
330
70
100
AcDbEntity
  8
A-COB-___-___-EXI
100
AcDbPolyline
 90
        3
 70
     0
 43
0.0
 10
-5249.032974406005
 20
6970.893420323282
 10
-7059.229668363357
 20
6202.510511352499
 10
-6159.229668363362
 20
6202.510511352495
1001
REVIT
1002
{
1070
     1
1000
23029247
1002
}
1002
{
1070
     2
1000
-2000051
1002
}
1002
{
1070
     3
1000
-2000044
1002
}
  0
LWPOLYLINE
  5
2D4
330
70
100
AcDbEntity
  8
A-ALV-___-___-EXI
100
AcDbPolyline
 90
        7
 70
     0
 43
0.0
 10
18368.58167268693
 20
6202.5105113525
 10
9521.423910463342
 20
6202.5105113525
 10
9521.423910463342
 20
-1071.006141861779
 10
18368.58167268693
 20
-1071.006141861779
 10
18368.58167268693
 20
6202.5105113525
 10
18368.58167268693
 20
7602.5105113525
 10
7268.581672686934
 20
7602.510511352535
1001
REVIT
1002
{
1070
     1
1000
23029244
1002
}
1002
{
1070
     2
1000
-2000051
1002
}
1002
{
1070
     3
1000
-2000042
1002
}
  0
LWPOLYLINE
  5
2D5
330
70
100
AcDbEntity
  8
A-POR-___-___-EXI
100
AcDbPolyline
 90
        4
 70
     1
 43
0.0
 10
11062.98577215236
 20
5199.664181334913
 10
11062.98577215236
 20
5789.845338880773
 10
12747.23285065237
 20
5789.845338880773
 10
12747.23285065237
 20
5199.664181334913
1001
REVIT
1002
{
1070
     1
1000
23029242
1002
}
1002
{
1070
     2
1000
-2000051
1002
}
1002
{
1070
     3
1000
-2000042
1002
}
  0
LWPOLYLINE
  5
2D6
330
70
100
AcDbEntity
  8
A-POR-___-___-EXI
100
AcDbPolyline
 90
        4
 70
     1
 43
0.0
 10
12359.71579182496
 20
4998.008819118213
 10
12359.71579182496
 20
3299.66418133491
 10
11522.98577215236
 20
3299.66418133491
 10
11522.98577215236
 20
4998.008819118213
1001
REVIT
1002
{
1070
     1
1000
23029238
1002
}
1002
{
1070
     2
1000
-2000051
1002
}
1002
{
1070
     3
1000
-2000042
1002
}
  0
LWPOLYLINE
  5
2D8
330
70
100
AcDbEntity
  8
A-JAN-___-___-EXI
100
AcDbPolyline
 90
        4
 70
     1
 43
0.0
 10
17397.10583818931
 20
3955.919786253861
 10
17397.10583818931
 20
3760.06499442825
 10
16124.90379199646
 20
3760.06499442825
 10
16124.90379199646
 20
3955.919786253861
1001
REVIT
1002
{
1070
     1
1000
23029232
1002
}
1002
{
1070
     2
1000
-2000051
1002
}
1002
{
1070
     3
1000
-2000042
1002
}
  0
LWPOLYLINE
  5
2D9
330
70
100
AcDbEntity
  8
A-JAN-___-___-EXI
100
AcDbPolyline
 90
        4
 70
     1
 43
0.0
 10
16124.90379199646
 20
3760.06499442825
 10
16124.90379199646
 20
4151.774578079473
 10
17397.10583818931
 20
4151.774578079473
 10
17397.10583818931
 20
3760.06499442825
1001
REVIT
1002
{
1070
     1
1000
23029228
1002
}
1002
{
1070
     2
1000
-2000051
1002
}
1002
{
1070
     3
1000
-2000042
1002
}
  0
LWPOLYLINE
  5
2DA
330
70
100
AcDbEntity
  8
A-JAN-___-___-EXI
100
AcDbPolyline
 90
        4
 70
     1
 43
0.0
 10
17397.10583818931
 20
4501.558328748151
 10
17397.10583818931
 20
4342.824682206464
 10
16124.90379199646
 20
4342.824682206464
 10
16124.90379199646
 20
4501.558328748151
1001
REVIT
1002
{
1070
     1
1000
23029224
1002
}
1002
{
1070
     2
1000
-2000051
1002
}
1002
{
1070
     3
1000
-2000042
1002
}
  0
LWPOLYLINE
  5
2DB
330
70
100
AcDbEntity
  8
A-JAN-___-___-EXI
100
AcDbPolyline
 90
        4
 70
     1
 43
0.0
 10
16124.90379199646
 20
4660.291975289839
 10
16124.90379199646
 20
4342.824682206464
 10
17397.10583818931
 20
4342.824682206464
 10
17397.10583818931
 20
4660.291975289839
1001
REVIT
1002
{
1070
     1
1000
23029220
1002
}
1002
{
1070
     2
1000
-2000051
1002
}
1002
{
1070
     3
1000
-2000042
1002
}
  0
LWPOLYLINE
  5
2DC
330
70
100
AcDbEntity
  8
A-JAN-___-___-EXI
100
AcDbPolyline
 90
        4
 70
     1
 43
0.0
 10
15902.98577215236
 20
3760.06499442825
 10
15902.98577215236
 20
3548.078366975751
 10
17610.8673442142
 20
3548.078366975751
 10
17610.8673442142
 20
3760.06499442825
1001
REVIT
1002
{
1070
     1
1000
23029216
1002
}
1002
{
1070
     2
1000
-2000051
1002
}
1002
{
1070
     3
1000
-2000042
1002
}
  0
LWPOLYLINE
  5
2DD
330
70
100
AcDbEntity
  8
A-JAN-___-___-EXI
100
AcDbPolyline
 90
        4
 70
     1
 43
0.0
 10
15902.98577215236
 20
4660.291975289839
 10
15902.98577215236
 20
4918.169132657849
 10
17610.8673442142
 20
4918.169132657849
 10
17610.8673442142
 20
4660.291975289839
1001
REVIT
1002
{
1070
     1
1000
23029212
1002
}
1002
{
1070
     2
1000
-2000051
1002
}
1002
{
1070
     3
1000
-2000042
1002
}
  0
LWPOLYLINE
  5
2DE
330
70
100
AcDbEntity
  8
A-JAN-___-___-EXI
100
AcDbPolyline
 90
        4
 70
     1
 43
0.0
 10
17397.10583818931
 20
3548.078366975751
 10
17397.10583818931
 20
4918.169132657849
 10
16124.90379199646
 20
4918.169132657849
 10
16124.90379199646
 20
3548.078366975751
1001
REVIT
1002
{
1070
     1
1000
23029208
1002
}
1002
{
1070
     2
1000
-2000051
1002
}
1002
{
1070
     3
1000
-2000042
1002
}
  0
LWPOLYLINE
  5
2DF
330
70
100
AcDbEntity
  8
A-JAN-___-___-EXI
100
AcDbPolyline
 90
        4
 70
     1
 43
0.0
 10
17610.8673442142
 20
3548.078366975751
 10
17610.8673442142
 20
4918.169132657849
 10
15902.98577215236
 20
4918.169132657849
 10
15902.98577215236
 20
3548.078366975751
1001
REVIT
1002
{
1070
     1
1000
23029204
1002
}
1002
{
1070
     2
1000
-2000051
1002
}
1002
{
1070
     3
1000
-2000042
1002
}
  0
LWPOLYLINE
  5
2E0
330
70
100
AcDbEntity
  8
A-JAN-___-___-EXI
100
AcDbPolyline
 90
        5
 70
     0
 43
0.0
 10
14949.22426612748
 20
3955.919786253867
 10
14949.22426612748
 20
3760.064994428256
 10
14084.90379199646
 20
3760.064994428256
 10
14084.90379199646
 20
3955.919786253867
 10
14735.46276010259
 20
3955.919786253867
1001
REVIT
1002
{
1070
     1
1000
23029200
1002
}
1002
{
1070
     2
1000
-2000051
1002
}
1002
{
1070
     3
1000
-2000042
1002
}
  0
LWPOLYLINE
  5
2E1
330
70
100
AcDbEntity
  8
A-JAN-___-___-EXI
100
AcDbPolyline
 90
        5
 70
     0
 43
0.0
 10
14949.22426612748
 20
4151.774578079479
 10
14949.22426612748
 20
3760.064994428256
 10
14084.90379199646
 20
3760.064994428256
 10
14084.90379199646
 20
4151.774578079479
 10
14735.46276010259
 20
4151.774578079479
1001
REVIT
1002
{
1070
     1
1000
23029196
1002
}
1002
{
1070
     2
1000
-2000051
1002
}
1002
{
1070
     3
1000
-2000042
1002
}
  0
LWPOLYLINE
  5
2E2
330
70
100
AcDbEntity
  8
A-JAN-___-___-EXI
100
AcDbPolyline
 90
        9
 70
     0
 43
0.0
 10
14949.22426612748
 20
4501.558328748157
 10
14949.22426612748
 20
4342.824682206471
 10
14949.22426612748
 20
4660.291975289845
 10
14949.22426612748
 20
4918.169132657856
 10
14949.22426612748
 20
3548.078366975757
 10
13862.98577215236
 20
3548.078366975757
 10
13862.98577215236
 20
4918.169132657856
 10
13862.98577215236
 20
4660.291975289845
 10
14949.22426612748
 20
4660.291975289845
1001
REVIT
1002
{
1070
     1
1000
23029192
1002
}
1002
{
1070
     2
1000
-2000051
1002
}
1002
{
1070
     3
1000
-2000042
1002
}
  0
LWPOLYLINE
  5
2E3
330
70
100
AcDbEntity
  8
A-JAN-___-___-EXI
100
AcDbPolyline
 90
        7
 70
     0
 43
0.0
 10
14735.46276010259
 20
4660.291975289845
 10
14084.90379199646
 20
4660.291975289845
 10
14084.90379199646
 20
4342.824682206471
 10
14735.46276010259
 20
4342.824682206471
 10
14084.90379199646
 20
4342.824682206471
 10
14084.90379199646
 20
4501.558328748157
 10
14735.46276010259
 20
4501.558328748157
1001
REVIT
1002
{
1070
     1
1000
23029191
1002
}
1002
{
1070
     2
1000
-2000051
1002
}
1002
{
1070
     3
1000
-2000042
1002
}
  0
LWPOLYLINE
  5
2E4
330
70
100
AcDbEntity
  8
A-JAN-___-___-EXI
100
AcDbPolyline
 90
        4
 70
     1
 43
0.0
 10
13862.98577215236
 20
3760.064994428256
 10
13862.98577215236
 20
3548.078366975757
 10
14949.22426612748
 20
3548.078366975757
 10
14949.22426612748
 20
3760.064994428256
1001
REVIT
1002
{
1070
     1
1000
23029184
1002
}
1002
{
1070
     2
1000
-2000051
1002
}
1002
{
1070
     3
1000
-2000042
1002
}
  0
LWPOLYLINE
  5
2E5
330
70
100
AcDbEntity
  8
A-JAN-___-___-EXI
100
AcDbPolyline
 90
        4
 70
     1
 43
0.0
 10
14735.46276010259
 20
3548.078366975757
 10
14735.46276010259
 20
4918.169132657856
 10
14084.90379199646
 20
4918.169132657856
 10
14084.90379199646
 20
3548.078366975757
1001
REVIT
1002
{
1070
     1
1000
23029176
1002
}
1002
{
1070
     2
1000
-2000051
1002
}
1002
{
1070
     3
1000
-2000042
1002
}
  0
LWPOLYLINE
  5
2E6
330
70
100
AcDbEntity
  8
A-JAN-___-___-EXI
100
AcDbPolyline
 90
        4
 70
     1
 43
0.0
 10
10849.22426612747
 20
3955.91978625388
 10
10849.22426612747
 20
3760.064994428269
 10
9984.903791996458
 20
3760.064994428269
 10
9984.903791996458
 20
3955.91978625388
1001
REVIT
1002
{
1070
     1
1000
23029168
1002
}
1002
{
1070
     2
1000
-2000051
1002
}
1002
{
1070
     3
1000
-2000042
1002
}
  0
LWPOLYLINE
  5
2E7
330
70
100
AcDbEntity
  8
A-JAN-___-___-EXI
100
AcDbPolyline
 90
        4
 70
     1
 43
0.0
 10
9984.903791996458
 20
3760.064994428269
 10
9984.903791996458
 20
4151.774578079492
 10
10849.22426612747
 20
4151.774578079492
 10
10849.22426612747
 20
3760.064994428269
1001
REVIT
1002
{
1070
     1
1000
23029164
1002
}
1002
{
1070
     2
1000
-2000051
1002
}
1002
{
1070
     3
1000
-2000042
1002
}
  0
LWPOLYLINE
  5
2E8
330
70
100
AcDbEntity
  8
A-JAN-___-___-EXI
100
AcDbPolyline
 90
        4
 70
     1
 43
0.0
 10
10849.22426612747
 20
4501.55832874817
 10
10849.22426612747
 20
4342.824682206484
 10
9984.903791996458
 20
4342.824682206484
 10
9984.903791996458
 20
4501.55832874817
1001
REVIT
1002
{
1070
     1
1000
23029160
1002
}
1002
{
1070
     2
1000
-2000051
1002
}
1002
{
1070
     3
1000
-2000042
1002
}
  0
LWPOLYLINE
  5
2E9
330
70
100
AcDbEntity
  8
A-JAN-___-___-EXI
100
AcDbPolyline
 90
        4
 70
     1
 43
0.0
 10
9984.903791996458
 20
4660.291975289857
 10
9984.903791996458
 20
4342.824682206484
 10
10849.22426612747
 20
4342.824682206484
 10
10849.22426612747
 20
4660.291975289857
1001
REVIT
1002
{
1070
     1
1000
23029156
1002
}
1002
{
1070
     2
1000
-2000051
1002
}
1002
{
1070
     3
1000
-2000042
1002
}
  0
LWPOLYLINE
  5
2EA
330
70
100
AcDbEntity
  8
A-JAN-___-___-EXI
100
AcDbPolyline
 90
        4
 70
     1
 43
0.0
 10
9762.985772152365
 20
3760.064994428269
 10
9762.985772152365
 20
3548.078366975771
 10
11062.98577215236
 20
3548.078366975771
 10
11062.98577215236
 20
3760.064994428269
1001
REVIT
1002
{
1070
     1
1000
23029152
1002
}
1002
{
1070
     2
1000
-2000051
1002
}
1002
{
1070
     3
1000
-2000042
1002
}
  0
LWPOLYLINE
  5
2EB
330
70
100
AcDbEntity
  8
A-JAN-___-___-EXI
100
AcDbPolyline
 90
        4
 70
     1
 43
0.0
 10
9762.985772152365
 20
4660.291975289857
 10
9762.985772152365
 20
4918.169132657869
 10
11062.98577215236
 20
4918.169132657869
 10
11062.98577215236
 20
4660.291975289857
1001
REVIT
1002
{
1070
     1
1000
23029148
1002
}
1002
{
1070
     2
1000
-2000051
1002
}
1002
{
1070
     3
1000
-2000042
1002
}
  0
LWPOLYLINE
  5
2EC
330
70
100
AcDbEntity
  8
A-JAN-___-___-EXI
100
AcDbPolyline
 90
        4
 70
     1
 43
0.0
 10
10849.22426612747
 20
3548.078366975771
 10
10849.22426612747
 20
4918.169132657869
 10
9984.903791996458
 20
4918.169132657869
 10
9984.903791996458
 20
3548.078366975771
1001
REVIT
1002
{
1070
     1
1000
23029144
1002
}
1002
{
1070
     2
1000
-2000051
1002
}
1002
{
1070
     3
1000
-2000042
1002
}
  0
LWPOLYLINE
  5
2ED
330
70
100
AcDbEntity
  8
A-JAN-___-___-EXI
100
AcDbPolyline
 90
        4
 70
     1
 43
0.0
 10
11062.98577215236
 20
3548.078366975771
 10
11062.98577215236
 20
4918.169132657869
 10
9762.985772152365
 20
4918.169132657869
 10
9762.985772152365
 20
3548.078366975771
1001
REVIT
1002
{
1070
     1
1000
23029140
1002
}
1002
{
1070
     2
1000
-2000051
1002
}
1002
{
1070
     3
1000
-2000042
1002
}
  0
LWPOLYLINE
  5
2EE
330
70
100
AcDbEntity
  8
A-ESC-___-___-EXI
100
AcDbPolyline
 90
        4
 70
     0
 43
0.0
 10
11323.60549309749
 20
3299.664181334913
 10
11323.60549309749
 20
2348.078366975769
 10
12538.06264652397
 20
2348.078366975766
 10
16914.29125337156
 20
-1071.006141861781
1001
REVIT
1002
{
1070
     1
1000
23029136
1002
}
1002
{
1070
     2
1000
-2000051
1002
}
1002
{
1070
     3
1000
-2000042
1002
}
  0
LWPOLYLINE
  5
2EF
330
70
100
AcDbEntity
  8
A-ESC-___-___-EXI
100
AcDbPolyline
 90
        6
 70
     0
 43
0.0
 10
17119.22312488028
 20
-279.5306531255503
 10
17229.22426612748
 20
-279.5306531255503
 10
17229.22426612748
 20
-1071.006141861779
 10
17119.22312488028
 20
-1071.006141861779
 10
17119.22312488028
 20
-279.5306531255499
 10
12538.06264652398
 20
3299.664181334907
1001
REVIT
1002
{
1070
     1
1000
23029134
1002
}
1002
{
1070
     2
1000
-2000051
1002
}
1002
{
1070
     3
1000
-2000042
1002
}
  0
LWPOLYLINE
  5
2F0
330
70
100
AcDbEntity
  8
A-JAN-___-___-EXI
100
AcDbPolyline
 90
        6
 70
     1
 43
0.0
 10
12538.06264652397
 20
30.33622694953808
 10
12609.22426612748
 20
30.33622694953808
 10
12609.22426612748
 20
1030.336226949538
 10
12538.06264652397
 20
1030.336226949538
 10
12822.98577215236
 20
1030.336226949538
 10
12822.98577215236
 20
30.33622694953808
1001
REVIT
1002
{
1070
     1
1000
23029127
1002
}
1002
{
1070
     2
1000
-2000051
1002
}
1002
{
1070
     3
1000
-2000042
1002
}
  0
LWPOLYLINE
  5
2F1
330
70
100
AcDbEntity
  8
A-JAN-___-___-EXI
100
AcDbPolyline
 90
        7
 70
     0
 43
0.0
 10
12359.71579182496
 20
530.3362269495381
 10
11744.90379199645
 20
530.3362269495381
 10
11744.90379199645
 20
258.2157766740922
 10
12359.71579182496
 20
258.2157766740922
 10
11522.98577215236
 20
258.2157766740922
 10
11522.98577215236
 20
797.2021397557962
 10
12359.71579182496
 20
797.2021397557962
1001
REVIT
1002
{
1070
     1
1000
23029126
1002
}
1002
{
1070
     2
1000
-2000051
1002
}
1002
{
1070
     3
1000
-2000042
1002
}
  0
LWPOLYLINE
  5
2F2
330
70
100
AcDbEntity
  8
A-JAN-___-___-EXI
100
AcDbPolyline
 90
        6
 70
     1
 43
0.0
 10
12359.71579182496
 20
1030.336226949538
 10
11744.90379199645
 20
1030.336226949538
 10
11744.90379199645
 20
30.33622694953808
 10
12359.71579182496
 20
30.33622694953808
 10
11522.98577215236
 20
30.33622694953808
 10
11522.98577215236
 20
1030.336226949538
1001
REVIT
1002
{
1070
     1
1000
23029125
1002
}
1002
{
1070
     2
1000
-2000051
1002
}
1002
{
1070
     3
1000
-2000042
1002
}
  0
LWPOLYLINE
  5
2F3
330
70
100
AcDbEntity
  8
A-JAN-___-___-EXI
100
AcDbPolyline
 90
        7
 70
     0
 43
0.0
 10
12538.06264652397
 20
797.2021397557962
 10
12822.98577215236
 20
797.2021397557962
 10
12822.98577215236
 20
258.2157766740922
 10
12538.06264652397
 20
258.2157766740922
 10
12609.22426612748
 20
258.2157766740922
 10
12609.22426612748
 20
530.3362269495381
 10
12538.06264652397
 20
530.3362269495381
1001
REVIT
1002
{
1070
     1
1000
23029123
1002
}
1002
{
1070
     2
1000
-2000051
1002
}
1002
{
1070
     3
1000
-2000042
1002
}
  0
LWPOLYLINE
  5
2F4
330
70
100
AcDbEntity
  8
A-ESC-___-___-EXI
100
AcDbPolyline
 90
        4
 70
     1
 43
0.0
 10
12538.06264652397
 20
2348.078366975769
 10
12538.06264652397
 20
-1071.006141861779
 10
12359.71579182496
 20
-1071.006141861779
 10
12359.71579182496
 20
2348.078366975769
1001
REVIT
1002
{
1070
     1
1000
23029119
1002
}
1002
{
1070
     2
1000
-2000051
1002
}
1002
{
1070
     3
1000
-2000042
1002
}
  0
LWPOLYLINE
  5
2F5
330
70
100
AcDbEntity
  8
A-ESC-___-___-EXI
100
AcDbPolyline
 90
        4
 70
     1
 43
0.0
 10
11323.60549309749
 20
2348.078366975769
 10
11323.60549309749
 20
-1071.006141861779
 10
11522.98577215236
 20
-1071.006141861779
 10
11522.98577215236
 20
2348.078366975769
1001
REVIT
1002
{
1070
     1
1000
23029115
1002
}
1002
{
1070
     2
1000
-2000051
1002
}
1002
{
1070
     3
1000
-2000042
1002
}
  0
LWPOLYLINE
  5
2F6
330
70
100
AcDbEntity
  8
A-JAN-___-___-EXI
100
AcDbPolyline
 90
       16
 70
     1
 43
0.0
 10
17229.22426612748
 20
30.3362269495236
 10
16722.61160463441
 20
30.3362269495236
 10
17442.98577215236
 20
30.3362269495236
 10
17442.98577215236
 20
1030.336226949523
 10
16142.98577215236
 20
1030.336226949523
 10
16142.98577215236
 20
483.1895586197448
 10
16142.98577215236
 20
797.2021397557816
 10
17442.98577215236
 20
797.2021397557816
 10
17442.98577215236
 20
258.2157766740778
 10
16430.93908181655
 20
258.2157766740778
 10
17229.22426612748
 20
258.2157766740778
 10
17229.22426612748
 20
530.3362269495236
 10
16364.90379199646
 20
530.3362269495236
 10
16364.90379199646
 20
310.3362269495236
 10
16364.90379199646
 20
1030.336226949523
 10
17229.22426612748
 20
1030.336226949523
1001
REVIT
1002
{
1070
     1
1000
23029101
1002
}
1002
{
1070
     2
1000
-2000051
1002
}
1002
{
1070
     3
1000
-2000042
1002
}
  0
LWPOLYLINE
  5
2F7
330
70
100
AcDbEntity
  8
A-JAN-___-___-EXI
100
AcDbPolyline
 90
        4
 70
     1
 43
0.0
 10
10849.22426612747
 20
530.336226949544
 10
10849.22426612747
 20
258.215776674098
 10
9984.903791996458
 20
258.215776674098
 10
9984.903791996458
 20
530.336226949544
1001
REVIT
1002
{
1070
     1
1000
23029079
1002
}
1002
{
1070
     2
1000
-2000051
1002
}
1002
{
1070
     3
1000
-2000042
1002
}
  0
LWPOLYLINE
  5
2F8
330
70
100
AcDbEntity
  8
A-JAN-___-___-EXI
100
AcDbPolyline
 90
        4
 70
     1
 43
0.0
 10
9984.903791996458
 20
30.33622694954391
 10
9984.903791996458
 20
1030.336226949544
 10
10849.22426612747
 20
1030.336226949544
 10
10849.22426612747
 20
30.33622694954391
1001
REVIT
1002
{
1070
     1
1000
23029075
1002
}
1002
{
1070
     2
1000
-2000051
1002
}
1002
{
1070
     3
1000
-2000042
1002
}
  0
LWPOLYLINE
  5
2F9
330
70
100
AcDbEntity
  8
A-JAN-___-___-EXI
100
AcDbPolyline
 90
        4
 70
     1
 43
0.0
 10
11062.98577215236
 20
797.202139755802
 10
11062.98577215236
 20
258.215776674098
 10
9762.985772152365
 20
258.215776674098
 10
9762.985772152365
 20
797.202139755802
1001
REVIT
1002
{
1070
     1
1000
23029071
1002
}
1002
{
1070
     2
1000
-2000051
1002
}
1002
{
1070
     3
1000
-2000042
1002
}
  0
LWPOLYLINE
  5
2FA
330
70
100
AcDbEntity
  8
A-JAN-___-___-EXI
100
AcDbPolyline
 90
        4
 70
     1
 43
0.0
 10
9762.985772152365
 20
30.33622694954391
 10
9762.985772152365
 20
1030.336226949544
 10
11062.98577215236
 20
1030.336226949544
 10
11062.98577215236
 20
30.33622694954391
1001
REVIT
1002
{
1070
     1
1000
23029067
1002
}
1002
{
1070
     2
1000
-2000051
1002
}
1002
{
1070
     3
1000
-2000042
1002
}
  0
LWPOLYLINE
  5
2FB
330
70
100
AcDbEntity
  8
A-COB-___-___-EXI
100
AcDbPolyline
 90
        8
 70
     0
 43
0.0
 10
-2889.622735196719
 20
7589.245123857828
 10
-3083.367929939811
 20
7589.245123857828
 10
-3083.367929939811
 20
6400.568047738973
 10
-2889.622735196718
 20
6400.568047738973
 10
-2889.622735196718
 20
7589.245123857828
 10
-2889.622735196719
 20
7972.4036479747
 10
-3083.36792993981
 20
7890.163692044632
 10
-3083.367929939813
 20
7589.245123857828
1001
REVIT
1002
{
1070
     1
1000
23029063
1002
}
1002
{
1070
     2
1000
-2000051
1002
}
1002
{
1070
     3
1000
-2000042
1002
}
  0
LWPOLYLINE
  5
2FC
330
70
100
AcDbEntity
  8
A-COB-___-___-EXI
100
AcDbPolyline
 90
        4
 70
     0
 43
0.0
 10
6726.411520350232
 20
7589.245123857828
 10
6726.411520350232
 20
6400.568047738973
 10
6507.903535317109
 20
6400.568047738973
 10
6507.903535317109
 20
7589.245123857828
1001
REVIT
1002
{
1070
     1
1000
23029055
1002
}
1002
{
1070
     2
1000
-2000051
1002
}
1002
{
1070
     3
1000
-2000042
1002
}
  0
LWPOLYLINE
  5
2FD
330
70
100
AcDbEntity
  8
A-COB-___-___-EXI
100
AcDbPolyline
 90
        5
 70
     0
 43
0.0
 10
9908.10987828611
 20
6239.341955903511
 10
9908.10987828611
 20
6202.5105113525
 10
-6002.044088845792
 20
6202.5105113525
 10
-6002.04408884579
 20
6400.568047738973
 10
9545.990147110805
 20
6400.568047738973
1001
REVIT
1002
{
1070
     1
1000
23029051
1002
}
1002
{
1070
     2
1000
-2000051
1002
}
1002
{
1070
     3
1000
-2000042
1002
}
  0
LWPOLYLINE
  5
2FE
330
70
100
AcDbEntity
  8
A-ALV-___-___-EXI
100
AcDbPolyline
 90
        4
 70
     1
 43
0.0
 10
-5802.43201186109
 20
6202.5105113525
 10
-5802.43201186109
 20
5970.263185580151
 10
-1409.203379910189
 20
5970.263185580151
 10
-1409.203379910189
 20
6202.5105113525
1001
REVIT
1002
{
1070
     1
1000
23029043
1002
}
1002
{
1070
     2
1000
-2000051
1002
}
1002
{
1070
     3
1000
-2000042
1002
}
  0
LWPOLYLINE
  5
2FF
330
70
100
AcDbEntity
  8
A-ALV-___-___-EXI
100
AcDbPolyline
 90
        4
 70
     1
 43
0.0
 10
-1213.871110477971
 20
6202.5105113525
 10
-1213.871110477971
 20
5970.263185580151
 10
381.4192114475998
 20
5970.263185580151
 10
381.4192114475998
 20
6202.5105113525
1001
REVIT
1002
{
1070
     1
1000
23029039
1002
}
1002
{
1070
     2
1000
-2000051
1002
}
1002
{
1070
     3
1000
-2000042
1002
}
  0
LWPOLYLINE
  5
300
330
70
100
AcDbEntity
  8
A-ALV-___-___-EXI
100
AcDbPolyline
 90
        4
 70
     1
 43
0.0
 10
542.7806514133489
 20
6202.5105113525
 10
542.7806514133489
 20
5970.263185580151
 10
1307.124314408987
 20
5970.263185580151
 10
1307.124314408987
 20
6202.5105113525
1001
REVIT
1002
{
1070
     1
1000
23029035
1002
}
1002
{
1070
     2
1000
-2000051
1002
}
1002
{
1070
     3
1000
-2000042
1002
}
  0
LWPOLYLINE
  5
301
330
70
100
AcDbEntity
  8
A-ALV-___-___-EXI
100
AcDbPolyline
 90
        4
 70
     1
 43
0.0
 10
1527.934705941062
 20
6202.5105113525
 10
1527.934705941062
 20
5970.263185580151
 10
4006.033553409386
 20
5970.263185580151
 10
4006.033553409386
 20
6202.5105113525
1001
REVIT
1002
{
1070
     1
1000
23029031
1002
}
1002
{
1070
     2
1000
-2000051
1002
}
1002
{
1070
     3
1000
-2000042
1002
}
  0
LWPOLYLINE
  5
302
330
70
100
AcDbEntity
  8
A-ALV-___-___-EXI
100
AcDbPolyline
 90
        4
 70
     1
 43
0.0
 10
4206.033553409386
 20
6202.5105113525
 10
4206.033553409386
 20
5970.263185580151
 10
9344.012962387592
 20
5970.263185580151
 10
9344.012962387592
 20
6202.5105113525
1001
REVIT
1002
{
1070
     1
1000
23029027
1002
}
1002
{
1070
     2
1000
-2000051
1002
}
1002
{
1070
     3
1000
-2000042
1002
}
  0
LWPOLYLINE
  5
303
330
70
100
AcDbEntity
  8
A-JAN-___-___-EXI
100
AcDbPolyline
 90
        4
 70
     1
 43
0.0
 10
9521.423910463342
 20
3548.078366975771
 10
9521.423910463342
 20
4918.169132657869
 10
9344.012962387589
 20
4918.169132657869
 10
9344.012962387589
 20
3548.078366975771
1001
REVIT
1002
{
1070
     1
1000
23029023
1002
}
1002
{
1070
     2
1000
-2000051
1002
}
1002
{
1070
     3
1000
-2000042
1002
}
  0
LWPOLYLINE
  5
304
330
70
100
AcDbEntity
  8
A-ESC-___-___-EXI
100
AcDbPolyline
 90
        4
 70
     1
 43
0.0
 10
1307.124314408987
 20
1829.955467111479
 10
1307.124314408987
 20
1609.657561596046
 10
542.7806514133489
 20
1609.657561596046
 10
542.7806514133489
 20
1829.955467111479
1001
REVIT
1002
{
1070
     1
1000
23029019
1002
}
1002
{
1070
     2
1000
-2000051
1002
}
1002
{
1070
     3
1000
-2000042
1002
}
  0
LWPOLYLINE
  5
305
330
70
100
AcDbEntity
  8
A-ESC-___-___-EXI
100
AcDbPolyline
 90
        4
 70
     1
 43
0.0
 10
542.7806514133489
 20
2248.521487590801
 10
542.7806514133489
 20
2432.103075520329
 10
1307.124314408987
 20
2432.103075520329
 10
1307.124314408987
 20
2248.521487590801
1001
REVIT
1002
{
1070
     1
1000
23029011
1002
}
1002
{
1070
     2
1000
-2000051
1002
}
1002
{
1070
     3
1000
-2000042
1002
}
  0
LWPOLYLINE
  5
306
330
70
100
AcDbEntity
  8
A-ESC-___-___-EXI
100
AcDbPolyline
 90
        4
 70
     1
 43
0.0
 10
542.7806514133489
 20
2651.757225348269
 10
542.7806514133489
 20
2432.103075520329
 10
1307.124314408987
 20
2432.103075520329
 10
1307.124314408987
 20
2651.757225348269
1001
REVIT
1002
{
1070
     1
1000
23029007
1002
}
1002
{
1070
     2
1000
-2000051
1002
}
1002
{
1070
     3
1000
-2000042
1002
}
  0
LWPOLYLINE
  5
307
330
70
100
AcDbEntity
  8
A-ESC-___-___-EXI
100
AcDbPolyline
 90
        4
 70
     1
 43
0.0
 10
912.675156572588
 20
1308.078366975769
 10
912.675156572588
 20
-1071.006141861751
 10
1035.357678677206
 20
-1071.006141861751
 10
1035.357678677206
 20
1308.078366975769
1001
REVIT
1002
{
1070
     1
1000
23028995
1002
}
1002
{
1070
     2
1000
-2000051
1002
}
1002
{
1070
     3
1000
-2000042
1002
}
  0
LWPOLYLINE
  5
308
330
70
100
AcDbEntity
  8
A-ESC-___-___-EXI
100
AcDbPolyline
 90
        4
 70
     1
 43
0.0
 10
542.7806514133489
 20
1308.078366975769
 10
542.7806514133489
 20
1448.07836697577
 10
1527.934705941062
 20
1448.07836697577
 10
1527.934705941062
 20
1308.078366975769
1001
REVIT
1002
{
1070
     1
1000
23028991
1002
}
1002
{
1070
     2
1000
-2000051
1002
}
1002
{
1070
     3
1000
-2000042
1002
}
  0
LWPOLYLINE
  5
309
330
70
100
AcDbEntity
  8
A-POR-___-___-EXI
100
AcDbPolyline
 90
        4
 70
     1
 43
0.0
 10
1527.934705941062
 20
2348.078366975769
 10
1527.934705941062
 20
-1071.006141861752
 10
1307.124314408987
 20
-1071.006141861752
 10
1307.124314408987
 20
2348.078366975769
1001
REVIT
1002
{
1070
     1
1000
23028986
1002
}
1002
{
1070
     2
1000
-2000051
1002
}
1002
{
1070
     3
1000
-2000042
1002
}
  0
LWPOLYLINE
  5
30A
330
70
100
AcDbEntity
  8
A-JAN-___-___-EXI
100
AcDbPolyline
 90
        4
 70
     1
 43
0.0
 10
9173.816470624087
 20
1153.64088478977
 10
9173.816470624087
 20
-349.0385282829395
 10
9274.330143739325
 20
-349.0385282829395
 10
9274.330143739325
 20
1153.64088478977
1001
REVIT
1002
{
1070
     1
1000
23028982
1002
}
1002
{
1070
     2
1000
-2000051
1002
}
1002
{
1070
     3
1000
-2000042
1002
}
  0
LWPOLYLINE
  5
30B
330
70
100
AcDbEntity
  8
A-JAN-___-___-EXI
100
AcDbPolyline
 90
        4
 70
     1
 43
0.0
 10
9173.816470624087
 20
-349.0385282829395
 10
9173.816470624087
 20
1153.64088478977
 10
9521.423910463342
 20
1153.64088478977
 10
9521.423910463342
 20
-349.0385282829395
1001
REVIT
1002
{
1070
     1
1000
23028978
1002
}
1002
{
1070
     2
1000
-2000051
1002
}
1002
{
1070
     3
1000
-2000042
1002
}
  0
LWPOLYLINE
  5
30C
330
70
100
AcDbEntity
  8
A-POR-___-___-EXI
100
AcDbPolyline
 90
        4
 70
     1
 43
0.0
 10
-4189.648673630206
 20
1329.375678786406
 10
-4189.648673630206
 20
-1071.006141861736
 10
-4085.299934136181
 20
-1071.006141861736
 10
-4085.299934136181
 20
1329.375678786406
1001
REVIT
1002
{
1070
     1
1000
23028959
1002
}
1002
{
1070
     2
1000
-2000051
1002
}
1002
{
1070
     3
1000
-2000042
1002
}
  0
LWPOLYLINE
  5
30D
330
70
100
AcDbEntity
  8
A-POR-___-___-EXI
100
AcDbPolyline
 90
        4
 70
     1
 43
0.0
 10
-3547.11054462309
 20
-1071.006141861736
 10
-3547.11054462309
 20
1489.375678786406
 10
-3748.62169495775
 20
1489.375678786406
 10
-3748.62169495775
 20
-1071.006141861736
1001
REVIT
1002
{
1070
     1
1000
23028955
1002
}
1002
{
1070
     2
1000
-2000051
1002
}
1002
{
1070
     3
1000
-2000042
1002
}
  0
LWPOLYLINE
  5
30E
330
70
100
AcDbEntity
  8
A-POR-___-___-EXI
100
AcDbPolyline
 90
        4
 70
     1
 43
0.0
 10
-4792.186802637323
 20
1489.375678786406
 10
-4792.186802637323
 20
-1071.006141861736
 10
-4584.652246388807
 20
-1071.006141861736
 10
-4584.652246388807
 20
1489.375678786406
1001
REVIT
1002
{
1070
     1
1000
23028951
1002
}
1002
{
1070
     2
1000
-2000051
1002
}
1002
{
1070
     3
1000
-2000042
1002
}
  0
LWPOLYLINE
  5
30F
330
70
100
AcDbEntity
  8
A-POR-___-___-EXI
100
AcDbPolyline
 90
        6
 70
     0
 43
0.0
 10
-4792.186802637323
 20
1254.145313528794
 10
-4792.186802637323
 20
1489.375678786406
 10
-4792.186802637323
 20
-1071.006141861737
 10
-3547.11054462309
 20
-1071.006141861736
 10
-3547.11054462309
 20
1489.375678786406
 10
-3547.11054462309
 20
1254.145313528794
1001
REVIT
1002
{
1070
     1
1000
23028947
1002
}
1002
{
1070
     2
1000
-2000051
1002
}
1002
{
1070
     3
1000
-2000042
1002
}
  0
LWPOLYLINE
  5
310
330
70
100
AcDbEntity
  8
A-ALV-___-___-EXI
100
AcDbPolyline
 90
       20
 70
     1
 43
0.0
 10
-5802.432011861089
 20
1199.902671367419
 10
-5802.432011861089
 20
6202.5105113525
 10
-6122.432011861086
 20
6202.5105113525
 10
-6122.432011861086
 20
6082.510511352499
 10
-6062.432011861087
 20
6082.510511352499
 10
-6062.432011861087
 20
5922.510511352499
 10
-6002.432011861089
 20
5922.510511352499
 10
-6002.432011861089
 20
3439.902671367419
 10
-6122.432011861086
 20
3439.90267136742
 10
-6122.432011861086
 20
3379.90267136742
 10
-6182.432011861084
 20
3379.90267136742
 10
-6182.432011861084
 20
3339.90267136742
 10
-6062.432011861087
 20
3339.902671367419
 10
-6062.432011861087
 20
2619.902671367419
 10
-6182.432011861084
 20
2619.90267136742
 10
-6182.432011861084
 20
2559.90267136742
 10
-6062.432011861087
 20
2559.90267136742
 10
-6062.432011861087
 20
2399.90267136742
 10
-6035.138596031329
 20
2399.90267136742
 10
-6035.138596031329
 20
1199.902671367419
1001
REVIT
1002
{
1070
     1
1000
23028832
1002
}
1002
{
1070
     2
1000
-2000051
1002
}
1002
{
1070
     3
1000
-2000042
1002
}
  0
LWPOLYLINE
  5
311
330
70
100
AcDbEntity
  8
A-ALV-___-___-EXI
100
AcDbPolyline
 90
        4
 70
     0
 43
0.0
 10
4206.033553409386
 20
1308.078366975769
 10
4206.033553409386
 20
2348.078366975769
 10
4006.033553409386
 20
2348.078366975769
 10
4006.033553409386
 20
1308.078366975769
1001
REVIT
1002
{
1070
     1
1000
23028832
1002
}
1002
{
1070
     2
1000
-2000051
1002
}
1002
{
1070
     3
1000
-2000042
1002
}
  0
LWPOLYLINE
  5
312
330
70
100
AcDbEntity
  8
A-COB-___-___-EXI
100
AcDbPolyline
 90
        3
 70
     0
 43
0.0
 10
8804.012962387593
 20
6202.5105113525
 10
8804.012962387593
 20
6730.917574222221
 10
9990.834657183704
 20
6202.510511352496
1001
REVIT
1002
{
1070
     1
1000
23029251
1002
}
1002
{
1070
     2
1000
-2000051
1002
}
1002
{
1070
     3
1000
-2000042
1002
}
  0
LWPOLYLINE
  5
313
330
70
100
AcDbEntity
  8
A-JAN-___-___-EXI
100
AcDbPolyline
 90
        2
 70
     1
 43
0.0
 10
13862.98577215236
 20
4918.169132657856
 10
14949.22426612748
 20
4918.169132657856
1001
REVIT
1002
{
1070
     1
1000
23029179
1002
}
1002
{
1070
     2
1000
-2000051
1002
}
1002
{
1070
     3
1000
-2000042
1002
}
  0
LWPOLYLINE
  5
314
330
70
100
AcDbEntity
  8
A-COB-___-___-EXI
100
AcDbPolyline
 90
        4
 70
     0
 43
0.0
 10
1717.804263618716
 20
9758.078541321857
 10
1717.804263618716
 20
6400.568047738973
 10
1930.121947784182
 20
6400.568047738973
 10
1930.121947784182
 20
9758.078541321857
1001
REVIT
1002
{
1070
     1
1000
23029059
1002
}
1002
{
1070
     2
1000
-2000051
1002
}
1002
{
1070
     3
1000
-2000042
1002
}
  0
LWPOLYLINE
  5
315
330
70
100
AcDbEntity
  8
A-ESC-___-___-EXI
100
AcDbPolyline
 90
        4
 70
     1
 43
0.0
 10
542.7806514133489
 20
2651.757225348269
 10
542.7806514133489
 20
1448.07836697577
 10
1307.124314408987
 20
1448.078366975772
 10
1307.124314408987
 20
2651.757225348269
1001
REVIT
1002
{
1070
     1
1000
23028999
1002
}
1002
{
1070
     2
1000
-2000051
1002
}
1002
{
1070
     3
1000
-2000042
1002
}
  0
LWPOLYLINE
  5
316
330
70
100
AcDbEntity
  8
A-POR-___-___-EXI
100
AcDbPolyline
 90
        4
 70
     0
 43
0.0
 10
4006.033553409386
 20
1133.348802799799
 10
4006.033553409386
 20
-1071.006141861759
 10
4206.033553409386
 20
-1071.006141861759
 10
4206.033553409386
 20
1133.348802799799
1001
REVIT
1002
{
1070
     1
1000
23028974
1002
}
1002
{
1070
     2
1000
-2000051
1002
}
1002
{
1070
     3
1000
-2000042
1002
}
  0
LWPOLYLINE
  5
317
330
70
100
AcDbEntity
  8
A-PIS-___-___-EXI
100
AcDbPolyline
 90
        4
 70
     1
 43
0.0
 10
-5802.43201186109
 20
2651.757225348264
 10
-5802.43201186109
 20
2348.078366975769
 10
381.4192114475998
 20
2348.078366975769
 10
381.4192114475998
 20
2651.757225348264
1001
REVIT
1002
{
1070
     1
1000
23028966
1002
}
1002
{
1070
     2
1000
-2000051
1002
}
1002
{
1070
     3
1000
-2000042
1002
}
  0
LWPOLYLINE
  5
318
330
70
100
AcDbEntity
  8
A-ALV-___-___-EXI
100
AcDbPolyline
 90
        4
 70
     1
 43
0.0
 10
9521.423910463342
 20
4918.169132657869
 10
9521.423910463342
 20
6202.5105113525
 10
9344.012962387592
 20
6202.5105113525
 10
9344.012962387592
 20
4918.169132657869
1001
REVIT
1002
{
1070
     1
1000
23028832
1002
}
1002
{
1070
     2
1000
-2000051
1002
}
1002
{
1070
     3
1000
-2000042
1002
}
  0
LWPOLYLINE
  5
319
330
70
100
AcDbEntity
  8
A-ALV-___-___-EXI
100
AcDbPolyline
 90
        4
 70
     1
 43
0.0
 10
9104.01296238759
 20
-1071.006141861777
 10
9521.423910463342
 20
-1071.006141861777
 10
9521.423910463342
 20
-349.0385282829395
 10
9104.01296238759
 20
-349.0385282829395
1001
REVIT
1002
{
1070
     1
1000
23028832
1002
}
1002
{
1070
     2
1000
-2000051
1002
}
1002
{
1070
     3
1000
-2000042
1002
}
  0
LINE
  5
330
330
70
100
AcDbEntity
  8
A-POR-___-___-EXI
100
AcDbLine
 10
11323.60549309749
 20
5199.664181334913
 30
0.0
 11
11323.60549309749
 21
3299.664181334913
 31
0.0
1001
REVIT
1002
{
1070
     1
1000
23029234
1002
}
1002
{
1070
     2
1000
-2000051
1002
}
1002
{
1070
     3
1000
-2000042
1002
}
  0
LINE
  5
331
330
70
100
AcDbEntity
  8
A-ESC-___-___-EXI
100
AcDbLine
 10
11323.60549309749
 20
3299.664181334913
 30
0.0
 11
12538.06264652398
 21
3299.664181334907
 31
0.0
1001
REVIT
1002
{
1070
     1
1000
23029234
1002
}
1002
{
1070
     2
1000
-2000051
1002
}
1002
{
1070
     3
1000
-2000042
1002
}
  0
LINE
  5
332
330
70
100
AcDbEntity
  8
A-POR-___-___-EXI
100
AcDbLine
 10
12538.06264652398
 20
3299.664181334907
 30
0.0
 11
12538.06264652398
 21
5199.664181334913
 31
0.0
1001
REVIT
1002
{
1070
     1
1000
23029234
1002
}
1002
{
1070
     2
1000
-2000051
1002
}
1002
{
1070
     3
1000
-2000042
1002
}
  0
VIEWPORT
  5
290
330
6C
100
AcDbEntity
 67
     1
  8
A-COB-___-___-EXI
100
AcDbViewport
 10
110.6367219710064
 20
257.5277610396244
 30
0.0
 40
263.4492350486787
 41
159.228175587827
 68
     2
 69
     2
 12
5612.466902705308
 22
3594.688680583972
 13
0.0
 23
0.0
 14
0.0
 24
0.0
 15
0.0
 25
0.0
 16
0.0
 26
0.0
 36
1.0
 17
0.0
 27
0.0
 37
0.0
 42
0.0
 43
0.0
 44
0.0
 45
15922.8175587827
 50
0.0
 51
0.0
 72
  1000
 90
    32768
  1

281
     0
 71
     1
 74
     1
110
0.0
120
0.0
130
0.0
111
1.0
121
0.0
131
0.0
112
0.0
122
1.0
132
0.0
 79
     0
146
0.0
170
     0
 61
     5
292
     1
282
     1
141
0.0
142
0.0
 63
   250
421
  3355443
  0
VIEWPORT
  5
292
330
6C
100
AcDbEntity
 67
     1
  8
0
100
AcDbViewport
 10
13.18725099601594
 20
4.5
 30
0.0
 40
30.38553967620861
 41
12.00436063808241
 68
     1
 69
     1
 12
13.18725099601594
 22
4.5
 13
0.0
 23
0.0
 14
0.0
 24
0.0
 15
0.0
 25
0.0
 16
0.0
 26
0.0
 36
1.0
 17
0.0
 27
0.0
 37
0.0
 42
50.0
 43
0.0
 44
0.0
 45
12.00436063808241
 50
0.0
 51
0.0
 72
   100
 90
    32800
  1

281
     0
 71
     1
 74
     1
110
0.0
120
0.0
130
0.0
111
1.0
121
0.0
131
0.0
112
0.0
122
1.0
132
0.0
 79
     0
146
0.0
170
     0
 61
     5
348
2F
292
     1
282
     1
141
0.0
142
0.0
 63
   250
421
  3355443
  0
INSERT
  5
29E
330
6C
100
AcDbEntity
 67
     1
  8
A-ESC-___-___-EXI
100
AcDbBlockReference
  2
A4 HORIZONTAL - A3-23034793-Não nomeada
 10
0.0
 20
0.0
 30
0.0
1001
REVIT
1002
{
1070
     1
1000
23033353
1002
}
1002
{
1070
     5
1000
23034793
1002
}
1002
{
1070
     2
1000
-2000280
1002
}
  0
ENDSEC
  0
SECTION
  2
OBJECTS
  0
DICTIONARY
  5
C
330
0
100
AcDbDictionary
281
     1
  3
ACAD_CIP_PREVIOUS_PRODUCT_INFO
350
79
  3
ACAD_COLOR
350
63
  3
ACAD_DETAILVIEWSTYLE
350
6A
  3
ACAD_GROUP
350
D
  3
ACAD_IMAGE_VARS
350
7A
  3
ACAD_LAYOUT
350
62
  3
ACAD_MATERIAL
350
10
  3
ACAD_MLEADERSTYLE
350
66
  3
ACAD_MLINESTYLE
350
5F
  3
ACAD_PLOTSETTINGS
350
61
  3
ACAD_PLOTSTYLENAME
350
E
  3
ACAD_RENDER_ACTIVE_RAPIDRT_SETTINGS
350
2BE
  3
ACAD_RENDER_RAPIDRT_SETTINGS
350
2B7
  3
ACAD_SCALELIST
350
42
  3
ACAD_SECTIONVIEWSTYLE
350
68
  3
ACAD_TABLESTYLE
350
64
  3
ACAD_VISUALSTYLE
350
29
  3
ACDB_RECOMPOSE_DATA
350
346
  3
AcDbVariableDictionary
350
2A7
  3
REVIT_DICTIONARY
350
29F
  0
SUN
  5
2A6
330
57
100
AcDbSun
 90
        1
290
     1
 63
     7
421
 16777215
 40
0.3
291
     1
 91
  2460364
 92
 51879000
292
     0
 70
     1
 71
   128
280
     1
  0
DICTIONARY
  5
2C3
330
2
100
AcDbDictionary
280
     1
281
     1
  3
ACAD_LAYERSTATES
360
2C4
  0
DICTIONARY
  5
2A4
330
70
100
AcDbDictionary
280
     1
281
     1
  3
ACAD_SORTENTS
360
2A5
  0
XRECORD
  5
79
102
{ACAD_REACTORS
330
C
102
}
330
C
100
AcDbXrecord
280
     1
300
ACD
300
2022
300

  0
DICTIONARY
  5
63
102
{ACAD_REACTORS
330
C
102
}
330
C
100
AcDbDictionary
281
     1
  0
DICTIONARY
  5
6A
102
{ACAD_REACTORS
330
C
102
}
330
C
100
AcDbDictionary
281
     1
  3
Imperial24
350
6B
  3
Metric50
350
2AF
  0
DICTIONARY
  5
D
102
{ACAD_REACTORS
330
C
102
}
330
C
100
AcDbDictionary
281
     1
  0
RASTERVARIABLES
  5
7A
102
{ACAD_REACTORS
330
C
102
}
330
C
100
AcDbRasterVariables
 90
        0
 70
     0
 71
     1
 72
     1
  0
DICTIONARY
  5
62
102
{ACAD_REACTORS
330
C
102
}
330
C
100
AcDbDictionary
281
     1
  3
Layout1
350
6F
  3
Model
350
73
  0
DICTIONARY
  5
10
102
{ACAD_REACTORS
330
C
102
}
330
C
100
AcDbDictionary
281
     1
  3
ByBlock
350
19
  3
ByLayer
350
11
  3
Global
350
21
  0
DICTIONARY
  5
66
102
{ACAD_REACTORS
330
C
102
}
330
C
100
AcDbDictionary
281
     1
  3
Standard
350
67
  0
DICTIONARY
  5
5F
102
{ACAD_REACTORS
330
C
102
}
330
C
100
AcDbDictionary
281
     1
  3
Standard
350
60
  0
DICTIONARY
  5
61
102
{ACAD_REACTORS
330
C
102
}
330
C
100
AcDbDictionary
281
     1
  0
ACDBDICTIONARYWDFLT
  5
E
102
{ACAD_REACTORS
330
C
102
}
330
C
100
AcDbDictionary
281
     1
  3
Normal
350
F
100
AcDbDictionaryWithDefault
340
F
  0
RAPIDRTRENDERSETTINGS
  5
2BE
102
{ACAD_REACTORS
330
C
102
}
330
C
100
AcDbRenderSettings
 90
        2
  1
Médio
290
     1
290
     0
290
     1
290
     1
  1

  1
Aplica 5 níveis de renderização
 90
        0
100
AcDbRapidRTRenderSettings
 90
        3
 70
     0
 90
        5
 90
        1
 70
     1
 70
     2
 40
3.0
 40
3.0
290
     1
  0
DICTIONARY
  5
2B7
102
{ACAD_REACTORS
330
C
102
}
330
C
100
AcDbDictionary
281
     1
  3
Alto
350
2BA
  3
Baixo
350
2B8
  3
Médio
350
2B9
  3
Qualidade de curta duração
350
2BB
  3
Qualidade de longa duração
350
2BD
  3
Qualidade de média duração
350
2BC
  0
DICTIONARY
  5
42
102
{ACAD_REACTORS
330
C
102
}
330
C
100
AcDbDictionary
281
     1
  3
A0
350
43
  3
A1
350
44
  3
A2
350
45
  3
A3
350
46
  3
A4
350
47
  3
A5
350
48
  3
A6
350
49
  3
A7
350
4A
  3
A8
350
4B
  3
A9
350
4C
  3
B0
350
4D
  3
B1
350
4E
  3
B2
350
4F
  3
B3
350
50
  3
B4
350
51
  3
B5
350
52
  3
B6
350
53
  0
DICTIONARY
  5
68
102
{ACAD_REACTORS
330
C
102
}
330
C
100
AcDbDictionary
281
     1
  3
Imperial24
350
69
  3
Metric50
350
2AE
  0
DICTIONARY
  5
64
102
{ACAD_REACTORS
330
C
102
}
330
C
100
AcDbDictionary
281
     1
  3
Standard
350
65
  0
DICTIONARY
  5
29
102
{ACAD_REACTORS
330
C
102
}
330
C
100
AcDbDictionary
281
     1
  3
2dWireframe
350
2F
  3
Basic
350
2E
  3
Brighten
350
35
  3
ColorChange
350
39
  3
Conceptual
350
32
  3
Dim
350
34
  3
EdgeColorOff
350
41
  3
Facepattern
350
38
  3
Flat
350
2A
  3
FlatWithEdges
350
2B
  3
Gouraud
350
2C
  3
GouraudWithEdges
350
2D
  3
Hidden
350
31
  3
JitterOff
350
3F
  3
Linepattern
350
37
  3
OverhangOff
350
40
  3
Realistic
350
33
  3
Shaded
350
3E
  3
Shaded with edges
350
3D
  3
Shades of Gray
350
3A
  3
Sketchy
350
3B
  3
Thicken
350
36
  3
Wireframe
350
30
  3
X-Ray
350
3C
  0
XRECORD
  5
346
102
{ACAD_REACTORS
330
C
102
}
330
C
100
AcDbXrecord
280
     1
 90
        1
330
65
  0
DICTIONARY
  5
2A7
102
{ACAD_REACTORS
330
C
102
}
330
C
100
AcDbDictionary
281
     1
  3
CANNOSCALE
350
2AC
  3
CMLEADERSTYLE
350
2A9
  3
CTABLESTYLE
350
2A8
  3
CVIEWDETAILSTYLE
350
2AA
  3
CVIEWSECTIONSTYLE
350
2AB
  0
DICTIONARY
  5
29F
102
{ACAD_REACTORS
330
C
102
}
330
C
100
AcDbDictionary
281
     1
  3
DRAWING_TOOL
350
2A3
  3
REVIT_CATEGORY_MAPPING
350
2A1
  3
REVIT_SUB_CATEGORY_MAPPING
350
2A2
  3
REVIT_TYPE_MAPPING
350
2A0
  0
DICTIONARY
  5
2C4
102
{ACAD_REACTORS
330
2C3
102
}
330
2C3
100
AcDbDictionary
281
     1
  0
SORTENTSTABLE
  5
2A5
102
{ACAD_REACTORS
330
2A4
102
}
330
2A4
100
AcDbSortentsTable
330
70
331
2D8
  5
2DB
331
2D9
  5
2DC
331
2DA
  5
2DD
331
2DB
  5
2DE
331
2DC
  5
2DF
331
2DD
  5
2E0
331
2DE
  5
2E1
331
2DF
  5
2E2
331
2E0
  5
2E3
331
2E1
  5
2E4
331
2E2
  5
2E5
331
2E3
  5
2E6
331
2E4
  5
2E7
331
2E5
  5
2E8
331
2E6
  5
2E9
331
2E7
  5
2EA
331
2E8
  5
2EB
331
2E9
  5
2EC
331
2EA
  5
2ED
331
2EB
  5
2EE
331
2EC
  5
2EF
331
2ED
  5
2F0
331
2EE
  5
2F1
331
2EF
  5
2F2
331
2F0
  5
2F3
331
2F1
  5
2F4
331
2F2
  5
2F5
331
2F3
  5
2F6
331
2F4
  5
2F7
331
2F5
  5
2F8
331
2F6
  5
2F9
331
2F7
  5
2FA
331
2F8
  5
2FB
331
2F9
  5
2FC
331
2FA
  5
2FD
331
2FB
  5
2FE
331
2FC
  5
2FF
331
2FD
  5
300
331
2FE
  5
301
331
2FF
  5
302
331
300
  5
303
331
301
  5
304
331
302
  5
305
331
303
  5
306
331
304
  5
307
331
305
  5
308
331
306
  5
309
331
307
  5
30A
331
308
  5
30B
331
309
  5
30C
331
30A
  5
30D
331
30B
  5
30E
331
30C
  5
30F
331
30D
  5
310
331
30E
  5
311
331
30F
  5
312
331
310
  5
313
331
311
  5
314
331
312
  5
315
331
313
  5
316
331
314
  5
317
331
315
  5
318
331
316
  5
319
331
317
  5
330
331
318
  5
331
331
319
  5
332
331
330
  5
2D8
331
331
  5
2D9
331
332
  5
2DA
  0
ACDBDETAILVIEWSTYLE
  5
6B
102
{ACAD_REACTORS
330
6A
102
}
330
6A
100
AcDbModelDocViewStyle
 70
     0
  3
Imperial24
290
     1
300
Imperial24
 90
        0
100
AcDbDetailViewStyle
 70
     0
 71
     0
 90
        3
 71
     1
340
55
 62
   256
 40
0.24
340
0
 62
   256
 40
0.24
300

 40
0.36
280
     3
 71
     2
340
5D
 90
       25
 62
   256
 71
     3
340
55
 62
   256
 40
0.24
 90
        1
 40
0.75
 90
        1
300
%<\AcVar ViewType \f "%tc1">% %<\AcVar ViewDetailId>%\PSCALE %<\AcVar ViewScale \f "%sn">%
 71
     4
340
5D
 90
       25
 62
   256
340
5D
 90
       25
 62
   256
280
     0
  0
ACDBDETAILVIEWSTYLE
  5
2AF
102
{ACAD_REACTORS
330
6A
102
}
330
6A
100
AcDbModelDocViewStyle
 70
     0
  3
Metric50
290
     1
300
Metric50
 90
        0
100
AcDbDetailViewStyle
 70
     0
 71
     0
 90
        3
 71
     1
340
55
 62
   256
 40
5.0
340
0
 62
   256
 40
5.0
300

 40
0.0
280
     1
 71
     2
340
5D
 90
       25
 62
   256
 71
     3
340
55
 62
   256
 40
5.0
 90
        0
 40
15.0
 90
        1
300
%<\AcVar ViewDetailId>% (%<\AcVar ViewScale \f "%sn">%)
 71
     4
340
5D
 90
       25
 62
   256
340
5D
 90
       25
 62
   256
280
     0
  0
LAYOUT
  5
6F
102
{ACAD_REACTORS
330
62
102
}
330
62
100
AcDbPlotSettings
  1

  2
PDF24
  4
A4
  6

 40
0.0
 41
0.0
 42
0.1113433837890625
 43
0.0
 44
210.0
 45
297.0
 46
0.0
 47
0.0
 48
0.0
 49
0.0
140
0.0
141
0.0
142
1.0
143
1.41516741571158
 70
   688
 72
     1
 73
     1
 74
     1
  7

 75
     0
147
0.706630175976159
 76
     0
 77
     2
 78
   300
148
102.2199656961018
149
-102.9846201918336
100
AcDbLayout
  1
Layout1
 70
     0
 71
     1
 10
-102.2199656961018
 20
102.9846201918336
 11
318.0847567702375
 21
400.1697774912654
 12
0.0
 22
0.0
 32
0.0
 14
-102.2199656961018
 24
102.9846201918336
 34
-0.0015258207003583
 15
317.8056690695531
 25
400.0122079625721
 35
0.0000000349246037
146
0.0
 13
0.0
 23
0.0
 33
0.0
 16
1.0
 26
0.0
 36
0.0
 17
0.0
 27
1.0
 37
0.0
 76
     0
330
6C
331
292
1001
ACAD_PSEXT
1000
PDF24
1000
PDF24
1000
\\.\pipe\PDFPrint
1000
PDF24 Printer
1070
     0
  0
LAYOUT
  5
73
102
{ACAD_REACTORS
330
62
102
}
330
62
100
AcDbPlotSettings
  1

  2

  4

  6

 40
0.0
 41
0.0
 42
0.0
 43
0.0
 44
0.0
 45
0.0
 46
0.0
 47
0.0
 48
0.0
 49
0.0
140
0.0
141
0.0
142
1.0
143
1.0
 70
  1712
 72
     0
 73
     0
 74
     0
  7

 75
     0
147
1.0
 76
     0
 77
     2
 78
   300
148
0.0
149
0.0
100
AcDbLayout
  1
Model
 70
     1
 71
     0
 10
0.0
 20
0.0
 11
12.0
 21
9.0
 12
0.0
 22
0.0
 32
0.0
 14
0.0
 24
0.0
 34
0.0
 15
0.0
 25
0.0
 35
0.0
146
0.0
 13
0.0
 23
0.0
 33
0.0
 16
1.0
 26
0.0
 36
0.0
 17
0.0
 27
1.0
 37
0.0
 76
     0
330
70
331
57
  0
MATERIAL
  5
19
102
{ACAD_XDICTIONARY
360
1A
102
}
102
{ACAD_REACTORS
330
10
102
}
330
10
100
AcDbMaterial
  1
ByBlock
 72
     0
 43
0.0208333333333333
 43
0.0
 43
0.0
 43
0.0
 43
0.0
 43
0.0208333333333333
 43
0.0
 43
0.0
 43
0.0
 43
0.0
 43
1.0
 43
0.0
 43
0.0
 43
0.0
 43
0.0
 43
1.0
 77
     0
 47
0.0208333333333333
 47
0.0
 47
0.0
 47
0.0
 47
0.0
 47
0.0208333333333333
 47
0.0
 47
0.0
 47
0.0
 47
0.0
 47
1.0
 47
0.0
 47
0.0
 47
0.0
 47
0.0
 47
1.0
171
     0
 49
0.0208333333333333
 49
0.0
 49
0.0
 49
0.0
 49
0.0
 49
0.0208333333333333
 49
0.0
 49
0.0
 49
0.0
 49
0.0
 49
1.0
 49
0.0
 49
0.0
 49
0.0
 49
0.0
 49
1.0
175
     0
142
0.0208333333333333
142
0.0
142
0.0
142
0.0
142
0.0
142
0.0208333333333333
142
0.0
142
0.0
142
0.0
142
0.0
142
1.0
142
0.0
142
0.0
142
0.0
142
0.0
142
1.0
179
     0
144
0.0208333333333333
144
0.0
144
0.0
144
0.0
144
0.0
144
0.0208333333333333
144
0.0
144
0.0
144
0.0
144
0.0
144
1.0
144
0.0
144
0.0
144
0.0
144
0.0
144
1.0
147
0.0208333333333333
147
0.0
147
0.0
147
0.0
147
0.0
147
0.0208333333333333
147
0.0
147
0.0
147
0.0
147
0.0
147
1.0
147
0.0
147
0.0
147
0.0
147
0.0
147
1.0
  0
MATERIAL
  5
11
102
{ACAD_XDICTIONARY
360
12
102
}
102
{ACAD_REACTORS
330
10
102
}
330
10
100
AcDbMaterial
  1
ByLayer
 72
     0
 43
0.0208333333333333
 43
0.0
 43
0.0
 43
0.0
 43
0.0
 43
0.0208333333333333
 43
0.0
 43
0.0
 43
0.0
 43
0.0
 43
1.0
 43
0.0
 43
0.0
 43
0.0
 43
0.0
 43
1.0
 77
     0
 47
0.0208333333333333
 47
0.0
 47
0.0
 47
0.0
 47
0.0
 47
0.0208333333333333
 47
0.0
 47
0.0
 47
0.0
 47
0.0
 47
1.0
 47
0.0
 47
0.0
 47
0.0
 47
0.0
 47
1.0
171
     0
 49
0.0208333333333333
 49
0.0
 49
0.0
 49
0.0
 49
0.0
 49
0.0208333333333333
 49
0.0
 49
0.0
 49
0.0
 49
0.0
 49
1.0
 49
0.0
 49
0.0
 49
0.0
 49
0.0
 49
1.0
175
     0
142
0.0208333333333333
142
0.0
142
0.0
142
0.0
142
0.0
142
0.0208333333333333
142
0.0
142
0.0
142
0.0
142
0.0
142
1.0
142
0.0
142
0.0
142
0.0
142
0.0
142
1.0
179
     0
144
0.0208333333333333
144
0.0
144
0.0
144
0.0
144
0.0
144
0.0208333333333333
144
0.0
144
0.0
144
0.0
144
0.0
144
1.0
144
0.0
144
0.0
144
0.0
144
0.0
144
1.0
147
0.0208333333333333
147
0.0
147
0.0
147
0.0
147
0.0
147
0.0208333333333333
147
0.0
147
0.0
147
0.0
147
0.0
147
1.0
147
0.0
147
0.0
147
0.0
147
0.0
147
1.0
  0
MATERIAL
  5
21
102
{ACAD_XDICTIONARY
360
22
102
}
102
{ACAD_REACTORS
330
10
102
}
330
10
100
AcDbMaterial
  1
Global
 72
     0
 43
0.0208333333333333
 43
0.0
 43
0.0
 43
0.0
 43
0.0
 43
0.0208333333333333
 43
0.0
 43
0.0
 43
0.0
 43
0.0
 43
1.0
 43
0.0
 43
0.0
 43
0.0
 43
0.0
 43
1.0
 77
     0
 47
0.0208333333333333
 47
0.0
 47
0.0
 47
0.0
 47
0.0
 47
0.0208333333333333
 47
0.0
 47
0.0
 47
0.0
 47
0.0
 47
1.0
 47
0.0
 47
0.0
 47
0.0
 47
0.0
 47
1.0
171
     0
 49
0.0208333333333333
 49
0.0
 49
0.0
 49
0.0
 49
0.0
 49
0.0208333333333333
 49
0.0
 49
0.0
 49
0.0
 49
0.0
 49
1.0
 49
0.0
 49
0.0
 49
0.0
 49
0.0
 49
1.0
175
     0
142
0.0208333333333333
142
0.0
142
0.0
142
0.0
142
0.0
142
0.0208333333333333
142
0.0
142
0.0
142
0.0
142
0.0
142
1.0
142
0.0
142
0.0
142
0.0
142
0.0
142
1.0
179
     0
144
0.0208333333333333
144
0.0
144
0.0
144
0.0
144
0.0
144
0.0208333333333333
144
0.0
144
0.0
144
0.0
144
0.0
144
1.0
144
0.0
144
0.0
144
0.0
144
0.0
144
1.0
147
0.0208333333333333
147
0.0
147
0.0
147
0.0
147
0.0
147
0.0208333333333333
147
0.0
147
0.0
147
0.0
147
0.0
147
1.0
147
0.0
147
0.0
147
0.0
147
0.0
147
1.0
  0
MLEADERSTYLE
  5
67
102
{ACAD_REACTORS
330
66
102
}
330
66
100
AcDbMLeaderStyle
179
     2
170
     2
171
     1
172
     0
 90
        2
 40
0.0
 41
0.0
173
     1
 91
-1056964608
340
5B
 92
       -2
290
     1
 42
0.09
291
     1
 43
0.36
  3
Standard
 44
0.18
300

342
55
174
     1
178
     6
175
     1
176
     0
 93
-1056964608
 45
0.18
292
     0
297
     0
 46
0.18
 94
-1056964608
 47
1.0
 49
1.0
140
1.0
293
     1
141
0.0
294
     1
177
     0
142
1.0
295
     1
296
     0
143
0.125
271
     0
272
     9
273
     9
298
     1
  0
MLINESTYLE
  5
60
102
{ACAD_REACTORS
330
5F
102
}
330
5F
100
AcDbMlineStyle
  2
STANDARD
 70
     0
  3

 62
   256
 51
90.0
 52
90.0
 71
     2
 49
0.5
 62
   256
  6
BYLAYER
 49
-0.5
 62
   256
  6
BYLAYER
  0
ACDBPLACEHOLDER
  5
F
102
{ACAD_REACTORS
330
E
102
}
330
E
  0
RAPIDRTRENDERSETTINGS
  5
2BA
102
{ACAD_REACTORS
330
2B7
102
}
330
2B7
100
AcDbRenderSettings
 90
        2
  1
Alto
290
     1
290
     0
290
     1
290
     1
  1

  1
Aplica 10 níveis de renderização
 90
        2
100
AcDbRapidRTRenderSettings
 90
        3
 70
     0
 90
       10
 90
        1
 70
     2
 70
     2
 40
3.0
 40
3.0
290
     1
  0
RAPIDRTRENDERSETTINGS
  5
2B8
102
{ACAD_REACTORS
330
2B7
102
}
330
2B7
100
AcDbRenderSettings
 90
        2
  1
Baixo
290
     1
290
     0
290
     1
290
     1
  1

  1
Aplica 1 nível de renderização
 90
        0
100
AcDbRapidRTRenderSettings
 90
        3
 70
     0
 90
        1
 90
        1
 70
     0
 70
     2
 40
3.0
 40
3.0
290
     1
  0
RAPIDRTRENDERSETTINGS
  5
2B9
102
{ACAD_REACTORS
330
2B7
102
}
330
2B7
100
AcDbRenderSettings
 90
        2
  1
Médio
290
     1
290
     0
290
     1
290
     1
  1

  1
Aplica 5 níveis de renderização
 90
        1
100
AcDbRapidRTRenderSettings
 90
        3
 70
     0
 90
        5
 90
        1
 70
     1
 70
     2
 40
3.0
 40
3.0
290
     1
  0
RAPIDRTRENDERSETTINGS
  5
2BB
102
{ACAD_REACTORS
330
2B7
102
}
330
2B7
100
AcDbRenderSettings
 90
        2
  1
Qualidade de curta duração
290
     1
290
     0
290
     1
290
     1
  1

  1
Renderiza por 10 minutos
 90
        3
100
AcDbRapidRTRenderSettings
 90
        3
 70
     1
 90
        1
 90
       10
 70
     1
 70
     2
 40
3.0
 40
3.0
290
     1
  0
RAPIDRTRENDERSETTINGS
  5
2BD
102
{ACAD_REACTORS
330
2B7
102
}
330
2B7
100
AcDbRenderSettings
 90
        2
  1
Qualidade de longa duração
290
     1
290
     0
290
     1
290
     1
  1

  1
Renderiza por 12 horas
 90
        5
100
AcDbRapidRTRenderSettings
 90
        3
 70
     1
 90
        1
 90
      720
 70
     2
 70
     2
 40
3.0
 40
3.0
290
     1
  0
RAPIDRTRENDERSETTINGS
  5
2BC
102
{ACAD_REACTORS
330
2B7
102
}
330
2B7
100
AcDbRenderSettings
 90
        2
  1
Qualidade de média duração
290
     1
290
     0
290
     1
290
     1
  1

  1
Renderiza por 60 minutos
 90
        4
100
AcDbRapidRTRenderSettings
 90
        3
 70
     1
 90
        1
 90
       60
 70
     2
 70
     2
 40
3.0
 40
3.0
290
     1
  0
SCALE
  5
43
102
{ACAD_REACTORS
330
42
102
}
330
42
100
AcDbScale
 70
     0
300
1:1
140
1.0
141
1.0
290
     1
  0
SCALE
  5
44
102
{ACAD_REACTORS
330
42
102
}
330
42
100
AcDbScale
 70
     0
300
1/128" = 1'-0"
140
0.0078125
141
12.0
290
     0
  0
SCALE
  5
45
102
{ACAD_REACTORS
330
42
102
}
330
42
100
AcDbScale
 70
     0
300
1/64" = 1'-0"
140
0.015625
141
12.0
290
     0
  0
SCALE
  5
46
102
{ACAD_REACTORS
330
42
102
}
330
42
100
AcDbScale
 70
     0
300
1/32" = 1'-0"
140
0.03125
141
12.0
290
     0
  0
SCALE
  5
47
102
{ACAD_REACTORS
330
42
102
}
330
42
100
AcDbScale
 70
     0
300
1/16" = 1'-0"
140
0.0625
141
12.0
290
     0
  0
SCALE
  5
48
102
{ACAD_REACTORS
330
42
102
}
330
42
100
AcDbScale
 70
     0
300
3/32" = 1'-0"
140
0.09375
141
12.0
290
     0
  0
SCALE
  5
49
102
{ACAD_REACTORS
330
42
102
}
330
42
100
AcDbScale
 70
     0
300
1/8" = 1'-0"
140
0.125
141
12.0
290
     0
  0
SCALE
  5
4A
102
{ACAD_REACTORS
330
42
102
}
330
42
100
AcDbScale
 70
     0
300
3/16" = 1'-0"
140
0.1875
141
12.0
290
     0
  0
SCALE
  5
4B
102
{ACAD_REACTORS
330
42
102
}
330
42
100
AcDbScale
 70
     0
300
1/4" = 1'-0"
140
0.25
141
12.0
290
     0
  0
SCALE
  5
4C
102
{ACAD_REACTORS
330
42
102
}
330
42
100
AcDbScale
 70
     0
300
3/8" = 1'-0"
140
0.375
141
12.0
290
     0
  0
SCALE
  5
4D
102
{ACAD_REACTORS
330
42
102
}
330
42
100
AcDbScale
 70
     0
300
1/2" = 1'-0"
140
0.5
141
12.0
290
     0
  0
SCALE
  5
4E
102
{ACAD_REACTORS
330
42
102
}
330
42
100
AcDbScale
 70
     0
300
3/4" = 1'-0"
140
0.75
141
12.0
290
     0
  0
SCALE
  5
4F
102
{ACAD_REACTORS
330
42
102
}
330
42
100
AcDbScale
 70
     0
300
1" = 1'-0"
140
1.0
141
12.0
290
     0
  0
SCALE
  5
50
102
{ACAD_REACTORS
330
42
102
}
330
42
100
AcDbScale
 70
     0
300
1-1/2" = 1'-0"
140
1.5
141
12.0
290
     0
  0
SCALE
  5
51
102
{ACAD_REACTORS
330
42
102
}
330
42
100
AcDbScale
 70
     0
300
3" = 1'-0"
140
3.0
141
12.0
290
     0
  0
SCALE
  5
52
102
{ACAD_REACTORS
330
42
102
}
330
42
100
AcDbScale
 70
     0
300
6" = 1'-0"
140
6.0
141
12.0
290
     0
  0
SCALE
  5
53
102
{ACAD_REACTORS
330
42
102
}
330
42
100
AcDbScale
 70
     0
300
1'-0" = 1'-0"
140
12.0
141
12.0
290
     0
  0
ACDBSECTIONVIEWSTYLE
  5
69
102
{ACAD_REACTORS
330
68
102
}
330
68
100
AcDbModelDocViewStyle
 70
     0
  3
Imperial24
290
     1
300
Imperial24
 90
        0
100
AcDbSectionViewStyle
 70
     0
 71
     0
 90
       78
 71
     1
340
55
 62
   256
 40
0.24
340
0
340
0
 62
   256
 40
0.24
300
I, O, Q, S, X, Z
 40
0.48
 90
        3
 40
0.18
 90
        1
 71
     2
340
5D
 90
       25
 62
   256
340
5D
 90
       50
 62
   256
 40
0.24
 40
0.0
 40
0.24
 71
     3
340
55
 62
   256
 40
0.24
 90
        1
 40
0.75
 90
        1
300
%<\AcVar ViewType \f "%tc1">% %<\AcVar ViewSectionStartId>%-%<\AcVar ViewSectionEndId>%\PSCALE %<\AcVar ViewScale \f "%sn">%
 71
     4
 62
   256
 62
   257
300
ANSI31
 40
1.0
 90
        0
290
     0
290
     0
 90
        6
 40
0.0
 40
1.570796326794896
 40
0.2617993877991494
 40
1.308996938995747
 40
-0.2617993877991494
 40
1.832595714594046
  0
ACDBSECTIONVIEWSTYLE
  5
2AE
102
{ACAD_REACTORS
330
68
102
}
330
68
100
AcDbModelDocViewStyle
 70
     0
  3
Metric50
290
     1
300
Metric50
 90
        0
100
AcDbSectionViewStyle
 70
     0
 71
     0
 90
      102
 71
     1
340
55
 62
   256
 40
5.0
340
0
340
0
 62
   256
 40
5.0
300
I, O, Q, S, X, Z
 40
10.0
 90
        0
 40
2.5
 90
        0
 71
     2
340
5D
 90
       25
 62
   256
340
5D
 90
       50
 62
   256
 40
5.0
 40
2.5
 40
5.0
 71
     3
340
55
 62
   256
 40
5.0
 90
        0
 40
15.0
 90
        1
300
%<\AcVar ViewSectionStartId>%-%<\AcVar ViewSectionEndId>% (%<\AcVar ViewScale \f "%sn">%)
 71
     4
 62
   256
 62
   257
300
ANSI31
 40
1.0
 90
        0
290
     0
290
     0
 90
        6
 40
0.0
 40
1.570796326794896
 40
0.2617993877991494
 40
1.308996938995747
 40
-0.2617993877991494
 40
1.832595714594046
  0
TABLESTYLE
  5
65
102
{ACAD_XDICTIONARY
360
344
102
}
102
{ACAD_REACTORS
330
64
102
}
330
64
100
AcDbTableStyle
280
     0
  3
Standard
 70
     0
 71
     0
 40
0.06
 41
0.06
280
     0
281
     0
  7
Standard
140
0.18
170
     2
 62
     0
 63
     7
283
     0
 90
      512
 91
        0
  1

274
    -2
284
     1
 64
     0
275
    -2
285
     1
 65
     0
276
    -2
286
     1
 66
     0
277
    -2
287
     1
 67
     0
278
    -2
288
     1
 68
     0
279
    -2
289
     1
 69
     0
  7
Standard
140
0.25
170
     5
 62
     0
 63
     7
283
     0
 90
      512
 91
        0
  1

274
    -2
284
     1
 64
     0
275
    -2
285
     1
 65
     0
276
    -2
286
     1
 66
     0
277
    -2
287
     1
 67
     0
278
    -2
288
     1
 68
     0
279
    -2
289
     1
 69
     0
  7
Standard
140
0.18
170
     5
 62
     0
 63
     7
283
     0
 90
      512
 91
        0
  1

274
    -2
284
     1
 64
     0
275
    -2
285
     1
 65
     0
276
    -2
286
     1
 66
     0
277
    -2
287
     1
 67
     0
278
    -2
288
     1
 68
     0
279
    -2
289
     1
 69
     0
  0
VISUALSTYLE
  5
2F
102
{ACAD_REACTORS
330
29
102
}
330
29
100
AcDbVisualStyle
  2
2dWireframe
 70
     4
177
     3
291
     0
 70
    58
 90
        0
176
     1
 90
        2
176
     1
 90
        0
176
     1
 90
        0
176
     1
 40
0.6
176
     1
 40
30.0
176
     1
 62
     7
420
 16777215
176
     1
 90
        1
176
     1
 90
        4
176
     1
 62
     7
176
     1
 62
   257
176
     1
 90
        1
176
     1
 90
        1
176
     1
 40
1.0
176
     1
 90
        0
176
     1
 62
   257
176
     1
 40
1.0
176
     1
 90
        1
176
     1
 90
        6
176
     1
 90
        2
176
     1
 62
     7
176
     1
 90
        5
176
     1
 90
        0
176
     1
 90
        0
176
     1
290
     0
176
     1
 90
        1
176
     1
 40
0.0
176
     1
 90
        0
176
     1
290
     1
176
     1
290
     1
176
     1
290
     0
176
     1
290
     0
176
     1
290
     0
176
     1
290
     0
176
     1
290
     0
176
     1
290
     0
176
     1
290
     0
176
     1
 90
       50
176
     1
 40
0.0
176
     1
 40
1.0
176
     1
 90
        0
176
     1
 62
    18
420
        0
176
     1
 90
       50
176
     1
 90
        3
176
     1
 62
     5
420
      255
176
     1
290
     0
176
     1
 90
       50
176
     1
 90
       50
176
     1
 90
       50
176
     1
290
     0
176
     1
 90
       50
176
     1
 62
   256
176
     0
 40
1.0
176
     0
 90
        2
176
     1
  1
strokes_ogs.tif
176
     1
290
     0
176
     1
 40
1.0
176
     1
 40
1.0
176
     1
  0
VISUALSTYLE
  5
2E
102
{ACAD_REACTORS
330
29
102
}
330
29
100
AcDbVisualStyle
  2
Basic
 70
     7
177
     3
291
     1
 70
    58
 90
        1
176
     1
 90
        0
176
     1
 90
        1
176
     1
 90
        0
176
     1
 40
0.6
176
     1
 40
30.0
176
     1
 62
     7
420
 16777215
176
     1
 90
        0
176
     1
 90
        4
176
     1
 62
     7
176
     1
 62
   257
176
     1
 90
        1
176
     1
 90
        1
176
     1
 40
1.0
176
     1
 90
        8
176
     1
 62
     7
176
     1
 40
1.0
176
     1
 90
        1
176
     1
 90
        6
176
     1
 90
        2
176
     1
 62
     7
176
     1
 90
        5
176
     1
 90
        0
176
     1
 90
        0
176
     1
290
     0
176
     1
 90
        1
176
     1
 40
0.0
176
     1
 90
        0
176
     1
290
     0
176
     1
290
     1
176
     1
290
     1
176
     1
290
     0
176
     1
290
     0
176
     1
290
     0
176
     1
290
     0
176
     1
290
     0
176
     1
290
     0
176
     1
 90
       50
176
     1
 40
0.0
176
     1
 40
1.0
176
     1
 90
        0
176
     1
 62
    18
420
        0
176
     1
 90
       50
176
     1
 90
        3
176
     1
 62
     5
420
      255
176
     1
290
     0
176
     1
 90
       50
176
     1
 90
       50
176
     1
 90
       50
176
     1
290
     0
176
     1
 90
       50
176
     1
 62
   256
176
     0
 40
1.0
176
     0
 90
        2
176
     1
  1
strokes_ogs.tif
176
     1
290
     0
176
     1
 40
1.0
176
     1
 40
1.0
176
     1
  0
VISUALSTYLE
  5
35
102
{ACAD_REACTORS
330
29
102
}
330
29
100
AcDbVisualStyle
  2
Brighten
 70
    12
177
     3
291
     1
 70
    58
 90
        2
176
     1
 90
        2
176
     1
 90
        0
176
     1
 90
        0
176
     1
 40
0.6
176
     1
 40
30.0
176
     1
 62
     7
420
 16777215
176
     1
 90
        1
176
     1
 90
        4
176
     1
 62
     7
176
     1
 62
   257
176
     1
 90
        1
176
     1
 90
        1
176
     1
 40
1.0
176
     1
 90
        8
176
     1
 62
     7
176
     1
 40
1.0
176
     1
 90
        1
176
     1
 90
        6
176
     1
 90
        2
176
     1
 62
     7
176
     1
 90
        5
176
     1
 90
        0
176
     1
 90
        0
176
     1
290
     0
176
     1
 90
        1
176
     1
 40
50.0
176
     1
 90
        0
176
     1
290
     0
176
     1
290
     1
176
     1
290
     1
176
     1
290
     0
176
     1
290
     0
176
     1
290
     0
176
     1
290
     0
176
     1
290
     0
176
     1
290
     0
176
     1
 90
       50
176
     1
 40
0.0
176
     1
 40
1.0
176
     1
 90
        0
176
     1
 62
    18
420
        0
176
     1
 90
       50
176
     1
 90
        3
176
     1
 62
     5
420
      255
176
     1
290
     0
176
     1
 90
       50
176
     1
 90
       50
176
     1
 90
       50
176
     1
290
     0
176
     1
 90
       50
176
     1
 62
   256
176
     0
 40
1.0
176
     0
 90
        2
176
     1
  1
strokes_ogs.tif
176
     1
290
     0
176
     1
 40
1.0
176
     1
 40
1.0
176
     1
  0
VISUALSTYLE
  5
39
102
{ACAD_REACTORS
330
29
102
}
330
29
100
AcDbVisualStyle
  2
ColorChange
 70
    16
177
     3
291
     1
 70
    58
 90
        2
176
     1
 90
        2
176
     1
 90
        3
176
     1
 90
        0
176
     1
 40
0.6
176
     1
 40
30.0
176
     1
 62
     8
420
  8421504
176
     1
 90
        1
176
     1
 90
        4
176
     1
 62
     7
176
     1
 62
   257
176
     1
 90
        1
176
     1
 90
        1
176
     1
 40
1.0
176
     1
 90
        8
176
     1
 62
     8
420
  8421504
176
     1
 40
1.0
176
     1
 90
        1
176
     1
 90
        6
176
     1
 90
        2
176
     1
 62
     7
176
     1
 90
        5
176
     1
 90
        0
176
     1
 90
        0
176
     1
290
     0
176
     1
 90
        1
176
     1
 40
0.0
176
     1
 90
        0
176
     1
290
     0
176
     1
290
     1
176
     1
290
     1
176
     1
290
     0
176
     1
290
     0
176
     1
290
     0
176
     1
290
     0
176
     1
290
     0
176
     1
290
     0
176
     1
 90
       50
176
     1
 40
0.0
176
     1
 40
1.0
176
     1
 90
        0
176
     1
 62
    18
420
        0
176
     1
 90
       50
176
     1
 90
        3
176
     1
 62
     5
420
      255
176
     1
290
     0
176
     1
 90
       50
176
     1
 90
       50
176
     1
 90
       50
176
     1
290
     0
176
     1
 90
       50
176
     1
 62
   256
176
     0
 40
1.0
176
     0
 90
        2
176
     1
  1
strokes_ogs.tif
176
     1
290
     0
176
     1
 40
1.0
176
     1
 40
1.0
176
     1
  0
VISUALSTYLE
  5
32
102
{ACAD_REACTORS
330
29
102
}
330
29
100
AcDbVisualStyle
  2
Conceptual
 70
     9
177
     3
291
     0
 70
    58
 90
        3
176
     1
 90
        2
176
     1
 90
        0
176
     1
 90
        0
176
     1
 40
0.6
176
     1
 40
30.0
176
     1
 62
     7
420
 16777215
176
     1
 90
        2
176
     1
 90
        2
176
     1
 62
     7
176
     1
 62
   257
176
     1
 90
        1
176
     1
 90
        1
176
     1
 40
179.0
176
     1
 90
        8
176
     1
 62
     7
176
     1
 40
1.0
176
     1
 90
        1
176
     1
 90
        6
176
     1
 90
        2
176
     1
 62
     7
176
     1
 90
        3
176
     1
 90
        0
176
     1
 90
        0
176
     1
290
     0
176
     1
 90
        1
176
     1
 40
0.0
176
     1
 90
        0
176
     1
290
     0
176
     1
290
     1
176
     1
290
     1
176
     1
290
     0
176
     1
290
     0
176
     1
290
     0
176
     1
290
     0
176
     1
290
     0
176
     1
290
     0
176
     1
 90
       50
176
     1
 40
0.0
176
     1
 40
1.0
176
     1
 90
        0
176
     1
 62
    18
420
        0
176
     1
 90
       50
176
     1
 90
        3
176
     1
 62
     5
420
      255
176
     1
290
     0
176
     1
 90
       50
176
     1
 90
       50
176
     1
 90
       50
176
     1
290
     0
176
     1
 90
       50
176
     1
 62
   256
176
     0
 40
1.0
176
     0
 90
        2
176
     1
  1
strokes_ogs.tif
176
     1
290
     0
176
     1
 40
1.0
176
     1
 40
1.0
176
     1
  0
VISUALSTYLE
  5
34
102
{ACAD_REACTORS
330
29
102
}
330
29
100
AcDbVisualStyle
  2
Dim
 70
    11
177
     3
291
     1
 70
    58
 90
        2
176
     1
 90
        2
176
     1
 90
        0
176
     1
 90
        0
176
     1
 40
0.6
176
     1
 40
30.0
176
     1
 62
     7
420
 16777215
176
     1
 90
        1
176
     1
 90
        4
176
     1
 62
     7
176
     1
 62
   257
176
     1
 90
        1
176
     1
 90
        1
176
     1
 40
1.0
176
     1
 90
        8
176
     1
 62
     7
176
     1
 40
1.0
176
     1
 90
        1
176
     1
 90
        6
176
     1
 90
        2
176
     1
 62
     7
176
     1
 90
        5
176
     1
 90
        0
176
     1
 90
        0
176
     1
290
     0
176
     1
 90
        1
176
     1
 40
-50.0
176
     1
 90
        0
176
     1
290
     0
176
     1
290
     1
176
     1
290
     1
176
     1
290
     0
176
     1
290
     0
176
     1
290
     0
176
     1
290
     0
176
     1
290
     0
176
     1
290
     0
176
     1
 90
       50
176
     1
 40
0.0
176
     1
 40
1.0
176
     1
 90
        0
176
     1
 62
    18
420
        0
176
     1
 90
       50
176
     1
 90
        3
176
     1
 62
     5
420
      255
176
     1
290
     0
176
     1
 90
       50
176
     1
 90
       50
176
     1
 90
       50
176
     1
290
     0
176
     1
 90
       50
176
     1
 62
   256
176
     0
 40
1.0
176
     0
 90
        2
176
     1
  1
strokes_ogs.tif
176
     1
290
     0
176
     1
 40
1.0
176
     1
 40
1.0
176
     1
  0
VISUALSTYLE
  5
41
102
{ACAD_REACTORS
330
29
102
}
330
29
100
AcDbVisualStyle
  2
EdgeColorOff
 70
    22
177
     3
291
     1
 70
    58
 90
        2
176
     0
 90
        2
176
     0
 90
        0
176
     0
 90
        0
176
     0
 40
0.6
176
     0
 40
30.0
176
     0
 62
     7
420
 16777215
176
     0
 90
        1
176
     0
 90
        4
176
     0
 62
     7
176
     0
 62
   257
176
     0
 90
        1
176
     0
 90
        1
176
     0
 40
1.0
176
     0
 90
        8
176
     2
 62
     7
176
     0
 40
1.0
176
     0
 90
        1
176
     0
 90
        6
176
     0
 90
        2
176
     0
 62
     7
176
     0
 90
        5
176
     0
 90
        0
176
     0
 90
        0
176
     0
290
     0
176
     0
 90
        1
176
     0
 40
0.0
176
     0
 90
        0
176
     0
290
     0
176
     0
290
     1
176
     0
290
     1
176
     0
290
     0
176
     0
290
     0
176
     0
290
     0
176
     0
290
     0
176
     0
290
     0
176
     0
290
     0
176
     0
 90
       50
176
     0
 40
0.0
176
     0
 40
1.0
176
     0
 90
        0
176
     0
 62
    18
420
        0
176
     0
 90
       50
176
     0
 90
        3
176
     0
 62
     5
420
      255
176
     0
290
     0
176
     0
 90
       50
176
     0
 90
       50
176
     0
 90
       50
176
     0
290
     0
176
     0
 90
       50
176
     0
 62
   256
176
     0
 40
1.0
176
     0
 90
        2
176
     0
  1
strokes_ogs.tif
176
     0
290
     0
176
     0
 40
1.0
176
     0
 40
1.0
176
     0
  0
VISUALSTYLE
  5
38
102
{ACAD_REACTORS
330
29
102
}
330
29
100
AcDbVisualStyle
  2
Facepattern
 70
    15
177
     3
291
     1
 70
    58
 90
        2
176
     1
 90
        2
176
     1
 90
        0
176
     1
 90
        0
176
     1
 40
0.6
176
     1
 40
30.0
176
     1
 62
     7
420
 16777215
176
     1
 90
        1
176
     1
 90
        4
176
     1
 62
     7
176
     1
 62
   257
176
     1
 90
        1
176
     1
 90
        1
176
     1
 40
1.0
176
     1
 90
        8
176
     1
 62
     7
176
     1
 40
1.0
176
     1
 90
        1
176
     1
 90
        6
176
     1
 90
        2
176
     1
 62
     7
176
     1
 90
        5
176
     1
 90
        0
176
     1
 90
        0
176
     1
290
     0
176
     1
 90
        1
176
     1
 40
0.0
176
     1
 90
        0
176
     1
290
     0
176
     1
290
     1
176
     1
290
     1
176
     1
290
     0
176
     1
290
     0
176
     1
290
     0
176
     1
290
     0
176
     1
290
     0
176
     1
290
     0
176
     1
 90
       50
176
     1
 40
0.0
176
     1
 40
1.0
176
     1
 90
        0
176
     1
 62
    18
420
        0
176
     1
 90
       50
176
     1
 90
        3
176
     1
 62
     5
420
      255
176
     1
290
     0
176
     1
 90
       50
176
     1
 90
       50
176
     1
 90
       50
176
     1
290
     0
176
     1
 90
       50
176
     1
 62
   256
176
     0
 40
1.0
176
     0
 90
        2
176
     1
  1
strokes_ogs.tif
176
     1
290
     0
176
     1
 40
1.0
176
     1
 40
1.0
176
     1
  0
VISUALSTYLE
  5
2A
102
{ACAD_REACTORS
330
29
102
}
330
29
100
AcDbVisualStyle
  2
Flat
 70
     0
177
     3
291
     1
 70
    58
 90
        2
176
     1
 90
        1
176
     1
 90
        1
176
     1
 90
        2
176
     1
 40
0.6
176
     1
 40
30.0
176
     1
 62
     7
420
 16777215
176
     1
 90
        0
176
     1
 90
        0
176
     1
 62
     7
176
     1
 62
   257
176
     1
 90
        1
176
     1
 90
        1
176
     1
 40
1.0
176
     1
 90
        8
176
     1
 62
     7
176
     1
 40
1.0
176
     1
 90
        1
176
     1
 90
        6
176
     1
 90
        2
176
     1
 62
     7
176
     1
 90
        5
176
     1
 90
        0
176
     1
 90
        0
176
     1
290
     0
176
     1
 90
       13
176
     1
 40
0.0
176
     1
 90
        0
176
     1
290
     0
176
     1
290
     1
176
     1
290
     1
176
     1
290
     0
176
     1
290
     0
176
     1
290
     0
176
     1
290
     0
176
     1
290
     0
176
     1
290
     0
176
     1
 90
       50
176
     1
 40
0.0
176
     1
 40
1.0
176
     1
 90
        0
176
     1
 62
    18
420
        0
176
     1
 90
       50
176
     1
 90
        3
176
     1
 62
     5
420
      255
176
     1
290
     0
176
     1
 90
       50
176
     1
 90
       50
176
     1
 90
       50
176
     1
290
     0
176
     1
 90
       50
176
     1
 62
   256
176
     0
 40
1.0
176
     0
 90
        2
176
     1
  1
strokes_ogs.tif
176
     1
290
     0
176
     1
 40
1.0
176
     1
 40
1.0
176
     1
  0
VISUALSTYLE
  5
2B
102
{ACAD_REACTORS
330
29
102
}
330
29
100
AcDbVisualStyle
  2
FlatWithEdges
 70
     1
177
     3
291
     1
 70
    58
 90
        2
176
     1
 90
        1
176
     1
 90
        1
176
     1
 90
        2
176
     1
 40
0.6
176
     1
 40
30.0
176
     1
 62
     7
420
 16777215
176
     1
 90
        1
176
     1
 90
        0
176
     1
 62
     7
176
     1
 62
   257
176
     1
 90
        1
176
     1
 90
        1
176
     1
 40
1.0
176
     1
 90
        0
176
     1
 62
   257
176
     1
 40
1.0
176
     1
 90
        1
176
     1
 90
        6
176
     1
 90
        2
176
     1
 62
     7
176
     1
 90
        5
176
     1
 90
        0
176
     1
 90
        0
176
     1
290
     0
176
     1
 90
       13
176
     1
 40
0.0
176
     1
 90
        0
176
     1
290
     0
176
     1
290
     1
176
     1
290
     1
176
     1
290
     0
176
     1
290
     0
176
     1
290
     0
176
     1
290
     0
176
     1
290
     0
176
     1
290
     0
176
     1
 90
       50
176
     1
 40
0.0
176
     1
 40
1.0
176
     1
 90
        0
176
     1
 62
    18
420
        0
176
     1
 90
       50
176
     1
 90
        3
176
     1
 62
     5
420
      255
176
     1
290
     0
176
     1
 90
       50
176
     1
 90
       50
176
     1
 90
       50
176
     1
290
     0
176
     1
 90
       50
176
     1
 62
   256
176
     0
 40
1.0
176
     0
 90
        2
176
     1
  1
strokes_ogs.tif
176
     1
290
     0
176
     1
 40
1.0
176
     1
 40
1.0
176
     1
  0
VISUALSTYLE
  5
2C
102
{ACAD_REACTORS
330
29
102
}
330
29
100
AcDbVisualStyle
  2
Gouraud
 70
     2
177
     3
291
     1
 70
    58
 90
        2
176
     1
 90
        2
176
     1
 90
        1
176
     1
 90
        2
176
     1
 40
0.6
176
     1
 40
30.0
176
     1
 62
     7
420
 16777215
176
     1
 90
        0
176
     1
 90
        0
176
     1
 62
     7
176
     1
 62
   257
176
     1
 90
        1
176
     1
 90
        1
176
     1
 40
1.0
176
     1
 90
        0
176
     1
 62
     7
176
     1
 40
1.0
176
     1
 90
        1
176
     1
 90
        6
176
     1
 90
        2
176
     1
 62
     7
176
     1
 90
        5
176
     1
 90
        0
176
     1
 90
        0
176
     1
290
     0
176
     1
 90
       13
176
     1
 40
0.0
176
     1
 90
        0
176
     1
290
     0
176
     1
290
     1
176
     1
290
     1
176
     1
290
     0
176
     1
290
     0
176
     1
290
     0
176
     1
290
     0
176
     1
290
     0
176
     1
290
     0
176
     1
 90
       50
176
     1
 40
0.0
176
     1
 40
1.0
176
     1
 90
        0
176
     1
 62
    18
420
        0
176
     1
 90
       50
176
     1
 90
        3
176
     1
 62
     5
420
      255
176
     1
290
     0
176
     1
 90
       50
176
     1
 90
       50
176
     1
 90
       50
176
     1
290
     0
176
     1
 90
       50
176
     1
 62
   256
176
     0
 40
1.0
176
     0
 90
        2
176
     1
  1
strokes_ogs.tif
176
     1
290
     0
176
     1
 40
1.0
176
     1
 40
1.0
176
     1
  0
VISUALSTYLE
  5
2D
102
{ACAD_REACTORS
330
29
102
}
330
29
100
AcDbVisualStyle
  2
GouraudWithEdges
 70
     3
177
     3
291
     1
 70
    58
 90
        2
176
     1
 90
        2
176
     1
 90
        1
176
     1
 90
        2
176
     1
 40
0.6
176
     1
 40
30.0
176
     1
 62
     7
420
 16777215
176
     1
 90
        1
176
     1
 90
        0
176
     1
 62
     7
176
     1
 62
   257
176
     1
 90
        1
176
     1
 90
        1
176
     1
 40
1.0
176
     1
 90
        0
176
     1
 62
   257
176
     1
 40
1.0
176
     1
 90
        1
176
     1
 90
        6
176
     1
 90
        2
176
     1
 62
     7
176
     1
 90
        5
176
     1
 90
        0
176
     1
 90
        0
176
     1
290
     0
176
     1
 90
       13
176
     1
 40
0.0
176
     1
 90
        0
176
     1
290
     0
176
     1
290
     1
176
     1
290
     1
176
     1
290
     0
176
     1
290
     0
176
     1
290
     0
176
     1
290
     0
176
     1
290
     0
176
     1
290
     0
176
     1
 90
       50
176
     1
 40
0.0
176
     1
 40
1.0
176
     1
 90
        0
176
     1
 62
    18
420
        0
176
     1
 90
       50
176
     1
 90
        3
176
     1
 62
     5
420
      255
176
     1
290
     0
176
     1
 90
       50
176
     1
 90
       50
176
     1
 90
       50
176
     1
290
     0
176
     1
 90
       50
176
     1
 62
   256
176
     0
 40
1.0
176
     0
 90
        2
176
     1
  1
strokes_ogs.tif
176
     1
290
     0
176
     1
 40
1.0
176
     1
 40
1.0
176
     1
  0
VISUALSTYLE
  5
31
102
{ACAD_REACTORS
330
29
102
}
330
29
100
AcDbVisualStyle
  2
Hidden
 70
     6
177
     3
291
     0
 70
    58
 90
        1
176
     1
 90
        2
176
     1
 90
        2
176
     1
 90
        0
176
     1
 40
0.6
176
     1
 40
30.0
176
     1
 62
     7
420
 16777215
176
     1
 90
        2
176
     1
 90
        2
176
     1
 62
     7
176
     1
 62
   257
176
     1
 90
        2
176
     1
 90
        1
176
     1
 40
40.0
176
     1
 90
        0
176
     1
 62
   257
176
     1
 40
1.0
176
     1
 90
        1
176
     1
 90
        6
176
     1
 90
        2
176
     1
 62
     7
176
     1
 90
        3
176
     1
 90
        0
176
     1
 90
        0
176
     1
290
     0
176
     1
 90
        1
176
     1
 40
0.0
176
     1
 90
        0
176
     1
290
     0
176
     1
290
     1
176
     1
290
     1
176
     1
290
     0
176
     1
290
     0
176
     1
290
     0
176
     1
290
     0
176
     1
290
     0
176
     1
290
     0
176
     1
 90
       50
176
     1
 40
0.0
176
     1
 40
1.0
176
     1
 90
        0
176
     1
 62
    18
420
        0
176
     1
 90
       50
176
     1
 90
        3
176
     1
 62
     5
420
      255
176
     1
290
     0
176
     1
 90
       50
176
     1
 90
       50
176
     1
 90
       50
176
     1
290
     0
176
     1
 90
       50
176
     1
 62
   256
176
     0
 40
1.0
176
     0
 90
        2
176
     1
  1
strokes_ogs.tif
176
     1
290
     0
176
     1
 40
1.0
176
     1
 40
1.0
176
     1
  0
VISUALSTYLE
  5
3F
102
{ACAD_REACTORS
330
29
102
}
330
29
100
AcDbVisualStyle
  2
JitterOff
 70
    20
177
     3
291
     1
 70
    58
 90
        2
176
     0
 90
        2
176
     0
 90
        0
176
     0
 90
        0
176
     0
 40
0.6
176
     0
 40
30.0
176
     0
 62
     7
420
 16777215
176
     0
 90
        1
176
     0
 90
        4
176
     0
 62
     7
176
     0
 62
   257
176
     0
 90
        1
176
     0
 90
        1
176
     0
 40
1.0
176
     0
 90
       10
176
     2
 62
     7
176
     0
 40
1.0
176
     0
 90
        1
176
     0
 90
        6
176
     0
 90
        2
176
     0
 62
     7
176
     0
 90
        5
176
     0
 90
        0
176
     0
 90
        0
176
     0
290
     0
176
     0
 90
        1
176
     0
 40
0.0
176
     0
 90
        0
176
     0
290
     0
176
     0
290
     1
176
     0
290
     1
176
     0
290
     0
176
     0
290
     0
176
     0
290
     0
176
     0
290
     0
176
     0
290
     0
176
     0
290
     0
176
     0
 90
       50
176
     0
 40
0.0
176
     0
 40
1.0
176
     0
 90
        0
176
     0
 62
    18
420
        0
176
     0
 90
       50
176
     0
 90
        3
176
     0
 62
     5
420
      255
176
     0
290
     0
176
     0
 90
       50
176
     0
 90
       50
176
     0
 90
       50
176
     0
290
     0
176
     0
 90
       50
176
     0
 62
   256
176
     0
 40
1.0
176
     0
 90
        2
176
     0
  1
strokes_ogs.tif
176
     0
290
     0
176
     0
 40
1.0
176
     0
 40
1.0
176
     0
  0
VISUALSTYLE
  5
37
102
{ACAD_REACTORS
330
29
102
}
330
29
100
AcDbVisualStyle
  2
Linepattern
 70
    14
177
     3
291
     1
 70
    58
 90
        2
176
     1
 90
        2
176
     1
 90
        0
176
     1
 90
        0
176
     1
 40
0.6
176
     1
 40
30.0
176
     1
 62
     7
420
 16777215
176
     1
 90
        1
176
     1
 90
        4
176
     1
 62
     7
176
     1
 62
   257
176
     1
 90
        7
176
     1
 90
        7
176
     1
 40
1.0
176
     1
 90
        8
176
     1
 62
     7
176
     1
 40
1.0
176
     1
 90
        1
176
     1
 90
        6
176
     1
 90
        2
176
     1
 62
     7
176
     1
 90
        5
176
     1
 90
        0
176
     1
 90
        0
176
     1
290
     0
176
     1
 90
        1
176
     1
 40
0.0
176
     1
 90
        0
176
     1
290
     0
176
     1
290
     1
176
     1
290
     1
176
     1
290
     0
176
     1
290
     0
176
     1
290
     0
176
     1
290
     0
176
     1
290
     0
176
     1
290
     0
176
     1
 90
       50
176
     1
 40
0.0
176
     1
 40
1.0
176
     1
 90
        0
176
     1
 62
    18
420
        0
176
     1
 90
       50
176
     1
 90
        3
176
     1
 62
     5
420
      255
176
     1
290
     0
176
     1
 90
       50
176
     1
 90
       50
176
     1
 90
       50
176
     1
290
     0
176
     1
 90
       50
176
     1
 62
   256
176
     0
 40
1.0
176
     0
 90
        2
176
     1
  1
strokes_ogs.tif
176
     1
290
     0
176
     1
 40
1.0
176
     1
 40
1.0
176
     1
  0
VISUALSTYLE
  5
40
102
{ACAD_REACTORS
330
29
102
}
330
29
100
AcDbVisualStyle
  2
OverhangOff
 70
    21
177
     3
291
     1
 70
    58
 90
        2
176
     0
 90
        2
176
     0
 90
        0
176
     0
 90
        0
176
     0
 40
0.6
176
     0
 40
30.0
176
     0
 62
     7
420
 16777215
176
     0
 90
        1
176
     0
 90
        4
176
     0
 62
     7
176
     0
 62
   257
176
     0
 90
        1
176
     0
 90
        1
176
     0
 40
1.0
176
     0
 90
        9
176
     2
 62
     7
176
     0
 40
1.0
176
     0
 90
        1
176
     0
 90
        6
176
     0
 90
        2
176
     0
 62
     7
176
     0
 90
        5
176
     0
 90
        0
176
     0
 90
        0
176
     0
290
     0
176
     0
 90
        1
176
     0
 40
0.0
176
     0
 90
        0
176
     0
290
     0
176
     0
290
     1
176
     0
290
     1
176
     0
290
     0
176
     0
290
     0
176
     0
290
     0
176
     0
290
     0
176
     0
290
     0
176
     0
290
     0
176
     0
 90
       50
176
     0
 40
0.0
176
     0
 40
1.0
176
     0
 90
        0
176
     0
 62
    18
420
        0
176
     0
 90
       50
176
     0
 90
        3
176
     0
 62
     5
420
      255
176
     0
290
     0
176
     0
 90
       50
176
     0
 90
       50
176
     0
 90
       50
176
     0
290
     0
176
     0
 90
       50
176
     0
 62
   256
176
     0
 40
1.0
176
     0
 90
        2
176
     0
  1
strokes_ogs.tif
176
     0
290
     0
176
     0
 40
1.0
176
     0
 40
1.0
176
     0
  0
VISUALSTYLE
  5
33
102
{ACAD_REACTORS
330
29
102
}
330
29
100
AcDbVisualStyle
  2
Realistic
 70
     8
177
     3
291
     0
 70
    58
 90
        2
176
     1
 90
        3
176
     1
 90
        0
176
     1
 90
        2
176
     1
 40
0.6
176
     1
 40
30.0
176
     1
 62
     7
420
 16777215
176
     1
 90
        0
176
     1
 90
        0
176
     1
 62
     7
176
     1
 62
   257
176
     1
 90
        1
176
     1
 90
        1
176
     1
 40
1.0
176
     1
 90
        8
176
     1
 62
   257
176
     1
 40
1.0
176
     1
 90
        1
176
     1
 90
        6
176
     1
 90
        2
176
     1
 62
     7
176
     1
 90
        3
176
     1
 90
        0
176
     1
 90
        0
176
     1
290
     0
176
     1
 90
       13
176
     1
 40
0.0
176
     1
 90
        0
176
     1
290
     0
176
     1
290
     1
176
     1
290
     1
176
     1
290
     0
176
     1
290
     0
176
     1
290
     0
176
     1
290
     0
176
     1
290
     0
176
     1
290
     0
176
     1
 90
       50
176
     1
 40
0.0
176
     1
 40
1.0
176
     1
 90
        0
176
     1
 62
    18
420
        0
176
     1
 90
       50
176
     1
 90
        3
176
     1
 62
     5
420
      255
176
     1
290
     0
176
     1
 90
       50
176
     1
 90
       50
176
     1
 90
       50
176
     1
290
     0
176
     1
 90
       50
176
     1
 62
   256
176
     0
 40
1.0
176
     0
 90
        2
176
     1
  1
strokes_ogs.tif
176
     1
290
     0
176
     1
 40
1.0
176
     1
 40
1.0
176
     1
  0
VISUALSTYLE
  5
3E
102
{ACAD_REACTORS
330
29
102
}
330
29
100
AcDbVisualStyle
  2
Shaded
 70
    27
177
     3
291
     0
 70
    58
 90
        2
176
     1
 90
        2
176
     1
 90
        1
176
     1
 90
        2
176
     1
 40
0.6
176
     1
 40
30.0
176
     1
 62
     7
420
 16777215
176
     1
 90
        0
176
     1
 90
        4
176
     1
 62
     7
176
     1
 62
   257
176
     1
 90
        1
176
     1
 90
        1
176
     1
 40
1.0
176
     1
 90
        8
176
     1
 62
   257
176
     1
 40
1.0
176
     1
 90
        1
176
     1
 90
        6
176
     1
 90
        2
176
     1
 62
     8
420
  7895160
176
     1
 90
        3
176
     1
 90
        0
176
     1
 90
        0
176
     1
290
     0
176
     1
 90
        5
176
     1
 40
0.0
176
     1
 90
        0
176
     1
290
     0
176
     1
290
     1
176
     1
290
     1
176
     1
290
     0
176
     1
290
     0
176
     1
290
     0
176
     1
290
     0
176
     1
290
     0
176
     1
290
     0
176
     1
 90
       50
176
     1
 40
0.0
176
     1
 40
1.0
176
     1
 90
        0
176
     1
 62
    18
420
        0
176
     1
 90
       50
176
     1
 90
        3
176
     1
 62
     5
420
      255
176
     1
290
     0
176
     1
 90
       50
176
     1
 90
       50
176
     1
 90
       50
176
     1
290
     0
176
     1
 90
       50
176
     1
 62
   256
176
     0
 40
1.0
176
     0
 90
        2
176
     1
  1
strokes_ogs.tif
176
     1
290
     0
176
     1
 40
1.0
176
     1
 40
1.0
176
     1
  0
VISUALSTYLE
  5
3D
102
{ACAD_REACTORS
330
29
102
}
330
29
100
AcDbVisualStyle
  2
Shaded with edges
 70
    26
177
     3
291
     0
 70
    58
 90
        2
176
     1
 90
        2
176
     1
 90
        1
176
     1
 90
        2
176
     1
 40
0.6
176
     1
 40
30.0
176
     1
 62
     7
420
 16777215
176
     1
 90
        1
176
     1
 90
        2
176
     1
 62
     7
176
     1
 62
   257
176
     1
 90
        2
176
     1
 90
        1
176
     1
 40
1.0
176
     1
 90
        8
176
     1
 62
   257
176
     1
 40
1.0
176
     1
 90
        1
176
     1
 90
        6
176
     1
 90
        2
176
     1
 62
     7
176
     1
 90
        3
176
     1
 90
        0
176
     1
 90
        0
176
     1
290
     0
176
     1
 90
        5
176
     1
 40
0.0
176
     1
 90
        0
176
     1
290
     0
176
     1
290
     1
176
     1
290
     1
176
     1
290
     0
176
     1
290
     0
176
     1
290
     0
176
     1
290
     0
176
     1
290
     0
176
     1
290
     0
176
     1
 90
       50
176
     1
 40
0.0
176
     1
 40
1.0
176
     1
 90
        0
176
     1
 62
    18
420
        0
176
     1
 90
       50
176
     1
 90
        3
176
     1
 62
     5
420
      255
176
     1
290
     0
176
     1
 90
       50
176
     1
 90
       50
176
     1
 90
       50
176
     1
290
     0
176
     1
 90
       50
176
     1
 62
   256
176
     0
 40
1.0
176
     0
 90
        2
176
     1
  1
strokes_ogs.tif
176
     1
290
     0
176
     1
 40
1.0
176
     1
 40
1.0
176
     1
  0
VISUALSTYLE
  5
3A
102
{ACAD_REACTORS
330
29
102
}
330
29
100
AcDbVisualStyle
  2
Shades of Gray
 70
    23
177
     3
291
     0
 70
    58
 90
        2
176
     1
 90
        2
176
     1
 90
        3
176
     1
 90
        0
176
     1
 40
0.6
176
     1
 40
30.0
176
     1
 62
     7
420
 16777215
176
     1
 90
        2
176
     1
 90
        2
176
     1
 62
     7
176
     1
 62
     7
176
     1
 90
        1
176
     1
 90
        1
176
     1
 40
40.0
176
     1
 90
        8
176
     1
 62
     7
176
     1
 40
1.0
176
     1
 90
        1
176
     1
 90
        6
176
     1
 90
        2
176
     1
 62
     7
176
     1
 90
        3
176
     1
 90
        0
176
     1
 90
        0
176
     1
290
     0
176
     1
 90
        1
176
     1
 40
0.0
176
     1
 90
        0
176
     1
290
     0
176
     1
290
     1
176
     1
290
     1
176
     1
290
     0
176
     1
290
     0
176
     1
290
     0
176
     1
290
     0
176
     1
290
     0
176
     1
290
     0
176
     1
 90
       50
176
     1
 40
0.0
176
     1
 40
1.0
176
     1
 90
        0
176
     1
 62
    18
420
        0
176
     1
 90
       50
176
     1
 90
        3
176
     1
 62
     5
420
      255
176
     1
290
     0
176
     1
 90
       50
176
     1
 90
       50
176
     1
 90
       50
176
     1
290
     0
176
     1
 90
       50
176
     1
 62
   256
176
     0
 40
1.0
176
     0
 90
        2
176
     1
  1
strokes_ogs.tif
176
     1
290
     0
176
     1
 40
1.0
176
     1
 40
1.0
176
     1
  0
VISUALSTYLE
  5
3B
102
{ACAD_REACTORS
330
29
102
}
330
29
100
AcDbVisualStyle
  2
Sketchy
 70
    24
177
     3
291
     0
 70
    58
 90
        1
176
     1
 90
        2
176
     1
 90
        2
176
     1
 90
        0
176
     1
 40
0.6
176
     1
 40
30.0
176
     1
 62
     7
420
 16777215
176
     1
 90
        2
176
     1
 90
        2
176
     1
 62
     7
176
     1
 62
     7
176
     1
 90
        1
176
     1
 90
        1
176
     1
 40
40.0
176
     1
 90
       11
176
     1
 62
     7
176
     1
 40
1.0
176
     1
 90
        1
176
     1
 90
        6
176
     1
 90
        2
176
     1
 62
     7
176
     1
 90
        6
176
     1
 90
        0
176
     1
 90
        0
176
     1
290
     0
176
     1
 90
        1
176
     1
 40
0.0
176
     1
 90
        0
176
     1
290
     0
176
     1
290
     1
176
     1
290
     1
176
     1
290
     0
176
     1
290
     0
176
     1
290
     0
176
     1
290
     0
176
     1
290
     0
176
     1
290
     0
176
     1
 90
       50
176
     1
 40
0.0
176
     1
 40
1.0
176
     1
 90
        0
176
     1
 62
    18
420
        0
176
     1
 90
       50
176
     1
 90
        3
176
     1
 62
     5
420
      255
176
     1
290
     0
176
     1
 90
       50
176
     1
 90
       50
176
     1
 90
       50
176
     1
290
     0
176
     1
 90
       50
176
     1
 62
   256
176
     0
 40
1.0
176
     0
 90
        2
176
     1
  1
strokes_ogs.tif
176
     1
290
     0
176
     1
 40
1.0
176
     1
 40
1.0
176
     1
  0
VISUALSTYLE
  5
36
102
{ACAD_REACTORS
330
29
102
}
330
29
100
AcDbVisualStyle
  2
Thicken
 70
    13
177
     3
291
     1
 70
    58
 90
        2
176
     1
 90
        2
176
     1
 90
        0
176
     1
 90
        0
176
     1
 40
0.6
176
     1
 40
30.0
176
     1
 62
     7
420
 16777215
176
     1
 90
        1
176
     1
 90
        4
176
     1
 62
     7
176
     1
 62
   257
176
     1
 90
        1
176
     1
 90
        1
176
     1
 40
1.0
176
     1
 90
       12
176
     1
 62
     7
176
     1
 40
1.0
176
     1
 90
        1
176
     1
 90
        6
176
     1
 90
        2
176
     1
 62
     7
176
     1
 90
        5
176
     1
 90
        0
176
     1
 90
        0
176
     1
290
     0
176
     1
 90
        1
176
     1
 40
0.0
176
     1
 90
        0
176
     1
290
     0
176
     1
290
     1
176
     1
290
     1
176
     1
290
     0
176
     1
290
     0
176
     1
290
     0
176
     1
290
     0
176
     1
290
     0
176
     1
290
     0
176
     1
 90
       50
176
     1
 40
0.0
176
     1
 40
1.0
176
     1
 90
        0
176
     1
 62
    18
420
        0
176
     1
 90
       50
176
     1
 90
        3
176
     1
 62
     5
420
      255
176
     1
290
     0
176
     1
 90
       50
176
     1
 90
       50
176
     1
 90
       50
176
     1
290
     0
176
     1
 90
       50
176
     1
 62
   256
176
     0
 40
1.0
176
     0
 90
        2
176
     1
  1
strokes_ogs.tif
176
     1
290
     0
176
     1
 40
1.0
176
     1
 40
1.0
176
     1
  0
VISUALSTYLE
  5
30
102
{ACAD_REACTORS
330
29
102
}
330
29
100
AcDbVisualStyle
  2
Wireframe
 70
     5
177
     3
291
     0
 70
    58
 90
        0
176
     1
 90
        2
176
     1
 90
        0
176
     1
 90
        0
176
     1
 40
0.6
176
     1
 40
30.0
176
     1
 62
     7
420
 16777215
176
     1
 90
        1
176
     1
 90
        4
176
     1
 62
     7
176
     1
 62
   257
176
     1
 90
        1
176
     1
 90
        1
176
     1
 40
1.0
176
     1
 90
        0
176
     1
 62
   257
176
     1
 40
1.0
176
     1
 90
        1
176
     1
 90
        6
176
     1
 90
        2
176
     1
 62
     7
176
     1
 90
        3
176
     1
 90
        0
176
     1
 90
        0
176
     1
290
     0
176
     1
 90
        1
176
     1
 40
0.0
176
     1
 90
        0
176
     1
290
     0
176
     1
290
     1
176
     1
290
     1
176
     1
290
     0
176
     1
290
     0
176
     1
290
     0
176
     1
290
     0
176
     1
290
     0
176
     1
290
     0
176
     1
 90
       50
176
     1
 40
0.0
176
     1
 40
1.0
176
     1
 90
        0
176
     1
 62
    18
420
        0
176
     1
 90
       50
176
     1
 90
        3
176
     1
 62
     5
420
      255
176
     1
290
     0
176
     1
 90
       50
176
     1
 90
       50
176
     1
 90
       50
176
     1
290
     0
176
     1
 90
       50
176
     1
 62
   256
176
     0
 40
1.0
176
     0
 90
        2
176
     1
  1
strokes_ogs.tif
176
     1
290
     0
176
     1
 40
1.0
176
     1
 40
1.0
176
     1
  0
VISUALSTYLE
  5
3C
102
{ACAD_REACTORS
330
29
102
}
330
29
100
AcDbVisualStyle
  2
X-Ray
 70
    25
177
     3
291
     0
 70
    58
 90
        2
176
     1
 90
        2
176
     1
 90
        1
176
     1
 90
        1
176
     1
 40
0.5
176
     1
 40
30.0
176
     1
 62
     7
420
 16777215
176
     1
 90
        1
176
     1
 90
        0
176
     1
 62
     7
176
     1
 62
   257
176
     1
 90
        1
176
     1
 90
        1
176
     1
 40
1.0
176
     1
 90
        8
176
     1
 62
     7
176
     1
 40
1.0
176
     1
 90
        1
176
     1
 90
        6
176
     1
 90
        2
176
     1
 62
     7
176
     1
 90
        3
176
     1
 90
        0
176
     1
 90
        0
176
     1
290
     0
176
     1
 90
       13
176
     1
 40
0.0
176
     1
 90
        0
176
     1
290
     0
176
     1
290
     1
176
     1
290
     1
176
     1
290
     0
176
     1
290
     0
176
     1
290
     0
176
     1
290
     0
176
     1
290
     0
176
     1
290
     0
176
     1
 90
       50
176
     1
 40
0.0
176
     1
 40
1.0
176
     1
 90
        0
176
     1
 62
    18
420
        0
176
     1
 90
       50
176
     1
 90
        3
176
     1
 62
     5
420
      255
176
     1
290
     0
176
     1
 90
       50
176
     1
 90
       50
176
     1
 90
       50
176
     1
290
     0
176
     1
 90
       50
176
     1
 62
   256
176
     0
 40
1.0
176
     0
 90
        2
176
     1
  1
strokes_ogs.tif
176
     1
290
     0
176
     1
 40
1.0
176
     1
 40
1.0
176
     1
  0
DICTIONARYVAR
  5
2AC
102
{ACAD_REACTORS
330
2A7
102
}
330
2A7
100
DictionaryVariables
280
     0
  1
1:1
  0
DICTIONARYVAR
  5
2A9
102
{ACAD_REACTORS
330
2A7
102
}
330
2A7
100
DictionaryVariables
280
     0
  1
STANDARD
  0
DICTIONARYVAR
  5
2A8
102
{ACAD_REACTORS
330
2A7
102
}
330
2A7
100
DictionaryVariables
280
     0
  1
STANDARD
  0
DICTIONARYVAR
  5
2AA
102
{ACAD_REACTORS
330
2A7
102
}
330
2A7
100
DictionaryVariables
280
     0
  1
Imperial24
  0
DICTIONARYVAR
  5
2AB
102
{ACAD_REACTORS
330
2A7
102
}
330
2A7
100
DictionaryVariables
280
     0
  1
Imperial24
  0
XRECORD
  5
2A3
102
{ACAD_REACTORS
330
29F
102
}
330
29F
100
AcDbXrecord
280
     1
  1
BUILDING_ID
  1
Três sobrados gêmeos
  1
FLOOR_ID
  1
23033348
  0
XRECORD
  5
2A1
102
{ACAD_REACTORS
330
29F
102
}
330
29F
100
AcDbXrecord
280
     1
  1
-2000051
  1
Linhas
  1
-2000280
  1
Blocos de margens e carimbo
  1
-2002000
  1
Itens de detalhe
  0
XRECORD
  5
2A2
102
{ACAD_REACTORS
330
29F
102
}
330
29F
100
AcDbXrecord
280
     1
  1
-2000042
  1
<Linhas finas>
  1
-2000044
  1
<Linhas grossas>
  1
-2000281
  1
<Linhas finas>
  0
XRECORD
  5
2A0
102
{ACAD_REACTORS
330
29F
102
}
330
29F
100
AcDbXrecord
280
     1
  1
23034793
  1
A4 HORIZONTAL : A3
  0
DICTIONARY
  5
1A
330
19
100
AcDbDictionary
280
     1
281
     1
  3
BUMPTILE
360
1C
  3
DIFFUSETILE
360
1B
  3
OPACITYTILE
360
1F
  3
REFLECTIONTILE
360
1E
  3
REFRACTIONTILE
360
20
  3
SPECULARTILE
360
1D
  0
DICTIONARY
  5
12
330
11
100
AcDbDictionary
280
     1
281
     1
  3
BUMPTILE
360
14
  3
DIFFUSETILE
360
13
  3
OPACITYTILE
360
17
  3
REFLECTIONTILE
360
16
  3
REFRACTIONTILE
360
18
  3
SPECULARTILE
360
15
  0
DICTIONARY
  5
22
330
21
100
AcDbDictionary
280
     1
281
     1
  3
BUMPTILE
360
24
  3
DIFFUSETILE
360
23
  3
OPACITYTILE
360
27
  3
REFLECTIONTILE
360
26
  3
REFRACTIONTILE
360
28
  3
SPECULARTILE
360
25
  0
DICTIONARY
  5
344
330
65
100
AcDbDictionary
280
     1
281
     1
  3
ACAD_ROUNDTRIP_2008_TABLESTYLE_CELLSTYLEMAP
360
345
  0
XRECORD
  5
1C
102
{ACAD_REACTORS
330
1A
102
}
330
1A
100
AcDbXrecord
280
     1
270
     1
271
     1
  0
XRECORD
  5
1B
102
{ACAD_REACTORS
330
1A
102
}
330
1A
100
AcDbXrecord
280
     1
270
     1
271
     1
  0
XRECORD
  5
1F
102
{ACAD_REACTORS
330
1A
102
}
330
1A
100
AcDbXrecord
280
     1
270
     1
271
     1
  0
XRECORD
  5
1E
102
{ACAD_REACTORS
330
1A
102
}
330
1A
100
AcDbXrecord
280
     1
270
     1
271
     1
  0
XRECORD
  5
20
102
{ACAD_REACTORS
330
1A
102
}
330
1A
100
AcDbXrecord
280
     1
270
     1
271
     1
  0
XRECORD
  5
1D
102
{ACAD_REACTORS
330
1A
102
}
330
1A
100
AcDbXrecord
280
     1
270
     1
271
     1
  0
XRECORD
  5
14
102
{ACAD_REACTORS
330
12
102
}
330
12
100
AcDbXrecord
280
     1
270
     1
271
     1
  0
XRECORD
  5
13
102
{ACAD_REACTORS
330
12
102
}
330
12
100
AcDbXrecord
280
     1
270
     1
271
     1
  0
XRECORD
  5
17
102
{ACAD_REACTORS
330
12
102
}
330
12
100
AcDbXrecord
280
     1
270
     1
271
     1
  0
XRECORD
  5
16
102
{ACAD_REACTORS
330
12
102
}
330
12
100
AcDbXrecord
280
     1
270
     1
271
     1
  0
XRECORD
  5
18
102
{ACAD_REACTORS
330
12
102
}
330
12
100
AcDbXrecord
280
     1
270
     1
271
     1
  0
XRECORD
  5
15
102
{ACAD_REACTORS
330
12
102
}
330
12
100
AcDbXrecord
280
     1
270
     1
271
     1
  0
XRECORD
  5
24
102
{ACAD_REACTORS
330
22
102
}
330
22
100
AcDbXrecord
280
     1
270
     1
271
     1
  0
XRECORD
  5
23
102
{ACAD_REACTORS
330
22
102
}
330
22
100
AcDbXrecord
280
     1
270
     1
271
     1
  0
XRECORD
  5
27
102
{ACAD_REACTORS
330
22
102
}
330
22
100
AcDbXrecord
280
     1
270
     1
271
     1
  0
XRECORD
  5
26
102
{ACAD_REACTORS
330
22
102
}
330
22
100
AcDbXrecord
280
     1
270
     1
271
     1
  0
XRECORD
  5
28
102
{ACAD_REACTORS
330
22
102
}
330
22
100
AcDbXrecord
280
     1
270
     1
271
     1
  0
XRECORD
  5
25
102
{ACAD_REACTORS
330
22
102
}
330
22
100
AcDbXrecord
280
     1
270
     1
271
     1
  0
CELLSTYLEMAP
  5
345
102
{ACAD_REACTORS
330
344
102
}
330
344
100
AcDbCellStyleMap
 90
        3
300
CELLSTYLE
  1
TABLEFORMAT_BEGIN
 90
        5
170
     1
 91
        0
 92
    32768
 62
   257
 93
        1
300
CONTENTFORMAT
  1
CONTENTFORMAT_BEGIN
 90
        0
 91
        0
 92
      512
 93
        0
300

 40
0.0
140
1.0
 94
        5
 62
     0
340
55
144
0.25
309
CONTENTFORMAT_END
171
     0
 94
        0
309
TABLEFORMAT_END
  1
CELLSTYLE_BEGIN
 90
        1
 91
        1
300
_TITLE
309
CELLSTYLE_END
300
CELLSTYLE
  1
TABLEFORMAT_BEGIN
 90
        5
170
     1
 91
        0
 92
        0
 62
   257
 93
        1
300
CONTENTFORMAT
  1
CONTENTFORMAT_BEGIN
 90
        0
 91
        0
 92
      512
 93
        0
300

 40
0.0
140
1.0
 94
        5
 62
     0
340
55
144
0.18
309
CONTENTFORMAT_END
171
     0
 94
        0
309
TABLEFORMAT_END
  1
CELLSTYLE_BEGIN
 90
        2
 91
        1
300
_HEADER
309
CELLSTYLE_END
300
CELLSTYLE
  1
TABLEFORMAT_BEGIN
 90
        5
170
     1
 91
        0
 92
        0
 62
   257
 93
        1
300
CONTENTFORMAT
  1
CONTENTFORMAT_BEGIN
 90
        0
 91
        0
 92
      512
 93
        0
300

 40
0.0
140
1.0
 94
        2
 62
     0
340
55
144
0.18
309
CONTENTFORMAT_END
171
     0
 94
        0
309
TABLEFORMAT_END
  1
CELLSTYLE_BEGIN
 90
        3
 91
        2
300
_DATA
309
CELLSTYLE_END
  0
ENDSEC
  0
SECTION
  2
ACDSDATA
 70
     2
 71
     8
  0
ACDSSCHEMA
 90
        0
  1
AcDb_Thumbnail_Schema
  2
AcDbDs::ID
280
    10
 91
        8
  2
Thumbnail_Data
280
    15
 91
        0
101
ACDSRECORD
 95
        0
 90
        1
  2
AcDbDs::TreatedAsObjectData
280
     1
291
     1
101
ACDSRECORD
 95
        0
 90
        2
  2
AcDbDs::Legacy
280
     1
291
     1
101
ACDSRECORD
  1
AcDbDs::ID
 90
        3
  2
AcDs:Indexable
280
     1
291
     1
101
ACDSRECORD
  1
AcDbDs::ID
 90
        4
  2
AcDbDs::HandleAttribute
280
     7
282
     1
  0
ACDSSCHEMA
 90
        1
  1
AcDbDs::TreatedAsObjectDataSchema
  2
AcDbDs::TreatedAsObjectData
280
     1
 91
        0
  0
ACDSSCHEMA
 90
        2
  1
AcDbDs::LegacySchema
  2
AcDbDs::Legacy
280
     1
 91
        0
  0
ACDSSCHEMA
 90
        3
  1
AcDbDs::IndexedPropertySchema
  2
AcDs:Indexable
280
     1
 91
        0
  0
ACDSSCHEMA
 90
        4
  1
AcDbDs::HandleAttributeSchema
  2
AcDbDs::HandleAttribute
280
     7
 91
        1
284
     1
  0
ACDSRECORD
 90
        0
  2
AcDbDs::ID
280
    10
320
6F
  2
Thumbnail_Data
280
    15
 94
     1643
310
89504E470D0A1A0A0000000D4948445200000100000000B5080300000087DCD12600000300504C5445FFFFFFFFFFFFFFFFFF0000000000000000000000000000000000000000000000000000330000660000990000CC0000FF0033000033330033660033990033CC0033FF0066000066330066660066990066CC0066FF0099
310
000099330099660099990099CC0099FF00CC0000CC3300CC6600CC9900CCCC00CCFF00FF0000FF3300FF6600FF9900FFCC00FFFF3300003300333300663300993300CC3300FF3333003333333333663333993333CC3333FF3366003366333366663366993366CC3366FF3399003399333399663399993399CC3399FF33CC00
310
33CC3333CC6633CC9933CCCC33CCFF33FF0033FF3333FF6633FF9933FFCC33FFFF6600006600336600666600996600CC6600FF6633006633336633666633996633CC6633FF6666006666336666666666996666CC6666FF6699006699336699666699996699CC6699FF66CC0066CC3366CC6666CC9966CCCC66CCFF66FF0066
310
FF3366FF6666FF9966FFCC66FFFF9900009900339900669900999900CC9900FF9933009933339933669933999933CC9933FF9966009966339966669966999966CC9966FF9999009999339999669999999999CC9999FF99CC0099CC3399CC6699CC9999CCCC99CCFF99FF0099FF3399FF6699FF9999FFCC99FFFFCC0000CC00
310
33CC0066CC0099CC00CCCC00FFCC3300CC3333CC3366CC3399CC33CCCC33FFCC6600CC6633CC6666CC6699CC66CCCC66FFCC9900CC9933CC9966CC9999CC99CCCC99FFCCCC00CCCC33CCCC66CCCC99CCCCCCCCCCFFCCFF00CCFF33CCFF66CCFF99CCFFCCCCFFFFFF0000FF0033FF0066FF0099FF00CCFF00FFFF3300FF3333
310
FF3366FF3399FF33CCFF33FFFF6600FF6633FF6666FF6699FF66CCFF66FFFF9900FF9933FF9966FF9999FF99CCFF99FFFFCC00FFCC33FFCC66FFCC99FFCCCCFFCCFFFFFF00FFFF33FFFF66FFFF99FFFFCCFFFFFF0000000D0D0D1A1A1A2828283535354343435050505D5D5D6B6B6B787878868686939393A1A1A1AEAEAEBB
310
BBBBC9C9C9D6D6D6E4E4E4F1F1F1FFFFFF000000000000000000000000000000000000000000000000000000000000AD4AB4E4000003264944415478DAEDDDE979C2300C80610DE93D34585761148668439A463E724112BBD6E71F3CA4401CBF95E50368459D1751715D000000000000000000000000000000000000000000
310
00000000000000000000000000000000000000000000000092F2D57AB91CA0F1DF290000000000000000D0228006D700413584E016E0A7EDAAC36D7009F06AB8EA74CF19C0D466D5E8D00BC0DC5CD544C403806DAA6A16147D030C693FAA4BD3A4187A0618D3FE22C0302B1846854E01C298F6E393E71E3FCF399FA03E4008
310
49DE2F028C355F40501B209804179F5D550B1CA713D4054866BBB6C91A01988A4F26A8099025767BFAF87BBAC99020E70D09F500F2BC6FDBA991405AEF892BA55A00F374BF787E95E8ABDA25A9F012FCF8DBE05500A6CCB701600E8BA172C204B10AC07CDD59BBA60A5E6DD7F9307FDE492BA50A00B6F32E03A8EC02F898E0
310
768038F1E70D1B6B78FD7CBCF93B5CCA96F2D12AE15E809026FE0580B1168D3AC332C070F07618DC0910F2C45F68D96FFAB300C567693E24340D10CE19B456CA7B04370184EBDBFF4BD0F23CA018CA85901E93DF43656D77A07082F62742872EEC71BC29CD8F02174740C9D92780BD5C00E802FE0066026F4970FE836FF10A
310
2AF248C2A33380F48EBDE83F80E88444800B00A10B38EF024217700EA0003401A037CE04F7BC427A06F03915CE16817E1743FBD7C3BD036C5EEECD3920EC29F316EF91B200B005D74C04489AC20EEF6E2EFEDAB52180702004F48308884701FD9F11702C074439639A07A86EBEB64D805245EF009801D16704C8B640F700B2
310
D10DAA006CCC54CB0FBF0BB011041E0056052A01CCFB568B0BDBA35D606D35B8D20DBA0230FB0169149920881FF30220E9F658A700E6ECD9A7AD4DE5E6B8D7089042224D52B0B32E10EF9378EC02E968E03102926EE0681E20CBDB85EE00D2B708FB0178EC7E5F40BD03D8F78A7D02D8DADBFDA4E86DE57A80B9AE678BE57A
310
8067DBE5CE0870DA05A4ED020000000000000000000000000000000000005C00E0FDFF0BF45500000000000000000000000000000000000000000000000000000000000000000000000000000000000000000000000000000000A05F00E7459ECECB3735A514F52FADE5E50000000049454E44AE426082
  0
ACDSRECORD
 90
        0
  2
AcDbDs::ID
280
    10
320
73
  2
Thumbnail_Data
280
    15
 94
     1367
310
89504E470D0A1A0A0000000D494844520000010000000065080300000095E2CD0900000300504C5445FFFFFFFFFFFFFFFFFF0000000000000000000000000000000000000000000000000000330000660000990000CC0000FF0033000033330033660033990033CC0033FF0066000066330066660066990066CC0066FF0099
310
000099330099660099990099CC0099FF00CC0000CC3300CC6600CC9900CCCC00CCFF00FF0000FF3300FF6600FF9900FFCC00FFFF3300003300333300663300993300CC3300FF3333003333333333663333993333CC3333FF3366003366333366663366993366CC3366FF3399003399333399663399993399CC3399FF33CC00
310
33CC3333CC6633CC9933CCCC33CCFF33FF0033FF3333FF6633FF9933FFCC33FFFF6600006600336600666600996600CC6600FF6633006633336633666633996633CC6633FF6666006666336666666666996666CC6666FF6699006699336699666699996699CC6699FF66CC0066CC3366CC6666CC9966CCCC66CCFF66FF0066
310
FF3366FF6666FF9966FFCC66FFFF9900009900339900669900999900CC9900FF9933009933339933669933999933CC9933FF9966009966339966669966999966CC9966FF9999009999339999669999999999CC9999FF99CC0099CC3399CC6699CC9999CCCC99CCFF99FF0099FF3399FF6699FF9999FFCC99FFFFCC0000CC00
310
33CC0066CC0099CC00CCCC00FFCC3300CC3333CC3366CC3399CC33CCCC33FFCC6600CC6633CC6666CC6699CC66CCCC66FFCC9900CC9933CC9966CC9999CC99CCCC99FFCCCC00CCCC33CCCC66CCCC99CCCCCCCCCCFFCCFF00CCFF33CCFF66CCFF99CCFFCCCCFFFFFF0000FF0033FF0066FF0099FF00CCFF00FFFF3300FF3333
310
FF3366FF3399FF33CCFF33FFFF6600FF6633FF6666FF6699FF66CCFF66FFFF9900FF9933FF9966FF9999FF99CCFF99FFFFCC00FFCC33FFCC66FFCC99FFCCCCFFCCFFFFFF00FFFF33FFFF66FFFF99FFFFCCFFFFFF0000000D0D0D1A1A1A2828283535354343435050505D5D5D6B6B6B787878868686939393A1A1A1AEAEAEBB
310
BBBBC9C9C9D6D6D6E4E4E4F1F1F1FFFFFF000000000000000000000000000000000000000000000000000000000000AD4AB4E4000002124944415478DAED9B0D6E83300C467DFFCBEC229CC2275905E4C7C1A6291524B5BFA7A9EBE898F43D6227A11D11000000000000E019F845F0F88115ACD1D7AF900AF6D8FB43380539
310
F1FE3D98822A6C7E1A46411354B80820E190B1B1C1E45AC196DE1A01446956707EF14D01AFECD982EBD217A19586E8AE17B4DDAD697C7200F89B1394E65EE6BE3A69DB1D7D2860ADB38BC93F5DF87A00D41B85CBCCB6DE550CF036F1D1B137A666F8450E9E26BE2960CD9EE7457D985C77C03394BE5ADDE9C87AE5C513B54E
310
AE2AE069E29B02CA6E90D816D0CC95BF20A06E6D86004ABF9104E88ECC15F4CC02F8467E4000CFC3C80EB0F0BB3B01DBD05FEC9DE1F766872FFE3A586E0C347416E03B46C0516F54017D11210025E04D80D115AB1FC44B0E059058358A7716B4439E47C061B3146504ECB757E20A085E021801D105FC4E13E4F002963B5782
310
9D9FACF12C60FABDC04302DE9C1040C069CAC102EEBCC7C75D313D0BA80FD813CE9425D084A0EE12A8FF649EF34E93061050DE638D2A20A5544F8C2180EC329840C0D98A4D7BED8A00DBC0047B814704101B270F1540559BB204D06725C02777457362B159F227A0DC1162B9E5CC0694EE106004D465E07D0494C7F6A387C7
310
CE12A9049A5618B00448FCE7454C016555E85680B10E20E34E5140017255E84DC0D22140440F29406C11430AD816C4C304F06C3C2DE06F36300200000000000000000000000000000000000AFF379A63D0854CA07B0000000049454E44AE426082
  0
ENDSEC
  0
EOF
