  0
SECTION
  2
HEADER
  9
$ACADVER
  1
AC1032
  9
$ACADMAINTVER
 90
      204
  9
$DWGCODEPAGE
  3
ANSI_1252
  9
$LASTSAVEDBY
  1
duda-
  9
$REQUIREDVERSIONS
160
                 0
  9
$INSBASE
 10
0.0
 20
0.0
 30
0.0
  9
$EXTMIN
 10
-1140.938578098912
 20
-25590.78248987925
 30
0.0
  9
$EXTMAX
 10
5559.061421901144
 20
-390.7824898792013
 30
0.0
  9
$LIMMIN
 10
0.0
 20
0.0
  9
$LIMMAX
 10
12.0
 20
9.0
  9
$ORTHOMODE
 70
     0
  9
$REGENMODE
 70
     1
  9
$FILLMODE
 70
     1
  9
$QTEXTMODE
 70
     0
  9
$MIRRTEXT
 70
     0
  9
$LTSCALE
 40
1.0
  9
$ATTMODE
 70
     1
  9
$TEXTSIZE
 40
0.2
  9
$TRACEWID
 40
0.05
  9
$TEXTSTYLE
  7
Standard
  9
$CLAYER
  8
0
  9
$CELTYPE
  6
ByLayer
  9
$CECOLOR
 62
   256
  9
$CELTSCALE
 40
1.0
  9
$DISPSILH
 70
     0
  9
$DIMSCALE
 40
1.0
  9
$DIMASZ
 40
0.18
  9
$DIMEXO
 40
0.0625
  9
$DIMDLI
 40
0.38
  9
$DIMRND
 40
0.0
  9
$DIMDLE
 40
0.0
  9
$DIMEXE
 40
0.18
  9
$DIMTP
 40
0.0
  9
$DIMTM
 40
0.0
  9
$DIMTXT
 40
0.18
  9
$DIMCEN
 40
0.09
  9
$DIMTSZ
 40
0.0
  9
$DIMTOL
 70
     0
  9
$DIMLIM
 70
     0
  9
$DIMTIH
 70
     1
  9
$DIMTOH
 70
     1
  9
$DIMSE1
 70
     0
  9
$DIMSE2
 70
     0
  9
$DIMTAD
 70
     0
  9
$DIMZIN
 70
     0
  9
$DIMBLK
  1

  9
$DIMASO
 70
     1
  9
$DIMSHO
 70
     1
  9
$DIMPOST
  1

  9
$DIMAPOST
  1

  9
$DIMALT
 70
     0
  9
$DIMALTD
 70
     2
  9
$DIMALTF
 40
25.4
  9
$DIMLFAC
 40
1.0
  9
$DIMTOFL
 70
     0
  9
$DIMTVP
 40
0.0
  9
$DIMTIX
 70
     0
  9
$DIMSOXD
 70
     0
  9
$DIMSAH
 70
     0
  9
$DIMBLK1
  1

  9
$DIMBLK2
  1

  9
$DIMSTYLE
  2
Standard
  9
$DIMCLRD
 70
     0
  9
$DIMCLRE
 70
     0
  9
$DIMCLRT
 70
     0
  9
$DIMTFAC
 40
1.0
  9
$DIMGAP
 40
0.09
  9
$DIMJUST
 70
     0
  9
$DIMSD1
 70
     0
  9
$DIMSD2
 70
     0
  9
$DIMTOLJ
 70
     1
  9
$DIMTZIN
 70
     0
  9
$DIMALTZ
 70
     0
  9
$DIMALTTZ
 70
     0
  9
$DIMUPT
 70
     0
  9
$DIMDEC
 70
     4
  9
$DIMTDEC
 70
     4
  9
$DIMALTU
 70
     2
  9
$DIMALTTD
 70
     2
  9
$DIMTXSTY
  7
Standard
  9
$DIMAUNIT
 70
     0
  9
$DIMADEC
 70
     0
  9
$DIMALTRND
 40
0.0
  9
$DIMAZIN
 70
     0
  9
$DIMDSEP
 70
    46
  9
$DIMATFIT
 70
     3
  9
$DIMFRAC
 70
     0
  9
$DIMLDRBLK
  1

  9
$DIMLUNIT
 70
     2
  9
$DIMLWD
 70
    -2
  9
$DIMLWE
 70
    -2
  9
$DIMTMOVE
 70
     0
  9
$DIMFXL
 40
1.0
  9
$DIMFXLON
 70
     0
  9
$DIMJOGANG
 40
0.7853981633974483
  9
$DIMTFILL
 70
     0
  9
$DIMTFILLCLR
 70
     0
  9
$DIMARCSYM
 70
     0
  9
$DIMLTYPE
  6

  9
$DIMLTEX1
  6

  9
$DIMLTEX2
  6

  9
$DIMTXTDIRECTION
 70
     0
  9
$LUNITS
 70
     2
  9
$LUPREC
 70
     4
  9
$SKETCHINC
 40
0.1
  9
$FILLETRAD
 40
0.0
  9
$AUNITS
 70
     0
  9
$AUPREC
 70
     0
  9
$MENU
  1
.
  9
$ELEVATION
 40
0.0
  9
$PELEVATION
 40
0.0
  9
$THICKNESS
 40
0.0
  9
$LIMCHECK
 70
     0
  9
$CHAMFERA
 40
0.0
  9
$CHAMFERB
 40
0.0
  9
$CHAMFERC
 40
0.0
  9
$CHAMFERD
 40
0.0
  9
$SKPOLY
 70
     0
  9
$TDCREATE
 40
2460730.600578704
  9
$TDUCREATE
 40
2460730.725578704
  9
$TDUPDATE
 40
2460738.998356482
  9
$TDUUPDATE
 40
2460739.123356482
  9
$TDINDWG
 40
0.0562500000
  9
$TDUSRTIMER
 40
0.0562500000
  9
$USRTIMER
 70
     1
  9
$ANGBASE
 50
0.0
  9
$ANGDIR
 70
     0
  9
$PDMODE
 70
     0
  9
$PDSIZE
 40
0.0
  9
$PLINEWID
 40
0.0
  9
$SPLFRAME
 70
     0
  9
$SPLINETYPE
 70
     6
  9
$SPLINESEGS
 70
     8
  9
$HANDSEED
  5
2EC
  9
$SURFTAB1
 70
     6
  9
$SURFTAB2
 70
     6
  9
$SURFTYPE
 70
     6
  9
$SURFU
 70
     6
  9
$SURFV
 70
     6
  9
$UCSBASE
  2

  9
$UCSNAME
  2

  9
$UCSORG
 10
0.0
 20
0.0
 30
0.0
  9
$UCSXDIR
 10
1.0
 20
0.0
 30
0.0
  9
$UCSYDIR
 10
0.0
 20
1.0
 30
0.0
  9
$UCSORTHOREF
  2

  9
$UCSORTHOVIEW
 70
     0
  9
$UCSORGTOP
 10
0.0
 20
0.0
 30
0.0
  9
$UCSORGBOTTOM
 10
0.0
 20
0.0
 30
0.0
  9
$UCSORGLEFT
 10
0.0
 20
0.0
 30
0.0
  9
$UCSORGRIGHT
 10
0.0
 20
0.0
 30
0.0
  9
$UCSORGFRONT
 10
0.0
 20
0.0
 30
0.0
  9
$UCSORGBACK
 10
0.0
 20
0.0
 30
0.0
  9
$PUCSBASE
  2

  9
$PUCSNAME
  2

  9
$PUCSORG
 10
0.0
 20
0.0
 30
0.0
  9
$PUCSXDIR
 10
1.0
 20
0.0
 30
0.0
  9
$PUCSYDIR
 10
0.0
 20
1.0
 30
0.0
  9
$PUCSORTHOREF
  2

  9
$PUCSORTHOVIEW
 70
     0
  9
$PUCSORGTOP
 10
0.0
 20
0.0
 30
0.0
  9
$PUCSORGBOTTOM
 10
0.0
 20
0.0
 30
0.0
  9
$PUCSORGLEFT
 10
0.0
 20
0.0
 30
0.0
  9
$PUCSORGRIGHT
 10
0.0
 20
0.0
 30
0.0
  9
$PUCSORGFRONT
 10
0.0
 20
0.0
 30
0.0
  9
$PUCSORGBACK
 10
0.0
 20
0.0
 30
0.0
  9
$USERI1
 70
     0
  9
$USERI2
 70
     0
  9
$USERI3
 70
     0
  9
$USERI4
 70
     0
  9
$USERI5
 70
     0
  9
$USERR1
 40
0.0
  9
$USERR2
 40
0.0
  9
$USERR3
 40
0.0
  9
$USERR4
 40
0.0
  9
$USERR5
 40
0.0
  9
$WORLDVIEW
 70
     1
  9
$SHADEDGE
 70
     3
  9
$SHADEDIF
 70
    70
  9
$TILEMODE
 70
     1
  9
$MAXACTVP
 70
    64
  9
$PINSBASE
 10
0.0
 20
0.0
 30
0.0
  9
$PLIMCHECK
 70
     0
  9
$PEXTMIN
 10
64.27901684485153
 20
59.47287840171589
 30
-0.0015258207003583
  9
$PEXTMAX
 10
274.3012221009852
 20
356.5108803466415
 30
0.0000000349246037
  9
$PLIMMIN
 10
64.27901684485153
 20
59.47287840171589
  9
$PLIMMAX
 10
484.5984757423225
 20
356.6684553999278
  9
$UNITMODE
 70
     0
  9
$VISRETAIN
 70
     1
  9
$PLINEGEN
 70
     0
  9
$PSLTSCALE
 70
     0
  9
$TREEDEPTH
 70
  3020
  9
$CMLSTYLE
  2
Standard
  9
$CMLJUST
 70
     0
  9
$CMLSCALE
 40
1.0
  9
$PROXYGRAPHICS
 70
     1
  9
$MEASUREMENT
 70
     1
  9
$CELWEIGHT
370
    -1
  9
$ENDCAPS
280
     0
  9
$JOINSTYLE
280
     0
  9
$LWDISPLAY
290
     0
  9
$INSUNITS
 70
     4
  9
$HYPERLINKBASE
  1

  9
$STYLESHEET
  1

  9
$XEDIT
290
     1
  9
$CEPSNTYPE
380
     0
  9
$PSTYLEMODE
290
     1
  9
$FINGERPRINTGUID
  2
{E010E15E-F6D9-2943-9C3A-AE00A5DAE5D6}
  9
$VERSIONGUID
  2
{CA05CFB8-15E6-DE48-A8FB-DCE501B017A5}
  9
$EXTNAMES
290
     1
  9
$PSVPSCALE
 40
0.0
  9
$OLESTARTUP
290
     0
  9
$SORTENTS
280
   127
  9
$INDEXCTL
280
     0
  9
$HIDETEXT
280
     1
  9
$XCLIPFRAME
280
     2
  9
$HALOGAP
280
     0
  9
$OBSCOLOR
 70
   257
  9
$OBSLTYPE
280
     0
  9
$INTERSECTIONDISPLAY
280
     0
  9
$INTERSECTIONCOLOR
 70
   257
  9
$DIMASSOC
280
     2
  9
$PROJECTNAME
  1

  9
$CAMERADISPLAY
290
     0
  9
$LENSLENGTH
 40
50.0
  9
$CAMERAHEIGHT
 40
0.0
  9
$STEPSPERSEC
 40
2.0
  9
$STEPSIZE
 40
6.0
  9
$3DDWFPREC
 40
2.0
  9
$PSOLWIDTH
 40
0.25
  9
$PSOLHEIGHT
 40
4.0
  9
$LOFTANG1
 40
1.570796326794896
  9
$LOFTANG2
 40
1.570796326794896
  9
$LOFTMAG1
 40
0.0
  9
$LOFTMAG2
 40
0.0
  9
$LOFTPARAM
 70
     7
  9
$LOFTNORMALS
280
     1
  9
$LATITUDE
 40
0.0
  9
$LONGITUDE
 40
0.0
  9
$NORTHDIRECTION
 40
0.0
  9
$TIMEZONE
 70
     0
  9
$LIGHTGLYPHDISPLAY
280
     1
  9
$TILEMODELIGHTSYNCH
280
     1
  9
$CMATERIAL
347
11
  9
$SOLIDHIST
280
     0
  9
$SHOWHIST
280
     1
  9
$DWFFRAME
280
     2
  9
$DGNFRAME
280
     0
  9
$REALWORLDSCALE
290
     1
  9
$INTERFERECOLOR
 62
     1
  9
$INTERFEREOBJVS
345
33
  9
$INTERFEREVPVS
346
30
  9
$CSHADOW
280
     0
  9
$SHADOWPLANELOCATION
 40
0.0
  0
ENDSEC
  0
SECTION
  2
CLASSES
  0
CLASS
  1
ACDBDICTIONARYWDFLT
  2
AcDbDictionaryWithDefault
  3
ObjectDBX Classes
 90
        0
 91
        1
280
     0
281
     0
  0
CLASS
  1
MATERIAL
  2
AcDbMaterial
  3
ObjectDBX Classes
 90
     1153
 91
        3
280
     0
281
     0
  0
CLASS
  1
VISUALSTYLE
  2
AcDbVisualStyle
  3
ObjectDBX Classes
 90
     4095
 91
       24
280
     0
281
     0
  0
CLASS
  1
SCALE
  2
AcDbScale
  3
ObjectDBX Classes
 90
     1153
 91
       17
280
     0
281
     0
  0
CLASS
  1
TABLESTYLE
  2
AcDbTableStyle
  3
ObjectDBX Classes
 90
     4095
 91
        1
280
     0
281
     0
  0
CLASS
  1
MLEADERSTYLE
  2
AcDbMLeaderStyle
  3
ACDB_MLEADERSTYLE_CLASS
 90
     4095
 91
        1
280
     0
281
     0
  0
CLASS
  1
ACDBSECTIONVIEWSTYLE
  2
AcDbSectionViewStyle
  3
ObjectDBX Classes
 90
     1025
 91
        2
280
     0
281
     0
  0
CLASS
  1
ACDBDETAILVIEWSTYLE
  2
AcDbDetailViewStyle
  3
ObjectDBX Classes
 90
     1025
 91
        2
280
     0
281
     0
  0
CLASS
  1
RASTERVARIABLES
  2
AcDbRasterVariables
  3
ISM
 90
        0
 91
        1
280
     0
281
     0
  0
CLASS
  1
DICTIONARYVAR
  2
AcDbDictionaryVar
  3
ObjectDBX Classes
 90
        0
 91
        5
280
     0
281
     0
  0
CLASS
  1
SORTENTSTABLE
  2
AcDbSortentsTable
  3
ObjectDBX Classes
 90
        0
 91
        1
280
     0
281
     0
  0
CLASS
  1
SUN
  2
AcDbSun
  3
SCENEOE
 90
     1153
 91
        1
280
     0
281
     0
  0
CLASS
  1
RAPIDRTRENDERSETTINGS
  2
AcDbRapidRTRenderSettings
  3
ObjectDBX Classes
 90
     1024
 91
        7
280
     0
281
     0
  0
CLASS
  1
CELLSTYLEMAP
  2
AcDbCellStyleMap
  3
ObjectDBX Classes
 90
     1152
 91
        2
280
     0
281
     0
  0
ENDSEC
  0
SECTION
  2
TABLES
  0
TABLE
  2
VPORT
  5
8
330
0
100
AcDbSymbolTable
 70
     1
  0
VPORT
  5
57
330
8
100
AcDbSymbolTableRecord
100
AcDbViewportTableRecord
  2
*Active
 70
     0
 10
0.0
 20
0.0
 11
1.0
 21
1.0
 12
8327.631756595991
 22
-16709.76461892211
 13
0.0
 23
0.0
 14
1.0
 24
1.0
 15
0.0
 25
0.0
 16
0.0
 26
0.0
 36
1.0
 17
0.0
 27
0.0
 37
0.0
 40
40931.53924739221
 41
2.531208499335989
 42
50.0
 43
0.0
 44
0.0
 50
0.0
 51
0.0
 71
     0
 72
  1000
 73
     1
 74
     1
 75
     0
 76
     0
 77
     0
 78
     0
281
     0
 65
     1
110
0.0
120
0.0
130
0.0
111
1.0
121
0.0
131
0.0
112
0.0
122
1.0
132
0.0
 79
     0
146
0.0
348
2F
 60
     3
 61
     5
292
     1
282
     1
141
0.0
142
0.0
 63
   250
421
  3355443
361
227
1001
ACAD_NAV_VCDISPLAY
1070
     3
  0
ENDTAB
  0
TABLE
  2
LTYPE
  5
5
330
0
100
AcDbSymbolTable
 70
     2
  0
LTYPE
  5
5B
330
5
100
AcDbSymbolTableRecord
100
AcDbLinetypeTableRecord
  2
ByBlock
 70
     0
  3

 72
    65
 73
     0
 40
0.0
  0
LTYPE
  5
5C
330
5
100
AcDbSymbolTableRecord
100
AcDbLinetypeTableRecord
  2
ByLayer
 70
     0
  3

 72
    65
 73
     0
 40
0.0
  0
LTYPE
  5
5D
330
5
100
AcDbSymbolTableRecord
100
AcDbLinetypeTableRecord
  2
Continuous
 70
     0
  3
Solid line
 72
    65
 73
     0
 40
0.0
  0
LTYPE
  5
85
330
5
100
AcDbSymbolTableRecord
100
AcDbLinetypeTableRecord
  2
Projeção
 70
     0
  3

 72
    65
 73
     2
 40
396.875
 49
238.125
 74
     0
 49
-158.7499999999999
 74
     0
  0
ENDTAB
  0
TABLE
  2
LAYER
  5
2
102
{ACAD_XDICTIONARY
360
244
102
}
330
0
100
AcDbSymbolTable
 70
     5
  0
LAYER
  5
54
330
2
100
AcDbSymbolTableRecord
100
AcDbLayerTableRecord
  2
0
 70
     0
 62
   250
  6
Continuous
370
    25
390
F
347
21
348
0
  0
LAYER
  5
210
330
2
100
AcDbSymbolTableRecord
100
AcDbLayerTableRecord
  2
A-POR-___-___-EXI
 70
     0
 62
   250
  6
Continuous
370
    25
390
F
347
21
348
0
  0
LAYER
  5
216
330
2
100
AcDbSymbolTableRecord
100
AcDbLayerTableRecord
  2
A-JAN-___-___-EXI
 70
     0
 62
   250
  6
Continuous
370
    25
390
F
347
21
348
0
  0
LAYER
  5
218
330
2
100
AcDbSymbolTableRecord
100
AcDbLayerTableRecord
  2
A-ESC-___-___-EXI
 70
     0
 62
   250
  6
Continuous
370
    25
390
F
347
21
348
0
  0
LAYER
  5
27D
330
2
100
AcDbSymbolTableRecord
100
AcDbLayerTableRecord
  2
A-ALV-___-___-EXI
 70
     0
 62
   250
  6
Continuous
370
    35
390
F
347
21
348
0
1001
AcAecLayerStandard
1000

1000

1001
AcCmTransparency
1071
        0
  0
ENDTAB
  0
TABLE
  2
STYLE
  5
3
330
0
100
AcDbSymbolTable
 70
     2
  0
STYLE
  5
55
330
3
100
AcDbSymbolTableRecord
100
AcDbTextStyleTableRecord
  2
Standard
 70
     0
 40
0.0
 41
1.0
 50
0.0
 71
     0
 42
0.2
  3
txt
  4

  0
STYLE
  5
5A
330
3
100
AcDbSymbolTableRecord
100
AcDbTextStyleTableRecord
  2
Annotative
 70
     0
 40
0.0
 41
1.0
 50
0.0
 71
     0
 42
0.2
  3
txt
  4

1001
AcadAnnotative
1000
AnnotativeData
1002
{
1070
     1
1070
     1
1002
}
  0
ENDTAB
  0
TABLE
  2
VIEW
  5
6
330
0
100
AcDbSymbolTable
 70
     1
  0
ENDTAB
  0
TABLE
  2
UCS
  5
7
330
0
100
AcDbSymbolTable
 70
     0
  0
ENDTAB
  0
TABLE
  2
APPID
  5
9
330
0
100
AcDbSymbolTable
 70
     7
  0
APPID
  5
56
330
9
100
AcDbSymbolTableRecord
100
AcDbRegAppTableRecord
  2
ACAD
 70
     0
  0
APPID
  5
5E
330
9
100
AcDbSymbolTableRecord
100
AcDbRegAppTableRecord
  2
AcadAnnotative
 70
     0
  0
APPID
  5
78
330
9
100
AcDbSymbolTableRecord
100
AcDbRegAppTableRecord
  2
REVIT
 70
     0
  0
APPID
  5
237
330
9
100
AcDbSymbolTableRecord
100
AcDbRegAppTableRecord
  2
ACAD_PSEXT
 70
     0
  0
APPID
  5
275
330
9
100
AcDbSymbolTableRecord
100
AcDbRegAppTableRecord
  2
ACAD_NAV_VCDISPLAY
 70
     0
  0
APPID
  5
27E
330
9
100
AcDbSymbolTableRecord
100
AcDbRegAppTableRecord
  2
AcAecLayerStandard
 70
     0
  0
APPID
  5
27F
330
9
100
AcDbSymbolTableRecord
100
AcDbRegAppTableRecord
  2
AcCmTransparency
 70
     0
  0
ENDTAB
  0
TABLE
  2
DIMSTYLE
  5
A
330
0
100
AcDbSymbolTable
 70
     2
100
AcDbDimStyleTable
 71
     0
  0
DIMSTYLE
105
58
330
A
100
AcDbSymbolTableRecord
100
AcDbDimStyleTableRecord
  2
Standard
 70
     0
340
55
  0
DIMSTYLE
105
59
330
A
100
AcDbSymbolTableRecord
100
AcDbDimStyleTableRecord
  2
Annotative
 70
     0
340
55
1001
AcadAnnotative
1000
AnnotativeData
1002
{
1070
     1
1070
     1
1002
}
  0
ENDTAB
  0
TABLE
  2
BLOCK_RECORD
  5
1
330
0
100
AcDbSymbolTable
 70
     1
  0
BLOCK_RECORD
  5
70
102
{ACAD_XDICTIONARY
360
225
102
}
330
1
100
AcDbSymbolTableRecord
100
AcDbBlockTableRecord
  2
*Model_Space
340
73
 70
     0
280
     1
281
     0
  0
BLOCK_RECORD
  5
6C
330
1
100
AcDbSymbolTableRecord
100
AcDbBlockTableRecord
  2
*Paper_Space
340
6F
 70
     0
280
     1
281
     0
  0
BLOCK_RECORD
  5
217
330
1
100
AcDbSymbolTableRecord
100
AcDbBlockTableRecord
  2
SVG - A4-23033332-Não nomeada
340
0
102
{BLKREFS
331
21F
102
}
 70
     0
280
     1
281
     0
  0
ENDTAB
  0
ENDSEC
  0
SECTION
  2
BLOCKS
  0
BLOCK
  5
71
330
70
100
AcDbEntity
  8
0
100
AcDbBlockBegin
  2
*Model_Space
 70
     0
 10
0.0
 20
0.0
 30
0.0
  3
*Model_Space
  1

  0
ENDBLK
  5
72
330
70
100
AcDbEntity
  8
0
100
AcDbBlockEnd
  0
BLOCK
  5
6D
330
6C
100
AcDbEntity
 67
     1
  8
0
100
AcDbBlockBegin
  2
*Paper_Space
 70
     0
 10
0.0
 20
0.0
 30
0.0
  3
*Paper_Space
  1

  0
ENDBLK
  5
6E
330
6C
100
AcDbEntity
 67
     1
  8
0
100
AcDbBlockEnd
  0
BLOCK
  5
21D
330
217
100
AcDbEntity
  8
0
100
AcDbBlockBegin
  2
SVG - A4-23033332-Não nomeada
 70
     0
 10
0.0
 20
0.0
 30
0.0
  3
SVG - A4-23033332-Não nomeada
  1

  0
LINE
  5
219
330
217
100
AcDbEntity
  8
A-ESC-___-___-EXI
100
AcDbLine
 10
64.29285070883699
 20
356.4999999999859
 30
0.0
 11
64.29285070883699
 21
59.49999999998593
 31
0.0
1001
REVIT
1002
{
1070
     1
1000
23033371
1002
}
1002
{
1070
     5
1000
23033332
1002
}
1002
{
1070
     3
1000
-2000281
1002
}
  0
LINE
  5
21A
330
217
100
AcDbEntity
  8
A-ESC-___-___-EXI
100
AcDbLine
 10
64.29285070883699
 20
59.49999999998593
 30
0.0
 11
274.292850708837
 21
59.49999999998593
 31
0.0
1001
REVIT
1002
{
1070
     1
1000
23033371
1002
}
1002
{
1070
     5
1000
23033332
1002
}
1002
{
1070
     3
1000
-2000281
1002
}
  0
LINE
  5
21B
330
217
100
AcDbEntity
  8
A-ESC-___-___-EXI
100
AcDbLine
 10
274.292850708837
 20
59.49999999998593
 30
0.0
 11
274.292850708837
 21
356.4999999999859
 31
0.0
1001
REVIT
1002
{
1070
     1
1000
23033371
1002
}
1002
{
1070
     5
1000
23033332
1002
}
1002
{
1070
     3
1000
-2000281
1002
}
  0
LINE
  5
21C
330
217
100
AcDbEntity
  8
A-ESC-___-___-EXI
100
AcDbLine
 10
274.292850708837
 20
356.4999999999859
 30
0.0
 11
64.29285070883699
 21
356.4999999999859
 31
0.0
1001
REVIT
1002
{
1070
     1
1000
23033371
1002
}
1002
{
1070
     5
1000
23033332
1002
}
1002
{
1070
     3
1000
-2000281
1002
}
  0
ENDBLK
  5
21E
330
217
100
AcDbEntity
  8
0
100
AcDbBlockEnd
  0
ENDSEC
  0
SECTION
  2
ENTITIES
  0
HATCH
  5
8B
330
70
100
AcDbEntity
  8
A-ALV-___-___-EXI
 62
    11
100
AcDbHatch
 10
0.0
 20
0.0
 30
0.0
210
0.0
220
0.0
230
1.0
  2
SOLID
 70
     1
 71
     0
 91
        1
 92
        1
 93
        4
 72
     1
 10
5559.061421901096
 20
-25590.78248987925
 11
5559.061421901132
 21
-390.782489879206
 72
     1
 10
5559.061421901132
 20
-390.7824898792054
 11
5359.061421901134
 21
-390.7824898792036
 72
     1
 10
5359.061421901134
 20
-390.7824898792036
 11
5359.061421901095
 21
-25590.78248987925
 72
     1
 10
5359.061421901095
 20
-25590.78248987925
 11
5559.061421901096
 21
-25590.78248987925
 97
        0
 75
     0
 76
     1
 98
        1
 10
0.0
 20
0.0
450
        0
451
        0
460
0.0
461
0.0
452
        0
462
0.0
453
        0
470

1001
REVIT
1002
{
1070
     1
1000
22868635
1002
}
1002
{
1070
     5
1000
22554474
1002
}
1002
{
1070
     2
1000
-2000011
1002
}
1002
{
1070
     3
1000
-2000588
1002
}
  0
HATCH
  5
90
330
70
100
AcDbEntity
  8
A-ALV-___-___-EXI
 62
    11
100
AcDbHatch
 10
0.0
 20
0.0
 30
0.0
210
0.0
220
0.0
230
1.0
  2
SOLID
 70
     1
 71
     0
 91
        1
 92
        1
 93
        4
 72
     1
 10
5359.061421901138
 20
-590.7824898792013
 11
5359.061421901134
 21
-390.7824898792014
 72
     1
 10
5359.061421901134
 20
-390.7824898792014
 11
4239.061421901127
 21
-390.7824898792013
 72
     1
 10
4239.061421901127
 20
-390.7824898792013
 11
4239.061421901133
 21
-590.7824898792035
 72
     1
 10
4239.061421901133
 20
-590.7824898792035
 11
5359.061421901138
 21
-590.7824898792013
 97
        0
 75
     0
 76
     1
 98
        1
 10
0.0
 20
0.0
450
        0
451
        0
460
0.0
461
0.0
452
        0
462
0.0
453
        0
470

1001
REVIT
1002
{
1070
     1
1000
22868885
1002
}
1002
{
1070
     5
1000
22554474
1002
}
1002
{
1070
     2
1000
-2000011
1002
}
1002
{
1070
     3
1000
-2000588
1002
}
  0
HATCH
  5
95
330
70
100
AcDbEntity
  8
A-ALV-___-___-EXI
 62
    11
100
AcDbHatch
 10
0.0
 20
0.0
 30
0.0
210
0.0
220
0.0
230
1.0
  2
SOLID
 70
     1
 71
     0
 91
        1
 92
        1
 93
        4
 72
     1
 10
3059.061421901121
 20
-9790.782489879216
 11
5359.06142190112
 21
-9790.782489879209
 72
     1
 10
5359.06142190112
 20
-9790.782489879209
 11
5359.06142190112
 21
-9590.782489879211
 72
     1
 10
5359.06142190112
 20
-9590.782489879211
 11
3059.061421901121
 21
-9590.782489879215
 72
     1
 10
3059.061421901121
 20
-9590.782489879215
 11
3059.061421901121
 21
-9790.782489879216
 97
        0
 75
     0
 76
     1
 98
        1
 10
0.0
 20
0.0
450
        0
451
        0
460
0.0
461
0.0
452
        0
462
0.0
453
        0
470

1001
REVIT
1002
{
1070
     1
1000
22869064
1002
}
1002
{
1070
     5
1000
22554474
1002
}
1002
{
1070
     2
1000
-2000011
1002
}
1002
{
1070
     3
1000
-2000588
1002
}
  0
HATCH
  5
9A
330
70
100
AcDbEntity
  8
A-ALV-___-___-EXI
 62
    11
100
AcDbHatch
 10
0.0
 20
0.0
 30
0.0
210
0.0
220
0.0
230
1.0
  2
SOLID
 70
     1
 71
     0
 91
        1
 92
        1
 93
        4
 72
     1
 10
-940.9385780988987
 20
-16090.78248987922
 11
-940.9385780988879
 21
-9790.782489879219
 72
     1
 10
-940.9385780988879
 20
-9790.782489879219
 11
-1140.93857809889
 21
-9790.782489879219
 72
     1
 10
-1140.93857809889
 20
-9790.782489879219
 11
-1140.938578098896
 21
-16090.78248987922
 72
     1
 10
-1140.938578098896
 20
-16090.78248987922
 11
-940.9385780988987
 21
-16090.78248987922
 97
        0
 75
     0
 76
     1
 98
        1
 10
0.0
 20
0.0
450
        0
451
        0
460
0.0
461
0.0
452
        0
462
0.0
453
        0
470

1001
REVIT
1002
{
1070
     1
1000
22869139
1002
}
1002
{
1070
     5
1000
22554474
1002
}
1002
{
1070
     2
1000
-2000011
1002
}
1002
{
1070
     3
1000
-2000588
1002
}
  0
HATCH
  5
9F
330
70
100
AcDbEntity
  8
A-ALV-___-___-EXI
 62
    11
100
AcDbHatch
 10
0.0
 20
0.0
 30
0.0
210
0.0
220
0.0
230
1.0
  2
SOLID
 70
     1
 71
     0
 91
        1
 92
        1
 93
        4
 72
     1
 10
-940.9385780989117
 20
-25590.78248987925
 11
-640.9385780989106
 21
-25590.78248987924
 72
     1
 10
-640.9385780989106
 20
-25590.78248987924
 11
-640.9385780989106
 21
-25390.78248987924
 72
     1
 10
-640.9385780989106
 20
-25390.78248987924
 11
-940.9385780989117
 21
-25390.78248987924
 72
     1
 10
-940.9385780989117
 20
-25390.78248987924
 11
-940.9385780989117
 21
-25590.78248987925
 97
        0
 75
     0
 76
     1
 98
        1
 10
0.0
 20
0.0
450
        0
451
        0
460
0.0
461
0.0
452
        0
462
0.0
453
        0
470

1001
REVIT
1002
{
1070
     1
1000
22869200
1002
}
1002
{
1070
     5
1000
22554474
1002
}
1002
{
1070
     2
1000
-2000011
1002
}
1002
{
1070
     3
1000
-2000588
1002
}
  0
HATCH
  5
A4
330
70
100
AcDbEntity
  8
A-ALV-___-___-EXI
 62
    11
100
AcDbHatch
 10
0.0
 20
0.0
 30
0.0
210
0.0
220
0.0
230
1.0
  2
SOLID
 70
     1
 71
     0
 91
        1
 92
        1
 93
        4
 72
     1
 10
-340.9385780989051
 20
-20810.78248987924
 11
-340.9385780989051
 21
-20610.78248987924
 72
     1
 10
-340.9385780989051
 20
-20610.78248987924
 11
-940.9385780989031
 21
-20610.78248987925
 72
     1
 10
-940.9385780989031
 20
-20610.78248987925
 11
-940.9385780989031
 21
-20810.78248987925
 72
     1
 10
-940.9385780989031
 20
-20810.78248987925
 11
-340.9385780989051
 21
-20810.78248987924
 97
        0
 75
     0
 76
     1
 98
        1
 10
0.0
 20
0.0
450
        0
451
        0
460
0.0
461
0.0
452
        0
462
0.0
453
        0
470

1001
REVIT
1002
{
1070
     1
1000
22869311
1002
}
1002
{
1070
     5
1000
22554474
1002
}
1002
{
1070
     2
1000
-2000011
1002
}
1002
{
1070
     3
1000
-2000588
1002
}
  0
HATCH
  5
A9
330
70
100
AcDbEntity
  8
A-ALV-___-___-EXI
 62
    11
100
AcDbHatch
 10
0.0
 20
0.0
 30
0.0
210
0.0
220
0.0
230
1.0
  2
SOLID
 70
     1
 71
     0
 91
        1
 92
        1
 93
        4
 72
     1
 10
-340.9385780988944
 20
-15290.78248987923
 11
-340.9385780988922
 21
-15090.78248987923
 72
     1
 10
-340.9385780988922
 20
-15090.78248987923
 11
-940.9385780988921
 21
-15090.78248987922
 72
     1
 10
-940.9385780988921
 20
-15090.78248987922
 11
-940.9385780988943
 21
-15290.78248987923
 72
     1
 10
-940.9385780988943
 20
-15290.78248987923
 11
-340.9385780988944
 21
-15290.78248987923
 97
        0
 75
     0
 76
     1
 98
        1
 10
0.0
 20
0.0
450
        0
451
        0
460
0.0
461
0.0
452
        0
462
0.0
453
        0
470

1001
REVIT
1002
{
1070
     1
1000
22869444
1002
}
1002
{
1070
     5
1000
22554474
1002
}
1002
{
1070
     2
1000
-2000011
1002
}
1002
{
1070
     3
1000
-2000588
1002
}
  0
HATCH
  5
AE
330
70
100
AcDbEntity
  8
A-ALV-___-___-EXI
 62
    11
100
AcDbHatch
 10
0.0
 20
0.0
 30
0.0
210
0.0
220
0.0
230
1.0
  2
SOLID
 70
     1
 71
     0
 91
        1
 92
        1
 93
        4
 72
     1
 10
2949.061421901101
 20
-20610.78248987925
 11
2949.061421901112
 21
-15290.78248987923
 72
     1
 10
2949.061421901112
 20
-15290.78248987923
 11
2749.061421901109
 21
-15290.78248987923
 72
     1
 10
2749.061421901109
 20
-15290.78248987923
 11
2749.061421901099
 21
-20610.78248987925
 72
     1
 10
2749.061421901099
 20
-20610.78248987925
 11
2949.061421901101
 21
-20610.78248987925
 97
        0
 75
     0
 76
     1
 98
        1
 10
0.0
 20
0.0
450
        0
451
        0
460
0.0
461
0.0
452
        0
462
0.0
453
        0
470

1001
REVIT
1002
{
1070
     1
1000
22869582
1002
}
1002
{
1070
     5
1000
22554474
1002
}
1002
{
1070
     2
1000
-2000011
1002
}
1002
{
1070
     3
1000
-2000588
1002
}
  0
HATCH
  5
B3
330
70
100
AcDbEntity
  8
A-ALV-___-___-EXI
 62
    11
100
AcDbHatch
 10
0.0
 20
0.0
 30
0.0
210
0.0
220
0.0
230
1.0
  2
SOLID
 70
     1
 71
     0
 91
        1
 92
        1
 93
        4
 72
     1
 10
1599.061421901104
 20
-20610.78248987924
 11
1599.061421901108
 21
-18670.78248987924
 72
     1
 10
1599.061421901108
 20
-18670.78248987924
 11
1399.061421901106
 21
-18670.78248987924
 72
     1
 10
1399.061421901106
 20
-18670.78248987924
 11
1399.061421901102
 21
-20610.78248987924
 72
     1
 10
1399.061421901102
 20
-20610.78248987924
 11
1599.061421901104
 21
-20610.78248987924
 97
        0
 75
     0
 76
     1
 98
        1
 10
0.0
 20
0.0
450
        0
451
        0
460
0.0
461
0.0
452
        0
462
0.0
453
        0
470

1001
REVIT
1002
{
1070
     1
1000
22869714
1002
}
1002
{
1070
     5
1000
22554474
1002
}
1002
{
1070
     2
1000
-2000011
1002
}
1002
{
1070
     3
1000
-2000588
1002
}
  0
HATCH
  5
B8
330
70
100
AcDbEntity
  8
A-ALV-___-___-EXI
 62
    11
100
AcDbHatch
 10
0.0
 20
0.0
 30
0.0
210
0.0
220
0.0
230
1.0
  2
SOLID
 70
     1
 71
     0
 91
        1
 92
        1
 93
        4
 72
     1
 10
-940.9385780988987
 20
-18870.78248987924
 11
1399.06142190111
 21
-18870.78248987924
 72
     1
 10
1399.061421901111
 20
-18870.78248987924
 11
1399.061421901106
 21
-18670.78248987924
 72
     1
 10
1399.061421901106
 20
-18670.78248987924
 11
-940.938578098901
 21
-18670.78248987924
 72
     1
 10
-940.9385780989008
 20
-18670.78248987924
 11
-940.9385780988987
 21
-18870.78248987924
 97
        0
 75
     0
 76
     1
 98
        1
 10
0.0
 20
0.0
450
        0
451
        0
460
0.0
461
0.0
452
        0
462
0.0
453
        0
470

1001
REVIT
1002
{
1070
     1
1000
22869881
1002
}
1002
{
1070
     5
1000
22554474
1002
}
1002
{
1070
     2
1000
-2000011
1002
}
1002
{
1070
     3
1000
-2000588
1002
}
  0
HATCH
  5
BD
330
70
100
AcDbEntity
  8
A-ALV-___-___-EXI
 62
    11
100
AcDbHatch
 10
0.0
 20
0.0
 30
0.0
210
0.0
220
0.0
230
1.0
  2
SOLID
 70
     1
 71
     0
 91
        1
 92
        1
 93
        4
 72
     1
 10
-940.9385780988987
 20
-17910.78248987924
 11
1599.061421901108
 21
-17910.78248987924
 72
     1
 10
1599.061421901108
 20
-17910.78248987924
 11
1599.061421901113
 21
-17710.78248987924
 72
     1
 10
1599.061421901113
 20
-17710.78248987924
 11
-940.9385780988989
 21
-17710.78248987924
 72
     1
 10
-940.9385780988987
 20
-17710.78248987924
 11
-940.9385780988987
 21
-17910.78248987924
 97
        0
 75
     0
 76
     1
 98
        1
 10
0.0
 20
0.0
450
        0
451
        0
460
0.0
461
0.0
452
        0
462
0.0
453
        0
470

1001
REVIT
1002
{
1070
     1
1000
22869995
1002
}
1002
{
1070
     5
1000
22554474
1002
}
1002
{
1070
     2
1000
-2000011
1002
}
1002
{
1070
     3
1000
-2000588
1002
}
  0
HATCH
  5
C2
330
70
100
AcDbEntity
  8
A-ALV-___-___-EXI
 62
    11
100
AcDbHatch
 10
0.0
 20
0.0
 30
0.0
210
0.0
220
0.0
230
1.0
  2
SOLID
 70
     1
 71
     0
 91
        1
 92
        1
 93
        4
 72
     1
 10
3299.061421901118
 20
-9590.782489879215
 11
3499.061421901116
 21
-9590.782489879215
 72
     1
 10
3499.061421901116
 20
-9590.782489879215
 11
3499.061421901119
 21
-7315.78248987921
 72
     1
 10
3499.061421901119
 20
-7315.78248987921
 11
3299.061421901121
 21
-7315.78248987921
 72
     1
 10
3299.061421901121
 20
-7315.78248987921
 11
3299.061421901118
 21
-9590.782489879215
 97
        0
 75
     0
 76
     1
 98
        1
 10
0.0
 20
0.0
450
        0
451
        0
460
0.0
461
0.0
452
        0
462
0.0
453
        0
470

1001
REVIT
1002
{
1070
     1
1000
22870086
1002
}
1002
{
1070
     5
1000
22554474
1002
}
1002
{
1070
     2
1000
-2000011
1002
}
1002
{
1070
     3
1000
-2000588
1002
}
  0
HATCH
  5
C7
330
70
100
AcDbEntity
  8
A-ALV-___-___-EXI
 62
    11
100
AcDbHatch
 10
0.0
 20
0.0
 30
0.0
210
0.0
220
0.0
230
1.0
  2
SOLID
 70
     1
 71
     0
 91
        1
 92
        1
 93
        4
 72
     1
 10
5359.061421901124
 20
-6415.782489879209
 11
5359.061421901124
 21
-6215.782489879207
 72
     1
 10
5359.061421901124
 20
-6215.782489879207
 11
3499.061421901121
 21
-6215.782489879209
 72
     1
 10
3499.061421901121
 20
-6215.782489879209
 11
3499.061421901121
 21
-6415.782489879211
 72
     1
 10
3499.061421901121
 20
-6415.782489879211
 11
5359.061421901124
 21
-6415.782489879209
 97
        0
 75
     0
 76
     1
 98
        1
 10
0.0
 20
0.0
450
        0
451
        0
460
0.0
461
0.0
452
        0
462
0.0
453
        0
470

1001
REVIT
1002
{
1070
     1
1000
22870163
1002
}
1002
{
1070
     5
1000
22554474
1002
}
1002
{
1070
     2
1000
-2000011
1002
}
1002
{
1070
     3
1000
-2000588
1002
}
  0
HATCH
  5
CC
330
70
100
AcDbEntity
  8
A-ALV-___-___-EXI
 62
    11
100
AcDbHatch
 10
0.0
 20
0.0
 30
0.0
210
0.0
220
0.0
230
1.0
  2
SOLID
 70
     1
 71
     0
 91
        1
 92
        1
 93
        4
 72
     1
 10
5359.061421901131
 20
-3274.233975476569
 11
5359.061421901134
 21
-3074.23397547657
 72
     1
 10
5359.061421901134
 20
-3074.23397547657
 11
5259.061421901134
 21
-3074.23397547657
 72
     1
 10
5259.061421901134
 20
-3074.23397547657
 11
5259.061421901132
 21
-3274.23397547657
 72
     1
 10
5259.061421901132
 20
-3274.23397547657
 11
5359.061421901131
 21
-3274.233975476569
 97
        0
 75
     0
 76
     1
 98
        1
 10
0.0
 20
0.0
450
        0
451
        0
460
0.0
461
0.0
452
        0
462
0.0
453
        0
470

1001
REVIT
1002
{
1070
     1
1000
22870223
1002
}
1002
{
1070
     5
1000
22554474
1002
}
1002
{
1070
     2
1000
-2000011
1002
}
1002
{
1070
     3
1000
-2000588
1002
}
  0
HATCH
  5
D1
330
70
100
AcDbEntity
  8
A-ALV-___-___-EXI
 62
    11
100
AcDbHatch
 10
0.0
 20
0.0
 30
0.0
210
0.0
220
0.0
230
1.0
  2
SOLID
 70
     1
 71
     0
 91
        1
 92
        1
 93
        4
 72
     1
 10
2119.061421901127
 20
-3274.233975476573
 11
2119.061421901129
 21
-3074.233975476573
 72
     1
 10
2119.061421901129
 20
-3074.233975476573
 11
2059.061421901125
 21
-3074.233975476573
 72
     1
 10
2059.061421901125
 20
-3074.233975476573
 11
2059.061421901123
 21
-3274.233975476573
 72
     1
 10
2059.061421901123
 20
-3274.233975476573
 11
2119.061421901127
 21
-3274.233975476573
 97
        0
 75
     0
 76
     1
 98
        1
 10
0.0
 20
0.0
450
        0
451
        0
460
0.0
461
0.0
452
        0
462
0.0
453
        0
470

1001
REVIT
1002
{
1070
     1
1000
22870267
1002
}
1002
{
1070
     5
1000
22554474
1002
}
1002
{
1070
     2
1000
-2000011
1002
}
1002
{
1070
     3
1000
-2000588
1002
}
  0
HATCH
  5
D6
330
70
100
AcDbEntity
  8
A-ALV-___-___-EXI
 62
    11
100
AcDbHatch
 10
0.0
 20
0.0
 30
0.0
210
0.0
220
0.0
230
1.0
  2
SOLID
 70
     1
 71
     0
 91
        1
 92
        1
 93
        4
 72
     1
 10
2059.061421901121
 20
-3748.787228315669
 11
2059.061421901125
 21
-1043.387589301901
 72
     1
 10
2059.061421901125
 20
-1043.387589301901
 11
1859.061421901125
 21
-1043.387589301901
 72
     1
 10
1859.061421901125
 20
-1043.387589301901
 11
1859.06142190112
 21
-3748.787228315669
 72
     1
 10
1859.06142190112
 20
-3748.787228315669
 11
2059.061421901121
 21
-3748.787228315669
 97
        0
 75
     0
 76
     1
 98
        1
 10
0.0
 20
0.0
450
        0
451
        0
460
0.0
461
0.0
452
        0
462
0.0
453
        0
470

1001
REVIT
1002
{
1070
     1
1000
22870952
1002
}
1002
{
1070
     5
1000
22554474
1002
}
1002
{
1070
     2
1000
-2000011
1002
}
1002
{
1070
     3
1000
-2000588
1002
}
  0
HATCH
  5
DB
330
70
100
AcDbEntity
  8
A-ALV-___-___-EXI
 62
    11
100
AcDbHatch
 10
0.0
 20
0.0
 30
0.0
210
0.0
220
0.0
230
1.0
  2
SOLID
 70
     1
 71
     0
 91
        1
 92
        1
 93
        4
 72
     1
 10
2119.061421901127
 20
-590.782489879205
 11
3319.061421901132
 21
-590.7824898792028
 72
     1
 10
3319.061421901132
 20
-590.7824898792028
 11
3319.061421901127
 21
-390.7824898792051
 72
     1
 10
3319.061421901127
 20
-390.7824898792051
 11
2119.061421901123
 21
-390.7824898792028
 72
     1
 10
2119.061421901123
 20
-390.7824898792028
 11
2119.061421901127
 21
-590.782489879205
 97
        0
 75
     0
 76
     1
 98
        1
 10
0.0
 20
0.0
450
        0
451
        0
460
0.0
461
0.0
452
        0
462
0.0
453
        0
470

1001
REVIT
1002
{
1070
     1
1000
22871139
1002
}
1002
{
1070
     5
1000
22554474
1002
}
1002
{
1070
     2
1000
-2000011
1002
}
1002
{
1070
     3
1000
-2000588
1002
}
  0
HATCH
  5
E0
330
70
100
AcDbEntity
  8
A-ALV-___-___-EXI
 62
    11
100
AcDbHatch
 10
0.0
 20
0.0
 30
0.0
210
0.0
220
0.0
230
1.0
  2
SOLID
 70
     1
 71
     0
 91
        1
 92
        1
 93
        4
 72
     1
 10
1859.061421901112
 20
-9590.782489879217
 11
2059.061421901112
 21
-9590.782489879215
 72
     1
 10
2059.061421901112
 20
-9590.782489879215
 11
2059.061421901114
 21
-7590.782489879216
 72
     1
 10
2059.061421901114
 20
-7590.782489879216
 11
1859.061421901114
 21
-7590.782489879213
 72
     1
 10
1859.061421901114
 20
-7590.782489879213
 11
1859.061421901112
 21
-9590.782489879217
 97
        0
 75
     0
 76
     1
 98
        1
 10
0.0
 20
0.0
450
        0
451
        0
460
0.0
461
0.0
452
        0
462
0.0
453
        0
470

1001
REVIT
1002
{
1070
     1
1000
22871495
1002
}
1002
{
1070
     5
1000
22554474
1002
}
1002
{
1070
     2
1000
-2000011
1002
}
1002
{
1070
     3
1000
-2000588
1002
}
  0
HATCH
  5
E5
330
70
100
AcDbEntity
  8
A-ALV-___-___-EXI
 62
    11
100
AcDbHatch
 10
0.0
 20
0.0
 30
0.0
210
0.0
220
0.0
230
1.0
  2
SOLID
 70
     1
 71
     0
 91
        1
 92
        1
 93
        4
 72
     1
 10
1259.061421901114
 20
-9790.782489879216
 11
2159.061421901117
 21
-9790.782489879218
 72
     1
 10
2159.061421901117
 20
-9790.782489879218
 11
2159.061421901117
 21
-9590.782489879215
 72
     1
 10
2159.061421901117
 20
-9590.782489879215
 11
1259.061421901114
 21
-9590.782489879217
 72
     1
 10
1259.061421901114
 20
-9590.782489879217
 11
1259.061421901114
 21
-9790.782489879216
 97
        0
 75
     0
 76
     1
 98
        1
 10
0.0
 20
0.0
450
        0
451
        0
460
0.0
461
0.0
452
        0
462
0.0
453
        0
470

1001
REVIT
1002
{
1070
     1
1000
22871814
1002
}
1002
{
1070
     5
1000
22554474
1002
}
1002
{
1070
     2
1000
-2000011
1002
}
1002
{
1070
     3
1000
-2000588
1002
}
  0
HATCH
  5
EC
330
70
100
AcDbEntity
  8
A-ALV-___-___-EXI
 62
    11
100
AcDbHatch
 10
0.0
 20
0.0
 30
0.0
210
0.0
220
0.0
230
1.0
  2
SOLID
 70
     1
 71
     0
 91
        1
 92
        1
 93
        6
 72
     1
 10
1599.061421901117
 20
-15290.78248987923
 11
1839.061421901108
 21
-15290.78248987923
 72
     1
 10
1839.061421901108
 20
-15290.78248987923
 11
1839.06142190111
 21
-15090.78248987923
 72
     1
 10
1839.06142190111
 20
-15090.78248987923
 11
559.061421901109
 21
-15090.78248987923
 72
     1
 10
559.0614219011089
 20
-15090.78248987923
 11
559.0614219011067
 21
-15290.78248987923
 72
     1
 10
559.0614219011067
 20
-15290.78248987923
 11
1399.061421901115
 21
-15290.78248987923
 72
     1
 10
1399.061421901115
 20
-15290.78248987923
 11
1599.061421901117
 21
-15290.78248987923
 97
        0
 75
     0
 76
     1
 98
        1
 10
0.0
 20
0.0
450
        0
451
        0
460
0.0
461
0.0
452
        0
462
0.0
453
        0
470

1001
REVIT
1002
{
1070
     1
1000
22872127
1002
}
1002
{
1070
     5
1000
22554474
1002
}
1002
{
1070
     2
1000
-2000011
1002
}
1002
{
1070
     3
1000
-2000588
1002
}
  0
HATCH
  5
F1
330
70
100
AcDbEntity
  8
A-ALV-___-___-EXI
 62
    11
100
AcDbHatch
 10
0.0
 20
0.0
 30
0.0
210
0.0
220
0.0
230
1.0
  2
SOLID
 70
     1
 71
     0
 91
        1
 92
        1
 93
        4
 72
     1
 10
2619.061421901109
 20
-15290.78248987922
 11
3619.061421901111
 21
-15290.78248987923
 72
     1
 10
3619.061421901111
 20
-15290.78248987923
 11
3619.061421901113
 21
-15090.78248987922
 72
     1
 10
3619.061421901113
 20
-15090.78248987922
 11
2619.061421901111
 21
-15090.78248987922
 72
     1
 10
2619.061421901111
 20
-15090.78248987922
 11
2619.061421901109
 21
-15290.78248987922
 97
        0
 75
     0
 76
     1
 98
        1
 10
0.0
 20
0.0
450
        0
451
        0
460
0.0
461
0.0
452
        0
462
0.0
453
        0
470

1001
REVIT
1002
{
1070
     1
1000
22872225
1002
}
1002
{
1070
     5
1000
22554474
1002
}
1002
{
1070
     2
1000
-2000011
1002
}
1002
{
1070
     3
1000
-2000588
1002
}
  0
HATCH
  5
F6
330
70
100
AcDbEntity
  8
A-ALV-___-___-EXI
 62
    11
100
AcDbHatch
 10
0.0
 20
0.0
 30
0.0
210
0.0
220
0.0
230
1.0
  2
SOLID
 70
     1
 71
     0
 91
        1
 92
        1
 93
        4
 72
     1
 10
1659.06142190109
 20
-25590.78248987925
 11
1659.06142190109
 21
-25390.78248987924
 72
     1
 10
1659.06142190109
 20
-25390.78248987924
 11
459.061421901086
 21
-25390.78248987924
 72
     1
 10
459.0614219010862
 20
-25390.78248987924
 11
459.0614219010862
 21
-25590.78248987925
 72
     1
 10
459.0614219010862
 20
-25590.78248987925
 11
1659.061421901091
 21
-25590.78248987925
 97
        0
 75
     0
 76
     1
 98
        1
 10
0.0
 20
0.0
450
        0
451
        0
460
0.0
461
0.0
452
        0
462
0.0
453
        0
470

1001
REVIT
1002
{
1070
     1
1000
22872798
1002
}
1002
{
1070
     5
1000
22554474
1002
}
1002
{
1070
     2
1000
-2000011
1002
}
1002
{
1070
     3
1000
-2000588
1002
}
  0
HATCH
  5
FB
330
70
100
AcDbEntity
  8
A-ALV-___-___-EXI
 62
    11
100
AcDbHatch
 10
0.0
 20
0.0
 30
0.0
210
0.0
220
0.0
230
1.0
  2
SOLID
 70
     1
 71
     0
 91
        1
 92
        1
 93
        4
 72
     1
 10
3759.061421901092
 20
-25590.78248987925
 11
3759.061421901092
 21
-25390.78248987924
 72
     1
 10
3759.061421901092
 20
-25390.78248987924
 11
2659.061421901093
 21
-25390.78248987924
 72
     1
 10
2659.061421901093
 20
-25390.78248987924
 11
2659.061421901093
 21
-25590.78248987924
 72
     1
 10
2659.061421901093
 20
-25590.78248987924
 11
3759.061421901092
 21
-25590.78248987925
 97
        0
 75
     0
 76
     1
 98
        1
 10
0.0
 20
0.0
450
        0
451
        0
460
0.0
461
0.0
452
        0
462
0.0
453
        0
470

1001
REVIT
1002
{
1070
     1
1000
22872895
1002
}
1002
{
1070
     5
1000
22554474
1002
}
1002
{
1070
     2
1000
-2000011
1002
}
1002
{
1070
     3
1000
-2000588
1002
}
  0
HATCH
  5
100
330
70
100
AcDbEntity
  8
A-ALV-___-___-EXI
 62
    11
100
AcDbHatch
 10
0.0
 20
0.0
 30
0.0
210
0.0
220
0.0
230
1.0
  2
SOLID
 70
     1
 71
     0
 91
        1
 92
        1
 93
        4
 72
     1
 10
5359.061421901095
 20
-25590.78248987925
 11
5359.061421901095
 21
-25390.78248987925
 72
     1
 10
5359.061421901095
 20
-25390.78248987925
 11
4859.061421901093
 21
-25390.78248987924
 72
     1
 10
4859.061421901093
 20
-25390.78248987924
 11
4859.061421901093
 21
-25590.78248987924
 72
     1
 10
4859.061421901093
 20
-25590.78248987924
 11
5359.061421901095
 21
-25590.78248987925
 97
        0
 75
     0
 76
     1
 98
        1
 10
0.0
 20
0.0
450
        0
451
        0
460
0.0
461
0.0
452
        0
462
0.0
453
        0
470

1001
REVIT
1002
{
1070
     1
1000
22873031
1002
}
1002
{
1070
     5
1000
22554474
1002
}
1002
{
1070
     2
1000
-2000011
1002
}
1002
{
1070
     3
1000
-2000588
1002
}
  0
HATCH
  5
105
330
70
100
AcDbEntity
  8
A-ALV-___-___-EXI
 62
    11
100
AcDbHatch
 10
0.0
 20
0.0
 30
0.0
210
0.0
220
0.0
230
1.0
  2
SOLID
 70
     1
 71
     0
 91
        1
 92
        1
 93
        4
 72
     1
 10
4559.061421901103
 20
-20810.78248987924
 11
5359.0614219011
 21
-20810.78248987924
 72
     1
 10
5359.0614219011
 20
-20810.78248987924
 11
5359.061421901103
 21
-20610.78248987924
 72
     1
 10
5359.061421901103
 20
-20610.78248987924
 11
4559.061421901103
 21
-20610.78248987924
 72
     1
 10
4559.061421901103
 20
-20610.78248987924
 11
4559.061421901103
 21
-20810.78248987924
 97
        0
 75
     0
 76
     1
 98
        1
 10
0.0
 20
0.0
450
        0
451
        0
460
0.0
461
0.0
452
        0
462
0.0
453
        0
470

1001
REVIT
1002
{
1070
     1
1000
22873048
1002
}
1002
{
1070
     5
1000
22554474
1002
}
1002
{
1070
     2
1000
-2000011
1002
}
1002
{
1070
     3
1000
-2000588
1002
}
  0
HATCH
  5
10A
330
70
100
AcDbEntity
  8
A-ALV-___-___-EXI
 62
    11
100
AcDbHatch
 10
0.0
 20
0.0
 30
0.0
210
0.0
220
0.0
230
1.0
  2
SOLID
 70
     1
 71
     0
 91
        1
 92
        1
 93
        4
 72
     1
 10
2559.0614219011
 20
-20810.78248987924
 11
3559.061421901103
 21
-20810.78248987925
 72
     1
 10
3559.061421901103
 20
-20810.78248987925
 11
3559.061421901103
 21
-20610.78248987925
 72
     1
 10
3559.061421901103
 20
-20610.78248987925
 11
2559.0614219011
 21
-20610.78248987924
 72
     1
 10
2559.0614219011
 20
-20610.78248987924
 11
2559.0614219011
 21
-20810.78248987924
 97
        0
 75
     0
 76
     1
 98
        1
 10
0.0
 20
0.0
450
        0
451
        0
460
0.0
461
0.0
452
        0
462
0.0
453
        0
470

1001
REVIT
1002
{
1070
     1
1000
22873112
1002
}
1002
{
1070
     5
1000
22554474
1002
}
1002
{
1070
     2
1000
-2000011
1002
}
1002
{
1070
     3
1000
-2000588
1002
}
  0
HATCH
  5
10F
330
70
100
AcDbEntity
  8
A-ALV-___-___-EXI
 62
    11
100
AcDbHatch
 10
0.0
 20
0.0
 30
0.0
210
0.0
220
0.0
230
1.0
  2
SOLID
 70
     1
 71
     0
 91
        1
 92
        1
 93
        4
 72
     1
 10
1759.0614219011
 20
-20810.78248987924
 11
1759.0614219011
 21
-20610.78248987924
 72
     1
 10
1759.0614219011
 20
-20610.78248987924
 11
559.0614219010981
 21
-20610.78248987924
 72
     1
 10
559.0614219010981
 20
-20610.78248987924
 11
559.0614219010981
 21
-20810.78248987924
 72
     1
 10
559.0614219010981
 20
-20810.78248987924
 11
1759.0614219011
 21
-20810.78248987924
 97
        0
 75
     0
 76
     1
 98
        1
 10
0.0
 20
0.0
450
        0
451
        0
460
0.0
461
0.0
452
        0
462
0.0
453
        0
470

1001
REVIT
1002
{
1070
     1
1000
22873194
1002
}
1002
{
1070
     5
1000
22554474
1002
}
1002
{
1070
     2
1000
-2000011
1002
}
1002
{
1070
     3
1000
-2000588
1002
}
  0
HATCH
  5
114
330
70
100
AcDbEntity
  8
A-ALV-___-___-EXI
 62
    11
100
AcDbHatch
 10
0.0
 20
0.0
 30
0.0
210
0.0
220
0.0
230
1.0
  2
SOLID
 70
     1
 71
     0
 91
        1
 92
        1
 93
        4
 72
     1
 10
1399.061421901111
 20
-17710.78248987924
 11
1599.061421901111
 21
-17710.78248987924
 72
     1
 10
1599.061421901111
 20
-17710.78248987924
 11
1599.061421901115
 21
-15290.78248987923
 72
     1
 10
1599.061421901115
 20
-15290.78248987923
 11
1399.061421901115
 21
-15290.78248987923
 72
     1
 10
1399.061421901115
 20
-15290.78248987923
 11
1399.061421901111
 21
-17710.78248987924
 97
        0
 75
     0
 76
     1
 98
        1
 10
0.0
 20
0.0
450
        0
451
        0
460
0.0
461
0.0
452
        0
462
0.0
453
        0
470

1001
REVIT
1002
{
1070
     1
1000
22873344
1002
}
1002
{
1070
     5
1000
22554474
1002
}
1002
{
1070
     2
1000
-2000011
1002
}
1002
{
1070
     3
1000
-2000588
1002
}
  0
HATCH
  5
119
330
70
100
AcDbEntity
  8
A-ALV-___-___-EXI
 62
    11
100
AcDbHatch
 10
0.0
 20
0.0
 30
0.0
210
0.0
220
0.0
230
1.0
  2
SOLID
 70
     1
 71
     0
 91
        1
 92
        1
 93
        4
 72
     1
 10
5359.061421901116
 20
-15290.78248987923
 11
5359.061421901118
 21
-15090.78248987923
 72
     1
 10
5359.061421901118
 20
-15090.78248987923
 11
4659.061421901117
 21
-15090.78248987923
 72
     1
 10
4659.061421901117
 20
-15090.78248987923
 11
4659.061421901115
 21
-15290.78248987923
 72
     1
 10
4659.061421901115
 20
-15290.78248987923
 11
5359.061421901116
 21
-15290.78248987923
 97
        0
 75
     0
 76
     1
 98
        1
 10
0.0
 20
0.0
450
        0
451
        0
460
0.0
461
0.0
452
        0
462
0.0
453
        0
470

1001
REVIT
1002
{
1070
     1
1000
22873463
1002
}
1002
{
1070
     5
1000
22554474
1002
}
1002
{
1070
     2
1000
-2000011
1002
}
1002
{
1070
     3
1000
-2000588
1002
}
  0
HATCH
  5
11E
330
70
100
AcDbEntity
  8
A-ALV-___-___-EXI
 62
    11
100
AcDbHatch
 10
0.0
 20
0.0
 30
0.0
210
0.0
220
0.0
230
1.0
  2
SOLID
 70
     1
 71
     0
 91
        1
 92
        1
 93
        4
 72
     1
 10
-1140.93857809889
 20
-9790.782489879219
 11
-540.9385780988879
 21
-9790.782489879219
 72
     1
 10
-540.9385780988879
 20
-9790.782489879219
 11
-540.9385780988879
 21
-9590.782489879218
 72
     1
 10
-540.9385780988879
 20
-9590.782489879218
 11
-1140.93857809889
 21
-9590.782489879222
 72
     1
 10
-1140.93857809889
 20
-9590.782489879222
 11
-1140.93857809889
 21
-9790.782489879219
 97
        0
 75
     0
 76
     1
 98
        1
 10
0.0
 20
0.0
450
        0
451
        0
460
0.0
461
0.0
452
        0
462
0.0
453
        0
470

1001
REVIT
1002
{
1070
     1
1000
22873582
1002
}
1002
{
1070
     5
1000
22554474
1002
}
1002
{
1070
     2
1000
-2000011
1002
}
1002
{
1070
     3
1000
-2000588
1002
}
  0
HATCH
  5
123
330
70
100
AcDbEntity
  8
A-ALV-___-___-EXI
 62
    11
100
AcDbHatch
 10
0.0
 20
0.0
 30
0.0
210
0.0
220
0.0
230
1.0
  2
SOLID
 70
     1
 71
     0
 91
        1
 92
        1
 93
        4
 72
     1
 10
3299.061421901125
 20
-6715.78248987921
 11
3499.061421901123
 21
-6715.78248987921
 72
     1
 10
3499.061421901123
 20
-6715.78248987921
 11
3499.061421901121
 21
-6215.782489879211
 72
     1
 10
3499.061421901121
 20
-6215.782489879211
 11
3299.061421901123
 21
-6215.782489879209
 72
     1
 10
3299.061421901123
 20
-6215.782489879209
 11
3299.061421901125
 21
-6715.78248987921
 97
        0
 75
     0
 76
     1
 98
        1
 10
0.0
 20
0.0
450
        0
451
        0
460
0.0
461
0.0
452
        0
462
0.0
453
        0
470

1001
REVIT
1002
{
1070
     1
1000
22873824
1002
}
1002
{
1070
     5
1000
22554474
1002
}
1002
{
1070
     2
1000
-2000011
1002
}
1002
{
1070
     3
1000
-2000588
1002
}
  0
HATCH
  5
128
330
70
100
AcDbEntity
  8
A-ALV-___-___-EXI
 62
    11
100
AcDbHatch
 10
0.0
 20
0.0
 30
0.0
210
0.0
220
0.0
230
1.0
  2
SOLID
 70
     1
 71
     0
 91
        1
 92
        1
 93
        4
 72
     1
 10
1859.061421901123
 20
-6690.782489879213
 11
2059.061421901123
 21
-6690.782489879213
 72
     1
 10
2059.061421901123
 20
-6690.782489879213
 11
2059.061421901121
 21
-4608.787228315673
 72
     1
 10
2059.061421901121
 20
-4608.787228315673
 11
1859.06142190112
 21
-4608.787228315671
 72
     1
 10
1859.06142190112
 20
-4608.787228315671
 11
1859.061421901123
 21
-6690.782489879213
 97
        0
 75
     0
 76
     1
 98
        1
 10
0.0
 20
0.0
450
        0
451
        0
460
0.0
461
0.0
452
        0
462
0.0
453
        0
470

1001
REVIT
1002
{
1070
     1
1000
22873943
1002
}
1002
{
1070
     5
1000
22554474
1002
}
1002
{
1070
     2
1000
-2000011
1002
}
1002
{
1070
     3
1000
-2000588
1002
}
  0
HATCH
  5
12D
330
70
100
AcDbEntity
  8
A-ALV-___-___-EXI
 62
    11
100
AcDbHatch
 10
0.0
 20
0.0
 30
0.0
210
0.0
220
0.0
230
1.0
  2
SOLID
 70
     1
 71
     0
 91
        1
 92
        1
 93
        4
 72
     1
 10
-940.9385780989008
 20
-19490.78248987922
 11
-940.9385780988966
 21
-16790.78248987922
 72
     1
 10
-940.9385780988966
 20
-16790.78248987922
 11
-1140.938578098896
 21
-16790.78248987922
 72
     1
 10
-1140.938578098896
 20
-16790.78248987922
 11
-1140.938578098903
 21
-19490.78248987922
 72
     1
 10
-1140.938578098903
 20
-19490.78248987922
 11
-940.9385780989008
 21
-19490.78248987922
 97
        0
 75
     0
 76
     1
 98
        1
 10
0.0
 20
0.0
450
        0
451
        0
460
0.0
461
0.0
452
        0
462
0.0
453
        0
470

1001
REVIT
1002
{
1070
     1
1000
22874092
1002
}
1002
{
1070
     5
1000
22554474
1002
}
1002
{
1070
     2
1000
-2000011
1002
}
1002
{
1070
     3
1000
-2000588
1002
}
  0
HATCH
  5
132
330
70
100
AcDbEntity
  8
A-ALV-___-___-EXI
 62
    11
100
AcDbHatch
 10
0.0
 20
0.0
 30
0.0
210
0.0
220
0.0
230
1.0
  2
SOLID
 70
     1
 71
     0
 91
        1
 92
        1
 93
        4
 72
     1
 10
-940.9385780989117
 20
-25590.78248987925
 11
-940.9385780988987
 21
-20090.78248987924
 72
     1
 10
-940.9385780988987
 20
-20090.78248987924
 11
-1140.938578098898
 21
-20090.78248987924
 72
     1
 10
-1140.938578098898
 20
-20090.78248987924
 11
-1140.938578098912
 21
-25590.78248987925
 72
     1
 10
-1140.938578098912
 20
-25590.78248987925
 11
-940.9385780989117
 21
-25590.78248987925
 97
        0
 75
     0
 76
     1
 98
        1
 10
0.0
 20
0.0
450
        0
451
        0
460
0.0
461
0.0
452
        0
462
0.0
453
        0
470

1001
REVIT
1002
{
1070
     1
1000
22874249
1002
}
1002
{
1070
     5
1000
22554474
1002
}
1002
{
1070
     2
1000
-2000011
1002
}
1002
{
1070
     3
1000
-2000588
1002
}
  0
HATCH
  5
137
330
70
100
AcDbEntity
  8
A-ALV-___-___-EXI
 62
    11
100
AcDbHatch
 10
0.0
 20
0.0
 30
0.0
210
0.0
220
0.0
230
1.0
  2
SOLID
 70
     1
 71
     0
 91
        1
 92
        1
 93
        4
 72
     1
 10
2059.061421901121
 20
-4608.787228315673
 11
2059.061421901121
 21
-4388.78722831567
 72
     1
 10
2059.061421901121
 20
-4388.78722831567
 11
1859.06142190112
 21
-4388.78722831567
 72
     1
 10
1859.06142190112
 20
-4388.78722831567
 11
1859.06142190112
 21
-4608.787228315671
 72
     1
 10
1859.06142190112
 20
-4608.787228315671
 11
2059.061421901121
 21
-4608.787228315673
 97
        0
 75
     0
 76
     1
 98
        1
 10
0.0
 20
0.0
450
        0
451
        0
460
0.0
461
0.0
452
        0
462
0.0
453
        0
470

1001
REVIT
1002
{
1070
     1
1000
22876369
1002
}
1002
{
1070
     5
1000
22554474
1002
}
1002
{
1070
     2
1000
-2000011
1002
}
1002
{
1070
     3
1000
-2000588
1002
}
  0
LWPOLYLINE
  5
249
330
70
100
AcDbEntity
  8
A-JAN-___-___-EXI
100
AcDbPolyline
 90
        3
 70
     0
 43
0.0
 10
2159.061421901131
 20
-9590.782489879217
 10
2571.197742106607
 20
-9352.835474465765
 10
3059.061421901134
 20
-9590.782489879217
1001
REVIT
1002
{
1070
     1
1000
23025195
1002
}
1002
{
1070
     2
1000
-2000051
1002
}
1002
{
1070
     3
1000
-2000042
1002
}
  0
LWPOLYLINE
  5
24A
330
70
100
AcDbEntity
  8
A-JAN-___-___-EXI
100
AcDbPolyline
 90
        3
 70
     0
 43
0.0
 10
3759.061421901105
 20
-25390.78248987923
 10
4332.467852903402
 20
-24989.27898443349
 10
4859.061421901106
 20
-25390.78248987923
1001
REVIT
1002
{
1070
     1
1000
23025193
1002
}
1002
{
1070
     2
1000
-2000051
1002
}
1002
{
1070
     3
1000
-2000042
1002
}
  0
LWPOLYLINE
  5
24B
330
70
100
AcDbEntity
  8
A-JAN-___-___-EXI
100
AcDbPolyline
 90
        3
 70
     0
 43
0.0
 10
1659.061421901106
 20
-25390.78248987923
 10
2164.650754359634
 20
-24966.54266748611
 10
2659.061421901106
 20
-25390.78248987923
1001
REVIT
1002
{
1070
     1
1000
23025191
1002
}
1002
{
1070
     2
1000
-2000051
1002
}
1002
{
1070
     3
1000
-2000042
1002
}
  0
LWPOLYLINE
  5
24C
330
70
100
AcDbEntity
  8
A-JAN-___-___-EXI
100
AcDbPolyline
 90
        3
 70
     0
 43
0.0
 10
-640.9385780988933
 20
-25390.78248987923
 10
-52.04130352547375
 20
-25050.78248987923
 10
459.0614219011056
 20
-25390.78248987923
1001
REVIT
1002
{
1070
     1
1000
23025189
1002
}
1002
{
1070
     2
1000
-2000051
1002
}
1002
{
1070
     3
1000
-2000042
1002
}
  0
LWPOLYLINE
  5
24D
330
70
100
AcDbEntity
  8
A-POR-___-___-EXI
100
AcDbPolyline
 90
        3
 70
     0
 43
0.0
 10
-340.9385780988857
 20
-20610.78248987923
 10
126.7151399447122
 20
-20340.78248987923
 10
559.0614219011154
 20
-20610.78248987924
1001
REVIT
1002
{
1070
     1
1000
23025187
1002
}
1002
{
1070
     2
1000
-2000051
1002
}
1002
{
1070
     3
1000
-2000042
1002
}
  0
LWPOLYLINE
  5
24E
330
70
100
AcDbEntity
  8
A-POR-___-___-EXI
100
AcDbPolyline
 90
        3
 70
     0
 43
0.0
 10
1759.061421901115
 20
-20610.78248987924
 10
2192.074123793334
 20
-20360.78248987923
 10
2559.061421901116
 20
-20610.78248987923
1001
REVIT
1002
{
1070
     1
1000
23025185
1002
}
1002
{
1070
     2
1000
-2000051
1002
}
1002
{
1070
     3
1000
-2000042
1002
}
  0
LWPOLYLINE
  5
250
330
70
100
AcDbEntity
  8
A-POR-___-___-EXI
100
AcDbPolyline
 90
        3
 70
     0
 43
0.0
 10
3619.061421901122
 20
-15290.78248987922
 10
4126.593782641644
 20
-15527.44871645401
 10
4659.061421901123
 20
-15290.78248987922
1001
REVIT
1002
{
1070
     1
1000
23025181
1002
}
1002
{
1070
     2
1000
-2000051
1002
}
1002
{
1070
     3
1000
-2000042
1002
}
  0
LWPOLYLINE
  5
251
330
70
100
AcDbEntity
  8
A-POR-___-___-EXI
100
AcDbPolyline
 90
        3
 70
     0
 43
0.0
 10
1839.061421901121
 20
-15290.78248987922
 10
2272.07412379334
 20
-15540.78248987922
 10
2619.061421901121
 20
-15290.78248987922
1001
REVIT
1002
{
1070
     1
1000
23025179
1002
}
1002
{
1070
     2
1000
-2000051
1002
}
1002
{
1070
     3
1000
-2000042
1002
}
  0
LWPOLYLINE
  5
252
330
70
100
AcDbEntity
  8
A-POR-___-___-EXI
100
AcDbPolyline
 90
        3
 70
     0
 43
0.0
 10
-340.938578098877
 20
-15290.78248987922
 10
112.2153154194485
 20
-15502.09162074957
 10
559.0614219011219
 20
-15290.78248987922
1001
REVIT
1002
{
1070
     1
1000
23025177
1002
}
1002
{
1070
     2
1000
-2000051
1002
}
1002
{
1070
     3
1000
-2000042
1002
}
  0
LWPOLYLINE
  5
253
330
70
100
AcDbEntity
  8
A-JAN-___-___-EXI
100
AcDbPolyline
 90
        3
 70
     0
 43
0.0
 10
-540.9385780988683
 20
-9790.782489879221
 10
325.0868256855757
 20
-10290.78248987922
 10
1259.061421901132
 20
-9790.782489879218
1001
REVIT
1002
{
1070
     1
1000
23025175
1002
}
1002
{
1070
     2
1000
-2000051
1002
}
1002
{
1070
     3
1000
-2000042
1002
}
  0
LWPOLYLINE
  5
254
330
70
100
AcDbEntity
  8
A-JAN-___-___-EXI
100
AcDbPolyline
 90
        3
 70
     0
 43
0.0
 10
3319.061421901145
 20
-590.7824898792159
 10
3794.169607588757
 20
-923.4568229628214
 10
4239.061421901145
 20
-590.7824898792142
1001
REVIT
1002
{
1070
     1
1000
23025173
1002
}
1002
{
1070
     2
1000
-2000051
1002
}
1002
{
1070
     3
1000
-2000042
1002
}
  0
LWPOLYLINE
  5
255
330
70
100
AcDbEntity
  8
A-ALV-___-___-EXI
100
AcDbPolyline
 90
        4
 70
     1
 43
0.0
 10
1859.06142190114
 20
-390.7824898792163
 10
1859.061421901143
 20
-1043.387589301911
 10
2119.061421901138
 20
-1043.38758930191
 10
2119.061421901136
 20
-390.7824898792159
1001
REVIT
1002
{
1070
     1
1000
23025140
1002
}
1002
{
1070
     2
1000
-2000051
1002
}
1002
{
1070
     3
1000
-2000042
1002
}
  0
LWPOLYLINE
  5
265
330
70
100
AcDbEntity
  8
A-ALV-___-___-EXI
 62
     7
370
    35
100
AcDbPolyline
 90
        4
 70
     1
 43
0.0
 10
1399.061421901119
 20
-20610.78248987924
 10
-940.9385780988857
 20
-20610.78248987923
 10
-940.9385780988813
 20
-18870.78248987923
 10
1399.061421901126
 20
-18870.78248987923
1001
REVIT
1002
{
1070
     1
1000
22874092
1002
}
1002
{
1070
     5
1000
22554474
1002
}
1002
{
1070
     2
1000
-2000011
1002
}
  0
LWPOLYLINE
  5
267
330
70
100
AcDbEntity
  8
A-ALV-___-___-EXI
 62
     7
370
    35
100
AcDbPolyline
 90
        4
 70
     1
 43
0.0
 10
-940.938578098877
 20
-15290.78248987922
 10
1399.061421901128
 20
-15290.78248987922
 10
1399.061421901124
 20
-17710.78248987923
 10
-940.9385780988813
 20
-17710.78248987923
1001
REVIT
1002
{
1070
     1
1000
22873344
1002
}
1002
{
1070
     5
1000
22554474
1002
}
1002
{
1070
     2
1000
-2000011
1002
}
  0
LWPOLYLINE
  5
269
330
70
100
AcDbEntity
  8
A-ALV-___-___-EXI
 62
     7
370
    35
100
AcDbPolyline
 90
        4
 70
     1
 43
0.0
 10
5359.061421901127
 20
-15090.78248987922
 10
-940.9385780988749
 20
-15090.78248987922
 10
-940.9385780988706
 20
-9790.782489879221
 10
5359.061421901131
 20
-9790.782489879212
1001
REVIT
1002
{
1070
     1
1000
22872029
1002
}
1002
{
1070
     5
1000
22554474
1002
}
1002
{
1070
     2
1000
-2000011
1002
}
  0
LWPOLYLINE
  5
26A
330
70
100
AcDbEntity
  8
A-ALV-___-___-EXI
 62
     7
370
    35
100
AcDbPolyline
 90
        8
 70
     0
 43
0.0
 10
3299.061421901136
 20
-6215.782489879217
 10
3299.061421901131
 20
-9590.782489879217
 10
2059.061421901127
 20
-9590.782489879218
 10
2059.061421901138
 20
-3274.233975476584
 10
2119.061421901142
 20
-3274.233975476582
 10
2119.061421901142
 20
-3074.233975476582
 10
2059.061421901138
 20
-3074.233975476582
 10
2059.06142190114
 20
-1043.387589301911
1001
REVIT
1002
{
1070
     1
1000
22871773
1002
}
1002
{
1070
     5
1000
22554474
1002
}
1002
{
1070
     2
1000
-2000011
1002
}
  0
LWPOLYLINE
  5
26B
330
70
100
AcDbEntity
  8
A-ALV-___-___-EXI
 62
     7
370
    35
100
AcDbPolyline
 90
        4
 70
     1
 43
0.0
 10
5359.061421901131
 20
-9590.782489879211
 10
3499.061421901132
 20
-9590.782489879215
 10
3499.061421901136
 20
-6415.782489879216
 10
5359.061421901134
 20
-6415.782489879212
1001
REVIT
1002
{
1070
     1
1000
22870163
1002
}
1002
{
1070
     5
1000
22554474
1002
}
1002
{
1070
     2
1000
-2000011
1002
}
  0
LWPOLYLINE
  5
26D
330
70
100
AcDbEntity
  8
A-ALV-___-___-EXI
 62
     7
370
    35
100
AcDbPolyline
 90
        7
 70
     0
 43
0.0
 10
1859.06142190114
 20
-1043.387589301912
 10
1859.061421901127
 20
-9590.782489879218
 10
-1140.93857809887
 20
-9590.782489879222
 10
-1140.938578098892
 20
-25590.78248987924
 10
5559.061421901106
 20
-25590.78248987923
 10
5559.061421901144
 20
-390.7824898792141
 10
2119.061421901136
 20
-390.7824898792159
1001
REVIT
1002
{
1070
     1
1000
22872718
1002
}
1002
{
1070
     5
1000
22554474
1002
}
1002
{
1070
     2
1000
-2000011
1002
}
  0
LINE
  5
280
330
70
100
AcDbEntity
  8
A-ESC-___-___-EXI
100
AcDbLine
 10
1349.061421901122
 20
-18670.78248987923
 30
0.0
 11
1349.061421901122
 21
-17910.78248987923
 31
0.0
1001
REVIT
1002
{
1070
     1
1000
22875812
1002
}
1002
{
1070
     5
1000
141734
1002
}
1002
{
1070
     2
1000
-2000120
1002
}
1002
{
1070
     3
1000
-2000932
1002
}
  0
LINE
  5
281
330
70
100
AcDbEntity
  8
A-ESC-___-___-EXI
100
AcDbLine
 10
1349.061421901122
 20
-17910.78248987923
 30
0.0
 11
1349.061421901122
 21
-18670.78248987923
 31
0.0
1001
REVIT
1002
{
1070
     1
1000
22875812
1002
}
1002
{
1070
     5
1000
141734
1002
}
1002
{
1070
     2
1000
-2000120
1002
}
1002
{
1070
     3
1000
-2000932
1002
}
  0
LINE
  5
282
330
70
100
AcDbEntity
  8
A-ESC-___-___-EXI
100
AcDbLine
 10
1099.06142190112
 20
-18670.78248987923
 30
0.0
 11
1099.061421901124
 21
-17910.78248987923
 31
0.0
1001
REVIT
1002
{
1070
     1
1000
22875812
1002
}
1002
{
1070
     5
1000
141734
1002
}
1002
{
1070
     2
1000
-2000120
1002
}
1002
{
1070
     3
1000
-2000932
1002
}
  0
LINE
  5
283
330
70
100
AcDbEntity
  8
A-ESC-___-___-EXI
100
AcDbLine
 10
1099.061421901124
 20
-17910.78248987923
 30
0.0
 11
1099.06142190112
 21
-18670.78248987923
 31
0.0
1001
REVIT
1002
{
1070
     1
1000
22875812
1002
}
1002
{
1070
     5
1000
141734
1002
}
1002
{
1070
     2
1000
-2000120
1002
}
1002
{
1070
     3
1000
-2000932
1002
}
  0
LINE
  5
284
330
70
100
AcDbEntity
  8
A-ESC-___-___-EXI
100
AcDbLine
 10
849.0614219011209
 20
-18670.78248987923
 30
0.0
 11
849.0614219011209
 21
-17910.78248987923
 31
0.0
1001
REVIT
1002
{
1070
     1
1000
22875812
1002
}
1002
{
1070
     5
1000
141734
1002
}
1002
{
1070
     2
1000
-2000120
1002
}
1002
{
1070
     3
1000
-2000932
1002
}
  0
LINE
  5
285
330
70
100
AcDbEntity
  8
A-ESC-___-___-EXI
100
AcDbLine
 10
849.0614219011209
 20
-17910.78248987923
 30
0.0
 11
849.0614219011209
 21
-18670.78248987923
 31
0.0
1001
REVIT
1002
{
1070
     1
1000
22875812
1002
}
1002
{
1070
     5
1000
141734
1002
}
1002
{
1070
     2
1000
-2000120
1002
}
1002
{
1070
     3
1000
-2000932
1002
}
  0
LINE
  5
286
330
70
100
AcDbEntity
  8
A-ESC-___-___-EXI
100
AcDbLine
 10
599.0614219011215
 20
-18670.78248987923
 30
0.0
 11
599.0614219011215
 21
-17910.78248987923
 31
0.0
1001
REVIT
1002
{
1070
     1
1000
22875812
1002
}
1002
{
1070
     5
1000
141734
1002
}
1002
{
1070
     2
1000
-2000120
1002
}
1002
{
1070
     3
1000
-2000932
1002
}
  0
LINE
  5
287
330
70
100
AcDbEntity
  8
A-ESC-___-___-EXI
100
AcDbLine
 10
599.0614219011215
 20
-17910.78248987923
 30
0.0
 11
599.0614219011215
 21
-18670.78248987923
 31
0.0
1001
REVIT
1002
{
1070
     1
1000
22875812
1002
}
1002
{
1070
     5
1000
141734
1002
}
1002
{
1070
     2
1000
-2000120
1002
}
1002
{
1070
     3
1000
-2000932
1002
}
  0
LINE
  5
288
330
70
100
AcDbEntity
  8
A-ESC-___-___-EXI
100
AcDbLine
 10
349.0614219011198
 20
-18670.78248987923
 30
0.0
 11
349.0614219011242
 21
-17910.78248987923
 31
0.0
1001
REVIT
1002
{
1070
     1
1000
22875812
1002
}
1002
{
1070
     5
1000
141734
1002
}
1002
{
1070
     2
1000
-2000120
1002
}
1002
{
1070
     3
1000
-2000932
1002
}
  0
LINE
  5
289
330
70
100
AcDbEntity
  8
A-ESC-___-___-EXI
100
AcDbLine
 10
349.0614219011242
 20
-17910.78248987923
 30
0.0
 11
349.0614219011198
 21
-18670.78248987923
 31
0.0
1001
REVIT
1002
{
1070
     1
1000
22875812
1002
}
1002
{
1070
     5
1000
141734
1002
}
1002
{
1070
     2
1000
-2000120
1002
}
1002
{
1070
     3
1000
-2000932
1002
}
  0
LINE
  5
28A
330
70
100
AcDbEntity
  8
A-ESC-___-___-EXI
  6
Projeção
100
AcDbLine
 10
99.06142190112255
 20
-18670.78248987923
 30
0.0
 11
99.06142190112255
 21
-17910.78248987923
 31
0.0
1001
REVIT
1002
{
1070
     1
1000
22875812
1002
}
1002
{
1070
     5
1000
141734
1002
}
1002
{
1070
     2
1000
-2000120
1002
}
1002
{
1070
     3
1000
-2000936
1002
}
  0
LINE
  5
28B
330
70
100
AcDbEntity
  8
A-ESC-___-___-EXI
  6
Projeção
100
AcDbLine
 10
99.06142190112255
 20
-17910.78248987923
 30
0.0
 11
99.06142190112255
 21
-18670.78248987923
 31
0.0
1001
REVIT
1002
{
1070
     1
1000
22875812
1002
}
1002
{
1070
     5
1000
141734
1002
}
1002
{
1070
     2
1000
-2000120
1002
}
1002
{
1070
     3
1000
-2000936
1002
}
  0
LINE
  5
28C
330
70
100
AcDbEntity
  8
A-ALV-___-___-EXI
 62
     7
370
    35
100
AcDbLine
 10
1599.06142190113
 20
-15290.78248987922
 30
0.0
 11
2749.061421901123
 21
-15290.78248987922
 31
0.0
1001
REVIT
1002
{
1070
     1
1000
22873162
1002
}
1002
{
1070
     5
1000
22554474
1002
}
1002
{
1070
     2
1000
-2000011
1002
}
  0
LINE
  5
28D
330
70
100
AcDbEntity
  8
A-ALV-___-___-EXI
 62
     7
370
    35
100
AcDbLine
 10
2749.061421901123
 20
-15290.78248987922
 30
0.0
 11
2749.061421901114
 21
-20610.78248987923
 31
0.0
1001
REVIT
1002
{
1070
     1
1000
22873162
1002
}
1002
{
1070
     5
1000
22554474
1002
}
1002
{
1070
     2
1000
-2000011
1002
}
  0
LINE
  5
28E
330
70
100
AcDbEntity
  8
A-ALV-___-___-EXI
 62
     7
370
    35
100
AcDbLine
 10
2749.061421901114
 20
-20610.78248987923
 30
0.0
 11
1599.061421901119
 21
-20610.78248987924
 31
0.0
1001
REVIT
1002
{
1070
     1
1000
22873162
1002
}
1002
{
1070
     5
1000
22554474
1002
}
1002
{
1070
     2
1000
-2000011
1002
}
  0
LINE
  5
28F
330
70
100
AcDbEntity
  8
A-ALV-___-___-EXI
 62
     7
370
    35
100
AcDbLine
 10
1599.061421901119
 20
-20610.78248987924
 30
0.0
 11
1599.061421901121
 21
-18670.78248987923
 31
0.0
1001
REVIT
1002
{
1070
     1
1000
22873162
1002
}
1002
{
1070
     5
1000
22554474
1002
}
1002
{
1070
     2
1000
-2000011
1002
}
  0
LINE
  5
290
330
70
100
AcDbEntity
  8
A-ESC-___-___-EXI
 62
     7
370
    35
100
AcDbLine
 10
1599.061421901121
 20
-18670.78248987923
 30
0.0
 11
1599.061421901121
 21
-17910.78248987923
 31
0.0
1001
REVIT
1002
{
1070
     1
1000
22873162
1002
}
1002
{
1070
     5
1000
22554474
1002
}
1002
{
1070
     2
1000
-2000011
1002
}
  0
LINE
  5
291
330
70
100
AcDbEntity
  8
A-ESC-___-___-EXI
 62
     7
370
    35
100
AcDbLine
 10
1599.061421901121
 20
-17910.78248987923
 30
0.0
 11
1599.061421901121
 21
-18670.78248987923
 31
0.0
1001
REVIT
1002
{
1070
     1
1000
22873162
1002
}
1002
{
1070
     5
1000
22554474
1002
}
1002
{
1070
     2
1000
-2000011
1002
}
  0
LINE
  5
292
330
70
100
AcDbEntity
  8
A-ALV-___-___-EXI
 62
     7
370
    35
100
AcDbLine
 10
1599.061421901121
 20
-18670.78248987923
 30
0.0
 11
-940.9385780988836
 21
-18670.78248987923
 31
0.0
1001
REVIT
1002
{
1070
     1
1000
22873162
1002
}
1002
{
1070
     5
1000
22554474
1002
}
1002
{
1070
     2
1000
-2000011
1002
}
  0
LINE
  5
293
330
70
100
AcDbEntity
  8
A-ALV-___-___-EXI
 62
     7
370
    35
100
AcDbLine
 10
-940.9385780988836
 20
-18670.78248987923
 30
0.0
 11
-940.9385780988792
 21
-17910.78248987923
 31
0.0
1001
REVIT
1002
{
1070
     1
1000
22873162
1002
}
1002
{
1070
     5
1000
22554474
1002
}
1002
{
1070
     2
1000
-2000011
1002
}
  0
LINE
  5
294
330
70
100
AcDbEntity
  8
A-ALV-___-___-EXI
 62
     7
370
    35
100
AcDbLine
 10
-940.9385780988792
 20
-17910.78248987923
 30
0.0
 11
1599.061421901124
 21
-17910.78248987923
 31
0.0
1001
REVIT
1002
{
1070
     1
1000
22873162
1002
}
1002
{
1070
     5
1000
22554474
1002
}
1002
{
1070
     2
1000
-2000011
1002
}
  0
LINE
  5
295
330
70
100
AcDbEntity
  8
A-ALV-___-___-EXI
 62
     7
370
    35
100
AcDbLine
 10
1599.061421901124
 20
-17910.78248987923
 30
0.0
 11
1599.06142190113
 21
-15290.78248987922
 31
0.0
1001
REVIT
1002
{
1070
     1
1000
22873162
1002
}
1002
{
1070
     5
1000
22554474
1002
}
1002
{
1070
     2
1000
-2000011
1002
}
  0
LINE
  5
296
330
70
100
AcDbEntity
  8
A-ESC-___-___-EXI
100
AcDbLine
 10
3304.135576435768
 20
-5401.094668915999
 30
0.0
 11
3304.135576435761
 21
-6215.782489879217
 31
0.0
1001
REVIT
1002
{
1070
     1
1000
22874717
1002
}
1002
{
1070
     5
1000
141734
1002
}
1002
{
1070
     2
1000
-2000120
1002
}
1002
{
1070
     3
1000
-2000932
1002
}
  0
LINE
  5
297
330
70
100
AcDbEntity
  8
A-ESC-___-___-EXI
100
AcDbLine
 10
3304.135576435761
 20
-6215.782489879217
 30
0.0
 11
3304.135576435768
 21
-5401.094668915999
 31
0.0
1001
REVIT
1002
{
1070
     1
1000
22874717
1002
}
1002
{
1070
     5
1000
141734
1002
}
1002
{
1070
     2
1000
-2000120
1002
}
1002
{
1070
     3
1000
-2000932
1002
}
  0
LINE
  5
298
330
70
100
AcDbEntity
  8
A-ESC-___-___-EXI
100
AcDbLine
 10
3554.135576435767
 20
-5401.094668915997
 30
0.0
 11
3554.135576435765
 21
-6215.782489879215
 31
0.0
1001
REVIT
1002
{
1070
     1
1000
22874717
1002
}
1002
{
1070
     5
1000
141734
1002
}
1002
{
1070
     2
1000
-2000120
1002
}
1002
{
1070
     3
1000
-2000932
1002
}
  0
LINE
  5
299
330
70
100
AcDbEntity
  8
A-ESC-___-___-EXI
100
AcDbLine
 10
3554.135576435765
 20
-6215.782489879215
 30
0.0
 11
3554.135576435767
 21
-5401.094668915997
 31
0.0
1001
REVIT
1002
{
1070
     1
1000
22874717
1002
}
1002
{
1070
     5
1000
141734
1002
}
1002
{
1070
     2
1000
-2000120
1002
}
1002
{
1070
     3
1000
-2000932
1002
}
  0
LINE
  5
29A
330
70
100
AcDbEntity
  8
A-ESC-___-___-EXI
100
AcDbLine
 10
3804.135576435766
 20
-5401.094668915997
 30
0.0
 11
3804.135576435765
 21
-6215.782489879215
 31
0.0
1001
REVIT
1002
{
1070
     1
1000
22874717
1002
}
1002
{
1070
     5
1000
141734
1002
}
1002
{
1070
     2
1000
-2000120
1002
}
1002
{
1070
     3
1000
-2000932
1002
}
  0
LINE
  5
29B
330
70
100
AcDbEntity
  8
A-ESC-___-___-EXI
100
AcDbLine
 10
3804.135576435765
 20
-6215.782489879215
 30
0.0
 11
3804.135576435766
 21
-5401.094668915997
 31
0.0
1001
REVIT
1002
{
1070
     1
1000
22874717
1002
}
1002
{
1070
     5
1000
141734
1002
}
1002
{
1070
     2
1000
-2000120
1002
}
1002
{
1070
     3
1000
-2000932
1002
}
  0
LINE
  5
29C
330
70
100
AcDbEntity
  8
A-ESC-___-___-EXI
100
AcDbLine
 10
4054.135576435768
 20
-5401.094668915996
 30
0.0
 11
4054.135576435761
 21
-6215.782489879214
 31
0.0
1001
REVIT
1002
{
1070
     1
1000
22874717
1002
}
1002
{
1070
     5
1000
141734
1002
}
1002
{
1070
     2
1000
-2000120
1002
}
1002
{
1070
     3
1000
-2000932
1002
}
  0
LINE
  5
29D
330
70
100
AcDbEntity
  8
A-ESC-___-___-EXI
100
AcDbLine
 10
4054.135576435761
 20
-6215.782489879214
 30
0.0
 11
4054.135576435768
 21
-5401.094668915996
 31
0.0
1001
REVIT
1002
{
1070
     1
1000
22874717
1002
}
1002
{
1070
     5
1000
141734
1002
}
1002
{
1070
     2
1000
-2000120
1002
}
1002
{
1070
     3
1000
-2000932
1002
}
  0
LINE
  5
29E
330
70
100
AcDbEntity
  8
A-ESC-___-___-EXI
100
AcDbLine
 10
4304.135576435765
 20
-5401.094668915998
 30
0.0
 11
4304.135576435763
 21
-5707.988756768943
 31
0.0
1001
REVIT
1002
{
1070
     1
1000
22874717
1002
}
1002
{
1070
     5
1000
141734
1002
}
1002
{
1070
     2
1000
-2000120
1002
}
1002
{
1070
     3
1000
-2000932
1002
}
  0
LINE
  5
29F
330
70
100
AcDbEntity
  8
A-ESC-___-___-EXI
100
AcDbLine
 10
4304.135576435763
 20
-5707.988756768943
 30
0.0
 11
4304.135576435763
 21
-5808.438579397607
 31
0.0
1001
REVIT
1002
{
1070
     1
1000
22874717
1002
}
1002
{
1070
     5
1000
141734
1002
}
1002
{
1070
     2
1000
-2000120
1002
}
1002
{
1070
     3
1000
-2000932
1002
}
  0
LINE
  5
2A0
330
70
100
AcDbEntity
  8
A-ESC-___-___-EXI
100
AcDbLine
 10
4304.135576435763
 20
-5808.438579397607
 30
0.0
 11
4304.135576435763
 21
-5707.988756768943
 31
0.0
1001
REVIT
1002
{
1070
     1
1000
22874717
1002
}
1002
{
1070
     5
1000
141734
1002
}
1002
{
1070
     2
1000
-2000120
1002
}
1002
{
1070
     3
1000
-2000932
1002
}
  0
LINE
  5
2A1
330
70
100
AcDbEntity
  8
A-ESC-___-___-EXI
100
AcDbLine
 10
4304.135576435763
 20
-5707.988756768943
 30
0.0
 11
4304.135576435765
 21
-5401.094668915998
 31
0.0
1001
REVIT
1002
{
1070
     1
1000
22874717
1002
}
1002
{
1070
     5
1000
141734
1002
}
1002
{
1070
     2
1000
-2000120
1002
}
1002
{
1070
     3
1000
-2000932
1002
}
  0
LINE
  5
2A2
330
70
100
AcDbEntity
  8
A-ESC-___-___-EXI
100
AcDbLine
 10
4304.135576435763
 20
-5808.438579397607
 30
0.0
 11
4304.135576435763
 21
-5908.888402026273
 31
0.0
1001
REVIT
1002
{
1070
     1
1000
22874717
1002
}
1002
{
1070
     5
1000
141734
1002
}
1002
{
1070
     2
1000
-2000120
1002
}
1002
{
1070
     3
1000
-2000932
1002
}
  0
LINE
  5
2A3
330
70
100
AcDbEntity
  8
A-ESC-___-___-EXI
100
AcDbLine
 10
4304.135576435763
 20
-5908.888402026273
 30
0.0
 11
4304.135576435763
 21
-6215.782489879217
 31
0.0
1001
REVIT
1002
{
1070
     1
1000
22874717
1002
}
1002
{
1070
     5
1000
141734
1002
}
1002
{
1070
     2
1000
-2000120
1002
}
1002
{
1070
     3
1000
-2000932
1002
}
  0
LINE
  5
2A4
330
70
100
AcDbEntity
  8
A-ESC-___-___-EXI
100
AcDbLine
 10
4304.135576435763
 20
-6215.782489879217
 30
0.0
 11
4304.135576435763
 21
-5908.888402026273
 31
0.0
1001
REVIT
1002
{
1070
     1
1000
22874717
1002
}
1002
{
1070
     5
1000
141734
1002
}
1002
{
1070
     2
1000
-2000120
1002
}
1002
{
1070
     3
1000
-2000932
1002
}
  0
LINE
  5
2A5
330
70
100
AcDbEntity
  8
A-ESC-___-___-EXI
100
AcDbLine
 10
4304.135576435763
 20
-5908.888402026273
 30
0.0
 11
4304.135576435763
 21
-5808.438579397607
 31
0.0
1001
REVIT
1002
{
1070
     1
1000
22874717
1002
}
1002
{
1070
     5
1000
141734
1002
}
1002
{
1070
     2
1000
-2000120
1002
}
1002
{
1070
     3
1000
-2000932
1002
}
  0
LINE
  5
2A6
330
70
100
AcDbEntity
  8
A-ESC-___-___-EXI
  6
Projeção
100
AcDbLine
 10
4114.187991475387
 20
-5401.094668915996
 30
0.0
 11
4054.135576435768
 21
-5401.094668915996
 31
0.0
1001
REVIT
1002
{
1070
     1
1000
22874717
1002
}
1002
{
1070
     5
1000
141734
1002
}
1002
{
1070
     2
1000
-2000120
1002
}
1002
{
1070
     3
1000
-2000936
1002
}
  0
LINE
  5
2A7
330
70
100
AcDbEntity
  8
A-ESC-___-___-EXI
  6
Projeção
100
AcDbLine
 10
4054.135576435768
 20
-5401.094668915996
 30
0.0
 11
3804.135576435766
 21
-5401.094668915997
 31
0.0
1001
REVIT
1002
{
1070
     1
1000
22874717
1002
}
1002
{
1070
     5
1000
141734
1002
}
1002
{
1070
     2
1000
-2000120
1002
}
1002
{
1070
     3
1000
-2000936
1002
}
  0
LINE
  5
2A8
330
70
100
AcDbEntity
  8
A-ESC-___-___-EXI
  6
Projeção
100
AcDbLine
 10
3804.135576435766
 20
-5401.094668915997
 30
0.0
 11
3554.135576435767
 21
-5401.094668915997
 31
0.0
1001
REVIT
1002
{
1070
     1
1000
22874717
1002
}
1002
{
1070
     5
1000
141734
1002
}
1002
{
1070
     2
1000
-2000120
1002
}
1002
{
1070
     3
1000
-2000936
1002
}
  0
LINE
  5
2A9
330
70
100
AcDbEntity
  8
A-ESC-___-___-EXI
  6
Projeção
100
AcDbLine
 10
3554.135576435767
 20
-5401.094668915997
 30
0.0
 11
3304.135576435768
 21
-5401.094668915999
 31
0.0
1001
REVIT
1002
{
1070
     1
1000
22874717
1002
}
1002
{
1070
     5
1000
141734
1002
}
1002
{
1070
     2
1000
-2000120
1002
}
1002
{
1070
     3
1000
-2000936
1002
}
  0
LINE
  5
2AA
330
70
100
AcDbEntity
  8
A-ESC-___-___-EXI
  6
Projeção
100
AcDbLine
 10
3304.135576435768
 20
-5401.094668915999
 30
0.0
 11
3054.135576435766
 21
-5401.094668915998
 31
0.0
1001
REVIT
1002
{
1070
     1
1000
22874717
1002
}
1002
{
1070
     5
1000
141734
1002
}
1002
{
1070
     2
1000
-2000120
1002
}
1002
{
1070
     3
1000
-2000936
1002
}
  0
LINE
  5
2AB
330
70
100
AcDbEntity
  8
A-ESC-___-___-EXI
  6
Projeção
100
AcDbLine
 10
3054.135576435766
 20
-5401.094668915998
 30
0.0
 11
2804.135576435767
 21
-5401.094668915996
 31
0.0
1001
REVIT
1002
{
1070
     1
1000
22874717
1002
}
1002
{
1070
     5
1000
141734
1002
}
1002
{
1070
     2
1000
-2000120
1002
}
1002
{
1070
     3
1000
-2000936
1002
}
  0
LINE
  5
2AC
330
70
100
AcDbEntity
  8
A-ESC-___-___-EXI
  6
Projeção
100
AcDbLine
 10
2804.135576435767
 20
-5401.094668915996
 30
0.0
 11
2804.135576435764
 21
-6215.782489879214
 31
0.0
1001
REVIT
1002
{
1070
     1
1000
22874717
1002
}
1002
{
1070
     5
1000
141734
1002
}
1002
{
1070
     2
1000
-2000120
1002
}
1002
{
1070
     3
1000
-2000936
1002
}
  0
LINE
  5
2AD
330
70
100
AcDbEntity
  8
A-ESC-___-___-EXI
  6
Continuous
100
AcDbLine
 10
4494.083161396142
 20
-6215.782489879217
 30
0.0
 11
4356.96285915335
 21
-5921.727052777188
 31
0.0
1001
REVIT
1002
{
1070
     1
1000
22874717
1002
}
1002
{
1070
     5
1000
141734
1002
}
1002
{
1070
     2
1000
-2000120
1002
}
1002
{
1070
     3
1000
-2000930
1002
}
  0
LINE
  5
2AE
330
70
100
AcDbEntity
  8
A-ESC-___-___-EXI
  6
Continuous
100
AcDbLine
 10
4356.96285915335
 20
-5921.727052777188
 30
0.0
 11
4162.524984711285
 21
-5874.47268279459
 31
0.0
1001
REVIT
1002
{
1070
     1
1000
22874717
1002
}
1002
{
1070
     5
1000
141734
1002
}
1002
{
1070
     2
1000
-2000120
1002
}
1002
{
1070
     3
1000
-2000930
1002
}
  0
LINE
  5
2AF
330
70
100
AcDbEntity
  8
A-ESC-___-___-EXI
  6
Continuous
100
AcDbLine
 10
4162.524984711285
 20
-5874.47268279459
 30
0.0
 11
4445.746168160239
 21
-5742.404476000622
 31
0.0
1001
REVIT
1002
{
1070
     1
1000
22874717
1002
}
1002
{
1070
     5
1000
141734
1002
}
1002
{
1070
     2
1000
-2000120
1002
}
1002
{
1070
     3
1000
-2000930
1002
}
  0
LINE
  5
2B0
330
70
100
AcDbEntity
  8
A-ESC-___-___-EXI
  6
Continuous
100
AcDbLine
 10
4445.746168160239
 20
-5742.404476000622
 30
0.0
 11
4251.308293718174
 21
-5695.150106018025
 31
0.0
1001
REVIT
1002
{
1070
     1
1000
22874717
1002
}
1002
{
1070
     5
1000
141734
1002
}
1002
{
1070
     2
1000
-2000120
1002
}
1002
{
1070
     3
1000
-2000930
1002
}
  0
LINE
  5
2B1
330
70
100
AcDbEntity
  8
A-ESC-___-___-EXI
  6
Continuous
100
AcDbLine
 10
4251.308293718174
 20
-5695.150106018025
 30
0.0
 11
4114.187991475387
 21
-5401.094668915996
 31
0.0
1001
REVIT
1002
{
1070
     1
1000
22874717
1002
}
1002
{
1070
     5
1000
141734
1002
}
1002
{
1070
     2
1000
-2000120
1002
}
1002
{
1070
     3
1000
-2000930
1002
}
  0
LINE
  5
2B2
330
70
100
AcDbEntity
  8
A-ESC-___-___-EXI
  6
Continuous
100
AcDbLine
 10
4114.187991475387
 20
-5401.094668915996
 30
0.0
 11
4804.135576435768
 21
-5401.094668915997
 31
0.0
1001
REVIT
1002
{
1070
     1
1000
22874717
1002
}
1002
{
1070
     5
1000
141734
1002
}
1002
{
1070
     2
1000
-2000120
1002
}
1002
{
1070
     3
1000
-2000930
1002
}
  0
LINE
  5
2B3
330
70
100
AcDbEntity
  8
A-ESC-___-___-EXI
  6
Continuous
100
AcDbLine
 10
4804.135576435768
 20
-5401.094668915997
 30
0.0
 11
4804.135576435762
 21
-6215.782489879215
 31
0.0
1001
REVIT
1002
{
1070
     1
1000
22874717
1002
}
1002
{
1070
     5
1000
141734
1002
}
1002
{
1070
     2
1000
-2000120
1002
}
1002
{
1070
     3
1000
-2000930
1002
}
  0
LINE
  5
2B4
330
70
100
AcDbEntity
  8
A-ESC-___-___-EXI
  6
Continuous
100
AcDbLine
 10
4804.135576435762
 20
-6215.782489879215
 30
0.0
 11
4804.135576435768
 21
-5401.094668915997
 31
0.0
1001
REVIT
1002
{
1070
     1
1000
22874717
1002
}
1002
{
1070
     5
1000
141734
1002
}
1002
{
1070
     2
1000
-2000120
1002
}
1002
{
1070
     3
1000
-2000930
1002
}
  0
LINE
  5
2B5
330
70
100
AcDbEntity
  8
A-ESC-___-___-EXI
  6
Continuous
100
AcDbLine
 10
4804.135576435768
 20
-5401.094668915997
 30
0.0
 11
5364.135576435771
 21
-5401.094668915992
 31
0.0
1001
REVIT
1002
{
1070
     1
1000
22874717
1002
}
1002
{
1070
     5
1000
141734
1002
}
1002
{
1070
     2
1000
-2000120
1002
}
1002
{
1070
     3
1000
-2000930
1002
}
  0
LINE
  5
2B6
330
70
100
AcDbEntity
  8
A-ALV-___-___-EXI
  6
Continuous
100
AcDbLine
 10
5364.135576435771
 20
-5401.094668915992
 30
0.0
 11
5364.13557643577
 21
-6215.782489879213
 31
0.0
1001
REVIT
1002
{
1070
     1
1000
22874717
1002
}
1002
{
1070
     5
1000
141734
1002
}
1002
{
1070
     2
1000
-2000120
1002
}
1002
{
1070
     3
1000
-2000930
1002
}
  0
LINE
  5
2B7
330
70
100
AcDbEntity
  8
A-ALV-___-___-EXI
  6
Continuous
100
AcDbLine
 10
5364.13557643577
 20
-6215.782489879213
 30
0.0
 11
4804.135576435764
 21
-6215.782489879215
 31
0.0
1001
REVIT
1002
{
1070
     1
1000
22874717
1002
}
1002
{
1070
     5
1000
141734
1002
}
1002
{
1070
     2
1000
-2000120
1002
}
1002
{
1070
     3
1000
-2000930
1002
}
  0
LINE
  5
2B8
330
70
100
AcDbEntity
  8
A-ALV-___-___-EXI
  6
Continuous
100
AcDbLine
 10
4804.135576435764
 20
-6215.782489879215
 30
0.0
 11
4554.135576435763
 21
-6215.782489879214
 31
0.0
1001
REVIT
1002
{
1070
     1
1000
22874717
1002
}
1002
{
1070
     5
1000
141734
1002
}
1002
{
1070
     2
1000
-2000120
1002
}
1002
{
1070
     3
1000
-2000930
1002
}
  0
LINE
  5
2B9
330
70
100
AcDbEntity
  8
A-ESC-___-___-EXI
  6
Continuous
100
AcDbLine
 10
4554.135576435763
 20
-6215.782489879214
 30
0.0
 11
4554.135576435767
 21
-5401.094668915996
 31
0.0
1001
REVIT
1002
{
1070
     1
1000
22874717
1002
}
1002
{
1070
     5
1000
141734
1002
}
1002
{
1070
     2
1000
-2000120
1002
}
1002
{
1070
     3
1000
-2000930
1002
}
  0
LINE
  5
2BA
330
70
100
AcDbEntity
  8
A-ESC-___-___-EXI
  6
Continuous
100
AcDbLine
 10
4554.135576435767
 20
-5401.094668915996
 30
0.0
 11
4554.135576435765
 21
-6215.782489879214
 31
0.0
1001
REVIT
1002
{
1070
     1
1000
22874717
1002
}
1002
{
1070
     5
1000
141734
1002
}
1002
{
1070
     2
1000
-2000120
1002
}
1002
{
1070
     3
1000
-2000930
1002
}
  0
LINE
  5
2BB
330
70
100
AcDbEntity
  8
A-ALV-___-___-EXI
 62
     7
370
    35
100
AcDbLine
 10
2119.06142190114
 20
-590.7824898792158
 30
0.0
 11
5359.061421901149
 21
-590.7824898792143
 31
0.0
1001
REVIT
1002
{
1070
     1
1000
22868885
1002
}
1002
{
1070
     5
1000
22554474
1002
}
1002
{
1070
     2
1000
-2000011
1002
}
  0
LINE
  5
2BC
330
70
100
AcDbEntity
  8
A-ALV-___-___-EXI
 62
     7
370
    35
100
AcDbLine
 10
5359.061421901149
 20
-590.7824898792143
 30
0.0
 11
5359.061421901142
 21
-3074.233975476578
 31
0.0
1001
REVIT
1002
{
1070
     1
1000
22868885
1002
}
1002
{
1070
     5
1000
22554474
1002
}
1002
{
1070
     2
1000
-2000011
1002
}
  0
LINE
  5
2BD
330
70
100
AcDbEntity
  8
A-ALV-___-___-EXI
 62
     7
370
    35
100
AcDbLine
 10
5359.061421901142
 20
-3074.233975476578
 30
0.0
 11
5259.061421901144
 21
-3074.233975476579
 31
0.0
1001
REVIT
1002
{
1070
     1
1000
22868885
1002
}
1002
{
1070
     5
1000
22554474
1002
}
1002
{
1070
     2
1000
-2000011
1002
}
  0
LINE
  5
2BE
330
70
100
AcDbEntity
  8
A-ALV-___-___-EXI
 62
     7
370
    35
100
AcDbLine
 10
5259.061421901144
 20
-3074.233975476579
 30
0.0
 11
5259.061421901144
 21
-3274.233975476579
 31
0.0
1001
REVIT
1002
{
1070
     1
1000
22868885
1002
}
1002
{
1070
     5
1000
22554474
1002
}
1002
{
1070
     2
1000
-2000011
1002
}
  0
LINE
  5
2BF
330
70
100
AcDbEntity
  8
A-ALV-___-___-EXI
 62
     7
370
    35
100
AcDbLine
 10
5259.061421901144
 20
-3274.233975476579
 30
0.0
 11
5359.061421901142
 21
-3274.233975476577
 31
0.0
1001
REVIT
1002
{
1070
     1
1000
22868885
1002
}
1002
{
1070
     5
1000
22554474
1002
}
1002
{
1070
     2
1000
-2000011
1002
}
  0
LINE
  5
2C0
330
70
100
AcDbEntity
  8
A-ALV-___-___-EXI
 62
     7
370
    35
100
AcDbLine
 10
5359.061421901142
 20
-3274.233975476577
 30
0.0
 11
5359.061421901134
 21
-6215.782489879213
 31
0.0
1001
REVIT
1002
{
1070
     1
1000
22868885
1002
}
1002
{
1070
     5
1000
22554474
1002
}
1002
{
1070
     2
1000
-2000011
1002
}
  0
LINE
  5
2C1
330
70
100
AcDbEntity
  8
A-ALV-___-___-EXI
 62
     7
370
    35
100
AcDbLine
 10
5359.061421901134
 20
-6215.782489879213
 30
0.0
 11
3299.061421901136
 21
-6215.782489879217
 31
0.0
1001
REVIT
1002
{
1070
     1
1000
22868885
1002
}
1002
{
1070
     5
1000
22554474
1002
}
1002
{
1070
     2
1000
-2000011
1002
}
  0
LINE
  5
2C2
330
70
100
AcDbEntity
  8
A-ESC-___-___-EXI
 62
     7
370
    35
100
AcDbLine
 10
3299.061421901136
 20
-6215.782489879217
 30
0.0
 11
3054.135576435764
 21
-6215.782489879217
 31
0.0
1001
REVIT
1002
{
1070
     1
1000
22868885
1002
}
1002
{
1070
     5
1000
22554474
1002
}
1002
{
1070
     2
1000
-2000011
1002
}
  0
LINE
  5
2C3
330
70
100
AcDbEntity
  8
A-ESC-___-___-EXI
 62
     7
370
    35
100
AcDbLine
 10
3054.135576435764
 20
-6215.782489879217
 30
0.0
 11
3054.135576435766
 21
-5401.094668915998
 31
0.0
1001
REVIT
1002
{
1070
     1
1000
22868885
1002
}
1002
{
1070
     5
1000
22554474
1002
}
1002
{
1070
     2
1000
-2000011
1002
}
  0
LINE
  5
2C4
330
70
100
AcDbEntity
  8
A-ESC-___-___-EXI
 62
     7
370
    35
100
AcDbLine
 10
3054.135576435766
 20
-5401.094668915998
 30
0.0
 11
3054.135576435764
 21
-6215.782489879217
 31
0.0
1001
REVIT
1002
{
1070
     1
1000
22868885
1002
}
1002
{
1070
     5
1000
22554474
1002
}
1002
{
1070
     2
1000
-2000011
1002
}
  0
LINE
  5
2C5
330
70
100
AcDbEntity
  8
A-ESC-___-___-EXI
 62
     7
370
    35
100
AcDbLine
 10
3054.135576435764
 20
-6215.782489879217
 30
0.0
 11
2804.135576435764
 21
-6215.782489879214
 31
0.0
1001
REVIT
1002
{
1070
     1
1000
22868885
1002
}
1002
{
1070
     5
1000
22554474
1002
}
1002
{
1070
     2
1000
-2000011
1002
}
  0
LINE
  5
2C6
330
70
100
AcDbEntity
  8
A-ESC-___-___-EXI
 62
     7
370
    35
100
AcDbLine
 10
2804.135576435764
 20
-6215.782489879214
 30
0.0
 11
2804.135576435767
 21
-5401.094668915996
 31
0.0
1001
REVIT
1002
{
1070
     1
1000
22868885
1002
}
1002
{
1070
     5
1000
22554474
1002
}
1002
{
1070
     2
1000
-2000011
1002
}
  0
LINE
  5
2C7
330
70
100
AcDbEntity
  8
A-POR-___-___-EXI
100
AcDbLine
 10
3559.061421901116
 20
-20610.78248987923
 30
0.0
 11
4078.676664171779
 21
-20310.78248987924
 31
0.0
1001
REVIT
1002
{
1070
     1
1000
23025183
1002
}
1002
{
1070
     2
1000
-2000051
1002
}
1002
{
1070
     3
1000
-2000042
1002
}
  0
LINE
  5
2C8
330
70
100
AcDbEntity
  8
A-POR-___-___-EXI
100
AcDbLine
 10
4078.676664171779
 20
-20310.78248987924
 30
0.0
 11
4559.061421901115
 21
-20610.78248987923
 31
0.0
1001
REVIT
1002
{
1070
     1
1000
23025183
1002
}
1002
{
1070
     2
1000
-2000051
1002
}
1002
{
1070
     3
1000
-2000042
1002
}
  0
LINE
  5
2C9
330
70
100
AcDbEntity
  8
A-ALV-___-___-EXI
 62
     7
370
    35
100
AcDbLine
 10
5359.061421901106
 20
-25390.78248987923
 30
0.0
 11
-940.93857809889
 21
-25390.78248987923
 31
0.0
1001
REVIT
1002
{
1070
     1
1000
22874249
1002
}
1002
{
1070
     5
1000
22554474
1002
}
1002
{
1070
     2
1000
-2000011
1002
}
  0
LINE
  5
2CA
330
70
100
AcDbEntity
  8
A-ALV-___-___-EXI
 62
     7
370
    35
100
AcDbLine
 10
-940.93857809889
 20
-25390.78248987923
 30
0.0
 11
-940.9385780988857
 21
-20810.78248987924
 31
0.0
1001
REVIT
1002
{
1070
     1
1000
22874249
1002
}
1002
{
1070
     5
1000
22554474
1002
}
1002
{
1070
     2
1000
-2000011
1002
}
  0
LINE
  5
2CB
330
70
100
AcDbEntity
  8
A-ALV-___-___-EXI
 62
     7
370
    35
100
AcDbLine
 10
-940.9385780988857
 20
-20810.78248987924
 30
0.0
 11
5359.061421901114
 21
-20810.78248987923
 31
0.0
1001
REVIT
1002
{
1070
     1
1000
22874249
1002
}
1002
{
1070
     5
1000
22554474
1002
}
1002
{
1070
     2
1000
-2000011
1002
}
  0
LINE
  5
2CC
330
70
100
AcDbEntity
  8
A-ALV-___-___-EXI
 62
     7
370
    35
100
AcDbLine
 10
5359.061421901114
 20
-20810.78248987923
 30
0.0
 11
5359.061421901106
 21
-25390.78248987923
 31
0.0
1001
REVIT
1002
{
1070
     1
1000
22874249
1002
}
1002
{
1070
     5
1000
22554474
1002
}
1002
{
1070
     2
1000
-2000011
1002
}
  0
LINE
  5
2CD
330
70
100
AcDbEntity
  8
A-ALV-___-___-EXI
 62
     7
370
    35
100
AcDbLine
 10
5359.061421901116
 20
-20610.78248987923
 30
0.0
 11
2949.061421901113
 21
-20610.78248987923
 31
0.0
1001
REVIT
1002
{
1070
     1
1000
22873440
1002
}
1002
{
1070
     5
1000
22554474
1002
}
1002
{
1070
     2
1000
-2000011
1002
}
  0
LINE
  5
2CE
330
70
100
AcDbEntity
  8
A-ALV-___-___-EXI
 62
     7
370
    35
100
AcDbLine
 10
2949.061421901113
 20
-20610.78248987923
 30
0.0
 11
2949.061421901122
 21
-15290.78248987922
 31
0.0
1001
REVIT
1002
{
1070
     1
1000
22873440
1002
}
1002
{
1070
     5
1000
22554474
1002
}
1002
{
1070
     2
1000
-2000011
1002
}
  0
LINE
  5
2CF
330
70
100
AcDbEntity
  8
A-ALV-___-___-EXI
 62
     7
370
    35
100
AcDbLine
 10
2949.061421901122
 20
-15290.78248987922
 30
0.0
 11
5359.061421901124
 21
-15290.78248987922
 31
0.0
1001
REVIT
1002
{
1070
     1
1000
22873440
1002
}
1002
{
1070
     5
1000
22554474
1002
}
1002
{
1070
     2
1000
-2000011
1002
}
  0
LINE
  5
2D0
330
70
100
AcDbEntity
  8
A-ALV-___-___-EXI
 62
     7
370
    35
100
AcDbLine
 10
5359.061421901124
 20
-15290.78248987922
 30
0.0
 11
5359.061421901116
 21
-20610.78248987923
 31
0.0
1001
REVIT
1002
{
1070
     1
1000
22873440
1002
}
1002
{
1070
     5
1000
22554474
1002
}
1002
{
1070
     2
1000
-2000011
1002
}
  0
VIEWPORT
  5
211
330
6C
100
AcDbEntity
 67
     1
  8
A-POR-___-___-EXI
100
AcDbViewport
 10
169.1839321056372
 20
208.1202604016026
 30
0.0
 40
67.00000000000082
 41
252.0000000000002
 68
     2
 69
     2
 12
2209.061421901128
 22
-12990.78248987922
 13
0.0
 23
0.0
 14
0.0
 24
0.0
 15
0.0
 25
0.0
 16
0.0
 26
0.0
 36
1.0
 17
0.0
 27
0.0
 37
0.0
 42
0.0
 43
0.0
 44
0.0
 45
25200.00000000002
 50
0.0
 51
0.0
 72
  1000
 90
    32768
  1

281
     0
 71
     1
 74
     1
110
0.0
120
0.0
130
0.0
111
1.0
121
0.0
131
0.0
112
0.0
122
1.0
132
0.0
 79
     0
146
0.0
170
     0
 61
     5
292
     1
282
     1
141
0.0
142
0.0
 63
   250
421
  3355443
  0
VIEWPORT
  5
213
330
6C
100
AcDbEntity
 67
     1
  8
0
100
AcDbViewport
 10
13.18725099601594
 20
4.5
 30
0.0
 40
30.39507381757107
 41
12.00812727420305
 68
     1
 69
     1
 12
13.18725099601594
 22
4.5
 13
0.0
 23
0.0
 14
0.0
 24
0.0
 15
0.0
 25
0.0
 16
0.0
 26
0.0
 36
1.0
 17
0.0
 27
0.0
 37
0.0
 42
50.0
 43
0.0
 44
0.0
 45
12.00812727420305
 50
0.0
 51
0.0
 72
   100
 90
    32800
  1

281
     0
 71
     1
 74
     1
110
0.0
120
0.0
130
0.0
111
1.0
121
0.0
131
0.0
112
0.0
122
1.0
132
0.0
 79
     0
146
0.0
170
     0
 61
     5
348
2F
292
     1
282
     1
141
0.0
142
0.0
 63
   250
421
  3355443
  0
INSERT
  5
21F
330
6C
100
AcDbEntity
 67
     1
  8
A-JAN-___-___-EXI
100
AcDbBlockReference
  2
SVG - A4-23033332-Não nomeada
 10
0.0
 20
0.0
 30
0.0
1001
REVIT
1002
{
1070
     1
1000
23033371
1002
}
1002
{
1070
     5
1000
23033332
1002
}
1002
{
1070
     2
1000
-2000280
1002
}
  0
ENDSEC
  0
SECTION
  2
OBJECTS
  0
DICTIONARY
  5
C
330
0
100
AcDbDictionary
281
     1
  3
ACAD_CIP_PREVIOUS_PRODUCT_INFO
350
79
  3
ACAD_COLOR
350
63
  3
ACAD_DETAILVIEWSTYLE
350
6A
  3
ACAD_GROUP
350
D
  3
ACAD_IMAGE_VARS
350
7A
  3
ACAD_LAYOUT
350
62
  3
ACAD_MATERIAL
350
10
  3
ACAD_MLEADERSTYLE
350
66
  3
ACAD_MLINESTYLE
350
5F
  3
ACAD_PLOTSETTINGS
350
61
  3
ACAD_PLOTSTYLENAME
350
E
  3
ACAD_RENDER_ACTIVE_RAPIDRT_SETTINGS
350
23F
  3
ACAD_RENDER_RAPIDRT_SETTINGS
350
238
  3
ACAD_SCALELIST
350
42
  3
ACAD_SECTIONVIEWSTYLE
350
68
  3
ACAD_TABLESTYLE
350
64
  3
ACAD_VISUALSTYLE
350
29
  3
ACDB_RECOMPOSE_DATA
350
2EB
  3
AcDbVariableDictionary
350
228
  3
REVIT_DICTIONARY
350
220
  0
SUN
  5
227
330
57
100
AcDbSun
 90
        1
290
     1
 63
     7
421
 16777215
 40
0.3
291
     1
 91
  2460364
 92
 51891000
292
     0
 70
     1
 71
   128
280
     1
  0
DICTIONARY
  5
244
330
2
100
AcDbDictionary
280
     1
281
     1
  3
ACAD_LAYERSTATES
360
245
  0
DICTIONARY
  5
225
330
70
100
AcDbDictionary
280
     1
281
     1
  3
ACAD_SORTENTS
360
226
  0
XRECORD
  5
79
102
{ACAD_REACTORS
330
C
102
}
330
C
100
AcDbXrecord
280
     1
300
ACD
300
2022
300

  0
DICTIONARY
  5
63
102
{ACAD_REACTORS
330
C
102
}
330
C
100
AcDbDictionary
281
     1
  0
DICTIONARY
  5
6A
102
{ACAD_REACTORS
330
C
102
}
330
C
100
AcDbDictionary
281
     1
  3
Imperial24
350
6B
  3
Metric50
350
230
  0
DICTIONARY
  5
D
102
{ACAD_REACTORS
330
C
102
}
330
C
100
AcDbDictionary
281
     1
  0
RASTERVARIABLES
  5
7A
102
{ACAD_REACTORS
330
C
102
}
330
C
100
AcDbRasterVariables
 90
        0
 70
     0
 71
     1
 72
     1
  0
DICTIONARY
  5
62
102
{ACAD_REACTORS
330
C
102
}
330
C
100
AcDbDictionary
281
     1
  3
Layout1
350
6F
  3
Model
350
73
  0
DICTIONARY
  5
10
102
{ACAD_REACTORS
330
C
102
}
330
C
100
AcDbDictionary
281
     1
  3
ByBlock
350
19
  3
ByLayer
350
11
  3
Global
350
21
  0
DICTIONARY
  5
66
102
{ACAD_REACTORS
330
C
102
}
330
C
100
AcDbDictionary
281
     1
  3
Standard
350
67
  0
DICTIONARY
  5
5F
102
{ACAD_REACTORS
330
C
102
}
330
C
100
AcDbDictionary
281
     1
  3
Standard
350
60
  0
DICTIONARY
  5
61
102
{ACAD_REACTORS
330
C
102
}
330
C
100
AcDbDictionary
281
     1
  0
ACDBDICTIONARYWDFLT
  5
E
102
{ACAD_REACTORS
330
C
102
}
330
C
100
AcDbDictionary
281
     1
  3
Normal
350
F
100
AcDbDictionaryWithDefault
340
F
  0
RAPIDRTRENDERSETTINGS
  5
23F
102
{ACAD_REACTORS
330
C
102
}
330
C
100
AcDbRenderSettings
 90
        2
  1
Médio
290
     1
290
     0
290
     1
290
     1
  1

  1
Aplica 5 níveis de renderização
 90
        0
100
AcDbRapidRTRenderSettings
 90
        3
 70
     0
 90
        5
 90
        1
 70
     1
 70
     2
 40
3.0
 40
3.0
290
     1
  0
DICTIONARY
  5
238
102
{ACAD_REACTORS
330
C
102
}
330
C
100
AcDbDictionary
281
     1
  3
Alto
350
23B
  3
Baixo
350
239
  3
Médio
350
23A
  3
Qualidade de curta duração
350
23C
  3
Qualidade de longa duração
350
23E
  3
Qualidade de média duração
350
23D
  0
DICTIONARY
  5
42
102
{ACAD_REACTORS
330
C
102
}
330
C
100
AcDbDictionary
281
     1
  3
A0
350
43
  3
A1
350
44
  3
A2
350
45
  3
A3
350
46
  3
A4
350
47
  3
A5
350
48
  3
A6
350
49
  3
A7
350
4A
  3
A8
350
4B
  3
A9
350
4C
  3
B0
350
4D
  3
B1
350
4E
  3
B2
350
4F
  3
B3
350
50
  3
B4
350
51
  3
B5
350
52
  3
B6
350
53
  0
DICTIONARY
  5
68
102
{ACAD_REACTORS
330
C
102
}
330
C
100
AcDbDictionary
281
     1
  3
Imperial24
350
69
  3
Metric50
350
22F
  0
DICTIONARY
  5
64
102
{ACAD_REACTORS
330
C
102
}
330
C
100
AcDbDictionary
281
     1
  3
Standard
350
65
  0
DICTIONARY
  5
29
102
{ACAD_REACTORS
330
C
102
}
330
C
100
AcDbDictionary
281
     1
  3
2dWireframe
350
2F
  3
Basic
350
2E
  3
Brighten
350
35
  3
ColorChange
350
39
  3
Conceptual
350
32
  3
Dim
350
34
  3
EdgeColorOff
350
41
  3
Facepattern
350
38
  3
Flat
350
2A
  3
FlatWithEdges
350
2B
  3
Gouraud
350
2C
  3
GouraudWithEdges
350
2D
  3
Hidden
350
31
  3
JitterOff
350
3F
  3
Linepattern
350
37
  3
OverhangOff
350
40
  3
Realistic
350
33
  3
Shaded
350
3E
  3
Shaded with edges
350
3D
  3
Shades of Gray
350
3A
  3
Sketchy
350
3B
  3
Thicken
350
36
  3
Wireframe
350
30
  3
X-Ray
350
3C
  0
XRECORD
  5
2EB
102
{ACAD_REACTORS
330
C
102
}
330
C
100
AcDbXrecord
280
     1
 90
        1
330
65
  0
DICTIONARY
  5
228
102
{ACAD_REACTORS
330
C
102
}
330
C
100
AcDbDictionary
281
     1
  3
CANNOSCALE
350
22D
  3
CMLEADERSTYLE
350
22A
  3
CTABLESTYLE
350
229
  3
CVIEWDETAILSTYLE
350
22B
  3
CVIEWSECTIONSTYLE
350
22C
  0
DICTIONARY
  5
220
102
{ACAD_REACTORS
330
C
102
}
330
C
100
AcDbDictionary
281
     1
  3
DRAWING_TOOL
350
224
  3
REVIT_CATEGORY_MAPPING
350
222
  3
REVIT_SUB_CATEGORY_MAPPING
350
223
  3
REVIT_TYPE_MAPPING
350
221
  0
DICTIONARY
  5
245
102
{ACAD_REACTORS
330
244
102
}
330
244
100
AcDbDictionary
281
     1
  0
SORTENTSTABLE
  5
226
102
{ACAD_REACTORS
330
225
102
}
330
225
100
AcDbSortentsTable
330
70
331
250
  5
252
331
251
  5
253
331
252
  5
254
331
253
  5
255
331
254
  5
25C
331
255
  5
25D
331
265
  5
2B1
331
267
  5
2B6
331
269
  5
2C1
331
26A
  5
2C2
331
26B
  5
2C3
331
26D
  5
2D0
331
280
  5
25E
331
281
  5
25F
331
282
  5
260
331
283
  5
261
331
284
  5
262
331
285
  5
263
331
286
  5
264
331
287
  5
265
331
288
  5
266
331
289
  5
267
331
28A
  5
283
331
28B
  5
284
331
28C
  5
2B7
331
28D
  5
2B8
331
28E
  5
2B9
331
28F
  5
2BA
331
290
  5
2BB
331
291
  5
2BC
331
292
  5
2BD
331
293
  5
2BE
331
294
  5
2BF
331
295
  5
2C0
331
296
  5
285
331
297
  5
286
331
298
  5
287
331
299
  5
288
331
29A
  5
289
331
29B
  5
28A
331
29C
  5
28B
331
29D
  5
28C
331
29E
  5
28D
331
29F
  5
28E
331
2A0
  5
28F
331
2A1
  5
290
331
2A2
  5
291
331
2A3
  5
292
331
2A4
  5
293
331
2A5
  5
295
331
2A6
  5
296
331
2A7
  5
297
331
2A8
  5
298
331
2A9
  5
299
331
2AA
  5
29A
331
2AB
  5
29B
331
2AC
  5
29C
331
2AD
  5
29D
331
2AE
  5
29E
331
2AF
  5
29F
331
2B0
  5
2A0
331
2B1
  5
2A1
331
2B2
  5
2A2
331
2B3
  5
2A3
331
2B4
  5
2A4
331
2B5
  5
2A5
331
2B6
  5
2A6
331
2B7
  5
2A7
331
2B8
  5
2A8
331
2B9
  5
2AA
331
2BA
  5
2AC
331
2BB
  5
2C4
331
2BC
  5
2C5
331
2BD
  5
2C6
331
2BE
  5
2C7
331
2BF
  5
2C8
331
2C0
  5
2C9
331
2C1
  5
2CA
331
2C2
  5
2CB
331
2C3
  5
2CC
331
2C4
  5
2CD
331
2C5
  5
2CE
331
2C6
  5
2CF
331
2C7
  5
250
331
2C8
  5
251
331
2C9
  5
2AD
331
2CA
  5
2AE
331
2CB
  5
2AF
331
2CC
  5
2B0
331
2CD
  5
2B2
331
2CE
  5
2B3
331
2CF
  5
2B4
331
2D0
  5
2B5
  0
ACDBDETAILVIEWSTYLE
  5
6B
102
{ACAD_REACTORS
330
6A
102
}
330
6A
100
AcDbModelDocViewStyle
 70
     0
  3
Imperial24
290
     1
300
Imperial24
 90
        0
100
AcDbDetailViewStyle
 70
     0
 71
     0
 90
        3
 71
     1
340
55
 62
   256
 40
0.24
340
0
 62
   256
 40
0.24
300

 40
0.36
280
     3
 71
     2
340
5D
 90
       25
 62
   256
 71
     3
340
55
 62
   256
 40
0.24
 90
        1
 40
0.75
 90
        1
300
%<\AcVar ViewType \f "%tc1">% %<\AcVar ViewDetailId>%\PSCALE %<\AcVar ViewScale \f "%sn">%
 71
     4
340
5D
 90
       25
 62
   256
340
5D
 90
       25
 62
   256
280
     0
  0
ACDBDETAILVIEWSTYLE
  5
230
102
{ACAD_REACTORS
330
6A
102
}
330
6A
100
AcDbModelDocViewStyle
 70
     0
  3
Metric50
290
     1
300
Metric50
 90
        0
100
AcDbDetailViewStyle
 70
     0
 71
     0
 90
        3
 71
     1
340
55
 62
   256
 40
5.0
340
0
 62
   256
 40
5.0
300

 40
0.0
280
     1
 71
     2
340
5D
 90
       25
 62
   256
 71
     3
340
55
 62
   256
 40
5.0
 90
        0
 40
15.0
 90
        1
300
%<\AcVar ViewDetailId>% (%<\AcVar ViewScale \f "%sn">%)
 71
     4
340
5D
 90
       25
 62
   256
340
5D
 90
       25
 62
   256
280
     0
  0
LAYOUT
  5
6F
102
{ACAD_REACTORS
330
62
102
}
330
62
100
AcDbPlotSettings
  1

  2
PDF24
  4
A4
  6

 40
0.0
 41
0.0
 42
0.1113433837890625
 43
0.0
 44
210.0
 45
297.0
 46
0.0
 47
0.0
 48
0.0
 49
0.0
140
0.0
141
0.0
142
1.0
143
1.415217033324818
 70
   688
 72
     1
 73
     1
 74
     1
  7

 75
     0
147
0.7066054014702363
 76
     0
 77
     2
 78
   300
148
-64.27901684485153
149
-59.47287840171589
100
AcDbLayout
  1
Layout1
 70
     0
 71
     1
 10
64.27901684485153
 20
59.47287840171589
 11
484.5984757423225
 21
356.6684553999278
 12
0.0
 22
0.0
 32
0.0
 14
64.27901684485153
 24
59.47287840171589
 34
-0.0015258207003583
 15
274.3012221009852
 25
356.5108803466415
 35
0.0000000349246037
146
0.0
 13
0.0
 23
0.0
 33
0.0
 16
1.0
 26
0.0
 36
0.0
 17
0.0
 27
1.0
 37
0.0
 76
     0
330
6C
331
213
1001
ACAD_PSEXT
1000
PDF24
1000
PDF24
1000
\\.\pipe\PDFPrint
1000
PDF24 Printer
1070
     0
  0
LAYOUT
  5
73
102
{ACAD_REACTORS
330
62
102
}
330
62
100
AcDbPlotSettings
  1

  2

  4

  6

 40
0.0
 41
0.0
 42
0.0
 43
0.0
 44
0.0
 45
0.0
 46
0.0
 47
0.0
 48
0.0
 49
0.0
140
0.0
141
0.0
142
1.0
143
1.0
 70
  1712
 72
     0
 73
     0
 74
     0
  7

 75
     0
147
1.0
 76
     0
 77
     2
 78
   300
148
0.0
149
0.0
100
AcDbLayout
  1
Model
 70
     1
 71
     0
 10
0.0
 20
0.0
 11
12.0
 21
9.0
 12
0.0
 22
0.0
 32
0.0
 14
0.0
 24
0.0
 34
0.0
 15
0.0
 25
0.0
 35
0.0
146
0.0
 13
0.0
 23
0.0
 33
0.0
 16
1.0
 26
0.0
 36
0.0
 17
0.0
 27
1.0
 37
0.0
 76
     0
330
70
331
57
  0
MATERIAL
  5
19
102
{ACAD_XDICTIONARY
360
1A
102
}
102
{ACAD_REACTORS
330
10
102
}
330
10
100
AcDbMaterial
  1
ByBlock
 72
     0
 43
0.0208333333333333
 43
0.0
 43
0.0
 43
0.0
 43
0.0
 43
0.0208333333333333
 43
0.0
 43
0.0
 43
0.0
 43
0.0
 43
1.0
 43
0.0
 43
0.0
 43
0.0
 43
0.0
 43
1.0
 77
     0
 47
0.0208333333333333
 47
0.0
 47
0.0
 47
0.0
 47
0.0
 47
0.0208333333333333
 47
0.0
 47
0.0
 47
0.0
 47
0.0
 47
1.0
 47
0.0
 47
0.0
 47
0.0
 47
0.0
 47
1.0
171
     0
 49
0.0208333333333333
 49
0.0
 49
0.0
 49
0.0
 49
0.0
 49
0.0208333333333333
 49
0.0
 49
0.0
 49
0.0
 49
0.0
 49
1.0
 49
0.0
 49
0.0
 49
0.0
 49
0.0
 49
1.0
175
     0
142
0.0208333333333333
142
0.0
142
0.0
142
0.0
142
0.0
142
0.0208333333333333
142
0.0
142
0.0
142
0.0
142
0.0
142
1.0
142
0.0
142
0.0
142
0.0
142
0.0
142
1.0
179
     0
144
0.0208333333333333
144
0.0
144
0.0
144
0.0
144
0.0
144
0.0208333333333333
144
0.0
144
0.0
144
0.0
144
0.0
144
1.0
144
0.0
144
0.0
144
0.0
144
0.0
144
1.0
147
0.0208333333333333
147
0.0
147
0.0
147
0.0
147
0.0
147
0.0208333333333333
147
0.0
147
0.0
147
0.0
147
0.0
147
1.0
147
0.0
147
0.0
147
0.0
147
0.0
147
1.0
  0
MATERIAL
  5
11
102
{ACAD_XDICTIONARY
360
12
102
}
102
{ACAD_REACTORS
330
10
102
}
330
10
100
AcDbMaterial
  1
ByLayer
 72
     0
 43
0.0208333333333333
 43
0.0
 43
0.0
 43
0.0
 43
0.0
 43
0.0208333333333333
 43
0.0
 43
0.0
 43
0.0
 43
0.0
 43
1.0
 43
0.0
 43
0.0
 43
0.0
 43
0.0
 43
1.0
 77
     0
 47
0.0208333333333333
 47
0.0
 47
0.0
 47
0.0
 47
0.0
 47
0.0208333333333333
 47
0.0
 47
0.0
 47
0.0
 47
0.0
 47
1.0
 47
0.0
 47
0.0
 47
0.0
 47
0.0
 47
1.0
171
     0
 49
0.0208333333333333
 49
0.0
 49
0.0
 49
0.0
 49
0.0
 49
0.0208333333333333
 49
0.0
 49
0.0
 49
0.0
 49
0.0
 49
1.0
 49
0.0
 49
0.0
 49
0.0
 49
0.0
 49
1.0
175
     0
142
0.0208333333333333
142
0.0
142
0.0
142
0.0
142
0.0
142
0.0208333333333333
142
0.0
142
0.0
142
0.0
142
0.0
142
1.0
142
0.0
142
0.0
142
0.0
142
0.0
142
1.0
179
     0
144
0.0208333333333333
144
0.0
144
0.0
144
0.0
144
0.0
144
0.0208333333333333
144
0.0
144
0.0
144
0.0
144
0.0
144
1.0
144
0.0
144
0.0
144
0.0
144
0.0
144
1.0
147
0.0208333333333333
147
0.0
147
0.0
147
0.0
147
0.0
147
0.0208333333333333
147
0.0
147
0.0
147
0.0
147
0.0
147
1.0
147
0.0
147
0.0
147
0.0
147
0.0
147
1.0
  0
MATERIAL
  5
21
102
{ACAD_XDICTIONARY
360
22
102
}
102
{ACAD_REACTORS
330
10
102
}
330
10
100
AcDbMaterial
  1
Global
 72
     0
 43
0.0208333333333333
 43
0.0
 43
0.0
 43
0.0
 43
0.0
 43
0.0208333333333333
 43
0.0
 43
0.0
 43
0.0
 43
0.0
 43
1.0
 43
0.0
 43
0.0
 43
0.0
 43
0.0
 43
1.0
 77
     0
 47
0.0208333333333333
 47
0.0
 47
0.0
 47
0.0
 47
0.0
 47
0.0208333333333333
 47
0.0
 47
0.0
 47
0.0
 47
0.0
 47
1.0
 47
0.0
 47
0.0
 47
0.0
 47
0.0
 47
1.0
171
     0
 49
0.0208333333333333
 49
0.0
 49
0.0
 49
0.0
 49
0.0
 49
0.0208333333333333
 49
0.0
 49
0.0
 49
0.0
 49
0.0
 49
1.0
 49
0.0
 49
0.0
 49
0.0
 49
0.0
 49
1.0
175
     0
142
0.0208333333333333
142
0.0
142
0.0
142
0.0
142
0.0
142
0.0208333333333333
142
0.0
142
0.0
142
0.0
142
0.0
142
1.0
142
0.0
142
0.0
142
0.0
142
0.0
142
1.0
179
     0
144
0.0208333333333333
144
0.0
144
0.0
144
0.0
144
0.0
144
0.0208333333333333
144
0.0
144
0.0
144
0.0
144
0.0
144
1.0
144
0.0
144
0.0
144
0.0
144
0.0
144
1.0
147
0.0208333333333333
147
0.0
147
0.0
147
0.0
147
0.0
147
0.0208333333333333
147
0.0
147
0.0
147
0.0
147
0.0
147
1.0
147
0.0
147
0.0
147
0.0
147
0.0
147
1.0
  0
MLEADERSTYLE
  5
67
102
{ACAD_REACTORS
330
66
102
}
330
66
100
AcDbMLeaderStyle
179
     2
170
     2
171
     1
172
     0
 90
        2
 40
0.0
 41
0.0
173
     1
 91
-1056964608
340
5B
 92
       -2
290
     1
 42
0.09
291
     1
 43
0.36
  3
Standard
 44
0.18
300

342
55
174
     1
178
     6
175
     1
176
     0
 93
-1056964608
 45
0.18
292
     0
297
     0
 46
0.18
 94
-1056964608
 47
1.0
 49
1.0
140
1.0
293
     1
141
0.0
294
     1
177
     0
142
1.0
295
     1
296
     0
143
0.125
271
     0
272
     9
273
     9
298
     1
  0
MLINESTYLE
  5
60
102
{ACAD_REACTORS
330
5F
102
}
330
5F
100
AcDbMlineStyle
  2
STANDARD
 70
     0
  3

 62
   256
 51
90.0
 52
90.0
 71
     2
 49
0.5
 62
   256
  6
BYLAYER
 49
-0.5
 62
   256
  6
BYLAYER
  0
ACDBPLACEHOLDER
  5
F
102
{ACAD_REACTORS
330
E
102
}
330
E
  0
RAPIDRTRENDERSETTINGS
  5
23B
102
{ACAD_REACTORS
330
238
102
}
330
238
100
AcDbRenderSettings
 90
        2
  1
Alto
290
     1
290
     0
290
     1
290
     1
  1

  1
Aplica 10 níveis de renderização
 90
        2
100
AcDbRapidRTRenderSettings
 90
        3
 70
     0
 90
       10
 90
        1
 70
     2
 70
     2
 40
3.0
 40
3.0
290
     1
  0
RAPIDRTRENDERSETTINGS
  5
239
102
{ACAD_REACTORS
330
238
102
}
330
238
100
AcDbRenderSettings
 90
        2
  1
Baixo
290
     1
290
     0
290
     1
290
     1
  1

  1
Aplica 1 nível de renderização
 90
        0
100
AcDbRapidRTRenderSettings
 90
        3
 70
     0
 90
        1
 90
        1
 70
     0
 70
     2
 40
3.0
 40
3.0
290
     1
  0
RAPIDRTRENDERSETTINGS
  5
23A
102
{ACAD_REACTORS
330
238
102
}
330
238
100
AcDbRenderSettings
 90
        2
  1
Médio
290
     1
290
     0
290
     1
290
     1
  1

  1
Aplica 5 níveis de renderização
 90
        1
100
AcDbRapidRTRenderSettings
 90
        3
 70
     0
 90
        5
 90
        1
 70
     1
 70
     2
 40
3.0
 40
3.0
290
     1
  0
RAPIDRTRENDERSETTINGS
  5
23C
102
{ACAD_REACTORS
330
238
102
}
330
238
100
AcDbRenderSettings
 90
        2
  1
Qualidade de curta duração
290
     1
290
     0
290
     1
290
     1
  1

  1
Renderiza por 10 minutos
 90
        3
100
AcDbRapidRTRenderSettings
 90
        3
 70
     1
 90
        1
 90
       10
 70
     1
 70
     2
 40
3.0
 40
3.0
290
     1
  0
RAPIDRTRENDERSETTINGS
  5
23E
102
{ACAD_REACTORS
330
238
102
}
330
238
100
AcDbRenderSettings
 90
        2
  1
Qualidade de longa duração
290
     1
290
     0
290
     1
290
     1
  1

  1
Renderiza por 12 horas
 90
        5
100
AcDbRapidRTRenderSettings
 90
        3
 70
     1
 90
        1
 90
      720
 70
     2
 70
     2
 40
3.0
 40
3.0
290
     1
  0
RAPIDRTRENDERSETTINGS
  5
23D
102
{ACAD_REACTORS
330
238
102
}
330
238
100
AcDbRenderSettings
 90
        2
  1
Qualidade de média duração
290
     1
290
     0
290
     1
290
     1
  1

  1
Renderiza por 60 minutos
 90
        4
100
AcDbRapidRTRenderSettings
 90
        3
 70
     1
 90
        1
 90
       60
 70
     2
 70
     2
 40
3.0
 40
3.0
290
     1
  0
SCALE
  5
43
102
{ACAD_REACTORS
330
42
102
}
330
42
100
AcDbScale
 70
     0
300
1:1
140
1.0
141
1.0
290
     1
  0
SCALE
  5
44
102
{ACAD_REACTORS
330
42
102
}
330
42
100
AcDbScale
 70
     0
300
1/128" = 1'-0"
140
0.0078125
141
12.0
290
     0
  0
SCALE
  5
45
102
{ACAD_REACTORS
330
42
102
}
330
42
100
AcDbScale
 70
     0
300
1/64" = 1'-0"
140
0.015625
141
12.0
290
     0
  0
SCALE
  5
46
102
{ACAD_REACTORS
330
42
102
}
330
42
100
AcDbScale
 70
     0
300
1/32" = 1'-0"
140
0.03125
141
12.0
290
     0
  0
SCALE
  5
47
102
{ACAD_REACTORS
330
42
102
}
330
42
100
AcDbScale
 70
     0
300
1/16" = 1'-0"
140
0.0625
141
12.0
290
     0
  0
SCALE
  5
48
102
{ACAD_REACTORS
330
42
102
}
330
42
100
AcDbScale
 70
     0
300
3/32" = 1'-0"
140
0.09375
141
12.0
290
     0
  0
SCALE
  5
49
102
{ACAD_REACTORS
330
42
102
}
330
42
100
AcDbScale
 70
     0
300
1/8" = 1'-0"
140
0.125
141
12.0
290
     0
  0
SCALE
  5
4A
102
{ACAD_REACTORS
330
42
102
}
330
42
100
AcDbScale
 70
     0
300
3/16" = 1'-0"
140
0.1875
141
12.0
290
     0
  0
SCALE
  5
4B
102
{ACAD_REACTORS
330
42
102
}
330
42
100
AcDbScale
 70
     0
300
1/4" = 1'-0"
140
0.25
141
12.0
290
     0
  0
SCALE
  5
4C
102
{ACAD_REACTORS
330
42
102
}
330
42
100
AcDbScale
 70
     0
300
3/8" = 1'-0"
140
0.375
141
12.0
290
     0
  0
SCALE
  5
4D
102
{ACAD_REACTORS
330
42
102
}
330
42
100
AcDbScale
 70
     0
300
1/2" = 1'-0"
140
0.5
141
12.0
290
     0
  0
SCALE
  5
4E
102
{ACAD_REACTORS
330
42
102
}
330
42
100
AcDbScale
 70
     0
300
3/4" = 1'-0"
140
0.75
141
12.0
290
     0
  0
SCALE
  5
4F
102
{ACAD_REACTORS
330
42
102
}
330
42
100
AcDbScale
 70
     0
300
1" = 1'-0"
140
1.0
141
12.0
290
     0
  0
SCALE
  5
50
102
{ACAD_REACTORS
330
42
102
}
330
42
100
AcDbScale
 70
     0
300
1-1/2" = 1'-0"
140
1.5
141
12.0
290
     0
  0
SCALE
  5
51
102
{ACAD_REACTORS
330
42
102
}
330
42
100
AcDbScale
 70
     0
300
3" = 1'-0"
140
3.0
141
12.0
290
     0
  0
SCALE
  5
52
102
{ACAD_REACTORS
330
42
102
}
330
42
100
AcDbScale
 70
     0
300
6" = 1'-0"
140
6.0
141
12.0
290
     0
  0
SCALE
  5
53
102
{ACAD_REACTORS
330
42
102
}
330
42
100
AcDbScale
 70
     0
300
1'-0" = 1'-0"
140
12.0
141
12.0
290
     0
  0
ACDBSECTIONVIEWSTYLE
  5
69
102
{ACAD_REACTORS
330
68
102
}
330
68
100
AcDbModelDocViewStyle
 70
     0
  3
Imperial24
290
     1
300
Imperial24
 90
        0
100
AcDbSectionViewStyle
 70
     0
 71
     0
 90
       78
 71
     1
340
55
 62
   256
 40
0.24
340
0
340
0
 62
   256
 40
0.24
300
I, O, Q, S, X, Z
 40
0.48
 90
        3
 40
0.18
 90
        1
 71
     2
340
5D
 90
       25
 62
   256
340
5D
 90
       50
 62
   256
 40
0.24
 40
0.0
 40
0.24
 71
     3
340
55
 62
   256
 40
0.24
 90
        1
 40
0.75
 90
        1
300
%<\AcVar ViewType \f "%tc1">% %<\AcVar ViewSectionStartId>%-%<\AcVar ViewSectionEndId>%\PSCALE %<\AcVar ViewScale \f "%sn">%
 71
     4
 62
   256
 62
   257
300
ANSI31
 40
1.0
 90
        0
290
     0
290
     0
 90
        6
 40
0.0
 40
1.570796326794896
 40
0.2617993877991494
 40
1.308996938995747
 40
-0.2617993877991494
 40
1.832595714594046
  0
ACDBSECTIONVIEWSTYLE
  5
22F
102
{ACAD_REACTORS
330
68
102
}
330
68
100
AcDbModelDocViewStyle
 70
     0
  3
Metric50
290
     1
300
Metric50
 90
        0
100
AcDbSectionViewStyle
 70
     0
 71
     0
 90
      102
 71
     1
340
55
 62
   256
 40
5.0
340
0
340
0
 62
   256
 40
5.0
300
I, O, Q, S, X, Z
 40
10.0
 90
        0
 40
2.5
 90
        0
 71
     2
340
5D
 90
       25
 62
   256
340
5D
 90
       50
 62
   256
 40
5.0
 40
2.5
 40
5.0
 71
     3
340
55
 62
   256
 40
5.0
 90
        0
 40
15.0
 90
        1
300
%<\AcVar ViewSectionStartId>%-%<\AcVar ViewSectionEndId>% (%<\AcVar ViewScale \f "%sn">%)
 71
     4
 62
   256
 62
   257
300
ANSI31
 40
1.0
 90
        0
290
     0
290
     0
 90
        6
 40
0.0
 40
1.570796326794896
 40
0.2617993877991494
 40
1.308996938995747
 40
-0.2617993877991494
 40
1.832595714594046
  0
TABLESTYLE
  5
65
102
{ACAD_XDICTIONARY
360
2E9
102
}
102
{ACAD_REACTORS
330
64
102
}
330
64
100
AcDbTableStyle
280
     0
  3
Standard
 70
     0
 71
     0
 40
0.06
 41
0.06
280
     0
281
     0
  7
Standard
140
0.18
170
     2
 62
     0
 63
     7
283
     0
 90
      512
 91
        0
  1

274
    -2
284
     1
 64
     0
275
    -2
285
     1
 65
     0
276
    -2
286
     1
 66
     0
277
    -2
287
     1
 67
     0
278
    -2
288
     1
 68
     0
279
    -2
289
     1
 69
     0
  7
Standard
140
0.25
170
     5
 62
     0
 63
     7
283
     0
 90
      512
 91
        0
  1

274
    -2
284
     1
 64
     0
275
    -2
285
     1
 65
     0
276
    -2
286
     1
 66
     0
277
    -2
287
     1
 67
     0
278
    -2
288
     1
 68
     0
279
    -2
289
     1
 69
     0
  7
Standard
140
0.18
170
     5
 62
     0
 63
     7
283
     0
 90
      512
 91
        0
  1

274
    -2
284
     1
 64
     0
275
    -2
285
     1
 65
     0
276
    -2
286
     1
 66
     0
277
    -2
287
     1
 67
     0
278
    -2
288
     1
 68
     0
279
    -2
289
     1
 69
     0
  0
VISUALSTYLE
  5
2F
102
{ACAD_REACTORS
330
29
102
}
330
29
100
AcDbVisualStyle
  2
2dWireframe
 70
     4
177
     3
291
     0
 70
    58
 90
        0
176
     1
 90
        2
176
     1
 90
        0
176
     1
 90
        0
176
     1
 40
0.6
176
     1
 40
30.0
176
     1
 62
     7
420
 16777215
176
     1
 90
        1
176
     1
 90
        4
176
     1
 62
     7
176
     1
 62
   257
176
     1
 90
        1
176
     1
 90
        1
176
     1
 40
1.0
176
     1
 90
        0
176
     1
 62
   257
176
     1
 40
1.0
176
     1
 90
        1
176
     1
 90
        6
176
     1
 90
        2
176
     1
 62
     7
176
     1
 90
        5
176
     1
 90
        0
176
     1
 90
        0
176
     1
290
     0
176
     1
 90
        1
176
     1
 40
0.0
176
     1
 90
        0
176
     1
290
     1
176
     1
290
     1
176
     1
290
     0
176
     1
290
     0
176
     1
290
     0
176
     1
290
     0
176
     1
290
     0
176
     1
290
     0
176
     1
290
     0
176
     1
 90
       50
176
     1
 40
0.0
176
     1
 40
1.0
176
     1
 90
        0
176
     1
 62
    18
420
        0
176
     1
 90
       50
176
     1
 90
        3
176
     1
 62
     5
420
      255
176
     1
290
     0
176
     1
 90
       50
176
     1
 90
       50
176
     1
 90
       50
176
     1
290
     0
176
     1
 90
       50
176
     1
 62
   256
176
     0
 40
1.0
176
     0
 90
        2
176
     1
  1
strokes_ogs.tif
176
     1
290
     0
176
     1
 40
1.0
176
     1
 40
1.0
176
     1
  0
VISUALSTYLE
  5
2E
102
{ACAD_REACTORS
330
29
102
}
330
29
100
AcDbVisualStyle
  2
Basic
 70
     7
177
     3
291
     1
 70
    58
 90
        1
176
     1
 90
        0
176
     1
 90
        1
176
     1
 90
        0
176
     1
 40
0.6
176
     1
 40
30.0
176
     1
 62
     7
420
 16777215
176
     1
 90
        0
176
     1
 90
        4
176
     1
 62
     7
176
     1
 62
   257
176
     1
 90
        1
176
     1
 90
        1
176
     1
 40
1.0
176
     1
 90
        8
176
     1
 62
     7
176
     1
 40
1.0
176
     1
 90
        1
176
     1
 90
        6
176
     1
 90
        2
176
     1
 62
     7
176
     1
 90
        5
176
     1
 90
        0
176
     1
 90
        0
176
     1
290
     0
176
     1
 90
        1
176
     1
 40
0.0
176
     1
 90
        0
176
     1
290
     0
176
     1
290
     1
176
     1
290
     1
176
     1
290
     0
176
     1
290
     0
176
     1
290
     0
176
     1
290
     0
176
     1
290
     0
176
     1
290
     0
176
     1
 90
       50
176
     1
 40
0.0
176
     1
 40
1.0
176
     1
 90
        0
176
     1
 62
    18
420
        0
176
     1
 90
       50
176
     1
 90
        3
176
     1
 62
     5
420
      255
176
     1
290
     0
176
     1
 90
       50
176
     1
 90
       50
176
     1
 90
       50
176
     1
290
     0
176
     1
 90
       50
176
     1
 62
   256
176
     0
 40
1.0
176
     0
 90
        2
176
     1
  1
strokes_ogs.tif
176
     1
290
     0
176
     1
 40
1.0
176
     1
 40
1.0
176
     1
  0
VISUALSTYLE
  5
35
102
{ACAD_REACTORS
330
29
102
}
330
29
100
AcDbVisualStyle
  2
Brighten
 70
    12
177
     3
291
     1
 70
    58
 90
        2
176
     1
 90
        2
176
     1
 90
        0
176
     1
 90
        0
176
     1
 40
0.6
176
     1
 40
30.0
176
     1
 62
     7
420
 16777215
176
     1
 90
        1
176
     1
 90
        4
176
     1
 62
     7
176
     1
 62
   257
176
     1
 90
        1
176
     1
 90
        1
176
     1
 40
1.0
176
     1
 90
        8
176
     1
 62
     7
176
     1
 40
1.0
176
     1
 90
        1
176
     1
 90
        6
176
     1
 90
        2
176
     1
 62
     7
176
     1
 90
        5
176
     1
 90
        0
176
     1
 90
        0
176
     1
290
     0
176
     1
 90
        1
176
     1
 40
50.0
176
     1
 90
        0
176
     1
290
     0
176
     1
290
     1
176
     1
290
     1
176
     1
290
     0
176
     1
290
     0
176
     1
290
     0
176
     1
290
     0
176
     1
290
     0
176
     1
290
     0
176
     1
 90
       50
176
     1
 40
0.0
176
     1
 40
1.0
176
     1
 90
        0
176
     1
 62
    18
420
        0
176
     1
 90
       50
176
     1
 90
        3
176
     1
 62
     5
420
      255
176
     1
290
     0
176
     1
 90
       50
176
     1
 90
       50
176
     1
 90
       50
176
     1
290
     0
176
     1
 90
       50
176
     1
 62
   256
176
     0
 40
1.0
176
     0
 90
        2
176
     1
  1
strokes_ogs.tif
176
     1
290
     0
176
     1
 40
1.0
176
     1
 40
1.0
176
     1
  0
VISUALSTYLE
  5
39
102
{ACAD_REACTORS
330
29
102
}
330
29
100
AcDbVisualStyle
  2
ColorChange
 70
    16
177
     3
291
     1
 70
    58
 90
        2
176
     1
 90
        2
176
     1
 90
        3
176
     1
 90
        0
176
     1
 40
0.6
176
     1
 40
30.0
176
     1
 62
     8
420
  8421504
176
     1
 90
        1
176
     1
 90
        4
176
     1
 62
     7
176
     1
 62
   257
176
     1
 90
        1
176
     1
 90
        1
176
     1
 40
1.0
176
     1
 90
        8
176
     1
 62
     8
420
  8421504
176
     1
 40
1.0
176
     1
 90
        1
176
     1
 90
        6
176
     1
 90
        2
176
     1
 62
     7
176
     1
 90
        5
176
     1
 90
        0
176
     1
 90
        0
176
     1
290
     0
176
     1
 90
        1
176
     1
 40
0.0
176
     1
 90
        0
176
     1
290
     0
176
     1
290
     1
176
     1
290
     1
176
     1
290
     0
176
     1
290
     0
176
     1
290
     0
176
     1
290
     0
176
     1
290
     0
176
     1
290
     0
176
     1
 90
       50
176
     1
 40
0.0
176
     1
 40
1.0
176
     1
 90
        0
176
     1
 62
    18
420
        0
176
     1
 90
       50
176
     1
 90
        3
176
     1
 62
     5
420
      255
176
     1
290
     0
176
     1
 90
       50
176
     1
 90
       50
176
     1
 90
       50
176
     1
290
     0
176
     1
 90
       50
176
     1
 62
   256
176
     0
 40
1.0
176
     0
 90
        2
176
     1
  1
strokes_ogs.tif
176
     1
290
     0
176
     1
 40
1.0
176
     1
 40
1.0
176
     1
  0
VISUALSTYLE
  5
32
102
{ACAD_REACTORS
330
29
102
}
330
29
100
AcDbVisualStyle
  2
Conceptual
 70
     9
177
     3
291
     0
 70
    58
 90
        3
176
     1
 90
        2
176
     1
 90
        0
176
     1
 90
        0
176
     1
 40
0.6
176
     1
 40
30.0
176
     1
 62
     7
420
 16777215
176
     1
 90
        2
176
     1
 90
        2
176
     1
 62
     7
176
     1
 62
   257
176
     1
 90
        1
176
     1
 90
        1
176
     1
 40
179.0
176
     1
 90
        8
176
     1
 62
     7
176
     1
 40
1.0
176
     1
 90
        1
176
     1
 90
        6
176
     1
 90
        2
176
     1
 62
     7
176
     1
 90
        3
176
     1
 90
        0
176
     1
 90
        0
176
     1
290
     0
176
     1
 90
        1
176
     1
 40
0.0
176
     1
 90
        0
176
     1
290
     0
176
     1
290
     1
176
     1
290
     1
176
     1
290
     0
176
     1
290
     0
176
     1
290
     0
176
     1
290
     0
176
     1
290
     0
176
     1
290
     0
176
     1
 90
       50
176
     1
 40
0.0
176
     1
 40
1.0
176
     1
 90
        0
176
     1
 62
    18
420
        0
176
     1
 90
       50
176
     1
 90
        3
176
     1
 62
     5
420
      255
176
     1
290
     0
176
     1
 90
       50
176
     1
 90
       50
176
     1
 90
       50
176
     1
290
     0
176
     1
 90
       50
176
     1
 62
   256
176
     0
 40
1.0
176
     0
 90
        2
176
     1
  1
strokes_ogs.tif
176
     1
290
     0
176
     1
 40
1.0
176
     1
 40
1.0
176
     1
  0
VISUALSTYLE
  5
34
102
{ACAD_REACTORS
330
29
102
}
330
29
100
AcDbVisualStyle
  2
Dim
 70
    11
177
     3
291
     1
 70
    58
 90
        2
176
     1
 90
        2
176
     1
 90
        0
176
     1
 90
        0
176
     1
 40
0.6
176
     1
 40
30.0
176
     1
 62
     7
420
 16777215
176
     1
 90
        1
176
     1
 90
        4
176
     1
 62
     7
176
     1
 62
   257
176
     1
 90
        1
176
     1
 90
        1
176
     1
 40
1.0
176
     1
 90
        8
176
     1
 62
     7
176
     1
 40
1.0
176
     1
 90
        1
176
     1
 90
        6
176
     1
 90
        2
176
     1
 62
     7
176
     1
 90
        5
176
     1
 90
        0
176
     1
 90
        0
176
     1
290
     0
176
     1
 90
        1
176
     1
 40
-50.0
176
     1
 90
        0
176
     1
290
     0
176
     1
290
     1
176
     1
290
     1
176
     1
290
     0
176
     1
290
     0
176
     1
290
     0
176
     1
290
     0
176
     1
290
     0
176
     1
290
     0
176
     1
 90
       50
176
     1
 40
0.0
176
     1
 40
1.0
176
     1
 90
        0
176
     1
 62
    18
420
        0
176
     1
 90
       50
176
     1
 90
        3
176
     1
 62
     5
420
      255
176
     1
290
     0
176
     1
 90
       50
176
     1
 90
       50
176
     1
 90
       50
176
     1
290
     0
176
     1
 90
       50
176
     1
 62
   256
176
     0
 40
1.0
176
     0
 90
        2
176
     1
  1
strokes_ogs.tif
176
     1
290
     0
176
     1
 40
1.0
176
     1
 40
1.0
176
     1
  0
VISUALSTYLE
  5
41
102
{ACAD_REACTORS
330
29
102
}
330
29
100
AcDbVisualStyle
  2
EdgeColorOff
 70
    22
177
     3
291
     1
 70
    58
 90
        2
176
     0
 90
        2
176
     0
 90
        0
176
     0
 90
        0
176
     0
 40
0.6
176
     0
 40
30.0
176
     0
 62
     7
420
 16777215
176
     0
 90
        1
176
     0
 90
        4
176
     0
 62
     7
176
     0
 62
   257
176
     0
 90
        1
176
     0
 90
        1
176
     0
 40
1.0
176
     0
 90
        8
176
     2
 62
     7
176
     0
 40
1.0
176
     0
 90
        1
176
     0
 90
        6
176
     0
 90
        2
176
     0
 62
     7
176
     0
 90
        5
176
     0
 90
        0
176
     0
 90
        0
176
     0
290
     0
176
     0
 90
        1
176
     0
 40
0.0
176
     0
 90
        0
176
     0
290
     0
176
     0
290
     1
176
     0
290
     1
176
     0
290
     0
176
     0
290
     0
176
     0
290
     0
176
     0
290
     0
176
     0
290
     0
176
     0
290
     0
176
     0
 90
       50
176
     0
 40
0.0
176
     0
 40
1.0
176
     0
 90
        0
176
     0
 62
    18
420
        0
176
     0
 90
       50
176
     0
 90
        3
176
     0
 62
     5
420
      255
176
     0
290
     0
176
     0
 90
       50
176
     0
 90
       50
176
     0
 90
       50
176
     0
290
     0
176
     0
 90
       50
176
     0
 62
   256
176
     0
 40
1.0
176
     0
 90
        2
176
     0
  1
strokes_ogs.tif
176
     0
290
     0
176
     0
 40
1.0
176
     0
 40
1.0
176
     0
  0
VISUALSTYLE
  5
38
102
{ACAD_REACTORS
330
29
102
}
330
29
100
AcDbVisualStyle
  2
Facepattern
 70
    15
177
     3
291
     1
 70
    58
 90
        2
176
     1
 90
        2
176
     1
 90
        0
176
     1
 90
        0
176
     1
 40
0.6
176
     1
 40
30.0
176
     1
 62
     7
420
 16777215
176
     1
 90
        1
176
     1
 90
        4
176
     1
 62
     7
176
     1
 62
   257
176
     1
 90
        1
176
     1
 90
        1
176
     1
 40
1.0
176
     1
 90
        8
176
     1
 62
     7
176
     1
 40
1.0
176
     1
 90
        1
176
     1
 90
        6
176
     1
 90
        2
176
     1
 62
     7
176
     1
 90
        5
176
     1
 90
        0
176
     1
 90
        0
176
     1
290
     0
176
     1
 90
        1
176
     1
 40
0.0
176
     1
 90
        0
176
     1
290
     0
176
     1
290
     1
176
     1
290
     1
176
     1
290
     0
176
     1
290
     0
176
     1
290
     0
176
     1
290
     0
176
     1
290
     0
176
     1
290
     0
176
     1
 90
       50
176
     1
 40
0.0
176
     1
 40
1.0
176
     1
 90
        0
176
     1
 62
    18
420
        0
176
     1
 90
       50
176
     1
 90
        3
176
     1
 62
     5
420
      255
176
     1
290
     0
176
     1
 90
       50
176
     1
 90
       50
176
     1
 90
       50
176
     1
290
     0
176
     1
 90
       50
176
     1
 62
   256
176
     0
 40
1.0
176
     0
 90
        2
176
     1
  1
strokes_ogs.tif
176
     1
290
     0
176
     1
 40
1.0
176
     1
 40
1.0
176
     1
  0
VISUALSTYLE
  5
2A
102
{ACAD_REACTORS
330
29
102
}
330
29
100
AcDbVisualStyle
  2
Flat
 70
     0
177
     3
291
     1
 70
    58
 90
        2
176
     1
 90
        1
176
     1
 90
        1
176
     1
 90
        2
176
     1
 40
0.6
176
     1
 40
30.0
176
     1
 62
     7
420
 16777215
176
     1
 90
        0
176
     1
 90
        0
176
     1
 62
     7
176
     1
 62
   257
176
     1
 90
        1
176
     1
 90
        1
176
     1
 40
1.0
176
     1
 90
        8
176
     1
 62
     7
176
     1
 40
1.0
176
     1
 90
        1
176
     1
 90
        6
176
     1
 90
        2
176
     1
 62
     7
176
     1
 90
        5
176
     1
 90
        0
176
     1
 90
        0
176
     1
290
     0
176
     1
 90
       13
176
     1
 40
0.0
176
     1
 90
        0
176
     1
290
     0
176
     1
290
     1
176
     1
290
     1
176
     1
290
     0
176
     1
290
     0
176
     1
290
     0
176
     1
290
     0
176
     1
290
     0
176
     1
290
     0
176
     1
 90
       50
176
     1
 40
0.0
176
     1
 40
1.0
176
     1
 90
        0
176
     1
 62
    18
420
        0
176
     1
 90
       50
176
     1
 90
        3
176
     1
 62
     5
420
      255
176
     1
290
     0
176
     1
 90
       50
176
     1
 90
       50
176
     1
 90
       50
176
     1
290
     0
176
     1
 90
       50
176
     1
 62
   256
176
     0
 40
1.0
176
     0
 90
        2
176
     1
  1
strokes_ogs.tif
176
     1
290
     0
176
     1
 40
1.0
176
     1
 40
1.0
176
     1
  0
VISUALSTYLE
  5
2B
102
{ACAD_REACTORS
330
29
102
}
330
29
100
AcDbVisualStyle
  2
FlatWithEdges
 70
     1
177
     3
291
     1
 70
    58
 90
        2
176
     1
 90
        1
176
     1
 90
        1
176
     1
 90
        2
176
     1
 40
0.6
176
     1
 40
30.0
176
     1
 62
     7
420
 16777215
176
     1
 90
        1
176
     1
 90
        0
176
     1
 62
     7
176
     1
 62
   257
176
     1
 90
        1
176
     1
 90
        1
176
     1
 40
1.0
176
     1
 90
        0
176
     1
 62
   257
176
     1
 40
1.0
176
     1
 90
        1
176
     1
 90
        6
176
     1
 90
        2
176
     1
 62
     7
176
     1
 90
        5
176
     1
 90
        0
176
     1
 90
        0
176
     1
290
     0
176
     1
 90
       13
176
     1
 40
0.0
176
     1
 90
        0
176
     1
290
     0
176
     1
290
     1
176
     1
290
     1
176
     1
290
     0
176
     1
290
     0
176
     1
290
     0
176
     1
290
     0
176
     1
290
     0
176
     1
290
     0
176
     1
 90
       50
176
     1
 40
0.0
176
     1
 40
1.0
176
     1
 90
        0
176
     1
 62
    18
420
        0
176
     1
 90
       50
176
     1
 90
        3
176
     1
 62
     5
420
      255
176
     1
290
     0
176
     1
 90
       50
176
     1
 90
       50
176
     1
 90
       50
176
     1
290
     0
176
     1
 90
       50
176
     1
 62
   256
176
     0
 40
1.0
176
     0
 90
        2
176
     1
  1
strokes_ogs.tif
176
     1
290
     0
176
     1
 40
1.0
176
     1
 40
1.0
176
     1
  0
VISUALSTYLE
  5
2C
102
{ACAD_REACTORS
330
29
102
}
330
29
100
AcDbVisualStyle
  2
Gouraud
 70
     2
177
     3
291
     1
 70
    58
 90
        2
176
     1
 90
        2
176
     1
 90
        1
176
     1
 90
        2
176
     1
 40
0.6
176
     1
 40
30.0
176
     1
 62
     7
420
 16777215
176
     1
 90
        0
176
     1
 90
        0
176
     1
 62
     7
176
     1
 62
   257
176
     1
 90
        1
176
     1
 90
        1
176
     1
 40
1.0
176
     1
 90
        0
176
     1
 62
     7
176
     1
 40
1.0
176
     1
 90
        1
176
     1
 90
        6
176
     1
 90
        2
176
     1
 62
     7
176
     1
 90
        5
176
     1
 90
        0
176
     1
 90
        0
176
     1
290
     0
176
     1
 90
       13
176
     1
 40
0.0
176
     1
 90
        0
176
     1
290
     0
176
     1
290
     1
176
     1
290
     1
176
     1
290
     0
176
     1
290
     0
176
     1
290
     0
176
     1
290
     0
176
     1
290
     0
176
     1
290
     0
176
     1
 90
       50
176
     1
 40
0.0
176
     1
 40
1.0
176
     1
 90
        0
176
     1
 62
    18
420
        0
176
     1
 90
       50
176
     1
 90
        3
176
     1
 62
     5
420
      255
176
     1
290
     0
176
     1
 90
       50
176
     1
 90
       50
176
     1
 90
       50
176
     1
290
     0
176
     1
 90
       50
176
     1
 62
   256
176
     0
 40
1.0
176
     0
 90
        2
176
     1
  1
strokes_ogs.tif
176
     1
290
     0
176
     1
 40
1.0
176
     1
 40
1.0
176
     1
  0
VISUALSTYLE
  5
2D
102
{ACAD_REACTORS
330
29
102
}
330
29
100
AcDbVisualStyle
  2
GouraudWithEdges
 70
     3
177
     3
291
     1
 70
    58
 90
        2
176
     1
 90
        2
176
     1
 90
        1
176
     1
 90
        2
176
     1
 40
0.6
176
     1
 40
30.0
176
     1
 62
     7
420
 16777215
176
     1
 90
        1
176
     1
 90
        0
176
     1
 62
     7
176
     1
 62
   257
176
     1
 90
        1
176
     1
 90
        1
176
     1
 40
1.0
176
     1
 90
        0
176
     1
 62
   257
176
     1
 40
1.0
176
     1
 90
        1
176
     1
 90
        6
176
     1
 90
        2
176
     1
 62
     7
176
     1
 90
        5
176
     1
 90
        0
176
     1
 90
        0
176
     1
290
     0
176
     1
 90
       13
176
     1
 40
0.0
176
     1
 90
        0
176
     1
290
     0
176
     1
290
     1
176
     1
290
     1
176
     1
290
     0
176
     1
290
     0
176
     1
290
     0
176
     1
290
     0
176
     1
290
     0
176
     1
290
     0
176
     1
 90
       50
176
     1
 40
0.0
176
     1
 40
1.0
176
     1
 90
        0
176
     1
 62
    18
420
        0
176
     1
 90
       50
176
     1
 90
        3
176
     1
 62
     5
420
      255
176
     1
290
     0
176
     1
 90
       50
176
     1
 90
       50
176
     1
 90
       50
176
     1
290
     0
176
     1
 90
       50
176
     1
 62
   256
176
     0
 40
1.0
176
     0
 90
        2
176
     1
  1
strokes_ogs.tif
176
     1
290
     0
176
     1
 40
1.0
176
     1
 40
1.0
176
     1
  0
VISUALSTYLE
  5
31
102
{ACAD_REACTORS
330
29
102
}
330
29
100
AcDbVisualStyle
  2
Hidden
 70
     6
177
     3
291
     0
 70
    58
 90
        1
176
     1
 90
        2
176
     1
 90
        2
176
     1
 90
        0
176
     1
 40
0.6
176
     1
 40
30.0
176
     1
 62
     7
420
 16777215
176
     1
 90
        2
176
     1
 90
        2
176
     1
 62
     7
176
     1
 62
   257
176
     1
 90
        2
176
     1
 90
        1
176
     1
 40
40.0
176
     1
 90
        0
176
     1
 62
   257
176
     1
 40
1.0
176
     1
 90
        1
176
     1
 90
        6
176
     1
 90
        2
176
     1
 62
     7
176
     1
 90
        3
176
     1
 90
        0
176
     1
 90
        0
176
     1
290
     0
176
     1
 90
        1
176
     1
 40
0.0
176
     1
 90
        0
176
     1
290
     0
176
     1
290
     1
176
     1
290
     1
176
     1
290
     0
176
     1
290
     0
176
     1
290
     0
176
     1
290
     0
176
     1
290
     0
176
     1
290
     0
176
     1
 90
       50
176
     1
 40
0.0
176
     1
 40
1.0
176
     1
 90
        0
176
     1
 62
    18
420
        0
176
     1
 90
       50
176
     1
 90
        3
176
     1
 62
     5
420
      255
176
     1
290
     0
176
     1
 90
       50
176
     1
 90
       50
176
     1
 90
       50
176
     1
290
     0
176
     1
 90
       50
176
     1
 62
   256
176
     0
 40
1.0
176
     0
 90
        2
176
     1
  1
strokes_ogs.tif
176
     1
290
     0
176
     1
 40
1.0
176
     1
 40
1.0
176
     1
  0
VISUALSTYLE
  5
3F
102
{ACAD_REACTORS
330
29
102
}
330
29
100
AcDbVisualStyle
  2
JitterOff
 70
    20
177
     3
291
     1
 70
    58
 90
        2
176
     0
 90
        2
176
     0
 90
        0
176
     0
 90
        0
176
     0
 40
0.6
176
     0
 40
30.0
176
     0
 62
     7
420
 16777215
176
     0
 90
        1
176
     0
 90
        4
176
     0
 62
     7
176
     0
 62
   257
176
     0
 90
        1
176
     0
 90
        1
176
     0
 40
1.0
176
     0
 90
       10
176
     2
 62
     7
176
     0
 40
1.0
176
     0
 90
        1
176
     0
 90
        6
176
     0
 90
        2
176
     0
 62
     7
176
     0
 90
        5
176
     0
 90
        0
176
     0
 90
        0
176
     0
290
     0
176
     0
 90
        1
176
     0
 40
0.0
176
     0
 90
        0
176
     0
290
     0
176
     0
290
     1
176
     0
290
     1
176
     0
290
     0
176
     0
290
     0
176
     0
290
     0
176
     0
290
     0
176
     0
290
     0
176
     0
290
     0
176
     0
 90
       50
176
     0
 40
0.0
176
     0
 40
1.0
176
     0
 90
        0
176
     0
 62
    18
420
        0
176
     0
 90
       50
176
     0
 90
        3
176
     0
 62
     5
420
      255
176
     0
290
     0
176
     0
 90
       50
176
     0
 90
       50
176
     0
 90
       50
176
     0
290
     0
176
     0
 90
       50
176
     0
 62
   256
176
     0
 40
1.0
176
     0
 90
        2
176
     0
  1
strokes_ogs.tif
176
     0
290
     0
176
     0
 40
1.0
176
     0
 40
1.0
176
     0
  0
VISUALSTYLE
  5
37
102
{ACAD_REACTORS
330
29
102
}
330
29
100
AcDbVisualStyle
  2
Linepattern
 70
    14
177
     3
291
     1
 70
    58
 90
        2
176
     1
 90
        2
176
     1
 90
        0
176
     1
 90
        0
176
     1
 40
0.6
176
     1
 40
30.0
176
     1
 62
     7
420
 16777215
176
     1
 90
        1
176
     1
 90
        4
176
     1
 62
     7
176
     1
 62
   257
176
     1
 90
        7
176
     1
 90
        7
176
     1
 40
1.0
176
     1
 90
        8
176
     1
 62
     7
176
     1
 40
1.0
176
     1
 90
        1
176
     1
 90
        6
176
     1
 90
        2
176
     1
 62
     7
176
     1
 90
        5
176
     1
 90
        0
176
     1
 90
        0
176
     1
290
     0
176
     1
 90
        1
176
     1
 40
0.0
176
     1
 90
        0
176
     1
290
     0
176
     1
290
     1
176
     1
290
     1
176
     1
290
     0
176
     1
290
     0
176
     1
290
     0
176
     1
290
     0
176
     1
290
     0
176
     1
290
     0
176
     1
 90
       50
176
     1
 40
0.0
176
     1
 40
1.0
176
     1
 90
        0
176
     1
 62
    18
420
        0
176
     1
 90
       50
176
     1
 90
        3
176
     1
 62
     5
420
      255
176
     1
290
     0
176
     1
 90
       50
176
     1
 90
       50
176
     1
 90
       50
176
     1
290
     0
176
     1
 90
       50
176
     1
 62
   256
176
     0
 40
1.0
176
     0
 90
        2
176
     1
  1
strokes_ogs.tif
176
     1
290
     0
176
     1
 40
1.0
176
     1
 40
1.0
176
     1
  0
VISUALSTYLE
  5
40
102
{ACAD_REACTORS
330
29
102
}
330
29
100
AcDbVisualStyle
  2
OverhangOff
 70
    21
177
     3
291
     1
 70
    58
 90
        2
176
     0
 90
        2
176
     0
 90
        0
176
     0
 90
        0
176
     0
 40
0.6
176
     0
 40
30.0
176
     0
 62
     7
420
 16777215
176
     0
 90
        1
176
     0
 90
        4
176
     0
 62
     7
176
     0
 62
   257
176
     0
 90
        1
176
     0
 90
        1
176
     0
 40
1.0
176
     0
 90
        9
176
     2
 62
     7
176
     0
 40
1.0
176
     0
 90
        1
176
     0
 90
        6
176
     0
 90
        2
176
     0
 62
     7
176
     0
 90
        5
176
     0
 90
        0
176
     0
 90
        0
176
     0
290
     0
176
     0
 90
        1
176
     0
 40
0.0
176
     0
 90
        0
176
     0
290
     0
176
     0
290
     1
176
     0
290
     1
176
     0
290
     0
176
     0
290
     0
176
     0
290
     0
176
     0
290
     0
176
     0
290
     0
176
     0
290
     0
176
     0
 90
       50
176
     0
 40
0.0
176
     0
 40
1.0
176
     0
 90
        0
176
     0
 62
    18
420
        0
176
     0
 90
       50
176
     0
 90
        3
176
     0
 62
     5
420
      255
176
     0
290
     0
176
     0
 90
       50
176
     0
 90
       50
176
     0
 90
       50
176
     0
290
     0
176
     0
 90
       50
176
     0
 62
   256
176
     0
 40
1.0
176
     0
 90
        2
176
     0
  1
strokes_ogs.tif
176
     0
290
     0
176
     0
 40
1.0
176
     0
 40
1.0
176
     0
  0
VISUALSTYLE
  5
33
102
{ACAD_REACTORS
330
29
102
}
330
29
100
AcDbVisualStyle
  2
Realistic
 70
     8
177
     3
291
     0
 70
    58
 90
        2
176
     1
 90
        3
176
     1
 90
        0
176
     1
 90
        2
176
     1
 40
0.6
176
     1
 40
30.0
176
     1
 62
     7
420
 16777215
176
     1
 90
        0
176
     1
 90
        0
176
     1
 62
     7
176
     1
 62
   257
176
     1
 90
        1
176
     1
 90
        1
176
     1
 40
1.0
176
     1
 90
        8
176
     1
 62
   257
176
     1
 40
1.0
176
     1
 90
        1
176
     1
 90
        6
176
     1
 90
        2
176
     1
 62
     7
176
     1
 90
        3
176
     1
 90
        0
176
     1
 90
        0
176
     1
290
     0
176
     1
 90
       13
176
     1
 40
0.0
176
     1
 90
        0
176
     1
290
     0
176
     1
290
     1
176
     1
290
     1
176
     1
290
     0
176
     1
290
     0
176
     1
290
     0
176
     1
290
     0
176
     1
290
     0
176
     1
290
     0
176
     1
 90
       50
176
     1
 40
0.0
176
     1
 40
1.0
176
     1
 90
        0
176
     1
 62
    18
420
        0
176
     1
 90
       50
176
     1
 90
        3
176
     1
 62
     5
420
      255
176
     1
290
     0
176
     1
 90
       50
176
     1
 90
       50
176
     1
 90
       50
176
     1
290
     0
176
     1
 90
       50
176
     1
 62
   256
176
     0
 40
1.0
176
     0
 90
        2
176
     1
  1
strokes_ogs.tif
176
     1
290
     0
176
     1
 40
1.0
176
     1
 40
1.0
176
     1
  0
VISUALSTYLE
  5
3E
102
{ACAD_REACTORS
330
29
102
}
330
29
100
AcDbVisualStyle
  2
Shaded
 70
    27
177
     3
291
     0
 70
    58
 90
        2
176
     1
 90
        2
176
     1
 90
        1
176
     1
 90
        2
176
     1
 40
0.6
176
     1
 40
30.0
176
     1
 62
     7
420
 16777215
176
     1
 90
        0
176
     1
 90
        4
176
     1
 62
     7
176
     1
 62
   257
176
     1
 90
        1
176
     1
 90
        1
176
     1
 40
1.0
176
     1
 90
        8
176
     1
 62
   257
176
     1
 40
1.0
176
     1
 90
        1
176
     1
 90
        6
176
     1
 90
        2
176
     1
 62
     8
420
  7895160
176
     1
 90
        3
176
     1
 90
        0
176
     1
 90
        0
176
     1
290
     0
176
     1
 90
        5
176
     1
 40
0.0
176
     1
 90
        0
176
     1
290
     0
176
     1
290
     1
176
     1
290
     1
176
     1
290
     0
176
     1
290
     0
176
     1
290
     0
176
     1
290
     0
176
     1
290
     0
176
     1
290
     0
176
     1
 90
       50
176
     1
 40
0.0
176
     1
 40
1.0
176
     1
 90
        0
176
     1
 62
    18
420
        0
176
     1
 90
       50
176
     1
 90
        3
176
     1
 62
     5
420
      255
176
     1
290
     0
176
     1
 90
       50
176
     1
 90
       50
176
     1
 90
       50
176
     1
290
     0
176
     1
 90
       50
176
     1
 62
   256
176
     0
 40
1.0
176
     0
 90
        2
176
     1
  1
strokes_ogs.tif
176
     1
290
     0
176
     1
 40
1.0
176
     1
 40
1.0
176
     1
  0
VISUALSTYLE
  5
3D
102
{ACAD_REACTORS
330
29
102
}
330
29
100
AcDbVisualStyle
  2
Shaded with edges
 70
    26
177
     3
291
     0
 70
    58
 90
        2
176
     1
 90
        2
176
     1
 90
        1
176
     1
 90
        2
176
     1
 40
0.6
176
     1
 40
30.0
176
     1
 62
     7
420
 16777215
176
     1
 90
        1
176
     1
 90
        2
176
     1
 62
     7
176
     1
 62
   257
176
     1
 90
        2
176
     1
 90
        1
176
     1
 40
1.0
176
     1
 90
        8
176
     1
 62
   257
176
     1
 40
1.0
176
     1
 90
        1
176
     1
 90
        6
176
     1
 90
        2
176
     1
 62
     7
176
     1
 90
        3
176
     1
 90
        0
176
     1
 90
        0
176
     1
290
     0
176
     1
 90
        5
176
     1
 40
0.0
176
     1
 90
        0
176
     1
290
     0
176
     1
290
     1
176
     1
290
     1
176
     1
290
     0
176
     1
290
     0
176
     1
290
     0
176
     1
290
     0
176
     1
290
     0
176
     1
290
     0
176
     1
 90
       50
176
     1
 40
0.0
176
     1
 40
1.0
176
     1
 90
        0
176
     1
 62
    18
420
        0
176
     1
 90
       50
176
     1
 90
        3
176
     1
 62
     5
420
      255
176
     1
290
     0
176
     1
 90
       50
176
     1
 90
       50
176
     1
 90
       50
176
     1
290
     0
176
     1
 90
       50
176
     1
 62
   256
176
     0
 40
1.0
176
     0
 90
        2
176
     1
  1
strokes_ogs.tif
176
     1
290
     0
176
     1
 40
1.0
176
     1
 40
1.0
176
     1
  0
VISUALSTYLE
  5
3A
102
{ACAD_REACTORS
330
29
102
}
330
29
100
AcDbVisualStyle
  2
Shades of Gray
 70
    23
177
     3
291
     0
 70
    58
 90
        2
176
     1
 90
        2
176
     1
 90
        3
176
     1
 90
        0
176
     1
 40
0.6
176
     1
 40
30.0
176
     1
 62
     7
420
 16777215
176
     1
 90
        2
176
     1
 90
        2
176
     1
 62
     7
176
     1
 62
     7
176
     1
 90
        1
176
     1
 90
        1
176
     1
 40
40.0
176
     1
 90
        8
176
     1
 62
     7
176
     1
 40
1.0
176
     1
 90
        1
176
     1
 90
        6
176
     1
 90
        2
176
     1
 62
     7
176
     1
 90
        3
176
     1
 90
        0
176
     1
 90
        0
176
     1
290
     0
176
     1
 90
        1
176
     1
 40
0.0
176
     1
 90
        0
176
     1
290
     0
176
     1
290
     1
176
     1
290
     1
176
     1
290
     0
176
     1
290
     0
176
     1
290
     0
176
     1
290
     0
176
     1
290
     0
176
     1
290
     0
176
     1
 90
       50
176
     1
 40
0.0
176
     1
 40
1.0
176
     1
 90
        0
176
     1
 62
    18
420
        0
176
     1
 90
       50
176
     1
 90
        3
176
     1
 62
     5
420
      255
176
     1
290
     0
176
     1
 90
       50
176
     1
 90
       50
176
     1
 90
       50
176
     1
290
     0
176
     1
 90
       50
176
     1
 62
   256
176
     0
 40
1.0
176
     0
 90
        2
176
     1
  1
strokes_ogs.tif
176
     1
290
     0
176
     1
 40
1.0
176
     1
 40
1.0
176
     1
  0
VISUALSTYLE
  5
3B
102
{ACAD_REACTORS
330
29
102
}
330
29
100
AcDbVisualStyle
  2
Sketchy
 70
    24
177
     3
291
     0
 70
    58
 90
        1
176
     1
 90
        2
176
     1
 90
        2
176
     1
 90
        0
176
     1
 40
0.6
176
     1
 40
30.0
176
     1
 62
     7
420
 16777215
176
     1
 90
        2
176
     1
 90
        2
176
     1
 62
     7
176
     1
 62
     7
176
     1
 90
        1
176
     1
 90
        1
176
     1
 40
40.0
176
     1
 90
       11
176
     1
 62
     7
176
     1
 40
1.0
176
     1
 90
        1
176
     1
 90
        6
176
     1
 90
        2
176
     1
 62
     7
176
     1
 90
        6
176
     1
 90
        0
176
     1
 90
        0
176
     1
290
     0
176
     1
 90
        1
176
     1
 40
0.0
176
     1
 90
        0
176
     1
290
     0
176
     1
290
     1
176
     1
290
     1
176
     1
290
     0
176
     1
290
     0
176
     1
290
     0
176
     1
290
     0
176
     1
290
     0
176
     1
290
     0
176
     1
 90
       50
176
     1
 40
0.0
176
     1
 40
1.0
176
     1
 90
        0
176
     1
 62
    18
420
        0
176
     1
 90
       50
176
     1
 90
        3
176
     1
 62
     5
420
      255
176
     1
290
     0
176
     1
 90
       50
176
     1
 90
       50
176
     1
 90
       50
176
     1
290
     0
176
     1
 90
       50
176
     1
 62
   256
176
     0
 40
1.0
176
     0
 90
        2
176
     1
  1
strokes_ogs.tif
176
     1
290
     0
176
     1
 40
1.0
176
     1
 40
1.0
176
     1
  0
VISUALSTYLE
  5
36
102
{ACAD_REACTORS
330
29
102
}
330
29
100
AcDbVisualStyle
  2
Thicken
 70
    13
177
     3
291
     1
 70
    58
 90
        2
176
     1
 90
        2
176
     1
 90
        0
176
     1
 90
        0
176
     1
 40
0.6
176
     1
 40
30.0
176
     1
 62
     7
420
 16777215
176
     1
 90
        1
176
     1
 90
        4
176
     1
 62
     7
176
     1
 62
   257
176
     1
 90
        1
176
     1
 90
        1
176
     1
 40
1.0
176
     1
 90
       12
176
     1
 62
     7
176
     1
 40
1.0
176
     1
 90
        1
176
     1
 90
        6
176
     1
 90
        2
176
     1
 62
     7
176
     1
 90
        5
176
     1
 90
        0
176
     1
 90
        0
176
     1
290
     0
176
     1
 90
        1
176
     1
 40
0.0
176
     1
 90
        0
176
     1
290
     0
176
     1
290
     1
176
     1
290
     1
176
     1
290
     0
176
     1
290
     0
176
     1
290
     0
176
     1
290
     0
176
     1
290
     0
176
     1
290
     0
176
     1
 90
       50
176
     1
 40
0.0
176
     1
 40
1.0
176
     1
 90
        0
176
     1
 62
    18
420
        0
176
     1
 90
       50
176
     1
 90
        3
176
     1
 62
     5
420
      255
176
     1
290
     0
176
     1
 90
       50
176
     1
 90
       50
176
     1
 90
       50
176
     1
290
     0
176
     1
 90
       50
176
     1
 62
   256
176
     0
 40
1.0
176
     0
 90
        2
176
     1
  1
strokes_ogs.tif
176
     1
290
     0
176
     1
 40
1.0
176
     1
 40
1.0
176
     1
  0
VISUALSTYLE
  5
30
102
{ACAD_REACTORS
330
29
102
}
330
29
100
AcDbVisualStyle
  2
Wireframe
 70
     5
177
     3
291
     0
 70
    58
 90
        0
176
     1
 90
        2
176
     1
 90
        0
176
     1
 90
        0
176
     1
 40
0.6
176
     1
 40
30.0
176
     1
 62
     7
420
 16777215
176
     1
 90
        1
176
     1
 90
        4
176
     1
 62
     7
176
     1
 62
   257
176
     1
 90
        1
176
     1
 90
        1
176
     1
 40
1.0
176
     1
 90
        0
176
     1
 62
   257
176
     1
 40
1.0
176
     1
 90
        1
176
     1
 90
        6
176
     1
 90
        2
176
     1
 62
     7
176
     1
 90
        3
176
     1
 90
        0
176
     1
 90
        0
176
     1
290
     0
176
     1
 90
        1
176
     1
 40
0.0
176
     1
 90
        0
176
     1
290
     0
176
     1
290
     1
176
     1
290
     1
176
     1
290
     0
176
     1
290
     0
176
     1
290
     0
176
     1
290
     0
176
     1
290
     0
176
     1
290
     0
176
     1
 90
       50
176
     1
 40
0.0
176
     1
 40
1.0
176
     1
 90
        0
176
     1
 62
    18
420
        0
176
     1
 90
       50
176
     1
 90
        3
176
     1
 62
     5
420
      255
176
     1
290
     0
176
     1
 90
       50
176
     1
 90
       50
176
     1
 90
       50
176
     1
290
     0
176
     1
 90
       50
176
     1
 62
   256
176
     0
 40
1.0
176
     0
 90
        2
176
     1
  1
strokes_ogs.tif
176
     1
290
     0
176
     1
 40
1.0
176
     1
 40
1.0
176
     1
  0
VISUALSTYLE
  5
3C
102
{ACAD_REACTORS
330
29
102
}
330
29
100
AcDbVisualStyle
  2
X-Ray
 70
    25
177
     3
291
     0
 70
    58
 90
        2
176
     1
 90
        2
176
     1
 90
        1
176
     1
 90
        1
176
     1
 40
0.5
176
     1
 40
30.0
176
     1
 62
     7
420
 16777215
176
     1
 90
        1
176
     1
 90
        0
176
     1
 62
     7
176
     1
 62
   257
176
     1
 90
        1
176
     1
 90
        1
176
     1
 40
1.0
176
     1
 90
        8
176
     1
 62
     7
176
     1
 40
1.0
176
     1
 90
        1
176
     1
 90
        6
176
     1
 90
        2
176
     1
 62
     7
176
     1
 90
        3
176
     1
 90
        0
176
     1
 90
        0
176
     1
290
     0
176
     1
 90
       13
176
     1
 40
0.0
176
     1
 90
        0
176
     1
290
     0
176
     1
290
     1
176
     1
290
     1
176
     1
290
     0
176
     1
290
     0
176
     1
290
     0
176
     1
290
     0
176
     1
290
     0
176
     1
290
     0
176
     1
 90
       50
176
     1
 40
0.0
176
     1
 40
1.0
176
     1
 90
        0
176
     1
 62
    18
420
        0
176
     1
 90
       50
176
     1
 90
        3
176
     1
 62
     5
420
      255
176
     1
290
     0
176
     1
 90
       50
176
     1
 90
       50
176
     1
 90
       50
176
     1
290
     0
176
     1
 90
       50
176
     1
 62
   256
176
     0
 40
1.0
176
     0
 90
        2
176
     1
  1
strokes_ogs.tif
176
     1
290
     0
176
     1
 40
1.0
176
     1
 40
1.0
176
     1
  0
DICTIONARYVAR
  5
22D
102
{ACAD_REACTORS
330
228
102
}
330
228
100
DictionaryVariables
280
     0
  1
1:1
  0
DICTIONARYVAR
  5
22A
102
{ACAD_REACTORS
330
228
102
}
330
228
100
DictionaryVariables
280
     0
  1
STANDARD
  0
DICTIONARYVAR
  5
229
102
{ACAD_REACTORS
330
228
102
}
330
228
100
DictionaryVariables
280
     0
  1
STANDARD
  0
DICTIONARYVAR
  5
22B
102
{ACAD_REACTORS
330
228
102
}
330
228
100
DictionaryVariables
280
     0
  1
Imperial24
  0
DICTIONARYVAR
  5
22C
102
{ACAD_REACTORS
330
228
102
}
330
228
100
DictionaryVariables
280
     0
  1
Imperial24
  0
XRECORD
  5
224
102
{ACAD_REACTORS
330
220
102
}
330
220
100
AcDbXrecord
280
     1
  1
BUILDING_ID
  1
Três sobrados gêmeos
  1
FLOOR_ID
  1
23033366
  0
XRECORD
  5
222
102
{ACAD_REACTORS
330
220
102
}
330
220
100
AcDbXrecord
280
     1
  1
-2000011
  1
Paredes
  1
-2000051
  1
Linhas
  1
-2000120
  1
Escadas
  1
-2000280
  1
Blocos de margens e carimbo
  0
XRECORD
  5
223
102
{ACAD_REACTORS
330
220
102
}
330
220
100
AcDbXrecord
280
     1
  1
-2000042
  1
<Linhas finas>
  1
-2000281
  1
<Linhas finas>
  1
-2000588
  1
Padrão de corte
  1
-2000930
  1
Marcas de corte
  1
-2000932
  1
Linhas de bocel
  1
-2000933
  1
<Acima> Linhas de bocel
  1
-2000934
  1
Contornos
  1
-2000935
  1
<Acima> Contornos
  1
-2000936
  1
Linhas do espelho
  1
-2000937
  1
<Acima> Linhas do espelho
  0
XRECORD
  5
221
102
{ACAD_REACTORS
330
220
102
}
330
220
100
AcDbXrecord
280
     1
  1
141734
  1
Escada montada : Espelho máximo de 190 mm a 250 mm
  1
22554474
  1
Parede básica : 20 : 20
  1
23033332
  1
SVG : A4
  0
DICTIONARY
  5
1A
330
19
100
AcDbDictionary
280
     1
281
     1
  3
BUMPTILE
360
1C
  3
DIFFUSETILE
360
1B
  3
OPACITYTILE
360
1F
  3
REFLECTIONTILE
360
1E
  3
REFRACTIONTILE
360
20
  3
SPECULARTILE
360
1D
  0
DICTIONARY
  5
12
330
11
100
AcDbDictionary
280
     1
281
     1
  3
BUMPTILE
360
14
  3
DIFFUSETILE
360
13
  3
OPACITYTILE
360
17
  3
REFLECTIONTILE
360
16
  3
REFRACTIONTILE
360
18
  3
SPECULARTILE
360
15
  0
DICTIONARY
  5
22
330
21
100
AcDbDictionary
280
     1
281
     1
  3
BUMPTILE
360
24
  3
DIFFUSETILE
360
23
  3
OPACITYTILE
360
27
  3
REFLECTIONTILE
360
26
  3
REFRACTIONTILE
360
28
  3
SPECULARTILE
360
25
  0
DICTIONARY
  5
2E9
330
65
100
AcDbDictionary
280
     1
281
     1
  3
ACAD_ROUNDTRIP_2008_TABLESTYLE_CELLSTYLEMAP
360
2EA
  0
XRECORD
  5
1C
102
{ACAD_REACTORS
330
1A
102
}
330
1A
100
AcDbXrecord
280
     1
270
     1
271
     1
  0
XRECORD
  5
1B
102
{ACAD_REACTORS
330
1A
102
}
330
1A
100
AcDbXrecord
280
     1
270
     1
271
     1
  0
XRECORD
  5
1F
102
{ACAD_REACTORS
330
1A
102
}
330
1A
100
AcDbXrecord
280
     1
270
     1
271
     1
  0
XRECORD
  5
1E
102
{ACAD_REACTORS
330
1A
102
}
330
1A
100
AcDbXrecord
280
     1
270
     1
271
     1
  0
XRECORD
  5
20
102
{ACAD_REACTORS
330
1A
102
}
330
1A
100
AcDbXrecord
280
     1
270
     1
271
     1
  0
XRECORD
  5
1D
102
{ACAD_REACTORS
330
1A
102
}
330
1A
100
AcDbXrecord
280
     1
270
     1
271
     1
  0
XRECORD
  5
14
102
{ACAD_REACTORS
330
12
102
}
330
12
100
AcDbXrecord
280
     1
270
     1
271
     1
  0
XRECORD
  5
13
102
{ACAD_REACTORS
330
12
102
}
330
12
100
AcDbXrecord
280
     1
270
     1
271
     1
  0
XRECORD
  5
17
102
{ACAD_REACTORS
330
12
102
}
330
12
100
AcDbXrecord
280
     1
270
     1
271
     1
  0
XRECORD
  5
16
102
{ACAD_REACTORS
330
12
102
}
330
12
100
AcDbXrecord
280
     1
270
     1
271
     1
  0
XRECORD
  5
18
102
{ACAD_REACTORS
330
12
102
}
330
12
100
AcDbXrecord
280
     1
270
     1
271
     1
  0
XRECORD
  5
15
102
{ACAD_REACTORS
330
12
102
}
330
12
100
AcDbXrecord
280
     1
270
     1
271
     1
  0
XRECORD
  5
24
102
{ACAD_REACTORS
330
22
102
}
330
22
100
AcDbXrecord
280
     1
270
     1
271
     1
  0
XRECORD
  5
23
102
{ACAD_REACTORS
330
22
102
}
330
22
100
AcDbXrecord
280
     1
270
     1
271
     1
  0
XRECORD
  5
27
102
{ACAD_REACTORS
330
22
102
}
330
22
100
AcDbXrecord
280
     1
270
     1
271
     1
  0
XRECORD
  5
26
102
{ACAD_REACTORS
330
22
102
}
330
22
100
AcDbXrecord
280
     1
270
     1
271
     1
  0
XRECORD
  5
28
102
{ACAD_REACTORS
330
22
102
}
330
22
100
AcDbXrecord
280
     1
270
     1
271
     1
  0
XRECORD
  5
25
102
{ACAD_REACTORS
330
22
102
}
330
22
100
AcDbXrecord
280
     1
270
     1
271
     1
  0
CELLSTYLEMAP
  5
2EA
102
{ACAD_REACTORS
330
2E9
102
}
330
2E9
100
AcDbCellStyleMap
 90
        3
300
CELLSTYLE
  1
TABLEFORMAT_BEGIN
 90
        5
170
     1
 91
        0
 92
    32768
 62
   257
 93
        1
300
CONTENTFORMAT
  1
CONTENTFORMAT_BEGIN
 90
        0
 91
        0
 92
      512
 93
        0
300

 40
0.0
140
1.0
 94
        5
 62
     0
340
55
144
0.25
309
CONTENTFORMAT_END
171
     0
 94
        0
309
TABLEFORMAT_END
  1
CELLSTYLE_BEGIN
 90
        1
 91
        1
300
_TITLE
309
CELLSTYLE_END
300
CELLSTYLE
  1
TABLEFORMAT_BEGIN
 90
        5
170
     1
 91
        0
 92
        0
 62
   257
 93
        1
300
CONTENTFORMAT
  1
CONTENTFORMAT_BEGIN
 90
        0
 91
        0
 92
      512
 93
        0
300

 40
0.0
140
1.0
 94
        5
 62
     0
340
55
144
0.18
309
CONTENTFORMAT_END
171
     0
 94
        0
309
TABLEFORMAT_END
  1
CELLSTYLE_BEGIN
 90
        2
 91
        1
300
_HEADER
309
CELLSTYLE_END
300
CELLSTYLE
  1
TABLEFORMAT_BEGIN
 90
        5
170
     1
 91
        0
 92
        0
 62
   257
 93
        1
300
CONTENTFORMAT
  1
CONTENTFORMAT_BEGIN
 90
        0
 91
        0
 92
      512
 93
        0
300

 40
0.0
140
1.0
 94
        2
 62
     0
340
55
144
0.18
309
CONTENTFORMAT_END
171
     0
 94
        0
309
TABLEFORMAT_END
  1
CELLSTYLE_BEGIN
 90
        3
 91
        2
300
_DATA
309
CELLSTYLE_END
  0
ENDSEC
  0
SECTION
  2
ACDSDATA
 70
     2
 71
     8
  0
ACDSSCHEMA
 90
        0
  1
AcDb_Thumbnail_Schema
  2
AcDbDs::ID
280
    10
 91
        8
  2
Thumbnail_Data
280
    15
 91
        0
101
ACDSRECORD
 95
        0
 90
        1
  2
AcDbDs::TreatedAsObjectData
280
     1
291
     1
101
ACDSRECORD
 95
        0
 90
        2
  2
AcDbDs::Legacy
280
     1
291
     1
101
ACDSRECORD
  1
AcDbDs::ID
 90
        3
  2
AcDs:Indexable
280
     1
291
     1
101
ACDSRECORD
  1
AcDbDs::ID
 90
        4
  2
AcDbDs::HandleAttribute
280
     7
282
     1
  0
ACDSSCHEMA
 90
        1
  1
AcDbDs::TreatedAsObjectDataSchema
  2
AcDbDs::TreatedAsObjectData
280
     1
 91
        0
  0
ACDSSCHEMA
 90
        2
  1
AcDbDs::LegacySchema
  2
AcDbDs::Legacy
280
     1
 91
        0
  0
ACDSSCHEMA
 90
        3
  1
AcDbDs::IndexedPropertySchema
  2
AcDs:Indexable
280
     1
 91
        0
  0
ACDSSCHEMA
 90
        4
  1
AcDbDs::HandleAttributeSchema
  2
AcDbDs::HandleAttribute
280
     7
 91
        1
284
     1
  0
ACDSRECORD
 90
        0
  2
AcDbDs::ID
280
    10
320
6F
  2
Thumbnail_Data
280
    15
 94
     1340
310
89504E470D0A1A0A0000000D4948445200000100000000B5080300000087DCD12600000300504C5445FFFFFFFFFFFFFFFFFF0000000000000000000000000000000000000000000000000000330000660000990000CC0000FF0033000033330033660033990033CC0033FF0066000066330066660066990066CC0066FF0099
310
000099330099660099990099CC0099FF00CC0000CC3300CC6600CC9900CCCC00CCFF00FF0000FF3300FF6600FF9900FFCC00FFFF3300003300333300663300993300CC3300FF3333003333333333663333993333CC3333FF3366003366333366663366993366CC3366FF3399003399333399663399993399CC3399FF33CC00
310
33CC3333CC6633CC9933CCCC33CCFF33FF0033FF3333FF6633FF9933FFCC33FFFF6600006600336600666600996600CC6600FF6633006633336633666633996633CC6633FF6666006666336666666666996666CC6666FF6699006699336699666699996699CC6699FF66CC0066CC3366CC6666CC9966CCCC66CCFF66FF0066
310
FF3366FF6666FF9966FFCC66FFFF9900009900339900669900999900CC9900FF9933009933339933669933999933CC9933FF9966009966339966669966999966CC9966FF9999009999339999669999999999CC9999FF99CC0099CC3399CC6699CC9999CCCC99CCFF99FF0099FF3399FF6699FF9999FFCC99FFFFCC0000CC00
310
33CC0066CC0099CC00CCCC00FFCC3300CC3333CC3366CC3399CC33CCCC33FFCC6600CC6633CC6666CC6699CC66CCCC66FFCC9900CC9933CC9966CC9999CC99CCCC99FFCCCC00CCCC33CCCC66CCCC99CCCCCCCCCCFFCCFF00CCFF33CCFF66CCFF99CCFFCCCCFFFFFF0000FF0033FF0066FF0099FF00CCFF00FFFF3300FF3333
310
FF3366FF3399FF33CCFF33FFFF6600FF6633FF6666FF6699FF66CCFF66FFFF9900FF9933FF9966FF9999FF99CCFF99FFFFCC00FFCC33FFCC66FFCC99FFCCCCFFCCFFFFFF00FFFF33FFFF66FFFF99FFFFCCFFFFFF0000000D0D0D1A1A1A2828283535354343435050505D5D5D6B6B6B787878868686939393A1A1A1AEAEAEBB
310
BBBBC9C9C9D6D6D6E4E4E4F1F1F1FFFFFF000000000000000000000000000000000000000000000000000000000000AD4AB4E4000001F74944415478DAEDDD517282301405D0ECF82DAC5B61017EE7D37111058210ADB6FE7498C93B77184CB08E722AD49197B4C4C9A9F57AADF5B4F5AD443935273F7D0100000000000000
310
00000000C0DFF9FA38A302BC78FD515B625FCD4905D0B5EEED9C00DDBE64052819016A050000000000000000000000C0BE0D80430000000000000000000000000019002E4F4908D096CBB29EBB00002405287901E6D475C979125C1B5D720224FF200400000000000000000000000000000000C80410EBA8911C00F5459691
310
62FBD8B1D1BF12ABD3341DDDA9A56BDE33F23BA0FB65477D978101CA3E502CDE3F7070803646F2B7870D0FF0D7CB4E005000000000000000000000000000000000000000000000000000000000000090AD4224597DC0562271CCA71C7B3B8E629904F501EDAD5EDB1EDC8F8CD8EE48730EB8779F4F0D000000000000000000
310
0000000030F8F7014901B61973E625E921D04D9B04008073402A80A7E171FE0CFA200400000000000064038837009104601F3BBE74972BC2DBE663FBE0F501DDE409AD26A09B4E21121448E4AE10F9E8E700000000000000000000000000000000000000000000000000008302443E8078DC81AE9B62E4E8E3BCDAD1EDC3B2
310
B9FDAF81A167977F9858FEE775D1F5C6C5D151013ECEA000FF110000000000000000000000009C057072AEE7E6566EC9F30D74415A2A264B69040000000049454E44AE426082
  0
ACDSRECORD
 90
        0
  2
AcDbDs::ID
280
    10
320
73
  2
Thumbnail_Data
280
    15
 94
     1025
310
89504E470D0A1A0A0000000D494844520000010000000065080300000095E2CD0900000300504C5445FFFFFFFFFFFFFFFFFF0000000000000000000000000000000000000000000000000000330000660000990000CC0000FF0033000033330033660033990033CC0033FF0066000066330066660066990066CC0066FF0099
310
000099330099660099990099CC0099FF00CC0000CC3300CC6600CC9900CCCC00CCFF00FF0000FF3300FF6600FF9900FFCC00FFFF3300003300333300663300993300CC3300FF3333003333333333663333993333CC3333FF3366003366333366663366993366CC3366FF3399003399333399663399993399CC3399FF33CC00
310
33CC3333CC6633CC9933CCCC33CCFF33FF0033FF3333FF6633FF9933FFCC33FFFF6600006600336600666600996600CC6600FF6633006633336633666633996633CC6633FF6666006666336666666666996666CC6666FF6699006699336699666699996699CC6699FF66CC0066CC3366CC6666CC9966CCCC66CCFF66FF0066
310
FF3366FF6666FF9966FFCC66FFFF9900009900339900669900999900CC9900FF9933009933339933669933999933CC9933FF9966009966339966669966999966CC9966FF9999009999339999669999999999CC9999FF99CC0099CC3399CC6699CC9999CCCC99CCFF99FF0099FF3399FF6699FF9999FFCC99FFFFCC0000CC00
310
33CC0066CC0099CC00CCCC00FFCC3300CC3333CC3366CC3399CC33CCCC33FFCC6600CC6633CC6666CC6699CC66CCCC66FFCC9900CC9933CC9966CC9999CC99CCCC99FFCCCC00CCCC33CCCC66CCCC99CCCCCCCCCCFFCCFF00CCFF33CCFF66CCFF99CCFFCCCCFFFFFF0000FF0033FF0066FF0099FF00CCFF00FFFF3300FF3333
310
FF3366FF3399FF33CCFF33FFFF6600FF6633FF6666FF6699FF66CCFF66FFFF9900FF9933FF9966FF9999FF99CCFF99FFFFCC00FFCC33FFCC66FFCC99FFCCCCFFCCFFFFFF00FFFF33FFFF66FFFF99FFFFCCFFFFFF0000000D0D0D1A1A1A2828283535354343435050505D5D5D6B6B6B787878868686939393A1A1A1AEAEAEBB
310
BBBBC9C9C9D6D6D6E4E4E4F1F1F1FFFFFF000000000000000000000000000000000000000000000000000000000000AD4AB4E4000000AE4944415478DAEDDA310E84300C4541DFFF983E09124876814499823FAFA3DC5158E2409524499274A49E0084020C04000000000000000000803480F8AD3080F8610840873F050000
310
0000A0B20F451301FA551CC00E4295B902BEAF0100000000000000000000300C01F8F12DB0332100000032FF040104DF025640FA0AF01400100EF07C1C52BD2F080D43CE03000000000000000000327682F3C3EFC3015B61009224499224499224499274AA0B0B7F79067B89D6690000000049454E44AE4260829418000000
310
0049454E44AE426082
  0
ENDSEC
  0
EOF
