  0
SECTION
  2
HEADER
  9
$ACADVER
  1
AC1032
  9
$ACADMAINTVER
 90
      204
  9
$DWGCODEPAGE
  3
ANSI_1252
  9
$LASTSAVEDBY
  1
duda-
  9
$REQUIREDVERSIONS
160
                 0
  9
$INSBASE
 10
0.0
 20
0.0
 30
0.0
  9
$EXTMIN
 10
6587.763959397247
 20
-653.0526522370847
 30
0.0
  9
$EXTMAX
 10
17835.85050385449
 20
5318.281954846828
 30
0.0
  9
$LIMMIN
 10
0.0
 20
0.0
  9
$LIMMAX
 10
12.0
 20
9.0
  9
$ORTHOMODE
 70
     0
  9
$REGENMODE
 70
     1
  9
$FILLMODE
 70
     1
  9
$QTEXTMODE
 70
     0
  9
$MIRRTEXT
 70
     0
  9
$LTSCALE
 40
1.0
  9
$ATTMODE
 70
     1
  9
$TEXTSIZE
 40
0.2
  9
$TRACEWID
 40
0.05
  9
$TEXTSTYLE
  7
Standard
  9
$CLAYER
  8
0
  9
$CELTYPE
  6
ByLayer
  9
$CECOLOR
 62
   256
  9
$CELTSCALE
 40
1.0
  9
$DISPSILH
 70
     0
  9
$DIMSCALE
 40
1.0
  9
$DIMASZ
 40
0.18
  9
$DIMEXO
 40
0.0625
  9
$DIMDLI
 40
0.38
  9
$DIMRND
 40
0.0
  9
$DIMDLE
 40
0.0
  9
$DIMEXE
 40
0.18
  9
$DIMTP
 40
0.0
  9
$DIMTM
 40
0.0
  9
$DIMTXT
 40
0.18
  9
$DIMCEN
 40
0.09
  9
$DIMTSZ
 40
0.0
  9
$DIMTOL
 70
     0
  9
$DIMLIM
 70
     0
  9
$DIMTIH
 70
     1
  9
$DIMTOH
 70
     1
  9
$DIMSE1
 70
     0
  9
$DIMSE2
 70
     0
  9
$DIMTAD
 70
     0
  9
$DIMZIN
 70
     0
  9
$DIMBLK
  1

  9
$DIMASO
 70
     1
  9
$DIMSHO
 70
     1
  9
$DIMPOST
  1

  9
$DIMAPOST
  1

  9
$DIMALT
 70
     0
  9
$DIMALTD
 70
     2
  9
$DIMALTF
 40
25.4
  9
$DIMLFAC
 40
1.0
  9
$DIMTOFL
 70
     0
  9
$DIMTVP
 40
0.0
  9
$DIMTIX
 70
     0
  9
$DIMSOXD
 70
     0
  9
$DIMSAH
 70
     0
  9
$DIMBLK1
  1

  9
$DIMBLK2
  1

  9
$DIMSTYLE
  2
Standard
  9
$DIMCLRD
 70
     0
  9
$DIMCLRE
 70
     0
  9
$DIMCLRT
 70
     0
  9
$DIMTFAC
 40
1.0
  9
$DIMGAP
 40
0.09
  9
$DIMJUST
 70
     0
  9
$DIMSD1
 70
     0
  9
$DIMSD2
 70
     0
  9
$DIMTOLJ
 70
     1
  9
$DIMTZIN
 70
     0
  9
$DIMALTZ
 70
     0
  9
$DIMALTTZ
 70
     0
  9
$DIMUPT
 70
     0
  9
$DIMDEC
 70
     4
  9
$DIMTDEC
 70
     4
  9
$DIMALTU
 70
     2
  9
$DIMALTTD
 70
     2
  9
$DIMTXSTY
  7
Standard
  9
$DIMAUNIT
 70
     0
  9
$DIMADEC
 70
     0
  9
$DIMALTRND
 40
0.0
  9
$DIMAZIN
 70
     0
  9
$DIMDSEP
 70
    46
  9
$DIMATFIT
 70
     3
  9
$DIMFRAC
 70
     0
  9
$DIMLDRBLK
  1

  9
$DIMLUNIT
 70
     2
  9
$DIMLWD
 70
    -2
  9
$DIMLWE
 70
    -2
  9
$DIMTMOVE
 70
     0
  9
$DIMFXL
 40
1.0
  9
$DIMFXLON
 70
     0
  9
$DIMJOGANG
 40
0.7853981633974483
  9
$DIMTFILL
 70
     0
  9
$DIMTFILLCLR
 70
     0
  9
$DIMARCSYM
 70
     0
  9
$DIMLTYPE
  6

  9
$DIMLTEX1
  6

  9
$DIMLTEX2
  6

  9
$DIMTXTDIRECTION
 70
     0
  9
$LUNITS
 70
     2
  9
$LUPREC
 70
     4
  9
$SKETCHINC
 40
0.1
  9
$FILLETRAD
 40
0.0
  9
$AUNITS
 70
     0
  9
$AUPREC
 70
     0
  9
$MENU
  1
.
  9
$ELEVATION
 40
0.0
  9
$PELEVATION
 40
0.0
  9
$THICKNESS
 40
0.0
  9
$LIMCHECK
 70
     0
  9
$CHAMFERA
 40
0.0
  9
$CHAMFERB
 40
0.0
  9
$CHAMFERC
 40
0.0
  9
$CHAMFERD
 40
0.0
  9
$SKPOLY
 70
     0
  9
$TDCREATE
 40
2460730.574375000
  9
$TDUCREATE
 40
2460730.699375000
  9
$TDUPDATE
 40
2460738.980208333
  9
$TDUUPDATE
 40
2460739.105208333
  9
$TDINDWG
 40
0.0269560185
  9
$TDUSRTIMER
 40
0.0269560185
  9
$USRTIMER
 70
     1
  9
$ANGBASE
 50
0.0
  9
$ANGDIR
 70
     0
  9
$PDMODE
 70
     0
  9
$PDSIZE
 40
0.0
  9
$PLINEWID
 40
0.0
  9
$SPLFRAME
 70
     0
  9
$SPLINETYPE
 70
     6
  9
$SPLINESEGS
 70
     8
  9
$HANDSEED
  5
2EC
  9
$SURFTAB1
 70
     6
  9
$SURFTAB2
 70
     6
  9
$SURFTYPE
 70
     6
  9
$SURFU
 70
     6
  9
$SURFV
 70
     6
  9
$UCSBASE
  2

  9
$UCSNAME
  2

  9
$UCSORG
 10
0.0
 20
0.0
 30
0.0
  9
$UCSXDIR
 10
1.0
 20
0.0
 30
0.0
  9
$UCSYDIR
 10
0.0
 20
1.0
 30
0.0
  9
$UCSORTHOREF
  2

  9
$UCSORTHOVIEW
 70
     0
  9
$UCSORGTOP
 10
0.0
 20
0.0
 30
0.0
  9
$UCSORGBOTTOM
 10
0.0
 20
0.0
 30
0.0
  9
$UCSORGLEFT
 10
0.0
 20
0.0
 30
0.0
  9
$UCSORGRIGHT
 10
0.0
 20
0.0
 30
0.0
  9
$UCSORGFRONT
 10
0.0
 20
0.0
 30
0.0
  9
$UCSORGBACK
 10
0.0
 20
0.0
 30
0.0
  9
$PUCSBASE
  2

  9
$PUCSNAME
  2

  9
$PUCSORG
 10
0.0
 20
0.0
 30
0.0
  9
$PUCSXDIR
 10
1.0
 20
0.0
 30
0.0
  9
$PUCSYDIR
 10
0.0
 20
1.0
 30
0.0
  9
$PUCSORTHOREF
  2

  9
$PUCSORTHOVIEW
 70
     0
  9
$PUCSORGTOP
 10
0.0
 20
0.0
 30
0.0
  9
$PUCSORGBOTTOM
 10
0.0
 20
0.0
 30
0.0
  9
$PUCSORGLEFT
 10
0.0
 20
0.0
 30
0.0
  9
$PUCSORGRIGHT
 10
0.0
 20
0.0
 30
0.0
  9
$PUCSORGFRONT
 10
0.0
 20
0.0
 30
0.0
  9
$PUCSORGBACK
 10
0.0
 20
0.0
 30
0.0
  9
$USERI1
 70
     0
  9
$USERI2
 70
     0
  9
$USERI3
 70
     0
  9
$USERI4
 70
     0
  9
$USERI5
 70
     0
  9
$USERR1
 40
0.0
  9
$USERR2
 40
0.0
  9
$USERR3
 40
0.0
  9
$USERR4
 40
0.0
  9
$USERR5
 40
0.0
  9
$WORLDVIEW
 70
     1
  9
$SHADEDGE
 70
     3
  9
$SHADEDIF
 70
    70
  9
$TILEMODE
 70
     1
  9
$MAXACTVP
 70
    64
  9
$PINSBASE
 10
0.0
 20
0.0
 30
0.0
  9
$PLIMCHECK
 70
     0
  9
$PEXTMIN
 10
20.76884200533789
 20
102.9849099062627
 30
-0.0015258207003583
  9
$PEXTMAX
 10
317.8025497169167
 20
313.0095527307103
 30
0.0000000349246037
  9
$PLIMMIN
 10
20.76884200533789
 20
102.9849099062627
  9
$PLIMMAX
 10
317.9612673821897
 20
313.1209682535316
  9
$UNITMODE
 70
     0
  9
$VISRETAIN
 70
     1
  9
$PLINEGEN
 70
     0
  9
$PSLTSCALE
 70
     0
  9
$TREEDEPTH
 70
  3020
  9
$CMLSTYLE
  2
Standard
  9
$CMLJUST
 70
     0
  9
$CMLSCALE
 40
1.0
  9
$PROXYGRAPHICS
 70
     1
  9
$MEASUREMENT
 70
     1
  9
$CELWEIGHT
370
    -1
  9
$ENDCAPS
280
     0
  9
$JOINSTYLE
280
     0
  9
$LWDISPLAY
290
     0
  9
$INSUNITS
 70
     4
  9
$HYPERLINKBASE
  1

  9
$STYLESHEET
  1

  9
$XEDIT
290
     1
  9
$CEPSNTYPE
380
     0
  9
$PSTYLEMODE
290
     1
  9
$FINGERPRINTGUID
  2
{74B12265-9F10-A24D-A810-040989CD20B7}
  9
$VERSIONGUID
  2
{E922B996-CE95-B645-B3D4-297FAC09CFB6}
  9
$EXTNAMES
290
     1
  9
$PSVPSCALE
 40
0.0
  9
$OLESTARTUP
290
     0
  9
$SORTENTS
280
   127
  9
$INDEXCTL
280
     0
  9
$HIDETEXT
280
     1
  9
$XCLIPFRAME
280
     2
  9
$HALOGAP
280
     0
  9
$OBSCOLOR
 70
   257
  9
$OBSLTYPE
280
     0
  9
$INTERSECTIONDISPLAY
280
     0
  9
$INTERSECTIONCOLOR
 70
   257
  9
$DIMASSOC
280
     2
  9
$PROJECTNAME
  1

  9
$CAMERADISPLAY
290
     0
  9
$LENSLENGTH
 40
50.0
  9
$CAMERAHEIGHT
 40
0.0
  9
$STEPSPERSEC
 40
2.0
  9
$STEPSIZE
 40
6.0
  9
$3DDWFPREC
 40
2.0
  9
$PSOLWIDTH
 40
0.25
  9
$PSOLHEIGHT
 40
4.0
  9
$LOFTANG1
 40
1.570796326794896
  9
$LOFTANG2
 40
1.570796326794896
  9
$LOFTMAG1
 40
0.0
  9
$LOFTMAG2
 40
0.0
  9
$LOFTPARAM
 70
     7
  9
$LOFTNORMALS
280
     1
  9
$LATITUDE
 40
0.0
  9
$LONGITUDE
 40
0.0
  9
$NORTHDIRECTION
 40
0.0
  9
$TIMEZONE
 70
     0
  9
$LIGHTGLYPHDISPLAY
280
     1
  9
$TILEMODELIGHTSYNCH
280
     1
  9
$CMATERIAL
347
11
  9
$SOLIDHIST
280
     0
  9
$SHOWHIST
280
     1
  9
$DWFFRAME
280
     2
  9
$DGNFRAME
280
     0
  9
$REALWORLDSCALE
290
     1
  9
$INTERFERECOLOR
 62
     1
  9
$INTERFEREOBJVS
345
33
  9
$INTERFEREVPVS
346
30
  9
$CSHADOW
280
     0
  9
$SHADOWPLANELOCATION
 40
0.0
  0
ENDSEC
  0
SECTION
  2
CLASSES
  0
CLASS
  1
ACDBDICTIONARYWDFLT
  2
AcDbDictionaryWithDefault
  3
ObjectDBX Classes
 90
        0
 91
        1
280
     0
281
     0
  0
CLASS
  1
MATERIAL
  2
AcDbMaterial
  3
ObjectDBX Classes
 90
     1153
 91
        3
280
     0
281
     0
  0
CLASS
  1
VISUALSTYLE
  2
AcDbVisualStyle
  3
ObjectDBX Classes
 90
     4095
 91
       24
280
     0
281
     0
  0
CLASS
  1
SCALE
  2
AcDbScale
  3
ObjectDBX Classes
 90
     1153
 91
       17
280
     0
281
     0
  0
CLASS
  1
TABLESTYLE
  2
AcDbTableStyle
  3
ObjectDBX Classes
 90
     4095
 91
        1
280
     0
281
     0
  0
CLASS
  1
MLEADERSTYLE
  2
AcDbMLeaderStyle
  3
ACDB_MLEADERSTYLE_CLASS
 90
     4095
 91
        1
280
     0
281
     0
  0
CLASS
  1
ACDBSECTIONVIEWSTYLE
  2
AcDbSectionViewStyle
  3
ObjectDBX Classes
 90
     1025
 91
        2
280
     0
281
     0
  0
CLASS
  1
ACDBDETAILVIEWSTYLE
  2
AcDbDetailViewStyle
  3
ObjectDBX Classes
 90
     1025
 91
        2
280
     0
281
     0
  0
CLASS
  1
RASTERVARIABLES
  2
AcDbRasterVariables
  3
ISM
 90
        0
 91
        1
280
     0
281
     0
  0
CLASS
  1
DICTIONARYVAR
  2
AcDbDictionaryVar
  3
ObjectDBX Classes
 90
        0
 91
        5
280
     0
281
     0
  0
CLASS
  1
SORTENTSTABLE
  2
AcDbSortentsTable
  3
ObjectDBX Classes
 90
        0
 91
        1
280
     0
281
     0
  0
CLASS
  1
SUN
  2
AcDbSun
  3
SCENEOE
 90
     1153
 91
        1
280
     0
281
     0
  0
CLASS
  1
RAPIDRTRENDERSETTINGS
  2
AcDbRapidRTRenderSettings
  3
ObjectDBX Classes
 90
     1024
 91
        7
280
     0
281
     0
  0
CLASS
  1
CELLSTYLEMAP
  2
AcDbCellStyleMap
  3
ObjectDBX Classes
 90
     1152
 91
        1
280
     0
281
     0
  0
ENDSEC
  0
SECTION
  2
TABLES
  0
TABLE
  2
VPORT
  5
8
330
0
100
AcDbSymbolTable
 70
     1
  0
VPORT
  5
57
330
8
100
AcDbSymbolTableRecord
100
AcDbViewportTableRecord
  2
*Active
 70
     0
 10
0.0
 20
0.0
 11
1.0
 21
1.0
 12
7611.332877807429
 22
-879.837624058222
 13
0.0
 23
0.0
 14
1.0
 24
1.0
 15
0.0
 25
0.0
 16
0.0
 26
0.0
 36
1.0
 17
0.0
 27
0.0
 37
0.0
 40
15396.48229665309
 41
2.531208499335989
 42
50.0
 43
0.0
 44
0.0
 50
0.0
 51
0.0
 71
     0
 72
  1000
 73
     1
 74
     1
 75
     0
 76
     0
 77
     0
 78
     0
281
     0
 65
     1
110
0.0
120
0.0
130
0.0
111
1.0
121
0.0
131
0.0
112
0.0
122
1.0
132
0.0
 79
     0
146
0.0
348
2F
 60
     3
 61
     5
292
     1
282
     1
141
0.0
142
0.0
 63
   250
421
  3355443
361
272
1001
ACAD_NAV_VCDISPLAY
1070
     3
  0
ENDTAB
  0
TABLE
  2
LTYPE
  5
5
330
0
100
AcDbSymbolTable
 70
     1
  0
LTYPE
  5
5B
330
5
100
AcDbSymbolTableRecord
100
AcDbLinetypeTableRecord
  2
ByBlock
 70
     0
  3

 72
    65
 73
     0
 40
0.0
  0
LTYPE
  5
5C
330
5
100
AcDbSymbolTableRecord
100
AcDbLinetypeTableRecord
  2
ByLayer
 70
     0
  3

 72
    65
 73
     0
 40
0.0
  0
LTYPE
  5
5D
330
5
100
AcDbSymbolTableRecord
100
AcDbLinetypeTableRecord
  2
Continuous
 70
     0
  3
Solid line
 72
    65
 73
     0
 40
0.0
  0
ENDTAB
  0
TABLE
  2
LAYER
  5
2
102
{ACAD_XDICTIONARY
360
28F
102
}
330
0
100
AcDbSymbolTable
 70
     6
  0
LAYER
  5
54
330
2
100
AcDbSymbolTableRecord
100
AcDbLayerTableRecord
  2
0
 70
     0
 62
   250
  6
Continuous
370
    25
390
F
347
21
348
0
  0
LAYER
  5
25B
330
2
100
AcDbSymbolTableRecord
100
AcDbLayerTableRecord
  2
A-COB-___-___-EXI
 70
     0
 62
   250
  6
Continuous
370
    13
390
F
347
21
348
0
  0
LAYER
  5
261
330
2
100
AcDbSymbolTableRecord
100
AcDbLayerTableRecord
  2
A-JAN-___-___-EXI
 70
     0
 62
   250
  6
Continuous
370
    25
390
F
347
21
348
0
  0
LAYER
  5
263
330
2
100
AcDbSymbolTableRecord
100
AcDbLayerTableRecord
  2
A-POR-___-___-EXI
 70
     0
 62
   250
  6
Continuous
370
    25
390
F
347
21
348
0
  0
LAYER
  5
2D7
330
2
100
AcDbSymbolTableRecord
100
AcDbLayerTableRecord
  2
A-BAS-___-___-EXI
 70
     0
 62
   250
  6
Continuous
370
    25
390
F
347
21
348
0
1001
AcAecLayerStandard
1000

1000

1001
AcCmTransparency
1071
        0
  0
LAYER
  5
2DA
330
2
100
AcDbSymbolTableRecord
100
AcDbLayerTableRecord
  2
A-ALV-___-___-EXI
 70
     0
 62
   250
  6
Continuous
370
    35
390
F
347
21
348
0
1001
AcAecLayerStandard
1000

1000

1001
AcCmTransparency
1071
        0
  0
ENDTAB
  0
TABLE
  2
STYLE
  5
3
330
0
100
AcDbSymbolTable
 70
     2
  0
STYLE
  5
55
330
3
100
AcDbSymbolTableRecord
100
AcDbTextStyleTableRecord
  2
Standard
 70
     0
 40
0.0
 41
1.0
 50
0.0
 71
     0
 42
0.2
  3
txt
  4

  0
STYLE
  5
5A
330
3
100
AcDbSymbolTableRecord
100
AcDbTextStyleTableRecord
  2
Annotative
 70
     0
 40
0.0
 41
1.0
 50
0.0
 71
     0
 42
0.2
  3
txt
  4

1001
AcadAnnotative
1000
AnnotativeData
1002
{
1070
     1
1070
     1
1002
}
  0
ENDTAB
  0
TABLE
  2
VIEW
  5
6
330
0
100
AcDbSymbolTable
 70
     0
  0
ENDTAB
  0
TABLE
  2
UCS
  5
7
330
0
100
AcDbSymbolTable
 70
     0
  0
ENDTAB
  0
TABLE
  2
APPID
  5
9
330
0
100
AcDbSymbolTable
 70
     7
  0
APPID
  5
56
330
9
100
AcDbSymbolTableRecord
100
AcDbRegAppTableRecord
  2
ACAD
 70
     0
  0
APPID
  5
5E
330
9
100
AcDbSymbolTableRecord
100
AcDbRegAppTableRecord
  2
AcadAnnotative
 70
     0
  0
APPID
  5
78
330
9
100
AcDbSymbolTableRecord
100
AcDbRegAppTableRecord
  2
REVIT
 70
     0
  0
APPID
  5
282
330
9
100
AcDbSymbolTableRecord
100
AcDbRegAppTableRecord
  2
ACAD_PSEXT
 70
     0
  0
APPID
  5
2CF
330
9
100
AcDbSymbolTableRecord
100
AcDbRegAppTableRecord
  2
ACAD_NAV_VCDISPLAY
 70
     0
  0
APPID
  5
2D8
330
9
100
AcDbSymbolTableRecord
100
AcDbRegAppTableRecord
  2
AcAecLayerStandard
 70
     0
  0
APPID
  5
2D9
330
9
100
AcDbSymbolTableRecord
100
AcDbRegAppTableRecord
  2
AcCmTransparency
 70
     0
  0
ENDTAB
  0
TABLE
  2
DIMSTYLE
  5
A
330
0
100
AcDbSymbolTable
 70
     2
100
AcDbDimStyleTable
 71
     0
  0
DIMSTYLE
105
58
330
A
100
AcDbSymbolTableRecord
100
AcDbDimStyleTableRecord
  2
Standard
 70
     0
340
55
  0
DIMSTYLE
105
59
330
A
100
AcDbSymbolTableRecord
100
AcDbDimStyleTableRecord
  2
Annotative
 70
     0
340
55
1001
AcadAnnotative
1000
AnnotativeData
1002
{
1070
     1
1070
     1
1002
}
  0
ENDTAB
  0
TABLE
  2
BLOCK_RECORD
  5
1
330
0
100
AcDbSymbolTable
 70
     1
  0
BLOCK_RECORD
  5
70
102
{ACAD_XDICTIONARY
360
270
102
}
330
1
100
AcDbSymbolTableRecord
100
AcDbBlockTableRecord
  2
*Model_Space
340
73
 70
     0
280
     1
281
     0
  0
BLOCK_RECORD
  5
6C
330
1
100
AcDbSymbolTableRecord
100
AcDbBlockTableRecord
  2
*Paper_Space
340
6F
 70
     0
280
     1
281
     0
  0
BLOCK_RECORD
  5
262
330
1
100
AcDbSymbolTableRecord
100
AcDbBlockTableRecord
  2
A4 HORIZONTAL - A4-22872381-Não nomeada
340
0
102
{BLKREFS
331
26A
102
}
 70
     0
280
     1
281
     0
  0
ENDTAB
  0
ENDSEC
  0
SECTION
  2
BLOCKS
  0
BLOCK
  5
71
330
70
100
AcDbEntity
  8
0
100
AcDbBlockBegin
  2
*Model_Space
 70
     0
 10
0.0
 20
0.0
 30
0.0
  3
*Model_Space
  1

  0
ENDBLK
  5
72
330
70
100
AcDbEntity
  8
0
100
AcDbBlockEnd
  0
BLOCK
  5
6D
330
6C
100
AcDbEntity
 67
     1
  8
0
100
AcDbBlockBegin
  2
*Paper_Space
 70
     0
 10
0.0
 20
0.0
 30
0.0
  3
*Paper_Space
  1

  0
ENDBLK
  5
6E
330
6C
100
AcDbEntity
 67
     1
  8
0
100
AcDbBlockEnd
  0
BLOCK
  5
268
330
262
100
AcDbEntity
  8
0
100
AcDbBlockBegin
  2
A4 HORIZONTAL - A4-22872381-Não nomeada
 70
     0
 10
0.0
 20
0.0
 30
0.0
  3
A4 HORIZONTAL - A4-22872381-Não nomeada
  1

  0
LINE
  5
264
330
262
100
AcDbEntity
  8
A-POR-___-___-EXI
100
AcDbLine
 10
317.7928507088368
 20
312.9999999999862
 30
0.0
 11
20.7928507088368
 21
312.9999999999856
 31
0.0
1001
REVIT
1002
{
1070
     1
1000
22870998
1002
}
1002
{
1070
     5
1000
22872381
1002
}
1002
{
1070
     3
1000
-2000281
1002
}
  0
LINE
  5
265
330
262
100
AcDbEntity
  8
A-POR-___-___-EXI
100
AcDbLine
 10
20.7928507088368
 20
312.9999999999856
 30
0.0
 11
20.7928507088372
 21
102.9999999999856
 31
0.0
1001
REVIT
1002
{
1070
     1
1000
22870998
1002
}
1002
{
1070
     5
1000
22872381
1002
}
1002
{
1070
     3
1000
-2000281
1002
}
  0
LINE
  5
266
330
262
100
AcDbEntity
  8
A-POR-___-___-EXI
100
AcDbLine
 10
20.7928507088372
 20
102.9999999999855
 30
0.0
 11
317.7928507088372
 21
102.9999999999861
 31
0.0
1001
REVIT
1002
{
1070
     1
1000
22870998
1002
}
1002
{
1070
     5
1000
22872381
1002
}
1002
{
1070
     3
1000
-2000281
1002
}
  0
LINE
  5
267
330
262
100
AcDbEntity
  8
A-POR-___-___-EXI
100
AcDbLine
 10
317.7928507088372
 20
102.9999999999861
 30
0.0
 11
317.7928507088368
 21
312.9999999999862
 31
0.0
1001
REVIT
1002
{
1070
     1
1000
22870998
1002
}
1002
{
1070
     5
1000
22872381
1002
}
1002
{
1070
     3
1000
-2000281
1002
}
  0
ENDBLK
  5
269
330
262
100
AcDbEntity
  8
0
100
AcDbBlockEnd
  0
ENDSEC
  0
SECTION
  2
ENTITIES
  0
HATCH
  5
89
330
70
100
AcDbEntity
  8
A-BAS-___-___-EXI
 62
   253
420
 13342872
100
AcDbHatch
 10
0.0
 20
0.0
 30
0.0
210
0.0
220
0.0
230
1.0
  2
SOLID
 70
     1
 71
     0
 91
        1
 92
        1
 93
        5
 72
     1
 10
12211.32333490166
 20
-653.0526522370847
 11
17835.85050385449
 21
-653.0526522370847
 72
     1
 10
17835.85050385449
 20
-653.0526522370847
 11
17835.85050385449
 21
-462.9668056170437
 72
     1
 10
17835.85050385449
 20
-462.9668056170437
 11
6587.763959397249
 21
-462.9668056170437
 72
     1
 10
6587.763959397247
 20
-462.9668056170437
 11
6587.763959397247
 21
-653.0526522370847
 72
     1
 10
6587.763959397247
 20
-653.0526522370847
 11
12211.32333490166
 21
-653.0526522370847
 97
        0
 75
     0
 76
     1
 98
        1
 10
0.0
 20
0.0
450
        0
451
        0
460
0.0
461
0.0
452
        0
462
0.0
453
        0
470

1001
REVIT
1002
{
1070
     1
1000
22867809
1002
}
1002
{
1070
     5
1000
383807
1002
}
1002
{
1070
     2
1000
-2002000
1002
}
  0
HATCH
  5
D0
330
70
100
AcDbEntity
  8
A-COB-___-___-EXI
100
AcDbHatch
 10
0.0
 20
0.0
 30
0.0
210
0.0
220
0.0
230
1.0
  2
FP_1
 70
     0
 71
     0
 91
        5
 92
        1
 93
        5
 72
     1
 10
7584.464605754178
 20
2974.037202560825
 11
7614.464605754121
 21
2974.037202560825
 72
     1
 10
7614.464605754121
 20
2974.037202560825
 11
7614.464605754121
 21
2999.037202560757
 72
     1
 10
7614.464605754121
 20
2999.037202560757
 11
7584.464605754178
 21
2999.037202560805
 72
     1
 10
7584.464605754178
 20
2999.037202560805
 11
7584.464605754178
 21
2978.553974162475
 72
     1
 10
7584.464605754178
 20
2978.553974162475
 11
7584.464605754178
 21
2974.037202560825
 97
        0
 92
        1
 93
        6
 72
     1
 10
16724.46460575413
 20
2974.037202560825
 11
16752.76405939612
 21
2974.037202560825
 72
     1
 10
16752.76405939612
 20
2974.037202560825
 11
16752.76405939612
 21
2999.037202560753
 72
     1
 10
16752.76405939612
 20
2999.037202560753
 11
16722.76405939613
 21
2999.037202560753
 72
     1
 10
16722.76405939613
 20
2999.037202560753
 11
16722.76405939613
 21
2997.378594988694
 72
     1
 10
16722.76405939613
 20
2997.378594988694
 11
16724.46460575413
 21
2997.017132701877
 72
     1
 10
16724.46460575413
 20
2997.017132701877
 11
16724.46460575413
 21
2974.037202560825
 97
        0
 92
        1
 93
       49
 72
     1
 10
12342.60286018597
 20
3087.484434345552
 11
12342.60286018597
 21
3101.397920752339
 72
     1
 10
12342.60286018597
 20
3101.397920752339
 11
12329.08482949265
 21
3101.397920752339
 72
     1
 10
12329.08482949265
 20
3101.397920752339
 11
12329.08482949265
 21
3155.257579178872
 72
     1
 10
12329.08482949265
 20
3155.257579178872
 11
12401.56028665516
 21
3155.257579178872
 72
     1
 10
12401.56028665516
 20
3155.257579178872
 11
12401.56028665516
 21
3435.257579178873
 72
     1
 10
12401.56028665516
 20
3435.257579178873
 11
12371.56028665517
 21
3435.257579178873
 72
     1
 10
12371.56028665517
 20
3435.257579178873
 11
12371.56028665517
 21
3492.757480884353
 72
     1
 10
12371.56028665517
 20
3492.757480884353
 11
12342.60286018597
 21
3492.757480884353
 72
     1
 10
12342.60286018597
 20
3492.757480884353
 11
12342.60286018597
 21
3537.618297370472
 72
     1
 10
12342.60286018597
 20
3537.618297370472
 11
12329.08482949266
 21
3537.618297370472
 72
     1
 10
12329.08482949266
 20
3537.618297370472
 11
12329.08482949266
 21
3591.477955797005
 72
     1
 10
12329.08482949266
 20
3591.477955797005
 11
12640.68809065172
 21
3591.477955797004
 72
     1
 10
12640.68809065172
 20
3591.477955797004
 11
12640.68809065172
 21
3537.618297370472
 72
     1
 10
12640.68809065172
 20
3537.618297370472
 11
12618.80136542596
 21
3537.618297370472
 72
     1
 10
12618.80136542596
 20
3537.618297370472
 11
12618.80136542596
 21
3492.757480884353
 72
     1
 10
12618.80136542596
 20
3492.757480884353
 11
12596.31601683975
 21
3492.757480884353
 72
     1
 10
12596.31601683975
 20
3492.757480884353
 11
12596.31601683975
 21
3435.257579178873
 72
     1
 10
12596.31601683975
 20
3435.257579178873
 11
12568.90230536506
 21
3435.257579178873
 72
     1
 10
12568.90230536506
 20
3435.257579178873
 11
12568.90230536506
 21
3155.257579178872
 72
     1
 10
12568.90230536506
 20
3155.257579178872
 11
12640.68809065172
 21
3155.257579178872
 72
     1
 10
12640.68809065172
 20
3155.257579178872
 11
12640.68809065172
 21
3113.686757797778
 72
     1
 10
12640.68809065172
 20
3113.686757797778
 11
14692.78109302747
 21
3549.872590609868
 72
     1
 10
14692.78109302747
 20
3549.872590609868
 11
16680.28860223361
 21
3127.414828159646
 72
     1
 10
16680.28860223361
 20
3127.414828159646
 11
16680.28860223361
 21
3155.257579178883
 72
     1
 10
16680.28860223361
 20
3155.257579178883
 11
16752.76405939612
 21
3155.257579178883
 72
     1
 10
16752.76405939612
 20
3155.257579178883
 11
16752.76405939612
 21
3435.257579178884
 72
     1
 10
16752.76405939612
 20
3435.257579178884
 11
16722.76405939613
 21
3435.257579178884
 72
     1
 10
16722.76405939613
 20
3435.257579178884
 11
16722.76405939613
 21
3492.757480884363
 72
     1
 10
16722.76405939613
 20
3492.757480884363
 11
16693.80663292693
 21
3492.757480884363
 72
     1
 10
16693.80663292693
 20
3492.757480884363
 11
16693.80663292693
 21
3537.618297370481
 72
     1
 10
16693.80663292693
 20
3537.618297370481
 11
16680.28860223361
 21
3537.618297370481
 72
     1
 10
16680.28860223361
 20
3537.618297370481
 11
16680.28860223361
 21
3591.477955797016
 72
     1
 10
16680.28860223361
 20
3591.477955797016
 11
16924.46460575418
 21
3591.477955797016
 72
     1
 10
16924.46460575418
 20
3591.477955797016
 11
16924.46460575416
 21
5295.598535759498
 72
     1
 10
16924.46460575416
 20
5295.598535759498
 11
7584.464605754151
 21
5295.598535759496
 72
     1
 10
7584.464605754151
 20
5295.598535759496
 11
7584.46460575417
 21
3591.477955797021
 72
     1
 10
7584.46460575417
 20
3591.477955797021
 11
7853.592409750682
 21
3591.477955797021
 72
     1
 10
7853.592409750682
 20
3591.477955797021
 11
7853.592409750682
 21
3537.618297370488
 72
     1
 10
7853.592409750682
 20
3537.618297370488
 11
7831.705684524923
 21
3537.618297370488
 72
     1
 10
7831.705684524923
 20
3537.618297370488
 11
7831.705684524923
 21
3492.757480884367
 72
     1
 10
7831.705684524923
 20
3492.757480884367
 11
7809.220335938703
 21
3492.757480884367
 72
     1
 10
7809.220335938703
 20
3492.757480884367
 11
7809.220335938703
 21
3435.257579178891
 72
     1
 10
7809.220335938703
 20
3435.257579178891
 11
7781.806624464017
 21
3435.257579178891
 72
     1
 10
7781.806624464017
 20
3435.257579178891
 11
7781.806624464017
 21
3155.257579178887
 72
     1
 10
7781.806624464017
 20
3155.257579178887
 11
7853.592409750682
 21
3155.257579178887
 72
     1
 10
7853.592409750682
 20
3155.257579178887
 11
7853.592409750682
 21
3105.932935245921
 72
     1
 10
7853.592409750682
 20
3105.932935245921
 11
10054.70094856307
 21
3573.792998118403
 72
     1
 10
10054.70094856307
 20
3573.792998118403
 11
12330.247302389
 21
3090.110689228391
 72
     1
 10
12330.247302389
 20
3090.110689228391
 11
12342.60286018597
 21
3087.484434345552
 97
        0
 92
        1
 93
        4
 72
     1
 10
16924.46460575419
 20
3155.257579178883
 11
16924.46460575418
 21
3435.257579178884
 72
     1
 10
16924.46460575418
 20
3435.257579178884
 11
16920.10607810602
 21
3435.257579178884
 72
     1
 10
16920.10607810602
 20
3435.257579178884
 11
16920.10607810602
 21
3155.257579178883
 72
     1
 10
16920.10607810602
 20
3155.257579178883
 11
16924.46460575419
 21
3155.257579178883
 97
        0
 92
        1
 93
        5
 72
     1
 10
7584.464605754177
 20
3155.257579178887
 11
7614.464605754121
 21
3155.257579178887
 72
     1
 10
7614.464605754121
 20
3155.257579178887
 11
7614.464605754121
 21
3435.257579178891
 72
     1
 10
7614.464605754121
 20
3435.257579178891
 11
7584.46460575417
 21
3435.257579178891
 72
     1
 10
7584.46460575417
 20
3435.257579178891
 11
7584.464605754177
 21
3170.464393605181
 72
     1
 10
7584.464605754177
 20
3170.464393605181
 11
7584.464605754177
 21
3155.257579178887
 97
        0
 75
     0
 76
     2
 52
0.0
 41
1.0
 77
     0
 78
    31
 53
289.456
 43
218.694
 44
-1765.434
 45
259.2421631470067
 46
-608.0372917402853
 79
     2
 49
8.006999999999999
 49
-792.7019999999999
 53
0.0
 43
204.025
 44
-1772.984
 45
0.0
 46
125.831
 79
     2
 49
17.335
 49
-249.364
 53
277.48
 43
212.026
 44
-1701.89
 45
266.6390738974043
 46
-2012.827326913845
 79
     2
 49
71.705
 49
-14269.259
 53
0.0
 43
0.0
 44
-1763.547
 45
0.0
 46
125.831
 79
     2
 49
46.672
 49
-220.027
 53
0.0
 43
0.0
 44
-1772.984
 45
0.0
 46
125.831
 79
     2
 49
45.339
 49
-221.361
 53
302.45
 43
196.024
 44
-1760.401
 45
255.7456871310838
 46
-360.2697373230921
 79
     2
 49
14.911
 49
-1476.234
 53
323.724
 43
184.023
 44
-1751.592999999999
 45
519.7789615582126
 46
-367.4996860385952
 79
     2
 49
14.887
 49
-2962.501
 53
336.612
 43
168.021
 44
-1744.672
 45
2919.199853628417
 46
-1252.039246464675
 79
     2
 49
17.434
 49
-3469.456
 53
350.546
 43
145.351
 44
-1740.897
 45
792.6515466595234
 46
-124.5887341586928
 79
     2
 49
22.982
 49
-4573.349
 53
356.144
 43
133.35
 44
-1732.089
 45
258.4444595289671
 46
0.5561005125924084
 79
     2
 49
18.71099999999999
 49
-1852.424
 53
350.139
 43
152.019
 44
-1733.347
 45
2926.826247371575
 46
-502.1374402320757
 79
     2
 49
25.716
 49
-5117.567000000001
 53
339.321
 43
177.355
 44
-1737.752
 45
1031.388464674038
 46
-364.1309031630374
 79
     2
 49
21.38
 49
-1403.947
 53
325.54
 43
197.358
 44
-1745.301
 45
2388.354689240891
 46
-1627.577529487935
 79
     2
 49
17.78999999999999
 49
-3540.302
 53
82.52
 43
45.339
 44
-1772.984
 45
1600.268991390445
 46
12206.09928669283
 79
     2
 49
71.705
 49
-14269.259
 53
81.684
 43
54.673
 44
-1827.721
 45
266.9912732395994
 46
1889.505702169193
 79
     2
 49
55.318
 49
-3632.565
 53
278.316
 43
204.025
 44
-1772.984
 45
266.3965499392479
 46
-1759.600825704928
 79
     2
 49
55.318
 49
-3632.565
 53
0.0
 43
122.682
 44
-1740.897
 45
0.0
 46
125.831
 79
     2
 49
22.669
 49
-244.03
 53
11.236
 43
97.345
 44
-1745.931
 45
1874.408507621724
 46
378.9898734205177
 79
     2
 49
25.832
 49
-5140.488999999999
 53
23.007
 43
84.01000000000001
 44
-1751.592999999999
 45
284.1700197754566
 46
133.2468709194201
 79
     2
 49
14.487
 49
-2882.994
 53
33.446
 43
70.67499999999999
 44
-1760.401
 45
560.7101673319045
 46
395.5328841141123
 79
     2
 49
15.981
 49
-1582.163
 53
57.54999999999999
 43
62.674
 44
-1772.984
 45
544.3481528656887
 46
898.0478927783932
 79
     2
 49
14.911
 49
-1476.234
 53
0.0
 43
45.339
 44
-1772.984
 45
0.0
 46
125.831
 79
     2
 49
17.335
 49
-249.364
 53
70.544
 43
45.339
 44
-1772.984
 45
7.460283945495845
 46
146.9492693294273
 79
     2
 49
8.006999999999999
 49
-792.7019999999999
 53
56.482
 43
48.006
 44
-1765.434
 45
1073.991717077125
 46
1646.684092648838
 79
     2
 49
12.074
 49
-2402.799
 53
34.46
 43
54.673
 44
-1755.368
 45
545.3683574027345
 46
385.7003365941533
 79
     2
 49
17.79
 49
-3540.302
 53
20.679
 43
69.342
 44
-1745.301
 45
302.1097385587731
 46
139.1976166963707
 79
     2
 49
21.38
 49
-1403.947
 53
9.861
 43
89.344
 44
-1737.752
 45
2140.470539492227
 46
378.6935832501724
 79
     2
 49
25.716
 49
-5117.566999999999
 53
3.856
 43
114.681
 44
-1733.347
 45
1608.455693924822
 46
126.3883202745351
 79
     2
 49
18.711
 49
-1852.424
 53
303.518
 43
212.026
 44
-1755.368
 45
259.4985720912653
 46
-366.6254351740948
 79
     2
 49
12.074
 49
-2402.799
 53
0.0
 43
220.027
 44
-1763.547
 45
0.0
 46
125.831
 79
     2
 49
46.672
 49
-220.027
 53
0.0
 43
221.361
 44
-1772.984
 45
0.0
 46
125.831
 79
     2
 49
45.339
 49
-221.361
 98
        1
 10
0.0
 20
0.0
1001
REVIT
1002
{
1070
     1
1000
22836596
1002
}
1002
{
1070
     5
1000
4951952
1002
}
1002
{
1070
     4
1000
25
1002
}
1002
{
1070
     2
1000
-2000035
1002
}
1002
{
1070
     3
1000
-2000542
1002
}
  0
LINE
  5
D2
330
70
100
AcDbEntity
  8
A-COB-___-___-EXI
100
AcDbLine
 10
7584.464605754172
 20
3435.257579178887
 30
0.0
 11
7584.464605754174
 21
3155.257579178885
 31
0.0
1001
REVIT
1002
{
1070
     1
1000
22836596
1002
}
1002
{
1070
     5
1000
4951952
1002
}
1002
{
1070
     2
1000
-2000035
1002
}
  0
LINE
  5
D4
330
70
100
AcDbEntity
  8
A-COB-___-___-EXI
100
AcDbLine
 10
16924.46460575417
 20
3155.257579178881
 30
0.0
 11
16924.46460575417
 21
3435.25757917888
 31
0.0
1001
REVIT
1002
{
1070
     1
1000
22836596
1002
}
1002
{
1070
     5
1000
4951952
1002
}
1002
{
1070
     2
1000
-2000035
1002
}
  0
LINE
  5
D6
330
70
100
AcDbEntity
  8
A-COB-___-___-EXI
100
AcDbLine
 10
16924.46460575415
 20
5295.598535759492
 30
0.0
 11
7584.464605754154
 21
5295.598535759491
 31
0.0
1001
REVIT
1002
{
1070
     1
1000
22836596
1002
}
1002
{
1070
     5
1000
4951952
1002
}
1002
{
1070
     2
1000
-2000035
1002
}
  0
LINE
  5
D9
330
70
100
AcDbEntity
  8
A-COB-___-___-EXI
100
AcDbLine
 10
16724.46460575412
 20
2974.037202560823
 30
0.0
 11
16752.76405939611
 21
2974.037202560823
 31
0.0
1001
REVIT
1002
{
1070
     1
1000
22836596
1002
}
1002
{
1070
     5
1000
4951952
1002
}
1002
{
1070
     2
1000
-2000035
1002
}
  0
LINE
  5
DE
330
70
100
AcDbEntity
  8
A-COB-___-___-EXI
100
AcDbLine
 10
16722.76405939612
 20
2997.378594988693
 30
0.0
 11
16722.76405939612
 21
2999.03720256075
 31
0.0
1001
REVIT
1002
{
1070
     1
1000
22868336
1002
}
1002
{
1070
     2
1000
-2000051
1002
}
1002
{
1070
     3
1000
-2000042
1002
}
  0
LINE
  5
187
330
70
100
AcDbEntity
  8
A-POR-___-___-EXI
100
AcDbLine
 10
15019.09961076723
 20
817.0331943829634
 30
0.0
 11
16079.09961076723
 21
817.0331943829598
 31
0.0
1001
REVIT
1002
{
1070
     1
1000
22867842
1002
}
1002
{
1070
     2
1000
-2000051
1002
}
1002
{
1070
     3
1000
-2000042
1002
}
  0
LINE
  5
188
330
70
100
AcDbEntity
  8
A-POR-___-___-EXI
100
AcDbLine
 10
15725.7662774339
 20
-282.9668056170403
 30
0.0
 11
15725.7662774339
 21
1872.74935187794
 31
0.0
1001
REVIT
1002
{
1070
     1
1000
22867843
1002
}
1002
{
1070
     2
1000
-2000051
1002
}
1002
{
1070
     3
1000
-2000042
1002
}
  0
LINE
  5
189
330
70
100
AcDbEntity
  8
A-POR-___-___-EXI
100
AcDbLine
 10
15549.09961076723
 20
-282.9668056170401
 30
0.0
 11
15549.09961076724
 21
1876.641173464387
 31
0.0
1001
REVIT
1002
{
1070
     1
1000
22867844
1002
}
1002
{
1070
     2
1000
-2000051
1002
}
1002
{
1070
     3
1000
-2000042
1002
}
  0
LINE
  5
18A
330
70
100
AcDbEntity
  8
A-POR-___-___-EXI
100
AcDbLine
 10
15372.43294410057
 20
1872.74935187794
 30
0.0
 11
15372.43294410056
 21
-282.96680561704
 31
0.0
1001
REVIT
1002
{
1070
     1
1000
22867845
1002
}
1002
{
1070
     2
1000
-2000051
1002
}
1002
{
1070
     3
1000
-2000042
1002
}
  0
LINE
  5
18B
330
70
100
AcDbEntity
  8
A-POR-___-___-EXI
100
AcDbLine
 10
15195.7662774339
 20
-282.9668056170397
 30
0.0
 11
15195.7662774339
 21
1861.051146104543
 31
0.0
1001
REVIT
1002
{
1070
     1
1000
22867846
1002
}
1002
{
1070
     2
1000
-2000051
1002
}
1002
{
1070
     3
1000
-2000042
1002
}
  0
LINE
  5
18C
330
70
100
AcDbEntity
  8
A-POR-___-___-EXI
100
AcDbLine
 10
15902.43294410056
 20
-282.9668056170405
 30
0.0
 11
15902.43294410057
 21
1861.051146104545
 31
0.0
1001
REVIT
1002
{
1070
     1
1000
22867857
1002
}
1002
{
1070
     2
1000
-2000051
1002
}
1002
{
1070
     3
1000
-2000042
1002
}
  0
LINE
  5
196
330
70
100
AcDbEntity
  8
A-JAN-___-___-EXI
100
AcDbLine
 10
13765.43196427086
 20
487.4034641103057
 30
0.0
 11
13765.43196427086
 21
1874.841612047637
 31
0.0
1001
REVIT
1002
{
1070
     1
1000
22867854
1002
}
1002
{
1070
     2
1000
-2000051
1002
}
1002
{
1070
     3
1000
-2000042
1002
}
  0
LINE
  5
197
330
70
100
AcDbEntity
  8
A-JAN-___-___-EXI
100
AcDbLine
 10
13585.43196427086
 20
1898.929961255205
 30
0.0
 11
13585.43196427086
 21
487.403464110306
 31
0.0
1001
REVIT
1002
{
1070
     1
1000
22867855
1002
}
1002
{
1070
     2
1000
-2000051
1002
}
1002
{
1070
     3
1000
-2000042
1002
}
  0
LINE
  5
198
330
70
100
AcDbEntity
  8
A-JAN-___-___-EXI
100
AcDbLine
 10
13230.43196427086
 20
487.4034641103063
 30
0.0
 11
13230.43196427086
 21
1888.715744900576
 31
0.0
1001
REVIT
1002
{
1070
     1
1000
22867856
1002
}
1002
{
1070
     2
1000
-2000051
1002
}
1002
{
1070
     3
1000
-2000042
1002
}
  0
LINE
  5
199
330
70
100
AcDbEntity
  8
A-JAN-___-___-EXI
100
AcDbLine
 10
13405.43196427086
 20
1903.272114432036
 30
0.0
 11
13405.43196427086
 21
481.8885943355028
 31
0.0
1001
REVIT
1002
{
1070
     1
1000
22867858
1002
}
1002
{
1070
     2
1000
-2000051
1002
}
1002
{
1070
     3
1000
-2000042
1002
}
  0
LINE
  5
1A1
330
70
100
AcDbEntity
  8
A-POR-___-___-EXI
100
AcDbLine
 10
8759.099610767236
 20
817.0331943829831
 30
0.0
 11
9819.099610767237
 21
817.0331943829797
 31
0.0
1001
REVIT
1002
{
1070
     1
1000
22867871
1002
}
1002
{
1070
     2
1000
-2000051
1002
}
1002
{
1070
     3
1000
-2000042
1002
}
  0
LINE
  5
1A2
330
70
100
AcDbEntity
  8
A-POR-___-___-EXI
100
AcDbLine
 10
9465.766277433898
 20
-282.9668056170205
 30
0.0
 11
9465.766277433905
 21
1872.74935187796
 31
0.0
1001
REVIT
1002
{
1070
     1
1000
22867872
1002
}
1002
{
1070
     2
1000
-2000051
1002
}
1002
{
1070
     3
1000
-2000042
1002
}
  0
LINE
  5
1A3
330
70
100
AcDbEntity
  8
A-POR-___-___-EXI
100
AcDbLine
 10
9289.099610767236
 20
-282.9668056170203
 30
0.0
 11
9289.099610767237
 21
1876.641173464407
 31
0.0
1001
REVIT
1002
{
1070
     1
1000
22867873
1002
}
1002
{
1070
     2
1000
-2000051
1002
}
1002
{
1070
     3
1000
-2000042
1002
}
  0
LINE
  5
1A4
330
70
100
AcDbEntity
  8
A-POR-___-___-EXI
100
AcDbLine
 10
9112.432944100568
 20
1872.74935187796
 30
0.0
 11
9112.432944100566
 21
-282.9668056170202
 31
0.0
1001
REVIT
1002
{
1070
     1
1000
22867874
1002
}
1002
{
1070
     2
1000
-2000051
1002
}
1002
{
1070
     3
1000
-2000042
1002
}
  0
LINE
  5
1A5
330
70
100
AcDbEntity
  8
A-POR-___-___-EXI
100
AcDbLine
 10
8935.766277433899
 20
-282.9668056170199
 30
0.0
 11
8935.766277433902
 21
1861.051146104563
 31
0.0
1001
REVIT
1002
{
1070
     1
1000
22867875
1002
}
1002
{
1070
     2
1000
-2000051
1002
}
1002
{
1070
     3
1000
-2000042
1002
}
  0
LINE
  5
1A6
330
70
100
AcDbEntity
  8
A-POR-___-___-EXI
100
AcDbLine
 10
9642.432944100567
 20
-282.9668056170207
 30
0.0
 11
9642.432944100569
 21
1861.051146104565
 31
0.0
1001
REVIT
1002
{
1070
     1
1000
22867877
1002
}
1002
{
1070
     2
1000
-2000051
1002
}
1002
{
1070
     3
1000
-2000042
1002
}
  0
LINE
  5
1B0
330
70
100
AcDbEntity
  8
A-JAN-___-___-EXI
100
AcDbLine
 10
11765.55970340753
 20
487.4034641103122
 30
0.0
 11
11765.55970340753
 21
1874.841612047644
 31
0.0
1001
REVIT
1002
{
1070
     1
1000
22867888
1002
}
1002
{
1070
     2
1000
-2000051
1002
}
1002
{
1070
     3
1000
-2000042
1002
}
  0
LINE
  5
1B1
330
70
100
AcDbEntity
  8
A-JAN-___-___-EXI
100
AcDbLine
 10
11585.55970340753
 20
1898.929961255212
 30
0.0
 11
11585.55970340753
 21
487.4034641103125
 31
0.0
1001
REVIT
1002
{
1070
     1
1000
22867889
1002
}
1002
{
1070
     2
1000
-2000051
1002
}
1002
{
1070
     3
1000
-2000042
1002
}
  0
LINE
  5
1B2
330
70
100
AcDbEntity
  8
A-JAN-___-___-EXI
100
AcDbLine
 10
11230.55970340753
 20
487.4034641103129
 30
0.0
 11
11230.55970340753
 21
1888.715744900583
 31
0.0
1001
REVIT
1002
{
1070
     1
1000
22867890
1002
}
1002
{
1070
     2
1000
-2000051
1002
}
1002
{
1070
     3
1000
-2000042
1002
}
  0
LINE
  5
1B3
330
70
100
AcDbEntity
  8
A-JAN-___-___-EXI
100
AcDbLine
 10
11405.55970340753
 20
1903.272114432042
 30
0.0
 11
11405.55970340753
 21
481.8885943355093
 31
0.0
1001
REVIT
1002
{
1070
     1
1000
22867891
1002
}
1002
{
1070
     2
1000
-2000051
1002
}
1002
{
1070
     3
1000
-2000042
1002
}
  0
LINE
  5
221
330
70
100
AcDbEntity
  8
A-COB-___-___-EXI
100
AcDbLine
 10
12568.90230536505
 20
2669.597080435744
 30
0.0
 11
12568.90230536505
 21
2427.054722765849
 31
0.0
1001
REVIT
1002
{
1070
     1
1000
22868061
1002
}
1002
{
1070
     2
1000
-2000051
1002
}
1002
{
1070
     3
1000
-2000042
1002
}
  0
LINE
  5
222
330
70
100
AcDbEntity
  8
A-COB-___-___-EXI
100
AcDbLine
 10
12401.56028665516
 20
2669.597080435744
 30
0.0
 11
12401.56028665516
 21
2427.05472276585
 31
0.0
1001
REVIT
1002
{
1070
     1
1000
22868062
1002
}
1002
{
1070
     2
1000
-2000051
1002
}
1002
{
1070
     3
1000
-2000042
1002
}
  0
CIRCLE
  5
22F
330
70
100
AcDbEntity
  8
A-COB-___-___-EXI
100
AcDbCircle
 10
14673.67922941155
 20
3124.447777334171
 30
0.0
 40
120.0
1001
REVIT
1002
{
1070
     1
1000
22868075
1002
}
1002
{
1070
     2
1000
-2000051
1002
}
1002
{
1070
     3
1000
-2000042
1002
}
  0
ELLIPSE
  5
230
330
70
100
AcDbEntity
  8
A-COB-___-___-EXI
100
AcDbEllipse
 10
14512.73223221891
 20
3163.727861154133
 30
0.0
 11
45.0
 21
0.0
 31
0.0
210
0.0
220
0.0
230
1.0
 40
0.5555555555555556
 41
0.0
 42
6.28318530717958
1001
REVIT
1002
{
1070
     1
1000
22868076
1002
}
1002
{
1070
     2
1000
-2000051
1002
}
1002
{
1070
     3
1000
-2000042
1002
}
  0
ELLIPSE
  5
231
330
70
100
AcDbEntity
  8
A-COB-___-___-EXI
100
AcDbEllipse
 10
14833.18067875468
 20
3166.149302774779
 30
0.0
 11
45.00000000000182
 21
0.0
 31
0.0
210
0.0
220
0.0
230
1.0
 40
0.5555555555555332
 41
0.0
 42
6.28318530717958
1001
REVIT
1002
{
1070
     1
1000
22868077
1002
}
1002
{
1070
     2
1000
-2000051
1002
}
1002
{
1070
     3
1000
-2000042
1002
}
  0
ELLIPSE
  5
232
330
70
100
AcDbEntity
  8
A-COB-___-___-EXI
100
AcDbEllipse
 10
14512.73223221891
 20
3083.727861154133
 30
0.0
 11
45.0
 21
0.0
 31
0.0
210
0.0
220
0.0
230
1.0
 40
0.5555555555555455
 41
0.0
 42
6.28318530717958
1001
REVIT
1002
{
1070
     1
1000
22868078
1002
}
1002
{
1070
     2
1000
-2000051
1002
}
1002
{
1070
     3
1000
-2000042
1002
}
  0
ELLIPSE
  5
233
330
70
100
AcDbEntity
  8
A-COB-___-___-EXI
100
AcDbEllipse
 10
14833.18067875468
 20
3086.149302774778
 30
0.0
 11
45.00000000000182
 21
0.0
 31
0.0
210
0.0
220
0.0
230
1.0
 40
0.555555555555523
 41
0.0
 42
6.28318530717958
1001
REVIT
1002
{
1070
     1
1000
22868079
1002
}
1002
{
1070
     2
1000
-2000051
1002
}
1002
{
1070
     3
1000
-2000042
1002
}
  0
CIRCLE
  5
234
330
70
100
AcDbEntity
  8
A-COB-___-___-EXI
100
AcDbCircle
 10
10073.67922941154
 20
3124.447777334185
 30
0.0
 40
120.0000000000018
1001
REVIT
1002
{
1070
     1
1000
22868081
1002
}
1002
{
1070
     2
1000
-2000051
1002
}
1002
{
1070
     3
1000
-2000042
1002
}
  0
ELLIPSE
  5
235
330
70
100
AcDbEntity
  8
A-COB-___-___-EXI
100
AcDbEllipse
 10
9912.73223221891
 20
3163.727861154148
 30
0.0
 11
45.0
 21
0.0
 31
0.0
210
0.0
220
0.0
230
1.0
 40
0.5555555555555556
 41
0.0
 42
6.28318530717958
1001
REVIT
1002
{
1070
     1
1000
22868082
1002
}
1002
{
1070
     2
1000
-2000051
1002
}
1002
{
1070
     3
1000
-2000042
1002
}
  0
ELLIPSE
  5
236
330
70
100
AcDbEntity
  8
A-COB-___-___-EXI
100
AcDbEllipse
 10
10233.18067875468
 20
3166.149302774794
 30
0.0
 11
45.00000000000182
 21
0.0
 31
0.0
210
0.0
220
0.0
230
1.0
 40
0.555555555555523
 41
0.0
 42
6.28318530717958
1001
REVIT
1002
{
1070
     1
1000
22868083
1002
}
1002
{
1070
     2
1000
-2000051
1002
}
1002
{
1070
     3
1000
-2000042
1002
}
  0
ELLIPSE
  5
237
330
70
100
AcDbEntity
  8
A-COB-___-___-EXI
100
AcDbEllipse
 10
9912.73223221891
 20
3083.727861154148
 30
0.0
 11
45.0
 21
0.0
 31
0.0
210
0.0
220
0.0
230
1.0
 40
0.5555555555555455
 41
0.0
 42
6.28318530717958
1001
REVIT
1002
{
1070
     1
1000
22868084
1002
}
1002
{
1070
     2
1000
-2000051
1002
}
1002
{
1070
     3
1000
-2000042
1002
}
  0
ELLIPSE
  5
238
330
70
100
AcDbEntity
  8
A-COB-___-___-EXI
100
AcDbEllipse
 10
10233.18067875468
 20
3086.149302774793
 30
0.0
 11
45.00000000000182
 21
0.0
 31
0.0
210
0.0
220
0.0
230
1.0
 40
0.5555555555555332
 41
0.0
 42
6.28318530717958
1001
REVIT
1002
{
1070
     1
1000
22868085
1002
}
1002
{
1070
     2
1000
-2000051
1002
}
1002
{
1070
     3
1000
-2000042
1002
}
  0
ELLIPSE
  5
239
330
70
100
AcDbEntity
  8
A-COB-___-___-EXI
100
AcDbEllipse
 10
15870.4873093095
 20
2583.328412868087
 30
0.0
 11
100.0
 21
0.0
 31
0.0
210
0.0
220
0.0
230
1.0
 40
0.4
 41
0.0
 42
6.28318530717958
1001
REVIT
1002
{
1070
     1
1000
22868087
1002
}
1002
{
1070
     2
1000
-2000051
1002
}
1002
{
1070
     3
1000
-2000042
1002
}
  0
ELLIPSE
  5
23A
330
70
100
AcDbEntity
  8
A-COB-___-___-EXI
100
AcDbEllipse
 10
15870.34961076724
 20
2506.265691179795
 30
0.0
 11
100.0000000000018
 21
0.0
 31
0.0
210
0.0
220
0.0
230
1.0
 40
0.3999999999999928
 41
0.0
 42
6.28318530717958
1001
REVIT
1002
{
1070
     1
1000
22868088
1002
}
1002
{
1070
     2
1000
-2000051
1002
}
1002
{
1070
     3
1000
-2000042
1002
}
  0
ELLIPSE
  5
23B
330
70
100
AcDbEntity
  8
A-COB-___-___-EXI
100
AcDbEllipse
 10
15610.4873093095
 20
2583.328412868088
 30
0.0
 11
100.0000000000018
 21
0.0
 31
0.0
210
0.0
220
0.0
230
1.0
 40
0.3999999999999928
 41
0.0
 42
6.28318530717958
1001
REVIT
1002
{
1070
     1
1000
22868089
1002
}
1002
{
1070
     2
1000
-2000051
1002
}
1002
{
1070
     3
1000
-2000042
1002
}
  0
ELLIPSE
  5
23C
330
70
100
AcDbEntity
  8
A-COB-___-___-EXI
100
AcDbEllipse
 10
15609.09961076724
 20
2506.265691179796
 30
0.0
 11
100.0000000000018
 21
0.0
 31
0.0
210
0.0
220
0.0
230
1.0
 40
0.3999999999999972
 41
0.0
 42
6.28318530717958
1001
REVIT
1002
{
1070
     1
1000
22868090
1002
}
1002
{
1070
     2
1000
-2000051
1002
}
1002
{
1070
     3
1000
-2000042
1002
}
  0
ELLIPSE
  5
23D
330
70
100
AcDbEntity
  8
A-COB-___-___-EXI
100
AcDbEllipse
 10
15350.4873093095
 20
2583.328412868088
 30
0.0
 11
100.0000000000018
 21
0.0
 31
0.0
210
0.0
220
0.0
230
1.0
 40
0.3999999999999928
 41
0.0
 42
6.28318530717958
1001
REVIT
1002
{
1070
     1
1000
22868091
1002
}
1002
{
1070
     2
1000
-2000051
1002
}
1002
{
1070
     3
1000
-2000042
1002
}
  0
ELLIPSE
  5
23E
330
70
100
AcDbEntity
  8
A-COB-___-___-EXI
100
AcDbEllipse
 10
15349.09961076724
 20
2506.265691179797
 30
0.0
 11
100.0000000000018
 21
0.0
 31
0.0
210
0.0
220
0.0
230
1.0
 40
0.3999999999999928
 41
0.0
 42
6.28318530717958
1001
REVIT
1002
{
1070
     1
1000
22868092
1002
}
1002
{
1070
     2
1000
-2000051
1002
}
1002
{
1070
     3
1000
-2000042
1002
}
  0
ELLIPSE
  5
23F
330
70
100
AcDbEntity
  8
A-COB-___-___-EXI
100
AcDbEllipse
 10
15740.5556408058
 20
2578.472878675441
 30
0.0
 11
30.96204167891483
 21
0.0
 31
0.0
210
0.0
220
0.0
230
1.0
 40
0.1614880585670487
 41
0.0
 42
6.28318530717958
1001
REVIT
1002
{
1070
     1
1000
22868093
1002
}
1002
{
1070
     2
1000
-2000051
1002
}
1002
{
1070
     3
1000
-2000042
1002
}
  0
ELLIPSE
  5
240
330
70
100
AcDbEntity
  8
A-COB-___-___-EXI
100
AcDbEllipse
 10
15739.79523455371
 20
2507.05472276583
 30
0.0
 11
30.96204167891665
 21
0.0
 31
0.0
210
0.0
220
0.0
230
1.0
 40
0.1614880585670392
 41
0.0
 42
6.28318530717958
1001
REVIT
1002
{
1070
     1
1000
22868094
1002
}
1002
{
1070
     2
1000
-2000051
1002
}
1002
{
1070
     3
1000
-2000042
1002
}
  0
ELLIPSE
  5
241
330
70
100
AcDbEntity
  8
A-COB-___-___-EXI
100
AcDbEllipse
 10
15480.5556408058
 20
2578.472878675442
 30
0.0
 11
30.96204167891665
 21
0.0
 31
0.0
210
0.0
220
0.0
230
1.0
 40
0.1614880585670392
 41
0.0
 42
6.28318530717958
1001
REVIT
1002
{
1070
     1
1000
22868095
1002
}
1002
{
1070
     2
1000
-2000051
1002
}
1002
{
1070
     3
1000
-2000042
1002
}
  0
ELLIPSE
  5
242
330
70
100
AcDbEntity
  8
A-COB-___-___-EXI
100
AcDbEllipse
 10
15479.79523455371
 20
2507.054722765831
 30
0.0
 11
30.96204167891483
 21
0.0
 31
0.0
210
0.0
220
0.0
230
1.0
 40
0.1614880585670487
 41
0.0
 42
6.28318530717958
1001
REVIT
1002
{
1070
     1
1000
22868096
1002
}
1002
{
1070
     2
1000
-2000051
1002
}
1002
{
1070
     3
1000
-2000042
1002
}
  0
ELLIPSE
  5
243
330
70
100
AcDbEntity
  8
A-COB-___-___-EXI
100
AcDbEllipse
 10
9572.808828999075
 20
2588.328412868107
 30
0.0
 11
100.0000000000018
 21
0.0
 31
0.0
210
0.0
220
0.0
230
1.0
 40
0.3999999999999928
 41
0.0
 42
6.28318530717958
1001
REVIT
1002
{
1070
     1
1000
22868098
1002
}
1002
{
1070
     2
1000
-2000051
1002
}
1002
{
1070
     3
1000
-2000042
1002
}
  0
ELLIPSE
  5
244
330
70
100
AcDbEntity
  8
A-COB-___-___-EXI
100
AcDbEllipse
 10
9572.671130456813
 20
2511.265691179815
 30
0.0
 11
100.0
 21
0.0
 31
0.0
210
0.0
220
0.0
230
1.0
 40
0.4
 41
0.0
 42
6.28318530717958
1001
REVIT
1002
{
1070
     1
1000
22868099
1002
}
1002
{
1070
     2
1000
-2000051
1002
}
1002
{
1070
     3
1000
-2000042
1002
}
  0
ELLIPSE
  5
245
330
70
100
AcDbEntity
  8
A-COB-___-___-EXI
100
AcDbEllipse
 10
9312.808828999076
 20
2588.328412868108
 30
0.0
 11
100.0000000000018
 21
0.0
 31
0.0
210
0.0
220
0.0
230
1.0
 40
0.3999999999999972
 41
0.0
 42
6.28318530717958
1001
REVIT
1002
{
1070
     1
1000
22868100
1002
}
1002
{
1070
     2
1000
-2000051
1002
}
1002
{
1070
     3
1000
-2000042
1002
}
  0
ELLIPSE
  5
246
330
70
100
AcDbEntity
  8
A-COB-___-___-EXI
100
AcDbEllipse
 10
9311.421130456814
 20
2511.265691179817
 30
0.0
 11
100.0000000000018
 21
0.0
 31
0.0
210
0.0
220
0.0
230
1.0
 40
0.3999999999999928
 41
0.0
 42
6.28318530717958
1001
REVIT
1002
{
1070
     1
1000
22868101
1002
}
1002
{
1070
     2
1000
-2000051
1002
}
1002
{
1070
     3
1000
-2000042
1002
}
  0
ELLIPSE
  5
247
330
70
100
AcDbEntity
  8
A-COB-___-___-EXI
100
AcDbEllipse
 10
9052.808828999074
 20
2588.328412868109
 30
0.0
 11
100.0
 21
0.0
 31
0.0
210
0.0
220
0.0
230
1.0
 40
0.4
 41
0.0
 42
6.28318530717958
1001
REVIT
1002
{
1070
     1
1000
22868102
1002
}
1002
{
1070
     2
1000
-2000051
1002
}
1002
{
1070
     3
1000
-2000042
1002
}
  0
ELLIPSE
  5
248
330
70
100
AcDbEntity
  8
A-COB-___-___-EXI
100
AcDbEllipse
 10
9051.421130456812
 20
2511.265691179817
 30
0.0
 11
100.0000000000018
 21
0.0
 31
0.0
210
0.0
220
0.0
230
1.0
 40
0.3999999999999928
 41
0.0
 42
6.28318530717958
1001
REVIT
1002
{
1070
     1
1000
22868103
1002
}
1002
{
1070
     2
1000
-2000051
1002
}
1002
{
1070
     3
1000
-2000042
1002
}
  0
ELLIPSE
  5
249
330
70
100
AcDbEntity
  8
A-COB-___-___-EXI
100
AcDbEllipse
 10
9442.877160495369
 20
2583.472878675462
 30
0.0
 11
30.96204167891665
 21
0.0
 31
0.0
210
0.0
220
0.0
230
1.0
 40
0.1614880585670245
 41
0.0
 42
6.28318530717958
1001
REVIT
1002
{
1070
     1
1000
22868104
1002
}
1002
{
1070
     2
1000
-2000051
1002
}
1002
{
1070
     3
1000
-2000042
1002
}
  0
ELLIPSE
  5
24A
330
70
100
AcDbEntity
  8
A-COB-___-___-EXI
100
AcDbEllipse
 10
9442.116754243285
 20
2512.054722765851
 30
0.0
 11
30.96204167891483
 21
0.0
 31
0.0
210
0.0
220
0.0
230
1.0
 40
0.1614880585670487
 41
0.0
 42
6.28318530717958
1001
REVIT
1002
{
1070
     1
1000
22868105
1002
}
1002
{
1070
     2
1000
-2000051
1002
}
1002
{
1070
     3
1000
-2000042
1002
}
  0
ELLIPSE
  5
24B
330
70
100
AcDbEntity
  8
A-COB-___-___-EXI
100
AcDbEllipse
 10
9182.877160495369
 20
2583.472878675463
 30
0.0
 11
30.96204167891483
 21
0.0
 31
0.0
210
0.0
220
0.0
230
1.0
 40
0.1614880585670487
 41
0.0
 42
6.28318530717958
1001
REVIT
1002
{
1070
     1
1000
22868106
1002
}
1002
{
1070
     2
1000
-2000051
1002
}
1002
{
1070
     3
1000
-2000042
1002
}
  0
ELLIPSE
  5
24C
330
70
100
AcDbEntity
  8
A-COB-___-___-EXI
100
AcDbEllipse
 10
9182.116754243287
 20
2512.054722765852
 30
0.0
 11
30.96204167891665
 21
0.0
 31
0.0
210
0.0
220
0.0
230
1.0
 40
0.1614880585670392
 41
0.0
 42
6.28318530717958
1001
REVIT
1002
{
1070
     1
1000
22868107
1002
}
1002
{
1070
     2
1000
-2000051
1002
}
1002
{
1070
     3
1000
-2000042
1002
}
  0
LWPOLYLINE
  5
294
330
70
100
AcDbEntity
  8
A-COB-___-___-EXI
100
AcDbPolyline
 90
        8
 70
     0
 43
0.0
 10
12352.81936901042
 20
2669.597080435744
 42
-0.8713516757440039
 10
12265.72606128962
 20
2563.329268171346
 42
0.497273770562234
 10
12138.14649126335
 20
2563.291389941849
 42
-0.3355977810854078
 10
12075.54488717331
 20
2551.821505154594
 42
2.139227933363372
 10
12065.39654666953
 20
2460.311587265433
 42
-0.2919316952902133
 10
12143.59179854928
 20
2460.311587265413
 42
0.5114156854964084
 10
12272.25625238421
 20
2476.859121691987
 42
-0.8676979479743033
 10
12366.62144280742
 20
2427.05472276585
1001
REVIT
1002
{
1070
     1
1000
22868122
1002
}
1002
{
1070
     2
1000
-2000051
1002
}
1002
{
1070
     3
1000
-2000042
1002
}
  0
LWPOLYLINE
  5
295
330
70
100
AcDbEntity
  8
A-COB-___-___-EXI
100
AcDbPolyline
 90
        8
 70
     0
 43
0.0
 10
12603.76379320198
 20
2427.054722765851
 42
-0.8780801511962167
 10
12697.68633576456
 20
2478.049632490437
 42
0.5114156854964072
 10
12826.35078959948
 20
2461.50209806386
 42
-0.2919316952902175
 10
12904.54604147924
 20
2461.502098063881
 42
2.139227933363314
 10
12894.39770097546
 20
2553.012015953044
 42
-0.3355977810854131
 10
12831.79609688542
 20
2564.481900740297
 42
0.4972737705622319
 10
12704.21652685915
 20
2564.519778969797
 42
-0.8612213044966917
 10
12616.04620195397
 20
2669.597080435743
1001
REVIT
1002
{
1070
     1
1000
22868115
1002
}
1002
{
1070
     2
1000
-2000051
1002
}
1002
{
1070
     3
1000
-2000042
1002
}
  0
LWPOLYLINE
  5
296
330
70
100
AcDbEntity
  8
A-COB-___-___-EXI
100
AcDbPolyline
 90
        4
 70
     1
 43
0.0
 10
12342.60286018596
 20
3087.484434345551
 10
10054.70094856307
 20
3573.792998118403
 10
7853.592409750679
 20
3105.932935245921
 10
10054.70094856307
 20
3573.792998118403
1001
REVIT
1002
{
1070
     1
1000
22868074
1002
}
1002
{
1070
     2
1000
-2000051
1002
}
1002
{
1070
     3
1000
-2000042
1002
}
  0
LWPOLYLINE
  5
297
330
70
100
AcDbEntity
  8
A-COB-___-___-EXI
100
AcDbPolyline
 90
        3
 70
     0
 43
0.0
 10
12371.56028665516
 20
3041.286057361308
 10
10053.94632823481
 20
3533.910111641607
 10
7831.705684524921
 20
3061.558281211262
1001
REVIT
1002
{
1070
     1
1000
22868072
1002
}
1002
{
1070
     2
1000
-2000051
1002
}
1002
{
1070
     3
1000
-2000042
1002
}
  0
LWPOLYLINE
  5
298
330
70
100
AcDbEntity
  8
A-COB-___-___-EXI
100
AcDbPolyline
 90
        3
 70
     0
 43
0.0
 10
12371.56028665516
 20
3004.797008569346
 10
10053.92162661302
 20
3497.426313341441
 10
7809.220335938703
 20
3020.300325019454
1001
REVIT
1002
{
1070
     1
1000
22868070
1002
}
1002
{
1070
     2
1000
-2000051
1002
}
1002
{
1070
     3
1000
-2000042
1002
}
  0
LWPOLYLINE
  5
299
330
70
100
AcDbEntity
  8
A-COB-___-___-EXI
100
AcDbPolyline
 90
        4
 70
     1
 43
0.0
 10
14692.78109302746
 20
3549.872590609867
 10
16680.2886022336
 20
3127.414828159643
 10
14692.78109302746
 20
3549.872590609866
 10
12640.68809065172
 20
3113.686757797772
1001
REVIT
1002
{
1070
     1
1000
22868068
1002
}
1002
{
1070
     2
1000
-2000051
1002
}
1002
{
1070
     3
1000
-2000042
1002
}
  0
LWPOLYLINE
  5
29A
330
70
100
AcDbEntity
  8
A-COB-___-___-EXI
100
AcDbPolyline
 90
        3
 70
     0
 43
0.0
 10
16693.80663292692
 20
3082.330095979151
 10
14696.25836627588
 20
3506.922087308424
 10
12622.58545272021
 20
3066.14930277478
1001
REVIT
1002
{
1070
     1
1000
22868066
1002
}
1002
{
1070
     2
1000
-2000051
1002
}
1002
{
1070
     3
1000
-2000042
1002
}
  0
LWPOLYLINE
  5
29B
330
70
100
AcDbEntity
  8
A-COB-___-___-EXI
100
AcDbPolyline
 90
        3
 70
     0
 43
0.0
 10
16722.76405939612
 20
3033.570361686148
 10
14693.82257541528
 20
3464.835187350802
 10
12596.31601683974
 20
3018.996405179669
1001
REVIT
1002
{
1070
     1
1000
22868064
1002
}
1002
{
1070
     2
1000
-2000051
1002
}
1002
{
1070
     3
1000
-2000042
1002
}
  0
LWPOLYLINE
  5
29C
330
70
100
AcDbEntity
  8
A-COB-___-___-EXI
100
AcDbPolyline
 90
        8
 70
     0
 43
0.0
 10
12401.56028665516
 20
2962.372604421546
 10
12401.56028665516
 20
2999.037202560776
 10
12401.56028665516
 20
2899.037202560796
 10
7781.806624464015
 20
2899.037202560803
 10
7781.806624464015
 20
2999.037202560804
 10
7614.464605754124
 20
2999.037202560804
 10
7614.464605754124
 20
2899.037202560823
 10
7781.806624464015
 20
2899.037202560775
1001
REVIT
1002
{
1070
     1
1000
22868032
1002
}
1002
{
1070
     2
1000
-2000051
1002
}
1002
{
1070
     3
1000
-2000042
1002
}
  0
LWPOLYLINE
  5
29D
330
70
100
AcDbEntity
  8
A-COB-___-___-EXI
100
AcDbPolyline
 90
        8
 70
     0
 43
0.0
 10
12401.56028665516
 20
2899.03720256076
 10
12568.90230536505
 20
2899.037202560782
 10
12568.90230536505
 20
2977.528246911949
 10
14692.52745500334
 20
3428.918706995049
 10
16724.46460575412
 20
2997.017132701874
 10
16724.46460575412
 20
2899.037202560781
 10
12568.90230536505
 20
2899.037202560795
 10
12568.90230536505
 20
2999.037202560776
1001
REVIT
1002
{
1070
     1
1000
22868031
1002
}
1002
{
1070
     2
1000
-2000051
1002
}
1002
{
1070
     3
1000
-2000042
1002
}
  0
LWPOLYLINE
  5
29E
330
70
100
AcDbEntity
  8
A-COB-___-___-EXI
100
AcDbPolyline
 90
        4
 70
     1
 43
0.0
 10
7809.220335938704
 20
3492.757480884414
 10
7809.220335938704
 20
3435.257579178935
 10
7584.464605754125
 20
3435.257579178935
 10
7584.464605754125
 20
3492.757480884414
1001
REVIT
1002
{
1070
     1
1000
22867992
1002
}
1002
{
1070
     2
1000
-2000051
1002
}
1002
{
1070
     3
1000
-2000042
1002
}
  0
LWPOLYLINE
  5
29F
330
70
100
AcDbEntity
  8
A-COB-___-___-EXI
100
AcDbPolyline
 90
        3
 70
     0
 43
0.0
 10
7584.464605754122
 20
2427.054722765879
 10
7584.464605754122
 20
2669.59708043576
 10
7584.464605754122
 20
2690.379857799728
1001
REVIT
1002
{
1070
     1
1000
22867946
1002
}
1002
{
1070
     2
1000
-2000051
1002
}
1002
{
1070
     3
1000
-2000042
1002
}
  0
LWPOLYLINE
  5
2A0
330
70
100
AcDbEntity
  8
A-COB-___-___-EXI
100
AcDbPolyline
 90
        4
 70
     0
 43
0.0
 10
16920.10607810601
 20
2427.054722765823
 10
16920.10607810601
 20
2690.379857799675
 10
16920.10607810601
 20
2669.59708043573
 10
7584.464605754122
 20
2669.59708043576
1001
REVIT
1002
{
1070
     1
1000
22867945
1002
}
1002
{
1070
     2
1000
-2000051
1002
}
1002
{
1070
     3
1000
-2000042
1002
}
  0
LWPOLYLINE
  5
2A1
330
70
100
AcDbEntity
  8
A-COB-___-___-EXI
100
AcDbPolyline
 90
        9
 70
     1
 43
0.0
 10
17126.81167515045
 20
2899.037202560768
 10
12401.56028665516
 20
2899.037202560803
 10
12401.56028665516
 20
2962.372604421548
 10
10053.61977591172
 20
3461.442766390935
 10
7781.806624464015
 20
2978.553974162473
 10
7781.806624464015
 20
2899.037202560803
 10
7363.316213439451
 20
2899.037202560825
 10
7363.316213439451
 20
2879.037202560799
 10
17126.81167515045
 20
2879.037202560768
1001
REVIT
1002
{
1070
     1
1000
22867960
1002
}
1002
{
1070
     2
1000
-2000051
1002
}
1002
{
1070
     3
1000
-2000042
1002
}
  0
LWPOLYLINE
  5
2A2
330
70
100
AcDbEntity
  8
A-COB-___-___-EXI
100
AcDbPolyline
 90
        4
 70
     1
 43
0.0
 10
17096.36430045911
 20
2851.513597493056
 10
7399.57801597331
 20
2851.513597493087
 10
7399.57801597331
 20
2879.037202560799
 10
17096.36430045911
 20
2879.037202560742
1001
REVIT
1002
{
1070
     1
1000
22867940
1002
}
1002
{
1070
     2
1000
-2000051
1002
}
1002
{
1070
     3
1000
-2000042
1002
}
  0
LWPOLYLINE
  5
2A3
330
70
100
AcDbEntity
  8
A-COB-___-___-EXI
100
AcDbPolyline
 90
        4
 70
     1
 43
0.0
 10
17063.49551170191
 20
2821.513597493055
 10
7435.839818507165
 20
2821.513597493087
 10
7435.839818507165
 20
2851.513597493056
 10
17063.49551170191
 20
2851.513597493
1001
REVIT
1002
{
1070
     1
1000
22867936
1002
}
1002
{
1070
     2
1000
-2000051
1002
}
1002
{
1070
     3
1000
-2000042
1002
}
  0
LWPOLYLINE
  5
2A4
330
70
100
AcDbEntity
  8
A-COB-___-___-EXI
100
AcDbPolyline
 90
        4
 70
     1
 43
0.0
 10
17029.76832209269
 20
2778.9899924254
 10
7472.101621041023
 20
2778.989992425431
 10
7472.101621041023
 20
2821.513597493057
 10
17029.76832209269
 20
2821.513597493
1001
REVIT
1002
{
1070
     1
1000
22867931
1002
}
1002
{
1070
     2
1000
-2000051
1002
}
1002
{
1070
     3
1000
-2000042
1002
}
  0
LWPOLYLINE
  5
2A5
330
70
100
AcDbEntity
  8
A-COB-___-___-EXI
100
AcDbPolyline
 90
        4
 70
     1
 43
0.0
 10
17004.47025104764
 20
2741.010863161075
 10
7506.722758214961
 20
2741.010863161106
 10
7506.722758214961
 20
2778.989992425401
 10
17004.47025104764
 20
2778.989992425345
1001
REVIT
1002
{
1070
     1
1000
22867927
1002
}
1002
{
1070
     2
1000
-2000051
1002
}
1002
{
1070
     3
1000
-2000042
1002
}
  0
LWPOLYLINE
  5
2A6
330
70
100
AcDbEntity
  8
A-COB-___-___-EXI
100
AcDbPolyline
 90
        4
 70
     1
 43
0.0
 10
16971.80662446401
 20
2715.228085797101
 10
7525.088544024491
 20
2715.228085797131
 10
7525.088544024491
 20
2741.010863161076
 10
16971.80662446401
 20
2741.01086316102
1001
REVIT
1002
{
1070
     1
1000
22867923
1002
}
1002
{
1070
     2
1000
-2000051
1002
}
1002
{
1070
     3
1000
-2000042
1002
}
  0
LWPOLYLINE
  5
2A7
330
70
100
AcDbEntity
  8
A-COB-___-___-EXI
100
AcDbPolyline
 90
        6
 70
     0
 43
0.0
 10
7552.735528537048
 20
2690.379857799706
 10
16945.10607810601
 20
2690.379857799675
 10
16945.10607810601
 20
2715.228085797076
 10
7552.735528537048
 20
2715.228085797131
 10
7552.735528537048
 20
2690.379857799728
 10
7663.36722838348
 20
2690.379857799728
1001
REVIT
1002
{
1070
     1
1000
22867919
1002
}
1002
{
1070
     2
1000
-2000051
1002
}
1002
{
1070
     3
1000
-2000042
1002
}
  0
LWPOLYLINE
  5
2A8
330
70
100
AcDbEntity
  8
A-ALV-___-___-EXI
100
AcDbPolyline
 90
        4
 70
     1
 43
0.0
 10
7584.464605754122
 20
2187.311000941743
 10
7584.464605754122
 20
-462.9668056170118
 10
7781.806624464015
 20
-462.9668056170119
 10
7781.806624464015
 20
2187.311000941743
1001
REVIT
1002
{
1070
     1
1000
22867903
1002
}
1002
{
1070
     2
1000
-2000051
1002
}
1002
{
1070
     3
1000
-2000042
1002
}
  0
LWPOLYLINE
  5
2A9
330
70
100
AcDbEntity
  8
A-ALV-___-___-EXI
100
AcDbPolyline
 90
        4
 70
     1
 43
0.0
 10
16724.46460575412
 20
2187.311000941714
 10
16724.46460575412
 20
-462.966805617041
 10
16921.80662446402
 20
-462.966805617041
 10
16921.80662446402
 20
2187.311000941714
1001
REVIT
1002
{
1070
     1
1000
22867898
1002
}
1002
{
1070
     2
1000
-2000051
1002
}
1002
{
1070
     3
1000
-2000042
1002
}
  0
LWPOLYLINE
  5
2AA
330
70
100
AcDbEntity
  8
A-JAN-___-___-EXI
100
AcDbPolyline
 90
        4
 70
     1
 43
0.0
 10
11025.55970340753
 20
487.4034641103131
 10
11885.55970340752
 20
487.4034641103122
 10
11885.55970340751
 20
1847.403464110314
 42
0.131677534904889
 10
11025.55970340752
 20
1847.403464110309
1001
REVIT
1002
{
1070
     1
1000
22867894
1002
}
1002
{
1070
     2
1000
-2000051
1002
}
1002
{
1070
     3
1000
-2000042
1002
}
  0
LWPOLYLINE
  5
2AB
330
70
100
AcDbEntity
  8
A-JAN-___-___-EXI
100
AcDbPolyline
 90
        4
 70
     1
 43
0.0
 10
10885.55970340753
 20
347.4034641103146
 10
12025.55970340753
 20
347.4034641103109
 10
12025.55970340752
 20
1982.519743087735
 42
0.1225377081444636
 10
10885.55970340752
 20
1982.519743087731
1001
REVIT
1002
{
1070
     1
1000
22867893
1002
}
1002
{
1070
     2
1000
-2000051
1002
}
1002
{
1070
     3
1000
-2000042
1002
}
  0
LWPOLYLINE
  5
2AC
330
70
100
AcDbEntity
  8
A-POR-___-___-EXI
100
AcDbPolyline
 90
        4
 70
     1
 43
0.0
 10
8634.099610767231
 20
-462.966805617019
 10
9944.09961076724
 20
-462.9668056170233
 10
9944.099610767217
 20
1995.613777853025
 42
0.0840121123287861
 10
8634.099610767206
 20
1995.613777853019
1001
REVIT
1002
{
1070
     1
1000
22867881
1002
}
1002
{
1070
     2
1000
-2000051
1002
}
1002
{
1070
     3
1000
-2000042
1002
}
  0
LWPOLYLINE
  5
2AD
330
70
100
AcDbEntity
  8
A-POR-___-___-EXI
100
AcDbPolyline
 90
        4
 70
     1
 43
0.0
 10
8759.099610767234
 20
-282.9668056170198
 10
9819.099610767233
 20
-282.9668056170209
 10
9819.099610767214
 20
1841.477663468273
 42
0.0663462452757241
 10
8759.099610767211
 20
1841.477663468271
1001
REVIT
1002
{
1070
     1
1000
22867880
1002
}
1002
{
1070
     2
1000
-2000051
1002
}
1002
{
1070
     3
1000
-2000042
1002
}
  0
LWPOLYLINE
  5
2AE
330
70
100
AcDbEntity
  8
A-JAN-___-___-EXI
100
AcDbPolyline
 90
        4
 70
     1
 43
0.0
 10
13025.43196427087
 20
487.4034641103066
 10
13885.43196427086
 20
487.4034641103057
 10
13885.43196427085
 20
1847.403464110306
 42
0.1316775349048891
 10
13025.43196427086
 20
1847.403464110303
1001
REVIT
1002
{
1070
     1
1000
22867863
1002
}
1002
{
1070
     2
1000
-2000051
1002
}
1002
{
1070
     3
1000
-2000042
1002
}
  0
LWPOLYLINE
  5
2AF
330
70
100
AcDbEntity
  8
A-JAN-___-___-EXI
100
AcDbPolyline
 90
        4
 70
     1
 43
0.0
 10
12885.43196427087
 20
347.403464110308
 10
14025.43196427086
 20
347.4034641103044
 10
14025.43196427085
 20
1982.519743087731
 42
0.1225377081444633
 10
12885.43196427086
 20
1982.519743087728
1001
REVIT
1002
{
1070
     1
1000
22867862
1002
}
1002
{
1070
     2
1000
-2000051
1002
}
1002
{
1070
     3
1000
-2000042
1002
}
  0
LWPOLYLINE
  5
2B0
330
70
100
AcDbEntity
  8
A-POR-___-___-EXI
100
AcDbPolyline
 90
        4
 70
     1
 43
0.0
 10
14894.09961076723
 20
-462.9668056170388
 10
16204.09961076724
 20
-462.966805617043
 10
16204.09961076721
 20
1995.613777853005
 42
0.0840121123287855
 10
14894.09961076721
 20
1995.613777852999
1001
REVIT
1002
{
1070
     1
1000
22867865
1002
}
1002
{
1070
     2
1000
-2000051
1002
}
1002
{
1070
     3
1000
-2000042
1002
}
  0
LWPOLYLINE
  5
2B1
330
70
100
AcDbEntity
  8
A-POR-___-___-EXI
100
AcDbPolyline
 90
        4
 70
     1
 43
0.0
 10
15019.09961076723
 20
-282.9668056170395
 10
16079.09961076723
 20
-282.9668056170407
 10
16079.09961076721
 20
1841.477663468254
 42
0.0663462452757238
 10
15019.09961076721
 20
1841.477663468252
1001
REVIT
1002
{
1070
     1
1000
22867864
1002
}
1002
{
1070
     2
1000
-2000051
1002
}
1002
{
1070
     3
1000
-2000042
1002
}
  0
LWPOLYLINE
  5
2B2
330
70
100
AcDbEntity
  8
A-COB-___-___-EXI
100
AcDbPolyline
 90
        4
 70
     0
 43
0.0
 10
16920.10607810601
 20
2236.220713959931
 10
16920.10607810601
 20
2187.311000941714
 10
7584.464605754122
 20
2187.311000941745
 10
7584.464605754122
 20
2236.22071395996
1001
REVIT
1002
{
1070
     1
1000
22867911
1002
}
1002
{
1070
     2
1000
-2000051
1002
}
1002
{
1070
     3
1000
-2000042
1002
}
  0
LWPOLYLINE
  5
2B3
330
70
100
AcDbEntity
  8
A-COB-___-___-EXI
100
AcDbPolyline
 90
        6
 70
     0
 43
0.0
 10
7547.196575924377
 20
2236.22071395996
 10
16963.58544624072
 20
2236.22071395993
 10
7547.196575924377
 20
2236.22071395996
 10
7547.196575924377
 20
2283.821556117846
 10
16963.58544624072
 20
2283.821556117816
 10
16963.58544624072
 20
2236.22071395993
1001
REVIT
1002
{
1070
     1
1000
22867908
1002
}
1002
{
1070
     2
1000
-2000051
1002
}
1002
{
1070
     3
1000
-2000042
1002
}
  0
LWPOLYLINE
  5
2B4
330
70
100
AcDbEntity
  8
A-COB-___-___-EXI
100
AcDbPolyline
 90
        4
 70
     0
 43
0.0
 10
7584.464605754122
 20
2283.821556117846
 10
7584.464605754122
 20
2305.873990993481
 10
7584.464605754122
 20
2346.267568250947
 10
7609.309958973956
 20
2346.267568250947
1001
REVIT
1002
{
1070
     1
1000
22867829
1002
}
1002
{
1070
     2
1000
-2000051
1002
}
1002
{
1070
     3
1000
-2000042
1002
}
  0
LWPOLYLINE
  5
2B5
330
70
100
AcDbEntity
  8
A-COB-___-___-EXI
100
AcDbPolyline
 90
        3
 70
     0
 43
0.0
 10
16920.10607810601
 20
2346.267568250915
 10
16920.10607810601
 20
2305.87399099345
 10
16920.10607810601
 20
2283.821556117816
1001
REVIT
1002
{
1070
     1
1000
22867827
1002
}
1002
{
1070
     2
1000
-2000051
1002
}
1002
{
1070
     3
1000
-2000042
1002
}
  0
LWPOLYLINE
  5
2B6
330
70
100
AcDbEntity
  8
A-COB-___-___-EXI
100
AcDbPolyline
 90
        6
 70
     0
 43
0.0
 10
7485.083192874798
 20
2386.661145508413
 10
17031.91016759525
 20
2386.661145508382
 10
17031.91016759525
 20
2427.054722765823
 10
7485.083192874798
 20
2427.054722765879
 10
7485.083192874798
 20
2386.661145508413
 10
7609.309958973956
 20
2386.661145508412
1001
REVIT
1002
{
1070
     1
1000
22867823
1002
}
1002
{
1070
     2
1000
-2000051
1002
}
1002
{
1070
     3
1000
-2000042
1002
}
  0
LWPOLYLINE
  5
2B7
330
70
100
AcDbEntity
  8
A-COB-___-___-EXI
100
AcDbPolyline
 90
        4
 70
     0
 43
0.0
 10
16963.58544624072
 20
2386.661145508383
 10
16963.58544624072
 20
2346.267568250915
 10
7547.196575924377
 20
2346.267568250945
 10
7547.196575924377
 20
2386.661145508412
1001
REVIT
1002
{
1070
     1
1000
22867822
1002
}
1002
{
1070
     2
1000
-2000051
1002
}
1002
{
1070
     3
1000
-2000042
1002
}
  0
LWPOLYLINE
  5
2B8
330
70
100
AcDbEntity
  8
A-BAS-___-___-EXI
100
AcDbPolyline
 90
        4
 70
     1
 43
0.0
 10
17835.85050385448
 20
-462.9668056170409
 10
6587.76395939725
 20
-462.9668056170409
 10
6587.76395939725
 20
-653.0526522370815
 10
17835.85050385448
 20
-653.0526522370815
1001
REVIT
1002
{
1070
     1
1000
22867809
1002
}
1002
{
1070
     5
1000
383807
1002
}
1002
{
1070
     2
1000
-2000051
1002
}
1002
{
1070
     3
1000
-2000042
1002
}
  0
LWPOLYLINE
  5
2B9
330
70
100
AcDbEntity
  8
A-COB-___-___-EXI
100
AcDbPolyline
 90
        5
 70
     0
 43
0.0
 10
16752.76405939612
 20
2899.03720256077
 10
16752.76405939612
 20
2999.03720256075
 10
16752.76405939612
 20
2899.03720256077
 10
16920.10607810601
 20
2899.037202560769
 10
16920.10607810601
 20
2999.03720256075
1001
REVIT
1002
{
1070
     1
1000
22868003
1002
}
1002
{
1070
     2
1000
-2000051
1002
}
1002
{
1070
     3
1000
-2000042
1002
}
  0
LWPOLYLINE
  5
2BA
330
70
100
AcDbEntity
  8
A-COB-___-___-EXI
100
AcDbPolyline
 90
       23
 70
     0
 43
0.0
 10
12568.90230536505
 20
3155.257579178906
 10
12568.90230536505
 20
3435.257579178907
 10
12401.56028665516
 20
3435.257579178907
 10
12401.56028665516
 20
3155.257579178871
 10
12329.08482949265
 20
3155.257579178906
 10
12329.08482949265
 20
3101.397920752337
 10
12329.08482949265
 20
3155.257579178906
 10
12640.68809065172
 20
3155.257579178906
 10
12640.68809065172
 20
3101.397920752373
 10
12329.08482949265
 20
3101.397920752337
 10
12342.60286018596
 20
3101.397920752373
 10
12342.60286018596
 20
3056.537104266218
 10
12342.60286018596
 20
3101.397920752373
 10
12618.80136542596
 20
3101.397920752373
 10
12618.80136542596
 20
3056.537104266254
 10
12342.60286018596
 20
3056.537104266218
 10
12371.56028665516
 20
3056.537104266254
 10
12596.31601683974
 20
3056.537104266254
 10
12596.31601683974
 20
2999.037202560776
 10
12371.56028665516
 20
2999.037202560776
 10
12371.56028665516
 20
3056.537104266218
 10
12371.56028665516
 20
2999.03720256074
 10
12401.56028665516
 20
2999.03720256074
1001
REVIT
1002
{
1070
     1
1000
22868125
1002
}
1002
{
1070
     2
1000
-2000051
1002
}
1002
{
1070
     3
1000
-2000042
1002
}
  0
LWPOLYLINE
  5
2BB
330
70
100
AcDbEntity
  8
A-COB-___-___-EXI
100
AcDbPolyline
 90
       17
 70
     0
 43
0.0
 10
12573.26083301322
 20
2978.454680562785
 10
12573.26083301322
 20
2996.72062164815
 10
12573.26083301322
 20
2999.03720256074
 10
12596.31601683974
 20
2999.03720256074
 10
12596.31601683974
 20
3056.537104266218
 10
12618.80136542596
 20
3056.537104266218
 10
12618.80136542596
 20
3101.397920752337
 10
12640.68809065172
 20
3101.397920752337
 10
12640.68809065172
 20
3155.257579178871
 10
12568.90230536505
 20
3155.257579178871
 10
12568.90230536505
 20
3435.257579178871
 10
12596.31601683974
 20
3435.257579178907
 10
12596.31601683974
 20
3492.75748088435
 10
12596.31601683974
 20
3435.257579178907
 10
12371.56028665516
 20
3435.257579178871
 10
12401.56028665516
 20
3435.257579178871
 10
12401.56028665516
 20
3155.257579178871
1001
REVIT
1002
{
1070
     1
1000
22868125
1002
}
1002
{
1070
     2
1000
-2000051
1002
}
1002
{
1070
     3
1000
-2000042
1002
}
  0
LWPOLYLINE
  5
2BD
330
70
100
AcDbEntity
  8
A-COB-___-___-EXI
100
AcDbPolyline
 90
       43
 70
     0
 43
0.0
 10
7614.464605754124
 20
2899.037202560775
 10
7614.464605754124
 20
2999.037202560755
 10
7584.464605754122
 20
2999.037202560755
 10
7809.220335938703
 20
2999.037202560804
 10
7809.220335938703
 20
3056.537104266283
 10
7584.464605754122
 20
3056.537104266283
 10
7584.464605754122
 20
2999.037202560755
 10
7584.464605754122
 20
3056.537104266283
 10
7555.507179284925
 20
3056.537104266233
 10
7831.705684524921
 20
3056.537104266283
 10
7831.705684524921
 20
3101.397920752401
 10
7555.507179284925
 20
3101.397920752401
 10
7555.507179284925
 20
3056.537104266233
 10
7555.507179284925
 20
3101.397920752401
 10
7541.989148591611
 20
3101.397920752353
 10
7853.592409750679
 20
3101.397920752401
 10
7853.592409750679
 20
3155.257579178935
 10
7541.989148591611
 20
3155.257579178935
 10
7541.989148591611
 20
3101.397920752353
 10
7541.989148591611
 20
3155.257579178935
 10
7614.464605754124
 20
3155.257579178886
 10
7614.464605754124
 20
3435.257579178936
 10
7781.806624464015
 20
3435.257579178935
 10
7781.806624464015
 20
3155.257579178935
 10
7781.806624464015
 20
3435.257579178886
 10
7809.220335938706
 20
3435.257579178886
 10
7809.220335938706
 20
3492.757480884364
 10
7831.705684524923
 20
3492.757480884364
 10
7831.705684524923
 20
3537.618297370533
 10
7555.507179284926
 20
3537.618297370533
 10
7555.507179284926
 20
3492.757480884414
 10
7831.705684524923
 20
3492.757480884364
 10
7831.705684524923
 20
3537.618297370484
 10
7853.592409750679
 20
3537.618297370484
 10
7853.592409750679
 20
3591.477955797017
 10
7541.989148591612
 20
3591.477955797019
 10
7541.989148591612
 20
3537.618297370484
 10
7555.507179284925
 20
3537.618297370484
 10
7555.507179284925
 20
3492.757480884364
 10
7584.464605754122
 20
3492.757480884364
 10
7584.464605754122
 20
3435.257579178886
 10
7614.464605754124
 20
3435.257579178886
 10
7614.464605754124
 20
3155.257579178886
1001
REVIT
1002
{
1070
     1
1000
22868125
1002
}
1002
{
1070
     2
1000
-2000051
1002
}
1002
{
1070
     3
1000
-2000042
1002
}
  0
LWPOLYLINE
  5
2BE
330
70
100
AcDbEntity
  8
A-COB-___-___-EXI
100
AcDbPolyline
 90
       23
 70
     0
 43
0.0
 10
16920.10607810601
 20
3155.257579178881
 10
16920.10607810601
 20
3435.257579178881
 10
16752.76405939612
 20
3435.257579178882
 10
16752.76405939612
 20
3155.257579178881
 10
16680.2886022336
 20
3155.257579178881
 10
16680.2886022336
 20
3101.397920752348
 10
16680.2886022336
 20
3155.257579178881
 10
16991.89186339267
 20
3155.257579178881
 10
16991.89186339267
 20
3101.397920752348
 10
16680.2886022336
 20
3101.397920752348
 10
16693.80663292692
 20
3101.397920752348
 10
16693.80663292692
 20
3056.537104266228
 10
16693.80663292692
 20
3101.397920752348
 10
16970.00513816691
 20
3101.397920752348
 10
16970.00513816691
 20
3056.537104266228
 10
16693.80663292692
 20
3056.537104266228
 10
16722.76405939612
 20
3056.537104266228
 10
16947.5197895807
 20
3056.537104266228
 10
16947.5197895807
 20
2999.03720256075
 10
16722.76405939612
 20
2999.03720256075
 10
16722.76405939612
 20
3056.537104266228
 10
16722.76405939612
 20
2999.03720256075
 10
16752.76405939612
 20
2999.03720256075
1001
REVIT
1002
{
1070
     1
1000
22868125
1002
}
1002
{
1070
     2
1000
-2000051
1002
}
1002
{
1070
     3
1000
-2000042
1002
}
  0
LWPOLYLINE
  5
2BF
330
70
100
AcDbEntity
  8
A-COB-___-___-EXI
100
AcDbPolyline
 90
       19
 70
     0
 43
0.0
 10
16920.10607810601
 20
2899.037202560769
 10
16920.10607810601
 20
2974.037202560823
 10
16924.46460575417
 20
2974.037202560823
 10
16924.46460575417
 20
2996.720621648159
 10
16924.46460575417
 20
2999.03720256075
 10
16947.5197895807
 20
2999.03720256075
 10
16947.5197895807
 20
3056.537104266228
 10
16970.00513816691
 20
3056.537104266228
 10
16970.00513816691
 20
3101.397920752348
 10
16991.89186339267
 20
3101.397920752348
 10
16991.89186339267
 20
3155.257579178881
 10
16920.10607810601
 20
3155.257579178881
 10
16920.10607810601
 20
3435.257579178881
 10
16947.5197895807
 20
3435.257579178881
 10
16947.5197895807
 20
3492.757480884359
 10
16947.5197895807
 20
3435.257579178881
 10
16722.76405939612
 20
3435.257579178881
 10
16752.76405939612
 20
3435.257579178881
 10
16752.76405939612
 20
3155.257579178881
1001
REVIT
1002
{
1070
     1
1000
22868125
1002
}
1002
{
1070
     2
1000
-2000051
1002
}
1002
{
1070
     3
1000
-2000042
1002
}
  0
LWPOLYLINE
  5
2C0
330
70
100
AcDbEntity
  8
A-COB-___-___-EXI
100
AcDbPolyline
 90
        3
 70
     0
 43
0.0
 10
7584.464605754177
 20
2999.037202560755
 10
7584.464605754177
 20
2974.037202560823
 10
7614.464605754121
 20
2974.037202560823
1001
REVIT
1002
{
1070
     1
1000
22836596
1002
}
1002
{
1070
     5
1000
4951952
1002
}
1002
{
1070
     2
1000
-2000035
1002
}
  0
LWPOLYLINE
  5
2C1
330
70
100
AcDbEntity
  8
A-COB-___-___-EXI
100
AcDbPolyline
 90
        4
 70
     0
 43
0.0
 10
7584.46460575417
 20
3591.477955797018
 10
7584.464605754154
 20
5318.281954846828
 10
16924.46460575415
 20
5318.281954846828
 10
16924.46460575417
 20
3591.477955797012
1001
REVIT
1002
{
1070
     1
1000
22836596
1002
}
1002
{
1070
     5
1000
4951952
1002
}
1002
{
1070
     2
1000
-2000035
1002
}
  0
LWPOLYLINE
  5
2C2
330
70
100
AcDbEntity
  8
A-COB-___-___-EXI
100
AcDbPolyline
 90
       16
 70
     1
 43
0.0
 10
12640.68809065172
 20
3537.618297370469
 10
12618.80136542596
 20
3537.618297370469
 10
12618.80136542596
 20
3492.757480884385
 10
12342.60286018596
 20
3492.75748088435
 10
12371.56028665516
 20
3492.75748088435
 10
12371.56028665516
 20
3435.257579178907
 10
12371.56028665516
 20
3492.757480884385
 10
12596.31601683974
 20
3492.757480884385
 10
12618.80136542596
 20
3492.75748088435
 10
12618.80136542596
 20
3537.618297370505
 10
12342.60286018596
 20
3537.618297370505
 10
12342.60286018596
 20
3492.75748088435
 10
12342.60286018596
 20
3537.618297370505
 10
12329.08482949265
 20
3537.618297370469
 10
12640.68809065172
 20
3537.618297370505
 10
12640.68809065172
 20
3591.477955797002
1001
REVIT
1002
{
1070
     1
1000
22868049
1002
}
1002
{
1070
     2
1000
-2000051
1002
}
1002
{
1070
     3
1000
-2000042
1002
}
  0
LWPOLYLINE
  5
2C3
330
70
100
AcDbEntity
  8
A-COB-___-___-EXI
100
AcDbPolyline
 90
        4
 70
     1
 43
0.0
 10
7853.592409750681
 20
3591.477955797066
 10
7853.592409750681
 20
3537.618297370533
 10
7541.989148591611
 20
3537.618297370533
 10
7541.989148591611
 20
3591.477955797066
1001
REVIT
1002
{
1070
     1
1000
22868000
1002
}
1002
{
1070
     2
1000
-2000051
1002
}
1002
{
1070
     3
1000
-2000042
1002
}
  0
LWPOLYLINE
  5
2C4
330
70
100
AcDbEntity
  8
A-COB-___-___-EXI
100
AcDbPolyline
 90
       16
 70
     1
 43
0.0
 10
16991.89186339267
 20
3537.618297370478
 10
16970.00513816692
 20
3537.618297370478
 10
16970.00513816692
 20
3492.757480884359
 10
16693.80663292692
 20
3492.757480884359
 10
16722.76405939612
 20
3492.757480884359
 10
16722.76405939612
 20
3435.257579178881
 10
16722.76405939612
 20
3492.757480884359
 10
16947.5197895807
 20
3492.757480884359
 10
16970.00513816692
 20
3492.757480884359
 10
16970.00513816692
 20
3537.618297370478
 10
16693.80663292692
 20
3537.618297370478
 10
16693.80663292692
 20
3492.757480884359
 10
16693.80663292692
 20
3537.618297370478
 10
16680.2886022336
 20
3537.618297370478
 10
16991.89186339267
 20
3537.618297370478
 10
16991.89186339267
 20
3591.477955797012
1001
REVIT
1002
{
1070
     1
1000
22868020
1002
}
1002
{
1070
     2
1000
-2000051
1002
}
1002
{
1070
     3
1000
-2000042
1002
}
  0
LWPOLYLINE
  5
2C5
330
70
100
AcDbEntity
  8
A-COB-___-___-EXI
100
AcDbPolyline
 90
       10
 70
     0
 43
0.0
 10
7786.16515211218
 20
2979.480407813311
 10
7786.16515211218
 20
2996.720621648165
 10
7786.16515211218
 20
2999.037202560755
 10
7809.220335938703
 20
2999.037202560755
 10
7809.220335938703
 20
3056.537104266233
 10
7831.705684524921
 20
3056.537104266233
 10
7831.705684524921
 20
3101.397920752353
 10
7853.592409750679
 20
3101.397920752353
 10
7853.592409750679
 20
3155.257579178886
 10
7781.806624464015
 20
3155.257579178886
1001
REVIT
1002
{
1070
     1
1000
22868125
1002
}
1002
{
1070
     2
1000
-2000051
1002
}
1002
{
1070
     3
1000
-2000042
1002
}
  0
LWPOLYLINE
  5
2C6
330
70
100
AcDbEntity
  8
A-COB-___-___-EXI
100
AcDbPolyline
 90
        4
 70
     1
 43
0.0
 10
12329.08482949265
 20
3591.477955797004
 10
12329.08482949265
 20
3537.618297370505
 10
12329.08482949265
 20
3591.477955797038
 10
12640.68809065172
 20
3591.477955797038
1001
REVIT
1002
{
1070
     1
1000
22868057
1002
}
1002
{
1070
     2
1000
-2000051
1002
}
1002
{
1070
     3
1000
-2000042
1002
}
  0
LWPOLYLINE
  5
2C7
330
70
100
AcDbEntity
  8
A-COB-___-___-EXI
100
AcDbPolyline
 90
        4
 70
     1
 43
0.0
 10
16680.2886022336
 20
3591.477955797013
 10
16680.2886022336
 20
3537.618297370478
 10
16680.2886022336
 20
3591.477955797012
 10
16991.89186339267
 20
3591.477955797012
1001
REVIT
1002
{
1070
     1
1000
22868028
1002
}
1002
{
1070
     2
1000
-2000051
1002
}
1002
{
1070
     3
1000
-2000042
1002
}
  0
VIEWPORT
  5
25C
330
6C
100
AcDbEntity
 67
     1
  8
A-COB-___-___-EXI
100
AcDbViewport
 10
172.7733792206588
 20
210.334492350473
 30
0.0
 40
112.4808654445723
 41
59.7133460708391
 68
     2
 69
     2
 12
12211.80723162587
 22
2332.614651304874
 13
0.0
 23
0.0
 14
0.0
 24
0.0
 15
0.0
 25
0.0
 16
0.0
 26
0.0
 36
1.0
 17
0.0
 27
0.0
 37
0.0
 42
0.0
 43
0.0
 44
0.0
 45
5971.33460708391
 50
0.0
 51
0.0
 72
  1000
 90
    32768
  1

281
     0
 71
     1
 74
     1
110
0.0
120
0.0
130
0.0
111
1.0
121
0.0
131
0.0
112
0.0
122
1.0
132
0.0
 79
     0
146
0.0
170
     0
 61
     5
292
     1
282
     1
141
0.0
142
0.0
 63
   250
421
  3355443
  0
VIEWPORT
  5
25E
330
6C
100
AcDbEntity
 67
     1
  8
0
100
AcDbViewport
 10
13.18725099601594
 20
4.5
 30
0.0
 40
30.38307682135374
 41
12.00338764243408
 68
     1
 69
     1
 12
13.18725099601594
 22
4.5
 13
0.0
 23
0.0
 14
0.0
 24
0.0
 15
0.0
 25
0.0
 16
0.0
 26
0.0
 36
1.0
 17
0.0
 27
0.0
 37
0.0
 42
50.0
 43
0.0
 44
0.0
 45
12.00338764243408
 50
0.0
 51
0.0
 72
   100
 90
    32800
  1

281
     0
 71
     1
 74
     1
110
0.0
120
0.0
130
0.0
111
1.0
121
0.0
131
0.0
112
0.0
122
1.0
132
0.0
 79
     0
146
0.0
170
     0
 61
     5
348
2F
292
     1
282
     1
141
0.0
142
0.0
 63
   250
421
  3355443
  0
INSERT
  5
26A
330
6C
100
AcDbEntity
 67
     1
  8
A-JAN-___-___-EXI
100
AcDbBlockReference
  2
A4 HORIZONTAL - A4-22872381-Não nomeada
 10
0.0
 20
0.0
 30
0.0
1001
REVIT
1002
{
1070
     1
1000
22870998
1002
}
1002
{
1070
     5
1000
22872381
1002
}
1002
{
1070
     2
1000
-2000280
1002
}
  0
ENDSEC
  0
SECTION
  2
OBJECTS
  0
DICTIONARY
  5
C
330
0
100
AcDbDictionary
281
     1
  3
ACAD_CIP_PREVIOUS_PRODUCT_INFO
350
79
  3
ACAD_COLOR
350
63
  3
ACAD_DETAILVIEWSTYLE
350
6A
  3
ACAD_GROUP
350
D
  3
ACAD_IMAGE_VARS
350
7A
  3
ACAD_LAYOUT
350
62
  3
ACAD_MATERIAL
350
10
  3
ACAD_MLEADERSTYLE
350
66
  3
ACAD_MLINESTYLE
350
5F
  3
ACAD_PLOTSETTINGS
350
61
  3
ACAD_PLOTSTYLENAME
350
E
  3
ACAD_RENDER_ACTIVE_RAPIDRT_SETTINGS
350
28A
  3
ACAD_RENDER_RAPIDRT_SETTINGS
350
283
  3
ACAD_SCALELIST
350
42
  3
ACAD_SECTIONVIEWSTYLE
350
68
  3
ACAD_TABLESTYLE
350
64
  3
ACAD_VISUALSTYLE
350
29
  3
ACDB_RECOMPOSE_DATA
350
2EB
  3
AcDbVariableDictionary
350
273
  3
REVIT_DICTIONARY
350
26B
  0
SUN
  5
272
330
57
100
AcDbSun
 90
        1
290
     1
 63
     7
421
 16777215
 40
0.3
291
     1
 91
  2460364
 92
 49626000
292
     0
 70
     1
 71
   128
280
     1
  0
DICTIONARY
  5
28F
330
2
100
AcDbDictionary
280
     1
281
     1
  3
ACAD_LAYERSTATES
360
290
  0
DICTIONARY
  5
270
330
70
100
AcDbDictionary
280
     1
281
     1
  3
ACAD_SORTENTS
360
271
  0
XRECORD
  5
79
102
{ACAD_REACTORS
330
C
102
}
330
C
100
AcDbXrecord
280
     1
300
ACD
300
2022
300

  0
DICTIONARY
  5
63
102
{ACAD_REACTORS
330
C
102
}
330
C
100
AcDbDictionary
281
     1
  0
DICTIONARY
  5
6A
102
{ACAD_REACTORS
330
C
102
}
330
C
100
AcDbDictionary
281
     1
  3
Imperial24
350
6B
  3
Metric50
350
27B
  0
DICTIONARY
  5
D
102
{ACAD_REACTORS
330
C
102
}
330
C
100
AcDbDictionary
281
     1
  0
RASTERVARIABLES
  5
7A
102
{ACAD_REACTORS
330
C
102
}
330
C
100
AcDbRasterVariables
 90
        0
 70
     0
 71
     1
 72
     1
  0
DICTIONARY
  5
62
102
{ACAD_REACTORS
330
C
102
}
330
C
100
AcDbDictionary
281
     1
  3
Layout1
350
6F
  3
Model
350
73
  0
DICTIONARY
  5
10
102
{ACAD_REACTORS
330
C
102
}
330
C
100
AcDbDictionary
281
     1
  3
ByBlock
350
19
  3
ByLayer
350
11
  3
Global
350
21
  0
DICTIONARY
  5
66
102
{ACAD_REACTORS
330
C
102
}
330
C
100
AcDbDictionary
281
     1
  3
Standard
350
67
  0
DICTIONARY
  5
5F
102
{ACAD_REACTORS
330
C
102
}
330
C
100
AcDbDictionary
281
     1
  3
Standard
350
60
  0
DICTIONARY
  5
61
102
{ACAD_REACTORS
330
C
102
}
330
C
100
AcDbDictionary
281
     1
  0
ACDBDICTIONARYWDFLT
  5
E
102
{ACAD_REACTORS
330
C
102
}
330
C
100
AcDbDictionary
281
     1
  3
Normal
350
F
100
AcDbDictionaryWithDefault
340
F
  0
RAPIDRTRENDERSETTINGS
  5
28A
102
{ACAD_REACTORS
330
C
102
}
330
C
100
AcDbRenderSettings
 90
        2
  1
Médio
290
     1
290
     0
290
     1
290
     1
  1

  1
Aplica 5 níveis de renderização
 90
        0
100
AcDbRapidRTRenderSettings
 90
        3
 70
     0
 90
        5
 90
        1
 70
     1
 70
     2
 40
3.0
 40
3.0
290
     1
  0
DICTIONARY
  5
283
102
{ACAD_REACTORS
330
C
102
}
330
C
100
AcDbDictionary
281
     1
  3
Alto
350
286
  3
Baixo
350
284
  3
Médio
350
285
  3
Qualidade de curta duração
350
287
  3
Qualidade de longa duração
350
289
  3
Qualidade de média duração
350
288
  0
DICTIONARY
  5
42
102
{ACAD_REACTORS
330
C
102
}
330
C
100
AcDbDictionary
281
     1
  3
A0
350
43
  3
A1
350
44
  3
A2
350
45
  3
A3
350
46
  3
A4
350
47
  3
A5
350
48
  3
A6
350
49
  3
A7
350
4A
  3
A8
350
4B
  3
A9
350
4C
  3
B0
350
4D
  3
B1
350
4E
  3
B2
350
4F
  3
B3
350
50
  3
B4
350
51
  3
B5
350
52
  3
B6
350
53
  0
DICTIONARY
  5
68
102
{ACAD_REACTORS
330
C
102
}
330
C
100
AcDbDictionary
281
     1
  3
Imperial24
350
69
  3
Metric50
350
27A
  0
DICTIONARY
  5
64
102
{ACAD_REACTORS
330
C
102
}
330
C
100
AcDbDictionary
281
     1
  3
Standard
350
65
  0
DICTIONARY
  5
29
102
{ACAD_REACTORS
330
C
102
}
330
C
100
AcDbDictionary
281
     1
  3
2dWireframe
350
2F
  3
Basic
350
2E
  3
Brighten
350
35
  3
ColorChange
350
39
  3
Conceptual
350
32
  3
Dim
350
34
  3
EdgeColorOff
350
41
  3
Facepattern
350
38
  3
Flat
350
2A
  3
FlatWithEdges
350
2B
  3
Gouraud
350
2C
  3
GouraudWithEdges
350
2D
  3
Hidden
350
31
  3
JitterOff
350
3F
  3
Linepattern
350
37
  3
OverhangOff
350
40
  3
Realistic
350
33
  3
Shaded
350
3E
  3
Shaded with edges
350
3D
  3
Shades of Gray
350
3A
  3
Sketchy
350
3B
  3
Thicken
350
36
  3
Wireframe
350
30
  3
X-Ray
350
3C
  0
XRECORD
  5
2EB
102
{ACAD_REACTORS
330
C
102
}
330
C
100
AcDbXrecord
280
     1
 90
        1
330
65
  0
DICTIONARY
  5
273
102
{ACAD_REACTORS
330
C
102
}
330
C
100
AcDbDictionary
281
     1
  3
CANNOSCALE
350
278
  3
CMLEADERSTYLE
350
275
  3
CTABLESTYLE
350
274
  3
CVIEWDETAILSTYLE
350
276
  3
CVIEWSECTIONSTYLE
350
277
  0
DICTIONARY
  5
26B
102
{ACAD_REACTORS
330
C
102
}
330
C
100
AcDbDictionary
281
     1
  3
DRAWING_TOOL
350
26F
  3
REVIT_CATEGORY_MAPPING
350
26D
  3
REVIT_SUB_CATEGORY_MAPPING
350
26E
  3
REVIT_TYPE_MAPPING
350
26C
  0
DICTIONARY
  5
290
102
{ACAD_REACTORS
330
28F
102
}
330
28F
100
AcDbDictionary
281
     1
  0
SORTENTSTABLE
  5
271
102
{ACAD_REACTORS
330
270
102
}
330
270
100
AcDbSortentsTable
330
70
  0
ACDBDETAILVIEWSTYLE
  5
6B
102
{ACAD_REACTORS
330
6A
102
}
330
6A
100
AcDbModelDocViewStyle
 70
     0
  3
Imperial24
290
     1
300
Imperial24
 90
        0
100
AcDbDetailViewStyle
 70
     0
 71
     0
 90
        3
 71
     1
340
55
 62
   256
 40
0.24
340
0
 62
   256
 40
0.24
300

 40
0.36
280
     3
 71
     2
340
5D
 90
       25
 62
   256
 71
     3
340
55
 62
   256
 40
0.24
 90
        1
 40
0.75
 90
        1
300
%<\AcVar ViewType \f "%tc1">% %<\AcVar ViewDetailId>%\PSCALE %<\AcVar ViewScale \f "%sn">%
 71
     4
340
5D
 90
       25
 62
   256
340
5D
 90
       25
 62
   256
280
     0
  0
ACDBDETAILVIEWSTYLE
  5
27B
102
{ACAD_REACTORS
330
6A
102
}
330
6A
100
AcDbModelDocViewStyle
 70
     0
  3
Metric50
290
     1
300
Metric50
 90
        0
100
AcDbDetailViewStyle
 70
     0
 71
     0
 90
        3
 71
     1
340
55
 62
   256
 40
5.0
340
0
 62
   256
 40
5.0
300

 40
0.0
280
     1
 71
     2
340
5D
 90
       25
 62
   256
 71
     3
340
55
 62
   256
 40
5.0
 90
        0
 40
15.0
 90
        1
300
%<\AcVar ViewDetailId>% (%<\AcVar ViewScale \f "%sn">%)
 71
     4
340
5D
 90
       25
 62
   256
340
5D
 90
       25
 62
   256
280
     0
  0
LAYOUT
  5
6F
102
{ACAD_REACTORS
330
62
102
}
330
62
100
AcDbPlotSettings
  1

  2
PDF24
  4
A4
  6

 40
0.0
 41
0.0
 42
0.1113433837890625
 43
0.0
 44
210.0
 45
297.0
 46
0.0
 47
0.0
 48
0.0
 49
0.0
140
0.0
141
0.0
142
1.0
143
1.000647896891756
 70
   688
 72
     1
 73
     1
 74
     1
  7

 75
     0
147
0.9993525226068337
 76
     0
 77
     2
 78
   300
148
-20.76884200533789
149
-102.9849099062627
100
AcDbLayout
  1
Layout1
 70
     0
 71
     1
 10
20.76884200533789
 20
102.9849099062627
 11
317.9612673821897
 21
313.1209682535316
 12
0.0
 22
0.0
 32
0.0
 14
20.76884200533789
 24
102.9849099062627
 34
-0.0015258207003583
 15
317.8025497169167
 25
313.0095527307103
 35
0.0000000349246037
146
0.0
 13
0.0
 23
0.0
 33
0.0
 16
1.0
 26
0.0
 36
0.0
 17
0.0
 27
1.0
 37
0.0
 76
     0
330
6C
331
25E
1001
ACAD_PSEXT
1000
PDF24
1000
PDF24
1000
\\.\pipe\PDFPrint
1000
PDF24 Printer
1070
     0
  0
LAYOUT
  5
73
102
{ACAD_REACTORS
330
62
102
}
330
62
100
AcDbPlotSettings
  1

  2

  4

  6

 40
0.0
 41
0.0
 42
0.0
 43
0.0
 44
0.0
 45
0.0
 46
0.0
 47
0.0
 48
0.0
 49
0.0
140
0.0
141
0.0
142
1.0
143
1.0
 70
  1712
 72
     0
 73
     0
 74
     0
  7

 75
     0
147
1.0
 76
     0
 77
     2
 78
   300
148
0.0
149
0.0
100
AcDbLayout
  1
Model
 70
     1
 71
     0
 10
0.0
 20
0.0
 11
12.0
 21
9.0
 12
0.0
 22
0.0
 32
0.0
 14
0.0
 24
0.0
 34
0.0
 15
0.0
 25
0.0
 35
0.0
146
0.0
 13
0.0
 23
0.0
 33
0.0
 16
1.0
 26
0.0
 36
0.0
 17
0.0
 27
1.0
 37
0.0
 76
     0
330
70
331
57
  0
MATERIAL
  5
19
102
{ACAD_XDICTIONARY
360
1A
102
}
102
{ACAD_REACTORS
330
10
102
}
330
10
100
AcDbMaterial
  1
ByBlock
 72
     0
 43
0.0208333333333333
 43
0.0
 43
0.0
 43
0.0
 43
0.0
 43
0.0208333333333333
 43
0.0
 43
0.0
 43
0.0
 43
0.0
 43
1.0
 43
0.0
 43
0.0
 43
0.0
 43
0.0
 43
1.0
 77
     0
 47
0.0208333333333333
 47
0.0
 47
0.0
 47
0.0
 47
0.0
 47
0.0208333333333333
 47
0.0
 47
0.0
 47
0.0
 47
0.0
 47
1.0
 47
0.0
 47
0.0
 47
0.0
 47
0.0
 47
1.0
171
     0
 49
0.0208333333333333
 49
0.0
 49
0.0
 49
0.0
 49
0.0
 49
0.0208333333333333
 49
0.0
 49
0.0
 49
0.0
 49
0.0
 49
1.0
 49
0.0
 49
0.0
 49
0.0
 49
0.0
 49
1.0
175
     0
142
0.0208333333333333
142
0.0
142
0.0
142
0.0
142
0.0
142
0.0208333333333333
142
0.0
142
0.0
142
0.0
142
0.0
142
1.0
142
0.0
142
0.0
142
0.0
142
0.0
142
1.0
179
     0
144
0.0208333333333333
144
0.0
144
0.0
144
0.0
144
0.0
144
0.0208333333333333
144
0.0
144
0.0
144
0.0
144
0.0
144
1.0
144
0.0
144
0.0
144
0.0
144
0.0
144
1.0
147
0.0208333333333333
147
0.0
147
0.0
147
0.0
147
0.0
147
0.0208333333333333
147
0.0
147
0.0
147
0.0
147
0.0
147
1.0
147
0.0
147
0.0
147
0.0
147
0.0
147
1.0
  0
MATERIAL
  5
11
102
{ACAD_XDICTIONARY
360
12
102
}
102
{ACAD_REACTORS
330
10
102
}
330
10
100
AcDbMaterial
  1
ByLayer
 72
     0
 43
0.0208333333333333
 43
0.0
 43
0.0
 43
0.0
 43
0.0
 43
0.0208333333333333
 43
0.0
 43
0.0
 43
0.0
 43
0.0
 43
1.0
 43
0.0
 43
0.0
 43
0.0
 43
0.0
 43
1.0
 77
     0
 47
0.0208333333333333
 47
0.0
 47
0.0
 47
0.0
 47
0.0
 47
0.0208333333333333
 47
0.0
 47
0.0
 47
0.0
 47
0.0
 47
1.0
 47
0.0
 47
0.0
 47
0.0
 47
0.0
 47
1.0
171
     0
 49
0.0208333333333333
 49
0.0
 49
0.0
 49
0.0
 49
0.0
 49
0.0208333333333333
 49
0.0
 49
0.0
 49
0.0
 49
0.0
 49
1.0
 49
0.0
 49
0.0
 49
0.0
 49
0.0
 49
1.0
175
     0
142
0.0208333333333333
142
0.0
142
0.0
142
0.0
142
0.0
142
0.0208333333333333
142
0.0
142
0.0
142
0.0
142
0.0
142
1.0
142
0.0
142
0.0
142
0.0
142
0.0
142
1.0
179
     0
144
0.0208333333333333
144
0.0
144
0.0
144
0.0
144
0.0
144
0.0208333333333333
144
0.0
144
0.0
144
0.0
144
0.0
144
1.0
144
0.0
144
0.0
144
0.0
144
0.0
144
1.0
147
0.0208333333333333
147
0.0
147
0.0
147
0.0
147
0.0
147
0.0208333333333333
147
0.0
147
0.0
147
0.0
147
0.0
147
1.0
147
0.0
147
0.0
147
0.0
147
0.0
147
1.0
  0
MATERIAL
  5
21
102
{ACAD_XDICTIONARY
360
22
102
}
102
{ACAD_REACTORS
330
10
102
}
330
10
100
AcDbMaterial
  1
Global
 72
     0
 43
0.0208333333333333
 43
0.0
 43
0.0
 43
0.0
 43
0.0
 43
0.0208333333333333
 43
0.0
 43
0.0
 43
0.0
 43
0.0
 43
1.0
 43
0.0
 43
0.0
 43
0.0
 43
0.0
 43
1.0
 77
     0
 47
0.0208333333333333
 47
0.0
 47
0.0
 47
0.0
 47
0.0
 47
0.0208333333333333
 47
0.0
 47
0.0
 47
0.0
 47
0.0
 47
1.0
 47
0.0
 47
0.0
 47
0.0
 47
0.0
 47
1.0
171
     0
 49
0.0208333333333333
 49
0.0
 49
0.0
 49
0.0
 49
0.0
 49
0.0208333333333333
 49
0.0
 49
0.0
 49
0.0
 49
0.0
 49
1.0
 49
0.0
 49
0.0
 49
0.0
 49
0.0
 49
1.0
175
     0
142
0.0208333333333333
142
0.0
142
0.0
142
0.0
142
0.0
142
0.0208333333333333
142
0.0
142
0.0
142
0.0
142
0.0
142
1.0
142
0.0
142
0.0
142
0.0
142
0.0
142
1.0
179
     0
144
0.0208333333333333
144
0.0
144
0.0
144
0.0
144
0.0
144
0.0208333333333333
144
0.0
144
0.0
144
0.0
144
0.0
144
1.0
144
0.0
144
0.0
144
0.0
144
0.0
144
1.0
147
0.0208333333333333
147
0.0
147
0.0
147
0.0
147
0.0
147
0.0208333333333333
147
0.0
147
0.0
147
0.0
147
0.0
147
1.0
147
0.0
147
0.0
147
0.0
147
0.0
147
1.0
  0
MLEADERSTYLE
  5
67
102
{ACAD_REACTORS
330
66
102
}
330
66
100
AcDbMLeaderStyle
179
     2
170
     2
171
     1
172
     0
 90
        2
 40
0.0
 41
0.0
173
     1
 91
-1056964608
340
5B
 92
       -2
290
     1
 42
0.09
291
     1
 43
0.36
  3
Standard
 44
0.18
300

342
55
174
     1
178
     6
175
     1
176
     0
 93
-1056964608
 45
0.18
292
     0
297
     0
 46
0.18
 94
-1056964608
 47
1.0
 49
1.0
140
1.0
293
     1
141
0.0
294
     1
177
     0
142
1.0
295
     1
296
     0
143
0.125
271
     0
272
     9
273
     9
298
     1
  0
MLINESTYLE
  5
60
102
{ACAD_REACTORS
330
5F
102
}
330
5F
100
AcDbMlineStyle
  2
STANDARD
 70
     0
  3

 62
   256
 51
90.0
 52
90.0
 71
     2
 49
0.5
 62
   256
  6
BYLAYER
 49
-0.5
 62
   256
  6
BYLAYER
  0
ACDBPLACEHOLDER
  5
F
102
{ACAD_REACTORS
330
E
102
}
330
E
  0
RAPIDRTRENDERSETTINGS
  5
286
102
{ACAD_REACTORS
330
283
102
}
330
283
100
AcDbRenderSettings
 90
        2
  1
Alto
290
     1
290
     0
290
     1
290
     1
  1

  1
Aplica 10 níveis de renderização
 90
        2
100
AcDbRapidRTRenderSettings
 90
        3
 70
     0
 90
       10
 90
        1
 70
     2
 70
     2
 40
3.0
 40
3.0
290
     1
  0
RAPIDRTRENDERSETTINGS
  5
284
102
{ACAD_REACTORS
330
283
102
}
330
283
100
AcDbRenderSettings
 90
        2
  1
Baixo
290
     1
290
     0
290
     1
290
     1
  1

  1
Aplica 1 nível de renderização
 90
        0
100
AcDbRapidRTRenderSettings
 90
        3
 70
     0
 90
        1
 90
        1
 70
     0
 70
     2
 40
3.0
 40
3.0
290
     1
  0
RAPIDRTRENDERSETTINGS
  5
285
102
{ACAD_REACTORS
330
283
102
}
330
283
100
AcDbRenderSettings
 90
        2
  1
Médio
290
     1
290
     0
290
     1
290
     1
  1

  1
Aplica 5 níveis de renderização
 90
        1
100
AcDbRapidRTRenderSettings
 90
        3
 70
     0
 90
        5
 90
        1
 70
     1
 70
     2
 40
3.0
 40
3.0
290
     1
  0
RAPIDRTRENDERSETTINGS
  5
287
102
{ACAD_REACTORS
330
283
102
}
330
283
100
AcDbRenderSettings
 90
        2
  1
Qualidade de curta duração
290
     1
290
     0
290
     1
290
     1
  1

  1
Renderiza por 10 minutos
 90
        3
100
AcDbRapidRTRenderSettings
 90
        3
 70
     1
 90
        1
 90
       10
 70
     1
 70
     2
 40
3.0
 40
3.0
290
     1
  0
RAPIDRTRENDERSETTINGS
  5
289
102
{ACAD_REACTORS
330
283
102
}
330
283
100
AcDbRenderSettings
 90
        2
  1
Qualidade de longa duração
290
     1
290
     0
290
     1
290
     1
  1

  1
Renderiza por 12 horas
 90
        5
100
AcDbRapidRTRenderSettings
 90
        3
 70
     1
 90
        1
 90
      720
 70
     2
 70
     2
 40
3.0
 40
3.0
290
     1
  0
RAPIDRTRENDERSETTINGS
  5
288
102
{ACAD_REACTORS
330
283
102
}
330
283
100
AcDbRenderSettings
 90
        2
  1
Qualidade de média duração
290
     1
290
     0
290
     1
290
     1
  1

  1
Renderiza por 60 minutos
 90
        4
100
AcDbRapidRTRenderSettings
 90
        3
 70
     1
 90
        1
 90
       60
 70
     2
 70
     2
 40
3.0
 40
3.0
290
     1
  0
SCALE
  5
43
102
{ACAD_REACTORS
330
42
102
}
330
42
100
AcDbScale
 70
     0
300
1:1
140
1.0
141
1.0
290
     1
  0
SCALE
  5
44
102
{ACAD_REACTORS
330
42
102
}
330
42
100
AcDbScale
 70
     0
300
1/128" = 1'-0"
140
0.0078125
141
12.0
290
     0
  0
SCALE
  5
45
102
{ACAD_REACTORS
330
42
102
}
330
42
100
AcDbScale
 70
     0
300
1/64" = 1'-0"
140
0.015625
141
12.0
290
     0
  0
SCALE
  5
46
102
{ACAD_REACTORS
330
42
102
}
330
42
100
AcDbScale
 70
     0
300
1/32" = 1'-0"
140
0.03125
141
12.0
290
     0
  0
SCALE
  5
47
102
{ACAD_REACTORS
330
42
102
}
330
42
100
AcDbScale
 70
     0
300
1/16" = 1'-0"
140
0.0625
141
12.0
290
     0
  0
SCALE
  5
48
102
{ACAD_REACTORS
330
42
102
}
330
42
100
AcDbScale
 70
     0
300
3/32" = 1'-0"
140
0.09375
141
12.0
290
     0
  0
SCALE
  5
49
102
{ACAD_REACTORS
330
42
102
}
330
42
100
AcDbScale
 70
     0
300
1/8" = 1'-0"
140
0.125
141
12.0
290
     0
  0
SCALE
  5
4A
102
{ACAD_REACTORS
330
42
102
}
330
42
100
AcDbScale
 70
     0
300
3/16" = 1'-0"
140
0.1875
141
12.0
290
     0
  0
SCALE
  5
4B
102
{ACAD_REACTORS
330
42
102
}
330
42
100
AcDbScale
 70
     0
300
1/4" = 1'-0"
140
0.25
141
12.0
290
     0
  0
SCALE
  5
4C
102
{ACAD_REACTORS
330
42
102
}
330
42
100
AcDbScale
 70
     0
300
3/8" = 1'-0"
140
0.375
141
12.0
290
     0
  0
SCALE
  5
4D
102
{ACAD_REACTORS
330
42
102
}
330
42
100
AcDbScale
 70
     0
300
1/2" = 1'-0"
140
0.5
141
12.0
290
     0
  0
SCALE
  5
4E
102
{ACAD_REACTORS
330
42
102
}
330
42
100
AcDbScale
 70
     0
300
3/4" = 1'-0"
140
0.75
141
12.0
290
     0
  0
SCALE
  5
4F
102
{ACAD_REACTORS
330
42
102
}
330
42
100
AcDbScale
 70
     0
300
1" = 1'-0"
140
1.0
141
12.0
290
     0
  0
SCALE
  5
50
102
{ACAD_REACTORS
330
42
102
}
330
42
100
AcDbScale
 70
     0
300
1-1/2" = 1'-0"
140
1.5
141
12.0
290
     0
  0
SCALE
  5
51
102
{ACAD_REACTORS
330
42
102
}
330
42
100
AcDbScale
 70
     0
300
3" = 1'-0"
140
3.0
141
12.0
290
     0
  0
SCALE
  5
52
102
{ACAD_REACTORS
330
42
102
}
330
42
100
AcDbScale
 70
     0
300
6" = 1'-0"
140
6.0
141
12.0
290
     0
  0
SCALE
  5
53
102
{ACAD_REACTORS
330
42
102
}
330
42
100
AcDbScale
 70
     0
300
1'-0" = 1'-0"
140
12.0
141
12.0
290
     0
  0
ACDBSECTIONVIEWSTYLE
  5
69
102
{ACAD_REACTORS
330
68
102
}
330
68
100
AcDbModelDocViewStyle
 70
     0
  3
Imperial24
290
     1
300
Imperial24
 90
        0
100
AcDbSectionViewStyle
 70
     0
 71
     0
 90
       78
 71
     1
340
55
 62
   256
 40
0.24
340
0
340
0
 62
   256
 40
0.24
300
I, O, Q, S, X, Z
 40
0.48
 90
        3
 40
0.18
 90
        1
 71
     2
340
5D
 90
       25
 62
   256
340
5D
 90
       50
 62
   256
 40
0.24
 40
0.0
 40
0.24
 71
     3
340
55
 62
   256
 40
0.24
 90
        1
 40
0.75
 90
        1
300
%<\AcVar ViewType \f "%tc1">% %<\AcVar ViewSectionStartId>%-%<\AcVar ViewSectionEndId>%\PSCALE %<\AcVar ViewScale \f "%sn">%
 71
     4
 62
   256
 62
   257
300
ANSI31
 40
1.0
 90
        0
290
     0
290
     0
 90
        6
 40
0.0
 40
1.570796326794896
 40
0.2617993877991494
 40
1.308996938995747
 40
-0.2617993877991494
 40
1.832595714594046
  0
ACDBSECTIONVIEWSTYLE
  5
27A
102
{ACAD_REACTORS
330
68
102
}
330
68
100
AcDbModelDocViewStyle
 70
     0
  3
Metric50
290
     1
300
Metric50
 90
        0
100
AcDbSectionViewStyle
 70
     0
 71
     0
 90
      102
 71
     1
340
55
 62
   256
 40
5.0
340
0
340
0
 62
   256
 40
5.0
300
I, O, Q, S, X, Z
 40
10.0
 90
        0
 40
2.5
 90
        0
 71
     2
340
5D
 90
       25
 62
   256
340
5D
 90
       50
 62
   256
 40
5.0
 40
2.5
 40
5.0
 71
     3
340
55
 62
   256
 40
5.0
 90
        0
 40
15.0
 90
        1
300
%<\AcVar ViewSectionStartId>%-%<\AcVar ViewSectionEndId>% (%<\AcVar ViewScale \f "%sn">%)
 71
     4
 62
   256
 62
   257
300
ANSI31
 40
1.0
 90
        0
290
     0
290
     0
 90
        6
 40
0.0
 40
1.570796326794896
 40
0.2617993877991494
 40
1.308996938995747
 40
-0.2617993877991494
 40
1.832595714594046
  0
TABLESTYLE
  5
65
102
{ACAD_XDICTIONARY
360
2E9
102
}
102
{ACAD_REACTORS
330
64
102
}
330
64
100
AcDbTableStyle
280
     0
  3
Standard
 70
     0
 71
     0
 40
0.06
 41
0.06
280
     0
281
     0
  7
Standard
140
0.18
170
     2
 62
     0
 63
     7
283
     0
 90
      512
 91
        0
  1

274
    -2
284
     1
 64
     0
275
    -2
285
     1
 65
     0
276
    -2
286
     1
 66
     0
277
    -2
287
     1
 67
     0
278
    -2
288
     1
 68
     0
279
    -2
289
     1
 69
     0
  7
Standard
140
0.25
170
     5
 62
     0
 63
     7
283
     0
 90
      512
 91
        0
  1

274
    -2
284
     1
 64
     0
275
    -2
285
     1
 65
     0
276
    -2
286
     1
 66
     0
277
    -2
287
     1
 67
     0
278
    -2
288
     1
 68
     0
279
    -2
289
     1
 69
     0
  7
Standard
140
0.18
170
     5
 62
     0
 63
     7
283
     0
 90
      512
 91
        0
  1

274
    -2
284
     1
 64
     0
275
    -2
285
     1
 65
     0
276
    -2
286
     1
 66
     0
277
    -2
287
     1
 67
     0
278
    -2
288
     1
 68
     0
279
    -2
289
     1
 69
     0
  0
VISUALSTYLE
  5
2F
102
{ACAD_REACTORS
330
29
102
}
330
29
100
AcDbVisualStyle
  2
2dWireframe
 70
     4
177
     3
291
     0
 70
    58
 90
        0
176
     1
 90
        2
176
     1
 90
        0
176
     1
 90
        0
176
     1
 40
0.6
176
     1
 40
30.0
176
     1
 62
     7
420
 16777215
176
     1
 90
        1
176
     1
 90
        4
176
     1
 62
     7
176
     1
 62
   257
176
     1
 90
        1
176
     1
 90
        1
176
     1
 40
1.0
176
     1
 90
        0
176
     1
 62
   257
176
     1
 40
1.0
176
     1
 90
        1
176
     1
 90
        6
176
     1
 90
        2
176
     1
 62
     7
176
     1
 90
        5
176
     1
 90
        0
176
     1
 90
        0
176
     1
290
     0
176
     1
 90
        1
176
     1
 40
0.0
176
     1
 90
        0
176
     1
290
     1
176
     1
290
     1
176
     1
290
     0
176
     1
290
     0
176
     1
290
     0
176
     1
290
     0
176
     1
290
     0
176
     1
290
     0
176
     1
290
     0
176
     1
 90
       50
176
     1
 40
0.0
176
     1
 40
1.0
176
     1
 90
        0
176
     1
 62
    18
420
        0
176
     1
 90
       50
176
     1
 90
        3
176
     1
 62
     5
420
      255
176
     1
290
     0
176
     1
 90
       50
176
     1
 90
       50
176
     1
 90
       50
176
     1
290
     0
176
     1
 90
       50
176
     1
 62
   256
176
     0
 40
1.0
176
     0
 90
        2
176
     1
  1
strokes_ogs.tif
176
     1
290
     0
176
     1
 40
1.0
176
     1
 40
1.0
176
     1
  0
VISUALSTYLE
  5
2E
102
{ACAD_REACTORS
330
29
102
}
330
29
100
AcDbVisualStyle
  2
Basic
 70
     7
177
     3
291
     1
 70
    58
 90
        1
176
     1
 90
        0
176
     1
 90
        1
176
     1
 90
        0
176
     1
 40
0.6
176
     1
 40
30.0
176
     1
 62
     7
420
 16777215
176
     1
 90
        0
176
     1
 90
        4
176
     1
 62
     7
176
     1
 62
   257
176
     1
 90
        1
176
     1
 90
        1
176
     1
 40
1.0
176
     1
 90
        8
176
     1
 62
     7
176
     1
 40
1.0
176
     1
 90
        1
176
     1
 90
        6
176
     1
 90
        2
176
     1
 62
     7
176
     1
 90
        5
176
     1
 90
        0
176
     1
 90
        0
176
     1
290
     0
176
     1
 90
        1
176
     1
 40
0.0
176
     1
 90
        0
176
     1
290
     0
176
     1
290
     1
176
     1
290
     1
176
     1
290
     0
176
     1
290
     0
176
     1
290
     0
176
     1
290
     0
176
     1
290
     0
176
     1
290
     0
176
     1
 90
       50
176
     1
 40
0.0
176
     1
 40
1.0
176
     1
 90
        0
176
     1
 62
    18
420
        0
176
     1
 90
       50
176
     1
 90
        3
176
     1
 62
     5
420
      255
176
     1
290
     0
176
     1
 90
       50
176
     1
 90
       50
176
     1
 90
       50
176
     1
290
     0
176
     1
 90
       50
176
     1
 62
   256
176
     0
 40
1.0
176
     0
 90
        2
176
     1
  1
strokes_ogs.tif
176
     1
290
     0
176
     1
 40
1.0
176
     1
 40
1.0
176
     1
  0
VISUALSTYLE
  5
35
102
{ACAD_REACTORS
330
29
102
}
330
29
100
AcDbVisualStyle
  2
Brighten
 70
    12
177
     3
291
     1
 70
    58
 90
        2
176
     1
 90
        2
176
     1
 90
        0
176
     1
 90
        0
176
     1
 40
0.6
176
     1
 40
30.0
176
     1
 62
     7
420
 16777215
176
     1
 90
        1
176
     1
 90
        4
176
     1
 62
     7
176
     1
 62
   257
176
     1
 90
        1
176
     1
 90
        1
176
     1
 40
1.0
176
     1
 90
        8
176
     1
 62
     7
176
     1
 40
1.0
176
     1
 90
        1
176
     1
 90
        6
176
     1
 90
        2
176
     1
 62
     7
176
     1
 90
        5
176
     1
 90
        0
176
     1
 90
        0
176
     1
290
     0
176
     1
 90
        1
176
     1
 40
50.0
176
     1
 90
        0
176
     1
290
     0
176
     1
290
     1
176
     1
290
     1
176
     1
290
     0
176
     1
290
     0
176
     1
290
     0
176
     1
290
     0
176
     1
290
     0
176
     1
290
     0
176
     1
 90
       50
176
     1
 40
0.0
176
     1
 40
1.0
176
     1
 90
        0
176
     1
 62
    18
420
        0
176
     1
 90
       50
176
     1
 90
        3
176
     1
 62
     5
420
      255
176
     1
290
     0
176
     1
 90
       50
176
     1
 90
       50
176
     1
 90
       50
176
     1
290
     0
176
     1
 90
       50
176
     1
 62
   256
176
     0
 40
1.0
176
     0
 90
        2
176
     1
  1
strokes_ogs.tif
176
     1
290
     0
176
     1
 40
1.0
176
     1
 40
1.0
176
     1
  0
VISUALSTYLE
  5
39
102
{ACAD_REACTORS
330
29
102
}
330
29
100
AcDbVisualStyle
  2
ColorChange
 70
    16
177
     3
291
     1
 70
    58
 90
        2
176
     1
 90
        2
176
     1
 90
        3
176
     1
 90
        0
176
     1
 40
0.6
176
     1
 40
30.0
176
     1
 62
     8
420
  8421504
176
     1
 90
        1
176
     1
 90
        4
176
     1
 62
     7
176
     1
 62
   257
176
     1
 90
        1
176
     1
 90
        1
176
     1
 40
1.0
176
     1
 90
        8
176
     1
 62
     8
420
  8421504
176
     1
 40
1.0
176
     1
 90
        1
176
     1
 90
        6
176
     1
 90
        2
176
     1
 62
     7
176
     1
 90
        5
176
     1
 90
        0
176
     1
 90
        0
176
     1
290
     0
176
     1
 90
        1
176
     1
 40
0.0
176
     1
 90
        0
176
     1
290
     0
176
     1
290
     1
176
     1
290
     1
176
     1
290
     0
176
     1
290
     0
176
     1
290
     0
176
     1
290
     0
176
     1
290
     0
176
     1
290
     0
176
     1
 90
       50
176
     1
 40
0.0
176
     1
 40
1.0
176
     1
 90
        0
176
     1
 62
    18
420
        0
176
     1
 90
       50
176
     1
 90
        3
176
     1
 62
     5
420
      255
176
     1
290
     0
176
     1
 90
       50
176
     1
 90
       50
176
     1
 90
       50
176
     1
290
     0
176
     1
 90
       50
176
     1
 62
   256
176
     0
 40
1.0
176
     0
 90
        2
176
     1
  1
strokes_ogs.tif
176
     1
290
     0
176
     1
 40
1.0
176
     1
 40
1.0
176
     1
  0
VISUALSTYLE
  5
32
102
{ACAD_REACTORS
330
29
102
}
330
29
100
AcDbVisualStyle
  2
Conceptual
 70
     9
177
     3
291
     0
 70
    58
 90
        3
176
     1
 90
        2
176
     1
 90
        0
176
     1
 90
        0
176
     1
 40
0.6
176
     1
 40
30.0
176
     1
 62
     7
420
 16777215
176
     1
 90
        2
176
     1
 90
        2
176
     1
 62
     7
176
     1
 62
   257
176
     1
 90
        1
176
     1
 90
        1
176
     1
 40
179.0
176
     1
 90
        8
176
     1
 62
     7
176
     1
 40
1.0
176
     1
 90
        1
176
     1
 90
        6
176
     1
 90
        2
176
     1
 62
     7
176
     1
 90
        3
176
     1
 90
        0
176
     1
 90
        0
176
     1
290
     0
176
     1
 90
        1
176
     1
 40
0.0
176
     1
 90
        0
176
     1
290
     0
176
     1
290
     1
176
     1
290
     1
176
     1
290
     0
176
     1
290
     0
176
     1
290
     0
176
     1
290
     0
176
     1
290
     0
176
     1
290
     0
176
     1
 90
       50
176
     1
 40
0.0
176
     1
 40
1.0
176
     1
 90
        0
176
     1
 62
    18
420
        0
176
     1
 90
       50
176
     1
 90
        3
176
     1
 62
     5
420
      255
176
     1
290
     0
176
     1
 90
       50
176
     1
 90
       50
176
     1
 90
       50
176
     1
290
     0
176
     1
 90
       50
176
     1
 62
   256
176
     0
 40
1.0
176
     0
 90
        2
176
     1
  1
strokes_ogs.tif
176
     1
290
     0
176
     1
 40
1.0
176
     1
 40
1.0
176
     1
  0
VISUALSTYLE
  5
34
102
{ACAD_REACTORS
330
29
102
}
330
29
100
AcDbVisualStyle
  2
Dim
 70
    11
177
     3
291
     1
 70
    58
 90
        2
176
     1
 90
        2
176
     1
 90
        0
176
     1
 90
        0
176
     1
 40
0.6
176
     1
 40
30.0
176
     1
 62
     7
420
 16777215
176
     1
 90
        1
176
     1
 90
        4
176
     1
 62
     7
176
     1
 62
   257
176
     1
 90
        1
176
     1
 90
        1
176
     1
 40
1.0
176
     1
 90
        8
176
     1
 62
     7
176
     1
 40
1.0
176
     1
 90
        1
176
     1
 90
        6
176
     1
 90
        2
176
     1
 62
     7
176
     1
 90
        5
176
     1
 90
        0
176
     1
 90
        0
176
     1
290
     0
176
     1
 90
        1
176
     1
 40
-50.0
176
     1
 90
        0
176
     1
290
     0
176
     1
290
     1
176
     1
290
     1
176
     1
290
     0
176
     1
290
     0
176
     1
290
     0
176
     1
290
     0
176
     1
290
     0
176
     1
290
     0
176
     1
 90
       50
176
     1
 40
0.0
176
     1
 40
1.0
176
     1
 90
        0
176
     1
 62
    18
420
        0
176
     1
 90
       50
176
     1
 90
        3
176
     1
 62
     5
420
      255
176
     1
290
     0
176
     1
 90
       50
176
     1
 90
       50
176
     1
 90
       50
176
     1
290
     0
176
     1
 90
       50
176
     1
 62
   256
176
     0
 40
1.0
176
     0
 90
        2
176
     1
  1
strokes_ogs.tif
176
     1
290
     0
176
     1
 40
1.0
176
     1
 40
1.0
176
     1
  0
VISUALSTYLE
  5
41
102
{ACAD_REACTORS
330
29
102
}
330
29
100
AcDbVisualStyle
  2
EdgeColorOff
 70
    22
177
     3
291
     1
 70
    58
 90
        2
176
     0
 90
        2
176
     0
 90
        0
176
     0
 90
        0
176
     0
 40
0.6
176
     0
 40
30.0
176
     0
 62
     7
420
 16777215
176
     0
 90
        1
176
     0
 90
        4
176
     0
 62
     7
176
     0
 62
   257
176
     0
 90
        1
176
     0
 90
        1
176
     0
 40
1.0
176
     0
 90
        8
176
     2
 62
     7
176
     0
 40
1.0
176
     0
 90
        1
176
     0
 90
        6
176
     0
 90
        2
176
     0
 62
     7
176
     0
 90
        5
176
     0
 90
        0
176
     0
 90
        0
176
     0
290
     0
176
     0
 90
        1
176
     0
 40
0.0
176
     0
 90
        0
176
     0
290
     0
176
     0
290
     1
176
     0
290
     1
176
     0
290
     0
176
     0
290
     0
176
     0
290
     0
176
     0
290
     0
176
     0
290
     0
176
     0
290
     0
176
     0
 90
       50
176
     0
 40
0.0
176
     0
 40
1.0
176
     0
 90
        0
176
     0
 62
    18
420
        0
176
     0
 90
       50
176
     0
 90
        3
176
     0
 62
     5
420
      255
176
     0
290
     0
176
     0
 90
       50
176
     0
 90
       50
176
     0
 90
       50
176
     0
290
     0
176
     0
 90
       50
176
     0
 62
   256
176
     0
 40
1.0
176
     0
 90
        2
176
     0
  1
strokes_ogs.tif
176
     0
290
     0
176
     0
 40
1.0
176
     0
 40
1.0
176
     0
  0
VISUALSTYLE
  5
38
102
{ACAD_REACTORS
330
29
102
}
330
29
100
AcDbVisualStyle
  2
Facepattern
 70
    15
177
     3
291
     1
 70
    58
 90
        2
176
     1
 90
        2
176
     1
 90
        0
176
     1
 90
        0
176
     1
 40
0.6
176
     1
 40
30.0
176
     1
 62
     7
420
 16777215
176
     1
 90
        1
176
     1
 90
        4
176
     1
 62
     7
176
     1
 62
   257
176
     1
 90
        1
176
     1
 90
        1
176
     1
 40
1.0
176
     1
 90
        8
176
     1
 62
     7
176
     1
 40
1.0
176
     1
 90
        1
176
     1
 90
        6
176
     1
 90
        2
176
     1
 62
     7
176
     1
 90
        5
176
     1
 90
        0
176
     1
 90
        0
176
     1
290
     0
176
     1
 90
        1
176
     1
 40
0.0
176
     1
 90
        0
176
     1
290
     0
176
     1
290
     1
176
     1
290
     1
176
     1
290
     0
176
     1
290
     0
176
     1
290
     0
176
     1
290
     0
176
     1
290
     0
176
     1
290
     0
176
     1
 90
       50
176
     1
 40
0.0
176
     1
 40
1.0
176
     1
 90
        0
176
     1
 62
    18
420
        0
176
     1
 90
       50
176
     1
 90
        3
176
     1
 62
     5
420
      255
176
     1
290
     0
176
     1
 90
       50
176
     1
 90
       50
176
     1
 90
       50
176
     1
290
     0
176
     1
 90
       50
176
     1
 62
   256
176
     0
 40
1.0
176
     0
 90
        2
176
     1
  1
strokes_ogs.tif
176
     1
290
     0
176
     1
 40
1.0
176
     1
 40
1.0
176
     1
  0
VISUALSTYLE
  5
2A
102
{ACAD_REACTORS
330
29
102
}
330
29
100
AcDbVisualStyle
  2
Flat
 70
     0
177
     3
291
     1
 70
    58
 90
        2
176
     1
 90
        1
176
     1
 90
        1
176
     1
 90
        2
176
     1
 40
0.6
176
     1
 40
30.0
176
     1
 62
     7
420
 16777215
176
     1
 90
        0
176
     1
 90
        0
176
     1
 62
     7
176
     1
 62
   257
176
     1
 90
        1
176
     1
 90
        1
176
     1
 40
1.0
176
     1
 90
        8
176
     1
 62
     7
176
     1
 40
1.0
176
     1
 90
        1
176
     1
 90
        6
176
     1
 90
        2
176
     1
 62
     7
176
     1
 90
        5
176
     1
 90
        0
176
     1
 90
        0
176
     1
290
     0
176
     1
 90
       13
176
     1
 40
0.0
176
     1
 90
        0
176
     1
290
     0
176
     1
290
     1
176
     1
290
     1
176
     1
290
     0
176
     1
290
     0
176
     1
290
     0
176
     1
290
     0
176
     1
290
     0
176
     1
290
     0
176
     1
 90
       50
176
     1
 40
0.0
176
     1
 40
1.0
176
     1
 90
        0
176
     1
 62
    18
420
        0
176
     1
 90
       50
176
     1
 90
        3
176
     1
 62
     5
420
      255
176
     1
290
     0
176
     1
 90
       50
176
     1
 90
       50
176
     1
 90
       50
176
     1
290
     0
176
     1
 90
       50
176
     1
 62
   256
176
     0
 40
1.0
176
     0
 90
        2
176
     1
  1
strokes_ogs.tif
176
     1
290
     0
176
     1
 40
1.0
176
     1
 40
1.0
176
     1
  0
VISUALSTYLE
  5
2B
102
{ACAD_REACTORS
330
29
102
}
330
29
100
AcDbVisualStyle
  2
FlatWithEdges
 70
     1
177
     3
291
     1
 70
    58
 90
        2
176
     1
 90
        1
176
     1
 90
        1
176
     1
 90
        2
176
     1
 40
0.6
176
     1
 40
30.0
176
     1
 62
     7
420
 16777215
176
     1
 90
        1
176
     1
 90
        0
176
     1
 62
     7
176
     1
 62
   257
176
     1
 90
        1
176
     1
 90
        1
176
     1
 40
1.0
176
     1
 90
        0
176
     1
 62
   257
176
     1
 40
1.0
176
     1
 90
        1
176
     1
 90
        6
176
     1
 90
        2
176
     1
 62
     7
176
     1
 90
        5
176
     1
 90
        0
176
     1
 90
        0
176
     1
290
     0
176
     1
 90
       13
176
     1
 40
0.0
176
     1
 90
        0
176
     1
290
     0
176
     1
290
     1
176
     1
290
     1
176
     1
290
     0
176
     1
290
     0
176
     1
290
     0
176
     1
290
     0
176
     1
290
     0
176
     1
290
     0
176
     1
 90
       50
176
     1
 40
0.0
176
     1
 40
1.0
176
     1
 90
        0
176
     1
 62
    18
420
        0
176
     1
 90
       50
176
     1
 90
        3
176
     1
 62
     5
420
      255
176
     1
290
     0
176
     1
 90
       50
176
     1
 90
       50
176
     1
 90
       50
176
     1
290
     0
176
     1
 90
       50
176
     1
 62
   256
176
     0
 40
1.0
176
     0
 90
        2
176
     1
  1
strokes_ogs.tif
176
     1
290
     0
176
     1
 40
1.0
176
     1
 40
1.0
176
     1
  0
VISUALSTYLE
  5
2C
102
{ACAD_REACTORS
330
29
102
}
330
29
100
AcDbVisualStyle
  2
Gouraud
 70
     2
177
     3
291
     1
 70
    58
 90
        2
176
     1
 90
        2
176
     1
 90
        1
176
     1
 90
        2
176
     1
 40
0.6
176
     1
 40
30.0
176
     1
 62
     7
420
 16777215
176
     1
 90
        0
176
     1
 90
        0
176
     1
 62
     7
176
     1
 62
   257
176
     1
 90
        1
176
     1
 90
        1
176
     1
 40
1.0
176
     1
 90
        0
176
     1
 62
     7
176
     1
 40
1.0
176
     1
 90
        1
176
     1
 90
        6
176
     1
 90
        2
176
     1
 62
     7
176
     1
 90
        5
176
     1
 90
        0
176
     1
 90
        0
176
     1
290
     0
176
     1
 90
       13
176
     1
 40
0.0
176
     1
 90
        0
176
     1
290
     0
176
     1
290
     1
176
     1
290
     1
176
     1
290
     0
176
     1
290
     0
176
     1
290
     0
176
     1
290
     0
176
     1
290
     0
176
     1
290
     0
176
     1
 90
       50
176
     1
 40
0.0
176
     1
 40
1.0
176
     1
 90
        0
176
     1
 62
    18
420
        0
176
     1
 90
       50
176
     1
 90
        3
176
     1
 62
     5
420
      255
176
     1
290
     0
176
     1
 90
       50
176
     1
 90
       50
176
     1
 90
       50
176
     1
290
     0
176
     1
 90
       50
176
     1
 62
   256
176
     0
 40
1.0
176
     0
 90
        2
176
     1
  1
strokes_ogs.tif
176
     1
290
     0
176
     1
 40
1.0
176
     1
 40
1.0
176
     1
  0
VISUALSTYLE
  5
2D
102
{ACAD_REACTORS
330
29
102
}
330
29
100
AcDbVisualStyle
  2
GouraudWithEdges
 70
     3
177
     3
291
     1
 70
    58
 90
        2
176
     1
 90
        2
176
     1
 90
        1
176
     1
 90
        2
176
     1
 40
0.6
176
     1
 40
30.0
176
     1
 62
     7
420
 16777215
176
     1
 90
        1
176
     1
 90
        0
176
     1
 62
     7
176
     1
 62
   257
176
     1
 90
        1
176
     1
 90
        1
176
     1
 40
1.0
176
     1
 90
        0
176
     1
 62
   257
176
     1
 40
1.0
176
     1
 90
        1
176
     1
 90
        6
176
     1
 90
        2
176
     1
 62
     7
176
     1
 90
        5
176
     1
 90
        0
176
     1
 90
        0
176
     1
290
     0
176
     1
 90
       13
176
     1
 40
0.0
176
     1
 90
        0
176
     1
290
     0
176
     1
290
     1
176
     1
290
     1
176
     1
290
     0
176
     1
290
     0
176
     1
290
     0
176
     1
290
     0
176
     1
290
     0
176
     1
290
     0
176
     1
 90
       50
176
     1
 40
0.0
176
     1
 40
1.0
176
     1
 90
        0
176
     1
 62
    18
420
        0
176
     1
 90
       50
176
     1
 90
        3
176
     1
 62
     5
420
      255
176
     1
290
     0
176
     1
 90
       50
176
     1
 90
       50
176
     1
 90
       50
176
     1
290
     0
176
     1
 90
       50
176
     1
 62
   256
176
     0
 40
1.0
176
     0
 90
        2
176
     1
  1
strokes_ogs.tif
176
     1
290
     0
176
     1
 40
1.0
176
     1
 40
1.0
176
     1
  0
VISUALSTYLE
  5
31
102
{ACAD_REACTORS
330
29
102
}
330
29
100
AcDbVisualStyle
  2
Hidden
 70
     6
177
     3
291
     0
 70
    58
 90
        1
176
     1
 90
        2
176
     1
 90
        2
176
     1
 90
        0
176
     1
 40
0.6
176
     1
 40
30.0
176
     1
 62
     7
420
 16777215
176
     1
 90
        2
176
     1
 90
        2
176
     1
 62
     7
176
     1
 62
   257
176
     1
 90
        2
176
     1
 90
        1
176
     1
 40
40.0
176
     1
 90
        0
176
     1
 62
   257
176
     1
 40
1.0
176
     1
 90
        1
176
     1
 90
        6
176
     1
 90
        2
176
     1
 62
     7
176
     1
 90
        3
176
     1
 90
        0
176
     1
 90
        0
176
     1
290
     0
176
     1
 90
        1
176
     1
 40
0.0
176
     1
 90
        0
176
     1
290
     0
176
     1
290
     1
176
     1
290
     1
176
     1
290
     0
176
     1
290
     0
176
     1
290
     0
176
     1
290
     0
176
     1
290
     0
176
     1
290
     0
176
     1
 90
       50
176
     1
 40
0.0
176
     1
 40
1.0
176
     1
 90
        0
176
     1
 62
    18
420
        0
176
     1
 90
       50
176
     1
 90
        3
176
     1
 62
     5
420
      255
176
     1
290
     0
176
     1
 90
       50
176
     1
 90
       50
176
     1
 90
       50
176
     1
290
     0
176
     1
 90
       50
176
     1
 62
   256
176
     0
 40
1.0
176
     0
 90
        2
176
     1
  1
strokes_ogs.tif
176
     1
290
     0
176
     1
 40
1.0
176
     1
 40
1.0
176
     1
  0
VISUALSTYLE
  5
3F
102
{ACAD_REACTORS
330
29
102
}
330
29
100
AcDbVisualStyle
  2
JitterOff
 70
    20
177
     3
291
     1
 70
    58
 90
        2
176
     0
 90
        2
176
     0
 90
        0
176
     0
 90
        0
176
     0
 40
0.6
176
     0
 40
30.0
176
     0
 62
     7
420
 16777215
176
     0
 90
        1
176
     0
 90
        4
176
     0
 62
     7
176
     0
 62
   257
176
     0
 90
        1
176
     0
 90
        1
176
     0
 40
1.0
176
     0
 90
       10
176
     2
 62
     7
176
     0
 40
1.0
176
     0
 90
        1
176
     0
 90
        6
176
     0
 90
        2
176
     0
 62
     7
176
     0
 90
        5
176
     0
 90
        0
176
     0
 90
        0
176
     0
290
     0
176
     0
 90
        1
176
     0
 40
0.0
176
     0
 90
        0
176
     0
290
     0
176
     0
290
     1
176
     0
290
     1
176
     0
290
     0
176
     0
290
     0
176
     0
290
     0
176
     0
290
     0
176
     0
290
     0
176
     0
290
     0
176
     0
 90
       50
176
     0
 40
0.0
176
     0
 40
1.0
176
     0
 90
        0
176
     0
 62
    18
420
        0
176
     0
 90
       50
176
     0
 90
        3
176
     0
 62
     5
420
      255
176
     0
290
     0
176
     0
 90
       50
176
     0
 90
       50
176
     0
 90
       50
176
     0
290
     0
176
     0
 90
       50
176
     0
 62
   256
176
     0
 40
1.0
176
     0
 90
        2
176
     0
  1
strokes_ogs.tif
176
     0
290
     0
176
     0
 40
1.0
176
     0
 40
1.0
176
     0
  0
VISUALSTYLE
  5
37
102
{ACAD_REACTORS
330
29
102
}
330
29
100
AcDbVisualStyle
  2
Linepattern
 70
    14
177
     3
291
     1
 70
    58
 90
        2
176
     1
 90
        2
176
     1
 90
        0
176
     1
 90
        0
176
     1
 40
0.6
176
     1
 40
30.0
176
     1
 62
     7
420
 16777215
176
     1
 90
        1
176
     1
 90
        4
176
     1
 62
     7
176
     1
 62
   257
176
     1
 90
        7
176
     1
 90
        7
176
     1
 40
1.0
176
     1
 90
        8
176
     1
 62
     7
176
     1
 40
1.0
176
     1
 90
        1
176
     1
 90
        6
176
     1
 90
        2
176
     1
 62
     7
176
     1
 90
        5
176
     1
 90
        0
176
     1
 90
        0
176
     1
290
     0
176
     1
 90
        1
176
     1
 40
0.0
176
     1
 90
        0
176
     1
290
     0
176
     1
290
     1
176
     1
290
     1
176
     1
290
     0
176
     1
290
     0
176
     1
290
     0
176
     1
290
     0
176
     1
290
     0
176
     1
290
     0
176
     1
 90
       50
176
     1
 40
0.0
176
     1
 40
1.0
176
     1
 90
        0
176
     1
 62
    18
420
        0
176
     1
 90
       50
176
     1
 90
        3
176
     1
 62
     5
420
      255
176
     1
290
     0
176
     1
 90
       50
176
     1
 90
       50
176
     1
 90
       50
176
     1
290
     0
176
     1
 90
       50
176
     1
 62
   256
176
     0
 40
1.0
176
     0
 90
        2
176
     1
  1
strokes_ogs.tif
176
     1
290
     0
176
     1
 40
1.0
176
     1
 40
1.0
176
     1
  0
VISUALSTYLE
  5
40
102
{ACAD_REACTORS
330
29
102
}
330
29
100
AcDbVisualStyle
  2
OverhangOff
 70
    21
177
     3
291
     1
 70
    58
 90
        2
176
     0
 90
        2
176
     0
 90
        0
176
     0
 90
        0
176
     0
 40
0.6
176
     0
 40
30.0
176
     0
 62
     7
420
 16777215
176
     0
 90
        1
176
     0
 90
        4
176
     0
 62
     7
176
     0
 62
   257
176
     0
 90
        1
176
     0
 90
        1
176
     0
 40
1.0
176
     0
 90
        9
176
     2
 62
     7
176
     0
 40
1.0
176
     0
 90
        1
176
     0
 90
        6
176
     0
 90
        2
176
     0
 62
     7
176
     0
 90
        5
176
     0
 90
        0
176
     0
 90
        0
176
     0
290
     0
176
     0
 90
        1
176
     0
 40
0.0
176
     0
 90
        0
176
     0
290
     0
176
     0
290
     1
176
     0
290
     1
176
     0
290
     0
176
     0
290
     0
176
     0
290
     0
176
     0
290
     0
176
     0
290
     0
176
     0
290
     0
176
     0
 90
       50
176
     0
 40
0.0
176
     0
 40
1.0
176
     0
 90
        0
176
     0
 62
    18
420
        0
176
     0
 90
       50
176
     0
 90
        3
176
     0
 62
     5
420
      255
176
     0
290
     0
176
     0
 90
       50
176
     0
 90
       50
176
     0
 90
       50
176
     0
290
     0
176
     0
 90
       50
176
     0
 62
   256
176
     0
 40
1.0
176
     0
 90
        2
176
     0
  1
strokes_ogs.tif
176
     0
290
     0
176
     0
 40
1.0
176
     0
 40
1.0
176
     0
  0
VISUALSTYLE
  5
33
102
{ACAD_REACTORS
330
29
102
}
330
29
100
AcDbVisualStyle
  2
Realistic
 70
     8
177
     3
291
     0
 70
    58
 90
        2
176
     1
 90
        3
176
     1
 90
        0
176
     1
 90
        2
176
     1
 40
0.6
176
     1
 40
30.0
176
     1
 62
     7
420
 16777215
176
     1
 90
        0
176
     1
 90
        0
176
     1
 62
     7
176
     1
 62
   257
176
     1
 90
        1
176
     1
 90
        1
176
     1
 40
1.0
176
     1
 90
        8
176
     1
 62
   257
176
     1
 40
1.0
176
     1
 90
        1
176
     1
 90
        6
176
     1
 90
        2
176
     1
 62
     7
176
     1
 90
        3
176
     1
 90
        0
176
     1
 90
        0
176
     1
290
     0
176
     1
 90
       13
176
     1
 40
0.0
176
     1
 90
        0
176
     1
290
     0
176
     1
290
     1
176
     1
290
     1
176
     1
290
     0
176
     1
290
     0
176
     1
290
     0
176
     1
290
     0
176
     1
290
     0
176
     1
290
     0
176
     1
 90
       50
176
     1
 40
0.0
176
     1
 40
1.0
176
     1
 90
        0
176
     1
 62
    18
420
        0
176
     1
 90
       50
176
     1
 90
        3
176
     1
 62
     5
420
      255
176
     1
290
     0
176
     1
 90
       50
176
     1
 90
       50
176
     1
 90
       50
176
     1
290
     0
176
     1
 90
       50
176
     1
 62
   256
176
     0
 40
1.0
176
     0
 90
        2
176
     1
  1
strokes_ogs.tif
176
     1
290
     0
176
     1
 40
1.0
176
     1
 40
1.0
176
     1
  0
VISUALSTYLE
  5
3E
102
{ACAD_REACTORS
330
29
102
}
330
29
100
AcDbVisualStyle
  2
Shaded
 70
    27
177
     3
291
     0
 70
    58
 90
        2
176
     1
 90
        2
176
     1
 90
        1
176
     1
 90
        2
176
     1
 40
0.6
176
     1
 40
30.0
176
     1
 62
     7
420
 16777215
176
     1
 90
        0
176
     1
 90
        4
176
     1
 62
     7
176
     1
 62
   257
176
     1
 90
        1
176
     1
 90
        1
176
     1
 40
1.0
176
     1
 90
        8
176
     1
 62
   257
176
     1
 40
1.0
176
     1
 90
        1
176
     1
 90
        6
176
     1
 90
        2
176
     1
 62
     8
420
  7895160
176
     1
 90
        3
176
     1
 90
        0
176
     1
 90
        0
176
     1
290
     0
176
     1
 90
        5
176
     1
 40
0.0
176
     1
 90
        0
176
     1
290
     0
176
     1
290
     1
176
     1
290
     1
176
     1
290
     0
176
     1
290
     0
176
     1
290
     0
176
     1
290
     0
176
     1
290
     0
176
     1
290
     0
176
     1
 90
       50
176
     1
 40
0.0
176
     1
 40
1.0
176
     1
 90
        0
176
     1
 62
    18
420
        0
176
     1
 90
       50
176
     1
 90
        3
176
     1
 62
     5
420
      255
176
     1
290
     0
176
     1
 90
       50
176
     1
 90
       50
176
     1
 90
       50
176
     1
290
     0
176
     1
 90
       50
176
     1
 62
   256
176
     0
 40
1.0
176
     0
 90
        2
176
     1
  1
strokes_ogs.tif
176
     1
290
     0
176
     1
 40
1.0
176
     1
 40
1.0
176
     1
  0
VISUALSTYLE
  5
3D
102
{ACAD_REACTORS
330
29
102
}
330
29
100
AcDbVisualStyle
  2
Shaded with edges
 70
    26
177
     3
291
     0
 70
    58
 90
        2
176
     1
 90
        2
176
     1
 90
        1
176
     1
 90
        2
176
     1
 40
0.6
176
     1
 40
30.0
176
     1
 62
     7
420
 16777215
176
     1
 90
        1
176
     1
 90
        2
176
     1
 62
     7
176
     1
 62
   257
176
     1
 90
        2
176
     1
 90
        1
176
     1
 40
1.0
176
     1
 90
        8
176
     1
 62
   257
176
     1
 40
1.0
176
     1
 90
        1
176
     1
 90
        6
176
     1
 90
        2
176
     1
 62
     7
176
     1
 90
        3
176
     1
 90
        0
176
     1
 90
        0
176
     1
290
     0
176
     1
 90
        5
176
     1
 40
0.0
176
     1
 90
        0
176
     1
290
     0
176
     1
290
     1
176
     1
290
     1
176
     1
290
     0
176
     1
290
     0
176
     1
290
     0
176
     1
290
     0
176
     1
290
     0
176
     1
290
     0
176
     1
 90
       50
176
     1
 40
0.0
176
     1
 40
1.0
176
     1
 90
        0
176
     1
 62
    18
420
        0
176
     1
 90
       50
176
     1
 90
        3
176
     1
 62
     5
420
      255
176
     1
290
     0
176
     1
 90
       50
176
     1
 90
       50
176
     1
 90
       50
176
     1
290
     0
176
     1
 90
       50
176
     1
 62
   256
176
     0
 40
1.0
176
     0
 90
        2
176
     1
  1
strokes_ogs.tif
176
     1
290
     0
176
     1
 40
1.0
176
     1
 40
1.0
176
     1
  0
VISUALSTYLE
  5
3A
102
{ACAD_REACTORS
330
29
102
}
330
29
100
AcDbVisualStyle
  2
Shades of Gray
 70
    23
177
     3
291
     0
 70
    58
 90
        2
176
     1
 90
        2
176
     1
 90
        3
176
     1
 90
        0
176
     1
 40
0.6
176
     1
 40
30.0
176
     1
 62
     7
420
 16777215
176
     1
 90
        2
176
     1
 90
        2
176
     1
 62
     7
176
     1
 62
     7
176
     1
 90
        1
176
     1
 90
        1
176
     1
 40
40.0
176
     1
 90
        8
176
     1
 62
     7
176
     1
 40
1.0
176
     1
 90
        1
176
     1
 90
        6
176
     1
 90
        2
176
     1
 62
     7
176
     1
 90
        3
176
     1
 90
        0
176
     1
 90
        0
176
     1
290
     0
176
     1
 90
        1
176
     1
 40
0.0
176
     1
 90
        0
176
     1
290
     0
176
     1
290
     1
176
     1
290
     1
176
     1
290
     0
176
     1
290
     0
176
     1
290
     0
176
     1
290
     0
176
     1
290
     0
176
     1
290
     0
176
     1
 90
       50
176
     1
 40
0.0
176
     1
 40
1.0
176
     1
 90
        0
176
     1
 62
    18
420
        0
176
     1
 90
       50
176
     1
 90
        3
176
     1
 62
     5
420
      255
176
     1
290
     0
176
     1
 90
       50
176
     1
 90
       50
176
     1
 90
       50
176
     1
290
     0
176
     1
 90
       50
176
     1
 62
   256
176
     0
 40
1.0
176
     0
 90
        2
176
     1
  1
strokes_ogs.tif
176
     1
290
     0
176
     1
 40
1.0
176
     1
 40
1.0
176
     1
  0
VISUALSTYLE
  5
3B
102
{ACAD_REACTORS
330
29
102
}
330
29
100
AcDbVisualStyle
  2
Sketchy
 70
    24
177
     3
291
     0
 70
    58
 90
        1
176
     1
 90
        2
176
     1
 90
        2
176
     1
 90
        0
176
     1
 40
0.6
176
     1
 40
30.0
176
     1
 62
     7
420
 16777215
176
     1
 90
        2
176
     1
 90
        2
176
     1
 62
     7
176
     1
 62
     7
176
     1
 90
        1
176
     1
 90
        1
176
     1
 40
40.0
176
     1
 90
       11
176
     1
 62
     7
176
     1
 40
1.0
176
     1
 90
        1
176
     1
 90
        6
176
     1
 90
        2
176
     1
 62
     7
176
     1
 90
        6
176
     1
 90
        0
176
     1
 90
        0
176
     1
290
     0
176
     1
 90
        1
176
     1
 40
0.0
176
     1
 90
        0
176
     1
290
     0
176
     1
290
     1
176
     1
290
     1
176
     1
290
     0
176
     1
290
     0
176
     1
290
     0
176
     1
290
     0
176
     1
290
     0
176
     1
290
     0
176
     1
 90
       50
176
     1
 40
0.0
176
     1
 40
1.0
176
     1
 90
        0
176
     1
 62
    18
420
        0
176
     1
 90
       50
176
     1
 90
        3
176
     1
 62
     5
420
      255
176
     1
290
     0
176
     1
 90
       50
176
     1
 90
       50
176
     1
 90
       50
176
     1
290
     0
176
     1
 90
       50
176
     1
 62
   256
176
     0
 40
1.0
176
     0
 90
        2
176
     1
  1
strokes_ogs.tif
176
     1
290
     0
176
     1
 40
1.0
176
     1
 40
1.0
176
     1
  0
VISUALSTYLE
  5
36
102
{ACAD_REACTORS
330
29
102
}
330
29
100
AcDbVisualStyle
  2
Thicken
 70
    13
177
     3
291
     1
 70
    58
 90
        2
176
     1
 90
        2
176
     1
 90
        0
176
     1
 90
        0
176
     1
 40
0.6
176
     1
 40
30.0
176
     1
 62
     7
420
 16777215
176
     1
 90
        1
176
     1
 90
        4
176
     1
 62
     7
176
     1
 62
   257
176
     1
 90
        1
176
     1
 90
        1
176
     1
 40
1.0
176
     1
 90
       12
176
     1
 62
     7
176
     1
 40
1.0
176
     1
 90
        1
176
     1
 90
        6
176
     1
 90
        2
176
     1
 62
     7
176
     1
 90
        5
176
     1
 90
        0
176
     1
 90
        0
176
     1
290
     0
176
     1
 90
        1
176
     1
 40
0.0
176
     1
 90
        0
176
     1
290
     0
176
     1
290
     1
176
     1
290
     1
176
     1
290
     0
176
     1
290
     0
176
     1
290
     0
176
     1
290
     0
176
     1
290
     0
176
     1
290
     0
176
     1
 90
       50
176
     1
 40
0.0
176
     1
 40
1.0
176
     1
 90
        0
176
     1
 62
    18
420
        0
176
     1
 90
       50
176
     1
 90
        3
176
     1
 62
     5
420
      255
176
     1
290
     0
176
     1
 90
       50
176
     1
 90
       50
176
     1
 90
       50
176
     1
290
     0
176
     1
 90
       50
176
     1
 62
   256
176
     0
 40
1.0
176
     0
 90
        2
176
     1
  1
strokes_ogs.tif
176
     1
290
     0
176
     1
 40
1.0
176
     1
 40
1.0
176
     1
  0
VISUALSTYLE
  5
30
102
{ACAD_REACTORS
330
29
102
}
330
29
100
AcDbVisualStyle
  2
Wireframe
 70
     5
177
     3
291
     0
 70
    58
 90
        0
176
     1
 90
        2
176
     1
 90
        0
176
     1
 90
        0
176
     1
 40
0.6
176
     1
 40
30.0
176
     1
 62
     7
420
 16777215
176
     1
 90
        1
176
     1
 90
        4
176
     1
 62
     7
176
     1
 62
   257
176
     1
 90
        1
176
     1
 90
        1
176
     1
 40
1.0
176
     1
 90
        0
176
     1
 62
   257
176
     1
 40
1.0
176
     1
 90
        1
176
     1
 90
        6
176
     1
 90
        2
176
     1
 62
     7
176
     1
 90
        3
176
     1
 90
        0
176
     1
 90
        0
176
     1
290
     0
176
     1
 90
        1
176
     1
 40
0.0
176
     1
 90
        0
176
     1
290
     0
176
     1
290
     1
176
     1
290
     1
176
     1
290
     0
176
     1
290
     0
176
     1
290
     0
176
     1
290
     0
176
     1
290
     0
176
     1
290
     0
176
     1
 90
       50
176
     1
 40
0.0
176
     1
 40
1.0
176
     1
 90
        0
176
     1
 62
    18
420
        0
176
     1
 90
       50
176
     1
 90
        3
176
     1
 62
     5
420
      255
176
     1
290
     0
176
     1
 90
       50
176
     1
 90
       50
176
     1
 90
       50
176
     1
290
     0
176
     1
 90
       50
176
     1
 62
   256
176
     0
 40
1.0
176
     0
 90
        2
176
     1
  1
strokes_ogs.tif
176
     1
290
     0
176
     1
 40
1.0
176
     1
 40
1.0
176
     1
  0
VISUALSTYLE
  5
3C
102
{ACAD_REACTORS
330
29
102
}
330
29
100
AcDbVisualStyle
  2
X-Ray
 70
    25
177
     3
291
     0
 70
    58
 90
        2
176
     1
 90
        2
176
     1
 90
        1
176
     1
 90
        1
176
     1
 40
0.5
176
     1
 40
30.0
176
     1
 62
     7
420
 16777215
176
     1
 90
        1
176
     1
 90
        0
176
     1
 62
     7
176
     1
 62
   257
176
     1
 90
        1
176
     1
 90
        1
176
     1
 40
1.0
176
     1
 90
        8
176
     1
 62
     7
176
     1
 40
1.0
176
     1
 90
        1
176
     1
 90
        6
176
     1
 90
        2
176
     1
 62
     7
176
     1
 90
        3
176
     1
 90
        0
176
     1
 90
        0
176
     1
290
     0
176
     1
 90
       13
176
     1
 40
0.0
176
     1
 90
        0
176
     1
290
     0
176
     1
290
     1
176
     1
290
     1
176
     1
290
     0
176
     1
290
     0
176
     1
290
     0
176
     1
290
     0
176
     1
290
     0
176
     1
290
     0
176
     1
 90
       50
176
     1
 40
0.0
176
     1
 40
1.0
176
     1
 90
        0
176
     1
 62
    18
420
        0
176
     1
 90
       50
176
     1
 90
        3
176
     1
 62
     5
420
      255
176
     1
290
     0
176
     1
 90
       50
176
     1
 90
       50
176
     1
 90
       50
176
     1
290
     0
176
     1
 90
       50
176
     1
 62
   256
176
     0
 40
1.0
176
     0
 90
        2
176
     1
  1
strokes_ogs.tif
176
     1
290
     0
176
     1
 40
1.0
176
     1
 40
1.0
176
     1
  0
DICTIONARYVAR
  5
278
102
{ACAD_REACTORS
330
273
102
}
330
273
100
DictionaryVariables
280
     0
  1
1:1
  0
DICTIONARYVAR
  5
275
102
{ACAD_REACTORS
330
273
102
}
330
273
100
DictionaryVariables
280
     0
  1
STANDARD
  0
DICTIONARYVAR
  5
274
102
{ACAD_REACTORS
330
273
102
}
330
273
100
DictionaryVariables
280
     0
  1
STANDARD
  0
DICTIONARYVAR
  5
276
102
{ACAD_REACTORS
330
273
102
}
330
273
100
DictionaryVariables
280
     0
  1
Imperial24
  0
DICTIONARYVAR
  5
277
102
{ACAD_REACTORS
330
273
102
}
330
273
100
DictionaryVariables
280
     0
  1
Imperial24
  0
XRECORD
  5
26F
102
{ACAD_REACTORS
330
26B
102
}
330
26B
100
AcDbXrecord
280
     1
  1
BUILDING_ID
  1
Casa à rua Dr
  1
FLOOR_ID
  1
22870993
  0
XRECORD
  5
26D
102
{ACAD_REACTORS
330
26B
102
}
330
26B
100
AcDbXrecord
280
     1
  1
-2000035
  1
Telhados
  1
-2000051
  1
Linhas
  1
-2000280
  1
Blocos de margens e carimbo
  1
-2002000
  1
Itens de detalhe
  0
XRECORD
  5
26E
102
{ACAD_REACTORS
330
26B
102
}
330
26B
100
AcDbXrecord
280
     1
  1
-2000042
  1
<Linhas finas>
  1
-2000281
  1
<Linhas finas>
  1
-2000542
  1
Padrão de superfície
  0
XRECORD
  5
26C
102
{ACAD_REACTORS
330
26B
102
}
330
26B
100
AcDbXrecord
280
     1
  1
22872381
  1
A4 HORIZONTAL : A4
  1
383807
  1
Região preenchida : Marcenaria corte
  1
4951952
  1
Telhado básico : cerâmico 2 cm
  0
DICTIONARY
  5
1A
330
19
100
AcDbDictionary
280
     1
281
     1
  3
BUMPTILE
360
1C
  3
DIFFUSETILE
360
1B
  3
OPACITYTILE
360
1F
  3
REFLECTIONTILE
360
1E
  3
REFRACTIONTILE
360
20
  3
SPECULARTILE
360
1D
  0
DICTIONARY
  5
12
330
11
100
AcDbDictionary
280
     1
281
     1
  3
BUMPTILE
360
14
  3
DIFFUSETILE
360
13
  3
OPACITYTILE
360
17
  3
REFLECTIONTILE
360
16
  3
REFRACTIONTILE
360
18
  3
SPECULARTILE
360
15
  0
DICTIONARY
  5
22
330
21
100
AcDbDictionary
280
     1
281
     1
  3
BUMPTILE
360
24
  3
DIFFUSETILE
360
23
  3
OPACITYTILE
360
27
  3
REFLECTIONTILE
360
26
  3
REFRACTIONTILE
360
28
  3
SPECULARTILE
360
25
  0
DICTIONARY
  5
2E9
330
65
100
AcDbDictionary
280
     1
281
     1
  3
ACAD_ROUNDTRIP_2008_TABLESTYLE_CELLSTYLEMAP
360
2EA
  0
XRECORD
  5
1C
102
{ACAD_REACTORS
330
1A
102
}
330
1A
100
AcDbXrecord
280
     1
270
     1
271
     1
  0
XRECORD
  5
1B
102
{ACAD_REACTORS
330
1A
102
}
330
1A
100
AcDbXrecord
280
     1
270
     1
271
     1
  0
XRECORD
  5
1F
102
{ACAD_REACTORS
330
1A
102
}
330
1A
100
AcDbXrecord
280
     1
270
     1
271
     1
  0
XRECORD
  5
1E
102
{ACAD_REACTORS
330
1A
102
}
330
1A
100
AcDbXrecord
280
     1
270
     1
271
     1
  0
XRECORD
  5
20
102
{ACAD_REACTORS
330
1A
102
}
330
1A
100
AcDbXrecord
280
     1
270
     1
271
     1
  0
XRECORD
  5
1D
102
{ACAD_REACTORS
330
1A
102
}
330
1A
100
AcDbXrecord
280
     1
270
     1
271
     1
  0
XRECORD
  5
14
102
{ACAD_REACTORS
330
12
102
}
330
12
100
AcDbXrecord
280
     1
270
     1
271
     1
  0
XRECORD
  5
13
102
{ACAD_REACTORS
330
12
102
}
330
12
100
AcDbXrecord
280
     1
270
     1
271
     1
  0
XRECORD
  5
17
102
{ACAD_REACTORS
330
12
102
}
330
12
100
AcDbXrecord
280
     1
270
     1
271
     1
  0
XRECORD
  5
16
102
{ACAD_REACTORS
330
12
102
}
330
12
100
AcDbXrecord
280
     1
270
     1
271
     1
  0
XRECORD
  5
18
102
{ACAD_REACTORS
330
12
102
}
330
12
100
AcDbXrecord
280
     1
270
     1
271
     1
  0
XRECORD
  5
15
102
{ACAD_REACTORS
330
12
102
}
330
12
100
AcDbXrecord
280
     1
270
     1
271
     1
  0
XRECORD
  5
24
102
{ACAD_REACTORS
330
22
102
}
330
22
100
AcDbXrecord
280
     1
270
     1
271
     1
  0
XRECORD
  5
23
102
{ACAD_REACTORS
330
22
102
}
330
22
100
AcDbXrecord
280
     1
270
     1
271
     1
  0
XRECORD
  5
27
102
{ACAD_REACTORS
330
22
102
}
330
22
100
AcDbXrecord
280
     1
270
     1
271
     1
  0
XRECORD
  5
26
102
{ACAD_REACTORS
330
22
102
}
330
22
100
AcDbXrecord
280
     1
270
     1
271
     1
  0
XRECORD
  5
28
102
{ACAD_REACTORS
330
22
102
}
330
22
100
AcDbXrecord
280
     1
270
     1
271
     1
  0
XRECORD
  5
25
102
{ACAD_REACTORS
330
22
102
}
330
22
100
AcDbXrecord
280
     1
270
     1
271
     1
  0
CELLSTYLEMAP
  5
2EA
102
{ACAD_REACTORS
330
2E9
102
}
330
2E9
100
AcDbCellStyleMap
 90
        3
300
CELLSTYLE
  1
TABLEFORMAT_BEGIN
 90
        5
170
     1
 91
        0
 92
    32768
 62
   257
 93
        1
300
CONTENTFORMAT
  1
CONTENTFORMAT_BEGIN
 90
        0
 91
        0
 92
      512
 93
        0
300

 40
0.0
140
1.0
 94
        5
 62
     0
340
55
144
0.25
309
CONTENTFORMAT_END
171
     0
 94
        0
309
TABLEFORMAT_END
  1
CELLSTYLE_BEGIN
 90
        1
 91
        1
300
_TITLE
309
CELLSTYLE_END
300
CELLSTYLE
  1
TABLEFORMAT_BEGIN
 90
        5
170
     1
 91
        0
 92
        0
 62
   257
 93
        1
300
CONTENTFORMAT
  1
CONTENTFORMAT_BEGIN
 90
        0
 91
        0
 92
      512
 93
        0
300

 40
0.0
140
1.0
 94
        5
 62
     0
340
55
144
0.18
309
CONTENTFORMAT_END
171
     0
 94
        0
309
TABLEFORMAT_END
  1
CELLSTYLE_BEGIN
 90
        2
 91
        1
300
_HEADER
309
CELLSTYLE_END
300
CELLSTYLE
  1
TABLEFORMAT_BEGIN
 90
        5
170
     1
 91
        0
 92
        0
 62
   257
 93
        1
300
CONTENTFORMAT
  1
CONTENTFORMAT_BEGIN
 90
        0
 91
        0
 92
      512
 93
        0
300

 40
0.0
140
1.0
 94
        2
 62
     0
340
55
144
0.18
309
CONTENTFORMAT_END
171
     0
 94
        0
309
TABLEFORMAT_END
  1
CELLSTYLE_BEGIN
 90
        3
 91
        2
300
_DATA
309
CELLSTYLE_END
  0
ENDSEC
  0
SECTION
  2
ACDSDATA
 70
     2
 71
     8
  0
ACDSSCHEMA
 90
        0
  1
AcDb_Thumbnail_Schema
  2
AcDbDs::ID
280
    10
 91
        8
  2
Thumbnail_Data
280
    15
 91
        0
101
ACDSRECORD
 95
        0
 90
        1
  2
AcDbDs::TreatedAsObjectData
280
     1
291
     1
101
ACDSRECORD
 95
        0
 90
        2
  2
AcDbDs::Legacy
280
     1
291
     1
101
ACDSRECORD
  1
AcDbDs::ID
 90
        3
  2
AcDs:Indexable
280
     1
291
     1
101
ACDSRECORD
  1
AcDbDs::ID
 90
        4
  2
AcDbDs::HandleAttribute
280
     7
282
     1
  0
ACDSSCHEMA
 90
        1
  1
AcDbDs::TreatedAsObjectDataSchema
  2
AcDbDs::TreatedAsObjectData
280
     1
 91
        0
  0
ACDSSCHEMA
 90
        2
  1
AcDbDs::LegacySchema
  2
AcDbDs::Legacy
280
     1
 91
        0
  0
ACDSSCHEMA
 90
        3
  1
AcDbDs::IndexedPropertySchema
  2
AcDs:Indexable
280
     1
 91
        0
  0
ACDSSCHEMA
 90
        4
  1
AcDbDs::HandleAttributeSchema
  2
AcDbDs::HandleAttribute
280
     7
 91
        1
284
     1
  0
ACDSRECORD
 90
        0
  2
AcDbDs::ID
280
    10
320
6F
  2
Thumbnail_Data
280
    15
 94
     1299
310
89504E470D0A1A0A0000000D4948445200000100000000B5080300000087DCD12600000300504C5445FFFFFFFFFFFFFFFFFF0000000000000000000000000000000000000000000000000000330000660000990000CC0000FF0033000033330033660033990033CC0033FF0066000066330066660066990066CC0066FF0099
310
000099330099660099990099CC0099FF00CC0000CC3300CC6600CC9900CCCC00CCFF00FF0000FF3300FF6600FF9900FFCC00FFFF3300003300333300663300993300CC3300FF3333003333333333663333993333CC3333FF3366003366333366663366993366CC3366FF3399003399333399663399993399CC3399FF33CC00
310
33CC3333CC6633CC9933CCCC33CCFF33FF0033FF3333FF6633FF9933FFCC33FFFF6600006600336600666600996600CC6600FF6633006633336633666633996633CC6633FF6666006666336666666666996666CC6666FF6699006699336699666699996699CC6699FF66CC0066CC3366CC6666CC9966CCCC66CCFF66FF0066
310
FF3366FF6666FF9966FFCC66FFFF9900009900339900669900999900CC9900FF9933009933339933669933999933CC9933FF9966009966339966669966999966CC9966FF9999009999339999669999999999CC9999FF99CC0099CC3399CC6699CC9999CCCC99CCFF99FF0099FF3399FF6699FF9999FFCC99FFFFCC0000CC00
310
33CC0066CC0099CC00CCCC00FFCC3300CC3333CC3366CC3399CC33CCCC33FFCC6600CC6633CC6666CC6699CC66CCCC66FFCC9900CC9933CC9966CC9999CC99CCCC99FFCCCC00CCCC33CCCC66CCCC99CCCCCCCCCCFFCCFF00CCFF33CCFF66CCFF99CCFFCCCCFFFFFF0000FF0033FF0066FF0099FF00CCFF00FFFF3300FF3333
310
FF3366FF3399FF33CCFF33FFFF6600FF6633FF6666FF6699FF66CCFF66FFFF9900FF9933FF9966FF9999FF99CCFF99FFFFCC00FFCC33FFCC66FFCC99FFCCCCFFCCFFFFFF00FFFF33FFFF66FFFF99FFFFCCFFFFFF0000000D0D0D1A1A1A2828283535354343435050505D5D5D6B6B6B787878868686939393A1A1A1AEAEAEBB
310
BBBBC9C9C9D6D6D6E4E4E4F1F1F1FFFFFF000000000000000000000000000000000000000000000000000000000000AD4AB4E4000001CE4944415478DAEDDD518EC2201000506EB247E4607BB53DC4C675D502D3D40F9B74E04D8C31539A32CF52A98958EAE2516A593A000000000000000000000000000000000000000000
310
00000000000000000000000000000000000000000000000000000000000000000000000000000000000000000000602FBE4F8FAB033C5E7C7D3AFA030000000000000000000000000000800B02DCD62AEB4AA841EE9E3D6CF7B7F2593A80BEA65774B5ED356CF3D986C0B3FFAFC5EB1E67465BDED0B069F7DC967208B4B5DF
310
0E382ABC9EB7C5B7CD920E81A6F87BAE3962BFBA61DCB16E7B2E80F19075CC040DFB443E807316C0CC74069C557FC66BC047EB4F04305EEDE21EEC6F6C366403300400B806D4E062107EB44789DAED941920781BFFD7B5DE4C92C3C466AF39004ADD9B270F46BD5A6A80CDA3B4B93A2482BD0000000000000000934D848E01
310
4C84E61E027B53E15500FA9BBEE13670D933A0AE01F046DF00000030F144E81D80792642F197A2877DCBFAA5E8D97F11787980D57F32932A0000000000000000000000000000000000000000000000000000000000000000000000000000000000000000000000000000000000000000000000000000000000000000000000
310
53002C1EE567F1F805BE456C45611E08490000000049454E44AE426082
  0
ACDSRECORD
 90
        0
  2
AcDbDs::ID
280
    10
320
73
  2
Thumbnail_Data
280
    15
 94
      997
310
89504E470D0A1A0A0000000D494844520000010000000065080300000095E2CD0900000300504C5445FFFFFFFFFFFFFFFFFF0000000000000000000000000000000000000000000000000000330000660000990000CC0000FF0033000033330033660033990033CC0033FF0066000066330066660066990066CC0066FF0099
310
000099330099660099990099CC0099FF00CC0000CC3300CC6600CC9900CCCC00CCFF00FF0000FF3300FF6600FF9900FFCC00FFFF3300003300333300663300993300CC3300FF3333003333333333663333993333CC3333FF3366003366333366663366993366CC3366FF3399003399333399663399993399CC3399FF33CC00
310
33CC3333CC6633CC9933CCCC33CCFF33FF0033FF3333FF6633FF9933FFCC33FFFF6600006600336600666600996600CC6600FF6633006633336633666633996633CC6633FF6666006666336666666666996666CC6666FF6699006699336699666699996699CC6699FF66CC0066CC3366CC6666CC9966CCCC66CCFF66FF0066
310
FF3366FF6666FF9966FFCC66FFFF9900009900339900669900999900CC9900FF9933009933339933669933999933CC9933FF9966009966339966669966999966CC9966FF9999009999339999669999999999CC9999FF99CC0099CC3399CC6699CC9999CCCC99CCFF99FF0099FF3399FF6699FF9999FFCC99FFFFCC0000CC00
310
33CC0066CC0099CC00CCCC00FFCC3300CC3333CC3366CC3399CC33CCCC33FFCC6600CC6633CC6666CC6699CC66CCCC66FFCC9900CC9933CC9966CC9999CC99CCCC99FFCCCC00CCCC33CCCC66CCCC99CCCCCCCCCCFFCCFF00CCFF33CCFF66CCFF99CCFFCCCCFFFFFF0000FF0033FF0066FF0099FF00CCFF00FFFF3300FF3333
310
FF3366FF3399FF33CCFF33FFFF6600FF6633FF6666FF6699FF66CCFF66FFFF9900FF9933FF9966FF9999FF99CCFF99FFFFCC00FFCC33FFCC66FFCC99FFCCCCFFCCFFFFFF00FFFF33FFFF66FFFF99FFFFCCFFFFFF0000000D0D0D1A1A1A2828283535354343435050505D5D5D6B6B6B787878868686939393A1A1A1AEAEAEBB
310
BBBBC9C9C9D6D6D6E4E4E4F1F1F1FFFFFF000000000000000000000000000000000000000000000000000000000000AD4AB4E4000000A04944415478DAEDD8410E40400C40D1DEFF983D090B0B82C9242C68DFDB4DC6C64F191101C047E523020820800002082080000208D0F3FE4D40B900EB7AD0E4BC5BE9FEB775E4E564
310
1C77EB04C8ECFE12681FC031E8113002EDBF032E0EB6C3EA7EAB7280D807880E01627602A24780FB091040000104700C9A00DF0102940E30BA5E00011A1C8333FF0F7E1F20DF23000000000000000000000000000040130B0A20C0E7FD7AF9800000000049454E44AE426082
  0
ENDSEC
  0
EOF
