  0
SECTION
  2
HEADER
  9
$ACADVER
  1
AC1032
  9
$ACADMAINTVER
 90
      204
  9
$DWGCODEPAGE
  3
ANSI_1252
  9
$LASTSAVEDBY
  1
duda-
  9
$REQUIREDVERSIONS
160
                 0
  9
$INSBASE
 10
0.0
 20
0.0
 30
0.0
  9
$EXTMIN
 10
-61119.15140425193
 20
-8343.167192893025
 30
0.0
  9
$EXTMAX
 10
-36663.05381630026
 20
-1344.583292753738
 30
0.0
  9
$LIMMIN
 10
0.0
 20
0.0
  9
$LIMMAX
 10
12.0
 20
9.0
  9
$ORTHOMODE
 70
     0
  9
$REGENMODE
 70
     1
  9
$FILLMODE
 70
     1
  9
$QTEXTMODE
 70
     0
  9
$MIRRTEXT
 70
     0
  9
$LTSCALE
 40
1.0
  9
$ATTMODE
 70
     1
  9
$TEXTSIZE
 40
0.2
  9
$TRACEWID
 40
0.05
  9
$TEXTSTYLE
  7
Standard
  9
$CLAYER
  8
0
  9
$CELTYPE
  6
ByLayer
  9
$CECOLOR
 62
   256
  9
$CELTSCALE
 40
1.0
  9
$DISPSILH
 70
     0
  9
$DIMSCALE
 40
1.0
  9
$DIMASZ
 40
0.18
  9
$DIMEXO
 40
0.0625
  9
$DIMDLI
 40
0.38
  9
$DIMRND
 40
0.0
  9
$DIMDLE
 40
0.0
  9
$DIMEXE
 40
0.18
  9
$DIMTP
 40
0.0
  9
$DIMTM
 40
0.0
  9
$DIMTXT
 40
0.18
  9
$DIMCEN
 40
0.09
  9
$DIMTSZ
 40
0.0
  9
$DIMTOL
 70
     0
  9
$DIMLIM
 70
     0
  9
$DIMTIH
 70
     1
  9
$DIMTOH
 70
     1
  9
$DIMSE1
 70
     0
  9
$DIMSE2
 70
     0
  9
$DIMTAD
 70
     0
  9
$DIMZIN
 70
     0
  9
$DIMBLK
  1

  9
$DIMASO
 70
     1
  9
$DIMSHO
 70
     1
  9
$DIMPOST
  1

  9
$DIMAPOST
  1

  9
$DIMALT
 70
     0
  9
$DIMALTD
 70
     2
  9
$DIMALTF
 40
25.4
  9
$DIMLFAC
 40
1.0
  9
$DIMTOFL
 70
     0
  9
$DIMTVP
 40
0.0
  9
$DIMTIX
 70
     0
  9
$DIMSOXD
 70
     0
  9
$DIMSAH
 70
     0
  9
$DIMBLK1
  1

  9
$DIMBLK2
  1

  9
$DIMSTYLE
  2
Standard
  9
$DIMCLRD
 70
     0
  9
$DIMCLRE
 70
     0
  9
$DIMCLRT
 70
     0
  9
$DIMTFAC
 40
1.0
  9
$DIMGAP
 40
0.09
  9
$DIMJUST
 70
     0
  9
$DIMSD1
 70
     0
  9
$DIMSD2
 70
     0
  9
$DIMTOLJ
 70
     1
  9
$DIMTZIN
 70
     0
  9
$DIMALTZ
 70
     0
  9
$DIMALTTZ
 70
     0
  9
$DIMUPT
 70
     0
  9
$DIMDEC
 70
     4
  9
$DIMTDEC
 70
     4
  9
$DIMALTU
 70
     2
  9
$DIMALTTD
 70
     2
  9
$DIMTXSTY
  7
Standard
  9
$DIMAUNIT
 70
     0
  9
$DIMADEC
 70
     0
  9
$DIMALTRND
 40
0.0
  9
$DIMAZIN
 70
     0
  9
$DIMDSEP
 70
    46
  9
$DIMATFIT
 70
     3
  9
$DIMFRAC
 70
     0
  9
$DIMLDRBLK
  1

  9
$DIMLUNIT
 70
     2
  9
$DIMLWD
 70
    -2
  9
$DIMLWE
 70
    -2
  9
$DIMTMOVE
 70
     0
  9
$DIMFXL
 40
1.0
  9
$DIMFXLON
 70
     0
  9
$DIMJOGANG
 40
0.7853981633974483
  9
$DIMTFILL
 70
     0
  9
$DIMTFILLCLR
 70
     0
  9
$DIMARCSYM
 70
     0
  9
$DIMLTYPE
  6

  9
$DIMLTEX1
  6

  9
$DIMLTEX2
  6

  9
$DIMTXTDIRECTION
 70
     0
  9
$LUNITS
 70
     2
  9
$LUPREC
 70
     4
  9
$SKETCHINC
 40
0.1
  9
$FILLETRAD
 40
0.0
  9
$AUNITS
 70
     0
  9
$AUPREC
 70
     0
  9
$MENU
  1
.
  9
$ELEVATION
 40
0.0
  9
$PELEVATION
 40
0.0
  9
$THICKNESS
 40
0.0
  9
$LIMCHECK
 70
     0
  9
$CHAMFERA
 40
0.0
  9
$CHAMFERB
 40
0.0
  9
$CHAMFERC
 40
0.0
  9
$CHAMFERD
 40
0.0
  9
$SKPOLY
 70
     0
  9
$TDCREATE
 40
2460730.856006945
  9
$TDUCREATE
 40
2460730.981006945
  9
$TDUPDATE
 40
2460739.016678241
  9
$TDUUPDATE
 40
2460739.141678241
  9
$TDINDWG
 40
0.0127314815
  9
$TDUSRTIMER
 40
0.0127314815
  9
$USRTIMER
 70
     1
  9
$ANGBASE
 50
0.0
  9
$ANGDIR
 70
     0
  9
$PDMODE
 70
     0
  9
$PDSIZE
 40
0.0
  9
$PLINEWID
 40
0.0
  9
$SPLFRAME
 70
     0
  9
$SPLINETYPE
 70
     6
  9
$SPLINESEGS
 70
     8
  9
$HANDSEED
  5
360
  9
$SURFTAB1
 70
     6
  9
$SURFTAB2
 70
     6
  9
$SURFTYPE
 70
     6
  9
$SURFU
 70
     6
  9
$SURFV
 70
     6
  9
$UCSBASE
  2

  9
$UCSNAME
  2

  9
$UCSORG
 10
0.0
 20
0.0
 30
0.0
  9
$UCSXDIR
 10
1.0
 20
0.0
 30
0.0
  9
$UCSYDIR
 10
0.0
 20
1.0
 30
0.0
  9
$UCSORTHOREF
  2

  9
$UCSORTHOVIEW
 70
     0
  9
$UCSORGTOP
 10
0.0
 20
0.0
 30
0.0
  9
$UCSORGBOTTOM
 10
0.0
 20
0.0
 30
0.0
  9
$UCSORGLEFT
 10
0.0
 20
0.0
 30
0.0
  9
$UCSORGRIGHT
 10
0.0
 20
0.0
 30
0.0
  9
$UCSORGFRONT
 10
0.0
 20
0.0
 30
0.0
  9
$UCSORGBACK
 10
0.0
 20
0.0
 30
0.0
  9
$PUCSBASE
  2

  9
$PUCSNAME
  2

  9
$PUCSORG
 10
0.0
 20
0.0
 30
0.0
  9
$PUCSXDIR
 10
1.0
 20
0.0
 30
0.0
  9
$PUCSYDIR
 10
0.0
 20
1.0
 30
0.0
  9
$PUCSORTHOREF
  2

  9
$PUCSORTHOVIEW
 70
     0
  9
$PUCSORGTOP
 10
0.0
 20
0.0
 30
0.0
  9
$PUCSORGBOTTOM
 10
0.0
 20
0.0
 30
0.0
  9
$PUCSORGLEFT
 10
0.0
 20
0.0
 30
0.0
  9
$PUCSORGRIGHT
 10
0.0
 20
0.0
 30
0.0
  9
$PUCSORGFRONT
 10
0.0
 20
0.0
 30
0.0
  9
$PUCSORGBACK
 10
0.0
 20
0.0
 30
0.0
  9
$USERI1
 70
     0
  9
$USERI2
 70
     0
  9
$USERI3
 70
     0
  9
$USERI4
 70
     0
  9
$USERI5
 70
     0
  9
$USERR1
 40
0.0
  9
$USERR2
 40
0.0
  9
$USERR3
 40
0.0
  9
$USERR4
 40
0.0
  9
$USERR5
 40
0.0
  9
$WORLDVIEW
 70
     1
  9
$SHADEDGE
 70
     3
  9
$SHADEDIF
 70
    70
  9
$TILEMODE
 70
     1
  9
$MAXACTVP
 70
    64
  9
$PINSBASE
 10
0.0
 20
0.0
 30
0.0
  9
$PLIMCHECK
 70
     0
  9
$PEXTMIN
 10
20.76884200533789
 20
102.9849099062627
 30
-0.0015258207003583
  9
$PEXTMAX
 10
317.8025497169167
 20
313.0095527307103
 30
0.0000000349246037
  9
$PLIMMIN
 10
20.76884200533789
 20
102.9849099062627
  9
$PLIMMAX
 10
317.9612673821897
 20
313.1209682535316
  9
$UNITMODE
 70
     0
  9
$VISRETAIN
 70
     1
  9
$PLINEGEN
 70
     0
  9
$PSLTSCALE
 70
     0
  9
$TREEDEPTH
 70
  3020
  9
$CMLSTYLE
  2
Standard
  9
$CMLJUST
 70
     0
  9
$CMLSCALE
 40
1.0
  9
$PROXYGRAPHICS
 70
     1
  9
$MEASUREMENT
 70
     1
  9
$CELWEIGHT
370
    -1
  9
$ENDCAPS
280
     0
  9
$JOINSTYLE
280
     0
  9
$LWDISPLAY
290
     0
  9
$INSUNITS
 70
     4
  9
$HYPERLINKBASE
  1

  9
$STYLESHEET
  1

  9
$XEDIT
290
     1
  9
$CEPSNTYPE
380
     0
  9
$PSTYLEMODE
290
     1
  9
$FINGERPRINTGUID
  2
{FFD7B079-5459-DF4F-912B-EEC539E65542}
  9
$VERSIONGUID
  2
{82F16CF0-6FE7-884A-A4A6-34A3E60B5A67}
  9
$EXTNAMES
290
     1
  9
$PSVPSCALE
 40
0.0
  9
$OLESTARTUP
290
     0
  9
$SORTENTS
280
   127
  9
$INDEXCTL
280
     0
  9
$HIDETEXT
280
     1
  9
$XCLIPFRAME
280
     2
  9
$HALOGAP
280
     0
  9
$OBSCOLOR
 70
   257
  9
$OBSLTYPE
280
     0
  9
$INTERSECTIONDISPLAY
280
     0
  9
$INTERSECTIONCOLOR
 70
   257
  9
$DIMASSOC
280
     2
  9
$PROJECTNAME
  1

  9
$CAMERADISPLAY
290
     0
  9
$LENSLENGTH
 40
50.0
  9
$CAMERAHEIGHT
 40
0.0
  9
$STEPSPERSEC
 40
2.0
  9
$STEPSIZE
 40
6.0
  9
$3DDWFPREC
 40
2.0
  9
$PSOLWIDTH
 40
0.25
  9
$PSOLHEIGHT
 40
4.0
  9
$LOFTANG1
 40
1.570796326794896
  9
$LOFTANG2
 40
1.570796326794896
  9
$LOFTMAG1
 40
0.0
  9
$LOFTMAG2
 40
0.0
  9
$LOFTPARAM
 70
     7
  9
$LOFTNORMALS
280
     1
  9
$LATITUDE
 40
0.0
  9
$LONGITUDE
 40
0.0
  9
$NORTHDIRECTION
 40
0.0
  9
$TIMEZONE
 70
     0
  9
$LIGHTGLYPHDISPLAY
280
     1
  9
$TILEMODELIGHTSYNCH
280
     1
  9
$CMATERIAL
347
11
  9
$SOLIDHIST
280
     0
  9
$SHOWHIST
280
     1
  9
$DWFFRAME
280
     2
  9
$DGNFRAME
280
     0
  9
$REALWORLDSCALE
290
     1
  9
$INTERFERECOLOR
 62
     1
  9
$INTERFEREOBJVS
345
33
  9
$INTERFEREVPVS
346
30
  9
$CSHADOW
280
     0
  9
$SHADOWPLANELOCATION
 40
0.0
  0
ENDSEC
  0
SECTION
  2
CLASSES
  0
CLASS
  1
ACDBDICTIONARYWDFLT
  2
AcDbDictionaryWithDefault
  3
ObjectDBX Classes
 90
        0
 91
        1
280
     0
281
     0
  0
CLASS
  1
MATERIAL
  2
AcDbMaterial
  3
ObjectDBX Classes
 90
     1153
 91
        3
280
     0
281
     0
  0
CLASS
  1
VISUALSTYLE
  2
AcDbVisualStyle
  3
ObjectDBX Classes
 90
     4095
 91
       24
280
     0
281
     0
  0
CLASS
  1
SCALE
  2
AcDbScale
  3
ObjectDBX Classes
 90
     1153
 91
       17
280
     0
281
     0
  0
CLASS
  1
TABLESTYLE
  2
AcDbTableStyle
  3
ObjectDBX Classes
 90
     4095
 91
        1
280
     0
281
     0
  0
CLASS
  1
MLEADERSTYLE
  2
AcDbMLeaderStyle
  3
ACDB_MLEADERSTYLE_CLASS
 90
     4095
 91
        1
280
     0
281
     0
  0
CLASS
  1
ACDBSECTIONVIEWSTYLE
  2
AcDbSectionViewStyle
  3
ObjectDBX Classes
 90
     1025
 91
        2
280
     0
281
     0
  0
CLASS
  1
ACDBDETAILVIEWSTYLE
  2
AcDbDetailViewStyle
  3
ObjectDBX Classes
 90
     1025
 91
        2
280
     0
281
     0
  0
CLASS
  1
RASTERVARIABLES
  2
AcDbRasterVariables
  3
ISM
 90
        0
 91
        1
280
     0
281
     0
  0
CLASS
  1
DICTIONARYVAR
  2
AcDbDictionaryVar
  3
ObjectDBX Classes
 90
        0
 91
        5
280
     0
281
     0
  0
CLASS
  1
SORTENTSTABLE
  2
AcDbSortentsTable
  3
ObjectDBX Classes
 90
        0
 91
        1
280
     0
281
     0
  0
CLASS
  1
SUN
  2
AcDbSun
  3
SCENEOE
 90
     1153
 91
        1
280
     0
281
     0
  0
CLASS
  1
RAPIDRTRENDERSETTINGS
  2
AcDbRapidRTRenderSettings
  3
ObjectDBX Classes
 90
     1024
 91
        7
280
     0
281
     0
  0
CLASS
  1
CELLSTYLEMAP
  2
AcDbCellStyleMap
  3
ObjectDBX Classes
 90
     1152
 91
        1
280
     0
281
     0
  0
ENDSEC
  0
SECTION
  2
TABLES
  0
TABLE
  2
VPORT
  5
8
330
0
100
AcDbSymbolTable
 70
     1
  0
VPORT
  5
57
330
8
100
AcDbSymbolTableRecord
100
AcDbViewportTableRecord
  2
*Active
 70
     0
 10
0.0
 20
0.0
 11
1.0
 21
1.0
 12
-39471.58029728958
 22
-6890.057007957628
 13
0.0
 23
0.0
 14
1.0
 24
1.0
 15
0.0
 25
0.0
 16
0.0
 26
0.0
 36
1.0
 17
0.0
 27
0.0
 37
0.0
 40
29363.40289869058
 41
2.159362549800796
 42
50.0
 43
0.0
 44
0.0
 50
0.0
 51
0.0
 71
     0
 72
  1000
 73
     1
 74
     1
 75
     0
 76
     0
 77
     0
 78
     0
281
     0
 65
     1
110
0.0
120
0.0
130
0.0
111
1.0
121
0.0
131
0.0
112
0.0
122
1.0
132
0.0
 79
     0
146
0.0
348
2F
 60
     3
 61
     5
292
     1
282
     1
141
0.0
142
0.0
 63
   250
421
  3355443
361
2CC
1001
ACAD_NAV_VCDISPLAY
1070
     3
  0
ENDTAB
  0
TABLE
  2
LTYPE
  5
5
330
0
100
AcDbSymbolTable
 70
     1
  0
LTYPE
  5
5B
330
5
100
AcDbSymbolTableRecord
100
AcDbLinetypeTableRecord
  2
ByBlock
 70
     0
  3

 72
    65
 73
     0
 40
0.0
  0
LTYPE
  5
5C
330
5
100
AcDbSymbolTableRecord
100
AcDbLinetypeTableRecord
  2
ByLayer
 70
     0
  3

 72
    65
 73
     0
 40
0.0
  0
LTYPE
  5
5D
330
5
100
AcDbSymbolTableRecord
100
AcDbLinetypeTableRecord
  2
Continuous
 70
     0
  3
Solid line
 72
    65
 73
     0
 40
0.0
  0
ENDTAB
  0
TABLE
  2
LAYER
  5
2
102
{ACAD_XDICTIONARY
360
2E9
102
}
330
0
100
AcDbSymbolTable
 70
     7
  0
LAYER
  5
54
330
2
100
AcDbSymbolTableRecord
100
AcDbLayerTableRecord
  2
0
 70
     0
 62
   250
  6
Continuous
370
    25
390
F
347
21
348
0
  0
LAYER
  5
81
330
2
100
AcDbSymbolTableRecord
100
AcDbLayerTableRecord
  2
A-COB-___-___-EXI
 70
     0
 62
   250
  6
Continuous
370
    25
390
F
347
21
348
0
  0
LAYER
  5
F9
330
2
100
AcDbSymbolTableRecord
100
AcDbLayerTableRecord
  2
A-POR-___-___-EXI
 70
     0
 62
   250
  6
Continuous
370
    25
390
F
347
21
348
0
  0
LAYER
  5
1B5
330
2
100
AcDbSymbolTableRecord
100
AcDbLayerTableRecord
  2
A-JAN-___-___-EXI
 70
     0
 62
   250
  6
Continuous
370
    25
390
F
347
21
348
0
  0
LAYER
  5
2B5
330
2
100
AcDbSymbolTableRecord
100
AcDbLayerTableRecord
  2
A-ALV-___-___-EXI
 70
     0
 62
   250
  6
Continuous
370
    35
390
F
347
21
348
0
  0
LAYER
  5
2BB
330
2
100
AcDbSymbolTableRecord
100
AcDbLayerTableRecord
  2
A-ESC-___-___-EXI
 70
     0
 62
   250
  6
Continuous
370
    25
390
F
347
21
348
0
  0
LAYER
  5
2BD
330
2
100
AcDbSymbolTableRecord
100
AcDbLayerTableRecord
  2
A-BAS-___-___-EXI
 70
     0
 62
   250
  6
Continuous
370
    25
390
F
347
21
348
0
  0
ENDTAB
  0
TABLE
  2
STYLE
  5
3
330
0
100
AcDbSymbolTable
 70
     2
  0
STYLE
  5
55
330
3
100
AcDbSymbolTableRecord
100
AcDbTextStyleTableRecord
  2
Standard
 70
     0
 40
0.0
 41
1.0
 50
0.0
 71
     0
 42
0.2
  3
txt
  4

  0
STYLE
  5
5A
330
3
100
AcDbSymbolTableRecord
100
AcDbTextStyleTableRecord
  2
Annotative
 70
     0
 40
0.0
 41
1.0
 50
0.0
 71
     0
 42
0.2
  3
txt
  4

1001
AcadAnnotative
1000
AnnotativeData
1002
{
1070
     1
1070
     1
1002
}
  0
ENDTAB
  0
TABLE
  2
VIEW
  5
6
330
0
100
AcDbSymbolTable
 70
     0
  0
ENDTAB
  0
TABLE
  2
UCS
  5
7
330
0
100
AcDbSymbolTable
 70
     0
  0
ENDTAB
  0
TABLE
  2
APPID
  5
9
330
0
100
AcDbSymbolTable
 70
     5
  0
APPID
  5
56
330
9
100
AcDbSymbolTableRecord
100
AcDbRegAppTableRecord
  2
ACAD
 70
     0
  0
APPID
  5
5E
330
9
100
AcDbSymbolTableRecord
100
AcDbRegAppTableRecord
  2
AcadAnnotative
 70
     0
  0
APPID
  5
78
330
9
100
AcDbSymbolTableRecord
100
AcDbRegAppTableRecord
  2
REVIT
 70
     0
  0
APPID
  5
2DC
330
9
100
AcDbSymbolTableRecord
100
AcDbRegAppTableRecord
  2
ACAD_PSEXT
 70
     0
  0
APPID
  5
336
330
9
100
AcDbSymbolTableRecord
100
AcDbRegAppTableRecord
  2
ACAD_NAV_VCDISPLAY
 70
     0
  0
ENDTAB
  0
TABLE
  2
DIMSTYLE
  5
A
330
0
100
AcDbSymbolTable
 70
     2
100
AcDbDimStyleTable
 71
     0
  0
DIMSTYLE
105
58
330
A
100
AcDbSymbolTableRecord
100
AcDbDimStyleTableRecord
  2
Standard
 70
     0
340
55
  0
DIMSTYLE
105
59
330
A
100
AcDbSymbolTableRecord
100
AcDbDimStyleTableRecord
  2
Annotative
 70
     0
340
55
1001
AcadAnnotative
1000
AnnotativeData
1002
{
1070
     1
1070
     1
1002
}
  0
ENDTAB
  0
TABLE
  2
BLOCK_RECORD
  5
1
330
0
100
AcDbSymbolTable
 70
     1
  0
BLOCK_RECORD
  5
70
102
{ACAD_XDICTIONARY
360
2CA
102
}
330
1
100
AcDbSymbolTableRecord
100
AcDbBlockTableRecord
  2
*Model_Space
340
73
 70
     0
280
     1
281
     0
  0
BLOCK_RECORD
  5
6C
330
1
100
AcDbSymbolTableRecord
100
AcDbBlockTableRecord
  2
*Paper_Space
340
6F
 70
     0
280
     1
281
     0
  0
BLOCK_RECORD
  5
2BC
330
1
100
AcDbSymbolTableRecord
100
AcDbBlockTableRecord
  2
A4 HORIZONTAL - A4-22958813-Não nomeada
340
0
102
{BLKREFS
331
2C4
102
}
 70
     0
280
     1
281
     0
  0
ENDTAB
  0
ENDSEC
  0
SECTION
  2
BLOCKS
  0
BLOCK
  5
71
330
70
100
AcDbEntity
  8
0
100
AcDbBlockBegin
  2
*Model_Space
 70
     0
 10
0.0
 20
0.0
 30
0.0
  3
*Model_Space
  1

  0
ENDBLK
  5
72
330
70
100
AcDbEntity
  8
0
100
AcDbBlockEnd
  0
BLOCK
  5
6D
330
6C
100
AcDbEntity
 67
     1
  8
0
100
AcDbBlockBegin
  2
*Paper_Space
 70
     0
 10
0.0
 20
0.0
 30
0.0
  3
*Paper_Space
  1

  0
ENDBLK
  5
6E
330
6C
100
AcDbEntity
 67
     1
  8
0
100
AcDbBlockEnd
  0
BLOCK
  5
2C2
330
2BC
100
AcDbEntity
  8
0
100
AcDbBlockBegin
  2
A4 HORIZONTAL - A4-22958813-Não nomeada
 70
     0
 10
0.0
 20
0.0
 30
0.0
  3
A4 HORIZONTAL - A4-22958813-Não nomeada
  1

  0
LINE
  5
2BE
330
2BC
100
AcDbEntity
  8
A-BAS-___-___-EXI
100
AcDbLine
 10
317.7928507088368
 20
312.9999999999862
 30
0.0
 11
20.7928507088368
 21
312.9999999999856
 31
0.0
1001
REVIT
1002
{
1070
     1
1000
22957368
1002
}
1002
{
1070
     5
1000
22958813
1002
}
1002
{
1070
     3
1000
-2000281
1002
}
  0
LINE
  5
2BF
330
2BC
100
AcDbEntity
  8
A-BAS-___-___-EXI
100
AcDbLine
 10
20.7928507088368
 20
312.9999999999856
 30
0.0
 11
20.7928507088372
 21
102.9999999999856
 31
0.0
1001
REVIT
1002
{
1070
     1
1000
22957368
1002
}
1002
{
1070
     5
1000
22958813
1002
}
1002
{
1070
     3
1000
-2000281
1002
}
  0
LINE
  5
2C0
330
2BC
100
AcDbEntity
  8
A-BAS-___-___-EXI
100
AcDbLine
 10
20.7928507088372
 20
102.9999999999855
 30
0.0
 11
317.7928507088372
 21
102.9999999999861
 31
0.0
1001
REVIT
1002
{
1070
     1
1000
22957368
1002
}
1002
{
1070
     5
1000
22958813
1002
}
1002
{
1070
     3
1000
-2000281
1002
}
  0
LINE
  5
2C1
330
2BC
100
AcDbEntity
  8
A-BAS-___-___-EXI
100
AcDbLine
 10
317.7928507088372
 20
102.9999999999861
 30
0.0
 11
317.7928507088368
 21
312.9999999999862
 31
0.0
1001
REVIT
1002
{
1070
     1
1000
22957368
1002
}
1002
{
1070
     5
1000
22958813
1002
}
1002
{
1070
     3
1000
-2000281
1002
}
  0
ENDBLK
  5
2C3
330
2BC
100
AcDbEntity
  8
0
100
AcDbBlockEnd
  0
ENDSEC
  0
SECTION
  2
ENTITIES
  0
HATCH
  5
8D
330
70
100
AcDbEntity
  8
A-BAS-___-___-EXI
 62
   253
420
 13342872
100
AcDbHatch
 10
0.0
 20
0.0
 30
0.0
210
0.0
220
0.0
230
1.0
  2
SOLID
 70
     1
 71
     0
 91
        1
 92
        1
 93
       10
 72
     1
 10
-39272.39955047084
 20
-8343.167192893025
 11
-36663.05381630029
 21
-8343.167192893025
 72
     1
 10
-36663.05381630029
 20
-8343.167192893025
 11
-36663.05381630029
 21
-7945.835651242449
 72
     1
 10
-36663.05381630029
 20
-7945.835651242449
 11
-39189.08742719616
 21
-7945.835651242449
 72
     1
 10
-39189.08742719616
 20
-7945.835651242449
 11
-39189.08742719616
 21
-7767.049984728007
 72
     1
 10
-39189.08742719616
 20
-7767.049984728007
 11
-50090.4205704155
 21
-7767.049984727973
 72
     1
 10
-50090.4205704155
 20
-7767.049984727973
 11
-50090.4205704155
 21
-7867.049984727955
 72
     1
 10
-50090.4205704155
 20
-7867.049984727955
 11
-61119.15140425193
 21
-7867.049984727916
 72
     1
 10
-61119.15140425193
 20
-7867.049984727916
 11
-61119.15140425193
 21
-8343.167192893025
 72
     1
 10
-61119.15140425193
 20
-8343.167192893025
 11
-47439.89955047084
 21
-8343.167192893025
 72
     1
 10
-47439.89955047084
 20
-8343.167192893025
 11
-39272.39955047084
 21
-8343.167192893025
 97
        0
 75
     0
 76
     1
 98
        1
 10
0.0
 20
0.0
450
        0
451
        0
460
0.0
461
0.0
452
        0
462
0.0
453
        0
470

1001
REVIT
1002
{
1070
     1
1000
22953156
1002
}
1002
{
1070
     5
1000
383807
1002
}
1002
{
1070
     2
1000
-2002000
1002
}
  0
HATCH
  5
A9
330
70
100
AcDbEntity
  8
A-ALV-___-___-EXI
 62
    11
100
AcDbHatch
 10
0.0
 20
0.0
 30
0.0
210
0.0
220
0.0
230
1.0
  2
SOLID
 70
     1
 71
     0
 91
        6
 92
        1
 93
        5
 72
     1
 10
-39272.39955047084
 20
-7767.049984728007
 11
-39189.08742719616
 21
-7767.049984728007
 72
     1
 10
-39189.08742719616
 20
-7767.049984728007
 11
-39189.08742719616
 21
-7067.049984728004
 72
     1
 10
-39189.08742719616
 20
-7067.049984728004
 11
-39369.08742719616
 21
-7067.049984728004
 72
     1
 10
-39369.08742719616
 20
-7067.049984728004
 11
-39369.08742719616
 21
-7767.049984728007
 72
     1
 10
-39369.08742719616
 20
-7767.049984728007
 11
-39272.39955047084
 21
-7767.049984728007
 97
        0
 92
        1
 93
        4
 72
     1
 10
-50090.4205704155
 20
-7767.049984727973
 11
-49930.42057041549
 21
-7767.049984727973
 72
     1
 10
-49930.42057041549
 20
-7767.049984727973
 11
-49930.42057041549
 21
-5947.04998472797
 72
     1
 10
-49930.42057041549
 20
-5947.04998472797
 11
-50090.4205704155
 21
-5947.04998472797
 72
     1
 10
-50090.4205704155
 20
-5947.04998472797
 11
-50090.4205704155
 21
-7767.049984727973
 97
        0
 92
        1
 93
        5
 72
     1
 10
-46074.99266747056
 20
-5556.216763787421
 11
-45894.99266747055
 21
-5556.216763787421
 72
     1
 10
-45894.99266747055
 20
-5556.216763787421
 11
-45894.99266747055
 21
-4198.275174883712
 72
     1
 10
-45894.99266747055
 20
-4198.275174883712
 11
-46074.99266747056
 21
-4198.275174883712
 72
     1
 10
-46074.99266747056
 20
-4198.275174883712
 11
-46074.99266747056
 21
-4843.621415836511
 72
     1
 10
-46074.99266747056
 20
-4843.621415836511
 11
-46074.99266747056
 21
-5556.216763787421
 97
        0
 92
        1
 93
        4
 72
     1
 10
-43529.08742719616
 20
-5218.275174883714
 11
-43529.08742719616
 21
-4198.275174883712
 72
     1
 10
-43529.08742719616
 20
-4198.275174883712
 11
-43709.08742719616
 21
-4198.275174883712
 72
     1
 10
-43709.08742719616
 20
-4198.275174883712
 11
-43709.08742719616
 21
-5218.275174883714
 72
     1
 10
-43709.08742719616
 20
-5218.275174883714
 11
-43529.08742719616
 21
-5218.275174883714
 97
        0
 92
        1
 93
        5
 72
     1
 10
-39369.08742719616
 20
-5098.275174883713
 11
-39189.08742719616
 21
-5098.275174883713
 72
     1
 10
-39189.08742719616
 20
-5098.275174883713
 11
-39189.08742719616
 21
-4198.275174883712
 72
     1
 10
-39189.08742719616
 20
-4198.275174883712
 11
-39369.08742719616
 21
-4198.275174883712
 72
     1
 10
-39369.08742719616
 20
-4198.275174883712
 11
-39369.08742719616
 21
-4843.621415836511
 72
     1
 10
-39369.08742719616
 20
-4843.621415836511
 11
-39369.08742719616
 21
-5098.275174883713
 97
        0
 92
        1
 93
        4
 72
     1
 10
-49930.42057041549
 20
-4566.307078354793
 11
-49930.42057041549
 21
-3967.820050150282
 72
     1
 10
-49930.42057041549
 20
-3967.820050150282
 11
-50090.4205704155
 21
-3967.820050150282
 72
     1
 10
-50090.4205704155
 20
-3967.820050150282
 11
-50090.4205704155
 21
-4566.307078354793
 72
     1
 10
-50090.4205704155
 20
-4566.307078354793
 11
-49930.42057041549
 21
-4566.307078354793
 97
        0
 75
     0
 76
     1
 98
        1
 10
0.0
 20
0.0
450
        0
451
        0
460
0.0
461
0.0
452
        0
462
0.0
453
        0
470

1001
REVIT
1002
{
1070
     1
1000
22953164
1002
}
1002
{
1070
     5
1000
383807
1002
}
1002
{
1070
     2
1000
-2002000
1002
}
  0
HATCH
  5
F8
330
70
100
AcDbEntity
  8
A-COB-___-___-EXI
 62
    33
420
 12688002
100
AcDbHatch
 10
0.0
 20
0.0
 30
0.0
210
0.0
220
0.0
230
1.0
  2
SOLID
 70
     1
 71
     0
 91
       14
 92
        1
 93
        5
 72
     1
 10
-39272.39955047084
 20
-7067.049984728004
 11
-39189.08742719616
 21
-7067.049984728004
 72
     1
 10
-39189.08742719616
 20
-7067.049984728004
 11
-39189.08742719616
 21
-6927.049984728005
 72
     1
 10
-39189.08742719616
 20
-6927.049984728005
 11
-39369.08742719616
 21
-6927.049984728005
 72
     1
 10
-39369.08742719616
 20
-6927.049984728005
 11
-39369.08742719616
 21
-7067.049984728004
 72
     1
 10
-39369.08742719616
 20
-7067.049984728004
 11
-39272.39955047084
 21
-7067.049984728004
 97
        0
 92
        1
 93
        4
 72
     1
 10
-49930.42057041549
 20
-5947.049984727968
 11
-49930.42057041549
 21
-5857.517937061643
 72
     1
 10
-49930.42057041549
 20
-5857.517937061643
 11
-50090.4205704155
 21
-5857.517937061643
 72
     1
 10
-50090.4205704155
 20
-5857.517937061643
 11
-50090.4205704155
 21
-5947.049984727968
 72
     1
 10
-50090.4205704155
 20
-5947.049984727968
 11
-49930.42057041549
 21
-5947.049984727968
 97
        0
 92
        1
 93
        4
 72
     1
 10
-45894.99266747055
 20
-5676.216763787422
 11
-45894.99266747055
 21
-5556.216763787421
 72
     1
 10
-45894.99266747055
 20
-5556.216763787421
 11
-46074.99266747056
 21
-5556.216763787421
 72
     1
 10
-46074.99266747056
 20
-5556.216763787421
 11
-46074.99266747056
 21
-5676.216763787422
 72
     1
 10
-46074.99266747056
 20
-5676.216763787422
 11
-45894.99266747055
 21
-5676.216763787422
 97
        0
 92
        1
 93
        4
 72
     1
 10
-43529.08742719616
 20
-5358.064359694157
 11
-43529.08742719616
 21
-5218.275174883712
 72
     1
 10
-43529.08742719616
 20
-5218.275174883712
 11
-43709.08742719616
 21
-5218.275174883712
 72
     1
 10
-43709.08742719616
 20
-5218.275174883712
 11
-43709.08742719616
 21
-5358.064359694157
 72
     1
 10
-43709.08742719616
 20
-5358.064359694157
 11
-43529.08742719616
 21
-5358.064359694157
 97
        0
 92
        1
 93
        4
 72
     1
 10
-39369.08742719616
 20
-5242.328283237267
 11
-39189.08742719616
 21
-5242.328283237267
 72
     1
 10
-39189.08742719616
 20
-5242.328283237267
 11
-39189.08742719616
 21
-5098.275174883713
 72
     1
 10
-39189.08742719616
 20
-5098.275174883713
 11
-39369.08742719616
 21
-5098.275174883713
 72
     1
 10
-39369.08742719616
 20
-5098.275174883713
 11
-39369.08742719616
 21
-5242.328283237267
 97
        0
 92
        1
 93
        4
 72
     1
 10
-49930.42057041549
 20
-4686.307078354793
 11
-49930.42057041549
 21
-4566.307078354793
 72
     1
 10
-49930.42057041549
 20
-4566.307078354793
 11
-50090.4205704155
 21
-4566.307078354793
 72
     1
 10
-50090.4205704155
 20
-4566.307078354793
 11
-50090.4205704155
 21
-4686.307078354793
 72
     1
 10
-50090.4205704155
 20
-4686.307078354793
 11
-49930.42057041549
 21
-4686.307078354793
 97
        0
 92
        1
 93
        4
 72
     1
 10
-43529.08742719616
 20
-4198.275174883712
 11
-43529.08742719616
 21
-4110.392465669205
 72
     1
 10
-43529.08742719616
 20
-4110.392465669205
 11
-43709.08742719616
 21
-4110.392465669205
 72
     1
 10
-43709.08742719616
 20
-4110.392465669205
 11
-43709.08742719616
 21
-4198.275174883712
 72
     1
 10
-43709.08742719616
 20
-4198.275174883712
 11
-43529.08742719616
 21
-4198.275174883712
 97
        0
 92
        1
 93
        5
 72
     1
 10
-39272.39955047084
 20
-4198.275174883712
 11
-39189.08742719616
 21
-4198.275174883712
 72
     1
 10
-39189.08742719616
 20
-4198.275174883712
 11
-39189.08742719616
 21
-4110.392465669205
 72
     1
 10
-39189.08742719616
 20
-4110.392465669205
 11
-39369.08742719616
 21
-4110.392465669205
 72
     1
 10
-39369.08742719616
 20
-4110.392465669205
 11
-39369.08742719616
 21
-4198.275174883712
 72
     1
 10
-39369.08742719616
 20
-4198.275174883712
 11
-39272.39955047084
 21
-4198.275174883712
 97
        0
 92
        1
 93
        4
 72
     1
 10
-45894.99266747055
 20
-4198.275174883712
 11
-45894.99266747055
 21
-4110.392465669205
 72
     1
 10
-45894.99266747055
 20
-4110.392465669205
 11
-46074.99266747056
 21
-4110.392465669205
 72
     1
 10
-46074.99266747056
 20
-4110.392465669205
 11
-46074.99266747056
 21
-4198.275174883712
 72
     1
 10
-46074.99266747056
 20
-4198.275174883712
 11
-45894.99266747055
 21
-4198.275174883712
 97
        0
 92
        1
 93
        4
 72
     1
 10
-40082.12914389363
 20
-4110.392465669205
 11
-39902.12914389362
 21
-4110.392465669205
 72
     1
 10
-39902.12914389362
 20
-4110.392465669205
 11
-39902.12914389362
 21
-3950.392465669204
 72
     1
 10
-39902.12914389362
 20
-3950.392465669204
 11
-40082.12914389363
 21
-3950.392465669204
 72
     1
 10
-40082.12914389363
 20
-3950.392465669204
 11
-40082.12914389363
 21
-4110.392465669205
 97
        0
 92
        1
 93
        4
 72
     1
 10
-50090.4205704155
 20
-3967.820050150282
 11
-49930.42057041549
 21
-3967.820050150282
 72
     1
 10
-49930.42057041549
 20
-3967.820050150282
 11
-49930.42057041549
 21
-3694.363113938498
 72
     1
 10
-49930.42057041549
 20
-3694.363113938498
 11
-50090.4205704155
 21
-3765.176620616057
 72
     1
 10
-50090.4205704155
 20
-3765.176620616057
 11
-50090.4205704155
 21
-3967.820050150282
 97
        0
 92
        1
 93
        4
 72
     1
 10
-42088.90989279638
 20
-2755.076281215254
 11
-41958.90989279638
 21
-2529.9096762313
 72
     1
 10
-41958.90989279638
 20
-2529.9096762313
 11
-42178.16080263061
 21
-2432.292881893107
 72
     1
 10
-42178.16080263061
 20
-2432.292881893107
 11
-42308.1608026306
 21
-2657.459486877062
 72
     1
 10
-42308.1608026306
 20
-2657.459486877062
 11
-42088.90989279638
 21
-2755.076281215254
 97
        0
 92
        1
 93
        4
 72
     1
 10
-47165.08575512389
 20
-2708.083114195079
 11
-46983.24196914133
 21
-2627.60188823915
 72
     1
 10
-46983.24196914133
 20
-2627.60188823915
 11
-47071.18073506277
 21
-2428.908119104147
 72
     1
 10
-47071.18073506277
 20
-2428.908119104147
 11
-47253.02452104534
 21
-2509.389345060078
 72
     1
 10
-47253.02452104534
 20
-2509.389345060078
 11
-47165.08575512389
 21
-2708.083114195079
 97
        0
 92
        1
 93
       24
 72
     1
 10
-44619.8933149674
 20
-1644.121689261869
 11
-44583.65864865304
 21
-1639.351304942338
 72
     1
 10
-44583.65864865304
 20
-1639.351304942338
 11
-44549.89331496739
 21
-1625.365245791691
 72
     1
 10
-44549.89331496739
 20
-1625.365245791691
 11
-44520.89836560127
 21
-1603.116638627986
 72
     1
 10
-44520.89836560127
 20
-1603.116638627986
 11
-44498.64975843756
 21
-1574.12168926187
 72
     1
 10
-44498.64975843756
 20
-1574.12168926187
 11
-44484.66369928692
 21
-1540.356355576223
 72
     1
 10
-44484.66369928692
 20
-1540.356355576223
 11
-44479.89331496738
 21
-1504.121689261868
 72
     1
 10
-44479.89331496738
 20
-1504.121689261868
 11
-44484.66369928692
 21
-1467.887022947515
 72
     1
 10
-44484.66369928692
 20
-1467.887022947515
 11
-44498.64975843756
 21
-1434.121689261868
 72
     1
 10
-44498.64975843756
 20
-1434.121689261868
 11
-44520.89836560127
 21
-1405.126739895752
 72
     1
 10
-44520.89836560127
 20
-1405.126739895752
 11
-44549.89331496739
 21
-1382.878132732047
 72
     1
 10
-44549.89331496739
 20
-1382.878132732047
 11
-44583.65864865304
 21
-1368.8920735814
 72
     1
 10
-44583.65864865304
 20
-1368.8920735814
 11
-44619.8933149674
 21
-1364.121689261868
 72
     1
 10
-44619.8933149674
 20
-1364.121689261868
 11
-44656.12798128175
 21
-1368.8920735814
 72
     1
 10
-44656.12798128175
 20
-1368.8920735814
 11
-44689.89331496739
 21
-1382.878132732047
 72
     1
 10
-44689.89331496739
 20
-1382.878132732047
 11
-44718.88826433351
 21
-1405.126739895752
 72
     1
 10
-44718.88826433351
 20
-1405.126739895752
 11
-44741.13687149722
 21
-1434.121689261868
 72
     1
 10
-44741.13687149722
 20
-1434.121689261868
 11
-44755.12293064787
 21
-1467.887022947515
 72
     1
 10
-44755.12293064787
 20
-1467.887022947515
 11
-44759.89331496739
 21
-1504.121689261867
 72
     1
 10
-44759.89331496739
 20
-1504.121689261867
 11
-44755.12293064787
 21
-1540.356355576222
 72
     1
 10
-44755.12293064787
 20
-1540.356355576222
 11
-44741.13687149722
 21
-1574.12168926187
 72
     1
 10
-44741.13687149722
 20
-1574.12168926187
 11
-44718.88826433351
 21
-1603.116638627984
 72
     1
 10
-44718.88826433351
 20
-1603.116638627984
 11
-44689.89331496739
 21
-1625.365245791689
 72
     1
 10
-44689.89331496739
 20
-1625.365245791689
 11
-44656.12798128175
 21
-1639.351304942338
 72
     1
 10
-44656.12798128175
 20
-1639.351304942338
 11
-44619.8933149674
 21
-1644.121689261869
 97
        0
 75
     0
 76
     1
 98
        1
 10
0.0
 20
0.0
450
        0
451
        0
460
0.0
461
0.0
452
        0
462
0.0
453
        0
470

1001
REVIT
1002
{
1070
     1
1000
22953169
1002
}
1002
{
1070
     5
1000
383807
1002
}
1002
{
1070
     2
1000
-2002000
1002
}
  0
LINE
  5
FE
330
70
100
AcDbEntity
  8
A-BAS-___-___-EXI
100
AcDbLine
 10
-39369.08742719611
 20
-7767.049984727997
 30
0.0
 11
-49930.42057041543
 21
-7767.049984727963
 31
0.0
1001
REVIT
1002
{
1070
     1
1000
22953156
1002
}
1002
{
1070
     5
1000
383807
1002
}
1002
{
1070
     2
1000
-2000051
1002
}
1002
{
1070
     3
1000
-2000042
1002
}
  0
LINE
  5
105
330
70
100
AcDbEntity
  8
A-ALV-___-___-EXI
100
AcDbLine
 10
-39189.08742719612
 20
-5098.275174883708
 30
0.0
 11
-39189.08742719612
 21
-4198.275174883708
 31
0.0
1001
REVIT
1002
{
1070
     1
1000
22953164
1002
}
1002
{
1070
     5
1000
383807
1002
}
1002
{
1070
     2
1000
-2000051
1002
}
1002
{
1070
     3
1000
-2000042
1002
}
  0
LINE
  5
106
330
70
100
AcDbEntity
  8
A-ALV-___-___-EXI
100
AcDbLine
 10
-39369.08742719611
 20
-4198.275174883708
 30
0.0
 11
-39369.08742719611
 21
-5098.275174883708
 31
0.0
1001
REVIT
1002
{
1070
     1
1000
22953164
1002
}
1002
{
1070
     5
1000
383807
1002
}
1002
{
1070
     2
1000
-2000051
1002
}
1002
{
1070
     3
1000
-2000042
1002
}
  0
LINE
  5
107
330
70
100
AcDbEntity
  8
A-ALV-___-___-EXI
100
AcDbLine
 10
-43529.08742719611
 20
-5218.275174883708
 30
0.0
 11
-43529.08742719611
 21
-4198.275174883708
 31
0.0
1001
REVIT
1002
{
1070
     1
1000
22953164
1002
}
1002
{
1070
     5
1000
383807
1002
}
1002
{
1070
     2
1000
-2000051
1002
}
1002
{
1070
     3
1000
-2000042
1002
}
  0
LINE
  5
108
330
70
100
AcDbEntity
  8
A-ALV-___-___-EXI
100
AcDbLine
 10
-43709.08742719612
 20
-4198.275174883708
 30
0.0
 11
-43709.08742719612
 21
-5218.275174883708
 31
0.0
1001
REVIT
1002
{
1070
     1
1000
22953164
1002
}
1002
{
1070
     5
1000
383807
1002
}
1002
{
1070
     2
1000
-2000051
1002
}
1002
{
1070
     3
1000
-2000042
1002
}
  0
LINE
  5
109
330
70
100
AcDbEntity
  8
A-ALV-___-___-EXI
100
AcDbLine
 10
-45894.99266747051
 20
-5556.216763787415
 30
0.0
 11
-45894.99266747051
 21
-4198.275174883708
 31
0.0
1001
REVIT
1002
{
1070
     1
1000
22953164
1002
}
1002
{
1070
     5
1000
383807
1002
}
1002
{
1070
     2
1000
-2000051
1002
}
1002
{
1070
     3
1000
-2000042
1002
}
  0
LINE
  5
10A
330
70
100
AcDbEntity
  8
A-ALV-___-___-EXI
100
AcDbLine
 10
-46074.9926674705
 20
-4198.275174883708
 30
0.0
 11
-46074.9926674705
 21
-5556.216763787415
 31
0.0
1001
REVIT
1002
{
1070
     1
1000
22953164
1002
}
1002
{
1070
     5
1000
383807
1002
}
1002
{
1070
     2
1000
-2000051
1002
}
1002
{
1070
     3
1000
-2000042
1002
}
  0
LINE
  5
10E
330
70
100
AcDbEntity
  8
A-ALV-___-___-EXI
100
AcDbLine
 10
-49930.42057041543
 20
-4566.307078354786
 30
0.0
 11
-49930.42057041543
 21
-3967.820050150276
 31
0.0
1001
REVIT
1002
{
1070
     1
1000
22953164
1002
}
1002
{
1070
     5
1000
383807
1002
}
1002
{
1070
     2
1000
-2000051
1002
}
1002
{
1070
     3
1000
-2000042
1002
}
  0
LINE
  5
10F
330
70
100
AcDbEntity
  8
A-ALV-___-___-EXI
100
AcDbLine
 10
-50090.42057041543
 20
-3967.820050150276
 30
0.0
 11
-50090.42057041543
 21
-4566.307078354786
 31
0.0
1001
REVIT
1002
{
1070
     1
1000
22953164
1002
}
1002
{
1070
     5
1000
383807
1002
}
1002
{
1070
     2
1000
-2000051
1002
}
1002
{
1070
     3
1000
-2000042
1002
}
  0
LINE
  5
114
330
70
100
AcDbEntity
  8
A-ALV-___-___-EXI
100
AcDbLine
 10
-39369.08742719611
 20
-5098.275174883708
 30
0.0
 11
-39369.08742719611
 21
-5242.328283237259
 31
0.0
1001
REVIT
1002
{
1070
     1
1000
22953169
1002
}
1002
{
1070
     5
1000
383807
1002
}
1002
{
1070
     2
1000
-2000051
1002
}
1002
{
1070
     3
1000
-2000042
1002
}
  0
LINE
  5
115
330
70
100
AcDbEntity
  8
A-ALV-___-___-EXI
100
AcDbLine
 10
-39369.08742719611
 20
-5242.328283237259
 30
0.0
 11
-39189.08742719612
 21
-5242.328283237259
 31
0.0
1001
REVIT
1002
{
1070
     1
1000
22953169
1002
}
1002
{
1070
     5
1000
383807
1002
}
1002
{
1070
     2
1000
-2000051
1002
}
1002
{
1070
     3
1000
-2000042
1002
}
  0
LINE
  5
116
330
70
100
AcDbEntity
  8
A-ALV-___-___-EXI
100
AcDbLine
 10
-39189.08742719612
 20
-5242.328283237259
 30
0.0
 11
-39189.08742719612
 21
-5098.275174883708
 31
0.0
1001
REVIT
1002
{
1070
     1
1000
22953169
1002
}
1002
{
1070
     5
1000
383807
1002
}
1002
{
1070
     2
1000
-2000051
1002
}
1002
{
1070
     3
1000
-2000042
1002
}
  0
LINE
  5
117
330
70
100
AcDbEntity
  8
A-ALV-___-___-EXI
100
AcDbLine
 10
-39189.08742719612
 20
-5098.275174883708
 30
0.0
 11
-39369.08742719611
 21
-5098.275174883708
 31
0.0
1001
REVIT
1002
{
1070
     1
1000
22953169
1002
}
1002
{
1070
     5
1000
383807
1002
}
1002
{
1070
     2
1000
-2000051
1002
}
1002
{
1070
     3
1000
-2000042
1002
}
  0
LINE
  5
120
330
70
100
AcDbEntity
  8
A-ALV-___-___-EXI
100
AcDbLine
 10
-43709.08742719612
 20
-5218.275174883707
 30
0.0
 11
-43709.08742719612
 21
-5358.064359694149
 31
0.0
1001
REVIT
1002
{
1070
     1
1000
22953169
1002
}
1002
{
1070
     5
1000
383807
1002
}
1002
{
1070
     2
1000
-2000051
1002
}
1002
{
1070
     3
1000
-2000042
1002
}
  0
LINE
  5
121
330
70
100
AcDbEntity
  8
A-ALV-___-___-EXI
100
AcDbLine
 10
-43709.08742719612
 20
-5358.064359694149
 30
0.0
 11
-43529.08742719611
 21
-5358.064359694149
 31
0.0
1001
REVIT
1002
{
1070
     1
1000
22953169
1002
}
1002
{
1070
     5
1000
383807
1002
}
1002
{
1070
     2
1000
-2000051
1002
}
1002
{
1070
     3
1000
-2000042
1002
}
  0
LINE
  5
122
330
70
100
AcDbEntity
  8
A-ALV-___-___-EXI
100
AcDbLine
 10
-43529.08742719611
 20
-5358.064359694149
 30
0.0
 11
-43529.08742719611
 21
-5218.275174883707
 31
0.0
1001
REVIT
1002
{
1070
     1
1000
22953169
1002
}
1002
{
1070
     5
1000
383807
1002
}
1002
{
1070
     2
1000
-2000051
1002
}
1002
{
1070
     3
1000
-2000042
1002
}
  0
LINE
  5
123
330
70
100
AcDbEntity
  8
A-ALV-___-___-EXI
100
AcDbLine
 10
-43529.08742719611
 20
-5218.275174883707
 30
0.0
 11
-43709.08742719612
 21
-5218.275174883707
 31
0.0
1001
REVIT
1002
{
1070
     1
1000
22953169
1002
}
1002
{
1070
     5
1000
383807
1002
}
1002
{
1070
     2
1000
-2000051
1002
}
1002
{
1070
     3
1000
-2000042
1002
}
  0
LINE
  5
130
330
70
100
AcDbEntity
  8
A-ALV-___-___-EXI
100
AcDbLine
 10
-50090.42057041543
 20
-5947.049984727961
 30
0.0
 11
-49930.42057041543
 21
-5947.049984727961
 31
0.0
1001
REVIT
1002
{
1070
     1
1000
22953169
1002
}
1002
{
1070
     5
1000
383807
1002
}
1002
{
1070
     2
1000
-2000051
1002
}
1002
{
1070
     3
1000
-2000042
1002
}
  0
LINE
  5
13C
330
70
100
AcDbEntity
  8
A-COB-___-___-EXI
100
AcDbLine
 10
-47165.08575512384
 20
-2708.083114195075
 30
0.0
 11
-46983.24196914128
 21
-2627.601888239144
 31
0.0
1001
REVIT
1002
{
1070
     1
1000
22953169
1002
}
1002
{
1070
     5
1000
383807
1002
}
1002
{
1070
     2
1000
-2000051
1002
}
1002
{
1070
     3
1000
-2000042
1002
}
  0
LINE
  5
142
330
70
100
AcDbEntity
  8
A-COB-___-___-EXI
100
AcDbLine
 10
-42308.16080263055
 20
-2657.459486877057
 30
0.0
 11
-42088.90989279632
 21
-2755.07628121525
 31
0.0
1001
REVIT
1002
{
1070
     1
1000
22953169
1002
}
1002
{
1070
     5
1000
383807
1002
}
1002
{
1070
     2
1000
-2000051
1002
}
1002
{
1070
     3
1000
-2000042
1002
}
  0
LINE
  5
173
330
70
100
AcDbEntity
  8
A-JAN-___-___-EXI
100
AcDbLine
 10
-51145.5998914316
 20
-7109.966936526034
 30
0.0
 11
-51145.5998914316
 21
-5859.020655231072
 31
0.0
1001
REVIT
1002
{
1070
     1
1000
22953579
1002
}
1002
{
1070
     2
1000
-2000051
1002
}
1002
{
1070
     3
1000
-2000042
1002
}
  0
LINE
  5
176
330
70
100
AcDbEntity
  8
A-JAN-___-___-EXI
100
AcDbLine
 10
-50839.7962931206
 20
-6463.029615691531
 30
0.0
 11
-51635.2507087651
 21
-6463.029615691531
 31
0.0
1001
REVIT
1002
{
1070
     1
1000
22953582
1002
}
1002
{
1070
     2
1000
-2000051
1002
}
1002
{
1070
     3
1000
-2000042
1002
}
  0
LINE
  5
177
330
70
100
AcDbEntity
  8
A-JAN-___-___-EXI
100
AcDbLine
 10
-50839.7962931206
 20
-6429.491769711548
 30
0.0
 11
-50839.7962931206
 21
-6463.029615691531
 31
0.0
1001
REVIT
1002
{
1070
     1
1000
22953583
1002
}
1002
{
1070
     2
1000
-2000051
1002
}
1002
{
1070
     3
1000
-2000042
1002
}
  0
LINE
  5
178
330
70
100
AcDbEntity
  8
A-JAN-___-___-EXI
100
AcDbLine
 10
-51635.2507087651
 20
-6429.491769711548
 30
0.0
 11
-50839.7962931206
 21
-6429.491769711548
 31
0.0
1001
REVIT
1002
{
1070
     1
1000
22953584
1002
}
1002
{
1070
     2
1000
-2000051
1002
}
1002
{
1070
     3
1000
-2000042
1002
}
  0
LINE
  5
179
330
70
100
AcDbEntity
  8
A-JAN-___-___-EXI
100
AcDbLine
 10
-51635.2507087651
 20
-6463.029615691531
 30
0.0
 11
-51635.2507087651
 21
-6429.491769711548
 31
0.0
1001
REVIT
1002
{
1070
     1
1000
22953585
1002
}
1002
{
1070
     2
1000
-2000051
1002
}
1002
{
1070
     3
1000
-2000042
1002
}
  0
LINE
  5
17A
330
70
100
AcDbEntity
  8
A-JAN-___-___-EXI
100
AcDbLine
 10
-51635.2507087651
 20
-6463.029615691531
 30
0.0
 11
-50839.7962931206
 21
-6463.029615691531
 31
0.0
1001
REVIT
1002
{
1070
     1
1000
22953586
1002
}
1002
{
1070
     2
1000
-2000051
1002
}
1002
{
1070
     3
1000
-2000042
1002
}
  0
LINE
  5
17B
330
70
100
AcDbEntity
  8
A-JAN-___-___-EXI
100
AcDbLine
 10
-51635.2507087651
 20
-6498.166936643063
 30
0.0
 11
-51635.2507087651
 21
-6463.029615691531
 31
0.0
1001
REVIT
1002
{
1070
     1
1000
22953587
1002
}
1002
{
1070
     2
1000
-2000051
1002
}
1002
{
1070
     3
1000
-2000042
1002
}
  0
LINE
  5
17C
330
70
100
AcDbEntity
  8
A-JAN-___-___-EXI
100
AcDbLine
 10
-50839.7962931206
 20
-6498.166936643063
 30
0.0
 11
-51635.2507087651
 21
-6498.166936643063
 31
0.0
1001
REVIT
1002
{
1070
     1
1000
22953588
1002
}
1002
{
1070
     2
1000
-2000051
1002
}
1002
{
1070
     3
1000
-2000042
1002
}
  0
LINE
  5
17D
330
70
100
AcDbEntity
  8
A-JAN-___-___-EXI
100
AcDbLine
 10
-50839.7962931206
 20
-6463.029615691531
 30
0.0
 11
-50839.7962931206
 21
-6498.166936643063
 31
0.0
1001
REVIT
1002
{
1070
     1
1000
22953589
1002
}
1002
{
1070
     2
1000
-2000051
1002
}
1002
{
1070
     3
1000
-2000042
1002
}
  0
LINE
  5
196
330
70
100
AcDbEntity
  8
A-JAN-___-___-EXI
100
AcDbLine
 10
-51635.2507087651
 20
-6804.066936584549
 30
0.0
 11
-50839.7962931206
 21
-6804.066936584549
 31
0.0
1001
REVIT
1002
{
1070
     1
1000
22953614
1002
}
1002
{
1070
     2
1000
-2000051
1002
}
1002
{
1070
     3
1000
-2000042
1002
}
  0
LINE
  5
197
330
70
100
AcDbEntity
  8
A-JAN-___-___-EXI
100
AcDbLine
 10
-51635.2507087651
 20
-7109.966936526034
 30
0.0
 11
-51635.2507087651
 21
-6804.066936584549
 31
0.0
1001
REVIT
1002
{
1070
     1
1000
22953615
1002
}
1002
{
1070
     2
1000
-2000051
1002
}
1002
{
1070
     3
1000
-2000042
1002
}
  0
LINE
  5
198
330
70
100
AcDbEntity
  8
A-JAN-___-___-EXI
100
AcDbLine
 10
-50839.7962931206
 20
-7109.966936526034
 30
0.0
 11
-51635.2507087651
 21
-7109.966936526034
 31
0.0
1001
REVIT
1002
{
1070
     1
1000
22953616
1002
}
1002
{
1070
     2
1000
-2000051
1002
}
1002
{
1070
     3
1000
-2000042
1002
}
  0
LINE
  5
199
330
70
100
AcDbEntity
  8
A-JAN-___-___-EXI
100
AcDbLine
 10
-50839.7962931206
 20
-6804.066936584549
 30
0.0
 11
-50839.7962931206
 21
-7109.966936526034
 31
0.0
1001
REVIT
1002
{
1070
     1
1000
22953617
1002
}
1002
{
1070
     2
1000
-2000051
1002
}
1002
{
1070
     3
1000
-2000042
1002
}
  0
LINE
  5
19A
330
70
100
AcDbEntity
  8
A-JAN-___-___-EXI
100
AcDbLine
 10
-50839.7962931206
 20
-6957.01693655529
 30
0.0
 11
-51635.2507087651
 21
-6957.01693655529
 31
0.0
1001
REVIT
1002
{
1070
     1
1000
22953618
1002
}
1002
{
1070
     2
1000
-2000051
1002
}
1002
{
1070
     3
1000
-2000042
1002
}
  0
LINE
  5
19B
330
70
100
AcDbEntity
  8
A-JAN-___-___-EXI
100
AcDbLine
 10
-50839.7962931206
 20
-6498.166936643063
 30
0.0
 11
-50839.7962931206
 21
-6957.01693655529
 31
0.0
1001
REVIT
1002
{
1070
     1
1000
22953619
1002
}
1002
{
1070
     2
1000
-2000051
1002
}
1002
{
1070
     3
1000
-2000042
1002
}
  0
LINE
  5
19C
330
70
100
AcDbEntity
  8
A-JAN-___-___-EXI
100
AcDbLine
 10
-51635.2507087651
 20
-6498.166936643063
 30
0.0
 11
-50839.7962931206
 21
-6498.166936643063
 31
0.0
1001
REVIT
1002
{
1070
     1
1000
22953620
1002
}
1002
{
1070
     2
1000
-2000051
1002
}
1002
{
1070
     3
1000
-2000042
1002
}
  0
LINE
  5
19D
330
70
100
AcDbEntity
  8
A-JAN-___-___-EXI
100
AcDbLine
 10
-51635.2507087651
 20
-6957.01693655529
 30
0.0
 11
-51635.2507087651
 21
-6498.166936643063
 31
0.0
1001
REVIT
1002
{
1070
     1
1000
22953621
1002
}
1002
{
1070
     2
1000
-2000051
1002
}
1002
{
1070
     3
1000
-2000042
1002
}
  0
LINE
  5
19E
330
70
100
AcDbEntity
  8
A-JAN-___-___-EXI
100
AcDbLine
 10
-51635.2507087651
 20
-6498.166936643063
 30
0.0
 11
-50839.7962931206
 21
-6498.166936643063
 31
0.0
1001
REVIT
1002
{
1070
     1
1000
22953622
1002
}
1002
{
1070
     2
1000
-2000051
1002
}
1002
{
1070
     3
1000
-2000042
1002
}
  0
LINE
  5
19F
330
70
100
AcDbEntity
  8
A-JAN-___-___-EXI
100
AcDbLine
 10
-51635.2507087651
 20
-6804.066936584549
 30
0.0
 11
-51635.2507087651
 21
-6498.166936643063
 31
0.0
1001
REVIT
1002
{
1070
     1
1000
22953623
1002
}
1002
{
1070
     2
1000
-2000051
1002
}
1002
{
1070
     3
1000
-2000042
1002
}
  0
LINE
  5
1A0
330
70
100
AcDbEntity
  8
A-JAN-___-___-EXI
100
AcDbLine
 10
-50839.7962931206
 20
-6804.066936584549
 30
0.0
 11
-51635.2507087651
 21
-6804.066936584549
 31
0.0
1001
REVIT
1002
{
1070
     1
1000
22953624
1002
}
1002
{
1070
     2
1000
-2000051
1002
}
1002
{
1070
     3
1000
-2000042
1002
}
  0
LINE
  5
1A1
330
70
100
AcDbEntity
  8
A-JAN-___-___-EXI
100
AcDbLine
 10
-50839.7962931206
 20
-6498.166936643063
 30
0.0
 11
-50839.7962931206
 21
-6804.066936584549
 31
0.0
1001
REVIT
1002
{
1070
     1
1000
22953625
1002
}
1002
{
1070
     2
1000
-2000051
1002
}
1002
{
1070
     3
1000
-2000042
1002
}
  0
LINE
  5
1B6
330
70
100
AcDbEntity
  8
A-COB-___-___-EXI
100
AcDbLine
 10
-39189.08742719612
 20
-4110.392465669199
 30
0.0
 11
-38409.08742719612
 21
-4110.392465669201
 31
0.0
1001
REVIT
1002
{
1070
     1
1000
22953365
1002
}
1002
{
1070
     2
1000
-2000051
1002
}
1002
{
1070
     3
1000
-2000044
1002
}
  0
LINE
  5
1B7
330
70
100
AcDbEntity
  8
A-COB-___-___-EXI
100
AcDbLine
 10
-38409.08742719612
 20
-4110.392465669201
 30
0.0
 11
-44621.19653916579
 21
-1344.583292753738
 31
0.0
1001
REVIT
1002
{
1070
     1
1000
22953366
1002
}
1002
{
1070
     2
1000
-2000051
1002
}
1002
{
1070
     3
1000
-2000044
1002
}
  0
LINE
  5
1B8
330
70
100
AcDbEntity
  8
A-COB-___-___-EXI
100
AcDbLine
 10
-50389.08742719611
 20
-4110.39246566916
 30
0.0
 11
-50090.42057041543
 21
-4110.392465669161
 31
0.0
1001
REVIT
1002
{
1070
     1
1000
22953367
1002
}
1002
{
1070
     2
1000
-2000051
1002
}
1002
{
1070
     3
1000
-2000044
1002
}
  0
LINE
  5
1B9
330
70
100
AcDbEntity
  8
A-COB-___-___-EXI
100
AcDbLine
 10
-50090.42057041543
 20
-4110.392465669161
 30
0.0
 11
-50870.42057041543
 21
-4110.392465669158
 31
0.0
1001
REVIT
1002
{
1070
     1
1000
22953368
1002
}
1002
{
1070
     2
1000
-2000051
1002
}
1002
{
1070
     3
1000
-2000044
1002
}
  0
LINE
  5
1BA
330
70
100
AcDbEntity
  8
A-COB-___-___-EXI
100
AcDbLine
 10
-50870.42057041543
 20
-4110.392465669158
 30
0.0
 11
-44621.19653916579
 21
-1344.58329275374
 31
0.0
1001
REVIT
1002
{
1070
     1
1000
22953369
1002
}
1002
{
1070
     2
1000
-2000051
1002
}
1002
{
1070
     3
1000
-2000044
1002
}
  0
LINE
  5
1CD
330
70
100
AcDbEntity
  8
A-ALV-___-___-EXI
100
AcDbLine
 10
-43529.08742719611
 20
-5358.064359694149
 30
0.0
 11
-43709.08742719612
 21
-5358.064359694149
 31
0.0
1001
REVIT
1002
{
1070
     1
1000
22953388
1002
}
1002
{
1070
     2
1000
-2000051
1002
}
1002
{
1070
     3
1000
-2000042
1002
}
  0
LINE
  5
1CE
330
70
100
AcDbEntity
  8
A-POR-___-___-EXI
100
AcDbLine
 10
-43529.08742719611
 20
-7767.049984727984
 30
0.0
 11
-43529.08742719611
 21
-5358.064359694149
 31
0.0
1001
REVIT
1002
{
1070
     1
1000
22953389
1002
}
1002
{
1070
     2
1000
-2000051
1002
}
1002
{
1070
     3
1000
-2000042
1002
}
  0
LINE
  5
1CF
330
70
100
AcDbEntity
  8
A-BAS-___-___-EXI
100
AcDbLine
 10
-43709.08742719612
 20
-7767.049984727984
 30
0.0
 11
-43529.08742719611
 21
-7767.049984727984
 31
0.0
1001
REVIT
1002
{
1070
     1
1000
22953390
1002
}
1002
{
1070
     2
1000
-2000051
1002
}
1002
{
1070
     3
1000
-2000042
1002
}
  0
LINE
  5
1D0
330
70
100
AcDbEntity
  8
A-POR-___-___-EXI
100
AcDbLine
 10
-43709.08742719612
 20
-5358.064359694149
 30
0.0
 11
-43709.08742719612
 21
-7767.049984727984
 31
0.0
1001
REVIT
1002
{
1070
     1
1000
22953391
1002
}
1002
{
1070
     2
1000
-2000051
1002
}
1002
{
1070
     3
1000
-2000042
1002
}
  0
LINE
  5
1D9
330
70
100
AcDbEntity
  8
A-COB-___-___-EXI
100
AcDbLine
 10
-39369.08742719611
 20
-4317.004636594205
 30
0.0
 11
-43529.08742719611
 21
-4317.004636594191
 31
0.0
1001
REVIT
1002
{
1070
     1
1000
22953400
1002
}
1002
{
1070
     2
1000
-2000051
1002
}
1002
{
1070
     3
1000
-2000042
1002
}
  0
LINE
  5
1DE
330
70
100
AcDbEntity
  8
A-COB-___-___-EXI
100
AcDbLine
 10
-43709.08742719612
 20
-4317.00463659419
 30
0.0
 11
-45894.99266747051
 21
-4317.004636594184
 31
0.0
1001
REVIT
1002
{
1070
     1
1000
22953405
1002
}
1002
{
1070
     2
1000
-2000051
1002
}
1002
{
1070
     3
1000
-2000042
1002
}
  0
LINE
  5
1E3
330
70
100
AcDbEntity
  8
A-COB-___-___-EXI
100
AcDbLine
 10
-46074.9926674705
 20
-4317.004636594183
 30
0.0
 11
-49930.42057041543
 21
-4317.00463659417
 31
0.0
1001
REVIT
1002
{
1070
     1
1000
22953410
1002
}
1002
{
1070
     2
1000
-2000051
1002
}
1002
{
1070
     3
1000
-2000042
1002
}
  0
LINE
  5
1EF
330
70
100
AcDbEntity
  8
A-COB-___-___-EXI
100
AcDbLine
 10
-44507.05548364441
 20
-1586.992817058827
 30
0.0
 11
-44507.05548364441
 21
-3910.392465669175
 31
0.0
1001
REVIT
1002
{
1070
     1
1000
22953490
1002
}
1002
{
1070
     2
1000
-2000051
1002
}
1002
{
1070
     3
1000
-2000042
1002
}
  0
LINE
  5
1F0
330
70
100
AcDbEntity
  8
A-COB-___-___-EXI
100
AcDbLine
 10
-44732.73114629027
 20
-1586.992817058827
 30
0.0
 11
-44732.73114629027
 21
-3910.392465669175
 31
0.0
1001
REVIT
1002
{
1070
     1
1000
22953491
1002
}
1002
{
1070
     2
1000
-2000051
1002
}
1002
{
1070
     3
1000
-2000042
1002
}
  0
LINE
  5
20B
330
70
100
AcDbEntity
  8
A-BAS-___-___-EXI
100
AcDbLine
 10
-55525.04604432145
 20
-7867.049984727926
 30
0.0
 11
-54458.48429070916
 21
-7867.049984727926
 31
0.0
1001
REVIT
1002
{
1070
     1
1000
22953554
1002
}
1002
{
1070
     2
1000
-2000051
1002
}
1002
{
1070
     3
1000
-2000042
1002
}
  0
LINE
  5
20C
330
70
100
AcDbEntity
  8
A-POR-___-___-EXI
100
AcDbLine
 10
-55525.04604432145
 20
-5738.372996991955
 30
0.0
 11
-55525.04604432145
 21
-7867.049984727926
 31
0.0
1001
REVIT
1002
{
1070
     1
1000
22953555
1002
}
1002
{
1070
     2
1000
-2000051
1002
}
1002
{
1070
     3
1000
-2000042
1002
}
  0
LINE
  5
20D
330
70
100
AcDbEntity
  8
A-COB-___-___-EXI
100
AcDbLine
 10
-54458.48429070916
 20
-5738.372996991955
 30
0.0
 11
-55525.04604432145
 21
-5738.372996991955
 31
0.0
1001
REVIT
1002
{
1070
     1
1000
22953556
1002
}
1002
{
1070
     2
1000
-2000051
1002
}
1002
{
1070
     3
1000
-2000042
1002
}
  0
LINE
  5
20E
330
70
100
AcDbEntity
  8
A-POR-___-___-EXI
100
AcDbLine
 10
-54458.48429070916
 20
-7867.049984727926
 30
0.0
 11
-54458.48429070916
 21
-5738.372996991955
 31
0.0
1001
REVIT
1002
{
1070
     1
1000
22953557
1002
}
1002
{
1070
     2
1000
-2000051
1002
}
1002
{
1070
     3
1000
-2000042
1002
}
  0
LINE
  5
224
330
70
100
AcDbEntity
  8
A-JAN-___-___-EXI
100
AcDbLine
 10
-52805.59989143161
 20
-7109.966936526028
 30
0.0
 11
-52805.59989143161
 21
-5859.020655231066
 31
0.0
1001
REVIT
1002
{
1070
     1
1000
22953662
1002
}
1002
{
1070
     2
1000
-2000051
1002
}
1002
{
1070
     3
1000
-2000042
1002
}
  0
LINE
  5
227
330
70
100
AcDbEntity
  8
A-JAN-___-___-EXI
100
AcDbLine
 10
-52499.79629312062
 20
-6463.029615691525
 30
0.0
 11
-53295.25070876512
 21
-6463.029615691525
 31
0.0
1001
REVIT
1002
{
1070
     1
1000
22953665
1002
}
1002
{
1070
     2
1000
-2000051
1002
}
1002
{
1070
     3
1000
-2000042
1002
}
  0
LINE
  5
228
330
70
100
AcDbEntity
  8
A-JAN-___-___-EXI
100
AcDbLine
 10
-52499.79629312062
 20
-6429.491769711543
 30
0.0
 11
-52499.79629312062
 21
-6463.029615691525
 31
0.0
1001
REVIT
1002
{
1070
     1
1000
22953666
1002
}
1002
{
1070
     2
1000
-2000051
1002
}
1002
{
1070
     3
1000
-2000042
1002
}
  0
LINE
  5
229
330
70
100
AcDbEntity
  8
A-JAN-___-___-EXI
100
AcDbLine
 10
-53295.25070876512
 20
-6429.491769711543
 30
0.0
 11
-52499.79629312062
 21
-6429.491769711543
 31
0.0
1001
REVIT
1002
{
1070
     1
1000
22953667
1002
}
1002
{
1070
     2
1000
-2000051
1002
}
1002
{
1070
     3
1000
-2000042
1002
}
  0
LINE
  5
22A
330
70
100
AcDbEntity
  8
A-JAN-___-___-EXI
100
AcDbLine
 10
-53295.25070876512
 20
-6463.029615691525
 30
0.0
 11
-53295.25070876512
 21
-6429.491769711543
 31
0.0
1001
REVIT
1002
{
1070
     1
1000
22953668
1002
}
1002
{
1070
     2
1000
-2000051
1002
}
1002
{
1070
     3
1000
-2000042
1002
}
  0
LINE
  5
22B
330
70
100
AcDbEntity
  8
A-JAN-___-___-EXI
100
AcDbLine
 10
-53295.25070876512
 20
-6463.029615691525
 30
0.0
 11
-52499.79629312062
 21
-6463.029615691525
 31
0.0
1001
REVIT
1002
{
1070
     1
1000
22953669
1002
}
1002
{
1070
     2
1000
-2000051
1002
}
1002
{
1070
     3
1000
-2000042
1002
}
  0
LINE
  5
22C
330
70
100
AcDbEntity
  8
A-JAN-___-___-EXI
100
AcDbLine
 10
-53295.25070876512
 20
-6498.166936643059
 30
0.0
 11
-53295.25070876512
 21
-6463.029615691525
 31
0.0
1001
REVIT
1002
{
1070
     1
1000
22953670
1002
}
1002
{
1070
     2
1000
-2000051
1002
}
1002
{
1070
     3
1000
-2000042
1002
}
  0
LINE
  5
22D
330
70
100
AcDbEntity
  8
A-JAN-___-___-EXI
100
AcDbLine
 10
-52499.79629312062
 20
-6498.166936643059
 30
0.0
 11
-53295.25070876512
 21
-6498.166936643059
 31
0.0
1001
REVIT
1002
{
1070
     1
1000
22953671
1002
}
1002
{
1070
     2
1000
-2000051
1002
}
1002
{
1070
     3
1000
-2000042
1002
}
  0
LINE
  5
22E
330
70
100
AcDbEntity
  8
A-JAN-___-___-EXI
100
AcDbLine
 10
-52499.79629312062
 20
-6463.029615691525
 30
0.0
 11
-52499.79629312062
 21
-6498.166936643059
 31
0.0
1001
REVIT
1002
{
1070
     1
1000
22953672
1002
}
1002
{
1070
     2
1000
-2000051
1002
}
1002
{
1070
     3
1000
-2000042
1002
}
  0
LINE
  5
247
330
70
100
AcDbEntity
  8
A-JAN-___-___-EXI
100
AcDbLine
 10
-53295.25070876512
 20
-6804.066936584544
 30
0.0
 11
-52499.79629312062
 21
-6804.066936584544
 31
0.0
1001
REVIT
1002
{
1070
     1
1000
22953697
1002
}
1002
{
1070
     2
1000
-2000051
1002
}
1002
{
1070
     3
1000
-2000042
1002
}
  0
LINE
  5
248
330
70
100
AcDbEntity
  8
A-JAN-___-___-EXI
100
AcDbLine
 10
-53295.25070876512
 20
-7109.966936526028
 30
0.0
 11
-53295.25070876512
 21
-6804.066936584544
 31
0.0
1001
REVIT
1002
{
1070
     1
1000
22953698
1002
}
1002
{
1070
     2
1000
-2000051
1002
}
1002
{
1070
     3
1000
-2000042
1002
}
  0
LINE
  5
249
330
70
100
AcDbEntity
  8
A-JAN-___-___-EXI
100
AcDbLine
 10
-52499.79629312062
 20
-7109.966936526028
 30
0.0
 11
-53295.25070876512
 21
-7109.966936526028
 31
0.0
1001
REVIT
1002
{
1070
     1
1000
22953699
1002
}
1002
{
1070
     2
1000
-2000051
1002
}
1002
{
1070
     3
1000
-2000042
1002
}
  0
LINE
  5
24A
330
70
100
AcDbEntity
  8
A-JAN-___-___-EXI
100
AcDbLine
 10
-52499.79629312062
 20
-6804.066936584544
 30
0.0
 11
-52499.79629312062
 21
-7109.966936526028
 31
0.0
1001
REVIT
1002
{
1070
     1
1000
22953700
1002
}
1002
{
1070
     2
1000
-2000051
1002
}
1002
{
1070
     3
1000
-2000042
1002
}
  0
LINE
  5
24B
330
70
100
AcDbEntity
  8
A-JAN-___-___-EXI
100
AcDbLine
 10
-52499.79629312062
 20
-6957.016936555284
 30
0.0
 11
-53295.25070876512
 21
-6957.016936555284
 31
0.0
1001
REVIT
1002
{
1070
     1
1000
22953701
1002
}
1002
{
1070
     2
1000
-2000051
1002
}
1002
{
1070
     3
1000
-2000042
1002
}
  0
LINE
  5
24C
330
70
100
AcDbEntity
  8
A-JAN-___-___-EXI
100
AcDbLine
 10
-52499.79629312062
 20
-6498.166936643059
 30
0.0
 11
-52499.79629312062
 21
-6957.016936555284
 31
0.0
1001
REVIT
1002
{
1070
     1
1000
22953702
1002
}
1002
{
1070
     2
1000
-2000051
1002
}
1002
{
1070
     3
1000
-2000042
1002
}
  0
LINE
  5
24D
330
70
100
AcDbEntity
  8
A-JAN-___-___-EXI
100
AcDbLine
 10
-53295.25070876512
 20
-6498.166936643059
 30
0.0
 11
-52499.79629312062
 21
-6498.166936643059
 31
0.0
1001
REVIT
1002
{
1070
     1
1000
22953703
1002
}
1002
{
1070
     2
1000
-2000051
1002
}
1002
{
1070
     3
1000
-2000042
1002
}
  0
LINE
  5
24E
330
70
100
AcDbEntity
  8
A-JAN-___-___-EXI
100
AcDbLine
 10
-53295.25070876512
 20
-6957.016936555284
 30
0.0
 11
-53295.25070876512
 21
-6498.166936643059
 31
0.0
1001
REVIT
1002
{
1070
     1
1000
22953704
1002
}
1002
{
1070
     2
1000
-2000051
1002
}
1002
{
1070
     3
1000
-2000042
1002
}
  0
LINE
  5
24F
330
70
100
AcDbEntity
  8
A-JAN-___-___-EXI
100
AcDbLine
 10
-53295.25070876512
 20
-6498.166936643059
 30
0.0
 11
-52499.79629312062
 21
-6498.166936643059
 31
0.0
1001
REVIT
1002
{
1070
     1
1000
22953705
1002
}
1002
{
1070
     2
1000
-2000051
1002
}
1002
{
1070
     3
1000
-2000042
1002
}
  0
LINE
  5
250
330
70
100
AcDbEntity
  8
A-JAN-___-___-EXI
100
AcDbLine
 10
-53295.25070876512
 20
-6804.066936584544
 30
0.0
 11
-53295.25070876512
 21
-6498.166936643059
 31
0.0
1001
REVIT
1002
{
1070
     1
1000
22953706
1002
}
1002
{
1070
     2
1000
-2000051
1002
}
1002
{
1070
     3
1000
-2000042
1002
}
  0
LINE
  5
251
330
70
100
AcDbEntity
  8
A-JAN-___-___-EXI
100
AcDbLine
 10
-52499.79629312062
 20
-6804.066936584544
 30
0.0
 11
-53295.25070876512
 21
-6804.066936584544
 31
0.0
1001
REVIT
1002
{
1070
     1
1000
22953707
1002
}
1002
{
1070
     2
1000
-2000051
1002
}
1002
{
1070
     3
1000
-2000042
1002
}
  0
LINE
  5
252
330
70
100
AcDbEntity
  8
A-JAN-___-___-EXI
100
AcDbLine
 10
-52499.79629312062
 20
-6498.166936643059
 30
0.0
 11
-52499.79629312062
 21
-6804.066936584544
 31
0.0
1001
REVIT
1002
{
1070
     1
1000
22953708
1002
}
1002
{
1070
     2
1000
-2000051
1002
}
1002
{
1070
     3
1000
-2000042
1002
}
  0
LINE
  5
273
330
70
100
AcDbEntity
  8
A-JAN-___-___-EXI
100
AcDbLine
 10
-58465.5998914316
 20
-7109.966936526008
 30
0.0
 11
-58465.5998914316
 21
-5859.020655231049
 31
0.0
1001
REVIT
1002
{
1070
     1
1000
22953745
1002
}
1002
{
1070
     2
1000
-2000051
1002
}
1002
{
1070
     3
1000
-2000042
1002
}
  0
LINE
  5
276
330
70
100
AcDbEntity
  8
A-JAN-___-___-EXI
100
AcDbLine
 10
-58159.7962931206
 20
-6463.029615691508
 30
0.0
 11
-58955.25070876511
 21
-6463.029615691508
 31
0.0
1001
REVIT
1002
{
1070
     1
1000
22953748
1002
}
1002
{
1070
     2
1000
-2000051
1002
}
1002
{
1070
     3
1000
-2000042
1002
}
  0
LINE
  5
277
330
70
100
AcDbEntity
  8
A-JAN-___-___-EXI
100
AcDbLine
 10
-58159.7962931206
 20
-6429.491769711524
 30
0.0
 11
-58159.7962931206
 21
-6463.029615691508
 31
0.0
1001
REVIT
1002
{
1070
     1
1000
22953749
1002
}
1002
{
1070
     2
1000
-2000051
1002
}
1002
{
1070
     3
1000
-2000042
1002
}
  0
LINE
  5
278
330
70
100
AcDbEntity
  8
A-JAN-___-___-EXI
100
AcDbLine
 10
-58955.25070876511
 20
-6429.491769711524
 30
0.0
 11
-58159.7962931206
 21
-6429.491769711524
 31
0.0
1001
REVIT
1002
{
1070
     1
1000
22953750
1002
}
1002
{
1070
     2
1000
-2000051
1002
}
1002
{
1070
     3
1000
-2000042
1002
}
  0
LINE
  5
279
330
70
100
AcDbEntity
  8
A-JAN-___-___-EXI
100
AcDbLine
 10
-58955.25070876511
 20
-6463.029615691508
 30
0.0
 11
-58955.25070876511
 21
-6429.491769711524
 31
0.0
1001
REVIT
1002
{
1070
     1
1000
22953751
1002
}
1002
{
1070
     2
1000
-2000051
1002
}
1002
{
1070
     3
1000
-2000042
1002
}
  0
LINE
  5
27A
330
70
100
AcDbEntity
  8
A-JAN-___-___-EXI
100
AcDbLine
 10
-58955.25070876511
 20
-6463.029615691508
 30
0.0
 11
-58159.7962931206
 21
-6463.029615691508
 31
0.0
1001
REVIT
1002
{
1070
     1
1000
22953752
1002
}
1002
{
1070
     2
1000
-2000051
1002
}
1002
{
1070
     3
1000
-2000042
1002
}
  0
LINE
  5
27B
330
70
100
AcDbEntity
  8
A-JAN-___-___-EXI
100
AcDbLine
 10
-58955.25070876511
 20
-6498.166936643041
 30
0.0
 11
-58955.25070876511
 21
-6463.029615691508
 31
0.0
1001
REVIT
1002
{
1070
     1
1000
22953753
1002
}
1002
{
1070
     2
1000
-2000051
1002
}
1002
{
1070
     3
1000
-2000042
1002
}
  0
LINE
  5
27C
330
70
100
AcDbEntity
  8
A-JAN-___-___-EXI
100
AcDbLine
 10
-58159.7962931206
 20
-6498.166936643041
 30
0.0
 11
-58955.25070876511
 21
-6498.166936643041
 31
0.0
1001
REVIT
1002
{
1070
     1
1000
22953754
1002
}
1002
{
1070
     2
1000
-2000051
1002
}
1002
{
1070
     3
1000
-2000042
1002
}
  0
LINE
  5
27D
330
70
100
AcDbEntity
  8
A-JAN-___-___-EXI
100
AcDbLine
 10
-58159.7962931206
 20
-6463.029615691508
 30
0.0
 11
-58159.7962931206
 21
-6498.166936643041
 31
0.0
1001
REVIT
1002
{
1070
     1
1000
22953755
1002
}
1002
{
1070
     2
1000
-2000051
1002
}
1002
{
1070
     3
1000
-2000042
1002
}
  0
LINE
  5
296
330
70
100
AcDbEntity
  8
A-JAN-___-___-EXI
100
AcDbLine
 10
-58955.25070876511
 20
-6804.066936584525
 30
0.0
 11
-58159.7962931206
 21
-6804.066936584525
 31
0.0
1001
REVIT
1002
{
1070
     1
1000
22953780
1002
}
1002
{
1070
     2
1000
-2000051
1002
}
1002
{
1070
     3
1000
-2000042
1002
}
  0
LINE
  5
297
330
70
100
AcDbEntity
  8
A-JAN-___-___-EXI
100
AcDbLine
 10
-58955.25070876511
 20
-7109.966936526008
 30
0.0
 11
-58955.25070876511
 21
-6804.066936584525
 31
0.0
1001
REVIT
1002
{
1070
     1
1000
22953781
1002
}
1002
{
1070
     2
1000
-2000051
1002
}
1002
{
1070
     3
1000
-2000042
1002
}
  0
LINE
  5
298
330
70
100
AcDbEntity
  8
A-JAN-___-___-EXI
100
AcDbLine
 10
-58159.7962931206
 20
-7109.966936526008
 30
0.0
 11
-58955.25070876511
 21
-7109.966936526008
 31
0.0
1001
REVIT
1002
{
1070
     1
1000
22953782
1002
}
1002
{
1070
     2
1000
-2000051
1002
}
1002
{
1070
     3
1000
-2000042
1002
}
  0
LINE
  5
299
330
70
100
AcDbEntity
  8
A-JAN-___-___-EXI
100
AcDbLine
 10
-58159.7962931206
 20
-6804.066936584525
 30
0.0
 11
-58159.7962931206
 21
-7109.966936526008
 31
0.0
1001
REVIT
1002
{
1070
     1
1000
22953783
1002
}
1002
{
1070
     2
1000
-2000051
1002
}
1002
{
1070
     3
1000
-2000042
1002
}
  0
LINE
  5
29A
330
70
100
AcDbEntity
  8
A-JAN-___-___-EXI
100
AcDbLine
 10
-58159.7962931206
 20
-6957.016936555267
 30
0.0
 11
-58955.25070876511
 21
-6957.016936555267
 31
0.0
1001
REVIT
1002
{
1070
     1
1000
22953784
1002
}
1002
{
1070
     2
1000
-2000051
1002
}
1002
{
1070
     3
1000
-2000042
1002
}
  0
LINE
  5
29B
330
70
100
AcDbEntity
  8
A-JAN-___-___-EXI
100
AcDbLine
 10
-58159.7962931206
 20
-6498.166936643041
 30
0.0
 11
-58159.7962931206
 21
-6957.016936555267
 31
0.0
1001
REVIT
1002
{
1070
     1
1000
22953785
1002
}
1002
{
1070
     2
1000
-2000051
1002
}
1002
{
1070
     3
1000
-2000042
1002
}
  0
LINE
  5
29C
330
70
100
AcDbEntity
  8
A-JAN-___-___-EXI
100
AcDbLine
 10
-58955.25070876511
 20
-6498.166936643041
 30
0.0
 11
-58159.7962931206
 21
-6498.166936643041
 31
0.0
1001
REVIT
1002
{
1070
     1
1000
22953786
1002
}
1002
{
1070
     2
1000
-2000051
1002
}
1002
{
1070
     3
1000
-2000042
1002
}
  0
LINE
  5
29D
330
70
100
AcDbEntity
  8
A-JAN-___-___-EXI
100
AcDbLine
 10
-58955.25070876511
 20
-6957.016936555267
 30
0.0
 11
-58955.25070876511
 21
-6498.166936643041
 31
0.0
1001
REVIT
1002
{
1070
     1
1000
22953787
1002
}
1002
{
1070
     2
1000
-2000051
1002
}
1002
{
1070
     3
1000
-2000042
1002
}
  0
LINE
  5
29E
330
70
100
AcDbEntity
  8
A-JAN-___-___-EXI
100
AcDbLine
 10
-58955.25070876511
 20
-6498.166936643041
 30
0.0
 11
-58159.7962931206
 21
-6498.166936643041
 31
0.0
1001
REVIT
1002
{
1070
     1
1000
22953788
1002
}
1002
{
1070
     2
1000
-2000051
1002
}
1002
{
1070
     3
1000
-2000042
1002
}
  0
LINE
  5
29F
330
70
100
AcDbEntity
  8
A-JAN-___-___-EXI
100
AcDbLine
 10
-58955.25070876511
 20
-6804.066936584525
 30
0.0
 11
-58955.25070876511
 21
-6498.166936643041
 31
0.0
1001
REVIT
1002
{
1070
     1
1000
22953789
1002
}
1002
{
1070
     2
1000
-2000051
1002
}
1002
{
1070
     3
1000
-2000042
1002
}
  0
LINE
  5
2A0
330
70
100
AcDbEntity
  8
A-JAN-___-___-EXI
100
AcDbLine
 10
-58159.7962931206
 20
-6804.066936584525
 30
0.0
 11
-58955.25070876511
 21
-6804.066936584525
 31
0.0
1001
REVIT
1002
{
1070
     1
1000
22953790
1002
}
1002
{
1070
     2
1000
-2000051
1002
}
1002
{
1070
     3
1000
-2000042
1002
}
  0
LINE
  5
2A1
330
70
100
AcDbEntity
  8
A-JAN-___-___-EXI
100
AcDbLine
 10
-58159.7962931206
 20
-6498.166936643041
 30
0.0
 11
-58159.7962931206
 21
-6804.066936584525
 31
0.0
1001
REVIT
1002
{
1070
     1
1000
22953791
1002
}
1002
{
1070
     2
1000
-2000051
1002
}
1002
{
1070
     3
1000
-2000042
1002
}
  0
LWPOLYLINE
  5
2EE
330
70
100
AcDbEntity
  8
A-JAN-___-___-EXI
100
AcDbPolyline
 90
        4
 70
     1
 43
0.0
 10
-58159.7962931206
 20
-7109.966936526008
 10
-58159.7962931206
 20
-5859.020655231049
 10
-58424.94776500211
 20
-5859.020655231049
 10
-58424.94776500211
 20
-7109.966936526008
1001
REVIT
1002
{
1070
     1
1000
22953807
1002
}
1002
{
1070
     2
1000
-2000051
1002
}
1002
{
1070
     3
1000
-2000042
1002
}
  0
LWPOLYLINE
  5
2EF
330
70
100
AcDbEntity
  8
A-JAN-___-___-EXI
100
AcDbPolyline
 90
        4
 70
     1
 43
0.0
 10
-58955.25070876511
 20
-6804.066936584525
 10
-58955.25070876511
 20
-6651.116936613783
 10
-58159.7962931206
 20
-6651.116936613783
 10
-58159.7962931206
 20
-6804.066936584525
1001
REVIT
1002
{
1070
     1
1000
22953795
1002
}
1002
{
1070
     2
1000
-2000051
1002
}
1002
{
1070
     3
1000
-2000042
1002
}
  0
LWPOLYLINE
  5
2F0
330
70
100
AcDbEntity
  8
A-JAN-___-___-EXI
100
AcDbPolyline
 90
        4
 70
     1
 43
0.0
 10
-58955.25070876511
 20
-6001.638433851166
 10
-58955.25070876511
 20
-6144.256212471287
 10
-58159.7962931206
 20
-6144.256212471287
 10
-58159.7962931206
 20
-6001.638433851166
1001
REVIT
1002
{
1070
     1
1000
22953775
1002
}
1002
{
1070
     2
1000
-2000051
1002
}
1002
{
1070
     3
1000
-2000042
1002
}
  0
LWPOLYLINE
  5
2F1
330
70
100
AcDbEntity
  8
A-JAN-___-___-EXI
100
AcDbPolyline
 90
        4
 70
     1
 43
0.0
 10
-58159.7962931206
 20
-6144.256212471287
 10
-58159.7962931206
 20
-5859.020655231049
 10
-58955.25070876511
 20
-5859.020655231049
 10
-58955.25070876511
 20
-6144.256212471287
1001
REVIT
1002
{
1070
     1
1000
22953771
1002
}
1002
{
1070
     2
1000
-2000051
1002
}
1002
{
1070
     3
1000
-2000042
1002
}
  0
LWPOLYLINE
  5
2F2
330
70
100
AcDbEntity
  8
A-JAN-___-___-EXI
100
AcDbPolyline
 90
        4
 70
     1
 43
0.0
 10
-58955.25070876511
 20
-6286.873991091407
 10
-58955.25070876511
 20
-5859.020655231049
 10
-58159.7962931206
 20
-5859.020655231049
 10
-58159.7962931206
 20
-6286.873991091407
1001
REVIT
1002
{
1070
     1
1000
22953767
1002
}
1002
{
1070
     2
1000
-2000051
1002
}
1002
{
1070
     3
1000
-2000042
1002
}
  0
LWPOLYLINE
  5
2F3
330
70
100
AcDbEntity
  8
A-JAN-___-___-EXI
100
AcDbPolyline
 90
       30
 70
     1
 43
0.0
 10
-58159.7962931206
 20
-5859.020655231049
 10
-58955.25070876511
 20
-5859.020655231049
 10
-58955.25070876511
 20
-6429.491769711524
 10
-58955.25070876511
 20
-6144.256212471287
 10
-58159.7962931206
 20
-6144.256212471287
 10
-58159.7962931206
 20
-6429.491769711524
 10
-58955.25070876511
 20
-6429.491769711524
 10
-58159.7962931206
 20
-6429.491769711524
 10
-58159.7962931206
 20
-5859.020655231049
 10
-58159.7962931206
 20
-7109.966936526008
 10
-58465.5998914316
 20
-7109.966936526008
 10
-58159.7962931206
 20
-7109.966936526008
 10
-58159.7962931206
 20
-5859.020655231049
 10
-58465.5998914316
 20
-5859.020655231049
 10
-58159.7962931206
 20
-5859.020655231049
 10
-58955.25070876511
 20
-5859.020655231049
 10
-58955.25070876511
 20
-7109.966936526008
 10
-58955.25070876511
 20
-6498.166936643041
 10
-58159.7962931206
 20
-6498.166936643041
 10
-58159.7962931206
 20
-7109.966936526008
 10
-58955.25070876511
 20
-7109.966936526008
 10
-58955.25070876511
 20
-5859.020655231049
 10
-58465.5998914316
 20
-5859.020655231049
 10
-58690.0992368836
 20
-5859.020655231049
 10
-58690.0992368836
 20
-7109.966936526008
 10
-58465.5998914316
 20
-7109.966936526008
 10
-58465.5998914316
 20
-5859.020655231049
 10
-58465.5998914316
 20
-7109.966936526008
 10
-58955.25070876511
 20
-7109.966936526008
 10
-58159.7962931206
 20
-7109.966936526008
1001
REVIT
1002
{
1070
     1
1000
22953763
1002
}
1002
{
1070
     2
1000
-2000051
1002
}
1002
{
1070
     3
1000
-2000042
1002
}
  0
LWPOLYLINE
  5
2F4
330
70
100
AcDbEntity
  8
A-JAN-___-___-EXI
100
AcDbPolyline
 90
        4
 70
     1
 43
0.0
 10
-58121.91462930752
 20
-5816.537938794268
 10
-58121.91462930752
 20
-7145.713047564138
 10
-58995.59787242693
 20
-7145.713047564138
 10
-58995.59787242693
 20
-5816.537938794268
1001
REVIT
1002
{
1070
     1
1000
22953739
1002
}
1002
{
1070
     2
1000
-2000051
1002
}
1002
{
1070
     3
1000
-2000042
1002
}
  0
LWPOLYLINE
  5
2F5
330
70
100
AcDbEntity
  8
A-JAN-___-___-EXI
100
AcDbPolyline
 90
        4
 70
     1
 43
0.0
 10
-59080.93160503876
 20
-5738.37299699193
 10
-59080.93160503876
 20
-7218.372996991877
 10
-58039.89468817893
 20
-7218.372996991877
 10
-58039.89468817893
 20
-5738.37299699193
1001
REVIT
1002
{
1070
     1
1000
22953735
1002
}
1002
{
1070
     2
1000
-2000051
1002
}
1002
{
1070
     3
1000
-2000042
1002
}
  0
LWPOLYLINE
  5
2F6
330
70
100
AcDbEntity
  8
A-JAN-___-___-EXI
100
AcDbPolyline
 90
        4
 70
     1
 43
0.0
 10
-52499.79629312062
 20
-7109.966936526028
 10
-52499.79629312062
 20
-5859.020655231066
 10
-52764.94776500212
 20
-5859.020655231066
 10
-52764.94776500212
 20
-7109.966936526028
1001
REVIT
1002
{
1070
     1
1000
22953724
1002
}
1002
{
1070
     2
1000
-2000051
1002
}
1002
{
1070
     3
1000
-2000042
1002
}
  0
LWPOLYLINE
  5
2F7
330
70
100
AcDbEntity
  8
A-JAN-___-___-EXI
100
AcDbPolyline
 90
        4
 70
     1
 43
0.0
 10
-53295.25070876512
 20
-6804.066936584544
 10
-53295.25070876512
 20
-6651.1169366138
 10
-52499.79629312062
 20
-6651.1169366138
 10
-52499.79629312062
 20
-6804.066936584544
1001
REVIT
1002
{
1070
     1
1000
22953712
1002
}
1002
{
1070
     2
1000
-2000051
1002
}
1002
{
1070
     3
1000
-2000042
1002
}
  0
LWPOLYLINE
  5
2F8
330
70
100
AcDbEntity
  8
A-JAN-___-___-EXI
100
AcDbPolyline
 90
        4
 70
     1
 43
0.0
 10
-53295.25070876512
 20
-6001.638433851184
 10
-53295.25070876512
 20
-6144.256212471304
 10
-52499.79629312062
 20
-6144.256212471304
 10
-52499.79629312062
 20
-6001.638433851184
1001
REVIT
1002
{
1070
     1
1000
22953692
1002
}
1002
{
1070
     2
1000
-2000051
1002
}
1002
{
1070
     3
1000
-2000042
1002
}
  0
LWPOLYLINE
  5
2F9
330
70
100
AcDbEntity
  8
A-JAN-___-___-EXI
100
AcDbPolyline
 90
        4
 70
     1
 43
0.0
 10
-52499.79629312062
 20
-6144.256212471304
 10
-52499.79629312062
 20
-5859.020655231066
 10
-53295.25070876512
 20
-5859.020655231066
 10
-53295.25070876512
 20
-6144.256212471304
1001
REVIT
1002
{
1070
     1
1000
22953688
1002
}
1002
{
1070
     2
1000
-2000051
1002
}
1002
{
1070
     3
1000
-2000042
1002
}
  0
LWPOLYLINE
  5
2FA
330
70
100
AcDbEntity
  8
A-JAN-___-___-EXI
100
AcDbPolyline
 90
        4
 70
     1
 43
0.0
 10
-53295.25070876512
 20
-6286.873991091425
 10
-53295.25070876512
 20
-5859.020655231066
 10
-52499.79629312062
 20
-5859.020655231066
 10
-52499.79629312062
 20
-6286.873991091425
1001
REVIT
1002
{
1070
     1
1000
22953684
1002
}
1002
{
1070
     2
1000
-2000051
1002
}
1002
{
1070
     3
1000
-2000042
1002
}
  0
LWPOLYLINE
  5
2FB
330
70
100
AcDbEntity
  8
A-JAN-___-___-EXI
100
AcDbPolyline
 90
       30
 70
     1
 43
0.0
 10
-52499.79629312062
 20
-5859.020655231066
 10
-53295.25070876512
 20
-5859.020655231066
 10
-53295.25070876512
 20
-6429.491769711543
 10
-53295.25070876512
 20
-6144.256212471304
 10
-52499.79629312062
 20
-6144.256212471304
 10
-52499.79629312062
 20
-6429.491769711543
 10
-53295.25070876512
 20
-6429.491769711543
 10
-52499.79629312062
 20
-6429.491769711543
 10
-52499.79629312062
 20
-5859.020655231066
 10
-52499.79629312062
 20
-7109.966936526028
 10
-52805.59989143161
 20
-7109.966936526028
 10
-52499.79629312062
 20
-7109.966936526028
 10
-52499.79629312062
 20
-5859.020655231066
 10
-52805.59989143161
 20
-5859.020655231066
 10
-52499.79629312062
 20
-5859.020655231066
 10
-53295.25070876512
 20
-5859.020655231066
 10
-53295.25070876512
 20
-7109.966936526028
 10
-53295.25070876512
 20
-6498.166936643059
 10
-52499.79629312062
 20
-6498.166936643059
 10
-52499.79629312062
 20
-7109.966936526028
 10
-53295.25070876512
 20
-7109.966936526028
 10
-53295.25070876512
 20
-5859.020655231066
 10
-52805.59989143161
 20
-5859.020655231066
 10
-53030.09923688361
 20
-5859.020655231066
 10
-53030.09923688361
 20
-7109.966936526028
 10
-52805.59989143161
 20
-7109.966936526028
 10
-52805.59989143161
 20
-5859.020655231066
 10
-52805.59989143161
 20
-7109.966936526028
 10
-53295.25070876512
 20
-7109.966936526028
 10
-52499.79629312062
 20
-7109.966936526028
1001
REVIT
1002
{
1070
     1
1000
22953680
1002
}
1002
{
1070
     2
1000
-2000051
1002
}
1002
{
1070
     3
1000
-2000042
1002
}
  0
LWPOLYLINE
  5
2FC
330
70
100
AcDbEntity
  8
A-JAN-___-___-EXI
100
AcDbPolyline
 90
        4
 70
     1
 43
0.0
 10
-52461.91462930753
 20
-5816.537938794287
 10
-52461.91462930753
 20
-7145.713047564156
 10
-53335.59787242694
 20
-7145.713047564156
 10
-53335.59787242694
 20
-5816.537938794287
1001
REVIT
1002
{
1070
     1
1000
22953656
1002
}
1002
{
1070
     2
1000
-2000051
1002
}
1002
{
1070
     3
1000
-2000042
1002
}
  0
LWPOLYLINE
  5
2FD
330
70
100
AcDbEntity
  8
A-JAN-___-___-EXI
100
AcDbPolyline
 90
        4
 70
     1
 43
0.0
 10
-53420.93160503877
 20
-5738.37299699195
 10
-53420.93160503877
 20
-7218.372996991897
 10
-52379.89468817894
 20
-7218.372996991897
 10
-52379.89468817894
 20
-5738.37299699195
1001
REVIT
1002
{
1070
     1
1000
22953652
1002
}
1002
{
1070
     2
1000
-2000051
1002
}
1002
{
1070
     3
1000
-2000042
1002
}
  0
LWPOLYLINE
  5
2FE
330
70
100
AcDbEntity
  8
A-POR-___-___-EXI
100
AcDbPolyline
 90
        4
 70
     1
 43
0.0
 10
-54598.0866144804
 20
-5863.802512950162
 10
-54598.0866144804
 20
-7732.721372632282
 10
-55388.1073487468
 20
-7732.721372632282
 10
-55388.1073487468
 20
-5863.802512950162
1001
REVIT
1002
{
1070
     1
1000
22953565
1002
}
1002
{
1070
     2
1000
-2000051
1002
}
1002
{
1070
     3
1000
-2000042
1002
}
  0
LWPOLYLINE
  5
2FF
330
70
100
AcDbEntity
  8
A-POR-___-___-EXI
100
AcDbPolyline
 90
        4
 70
     1
 43
0.0
 10
-55525.04604432145
 20
-7867.049984727926
 10
-55525.04604432145
 20
-7732.721372632282
 10
-54458.48429070916
 20
-7732.721372632282
 10
-54458.48429070916
 20
-7867.049984727926
1001
REVIT
1002
{
1070
     1
1000
22953561
1002
}
1002
{
1070
     2
1000
-2000051
1002
}
1002
{
1070
     3
1000
-2000042
1002
}
  0
LWPOLYLINE
  5
300
330
70
100
AcDbEntity
  8
A-POR-___-___-EXI
100
AcDbPolyline
 90
        4
 70
     1
 43
0.0
 10
-49262.61056652356
 20
-5710.83133464779
 10
-49262.61056652356
 20
-7767.049984727967
 10
-49325.22228109191
 20
-7767.049984727967
 10
-49325.22228109191
 20
-5710.83133464779
1001
REVIT
1002
{
1070
     1
1000
22953553
1002
}
1002
{
1070
     2
1000
-2000051
1002
}
1002
{
1070
     3
1000
-2000042
1002
}
  0
LWPOLYLINE
  5
301
330
70
100
AcDbEntity
  8
A-POR-___-___-EXI
100
AcDbPolyline
 90
        4
 70
     1
 43
0.0
 10
-49262.61056652356
 20
-7767.049984727967
 10
-49262.61056652356
 20
-5710.83133464779
 10
-49387.83399566026
 20
-5710.83133464779
 10
-49387.83399566026
 20
-7767.049984727967
1001
REVIT
1002
{
1070
     1
1000
22953549
1002
}
1002
{
1070
     2
1000
-2000051
1002
}
1002
{
1070
     3
1000
-2000042
1002
}
  0
LWPOLYLINE
  5
302
330
70
100
AcDbEntity
  8
A-POR-___-___-EXI
100
AcDbPolyline
 90
        4
 70
     1
 43
0.0
 10
-48940.47294837856
 20
-5710.83133464779
 10
-48940.47294837856
 20
-7767.049984727967
 10
-49749.61738180563
 20
-7767.049984727967
 10
-49749.61738180563
 20
-5710.83133464779
1001
REVIT
1002
{
1070
     1
1000
22953545
1002
}
1002
{
1070
     2
1000
-2000051
1002
}
1002
{
1070
     3
1000
-2000042
1002
}
  0
LWPOLYLINE
  5
303
330
70
100
AcDbEntity
  8
A-POR-___-___-EXI
100
AcDbPolyline
 90
        4
 70
     1
 43
0.0
 10
-49858.16997292924
 20
-7767.049984727967
 10
-49858.16997292924
 20
-5595.83133464779
 10
-48842.19195082823
 20
-5595.83133464779
 10
-48842.19195082823
 20
-7767.049984727967
1001
REVIT
1002
{
1070
     1
1000
22953541
1002
}
1002
{
1070
     2
1000
-2000051
1002
}
1002
{
1070
     3
1000
-2000042
1002
}
  0
LWPOLYLINE
  5
304
330
70
100
AcDbEntity
  8
A-COB-___-___-EXI
100
AcDbPolyline
 90
        4
 70
     1
 43
0.0
 10
-50090.42057041543
 20
-5667.102165819873
 10
-50090.42057041543
 20
-5595.83133464779
 10
-60170.42057041543
 20
-5595.83133464779
 10
-60170.42057041543
 20
-5667.102165819873
1001
REVIT
1002
{
1070
     1
1000
22953501
1002
}
1002
{
1070
     2
1000
-2000051
1002
}
1002
{
1070
     3
1000
-2000042
1002
}
  0
LWPOLYLINE
  5
305
330
70
100
AcDbEntity
  8
A-COB-___-___-EXI
100
AcDbPolyline
 90
        4
 70
     1
 43
0.0
 10
-60170.42057041543
 20
-5738.372996991955
 10
-60170.42057041543
 20
-5595.83133464779
 10
-50090.42057041543
 20
-5595.83133464779
 10
-50090.42057041543
 20
-5738.372996991955
1001
REVIT
1002
{
1070
     1
1000
22953497
1002
}
1002
{
1070
     2
1000
-2000051
1002
}
1002
{
1070
     3
1000
-2000042
1002
}
  0
LWPOLYLINE
  5
307
330
70
100
AcDbEntity
  8
A-COB-___-___-EXI
100
AcDbPolyline
 90
        6
 70
     0
 43
0.0
 10
-46632.96237206695
 20
-3910.39246566917
 10
-47165.08575512384
 20
-2708.083114195077
 10
-47253.02452104529
 20
-2509.389345060073
 10
-47071.18073506273
 20
-2428.908119104143
 10
-46983.24196914128
 20
-2627.601888239145
 10
-46415.49884963658
 20
-3910.39246566917
1001
REVIT
1002
{
1070
     1
1000
22953489
1002
}
1002
{
1070
     2
1000
-2000051
1002
}
1002
{
1070
     3
1000
-2000042
1002
}
  0
LWPOLYLINE
  5
308
330
70
100
AcDbEntity
  8
A-COB-___-___-EXI
100
AcDbPolyline
 90
        6
 70
     0
 43
0.0
 10
-42755.93200288991
 20
-3910.392465669179
 10
-42088.90989279632
 20
-2755.07628121525
 10
-41958.90989279633
 20
-2529.909676231295
 10
-42178.16080263056
 20
-2432.292881893102
 10
-42308.16080263055
 20
-2657.459486877057
 10
-43031.54199521272
 20
-3910.392465669179
1001
REVIT
1002
{
1070
     1
1000
22953487
1002
}
1002
{
1070
     2
1000
-2000051
1002
}
1002
{
1070
     3
1000
-2000042
1002
}
  0
LWPOLYLINE
  5
309
330
70
100
AcDbEntity
  8
A-COB-___-___-EXI
100
AcDbPolyline
 90
        4
 70
     0
 43
0.0
 10
-40082.12914389358
 20
-3365.506301677644
 10
-40082.12914389358
 20
-3950.392465669199
 10
-40082.12914389358
 20
-4110.392465669199
 10
-49930.42057041543
 20
-4110.392465669166
1001
REVIT
1002
{
1070
     1
1000
22953417
1002
}
1002
{
1070
     2
1000
-2000051
1002
}
1002
{
1070
     3
1000
-2000042
1002
}
  0
LWPOLYLINE
  5
30A
330
70
100
AcDbEntity
  8
A-COB-___-___-EXI
100
AcDbPolyline
 90
        5
 70
     0
 43
0.0
 10
-40082.12914389358
 20
-4110.392465669199
 10
-39902.12914389358
 20
-4110.392465669195
 10
-39189.08742719612
 20
-4110.392465669199
 10
-39189.08742719612
 20
-3910.392465669192
 10
-49930.42057041543
 20
-3910.392465669158
1001
REVIT
1002
{
1070
     1
1000
22953416
1002
}
1002
{
1070
     2
1000
-2000051
1002
}
1002
{
1070
     3
1000
-2000042
1002
}
  0
LWPOLYLINE
  5
30B
330
70
100
AcDbEntity
  8
A-COB-___-___-EXI
100
AcDbPolyline
 90
        4
 70
     1
 43
0.0
 10
-50090.42057041543
 20
-4110.392465669161
 10
-50090.42057041543
 20
-5450.154961343442
 10
-50870.42057041543
 20
-5450.154961343442
 10
-50870.42057041543
 20
-4110.392465669158
1001
REVIT
1002
{
1070
     1
1000
22953414
1002
}
1002
{
1070
     2
1000
-2000051
1002
}
1002
{
1070
     3
1000
-2000042
1002
}
  0
LWPOLYLINE
  5
30C
330
70
100
AcDbEntity
  8
A-COB-___-___-EXI
100
AcDbPolyline
 90
        4
 70
     1
 43
0.0
 10
-49930.42057041543
 20
-4377.004636594184
 10
-49930.42057041543
 20
-4257.004636594184
 10
-46074.9926674705
 20
-4257.004636594184
 10
-46074.9926674705
 20
-4377.004636594184
1001
REVIT
1002
{
1070
     1
1000
22953409
1002
}
1002
{
1070
     2
1000
-2000051
1002
}
1002
{
1070
     3
1000
-2000042
1002
}
  0
LWPOLYLINE
  5
30D
330
70
100
AcDbEntity
  8
A-COB-___-___-EXI
100
AcDbPolyline
 90
        4
 70
     1
 43
0.0
 10
-45894.99266747051
 20
-4377.004636594197
 10
-45894.99266747051
 20
-4257.004636594198
 10
-43709.08742719612
 20
-4257.004636594198
 10
-43709.08742719612
 20
-4377.004636594197
1001
REVIT
1002
{
1070
     1
1000
22953404
1002
}
1002
{
1070
     2
1000
-2000051
1002
}
1002
{
1070
     3
1000
-2000042
1002
}
  0
LWPOLYLINE
  5
30E
330
70
100
AcDbEntity
  8
A-COB-___-___-EXI
100
AcDbPolyline
 90
        4
 70
     1
 43
0.0
 10
-43529.08742719611
 20
-4377.004636594205
 10
-43529.08742719611
 20
-4257.004636594206
 10
-39369.08742719611
 20
-4257.004636594206
 10
-39369.08742719611
 20
-4377.004636594205
1001
REVIT
1002
{
1070
     1
1000
22953399
1002
}
1002
{
1070
     2
1000
-2000051
1002
}
1002
{
1070
     3
1000
-2000042
1002
}
  0
LWPOLYLINE
  5
310
330
70
100
AcDbEntity
  8
A-JAN-___-___-EXI
100
AcDbPolyline
 90
        4
 70
     1
 43
0.0
 10
-49930.42057041543
 20
-4686.307078354785
 10
-49930.42057041543
 20
-5857.517937061633
 10
-50010.42057041543
 20
-5857.517937061633
 10
-50010.42057041543
 20
-4686.307078354785
1001
REVIT
1002
{
1070
     1
1000
22953379
1002
}
1002
{
1070
     2
1000
-2000051
1002
}
1002
{
1070
     3
1000
-2000042
1002
}
  0
LWPOLYLINE
  5
311
330
70
100
AcDbEntity
  8
A-JAN-___-___-EXI
100
AcDbPolyline
 90
        4
 70
     1
 43
0.0
 10
-49930.42057041543
 20
-5857.517937061633
 10
-49930.42057041543
 20
-4686.307078354785
 10
-50090.42057041543
 20
-4686.307078354785
 10
-50090.42057041543
 20
-5857.517937061633
1001
REVIT
1002
{
1070
     1
1000
22953375
1002
}
1002
{
1070
     2
1000
-2000051
1002
}
1002
{
1070
     3
1000
-2000042
1002
}
  0
LWPOLYLINE
  5
312
330
70
100
AcDbEntity
  8
A-JAN-___-___-EXI
100
AcDbPolyline
 90
        4
 70
     1
 43
0.0
 10
-50839.7962931206
 20
-7109.966936526034
 10
-50839.7962931206
 20
-5859.020655231072
 10
-51104.9477650021
 20
-5859.020655231072
 10
-51104.9477650021
 20
-7109.966936526034
1001
REVIT
1002
{
1070
     1
1000
22953641
1002
}
1002
{
1070
     2
1000
-2000051
1002
}
1002
{
1070
     3
1000
-2000042
1002
}
  0
LWPOLYLINE
  5
313
330
70
100
AcDbEntity
  8
A-JAN-___-___-EXI
100
AcDbPolyline
 90
        4
 70
     1
 43
0.0
 10
-51635.2507087651
 20
-6804.066936584549
 10
-51635.2507087651
 20
-6651.116936613806
 10
-50839.7962931206
 20
-6651.116936613806
 10
-50839.7962931206
 20
-6804.066936584549
1001
REVIT
1002
{
1070
     1
1000
22953629
1002
}
1002
{
1070
     2
1000
-2000051
1002
}
1002
{
1070
     3
1000
-2000042
1002
}
  0
LWPOLYLINE
  5
314
330
70
100
AcDbEntity
  8
A-JAN-___-___-EXI
100
AcDbPolyline
 90
        4
 70
     1
 43
0.0
 10
-51635.2507087651
 20
-6001.63843385119
 10
-51635.2507087651
 20
-6144.256212471311
 10
-50839.7962931206
 20
-6144.256212471311
 10
-50839.7962931206
 20
-6001.63843385119
1001
REVIT
1002
{
1070
     1
1000
22953609
1002
}
1002
{
1070
     2
1000
-2000051
1002
}
1002
{
1070
     3
1000
-2000042
1002
}
  0
LWPOLYLINE
  5
315
330
70
100
AcDbEntity
  8
A-JAN-___-___-EXI
100
AcDbPolyline
 90
        4
 70
     1
 43
0.0
 10
-50839.7962931206
 20
-6144.256212471311
 10
-50839.7962931206
 20
-5859.020655231072
 10
-51635.2507087651
 20
-5859.020655231072
 10
-51635.2507087651
 20
-6144.256212471311
1001
REVIT
1002
{
1070
     1
1000
22953605
1002
}
1002
{
1070
     2
1000
-2000051
1002
}
1002
{
1070
     3
1000
-2000042
1002
}
  0
LWPOLYLINE
  5
316
330
70
100
AcDbEntity
  8
A-JAN-___-___-EXI
100
AcDbPolyline
 90
        4
 70
     1
 43
0.0
 10
-51635.2507087651
 20
-6286.87399109143
 10
-51635.2507087651
 20
-5859.020655231072
 10
-50839.7962931206
 20
-5859.020655231072
 10
-50839.7962931206
 20
-6286.87399109143
1001
REVIT
1002
{
1070
     1
1000
22953601
1002
}
1002
{
1070
     2
1000
-2000051
1002
}
1002
{
1070
     3
1000
-2000042
1002
}
  0
LWPOLYLINE
  5
317
330
70
100
AcDbEntity
  8
A-JAN-___-___-EXI
100
AcDbPolyline
 90
       30
 70
     1
 43
0.0
 10
-50839.7962931206
 20
-5859.020655231072
 10
-51635.2507087651
 20
-5859.020655231072
 10
-51635.2507087651
 20
-6429.491769711548
 10
-51635.2507087651
 20
-6144.256212471311
 10
-50839.7962931206
 20
-6144.256212471311
 10
-50839.7962931206
 20
-6429.491769711548
 10
-51635.2507087651
 20
-6429.491769711548
 10
-50839.7962931206
 20
-6429.491769711548
 10
-50839.7962931206
 20
-5859.020655231072
 10
-50839.7962931206
 20
-7109.966936526034
 10
-51145.5998914316
 20
-7109.966936526034
 10
-50839.7962931206
 20
-7109.966936526034
 10
-50839.7962931206
 20
-5859.020655231072
 10
-51145.5998914316
 20
-5859.020655231072
 10
-50839.7962931206
 20
-5859.020655231072
 10
-51635.2507087651
 20
-5859.020655231072
 10
-51635.2507087651
 20
-7109.966936526034
 10
-51635.2507087651
 20
-6498.166936643063
 10
-50839.7962931206
 20
-6498.166936643063
 10
-50839.7962931206
 20
-7109.966936526034
 10
-51635.2507087651
 20
-7109.966936526034
 10
-51635.2507087651
 20
-5859.020655231072
 10
-51145.5998914316
 20
-5859.020655231072
 10
-51370.0992368836
 20
-5859.020655231072
 10
-51370.0992368836
 20
-7109.966936526034
 10
-51145.5998914316
 20
-7109.966936526034
 10
-51145.5998914316
 20
-5859.020655231072
 10
-51145.5998914316
 20
-7109.966936526034
 10
-51635.2507087651
 20
-7109.966936526034
 10
-50839.7962931206
 20
-7109.966936526034
1001
REVIT
1002
{
1070
     1
1000
22953597
1002
}
1002
{
1070
     2
1000
-2000051
1002
}
1002
{
1070
     3
1000
-2000042
1002
}
  0
LWPOLYLINE
  5
318
330
70
100
AcDbEntity
  8
A-JAN-___-___-EXI
100
AcDbPolyline
 90
        4
 70
     1
 43
0.0
 10
-50801.91462930752
 20
-5816.537938794292
 10
-50801.91462930752
 20
-7145.713047564162
 10
-51675.59787242693
 20
-7145.713047564162
 10
-51675.59787242693
 20
-5816.537938794292
1001
REVIT
1002
{
1070
     1
1000
22953573
1002
}
1002
{
1070
     2
1000
-2000051
1002
}
1002
{
1070
     3
1000
-2000042
1002
}
  0
LWPOLYLINE
  5
319
330
70
100
AcDbEntity
  8
A-JAN-___-___-EXI
100
AcDbPolyline
 90
        4
 70
     1
 43
0.0
 10
-51760.93160503875
 20
-5738.372996991955
 10
-51760.93160503875
 20
-7218.372996991902
 10
-50719.89468817893
 20
-7218.372996991902
 10
-50719.89468817893
 20
-5738.372996991955
1001
REVIT
1002
{
1070
     1
1000
22953569
1002
}
1002
{
1070
     2
1000
-2000051
1002
}
1002
{
1070
     3
1000
-2000042
1002
}
  0
LWPOLYLINE
  5
31A
330
70
100
AcDbEntity
  8
A-POR-___-___-EXI
100
AcDbPolyline
 90
        4
 70
     1
 43
0.0
 10
-40576.75821447389
 20
-5923.166246431986
 10
-40576.75821447389
 20
-5486.599947200502
 10
-40416.75821447389
 20
-5486.599947200502
 10
-40416.75821447389
 20
-5923.166246431986
1001
REVIT
1002
{
1070
     1
1000
22953513
1002
}
1002
{
1070
     2
1000
-2000051
1002
}
1002
{
1070
     3
1000
-2000042
1002
}
  0
LWPOLYLINE
  5
31B
330
70
100
AcDbEntity
  8
A-POR-___-___-EXI
100
AcDbPolyline
 90
        4
 70
     1
 43
0.0
 10
-40771.75821447389
 20
-5923.166246431986
 10
-40771.75821447389
 20
-5486.599947200502
 10
-40611.75821447389
 20
-5486.599947200502
 10
-40611.75821447389
 20
-5923.166246431986
1001
REVIT
1002
{
1070
     1
1000
22953509
1002
}
1002
{
1070
     2
1000
-2000051
1002
}
1002
{
1070
     3
1000
-2000042
1002
}
  0
LWPOLYLINE
  5
31C
330
70
100
AcDbEntity
  8
A-POR-___-___-EXI
100
AcDbPolyline
 90
        4
 70
     1
 43
0.0
 10
-40965.50821447389
 20
-5923.166246431986
 10
-40965.50821447389
 20
-5486.599947200502
 10
-40805.50821447389
 20
-5486.599947200502
 10
-40805.50821447389
 20
-5923.166246431986
1001
REVIT
1002
{
1070
     1
1000
22953505
1002
}
1002
{
1070
     2
1000
-2000051
1002
}
1002
{
1070
     3
1000
-2000042
1002
}
  0
LWPOLYLINE
  5
31D
330
70
100
AcDbEntity
  8
A-POR-___-___-EXI
100
AcDbPolyline
 90
        4
 70
     1
 43
0.0
 10
-40833.77988460753
 20
-7767.049984727984
 10
-40833.77988460753
 20
-5993.942145120993
 10
-40727.51328264164
 20
-5993.942145120993
 10
-40727.51328264164
 20
-7767.049984727984
1001
REVIT
1002
{
1070
     1
1000
22953272
1002
}
1002
{
1070
     2
1000
-2000051
1002
}
1002
{
1070
     3
1000
-2000042
1002
}
  0
LWPOLYLINE
  5
31E
330
70
100
AcDbEntity
  8
A-POR-___-___-EXI
100
AcDbPolyline
 90
        4
 70
     1
 43
0.0
 10
-41156.7582144739
 20
-5923.166246431986
 10
-41156.7582144739
 20
-5486.599947200502
 10
-40996.7582144739
 20
-5486.599947200502
 10
-40996.7582144739
 20
-5923.166246431986
1001
REVIT
1002
{
1070
     1
1000
22953268
1002
}
1002
{
1070
     2
1000
-2000051
1002
}
1002
{
1070
     3
1000
-2000042
1002
}
  0
LWPOLYLINE
  5
31F
330
70
100
AcDbEntity
  8
A-POR-___-___-EXI
100
AcDbPolyline
 90
        4
 70
     1
 43
0.0
 10
-40344.67355680137
 20
-5993.942145120993
 10
-40344.67355680137
 20
-5420.482619899826
 10
-41222.66800199565
 20
-5420.482619899826
 10
-41222.66800199565
 20
-5993.942145120993
1001
REVIT
1002
{
1070
     1
1000
22953264
1002
}
1002
{
1070
     2
1000
-2000051
1002
}
1002
{
1070
     3
1000
-2000042
1002
}
  0
LWPOLYLINE
  5
320
330
70
100
AcDbEntity
  8
A-POR-___-___-EXI
100
AcDbPolyline
 90
        4
 70
     1
 43
0.0
 10
-41222.66800199565
 20
-7767.049984727984
 10
-41222.66800199565
 20
-5420.482619899826
 10
-40344.67355680137
 20
-5420.482619899826
 10
-40344.67355680137
 20
-7767.049984727984
1001
REVIT
1002
{
1070
     1
1000
22953260
1002
}
1002
{
1070
     2
1000
-2000051
1002
}
1002
{
1070
     3
1000
-2000042
1002
}
  0
LWPOLYLINE
  5
321
330
70
100
AcDbEntity
  8
A-POR-___-___-EXI
100
AcDbPolyline
 90
        4
 70
     1
 43
0.0
 10
-40205.07123303018
 20
-5281.51225004388
 10
-40205.07123303018
 20
-7767.049984727984
 10
-41359.74342872273
 20
-7767.049984727984
 10
-41359.74342872273
 20
-5281.51225004388
1001
REVIT
1002
{
1070
     1
1000
22953256
1002
}
1002
{
1070
     2
1000
-2000051
1002
}
1002
{
1070
     3
1000
-2000042
1002
}
  0
LWPOLYLINE
  5
322
330
70
100
AcDbEntity
  8
A-COB-___-___-EXI
100
AcDbPolyline
 90
        2
 70
     1
 43
0.0
 10
-44479.89331496734
 20
-1504.121689261867
 42
0.9999999999999838
 10
-44759.89331496735
 20
-1504.121689261865
 42
0.9999999999999774
1001
REVIT
1002
{
1070
     1
1000
22953169
1002
}
1002
{
1070
     5
1000
383807
1002
}
1002
{
1070
     2
1000
-2000051
1002
}
1002
{
1070
     3
1000
-2000042
1002
}
  0
LWPOLYLINE
  5
323
330
70
100
AcDbEntity
  8
A-ALV-___-___-EXI
100
AcDbPolyline
 90
        4
 70
     1
 43
0.0
 10
-49930.42057041543
 20
-3694.363113938493
 10
-50090.42057041543
 20
-3765.176620616052
 10
-50090.42057041543
 20
-3967.820050150276
 10
-49930.42057041543
 20
-3967.820050150277
1001
REVIT
1002
{
1070
     1
1000
22953169
1002
}
1002
{
1070
     5
1000
383807
1002
}
1002
{
1070
     2
1000
-2000051
1002
}
1002
{
1070
     3
1000
-2000042
1002
}
  0
LWPOLYLINE
  5
324
330
70
100
AcDbEntity
  8
A-ALV-___-___-EXI
100
AcDbPolyline
 90
        3
 70
     0
 43
0.0
 10
-39902.12914389358
 20
-4110.392465669199
 10
-39902.12914389358
 20
-3950.392465669199
 10
-40082.12914389358
 20
-3950.392465669199
1001
REVIT
1002
{
1070
     1
1000
22953169
1002
}
1002
{
1070
     5
1000
383807
1002
}
1002
{
1070
     2
1000
-2000051
1002
}
1002
{
1070
     3
1000
-2000042
1002
}
  0
LWPOLYLINE
  5
325
330
70
100
AcDbEntity
  8
A-ALV-___-___-EXI
100
AcDbPolyline
 90
        4
 70
     1
 43
0.0
 10
-50090.42057041543
 20
-4686.307078354785
 10
-49930.42057041543
 20
-4686.307078354785
 10
-49930.42057041543
 20
-4566.307078354787
 10
-50090.42057041543
 20
-4566.307078354787
1001
REVIT
1002
{
1070
     1
1000
22953169
1002
}
1002
{
1070
     5
1000
383807
1002
}
1002
{
1070
     2
1000
-2000051
1002
}
1002
{
1070
     3
1000
-2000042
1002
}
  0
LWPOLYLINE
  5
326
330
70
100
AcDbEntity
  8
A-POR-___-___-EXI
100
AcDbPolyline
 90
        6
 70
     1
 43
0.0
 10
-45894.99266747051
 20
-7767.049984727974
 10
-45894.99266747051
 20
-5676.216763787413
 10
-45894.99266747051
 20
-5556.216763787414
 10
-46074.9926674705
 20
-5556.216763787414
 10
-46074.9926674705
 20
-5676.216763787413
 10
-46074.9926674705
 20
-7767.049984727974
1001
REVIT
1002
{
1070
     1
1000
22953169
1002
}
1002
{
1070
     5
1000
383807
1002
}
1002
{
1070
     2
1000
-2000051
1002
}
1002
{
1070
     3
1000
-2000042
1002
}
  0
LWPOLYLINE
  5
327
330
70
100
AcDbEntity
  8
A-ALV-___-___-EXI
100
AcDbPolyline
 90
        4
 70
     1
 43
0.0
 10
-43529.08742719611
 20
-4198.275174883708
 10
-43529.08742719611
 20
-4110.392465669199
 10
-43709.08742719612
 20
-4110.392465669199
 10
-43709.08742719612
 20
-4198.275174883708
1001
REVIT
1002
{
1070
     1
1000
22953169
1002
}
1002
{
1070
     5
1000
383807
1002
}
1002
{
1070
     2
1000
-2000051
1002
}
1002
{
1070
     3
1000
-2000042
1002
}
  0
LWPOLYLINE
  5
329
330
70
100
AcDbEntity
  8
A-ALV-___-___-EXI
100
AcDbPolyline
 90
        6
 70
     1
 43
0.0
 10
-49930.42057041543
 20
-5857.517937061633
 10
-50090.42057041543
 20
-5857.517937061633
 10
-50090.42057041543
 20
-5947.049984727962
 10
-50090.42057041543
 20
-7767.049984727961
 10
-49930.42057041543
 20
-7767.049984727961
 10
-49930.42057041543
 20
-5947.049984727962
1001
REVIT
1002
{
1070
     1
1000
22953164
1002
}
1002
{
1070
     5
1000
383807
1002
}
1002
{
1070
     2
1000
-2000051
1002
}
1002
{
1070
     3
1000
-2000042
1002
}
  0
LWPOLYLINE
  5
32B
330
70
100
AcDbEntity
  8
A-BAS-___-___-EXI
100
AcDbPolyline
 90
        8
 70
     0
 43
0.0
 10
-50090.42057041543
 20
-7767.049984727963
 10
-50090.42057041543
 20
-7867.049984727946
 10
-61119.15140425186
 20
-7867.049984727906
 10
-61119.15140425186
 20
-8343.167192893014
 10
-36663.05381630026
 20
-8343.167192893014
 10
-36663.05381630026
 20
-7945.835651242439
 10
-39189.08742719612
 20
-7945.835651242439
 10
-39189.08742719612
 20
-7767.049984727997
1001
REVIT
1002
{
1070
     1
1000
22953156
1002
}
1002
{
1070
     5
1000
383807
1002
}
1002
{
1070
     2
1000
-2000051
1002
}
1002
{
1070
     3
1000
-2000042
1002
}
  0
LWPOLYLINE
  5
32C
330
70
100
AcDbEntity
  8
A-ALV-___-___-EXI
100
AcDbPolyline
 90
        2
 70
     1
 43
0.0
 10
-45894.99266747051
 20
-5676.216763787413
 10
-46074.9926674705
 20
-5676.216763787413
1001
REVIT
1002
{
1070
     1
1000
22953392
1002
}
1002
{
1070
     2
1000
-2000051
1002
}
1002
{
1070
     3
1000
-2000042
1002
}
  0
LWPOLYLINE
  5
32D
330
70
100
AcDbEntity
  8
A-ALV-___-___-EXI
100
AcDbPolyline
 90
        4
 70
     1
 43
0.0
 10
-45894.99266747051
 20
-4198.275174883708
 10
-45894.99266747051
 20
-4110.392465669199
 10
-46074.9926674705
 20
-4110.392465669199
 10
-46074.9926674705
 20
-4198.275174883708
1001
REVIT
1002
{
1070
     1
1000
22953169
1002
}
1002
{
1070
     5
1000
383807
1002
}
1002
{
1070
     2
1000
-2000051
1002
}
1002
{
1070
     3
1000
-2000042
1002
}
  0
LWPOLYLINE
  5
32E
330
70
100
AcDbEntity
  8
A-ALV-___-___-EXI
100
AcDbPolyline
 90
        4
 70
     1
 43
0.0
 10
-39369.08742719611
 20
-4198.275174883708
 10
-39189.08742719612
 20
-4198.275174883708
 10
-39189.08742719612
 20
-4110.392465669199
 10
-39369.08742719611
 20
-4110.392465669199
1001
REVIT
1002
{
1070
     1
1000
22953169
1002
}
1002
{
1070
     5
1000
383807
1002
}
1002
{
1070
     2
1000
-2000051
1002
}
1002
{
1070
     3
1000
-2000042
1002
}
  0
LINE
  5
33E
330
70
100
AcDbEntity
  8
A-JAN-___-___-EXI
100
AcDbLine
 10
-39189.08742719612
 20
-5242.328283237259
 30
0.0
 11
-39189.08742719612
 21
-6927.049984727997
 31
0.0
1001
REVIT
1002
{
1070
     1
1000
22953387
1002
}
1002
{
1070
     2
1000
-2000051
1002
}
1002
{
1070
     3
1000
-2000042
1002
}
  0
LINE
  5
33F
330
70
100
AcDbEntity
  8
A-ALV-___-___-EXI
100
AcDbLine
 10
-39189.08742719612
 20
-6927.049984727997
 30
0.0
 11
-39279.08742719612
 21
-6927.049984727997
 31
0.0
1001
REVIT
1002
{
1070
     1
1000
22953387
1002
}
1002
{
1070
     2
1000
-2000051
1002
}
1002
{
1070
     3
1000
-2000042
1002
}
  0
LINE
  5
340
330
70
100
AcDbEntity
  8
A-JAN-___-___-EXI
100
AcDbLine
 10
-39279.08742719612
 20
-6927.049984727997
 30
0.0
 11
-39279.08742719612
 21
-5242.328283237259
 31
0.0
1001
REVIT
1002
{
1070
     1
1000
22953387
1002
}
1002
{
1070
     2
1000
-2000051
1002
}
1002
{
1070
     3
1000
-2000042
1002
}
  0
LINE
  5
341
330
70
100
AcDbEntity
  8
A-ALV-___-___-EXI
100
AcDbLine
 10
-39279.08742719612
 20
-5242.328283237259
 30
0.0
 11
-39189.08742719612
 21
-5242.328283237259
 31
0.0
1001
REVIT
1002
{
1070
     1
1000
22953387
1002
}
1002
{
1070
     2
1000
-2000051
1002
}
1002
{
1070
     3
1000
-2000042
1002
}
  0
LINE
  5
342
330
70
100
AcDbEntity
  8
A-ALV-___-___-EXI
100
AcDbLine
 10
-39189.08742719612
 20
-7067.049984727997
 30
0.0
 11
-39369.08742719611
 21
-7067.049984727997
 31
0.0
1001
REVIT
1002
{
1070
     1
1000
22953164
1002
}
1002
{
1070
     5
1000
383807
1002
}
1002
{
1070
     2
1000
-2000051
1002
}
1002
{
1070
     3
1000
-2000042
1002
}
  0
LINE
  5
343
330
70
100
AcDbEntity
  8
A-ALV-___-___-EXI
100
AcDbLine
 10
-39369.08742719611
 20
-7067.049984727997
 30
0.0
 11
-39369.08742719611
 21
-7767.049984727997
 31
0.0
1001
REVIT
1002
{
1070
     1
1000
22953164
1002
}
1002
{
1070
     5
1000
383807
1002
}
1002
{
1070
     2
1000
-2000051
1002
}
1002
{
1070
     3
1000
-2000042
1002
}
  0
LINE
  5
344
330
70
100
AcDbEntity
  8
A-BAS-___-___-EXI
100
AcDbLine
 10
-39369.08742719611
 20
-7767.049984727997
 30
0.0
 11
-39189.08742719612
 21
-7767.049984727997
 31
0.0
1001
REVIT
1002
{
1070
     1
1000
22953164
1002
}
1002
{
1070
     5
1000
383807
1002
}
1002
{
1070
     2
1000
-2000051
1002
}
1002
{
1070
     3
1000
-2000042
1002
}
  0
LINE
  5
345
330
70
100
AcDbEntity
  8
A-ALV-___-___-EXI
100
AcDbLine
 10
-39189.08742719612
 20
-7767.049984727997
 30
0.0
 11
-39189.08742719612
 21
-7067.049984727997
 31
0.0
1001
REVIT
1002
{
1070
     1
1000
22953164
1002
}
1002
{
1070
     5
1000
383807
1002
}
1002
{
1070
     2
1000
-2000051
1002
}
1002
{
1070
     3
1000
-2000042
1002
}
  0
LINE
  5
346
330
70
100
AcDbEntity
  8
A-ALV-___-___-EXI
100
AcDbLine
 10
-39189.08742719612
 20
-7067.049984727997
 30
0.0
 11
-39189.08742719612
 21
-6927.049984727997
 31
0.0
1001
REVIT
1002
{
1070
     1
1000
22953164
1002
}
1002
{
1070
     5
1000
383807
1002
}
1002
{
1070
     2
1000
-2000051
1002
}
1002
{
1070
     3
1000
-2000042
1002
}
  0
LINE
  5
347
330
70
100
AcDbEntity
  8
A-ALV-___-___-EXI
100
AcDbLine
 10
-39189.08742719612
 20
-6927.049984727997
 30
0.0
 11
-39369.08742719611
 21
-6927.049984727997
 31
0.0
1001
REVIT
1002
{
1070
     1
1000
22953164
1002
}
1002
{
1070
     5
1000
383807
1002
}
1002
{
1070
     2
1000
-2000051
1002
}
1002
{
1070
     3
1000
-2000042
1002
}
  0
LINE
  5
348
330
70
100
AcDbEntity
  8
A-JAN-___-___-EXI
100
AcDbLine
 10
-39369.08742719611
 20
-6927.049984727997
 30
0.0
 11
-39369.08742719611
 21
-5242.328283237259
 31
0.0
1001
REVIT
1002
{
1070
     1
1000
22953164
1002
}
1002
{
1070
     5
1000
383807
1002
}
1002
{
1070
     2
1000
-2000051
1002
}
1002
{
1070
     3
1000
-2000042
1002
}
  0
LINE
  5
349
330
70
100
AcDbEntity
  8
A-ALV-___-___-EXI
100
AcDbLine
 10
-39369.08742719611
 20
-5242.328283237259
 30
0.0
 11
-39189.08742719612
 21
-5242.328283237259
 31
0.0
1001
REVIT
1002
{
1070
     1
1000
22953164
1002
}
1002
{
1070
     5
1000
383807
1002
}
1002
{
1070
     2
1000
-2000051
1002
}
1002
{
1070
     3
1000
-2000042
1002
}
  0
LINE
  5
34A
330
70
100
AcDbEntity
  8
A-JAN-___-___-EXI
100
AcDbLine
 10
-39189.08742719612
 20
-5242.328283237259
 30
0.0
 11
-39189.08742719612
 21
-6927.049984727997
 31
0.0
1001
REVIT
1002
{
1070
     1
1000
22953164
1002
}
1002
{
1070
     5
1000
383807
1002
}
1002
{
1070
     2
1000
-2000051
1002
}
1002
{
1070
     3
1000
-2000042
1002
}
  0
LINE
  5
34B
330
70
100
AcDbEntity
  8
A-ALV-___-___-EXI
100
AcDbLine
 10
-39189.08742719612
 20
-6927.049984727997
 30
0.0
 11
-39369.08742719611
 21
-6927.049984727997
 31
0.0
1001
REVIT
1002
{
1070
     1
1000
22953164
1002
}
1002
{
1070
     5
1000
383807
1002
}
1002
{
1070
     2
1000
-2000051
1002
}
1002
{
1070
     3
1000
-2000042
1002
}
  0
LINE
  5
34C
330
70
100
AcDbEntity
  8
A-ALV-___-___-EXI
100
AcDbLine
 10
-39369.08742719611
 20
-6927.049984727997
 30
0.0
 11
-39369.08742719611
 21
-7067.049984727997
 31
0.0
1001
REVIT
1002
{
1070
     1
1000
22953164
1002
}
1002
{
1070
     5
1000
383807
1002
}
1002
{
1070
     2
1000
-2000051
1002
}
1002
{
1070
     3
1000
-2000042
1002
}
  0
LINE
  5
34D
330
70
100
AcDbEntity
  8
A-COB-___-___-EXI
100
AcDbLine
 10
-50870.42057041543
 20
-4406.882854711659
 30
0.0
 11
-60170.42057041543
 21
-4406.88285471163
 31
0.0
1001
REVIT
1002
{
1070
     1
1000
22953493
1002
}
1002
{
1070
     2
1000
-2000051
1002
}
1002
{
1070
     3
1000
-2000042
1002
}
  0
LINE
  5
34E
330
70
100
AcDbEntity
  8
A-ALV-___-___-EXI
100
AcDbLine
 10
-60170.42057041543
 20
-4406.88285471163
 30
0.0
 11
-60170.42057041544
 21
-7867.04998472791
 31
0.0
1001
REVIT
1002
{
1070
     1
1000
22953493
1002
}
1002
{
1070
     2
1000
-2000051
1002
}
1002
{
1070
     3
1000
-2000042
1002
}
  0
VIEWPORT
  5
2B6
330
6C
100
AcDbEntity
 67
     1
  8
A-ALV-___-___-EXI
100
AcDbViewport
 10
169.630820110784
 20
205.9367176634074
 30
0.0
 40
244.5609758795161
 41
69.98583900139276
 68
     2
 69
     2
 12
-48891.10261027606
 22
-4843.875242823377
 13
0.0
 23
0.0
 14
0.0
 24
0.0
 15
0.0
 25
0.0
 16
0.0
 26
0.0
 36
1.0
 17
0.0
 27
0.0
 37
0.0
 42
0.0
 43
0.0
 44
0.0
 45
6998.583900139276
 50
0.0
 51
0.0
 72
  1000
 90
    32768
  1

281
     0
 71
     1
 74
     1
110
0.0
120
0.0
130
0.0
111
1.0
121
0.0
131
0.0
112
0.0
122
1.0
132
0.0
 79
     0
146
0.0
170
     0
 61
     5
292
     1
282
     1
141
0.0
142
0.0
 63
   250
421
  3355443
  0
VIEWPORT
  5
2B8
330
6C
100
AcDbEntity
 67
     1
  8
0
100
AcDbViewport
 10
27.72486625136912
 20
1.443562683770986
 30
0.0
 40
80.25898532080054
 41
31.70777331928794
 68
     1
 69
     1
 12
27.72486625136912
 22
1.443562683770986
 13
0.0
 23
0.0
 14
0.0
 24
0.0
 15
0.0
 25
0.0
 16
0.0
 26
0.0
 36
1.0
 17
0.0
 27
0.0
 37
0.0
 42
50.0
 43
0.0
 44
0.0
 45
31.70777331928794
 50
0.0
 51
0.0
 72
   100
 90
    32800
  1

281
     0
 71
     1
 74
     1
110
0.0
120
0.0
130
0.0
111
1.0
121
0.0
131
0.0
112
0.0
122
1.0
132
0.0
 79
     0
146
0.0
170
     0
 61
     5
348
2F
292
     1
282
     1
141
0.0
142
0.0
 63
   250
421
  3355443
  0
INSERT
  5
2C4
330
6C
100
AcDbEntity
 67
     1
  8
A-ESC-___-___-EXI
100
AcDbBlockReference
  2
A4 HORIZONTAL - A4-22958813-Não nomeada
 10
0.0
 20
0.0
 30
0.0
1001
REVIT
1002
{
1070
     1
1000
22957368
1002
}
1002
{
1070
     5
1000
22958813
1002
}
1002
{
1070
     2
1000
-2000280
1002
}
  0
ENDSEC
  0
SECTION
  2
OBJECTS
  0
DICTIONARY
  5
C
330
0
100
AcDbDictionary
281
     1
  3
ACAD_CIP_PREVIOUS_PRODUCT_INFO
350
79
  3
ACAD_COLOR
350
63
  3
ACAD_DETAILVIEWSTYLE
350
6A
  3
ACAD_GROUP
350
D
  3
ACAD_IMAGE_VARS
350
7A
  3
ACAD_LAYOUT
350
62
  3
ACAD_MATERIAL
350
10
  3
ACAD_MLEADERSTYLE
350
66
  3
ACAD_MLINESTYLE
350
5F
  3
ACAD_PLOTSETTINGS
350
61
  3
ACAD_PLOTSTYLENAME
350
E
  3
ACAD_RENDER_ACTIVE_RAPIDRT_SETTINGS
350
2E4
  3
ACAD_RENDER_RAPIDRT_SETTINGS
350
2DD
  3
ACAD_SCALELIST
350
42
  3
ACAD_SECTIONVIEWSTYLE
350
68
  3
ACAD_TABLESTYLE
350
64
  3
ACAD_VISUALSTYLE
350
29
  3
ACDB_RECOMPOSE_DATA
350
35F
  3
AcDbVariableDictionary
350
2CD
  3
REVIT_DICTIONARY
350
2C5
  0
SUN
  5
2CC
330
57
100
AcDbSun
 90
        1
290
     1
 63
     7
421
 16777215
 40
0.3
291
     1
 91
  2460364
 92
 73960000
292
     0
 70
     1
 71
   128
280
     1
  0
DICTIONARY
  5
2E9
330
2
100
AcDbDictionary
280
     1
281
     1
  3
ACAD_LAYERSTATES
360
2EA
  0
DICTIONARY
  5
2CA
330
70
100
AcDbDictionary
280
     1
281
     1
  3
ACAD_SORTENTS
360
2CB
  0
XRECORD
  5
79
102
{ACAD_REACTORS
330
C
102
}
330
C
100
AcDbXrecord
280
     1
300
ACD
300
2022
300

  0
DICTIONARY
  5
63
102
{ACAD_REACTORS
330
C
102
}
330
C
100
AcDbDictionary
281
     1
  0
DICTIONARY
  5
6A
102
{ACAD_REACTORS
330
C
102
}
330
C
100
AcDbDictionary
281
     1
  3
Imperial24
350
6B
  3
Metric50
350
2D5
  0
DICTIONARY
  5
D
102
{ACAD_REACTORS
330
C
102
}
330
C
100
AcDbDictionary
281
     1
  0
RASTERVARIABLES
  5
7A
102
{ACAD_REACTORS
330
C
102
}
330
C
100
AcDbRasterVariables
 90
        0
 70
     0
 71
     1
 72
     1
  0
DICTIONARY
  5
62
102
{ACAD_REACTORS
330
C
102
}
330
C
100
AcDbDictionary
281
     1
  3
Layout1
350
6F
  3
Model
350
73
  0
DICTIONARY
  5
10
102
{ACAD_REACTORS
330
C
102
}
330
C
100
AcDbDictionary
281
     1
  3
ByBlock
350
19
  3
ByLayer
350
11
  3
Global
350
21
  0
DICTIONARY
  5
66
102
{ACAD_REACTORS
330
C
102
}
330
C
100
AcDbDictionary
281
     1
  3
Standard
350
67
  0
DICTIONARY
  5
5F
102
{ACAD_REACTORS
330
C
102
}
330
C
100
AcDbDictionary
281
     1
  3
Standard
350
60
  0
DICTIONARY
  5
61
102
{ACAD_REACTORS
330
C
102
}
330
C
100
AcDbDictionary
281
     1
  0
ACDBDICTIONARYWDFLT
  5
E
102
{ACAD_REACTORS
330
C
102
}
330
C
100
AcDbDictionary
281
     1
  3
Normal
350
F
100
AcDbDictionaryWithDefault
340
F
  0
RAPIDRTRENDERSETTINGS
  5
2E4
102
{ACAD_REACTORS
330
C
102
}
330
C
100
AcDbRenderSettings
 90
        2
  1
Médio
290
     1
290
     0
290
     1
290
     1
  1

  1
Aplica 5 níveis de renderização
 90
        0
100
AcDbRapidRTRenderSettings
 90
        3
 70
     0
 90
        5
 90
        1
 70
     1
 70
     2
 40
3.0
 40
3.0
290
     1
  0
DICTIONARY
  5
2DD
102
{ACAD_REACTORS
330
C
102
}
330
C
100
AcDbDictionary
281
     1
  3
Alto
350
2E0
  3
Baixo
350
2DE
  3
Médio
350
2DF
  3
Qualidade de curta duração
350
2E1
  3
Qualidade de longa duração
350
2E3
  3
Qualidade de média duração
350
2E2
  0
DICTIONARY
  5
42
102
{ACAD_REACTORS
330
C
102
}
330
C
100
AcDbDictionary
281
     1
  3
A0
350
43
  3
A1
350
44
  3
A2
350
45
  3
A3
350
46
  3
A4
350
47
  3
A5
350
48
  3
A6
350
49
  3
A7
350
4A
  3
A8
350
4B
  3
A9
350
4C
  3
B0
350
4D
  3
B1
350
4E
  3
B2
350
4F
  3
B3
350
50
  3
B4
350
51
  3
B5
350
52
  3
B6
350
53
  0
DICTIONARY
  5
68
102
{ACAD_REACTORS
330
C
102
}
330
C
100
AcDbDictionary
281
     1
  3
Imperial24
350
69
  3
Metric50
350
2D4
  0
DICTIONARY
  5
64
102
{ACAD_REACTORS
330
C
102
}
330
C
100
AcDbDictionary
281
     1
  3
Standard
350
65
  0
DICTIONARY
  5
29
102
{ACAD_REACTORS
330
C
102
}
330
C
100
AcDbDictionary
281
     1
  3
2dWireframe
350
2F
  3
Basic
350
2E
  3
Brighten
350
35
  3
ColorChange
350
39
  3
Conceptual
350
32
  3
Dim
350
34
  3
EdgeColorOff
350
41
  3
Facepattern
350
38
  3
Flat
350
2A
  3
FlatWithEdges
350
2B
  3
Gouraud
350
2C
  3
GouraudWithEdges
350
2D
  3
Hidden
350
31
  3
JitterOff
350
3F
  3
Linepattern
350
37
  3
OverhangOff
350
40
  3
Realistic
350
33
  3
Shaded
350
3E
  3
Shaded with edges
350
3D
  3
Shades of Gray
350
3A
  3
Sketchy
350
3B
  3
Thicken
350
36
  3
Wireframe
350
30
  3
X-Ray
350
3C
  0
XRECORD
  5
35F
102
{ACAD_REACTORS
330
C
102
}
330
C
100
AcDbXrecord
280
     1
 90
        1
330
65
  0
DICTIONARY
  5
2CD
102
{ACAD_REACTORS
330
C
102
}
330
C
100
AcDbDictionary
281
     1
  3
CANNOSCALE
350
2D2
  3
CMLEADERSTYLE
350
2CF
  3
CTABLESTYLE
350
2CE
  3
CVIEWDETAILSTYLE
350
2D0
  3
CVIEWSECTIONSTYLE
350
2D1
  0
DICTIONARY
  5
2C5
102
{ACAD_REACTORS
330
C
102
}
330
C
100
AcDbDictionary
281
     1
  3
DRAWING_TOOL
350
2C9
  3
REVIT_CATEGORY_MAPPING
350
2C7
  3
REVIT_SUB_CATEGORY_MAPPING
350
2C8
  3
REVIT_TYPE_MAPPING
350
2C6
  0
DICTIONARY
  5
2EA
102
{ACAD_REACTORS
330
2E9
102
}
330
2E9
100
AcDbDictionary
281
     1
  0
SORTENTSTABLE
  5
2CB
102
{ACAD_REACTORS
330
2CA
102
}
330
2CA
100
AcDbSortentsTable
330
70
331
307
  5
309
331
308
  5
30A
331
309
  5
30B
331
30A
  5
30C
331
30B
  5
30D
331
30C
  5
30E
331
30D
  5
310
331
30E
  5
311
331
310
  5
316
331
311
  5
317
331
312
  5
318
331
313
  5
319
331
314
  5
31A
331
315
  5
31B
331
316
  5
31C
331
317
  5
31D
331
318
  5
31E
331
319
  5
31F
331
31A
  5
320
331
31B
  5
321
331
31C
  5
322
331
31D
  5
323
331
31E
  5
324
331
31F
  5
325
331
320
  5
326
331
321
  5
327
331
322
  5
329
331
323
  5
32B
331
324
  5
32C
331
325
  5
32D
331
326
  5
32E
331
327
  5
33E
331
329
  5
33F
331
32B
  5
34B
331
32C
  5
34C
331
32D
  5
34D
331
32E
  5
34E
331
33E
  5
312
331
33F
  5
313
331
340
  5
314
331
341
  5
315
331
342
  5
340
331
343
  5
341
331
344
  5
342
331
345
  5
343
331
346
  5
344
331
347
  5
345
331
348
  5
346
331
349
  5
347
331
34A
  5
348
331
34B
  5
349
331
34C
  5
34A
331
34D
  5
307
331
34E
  5
308
  0
ACDBDETAILVIEWSTYLE
  5
6B
102
{ACAD_REACTORS
330
6A
102
}
330
6A
100
AcDbModelDocViewStyle
 70
     0
  3
Imperial24
290
     1
300
Imperial24
 90
        0
100
AcDbDetailViewStyle
 70
     0
 71
     0
 90
        3
 71
     1
340
55
 62
   256
 40
0.24
340
0
 62
   256
 40
0.24
300

 40
0.36
280
     3
 71
     2
340
5D
 90
       25
 62
   256
 71
     3
340
55
 62
   256
 40
0.24
 90
        1
 40
0.75
 90
        1
300
%<\AcVar ViewType \f "%tc1">% %<\AcVar ViewDetailId>%\PSCALE %<\AcVar ViewScale \f "%sn">%
 71
     4
340
5D
 90
       25
 62
   256
340
5D
 90
       25
 62
   256
280
     0
  0
ACDBDETAILVIEWSTYLE
  5
2D5
102
{ACAD_REACTORS
330
6A
102
}
330
6A
100
AcDbModelDocViewStyle
 70
     0
  3
Metric50
290
     1
300
Metric50
 90
        0
100
AcDbDetailViewStyle
 70
     0
 71
     0
 90
        3
 71
     1
340
55
 62
   256
 40
5.0
340
0
 62
   256
 40
5.0
300

 40
0.0
280
     1
 71
     2
340
5D
 90
       25
 62
   256
 71
     3
340
55
 62
   256
 40
5.0
 90
        0
 40
15.0
 90
        1
300
%<\AcVar ViewDetailId>% (%<\AcVar ViewScale \f "%sn">%)
 71
     4
340
5D
 90
       25
 62
   256
340
5D
 90
       25
 62
   256
280
     0
  0
LAYOUT
  5
6F
102
{ACAD_REACTORS
330
62
102
}
330
62
100
AcDbPlotSettings
  1

  2
PDF24
  4
A4
  6

 40
0.0
 41
0.0
 42
0.1113433837890625
 43
0.0
 44
210.0
 45
297.0
 46
0.0
 47
0.0
 48
0.0
 49
0.0
140
0.0
141
0.0
142
1.0
143
1.000647896891756
 70
   688
 72
     1
 73
     1
 74
     1
  7

 75
     0
147
0.9993525226068337
 76
     0
 77
     2
 78
   300
148
-20.76884200533789
149
-102.9849099062627
100
AcDbLayout
  1
Layout1
 70
     0
 71
     1
 10
20.76884200533789
 20
102.9849099062627
 11
317.9612673821897
 21
313.1209682535316
 12
0.0
 22
0.0
 32
0.0
 14
20.76884200533789
 24
102.9849099062627
 34
-0.0015258207003583
 15
317.8025497169167
 25
313.0095527307103
 35
0.0000000349246037
146
0.0
 13
0.0
 23
0.0
 33
0.0
 16
1.0
 26
0.0
 36
0.0
 17
0.0
 27
1.0
 37
0.0
 76
     0
330
6C
331
2B8
1001
ACAD_PSEXT
1000
PDF24
1000
PDF24
1000
\\.\pipe\PDFPrint
1000
PDF24 Printer
1070
     0
  0
LAYOUT
  5
73
102
{ACAD_REACTORS
330
62
102
}
330
62
100
AcDbPlotSettings
  1

  2

  4

  6

 40
0.0
 41
0.0
 42
0.0
 43
0.0
 44
0.0
 45
0.0
 46
0.0
 47
0.0
 48
0.0
 49
0.0
140
0.0
141
0.0
142
1.0
143
1.0
 70
  1712
 72
     0
 73
     0
 74
     0
  7

 75
     0
147
1.0
 76
     0
 77
     2
 78
   300
148
0.0
149
0.0
100
AcDbLayout
  1
Model
 70
     1
 71
     0
 10
0.0
 20
0.0
 11
12.0
 21
9.0
 12
0.0
 22
0.0
 32
0.0
 14
0.0
 24
0.0
 34
0.0
 15
0.0
 25
0.0
 35
0.0
146
0.0
 13
0.0
 23
0.0
 33
0.0
 16
1.0
 26
0.0
 36
0.0
 17
0.0
 27
1.0
 37
0.0
 76
     0
330
70
331
57
  0
MATERIAL
  5
19
102
{ACAD_XDICTIONARY
360
1A
102
}
102
{ACAD_REACTORS
330
10
102
}
330
10
100
AcDbMaterial
  1
ByBlock
 72
     0
 43
0.0208333333333333
 43
0.0
 43
0.0
 43
0.0
 43
0.0
 43
0.0208333333333333
 43
0.0
 43
0.0
 43
0.0
 43
0.0
 43
1.0
 43
0.0
 43
0.0
 43
0.0
 43
0.0
 43
1.0
 77
     0
 47
0.0208333333333333
 47
0.0
 47
0.0
 47
0.0
 47
0.0
 47
0.0208333333333333
 47
0.0
 47
0.0
 47
0.0
 47
0.0
 47
1.0
 47
0.0
 47
0.0
 47
0.0
 47
0.0
 47
1.0
171
     0
 49
0.0208333333333333
 49
0.0
 49
0.0
 49
0.0
 49
0.0
 49
0.0208333333333333
 49
0.0
 49
0.0
 49
0.0
 49
0.0
 49
1.0
 49
0.0
 49
0.0
 49
0.0
 49
0.0
 49
1.0
175
     0
142
0.0208333333333333
142
0.0
142
0.0
142
0.0
142
0.0
142
0.0208333333333333
142
0.0
142
0.0
142
0.0
142
0.0
142
1.0
142
0.0
142
0.0
142
0.0
142
0.0
142
1.0
179
     0
144
0.0208333333333333
144
0.0
144
0.0
144
0.0
144
0.0
144
0.0208333333333333
144
0.0
144
0.0
144
0.0
144
0.0
144
1.0
144
0.0
144
0.0
144
0.0
144
0.0
144
1.0
147
0.0208333333333333
147
0.0
147
0.0
147
0.0
147
0.0
147
0.0208333333333333
147
0.0
147
0.0
147
0.0
147
0.0
147
1.0
147
0.0
147
0.0
147
0.0
147
0.0
147
1.0
  0
MATERIAL
  5
11
102
{ACAD_XDICTIONARY
360
12
102
}
102
{ACAD_REACTORS
330
10
102
}
330
10
100
AcDbMaterial
  1
ByLayer
 72
     0
 43
0.0208333333333333
 43
0.0
 43
0.0
 43
0.0
 43
0.0
 43
0.0208333333333333
 43
0.0
 43
0.0
 43
0.0
 43
0.0
 43
1.0
 43
0.0
 43
0.0
 43
0.0
 43
0.0
 43
1.0
 77
     0
 47
0.0208333333333333
 47
0.0
 47
0.0
 47
0.0
 47
0.0
 47
0.0208333333333333
 47
0.0
 47
0.0
 47
0.0
 47
0.0
 47
1.0
 47
0.0
 47
0.0
 47
0.0
 47
0.0
 47
1.0
171
     0
 49
0.0208333333333333
 49
0.0
 49
0.0
 49
0.0
 49
0.0
 49
0.0208333333333333
 49
0.0
 49
0.0
 49
0.0
 49
0.0
 49
1.0
 49
0.0
 49
0.0
 49
0.0
 49
0.0
 49
1.0
175
     0
142
0.0208333333333333
142
0.0
142
0.0
142
0.0
142
0.0
142
0.0208333333333333
142
0.0
142
0.0
142
0.0
142
0.0
142
1.0
142
0.0
142
0.0
142
0.0
142
0.0
142
1.0
179
     0
144
0.0208333333333333
144
0.0
144
0.0
144
0.0
144
0.0
144
0.0208333333333333
144
0.0
144
0.0
144
0.0
144
0.0
144
1.0
144
0.0
144
0.0
144
0.0
144
0.0
144
1.0
147
0.0208333333333333
147
0.0
147
0.0
147
0.0
147
0.0
147
0.0208333333333333
147
0.0
147
0.0
147
0.0
147
0.0
147
1.0
147
0.0
147
0.0
147
0.0
147
0.0
147
1.0
  0
MATERIAL
  5
21
102
{ACAD_XDICTIONARY
360
22
102
}
102
{ACAD_REACTORS
330
10
102
}
330
10
100
AcDbMaterial
  1
Global
 72
     0
 43
0.0208333333333333
 43
0.0
 43
0.0
 43
0.0
 43
0.0
 43
0.0208333333333333
 43
0.0
 43
0.0
 43
0.0
 43
0.0
 43
1.0
 43
0.0
 43
0.0
 43
0.0
 43
0.0
 43
1.0
 77
     0
 47
0.0208333333333333
 47
0.0
 47
0.0
 47
0.0
 47
0.0
 47
0.0208333333333333
 47
0.0
 47
0.0
 47
0.0
 47
0.0
 47
1.0
 47
0.0
 47
0.0
 47
0.0
 47
0.0
 47
1.0
171
     0
 49
0.0208333333333333
 49
0.0
 49
0.0
 49
0.0
 49
0.0
 49
0.0208333333333333
 49
0.0
 49
0.0
 49
0.0
 49
0.0
 49
1.0
 49
0.0
 49
0.0
 49
0.0
 49
0.0
 49
1.0
175
     0
142
0.0208333333333333
142
0.0
142
0.0
142
0.0
142
0.0
142
0.0208333333333333
142
0.0
142
0.0
142
0.0
142
0.0
142
1.0
142
0.0
142
0.0
142
0.0
142
0.0
142
1.0
179
     0
144
0.0208333333333333
144
0.0
144
0.0
144
0.0
144
0.0
144
0.0208333333333333
144
0.0
144
0.0
144
0.0
144
0.0
144
1.0
144
0.0
144
0.0
144
0.0
144
0.0
144
1.0
147
0.0208333333333333
147
0.0
147
0.0
147
0.0
147
0.0
147
0.0208333333333333
147
0.0
147
0.0
147
0.0
147
0.0
147
1.0
147
0.0
147
0.0
147
0.0
147
0.0
147
1.0
  0
MLEADERSTYLE
  5
67
102
{ACAD_REACTORS
330
66
102
}
330
66
100
AcDbMLeaderStyle
179
     2
170
     2
171
     1
172
     0
 90
        2
 40
0.0
 41
0.0
173
     1
 91
-1056964608
340
5B
 92
       -2
290
     1
 42
0.09
291
     1
 43
0.36
  3
Standard
 44
0.18
300

342
55
174
     1
178
     6
175
     1
176
     0
 93
-1056964608
 45
0.18
292
     0
297
     0
 46
0.18
 94
-1056964608
 47
1.0
 49
1.0
140
1.0
293
     1
141
0.0
294
     1
177
     0
142
1.0
295
     1
296
     0
143
0.125
271
     0
272
     9
273
     9
298
     1
  0
MLINESTYLE
  5
60
102
{ACAD_REACTORS
330
5F
102
}
330
5F
100
AcDbMlineStyle
  2
STANDARD
 70
     0
  3

 62
   256
 51
90.0
 52
90.0
 71
     2
 49
0.5
 62
   256
  6
BYLAYER
 49
-0.5
 62
   256
  6
BYLAYER
  0
ACDBPLACEHOLDER
  5
F
102
{ACAD_REACTORS
330
E
102
}
330
E
  0
RAPIDRTRENDERSETTINGS
  5
2E0
102
{ACAD_REACTORS
330
2DD
102
}
330
2DD
100
AcDbRenderSettings
 90
        2
  1
Alto
290
     1
290
     0
290
     1
290
     1
  1

  1
Aplica 10 níveis de renderização
 90
        2
100
AcDbRapidRTRenderSettings
 90
        3
 70
     0
 90
       10
 90
        1
 70
     2
 70
     2
 40
3.0
 40
3.0
290
     1
  0
RAPIDRTRENDERSETTINGS
  5
2DE
102
{ACAD_REACTORS
330
2DD
102
}
330
2DD
100
AcDbRenderSettings
 90
        2
  1
Baixo
290
     1
290
     0
290
     1
290
     1
  1

  1
Aplica 1 nível de renderização
 90
        0
100
AcDbRapidRTRenderSettings
 90
        3
 70
     0
 90
        1
 90
        1
 70
     0
 70
     2
 40
3.0
 40
3.0
290
     1
  0
RAPIDRTRENDERSETTINGS
  5
2DF
102
{ACAD_REACTORS
330
2DD
102
}
330
2DD
100
AcDbRenderSettings
 90
        2
  1
Médio
290
     1
290
     0
290
     1
290
     1
  1

  1
Aplica 5 níveis de renderização
 90
        1
100
AcDbRapidRTRenderSettings
 90
        3
 70
     0
 90
        5
 90
        1
 70
     1
 70
     2
 40
3.0
 40
3.0
290
     1
  0
RAPIDRTRENDERSETTINGS
  5
2E1
102
{ACAD_REACTORS
330
2DD
102
}
330
2DD
100
AcDbRenderSettings
 90
        2
  1
Qualidade de curta duração
290
     1
290
     0
290
     1
290
     1
  1

  1
Renderiza por 10 minutos
 90
        3
100
AcDbRapidRTRenderSettings
 90
        3
 70
     1
 90
        1
 90
       10
 70
     1
 70
     2
 40
3.0
 40
3.0
290
     1
  0
RAPIDRTRENDERSETTINGS
  5
2E3
102
{ACAD_REACTORS
330
2DD
102
}
330
2DD
100
AcDbRenderSettings
 90
        2
  1
Qualidade de longa duração
290
     1
290
     0
290
     1
290
     1
  1

  1
Renderiza por 12 horas
 90
        5
100
AcDbRapidRTRenderSettings
 90
        3
 70
     1
 90
        1
 90
      720
 70
     2
 70
     2
 40
3.0
 40
3.0
290
     1
  0
RAPIDRTRENDERSETTINGS
  5
2E2
102
{ACAD_REACTORS
330
2DD
102
}
330
2DD
100
AcDbRenderSettings
 90
        2
  1
Qualidade de média duração
290
     1
290
     0
290
     1
290
     1
  1

  1
Renderiza por 60 minutos
 90
        4
100
AcDbRapidRTRenderSettings
 90
        3
 70
     1
 90
        1
 90
       60
 70
     2
 70
     2
 40
3.0
 40
3.0
290
     1
  0
SCALE
  5
43
102
{ACAD_REACTORS
330
42
102
}
330
42
100
AcDbScale
 70
     0
300
1:1
140
1.0
141
1.0
290
     1
  0
SCALE
  5
44
102
{ACAD_REACTORS
330
42
102
}
330
42
100
AcDbScale
 70
     0
300
1/128" = 1'-0"
140
0.0078125
141
12.0
290
     0
  0
SCALE
  5
45
102
{ACAD_REACTORS
330
42
102
}
330
42
100
AcDbScale
 70
     0
300
1/64" = 1'-0"
140
0.015625
141
12.0
290
     0
  0
SCALE
  5
46
102
{ACAD_REACTORS
330
42
102
}
330
42
100
AcDbScale
 70
     0
300
1/32" = 1'-0"
140
0.03125
141
12.0
290
     0
  0
SCALE
  5
47
102
{ACAD_REACTORS
330
42
102
}
330
42
100
AcDbScale
 70
     0
300
1/16" = 1'-0"
140
0.0625
141
12.0
290
     0
  0
SCALE
  5
48
102
{ACAD_REACTORS
330
42
102
}
330
42
100
AcDbScale
 70
     0
300
3/32" = 1'-0"
140
0.09375
141
12.0
290
     0
  0
SCALE
  5
49
102
{ACAD_REACTORS
330
42
102
}
330
42
100
AcDbScale
 70
     0
300
1/8" = 1'-0"
140
0.125
141
12.0
290
     0
  0
SCALE
  5
4A
102
{ACAD_REACTORS
330
42
102
}
330
42
100
AcDbScale
 70
     0
300
3/16" = 1'-0"
140
0.1875
141
12.0
290
     0
  0
SCALE
  5
4B
102
{ACAD_REACTORS
330
42
102
}
330
42
100
AcDbScale
 70
     0
300
1/4" = 1'-0"
140
0.25
141
12.0
290
     0
  0
SCALE
  5
4C
102
{ACAD_REACTORS
330
42
102
}
330
42
100
AcDbScale
 70
     0
300
3/8" = 1'-0"
140
0.375
141
12.0
290
     0
  0
SCALE
  5
4D
102
{ACAD_REACTORS
330
42
102
}
330
42
100
AcDbScale
 70
     0
300
1/2" = 1'-0"
140
0.5
141
12.0
290
     0
  0
SCALE
  5
4E
102
{ACAD_REACTORS
330
42
102
}
330
42
100
AcDbScale
 70
     0
300
3/4" = 1'-0"
140
0.75
141
12.0
290
     0
  0
SCALE
  5
4F
102
{ACAD_REACTORS
330
42
102
}
330
42
100
AcDbScale
 70
     0
300
1" = 1'-0"
140
1.0
141
12.0
290
     0
  0
SCALE
  5
50
102
{ACAD_REACTORS
330
42
102
}
330
42
100
AcDbScale
 70
     0
300
1-1/2" = 1'-0"
140
1.5
141
12.0
290
     0
  0
SCALE
  5
51
102
{ACAD_REACTORS
330
42
102
}
330
42
100
AcDbScale
 70
     0
300
3" = 1'-0"
140
3.0
141
12.0
290
     0
  0
SCALE
  5
52
102
{ACAD_REACTORS
330
42
102
}
330
42
100
AcDbScale
 70
     0
300
6" = 1'-0"
140
6.0
141
12.0
290
     0
  0
SCALE
  5
53
102
{ACAD_REACTORS
330
42
102
}
330
42
100
AcDbScale
 70
     0
300
1'-0" = 1'-0"
140
12.0
141
12.0
290
     0
  0
ACDBSECTIONVIEWSTYLE
  5
69
102
{ACAD_REACTORS
330
68
102
}
330
68
100
AcDbModelDocViewStyle
 70
     0
  3
Imperial24
290
     1
300
Imperial24
 90
        0
100
AcDbSectionViewStyle
 70
     0
 71
     0
 90
       78
 71
     1
340
55
 62
   256
 40
0.24
340
0
340
0
 62
   256
 40
0.24
300
I, O, Q, S, X, Z
 40
0.48
 90
        3
 40
0.18
 90
        1
 71
     2
340
5D
 90
       25
 62
   256
340
5D
 90
       50
 62
   256
 40
0.24
 40
0.0
 40
0.24
 71
     3
340
55
 62
   256
 40
0.24
 90
        1
 40
0.75
 90
        1
300
%<\AcVar ViewType \f "%tc1">% %<\AcVar ViewSectionStartId>%-%<\AcVar ViewSectionEndId>%\PSCALE %<\AcVar ViewScale \f "%sn">%
 71
     4
 62
   256
 62
   257
300
ANSI31
 40
1.0
 90
        0
290
     0
290
     0
 90
        6
 40
0.0
 40
1.570796326794896
 40
0.2617993877991494
 40
1.308996938995747
 40
-0.2617993877991494
 40
1.832595714594046
  0
ACDBSECTIONVIEWSTYLE
  5
2D4
102
{ACAD_REACTORS
330
68
102
}
330
68
100
AcDbModelDocViewStyle
 70
     0
  3
Metric50
290
     1
300
Metric50
 90
        0
100
AcDbSectionViewStyle
 70
     0
 71
     0
 90
      102
 71
     1
340
55
 62
   256
 40
5.0
340
0
340
0
 62
   256
 40
5.0
300
I, O, Q, S, X, Z
 40
10.0
 90
        0
 40
2.5
 90
        0
 71
     2
340
5D
 90
       25
 62
   256
340
5D
 90
       50
 62
   256
 40
5.0
 40
2.5
 40
5.0
 71
     3
340
55
 62
   256
 40
5.0
 90
        0
 40
15.0
 90
        1
300
%<\AcVar ViewSectionStartId>%-%<\AcVar ViewSectionEndId>% (%<\AcVar ViewScale \f "%sn">%)
 71
     4
 62
   256
 62
   257
300
ANSI31
 40
1.0
 90
        0
290
     0
290
     0
 90
        6
 40
0.0
 40
1.570796326794896
 40
0.2617993877991494
 40
1.308996938995747
 40
-0.2617993877991494
 40
1.832595714594046
  0
TABLESTYLE
  5
65
102
{ACAD_XDICTIONARY
360
35D
102
}
102
{ACAD_REACTORS
330
64
102
}
330
64
100
AcDbTableStyle
280
     0
  3
Standard
 70
     0
 71
     0
 40
0.06
 41
0.06
280
     0
281
     0
  7
Standard
140
0.18
170
     2
 62
     0
 63
     7
283
     0
 90
      512
 91
        0
  1

274
    -2
284
     1
 64
     0
275
    -2
285
     1
 65
     0
276
    -2
286
     1
 66
     0
277
    -2
287
     1
 67
     0
278
    -2
288
     1
 68
     0
279
    -2
289
     1
 69
     0
  7
Standard
140
0.25
170
     5
 62
     0
 63
     7
283
     0
 90
      512
 91
        0
  1

274
    -2
284
     1
 64
     0
275
    -2
285
     1
 65
     0
276
    -2
286
     1
 66
     0
277
    -2
287
     1
 67
     0
278
    -2
288
     1
 68
     0
279
    -2
289
     1
 69
     0
  7
Standard
140
0.18
170
     5
 62
     0
 63
     7
283
     0
 90
      512
 91
        0
  1

274
    -2
284
     1
 64
     0
275
    -2
285
     1
 65
     0
276
    -2
286
     1
 66
     0
277
    -2
287
     1
 67
     0
278
    -2
288
     1
 68
     0
279
    -2
289
     1
 69
     0
  0
VISUALSTYLE
  5
2F
102
{ACAD_REACTORS
330
29
102
}
330
29
100
AcDbVisualStyle
  2
2dWireframe
 70
     4
177
     3
291
     0
 70
    58
 90
        0
176
     1
 90
        2
176
     1
 90
        0
176
     1
 90
        0
176
     1
 40
0.6
176
     1
 40
30.0
176
     1
 62
     7
420
 16777215
176
     1
 90
        1
176
     1
 90
        4
176
     1
 62
     7
176
     1
 62
   257
176
     1
 90
        1
176
     1
 90
        1
176
     1
 40
1.0
176
     1
 90
        0
176
     1
 62
   257
176
     1
 40
1.0
176
     1
 90
        1
176
     1
 90
        6
176
     1
 90
        2
176
     1
 62
     7
176
     1
 90
        5
176
     1
 90
        0
176
     1
 90
        0
176
     1
290
     0
176
     1
 90
        1
176
     1
 40
0.0
176
     1
 90
        0
176
     1
290
     1
176
     1
290
     1
176
     1
290
     0
176
     1
290
     0
176
     1
290
     0
176
     1
290
     0
176
     1
290
     0
176
     1
290
     0
176
     1
290
     0
176
     1
 90
       50
176
     1
 40
0.0
176
     1
 40
1.0
176
     1
 90
        0
176
     1
 62
    18
420
        0
176
     1
 90
       50
176
     1
 90
        3
176
     1
 62
     5
420
      255
176
     1
290
     0
176
     1
 90
       50
176
     1
 90
       50
176
     1
 90
       50
176
     1
290
     0
176
     1
 90
       50
176
     1
 62
   256
176
     0
 40
1.0
176
     0
 90
        2
176
     1
  1
strokes_ogs.tif
176
     1
290
     0
176
     1
 40
1.0
176
     1
 40
1.0
176
     1
  0
VISUALSTYLE
  5
2E
102
{ACAD_REACTORS
330
29
102
}
330
29
100
AcDbVisualStyle
  2
Basic
 70
     7
177
     3
291
     1
 70
    58
 90
        1
176
     1
 90
        0
176
     1
 90
        1
176
     1
 90
        0
176
     1
 40
0.6
176
     1
 40
30.0
176
     1
 62
     7
420
 16777215
176
     1
 90
        0
176
     1
 90
        4
176
     1
 62
     7
176
     1
 62
   257
176
     1
 90
        1
176
     1
 90
        1
176
     1
 40
1.0
176
     1
 90
        8
176
     1
 62
     7
176
     1
 40
1.0
176
     1
 90
        1
176
     1
 90
        6
176
     1
 90
        2
176
     1
 62
     7
176
     1
 90
        5
176
     1
 90
        0
176
     1
 90
        0
176
     1
290
     0
176
     1
 90
        1
176
     1
 40
0.0
176
     1
 90
        0
176
     1
290
     0
176
     1
290
     1
176
     1
290
     1
176
     1
290
     0
176
     1
290
     0
176
     1
290
     0
176
     1
290
     0
176
     1
290
     0
176
     1
290
     0
176
     1
 90
       50
176
     1
 40
0.0
176
     1
 40
1.0
176
     1
 90
        0
176
     1
 62
    18
420
        0
176
     1
 90
       50
176
     1
 90
        3
176
     1
 62
     5
420
      255
176
     1
290
     0
176
     1
 90
       50
176
     1
 90
       50
176
     1
 90
       50
176
     1
290
     0
176
     1
 90
       50
176
     1
 62
   256
176
     0
 40
1.0
176
     0
 90
        2
176
     1
  1
strokes_ogs.tif
176
     1
290
     0
176
     1
 40
1.0
176
     1
 40
1.0
176
     1
  0
VISUALSTYLE
  5
35
102
{ACAD_REACTORS
330
29
102
}
330
29
100
AcDbVisualStyle
  2
Brighten
 70
    12
177
     3
291
     1
 70
    58
 90
        2
176
     1
 90
        2
176
     1
 90
        0
176
     1
 90
        0
176
     1
 40
0.6
176
     1
 40
30.0
176
     1
 62
     7
420
 16777215
176
     1
 90
        1
176
     1
 90
        4
176
     1
 62
     7
176
     1
 62
   257
176
     1
 90
        1
176
     1
 90
        1
176
     1
 40
1.0
176
     1
 90
        8
176
     1
 62
     7
176
     1
 40
1.0
176
     1
 90
        1
176
     1
 90
        6
176
     1
 90
        2
176
     1
 62
     7
176
     1
 90
        5
176
     1
 90
        0
176
     1
 90
        0
176
     1
290
     0
176
     1
 90
        1
176
     1
 40
50.0
176
     1
 90
        0
176
     1
290
     0
176
     1
290
     1
176
     1
290
     1
176
     1
290
     0
176
     1
290
     0
176
     1
290
     0
176
     1
290
     0
176
     1
290
     0
176
     1
290
     0
176
     1
 90
       50
176
     1
 40
0.0
176
     1
 40
1.0
176
     1
 90
        0
176
     1
 62
    18
420
        0
176
     1
 90
       50
176
     1
 90
        3
176
     1
 62
     5
420
      255
176
     1
290
     0
176
     1
 90
       50
176
     1
 90
       50
176
     1
 90
       50
176
     1
290
     0
176
     1
 90
       50
176
     1
 62
   256
176
     0
 40
1.0
176
     0
 90
        2
176
     1
  1
strokes_ogs.tif
176
     1
290
     0
176
     1
 40
1.0
176
     1
 40
1.0
176
     1
  0
VISUALSTYLE
  5
39
102
{ACAD_REACTORS
330
29
102
}
330
29
100
AcDbVisualStyle
  2
ColorChange
 70
    16
177
     3
291
     1
 70
    58
 90
        2
176
     1
 90
        2
176
     1
 90
        3
176
     1
 90
        0
176
     1
 40
0.6
176
     1
 40
30.0
176
     1
 62
     8
420
  8421504
176
     1
 90
        1
176
     1
 90
        4
176
     1
 62
     7
176
     1
 62
   257
176
     1
 90
        1
176
     1
 90
        1
176
     1
 40
1.0
176
     1
 90
        8
176
     1
 62
     8
420
  8421504
176
     1
 40
1.0
176
     1
 90
        1
176
     1
 90
        6
176
     1
 90
        2
176
     1
 62
     7
176
     1
 90
        5
176
     1
 90
        0
176
     1
 90
        0
176
     1
290
     0
176
     1
 90
        1
176
     1
 40
0.0
176
     1
 90
        0
176
     1
290
     0
176
     1
290
     1
176
     1
290
     1
176
     1
290
     0
176
     1
290
     0
176
     1
290
     0
176
     1
290
     0
176
     1
290
     0
176
     1
290
     0
176
     1
 90
       50
176
     1
 40
0.0
176
     1
 40
1.0
176
     1
 90
        0
176
     1
 62
    18
420
        0
176
     1
 90
       50
176
     1
 90
        3
176
     1
 62
     5
420
      255
176
     1
290
     0
176
     1
 90
       50
176
     1
 90
       50
176
     1
 90
       50
176
     1
290
     0
176
     1
 90
       50
176
     1
 62
   256
176
     0
 40
1.0
176
     0
 90
        2
176
     1
  1
strokes_ogs.tif
176
     1
290
     0
176
     1
 40
1.0
176
     1
 40
1.0
176
     1
  0
VISUALSTYLE
  5
32
102
{ACAD_REACTORS
330
29
102
}
330
29
100
AcDbVisualStyle
  2
Conceptual
 70
     9
177
     3
291
     0
 70
    58
 90
        3
176
     1
 90
        2
176
     1
 90
        0
176
     1
 90
        0
176
     1
 40
0.6
176
     1
 40
30.0
176
     1
 62
     7
420
 16777215
176
     1
 90
        2
176
     1
 90
        2
176
     1
 62
     7
176
     1
 62
   257
176
     1
 90
        1
176
     1
 90
        1
176
     1
 40
179.0
176
     1
 90
        8
176
     1
 62
     7
176
     1
 40
1.0
176
     1
 90
        1
176
     1
 90
        6
176
     1
 90
        2
176
     1
 62
     7
176
     1
 90
        3
176
     1
 90
        0
176
     1
 90
        0
176
     1
290
     0
176
     1
 90
        1
176
     1
 40
0.0
176
     1
 90
        0
176
     1
290
     0
176
     1
290
     1
176
     1
290
     1
176
     1
290
     0
176
     1
290
     0
176
     1
290
     0
176
     1
290
     0
176
     1
290
     0
176
     1
290
     0
176
     1
 90
       50
176
     1
 40
0.0
176
     1
 40
1.0
176
     1
 90
        0
176
     1
 62
    18
420
        0
176
     1
 90
       50
176
     1
 90
        3
176
     1
 62
     5
420
      255
176
     1
290
     0
176
     1
 90
       50
176
     1
 90
       50
176
     1
 90
       50
176
     1
290
     0
176
     1
 90
       50
176
     1
 62
   256
176
     0
 40
1.0
176
     0
 90
        2
176
     1
  1
strokes_ogs.tif
176
     1
290
     0
176
     1
 40
1.0
176
     1
 40
1.0
176
     1
  0
VISUALSTYLE
  5
34
102
{ACAD_REACTORS
330
29
102
}
330
29
100
AcDbVisualStyle
  2
Dim
 70
    11
177
     3
291
     1
 70
    58
 90
        2
176
     1
 90
        2
176
     1
 90
        0
176
     1
 90
        0
176
     1
 40
0.6
176
     1
 40
30.0
176
     1
 62
     7
420
 16777215
176
     1
 90
        1
176
     1
 90
        4
176
     1
 62
     7
176
     1
 62
   257
176
     1
 90
        1
176
     1
 90
        1
176
     1
 40
1.0
176
     1
 90
        8
176
     1
 62
     7
176
     1
 40
1.0
176
     1
 90
        1
176
     1
 90
        6
176
     1
 90
        2
176
     1
 62
     7
176
     1
 90
        5
176
     1
 90
        0
176
     1
 90
        0
176
     1
290
     0
176
     1
 90
        1
176
     1
 40
-50.0
176
     1
 90
        0
176
     1
290
     0
176
     1
290
     1
176
     1
290
     1
176
     1
290
     0
176
     1
290
     0
176
     1
290
     0
176
     1
290
     0
176
     1
290
     0
176
     1
290
     0
176
     1
 90
       50
176
     1
 40
0.0
176
     1
 40
1.0
176
     1
 90
        0
176
     1
 62
    18
420
        0
176
     1
 90
       50
176
     1
 90
        3
176
     1
 62
     5
420
      255
176
     1
290
     0
176
     1
 90
       50
176
     1
 90
       50
176
     1
 90
       50
176
     1
290
     0
176
     1
 90
       50
176
     1
 62
   256
176
     0
 40
1.0
176
     0
 90
        2
176
     1
  1
strokes_ogs.tif
176
     1
290
     0
176
     1
 40
1.0
176
     1
 40
1.0
176
     1
  0
VISUALSTYLE
  5
41
102
{ACAD_REACTORS
330
29
102
}
330
29
100
AcDbVisualStyle
  2
EdgeColorOff
 70
    22
177
     3
291
     1
 70
    58
 90
        2
176
     0
 90
        2
176
     0
 90
        0
176
     0
 90
        0
176
     0
 40
0.6
176
     0
 40
30.0
176
     0
 62
     7
420
 16777215
176
     0
 90
        1
176
     0
 90
        4
176
     0
 62
     7
176
     0
 62
   257
176
     0
 90
        1
176
     0
 90
        1
176
     0
 40
1.0
176
     0
 90
        8
176
     2
 62
     7
176
     0
 40
1.0
176
     0
 90
        1
176
     0
 90
        6
176
     0
 90
        2
176
     0
 62
     7
176
     0
 90
        5
176
     0
 90
        0
176
     0
 90
        0
176
     0
290
     0
176
     0
 90
        1
176
     0
 40
0.0
176
     0
 90
        0
176
     0
290
     0
176
     0
290
     1
176
     0
290
     1
176
     0
290
     0
176
     0
290
     0
176
     0
290
     0
176
     0
290
     0
176
     0
290
     0
176
     0
290
     0
176
     0
 90
       50
176
     0
 40
0.0
176
     0
 40
1.0
176
     0
 90
        0
176
     0
 62
    18
420
        0
176
     0
 90
       50
176
     0
 90
        3
176
     0
 62
     5
420
      255
176
     0
290
     0
176
     0
 90
       50
176
     0
 90
       50
176
     0
 90
       50
176
     0
290
     0
176
     0
 90
       50
176
     0
 62
   256
176
     0
 40
1.0
176
     0
 90
        2
176
     0
  1
strokes_ogs.tif
176
     0
290
     0
176
     0
 40
1.0
176
     0
 40
1.0
176
     0
  0
VISUALSTYLE
  5
38
102
{ACAD_REACTORS
330
29
102
}
330
29
100
AcDbVisualStyle
  2
Facepattern
 70
    15
177
     3
291
     1
 70
    58
 90
        2
176
     1
 90
        2
176
     1
 90
        0
176
     1
 90
        0
176
     1
 40
0.6
176
     1
 40
30.0
176
     1
 62
     7
420
 16777215
176
     1
 90
        1
176
     1
 90
        4
176
     1
 62
     7
176
     1
 62
   257
176
     1
 90
        1
176
     1
 90
        1
176
     1
 40
1.0
176
     1
 90
        8
176
     1
 62
     7
176
     1
 40
1.0
176
     1
 90
        1
176
     1
 90
        6
176
     1
 90
        2
176
     1
 62
     7
176
     1
 90
        5
176
     1
 90
        0
176
     1
 90
        0
176
     1
290
     0
176
     1
 90
        1
176
     1
 40
0.0
176
     1
 90
        0
176
     1
290
     0
176
     1
290
     1
176
     1
290
     1
176
     1
290
     0
176
     1
290
     0
176
     1
290
     0
176
     1
290
     0
176
     1
290
     0
176
     1
290
     0
176
     1
 90
       50
176
     1
 40
0.0
176
     1
 40
1.0
176
     1
 90
        0
176
     1
 62
    18
420
        0
176
     1
 90
       50
176
     1
 90
        3
176
     1
 62
     5
420
      255
176
     1
290
     0
176
     1
 90
       50
176
     1
 90
       50
176
     1
 90
       50
176
     1
290
     0
176
     1
 90
       50
176
     1
 62
   256
176
     0
 40
1.0
176
     0
 90
        2
176
     1
  1
strokes_ogs.tif
176
     1
290
     0
176
     1
 40
1.0
176
     1
 40
1.0
176
     1
  0
VISUALSTYLE
  5
2A
102
{ACAD_REACTORS
330
29
102
}
330
29
100
AcDbVisualStyle
  2
Flat
 70
     0
177
     3
291
     1
 70
    58
 90
        2
176
     1
 90
        1
176
     1
 90
        1
176
     1
 90
        2
176
     1
 40
0.6
176
     1
 40
30.0
176
     1
 62
     7
420
 16777215
176
     1
 90
        0
176
     1
 90
        0
176
     1
 62
     7
176
     1
 62
   257
176
     1
 90
        1
176
     1
 90
        1
176
     1
 40
1.0
176
     1
 90
        8
176
     1
 62
     7
176
     1
 40
1.0
176
     1
 90
        1
176
     1
 90
        6
176
     1
 90
        2
176
     1
 62
     7
176
     1
 90
        5
176
     1
 90
        0
176
     1
 90
        0
176
     1
290
     0
176
     1
 90
       13
176
     1
 40
0.0
176
     1
 90
        0
176
     1
290
     0
176
     1
290
     1
176
     1
290
     1
176
     1
290
     0
176
     1
290
     0
176
     1
290
     0
176
     1
290
     0
176
     1
290
     0
176
     1
290
     0
176
     1
 90
       50
176
     1
 40
0.0
176
     1
 40
1.0
176
     1
 90
        0
176
     1
 62
    18
420
        0
176
     1
 90
       50
176
     1
 90
        3
176
     1
 62
     5
420
      255
176
     1
290
     0
176
     1
 90
       50
176
     1
 90
       50
176
     1
 90
       50
176
     1
290
     0
176
     1
 90
       50
176
     1
 62
   256
176
     0
 40
1.0
176
     0
 90
        2
176
     1
  1
strokes_ogs.tif
176
     1
290
     0
176
     1
 40
1.0
176
     1
 40
1.0
176
     1
  0
VISUALSTYLE
  5
2B
102
{ACAD_REACTORS
330
29
102
}
330
29
100
AcDbVisualStyle
  2
FlatWithEdges
 70
     1
177
     3
291
     1
 70
    58
 90
        2
176
     1
 90
        1
176
     1
 90
        1
176
     1
 90
        2
176
     1
 40
0.6
176
     1
 40
30.0
176
     1
 62
     7
420
 16777215
176
     1
 90
        1
176
     1
 90
        0
176
     1
 62
     7
176
     1
 62
   257
176
     1
 90
        1
176
     1
 90
        1
176
     1
 40
1.0
176
     1
 90
        0
176
     1
 62
   257
176
     1
 40
1.0
176
     1
 90
        1
176
     1
 90
        6
176
     1
 90
        2
176
     1
 62
     7
176
     1
 90
        5
176
     1
 90
        0
176
     1
 90
        0
176
     1
290
     0
176
     1
 90
       13
176
     1
 40
0.0
176
     1
 90
        0
176
     1
290
     0
176
     1
290
     1
176
     1
290
     1
176
     1
290
     0
176
     1
290
     0
176
     1
290
     0
176
     1
290
     0
176
     1
290
     0
176
     1
290
     0
176
     1
 90
       50
176
     1
 40
0.0
176
     1
 40
1.0
176
     1
 90
        0
176
     1
 62
    18
420
        0
176
     1
 90
       50
176
     1
 90
        3
176
     1
 62
     5
420
      255
176
     1
290
     0
176
     1
 90
       50
176
     1
 90
       50
176
     1
 90
       50
176
     1
290
     0
176
     1
 90
       50
176
     1
 62
   256
176
     0
 40
1.0
176
     0
 90
        2
176
     1
  1
strokes_ogs.tif
176
     1
290
     0
176
     1
 40
1.0
176
     1
 40
1.0
176
     1
  0
VISUALSTYLE
  5
2C
102
{ACAD_REACTORS
330
29
102
}
330
29
100
AcDbVisualStyle
  2
Gouraud
 70
     2
177
     3
291
     1
 70
    58
 90
        2
176
     1
 90
        2
176
     1
 90
        1
176
     1
 90
        2
176
     1
 40
0.6
176
     1
 40
30.0
176
     1
 62
     7
420
 16777215
176
     1
 90
        0
176
     1
 90
        0
176
     1
 62
     7
176
     1
 62
   257
176
     1
 90
        1
176
     1
 90
        1
176
     1
 40
1.0
176
     1
 90
        0
176
     1
 62
     7
176
     1
 40
1.0
176
     1
 90
        1
176
     1
 90
        6
176
     1
 90
        2
176
     1
 62
     7
176
     1
 90
        5
176
     1
 90
        0
176
     1
 90
        0
176
     1
290
     0
176
     1
 90
       13
176
     1
 40
0.0
176
     1
 90
        0
176
     1
290
     0
176
     1
290
     1
176
     1
290
     1
176
     1
290
     0
176
     1
290
     0
176
     1
290
     0
176
     1
290
     0
176
     1
290
     0
176
     1
290
     0
176
     1
 90
       50
176
     1
 40
0.0
176
     1
 40
1.0
176
     1
 90
        0
176
     1
 62
    18
420
        0
176
     1
 90
       50
176
     1
 90
        3
176
     1
 62
     5
420
      255
176
     1
290
     0
176
     1
 90
       50
176
     1
 90
       50
176
     1
 90
       50
176
     1
290
     0
176
     1
 90
       50
176
     1
 62
   256
176
     0
 40
1.0
176
     0
 90
        2
176
     1
  1
strokes_ogs.tif
176
     1
290
     0
176
     1
 40
1.0
176
     1
 40
1.0
176
     1
  0
VISUALSTYLE
  5
2D
102
{ACAD_REACTORS
330
29
102
}
330
29
100
AcDbVisualStyle
  2
GouraudWithEdges
 70
     3
177
     3
291
     1
 70
    58
 90
        2
176
     1
 90
        2
176
     1
 90
        1
176
     1
 90
        2
176
     1
 40
0.6
176
     1
 40
30.0
176
     1
 62
     7
420
 16777215
176
     1
 90
        1
176
     1
 90
        0
176
     1
 62
     7
176
     1
 62
   257
176
     1
 90
        1
176
     1
 90
        1
176
     1
 40
1.0
176
     1
 90
        0
176
     1
 62
   257
176
     1
 40
1.0
176
     1
 90
        1
176
     1
 90
        6
176
     1
 90
        2
176
     1
 62
     7
176
     1
 90
        5
176
     1
 90
        0
176
     1
 90
        0
176
     1
290
     0
176
     1
 90
       13
176
     1
 40
0.0
176
     1
 90
        0
176
     1
290
     0
176
     1
290
     1
176
     1
290
     1
176
     1
290
     0
176
     1
290
     0
176
     1
290
     0
176
     1
290
     0
176
     1
290
     0
176
     1
290
     0
176
     1
 90
       50
176
     1
 40
0.0
176
     1
 40
1.0
176
     1
 90
        0
176
     1
 62
    18
420
        0
176
     1
 90
       50
176
     1
 90
        3
176
     1
 62
     5
420
      255
176
     1
290
     0
176
     1
 90
       50
176
     1
 90
       50
176
     1
 90
       50
176
     1
290
     0
176
     1
 90
       50
176
     1
 62
   256
176
     0
 40
1.0
176
     0
 90
        2
176
     1
  1
strokes_ogs.tif
176
     1
290
     0
176
     1
 40
1.0
176
     1
 40
1.0
176
     1
  0
VISUALSTYLE
  5
31
102
{ACAD_REACTORS
330
29
102
}
330
29
100
AcDbVisualStyle
  2
Hidden
 70
     6
177
     3
291
     0
 70
    58
 90
        1
176
     1
 90
        2
176
     1
 90
        2
176
     1
 90
        0
176
     1
 40
0.6
176
     1
 40
30.0
176
     1
 62
     7
420
 16777215
176
     1
 90
        2
176
     1
 90
        2
176
     1
 62
     7
176
     1
 62
   257
176
     1
 90
        2
176
     1
 90
        1
176
     1
 40
40.0
176
     1
 90
        0
176
     1
 62
   257
176
     1
 40
1.0
176
     1
 90
        1
176
     1
 90
        6
176
     1
 90
        2
176
     1
 62
     7
176
     1
 90
        3
176
     1
 90
        0
176
     1
 90
        0
176
     1
290
     0
176
     1
 90
        1
176
     1
 40
0.0
176
     1
 90
        0
176
     1
290
     0
176
     1
290
     1
176
     1
290
     1
176
     1
290
     0
176
     1
290
     0
176
     1
290
     0
176
     1
290
     0
176
     1
290
     0
176
     1
290
     0
176
     1
 90
       50
176
     1
 40
0.0
176
     1
 40
1.0
176
     1
 90
        0
176
     1
 62
    18
420
        0
176
     1
 90
       50
176
     1
 90
        3
176
     1
 62
     5
420
      255
176
     1
290
     0
176
     1
 90
       50
176
     1
 90
       50
176
     1
 90
       50
176
     1
290
     0
176
     1
 90
       50
176
     1
 62
   256
176
     0
 40
1.0
176
     0
 90
        2
176
     1
  1
strokes_ogs.tif
176
     1
290
     0
176
     1
 40
1.0
176
     1
 40
1.0
176
     1
  0
VISUALSTYLE
  5
3F
102
{ACAD_REACTORS
330
29
102
}
330
29
100
AcDbVisualStyle
  2
JitterOff
 70
    20
177
     3
291
     1
 70
    58
 90
        2
176
     0
 90
        2
176
     0
 90
        0
176
     0
 90
        0
176
     0
 40
0.6
176
     0
 40
30.0
176
     0
 62
     7
420
 16777215
176
     0
 90
        1
176
     0
 90
        4
176
     0
 62
     7
176
     0
 62
   257
176
     0
 90
        1
176
     0
 90
        1
176
     0
 40
1.0
176
     0
 90
       10
176
     2
 62
     7
176
     0
 40
1.0
176
     0
 90
        1
176
     0
 90
        6
176
     0
 90
        2
176
     0
 62
     7
176
     0
 90
        5
176
     0
 90
        0
176
     0
 90
        0
176
     0
290
     0
176
     0
 90
        1
176
     0
 40
0.0
176
     0
 90
        0
176
     0
290
     0
176
     0
290
     1
176
     0
290
     1
176
     0
290
     0
176
     0
290
     0
176
     0
290
     0
176
     0
290
     0
176
     0
290
     0
176
     0
290
     0
176
     0
 90
       50
176
     0
 40
0.0
176
     0
 40
1.0
176
     0
 90
        0
176
     0
 62
    18
420
        0
176
     0
 90
       50
176
     0
 90
        3
176
     0
 62
     5
420
      255
176
     0
290
     0
176
     0
 90
       50
176
     0
 90
       50
176
     0
 90
       50
176
     0
290
     0
176
     0
 90
       50
176
     0
 62
   256
176
     0
 40
1.0
176
     0
 90
        2
176
     0
  1
strokes_ogs.tif
176
     0
290
     0
176
     0
 40
1.0
176
     0
 40
1.0
176
     0
  0
VISUALSTYLE
  5
37
102
{ACAD_REACTORS
330
29
102
}
330
29
100
AcDbVisualStyle
  2
Linepattern
 70
    14
177
     3
291
     1
 70
    58
 90
        2
176
     1
 90
        2
176
     1
 90
        0
176
     1
 90
        0
176
     1
 40
0.6
176
     1
 40
30.0
176
     1
 62
     7
420
 16777215
176
     1
 90
        1
176
     1
 90
        4
176
     1
 62
     7
176
     1
 62
   257
176
     1
 90
        7
176
     1
 90
        7
176
     1
 40
1.0
176
     1
 90
        8
176
     1
 62
     7
176
     1
 40
1.0
176
     1
 90
        1
176
     1
 90
        6
176
     1
 90
        2
176
     1
 62
     7
176
     1
 90
        5
176
     1
 90
        0
176
     1
 90
        0
176
     1
290
     0
176
     1
 90
        1
176
     1
 40
0.0
176
     1
 90
        0
176
     1
290
     0
176
     1
290
     1
176
     1
290
     1
176
     1
290
     0
176
     1
290
     0
176
     1
290
     0
176
     1
290
     0
176
     1
290
     0
176
     1
290
     0
176
     1
 90
       50
176
     1
 40
0.0
176
     1
 40
1.0
176
     1
 90
        0
176
     1
 62
    18
420
        0
176
     1
 90
       50
176
     1
 90
        3
176
     1
 62
     5
420
      255
176
     1
290
     0
176
     1
 90
       50
176
     1
 90
       50
176
     1
 90
       50
176
     1
290
     0
176
     1
 90
       50
176
     1
 62
   256
176
     0
 40
1.0
176
     0
 90
        2
176
     1
  1
strokes_ogs.tif
176
     1
290
     0
176
     1
 40
1.0
176
     1
 40
1.0
176
     1
  0
VISUALSTYLE
  5
40
102
{ACAD_REACTORS
330
29
102
}
330
29
100
AcDbVisualStyle
  2
OverhangOff
 70
    21
177
     3
291
     1
 70
    58
 90
        2
176
     0
 90
        2
176
     0
 90
        0
176
     0
 90
        0
176
     0
 40
0.6
176
     0
 40
30.0
176
     0
 62
     7
420
 16777215
176
     0
 90
        1
176
     0
 90
        4
176
     0
 62
     7
176
     0
 62
   257
176
     0
 90
        1
176
     0
 90
        1
176
     0
 40
1.0
176
     0
 90
        9
176
     2
 62
     7
176
     0
 40
1.0
176
     0
 90
        1
176
     0
 90
        6
176
     0
 90
        2
176
     0
 62
     7
176
     0
 90
        5
176
     0
 90
        0
176
     0
 90
        0
176
     0
290
     0
176
     0
 90
        1
176
     0
 40
0.0
176
     0
 90
        0
176
     0
290
     0
176
     0
290
     1
176
     0
290
     1
176
     0
290
     0
176
     0
290
     0
176
     0
290
     0
176
     0
290
     0
176
     0
290
     0
176
     0
290
     0
176
     0
 90
       50
176
     0
 40
0.0
176
     0
 40
1.0
176
     0
 90
        0
176
     0
 62
    18
420
        0
176
     0
 90
       50
176
     0
 90
        3
176
     0
 62
     5
420
      255
176
     0
290
     0
176
     0
 90
       50
176
     0
 90
       50
176
     0
 90
       50
176
     0
290
     0
176
     0
 90
       50
176
     0
 62
   256
176
     0
 40
1.0
176
     0
 90
        2
176
     0
  1
strokes_ogs.tif
176
     0
290
     0
176
     0
 40
1.0
176
     0
 40
1.0
176
     0
  0
VISUALSTYLE
  5
33
102
{ACAD_REACTORS
330
29
102
}
330
29
100
AcDbVisualStyle
  2
Realistic
 70
     8
177
     3
291
     0
 70
    58
 90
        2
176
     1
 90
        3
176
     1
 90
        0
176
     1
 90
        2
176
     1
 40
0.6
176
     1
 40
30.0
176
     1
 62
     7
420
 16777215
176
     1
 90
        0
176
     1
 90
        0
176
     1
 62
     7
176
     1
 62
   257
176
     1
 90
        1
176
     1
 90
        1
176
     1
 40
1.0
176
     1
 90
        8
176
     1
 62
   257
176
     1
 40
1.0
176
     1
 90
        1
176
     1
 90
        6
176
     1
 90
        2
176
     1
 62
     7
176
     1
 90
        3
176
     1
 90
        0
176
     1
 90
        0
176
     1
290
     0
176
     1
 90
       13
176
     1
 40
0.0
176
     1
 90
        0
176
     1
290
     0
176
     1
290
     1
176
     1
290
     1
176
     1
290
     0
176
     1
290
     0
176
     1
290
     0
176
     1
290
     0
176
     1
290
     0
176
     1
290
     0
176
     1
 90
       50
176
     1
 40
0.0
176
     1
 40
1.0
176
     1
 90
        0
176
     1
 62
    18
420
        0
176
     1
 90
       50
176
     1
 90
        3
176
     1
 62
     5
420
      255
176
     1
290
     0
176
     1
 90
       50
176
     1
 90
       50
176
     1
 90
       50
176
     1
290
     0
176
     1
 90
       50
176
     1
 62
   256
176
     0
 40
1.0
176
     0
 90
        2
176
     1
  1
strokes_ogs.tif
176
     1
290
     0
176
     1
 40
1.0
176
     1
 40
1.0
176
     1
  0
VISUALSTYLE
  5
3E
102
{ACAD_REACTORS
330
29
102
}
330
29
100
AcDbVisualStyle
  2
Shaded
 70
    27
177
     3
291
     0
 70
    58
 90
        2
176
     1
 90
        2
176
     1
 90
        1
176
     1
 90
        2
176
     1
 40
0.6
176
     1
 40
30.0
176
     1
 62
     7
420
 16777215
176
     1
 90
        0
176
     1
 90
        4
176
     1
 62
     7
176
     1
 62
   257
176
     1
 90
        1
176
     1
 90
        1
176
     1
 40
1.0
176
     1
 90
        8
176
     1
 62
   257
176
     1
 40
1.0
176
     1
 90
        1
176
     1
 90
        6
176
     1
 90
        2
176
     1
 62
     8
420
  7895160
176
     1
 90
        3
176
     1
 90
        0
176
     1
 90
        0
176
     1
290
     0
176
     1
 90
        5
176
     1
 40
0.0
176
     1
 90
        0
176
     1
290
     0
176
     1
290
     1
176
     1
290
     1
176
     1
290
     0
176
     1
290
     0
176
     1
290
     0
176
     1
290
     0
176
     1
290
     0
176
     1
290
     0
176
     1
 90
       50
176
     1
 40
0.0
176
     1
 40
1.0
176
     1
 90
        0
176
     1
 62
    18
420
        0
176
     1
 90
       50
176
     1
 90
        3
176
     1
 62
     5
420
      255
176
     1
290
     0
176
     1
 90
       50
176
     1
 90
       50
176
     1
 90
       50
176
     1
290
     0
176
     1
 90
       50
176
     1
 62
   256
176
     0
 40
1.0
176
     0
 90
        2
176
     1
  1
strokes_ogs.tif
176
     1
290
     0
176
     1
 40
1.0
176
     1
 40
1.0
176
     1
  0
VISUALSTYLE
  5
3D
102
{ACAD_REACTORS
330
29
102
}
330
29
100
AcDbVisualStyle
  2
Shaded with edges
 70
    26
177
     3
291
     0
 70
    58
 90
        2
176
     1
 90
        2
176
     1
 90
        1
176
     1
 90
        2
176
     1
 40
0.6
176
     1
 40
30.0
176
     1
 62
     7
420
 16777215
176
     1
 90
        1
176
     1
 90
        2
176
     1
 62
     7
176
     1
 62
   257
176
     1
 90
        2
176
     1
 90
        1
176
     1
 40
1.0
176
     1
 90
        8
176
     1
 62
   257
176
     1
 40
1.0
176
     1
 90
        1
176
     1
 90
        6
176
     1
 90
        2
176
     1
 62
     7
176
     1
 90
        3
176
     1
 90
        0
176
     1
 90
        0
176
     1
290
     0
176
     1
 90
        5
176
     1
 40
0.0
176
     1
 90
        0
176
     1
290
     0
176
     1
290
     1
176
     1
290
     1
176
     1
290
     0
176
     1
290
     0
176
     1
290
     0
176
     1
290
     0
176
     1
290
     0
176
     1
290
     0
176
     1
 90
       50
176
     1
 40
0.0
176
     1
 40
1.0
176
     1
 90
        0
176
     1
 62
    18
420
        0
176
     1
 90
       50
176
     1
 90
        3
176
     1
 62
     5
420
      255
176
     1
290
     0
176
     1
 90
       50
176
     1
 90
       50
176
     1
 90
       50
176
     1
290
     0
176
     1
 90
       50
176
     1
 62
   256
176
     0
 40
1.0
176
     0
 90
        2
176
     1
  1
strokes_ogs.tif
176
     1
290
     0
176
     1
 40
1.0
176
     1
 40
1.0
176
     1
  0
VISUALSTYLE
  5
3A
102
{ACAD_REACTORS
330
29
102
}
330
29
100
AcDbVisualStyle
  2
Shades of Gray
 70
    23
177
     3
291
     0
 70
    58
 90
        2
176
     1
 90
        2
176
     1
 90
        3
176
     1
 90
        0
176
     1
 40
0.6
176
     1
 40
30.0
176
     1
 62
     7
420
 16777215
176
     1
 90
        2
176
     1
 90
        2
176
     1
 62
     7
176
     1
 62
     7
176
     1
 90
        1
176
     1
 90
        1
176
     1
 40
40.0
176
     1
 90
        8
176
     1
 62
     7
176
     1
 40
1.0
176
     1
 90
        1
176
     1
 90
        6
176
     1
 90
        2
176
     1
 62
     7
176
     1
 90
        3
176
     1
 90
        0
176
     1
 90
        0
176
     1
290
     0
176
     1
 90
        1
176
     1
 40
0.0
176
     1
 90
        0
176
     1
290
     0
176
     1
290
     1
176
     1
290
     1
176
     1
290
     0
176
     1
290
     0
176
     1
290
     0
176
     1
290
     0
176
     1
290
     0
176
     1
290
     0
176
     1
 90
       50
176
     1
 40
0.0
176
     1
 40
1.0
176
     1
 90
        0
176
     1
 62
    18
420
        0
176
     1
 90
       50
176
     1
 90
        3
176
     1
 62
     5
420
      255
176
     1
290
     0
176
     1
 90
       50
176
     1
 90
       50
176
     1
 90
       50
176
     1
290
     0
176
     1
 90
       50
176
     1
 62
   256
176
     0
 40
1.0
176
     0
 90
        2
176
     1
  1
strokes_ogs.tif
176
     1
290
     0
176
     1
 40
1.0
176
     1
 40
1.0
176
     1
  0
VISUALSTYLE
  5
3B
102
{ACAD_REACTORS
330
29
102
}
330
29
100
AcDbVisualStyle
  2
Sketchy
 70
    24
177
     3
291
     0
 70
    58
 90
        1
176
     1
 90
        2
176
     1
 90
        2
176
     1
 90
        0
176
     1
 40
0.6
176
     1
 40
30.0
176
     1
 62
     7
420
 16777215
176
     1
 90
        2
176
     1
 90
        2
176
     1
 62
     7
176
     1
 62
     7
176
     1
 90
        1
176
     1
 90
        1
176
     1
 40
40.0
176
     1
 90
       11
176
     1
 62
     7
176
     1
 40
1.0
176
     1
 90
        1
176
     1
 90
        6
176
     1
 90
        2
176
     1
 62
     7
176
     1
 90
        6
176
     1
 90
        0
176
     1
 90
        0
176
     1
290
     0
176
     1
 90
        1
176
     1
 40
0.0
176
     1
 90
        0
176
     1
290
     0
176
     1
290
     1
176
     1
290
     1
176
     1
290
     0
176
     1
290
     0
176
     1
290
     0
176
     1
290
     0
176
     1
290
     0
176
     1
290
     0
176
     1
 90
       50
176
     1
 40
0.0
176
     1
 40
1.0
176
     1
 90
        0
176
     1
 62
    18
420
        0
176
     1
 90
       50
176
     1
 90
        3
176
     1
 62
     5
420
      255
176
     1
290
     0
176
     1
 90
       50
176
     1
 90
       50
176
     1
 90
       50
176
     1
290
     0
176
     1
 90
       50
176
     1
 62
   256
176
     0
 40
1.0
176
     0
 90
        2
176
     1
  1
strokes_ogs.tif
176
     1
290
     0
176
     1
 40
1.0
176
     1
 40
1.0
176
     1
  0
VISUALSTYLE
  5
36
102
{ACAD_REACTORS
330
29
102
}
330
29
100
AcDbVisualStyle
  2
Thicken
 70
    13
177
     3
291
     1
 70
    58
 90
        2
176
     1
 90
        2
176
     1
 90
        0
176
     1
 90
        0
176
     1
 40
0.6
176
     1
 40
30.0
176
     1
 62
     7
420
 16777215
176
     1
 90
        1
176
     1
 90
        4
176
     1
 62
     7
176
     1
 62
   257
176
     1
 90
        1
176
     1
 90
        1
176
     1
 40
1.0
176
     1
 90
       12
176
     1
 62
     7
176
     1
 40
1.0
176
     1
 90
        1
176
     1
 90
        6
176
     1
 90
        2
176
     1
 62
     7
176
     1
 90
        5
176
     1
 90
        0
176
     1
 90
        0
176
     1
290
     0
176
     1
 90
        1
176
     1
 40
0.0
176
     1
 90
        0
176
     1
290
     0
176
     1
290
     1
176
     1
290
     1
176
     1
290
     0
176
     1
290
     0
176
     1
290
     0
176
     1
290
     0
176
     1
290
     0
176
     1
290
     0
176
     1
 90
       50
176
     1
 40
0.0
176
     1
 40
1.0
176
     1
 90
        0
176
     1
 62
    18
420
        0
176
     1
 90
       50
176
     1
 90
        3
176
     1
 62
     5
420
      255
176
     1
290
     0
176
     1
 90
       50
176
     1
 90
       50
176
     1
 90
       50
176
     1
290
     0
176
     1
 90
       50
176
     1
 62
   256
176
     0
 40
1.0
176
     0
 90
        2
176
     1
  1
strokes_ogs.tif
176
     1
290
     0
176
     1
 40
1.0
176
     1
 40
1.0
176
     1
  0
VISUALSTYLE
  5
30
102
{ACAD_REACTORS
330
29
102
}
330
29
100
AcDbVisualStyle
  2
Wireframe
 70
     5
177
     3
291
     0
 70
    58
 90
        0
176
     1
 90
        2
176
     1
 90
        0
176
     1
 90
        0
176
     1
 40
0.6
176
     1
 40
30.0
176
     1
 62
     7
420
 16777215
176
     1
 90
        1
176
     1
 90
        4
176
     1
 62
     7
176
     1
 62
   257
176
     1
 90
        1
176
     1
 90
        1
176
     1
 40
1.0
176
     1
 90
        0
176
     1
 62
   257
176
     1
 40
1.0
176
     1
 90
        1
176
     1
 90
        6
176
     1
 90
        2
176
     1
 62
     7
176
     1
 90
        3
176
     1
 90
        0
176
     1
 90
        0
176
     1
290
     0
176
     1
 90
        1
176
     1
 40
0.0
176
     1
 90
        0
176
     1
290
     0
176
     1
290
     1
176
     1
290
     1
176
     1
290
     0
176
     1
290
     0
176
     1
290
     0
176
     1
290
     0
176
     1
290
     0
176
     1
290
     0
176
     1
 90
       50
176
     1
 40
0.0
176
     1
 40
1.0
176
     1
 90
        0
176
     1
 62
    18
420
        0
176
     1
 90
       50
176
     1
 90
        3
176
     1
 62
     5
420
      255
176
     1
290
     0
176
     1
 90
       50
176
     1
 90
       50
176
     1
 90
       50
176
     1
290
     0
176
     1
 90
       50
176
     1
 62
   256
176
     0
 40
1.0
176
     0
 90
        2
176
     1
  1
strokes_ogs.tif
176
     1
290
     0
176
     1
 40
1.0
176
     1
 40
1.0
176
     1
  0
VISUALSTYLE
  5
3C
102
{ACAD_REACTORS
330
29
102
}
330
29
100
AcDbVisualStyle
  2
X-Ray
 70
    25
177
     3
291
     0
 70
    58
 90
        2
176
     1
 90
        2
176
     1
 90
        1
176
     1
 90
        1
176
     1
 40
0.5
176
     1
 40
30.0
176
     1
 62
     7
420
 16777215
176
     1
 90
        1
176
     1
 90
        0
176
     1
 62
     7
176
     1
 62
   257
176
     1
 90
        1
176
     1
 90
        1
176
     1
 40
1.0
176
     1
 90
        8
176
     1
 62
     7
176
     1
 40
1.0
176
     1
 90
        1
176
     1
 90
        6
176
     1
 90
        2
176
     1
 62
     7
176
     1
 90
        3
176
     1
 90
        0
176
     1
 90
        0
176
     1
290
     0
176
     1
 90
       13
176
     1
 40
0.0
176
     1
 90
        0
176
     1
290
     0
176
     1
290
     1
176
     1
290
     1
176
     1
290
     0
176
     1
290
     0
176
     1
290
     0
176
     1
290
     0
176
     1
290
     0
176
     1
290
     0
176
     1
 90
       50
176
     1
 40
0.0
176
     1
 40
1.0
176
     1
 90
        0
176
     1
 62
    18
420
        0
176
     1
 90
       50
176
     1
 90
        3
176
     1
 62
     5
420
      255
176
     1
290
     0
176
     1
 90
       50
176
     1
 90
       50
176
     1
 90
       50
176
     1
290
     0
176
     1
 90
       50
176
     1
 62
   256
176
     0
 40
1.0
176
     0
 90
        2
176
     1
  1
strokes_ogs.tif
176
     1
290
     0
176
     1
 40
1.0
176
     1
 40
1.0
176
     1
  0
DICTIONARYVAR
  5
2D2
102
{ACAD_REACTORS
330
2CD
102
}
330
2CD
100
DictionaryVariables
280
     0
  1
1:1
  0
DICTIONARYVAR
  5
2CF
102
{ACAD_REACTORS
330
2CD
102
}
330
2CD
100
DictionaryVariables
280
     0
  1
STANDARD
  0
DICTIONARYVAR
  5
2CE
102
{ACAD_REACTORS
330
2CD
102
}
330
2CD
100
DictionaryVariables
280
     0
  1
STANDARD
  0
DICTIONARYVAR
  5
2D0
102
{ACAD_REACTORS
330
2CD
102
}
330
2CD
100
DictionaryVariables
280
     0
  1
Imperial24
  0
DICTIONARYVAR
  5
2D1
102
{ACAD_REACTORS
330
2CD
102
}
330
2CD
100
DictionaryVariables
280
     0
  1
Imperial24
  0
XRECORD
  5
2C9
102
{ACAD_REACTORS
330
2C5
102
}
330
2C5
100
AcDbXrecord
280
     1
  1
BUILDING_ID
  1
Casa à Praça Osvaldo Cruz, n
  1
FLOOR_ID
  1
22957363
  0
XRECORD
  5
2C7
102
{ACAD_REACTORS
330
2C5
102
}
330
2C5
100
AcDbXrecord
280
     1
  1
-2000051
  1
Linhas
  1
-2000280
  1
Blocos de margens e carimbo
  1
-2002000
  1
Itens de detalhe
  0
XRECORD
  5
2C8
102
{ACAD_REACTORS
330
2C5
102
}
330
2C5
100
AcDbXrecord
280
     1
  1
-2000042
  1
<Linhas finas>
  1
-2000044
  1
<Linhas grossas>
  1
-2000281
  1
<Linhas finas>
  0
XRECORD
  5
2C6
102
{ACAD_REACTORS
330
2C5
102
}
330
2C5
100
AcDbXrecord
280
     1
  1
22958813
  1
A4 HORIZONTAL : A4
  1
383807
  1
Região preenchida : Marcenaria corte
  0
DICTIONARY
  5
1A
330
19
100
AcDbDictionary
280
     1
281
     1
  3
BUMPTILE
360
1C
  3
DIFFUSETILE
360
1B
  3
OPACITYTILE
360
1F
  3
REFLECTIONTILE
360
1E
  3
REFRACTIONTILE
360
20
  3
SPECULARTILE
360
1D
  0
DICTIONARY
  5
12
330
11
100
AcDbDictionary
280
     1
281
     1
  3
BUMPTILE
360
14
  3
DIFFUSETILE
360
13
  3
OPACITYTILE
360
17
  3
REFLECTIONTILE
360
16
  3
REFRACTIONTILE
360
18
  3
SPECULARTILE
360
15
  0
DICTIONARY
  5
22
330
21
100
AcDbDictionary
280
     1
281
     1
  3
BUMPTILE
360
24
  3
DIFFUSETILE
360
23
  3
OPACITYTILE
360
27
  3
REFLECTIONTILE
360
26
  3
REFRACTIONTILE
360
28
  3
SPECULARTILE
360
25
  0
DICTIONARY
  5
35D
330
65
100
AcDbDictionary
280
     1
281
     1
  3
ACAD_ROUNDTRIP_2008_TABLESTYLE_CELLSTYLEMAP
360
35E
  0
XRECORD
  5
1C
102
{ACAD_REACTORS
330
1A
102
}
330
1A
100
AcDbXrecord
280
     1
270
     1
271
     1
  0
XRECORD
  5
1B
102
{ACAD_REACTORS
330
1A
102
}
330
1A
100
AcDbXrecord
280
     1
270
     1
271
     1
  0
XRECORD
  5
1F
102
{ACAD_REACTORS
330
1A
102
}
330
1A
100
AcDbXrecord
280
     1
270
     1
271
     1
  0
XRECORD
  5
1E
102
{ACAD_REACTORS
330
1A
102
}
330
1A
100
AcDbXrecord
280
     1
270
     1
271
     1
  0
XRECORD
  5
20
102
{ACAD_REACTORS
330
1A
102
}
330
1A
100
AcDbXrecord
280
     1
270
     1
271
     1
  0
XRECORD
  5
1D
102
{ACAD_REACTORS
330
1A
102
}
330
1A
100
AcDbXrecord
280
     1
270
     1
271
     1
  0
XRECORD
  5
14
102
{ACAD_REACTORS
330
12
102
}
330
12
100
AcDbXrecord
280
     1
270
     1
271
     1
  0
XRECORD
  5
13
102
{ACAD_REACTORS
330
12
102
}
330
12
100
AcDbXrecord
280
     1
270
     1
271
     1
  0
XRECORD
  5
17
102
{ACAD_REACTORS
330
12
102
}
330
12
100
AcDbXrecord
280
     1
270
     1
271
     1
  0
XRECORD
  5
16
102
{ACAD_REACTORS
330
12
102
}
330
12
100
AcDbXrecord
280
     1
270
     1
271
     1
  0
XRECORD
  5
18
102
{ACAD_REACTORS
330
12
102
}
330
12
100
AcDbXrecord
280
     1
270
     1
271
     1
  0
XRECORD
  5
15
102
{ACAD_REACTORS
330
12
102
}
330
12
100
AcDbXrecord
280
     1
270
     1
271
     1
  0
XRECORD
  5
24
102
{ACAD_REACTORS
330
22
102
}
330
22
100
AcDbXrecord
280
     1
270
     1
271
     1
  0
XRECORD
  5
23
102
{ACAD_REACTORS
330
22
102
}
330
22
100
AcDbXrecord
280
     1
270
     1
271
     1
  0
XRECORD
  5
27
102
{ACAD_REACTORS
330
22
102
}
330
22
100
AcDbXrecord
280
     1
270
     1
271
     1
  0
XRECORD
  5
26
102
{ACAD_REACTORS
330
22
102
}
330
22
100
AcDbXrecord
280
     1
270
     1
271
     1
  0
XRECORD
  5
28
102
{ACAD_REACTORS
330
22
102
}
330
22
100
AcDbXrecord
280
     1
270
     1
271
     1
  0
XRECORD
  5
25
102
{ACAD_REACTORS
330
22
102
}
330
22
100
AcDbXrecord
280
     1
270
     1
271
     1
  0
CELLSTYLEMAP
  5
35E
102
{ACAD_REACTORS
330
35D
102
}
330
35D
100
AcDbCellStyleMap
 90
        3
300
CELLSTYLE
  1
TABLEFORMAT_BEGIN
 90
        5
170
     1
 91
        0
 92
    32768
 62
   257
 93
        1
300
CONTENTFORMAT
  1
CONTENTFORMAT_BEGIN
 90
        0
 91
        0
 92
      512
 93
        0
300

 40
0.0
140
1.0
 94
        5
 62
     0
340
55
144
0.25
309
CONTENTFORMAT_END
171
     0
 94
        0
309
TABLEFORMAT_END
  1
CELLSTYLE_BEGIN
 90
        1
 91
        1
300
_TITLE
309
CELLSTYLE_END
300
CELLSTYLE
  1
TABLEFORMAT_BEGIN
 90
        5
170
     1
 91
        0
 92
        0
 62
   257
 93
        1
300
CONTENTFORMAT
  1
CONTENTFORMAT_BEGIN
 90
        0
 91
        0
 92
      512
 93
        0
300

 40
0.0
140
1.0
 94
        5
 62
     0
340
55
144
0.18
309
CONTENTFORMAT_END
171
     0
 94
        0
309
TABLEFORMAT_END
  1
CELLSTYLE_BEGIN
 90
        2
 91
        1
300
_HEADER
309
CELLSTYLE_END
300
CELLSTYLE
  1
TABLEFORMAT_BEGIN
 90
        5
170
     1
 91
        0
 92
        0
 62
   257
 93
        1
300
CONTENTFORMAT
  1
CONTENTFORMAT_BEGIN
 90
        0
 91
        0
 92
      512
 93
        0
300

 40
0.0
140
1.0
 94
        2
 62
     0
340
55
144
0.18
309
CONTENTFORMAT_END
171
     0
 94
        0
309
TABLEFORMAT_END
  1
CELLSTYLE_BEGIN
 90
        3
 91
        2
300
_DATA
309
CELLSTYLE_END
  0
ENDSEC
  0
SECTION
  2
ACDSDATA
 70
     2
 71
     8
  0
ACDSSCHEMA
 90
        0
  1
AcDb_Thumbnail_Schema
  2
AcDbDs::ID
280
    10
 91
        8
  2
Thumbnail_Data
280
    15
 91
        0
101
ACDSRECORD
 95
        0
 90
        1
  2
AcDbDs::TreatedAsObjectData
280
     1
291
     1
101
ACDSRECORD
 95
        0
 90
        2
  2
AcDbDs::Legacy
280
     1
291
     1
101
ACDSRECORD
  1
AcDbDs::ID
 90
        3
  2
AcDs:Indexable
280
     1
291
     1
101
ACDSRECORD
  1
AcDbDs::ID
 90
        4
  2
AcDbDs::HandleAttribute
280
     7
282
     1
  0
ACDSSCHEMA
 90
        1
  1
AcDbDs::TreatedAsObjectDataSchema
  2
AcDbDs::TreatedAsObjectData
280
     1
 91
        0
  0
ACDSSCHEMA
 90
        2
  1
AcDbDs::LegacySchema
  2
AcDbDs::Legacy
280
     1
 91
        0
  0
ACDSSCHEMA
 90
        3
  1
AcDbDs::IndexedPropertySchema
  2
AcDs:Indexable
280
     1
 91
        0
  0
ACDSSCHEMA
 90
        4
  1
AcDbDs::HandleAttributeSchema
  2
AcDbDs::HandleAttribute
280
     7
 91
        1
284
     1
  0
ACDSRECORD
 90
        0
  2
AcDbDs::ID
280
    10
320
6F
  2
Thumbnail_Data
280
    15
 94
     1452
310
89504E470D0A1A0A0000000D4948445200000100000000B5080300000087DCD12600000300504C5445FFFFFFFFFFFFFFFFFF0000000000000000000000000000000000000000000000000000330000660000990000CC0000FF0033000033330033660033990033CC0033FF0066000066330066660066990066CC0066FF0099
310
000099330099660099990099CC0099FF00CC0000CC3300CC6600CC9900CCCC00CCFF00FF0000FF3300FF6600FF9900FFCC00FFFF3300003300333300663300993300CC3300FF3333003333333333663333993333CC3333FF3366003366333366663366993366CC3366FF3399003399333399663399993399CC3399FF33CC00
310
33CC3333CC6633CC9933CCCC33CCFF33FF0033FF3333FF6633FF9933FFCC33FFFF6600006600336600666600996600CC6600FF6633006633336633666633996633CC6633FF6666006666336666666666996666CC6666FF6699006699336699666699996699CC6699FF66CC0066CC3366CC6666CC9966CCCC66CCFF66FF0066
310
FF3366FF6666FF9966FFCC66FFFF9900009900339900669900999900CC9900FF9933009933339933669933999933CC9933FF9966009966339966669966999966CC9966FF9999009999339999669999999999CC9999FF99CC0099CC3399CC6699CC9999CCCC99CCFF99FF0099FF3399FF6699FF9999FFCC99FFFFCC0000CC00
310
33CC0066CC0099CC00CCCC00FFCC3300CC3333CC3366CC3399CC33CCCC33FFCC6600CC6633CC6666CC6699CC66CCCC66FFCC9900CC9933CC9966CC9999CC99CCCC99FFCCCC00CCCC33CCCC66CCCC99CCCCCCCCCCFFCCFF00CCFF33CCFF66CCFF99CCFFCCCCFFFFFF0000FF0033FF0066FF0099FF00CCFF00FFFF3300FF3333
310
FF3366FF3399FF33CCFF33FFFF6600FF6633FF6666FF6699FF66CCFF66FFFF9900FF9933FF9966FF9999FF99CCFF99FFFFCC00FFCC33FFCC66FFCC99FFCCCCFFCCFFFFFF00FFFF33FFFF66FFFF99FFFFCCFFFFFF0000000D0D0D1A1A1A2828283535354343435050505D5D5D6B6B6B787878868686939393A1A1A1AEAEAEBB
310
BBBBC9C9C9D6D6D6E4E4E4F1F1F1FFFFFF000000000000000000000000000000000000000000000000000000000000AD4AB4E4000002674944415478DAEDDD5172823014055016C93EB2B06E85AFAEC345B42A5A910041C126E4BC8F76C469E6BE632299CC689B507935A1A9BA000000000000000000000000000000000000
310
0000000000000000000000000000000000000000000000000000000000000000000000000000000000000000000000383AC0D7F16A254046AF52DBB61B8C522C40DB86EFB00141A100E7CECF9FF26FDE262811A09FFB7DC83757427900F77EFF42BE43501AC043AF8F215F27280B60D0E730E4AB0405013C2FF6E790AFBD19
310
140330EE2E12F205824200629D4543FE6E0F8E07709EDB21356458B912F207B8EF7992425EBE02690D41EE00833DCF72C8D0DC7647870068239B9E2580B0F29E9031C063078900B709B0E29E902DC0C24D3FED5202419E00E3F99B04309C00692B21478068E658BB2129F63C417E00137913DA9D48DDCE12E406309D75B9DF
310
4980B961B302985DB08BFD4E856E67C7CE08E072CAD7A40BAC03989A06D900F43BDE5DBF2734469009401FB1DBA7F3F652FDAF4C01AE3FBBB02C95762D469CF37BC01D60BFEA3605D8617D1606B0CF0C083B2E0100000000A81A20D405F07C8705903BC0306D0100FBFF8B87F7011A001F58020B89C74F0FAF8C1F5DFB3910
310
C073C60F0284CF005CC75E01701DFDD67273F9DBFE51B721409FB2AC19000000000000001406601F50C80CE800FCC779C01860E1DC0E0080A301A49E757DE0986513807D239EF6AC6D004EE556DCBC2280B80A809500B57F76B896020000000000000000000000000000000000000000000000000000000000000000000000
310
00000000000000000000000000000000000000000000000000001C0AA0F26A4E95D70F0BE9D27BE8508AA00000000049454E44AE426082
  0
ACDSRECORD
 90
        0
  2
AcDbDs::ID
280
    10
320
73
  2
Thumbnail_Data
280
    15
 94
      986
310
89504E470D0A1A0A0000000D494844520000010000000065080300000095E2CD0900000300504C5445FFFFFFFFFFFFFFFFFF0000000000000000000000000000000000000000000000000000330000660000990000CC0000FF0033000033330033660033990033CC0033FF0066000066330066660066990066CC0066FF0099
310
000099330099660099990099CC0099FF00CC0000CC3300CC6600CC9900CCCC00CCFF00FF0000FF3300FF6600FF9900FFCC00FFFF3300003300333300663300993300CC3300FF3333003333333333663333993333CC3333FF3366003366333366663366993366CC3366FF3399003399333399663399993399CC3399FF33CC00
310
33CC3333CC6633CC9933CCCC33CCFF33FF0033FF3333FF6633FF9933FFCC33FFFF6600006600336600666600996600CC6600FF6633006633336633666633996633CC6633FF6666006666336666666666996666CC6666FF6699006699336699666699996699CC6699FF66CC0066CC3366CC6666CC9966CCCC66CCFF66FF0066
310
FF3366FF6666FF9966FFCC66FFFF9900009900339900669900999900CC9900FF9933009933339933669933999933CC9933FF9966009966339966669966999966CC9966FF9999009999339999669999999999CC9999FF99CC0099CC3399CC6699CC9999CCCC99CCFF99FF0099FF3399FF6699FF9999FFCC99FFFFCC0000CC00
310
33CC0066CC0099CC00CCCC00FFCC3300CC3333CC3366CC3399CC33CCCC33FFCC6600CC6633CC6666CC6699CC66CCCC66FFCC9900CC9933CC9966CC9999CC99CCCC99FFCCCC00CCCC33CCCC66CCCC99CCCCCCCCCCFFCCFF00CCFF33CCFF66CCFF99CCFFCCCCFFFFFF0000FF0033FF0066FF0099FF00CCFF00FFFF3300FF3333
310
FF3366FF3399FF33CCFF33FFFF6600FF6633FF6666FF6699FF66CCFF66FFFF9900FF9933FF9966FF9999FF99CCFF99FFFFCC00FFCC33FFCC66FFCC99FFCCCCFFCCFFFFFF00FFFF33FFFF66FFFF99FFFFCCFFFFFF0000000D0D0D1A1A1A2828283535354343435050505D5D5D6B6B6B787878868686939393A1A1A1AEAEAEBB
310
BBBBC9C9C9D6D6D6E4E4E4F1F1F1FFFFFF000000000000000000000000000000000000000000000000000000000000AD4AB4E4000000954944415478DAEDD5410A83301005D0B9FF31E724B6351602A1450417FEF7565170F17F32B10A00000000000000000000E046DD1D1EBF832B7827FFA48FAC606CFCC81E57C12BF05C
310
40560523FB7219137F1AFF0EFA23F41FCF4F5A19F18F63BD78DDABBBE0E7371105EC872366D8230AA86FD27D31E6BF220B28052820B080E93E5C3D3DB880BE460100000000000000000070C20663A181DA370DBBD70000000049454E44AE426082
  0
ENDSEC
  0
EOF
