  0
SECTION
  2
HEADER
  9
$ACADVER
  1
AC1032
  9
$ACADMAINTVER
 90
      204
  9
$DWGCODEPAGE
  3
ANSI_1252
  9
$LASTSAVEDBY
  1
duda-
  9
$REQUIREDVERSIONS
160
                 0
  9
$INSBASE
 10
0.0
 20
0.0
 30
0.0
  9
$EXTMIN
 10
25180.25331588341
 20
-18980.31220038295
 30
0.0
  9
$EXTMAX
 10
31080.25331588346
 20
-6610.312200382892
 30
0.0
  9
$LIMMIN
 10
0.0
 20
0.0
  9
$LIMMAX
 10
12.0
 20
9.0
  9
$ORTHOMODE
 70
     0
  9
$REGENMODE
 70
     1
  9
$FILLMODE
 70
     1
  9
$QTEXTMODE
 70
     0
  9
$MIRRTEXT
 70
     0
  9
$LTSCALE
 40
1.0
  9
$ATTMODE
 70
     1
  9
$TEXTSIZE
 40
0.2
  9
$TRACEWID
 40
0.05
  9
$TEXTSTYLE
  7
Standard
  9
$CLAYER
  8
0
  9
$CELTYPE
  6
ByLayer
  9
$CECOLOR
 62
   256
  9
$CELTSCALE
 40
1.0
  9
$DISPSILH
 70
     0
  9
$DIMSCALE
 40
1.0
  9
$DIMASZ
 40
0.18
  9
$DIMEXO
 40
0.0625
  9
$DIMDLI
 40
0.38
  9
$DIMRND
 40
0.0
  9
$DIMDLE
 40
0.0
  9
$DIMEXE
 40
0.18
  9
$DIMTP
 40
0.0
  9
$DIMTM
 40
0.0
  9
$DIMTXT
 40
0.18
  9
$DIMCEN
 40
0.09
  9
$DIMTSZ
 40
0.0
  9
$DIMTOL
 70
     0
  9
$DIMLIM
 70
     0
  9
$DIMTIH
 70
     1
  9
$DIMTOH
 70
     1
  9
$DIMSE1
 70
     0
  9
$DIMSE2
 70
     0
  9
$DIMTAD
 70
     0
  9
$DIMZIN
 70
     0
  9
$DIMBLK
  1

  9
$DIMASO
 70
     1
  9
$DIMSHO
 70
     1
  9
$DIMPOST
  1

  9
$DIMAPOST
  1

  9
$DIMALT
 70
     0
  9
$DIMALTD
 70
     2
  9
$DIMALTF
 40
25.4
  9
$DIMLFAC
 40
1.0
  9
$DIMTOFL
 70
     0
  9
$DIMTVP
 40
0.0
  9
$DIMTIX
 70
     0
  9
$DIMSOXD
 70
     0
  9
$DIMSAH
 70
     0
  9
$DIMBLK1
  1

  9
$DIMBLK2
  1

  9
$DIMSTYLE
  2
Standard
  9
$DIMCLRD
 70
     0
  9
$DIMCLRE
 70
     0
  9
$DIMCLRT
 70
     0
  9
$DIMTFAC
 40
1.0
  9
$DIMGAP
 40
0.09
  9
$DIMJUST
 70
     0
  9
$DIMSD1
 70
     0
  9
$DIMSD2
 70
     0
  9
$DIMTOLJ
 70
     1
  9
$DIMTZIN
 70
     0
  9
$DIMALTZ
 70
     0
  9
$DIMALTTZ
 70
     0
  9
$DIMUPT
 70
     0
  9
$DIMDEC
 70
     4
  9
$DIMTDEC
 70
     4
  9
$DIMALTU
 70
     2
  9
$DIMALTTD
 70
     2
  9
$DIMTXSTY
  7
Standard
  9
$DIMAUNIT
 70
     0
  9
$DIMADEC
 70
     0
  9
$DIMALTRND
 40
0.0
  9
$DIMAZIN
 70
     0
  9
$DIMDSEP
 70
    46
  9
$DIMATFIT
 70
     3
  9
$DIMFRAC
 70
     0
  9
$DIMLDRBLK
  1

  9
$DIMLUNIT
 70
     2
  9
$DIMLWD
 70
    -2
  9
$DIMLWE
 70
    -2
  9
$DIMTMOVE
 70
     0
  9
$DIMFXL
 40
1.0
  9
$DIMFXLON
 70
     0
  9
$DIMJOGANG
 40
0.7853981633974483
  9
$DIMTFILL
 70
     0
  9
$DIMTFILLCLR
 70
     0
  9
$DIMARCSYM
 70
     0
  9
$DIMLTYPE
  6

  9
$DIMLTEX1
  6

  9
$DIMLTEX2
  6

  9
$DIMTXTDIRECTION
 70
     0
  9
$LUNITS
 70
     2
  9
$LUPREC
 70
     4
  9
$SKETCHINC
 40
0.1
  9
$FILLETRAD
 40
0.0
  9
$AUNITS
 70
     0
  9
$AUPREC
 70
     0
  9
$MENU
  1
.
  9
$ELEVATION
 40
0.0
  9
$PELEVATION
 40
0.0
  9
$THICKNESS
 40
0.0
  9
$LIMCHECK
 70
     0
  9
$CHAMFERA
 40
0.0
  9
$CHAMFERB
 40
0.0
  9
$CHAMFERC
 40
0.0
  9
$CHAMFERD
 40
0.0
  9
$SKPOLY
 70
     0
  9
$TDCREATE
 40
2460730.585046297
  9
$TDUCREATE
 40
2460730.710046297
  9
$TDUPDATE
 40
2460738.987187500
  9
$TDUUPDATE
 40
2460739.112187500
  9
$TDINDWG
 40
0.0275000000
  9
$TDUSRTIMER
 40
0.0275000000
  9
$USRTIMER
 70
     1
  9
$ANGBASE
 50
0.0
  9
$ANGDIR
 70
     0
  9
$PDMODE
 70
     0
  9
$PDSIZE
 40
0.0
  9
$PLINEWID
 40
0.0
  9
$SPLFRAME
 70
     0
  9
$SPLINETYPE
 70
     6
  9
$SPLINESEGS
 70
     8
  9
$HANDSEED
  5
261
  9
$SURFTAB1
 70
     6
  9
$SURFTAB2
 70
     6
  9
$SURFTYPE
 70
     6
  9
$SURFU
 70
     6
  9
$SURFV
 70
     6
  9
$UCSBASE
  2

  9
$UCSNAME
  2

  9
$UCSORG
 10
0.0
 20
0.0
 30
0.0
  9
$UCSXDIR
 10
1.0
 20
0.0
 30
0.0
  9
$UCSYDIR
 10
0.0
 20
1.0
 30
0.0
  9
$UCSORTHOREF
  2

  9
$UCSORTHOVIEW
 70
     0
  9
$UCSORGTOP
 10
0.0
 20
0.0
 30
0.0
  9
$UCSORGBOTTOM
 10
0.0
 20
0.0
 30
0.0
  9
$UCSORGLEFT
 10
0.0
 20
0.0
 30
0.0
  9
$UCSORGRIGHT
 10
0.0
 20
0.0
 30
0.0
  9
$UCSORGFRONT
 10
0.0
 20
0.0
 30
0.0
  9
$UCSORGBACK
 10
0.0
 20
0.0
 30
0.0
  9
$PUCSBASE
  2

  9
$PUCSNAME
  2

  9
$PUCSORG
 10
0.0
 20
0.0
 30
0.0
  9
$PUCSXDIR
 10
1.0
 20
0.0
 30
0.0
  9
$PUCSYDIR
 10
0.0
 20
1.0
 30
0.0
  9
$PUCSORTHOREF
  2

  9
$PUCSORTHOVIEW
 70
     0
  9
$PUCSORGTOP
 10
0.0
 20
0.0
 30
0.0
  9
$PUCSORGBOTTOM
 10
0.0
 20
0.0
 30
0.0
  9
$PUCSORGLEFT
 10
0.0
 20
0.0
 30
0.0
  9
$PUCSORGRIGHT
 10
0.0
 20
0.0
 30
0.0
  9
$PUCSORGFRONT
 10
0.0
 20
0.0
 30
0.0
  9
$PUCSORGBACK
 10
0.0
 20
0.0
 30
0.0
  9
$USERI1
 70
     0
  9
$USERI2
 70
     0
  9
$USERI3
 70
     0
  9
$USERI4
 70
     0
  9
$USERI5
 70
     0
  9
$USERR1
 40
0.0
  9
$USERR2
 40
0.0
  9
$USERR3
 40
0.0
  9
$USERR4
 40
0.0
  9
$USERR5
 40
0.0
  9
$WORLDVIEW
 70
     1
  9
$SHADEDGE
 70
     3
  9
$SHADEDIF
 70
    70
  9
$TILEMODE
 70
     1
  9
$MAXACTVP
 70
    64
  9
$PINSBASE
 10
0.0
 20
0.0
 30
0.0
  9
$PLIMCHECK
 70
     0
  9
$PEXTMIN
 10
64.27901684485153
 20
59.47287840171589
 30
-0.0015258207003583
  9
$PEXTMAX
 10
274.3012221009852
 20
356.5108803466415
 30
0.0000000349246037
  9
$PLIMMIN
 10
64.27901684485153
 20
59.47287840171589
  9
$PLIMMAX
 10
484.5984757423225
 20
356.6684553999278
  9
$UNITMODE
 70
     0
  9
$VISRETAIN
 70
     1
  9
$PLINEGEN
 70
     0
  9
$PSLTSCALE
 70
     0
  9
$TREEDEPTH
 70
  3020
  9
$CMLSTYLE
  2
Standard
  9
$CMLJUST
 70
     0
  9
$CMLSCALE
 40
1.0
  9
$PROXYGRAPHICS
 70
     1
  9
$MEASUREMENT
 70
     1
  9
$CELWEIGHT
370
    -1
  9
$ENDCAPS
280
     0
  9
$JOINSTYLE
280
     0
  9
$LWDISPLAY
290
     0
  9
$INSUNITS
 70
     4
  9
$HYPERLINKBASE
  1

  9
$STYLESHEET
  1

  9
$XEDIT
290
     1
  9
$CEPSNTYPE
380
     0
  9
$PSTYLEMODE
290
     1
  9
$FINGERPRINTGUID
  2
{21422F38-DBE0-824C-B17E-5541D7C7E93C}
  9
$VERSIONGUID
  2
{62CE279C-CFCF-6041-8B5E-A892C4343DB3}
  9
$EXTNAMES
290
     1
  9
$PSVPSCALE
 40
0.0
  9
$OLESTARTUP
290
     0
  9
$SORTENTS
280
   127
  9
$INDEXCTL
280
     0
  9
$HIDETEXT
280
     1
  9
$XCLIPFRAME
280
     2
  9
$HALOGAP
280
     0
  9
$OBSCOLOR
 70
   257
  9
$OBSLTYPE
280
     0
  9
$INTERSECTIONDISPLAY
280
     0
  9
$INTERSECTIONCOLOR
 70
   257
  9
$DIMASSOC
280
     2
  9
$PROJECTNAME
  1

  9
$CAMERADISPLAY
290
     0
  9
$LENSLENGTH
 40
50.0
  9
$CAMERAHEIGHT
 40
0.0
  9
$STEPSPERSEC
 40
2.0
  9
$STEPSIZE
 40
6.0
  9
$3DDWFPREC
 40
2.0
  9
$PSOLWIDTH
 40
0.25
  9
$PSOLHEIGHT
 40
4.0
  9
$LOFTANG1
 40
1.570796326794896
  9
$LOFTANG2
 40
1.570796326794896
  9
$LOFTMAG1
 40
0.0
  9
$LOFTMAG2
 40
0.0
  9
$LOFTPARAM
 70
     7
  9
$LOFTNORMALS
280
     1
  9
$LATITUDE
 40
0.0
  9
$LONGITUDE
 40
0.0
  9
$NORTHDIRECTION
 40
0.0
  9
$TIMEZONE
 70
     0
  9
$LIGHTGLYPHDISPLAY
280
     1
  9
$TILEMODELIGHTSYNCH
280
     1
  9
$CMATERIAL
347
11
  9
$SOLIDHIST
280
     0
  9
$SHOWHIST
280
     1
  9
$DWFFRAME
280
     2
  9
$DGNFRAME
280
     0
  9
$REALWORLDSCALE
290
     1
  9
$INTERFERECOLOR
 62
     1
  9
$INTERFEREOBJVS
345
33
  9
$INTERFEREVPVS
346
30
  9
$CSHADOW
280
     0
  9
$SHADOWPLANELOCATION
 40
0.0
  0
ENDSEC
  0
SECTION
  2
CLASSES
  0
CLASS
  1
ACDBDICTIONARYWDFLT
  2
AcDbDictionaryWithDefault
  3
ObjectDBX Classes
 90
        0
 91
        1
280
     0
281
     0
  0
CLASS
  1
MATERIAL
  2
AcDbMaterial
  3
ObjectDBX Classes
 90
     1153
 91
        3
280
     0
281
     0
  0
CLASS
  1
VISUALSTYLE
  2
AcDbVisualStyle
  3
ObjectDBX Classes
 90
     4095
 91
       24
280
     0
281
     0
  0
CLASS
  1
SCALE
  2
AcDbScale
  3
ObjectDBX Classes
 90
     1153
 91
       17
280
     0
281
     0
  0
CLASS
  1
TABLESTYLE
  2
AcDbTableStyle
  3
ObjectDBX Classes
 90
     4095
 91
        1
280
     0
281
     0
  0
CLASS
  1
MLEADERSTYLE
  2
AcDbMLeaderStyle
  3
ACDB_MLEADERSTYLE_CLASS
 90
     4095
 91
        1
280
     0
281
     0
  0
CLASS
  1
ACDBSECTIONVIEWSTYLE
  2
AcDbSectionViewStyle
  3
ObjectDBX Classes
 90
     1025
 91
        2
280
     0
281
     0
  0
CLASS
  1
ACDBDETAILVIEWSTYLE
  2
AcDbDetailViewStyle
  3
ObjectDBX Classes
 90
     1025
 91
        2
280
     0
281
     0
  0
CLASS
  1
RASTERVARIABLES
  2
AcDbRasterVariables
  3
ISM
 90
        0
 91
        1
280
     0
281
     0
  0
CLASS
  1
DICTIONARYVAR
  2
AcDbDictionaryVar
  3
ObjectDBX Classes
 90
        0
 91
        5
280
     0
281
     0
  0
CLASS
  1
SORTENTSTABLE
  2
AcDbSortentsTable
  3
ObjectDBX Classes
 90
        0
 91
        1
280
     0
281
     0
  0
CLASS
  1
SUN
  2
AcDbSun
  3
SCENEOE
 90
     1153
 91
        1
280
     0
281
     0
  0
CLASS
  1
RAPIDRTRENDERSETTINGS
  2
AcDbRapidRTRenderSettings
  3
ObjectDBX Classes
 90
     1024
 91
        7
280
     0
281
     0
  0
CLASS
  1
CELLSTYLEMAP
  2
AcDbCellStyleMap
  3
ObjectDBX Classes
 90
     1152
 91
        2
280
     0
281
     0
  0
ENDSEC
  0
SECTION
  2
TABLES
  0
TABLE
  2
VPORT
  5
8
330
0
100
AcDbSymbolTable
 70
     1
  0
VPORT
  5
57
330
8
100
AcDbSymbolTableRecord
100
AcDbViewportTableRecord
  2
*Active
 70
     0
 10
0.0
 20
0.0
 11
1.0
 21
1.0
 12
27494.10554902562
 22
-18118.32485321349
 13
0.0
 23
0.0
 14
1.0
 24
1.0
 15
0.0
 25
0.0
 16
0.0
 26
0.0
 36
1.0
 17
0.0
 27
0.0
 37
0.0
 40
19881.46080867331
 41
2.531208499335989
 42
50.0
 43
0.0
 44
0.0
 50
0.0
 51
0.0
 71
     0
 72
  1000
 73
     1
 74
     1
 75
     0
 76
     0
 77
     0
 78
     0
281
     0
 65
     1
110
0.0
120
0.0
130
0.0
111
1.0
121
0.0
131
0.0
112
0.0
122
1.0
132
0.0
 79
     0
146
0.0
348
2F
 60
     3
 61
     5
292
     1
282
     1
141
0.0
142
0.0
 63
   250
421
  3355443
361
1B8
1001
ACAD_NAV_VCDISPLAY
1070
     3
  0
ENDTAB
  0
TABLE
  2
LTYPE
  5
5
330
0
100
AcDbSymbolTable
 70
     1
  0
LTYPE
  5
5B
330
5
100
AcDbSymbolTableRecord
100
AcDbLinetypeTableRecord
  2
ByBlock
 70
     0
  3

 72
    65
 73
     0
 40
0.0
  0
LTYPE
  5
5C
330
5
100
AcDbSymbolTableRecord
100
AcDbLinetypeTableRecord
  2
ByLayer
 70
     0
  3

 72
    65
 73
     0
 40
0.0
  0
LTYPE
  5
5D
330
5
100
AcDbSymbolTableRecord
100
AcDbLinetypeTableRecord
  2
Continuous
 70
     0
  3
Solid line
 72
    65
 73
     0
 40
0.0
  0
ENDTAB
  0
TABLE
  2
LAYER
  5
2
102
{ACAD_XDICTIONARY
360
1CD
102
}
330
0
100
AcDbSymbolTable
 70
     7
  0
LAYER
  5
54
330
2
100
AcDbSymbolTableRecord
100
AcDbLayerTableRecord
  2
0
 70
     0
 62
   250
  6
Continuous
370
    25
390
F
347
21
348
0
  0
LAYER
  5
115
330
2
100
AcDbSymbolTableRecord
100
AcDbLayerTableRecord
  2
A-JAN-___-___-EXI
 70
     0
 62
   250
  6
Continuous
370
    25
390
F
347
21
348
0
  0
LAYER
  5
122
330
2
100
AcDbSymbolTableRecord
100
AcDbLayerTableRecord
  2
A-ALV-___-___-EXI
 70
     0
 62
   250
  6
Continuous
370
    35
390
F
347
21
348
0
  0
LAYER
  5
16C
330
2
100
AcDbSymbolTableRecord
100
AcDbLayerTableRecord
  2
A-POR-___-___-EXI
 70
     0
 62
   250
  6
Continuous
370
    25
390
F
347
21
348
0
  0
LAYER
  5
1A1
330
2
100
AcDbSymbolTableRecord
100
AcDbLayerTableRecord
  2
A-ESC-___-___-EXI
 70
     0
 62
   250
  6
Continuous
370
    25
390
F
347
21
348
0
  0
LAYER
  5
1A7
330
2
100
AcDbSymbolTableRecord
100
AcDbLayerTableRecord
  2
A-PIL-___-___-EXI
 70
     0
 62
   250
  6
Continuous
370
    25
390
F
347
21
348
0
  0
LAYER
  5
1A9
330
2
100
AcDbSymbolTableRecord
100
AcDbLayerTableRecord
  2
A-BAS-___-___-EXI
 70
     0
 62
   250
  6
Continuous
370
    25
390
F
347
21
348
0
  0
ENDTAB
  0
TABLE
  2
STYLE
  5
3
330
0
100
AcDbSymbolTable
 70
     2
  0
STYLE
  5
55
330
3
100
AcDbSymbolTableRecord
100
AcDbTextStyleTableRecord
  2
Standard
 70
     0
 40
0.0
 41
1.0
 50
0.0
 71
     0
 42
0.2
  3
txt
  4

  0
STYLE
  5
5A
330
3
100
AcDbSymbolTableRecord
100
AcDbTextStyleTableRecord
  2
Annotative
 70
     0
 40
0.0
 41
1.0
 50
0.0
 71
     0
 42
0.2
  3
txt
  4

1001
AcadAnnotative
1000
AnnotativeData
1002
{
1070
     1
1070
     1
1002
}
  0
ENDTAB
  0
TABLE
  2
VIEW
  5
6
330
0
100
AcDbSymbolTable
 70
     1
  0
ENDTAB
  0
TABLE
  2
UCS
  5
7
330
0
100
AcDbSymbolTable
 70
     0
  0
ENDTAB
  0
TABLE
  2
APPID
  5
9
330
0
100
AcDbSymbolTable
 70
     6
  0
APPID
  5
56
330
9
100
AcDbSymbolTableRecord
100
AcDbRegAppTableRecord
  2
ACAD
 70
     0
  0
APPID
  5
5E
330
9
100
AcDbSymbolTableRecord
100
AcDbRegAppTableRecord
  2
AcadAnnotative
 70
     0
  0
APPID
  5
78
330
9
100
AcDbSymbolTableRecord
100
AcDbRegAppTableRecord
  2
REVIT
 70
     0
  0
APPID
  5
1C8
330
9
100
AcDbSymbolTableRecord
100
AcDbRegAppTableRecord
  2
ACAD_PSEXT
 70
     0
  0
APPID
  5
1F6
330
9
100
AcDbSymbolTableRecord
100
AcDbRegAppTableRecord
  2
ACAD_NAV_VCDISPLAY
 70
     0
  0
APPID
  5
23F
330
9
100
AcDbSymbolTableRecord
100
AcDbRegAppTableRecord
  2
ACAD_EXEMPT_FROM_CAD_STANDARDS
 70
     0
  0
ENDTAB
  0
TABLE
  2
DIMSTYLE
  5
A
330
0
100
AcDbSymbolTable
 70
     2
100
AcDbDimStyleTable
 71
     0
  0
DIMSTYLE
105
58
330
A
100
AcDbSymbolTableRecord
100
AcDbDimStyleTableRecord
  2
Standard
 70
     0
340
55
  0
DIMSTYLE
105
59
330
A
100
AcDbSymbolTableRecord
100
AcDbDimStyleTableRecord
  2
Annotative
 70
     0
340
55
1001
AcadAnnotative
1000
AnnotativeData
1002
{
1070
     1
1070
     1
1002
}
  0
ENDTAB
  0
TABLE
  2
BLOCK_RECORD
  5
1
330
0
100
AcDbSymbolTable
 70
     5
  0
BLOCK_RECORD
  5
70
102
{ACAD_XDICTIONARY
360
1B6
102
}
330
1
100
AcDbSymbolTableRecord
100
AcDbBlockTableRecord
  2
*Model_Space
340
73
 70
     0
280
     1
281
     0
  0
BLOCK_RECORD
  5
6C
330
1
100
AcDbSymbolTableRecord
100
AcDbBlockTableRecord
  2
*Paper_Space
340
6F
 70
     0
280
     1
281
     0
  0
BLOCK_RECORD
  5
114
330
1
100
AcDbSymbolTableRecord
100
AcDbBlockTableRecord
  2
porta multiplas_original - Simples - 70 cm-22832399-Planta baixa - Sótão_
340
0
 70
     0
280
     1
281
     0
  0
BLOCK_RECORD
  5
127
330
1
100
AcDbSymbolTableRecord
100
AcDbBlockTableRecord
  2
porta multiplas_original - Simples - 90 cm-22832547-Planta baixa - Sótão_
340
0
 70
     0
280
     1
281
     0
  0
BLOCK_RECORD
  5
138
330
1
100
AcDbSymbolTableRecord
100
AcDbBlockTableRecord
  2
porta multiplas_original - Simples - 90 cm-22832546-Planta baixa - Sótão_
340
0
 70
     0
280
     1
281
     0
  0
BLOCK_RECORD
  5
149
330
1
100
AcDbSymbolTableRecord
100
AcDbBlockTableRecord
  2
porta multiplas_original - Simples - 80 cm-22832529-Planta baixa - Sótão_
340
0
 70
     0
280
     1
281
     0
  0
BLOCK_RECORD
  5
1A8
330
1
100
AcDbSymbolTableRecord
100
AcDbBlockTableRecord
  2
SVG - A4-22877114-Não nomeada
340
0
102
{BLKREFS
331
1B0
102
}
 70
     0
280
     1
281
     0
  0
ENDTAB
  0
ENDSEC
  0
SECTION
  2
BLOCKS
  0
BLOCK
  5
71
330
70
100
AcDbEntity
  8
0
100
AcDbBlockBegin
  2
*Model_Space
 70
     0
 10
0.0
 20
0.0
 30
0.0
  3
*Model_Space
  1

  0
ENDBLK
  5
72
330
70
100
AcDbEntity
  8
0
100
AcDbBlockEnd
  0
BLOCK
  5
6D
330
6C
100
AcDbEntity
 67
     1
  8
0
100
AcDbBlockBegin
  2
*Paper_Space
 70
     0
 10
0.0
 20
0.0
 30
0.0
  3
*Paper_Space
  1

  0
ENDBLK
  5
6E
330
6C
100
AcDbEntity
 67
     1
  8
0
100
AcDbBlockEnd
  0
BLOCK
  5
124
330
114
100
AcDbEntity
  8
0
100
AcDbBlockBegin
  2
porta multiplas_original - Simples - 70 cm-22832399-Planta baixa - Sótão_
 70
     0
 10
0.0
 20
0.0
 30
0.0
  3
porta multiplas_original - Simples - 70 cm-22832399-Planta baixa - Sótão_
  1

  0
LINE
  5
116
330
114
100
AcDbEntity
  8
A-JAN-___-___-EXI
100
AcDbLine
 10
379.9999999999916
 20
-74.99999999999866
 30
0.0
 11
379.9999999999916
 21
74.99999999998455
 31
0.0
1001
REVIT
1002
{
1070
     1
1000
22832031
1002
}
1002
{
1070
     5
1000
22369135
1002
}
  0
LINE
  5
117
330
114
100
AcDbEntity
  8
A-JAN-___-___-EXI
100
AcDbLine
 10
379.9999999999916
 20
74.99999999998455
 30
0.0
 11
349.9999999999897
 21
74.99999999998451
 31
0.0
1001
REVIT
1002
{
1070
     1
1000
22832031
1002
}
1002
{
1070
     5
1000
22369135
1002
}
  0
LINE
  5
118
330
114
100
AcDbEntity
  8
A-JAN-___-___-EXI
100
AcDbLine
 10
349.9999999999897
 20
74.99999999998451
 30
0.0
 11
349.9999999999897
 21
-74.99999999999872
 31
0.0
1001
REVIT
1002
{
1070
     1
1000
22832031
1002
}
1002
{
1070
     5
1000
22369135
1002
}
  0
LINE
  5
119
330
114
100
AcDbEntity
  8
A-JAN-___-___-EXI
100
AcDbLine
 10
349.9999999999897
 20
-74.99999999999872
 30
0.0
 11
379.9999999999916
 21
-74.99999999999866
 31
0.0
1001
REVIT
1002
{
1070
     1
1000
22832031
1002
}
1002
{
1070
     5
1000
22369135
1002
}
  0
LINE
  5
11A
330
114
100
AcDbEntity
  8
A-JAN-___-___-EXI
100
AcDbLine
 10
-380.0000000000089
 20
-75.00000000000001
 30
0.0
 11
-350.0000000000071
 21
-74.99999999999996
 31
0.0
1001
REVIT
1002
{
1070
     1
1000
22832031
1002
}
1002
{
1070
     5
1000
22369135
1002
}
  0
LINE
  5
11B
330
114
100
AcDbEntity
  8
A-JAN-___-___-EXI
100
AcDbLine
 10
-350.0000000000071
 20
-74.99999999999996
 30
0.0
 11
-350.0000000000071
 21
74.9999999999876
 31
0.0
1001
REVIT
1002
{
1070
     1
1000
22832031
1002
}
1002
{
1070
     5
1000
22369135
1002
}
  0
LINE
  5
11C
330
114
100
AcDbEntity
  8
A-JAN-___-___-EXI
100
AcDbLine
 10
-350.0000000000071
 20
74.9999999999876
 30
0.0
 11
-380.0000000000089
 21
74.99999999998753
 31
0.0
1001
REVIT
1002
{
1070
     1
1000
22832031
1002
}
1002
{
1070
     5
1000
22369135
1002
}
  0
LINE
  5
11D
330
114
100
AcDbEntity
  8
A-JAN-___-___-EXI
100
AcDbLine
 10
-380.0000000000089
 20
74.99999999998753
 30
0.0
 11
-380.0000000000089
 21
-75.00000000000001
 31
0.0
1001
REVIT
1002
{
1070
     1
1000
22832031
1002
}
1002
{
1070
     5
1000
22369135
1002
}
  0
LINE
  5
11E
330
114
100
AcDbEntity
  8
A-JAN-___-___-EXI
100
AcDbLine
 10
-318.0000000000057
 20
770.9999999999876
 30
0.0
 11
-348.0000000000075
 21
770.9999999999873
 31
0.0
1001
REVIT
1002
{
1070
     1
1000
22832031
1002
}
1002
{
1070
     5
1000
22369135
1002
}
  0
LINE
  5
11F
330
114
100
AcDbEntity
  8
A-JAN-___-___-EXI
100
AcDbLine
 10
-348.0000000000075
 20
770.9999999999873
 30
0.0
 11
-348.0000000000075
 21
74.99999999998543
 31
0.0
1001
REVIT
1002
{
1070
     1
1000
22832031
1002
}
1002
{
1070
     5
1000
22369135
1002
}
  0
LINE
  5
120
330
114
100
AcDbEntity
  8
A-JAN-___-___-EXI
100
AcDbLine
 10
-348.0000000000075
 20
74.99999999998543
 30
0.0
 11
-318.0000000000057
 21
74.99999999998549
 31
0.0
1001
REVIT
1002
{
1070
     1
1000
22832031
1002
}
1002
{
1070
     5
1000
22369135
1002
}
  0
LINE
  5
121
330
114
100
AcDbEntity
  8
A-JAN-___-___-EXI
100
AcDbLine
 10
-318.0000000000057
 20
74.99999999998549
 30
0.0
 11
-318.0000000000057
 21
770.9999999999876
 31
0.0
1001
REVIT
1002
{
1070
     1
1000
22832031
1002
}
1002
{
1070
     5
1000
22369135
1002
}
  0
ARC
  5
123
330
114
100
AcDbEntity
  8
A-ALV-___-___-EXI
100
AcDbCircle
 10
-348.0000000000075
 20
74.99999999998543
 30
0.0
 40
696.0000000000024
100
AcDbArc
 50
0.0000000000001399
 51
90.00000000000014
1001
REVIT
1002
{
1070
     1
1000
22832031
1002
}
1002
{
1070
     5
1000
22369135
1002
}
1002
{
1070
     3
1000
-2000027
1002
}
  0
ENDBLK
  5
125
330
114
100
AcDbEntity
  8
0
100
AcDbBlockEnd
  0
BLOCK
  5
135
330
127
100
AcDbEntity
  8
0
100
AcDbBlockBegin
  2
porta multiplas_original - Simples - 90 cm-22832547-Planta baixa - Sótão_
 70
     0
 10
0.0
 20
0.0
 30
0.0
  3
porta multiplas_original - Simples - 90 cm-22832547-Planta baixa - Sótão_
  1

  0
LINE
  5
128
330
127
100
AcDbEntity
  8
A-JAN-___-___-EXI
100
AcDbLine
 10
449.9999999999929
 20
75.000000000002
 30
0.0
 11
479.9999999999948
 21
75.00000000000206
 31
0.0
1001
REVIT
1002
{
1070
     1
1000
22832142
1002
}
1002
{
1070
     5
1000
22369137
1002
}
  0
LINE
  5
129
330
127
100
AcDbEntity
  8
A-JAN-___-___-EXI
100
AcDbLine
 10
449.9999999999929
 20
-74.99999999998121
 30
0.0
 11
449.9999999999929
 21
75.000000000002
 31
0.0
1001
REVIT
1002
{
1070
     1
1000
22832142
1002
}
1002
{
1070
     5
1000
22369137
1002
}
  0
LINE
  5
12A
330
127
100
AcDbEntity
  8
A-JAN-___-___-EXI
100
AcDbLine
 10
479.9999999999948
 20
-74.99999999998117
 30
0.0
 11
449.9999999999929
 21
-74.99999999998121
 31
0.0
1001
REVIT
1002
{
1070
     1
1000
22832142
1002
}
1002
{
1070
     5
1000
22369137
1002
}
  0
LINE
  5
12B
330
127
100
AcDbEntity
  8
A-JAN-___-___-EXI
100
AcDbLine
 10
479.9999999999948
 20
75.00000000000206
 30
0.0
 11
479.9999999999948
 21
-74.99999999998117
 31
0.0
1001
REVIT
1002
{
1070
     1
1000
22832142
1002
}
1002
{
1070
     5
1000
22369137
1002
}
  0
LINE
  5
12C
330
127
100
AcDbEntity
  8
A-JAN-___-___-EXI
100
AcDbLine
 10
-480.0000000000035
 20
-74.9999999999872
 30
0.0
 11
-480.0000000000035
 21
75.00000000000035
 31
0.0
1001
REVIT
1002
{
1070
     1
1000
22832142
1002
}
1002
{
1070
     5
1000
22369137
1002
}
  0
LINE
  5
12D
330
127
100
AcDbEntity
  8
A-JAN-___-___-EXI
100
AcDbLine
 10
-450.0000000000103
 20
-74.99999999998713
 30
0.0
 11
-480.0000000000035
 21
-74.9999999999872
 31
0.0
1001
REVIT
1002
{
1070
     1
1000
22832142
1002
}
1002
{
1070
     5
1000
22369137
1002
}
  0
LINE
  5
12E
330
127
100
AcDbEntity
  8
A-JAN-___-___-EXI
100
AcDbLine
 10
-450.0000000000103
 20
75.00000000000041
 30
0.0
 11
-450.0000000000103
 21
-74.99999999998713
 31
0.0
1001
REVIT
1002
{
1070
     1
1000
22832142
1002
}
1002
{
1070
     5
1000
22369137
1002
}
  0
LINE
  5
12F
330
127
100
AcDbEntity
  8
A-JAN-___-___-EXI
100
AcDbLine
 10
-480.0000000000035
 20
75.00000000000035
 30
0.0
 11
-450.0000000000103
 21
75.00000000000041
 31
0.0
1001
REVIT
1002
{
1070
     1
1000
22832142
1002
}
1002
{
1070
     5
1000
22369137
1002
}
  0
LINE
  5
130
330
127
100
AcDbEntity
  8
A-JAN-___-___-EXI
100
AcDbLine
 10
-418.0000000000089
 20
-74.99999999998708
 30
0.0
 11
-418.0000000000089
 21
-970.9999999999871
 31
0.0
1001
REVIT
1002
{
1070
     1
1000
22832142
1002
}
1002
{
1070
     5
1000
22369137
1002
}
  0
LINE
  5
131
330
127
100
AcDbEntity
  8
A-JAN-___-___-EXI
100
AcDbLine
 10
-448.0000000000107
 20
-74.99999999998713
 30
0.0
 11
-418.0000000000089
 21
-74.99999999998708
 31
0.0
1001
REVIT
1002
{
1070
     1
1000
22832142
1002
}
1002
{
1070
     5
1000
22369137
1002
}
  0
LINE
  5
132
330
127
100
AcDbEntity
  8
A-JAN-___-___-EXI
100
AcDbLine
 10
-448.0000000000107
 20
-970.9999999999871
 30
0.0
 11
-448.0000000000107
 21
-74.99999999998713
 31
0.0
1001
REVIT
1002
{
1070
     1
1000
22832142
1002
}
1002
{
1070
     5
1000
22369137
1002
}
  0
LINE
  5
133
330
127
100
AcDbEntity
  8
A-JAN-___-___-EXI
100
AcDbLine
 10
-418.0000000000089
 20
-970.9999999999871
 30
0.0
 11
-448.0000000000107
 21
-970.9999999999871
 31
0.0
1001
REVIT
1002
{
1070
     1
1000
22832142
1002
}
1002
{
1070
     5
1000
22369137
1002
}
  0
ARC
  5
134
330
127
100
AcDbEntity
  8
A-ALV-___-___-EXI
100
AcDbCircle
 10
-448.0000000000107
 20
-74.99999999998713
 30
0.0
 40
896.0000000000041
100
AcDbArc
 50
269.9999999999997
 51
0.0000000000000302
1001
REVIT
1002
{
1070
     1
1000
22832142
1002
}
1002
{
1070
     5
1000
22369137
1002
}
1002
{
1070
     3
1000
-2000027
1002
}
  0
ENDBLK
  5
136
330
127
100
AcDbEntity
  8
0
100
AcDbBlockEnd
  0
BLOCK
  5
146
330
138
100
AcDbEntity
  8
0
100
AcDbBlockBegin
  2
porta multiplas_original - Simples - 90 cm-22832546-Planta baixa - Sótão_
 70
     0
 10
0.0
 20
0.0
 30
0.0
  3
porta multiplas_original - Simples - 90 cm-22832546-Planta baixa - Sótão_
  1

  0
LINE
  5
139
330
138
100
AcDbEntity
  8
A-JAN-___-___-EXI
100
AcDbLine
 10
479.9999999999948
 20
-74.99999999999849
 30
0.0
 11
479.9999999999948
 21
74.99999999998474
 31
0.0
1001
REVIT
1002
{
1070
     1
1000
22832186
1002
}
1002
{
1070
     5
1000
22369137
1002
}
  0
LINE
  5
13A
330
138
100
AcDbEntity
  8
A-JAN-___-___-EXI
100
AcDbLine
 10
479.9999999999948
 20
74.99999999998474
 30
0.0
 11
449.9999999999929
 21
74.99999999998468
 31
0.0
1001
REVIT
1002
{
1070
     1
1000
22832186
1002
}
1002
{
1070
     5
1000
22369137
1002
}
  0
LINE
  5
13B
330
138
100
AcDbEntity
  8
A-JAN-___-___-EXI
100
AcDbLine
 10
449.9999999999929
 20
74.99999999998468
 30
0.0
 11
449.9999999999929
 21
-74.99999999999854
 31
0.0
1001
REVIT
1002
{
1070
     1
1000
22832186
1002
}
1002
{
1070
     5
1000
22369137
1002
}
  0
LINE
  5
13C
330
138
100
AcDbEntity
  8
A-JAN-___-___-EXI
100
AcDbLine
 10
449.9999999999929
 20
-74.99999999999854
 30
0.0
 11
479.9999999999948
 21
-74.99999999999849
 31
0.0
1001
REVIT
1002
{
1070
     1
1000
22832186
1002
}
1002
{
1070
     5
1000
22369137
1002
}
  0
LINE
  5
13D
330
138
100
AcDbEntity
  8
A-JAN-___-___-EXI
100
AcDbLine
 10
-480.0000000000035
 20
-75.00000000000018
 30
0.0
 11
-450.0000000000103
 21
-75.00000000000014
 31
0.0
1001
REVIT
1002
{
1070
     1
1000
22832186
1002
}
1002
{
1070
     5
1000
22369137
1002
}
  0
LINE
  5
13E
330
138
100
AcDbEntity
  8
A-JAN-___-___-EXI
100
AcDbLine
 10
-450.0000000000103
 20
-75.00000000000014
 30
0.0
 11
-450.0000000000103
 21
74.99999999998742
 31
0.0
1001
REVIT
1002
{
1070
     1
1000
22832186
1002
}
1002
{
1070
     5
1000
22369137
1002
}
  0
LINE
  5
13F
330
138
100
AcDbEntity
  8
A-JAN-___-___-EXI
100
AcDbLine
 10
-450.0000000000103
 20
74.99999999998742
 30
0.0
 11
-480.0000000000035
 21
74.99999999998737
 31
0.0
1001
REVIT
1002
{
1070
     1
1000
22832186
1002
}
1002
{
1070
     5
1000
22369137
1002
}
  0
LINE
  5
140
330
138
100
AcDbEntity
  8
A-JAN-___-___-EXI
100
AcDbLine
 10
-480.0000000000035
 20
74.99999999998737
 30
0.0
 11
-480.0000000000035
 21
-75.00000000000018
 31
0.0
1001
REVIT
1002
{
1070
     1
1000
22832186
1002
}
1002
{
1070
     5
1000
22369137
1002
}
  0
LINE
  5
141
330
138
100
AcDbEntity
  8
A-JAN-___-___-EXI
100
AcDbLine
 10
-418.0000000000089
 20
970.9999999999872
 30
0.0
 11
-448.0000000000107
 21
970.9999999999872
 31
0.0
1001
REVIT
1002
{
1070
     1
1000
22832186
1002
}
1002
{
1070
     5
1000
22369137
1002
}
  0
LINE
  5
142
330
138
100
AcDbEntity
  8
A-JAN-___-___-EXI
100
AcDbLine
 10
-448.0000000000107
 20
970.9999999999872
 30
0.0
 11
-448.0000000000107
 21
74.99999999998742
 31
0.0
1001
REVIT
1002
{
1070
     1
1000
22832186
1002
}
1002
{
1070
     5
1000
22369137
1002
}
  0
LINE
  5
143
330
138
100
AcDbEntity
  8
A-JAN-___-___-EXI
100
AcDbLine
 10
-448.0000000000107
 20
74.99999999998742
 30
0.0
 11
-418.0000000000089
 21
74.99999999998748
 31
0.0
1001
REVIT
1002
{
1070
     1
1000
22832186
1002
}
1002
{
1070
     5
1000
22369137
1002
}
  0
LINE
  5
144
330
138
100
AcDbEntity
  8
A-JAN-___-___-EXI
100
AcDbLine
 10
-418.0000000000089
 20
74.99999999998748
 30
0.0
 11
-418.0000000000089
 21
970.9999999999872
 31
0.0
1001
REVIT
1002
{
1070
     1
1000
22832186
1002
}
1002
{
1070
     5
1000
22369137
1002
}
  0
ARC
  5
145
330
138
100
AcDbEntity
  8
A-ALV-___-___-EXI
100
AcDbCircle
 10
-448.0000000000107
 20
74.99999999998742
 30
0.0
 40
896.0000000000041
100
AcDbArc
 50
0.0000000000000302
 51
90.00000000000003
1001
REVIT
1002
{
1070
     1
1000
22832186
1002
}
1002
{
1070
     5
1000
22369137
1002
}
1002
{
1070
     3
1000
-2000027
1002
}
  0
ENDBLK
  5
147
330
138
100
AcDbEntity
  8
0
100
AcDbBlockEnd
  0
BLOCK
  5
157
330
149
100
AcDbEntity
  8
0
100
AcDbBlockBegin
  2
porta multiplas_original - Simples - 80 cm-22832529-Planta baixa - Sótão_
 70
     0
 10
0.0
 20
0.0
 30
0.0
  3
porta multiplas_original - Simples - 80 cm-22832529-Planta baixa - Sótão_
  1

  0
LINE
  5
14A
330
149
100
AcDbEntity
  8
A-JAN-___-___-EXI
100
AcDbLine
 10
-430.0000000000061
 20
-75.0000000000001
 30
0.0
 11
-400.0000000000043
 21
-75.00000000000004
 31
0.0
1001
REVIT
1002
{
1070
     1
1000
22832210
1002
}
1002
{
1070
     5
1000
22369145
1002
}
  0
LINE
  5
14B
330
149
100
AcDbEntity
  8
A-JAN-___-___-EXI
100
AcDbLine
 10
-400.0000000000043
 20
-75.00000000000004
 30
0.0
 11
-400.0000000000043
 21
74.99999999998751
 31
0.0
1001
REVIT
1002
{
1070
     1
1000
22832210
1002
}
1002
{
1070
     5
1000
22369145
1002
}
  0
LINE
  5
14C
330
149
100
AcDbEntity
  8
A-JAN-___-___-EXI
100
AcDbLine
 10
-400.0000000000043
 20
74.99999999998751
 30
0.0
 11
-430.0000000000061
 21
74.99999999998745
 31
0.0
1001
REVIT
1002
{
1070
     1
1000
22832210
1002
}
1002
{
1070
     5
1000
22369145
1002
}
  0
LINE
  5
14D
330
149
100
AcDbEntity
  8
A-JAN-___-___-EXI
100
AcDbLine
 10
-430.0000000000061
 20
74.99999999998745
 30
0.0
 11
-430.0000000000061
 21
-75.0000000000001
 31
0.0
1001
REVIT
1002
{
1070
     1
1000
22832210
1002
}
1002
{
1070
     5
1000
22369145
1002
}
  0
LINE
  5
14E
330
149
100
AcDbEntity
  8
A-JAN-___-___-EXI
100
AcDbLine
 10
429.9999999999888
 20
-74.99999999999857
 30
0.0
 11
429.9999999999888
 21
74.99999999998465
 31
0.0
1001
REVIT
1002
{
1070
     1
1000
22832210
1002
}
1002
{
1070
     5
1000
22369145
1002
}
  0
LINE
  5
14F
330
149
100
AcDbEntity
  8
A-JAN-___-___-EXI
100
AcDbLine
 10
429.9999999999888
 20
74.99999999998465
 30
0.0
 11
399.9999999999957
 21
74.99999999998459
 31
0.0
1001
REVIT
1002
{
1070
     1
1000
22832210
1002
}
1002
{
1070
     5
1000
22369145
1002
}
  0
LINE
  5
150
330
149
100
AcDbEntity
  8
A-JAN-___-___-EXI
100
AcDbLine
 10
399.9999999999957
 20
74.99999999998459
 30
0.0
 11
399.9999999999957
 21
-74.99999999999862
 31
0.0
1001
REVIT
1002
{
1070
     1
1000
22832210
1002
}
1002
{
1070
     5
1000
22369145
1002
}
  0
LINE
  5
151
330
149
100
AcDbEntity
  8
A-JAN-___-___-EXI
100
AcDbLine
 10
399.9999999999957
 20
-74.99999999999862
 30
0.0
 11
429.9999999999888
 21
-74.99999999999857
 31
0.0
1001
REVIT
1002
{
1070
     1
1000
22832210
1002
}
1002
{
1070
     5
1000
22369145
1002
}
  0
LINE
  5
152
330
149
100
AcDbEntity
  8
A-JAN-___-___-EXI
100
AcDbLine
 10
-368.0000000000116
 20
870.9999999999864
 30
0.0
 11
-398.0000000000048
 21
870.9999999999864
 31
0.0
1001
REVIT
1002
{
1070
     1
1000
22832210
1002
}
1002
{
1070
     5
1000
22369145
1002
}
  0
LINE
  5
153
330
149
100
AcDbEntity
  8
A-JAN-___-___-EXI
100
AcDbLine
 10
-398.0000000000048
 20
870.9999999999864
 30
0.0
 11
-398.0000000000048
 21
74.99999999998751
 31
0.0
1001
REVIT
1002
{
1070
     1
1000
22832210
1002
}
1002
{
1070
     5
1000
22369145
1002
}
  0
LINE
  5
154
330
149
100
AcDbEntity
  8
A-JAN-___-___-EXI
100
AcDbLine
 10
-398.0000000000048
 20
74.99999999998751
 30
0.0
 11
-368.0000000000116
 21
74.99999999998756
 31
0.0
1001
REVIT
1002
{
1070
     1
1000
22832210
1002
}
1002
{
1070
     5
1000
22369145
1002
}
  0
LINE
  5
155
330
149
100
AcDbEntity
  8
A-JAN-___-___-EXI
100
AcDbLine
 10
-368.0000000000116
 20
74.99999999998756
 30
0.0
 11
-368.0000000000116
 21
870.9999999999864
 31
0.0
1001
REVIT
1002
{
1070
     1
1000
22832210
1002
}
1002
{
1070
     5
1000
22369145
1002
}
  0
ARC
  5
156
330
149
100
AcDbEntity
  8
A-ALV-___-___-EXI
100
AcDbCircle
 10
-398.0000000000048
 20
74.99999999998751
 30
0.0
 40
795.9999999999988
100
AcDbArc
 50
0.0000000000000509
 51
90.00000000000005
1001
REVIT
1002
{
1070
     1
1000
22832210
1002
}
1002
{
1070
     5
1000
22369145
1002
}
1002
{
1070
     3
1000
-2000027
1002
}
  0
ENDBLK
  5
158
330
149
100
AcDbEntity
  8
0
100
AcDbBlockEnd
  0
BLOCK
  5
1AE
330
1A8
100
AcDbEntity
  8
0
100
AcDbBlockBegin
  2
SVG - A4-22877114-Não nomeada
 70
     0
 10
0.0
 20
0.0
 30
0.0
  3
SVG - A4-22877114-Não nomeada
  1

  0
LINE
  5
1AA
330
1A8
100
AcDbEntity
  8
A-BAS-___-___-EXI
100
AcDbLine
 10
64.29285070883699
 20
356.4999999999859
 30
0.0
 11
64.29285070883699
 21
59.49999999998593
 31
0.0
1001
REVIT
1002
{
1070
     1
1000
22877141
1002
}
1002
{
1070
     5
1000
22877114
1002
}
1002
{
1070
     3
1000
-2000281
1002
}
  0
LINE
  5
1AB
330
1A8
100
AcDbEntity
  8
A-BAS-___-___-EXI
100
AcDbLine
 10
64.29285070883699
 20
59.49999999998593
 30
0.0
 11
274.292850708837
 21
59.49999999998593
 31
0.0
1001
REVIT
1002
{
1070
     1
1000
22877141
1002
}
1002
{
1070
     5
1000
22877114
1002
}
1002
{
1070
     3
1000
-2000281
1002
}
  0
LINE
  5
1AC
330
1A8
100
AcDbEntity
  8
A-BAS-___-___-EXI
100
AcDbLine
 10
274.292850708837
 20
59.49999999998593
 30
0.0
 11
274.292850708837
 21
356.4999999999859
 31
0.0
1001
REVIT
1002
{
1070
     1
1000
22877141
1002
}
1002
{
1070
     5
1000
22877114
1002
}
1002
{
1070
     3
1000
-2000281
1002
}
  0
LINE
  5
1AD
330
1A8
100
AcDbEntity
  8
A-BAS-___-___-EXI
100
AcDbLine
 10
274.292850708837
 20
356.4999999999859
 30
0.0
 11
64.29285070883699
 21
356.4999999999859
 31
0.0
1001
REVIT
1002
{
1070
     1
1000
22877141
1002
}
1002
{
1070
     5
1000
22877114
1002
}
1002
{
1070
     3
1000
-2000281
1002
}
  0
ENDBLK
  5
1AF
330
1A8
100
AcDbEntity
  8
0
100
AcDbBlockEnd
  0
ENDSEC
  0
SECTION
  2
ENTITIES
  0
HATCH
  5
8A
330
70
100
AcDbEntity
  8
A-ALV-___-___-EXI
 62
    11
100
AcDbHatch
 10
0.0
 20
0.0
 30
0.0
210
0.0
220
0.0
230
1.0
  2
SOLID
 70
     1
 71
     0
 91
        1
 92
        1
 93
        5
 72
     1
 10
25180.25331588344
 20
-18540.31220038295
 11
25480.25331588345
 21
-18540.31220038294
 72
     1
 10
25480.25331588345
 20
-18540.31220038294
 11
25480.25331588341
 21
-6610.312200382927
 72
     1
 10
25480.25331588341
 20
-6610.312200382927
 11
25180.25331588341
 21
-6610.312200382932
 72
     1
 10
25180.25331588341
 20
-6610.312200382932
 11
25180.25331588344
 21
-12794.99665766499
 72
     1
 10
25180.25331588344
 20
-12794.99665766499
 11
25180.25331588344
 21
-18540.31220038295
 97
        0
 75
     0
 76
     1
 98
        1
 10
0.0
 20
0.0
450
        0
451
        0
460
0.0
461
0.0
452
        0
462
0.0
453
        0
470

1001
REVIT
1002
{
1070
     1
1000
22831173
1002
}
1002
{
1070
     5
1000
22542561
1002
}
1002
{
1070
     2
1000
-2000011
1002
}
1002
{
1070
     3
1000
-2000588
1002
}
  0
HATCH
  5
8F
330
70
100
AcDbEntity
  8
A-ALV-___-___-EXI
 62
    11
100
AcDbHatch
 10
0.0
 20
0.0
 30
0.0
210
0.0
220
0.0
230
1.0
  2
SOLID
 70
     1
 71
     0
 91
        1
 92
        1
 93
        4
 72
     1
 10
29980.25331588344
 20
-6960.312200382928
 11
31080.25331588344
 21
-6960.312200382917
 72
     1
 10
31080.25331588344
 20
-6960.312200382917
 11
31080.25331588343
 21
-6610.312200382918
 72
     1
 10
31080.25331588343
 20
-6610.312200382918
 11
29980.25331588342
 21
-6610.312200382925
 72
     1
 10
29980.25331588342
 20
-6610.312200382925
 11
29980.25331588344
 21
-6960.312200382928
 97
        0
 75
     0
 76
     1
 98
        1
 10
0.0
 20
0.0
450
        0
451
        0
460
0.0
461
0.0
452
        0
462
0.0
453
        0
470

1001
REVIT
1002
{
1070
     1
1000
22831174
1002
}
1002
{
1070
     5
1000
22476216
1002
}
1002
{
1070
     2
1000
-2000011
1002
}
1002
{
1070
     3
1000
-2000588
1002
}
  0
HATCH
  5
94
330
70
100
AcDbEntity
  8
A-ALV-___-___-EXI
 62
    11
100
AcDbHatch
 10
0.0
 20
0.0
 30
0.0
210
0.0
220
0.0
230
1.0
  2
SOLID
 70
     1
 71
     0
 91
        1
 92
        1
 93
        4
 72
     1
 10
31080.25331588345
 20
-18980.31220038294
 11
31080.25331588344
 21
-6960.312200382915
 72
     1
 10
31080.25331588344
 20
-6960.312200382917
 11
30780.25331588344
 21
-6960.312200382922
 72
     1
 10
30780.25331588344
 20
-6960.312200382922
 11
30780.25331588345
 21
-18980.31220038294
 72
     1
 10
30780.25331588345
 20
-18980.31220038294
 11
31080.25331588345
 21
-18980.31220038294
 97
        0
 75
     0
 76
     1
 98
        1
 10
0.0
 20
0.0
450
        0
451
        0
460
0.0
461
0.0
452
        0
462
0.0
453
        0
470

1001
REVIT
1002
{
1070
     1
1000
22831175
1002
}
1002
{
1070
     5
1000
22542561
1002
}
1002
{
1070
     2
1000
-2000011
1002
}
1002
{
1070
     3
1000
-2000588
1002
}
  0
HATCH
  5
99
330
70
100
AcDbEntity
  8
A-ALV-___-___-EXI
 62
    11
100
AcDbHatch
 10
0.0
 20
0.0
 30
0.0
210
0.0
220
0.0
230
1.0
  2
SOLID
 70
     1
 71
     0
 91
        1
 92
        1
 93
        4
 72
     1
 10
25180.25331588344
 20
-18980.31220038295
 11
26100.25331588345
 21
-18980.31220038294
 72
     1
 10
26100.25331588345
 20
-18980.31220038294
 11
26100.25331588345
 21
-18540.31220038294
 72
     1
 10
26100.25331588345
 20
-18540.31220038294
 11
25180.25331588344
 21
-18540.31220038295
 72
     1
 10
25180.25331588344
 20
-18540.31220038295
 11
25180.25331588344
 21
-18980.31220038295
 97
        0
 75
     0
 76
     1
 98
        1
 10
0.0
 20
0.0
450
        0
451
        0
460
0.0
461
0.0
452
        0
462
0.0
453
        0
470

1001
REVIT
1002
{
1070
     1
1000
22831176
1002
}
1002
{
1070
     5
1000
22422765
1002
}
1002
{
1070
     2
1000
-2000011
1002
}
1002
{
1070
     3
1000
-2000588
1002
}
  0
HATCH
  5
A6
330
70
100
AcDbEntity
  8
A-ALV-___-___-EXI
 62
    11
100
AcDbHatch
 10
0.0
 20
0.0
 30
0.0
210
0.0
220
0.0
230
1.0
  2
SOLID
 70
     1
 71
     0
 91
        3
 92
        1
 93
        4
 72
     1
 10
27000.25331588343
 20
-14670.31220038293
 11
29230.25331588343
 21
-14670.31220038293
 72
     1
 10
29230.25331588343
 20
-14670.31220038293
 11
29230.25331588343
 21
-14520.31220038293
 72
     1
 10
29230.25331588343
 20
-14520.31220038293
 11
27000.25331588343
 21
-14520.31220038294
 72
     1
 10
27000.25331588343
 20
-14520.31220038294
 11
27000.25331588343
 21
-14670.31220038293
 97
        0
 92
        1
 93
        4
 72
     1
 10
29990.25331588343
 20
-14670.31220038293
 11
30780.25331588344
 21
-14670.31220038293
 72
     1
 10
30780.25331588344
 20
-14670.31220038293
 11
30780.25331588344
 21
-14520.31220038293
 72
     1
 10
30780.25331588344
 20
-14520.31220038293
 11
29990.25331588343
 21
-14520.31220038294
 72
     1
 10
29990.25331588343
 20
-14520.31220038294
 11
29990.25331588343
 21
-14670.31220038293
 97
        0
 92
        1
 93
        4
 72
     1
 10
26140.25331588343
 20
-14670.31220038293
 11
26140.25331588343
 21
-14520.31220038293
 72
     1
 10
26140.25331588343
 20
-14520.31220038293
 11
25480.25331588344
 21
-14520.31220038293
 72
     1
 10
25480.25331588344
 20
-14520.31220038293
 11
25480.25331588344
 21
-14670.31220038293
 72
     1
 10
25480.25331588344
 20
-14670.31220038293
 11
26140.25331588343
 21
-14670.31220038293
 97
        0
 75
     0
 76
     1
 98
        1
 10
0.0
 20
0.0
450
        0
451
        0
460
0.0
461
0.0
452
        0
462
0.0
453
        0
470

1001
REVIT
1002
{
1070
     1
1000
22831383
1002
}
1002
{
1070
     5
1000
3324767
1002
}
1002
{
1070
     2
1000
-2000011
1002
}
1002
{
1070
     3
1000
-2000588
1002
}
  0
HATCH
  5
AF
330
70
100
AcDbEntity
  8
A-ALV-___-___-EXI
 62
    11
100
AcDbHatch
 10
0.0
 20
0.0
 30
0.0
210
0.0
220
0.0
230
1.0
  2
SOLID
 70
     1
 71
     0
 91
        2
 92
        1
 93
        4
 72
     1
 10
28163.21700316205
 20
-14520.31220038293
 11
28163.21700316207
 21
-7930.312200382918
 72
     1
 10
28163.21700316207
 20
-7930.312200382918
 11
28013.21700316207
 21
-7930.312200382918
 72
     1
 10
28013.21700316207
 20
-7930.312200382918
 11
28013.21700316205
 21
-14520.31220038294
 72
     1
 10
28013.21700316205
 20
-14520.31220038294
 11
28163.21700316205
 21
-14520.31220038293
 97
        0
 92
        1
 93
        4
 72
     1
 10
28013.21700316207
 20
-7170.312200382918
 11
28163.21700316207
 21
-7170.312200382918
 72
     1
 10
28163.21700316207
 20
-7170.312200382918
 11
28163.21700316207
 21
-6960.312200382927
 72
     1
 10
28163.21700316207
 20
-6960.312200382927
 11
28013.21700316207
 21
-6960.312200382927
 72
     1
 10
28013.21700316207
 20
-6960.312200382927
 11
28013.21700316207
 21
-7170.312200382918
 97
        0
 75
     0
 76
     1
 98
        1
 10
0.0
 20
0.0
450
        0
451
        0
460
0.0
461
0.0
452
        0
462
0.0
453
        0
470

1001
REVIT
1002
{
1070
     1
1000
22831579
1002
}
1002
{
1070
     5
1000
3324767
1002
}
1002
{
1070
     2
1000
-2000011
1002
}
1002
{
1070
     3
1000
-2000588
1002
}
  0
HATCH
  5
B4
330
70
100
AcDbEntity
  8
A-ALV-___-___-EXI
 62
    11
100
AcDbHatch
 10
0.0
 20
0.0
 30
0.0
210
0.0
220
0.0
230
1.0
  2
SOLID
 70
     1
 71
     0
 91
        1
 92
        1
 93
        4
 72
     1
 10
30780.25331588343
 20
-11020.31220038293
 11
30780.25331588343
 21
-10870.31220038293
 72
     1
 10
30780.25331588343
 20
-10870.31220038293
 11
28163.21700316205
 21
-10870.31220038292
 72
     1
 10
28163.21700316205
 20
-10870.31220038292
 11
28163.21700316205
 21
-11020.31220038292
 72
     1
 10
28163.21700316205
 20
-11020.31220038292
 11
30780.25331588343
 21
-11020.31220038293
 97
        0
 75
     0
 76
     1
 98
        1
 10
0.0
 20
0.0
450
        0
451
        0
460
0.0
461
0.0
452
        0
462
0.0
453
        0
470

1001
REVIT
1002
{
1070
     1
1000
22831749
1002
}
1002
{
1070
     5
1000
3324767
1002
}
1002
{
1070
     2
1000
-2000011
1002
}
1002
{
1070
     3
1000
-2000588
1002
}
  0
HATCH
  5
BD
330
70
100
AcDbEntity
  8
A-ALV-___-___-EXI
 62
    11
100
AcDbHatch
 10
0.0
 20
0.0
 30
0.0
210
0.0
220
0.0
230
1.0
  2
SOLID
 70
     1
 71
     0
 91
        2
 92
        1
 93
        4
 72
     1
 10
27023.21700316205
 20
-11120.31220038294
 11
27023.21700316205
 21
-10970.31220038293
 72
     1
 10
27023.21700316205
 20
-10970.31220038293
 11
25480.25331588343
 21
-10970.31220038293
 72
     1
 10
25480.25331588343
 20
-10970.31220038293
 11
25480.25331588343
 21
-11120.31220038293
 72
     1
 10
25480.25331588343
 20
-11120.31220038293
 11
27023.21700316205
 21
-11120.31220038294
 97
        0
 92
        1
 93
        4
 72
     1
 10
27983.21700316205
 20
-11120.31220038293
 11
28013.21700316206
 21
-11120.31220038293
 72
     1
 10
28013.21700316206
 20
-11120.31220038293
 11
28013.21700316206
 21
-10970.31220038293
 72
     1
 10
28013.21700316206
 20
-10970.31220038293
 11
27983.21700316205
 21
-10970.31220038293
 72
     1
 10
27983.21700316205
 20
-10970.31220038293
 11
27983.21700316205
 21
-11120.31220038293
 97
        0
 75
     0
 76
     1
 98
        1
 10
0.0
 20
0.0
450
        0
451
        0
460
0.0
461
0.0
452
        0
462
0.0
453
        0
470

1001
REVIT
1002
{
1070
     1
1000
22831858
1002
}
1002
{
1070
     5
1000
3324767
1002
}
1002
{
1070
     2
1000
-2000011
1002
}
1002
{
1070
     3
1000
-2000588
1002
}
  0
HATCH
  5
C6
330
70
100
AcDbEntity
  8
A-ALV-___-___-EXI
 62
    11
100
AcDbHatch
 10
0.0
 20
0.0
 30
0.0
210
0.0
220
0.0
230
1.0
  2
SOLID
 70
     1
 71
     0
 91
        2
 92
        1
 93
        4
 72
     1
 10
27003.21700316206
 20
-10320.31220038294
 11
27003.21700316206
 21
-10170.31220038294
 72
     1
 10
27003.21700316206
 20
-10170.31220038294
 11
25480.25331588343
 21
-10170.31220038293
 72
     1
 10
25480.25331588343
 20
-10170.31220038293
 11
25480.25331588343
 21
-10320.31220038293
 72
     1
 10
25480.25331588343
 20
-10320.31220038293
 11
27003.21700316206
 21
-10320.31220038294
 97
        0
 92
        1
 93
        4
 72
     1
 10
28013.21700316206
 20
-10320.31220038294
 11
28013.21700316206
 21
-10170.31220038293
 72
     1
 10
28013.21700316206
 20
-10170.31220038293
 11
27963.21700316206
 21
-10170.31220038293
 72
     1
 10
27963.21700316206
 20
-10170.31220038293
 11
27963.21700316207
 21
-10320.31220038294
 72
     1
 10
27963.21700316207
 20
-10320.31220038294
 11
28013.21700316206
 21
-10320.31220038294
 97
        0
 75
     0
 76
     1
 98
        1
 10
0.0
 20
0.0
450
        0
451
        0
460
0.0
461
0.0
452
        0
462
0.0
453
        0
470

1001
REVIT
1002
{
1070
     1
1000
22831988
1002
}
1002
{
1070
     5
1000
3324767
1002
}
1002
{
1070
     2
1000
-2000011
1002
}
1002
{
1070
     3
1000
-2000588
1002
}
  0
HATCH
  5
CB
330
70
100
AcDbEntity
  8
A-ALV-___-___-EXI
 62
    11
100
AcDbHatch
 10
0.0
 20
0.0
 30
0.0
210
0.0
220
0.0
230
1.0
  2
SOLID
 70
     1
 71
     0
 91
        1
 92
        1
 93
        4
 72
     1
 10
26200.25331588343
 20
-6960.312200382926
 11
26200.25331588343
 21
-6610.312200382927
 72
     1
 10
26200.25331588343
 20
-6610.312200382927
 11
25480.25331588341
 21
-6610.312200382927
 72
     1
 10
25480.25331588341
 20
-6610.312200382927
 11
25480.25331588343
 21
-6960.312200382927
 72
     1
 10
25480.25331588343
 20
-6960.312200382927
 11
26200.25331588343
 21
-6960.312200382926
 97
        0
 75
     0
 76
     1
 98
        1
 10
0.0
 20
0.0
450
        0
451
        0
460
0.0
461
0.0
452
        0
462
0.0
453
        0
470

1001
REVIT
1002
{
1070
     1
1000
22832732
1002
}
1002
{
1070
     5
1000
22476216
1002
}
1002
{
1070
     2
1000
-2000011
1002
}
1002
{
1070
     3
1000
-2000588
1002
}
  0
HATCH
  5
D0
330
70
100
AcDbEntity
  8
A-ALV-___-___-EXI
 62
    11
100
AcDbHatch
 10
0.0
 20
0.0
 30
0.0
210
0.0
220
0.0
230
1.0
  2
SOLID
 70
     1
 71
     0
 91
        1
 92
        1
 93
        4
 72
     1
 10
27020.25331588343
 20
-6960.312200382933
 11
29080.25331588344
 21
-6960.312200382924
 72
     1
 10
29080.25331588344
 20
-6960.312200382924
 11
29080.25331588343
 21
-6610.312200382921
 72
     1
 10
29080.25331588343
 20
-6610.312200382921
 11
27020.25331588342
 21
-6610.31220038293
 72
     1
 10
27020.25331588342
 20
-6610.31220038293
 11
27020.25331588343
 21
-6960.312200382933
 97
        0
 75
     0
 76
     1
 98
        1
 10
0.0
 20
0.0
450
        0
451
        0
460
0.0
461
0.0
452
        0
462
0.0
453
        0
470

1001
REVIT
1002
{
1070
     1
1000
22832940
1002
}
1002
{
1070
     5
1000
22476216
1002
}
1002
{
1070
     2
1000
-2000011
1002
}
1002
{
1070
     3
1000
-2000588
1002
}
  0
HATCH
  5
D5
330
70
100
AcDbEntity
  8
A-ALV-___-___-EXI
 62
    11
100
AcDbHatch
 10
0.0
 20
0.0
 30
0.0
210
0.0
220
0.0
230
1.0
  2
SOLID
 70
     1
 71
     0
 91
        1
 92
        1
 93
        4
 72
     1
 10
26920.25331588345
 20
-18980.31220038294
 11
29260.25331588344
 21
-18980.31220038294
 72
     1
 10
29260.25331588344
 20
-18980.31220038294
 11
29260.25331588344
 21
-18540.31220038295
 72
     1
 10
29260.25331588344
 20
-18540.31220038295
 11
26920.25331588345
 21
-18540.31220038295
 72
     1
 10
26920.25331588345
 20
-18540.31220038295
 11
26920.25331588345
 21
-18980.31220038294
 97
        0
 75
     0
 76
     1
 98
        1
 10
0.0
 20
0.0
450
        0
451
        0
460
0.0
461
0.0
452
        0
462
0.0
453
        0
470

1001
REVIT
1002
{
1070
     1
1000
22833514
1002
}
1002
{
1070
     5
1000
22422765
1002
}
1002
{
1070
     2
1000
-2000011
1002
}
1002
{
1070
     3
1000
-2000588
1002
}
  0
HATCH
  5
DA
330
70
100
AcDbEntity
  8
A-ALV-___-___-EXI
 62
    11
100
AcDbHatch
 10
0.0
 20
0.0
 30
0.0
210
0.0
220
0.0
230
1.0
  2
SOLID
 70
     1
 71
     0
 91
        1
 92
        1
 93
        4
 72
     1
 10
30100.25331588345
 20
-18980.31220038294
 11
30780.25331588345
 21
-18980.31220038294
 72
     1
 10
30780.25331588345
 20
-18980.31220038294
 11
30780.25331588346
 21
-18540.31220038293
 72
     1
 10
30780.25331588346
 20
-18540.31220038293
 11
30100.25331588345
 21
-18540.31220038294
 72
     1
 10
30100.25331588345
 20
-18540.31220038294
 11
30100.25331588345
 21
-18980.31220038294
 97
        0
 75
     0
 76
     1
 98
        1
 10
0.0
 20
0.0
450
        0
451
        0
460
0.0
461
0.0
452
        0
462
0.0
453
        0
470

1001
REVIT
1002
{
1070
     1
1000
22833957
1002
}
1002
{
1070
     5
1000
22422765
1002
}
1002
{
1070
     2
1000
-2000011
1002
}
1002
{
1070
     3
1000
-2000588
1002
}
  0
LINE
  5
F1
330
70
100
AcDbEntity
  8
A-ALV-___-___-EXI
 62
     7
370
    35
100
AcDbLine
 10
27000.25331588344
 20
-14670.3122003829
 30
0.0
 11
29230.25331588345
 21
-14670.3122003829
 31
0.0
1001
REVIT
1002
{
1070
     1
1000
22831383
1002
}
1002
{
1070
     5
1000
3324767
1002
}
1002
{
1070
     2
1000
-2000011
1002
}
  0
LINE
  5
F4
330
70
100
AcDbEntity
  8
A-ALV-___-___-EXI
 62
   250
100
AcDbLine
 10
26170.25331588345
 20
-14520.31220038289
 30
0.0
 11
26172.25331588345
 21
-14520.31220038289
 31
0.0
1001
REVIT
1002
{
1070
     1
1000
22831383
1002
}
1002
{
1070
     5
1000
3324767
1002
}
1002
{
1070
     2
1000
-2000011
1002
}
  0
LINE
  5
F5
330
70
100
AcDbEntity
  8
A-ALV-___-___-EXI
 62
   250
100
AcDbLine
 10
26202.25331588345
 20
-14520.31220038289
 30
0.0
 11
26970.25331588345
 21
-14520.3122003829
 31
0.0
1001
REVIT
1002
{
1070
     1
1000
22831383
1002
}
1002
{
1070
     5
1000
3324767
1002
}
1002
{
1070
     2
1000
-2000011
1002
}
  0
LINE
  5
F6
330
70
100
AcDbEntity
  8
A-ALV-___-___-EXI
 62
   250
100
AcDbLine
 10
29260.25331588344
 20
-14520.3122003829
 30
0.0
 11
29262.25331588344
 21
-14520.3122003829
 31
0.0
1001
REVIT
1002
{
1070
     1
1000
22831383
1002
}
1002
{
1070
     5
1000
3324767
1002
}
1002
{
1070
     2
1000
-2000011
1002
}
  0
LINE
  5
F7
330
70
100
AcDbEntity
  8
A-ALV-___-___-EXI
 62
   250
100
AcDbLine
 10
29292.25331588345
 20
-14520.3122003829
 30
0.0
 11
29960.25331588345
 21
-14520.3122003829
 31
0.0
1001
REVIT
1002
{
1070
     1
1000
22831383
1002
}
1002
{
1070
     5
1000
3324767
1002
}
1002
{
1070
     2
1000
-2000011
1002
}
  0
LINE
  5
F8
330
70
100
AcDbEntity
  8
A-ALV-___-___-EXI
 62
   250
100
AcDbLine
 10
29960.25331588344
 20
-14670.3122003829
 30
0.0
 11
29260.25331588344
 21
-14670.3122003829
 31
0.0
1001
REVIT
1002
{
1070
     1
1000
22831383
1002
}
1002
{
1070
     5
1000
3324767
1002
}
1002
{
1070
     2
1000
-2000011
1002
}
  0
LINE
  5
F9
330
70
100
AcDbEntity
  8
A-ALV-___-___-EXI
 62
   250
100
AcDbLine
 10
26970.25331588345
 20
-14670.3122003829
 30
0.0
 11
26170.25331588345
 21
-14670.31220038289
 31
0.0
1001
REVIT
1002
{
1070
     1
1000
22831383
1002
}
1002
{
1070
     5
1000
3324767
1002
}
1002
{
1070
     2
1000
-2000011
1002
}
  0
LINE
  5
101
330
70
100
AcDbEntity
  8
A-ALV-___-___-EXI
 62
   250
100
AcDbLine
 10
28163.21700316209
 20
-7200.312200382893
 30
0.0
 11
28163.21700316209
 21
-7202.312200382893
 31
0.0
1001
REVIT
1002
{
1070
     1
1000
22831579
1002
}
1002
{
1070
     5
1000
3324767
1002
}
1002
{
1070
     2
1000
-2000011
1002
}
  0
LINE
  5
102
330
70
100
AcDbEntity
  8
A-ALV-___-___-EXI
 62
   250
100
AcDbLine
 10
28163.21700316209
 20
-7232.31220038289
 30
0.0
 11
28163.21700316208
 21
-7900.312200382895
 31
0.0
1001
REVIT
1002
{
1070
     1
1000
22831579
1002
}
1002
{
1070
     5
1000
3324767
1002
}
1002
{
1070
     2
1000
-2000011
1002
}
  0
LINE
  5
103
330
70
100
AcDbEntity
  8
A-ALV-___-___-EXI
 62
   250
100
AcDbLine
 10
28013.21700316208
 20
-7900.312200382891
 30
0.0
 11
28013.21700316209
 21
-7200.312200382893
 31
0.0
1001
REVIT
1002
{
1070
     1
1000
22831579
1002
}
1002
{
1070
     5
1000
3324767
1002
}
1002
{
1070
     2
1000
-2000011
1002
}
  0
LINE
  5
10A
330
70
100
AcDbEntity
  8
A-ALV-___-___-EXI
 62
   250
100
AcDbLine
 10
27953.21700316207
 20
-11120.3122003829
 30
0.0
 11
27951.21700316207
 21
-11120.3122003829
 31
0.0
1001
REVIT
1002
{
1070
     1
1000
22831858
1002
}
1002
{
1070
     5
1000
3324767
1002
}
1002
{
1070
     2
1000
-2000011
1002
}
  0
LINE
  5
10B
330
70
100
AcDbEntity
  8
A-ALV-___-___-EXI
 62
   250
100
AcDbLine
 10
27921.21700316206
 20
-11120.3122003829
 30
0.0
 11
27053.21700316207
 21
-11120.3122003829
 31
0.0
1001
REVIT
1002
{
1070
     1
1000
22831858
1002
}
1002
{
1070
     5
1000
3324767
1002
}
1002
{
1070
     2
1000
-2000011
1002
}
  0
LINE
  5
10C
330
70
100
AcDbEntity
  8
A-ALV-___-___-EXI
 62
   250
100
AcDbLine
 10
27053.21700316207
 20
-10970.3122003829
 30
0.0
 11
27953.21700316207
 21
-10970.3122003829
 31
0.0
1001
REVIT
1002
{
1070
     1
1000
22831858
1002
}
1002
{
1070
     5
1000
3324767
1002
}
1002
{
1070
     2
1000
-2000011
1002
}
  0
LINE
  5
111
330
70
100
AcDbEntity
  8
A-ALV-___-___-EXI
 62
   250
100
AcDbLine
 10
27933.21700316207
 20
-10320.31220038291
 30
0.0
 11
27033.21700316207
 21
-10320.3122003829
 31
0.0
1001
REVIT
1002
{
1070
     1
1000
22831988
1002
}
1002
{
1070
     5
1000
3324767
1002
}
1002
{
1070
     2
1000
-2000011
1002
}
  0
LINE
  5
112
330
70
100
AcDbEntity
  8
A-ALV-___-___-EXI
 62
   250
100
AcDbLine
 10
27033.21700316207
 20
-10170.3122003829
 30
0.0
 11
27901.21700316208
 21
-10170.31220038291
 31
0.0
1001
REVIT
1002
{
1070
     1
1000
22831988
1002
}
1002
{
1070
     5
1000
3324767
1002
}
1002
{
1070
     2
1000
-2000011
1002
}
  0
LINE
  5
113
330
70
100
AcDbEntity
  8
A-ALV-___-___-EXI
 62
   250
100
AcDbLine
 10
27931.21700316208
 20
-10170.31220038291
 30
0.0
 11
27933.21700316207
 21
-10170.31220038291
 31
0.0
1001
REVIT
1002
{
1070
     1
1000
22831988
1002
}
1002
{
1070
     5
1000
3324767
1002
}
1002
{
1070
     2
1000
-2000011
1002
}
  0
LINE
  5
18D
330
70
100
AcDbEntity
  8
A-ESC-___-___-EXI
100
AcDbLine
 10
25481.62566692993
 20
-10700.31220038291
 30
0.0
 11
25861.94994104937
 21
-10970.3122003829
 31
0.0
1001
REVIT
1002
{
1070
     1
1000
22874209
1002
}
1002
{
1070
     2
1000
-2000051
1002
}
1002
{
1070
     3
1000
-2000042
1002
}
  0
LINE
  5
18E
330
70
100
AcDbEntity
  8
A-ESC-___-___-EXI
100
AcDbLine
 10
26110.25331588343
 20
-10970.3122003829
 30
0.0
 11
25480.25331588344
 21
-10340.31220038291
 31
0.0
1001
REVIT
1002
{
1070
     1
1000
22874210
1002
}
1002
{
1070
     2
1000
-2000051
1002
}
1002
{
1070
     3
1000
-2000042
1002
}
  0
LINE
  5
18F
330
70
100
AcDbEntity
  8
A-ESC-___-___-EXI
100
AcDbLine
 10
26261.86563694471
 20
-10970.3122003829
 30
0.0
 11
25823.43510099714
 21
-10320.3122003829
 31
0.0
1001
REVIT
1002
{
1070
     1
1000
22874211
1002
}
1002
{
1070
     2
1000
-2000051
1002
}
1002
{
1070
     3
1000
-2000042
1002
}
  0
LINE
  5
190
330
70
100
AcDbEntity
  8
A-ESC-___-___-EXI
100
AcDbLine
 10
26402.67981836717
 20
-10970.3122003829
 30
0.0
 11
26012.12041599926
 21
-10320.3122003829
 31
0.0
1001
REVIT
1002
{
1070
     1
1000
22874212
1002
}
1002
{
1070
     2
1000
-2000051
1002
}
1002
{
1070
     3
1000
-2000042
1002
}
  0
LINE
  5
191
330
70
100
AcDbEntity
  8
A-ESC-___-___-EXI
100
AcDbLine
 10
26570.82751577012
 20
-10970.31220038291
 30
0.0
 11
26239.63597359874
 21
-10320.31220038291
 31
0.0
1001
REVIT
1002
{
1070
     1
1000
22874213
1002
}
1002
{
1070
     2
1000
-2000051
1002
}
1002
{
1070
     3
1000
-2000042
1002
}
  0
LINE
  5
192
330
70
100
AcDbEntity
  8
A-ESC-___-___-EXI
100
AcDbLine
 10
26679.81296810074
 20
-10970.31220038291
 30
0.0
 11
26456.00001946246
 21
-10320.31220038291
 31
0.0
1001
REVIT
1002
{
1070
     1
1000
22874214
1002
}
1002
{
1070
     2
1000
-2000051
1002
}
1002
{
1070
     3
1000
-2000042
1002
}
  0
LINE
  5
193
330
70
100
AcDbEntity
  8
A-ESC-___-___-EXI
100
AcDbLine
 10
26637.02934876523
 20
-10320.31220038291
 30
0.0
 11
26799.0925506133
 21
-10970.31220038291
 31
0.0
1001
REVIT
1002
{
1070
     1
1000
22874215
1002
}
1002
{
1070
     2
1000
-2000051
1002
}
1002
{
1070
     3
1000
-2000042
1002
}
  0
LINE
  5
194
330
70
100
AcDbEntity
  8
A-ESC-___-___-EXI
100
AcDbLine
 10
26884.81639218708
 20
-10970.31220038291
 30
0.0
 11
26839.36396442379
 21
-10320.31220038291
 31
0.0
1001
REVIT
1002
{
1070
     1
1000
22874216
1002
}
1002
{
1070
     2
1000
-2000051
1002
}
1002
{
1070
     3
1000
-2000042
1002
}
  0
LINE
  5
195
330
70
100
AcDbEntity
  8
A-ESC-___-___-EXI
100
AcDbLine
 10
27042.28546271763
 20
-10970.3122003829
 30
0.0
 11
27042.28546271763
 21
-10320.3122003829
 31
0.0
1001
REVIT
1002
{
1070
     1
1000
22874217
1002
}
1002
{
1070
     2
1000
-2000051
1002
}
1002
{
1070
     3
1000
-2000042
1002
}
  0
ARC
  5
196
330
70
100
AcDbEntity
  8
A-ESC-___-___-EXI
100
AcDbCircle
 10
26741.20343998102
 20
-11619.42443627558
 30
0.0
 40
995.7230642786042
100
AcDbArc
 50
72.39967711891857
 51
139.3149645256947
1001
REVIT
1002
{
1070
     1
1000
22874218
1002
}
1002
{
1070
     2
1000
-2000051
1002
}
1002
{
1070
     3
1000
-2000042
1002
}
  0
LWPOLYLINE
  5
1DA
330
70
100
AcDbEntity
  8
A-ALV-___-___-EXI
100
AcDbPolyline
 90
        4
 70
     1
 43
0.0
 10
29080.25331588345
 20
-6960.312200382898
 10
29980.25331588345
 20
-6960.312200382897
 10
29980.25331588344
 20
-6610.312200382899
 10
29080.25331588344
 20
-6610.3122003829
1001
REVIT
1002
{
1070
     1
1000
22874234
1002
}
1002
{
1070
     2
1000
-2000051
1002
}
1002
{
1070
     3
1000
-2000042
1002
}
  0
LWPOLYLINE
  5
1DB
330
70
100
AcDbEntity
  8
A-ALV-___-___-EXI
100
AcDbPolyline
 90
        4
 70
     1
 43
0.0
 10
26200.25331588345
 20
-6960.3122003829
 10
27020.25331588345
 20
-6960.312200382903
 10
27020.25331588343
 20
-6610.312200382904
 10
26200.25331588343
 20
-6610.312200382901
1001
REVIT
1002
{
1070
     1
1000
22874230
1002
}
1002
{
1070
     2
1000
-2000051
1002
}
1002
{
1070
     3
1000
-2000042
1002
}
  0
LWPOLYLINE
  5
1DC
330
70
100
AcDbEntity
  8
A-ESC-___-___-EXI
100
AcDbPolyline
 90
        3
 70
     0
 43
0.0
 10
26971.57478459897
 20
-10599.60152226424
 10
27042.28546271763
 20
-10670.3122003829
 10
26966.64397666969
 20
-10696.35765273948
1001
REVIT
1002
{
1070
     1
1000
22874220
1002
}
1002
{
1070
     2
1000
-2000051
1002
}
1002
{
1070
     3
1000
-2000042
1002
}
  0
LWPOLYLINE
  5
1DD
330
70
100
AcDbEntity
  8
A-JAN-___-___-EXI
100
AcDbPolyline
 90
        4
 70
     1
 43
0.0
 10
30100.25331588346
 20
-18040.3122003829
 10
30151.52288774069
 20
-18040.3122003829
 10
30151.52288774069
 20
-18540.3122003829
 10
30100.25331588346
 20
-18540.3122003829
1001
REVIT
1002
{
1070
     1
1000
22874208
1002
}
1002
{
1070
     2
1000
-2000051
1002
}
1002
{
1070
     3
1000
-2000042
1002
}
  0
LWPOLYLINE
  5
1DE
330
70
100
AcDbEntity
  8
A-JAN-___-___-EXI
100
AcDbPolyline
 90
        4
 70
     1
 43
0.0
 10
29260.25331588347
 20
-18040.3122003829
 10
29203.64596961335
 20
-18040.3122003829
 10
29203.64596961335
 20
-18540.3122003829
 10
29260.25331588347
 20
-18540.3122003829
1001
REVIT
1002
{
1070
     1
1000
22874204
1002
}
1002
{
1070
     2
1000
-2000051
1002
}
1002
{
1070
     3
1000
-2000042
1002
}
  0
LWPOLYLINE
  5
1DF
330
70
100
AcDbEntity
  8
A-JAN-___-___-EXI
100
AcDbPolyline
 90
        4
 70
     1
 43
0.0
 10
26920.25331588346
 20
-18040.31220038291
 10
26967.77433235829
 20
-18040.31220038291
 10
26967.77433235829
 20
-18540.31220038291
 10
26920.25331588346
 20
-18540.31220038291
1001
REVIT
1002
{
1070
     1
1000
22874200
1002
}
1002
{
1070
     2
1000
-2000051
1002
}
1002
{
1070
     3
1000
-2000042
1002
}
  0
LWPOLYLINE
  5
1E0
330
70
100
AcDbEntity
  8
A-JAN-___-___-EXI
100
AcDbPolyline
 90
        4
 70
     1
 43
0.0
 10
26100.64252205367
 20
-18040.31220038291
 10
26060.64252205367
 20
-18040.31220038291
 10
26060.64252205367
 20
-18540.31220038291
 10
26100.64252205367
 20
-18540.31220038291
1001
REVIT
1002
{
1070
     1
1000
22874196
1002
}
1002
{
1070
     2
1000
-2000051
1002
}
1002
{
1070
     3
1000
-2000042
1002
}
  0
LWPOLYLINE
  5
1E1
330
70
100
AcDbEntity
  8
A-JAN-___-___-EXI
100
AcDbPolyline
 90
        4
 70
     1
 43
0.0
 10
26200.25331588345
 20
-7300.312200382901
 10
26145.53275519911
 20
-7300.312200382901
 10
26145.53275519911
 20
-6960.3122003829
 10
26200.25331588345
 20
-6960.3122003829
1001
REVIT
1002
{
1070
     1
1000
22874192
1002
}
1002
{
1070
     2
1000
-2000051
1002
}
1002
{
1070
     3
1000
-2000042
1002
}
  0
LWPOLYLINE
  5
1E2
330
70
100
AcDbEntity
  8
A-JAN-___-___-EXI
100
AcDbPolyline
 90
        4
 70
     1
 43
0.0
 10
27020.25331588345
 20
-7300.312200382903
 10
27081.14105410483
 20
-7300.312200382903
 10
27081.14105410483
 20
-6960.312200382903
 10
27020.25331588345
 20
-6960.312200382903
1001
REVIT
1002
{
1070
     1
1000
22874188
1002
}
1002
{
1070
     2
1000
-2000051
1002
}
1002
{
1070
     3
1000
-2000042
1002
}
  0
LWPOLYLINE
  5
1E3
330
70
100
AcDbEntity
  8
A-JAN-___-___-EXI
100
AcDbPolyline
 90
        4
 70
     1
 43
0.0
 10
29080.25331588345
 20
-7300.312200382899
 10
29022.01229706662
 20
-7300.312200382901
 10
29022.01229706662
 20
-6960.3122003829
 10
29080.25331588345
 20
-6960.312200382898
1001
REVIT
1002
{
1070
     1
1000
22874184
1002
}
1002
{
1070
     2
1000
-2000051
1002
}
1002
{
1070
     3
1000
-2000042
1002
}
  0
LWPOLYLINE
  5
1E4
330
70
100
AcDbEntity
  8
A-JAN-___-___-EXI
100
AcDbPolyline
 90
        4
 70
     1
 43
0.0
 10
29980.25331588345
 20
-7300.312200382897
 10
30040.25331588345
 20
-7300.312200382897
 10
30040.25331588345
 20
-6960.312200382897
 10
29980.25331588345
 20
-6960.312200382897
1001
REVIT
1002
{
1070
     1
1000
22874180
1002
}
1002
{
1070
     2
1000
-2000051
1002
}
1002
{
1070
     3
1000
-2000042
1002
}
  0
LWPOLYLINE
  5
1E5
330
70
100
AcDbEntity
  8
A-ALV-___-___-EXI
 62
     7
370
    35
100
AcDbPolyline
 90
        6
 70
     0
 43
0.0
 10
29990.25331588345
 20
-14670.3122003829
 10
30780.25331588345
 20
-14670.31220038289
 10
30780.25331588346
 20
-18540.3122003829
 10
25480.25331588346
 20
-18540.31220038291
 10
25480.25331588345
 20
-14670.3122003829
 10
26140.25331588345
 20
-14670.31220038289
1001
REVIT
1002
{
1070
     1
1000
22833514
1002
}
1002
{
1070
     5
1000
22422765
1002
}
1002
{
1070
     2
1000
-2000011
1002
}
  0
LWPOLYLINE
  5
1E6
330
70
100
AcDbEntity
  8
A-ALV-___-___-EXI
 62
     7
370
    35
100
AcDbPolyline
 90
        4
 70
     1
 43
0.0
 10
25180.25331588346
 20
-18980.31220038291
 10
31080.25331588346
 20
-18980.31220038289
 10
31080.25331588343
 20
-6610.312200382892
 10
25180.25331588343
 20
-6610.312200382907
1001
REVIT
1002
{
1070
     1
1000
22833514
1002
}
1002
{
1070
     5
1000
22422765
1002
}
1002
{
1070
     2
1000
-2000011
1002
}
  0
LWPOLYLINE
  5
1E7
330
70
100
AcDbEntity
  8
A-ALV-___-___-EXI
 62
     7
370
    35
100
AcDbPolyline
 90
        6
 70
     0
 43
0.0
 10
28163.21700316209
 20
-7170.312200382891
 10
28163.21700316209
 20
-6960.3122003829
 10
30780.25331588345
 20
-6960.312200382896
 10
30780.25331588344
 20
-10870.31220038289
 10
28163.21700316207
 20
-10870.3122003829
 10
28163.21700316208
 20
-7930.312200382892
1001
REVIT
1002
{
1070
     1
1000
22833002
1002
}
1002
{
1070
     5
1000
22476216
1002
}
1002
{
1070
     2
1000
-2000011
1002
}
  0
LWPOLYLINE
  5
1E8
330
70
100
AcDbEntity
  8
A-ALV-___-___-EXI
 62
     7
370
    35
100
AcDbPolyline
 90
        5
 70
     0
 43
0.0
 10
27003.21700316208
 20
-10170.3122003829
 10
25480.25331588344
 20
-10170.31220038291
 10
25480.25331588345
 20
-6960.312200382905
 10
28013.21700316209
 20
-6960.312200382896
 10
28013.21700316209
 20
-7170.312200382891
1001
REVIT
1002
{
1070
     1
1000
22832863
1002
}
1002
{
1070
     5
1000
22476216
1002
}
1002
{
1070
     2
1000
-2000011
1002
}
  0
LWPOLYLINE
  5
1E9
330
70
100
AcDbEntity
  8
A-ALV-___-___-EXI
 62
     7
370
    35
100
AcDbPolyline
 90
        3
 70
     0
 43
0.0
 10
28013.21700316208
 20
-7930.312200382892
 10
28013.21700316207
 20
-10170.31220038291
 10
27963.21700316208
 20
-10170.31220038291
1001
REVIT
1002
{
1070
     1
1000
22831988
1002
}
1002
{
1070
     5
1000
3324767
1002
}
1002
{
1070
     2
1000
-2000011
1002
}
  0
LWPOLYLINE
  5
1EA
330
70
100
AcDbEntity
  8
A-ALV-___-___-EXI
 62
     7
370
    35
100
AcDbPolyline
 90
        4
 70
     0
 43
0.0
 10
27963.21700316208
 20
-10320.31220038291
 10
28013.21700316207
 20
-10320.31220038291
 10
28013.21700316207
 20
-10970.3122003829
 10
27983.21700316207
 20
-10970.3122003829
1001
REVIT
1002
{
1070
     1
1000
22831988
1002
}
1002
{
1070
     5
1000
3324767
1002
}
1002
{
1070
     2
1000
-2000011
1002
}
  0
LWPOLYLINE
  5
1EB
330
70
100
AcDbEntity
  8
A-ALV-___-___-EXI
 62
     7
370
    35
100
AcDbPolyline
 90
        4
 70
     0
 43
0.0
 10
27023.21700316207
 20
-10970.3122003829
 10
25480.25331588344
 20
-10970.3122003829
 10
25480.25331588344
 20
-10320.31220038291
 10
27003.21700316208
 20
-10320.3122003829
1001
REVIT
1002
{
1070
     1
1000
22831988
1002
}
1002
{
1070
     5
1000
3324767
1002
}
1002
{
1070
     2
1000
-2000011
1002
}
  0
LWPOLYLINE
  5
1EC
330
70
100
AcDbEntity
  8
A-ALV-___-___-EXI
 62
     7
370
    35
100
AcDbPolyline
 90
        4
 70
     0
 43
0.0
 10
27983.21700316207
 20
-11120.3122003829
 10
28013.21700316207
 20
-11120.3122003829
 10
28013.21700316207
 20
-14520.3122003829
 10
27000.25331588344
 20
-14520.3122003829
1001
REVIT
1002
{
1070
     1
1000
22831858
1002
}
1002
{
1070
     5
1000
3324767
1002
}
1002
{
1070
     2
1000
-2000011
1002
}
  0
LWPOLYLINE
  5
1ED
330
70
100
AcDbEntity
  8
A-ALV-___-___-EXI
 62
     7
370
    35
100
AcDbPolyline
 90
        4
 70
     0
 43
0.0
 10
26140.25331588345
 20
-14520.31220038289
 10
25480.25331588345
 20
-14520.3122003829
 10
25480.25331588344
 20
-11120.3122003829
 10
27023.21700316207
 20
-11120.3122003829
1001
REVIT
1002
{
1070
     1
1000
22831858
1002
}
1002
{
1070
     5
1000
3324767
1002
}
1002
{
1070
     2
1000
-2000011
1002
}
  0
LWPOLYLINE
  5
1EE
330
70
100
AcDbEntity
  8
A-ALV-___-___-EXI
 62
     7
370
    35
100
AcDbPolyline
 90
        6
 70
     0
 43
0.0
 10
29230.25331588345
 20
-14520.3122003829
 10
28163.21700316207
 20
-14520.3122003829
 10
28163.21700316207
 20
-11020.3122003829
 10
30780.25331588344
 20
-11020.31220038289
 10
30780.25331588345
 20
-14520.31220038289
 10
29990.25331588345
 20
-14520.3122003829
1001
REVIT
1002
{
1070
     1
1000
22831749
1002
}
1002
{
1070
     5
1000
3324767
1002
}
1002
{
1070
     2
1000
-2000011
1002
}
  0
LINE
  5
1FE
330
70
100
AcDbEntity
  8
A-POR-___-___-EXI
100
AcDbLine
 10
28013.21700316208
 20
-7930.312200382892
 30
0.0
 11
28163.21700316206
 21
-7930.312200382892
 31
0.0
1001
REVIT
1002
{
1070
     1
1000
22832031
1002
}
1002
{
1070
     5
1000
22369135
1002
}
  0
LINE
  5
1FF
330
70
100
AcDbEntity
  8
A-POR-___-___-EXI
100
AcDbLine
 10
28163.21700316206
 20
-7930.312200382892
 30
0.0
 11
28163.21700316206
 21
-7900.312200382891
 31
0.0
1001
REVIT
1002
{
1070
     1
1000
22832031
1002
}
1002
{
1070
     5
1000
22369135
1002
}
  0
LINE
  5
200
330
70
100
AcDbEntity
  8
A-POR-___-___-EXI
100
AcDbLine
 10
28163.21700316206
 20
-7900.312200382891
 30
0.0
 11
28013.21700316208
 21
-7900.312200382891
 31
0.0
1001
REVIT
1002
{
1070
     1
1000
22832031
1002
}
1002
{
1070
     5
1000
22369135
1002
}
  0
LINE
  5
201
330
70
100
AcDbEntity
  8
A-POR-___-___-EXI
100
AcDbLine
 10
28013.21700316208
 20
-7900.312200382891
 30
0.0
 11
28013.21700316208
 21
-7930.312200382892
 31
0.0
1001
REVIT
1002
{
1070
     1
1000
22832031
1002
}
1002
{
1070
     5
1000
22369135
1002
}
  0
LINE
  5
202
330
70
100
AcDbEntity
  8
A-POR-___-___-EXI
100
AcDbLine
 10
28013.21700316208
 20
-7170.312200382891
 30
0.0
 11
28013.21700316208
 21
-7200.312200382893
 31
0.0
1001
REVIT
1002
{
1070
     1
1000
22832031
1002
}
1002
{
1070
     5
1000
22369135
1002
}
  0
LINE
  5
203
330
70
100
AcDbEntity
  8
A-POR-___-___-EXI
100
AcDbLine
 10
28013.21700316208
 20
-7200.312200382893
 30
0.0
 11
28163.21700316207
 21
-7200.312200382893
 31
0.0
1001
REVIT
1002
{
1070
     1
1000
22832031
1002
}
1002
{
1070
     5
1000
22369135
1002
}
  0
LINE
  5
204
330
70
100
AcDbEntity
  8
A-POR-___-___-EXI
100
AcDbLine
 10
28163.21700316207
 20
-7200.312200382893
 30
0.0
 11
28163.21700316207
 21
-7170.312200382891
 31
0.0
1001
REVIT
1002
{
1070
     1
1000
22832031
1002
}
1002
{
1070
     5
1000
22369135
1002
}
  0
LINE
  5
205
330
70
100
AcDbEntity
  8
A-POR-___-___-EXI
100
AcDbLine
 10
28163.21700316207
 20
-7170.312200382891
 30
0.0
 11
28013.21700316208
 21
-7170.312200382891
 31
0.0
1001
REVIT
1002
{
1070
     1
1000
22832031
1002
}
1002
{
1070
     5
1000
22369135
1002
}
  0
LINE
  5
206
330
70
100
AcDbEntity
  8
A-POR-___-___-EXI
100
AcDbLine
 10
28859.21700316207
 20
-7232.312200382896
 30
0.0
 11
28859.21700316207
 21
-7202.312200382895
 31
0.0
1001
REVIT
1002
{
1070
     1
1000
22832031
1002
}
1002
{
1070
     5
1000
22369135
1002
}
  0
LINE
  5
207
330
70
100
AcDbEntity
  8
A-POR-___-___-EXI
100
AcDbLine
 10
28859.21700316207
 20
-7202.312200382895
 30
0.0
 11
28163.21700316206
 21
-7202.312200382893
 31
0.0
1001
REVIT
1002
{
1070
     1
1000
22832031
1002
}
1002
{
1070
     5
1000
22369135
1002
}
  0
LINE
  5
208
330
70
100
AcDbEntity
  8
A-POR-___-___-EXI
100
AcDbLine
 10
28163.21700316206
 20
-7202.312200382893
 30
0.0
 11
28163.21700316206
 21
-7232.312200382896
 31
0.0
1001
REVIT
1002
{
1070
     1
1000
22832031
1002
}
1002
{
1070
     5
1000
22369135
1002
}
  0
LINE
  5
209
330
70
100
AcDbEntity
  8
A-POR-___-___-EXI
100
AcDbLine
 10
28163.21700316206
 20
-7232.312200382896
 30
0.0
 11
28859.21700316207
 21
-7232.312200382896
 31
0.0
1001
REVIT
1002
{
1070
     1
1000
22832031
1002
}
1002
{
1070
     5
1000
22369135
1002
}
  0
ARC
  5
20A
330
70
100
AcDbEntity
  8
A-POR-___-___-EXI
100
AcDbCircle
 10
28163.21700316206
 20
-7202.312200382893
 30
0.0
 40
696.0000000000024
100
AcDbArc
 50
270.0
 51
0.0
1001
REVIT
1002
{
1070
     1
1000
22832031
1002
}
1002
{
1070
     5
1000
22369135
1002
}
1002
{
1070
     3
1000
-2000027
1002
}
  0
LINE
  5
20B
330
70
100
AcDbEntity
  8
A-POR-___-___-EXI
100
AcDbLine
 10
27033.21700316207
 20
-10320.31220038291
 30
0.0
 11
27003.21700316207
 21
-10320.31220038291
 31
0.0
1001
REVIT
1002
{
1070
     1
1000
22832142
1002
}
1002
{
1070
     5
1000
22369137
1002
}
  0
LINE
  5
20C
330
70
100
AcDbEntity
  8
A-POR-___-___-EXI
100
AcDbLine
 10
27033.21700316207
 20
-10170.31220038292
 30
0.0
 11
27033.21700316207
 21
-10320.31220038291
 31
0.0
1001
REVIT
1002
{
1070
     1
1000
22832142
1002
}
1002
{
1070
     5
1000
22369137
1002
}
  0
LINE
  5
20D
330
70
100
AcDbEntity
  8
A-POR-___-___-EXI
100
AcDbLine
 10
27003.21700316207
 20
-10170.31220038292
 30
0.0
 11
27033.21700316207
 21
-10170.31220038292
 31
0.0
1001
REVIT
1002
{
1070
     1
1000
22832142
1002
}
1002
{
1070
     5
1000
22369137
1002
}
  0
LINE
  5
20E
330
70
100
AcDbEntity
  8
A-POR-___-___-EXI
100
AcDbLine
 10
27003.21700316207
 20
-10320.31220038291
 30
0.0
 11
27003.21700316207
 21
-10170.31220038292
 31
0.0
1001
REVIT
1002
{
1070
     1
1000
22832142
1002
}
1002
{
1070
     5
1000
22369137
1002
}
  0
LINE
  5
20F
330
70
100
AcDbEntity
  8
A-POR-___-___-EXI
100
AcDbLine
 10
27963.21700316207
 20
-10170.31220038292
 30
0.0
 11
27963.21700316207
 21
-10320.31220038291
 31
0.0
1001
REVIT
1002
{
1070
     1
1000
22832142
1002
}
1002
{
1070
     5
1000
22369137
1002
}
  0
LINE
  5
210
330
70
100
AcDbEntity
  8
A-POR-___-___-EXI
100
AcDbLine
 10
27933.21700316208
 20
-10170.31220038292
 30
0.0
 11
27963.21700316207
 21
-10170.31220038292
 31
0.0
1001
REVIT
1002
{
1070
     1
1000
22832142
1002
}
1002
{
1070
     5
1000
22369137
1002
}
  0
LINE
  5
211
330
70
100
AcDbEntity
  8
A-POR-___-___-EXI
100
AcDbLine
 10
27933.21700316208
 20
-10320.31220038291
 30
0.0
 11
27933.21700316208
 21
-10170.31220038292
 31
0.0
1001
REVIT
1002
{
1070
     1
1000
22832142
1002
}
1002
{
1070
     5
1000
22369137
1002
}
  0
LINE
  5
212
330
70
100
AcDbEntity
  8
A-POR-___-___-EXI
100
AcDbLine
 10
27963.21700316207
 20
-10320.31220038291
 30
0.0
 11
27933.21700316208
 21
-10320.31220038291
 31
0.0
1001
REVIT
1002
{
1070
     1
1000
22832142
1002
}
1002
{
1070
     5
1000
22369137
1002
}
  0
LINE
  5
213
330
70
100
AcDbEntity
  8
A-POR-___-___-EXI
100
AcDbLine
 10
27901.21700316207
 20
-10170.31220038292
 30
0.0
 11
27901.21700316207
 21
-9274.312200382921
 31
0.0
1001
REVIT
1002
{
1070
     1
1000
22832142
1002
}
1002
{
1070
     5
1000
22369137
1002
}
  0
LINE
  5
214
330
70
100
AcDbEntity
  8
A-POR-___-___-EXI
100
AcDbLine
 10
27931.21700316208
 20
-10170.31220038292
 30
0.0
 11
27901.21700316207
 21
-10170.31220038292
 31
0.0
1001
REVIT
1002
{
1070
     1
1000
22832142
1002
}
1002
{
1070
     5
1000
22369137
1002
}
  0
LINE
  5
215
330
70
100
AcDbEntity
  8
A-POR-___-___-EXI
100
AcDbLine
 10
27931.21700316208
 20
-9274.312200382921
 30
0.0
 11
27931.21700316208
 21
-10170.31220038292
 31
0.0
1001
REVIT
1002
{
1070
     1
1000
22832142
1002
}
1002
{
1070
     5
1000
22369137
1002
}
  0
LINE
  5
216
330
70
100
AcDbEntity
  8
A-POR-___-___-EXI
100
AcDbLine
 10
27901.21700316207
 20
-9274.312200382921
 30
0.0
 11
27931.21700316208
 21
-9274.312200382921
 31
0.0
1001
REVIT
1002
{
1070
     1
1000
22832142
1002
}
1002
{
1070
     5
1000
22369137
1002
}
  0
ARC
  5
217
330
70
100
AcDbEntity
  8
A-POR-___-___-EXI
100
AcDbCircle
 10
27931.21700316208
 20
-10170.31220038292
 30
0.0
 40
896.0000000000041
100
AcDbArc
 50
90.0
 51
180.0
1001
REVIT
1002
{
1070
     1
1000
22832142
1002
}
1002
{
1070
     5
1000
22369137
1002
}
1002
{
1070
     3
1000
-2000027
1002
}
  0
LINE
  5
218
330
70
100
AcDbEntity
  8
A-POR-___-___-EXI
100
AcDbLine
 10
27023.21700316206
 20
-10970.31220038291
 30
0.0
 11
27023.21700316206
 21
-11120.31220038289
 31
0.0
1001
REVIT
1002
{
1070
     1
1000
22832186
1002
}
1002
{
1070
     5
1000
22369137
1002
}
  0
LINE
  5
219
330
70
100
AcDbEntity
  8
A-POR-___-___-EXI
100
AcDbLine
 10
27023.21700316206
 20
-11120.31220038289
 30
0.0
 11
27053.21700316207
 21
-11120.31220038289
 31
0.0
1001
REVIT
1002
{
1070
     1
1000
22832186
1002
}
1002
{
1070
     5
1000
22369137
1002
}
  0
LINE
  5
21A
330
70
100
AcDbEntity
  8
A-POR-___-___-EXI
100
AcDbLine
 10
27053.21700316207
 20
-11120.31220038289
 30
0.0
 11
27053.21700316207
 21
-10970.31220038291
 31
0.0
1001
REVIT
1002
{
1070
     1
1000
22832186
1002
}
1002
{
1070
     5
1000
22369137
1002
}
  0
LINE
  5
21B
330
70
100
AcDbEntity
  8
A-POR-___-___-EXI
100
AcDbLine
 10
27053.21700316207
 20
-10970.31220038291
 30
0.0
 11
27023.21700316206
 21
-10970.31220038291
 31
0.0
1001
REVIT
1002
{
1070
     1
1000
22832186
1002
}
1002
{
1070
     5
1000
22369137
1002
}
  0
LINE
  5
21C
330
70
100
AcDbEntity
  8
A-POR-___-___-EXI
100
AcDbLine
 10
27983.21700316206
 20
-10970.3122003829
 30
0.0
 11
27953.21700316207
 21
-10970.3122003829
 31
0.0
1001
REVIT
1002
{
1070
     1
1000
22832186
1002
}
1002
{
1070
     5
1000
22369137
1002
}
  0
LINE
  5
21D
330
70
100
AcDbEntity
  8
A-POR-___-___-EXI
100
AcDbLine
 10
27953.21700316207
 20
-10970.3122003829
 30
0.0
 11
27953.21700316207
 21
-11120.31220038289
 31
0.0
1001
REVIT
1002
{
1070
     1
1000
22832186
1002
}
1002
{
1070
     5
1000
22369137
1002
}
  0
LINE
  5
21E
330
70
100
AcDbEntity
  8
A-POR-___-___-EXI
100
AcDbLine
 10
27953.21700316207
 20
-11120.31220038289
 30
0.0
 11
27983.21700316206
 21
-11120.31220038289
 31
0.0
1001
REVIT
1002
{
1070
     1
1000
22832186
1002
}
1002
{
1070
     5
1000
22369137
1002
}
  0
LINE
  5
21F
330
70
100
AcDbEntity
  8
A-POR-___-___-EXI
100
AcDbLine
 10
27983.21700316206
 20
-11120.31220038289
 30
0.0
 11
27983.21700316206
 21
-10970.3122003829
 31
0.0
1001
REVIT
1002
{
1070
     1
1000
22832186
1002
}
1002
{
1070
     5
1000
22369137
1002
}
  0
LINE
  5
220
330
70
100
AcDbEntity
  8
A-POR-___-___-EXI
100
AcDbLine
 10
27921.21700316207
 20
-12016.31220038289
 30
0.0
 11
27951.21700316207
 21
-12016.31220038289
 31
0.0
1001
REVIT
1002
{
1070
     1
1000
22832186
1002
}
1002
{
1070
     5
1000
22369137
1002
}
  0
LINE
  5
221
330
70
100
AcDbEntity
  8
A-POR-___-___-EXI
100
AcDbLine
 10
27951.21700316207
 20
-12016.31220038289
 30
0.0
 11
27951.21700316207
 21
-11120.31220038289
 31
0.0
1001
REVIT
1002
{
1070
     1
1000
22832186
1002
}
1002
{
1070
     5
1000
22369137
1002
}
  0
LINE
  5
222
330
70
100
AcDbEntity
  8
A-POR-___-___-EXI
100
AcDbLine
 10
27951.21700316207
 20
-11120.31220038289
 30
0.0
 11
27921.21700316207
 21
-11120.31220038289
 31
0.0
1001
REVIT
1002
{
1070
     1
1000
22832186
1002
}
1002
{
1070
     5
1000
22369137
1002
}
  0
LINE
  5
223
330
70
100
AcDbEntity
  8
A-POR-___-___-EXI
100
AcDbLine
 10
27921.21700316207
 20
-11120.31220038289
 30
0.0
 11
27921.21700316207
 21
-12016.31220038289
 31
0.0
1001
REVIT
1002
{
1070
     1
1000
22832186
1002
}
1002
{
1070
     5
1000
22369137
1002
}
  0
ARC
  5
224
330
70
100
AcDbEntity
  8
A-POR-___-___-EXI
100
AcDbCircle
 10
27951.21700316207
 20
-11120.31220038289
 30
0.0
 40
896.0000000000041
100
AcDbArc
 50
180.0
 51
270.0
1001
REVIT
1002
{
1070
     1
1000
22832186
1002
}
1002
{
1070
     5
1000
22369137
1002
}
1002
{
1070
     3
1000
-2000027
1002
}
  0
LINE
  5
225
330
70
100
AcDbEntity
  8
A-POR-___-___-EXI
100
AcDbLine
 10
26140.25331588345
 20
-14670.3122003829
 30
0.0
 11
26170.25331588345
 21
-14670.3122003829
 31
0.0
1001
REVIT
1002
{
1070
     1
1000
22832210
1002
}
1002
{
1070
     5
1000
22369145
1002
}
  0
LINE
  5
226
330
70
100
AcDbEntity
  8
A-POR-___-___-EXI
100
AcDbLine
 10
26170.25331588345
 20
-14670.3122003829
 30
0.0
 11
26170.25331588345
 21
-14520.31220038291
 31
0.0
1001
REVIT
1002
{
1070
     1
1000
22832210
1002
}
1002
{
1070
     5
1000
22369145
1002
}
  0
LINE
  5
227
330
70
100
AcDbEntity
  8
A-POR-___-___-EXI
100
AcDbLine
 10
26170.25331588345
 20
-14520.31220038291
 30
0.0
 11
26140.25331588345
 21
-14520.31220038291
 31
0.0
1001
REVIT
1002
{
1070
     1
1000
22832210
1002
}
1002
{
1070
     5
1000
22369145
1002
}
  0
LINE
  5
228
330
70
100
AcDbEntity
  8
A-POR-___-___-EXI
100
AcDbLine
 10
26140.25331588345
 20
-14520.31220038291
 30
0.0
 11
26140.25331588345
 21
-14670.3122003829
 31
0.0
1001
REVIT
1002
{
1070
     1
1000
22832210
1002
}
1002
{
1070
     5
1000
22369145
1002
}
  0
LINE
  5
229
330
70
100
AcDbEntity
  8
A-POR-___-___-EXI
100
AcDbLine
 10
27000.25331588344
 20
-14670.3122003829
 30
0.0
 11
27000.25331588344
 21
-14520.31220038291
 31
0.0
1001
REVIT
1002
{
1070
     1
1000
22832210
1002
}
1002
{
1070
     5
1000
22369145
1002
}
  0
LINE
  5
22A
330
70
100
AcDbEntity
  8
A-POR-___-___-EXI
100
AcDbLine
 10
27000.25331588344
 20
-14520.31220038291
 30
0.0
 11
26970.25331588345
 21
-14520.31220038291
 31
0.0
1001
REVIT
1002
{
1070
     1
1000
22832210
1002
}
1002
{
1070
     5
1000
22369145
1002
}
  0
LINE
  5
22B
330
70
100
AcDbEntity
  8
A-POR-___-___-EXI
100
AcDbLine
 10
26970.25331588345
 20
-14520.31220038291
 30
0.0
 11
26970.25331588345
 21
-14670.3122003829
 31
0.0
1001
REVIT
1002
{
1070
     1
1000
22832210
1002
}
1002
{
1070
     5
1000
22369145
1002
}
  0
LINE
  5
22C
330
70
100
AcDbEntity
  8
A-POR-___-___-EXI
100
AcDbLine
 10
26970.25331588345
 20
-14670.3122003829
 30
0.0
 11
27000.25331588344
 21
-14670.3122003829
 31
0.0
1001
REVIT
1002
{
1070
     1
1000
22832210
1002
}
1002
{
1070
     5
1000
22369145
1002
}
  0
LINE
  5
22D
330
70
100
AcDbEntity
  8
A-POR-___-___-EXI
100
AcDbLine
 10
26202.25331588344
 20
-13724.31220038291
 30
0.0
 11
26172.25331588345
 21
-13724.31220038291
 31
0.0
1001
REVIT
1002
{
1070
     1
1000
22832210
1002
}
1002
{
1070
     5
1000
22369145
1002
}
  0
LINE
  5
22E
330
70
100
AcDbEntity
  8
A-POR-___-___-EXI
100
AcDbLine
 10
26172.25331588345
 20
-13724.31220038291
 30
0.0
 11
26172.25331588345
 21
-14520.31220038291
 31
0.0
1001
REVIT
1002
{
1070
     1
1000
22832210
1002
}
1002
{
1070
     5
1000
22369145
1002
}
  0
LINE
  5
22F
330
70
100
AcDbEntity
  8
A-POR-___-___-EXI
100
AcDbLine
 10
26172.25331588345
 20
-14520.31220038291
 30
0.0
 11
26202.25331588344
 21
-14520.31220038291
 31
0.0
1001
REVIT
1002
{
1070
     1
1000
22832210
1002
}
1002
{
1070
     5
1000
22369145
1002
}
  0
LINE
  5
230
330
70
100
AcDbEntity
  8
A-POR-___-___-EXI
100
AcDbLine
 10
26202.25331588344
 20
-14520.31220038291
 30
0.0
 11
26202.25331588344
 21
-13724.31220038291
 31
0.0
1001
REVIT
1002
{
1070
     1
1000
22832210
1002
}
1002
{
1070
     5
1000
22369145
1002
}
  0
ARC
  5
231
330
70
100
AcDbEntity
  8
A-POR-___-___-EXI
100
AcDbCircle
 10
26172.25331588345
 20
-14520.31220038291
 30
0.0
 40
795.9999999999988
100
AcDbArc
 50
0.0
 51
90.0
1001
REVIT
1002
{
1070
     1
1000
22832210
1002
}
1002
{
1070
     5
1000
22369145
1002
}
1002
{
1070
     3
1000
-2000027
1002
}
  0
LINE
  5
232
330
70
100
AcDbEntity
  8
A-POR-___-___-EXI
100
AcDbLine
 10
29990.25331588345
 20
-14670.3122003829
 30
0.0
 11
29990.25331588345
 21
-14520.31220038292
 31
0.0
1001
REVIT
1002
{
1070
     1
1000
22832031
1002
}
1002
{
1070
     5
1000
22369135
1002
}
  0
LINE
  5
233
330
70
100
AcDbEntity
  8
A-POR-___-___-EXI
100
AcDbLine
 10
29990.25331588345
 20
-14520.31220038292
 30
0.0
 11
29960.25331588344
 21
-14520.31220038292
 31
0.0
1001
REVIT
1002
{
1070
     1
1000
22832031
1002
}
1002
{
1070
     5
1000
22369135
1002
}
  0
LINE
  5
234
330
70
100
AcDbEntity
  8
A-POR-___-___-EXI
100
AcDbLine
 10
29960.25331588344
 20
-14520.31220038292
 30
0.0
 11
29960.25331588344
 21
-14670.3122003829
 31
0.0
1001
REVIT
1002
{
1070
     1
1000
22832031
1002
}
1002
{
1070
     5
1000
22369135
1002
}
  0
LINE
  5
235
330
70
100
AcDbEntity
  8
A-POR-___-___-EXI
100
AcDbLine
 10
29960.25331588344
 20
-14670.3122003829
 30
0.0
 11
29990.25331588345
 21
-14670.3122003829
 31
0.0
1001
REVIT
1002
{
1070
     1
1000
22832031
1002
}
1002
{
1070
     5
1000
22369135
1002
}
  0
LINE
  5
236
330
70
100
AcDbEntity
  8
A-POR-___-___-EXI
100
AcDbLine
 10
29230.25331588345
 20
-14670.3122003829
 30
0.0
 11
29260.25331588344
 21
-14670.3122003829
 31
0.0
1001
REVIT
1002
{
1070
     1
1000
22832031
1002
}
1002
{
1070
     5
1000
22369135
1002
}
  0
LINE
  5
237
330
70
100
AcDbEntity
  8
A-POR-___-___-EXI
100
AcDbLine
 10
29260.25331588344
 20
-14670.3122003829
 30
0.0
 11
29260.25331588344
 21
-14520.31220038291
 31
0.0
1001
REVIT
1002
{
1070
     1
1000
22832031
1002
}
1002
{
1070
     5
1000
22369135
1002
}
  0
LINE
  5
238
330
70
100
AcDbEntity
  8
A-POR-___-___-EXI
100
AcDbLine
 10
29260.25331588344
 20
-14520.31220038291
 30
0.0
 11
29230.25331588345
 21
-14520.31220038291
 31
0.0
1001
REVIT
1002
{
1070
     1
1000
22832031
1002
}
1002
{
1070
     5
1000
22369135
1002
}
  0
LINE
  5
239
330
70
100
AcDbEntity
  8
A-POR-___-___-EXI
100
AcDbLine
 10
29230.25331588345
 20
-14520.31220038291
 30
0.0
 11
29230.25331588345
 21
-14670.3122003829
 31
0.0
1001
REVIT
1002
{
1070
     1
1000
22832031
1002
}
1002
{
1070
     5
1000
22369135
1002
}
  0
LINE
  5
23A
330
70
100
AcDbEntity
  8
A-POR-___-___-EXI
100
AcDbLine
 10
29292.25331588344
 20
-13824.31220038291
 30
0.0
 11
29262.25331588344
 21
-13824.31220038291
 31
0.0
1001
REVIT
1002
{
1070
     1
1000
22832031
1002
}
1002
{
1070
     5
1000
22369135
1002
}
  0
LINE
  5
23B
330
70
100
AcDbEntity
  8
A-POR-___-___-EXI
100
AcDbLine
 10
29262.25331588344
 20
-13824.31220038291
 30
0.0
 11
29262.25331588344
 21
-14520.31220038292
 31
0.0
1001
REVIT
1002
{
1070
     1
1000
22832031
1002
}
1002
{
1070
     5
1000
22369135
1002
}
  0
LINE
  5
23C
330
70
100
AcDbEntity
  8
A-POR-___-___-EXI
100
AcDbLine
 10
29262.25331588344
 20
-14520.31220038292
 30
0.0
 11
29292.25331588344
 21
-14520.31220038292
 31
0.0
1001
REVIT
1002
{
1070
     1
1000
22832031
1002
}
1002
{
1070
     5
1000
22369135
1002
}
  0
LINE
  5
23D
330
70
100
AcDbEntity
  8
A-POR-___-___-EXI
100
AcDbLine
 10
29292.25331588344
 20
-14520.31220038292
 30
0.0
 11
29292.25331588344
 21
-13824.31220038291
 31
0.0
1001
REVIT
1002
{
1070
     1
1000
22832031
1002
}
1002
{
1070
     5
1000
22369135
1002
}
  0
ARC
  5
23E
330
70
100
AcDbEntity
  8
A-POR-___-___-EXI
100
AcDbCircle
 10
29262.25331588344
 20
-14520.31220038292
 30
0.0
 40
696.0000000000024
100
AcDbArc
 50
0.0
 51
90.0
1001
REVIT
1002
{
1070
     1
1000
22832031
1002
}
1002
{
1070
     5
1000
22369135
1002
}
1002
{
1070
     3
1000
-2000027
1002
}
  0
VIEWPORT
  5
1A2
330
6C
100
AcDbEntity
 67
     1
  8
A-ESC-___-___-EXI
100
AcDbViewport
 10
169.5999336486109
 20
209.3605120474961
 30
0.0
 40
59.00000000000002
 41
123.7
 68
     2
 69
     2
 12
28130.25331588344
 22
-12795.3122003829
 13
0.0
 23
0.0
 14
0.0
 24
0.0
 15
0.0
 25
0.0
 16
0.0
 26
0.0
 36
1.0
 17
0.0
 27
0.0
 37
0.0
 42
0.0
 43
0.0
 44
0.0
 45
12370.0
 50
0.0
 51
0.0
 72
  1000
 90
    32768
  1

281
     0
 71
     1
 74
     1
110
0.0
120
0.0
130
0.0
111
1.0
121
0.0
131
0.0
112
0.0
122
1.0
132
0.0
 79
     0
146
0.0
170
     0
 61
     5
292
     1
282
     1
141
0.0
142
0.0
 63
   250
421
  3355443
  0
VIEWPORT
  5
1A4
330
6C
100
AcDbEntity
 67
     1
  8
0
100
AcDbViewport
 10
13.18725099601594
 20
4.5
 30
0.0
 40
30.37450199203187
 41
12.0
 68
     1
 69
     1
 12
13.18725099601594
 22
4.5
 13
0.0
 23
0.0
 14
0.0
 24
0.0
 15
0.0
 25
0.0
 16
0.0
 26
0.0
 36
1.0
 17
0.0
 27
0.0
 37
0.0
 42
50.0
 43
0.0
 44
0.0
 45
12.0
 50
0.0
 51
0.0
 72
   100
 90
    32800
  1

281
     0
 71
     1
 74
     1
110
0.0
120
0.0
130
0.0
111
1.0
121
0.0
131
0.0
112
0.0
122
1.0
132
0.0
 79
     0
146
0.0
170
     0
 61
     5
348
2F
292
     1
282
     1
141
0.0
142
0.0
 63
   250
421
  3355443
  0
INSERT
  5
1B0
330
6C
100
AcDbEntity
 67
     1
  8
A-PIL-___-___-EXI
100
AcDbBlockReference
  2
SVG - A4-22877114-Não nomeada
 10
0.0
 20
0.0
 30
0.0
1001
REVIT
1002
{
1070
     1
1000
22877141
1002
}
1002
{
1070
     5
1000
22877114
1002
}
1002
{
1070
     2
1000
-2000280
1002
}
  0
ENDSEC
  0
SECTION
  2
OBJECTS
  0
DICTIONARY
  5
C
330
0
100
AcDbDictionary
281
     1
  3
ACAD_CIP_PREVIOUS_PRODUCT_INFO
350
79
  3
ACAD_COLOR
350
63
  3
ACAD_DETAILVIEWSTYLE
350
6A
  3
ACAD_GROUP
350
D
  3
ACAD_IMAGE_VARS
350
7A
  3
ACAD_LAYOUT
350
62
  3
ACAD_MATERIAL
350
10
  3
ACAD_MLEADERSTYLE
350
66
  3
ACAD_MLINESTYLE
350
5F
  3
ACAD_PLOTSETTINGS
350
61
  3
ACAD_PLOTSTYLENAME
350
E
  3
ACAD_RENDER_ACTIVE_RAPIDRT_SETTINGS
350
1D9
  3
ACAD_RENDER_RAPIDRT_SETTINGS
350
1D2
  3
ACAD_SCALELIST
350
42
  3
ACAD_SECTIONVIEWSTYLE
350
68
  3
ACAD_TABLESTYLE
350
64
  3
ACAD_VISUALSTYLE
350
29
  3
ACDB_RECOMPOSE_DATA
350
260
  3
AcDbVariableDictionary
350
1B9
  3
REVIT_DICTIONARY
350
1B1
  0
SUN
  5
1B8
330
57
100
AcDbSun
 90
        1
290
     1
 63
     7
421
 16777215
 40
0.3
291
     1
 91
  2460364
 92
 50548000
292
     0
 70
     1
 71
   128
280
     1
  0
DICTIONARY
  5
1CD
330
2
100
AcDbDictionary
280
     1
281
     1
  3
ACAD_LAYERSTATES
360
1CE
  0
DICTIONARY
  5
1B6
330
70
100
AcDbDictionary
280
     1
281
     1
  3
ACAD_SORTENTS
360
1B7
  0
XRECORD
  5
79
102
{ACAD_REACTORS
330
C
102
}
330
C
100
AcDbXrecord
280
     1
300
ACD
300
2022
300

  0
DICTIONARY
  5
63
102
{ACAD_REACTORS
330
C
102
}
330
C
100
AcDbDictionary
281
     1
  0
DICTIONARY
  5
6A
102
{ACAD_REACTORS
330
C
102
}
330
C
100
AcDbDictionary
281
     1
  3
Imperial24
350
6B
  3
Metric50
350
1C1
  0
DICTIONARY
  5
D
102
{ACAD_REACTORS
330
C
102
}
330
C
100
AcDbDictionary
281
     1
  0
RASTERVARIABLES
  5
7A
102
{ACAD_REACTORS
330
C
102
}
330
C
100
AcDbRasterVariables
 90
        0
 70
     0
 71
     1
 72
     1
  0
DICTIONARY
  5
62
102
{ACAD_REACTORS
330
C
102
}
330
C
100
AcDbDictionary
281
     1
  3
Layout1
350
6F
  3
Model
350
73
  0
DICTIONARY
  5
10
102
{ACAD_REACTORS
330
C
102
}
330
C
100
AcDbDictionary
281
     1
  3
ByBlock
350
19
  3
ByLayer
350
11
  3
Global
350
21
  0
DICTIONARY
  5
66
102
{ACAD_REACTORS
330
C
102
}
330
C
100
AcDbDictionary
281
     1
  3
Standard
350
67
  0
DICTIONARY
  5
5F
102
{ACAD_REACTORS
330
C
102
}
330
C
100
AcDbDictionary
281
     1
  3
Standard
350
60
  0
DICTIONARY
  5
61
102
{ACAD_REACTORS
330
C
102
}
330
C
100
AcDbDictionary
281
     1
  0
ACDBDICTIONARYWDFLT
  5
E
102
{ACAD_REACTORS
330
C
102
}
330
C
100
AcDbDictionary
281
     1
  3
Normal
350
F
100
AcDbDictionaryWithDefault
340
F
  0
RAPIDRTRENDERSETTINGS
  5
1D9
102
{ACAD_REACTORS
330
C
102
}
330
C
100
AcDbRenderSettings
 90
        2
  1
Médio
290
     1
290
     0
290
     1
290
     1
  1

  1
Aplica 5 níveis de renderização
 90
        0
100
AcDbRapidRTRenderSettings
 90
        3
 70
     0
 90
        5
 90
        1
 70
     1
 70
     2
 40
3.0
 40
3.0
290
     1
  0
DICTIONARY
  5
1D2
102
{ACAD_REACTORS
330
C
102
}
330
C
100
AcDbDictionary
281
     1
  3
Alto
350
1D5
  3
Baixo
350
1D3
  3
Médio
350
1D4
  3
Qualidade de curta duração
350
1D6
  3
Qualidade de longa duração
350
1D8
  3
Qualidade de média duração
350
1D7
  0
DICTIONARY
  5
42
102
{ACAD_REACTORS
330
C
102
}
330
C
100
AcDbDictionary
281
     1
  3
A0
350
43
  3
A1
350
44
  3
A2
350
45
  3
A3
350
46
  3
A4
350
47
  3
A5
350
48
  3
A6
350
49
  3
A7
350
4A
  3
A8
350
4B
  3
A9
350
4C
  3
B0
350
4D
  3
B1
350
4E
  3
B2
350
4F
  3
B3
350
50
  3
B4
350
51
  3
B5
350
52
  3
B6
350
53
  0
DICTIONARY
  5
68
102
{ACAD_REACTORS
330
C
102
}
330
C
100
AcDbDictionary
281
     1
  3
Imperial24
350
69
  3
Metric50
350
1C0
  0
DICTIONARY
  5
64
102
{ACAD_REACTORS
330
C
102
}
330
C
100
AcDbDictionary
281
     1
  3
Standard
350
65
  0
DICTIONARY
  5
29
102
{ACAD_REACTORS
330
C
102
}
330
C
100
AcDbDictionary
281
     1
  3
2dWireframe
350
2F
  3
Basic
350
2E
  3
Brighten
350
35
  3
ColorChange
350
39
  3
Conceptual
350
32
  3
Dim
350
34
  3
EdgeColorOff
350
41
  3
Facepattern
350
38
  3
Flat
350
2A
  3
FlatWithEdges
350
2B
  3
Gouraud
350
2C
  3
GouraudWithEdges
350
2D
  3
Hidden
350
31
  3
JitterOff
350
3F
  3
Linepattern
350
37
  3
OverhangOff
350
40
  3
Realistic
350
33
  3
Shaded
350
3E
  3
Shaded with edges
350
3D
  3
Shades of Gray
350
3A
  3
Sketchy
350
3B
  3
Thicken
350
36
  3
Wireframe
350
30
  3
X-Ray
350
3C
  0
XRECORD
  5
260
102
{ACAD_REACTORS
330
C
102
}
330
C
100
AcDbXrecord
280
     1
 90
        1
330
65
  0
DICTIONARY
  5
1B9
102
{ACAD_REACTORS
330
C
102
}
330
C
100
AcDbDictionary
281
     1
  3
CANNOSCALE
350
1BE
  3
CMLEADERSTYLE
350
1BB
  3
CTABLESTYLE
350
1BA
  3
CVIEWDETAILSTYLE
350
1BC
  3
CVIEWSECTIONSTYLE
350
1BD
  0
DICTIONARY
  5
1B1
102
{ACAD_REACTORS
330
C
102
}
330
C
100
AcDbDictionary
281
     1
  3
DRAWING_TOOL
350
1B5
  3
REVIT_CATEGORY_MAPPING
350
1B3
  3
REVIT_SUB_CATEGORY_MAPPING
350
1B4
  3
REVIT_TYPE_MAPPING
350
1B2
  0
DICTIONARY
  5
1CE
102
{ACAD_REACTORS
330
1CD
102
}
330
1CD
100
AcDbDictionary
281
     1
  0
SORTENTSTABLE
  5
1B7
102
{ACAD_REACTORS
330
1B6
102
}
330
1B6
100
AcDbSortentsTable
330
70
331
18D
  5
220
331
18E
  5
221
331
18F
  5
222
331
190
  5
223
331
191
  5
224
331
192
  5
225
331
193
  5
226
331
194
  5
227
331
195
  5
228
331
196
  5
229
331
1DA
  5
22A
331
1DB
  5
22B
331
1DC
  5
22C
331
1DD
  5
22D
331
1DE
  5
22E
331
1DF
  5
22F
331
1E0
  5
230
331
1E1
  5
231
331
1E2
  5
232
331
1E3
  5
233
331
1E4
  5
234
331
1E5
  5
235
331
1E6
  5
236
331
1E7
  5
237
331
1E8
  5
238
331
1E9
  5
239
331
1EA
  5
23A
331
1EB
  5
23B
331
1EC
  5
23C
331
1ED
  5
23D
331
1EE
  5
23E
331
1FE
  5
18D
331
1FF
  5
18E
331
200
  5
18F
331
201
  5
190
331
202
  5
191
331
203
  5
192
331
204
  5
193
331
205
  5
194
331
206
  5
195
331
207
  5
196
331
208
  5
1DA
331
209
  5
1DB
331
20A
  5
1DC
331
20B
  5
1DD
331
20C
  5
1DE
331
20D
  5
1DF
331
20E
  5
1E0
331
20F
  5
1E1
331
210
  5
1E2
331
211
  5
1E3
331
212
  5
1E4
331
213
  5
1E5
331
214
  5
1E6
331
215
  5
1E7
331
216
  5
1E8
331
217
  5
1E9
331
218
  5
1EA
331
219
  5
1EB
331
21A
  5
1EC
331
21B
  5
1ED
331
21C
  5
1EE
331
21D
  5
1FE
331
21E
  5
1FF
331
21F
  5
200
331
220
  5
201
331
221
  5
202
331
222
  5
203
331
223
  5
204
331
224
  5
205
331
225
  5
206
331
226
  5
207
331
227
  5
208
331
228
  5
209
331
229
  5
20A
331
22A
  5
20B
331
22B
  5
20C
331
22C
  5
20D
331
22D
  5
20E
331
22E
  5
20F
331
22F
  5
210
331
230
  5
211
331
231
  5
212
331
232
  5
213
331
233
  5
214
331
234
  5
215
331
235
  5
216
331
236
  5
217
331
237
  5
218
331
238
  5
219
331
239
  5
21A
331
23A
  5
21B
331
23B
  5
21C
331
23C
  5
21D
331
23D
  5
21E
331
23E
  5
21F
  0
ACDBDETAILVIEWSTYLE
  5
6B
102
{ACAD_REACTORS
330
6A
102
}
330
6A
100
AcDbModelDocViewStyle
 70
     0
  3
Imperial24
290
     1
300
Imperial24
 90
        0
100
AcDbDetailViewStyle
 70
     0
 71
     0
 90
        3
 71
     1
340
55
 62
   256
 40
0.24
340
0
 62
   256
 40
0.24
300

 40
0.36
280
     3
 71
     2
340
5D
 90
       25
 62
   256
 71
     3
340
55
 62
   256
 40
0.24
 90
        1
 40
0.75
 90
        1
300
%<\AcVar ViewType \f "%tc1">% %<\AcVar ViewDetailId>%\PSCALE %<\AcVar ViewScale \f "%sn">%
 71
     4
340
5D
 90
       25
 62
   256
340
5D
 90
       25
 62
   256
280
     0
  0
ACDBDETAILVIEWSTYLE
  5
1C1
102
{ACAD_REACTORS
330
6A
102
}
330
6A
100
AcDbModelDocViewStyle
 70
     0
  3
Metric50
290
     1
300
Metric50
 90
        0
100
AcDbDetailViewStyle
 70
     0
 71
     0
 90
        3
 71
     1
340
55
 62
   256
 40
5.0
340
0
 62
   256
 40
5.0
300

 40
0.0
280
     1
 71
     2
340
5D
 90
       25
 62
   256
 71
     3
340
55
 62
   256
 40
5.0
 90
        0
 40
15.0
 90
        1
300
%<\AcVar ViewDetailId>% (%<\AcVar ViewScale \f "%sn">%)
 71
     4
340
5D
 90
       25
 62
   256
340
5D
 90
       25
 62
   256
280
     0
  0
LAYOUT
  5
6F
102
{ACAD_REACTORS
330
62
102
}
330
62
100
AcDbPlotSettings
  1

  2
PDF24
  4
A4
  6

 40
0.0
 41
0.0
 42
0.1113433837890625
 43
0.0
 44
210.0
 45
297.0
 46
0.0
 47
0.0
 48
0.0
 49
0.0
140
0.0
141
0.0
142
1.0
143
1.415217033324818
 70
   688
 72
     1
 73
     1
 74
     1
  7

 75
     0
147
0.7066054014702363
 76
     0
 77
     2
 78
   300
148
-64.27901684485153
149
-59.47287840171589
100
AcDbLayout
  1
Layout1
 70
     0
 71
     1
 10
64.27901684485153
 20
59.47287840171589
 11
484.5984757423225
 21
356.6684553999278
 12
0.0
 22
0.0
 32
0.0
 14
64.27901684485153
 24
59.47287840171589
 34
-0.0015258207003583
 15
274.3012221009852
 25
356.5108803466415
 35
0.0000000349246037
146
0.0
 13
0.0
 23
0.0
 33
0.0
 16
1.0
 26
0.0
 36
0.0
 17
0.0
 27
1.0
 37
0.0
 76
     0
330
6C
331
1A4
1001
ACAD_PSEXT
1000
PDF24
1000
PDF24
1000
\\.\pipe\PDFPrint
1000
PDF24 Printer
1070
     0
  0
LAYOUT
  5
73
102
{ACAD_REACTORS
330
62
102
}
330
62
100
AcDbPlotSettings
  1

  2

  4

  6

 40
0.0
 41
0.0
 42
0.0
 43
0.0
 44
0.0
 45
0.0
 46
0.0
 47
0.0
 48
0.0
 49
0.0
140
0.0
141
0.0
142
1.0
143
1.0
 70
  1712
 72
     0
 73
     0
 74
     0
  7

 75
     0
147
1.0
 76
     0
 77
     2
 78
   300
148
0.0
149
0.0
100
AcDbLayout
  1
Model
 70
     1
 71
     0
 10
0.0
 20
0.0
 11
12.0
 21
9.0
 12
0.0
 22
0.0
 32
0.0
 14
0.0
 24
0.0
 34
0.0
 15
0.0
 25
0.0
 35
0.0
146
0.0
 13
0.0
 23
0.0
 33
0.0
 16
1.0
 26
0.0
 36
0.0
 17
0.0
 27
1.0
 37
0.0
 76
     0
330
70
331
57
  0
MATERIAL
  5
19
102
{ACAD_XDICTIONARY
360
1A
102
}
102
{ACAD_REACTORS
330
10
102
}
330
10
100
AcDbMaterial
  1
ByBlock
 72
     0
 43
0.0208333333333333
 43
0.0
 43
0.0
 43
0.0
 43
0.0
 43
0.0208333333333333
 43
0.0
 43
0.0
 43
0.0
 43
0.0
 43
1.0
 43
0.0
 43
0.0
 43
0.0
 43
0.0
 43
1.0
 77
     0
 47
0.0208333333333333
 47
0.0
 47
0.0
 47
0.0
 47
0.0
 47
0.0208333333333333
 47
0.0
 47
0.0
 47
0.0
 47
0.0
 47
1.0
 47
0.0
 47
0.0
 47
0.0
 47
0.0
 47
1.0
171
     0
 49
0.0208333333333333
 49
0.0
 49
0.0
 49
0.0
 49
0.0
 49
0.0208333333333333
 49
0.0
 49
0.0
 49
0.0
 49
0.0
 49
1.0
 49
0.0
 49
0.0
 49
0.0
 49
0.0
 49
1.0
175
     0
142
0.0208333333333333
142
0.0
142
0.0
142
0.0
142
0.0
142
0.0208333333333333
142
0.0
142
0.0
142
0.0
142
0.0
142
1.0
142
0.0
142
0.0
142
0.0
142
0.0
142
1.0
179
     0
144
0.0208333333333333
144
0.0
144
0.0
144
0.0
144
0.0
144
0.0208333333333333
144
0.0
144
0.0
144
0.0
144
0.0
144
1.0
144
0.0
144
0.0
144
0.0
144
0.0
144
1.0
147
0.0208333333333333
147
0.0
147
0.0
147
0.0
147
0.0
147
0.0208333333333333
147
0.0
147
0.0
147
0.0
147
0.0
147
1.0
147
0.0
147
0.0
147
0.0
147
0.0
147
1.0
  0
MATERIAL
  5
11
102
{ACAD_XDICTIONARY
360
12
102
}
102
{ACAD_REACTORS
330
10
102
}
330
10
100
AcDbMaterial
  1
ByLayer
 72
     0
 43
0.0208333333333333
 43
0.0
 43
0.0
 43
0.0
 43
0.0
 43
0.0208333333333333
 43
0.0
 43
0.0
 43
0.0
 43
0.0
 43
1.0
 43
0.0
 43
0.0
 43
0.0
 43
0.0
 43
1.0
 77
     0
 47
0.0208333333333333
 47
0.0
 47
0.0
 47
0.0
 47
0.0
 47
0.0208333333333333
 47
0.0
 47
0.0
 47
0.0
 47
0.0
 47
1.0
 47
0.0
 47
0.0
 47
0.0
 47
0.0
 47
1.0
171
     0
 49
0.0208333333333333
 49
0.0
 49
0.0
 49
0.0
 49
0.0
 49
0.0208333333333333
 49
0.0
 49
0.0
 49
0.0
 49
0.0
 49
1.0
 49
0.0
 49
0.0
 49
0.0
 49
0.0
 49
1.0
175
     0
142
0.0208333333333333
142
0.0
142
0.0
142
0.0
142
0.0
142
0.0208333333333333
142
0.0
142
0.0
142
0.0
142
0.0
142
1.0
142
0.0
142
0.0
142
0.0
142
0.0
142
1.0
179
     0
144
0.0208333333333333
144
0.0
144
0.0
144
0.0
144
0.0
144
0.0208333333333333
144
0.0
144
0.0
144
0.0
144
0.0
144
1.0
144
0.0
144
0.0
144
0.0
144
0.0
144
1.0
147
0.0208333333333333
147
0.0
147
0.0
147
0.0
147
0.0
147
0.0208333333333333
147
0.0
147
0.0
147
0.0
147
0.0
147
1.0
147
0.0
147
0.0
147
0.0
147
0.0
147
1.0
  0
MATERIAL
  5
21
102
{ACAD_XDICTIONARY
360
22
102
}
102
{ACAD_REACTORS
330
10
102
}
330
10
100
AcDbMaterial
  1
Global
 72
     0
 43
0.0208333333333333
 43
0.0
 43
0.0
 43
0.0
 43
0.0
 43
0.0208333333333333
 43
0.0
 43
0.0
 43
0.0
 43
0.0
 43
1.0
 43
0.0
 43
0.0
 43
0.0
 43
0.0
 43
1.0
 77
     0
 47
0.0208333333333333
 47
0.0
 47
0.0
 47
0.0
 47
0.0
 47
0.0208333333333333
 47
0.0
 47
0.0
 47
0.0
 47
0.0
 47
1.0
 47
0.0
 47
0.0
 47
0.0
 47
0.0
 47
1.0
171
     0
 49
0.0208333333333333
 49
0.0
 49
0.0
 49
0.0
 49
0.0
 49
0.0208333333333333
 49
0.0
 49
0.0
 49
0.0
 49
0.0
 49
1.0
 49
0.0
 49
0.0
 49
0.0
 49
0.0
 49
1.0
175
     0
142
0.0208333333333333
142
0.0
142
0.0
142
0.0
142
0.0
142
0.0208333333333333
142
0.0
142
0.0
142
0.0
142
0.0
142
1.0
142
0.0
142
0.0
142
0.0
142
0.0
142
1.0
179
     0
144
0.0208333333333333
144
0.0
144
0.0
144
0.0
144
0.0
144
0.0208333333333333
144
0.0
144
0.0
144
0.0
144
0.0
144
1.0
144
0.0
144
0.0
144
0.0
144
0.0
144
1.0
147
0.0208333333333333
147
0.0
147
0.0
147
0.0
147
0.0
147
0.0208333333333333
147
0.0
147
0.0
147
0.0
147
0.0
147
1.0
147
0.0
147
0.0
147
0.0
147
0.0
147
1.0
  0
MLEADERSTYLE
  5
67
102
{ACAD_REACTORS
330
66
102
}
330
66
100
AcDbMLeaderStyle
179
     2
170
     2
171
     1
172
     0
 90
        2
 40
0.0
 41
0.0
173
     1
 91
-1056964608
340
5B
 92
       -2
290
     1
 42
0.09
291
     1
 43
0.36
  3
Standard
 44
0.18
300

342
55
174
     1
178
     6
175
     1
176
     0
 93
-1056964608
 45
0.18
292
     0
297
     0
 46
0.18
 94
-1056964608
 47
1.0
 49
1.0
140
1.0
293
     1
141
0.0
294
     1
177
     0
142
1.0
295
     1
296
     0
143
0.125
271
     0
272
     9
273
     9
298
     1
  0
MLINESTYLE
  5
60
102
{ACAD_REACTORS
330
5F
102
}
330
5F
100
AcDbMlineStyle
  2
STANDARD
 70
     0
  3

 62
   256
 51
90.0
 52
90.0
 71
     2
 49
0.5
 62
   256
  6
BYLAYER
 49
-0.5
 62
   256
  6
BYLAYER
  0
ACDBPLACEHOLDER
  5
F
102
{ACAD_REACTORS
330
E
102
}
330
E
  0
RAPIDRTRENDERSETTINGS
  5
1D5
102
{ACAD_REACTORS
330
1D2
102
}
330
1D2
100
AcDbRenderSettings
 90
        2
  1
Alto
290
     1
290
     0
290
     1
290
     1
  1

  1
Aplica 10 níveis de renderização
 90
        2
100
AcDbRapidRTRenderSettings
 90
        3
 70
     0
 90
       10
 90
        1
 70
     2
 70
     2
 40
3.0
 40
3.0
290
     1
  0
RAPIDRTRENDERSETTINGS
  5
1D3
102
{ACAD_REACTORS
330
1D2
102
}
330
1D2
100
AcDbRenderSettings
 90
        2
  1
Baixo
290
     1
290
     0
290
     1
290
     1
  1

  1
Aplica 1 nível de renderização
 90
        0
100
AcDbRapidRTRenderSettings
 90
        3
 70
     0
 90
        1
 90
        1
 70
     0
 70
     2
 40
3.0
 40
3.0
290
     1
  0
RAPIDRTRENDERSETTINGS
  5
1D4
102
{ACAD_REACTORS
330
1D2
102
}
330
1D2
100
AcDbRenderSettings
 90
        2
  1
Médio
290
     1
290
     0
290
     1
290
     1
  1

  1
Aplica 5 níveis de renderização
 90
        1
100
AcDbRapidRTRenderSettings
 90
        3
 70
     0
 90
        5
 90
        1
 70
     1
 70
     2
 40
3.0
 40
3.0
290
     1
  0
RAPIDRTRENDERSETTINGS
  5
1D6
102
{ACAD_REACTORS
330
1D2
102
}
330
1D2
100
AcDbRenderSettings
 90
        2
  1
Qualidade de curta duração
290
     1
290
     0
290
     1
290
     1
  1

  1
Renderiza por 10 minutos
 90
        3
100
AcDbRapidRTRenderSettings
 90
        3
 70
     1
 90
        1
 90
       10
 70
     1
 70
     2
 40
3.0
 40
3.0
290
     1
  0
RAPIDRTRENDERSETTINGS
  5
1D8
102
{ACAD_REACTORS
330
1D2
102
}
330
1D2
100
AcDbRenderSettings
 90
        2
  1
Qualidade de longa duração
290
     1
290
     0
290
     1
290
     1
  1

  1
Renderiza por 12 horas
 90
        5
100
AcDbRapidRTRenderSettings
 90
        3
 70
     1
 90
        1
 90
      720
 70
     2
 70
     2
 40
3.0
 40
3.0
290
     1
  0
RAPIDRTRENDERSETTINGS
  5
1D7
102
{ACAD_REACTORS
330
1D2
102
}
330
1D2
100
AcDbRenderSettings
 90
        2
  1
Qualidade de média duração
290
     1
290
     0
290
     1
290
     1
  1

  1
Renderiza por 60 minutos
 90
        4
100
AcDbRapidRTRenderSettings
 90
        3
 70
     1
 90
        1
 90
       60
 70
     2
 70
     2
 40
3.0
 40
3.0
290
     1
  0
SCALE
  5
43
102
{ACAD_REACTORS
330
42
102
}
330
42
100
AcDbScale
 70
     0
300
1:1
140
1.0
141
1.0
290
     1
  0
SCALE
  5
44
102
{ACAD_REACTORS
330
42
102
}
330
42
100
AcDbScale
 70
     0
300
1/128" = 1'-0"
140
0.0078125
141
12.0
290
     0
  0
SCALE
  5
45
102
{ACAD_REACTORS
330
42
102
}
330
42
100
AcDbScale
 70
     0
300
1/64" = 1'-0"
140
0.015625
141
12.0
290
     0
  0
SCALE
  5
46
102
{ACAD_REACTORS
330
42
102
}
330
42
100
AcDbScale
 70
     0
300
1/32" = 1'-0"
140
0.03125
141
12.0
290
     0
  0
SCALE
  5
47
102
{ACAD_REACTORS
330
42
102
}
330
42
100
AcDbScale
 70
     0
300
1/16" = 1'-0"
140
0.0625
141
12.0
290
     0
  0
SCALE
  5
48
102
{ACAD_REACTORS
330
42
102
}
330
42
100
AcDbScale
 70
     0
300
3/32" = 1'-0"
140
0.09375
141
12.0
290
     0
  0
SCALE
  5
49
102
{ACAD_REACTORS
330
42
102
}
330
42
100
AcDbScale
 70
     0
300
1/8" = 1'-0"
140
0.125
141
12.0
290
     0
  0
SCALE
  5
4A
102
{ACAD_REACTORS
330
42
102
}
330
42
100
AcDbScale
 70
     0
300
3/16" = 1'-0"
140
0.1875
141
12.0
290
     0
  0
SCALE
  5
4B
102
{ACAD_REACTORS
330
42
102
}
330
42
100
AcDbScale
 70
     0
300
1/4" = 1'-0"
140
0.25
141
12.0
290
     0
  0
SCALE
  5
4C
102
{ACAD_REACTORS
330
42
102
}
330
42
100
AcDbScale
 70
     0
300
3/8" = 1'-0"
140
0.375
141
12.0
290
     0
  0
SCALE
  5
4D
102
{ACAD_REACTORS
330
42
102
}
330
42
100
AcDbScale
 70
     0
300
1/2" = 1'-0"
140
0.5
141
12.0
290
     0
  0
SCALE
  5
4E
102
{ACAD_REACTORS
330
42
102
}
330
42
100
AcDbScale
 70
     0
300
3/4" = 1'-0"
140
0.75
141
12.0
290
     0
  0
SCALE
  5
4F
102
{ACAD_REACTORS
330
42
102
}
330
42
100
AcDbScale
 70
     0
300
1" = 1'-0"
140
1.0
141
12.0
290
     0
  0
SCALE
  5
50
102
{ACAD_REACTORS
330
42
102
}
330
42
100
AcDbScale
 70
     0
300
1-1/2" = 1'-0"
140
1.5
141
12.0
290
     0
  0
SCALE
  5
51
102
{ACAD_REACTORS
330
42
102
}
330
42
100
AcDbScale
 70
     0
300
3" = 1'-0"
140
3.0
141
12.0
290
     0
  0
SCALE
  5
52
102
{ACAD_REACTORS
330
42
102
}
330
42
100
AcDbScale
 70
     0
300
6" = 1'-0"
140
6.0
141
12.0
290
     0
  0
SCALE
  5
53
102
{ACAD_REACTORS
330
42
102
}
330
42
100
AcDbScale
 70
     0
300
1'-0" = 1'-0"
140
12.0
141
12.0
290
     0
  0
ACDBSECTIONVIEWSTYLE
  5
69
102
{ACAD_REACTORS
330
68
102
}
330
68
100
AcDbModelDocViewStyle
 70
     0
  3
Imperial24
290
     1
300
Imperial24
 90
        0
100
AcDbSectionViewStyle
 70
     0
 71
     0
 90
       78
 71
     1
340
55
 62
   256
 40
0.24
340
0
340
0
 62
   256
 40
0.24
300
I, O, Q, S, X, Z
 40
0.48
 90
        3
 40
0.18
 90
        1
 71
     2
340
5D
 90
       25
 62
   256
340
5D
 90
       50
 62
   256
 40
0.24
 40
0.0
 40
0.24
 71
     3
340
55
 62
   256
 40
0.24
 90
        1
 40
0.75
 90
        1
300
%<\AcVar ViewType \f "%tc1">% %<\AcVar ViewSectionStartId>%-%<\AcVar ViewSectionEndId>%\PSCALE %<\AcVar ViewScale \f "%sn">%
 71
     4
 62
   256
 62
   257
300
ANSI31
 40
1.0
 90
        0
290
     0
290
     0
 90
        6
 40
0.0
 40
1.570796326794896
 40
0.2617993877991494
 40
1.308996938995747
 40
-0.2617993877991494
 40
1.832595714594046
  0
ACDBSECTIONVIEWSTYLE
  5
1C0
102
{ACAD_REACTORS
330
68
102
}
330
68
100
AcDbModelDocViewStyle
 70
     0
  3
Metric50
290
     1
300
Metric50
 90
        0
100
AcDbSectionViewStyle
 70
     0
 71
     0
 90
      102
 71
     1
340
55
 62
   256
 40
5.0
340
0
340
0
 62
   256
 40
5.0
300
I, O, Q, S, X, Z
 40
10.0
 90
        0
 40
2.5
 90
        0
 71
     2
340
5D
 90
       25
 62
   256
340
5D
 90
       50
 62
   256
 40
5.0
 40
2.5
 40
5.0
 71
     3
340
55
 62
   256
 40
5.0
 90
        0
 40
15.0
 90
        1
300
%<\AcVar ViewSectionStartId>%-%<\AcVar ViewSectionEndId>% (%<\AcVar ViewScale \f "%sn">%)
 71
     4
 62
   256
 62
   257
300
ANSI31
 40
1.0
 90
        0
290
     0
290
     0
 90
        6
 40
0.0
 40
1.570796326794896
 40
0.2617993877991494
 40
1.308996938995747
 40
-0.2617993877991494
 40
1.832595714594046
  0
TABLESTYLE
  5
65
102
{ACAD_XDICTIONARY
360
25E
102
}
102
{ACAD_REACTORS
330
64
102
}
330
64
100
AcDbTableStyle
280
     0
  3
Standard
 70
     0
 71
     0
 40
0.06
 41
0.06
280
     0
281
     0
  7
Standard
140
0.18
170
     2
 62
     0
 63
     7
283
     0
 90
      512
 91
        0
  1

274
    -2
284
     1
 64
     0
275
    -2
285
     1
 65
     0
276
    -2
286
     1
 66
     0
277
    -2
287
     1
 67
     0
278
    -2
288
     1
 68
     0
279
    -2
289
     1
 69
     0
  7
Standard
140
0.25
170
     5
 62
     0
 63
     7
283
     0
 90
      512
 91
        0
  1

274
    -2
284
     1
 64
     0
275
    -2
285
     1
 65
     0
276
    -2
286
     1
 66
     0
277
    -2
287
     1
 67
     0
278
    -2
288
     1
 68
     0
279
    -2
289
     1
 69
     0
  7
Standard
140
0.18
170
     5
 62
     0
 63
     7
283
     0
 90
      512
 91
        0
  1

274
    -2
284
     1
 64
     0
275
    -2
285
     1
 65
     0
276
    -2
286
     1
 66
     0
277
    -2
287
     1
 67
     0
278
    -2
288
     1
 68
     0
279
    -2
289
     1
 69
     0
  0
VISUALSTYLE
  5
2F
102
{ACAD_REACTORS
330
29
102
}
330
29
100
AcDbVisualStyle
  2
2dWireframe
 70
     4
177
     3
291
     0
 70
    58
 90
        0
176
     1
 90
        2
176
     1
 90
        0
176
     1
 90
        0
176
     1
 40
0.6
176
     1
 40
30.0
176
     1
 62
     7
420
 16777215
176
     1
 90
        1
176
     1
 90
        4
176
     1
 62
     7
176
     1
 62
   257
176
     1
 90
        1
176
     1
 90
        1
176
     1
 40
1.0
176
     1
 90
        0
176
     1
 62
   257
176
     1
 40
1.0
176
     1
 90
        1
176
     1
 90
        6
176
     1
 90
        2
176
     1
 62
     7
176
     1
 90
        5
176
     1
 90
        0
176
     1
 90
        0
176
     1
290
     0
176
     1
 90
        1
176
     1
 40
0.0
176
     1
 90
        0
176
     1
290
     1
176
     1
290
     1
176
     1
290
     0
176
     1
290
     0
176
     1
290
     0
176
     1
290
     0
176
     1
290
     0
176
     1
290
     0
176
     1
290
     0
176
     1
 90
       50
176
     1
 40
0.0
176
     1
 40
1.0
176
     1
 90
        0
176
     1
 62
    18
420
        0
176
     1
 90
       50
176
     1
 90
        3
176
     1
 62
     5
420
      255
176
     1
290
     0
176
     1
 90
       50
176
     1
 90
       50
176
     1
 90
       50
176
     1
290
     0
176
     1
 90
       50
176
     1
 62
   256
176
     0
 40
1.0
176
     0
 90
        2
176
     1
  1
strokes_ogs.tif
176
     1
290
     0
176
     1
 40
1.0
176
     1
 40
1.0
176
     1
  0
VISUALSTYLE
  5
2E
102
{ACAD_REACTORS
330
29
102
}
330
29
100
AcDbVisualStyle
  2
Basic
 70
     7
177
     3
291
     1
 70
    58
 90
        1
176
     1
 90
        0
176
     1
 90
        1
176
     1
 90
        0
176
     1
 40
0.6
176
     1
 40
30.0
176
     1
 62
     7
420
 16777215
176
     1
 90
        0
176
     1
 90
        4
176
     1
 62
     7
176
     1
 62
   257
176
     1
 90
        1
176
     1
 90
        1
176
     1
 40
1.0
176
     1
 90
        8
176
     1
 62
     7
176
     1
 40
1.0
176
     1
 90
        1
176
     1
 90
        6
176
     1
 90
        2
176
     1
 62
     7
176
     1
 90
        5
176
     1
 90
        0
176
     1
 90
        0
176
     1
290
     0
176
     1
 90
        1
176
     1
 40
0.0
176
     1
 90
        0
176
     1
290
     0
176
     1
290
     1
176
     1
290
     1
176
     1
290
     0
176
     1
290
     0
176
     1
290
     0
176
     1
290
     0
176
     1
290
     0
176
     1
290
     0
176
     1
 90
       50
176
     1
 40
0.0
176
     1
 40
1.0
176
     1
 90
        0
176
     1
 62
    18
420
        0
176
     1
 90
       50
176
     1
 90
        3
176
     1
 62
     5
420
      255
176
     1
290
     0
176
     1
 90
       50
176
     1
 90
       50
176
     1
 90
       50
176
     1
290
     0
176
     1
 90
       50
176
     1
 62
   256
176
     0
 40
1.0
176
     0
 90
        2
176
     1
  1
strokes_ogs.tif
176
     1
290
     0
176
     1
 40
1.0
176
     1
 40
1.0
176
     1
  0
VISUALSTYLE
  5
35
102
{ACAD_REACTORS
330
29
102
}
330
29
100
AcDbVisualStyle
  2
Brighten
 70
    12
177
     3
291
     1
 70
    58
 90
        2
176
     1
 90
        2
176
     1
 90
        0
176
     1
 90
        0
176
     1
 40
0.6
176
     1
 40
30.0
176
     1
 62
     7
420
 16777215
176
     1
 90
        1
176
     1
 90
        4
176
     1
 62
     7
176
     1
 62
   257
176
     1
 90
        1
176
     1
 90
        1
176
     1
 40
1.0
176
     1
 90
        8
176
     1
 62
     7
176
     1
 40
1.0
176
     1
 90
        1
176
     1
 90
        6
176
     1
 90
        2
176
     1
 62
     7
176
     1
 90
        5
176
     1
 90
        0
176
     1
 90
        0
176
     1
290
     0
176
     1
 90
        1
176
     1
 40
50.0
176
     1
 90
        0
176
     1
290
     0
176
     1
290
     1
176
     1
290
     1
176
     1
290
     0
176
     1
290
     0
176
     1
290
     0
176
     1
290
     0
176
     1
290
     0
176
     1
290
     0
176
     1
 90
       50
176
     1
 40
0.0
176
     1
 40
1.0
176
     1
 90
        0
176
     1
 62
    18
420
        0
176
     1
 90
       50
176
     1
 90
        3
176
     1
 62
     5
420
      255
176
     1
290
     0
176
     1
 90
       50
176
     1
 90
       50
176
     1
 90
       50
176
     1
290
     0
176
     1
 90
       50
176
     1
 62
   256
176
     0
 40
1.0
176
     0
 90
        2
176
     1
  1
strokes_ogs.tif
176
     1
290
     0
176
     1
 40
1.0
176
     1
 40
1.0
176
     1
  0
VISUALSTYLE
  5
39
102
{ACAD_REACTORS
330
29
102
}
330
29
100
AcDbVisualStyle
  2
ColorChange
 70
    16
177
     3
291
     1
 70
    58
 90
        2
176
     1
 90
        2
176
     1
 90
        3
176
     1
 90
        0
176
     1
 40
0.6
176
     1
 40
30.0
176
     1
 62
     8
420
  8421504
176
     1
 90
        1
176
     1
 90
        4
176
     1
 62
     7
176
     1
 62
   257
176
     1
 90
        1
176
     1
 90
        1
176
     1
 40
1.0
176
     1
 90
        8
176
     1
 62
     8
420
  8421504
176
     1
 40
1.0
176
     1
 90
        1
176
     1
 90
        6
176
     1
 90
        2
176
     1
 62
     7
176
     1
 90
        5
176
     1
 90
        0
176
     1
 90
        0
176
     1
290
     0
176
     1
 90
        1
176
     1
 40
0.0
176
     1
 90
        0
176
     1
290
     0
176
     1
290
     1
176
     1
290
     1
176
     1
290
     0
176
     1
290
     0
176
     1
290
     0
176
     1
290
     0
176
     1
290
     0
176
     1
290
     0
176
     1
 90
       50
176
     1
 40
0.0
176
     1
 40
1.0
176
     1
 90
        0
176
     1
 62
    18
420
        0
176
     1
 90
       50
176
     1
 90
        3
176
     1
 62
     5
420
      255
176
     1
290
     0
176
     1
 90
       50
176
     1
 90
       50
176
     1
 90
       50
176
     1
290
     0
176
     1
 90
       50
176
     1
 62
   256
176
     0
 40
1.0
176
     0
 90
        2
176
     1
  1
strokes_ogs.tif
176
     1
290
     0
176
     1
 40
1.0
176
     1
 40
1.0
176
     1
  0
VISUALSTYLE
  5
32
102
{ACAD_REACTORS
330
29
102
}
330
29
100
AcDbVisualStyle
  2
Conceptual
 70
     9
177
     3
291
     0
 70
    58
 90
        3
176
     1
 90
        2
176
     1
 90
        0
176
     1
 90
        0
176
     1
 40
0.6
176
     1
 40
30.0
176
     1
 62
     7
420
 16777215
176
     1
 90
        2
176
     1
 90
        2
176
     1
 62
     7
176
     1
 62
   257
176
     1
 90
        1
176
     1
 90
        1
176
     1
 40
179.0
176
     1
 90
        8
176
     1
 62
     7
176
     1
 40
1.0
176
     1
 90
        1
176
     1
 90
        6
176
     1
 90
        2
176
     1
 62
     7
176
     1
 90
        3
176
     1
 90
        0
176
     1
 90
        0
176
     1
290
     0
176
     1
 90
        1
176
     1
 40
0.0
176
     1
 90
        0
176
     1
290
     0
176
     1
290
     1
176
     1
290
     1
176
     1
290
     0
176
     1
290
     0
176
     1
290
     0
176
     1
290
     0
176
     1
290
     0
176
     1
290
     0
176
     1
 90
       50
176
     1
 40
0.0
176
     1
 40
1.0
176
     1
 90
        0
176
     1
 62
    18
420
        0
176
     1
 90
       50
176
     1
 90
        3
176
     1
 62
     5
420
      255
176
     1
290
     0
176
     1
 90
       50
176
     1
 90
       50
176
     1
 90
       50
176
     1
290
     0
176
     1
 90
       50
176
     1
 62
   256
176
     0
 40
1.0
176
     0
 90
        2
176
     1
  1
strokes_ogs.tif
176
     1
290
     0
176
     1
 40
1.0
176
     1
 40
1.0
176
     1
  0
VISUALSTYLE
  5
34
102
{ACAD_REACTORS
330
29
102
}
330
29
100
AcDbVisualStyle
  2
Dim
 70
    11
177
     3
291
     1
 70
    58
 90
        2
176
     1
 90
        2
176
     1
 90
        0
176
     1
 90
        0
176
     1
 40
0.6
176
     1
 40
30.0
176
     1
 62
     7
420
 16777215
176
     1
 90
        1
176
     1
 90
        4
176
     1
 62
     7
176
     1
 62
   257
176
     1
 90
        1
176
     1
 90
        1
176
     1
 40
1.0
176
     1
 90
        8
176
     1
 62
     7
176
     1
 40
1.0
176
     1
 90
        1
176
     1
 90
        6
176
     1
 90
        2
176
     1
 62
     7
176
     1
 90
        5
176
     1
 90
        0
176
     1
 90
        0
176
     1
290
     0
176
     1
 90
        1
176
     1
 40
-50.0
176
     1
 90
        0
176
     1
290
     0
176
     1
290
     1
176
     1
290
     1
176
     1
290
     0
176
     1
290
     0
176
     1
290
     0
176
     1
290
     0
176
     1
290
     0
176
     1
290
     0
176
     1
 90
       50
176
     1
 40
0.0
176
     1
 40
1.0
176
     1
 90
        0
176
     1
 62
    18
420
        0
176
     1
 90
       50
176
     1
 90
        3
176
     1
 62
     5
420
      255
176
     1
290
     0
176
     1
 90
       50
176
     1
 90
       50
176
     1
 90
       50
176
     1
290
     0
176
     1
 90
       50
176
     1
 62
   256
176
     0
 40
1.0
176
     0
 90
        2
176
     1
  1
strokes_ogs.tif
176
     1
290
     0
176
     1
 40
1.0
176
     1
 40
1.0
176
     1
  0
VISUALSTYLE
  5
41
102
{ACAD_REACTORS
330
29
102
}
330
29
100
AcDbVisualStyle
  2
EdgeColorOff
 70
    22
177
     3
291
     1
 70
    58
 90
        2
176
     0
 90
        2
176
     0
 90
        0
176
     0
 90
        0
176
     0
 40
0.6
176
     0
 40
30.0
176
     0
 62
     7
420
 16777215
176
     0
 90
        1
176
     0
 90
        4
176
     0
 62
     7
176
     0
 62
   257
176
     0
 90
        1
176
     0
 90
        1
176
     0
 40
1.0
176
     0
 90
        8
176
     2
 62
     7
176
     0
 40
1.0
176
     0
 90
        1
176
     0
 90
        6
176
     0
 90
        2
176
     0
 62
     7
176
     0
 90
        5
176
     0
 90
        0
176
     0
 90
        0
176
     0
290
     0
176
     0
 90
        1
176
     0
 40
0.0
176
     0
 90
        0
176
     0
290
     0
176
     0
290
     1
176
     0
290
     1
176
     0
290
     0
176
     0
290
     0
176
     0
290
     0
176
     0
290
     0
176
     0
290
     0
176
     0
290
     0
176
     0
 90
       50
176
     0
 40
0.0
176
     0
 40
1.0
176
     0
 90
        0
176
     0
 62
    18
420
        0
176
     0
 90
       50
176
     0
 90
        3
176
     0
 62
     5
420
      255
176
     0
290
     0
176
     0
 90
       50
176
     0
 90
       50
176
     0
 90
       50
176
     0
290
     0
176
     0
 90
       50
176
     0
 62
   256
176
     0
 40
1.0
176
     0
 90
        2
176
     0
  1
strokes_ogs.tif
176
     0
290
     0
176
     0
 40
1.0
176
     0
 40
1.0
176
     0
  0
VISUALSTYLE
  5
38
102
{ACAD_REACTORS
330
29
102
}
330
29
100
AcDbVisualStyle
  2
Facepattern
 70
    15
177
     3
291
     1
 70
    58
 90
        2
176
     1
 90
        2
176
     1
 90
        0
176
     1
 90
        0
176
     1
 40
0.6
176
     1
 40
30.0
176
     1
 62
     7
420
 16777215
176
     1
 90
        1
176
     1
 90
        4
176
     1
 62
     7
176
     1
 62
   257
176
     1
 90
        1
176
     1
 90
        1
176
     1
 40
1.0
176
     1
 90
        8
176
     1
 62
     7
176
     1
 40
1.0
176
     1
 90
        1
176
     1
 90
        6
176
     1
 90
        2
176
     1
 62
     7
176
     1
 90
        5
176
     1
 90
        0
176
     1
 90
        0
176
     1
290
     0
176
     1
 90
        1
176
     1
 40
0.0
176
     1
 90
        0
176
     1
290
     0
176
     1
290
     1
176
     1
290
     1
176
     1
290
     0
176
     1
290
     0
176
     1
290
     0
176
     1
290
     0
176
     1
290
     0
176
     1
290
     0
176
     1
 90
       50
176
     1
 40
0.0
176
     1
 40
1.0
176
     1
 90
        0
176
     1
 62
    18
420
        0
176
     1
 90
       50
176
     1
 90
        3
176
     1
 62
     5
420
      255
176
     1
290
     0
176
     1
 90
       50
176
     1
 90
       50
176
     1
 90
       50
176
     1
290
     0
176
     1
 90
       50
176
     1
 62
   256
176
     0
 40
1.0
176
     0
 90
        2
176
     1
  1
strokes_ogs.tif
176
     1
290
     0
176
     1
 40
1.0
176
     1
 40
1.0
176
     1
  0
VISUALSTYLE
  5
2A
102
{ACAD_REACTORS
330
29
102
}
330
29
100
AcDbVisualStyle
  2
Flat
 70
     0
177
     3
291
     1
 70
    58
 90
        2
176
     1
 90
        1
176
     1
 90
        1
176
     1
 90
        2
176
     1
 40
0.6
176
     1
 40
30.0
176
     1
 62
     7
420
 16777215
176
     1
 90
        0
176
     1
 90
        0
176
     1
 62
     7
176
     1
 62
   257
176
     1
 90
        1
176
     1
 90
        1
176
     1
 40
1.0
176
     1
 90
        8
176
     1
 62
     7
176
     1
 40
1.0
176
     1
 90
        1
176
     1
 90
        6
176
     1
 90
        2
176
     1
 62
     7
176
     1
 90
        5
176
     1
 90
        0
176
     1
 90
        0
176
     1
290
     0
176
     1
 90
       13
176
     1
 40
0.0
176
     1
 90
        0
176
     1
290
     0
176
     1
290
     1
176
     1
290
     1
176
     1
290
     0
176
     1
290
     0
176
     1
290
     0
176
     1
290
     0
176
     1
290
     0
176
     1
290
     0
176
     1
 90
       50
176
     1
 40
0.0
176
     1
 40
1.0
176
     1
 90
        0
176
     1
 62
    18
420
        0
176
     1
 90
       50
176
     1
 90
        3
176
     1
 62
     5
420
      255
176
     1
290
     0
176
     1
 90
       50
176
     1
 90
       50
176
     1
 90
       50
176
     1
290
     0
176
     1
 90
       50
176
     1
 62
   256
176
     0
 40
1.0
176
     0
 90
        2
176
     1
  1
strokes_ogs.tif
176
     1
290
     0
176
     1
 40
1.0
176
     1
 40
1.0
176
     1
  0
VISUALSTYLE
  5
2B
102
{ACAD_REACTORS
330
29
102
}
330
29
100
AcDbVisualStyle
  2
FlatWithEdges
 70
     1
177
     3
291
     1
 70
    58
 90
        2
176
     1
 90
        1
176
     1
 90
        1
176
     1
 90
        2
176
     1
 40
0.6
176
     1
 40
30.0
176
     1
 62
     7
420
 16777215
176
     1
 90
        1
176
     1
 90
        0
176
     1
 62
     7
176
     1
 62
   257
176
     1
 90
        1
176
     1
 90
        1
176
     1
 40
1.0
176
     1
 90
        0
176
     1
 62
   257
176
     1
 40
1.0
176
     1
 90
        1
176
     1
 90
        6
176
     1
 90
        2
176
     1
 62
     7
176
     1
 90
        5
176
     1
 90
        0
176
     1
 90
        0
176
     1
290
     0
176
     1
 90
       13
176
     1
 40
0.0
176
     1
 90
        0
176
     1
290
     0
176
     1
290
     1
176
     1
290
     1
176
     1
290
     0
176
     1
290
     0
176
     1
290
     0
176
     1
290
     0
176
     1
290
     0
176
     1
290
     0
176
     1
 90
       50
176
     1
 40
0.0
176
     1
 40
1.0
176
     1
 90
        0
176
     1
 62
    18
420
        0
176
     1
 90
       50
176
     1
 90
        3
176
     1
 62
     5
420
      255
176
     1
290
     0
176
     1
 90
       50
176
     1
 90
       50
176
     1
 90
       50
176
     1
290
     0
176
     1
 90
       50
176
     1
 62
   256
176
     0
 40
1.0
176
     0
 90
        2
176
     1
  1
strokes_ogs.tif
176
     1
290
     0
176
     1
 40
1.0
176
     1
 40
1.0
176
     1
  0
VISUALSTYLE
  5
2C
102
{ACAD_REACTORS
330
29
102
}
330
29
100
AcDbVisualStyle
  2
Gouraud
 70
     2
177
     3
291
     1
 70
    58
 90
        2
176
     1
 90
        2
176
     1
 90
        1
176
     1
 90
        2
176
     1
 40
0.6
176
     1
 40
30.0
176
     1
 62
     7
420
 16777215
176
     1
 90
        0
176
     1
 90
        0
176
     1
 62
     7
176
     1
 62
   257
176
     1
 90
        1
176
     1
 90
        1
176
     1
 40
1.0
176
     1
 90
        0
176
     1
 62
     7
176
     1
 40
1.0
176
     1
 90
        1
176
     1
 90
        6
176
     1
 90
        2
176
     1
 62
     7
176
     1
 90
        5
176
     1
 90
        0
176
     1
 90
        0
176
     1
290
     0
176
     1
 90
       13
176
     1
 40
0.0
176
     1
 90
        0
176
     1
290
     0
176
     1
290
     1
176
     1
290
     1
176
     1
290
     0
176
     1
290
     0
176
     1
290
     0
176
     1
290
     0
176
     1
290
     0
176
     1
290
     0
176
     1
 90
       50
176
     1
 40
0.0
176
     1
 40
1.0
176
     1
 90
        0
176
     1
 62
    18
420
        0
176
     1
 90
       50
176
     1
 90
        3
176
     1
 62
     5
420
      255
176
     1
290
     0
176
     1
 90
       50
176
     1
 90
       50
176
     1
 90
       50
176
     1
290
     0
176
     1
 90
       50
176
     1
 62
   256
176
     0
 40
1.0
176
     0
 90
        2
176
     1
  1
strokes_ogs.tif
176
     1
290
     0
176
     1
 40
1.0
176
     1
 40
1.0
176
     1
  0
VISUALSTYLE
  5
2D
102
{ACAD_REACTORS
330
29
102
}
330
29
100
AcDbVisualStyle
  2
GouraudWithEdges
 70
     3
177
     3
291
     1
 70
    58
 90
        2
176
     1
 90
        2
176
     1
 90
        1
176
     1
 90
        2
176
     1
 40
0.6
176
     1
 40
30.0
176
     1
 62
     7
420
 16777215
176
     1
 90
        1
176
     1
 90
        0
176
     1
 62
     7
176
     1
 62
   257
176
     1
 90
        1
176
     1
 90
        1
176
     1
 40
1.0
176
     1
 90
        0
176
     1
 62
   257
176
     1
 40
1.0
176
     1
 90
        1
176
     1
 90
        6
176
     1
 90
        2
176
     1
 62
     7
176
     1
 90
        5
176
     1
 90
        0
176
     1
 90
        0
176
     1
290
     0
176
     1
 90
       13
176
     1
 40
0.0
176
     1
 90
        0
176
     1
290
     0
176
     1
290
     1
176
     1
290
     1
176
     1
290
     0
176
     1
290
     0
176
     1
290
     0
176
     1
290
     0
176
     1
290
     0
176
     1
290
     0
176
     1
 90
       50
176
     1
 40
0.0
176
     1
 40
1.0
176
     1
 90
        0
176
     1
 62
    18
420
        0
176
     1
 90
       50
176
     1
 90
        3
176
     1
 62
     5
420
      255
176
     1
290
     0
176
     1
 90
       50
176
     1
 90
       50
176
     1
 90
       50
176
     1
290
     0
176
     1
 90
       50
176
     1
 62
   256
176
     0
 40
1.0
176
     0
 90
        2
176
     1
  1
strokes_ogs.tif
176
     1
290
     0
176
     1
 40
1.0
176
     1
 40
1.0
176
     1
  0
VISUALSTYLE
  5
31
102
{ACAD_REACTORS
330
29
102
}
330
29
100
AcDbVisualStyle
  2
Hidden
 70
     6
177
     3
291
     0
 70
    58
 90
        1
176
     1
 90
        2
176
     1
 90
        2
176
     1
 90
        0
176
     1
 40
0.6
176
     1
 40
30.0
176
     1
 62
     7
420
 16777215
176
     1
 90
        2
176
     1
 90
        2
176
     1
 62
     7
176
     1
 62
   257
176
     1
 90
        2
176
     1
 90
        1
176
     1
 40
40.0
176
     1
 90
        0
176
     1
 62
   257
176
     1
 40
1.0
176
     1
 90
        1
176
     1
 90
        6
176
     1
 90
        2
176
     1
 62
     7
176
     1
 90
        3
176
     1
 90
        0
176
     1
 90
        0
176
     1
290
     0
176
     1
 90
        1
176
     1
 40
0.0
176
     1
 90
        0
176
     1
290
     0
176
     1
290
     1
176
     1
290
     1
176
     1
290
     0
176
     1
290
     0
176
     1
290
     0
176
     1
290
     0
176
     1
290
     0
176
     1
290
     0
176
     1
 90
       50
176
     1
 40
0.0
176
     1
 40
1.0
176
     1
 90
        0
176
     1
 62
    18
420
        0
176
     1
 90
       50
176
     1
 90
        3
176
     1
 62
     5
420
      255
176
     1
290
     0
176
     1
 90
       50
176
     1
 90
       50
176
     1
 90
       50
176
     1
290
     0
176
     1
 90
       50
176
     1
 62
   256
176
     0
 40
1.0
176
     0
 90
        2
176
     1
  1
strokes_ogs.tif
176
     1
290
     0
176
     1
 40
1.0
176
     1
 40
1.0
176
     1
  0
VISUALSTYLE
  5
3F
102
{ACAD_REACTORS
330
29
102
}
330
29
100
AcDbVisualStyle
  2
JitterOff
 70
    20
177
     3
291
     1
 70
    58
 90
        2
176
     0
 90
        2
176
     0
 90
        0
176
     0
 90
        0
176
     0
 40
0.6
176
     0
 40
30.0
176
     0
 62
     7
420
 16777215
176
     0
 90
        1
176
     0
 90
        4
176
     0
 62
     7
176
     0
 62
   257
176
     0
 90
        1
176
     0
 90
        1
176
     0
 40
1.0
176
     0
 90
       10
176
     2
 62
     7
176
     0
 40
1.0
176
     0
 90
        1
176
     0
 90
        6
176
     0
 90
        2
176
     0
 62
     7
176
     0
 90
        5
176
     0
 90
        0
176
     0
 90
        0
176
     0
290
     0
176
     0
 90
        1
176
     0
 40
0.0
176
     0
 90
        0
176
     0
290
     0
176
     0
290
     1
176
     0
290
     1
176
     0
290
     0
176
     0
290
     0
176
     0
290
     0
176
     0
290
     0
176
     0
290
     0
176
     0
290
     0
176
     0
 90
       50
176
     0
 40
0.0
176
     0
 40
1.0
176
     0
 90
        0
176
     0
 62
    18
420
        0
176
     0
 90
       50
176
     0
 90
        3
176
     0
 62
     5
420
      255
176
     0
290
     0
176
     0
 90
       50
176
     0
 90
       50
176
     0
 90
       50
176
     0
290
     0
176
     0
 90
       50
176
     0
 62
   256
176
     0
 40
1.0
176
     0
 90
        2
176
     0
  1
strokes_ogs.tif
176
     0
290
     0
176
     0
 40
1.0
176
     0
 40
1.0
176
     0
  0
VISUALSTYLE
  5
37
102
{ACAD_REACTORS
330
29
102
}
330
29
100
AcDbVisualStyle
  2
Linepattern
 70
    14
177
     3
291
     1
 70
    58
 90
        2
176
     1
 90
        2
176
     1
 90
        0
176
     1
 90
        0
176
     1
 40
0.6
176
     1
 40
30.0
176
     1
 62
     7
420
 16777215
176
     1
 90
        1
176
     1
 90
        4
176
     1
 62
     7
176
     1
 62
   257
176
     1
 90
        7
176
     1
 90
        7
176
     1
 40
1.0
176
     1
 90
        8
176
     1
 62
     7
176
     1
 40
1.0
176
     1
 90
        1
176
     1
 90
        6
176
     1
 90
        2
176
     1
 62
     7
176
     1
 90
        5
176
     1
 90
        0
176
     1
 90
        0
176
     1
290
     0
176
     1
 90
        1
176
     1
 40
0.0
176
     1
 90
        0
176
     1
290
     0
176
     1
290
     1
176
     1
290
     1
176
     1
290
     0
176
     1
290
     0
176
     1
290
     0
176
     1
290
     0
176
     1
290
     0
176
     1
290
     0
176
     1
 90
       50
176
     1
 40
0.0
176
     1
 40
1.0
176
     1
 90
        0
176
     1
 62
    18
420
        0
176
     1
 90
       50
176
     1
 90
        3
176
     1
 62
     5
420
      255
176
     1
290
     0
176
     1
 90
       50
176
     1
 90
       50
176
     1
 90
       50
176
     1
290
     0
176
     1
 90
       50
176
     1
 62
   256
176
     0
 40
1.0
176
     0
 90
        2
176
     1
  1
strokes_ogs.tif
176
     1
290
     0
176
     1
 40
1.0
176
     1
 40
1.0
176
     1
  0
VISUALSTYLE
  5
40
102
{ACAD_REACTORS
330
29
102
}
330
29
100
AcDbVisualStyle
  2
OverhangOff
 70
    21
177
     3
291
     1
 70
    58
 90
        2
176
     0
 90
        2
176
     0
 90
        0
176
     0
 90
        0
176
     0
 40
0.6
176
     0
 40
30.0
176
     0
 62
     7
420
 16777215
176
     0
 90
        1
176
     0
 90
        4
176
     0
 62
     7
176
     0
 62
   257
176
     0
 90
        1
176
     0
 90
        1
176
     0
 40
1.0
176
     0
 90
        9
176
     2
 62
     7
176
     0
 40
1.0
176
     0
 90
        1
176
     0
 90
        6
176
     0
 90
        2
176
     0
 62
     7
176
     0
 90
        5
176
     0
 90
        0
176
     0
 90
        0
176
     0
290
     0
176
     0
 90
        1
176
     0
 40
0.0
176
     0
 90
        0
176
     0
290
     0
176
     0
290
     1
176
     0
290
     1
176
     0
290
     0
176
     0
290
     0
176
     0
290
     0
176
     0
290
     0
176
     0
290
     0
176
     0
290
     0
176
     0
 90
       50
176
     0
 40
0.0
176
     0
 40
1.0
176
     0
 90
        0
176
     0
 62
    18
420
        0
176
     0
 90
       50
176
     0
 90
        3
176
     0
 62
     5
420
      255
176
     0
290
     0
176
     0
 90
       50
176
     0
 90
       50
176
     0
 90
       50
176
     0
290
     0
176
     0
 90
       50
176
     0
 62
   256
176
     0
 40
1.0
176
     0
 90
        2
176
     0
  1
strokes_ogs.tif
176
     0
290
     0
176
     0
 40
1.0
176
     0
 40
1.0
176
     0
  0
VISUALSTYLE
  5
33
102
{ACAD_REACTORS
330
29
102
}
330
29
100
AcDbVisualStyle
  2
Realistic
 70
     8
177
     3
291
     0
 70
    58
 90
        2
176
     1
 90
        3
176
     1
 90
        0
176
     1
 90
        2
176
     1
 40
0.6
176
     1
 40
30.0
176
     1
 62
     7
420
 16777215
176
     1
 90
        0
176
     1
 90
        0
176
     1
 62
     7
176
     1
 62
   257
176
     1
 90
        1
176
     1
 90
        1
176
     1
 40
1.0
176
     1
 90
        8
176
     1
 62
   257
176
     1
 40
1.0
176
     1
 90
        1
176
     1
 90
        6
176
     1
 90
        2
176
     1
 62
     7
176
     1
 90
        3
176
     1
 90
        0
176
     1
 90
        0
176
     1
290
     0
176
     1
 90
       13
176
     1
 40
0.0
176
     1
 90
        0
176
     1
290
     0
176
     1
290
     1
176
     1
290
     1
176
     1
290
     0
176
     1
290
     0
176
     1
290
     0
176
     1
290
     0
176
     1
290
     0
176
     1
290
     0
176
     1
 90
       50
176
     1
 40
0.0
176
     1
 40
1.0
176
     1
 90
        0
176
     1
 62
    18
420
        0
176
     1
 90
       50
176
     1
 90
        3
176
     1
 62
     5
420
      255
176
     1
290
     0
176
     1
 90
       50
176
     1
 90
       50
176
     1
 90
       50
176
     1
290
     0
176
     1
 90
       50
176
     1
 62
   256
176
     0
 40
1.0
176
     0
 90
        2
176
     1
  1
strokes_ogs.tif
176
     1
290
     0
176
     1
 40
1.0
176
     1
 40
1.0
176
     1
  0
VISUALSTYLE
  5
3E
102
{ACAD_REACTORS
330
29
102
}
330
29
100
AcDbVisualStyle
  2
Shaded
 70
    27
177
     3
291
     0
 70
    58
 90
        2
176
     1
 90
        2
176
     1
 90
        1
176
     1
 90
        2
176
     1
 40
0.6
176
     1
 40
30.0
176
     1
 62
     7
420
 16777215
176
     1
 90
        0
176
     1
 90
        4
176
     1
 62
     7
176
     1
 62
   257
176
     1
 90
        1
176
     1
 90
        1
176
     1
 40
1.0
176
     1
 90
        8
176
     1
 62
   257
176
     1
 40
1.0
176
     1
 90
        1
176
     1
 90
        6
176
     1
 90
        2
176
     1
 62
     8
420
  7895160
176
     1
 90
        3
176
     1
 90
        0
176
     1
 90
        0
176
     1
290
     0
176
     1
 90
        5
176
     1
 40
0.0
176
     1
 90
        0
176
     1
290
     0
176
     1
290
     1
176
     1
290
     1
176
     1
290
     0
176
     1
290
     0
176
     1
290
     0
176
     1
290
     0
176
     1
290
     0
176
     1
290
     0
176
     1
 90
       50
176
     1
 40
0.0
176
     1
 40
1.0
176
     1
 90
        0
176
     1
 62
    18
420
        0
176
     1
 90
       50
176
     1
 90
        3
176
     1
 62
     5
420
      255
176
     1
290
     0
176
     1
 90
       50
176
     1
 90
       50
176
     1
 90
       50
176
     1
290
     0
176
     1
 90
       50
176
     1
 62
   256
176
     0
 40
1.0
176
     0
 90
        2
176
     1
  1
strokes_ogs.tif
176
     1
290
     0
176
     1
 40
1.0
176
     1
 40
1.0
176
     1
  0
VISUALSTYLE
  5
3D
102
{ACAD_REACTORS
330
29
102
}
330
29
100
AcDbVisualStyle
  2
Shaded with edges
 70
    26
177
     3
291
     0
 70
    58
 90
        2
176
     1
 90
        2
176
     1
 90
        1
176
     1
 90
        2
176
     1
 40
0.6
176
     1
 40
30.0
176
     1
 62
     7
420
 16777215
176
     1
 90
        1
176
     1
 90
        2
176
     1
 62
     7
176
     1
 62
   257
176
     1
 90
        2
176
     1
 90
        1
176
     1
 40
1.0
176
     1
 90
        8
176
     1
 62
   257
176
     1
 40
1.0
176
     1
 90
        1
176
     1
 90
        6
176
     1
 90
        2
176
     1
 62
     7
176
     1
 90
        3
176
     1
 90
        0
176
     1
 90
        0
176
     1
290
     0
176
     1
 90
        5
176
     1
 40
0.0
176
     1
 90
        0
176
     1
290
     0
176
     1
290
     1
176
     1
290
     1
176
     1
290
     0
176
     1
290
     0
176
     1
290
     0
176
     1
290
     0
176
     1
290
     0
176
     1
290
     0
176
     1
 90
       50
176
     1
 40
0.0
176
     1
 40
1.0
176
     1
 90
        0
176
     1
 62
    18
420
        0
176
     1
 90
       50
176
     1
 90
        3
176
     1
 62
     5
420
      255
176
     1
290
     0
176
     1
 90
       50
176
     1
 90
       50
176
     1
 90
       50
176
     1
290
     0
176
     1
 90
       50
176
     1
 62
   256
176
     0
 40
1.0
176
     0
 90
        2
176
     1
  1
strokes_ogs.tif
176
     1
290
     0
176
     1
 40
1.0
176
     1
 40
1.0
176
     1
  0
VISUALSTYLE
  5
3A
102
{ACAD_REACTORS
330
29
102
}
330
29
100
AcDbVisualStyle
  2
Shades of Gray
 70
    23
177
     3
291
     0
 70
    58
 90
        2
176
     1
 90
        2
176
     1
 90
        3
176
     1
 90
        0
176
     1
 40
0.6
176
     1
 40
30.0
176
     1
 62
     7
420
 16777215
176
     1
 90
        2
176
     1
 90
        2
176
     1
 62
     7
176
     1
 62
     7
176
     1
 90
        1
176
     1
 90
        1
176
     1
 40
40.0
176
     1
 90
        8
176
     1
 62
     7
176
     1
 40
1.0
176
     1
 90
        1
176
     1
 90
        6
176
     1
 90
        2
176
     1
 62
     7
176
     1
 90
        3
176
     1
 90
        0
176
     1
 90
        0
176
     1
290
     0
176
     1
 90
        1
176
     1
 40
0.0
176
     1
 90
        0
176
     1
290
     0
176
     1
290
     1
176
     1
290
     1
176
     1
290
     0
176
     1
290
     0
176
     1
290
     0
176
     1
290
     0
176
     1
290
     0
176
     1
290
     0
176
     1
 90
       50
176
     1
 40
0.0
176
     1
 40
1.0
176
     1
 90
        0
176
     1
 62
    18
420
        0
176
     1
 90
       50
176
     1
 90
        3
176
     1
 62
     5
420
      255
176
     1
290
     0
176
     1
 90
       50
176
     1
 90
       50
176
     1
 90
       50
176
     1
290
     0
176
     1
 90
       50
176
     1
 62
   256
176
     0
 40
1.0
176
     0
 90
        2
176
     1
  1
strokes_ogs.tif
176
     1
290
     0
176
     1
 40
1.0
176
     1
 40
1.0
176
     1
  0
VISUALSTYLE
  5
3B
102
{ACAD_REACTORS
330
29
102
}
330
29
100
AcDbVisualStyle
  2
Sketchy
 70
    24
177
     3
291
     0
 70
    58
 90
        1
176
     1
 90
        2
176
     1
 90
        2
176
     1
 90
        0
176
     1
 40
0.6
176
     1
 40
30.0
176
     1
 62
     7
420
 16777215
176
     1
 90
        2
176
     1
 90
        2
176
     1
 62
     7
176
     1
 62
     7
176
     1
 90
        1
176
     1
 90
        1
176
     1
 40
40.0
176
     1
 90
       11
176
     1
 62
     7
176
     1
 40
1.0
176
     1
 90
        1
176
     1
 90
        6
176
     1
 90
        2
176
     1
 62
     7
176
     1
 90
        6
176
     1
 90
        0
176
     1
 90
        0
176
     1
290
     0
176
     1
 90
        1
176
     1
 40
0.0
176
     1
 90
        0
176
     1
290
     0
176
     1
290
     1
176
     1
290
     1
176
     1
290
     0
176
     1
290
     0
176
     1
290
     0
176
     1
290
     0
176
     1
290
     0
176
     1
290
     0
176
     1
 90
       50
176
     1
 40
0.0
176
     1
 40
1.0
176
     1
 90
        0
176
     1
 62
    18
420
        0
176
     1
 90
       50
176
     1
 90
        3
176
     1
 62
     5
420
      255
176
     1
290
     0
176
     1
 90
       50
176
     1
 90
       50
176
     1
 90
       50
176
     1
290
     0
176
     1
 90
       50
176
     1
 62
   256
176
     0
 40
1.0
176
     0
 90
        2
176
     1
  1
strokes_ogs.tif
176
     1
290
     0
176
     1
 40
1.0
176
     1
 40
1.0
176
     1
  0
VISUALSTYLE
  5
36
102
{ACAD_REACTORS
330
29
102
}
330
29
100
AcDbVisualStyle
  2
Thicken
 70
    13
177
     3
291
     1
 70
    58
 90
        2
176
     1
 90
        2
176
     1
 90
        0
176
     1
 90
        0
176
     1
 40
0.6
176
     1
 40
30.0
176
     1
 62
     7
420
 16777215
176
     1
 90
        1
176
     1
 90
        4
176
     1
 62
     7
176
     1
 62
   257
176
     1
 90
        1
176
     1
 90
        1
176
     1
 40
1.0
176
     1
 90
       12
176
     1
 62
     7
176
     1
 40
1.0
176
     1
 90
        1
176
     1
 90
        6
176
     1
 90
        2
176
     1
 62
     7
176
     1
 90
        5
176
     1
 90
        0
176
     1
 90
        0
176
     1
290
     0
176
     1
 90
        1
176
     1
 40
0.0
176
     1
 90
        0
176
     1
290
     0
176
     1
290
     1
176
     1
290
     1
176
     1
290
     0
176
     1
290
     0
176
     1
290
     0
176
     1
290
     0
176
     1
290
     0
176
     1
290
     0
176
     1
 90
       50
176
     1
 40
0.0
176
     1
 40
1.0
176
     1
 90
        0
176
     1
 62
    18
420
        0
176
     1
 90
       50
176
     1
 90
        3
176
     1
 62
     5
420
      255
176
     1
290
     0
176
     1
 90
       50
176
     1
 90
       50
176
     1
 90
       50
176
     1
290
     0
176
     1
 90
       50
176
     1
 62
   256
176
     0
 40
1.0
176
     0
 90
        2
176
     1
  1
strokes_ogs.tif
176
     1
290
     0
176
     1
 40
1.0
176
     1
 40
1.0
176
     1
  0
VISUALSTYLE
  5
30
102
{ACAD_REACTORS
330
29
102
}
330
29
100
AcDbVisualStyle
  2
Wireframe
 70
     5
177
     3
291
     0
 70
    58
 90
        0
176
     1
 90
        2
176
     1
 90
        0
176
     1
 90
        0
176
     1
 40
0.6
176
     1
 40
30.0
176
     1
 62
     7
420
 16777215
176
     1
 90
        1
176
     1
 90
        4
176
     1
 62
     7
176
     1
 62
   257
176
     1
 90
        1
176
     1
 90
        1
176
     1
 40
1.0
176
     1
 90
        0
176
     1
 62
   257
176
     1
 40
1.0
176
     1
 90
        1
176
     1
 90
        6
176
     1
 90
        2
176
     1
 62
     7
176
     1
 90
        3
176
     1
 90
        0
176
     1
 90
        0
176
     1
290
     0
176
     1
 90
        1
176
     1
 40
0.0
176
     1
 90
        0
176
     1
290
     0
176
     1
290
     1
176
     1
290
     1
176
     1
290
     0
176
     1
290
     0
176
     1
290
     0
176
     1
290
     0
176
     1
290
     0
176
     1
290
     0
176
     1
 90
       50
176
     1
 40
0.0
176
     1
 40
1.0
176
     1
 90
        0
176
     1
 62
    18
420
        0
176
     1
 90
       50
176
     1
 90
        3
176
     1
 62
     5
420
      255
176
     1
290
     0
176
     1
 90
       50
176
     1
 90
       50
176
     1
 90
       50
176
     1
290
     0
176
     1
 90
       50
176
     1
 62
   256
176
     0
 40
1.0
176
     0
 90
        2
176
     1
  1
strokes_ogs.tif
176
     1
290
     0
176
     1
 40
1.0
176
     1
 40
1.0
176
     1
  0
VISUALSTYLE
  5
3C
102
{ACAD_REACTORS
330
29
102
}
330
29
100
AcDbVisualStyle
  2
X-Ray
 70
    25
177
     3
291
     0
 70
    58
 90
        2
176
     1
 90
        2
176
     1
 90
        1
176
     1
 90
        1
176
     1
 40
0.5
176
     1
 40
30.0
176
     1
 62
     7
420
 16777215
176
     1
 90
        1
176
     1
 90
        0
176
     1
 62
     7
176
     1
 62
   257
176
     1
 90
        1
176
     1
 90
        1
176
     1
 40
1.0
176
     1
 90
        8
176
     1
 62
     7
176
     1
 40
1.0
176
     1
 90
        1
176
     1
 90
        6
176
     1
 90
        2
176
     1
 62
     7
176
     1
 90
        3
176
     1
 90
        0
176
     1
 90
        0
176
     1
290
     0
176
     1
 90
       13
176
     1
 40
0.0
176
     1
 90
        0
176
     1
290
     0
176
     1
290
     1
176
     1
290
     1
176
     1
290
     0
176
     1
290
     0
176
     1
290
     0
176
     1
290
     0
176
     1
290
     0
176
     1
290
     0
176
     1
 90
       50
176
     1
 40
0.0
176
     1
 40
1.0
176
     1
 90
        0
176
     1
 62
    18
420
        0
176
     1
 90
       50
176
     1
 90
        3
176
     1
 62
     5
420
      255
176
     1
290
     0
176
     1
 90
       50
176
     1
 90
       50
176
     1
 90
       50
176
     1
290
     0
176
     1
 90
       50
176
     1
 62
   256
176
     0
 40
1.0
176
     0
 90
        2
176
     1
  1
strokes_ogs.tif
176
     1
290
     0
176
     1
 40
1.0
176
     1
 40
1.0
176
     1
  0
DICTIONARYVAR
  5
1BE
102
{ACAD_REACTORS
330
1B9
102
}
330
1B9
100
DictionaryVariables
280
     0
  1
1:1
  0
DICTIONARYVAR
  5
1BB
102
{ACAD_REACTORS
330
1B9
102
}
330
1B9
100
DictionaryVariables
280
     0
  1
STANDARD
  0
DICTIONARYVAR
  5
1BA
102
{ACAD_REACTORS
330
1B9
102
}
330
1B9
100
DictionaryVariables
280
     0
  1
STANDARD
  0
DICTIONARYVAR
  5
1BC
102
{ACAD_REACTORS
330
1B9
102
}
330
1B9
100
DictionaryVariables
280
     0
  1
Imperial24
  0
DICTIONARYVAR
  5
1BD
102
{ACAD_REACTORS
330
1B9
102
}
330
1B9
100
DictionaryVariables
280
     0
  1
Imperial24
  0
XRECORD
  5
1B5
102
{ACAD_REACTORS
330
1B1
102
}
330
1B1
100
AcDbXrecord
280
     1
  1
BUILDING_ID
  1
Casa à rua Tomaz Araújo, 39, Acarí, Rio Grande do Norte
  1
FLOOR_ID
  1
22877136
  0
XRECORD
  5
1B3
102
{ACAD_REACTORS
330
1B1
102
}
330
1B1
100
AcDbXrecord
280
     1
  1
-2000011
  1
Paredes
  1
-2000023
  1
Portas
  1
-2000051
  1
Linhas
  1
-2000280
  1
Blocos de margens e carimbo
  0
XRECORD
  5
1B4
102
{ACAD_REACTORS
330
1B1
102
}
330
1B1
100
AcDbXrecord
280
     1
  1
-2000027
  1
Abertura
  1
-2000042
  1
<Linhas finas>
  1
-2000281
  1
<Linhas finas>
  1
-2000588
  1
Padrão de corte
  0
XRECORD
  5
1B2
102
{ACAD_REACTORS
330
1B1
102
}
330
1B1
100
AcDbXrecord
280
     1
  1
22369135
  1
porta multiplas_original : Simples - 70 cm
  1
22369137
  1
porta multiplas_original : Simples - 90 cm
  1
22369145
  1
porta multiplas_original : Simples - 80 cm
  1
22422765
  1
Parede básica : 40 : 40
  1
22476216
  1
Parede básica : 35 : 35
  1
22542561
  1
Parede básica : 30 : 30
  1
22877114
  1
SVG : A4
  1
3324767
  1
Parede básica : 00_PAREDE_GENERICA_15_CM : 00_PAREDE_GENERICA_15_CM
  0
DICTIONARY
  5
1A
330
19
100
AcDbDictionary
280
     1
281
     1
  3
BUMPTILE
360
1C
  3
DIFFUSETILE
360
1B
  3
OPACITYTILE
360
1F
  3
REFLECTIONTILE
360
1E
  3
REFRACTIONTILE
360
20
  3
SPECULARTILE
360
1D
  0
DICTIONARY
  5
12
330
11
100
AcDbDictionary
280
     1
281
     1
  3
BUMPTILE
360
14
  3
DIFFUSETILE
360
13
  3
OPACITYTILE
360
17
  3
REFLECTIONTILE
360
16
  3
REFRACTIONTILE
360
18
  3
SPECULARTILE
360
15
  0
DICTIONARY
  5
22
330
21
100
AcDbDictionary
280
     1
281
     1
  3
BUMPTILE
360
24
  3
DIFFUSETILE
360
23
  3
OPACITYTILE
360
27
  3
REFLECTIONTILE
360
26
  3
REFRACTIONTILE
360
28
  3
SPECULARTILE
360
25
  0
DICTIONARY
  5
25E
330
65
100
AcDbDictionary
280
     1
281
     1
  3
ACAD_ROUNDTRIP_2008_TABLESTYLE_CELLSTYLEMAP
360
25F
  0
XRECORD
  5
1C
102
{ACAD_REACTORS
330
1A
102
}
330
1A
100
AcDbXrecord
280
     1
270
     1
271
     1
  0
XRECORD
  5
1B
102
{ACAD_REACTORS
330
1A
102
}
330
1A
100
AcDbXrecord
280
     1
270
     1
271
     1
  0
XRECORD
  5
1F
102
{ACAD_REACTORS
330
1A
102
}
330
1A
100
AcDbXrecord
280
     1
270
     1
271
     1
  0
XRECORD
  5
1E
102
{ACAD_REACTORS
330
1A
102
}
330
1A
100
AcDbXrecord
280
     1
270
     1
271
     1
  0
XRECORD
  5
20
102
{ACAD_REACTORS
330
1A
102
}
330
1A
100
AcDbXrecord
280
     1
270
     1
271
     1
  0
XRECORD
  5
1D
102
{ACAD_REACTORS
330
1A
102
}
330
1A
100
AcDbXrecord
280
     1
270
     1
271
     1
  0
XRECORD
  5
14
102
{ACAD_REACTORS
330
12
102
}
330
12
100
AcDbXrecord
280
     1
270
     1
271
     1
  0
XRECORD
  5
13
102
{ACAD_REACTORS
330
12
102
}
330
12
100
AcDbXrecord
280
     1
270
     1
271
     1
  0
XRECORD
  5
17
102
{ACAD_REACTORS
330
12
102
}
330
12
100
AcDbXrecord
280
     1
270
     1
271
     1
  0
XRECORD
  5
16
102
{ACAD_REACTORS
330
12
102
}
330
12
100
AcDbXrecord
280
     1
270
     1
271
     1
  0
XRECORD
  5
18
102
{ACAD_REACTORS
330
12
102
}
330
12
100
AcDbXrecord
280
     1
270
     1
271
     1
  0
XRECORD
  5
15
102
{ACAD_REACTORS
330
12
102
}
330
12
100
AcDbXrecord
280
     1
270
     1
271
     1
  0
XRECORD
  5
24
102
{ACAD_REACTORS
330
22
102
}
330
22
100
AcDbXrecord
280
     1
270
     1
271
     1
  0
XRECORD
  5
23
102
{ACAD_REACTORS
330
22
102
}
330
22
100
AcDbXrecord
280
     1
270
     1
271
     1
  0
XRECORD
  5
27
102
{ACAD_REACTORS
330
22
102
}
330
22
100
AcDbXrecord
280
     1
270
     1
271
     1
  0
XRECORD
  5
26
102
{ACAD_REACTORS
330
22
102
}
330
22
100
AcDbXrecord
280
     1
270
     1
271
     1
  0
XRECORD
  5
28
102
{ACAD_REACTORS
330
22
102
}
330
22
100
AcDbXrecord
280
     1
270
     1
271
     1
  0
XRECORD
  5
25
102
{ACAD_REACTORS
330
22
102
}
330
22
100
AcDbXrecord
280
     1
270
     1
271
     1
  0
CELLSTYLEMAP
  5
25F
102
{ACAD_REACTORS
330
25E
102
}
330
25E
100
AcDbCellStyleMap
 90
        3
300
CELLSTYLE
  1
TABLEFORMAT_BEGIN
 90
        5
170
     1
 91
        0
 92
    32768
 62
   257
 93
        1
300
CONTENTFORMAT
  1
CONTENTFORMAT_BEGIN
 90
        0
 91
        0
 92
      512
 93
        0
300

 40
0.0
140
1.0
 94
        5
 62
     0
340
55
144
0.25
309
CONTENTFORMAT_END
171
     0
 94
        0
309
TABLEFORMAT_END
  1
CELLSTYLE_BEGIN
 90
        1
 91
        1
300
_TITLE
309
CELLSTYLE_END
300
CELLSTYLE
  1
TABLEFORMAT_BEGIN
 90
        5
170
     1
 91
        0
 92
        0
 62
   257
 93
        1
300
CONTENTFORMAT
  1
CONTENTFORMAT_BEGIN
 90
        0
 91
        0
 92
      512
 93
        0
300

 40
0.0
140
1.0
 94
        5
 62
     0
340
55
144
0.18
309
CONTENTFORMAT_END
171
     0
 94
        0
309
TABLEFORMAT_END
  1
CELLSTYLE_BEGIN
 90
        2
 91
        1
300
_HEADER
309
CELLSTYLE_END
300
CELLSTYLE
  1
TABLEFORMAT_BEGIN
 90
        5
170
     1
 91
        0
 92
        0
 62
   257
 93
        1
300
CONTENTFORMAT
  1
CONTENTFORMAT_BEGIN
 90
        0
 91
        0
 92
      512
 93
        0
300

 40
0.0
140
1.0
 94
        2
 62
     0
340
55
144
0.18
309
CONTENTFORMAT_END
171
     0
 94
        0
309
TABLEFORMAT_END
  1
CELLSTYLE_BEGIN
 90
        3
 91
        2
300
_DATA
309
CELLSTYLE_END
  0
ENDSEC
  0
SECTION
  2
ACDSDATA
 70
     2
 71
     8
  0
ACDSSCHEMA
 90
        0
  1
AcDb_Thumbnail_Schema
  2
AcDbDs::ID
280
    10
 91
        8
  2
Thumbnail_Data
280
    15
 91
        0
101
ACDSRECORD
 95
        0
 90
        1
  2
AcDbDs::TreatedAsObjectData
280
     1
291
     1
101
ACDSRECORD
 95
        0
 90
        2
  2
AcDbDs::Legacy
280
     1
291
     1
101
ACDSRECORD
  1
AcDbDs::ID
 90
        3
  2
AcDs:Indexable
280
     1
291
     1
101
ACDSRECORD
  1
AcDbDs::ID
 90
        4
  2
AcDbDs::HandleAttribute
280
     7
282
     1
  0
ACDSSCHEMA
 90
        1
  1
AcDbDs::TreatedAsObjectDataSchema
  2
AcDbDs::TreatedAsObjectData
280
     1
 91
        0
  0
ACDSSCHEMA
 90
        2
  1
AcDbDs::LegacySchema
  2
AcDbDs::Legacy
280
     1
 91
        0
  0
ACDSSCHEMA
 90
        3
  1
AcDbDs::IndexedPropertySchema
  2
AcDs:Indexable
280
     1
 91
        0
  0
ACDSSCHEMA
 90
        4
  1
AcDbDs::HandleAttributeSchema
  2
AcDbDs::HandleAttribute
280
     7
 91
        1
284
     1
  0
ACDSRECORD
 90
        0
  2
AcDbDs::ID
280
    10
320
6F
  2
Thumbnail_Data
280
    15
 94
     1291
310
89504E470D0A1A0A0000000D4948445200000100000000B5080300000087DCD12600000300504C5445FFFFFFFFFFFFFFFFFF0000000000000000000000000000000000000000000000000000330000660000990000CC0000FF0033000033330033660033990033CC0033FF0066000066330066660066990066CC0066FF0099
310
000099330099660099990099CC0099FF00CC0000CC3300CC6600CC9900CCCC00CCFF00FF0000FF3300FF6600FF9900FFCC00FFFF3300003300333300663300993300CC3300FF3333003333333333663333993333CC3333FF3366003366333366663366993366CC3366FF3399003399333399663399993399CC3399FF33CC00
310
33CC3333CC6633CC9933CCCC33CCFF33FF0033FF3333FF6633FF9933FFCC33FFFF6600006600336600666600996600CC6600FF6633006633336633666633996633CC6633FF6666006666336666666666996666CC6666FF6699006699336699666699996699CC6699FF66CC0066CC3366CC6666CC9966CCCC66CCFF66FF0066
310
FF3366FF6666FF9966FFCC66FFFF9900009900339900669900999900CC9900FF9933009933339933669933999933CC9933FF9966009966339966669966999966CC9966FF9999009999339999669999999999CC9999FF99CC0099CC3399CC6699CC9999CCCC99CCFF99FF0099FF3399FF6699FF9999FFCC99FFFFCC0000CC00
310
33CC0066CC0099CC00CCCC00FFCC3300CC3333CC3366CC3399CC33CCCC33FFCC6600CC6633CC6666CC6699CC66CCCC66FFCC9900CC9933CC9966CC9999CC99CCCC99FFCCCC00CCCC33CCCC66CCCC99CCCCCCCCCCFFCCFF00CCFF33CCFF66CCFF99CCFFCCCCFFFFFF0000FF0033FF0066FF0099FF00CCFF00FFFF3300FF3333
310
FF3366FF3399FF33CCFF33FFFF6600FF6633FF6666FF6699FF66CCFF66FFFF9900FF9933FF9966FF9999FF99CCFF99FFFFCC00FFCC33FFCC66FFCC99FFCCCCFFCCFFFFFF00FFFF33FFFF66FFFF99FFFFCCFFFFFF0000000D0D0D1A1A1A2828283535354343435050505D5D5D6B6B6B787878868686939393A1A1A1AEAEAEBB
310
BBBBC9C9C9D6D6D6E4E4E4F1F1F1FFFFFF000000000000000000000000000000000000000000000000000000000000AD4AB4E4000001C64944415478DAEDDC518E823014055076DC85CD565C40BFFB695CC45808A53A93CC7C989070CFFD20FAA2114F10E115BA9493D3DAFDDEDA69CBC752965373F2C72F00000000000000
310
0000000000000000000000000000000000000000000000000000000000000000000000000000000000000000000000F1005FFFC9A5016E3DEB7BCA6DCA5CB93840BFDD68DCEF3432552E0FB0AF75599775CB514903689100535A7F5EE74220405D92019EDBFF920CF0F6F543F7010000000000004020403F0B4806E8C74000
310
8201D683600079007B9EFBBFBE0C04E8BDBFD112CC0328BDF5B526F538A084031CB380A56E01ADCCC302B5BD27626064FE178803702004C0B9C0381B0E07581B02E91DA1AA25060000000000000000900450E3018E2B837680514AD902EA3BC05E8AF909D41F005B09404253B48E9EE83150364A29002D16E08F5700000000
310
0000000000000000000000000000000000E07200E597551F5348000070FD7181ED42F9F2322E50B6C97402C6057AD687B7D71CA56B03A44FA5F5F1000000000000000000000000000000000000000000000000000000000000000000000000000000000000000000000000000000000000000000E0D30027E77E6E1ECB233C
310
DFFCD364B3B14B1A7A0000000049454E44AE426082
  0
ACDSRECORD
 90
        0
  2
AcDbDs::ID
280
    10
320
73
  2
Thumbnail_Data
280
    15
 94
     1070
310
89504E470D0A1A0A0000000D494844520000010000000065080300000095E2CD0900000300504C5445FFFFFFFFFFFFFFFFFF0000000000000000000000000000000000000000000000000000330000660000990000CC0000FF0033000033330033660033990033CC0033FF0066000066330066660066990066CC0066FF0099
310
000099330099660099990099CC0099FF00CC0000CC3300CC6600CC9900CCCC00CCFF00FF0000FF3300FF6600FF9900FFCC00FFFF3300003300333300663300993300CC3300FF3333003333333333663333993333CC3333FF3366003366333366663366993366CC3366FF3399003399333399663399993399CC3399FF33CC00
310
33CC3333CC6633CC9933CCCC33CCFF33FF0033FF3333FF6633FF9933FFCC33FFFF6600006600336600666600996600CC6600FF6633006633336633666633996633CC6633FF6666006666336666666666996666CC6666FF6699006699336699666699996699CC6699FF66CC0066CC3366CC6666CC9966CCCC66CCFF66FF0066
310
FF3366FF6666FF9966FFCC66FFFF9900009900339900669900999900CC9900FF9933009933339933669933999933CC9933FF9966009966339966669966999966CC9966FF9999009999339999669999999999CC9999FF99CC0099CC3399CC6699CC9999CCCC99CCFF99FF0099FF3399FF6699FF9999FFCC99FFFFCC0000CC00
310
33CC0066CC0099CC00CCCC00FFCC3300CC3333CC3366CC3399CC33CCCC33FFCC6600CC6633CC6666CC6699CC66CCCC66FFCC9900CC9933CC9966CC9999CC99CCCC99FFCCCC00CCCC33CCCC66CCCC99CCCCCCCCCCFFCCFF00CCFF33CCFF66CCFF99CCFFCCCCFFFFFF0000FF0033FF0066FF0099FF00CCFF00FFFF3300FF3333
310
FF3366FF3399FF33CCFF33FFFF6600FF6633FF6666FF6699FF66CCFF66FFFF9900FF9933FF9966FF9999FF99CCFF99FFFFCC00FFCC33FFCC66FFCC99FFCCCCFFCCFFFFFF00FFFF33FFFF66FFFF99FFFFCCFFFFFF0000000D0D0D1A1A1A2828283535354343435050505D5D5D6B6B6B787878868686939393A1A1A1AEAEAEBB
310
BBBBC9C9C9D6D6D6E4E4E4F1F1F1FFFFFF000000000000000000000000000000000000000000000000000000000000AD4AB4E4000000BB4944415478DAEDD8410A83301445D1BFFFB565157F256D51D2D8426752C83B672046475E829A54FD41F78FD1E8DA9E000208208000F33C3B4087CF802E0132035C091018A0DECF1E
310
3D03CA3BE08B7780CFA0007E852D862C870510400001041040809D03CC1FA0EBA23828C0B112880E50BD06E8F400E7C88E9000699FC18F7B020820800002082080000208208000020820C0B6018EFDAFE5DA7910C096584280F1F43A198B394E9F011D100000000000000000000000809B3D005B96F47037F2A30900000000
310
49454E44AE426082A3FBC1B63667000100E9AFCF4B922449922449922449D277BA01089A8AC764C955E60000000049454E44AE426082
  0
ENDSEC
  0
EOF
