  0
SECTION
  2
HEADER
  9
$ACADVER
  1
AC1032
  9
$ACADMAINTVER
 90
      204
  9
$DWGCODEPAGE
  3
ANSI_1252
  9
$LASTSAVEDBY
  1
duda-
  9
$REQUIREDVERSIONS
160
                 0
  9
$INSBASE
 10
0.0
 20
0.0
 30
0.0
  9
$EXTMIN
 10
-73908.78708537732
 20
-11422.13893556256
 30
0.0
  9
$EXTMAX
 10
-54225.54805123397
 20
-4572.537509984436
 30
0.0
  9
$LIMMIN
 10
0.0
 20
0.0
  9
$LIMMAX
 10
12.0
 20
9.0
  9
$ORTHOMODE
 70
     0
  9
$REGENMODE
 70
     1
  9
$FILLMODE
 70
     1
  9
$QTEXTMODE
 70
     0
  9
$MIRRTEXT
 70
     0
  9
$LTSCALE
 40
1.0
  9
$ATTMODE
 70
     1
  9
$TEXTSIZE
 40
0.2
  9
$TRACEWID
 40
0.05
  9
$TEXTSTYLE
  7
Standard
  9
$CLAYER
  8
0
  9
$CELTYPE
  6
ByLayer
  9
$CECOLOR
 62
   256
  9
$CELTSCALE
 40
1.0
  9
$DISPSILH
 70
     0
  9
$DIMSCALE
 40
1.0
  9
$DIMASZ
 40
0.18
  9
$DIMEXO
 40
0.0625
  9
$DIMDLI
 40
0.38
  9
$DIMRND
 40
0.0
  9
$DIMDLE
 40
0.0
  9
$DIMEXE
 40
0.18
  9
$DIMTP
 40
0.0
  9
$DIMTM
 40
0.0
  9
$DIMTXT
 40
0.18
  9
$DIMCEN
 40
0.09
  9
$DIMTSZ
 40
0.0
  9
$DIMTOL
 70
     0
  9
$DIMLIM
 70
     0
  9
$DIMTIH
 70
     1
  9
$DIMTOH
 70
     1
  9
$DIMSE1
 70
     0
  9
$DIMSE2
 70
     0
  9
$DIMTAD
 70
     0
  9
$DIMZIN
 70
     0
  9
$DIMBLK
  1

  9
$DIMASO
 70
     1
  9
$DIMSHO
 70
     1
  9
$DIMPOST
  1

  9
$DIMAPOST
  1

  9
$DIMALT
 70
     0
  9
$DIMALTD
 70
     2
  9
$DIMALTF
 40
25.4
  9
$DIMLFAC
 40
1.0
  9
$DIMTOFL
 70
     0
  9
$DIMTVP
 40
0.0
  9
$DIMTIX
 70
     0
  9
$DIMSOXD
 70
     0
  9
$DIMSAH
 70
     0
  9
$DIMBLK1
  1

  9
$DIMBLK2
  1

  9
$DIMSTYLE
  2
Standard
  9
$DIMCLRD
 70
     0
  9
$DIMCLRE
 70
     0
  9
$DIMCLRT
 70
     0
  9
$DIMTFAC
 40
1.0
  9
$DIMGAP
 40
0.09
  9
$DIMJUST
 70
     0
  9
$DIMSD1
 70
     0
  9
$DIMSD2
 70
     0
  9
$DIMTOLJ
 70
     1
  9
$DIMTZIN
 70
     0
  9
$DIMALTZ
 70
     0
  9
$DIMALTTZ
 70
     0
  9
$DIMUPT
 70
     0
  9
$DIMDEC
 70
     4
  9
$DIMTDEC
 70
     4
  9
$DIMALTU
 70
     2
  9
$DIMALTTD
 70
     2
  9
$DIMTXSTY
  7
Standard
  9
$DIMAUNIT
 70
     0
  9
$DIMADEC
 70
     0
  9
$DIMALTRND
 40
0.0
  9
$DIMAZIN
 70
     0
  9
$DIMDSEP
 70
    46
  9
$DIMATFIT
 70
     3
  9
$DIMFRAC
 70
     0
  9
$DIMLDRBLK
  1

  9
$DIMLUNIT
 70
     2
  9
$DIMLWD
 70
    -2
  9
$DIMLWE
 70
    -2
  9
$DIMTMOVE
 70
     0
  9
$DIMFXL
 40
1.0
  9
$DIMFXLON
 70
     0
  9
$DIMJOGANG
 40
0.7853981633974483
  9
$DIMTFILL
 70
     0
  9
$DIMTFILLCLR
 70
     0
  9
$DIMARCSYM
 70
     0
  9
$DIMLTYPE
  6

  9
$DIMLTEX1
  6

  9
$DIMLTEX2
  6

  9
$DIMTXTDIRECTION
 70
     0
  9
$LUNITS
 70
     2
  9
$LUPREC
 70
     4
  9
$SKETCHINC
 40
0.1
  9
$FILLETRAD
 40
0.0
  9
$AUNITS
 70
     0
  9
$AUPREC
 70
     0
  9
$MENU
  1
.
  9
$ELEVATION
 40
0.0
  9
$PELEVATION
 40
0.0
  9
$THICKNESS
 40
0.0
  9
$LIMCHECK
 70
     0
  9
$CHAMFERA
 40
0.0
  9
$CHAMFERB
 40
0.0
  9
$CHAMFERC
 40
0.0
  9
$CHAMFERD
 40
0.0
  9
$SKPOLY
 70
     0
  9
$TDCREATE
 40
2460730.542337963
  9
$TDUCREATE
 40
2460730.667337963
  9
$TDUPDATE
 40
2460738.962233797
  9
$TDUUPDATE
 40
2460739.087233796
  9
$TDINDWG
 40
0.0123958333
  9
$TDUSRTIMER
 40
0.0123958333
  9
$USRTIMER
 70
     1
  9
$ANGBASE
 50
0.0
  9
$ANGDIR
 70
     0
  9
$PDMODE
 70
     0
  9
$PDSIZE
 40
0.0
  9
$PLINEWID
 40
0.0
  9
$SPLFRAME
 70
     0
  9
$SPLINETYPE
 70
     6
  9
$SPLINESEGS
 70
     8
  9
$HANDSEED
  5
3CA
  9
$SURFTAB1
 70
     6
  9
$SURFTAB2
 70
     6
  9
$SURFTYPE
 70
     6
  9
$SURFU
 70
     6
  9
$SURFV
 70
     6
  9
$UCSBASE
  2

  9
$UCSNAME
  2

  9
$UCSORG
 10
0.0
 20
0.0
 30
0.0
  9
$UCSXDIR
 10
1.0
 20
0.0
 30
0.0
  9
$UCSYDIR
 10
0.0
 20
1.0
 30
0.0
  9
$UCSORTHOREF
  2

  9
$UCSORTHOVIEW
 70
     0
  9
$UCSORGTOP
 10
0.0
 20
0.0
 30
0.0
  9
$UCSORGBOTTOM
 10
0.0
 20
0.0
 30
0.0
  9
$UCSORGLEFT
 10
0.0
 20
0.0
 30
0.0
  9
$UCSORGRIGHT
 10
0.0
 20
0.0
 30
0.0
  9
$UCSORGFRONT
 10
0.0
 20
0.0
 30
0.0
  9
$UCSORGBACK
 10
0.0
 20
0.0
 30
0.0
  9
$PUCSBASE
  2

  9
$PUCSNAME
  2

  9
$PUCSORG
 10
0.0
 20
0.0
 30
0.0
  9
$PUCSXDIR
 10
1.0
 20
0.0
 30
0.0
  9
$PUCSYDIR
 10
0.0
 20
1.0
 30
0.0
  9
$PUCSORTHOREF
  2

  9
$PUCSORTHOVIEW
 70
     0
  9
$PUCSORGTOP
 10
0.0
 20
0.0
 30
0.0
  9
$PUCSORGBOTTOM
 10
0.0
 20
0.0
 30
0.0
  9
$PUCSORGLEFT
 10
0.0
 20
0.0
 30
0.0
  9
$PUCSORGRIGHT
 10
0.0
 20
0.0
 30
0.0
  9
$PUCSORGFRONT
 10
0.0
 20
0.0
 30
0.0
  9
$PUCSORGBACK
 10
0.0
 20
0.0
 30
0.0
  9
$USERI1
 70
     0
  9
$USERI2
 70
     0
  9
$USERI3
 70
     0
  9
$USERI4
 70
     0
  9
$USERI5
 70
     0
  9
$USERR1
 40
0.0
  9
$USERR2
 40
0.0
  9
$USERR3
 40
0.0
  9
$USERR4
 40
0.0
  9
$USERR5
 40
0.0
  9
$WORLDVIEW
 70
     1
  9
$SHADEDGE
 70
     3
  9
$SHADEDIF
 70
    70
  9
$TILEMODE
 70
     1
  9
$MAXACTVP
 70
    64
  9
$PINSBASE
 10
0.0
 20
0.0
 30
0.0
  9
$PLIMCHECK
 70
     0
  9
$PEXTMIN
 10
20.78244708689817
 20
102.9945296609012
 30
-0.0000000349181948
  9
$PEXTMAX
 10
317.8116197884872
 20
313.0151568236408
 30
0.0000000814935746
  9
$PLIMMIN
 10
20.76884200533789
 20
102.9849099062627
  9
$PLIMMAX
 10
317.9612673821897
 20
313.1209682535316
  9
$UNITMODE
 70
     0
  9
$VISRETAIN
 70
     1
  9
$PLINEGEN
 70
     0
  9
$PSLTSCALE
 70
     0
  9
$TREEDEPTH
 70
  3020
  9
$CMLSTYLE
  2
Standard
  9
$CMLJUST
 70
     0
  9
$CMLSCALE
 40
1.0
  9
$PROXYGRAPHICS
 70
     1
  9
$MEASUREMENT
 70
     1
  9
$CELWEIGHT
370
    -1
  9
$ENDCAPS
280
     0
  9
$JOINSTYLE
280
     0
  9
$LWDISPLAY
290
     0
  9
$INSUNITS
 70
     4
  9
$HYPERLINKBASE
  1

  9
$STYLESHEET
  1

  9
$XEDIT
290
     1
  9
$CEPSNTYPE
380
     0
  9
$PSTYLEMODE
290
     1
  9
$FINGERPRINTGUID
  2
{2E27AA8C-BC84-9945-948A-8C0F830D23B8}
  9
$VERSIONGUID
  2
{012B7F2C-AFEF-A549-95CD-BA610DA3C672}
  9
$EXTNAMES
290
     1
  9
$PSVPSCALE
 40
0.0
  9
$OLESTARTUP
290
     0
  9
$SORTENTS
280
   127
  9
$INDEXCTL
280
     0
  9
$HIDETEXT
280
     1
  9
$XCLIPFRAME
280
     2
  9
$HALOGAP
280
     0
  9
$OBSCOLOR
 70
   257
  9
$OBSLTYPE
280
     0
  9
$INTERSECTIONDISPLAY
280
     0
  9
$INTERSECTIONCOLOR
 70
   257
  9
$DIMASSOC
280
     2
  9
$PROJECTNAME
  1

  9
$CAMERADISPLAY
290
     0
  9
$LENSLENGTH
 40
50.0
  9
$CAMERAHEIGHT
 40
0.0
  9
$STEPSPERSEC
 40
2.0
  9
$STEPSIZE
 40
6.0
  9
$3DDWFPREC
 40
2.0
  9
$PSOLWIDTH
 40
0.25
  9
$PSOLHEIGHT
 40
4.0
  9
$LOFTANG1
 40
1.570796326794896
  9
$LOFTANG2
 40
1.570796326794896
  9
$LOFTMAG1
 40
0.0
  9
$LOFTMAG2
 40
0.0
  9
$LOFTPARAM
 70
     7
  9
$LOFTNORMALS
280
     1
  9
$LATITUDE
 40
0.0
  9
$LONGITUDE
 40
0.0
  9
$NORTHDIRECTION
 40
0.0
  9
$TIMEZONE
 70
     0
  9
$LIGHTGLYPHDISPLAY
280
     1
  9
$TILEMODELIGHTSYNCH
280
     1
  9
$CMATERIAL
347
11
  9
$SOLIDHIST
280
     0
  9
$SHOWHIST
280
     1
  9
$DWFFRAME
280
     2
  9
$DGNFRAME
280
     0
  9
$REALWORLDSCALE
290
     1
  9
$INTERFERECOLOR
 62
     1
  9
$INTERFEREOBJVS
345
33
  9
$INTERFEREVPVS
346
30
  9
$CSHADOW
280
     0
  9
$SHADOWPLANELOCATION
 40
0.0
  0
ENDSEC
  0
SECTION
  2
CLASSES
  0
CLASS
  1
ACDBDICTIONARYWDFLT
  2
AcDbDictionaryWithDefault
  3
ObjectDBX Classes
 90
        0
 91
        1
280
     0
281
     0
  0
CLASS
  1
MATERIAL
  2
AcDbMaterial
  3
ObjectDBX Classes
 90
     1153
 91
        3
280
     0
281
     0
  0
CLASS
  1
VISUALSTYLE
  2
AcDbVisualStyle
  3
ObjectDBX Classes
 90
     4095
 91
       24
280
     0
281
     0
  0
CLASS
  1
SCALE
  2
AcDbScale
  3
ObjectDBX Classes
 90
     1153
 91
       17
280
     0
281
     0
  0
CLASS
  1
TABLESTYLE
  2
AcDbTableStyle
  3
ObjectDBX Classes
 90
     4095
 91
        1
280
     0
281
     0
  0
CLASS
  1
MLEADERSTYLE
  2
AcDbMLeaderStyle
  3
ACDB_MLEADERSTYLE_CLASS
 90
     4095
 91
        1
280
     0
281
     0
  0
CLASS
  1
ACDBSECTIONVIEWSTYLE
  2
AcDbSectionViewStyle
  3
ObjectDBX Classes
 90
     1025
 91
        2
280
     0
281
     0
  0
CLASS
  1
ACDBDETAILVIEWSTYLE
  2
AcDbDetailViewStyle
  3
ObjectDBX Classes
 90
     1025
 91
        2
280
     0
281
     0
  0
CLASS
  1
RASTERVARIABLES
  2
AcDbRasterVariables
  3
ISM
 90
        0
 91
        1
280
     0
281
     0
  0
CLASS
  1
DICTIONARYVAR
  2
AcDbDictionaryVar
  3
ObjectDBX Classes
 90
        0
 91
        5
280
     0
281
     0
  0
CLASS
  1
SORTENTSTABLE
  2
AcDbSortentsTable
  3
ObjectDBX Classes
 90
        0
 91
        1
280
     0
281
     0
  0
CLASS
  1
SUN
  2
AcDbSun
  3
SCENEOE
 90
     1153
 91
        1
280
     0
281
     0
  0
CLASS
  1
RAPIDRTRENDERSETTINGS
  2
AcDbRapidRTRenderSettings
  3
ObjectDBX Classes
 90
     1024
 91
        7
280
     0
281
     0
  0
CLASS
  1
CELLSTYLEMAP
  2
AcDbCellStyleMap
  3
ObjectDBX Classes
 90
     1152
 91
        1
280
     0
281
     0
  0
ENDSEC
  0
SECTION
  2
TABLES
  0
TABLE
  2
VPORT
  5
8
330
0
100
AcDbSymbolTable
 70
     1
  0
VPORT
  5
57
330
8
100
AcDbSymbolTableRecord
100
AcDbViewportTableRecord
  2
*Active
 70
     0
 10
0.0
 20
0.0
 11
1.0
 21
1.0
 12
-58826.87922565801
 22
-11303.86874554198
 13
0.0
 23
0.0
 14
1.0
 24
1.0
 15
0.0
 25
0.0
 16
0.0
 26
0.0
 36
1.0
 17
0.0
 27
0.0
 37
0.0
 40
20134.626284126
 41
2.531208499335989
 42
50.0
 43
0.0
 44
0.0
 50
0.0
 51
0.0
 71
     0
 72
  1000
 73
     1
 74
     1
 75
     0
 76
     0
 77
     0
 78
     0
281
     0
 65
     1
110
0.0
120
0.0
130
0.0
111
1.0
121
0.0
131
0.0
112
0.0
122
1.0
132
0.0
 79
     0
146
0.0
348
2F
 60
     3
 61
     5
292
     1
282
     1
141
0.0
142
0.0
 63
   250
421
  3355443
361
2FF
1001
ACAD_NAV_VCDISPLAY
1070
     3
  0
ENDTAB
  0
TABLE
  2
LTYPE
  5
5
330
0
100
AcDbSymbolTable
 70
     1
  0
LTYPE
  5
5B
330
5
100
AcDbSymbolTableRecord
100
AcDbLinetypeTableRecord
  2
ByBlock
 70
     0
  3

 72
    65
 73
     0
 40
0.0
  0
LTYPE
  5
5C
330
5
100
AcDbSymbolTableRecord
100
AcDbLinetypeTableRecord
  2
ByLayer
 70
     0
  3

 72
    65
 73
     0
 40
0.0
  0
LTYPE
  5
5D
330
5
100
AcDbSymbolTableRecord
100
AcDbLinetypeTableRecord
  2
Continuous
 70
     0
  3
Solid line
 72
    65
 73
     0
 40
0.0
  0
ENDTAB
  0
TABLE
  2
LAYER
  5
2
102
{ACAD_XDICTIONARY
360
31C
102
}
330
0
100
AcDbSymbolTable
 70
     8
  0
LAYER
  5
54
330
2
100
AcDbSymbolTableRecord
100
AcDbLayerTableRecord
  2
0
 70
     0
 62
   250
  6
Continuous
370
    25
390
F
347
21
348
0
  0
LAYER
  5
81
330
2
100
AcDbSymbolTableRecord
100
AcDbLayerTableRecord
  2
A-BAS-___-___-EXI
 70
     0
 62
   250
  6
Continuous
370
    25
390
F
347
21
348
0
  0
LAYER
  5
10E
330
2
100
AcDbSymbolTableRecord
100
AcDbLayerTableRecord
  2
A-ALV-___-___-EXI
 70
     0
 62
   250
  6
Continuous
370
    35
390
F
347
21
348
0
  0
LAYER
  5
2E8
330
2
100
AcDbSymbolTableRecord
100
AcDbLayerTableRecord
  2
A-JAN-___-___-EXI
 70
     0
 62
   250
  6
Continuous
370
    25
390
F
347
21
348
0
  0
LAYER
  5
2EE
330
2
100
AcDbSymbolTableRecord
100
AcDbLayerTableRecord
  2
A-COB-___-___-EXI
 70
     0
 62
   250
  6
Continuous
370
    25
390
F
347
21
348
0
  0
LAYER
  5
2F0
330
2
100
AcDbSymbolTableRecord
100
AcDbLayerTableRecord
  2
A-PIL-___-___-EXI
 70
     0
 62
   250
  6
Continuous
370
    25
390
F
347
21
348
0
  0
LAYER
  5
395
330
2
100
AcDbSymbolTableRecord
100
AcDbLayerTableRecord
  2
A-PIS-___-___-EXI
 70
     0
 62
   250
  6
Continuous
370
    25
390
F
347
21
348
0
1001
AcAecLayerStandard
1000

1000

1001
AcCmTransparency
1071
        0
  0
LAYER
  5
398
330
2
100
AcDbSymbolTableRecord
100
AcDbLayerTableRecord
  2
A-POR-___-___-EXI
 70
     0
 62
   250
  6
Continuous
370
    25
390
F
347
21
348
0
1001
AcAecLayerStandard
1000

1000

1001
AcCmTransparency
1071
        0
  0
ENDTAB
  0
TABLE
  2
STYLE
  5
3
330
0
100
AcDbSymbolTable
 70
     2
  0
STYLE
  5
55
330
3
100
AcDbSymbolTableRecord
100
AcDbTextStyleTableRecord
  2
Standard
 70
     0
 40
0.0
 41
1.0
 50
0.0
 71
     0
 42
0.2
  3
txt
  4

  0
STYLE
  5
5A
330
3
100
AcDbSymbolTableRecord
100
AcDbTextStyleTableRecord
  2
Annotative
 70
     0
 40
0.0
 41
1.0
 50
0.0
 71
     0
 42
0.2
  3
txt
  4

1001
AcadAnnotative
1000
AnnotativeData
1002
{
1070
     1
1070
     1
1002
}
  0
ENDTAB
  0
TABLE
  2
VIEW
  5
6
330
0
100
AcDbSymbolTable
 70
     0
  0
ENDTAB
  0
TABLE
  2
UCS
  5
7
330
0
100
AcDbSymbolTable
 70
     0
  0
ENDTAB
  0
TABLE
  2
APPID
  5
9
330
0
100
AcDbSymbolTable
 70
     8
  0
APPID
  5
56
330
9
100
AcDbSymbolTableRecord
100
AcDbRegAppTableRecord
  2
ACAD
 70
     0
  0
APPID
  5
5E
330
9
100
AcDbSymbolTableRecord
100
AcDbRegAppTableRecord
  2
AcadAnnotative
 70
     0
  0
APPID
  5
78
330
9
100
AcDbSymbolTableRecord
100
AcDbRegAppTableRecord
  2
REVIT
 70
     0
  0
APPID
  5
30F
330
9
100
AcDbSymbolTableRecord
100
AcDbRegAppTableRecord
  2
ACAD_PSEXT
 70
     0
  0
APPID
  5
37F
330
9
100
AcDbSymbolTableRecord
100
AcDbRegAppTableRecord
  2
ACAD_NAV_VCDISPLAY
 70
     0
  0
APPID
  5
396
330
9
100
AcDbSymbolTableRecord
100
AcDbRegAppTableRecord
  2
AcAecLayerStandard
 70
     0
  0
APPID
  5
397
330
9
100
AcDbSymbolTableRecord
100
AcDbRegAppTableRecord
  2
AcCmTransparency
 70
     0
  0
APPID
  5
3B6
330
9
100
AcDbSymbolTableRecord
100
AcDbRegAppTableRecord
  2
ACAD_EXEMPT_FROM_CAD_STANDARDS
 70
     0
  0
ENDTAB
  0
TABLE
  2
DIMSTYLE
  5
A
330
0
100
AcDbSymbolTable
 70
     2
100
AcDbDimStyleTable
 71
     0
  0
DIMSTYLE
105
58
330
A
100
AcDbSymbolTableRecord
100
AcDbDimStyleTableRecord
  2
Standard
 70
     0
340
55
  0
DIMSTYLE
105
59
330
A
100
AcDbSymbolTableRecord
100
AcDbDimStyleTableRecord
  2
Annotative
 70
     0
340
55
1001
AcadAnnotative
1000
AnnotativeData
1002
{
1070
     1
1070
     1
1002
}
  0
ENDTAB
  0
TABLE
  2
BLOCK_RECORD
  5
1
330
0
100
AcDbSymbolTable
 70
     1
  0
BLOCK_RECORD
  5
70
102
{ACAD_XDICTIONARY
360
2FD
102
}
330
1
100
AcDbSymbolTableRecord
100
AcDbBlockTableRecord
  2
*Model_Space
340
73
 70
     0
280
     1
281
     0
  0
BLOCK_RECORD
  5
6C
330
1
100
AcDbSymbolTableRecord
100
AcDbBlockTableRecord
  2
*Paper_Space
340
6F
 70
     0
280
     1
281
     0
  0
BLOCK_RECORD
  5
2EF
330
1
100
AcDbSymbolTableRecord
100
AcDbBlockTableRecord
  2
A4 HORIZONTAL - A4-22667833-Não nomeada
340
0
102
{BLKREFS
331
2F7
102
}
 70
     0
280
     1
281
     0
  0
ENDTAB
  0
ENDSEC
  0
SECTION
  2
BLOCKS
  0
BLOCK
  5
71
330
70
100
AcDbEntity
  8
0
100
AcDbBlockBegin
  2
*Model_Space
 70
     0
 10
0.0
 20
0.0
 30
0.0
  3
*Model_Space
  1

  0
ENDBLK
  5
72
330
70
100
AcDbEntity
  8
0
100
AcDbBlockEnd
  0
BLOCK
  5
6D
330
6C
100
AcDbEntity
 67
     1
  8
0
100
AcDbBlockBegin
  2
*Paper_Space
 70
     0
 10
0.0
 20
0.0
 30
0.0
  3
*Paper_Space
  1

  0
ENDBLK
  5
6E
330
6C
100
AcDbEntity
 67
     1
  8
0
100
AcDbBlockEnd
  0
BLOCK
  5
2F5
330
2EF
100
AcDbEntity
  8
0
100
AcDbBlockBegin
  2
A4 HORIZONTAL - A4-22667833-Não nomeada
 70
     0
 10
0.0
 20
0.0
 30
0.0
  3
A4 HORIZONTAL - A4-22667833-Não nomeada
  1

  0
LINE
  5
2F1
330
2EF
100
AcDbEntity
  8
A-PIL-___-___-EXI
100
AcDbLine
 10
317.7928507088368
 20
312.9999999999862
 30
0.0
 11
20.7928507088368
 21
312.9999999999856
 31
0.0
1001
REVIT
1002
{
1070
     1
1000
22666432
1002
}
1002
{
1070
     5
1000
22667833
1002
}
1002
{
1070
     3
1000
-2000281
1002
}
  0
LINE
  5
2F2
330
2EF
100
AcDbEntity
  8
A-PIL-___-___-EXI
100
AcDbLine
 10
20.7928507088368
 20
312.9999999999856
 30
0.0
 11
20.7928507088372
 21
102.9999999999856
 31
0.0
1001
REVIT
1002
{
1070
     1
1000
22666432
1002
}
1002
{
1070
     5
1000
22667833
1002
}
1002
{
1070
     3
1000
-2000281
1002
}
  0
LINE
  5
2F3
330
2EF
100
AcDbEntity
  8
A-PIL-___-___-EXI
100
AcDbLine
 10
20.7928507088372
 20
102.9999999999855
 30
0.0
 11
317.7928507088372
 21
102.9999999999861
 31
0.0
1001
REVIT
1002
{
1070
     1
1000
22666432
1002
}
1002
{
1070
     5
1000
22667833
1002
}
1002
{
1070
     3
1000
-2000281
1002
}
  0
LINE
  5
2F4
330
2EF
100
AcDbEntity
  8
A-PIL-___-___-EXI
100
AcDbLine
 10
317.7928507088372
 20
102.9999999999861
 30
0.0
 11
317.7928507088368
 21
312.9999999999862
 31
0.0
1001
REVIT
1002
{
1070
     1
1000
22666432
1002
}
1002
{
1070
     5
1000
22667833
1002
}
1002
{
1070
     3
1000
-2000281
1002
}
  0
ENDBLK
  5
2F6
330
2EF
100
AcDbEntity
  8
0
100
AcDbBlockEnd
  0
ENDSEC
  0
SECTION
  2
ENTITIES
  0
HATCH
  5
A1
330
70
100
AcDbEntity
  8
A-ALV-___-___-EXI
 62
    11
100
AcDbHatch
 10
0.0
 20
0.0
 30
0.0
210
0.0
220
0.0
230
1.0
  2
SOLID
 70
     1
 71
     0
 91
        4
 92
        1
 93
        7
 72
     1
 10
-55235.04331702891
 20
-10940.61250953456
 11
-55235.04331702891
 21
-8141.287397552961
 72
     1
 10
-55235.04331702891
 20
-8141.287397552961
 11
-55469.22100830821
 21
-8038.933602820305
 72
     1
 10
-55469.22100830821
 20
-8038.933602820305
 11
-55469.22100830821
 21
-8196.310251586337
 72
     1
 10
-55469.22100830821
 20
-8196.310251586337
 11
-55609.22100830821
 21
-8196.310251586337
 72
     1
 10
-55609.22100830821
 20
-8196.310251586337
 11
-55609.22100830821
 21
-10940.61250953455
 72
     1
 10
-55609.22100830821
 20
-10940.61250953455
 11
-55435.20152418555
 21
-10940.61250953456
 72
     1
 10
-55435.20152418555
 20
-10940.61250953456
 11
-55235.04331702891
 21
-10940.61250953456
 97
        0
 92
        1
 93
        7
 72
     1
 10
-59115.45003860815
 20
-10940.61250953455
 11
-58895.45003860814
 21
-10940.61250953455
 72
     1
 10
-58895.45003860814
 20
-10940.61250953455
 11
-58895.45003860814
 21
-6522.416371455604
 72
     1
 10
-58895.45003860814
 20
-6522.416371455604
 11
-58995.45003860815
 21
-6478.189837378028
 72
     1
 10
-58995.45003860815
 20
-6478.189837378028
 11
-58995.45003860815
 21
-6580.612509534552
 72
     1
 10
-58995.45003860815
 20
-6580.612509534552
 11
-59115.45003860815
 21
-6580.612509534552
 72
     1
 10
-59115.45003860815
 20
-6580.612509534552
 11
-59115.45003860815
 21
-10203.76811978372
 72
     1
 10
-59115.45003860815
 20
-10203.76811978372
 11
-59115.45003860815
 21
-10940.61250953455
 97
        0
 92
        1
 93
        4
 72
     1
 10
-65997.90697172816
 20
-8809.987464100242
 11
-65997.90697172816
 21
-6212.758641625132
 72
     1
 10
-65997.90697172816
 20
-6212.758641625132
 11
-66185.74189836226
 21
-6297.017558597534
 72
     1
 10
-66185.74189836226
 20
-6297.017558597534
 11
-66185.74189836226
 21
-8809.987464100238
 72
     1
 10
-66185.74189836226
 20
-8809.987464100238
 11
-65997.90697172816
 21
-8809.987464100242
 97
        0
 92
        1
 93
       12
 72
     1
 10
-70146.37448014139
 20
-8734.754515967315
 11
-69937.92295147237
 21
-8643.669923009518
 72
     1
 10
-69937.92295147237
 20
-8643.669923009518
 11
-69937.92295147237
 21
-8194.767211257223
 72
     1
 10
-69937.92295147237
 20
-8194.767211257223
 11
-70075.080086347
 21
-8194.767211257222
 72
     1
 10
-70075.080086347
 20
-8194.767211257222
 11
-70075.080086347
 21
-8043.655191905457
 72
     1
 10
-70075.080086347
 20
-8043.655191905457
 11
-70243.72066720799
 21
-8117.344067021742
 72
     1
 10
-70243.72066720799
 20
-8117.344067021742
 11
-70441.48271470192
 21
-8206.056087936492
 72
     1
 10
-70441.48271470192
 20
-8206.056087936492
 11
-70441.48271470192
 21
-8734.61846575325
 72
     1
 10
-70441.48271470192
 20
-8734.61846575325
 11
-70289.20725893611
 21
-8734.61846575325
 72
     1
 10
-70289.20725893611
 20
-8734.61846575325
 11
-70289.20725893611
 21
-8586.079796479726
 72
     1
 10
-70289.20725893611
 20
-8586.079796479726
 11
-70146.37448014139
 21
-8586.079796479726
 72
     1
 10
-70146.37448014139
 20
-8586.079796479726
 11
-70146.37448014139
 21
-8734.61846575325
 72
     1
 10
-70146.37448014139
 20
-8734.61846575325
 11
-70146.37448014139
 21
-8734.754515967315
 97
        0
 75
     0
 76
     1
 98
        1
 10
0.0
 20
0.0
450
        0
451
        0
460
0.0
461
0.0
452
        0
462
0.0
453
        0
470

1001
REVIT
1002
{
1070
     1
1000
22663979
1002
}
1002
{
1070
     5
1000
383807
1002
}
1002
{
1070
     2
1000
-2002000
1002
}
  0
HATCH
  5
AE
330
70
100
AcDbEntity
  8
A-BAS-___-___-EXI
 62
   253
420
 13342872
100
AcDbHatch
 10
0.0
 20
0.0
 30
0.0
210
0.0
220
0.0
230
1.0
  2
SOLID
 70
     1
 71
     0
 91
        1
 92
        1
 93
       12
 72
     1
 10
-58876.3259574937
 20
-11422.13893556256
 11
-54225.54805123403
 21
-11422.13893556256
 72
     1
 10
-54225.54805123403
 20
-11422.13893556256
 11
-54225.54805123403
 21
-11170.61250953456
 72
     1
 10
-54225.54805123403
 20
-11170.61250953456
 11
-55235.04331702891
 21
-11170.61250953456
 72
     1
 10
-55235.04331702891
 20
-11170.61250953456
 11
-55235.04331702891
 21
-10940.61250953456
 72
     1
 10
-55235.04331702891
 20
-10940.61250953456
 11
-70441.6518327191
 21
-10940.61250953451
 72
     1
 10
-70441.6518327191
 20
-10940.61250953451
 11
-70441.6518327191
 21
-11133.29459989806
 72
     1
 10
-70441.6518327191
 20
-11133.29459989806
 11
-72881.6518327191
 21
-11133.29459989804
 72
     1
 10
-72881.6518327191
 20
-11133.29459989804
 11
-72881.6518327191
 21
-11202.13893556256
 72
     1
 10
-72881.6518327191
 20
-11202.13893556256
 11
-73908.78708537732
 21
-11202.13893556256
 72
     1
 10
-73908.78708537732
 20
-11202.13893556256
 11
-73908.78708537732
 21
-11422.13893556256
 72
     1
 10
-73908.78708537732
 20
-11422.13893556256
 11
-63945.28682984779
 21
-11422.13893556256
 72
     1
 10
-63945.28682984779
 20
-11422.13893556256
 11
-58876.3259574937
 21
-11422.13893556256
 97
        0
 75
     0
 76
     1
 98
        1
 10
0.0
 20
0.0
450
        0
451
        0
460
0.0
461
0.0
452
        0
462
0.0
453
        0
470

1001
REVIT
1002
{
1070
     1
1000
22663987
1002
}
1002
{
1070
     5
1000
383807
1002
}
1002
{
1070
     2
1000
-2002000
1002
}
  0
HATCH
  5
10D
330
70
100
AcDbEntity
  8
A-COB-___-___-EXI
 62
    33
420
 12688002
100
AcDbHatch
 10
0.0
 20
0.0
 30
0.0
210
0.0
220
0.0
230
1.0
  2
SOLID
 70
     1
 71
     0
 91
       14
 92
        1
 93
       42
 72
     1
 10
-73217.68333699073
 20
-9451.403063197631
 11
-72639.46686120685
 21
-9192.026945570388
 72
     1
 10
-72639.46686120685
 20
-9192.026945570388
 11
-72639.46686120685
 21
-9313.294599898048
 72
     1
 10
-72639.46686120685
 20
-9313.294599898048
 11
-72499.46686120686
 21
-9313.294599898048
 72
     1
 10
-72499.46686120686
 20
-9313.294599898048
 11
-72499.46686120686
 21
-9129.225801036096
 72
     1
 10
-72499.46686120686
 20
-9129.225801036096
 11
-70075.080086347
 21
-8041.695342071752
 72
     1
 10
-70075.080086347
 20
-8041.695342071752
 11
-70075.080086347
 21
-8194.767211257223
 72
     1
 10
-70075.080086347
 20
-8194.767211257223
 11
-69937.92295147237
 21
-8194.767211257223
 72
     1
 10
-69937.92295147237
 20
-8194.767211257223
 11
-69937.92295147237
 21
-7980.169448849095
 72
     1
 10
-69937.92295147237
 20
-7980.169448849095
 11
-68143.96727738663
 21
-7175.437523303537
 72
     1
 10
-68143.96727738663
 20
-7175.437523303537
 11
-68143.96727738663
 21
-7295.437523303537
 72
     1
 10
-68143.96727738663
 20
-7295.437523303537
 11
-67979.32672032954
 21
-7226.032315105079
 72
     1
 10
-67979.32672032954
 20
-7226.032315105079
 11
-67979.32672032954
 21
-7101.58312744675
 72
     1
 10
-67979.32672032954
 20
-7101.58312744675
 11
-64503.80642894879
 21
-5542.535612083337
 72
     1
 10
-64503.80642894879
 20
-5542.535612083337
 11
-64503.80642894879
 21
-5599.008696618855
 72
     1
 10
-64503.80642894879
 20
-5599.008696618855
 11
-64360.41289417214
 21
-5599.008696618855
 72
     1
 10
-64360.41289417214
 20
-5599.008696618855
 11
-64360.41289417214
 21
-5478.212197063391
 72
     1
 10
-64360.41289417214
 20
-5478.212197063391
 11
-62903.0698669846
 21
-4824.477839303018
 72
     1
 10
-62903.0698669846
 20
-4824.477839303018
 11
-62903.0698669846
 21
-4900.612509534536
 72
     1
 10
-62903.0698669846
 20
-4900.612509534536
 11
-62763.06986698459
 21
-4900.612509534536
 72
     1
 10
-62763.06986698459
 20
-4900.612509534536
 11
-62763.06986698459
 21
-4811.90217006767
 72
     1
 10
-62763.06986698459
 20
-4811.90217006767
 11
-60999.47730960496
 21
-5591.878033446807
 72
     1
 10
-60999.47730960496
 20
-5591.878033446807
 11
-60999.47730960496
 21
-5720.411743268393
 72
     1
 10
-60999.47730960496
 20
-5720.411743268393
 11
-60859.47730960495
 21
-5720.411743268393
 72
     1
 10
-60859.47730960495
 20
-5720.411743268393
 11
-60859.47730960495
 21
-5653.795181155418
 72
     1
 10
-60859.47730960495
 20
-5653.795181155418
 11
-59115.45003860815
 21
-6425.117996485076
 72
     1
 10
-59115.45003860815
 20
-6425.117996485076
 11
-59115.45003860815
 21
-6580.612509534552
 72
     1
 10
-59115.45003860815
 20
-6580.612509534552
 11
-58995.45003860815
 21
-6580.612509534552
 72
     1
 10
-58995.45003860815
 20
-6580.612509534552
 11
-58995.45003860815
 21
-6478.18983737817
 72
     1
 10
-58995.45003860815
 20
-6478.18983737817
 11
-57343.99016073704
 21
-7208.573303042361
 72
     1
 10
-57343.99016073704
 20
-7208.573303042361
 11
-57343.99016073704
 21
-7396.249009475005
 72
     1
 10
-57343.99016073704
 20
-7396.249009475005
 11
-57196.54648654191
 21
-7396.249009475005
 72
     1
 10
-57196.54648654191
 20
-7396.249009475005
 11
-57196.54648654191
 21
-7273.782529855512
 72
     1
 10
-57196.54648654191
 20
-7273.782529855512
 11
-55609.22100830821
 21
-7975.801573408611
 72
     1
 10
-55609.22100830821
 20
-7975.801573408611
 11
-55609.22100830821
 21
-8196.310251586337
 72
     1
 10
-55609.22100830821
 20
-8196.310251586337
 11
-55469.22100830821
 21
-8196.310251586337
 72
     1
 10
-55469.22100830821
 20
-8196.310251586337
 11
-55469.22100830821
 21
-8037.718721117224
 72
     1
 10
-55469.22100830821
 20
-8037.718721117224
 11
-54590.32088062721
 21
-8426.425785593943
 72
     1
 10
-54590.32088062721
 20
-8426.425785593943
 11
-54590.32088062721
 21
-8306.425785593942
 72
     1
 10
-54590.32088062721
 20
-8306.425785593942
 11
-62782.72453095785
 21
-4683.209593407696
 72
     1
 10
-62782.72453095785
 20
-4683.209593407696
 11
-62856.38605844164
 21
-4683.209593407698
 72
     1
 10
-62856.38605844164
 20
-4683.209593407698
 11
-73217.68333699073
 21
-9331.076221643149
 72
     1
 10
-73217.68333699073
 20
-9331.076221643149
 11
-73217.68333699073
 21
-9451.403063197631
 97
        0
 92
        1
 93
        4
 72
     1
 10
-65997.90697172816
 20
-8940.612509534535
 11
-65997.90697172816
 21
-8809.987464100238
 72
     1
 10
-65997.90697172816
 20
-8809.987464100238
 11
-66185.74189836226
 21
-8809.987464100238
 72
     1
 10
-66185.74189836226
 20
-8809.987464100238
 11
-66185.74189836226
 21
-8940.612509534535
 72
     1
 10
-66185.74189836226
 20
-8940.612509534535
 11
-65997.90697172816
 21
-8940.612509534535
 97
        0
 92
        1
 93
        4
 72
     1
 10
-70289.20725893611
 20
-8734.61846575325
 11
-70146.37448014139
 21
-8734.61846575325
 72
     1
 10
-70146.37448014139
 20
-8734.61846575325
 11
-70146.37448014139
 21
-8586.079796479726
 72
     1
 10
-70146.37448014139
 20
-8586.079796479726
 11
-70289.20725893611
 21
-8586.079796479726
 72
     1
 10
-70289.20725893611
 20
-8586.079796479726
 11
-70289.20725893611
 21
-8734.61846575325
 97
        0
 92
        1
 93
        4
 72
     1
 10
-64691.64060841171
 20
-8588.739401594828
 11
-64691.64060841171
 21
-8464.748216968869
 72
     1
 10
-64691.64060841171
 20
-8464.748216968869
 11
-64817.03039416209
 21
-8464.748216968869
 72
     1
 10
-64817.03039416209
 20
-8464.748216968869
 11
-64817.03039416209
 21
-8588.739401594828
 72
     1
 10
-64817.03039416209
 20
-8588.739401594828
 11
-64691.64060841171
 21
-8588.739401594828
 97
        0
 92
        1
 93
        4
 72
     1
 10
-64253.74089509884
 20
-8588.739401594828
 11
-64120.63481484075
 21
-8588.739401594828
 72
     1
 10
-64120.63481484075
 20
-8588.739401594828
 11
-64120.63481484075
 21
-8464.748216968869
 72
     1
 10
-64120.63481484075
 20
-8464.748216968869
 11
-64253.74089509884
 21
-8464.748216968869
 72
     1
 10
-64253.74089509884
 20
-8464.748216968869
 11
-64253.74089509884
 21
-8588.739401594828
 97
        0
 92
        1
 93
        4
 72
     1
 10
-63528.40921137357
 20
-8588.739401594828
 11
-63528.40921137357
 21
-8464.748216968869
 72
     1
 10
-63528.40921137357
 20
-8464.748216968869
 11
-63756.03989935117
 21
-8464.748216968869
 72
     1
 10
-63756.03989935117
 20
-8464.748216968869
 11
-63756.03989935117
 21
-8588.739401594828
 72
     1
 10
-63756.03989935117
 20
-8588.739401594828
 11
-63528.40921137357
 21
-8588.739401594828
 97
        0
 92
        1
 93
        4
 72
     1
 10
-65997.90697172816
 20
-8588.739401594828
 11
-65807.22388686472
 21
-8588.739401594828
 72
     1
 10
-65807.22388686472
 20
-8588.739401594828
 11
-65807.22388686472
 21
-8464.748216968869
 72
     1
 10
-65807.22388686472
 20
-8464.748216968869
 11
-65997.90697172816
 21
-8464.748216968869
 72
     1
 10
-65997.90697172816
 20
-8464.748216968869
 11
-65997.90697172816
 21
-8588.739401594828
 97
        0
 92
        1
 93
        4
 72
     1
 10
-65376.8475606969
 20
-8588.739401594828
 11
-65248.21243774201
 21
-8588.739401594828
 72
     1
 10
-65248.21243774201
 20
-8588.739401594828
 11
-65248.21243774201
 21
-8464.748216968869
 72
     1
 10
-65248.21243774201
 20
-8464.748216968869
 11
-65376.8475606969
 21
-8464.748216968869
 72
     1
 10
-65376.8475606969
 20
-8464.748216968869
 11
-65376.8475606969
 21
-8588.739401594828
 97
        0
 92
        1
 93
        4
 72
     1
 10
-62722.9188166161
 20
-8588.739401594828
 11
-62722.9188166161
 21
-8464.748216968869
 72
     1
 10
-62722.9188166161
 20
-8464.748216968869
 11
-63142.59448598778
 21
-8464.748216968869
 72
     1
 10
-63142.59448598778
 20
-8464.748216968869
 11
-63142.59448598778
 21
-8588.739401594828
 72
     1
 10
-63142.59448598778
 20
-8588.739401594828
 11
-62722.9188166161
 21
-8588.739401594828
 97
        0
 92
        1
 93
        4
 72
     1
 10
-65238.30127883589
 20
-6741.275414610718
 11
-65125.91177187567
 21
-6741.275414610718
 72
     1
 10
-65125.91177187567
 20
-6741.275414610718
 11
-65125.91177187567
 21
-6600.612509534527
 72
     1
 10
-65125.91177187567
 20
-6600.612509534527
 11
-65238.30127883589
 21
-6600.612509534527
 72
     1
 10
-65238.30127883589
 20
-6600.612509534527
 11
-65238.30127883589
 21
-6741.275414610718
 97
        0
 92
        1
 93
        4
 72
     1
 10
-62783.06986698458
 20
-6741.275414610718
 11
-62783.06986698458
 21
-6623.853541667211
 72
     1
 10
-62783.06986698458
 20
-6623.853541667211
 11
-62903.0698669846
 21
-6623.853541667211
 72
     1
 10
-62903.0698669846
 20
-6623.853541667211
 11
-62903.0698669846
 21
-6741.275414610718
 72
     1
 10
-62903.0698669846
 20
-6741.275414610718
 11
-62783.06986698458
 21
-6741.275414610718
 97
        0
 92
        1
 93
        4
 72
     1
 10
-65865.66957141977
 20
-6741.275414610718
 11
-65865.66957141977
 21
-6600.612509534524
 72
     1
 10
-65865.66957141977
 20
-6600.612509534524
 11
-65997.90697172816
 21
-6600.612509534524
 72
     1
 10
-65997.90697172816
 20
-6600.612509534524
 11
-65997.90697172816
 21
-6741.275414610718
 72
     1
 10
-65997.90697172816
 20
-6741.275414610718
 11
-65865.66957141977
 21
-6741.275414610718
 97
        0
 92
        1
 93
        4
 72
     1
 10
-64503.80642894879
 20
-6741.275414610718
 11
-64360.41289417214
 21
-6741.275414610718
 72
     1
 10
-64360.41289417214
 20
-6741.275414610718
 11
-64360.41289417214
 21
-6600.612509534531
 72
     1
 10
-64360.41289417214
 20
-6600.612509534531
 11
-64503.80642894879
 21
-6600.612509534531
 72
     1
 10
-64503.80642894879
 20
-6600.612509534531
 11
-64503.80642894879
 21
-6741.275414610718
 97
        0
 92
        1
 93
        4
 72
     1
 10
-63758.78567974766
 20
-6741.275414610718
 11
-63602.78233426558
 21
-6741.275414610718
 72
     1
 10
-63602.78233426558
 20
-6741.275414610718
 11
-63602.78233426558
 21
-6600.612509534531
 72
     1
 10
-63602.78233426558
 20
-6600.612509534531
 11
-63758.78567974766
 21
-6600.612509534531
 72
     1
 10
-63758.78567974766
 20
-6600.612509534531
 11
-63758.78567974766
 21
-6741.275414610718
 97
        0
 75
     0
 76
     1
 98
        1
 10
0.0
 20
0.0
450
        0
451
        0
460
0.0
461
0.0
452
        0
462
0.0
453
        0
470

1001
REVIT
1002
{
1070
     1
1000
22664439
1002
}
1002
{
1070
     5
1000
383807
1002
}
1002
{
1070
     2
1000
-2002000
1002
}
  0
LINE
  5
10F
330
70
100
AcDbEntity
  8
A-ALV-___-___-EXI
100
AcDbLine
 10
-58895.45003860808
 20
-10940.61250953454
 30
0.0
 11
-58895.45003860808
 21
-6522.416371455595
 31
0.0
1001
REVIT
1002
{
1070
     1
1000
22663979
1002
}
1002
{
1070
     5
1000
383807
1002
}
1002
{
1070
     2
1000
-2000051
1002
}
1002
{
1070
     3
1000
-2000042
1002
}
  0
LINE
  5
110
330
70
100
AcDbEntity
  8
A-ALV-___-___-EXI
100
AcDbLine
 10
-59115.45003860808
 20
-6580.612509534543
 30
0.0
 11
-59115.45003860808
 21
-10940.61250953454
 31
0.0
1001
REVIT
1002
{
1070
     1
1000
22663979
1002
}
1002
{
1070
     5
1000
383807
1002
}
1002
{
1070
     2
1000
-2000051
1002
}
1002
{
1070
     3
1000
-2000042
1002
}
  0
LINE
  5
111
330
70
100
AcDbEntity
  8
A-COB-___-___-EXI
100
AcDbLine
 10
-65997.90697172809
 20
-8809.987464100229
 30
0.0
 11
-65997.90697172809
 21
-8588.739401594816
 31
0.0
1001
REVIT
1002
{
1070
     1
1000
22663979
1002
}
1002
{
1070
     5
1000
383807
1002
}
1002
{
1070
     2
1000
-2000051
1002
}
1002
{
1070
     3
1000
-2000042
1002
}
  0
LINE
  5
112
330
70
100
AcDbEntity
  8
A-ALV-___-___-EXI
100
AcDbLine
 10
-65997.90697172809
 20
-8464.748216968855
 30
0.0
 11
-65997.90697172809
 21
-6741.275414610736
 31
0.0
1001
REVIT
1002
{
1070
     1
1000
22663979
1002
}
1002
{
1070
     5
1000
383807
1002
}
1002
{
1070
     2
1000
-2000051
1002
}
1002
{
1070
     3
1000
-2000042
1002
}
  0
LINE
  5
114
330
70
100
AcDbEntity
  8
A-ALV-___-___-EXI
100
AcDbLine
 10
-66185.74189836219
 20
-6297.017558597528
 30
0.0
 11
-66185.74189836219
 21
-8809.987464100229
 31
0.0
1001
REVIT
1002
{
1070
     1
1000
22663979
1002
}
1002
{
1070
     5
1000
383807
1002
}
1002
{
1070
     2
1000
-2000051
1002
}
1002
{
1070
     3
1000
-2000042
1002
}
  0
LINE
  5
118
330
70
100
AcDbEntity
  8
A-COB-___-___-EXI
100
AcDbLine
 10
-70075.08008634693
 20
-8043.655191905449
 30
0.0
 11
-70243.72066720809
 21
-8117.344067021814
 31
0.0
1001
REVIT
1002
{
1070
     1
1000
22663979
1002
}
1002
{
1070
     5
1000
383807
1002
}
1002
{
1070
     2
1000
-2000051
1002
}
1002
{
1070
     3
1000
-2000042
1002
}
  0
LINE
  5
11A
330
70
100
AcDbEntity
  8
A-ALV-___-___-EXI
100
AcDbLine
 10
-55609.22100830816
 20
-8196.310251586327
 30
0.0
 11
-55609.22100830816
 21
-10940.61250953454
 31
0.0
1001
REVIT
1002
{
1070
     1
1000
22663979
1002
}
1002
{
1070
     5
1000
383807
1002
}
1002
{
1070
     2
1000
-2000051
1002
}
1002
{
1070
     3
1000
-2000042
1002
}
  0
LINE
  5
11B
330
70
100
AcDbEntity
  8
A-ALV-___-___-EXI
100
AcDbLine
 10
-55235.04331702885
 20
-10940.61250953455
 30
0.0
 11
-55235.04331702885
 21
-8141.287397552938
 31
0.0
1001
REVIT
1002
{
1070
     1
1000
22663979
1002
}
1002
{
1070
     5
1000
383807
1002
}
1002
{
1070
     2
1000
-2000051
1002
}
1002
{
1070
     3
1000
-2000042
1002
}
  0
LINE
  5
11C
330
70
100
AcDbEntity
  8
A-COB-___-___-EXI
100
AcDbLine
 10
-55379.33411977543
 20
-8077.472576505412
 30
0.0
 11
-55469.22100830816
 21
-8038.933602820298
 31
0.0
1001
REVIT
1002
{
1070
     1
1000
22663979
1002
}
1002
{
1070
     5
1000
383807
1002
}
1002
{
1070
     2
1000
-2000051
1002
}
1002
{
1070
     3
1000
-2000042
1002
}
  0
LINE
  5
233
330
70
100
AcDbEntity
  8
A-COB-___-___-EXI
100
AcDbLine
 10
-66185.74189836219
 20
-8940.612509534522
 30
0.0
 11
-65997.90697172809
 21
-8940.612509534522
 31
0.0
1001
REVIT
1002
{
1070
     1
1000
22664439
1002
}
1002
{
1070
     5
1000
383807
1002
}
1002
{
1070
     2
1000
-2000051
1002
}
1002
{
1070
     3
1000
-2000042
1002
}
  0
LINE
  5
234
330
70
100
AcDbEntity
  8
A-COB-___-___-EXI
100
AcDbLine
 10
-65997.90697172809
 20
-8940.612509534522
 30
0.0
 11
-65997.90697172809
 21
-8809.987464100229
 31
0.0
1001
REVIT
1002
{
1070
     1
1000
22664439
1002
}
1002
{
1070
     5
1000
383807
1002
}
1002
{
1070
     2
1000
-2000051
1002
}
1002
{
1070
     3
1000
-2000042
1002
}
  0
LINE
  5
235
330
70
100
AcDbEntity
  8
A-COB-___-___-EXI
100
AcDbLine
 10
-65997.90697172809
 20
-8809.987464100229
 30
0.0
 11
-66185.74189836219
 21
-8809.987464100229
 31
0.0
1001
REVIT
1002
{
1070
     1
1000
22664439
1002
}
1002
{
1070
     5
1000
383807
1002
}
1002
{
1070
     2
1000
-2000051
1002
}
1002
{
1070
     3
1000
-2000042
1002
}
  0
LINE
  5
236
330
70
100
AcDbEntity
  8
A-COB-___-___-EXI
100
AcDbLine
 10
-66185.74189836219
 20
-8809.987464100229
 30
0.0
 11
-66185.74189836219
 21
-8940.612509534522
 31
0.0
1001
REVIT
1002
{
1070
     1
1000
22664439
1002
}
1002
{
1070
     5
1000
383807
1002
}
1002
{
1070
     2
1000
-2000051
1002
}
1002
{
1070
     3
1000
-2000042
1002
}
  0
LINE
  5
2A1
330
70
100
AcDbEntity
  8
A-ALV-___-___-EXI
100
AcDbLine
 10
-59087.42599060308
 20
-9481.031673873244
 30
0.0
 11
-59045.38293696648
 21
-9481.031673873244
 31
0.0
1001
REVIT
1002
{
1070
     1
1000
22664037
1002
}
1002
{
1070
     2
1000
-2000051
1002
}
1002
{
1070
     3
1000
-2000042
1002
}
  0
LINE
  5
2A5
330
70
100
AcDbEntity
  8
A-COB-___-___-EXI
100
AcDbLine
 10
-63414.63136237621
 20
-8477.220643827793
 30
0.0
 11
-63454.86642169388
 21
-8495.015216048054
 31
0.0
1001
REVIT
1002
{
1070
     1
1000
22664053
1002
}
1002
{
1070
     2
1000
-2000051
1002
}
1002
{
1070
     3
1000
-2000042
1002
}
  0
LINE
  5
2DF
330
70
100
AcDbEntity
  8
A-COB-___-___-EXI
100
AcDbLine
 10
-62833.06986698454
 20
-4824.477839302989
 30
0.0
 11
-62833.06986698454
 21
-4683.20959340769
 31
0.0
1001
REVIT
1002
{
1070
     1
1000
22664516
1002
}
1002
{
1070
     2
1000
-2000051
1002
}
1002
{
1070
     3
1000
-2000042
1002
}
  0
LINE
  5
2E0
330
70
100
AcDbEntity
  8
A-COB-___-___-EXI
100
AcDbLine
 10
-62158.01522627917
 20
-5079.496866927186
 30
0.0
 11
-55074.50561999521
 21
-8212.287656838569
 31
0.0
1001
REVIT
1002
{
1070
     1
1000
22664517
1002
}
1002
{
1070
     2
1000
-2000051
1002
}
1002
{
1070
     3
1000
-2000042
1002
}
  0
LINE
  5
2E1
330
70
100
AcDbEntity
  8
A-COB-___-___-EXI
100
AcDbLine
 10
-62962.91881661605
 20
-8464.748216968859
 30
0.0
 11
-62962.91881661605
 21
-8588.739401594819
 31
0.0
1001
REVIT
1002
{
1070
     1
1000
22664548
1002
}
1002
{
1070
     2
1000
-2000051
1002
}
1002
{
1070
     3
1000
-2000042
1002
}
  0
LINE
  5
2E3
330
70
100
AcDbEntity
  8
A-COB-___-___-EXI
100
AcDbLine
 10
-69937.9229514723
 20
-8187.125310653119
 30
0.0
 11
-68002.83718337207
 21
-7371.378370667446
 31
0.0
1001
REVIT
1002
{
1070
     1
1000
22664675
1002
}
1002
{
1070
     2
1000
-2000051
1002
}
1002
{
1070
     3
1000
-2000042
1002
}
  0
LINE
  5
2E5
330
70
100
AcDbEntity
  8
A-COB-___-___-EXI
100
AcDbLine
 10
-67986.1364881791
 20
-7364.338093061208
 30
0.0
 11
-66185.74189836219
 21
-7014.376836122721
 31
0.0
1001
REVIT
1002
{
1070
     1
1000
22664677
1002
}
1002
{
1070
     2
1000
-2000051
1002
}
1002
{
1070
     3
1000
-2000042
1002
}
  0
ARC
  5
2E7
330
70
100
AcDbEntity
  8
A-COB-___-___-EXI
100
AcDbCircle
 10
-62820.91308575096
 20
-4718.782294222951
 30
0.0
 40
146.2447842385156
100
AcDbArc
 50
25.01656371548668
 51
154.9689999346791
1001
REVIT
1002
{
1070
     1
1000
22664679
1002
}
1002
{
1070
     2
1000
-2000051
1002
}
1002
{
1070
     3
1000
-2000042
1002
}
  0
LWPOLYLINE
  5
321
330
70
100
AcDbEntity
  8
A-ALV-___-___-EXI
100
AcDbPolyline
 90
        3
 70
     0
 43
0.0
 10
-66005.74189836219
 20
-6544.748216968857
 10
-62722.91881661604
 20
-6544.748216968857
 10
-62722.91881661605
 20
-10940.61250953453
1001
REVIT
1002
{
1070
     1
1000
22664678
1002
}
1002
{
1070
     2
1000
-2000051
1002
}
1002
{
1070
     3
1000
-2000042
1002
}
  0
LWPOLYLINE
  5
322
330
70
100
AcDbEntity
  8
A-COB-___-___-EXI
100
AcDbPolyline
 90
        3
 70
     0
 43
0.0
 10
-67979.32672032945
 20
-7226.032315105071
 10
-68143.96727738656
 20
-7295.437523303528
 10
-69937.9229514723
 20
-8051.690230924902
1001
REVIT
1002
{
1070
     1
1000
22664674
1002
}
1002
{
1070
     2
1000
-2000051
1002
}
1002
{
1070
     3
1000
-2000042
1002
}
  0
LWPOLYLINE
  5
323
330
70
100
AcDbEntity
  8
A-COB-___-___-EXI
100
AcDbPolyline
 90
        4
 70
     1
 43
0.0
 10
-60859.47730960489
 20
-5932.068725048591
 10
-60859.47730960489
 20
-6793.247177495648
 10
-60999.47730960489
 20
-6793.247177495648
 10
-60999.47730960489
 20
-5932.068725048591
1001
REVIT
1002
{
1070
     1
1000
22664132
1002
}
1002
{
1070
     2
1000
-2000051
1002
}
1002
{
1070
     3
1000
-2000042
1002
}
  0
LWPOLYLINE
  5
324
330
70
100
AcDbEntity
  8
A-COB-___-___-EXI
100
AcDbPolyline
 90
        4
 70
     1
 43
0.0
 10
-60999.47730960489
 20
-7000.411743268386
 10
-60999.47730960489
 20
-5720.411743268385
 10
-60859.47730960489
 20
-5720.411743268385
 10
-60859.47730960489
 20
-7000.411743268386
1001
REVIT
1002
{
1070
     1
1000
22664128
1002
}
1002
{
1070
     2
1000
-2000051
1002
}
1002
{
1070
     3
1000
-2000042
1002
}
  0
LWPOLYLINE
  5
325
330
70
100
AcDbEntity
  8
A-COB-___-___-EXI
100
AcDbPolyline
 90
        4
 70
     1
 43
0.0
 10
-62763.06986698452
 20
-5127.683098747832
 10
-62763.06986698452
 20
-6328.813510302147
 10
-62903.06986698452
 20
-6328.813510302147
 10
-62903.06986698452
 20
-5127.683098747832
1001
REVIT
1002
{
1070
     1
1000
22664124
1002
}
1002
{
1070
     2
1000
-2000051
1002
}
1002
{
1070
     3
1000
-2000042
1002
}
  0
LWPOLYLINE
  5
326
330
70
100
AcDbEntity
  8
A-COB-___-___-EXI
100
AcDbPolyline
 90
        4
 70
     1
 43
0.0
 10
-62903.06986698452
 20
-6544.748216968857
 10
-62903.06986698452
 20
-4900.612509534528
 10
-62763.06986698452
 20
-4900.612509534528
 10
-62763.06986698452
 20
-6544.748216968857
1001
REVIT
1002
{
1070
     1
1000
22664120
1002
}
1002
{
1070
     2
1000
-2000051
1002
}
1002
{
1070
     3
1000
-2000042
1002
}
  0
LWPOLYLINE
  5
327
330
70
100
AcDbEntity
  8
A-COB-___-___-EXI
100
AcDbPolyline
 90
        4
 70
     1
 43
0.0
 10
-64503.80642894873
 20
-6328.813510302147
 10
-64503.80642894873
 20
-5805.849426619791
 10
-64360.41289417206
 20
-5805.849426619791
 10
-64360.41289417206
 20
-6328.813510302147
1001
REVIT
1002
{
1070
     1
1000
22664116
1002
}
1002
{
1070
     2
1000
-2000051
1002
}
1002
{
1070
     3
1000
-2000042
1002
}
  0
LWPOLYLINE
  5
328
330
70
100
AcDbEntity
  8
A-COB-___-___-EXI
100
AcDbPolyline
 90
        4
 70
     1
 43
0.0
 10
-65997.90697172809
 20
-8464.748216968859
 10
-65997.90697172809
 20
-8396.962152314424
 10
-62722.91881661604
 20
-8396.962152314424
 10
-62722.91881661604
 20
-8464.748216968859
1001
REVIT
1002
{
1070
     1
1000
22664108
1002
}
1002
{
1070
     2
1000
-2000051
1002
}
1002
{
1070
     3
1000
-2000042
1002
}
  0
LWPOLYLINE
  5
329
330
70
100
AcDbEntity
  8
A-COB-___-___-EXI
100
AcDbPolyline
 90
        4
 70
     1
 43
0.0
 10
-59115.45003860808
 20
-7000.411743268386
 10
-59115.45003860808
 20
-7198.557083763128
 10
-62722.91881661604
 20
-7198.557083763128
 10
-62722.91881661604
 20
-7000.411743268386
1001
REVIT
1002
{
1070
     1
1000
22664104
1002
}
1002
{
1070
     2
1000
-2000051
1002
}
1002
{
1070
     3
1000
-2000042
1002
}
  0
LWPOLYLINE
  5
32A
330
70
100
AcDbEntity
  8
A-COB-___-___-EXI
100
AcDbPolyline
 90
        7
 70
     0
 43
0.0
 10
-62722.91881661604
 20
-6600.612509534528
 10
-65997.90697172809
 20
-6600.612509534518
 10
-65997.90697172809
 20
-6741.275414610711
 10
-65865.66957141971
 20
-6741.275414610711
 10
-65865.66957141971
 20
-6600.612509534518
 10
-65997.90697172809
 20
-6600.612509534518
 10
-65997.90697172809
 20
-6212.758641625125
1001
REVIT
1002
{
1070
     1
1000
22664100
1002
}
1002
{
1070
     2
1000
-2000051
1002
}
1002
{
1070
     3
1000
-2000042
1002
}
  0
LWPOLYLINE
  5
32C
330
70
100
AcDbEntity
  8
A-JAN-___-___-EXI
100
AcDbPolyline
 90
        4
 70
     1
 43
0.0
 10
-67618.24494980508
 20
-8749.731467461261
 10
-67618.24494980508
 20
-10119.73146746126
 10
-68498.24494980508
 20
-10119.73146746126
 10
-68498.24494980508
 20
-8749.731467461261
1001
REVIT
1002
{
1070
     1
1000
22664087
1002
}
1002
{
1070
     2
1000
-2000051
1002
}
1002
{
1070
     3
1000
-2000042
1002
}
  0
LWPOLYLINE
  5
32D
330
70
100
AcDbEntity
  8
A-JAN-___-___-EXI
100
AcDbPolyline
 90
        4
 70
     1
 43
0.0
 10
-67690.28175193994
 20
-10049.98746410023
 10
-67690.28175193994
 20
-8809.987464100229
 10
-68420.28175193994
 20
-8809.987464100229
 10
-68420.28175193994
 20
-10049.98746410023
1001
REVIT
1002
{
1070
     1
1000
22664083
1002
}
1002
{
1070
     2
1000
-2000051
1002
}
1002
{
1070
     3
1000
-2000042
1002
}
  0
LWPOLYLINE
  5
32E
330
70
100
AcDbEntity
  8
A-JAN-___-___-EXI
100
AcDbPolyline
 90
        4
 70
     1
 43
0.0
 10
-60478.2449498051
 20
-8749.731467461261
 10
-60478.2449498051
 20
-10119.73146746126
 10
-61358.2449498051
 20
-10119.73146746126
 10
-61358.2449498051
 20
-8749.731467461261
1001
REVIT
1002
{
1070
     1
1000
22664071
1002
}
1002
{
1070
     2
1000
-2000051
1002
}
1002
{
1070
     3
1000
-2000042
1002
}
  0
LWPOLYLINE
  5
32F
330
70
100
AcDbEntity
  8
A-POR-___-___-EXI
100
AcDbPolyline
 90
        4
 70
     0
 43
0.0
 10
-66065.60994623418
 20
-8940.612509534522
 10
-66065.60994623418
 20
-10940.61250953452
 10
-66107.65299987077
 20
-10940.61250953452
 10
-66107.65299987077
 20
-8940.612509534522
1001
REVIT
1002
{
1070
     1
1000
22664040
1002
}
1002
{
1070
     2
1000
-2000051
1002
}
1002
{
1070
     3
1000
-2000042
1002
}
  0
LWPOLYLINE
  5
330
330
70
100
AcDbEntity
  8
A-POR-___-___-EXI
100
AcDbPolyline
 90
        4
 70
     1
 43
0.0
 10
-65997.90697172809
 20
-8940.612509534522
 10
-65997.90697172809
 20
-10940.61250953452
 10
-66185.74189836219
 20
-10940.61250953452
 10
-66185.74189836219
 20
-8940.612509534522
1001
REVIT
1002
{
1070
     1
1000
22664036
1002
}
1002
{
1070
     2
1000
-2000051
1002
}
1002
{
1070
     3
1000
-2000042
1002
}
  0
LWPOLYLINE
  5
331
330
70
100
AcDbEntity
  8
A-JAN-___-___-EXI
100
AcDbPolyline
 90
        4
 70
     1
 43
0.0
 10
-60550.28175193995
 20
-10049.98746410023
 10
-60550.28175193995
 20
-8809.987464100229
 10
-61280.28175193996
 20
-8809.987464100229
 10
-61280.28175193996
 20
-10049.98746410023
1001
REVIT
1002
{
1070
     1
1000
22664024
1002
}
1002
{
1070
     2
1000
-2000051
1002
}
1002
{
1070
     3
1000
-2000042
1002
}
  0
LWPOLYLINE
  5
332
330
70
100
AcDbEntity
  8
A-COB-___-___-EXI
100
AcDbPolyline
 90
        4
 70
     1
 43
0.0
 10
-62903.06986698452
 20
-6623.853541667202
 10
-62903.06986698452
 20
-6741.275414610711
 10
-62783.06986698453
 20
-6741.275414610711
 10
-62783.06986698453
 20
-6623.853541667202
1001
REVIT
1002
{
1070
     1
1000
22664439
1002
}
1002
{
1070
     5
1000
383807
1002
}
1002
{
1070
     2
1000
-2000051
1002
}
1002
{
1070
     3
1000
-2000042
1002
}
  0
LWPOLYLINE
  5
333
330
70
100
AcDbEntity
  8
A-COB-___-___-EXI
100
AcDbPolyline
 90
        4
 70
     1
 43
0.0
 10
-63602.78233426551
 20
-6741.275414610711
 10
-63602.78233426551
 20
-6600.612509534525
 10
-63758.7856797476
 20
-6600.612509534525
 10
-63758.7856797476
 20
-6741.275414610711
1001
REVIT
1002
{
1070
     1
1000
22664439
1002
}
1002
{
1070
     5
1000
383807
1002
}
1002
{
1070
     2
1000
-2000051
1002
}
1002
{
1070
     3
1000
-2000042
1002
}
  0
LWPOLYLINE
  5
334
330
70
100
AcDbEntity
  8
A-COB-___-___-EXI
100
AcDbPolyline
 90
        4
 70
     1
 43
0.0
 10
-64360.41289417206
 20
-6741.275414610711
 10
-64360.41289417206
 20
-6600.612509534524
 10
-64503.80642894873
 20
-6600.612509534524
 10
-64503.80642894873
 20
-6741.275414610711
1001
REVIT
1002
{
1070
     1
1000
22664439
1002
}
1002
{
1070
     5
1000
383807
1002
}
1002
{
1070
     2
1000
-2000051
1002
}
1002
{
1070
     3
1000
-2000042
1002
}
  0
LWPOLYLINE
  5
335
330
70
100
AcDbEntity
  8
A-COB-___-___-EXI
100
AcDbPolyline
 90
        4
 70
     1
 43
0.0
 10
-65125.9117718756
 20
-6741.275414610711
 10
-65125.9117718756
 20
-6600.61250953452
 10
-65238.30127883582
 20
-6600.61250953452
 10
-65238.30127883582
 20
-6741.275414610711
1001
REVIT
1002
{
1070
     1
1000
22664439
1002
}
1002
{
1070
     5
1000
383807
1002
}
1002
{
1070
     2
1000
-2000051
1002
}
1002
{
1070
     3
1000
-2000042
1002
}
  0
LWPOLYLINE
  5
337
330
70
100
AcDbEntity
  8
A-COB-___-___-EXI
100
AcDbPolyline
 90
       37
 70
     0
 43
0.0
 10
-66185.74189836219
 20
-6877.394742946354
 10
-67979.32672032945
 20
-7226.032315105071
 10
-67979.32672032945
 20
-7101.583127446744
 10
-64503.80642894873
 20
-5542.535612083331
 10
-64503.80642894873
 20
-5599.008696618849
 10
-64360.41289417206
 20
-5599.008696618849
 10
-64503.80642894873
 20
-5599.008696618849
 10
-64503.80642894873
 20
-6544.748216968857
 10
-64360.41289417206
 20
-6544.748216968857
 10
-64360.41289417206
 20
-5599.008696618849
 10
-64360.41289417206
 20
-5478.212197063385
 10
-62903.06986698452
 20
-4824.47783930301
 10
-62903.06986698452
 20
-4900.612509534528
 10
-62763.06986698452
 20
-4900.612509534528
 10
-62763.06986698452
 20
-4811.902170067667
 10
-60999.47730960489
 20
-5591.878033446798
 10
-60999.47730960489
 20
-5720.411743268385
 10
-60859.47730960489
 20
-5720.411743268385
 10
-60859.47730960489
 20
-5653.795181155412
 10
-59115.45003860808
 20
-6425.117996485067
 10
-59115.45003860808
 20
-6580.612509534543
 10
-58995.45003860809
 20
-6580.612509534543
 10
-58995.45003860809
 20
-6478.189837378161
 10
-57343.99016073699
 20
-7208.573303042353
 10
-57343.99016073699
 20
-7396.249009474998
 10
-57196.54648654183
 20
-7396.249009474998
 10
-57196.54648654183
 20
-7273.782529855502
 10
-55609.22100830816
 20
-7975.801573408602
 10
-55609.22100830816
 20
-8196.310251586327
 10
-55469.22100830816
 20
-8196.310251586327
 10
-55469.22100830816
 20
-8037.718721117213
 10
-54590.32088062715
 20
-8426.425785593933
 10
-54590.32088062715
 20
-8306.425785593932
 10
-62782.72453095778
 20
-4683.20959340769
 10
-62856.38605844158
 20
-4683.209593407693
 10
-73217.68333699065
 20
-9331.076221643137
 10
-73217.68333699065
 20
-9451.40306319762
1001
REVIT
1002
{
1070
     1
1000
22664439
1002
}
1002
{
1070
     5
1000
383807
1002
}
1002
{
1070
     2
1000
-2000051
1002
}
1002
{
1070
     3
1000
-2000042
1002
}
  0
LWPOLYLINE
  5
338
330
70
100
AcDbEntity
  8
A-COB-___-___-EXI
100
AcDbPolyline
 90
        4
 70
     1
 43
0.0
 10
-70146.37448014131
 20
-8586.079796479717
 10
-70289.20725893603
 20
-8586.079796479717
 10
-70289.20725893603
 20
-8734.618465753239
 10
-70146.37448014131
 20
-8734.618465753239
1001
REVIT
1002
{
1070
     1
1000
22664439
1002
}
1002
{
1070
     5
1000
383807
1002
}
1002
{
1070
     2
1000
-2000051
1002
}
1002
{
1070
     3
1000
-2000042
1002
}
  0
LWPOLYLINE
  5
339
330
70
100
AcDbEntity
  8
A-COB-___-___-EXI
100
AcDbPolyline
 90
        4
 70
     1
 43
0.0
 10
-63528.4092113735
 20
-8464.748216968859
 10
-63756.03989935111
 20
-8464.748216968859
 10
-63756.03989935111
 20
-8588.739401594819
 10
-63528.4092113735
 20
-8588.739401594819
1001
REVIT
1002
{
1070
     1
1000
22664439
1002
}
1002
{
1070
     5
1000
383807
1002
}
1002
{
1070
     2
1000
-2000051
1002
}
1002
{
1070
     3
1000
-2000042
1002
}
  0
LWPOLYLINE
  5
33A
330
70
100
AcDbEntity
  8
A-COB-___-___-EXI
100
AcDbPolyline
 90
        4
 70
     1
 43
0.0
 10
-64120.63481484068
 20
-8464.748216968859
 10
-64253.74089509878
 20
-8464.748216968859
 10
-64253.74089509878
 20
-8588.739401594819
 10
-64120.63481484068
 20
-8588.739401594819
1001
REVIT
1002
{
1070
     1
1000
22664439
1002
}
1002
{
1070
     5
1000
383807
1002
}
1002
{
1070
     2
1000
-2000051
1002
}
1002
{
1070
     3
1000
-2000042
1002
}
  0
LWPOLYLINE
  5
33B
330
70
100
AcDbEntity
  8
A-COB-___-___-EXI
100
AcDbPolyline
 90
        4
 70
     1
 43
0.0
 10
-64691.64060841165
 20
-8464.748216968859
 10
-64817.03039416202
 20
-8464.748216968859
 10
-64817.03039416202
 20
-8588.739401594819
 10
-64691.64060841165
 20
-8588.739401594819
1001
REVIT
1002
{
1070
     1
1000
22664439
1002
}
1002
{
1070
     5
1000
383807
1002
}
1002
{
1070
     2
1000
-2000051
1002
}
1002
{
1070
     3
1000
-2000042
1002
}
  0
LWPOLYLINE
  5
33C
330
70
100
AcDbEntity
  8
A-COB-___-___-EXI
100
AcDbPolyline
 90
        4
 70
     1
 43
0.0
 10
-65248.21243774193
 20
-8464.748216968859
 10
-65376.84756069682
 20
-8464.748216968859
 10
-65376.84756069682
 20
-8588.739401594819
 10
-65248.21243774193
 20
-8588.739401594819
1001
REVIT
1002
{
1070
     1
1000
22664439
1002
}
1002
{
1070
     5
1000
383807
1002
}
1002
{
1070
     2
1000
-2000051
1002
}
1002
{
1070
     3
1000
-2000042
1002
}
  0
LWPOLYLINE
  5
33D
330
70
100
AcDbEntity
  8
A-COB-___-___-EXI
100
AcDbPolyline
 90
        4
 70
     1
 43
0.0
 10
-65997.90697172809
 20
-8588.739401594819
 10
-65807.22388686465
 20
-8588.739401594819
 10
-65807.22388686465
 20
-8464.748216968859
 10
-65997.90697172809
 20
-8464.748216968859
1001
REVIT
1002
{
1070
     1
1000
22664439
1002
}
1002
{
1070
     5
1000
383807
1002
}
1002
{
1070
     2
1000
-2000051
1002
}
1002
{
1070
     3
1000
-2000042
1002
}
  0
LWPOLYLINE
  5
33E
330
70
100
AcDbEntity
  8
A-COB-___-___-EXI
100
AcDbPolyline
 90
        6
 70
     0
 43
0.0
 10
-72875.02064028746
 20
-9106.072165527411
 10
-73188.17670343566
 20
-9238.084970573209
 10
-73228.17155958044
 20
-9237.443501978205
 10
-73242.53866997343
 20
-9251.357025577757
 10
-73242.85940427095
 20
-9271.354453650131
 10
-73217.68333699065
 20
-9331.076221643137
1001
REVIT
1002
{
1070
     1
1000
22664435
1002
}
1002
{
1070
     2
1000
-2000051
1002
}
1002
{
1070
     3
1000
-2000042
1002
}
  0
LWPOLYLINE
  5
33F
330
70
100
AcDbEntity
  8
A-COB-___-___-EXI
100
AcDbPolyline
 90
        6
 70
     0
 43
0.0
 10
-72507.17012996373
 20
-8940.632219887858
 10
-72820.359396466
 20
-9072.659022005467
 10
-72860.35425261077
 20
-9072.017553410464
 10
-72874.72136300376
 20
-9085.931077010014
 10
-72875.04209730126
 20
-9105.928505082392
 10
-72849.86603002097
 20
-9165.650273075398
1001
REVIT
1002
{
1070
     1
1000
22664429
1002
}
1002
{
1070
     2
1000
-2000051
1002
}
1002
{
1070
     3
1000
-2000042
1002
}
  0
LWPOLYLINE
  5
340
330
70
100
AcDbEntity
  8
A-COB-___-___-EXI
100
AcDbPolyline
 90
        6
 70
     0
 43
0.0
 10
-72139.35282299407
 20
-8775.206271320115
 10
-72452.54208949633
 20
-8907.233073437728
 10
-72492.5369456411
 20
-8906.591604842722
 10
-72506.9040560341
 20
-8920.505128442275
 10
-72507.2247903316
 20
-8940.502556514651
 10
-72482.04872305131
 20
-9000.224324507657
1001
REVIT
1002
{
1070
     1
1000
22664423
1002
}
1002
{
1070
     2
1000
-2000051
1002
}
1002
{
1070
     3
1000
-2000042
1002
}
  0
LWPOLYLINE
  5
341
330
70
100
AcDbEntity
  8
A-COB-___-___-EXI
100
AcDbPolyline
 90
        6
 70
     0
 43
0.0
 10
-71771.53551602439
 20
-8609.780322752371
 10
-72084.72478252665
 20
-8741.807124869986
 10
-72124.71963867142
 20
-8741.165656274981
 10
-72139.08674906441
 20
-8755.079179874533
 10
-72139.40748336193
 20
-8775.076607946909
 10
-72114.23141608163
 20
-8834.798375939916
1001
REVIT
1002
{
1070
     1
1000
22664417
1002
}
1002
{
1070
     2
1000
-2000051
1002
}
1002
{
1070
     3
1000
-2000042
1002
}
  0
LWPOLYLINE
  5
342
330
70
100
AcDbEntity
  8
A-COB-___-___-EXI
100
AcDbPolyline
 90
        6
 70
     0
 43
0.0
 10
-71403.71820905473
 20
-8444.354374184628
 10
-71716.90747555699
 20
-8576.381176302239
 10
-71756.90233170175
 20
-8575.739707707237
 10
-71771.26944209475
 20
-8589.653231306789
 10
-71771.59017639226
 20
-8609.650659379164
 10
-71746.41410911196
 20
-8669.372427372172
1001
REVIT
1002
{
1070
     1
1000
22664411
1002
}
1002
{
1070
     2
1000
-2000051
1002
}
1002
{
1070
     3
1000
-2000042
1002
}
  0
LWPOLYLINE
  5
343
330
70
100
AcDbEntity
  8
A-COB-___-___-EXI
100
AcDbPolyline
 90
        6
 70
     0
 43
0.0
 10
-71035.90090208505
 20
-8278.928425616888
 10
-71349.09016858731
 20
-8410.955227734499
 10
-71389.08502473207
 20
-8410.313759139494
 10
-71403.45213512508
 20
-8424.227282739046
 10
-71403.77286942258
 20
-8444.22471081142
 10
-71378.59680214229
 20
-8503.946478804428
1001
REVIT
1002
{
1070
     1
1000
22664405
1002
}
1002
{
1070
     2
1000
-2000051
1002
}
1002
{
1070
     3
1000
-2000042
1002
}
  0
LWPOLYLINE
  5
344
330
70
100
AcDbEntity
  8
A-COB-___-___-EXI
100
AcDbPolyline
 90
        6
 70
     0
 43
0.0
 10
-70668.08359511538
 20
-8113.502477049147
 10
-70981.27286161763
 20
-8245.529279166758
 10
-71021.26771776241
 20
-8244.887810571754
 10
-71035.63482815541
 20
-8258.801334171305
 10
-71035.95556245291
 20
-8278.798762243681
 10
-71010.77949517263
 20
-8338.520530236689
1001
REVIT
1002
{
1070
     1
1000
22664399
1002
}
1002
{
1070
     2
1000
-2000051
1002
}
1002
{
1070
     3
1000
-2000042
1002
}
  0
LWPOLYLINE
  5
345
330
70
100
AcDbEntity
  8
A-COB-___-___-EXI
100
AcDbPolyline
 90
        6
 70
     0
 43
0.0
 10
-70300.26628814571
 20
-7948.076528481407
 10
-70613.45555464795
 20
-8080.103330599017
 10
-70653.45041079273
 20
-8079.461862004015
 10
-70667.81752118573
 20
-8093.375385603565
 10
-70668.13825548323
 20
-8113.372813675942
 10
-70642.96218820294
 20
-8173.094581668946
1001
REVIT
1002
{
1070
     1
1000
22664393
1002
}
1002
{
1070
     2
1000
-2000051
1002
}
1002
{
1070
     3
1000
-2000042
1002
}
  0
LWPOLYLINE
  5
346
330
70
100
AcDbEntity
  8
A-COB-___-___-EXI
100
AcDbPolyline
 90
        6
 70
     0
 43
0.0
 10
-69932.44898117603
 20
-7782.650579913665
 10
-70245.63824767828
 20
-7914.677382031277
 10
-70285.63310382305
 20
-7914.035913436274
 10
-70300.00021421606
 20
-7927.949437035826
 10
-70300.32094851356
 20
-7947.9468651082
 10
-70275.14488123328
 20
-8007.668633101207
1001
REVIT
1002
{
1070
     1
1000
22664387
1002
}
1002
{
1070
     2
1000
-2000051
1002
}
1002
{
1070
     3
1000
-2000042
1002
}
  0
LWPOLYLINE
  5
347
330
70
100
AcDbEntity
  8
A-COB-___-___-EXI
100
AcDbPolyline
 90
        6
 70
     0
 43
0.0
 10
-69564.63167420636
 20
-7617.224631345926
 10
-69877.82094070861
 20
-7749.251433463538
 10
-69917.81579685339
 20
-7748.609964868534
 10
-69932.18290724638
 20
-7762.523488468083
 10
-69932.50364154389
 20
-7782.52091654046
 10
-69907.3275742636
 20
-7842.242684533466
1001
REVIT
1002
{
1070
     1
1000
22664381
1002
}
1002
{
1070
     2
1000
-2000051
1002
}
1002
{
1070
     3
1000
-2000042
1002
}
  0
LWPOLYLINE
  5
348
330
70
100
AcDbEntity
  8
A-COB-___-___-EXI
100
AcDbPolyline
 90
        6
 70
     0
 43
0.0
 10
-69196.81436723668
 20
-7451.798682778187
 10
-69510.00363373895
 20
-7583.825484895797
 10
-69549.99848988371
 20
-7583.184016300792
 10
-69564.36560027671
 20
-7597.097539900343
 10
-69564.68633457421
 20
-7617.09496797272
 10
-69539.51026729394
 20
-7676.816735965727
1001
REVIT
1002
{
1070
     1
1000
22664375
1002
}
1002
{
1070
     2
1000
-2000051
1002
}
1002
{
1070
     3
1000
-2000042
1002
}
  0
LWPOLYLINE
  5
349
330
70
100
AcDbEntity
  8
A-COB-___-___-EXI
100
AcDbPolyline
 90
        6
 70
     0
 43
0.0
 10
-68828.99706026702
 20
-7286.372734210454
 10
-69142.18632676926
 20
-7418.399536328066
 10
-69182.18118291405
 20
-7417.758067733061
 10
-69196.54829330704
 20
-7431.671591332612
 10
-69196.86902760455
 20
-7451.669019404988
 10
-69171.69296032426
 20
-7511.390787397996
1001
REVIT
1002
{
1070
     1
1000
22664369
1002
}
1002
{
1070
     2
1000
-2000051
1002
}
1002
{
1070
     3
1000
-2000042
1002
}
  0
LWPOLYLINE
  5
34A
330
70
100
AcDbEntity
  8
A-COB-___-___-EXI
100
AcDbPolyline
 90
        6
 70
     0
 43
0.0
 10
-68461.17975329734
 20
-7120.946785642719
 10
-68774.3690197996
 20
-7252.973587760331
 10
-68814.36387594437
 20
-7252.332119165328
 10
-68828.73098633736
 20
-7266.245642764879
 10
-68829.05172063487
 20
-7286.243070837255
 10
-68803.87565335458
 20
-7345.964838830261
1001
REVIT
1002
{
1070
     1
1000
22664363
1002
}
1002
{
1070
     2
1000
-2000051
1002
}
1002
{
1070
     3
1000
-2000042
1002
}
  0
LWPOLYLINE
  5
34B
330
70
100
AcDbEntity
  8
A-COB-___-___-EXI
100
AcDbPolyline
 90
        6
 70
     0
 43
0.0
 10
-68093.36244632762
 20
-6955.520837074979
 10
-68406.55171282988
 20
-7087.547639192592
 10
-68446.5465689747
 20
-7086.906170597588
 10
-68460.9136793677
 20
-7100.819694197138
 10
-68461.23441366521
 20
-7120.817122269514
 10
-68436.05834638491
 20
-7180.538890262521
1001
REVIT
1002
{
1070
     1
1000
22664357
1002
}
1002
{
1070
     2
1000
-2000051
1002
}
1002
{
1070
     3
1000
-2000042
1002
}
  0
LWPOLYLINE
  5
34C
330
70
100
AcDbEntity
  8
A-COB-___-___-EXI
100
AcDbPolyline
 90
        6
 70
     0
 43
0.0
 10
-67725.54513935794
 20
-6790.094888507238
 10
-68038.73440586019
 20
-6922.12169062485
 10
-68078.72926200497
 20
-6921.480222029846
 10
-68093.09637239796
 20
-6935.393745629397
 10
-68093.41710669547
 20
-6955.391173701774
 10
-68068.24103941518
 20
-7015.11294169478
1001
REVIT
1002
{
1070
     1
1000
22664351
1002
}
1002
{
1070
     2
1000
-2000051
1002
}
1002
{
1070
     3
1000
-2000042
1002
}
  0
LWPOLYLINE
  5
34D
330
70
100
AcDbEntity
  8
A-COB-___-___-EXI
100
AcDbPolyline
 90
        6
 70
     0
 43
0.0
 10
-67357.72783238826
 20
-6624.668939939498
 10
-67670.91709889053
 20
-6756.69574205711
 10
-67710.91195503529
 20
-6756.054273462106
 10
-67725.2790654283
 20
-6769.967797061656
 10
-67725.59979972579
 20
-6789.965225134032
 10
-67700.42373244551
 20
-6849.68699312704
1001
REVIT
1002
{
1070
     1
1000
22664345
1002
}
1002
{
1070
     2
1000
-2000051
1002
}
1002
{
1070
     3
1000
-2000042
1002
}
  0
LWPOLYLINE
  5
34E
330
70
100
AcDbEntity
  8
A-COB-___-___-EXI
100
AcDbPolyline
 90
        6
 70
     0
 43
0.0
 10
-66989.9105254186
 20
-6459.242991371758
 10
-67303.09979192084
 20
-6591.26979348937
 10
-67343.09464806562
 20
-6590.628324894367
 10
-67357.46175845862
 20
-6604.541848493918
 10
-67357.78249275613
 20
-6624.539276566292
 10
-67332.60642547584
 20
-6684.261044559299
1001
REVIT
1002
{
1070
     1
1000
22664339
1002
}
1002
{
1070
     2
1000
-2000051
1002
}
1002
{
1070
     3
1000
-2000042
1002
}
  0
LWPOLYLINE
  5
34F
330
70
100
AcDbEntity
  8
A-COB-___-___-EXI
100
AcDbPolyline
 90
        6
 70
     0
 43
0.0
 10
-66622.09321844892
 20
-6293.817042804018
 10
-66935.28248495118
 20
-6425.843844921629
 10
-66975.27734109595
 20
-6425.202376326625
 10
-66989.64445148894
 20
-6439.115899926176
 10
-66989.96518578645
 20
-6459.113327998553
 10
-66964.78911850618
 20
-6518.835095991559
1001
REVIT
1002
{
1070
     1
1000
22664333
1002
}
1002
{
1070
     2
1000
-2000051
1002
}
1002
{
1070
     3
1000
-2000042
1002
}
  0
LWPOLYLINE
  5
350
330
70
100
AcDbEntity
  8
A-COB-___-___-EXI
100
AcDbPolyline
 90
        6
 70
     0
 43
0.0
 10
-66254.27591147926
 20
-6128.39109423627
 10
-66567.46517798151
 20
-6260.417896353888
 10
-66607.46003412628
 20
-6259.776427758884
 10
-66621.82714451928
 20
-6273.689951358434
 10
-66622.14787881679
 20
-6293.687379430811
 10
-66596.97181153649
 20
-6353.409147423818
1001
REVIT
1002
{
1070
     1
1000
22664327
1002
}
1002
{
1070
     2
1000
-2000051
1002
}
1002
{
1070
     3
1000
-2000042
1002
}
  0
LWPOLYLINE
  5
351
330
70
100
AcDbEntity
  8
A-COB-___-___-EXI
100
AcDbPolyline
 90
        6
 70
     0
 43
0.0
 10
-65886.45860450958
 20
-5962.965145668529
 10
-66199.64787101184
 20
-6094.991947786141
 10
-66239.6427271566
 20
-6094.350479191136
 10
-66254.0098375496
 20
-6108.264002790687
 10
-66254.33057184711
 20
-6128.261430863066
 10
-66229.15450456683
 20
-6187.983198856072
1001
REVIT
1002
{
1070
     1
1000
22664321
1002
}
1002
{
1070
     2
1000
-2000051
1002
}
1002
{
1070
     3
1000
-2000042
1002
}
  0
LWPOLYLINE
  5
352
330
70
100
AcDbEntity
  8
A-COB-___-___-EXI
100
AcDbPolyline
 90
        6
 70
     0
 43
0.0
 10
-65518.6412975399
 20
-5797.539197100789
 10
-65831.83056404216
 20
-5929.5659992184
 10
-65871.82542018694
 20
-5928.924530623397
 10
-65886.19253057993
 20
-5942.838054222948
 10
-65886.51326487744
 20
-5962.835482295323
 10
-65861.33719759716
 20
-6022.557250288329
1001
REVIT
1002
{
1070
     1
1000
22664315
1002
}
1002
{
1070
     2
1000
-2000051
1002
}
1002
{
1070
     3
1000
-2000042
1002
}
  0
LWPOLYLINE
  5
353
330
70
100
AcDbEntity
  8
A-COB-___-___-EXI
100
AcDbPolyline
 90
        6
 70
     0
 43
0.0
 10
-65150.82399057023
 20
-5632.113248533048
 10
-65464.01325707249
 20
-5764.140050650659
 10
-65504.00811321726
 20
-5763.498582055655
 10
-65518.37522361027
 20
-5777.412105655207
 10
-65518.69595790776
 20
-5797.409533727583
 10
-65493.51989062748
 20
-5857.131301720589
1001
REVIT
1002
{
1070
     1
1000
22664309
1002
}
1002
{
1070
     2
1000
-2000051
1002
}
1002
{
1070
     3
1000
-2000042
1002
}
  0
LWPOLYLINE
  5
354
330
70
100
AcDbEntity
  8
A-COB-___-___-EXI
100
AcDbPolyline
 90
        6
 70
     0
 43
0.0
 10
-64783.00668360057
 20
-5466.687299965308
 10
-65096.19595010281
 20
-5598.71410208292
 10
-65136.19080624759
 20
-5598.072633487916
 10
-65150.55791664059
 20
-5611.986157087466
 10
-65150.8786509381
 20
-5631.983585159843
 10
-65125.70258365781
 20
-5691.705353152849
1001
REVIT
1002
{
1070
     1
1000
22664303
1002
}
1002
{
1070
     2
1000
-2000051
1002
}
1002
{
1070
     3
1000
-2000042
1002
}
  0
LWPOLYLINE
  5
355
330
70
100
AcDbEntity
  8
A-COB-___-___-EXI
100
AcDbPolyline
 90
        6
 70
     0
 43
0.0
 10
-64415.18937663089
 20
-5301.261351397568
 10
-64728.37864313315
 20
-5433.288153515179
 10
-64768.37349927792
 20
-5432.646684920175
 10
-64782.74060967091
 20
-5446.560208519726
 10
-64783.06134396842
 20
-5466.557636592103
 10
-64757.88527668814
 20
-5526.279404585109
1001
REVIT
1002
{
1070
     1
1000
22664297
1002
}
1002
{
1070
     2
1000
-2000051
1002
}
1002
{
1070
     3
1000
-2000042
1002
}
  0
LWPOLYLINE
  5
356
330
70
100
AcDbEntity
  8
A-COB-___-___-EXI
100
AcDbPolyline
 90
        6
 70
     0
 43
0.0
 10
-64047.37206966122
 20
-5135.835402829827
 10
-64360.56133616347
 20
-5267.862204947439
 10
-64400.55619230824
 20
-5267.220736352435
 10
-64414.92330270125
 20
-5281.134259951986
 10
-64415.24403699875
 20
-5301.131688024362
 10
-64390.06796971846
 20
-5360.853456017369
1001
REVIT
1002
{
1070
     1
1000
22664291
1002
}
1002
{
1070
     2
1000
-2000051
1002
}
1002
{
1070
     3
1000
-2000042
1002
}
  0
LWPOLYLINE
  5
357
330
70
100
AcDbEntity
  8
A-COB-___-___-EXI
100
AcDbPolyline
 90
        6
 70
     0
 43
0.0
 10
-63679.55476269155
 20
-4970.409454262088
 10
-63992.7440291938
 20
-5102.436256379698
 10
-64032.73888533858
 20
-5101.794787784695
 10
-64047.10599573157
 20
-5115.708311384246
 10
-64047.42673002908
 20
-5135.705739456621
 10
-64022.25066274879
 20
-5195.427507449628
1001
REVIT
1002
{
1070
     1
1000
22664285
1002
}
1002
{
1070
     2
1000
-2000051
1002
}
1002
{
1070
     3
1000
-2000042
1002
}
  0
LWPOLYLINE
  5
358
330
70
100
AcDbEntity
  8
A-COB-___-___-EXI
100
AcDbPolyline
 90
        6
 70
     0
 43
0.0
 10
-63311.73745572193
 20
-4804.983505694373
 10
-63624.92672222413
 20
-4937.010307811958
 10
-63664.92157836891
 20
-4936.368839216954
 10
-63679.2886887619
 20
-4950.282362816505
 10
-63679.6094230594
 20
-4970.279790888882
 10
-63654.43335577912
 20
-5030.001558881888
1001
REVIT
1002
{
1070
     1
1000
22664275
1002
}
1002
{
1070
     2
1000
-2000051
1002
}
1002
{
1070
     3
1000
-2000042
1002
}
  0
LWPOLYLINE
  5
359
330
70
100
AcDbEntity
  8
A-COB-___-___-EXI
100
AcDbPolyline
 90
        6
 70
     0
 43
0.0
 10
-54929.14698541599
 20
-8075.412705127613
 10
-54618.20009907013
 20
-8212.933735780534
 10
-54578.20013916503
 20
-8212.990371369143
 10
-54564.07804142137
 20
-8227.152516521565
 10
-54564.10635921567
 20
-8247.152496474127
 10
-54590.32088062714
 20
-8306.42578559391
1001
REVIT
1002
{
1070
     1
1000
22664269
1002
}
1002
{
1070
     2
1000
-2000051
1002
}
1002
{
1070
     3
1000
-2000042
1002
}
  0
LWPOLYLINE
  5
35A
330
70
100
AcDbEntity
  8
A-COB-___-___-EXI
100
AcDbPolyline
 90
        6
 70
     0
 43
0.0
 10
-55297.9958380914
 20
-7912.283641604371
 10
-54987.04895174554
 20
-8049.804672257293
 10
-54947.04899184044
 20
-8049.861307845903
 10
-54932.92689409678
 20
-8064.023452998322
 10
-54932.95521189108
 20
-8084.023432950884
 10
-54959.16973330253
 20
-8143.296722070669
1001
REVIT
1002
{
1070
     1
1000
22664263
1002
}
1002
{
1070
     2
1000
-2000051
1002
}
1002
{
1070
     3
1000
-2000042
1002
}
  0
LWPOLYLINE
  5
35B
330
70
100
AcDbEntity
  8
A-COB-___-___-EXI
100
AcDbPolyline
 90
        6
 70
     0
 43
0.0
 10
-55666.84469076681
 20
-7749.154578081128
 10
-55355.89780442093
 20
-7886.675608734049
 10
-55315.89784451584
 20
-7886.73224432266
 10
-55301.77574677218
 20
-7900.894389475078
 10
-55301.80406456648
 20
-7920.894369427642
 10
-55328.01858597794
 20
-7980.167658547427
1001
REVIT
1002
{
1070
     1
1000
22664257
1002
}
1002
{
1070
     2
1000
-2000051
1002
}
1002
{
1070
     3
1000
-2000042
1002
}
  0
LWPOLYLINE
  5
35C
330
70
100
AcDbEntity
  8
A-COB-___-___-EXI
100
AcDbPolyline
 90
        6
 70
     0
 43
0.0
 10
-56035.6935434422
 20
-7586.025514557885
 10
-55724.74665709634
 20
-7723.546545210807
 10
-55684.74669719123
 20
-7723.603180799416
 10
-55670.62459944758
 20
-7737.765325951835
 10
-55670.65291724189
 20
-7757.765305904398
 10
-55696.86743865334
 20
-7817.038595024182
1001
REVIT
1002
{
1070
     1
1000
22664251
1002
}
1002
{
1070
     2
1000
-2000051
1002
}
1002
{
1070
     3
1000
-2000042
1002
}
  0
LWPOLYLINE
  5
35D
330
70
100
AcDbEntity
  8
A-COB-___-___-EXI
100
AcDbPolyline
 90
        6
 70
     0
 43
0.0
 10
-56404.5423961176
 20
-7422.896451034643
 10
-56093.59550977174
 20
-7560.417481687564
 10
-56053.59554986663
 20
-7560.474117276175
 10
-56039.47345212298
 20
-7574.636262428594
 10
-56039.50176991729
 20
-7594.636242381158
 10
-56065.71629132875
 20
-7653.90953150094
1001
REVIT
1002
{
1070
     1
1000
22664245
1002
}
1002
{
1070
     2
1000
-2000051
1002
}
1002
{
1070
     3
1000
-2000042
1002
}
  0
LWPOLYLINE
  5
35E
330
70
100
AcDbEntity
  8
A-COB-___-___-EXI
100
AcDbPolyline
 90
        6
 70
     0
 43
0.0
 10
-56773.391248793
 20
-7259.767387511401
 10
-56462.44436244715
 20
-7397.288418164322
 10
-56422.44440254204
 20
-7397.345053752933
 10
-56408.32230479838
 20
-7411.507198905352
 10
-56408.35062259268
 20
-7431.507178857915
 10
-56434.56514400415
 20
-7490.780467977699
1001
REVIT
1002
{
1070
     1
1000
22664239
1002
}
1002
{
1070
     2
1000
-2000051
1002
}
1002
{
1070
     3
1000
-2000042
1002
}
  0
LWPOLYLINE
  5
35F
330
70
100
AcDbEntity
  8
A-COB-___-___-EXI
100
AcDbPolyline
 90
        6
 70
     0
 43
0.0
 10
-57142.24010146841
 20
-7096.638323988156
 10
-56831.29321512255
 20
-7234.159354641079
 10
-56791.29325521745
 20
-7234.215990229689
 10
-56777.17115747379
 20
-7248.378135382108
 10
-56777.19947526809
 20
-7268.378115334671
 10
-56803.41399667955
 20
-7327.651404454456
1001
REVIT
1002
{
1070
     1
1000
22664233
1002
}
1002
{
1070
     2
1000
-2000051
1002
}
1002
{
1070
     3
1000
-2000042
1002
}
  0
LWPOLYLINE
  5
360
330
70
100
AcDbEntity
  8
A-COB-___-___-EXI
100
AcDbPolyline
 90
        6
 70
     0
 43
0.0
 10
-57511.08895414382
 20
-6933.509260464915
 10
-57200.14206779794
 20
-7071.030291117835
 10
-57160.14210789285
 20
-7071.086926706446
 10
-57146.02001014919
 20
-7085.249071858865
 10
-57146.04832794349
 20
-7105.249051811428
 10
-57172.26284935495
 20
-7164.522340931212
1001
REVIT
1002
{
1070
     1
1000
22664227
1002
}
1002
{
1070
     2
1000
-2000051
1002
}
1002
{
1070
     3
1000
-2000042
1002
}
  0
LWPOLYLINE
  5
361
330
70
100
AcDbEntity
  8
A-COB-___-___-EXI
100
AcDbPolyline
 90
        6
 70
     0
 43
0.0
 10
-57879.93780681921
 20
-6770.380196941673
 10
-57568.99092047335
 20
-6907.901227594594
 10
-57528.99096056824
 20
-6907.957863183203
 10
-57514.86886282459
 20
-6922.120008335624
 10
-57514.8971806189
 20
-6942.119988288187
 10
-57541.11170203035
 20
-7001.39327740797
1001
REVIT
1002
{
1070
     1
1000
22664221
1002
}
1002
{
1070
     2
1000
-2000051
1002
}
1002
{
1070
     3
1000
-2000042
1002
}
  0
LWPOLYLINE
  5
362
330
70
100
AcDbEntity
  8
A-COB-___-___-EXI
100
AcDbPolyline
 90
        6
 70
     0
 43
0.0
 10
-58248.78665949461
 20
-6607.251133418429
 10
-57937.83977314875
 20
-6744.772164071353
 10
-57897.83981324365
 20
-6744.828799659962
 10
-57883.71771549999
 20
-6758.990944812381
 10
-57883.7460332943
 20
-6778.990924764944
 10
-57909.96055470576
 20
-6838.264213884729
1001
REVIT
1002
{
1070
     1
1000
22664215
1002
}
1002
{
1070
     2
1000
-2000051
1002
}
1002
{
1070
     3
1000
-2000042
1002
}
  0
LWPOLYLINE
  5
363
330
70
100
AcDbEntity
  8
A-COB-___-___-EXI
100
AcDbPolyline
 90
        6
 70
     0
 43
0.0
 10
-58617.63551217002
 20
-6444.122069895188
 10
-58306.68862582416
 20
-6581.643100548109
 10
-58266.68866591905
 20
-6581.699736136719
 10
-58252.5665681754
 20
-6595.861881289138
 10
-58252.5948859697
 20
-6615.861861241701
 10
-58278.80940738117
 20
-6675.135150361485
1001
REVIT
1002
{
1070
     1
1000
22664209
1002
}
1002
{
1070
     2
1000
-2000051
1002
}
1002
{
1070
     3
1000
-2000042
1002
}
  0
LWPOLYLINE
  5
364
330
70
100
AcDbEntity
  8
A-COB-___-___-EXI
100
AcDbPolyline
 90
        6
 70
     0
 43
0.0
 10
-58986.48436484543
 20
-6280.993006371944
 10
-58675.53747849956
 20
-6418.514037024866
 10
-58635.53751859446
 20
-6418.570672613475
 10
-58621.41542085081
 20
-6432.732817765894
 10
-58621.4437386451
 20
-6452.732797718458
 10
-58647.65826005656
 20
-6512.006086838241
1001
REVIT
1002
{
1070
     1
1000
22664203
1002
}
1002
{
1070
     2
1000
-2000051
1002
}
1002
{
1070
     3
1000
-2000042
1002
}
  0
LWPOLYLINE
  5
365
330
70
100
AcDbEntity
  8
A-COB-___-___-EXI
100
AcDbPolyline
 90
        6
 70
     0
 43
0.0
 10
-59355.33321752083
 20
-6117.863942848702
 10
-59044.38633117496
 20
-6255.384973501623
 10
-59004.38637126986
 20
-6255.441609090233
 10
-58990.2642735262
 20
-6269.603754242653
 10
-58990.29259132051
 20
-6289.603734195216
 10
-59016.50711273196
 20
-6348.877023315
1001
REVIT
1002
{
1070
     1
1000
22664197
1002
}
1002
{
1070
     2
1000
-2000051
1002
}
1002
{
1070
     3
1000
-2000042
1002
}
  0
LWPOLYLINE
  5
366
330
70
100
AcDbEntity
  8
A-COB-___-___-EXI
100
AcDbPolyline
 90
        6
 70
     0
 43
0.0
 10
-59724.18207019623
 20
-5954.73487932546
 10
-59413.23518385036
 20
-6092.255909978381
 10
-59373.23522394526
 20
-6092.312545566992
 10
-59359.1131262016
 20
-6106.47469071941
 10
-59359.14144399591
 20
-6126.474670671974
 10
-59385.35596540737
 20
-6185.747959791758
1001
REVIT
1002
{
1070
     1
1000
22664191
1002
}
1002
{
1070
     2
1000
-2000051
1002
}
1002
{
1070
     3
1000
-2000042
1002
}
  0
LWPOLYLINE
  5
367
330
70
100
AcDbEntity
  8
A-COB-___-___-EXI
100
AcDbPolyline
 90
        6
 70
     0
 43
0.0
 10
-60093.03092287162
 20
-5791.605815802217
 10
-59782.08403652576
 20
-5929.126846455138
 10
-59742.08407662066
 20
-5929.183482043748
 10
-59727.961978877
 20
-5943.345627196168
 10
-59727.99029667131
 20
-5963.345607148731
 10
-59754.20481808277
 20
-6022.618896268514
1001
REVIT
1002
{
1070
     1
1000
22664185
1002
}
1002
{
1070
     2
1000
-2000051
1002
}
1002
{
1070
     3
1000
-2000042
1002
}
  0
LWPOLYLINE
  5
368
330
70
100
AcDbEntity
  8
A-COB-___-___-EXI
100
AcDbPolyline
 90
        6
 70
     0
 43
0.0
 10
-60461.87977554703
 20
-5628.476752278974
 10
-60150.93288920117
 20
-5765.997782931895
 10
-60110.93292929607
 20
-5766.054418520505
 10
-60096.81083155241
 20
-5780.216563672924
 10
-60096.83914934671
 20
-5800.216543625487
 10
-60123.05367075818
 20
-5859.489832745271
1001
REVIT
1002
{
1070
     1
1000
22664179
1002
}
1002
{
1070
     2
1000
-2000051
1002
}
1002
{
1070
     3
1000
-2000042
1002
}
  0
LWPOLYLINE
  5
369
330
70
100
AcDbEntity
  8
A-COB-___-___-EXI
100
AcDbPolyline
 90
        6
 70
     0
 43
0.0
 10
-60830.72862822244
 20
-5465.347688755731
 10
-60519.78174187658
 20
-5602.868719408654
 10
-60479.78178197147
 20
-5602.925354997263
 10
-60465.65968422782
 20
-5617.087500149683
 10
-60465.68800202212
 20
-5637.087480102246
 10
-60491.90252343358
 20
-5696.360769222029
1001
REVIT
1002
{
1070
     1
1000
22664173
1002
}
1002
{
1070
     2
1000
-2000051
1002
}
1002
{
1070
     3
1000
-2000042
1002
}
  0
LWPOLYLINE
  5
36A
330
70
100
AcDbEntity
  8
A-COB-___-___-EXI
100
AcDbPolyline
 90
        6
 70
     0
 43
0.0
 10
-61199.57748089784
 20
-5302.218625232489
 10
-60888.63059455198
 20
-5439.739655885411
 10
-60848.63063464687
 20
-5439.796291474021
 10
-60834.50853690322
 20
-5453.958436626439
 10
-60834.53685469752
 20
-5473.958416579004
 10
-60860.75137610897
 20
-5533.231705698788
1001
REVIT
1002
{
1070
     1
1000
22664167
1002
}
1002
{
1070
     2
1000
-2000051
1002
}
1002
{
1070
     3
1000
-2000042
1002
}
  0
LWPOLYLINE
  5
36B
330
70
100
AcDbEntity
  8
A-COB-___-___-EXI
100
AcDbPolyline
 90
        6
 70
     0
 43
0.0
 10
-61568.42633357324
 20
-5139.089561709247
 10
-61257.47944722737
 20
-5276.610592362168
 10
-61217.47948732227
 20
-5276.667227950778
 10
-61203.35738957861
 20
-5290.829373103197
 10
-61203.38570737292
 20
-5310.82935305576
 10
-61229.60022878438
 20
-5370.102642175544
1001
REVIT
1002
{
1070
     1
1000
22664161
1002
}
1002
{
1070
     2
1000
-2000051
1002
}
1002
{
1070
     3
1000
-2000042
1002
}
  0
LWPOLYLINE
  5
36C
330
70
100
AcDbEntity
  8
A-COB-___-___-EXI
100
AcDbPolyline
 90
        6
 70
     0
 43
0.0
 10
-61937.27518624864
 20
-4975.960498186003
 10
-61626.32829990278
 20
-5113.481528838924
 10
-61586.32833999767
 20
-5113.538164427534
 10
-61572.20624225401
 20
-5127.700309579953
 10
-61572.23456004833
 20
-5147.700289532518
 10
-61598.44908145979
 20
-5206.973578652302
1001
REVIT
1002
{
1070
     1
1000
22664155
1002
}
1002
{
1070
     2
1000
-2000051
1002
}
1002
{
1070
     3
1000
-2000042
1002
}
  0
LWPOLYLINE
  5
36D
330
70
100
AcDbEntity
  8
A-COB-___-___-EXI
100
AcDbPolyline
 90
        6
 70
     0
 43
0.0
 10
-62306.12403892405
 20
-4812.831434662761
 10
-61995.17715257818
 20
-4950.352465315683
 10
-61955.17719267308
 20
-4950.409100904292
 10
-61941.05509492943
 20
-4964.571246056712
 10
-61941.08341272372
 20
-4984.571226009276
 10
-61967.29793413519
 20
-5043.844515129059
1001
REVIT
1002
{
1070
     1
1000
22664145
1002
}
1002
{
1070
     2
1000
-2000051
1002
}
1002
{
1070
     3
1000
-2000042
1002
}
  0
LWPOLYLINE
  5
36E
330
70
100
AcDbEntity
  8
A-POR-___-___-EXI
100
AcDbPolyline
 90
        4
 70
     1
 43
0.0
 10
-64160.82444388098
 20
-8920.612509534526
 10
-64160.82444388098
 20
-10940.61250953452
 10
-62982.91881661604
 20
-10940.61250953452
 10
-62982.91881661604
 20
-8920.612509534526
1001
REVIT
1002
{
1070
     1
1000
22664098
1002
}
1002
{
1070
     2
1000
-2000051
1002
}
1002
{
1070
     3
1000
-2000042
1002
}
  0
LWPOLYLINE
  5
36F
330
70
100
AcDbEntity
  8
A-POR-___-___-EXI
100
AcDbPolyline
 90
        4
 70
     1
 43
0.0
 10
-64040.82444388097
 20
-9050.178066870826
 10
-64040.82444388097
 20
-10940.61250953452
 10
-63102.91881661607
 20
-10940.61250953452
 10
-63102.91881661607
 20
-9050.178066870826
1001
REVIT
1002
{
1070
     1
1000
22664094
1002
}
1002
{
1070
     2
1000
-2000051
1002
}
1002
{
1070
     3
1000
-2000042
1002
}
  0
LWPOLYLINE
  5
370
330
70
100
AcDbEntity
  8
A-POR-___-___-EXI
100
AcDbPolyline
 90
        4
 70
     1
 43
0.0
 10
-58420.82444388096
 20
-9000.612509534546
 10
-58420.82444388096
 20
-10940.61250953454
 10
-57442.91881661607
 20
-10940.61250953454
 10
-57442.91881661607
 20
-9000.612509534546
1001
REVIT
1002
{
1070
     1
1000
22664079
1002
}
1002
{
1070
     2
1000
-2000051
1002
}
1002
{
1070
     3
1000
-2000042
1002
}
  0
LWPOLYLINE
  5
371
330
70
100
AcDbEntity
  8
A-POR-___-___-EXI
100
AcDbPolyline
 90
        4
 70
     1
 43
0.0
 10
-58300.82444388096
 20
-9130.178066870843
 10
-58300.82444388096
 20
-10940.61250953454
 10
-57562.9188166161
 20
-10940.61250953454
 10
-57562.9188166161
 20
-9130.178066870843
1001
REVIT
1002
{
1070
     1
1000
22664075
1002
}
1002
{
1070
     2
1000
-2000051
1002
}
1002
{
1070
     3
1000
-2000042
1002
}
  0
LWPOLYLINE
  5
372
330
70
100
AcDbEntity
  8
A-COB-___-___-EXI
100
AcDbPolyline
 90
        6
 70
     0
 43
0.0
 10
-62943.80981470493
 20
-4639.511045151279
 10
-63257.10941525453
 20
-4771.584359244217
 10
-63297.1042713993
 20
-4770.942890649212
 10
-63311.4713817923
 20
-4784.856414248764
 10
-63311.7921160898
 20
-4804.85384232114
 10
-63286.61604880951
 20
-4864.575610314147
1001
REVIT
1002
{
1070
     1
1000
22664051
1002
}
1002
{
1070
     2
1000
-2000051
1002
}
1002
{
1070
     3
1000
-2000042
1002
}
  0
LWPOLYLINE
  5
373
330
70
100
AcDbEntity
  8
A-COB-___-___-EXI
100
AcDbPolyline
 90
        6
 70
     0
 43
0.0
 10
-62698.01635679699
 20
-4639.511045151272
 10
-62364.02600525359
 20
-4787.223401792441
 10
-62324.02604534848
 20
-4787.28003738105
 10
-62309.90394760483
 20
-4801.442182533469
 10
-62309.93226539913
 20
-4821.442162486033
 10
-62336.14678681059
 20
-4880.715451605817
1001
REVIT
1002
{
1070
     1
1000
22664045
1002
}
1002
{
1070
     2
1000
-2000051
1002
}
1002
{
1070
     3
1000
-2000042
1002
}
  0
LWPOLYLINE
  5
374
330
70
100
AcDbEntity
  8
A-BAS-___-___-EXI
100
AcDbPolyline
 90
       12
 70
     1
 43
0.0
 10
-54225.54805123397
 20
-11422.13893556254
 10
-54225.54805123397
 20
-11170.61250953455
 10
-55235.04331702885
 20
-11170.61250953455
 10
-55235.04331702885
 20
-10940.61250953455
 10
-63366.01471519236
 20
-10940.61250953452
 10
-63566.01471519236
 20
-10940.61250953452
 10
-70441.65183271902
 20
-10940.6125095345
 10
-70441.65183271902
 20
-11133.29459989804
 10
-72881.65183271902
 20
-11133.29459989803
 10
-72881.65183271902
 20
-11202.13893556255
 10
-73908.78708537723
 20
-11202.13893556254
 10
-73908.78708537723
 20
-11422.13893556254
1001
REVIT
1002
{
1070
     1
1000
22663987
1002
}
1002
{
1070
     5
1000
383807
1002
}
1002
{
1070
     2
1000
-2000051
1002
}
1002
{
1070
     3
1000
-2000042
1002
}
  0
LWPOLYLINE
  5
375
330
70
100
AcDbEntity
  8
A-ALV-___-___-EXI
100
AcDbPolyline
 90
        3
 70
     0
 43
0.0
 10
-70441.48271470183
 20
-8206.056087936472
 10
-70441.48271470183
 20
-8734.618465753239
 10
-70289.20725893603
 20
-8734.618465753239
1001
REVIT
1002
{
1070
     1
1000
22663979
1002
}
1002
{
1070
     5
1000
383807
1002
}
1002
{
1070
     2
1000
-2000051
1002
}
1002
{
1070
     3
1000
-2000042
1002
}
  0
LWPOLYLINE
  5
376
330
70
100
AcDbEntity
  8
A-ALV-___-___-EXI
100
AcDbPolyline
 90
        3
 70
     0
 43
0.0
 10
-70146.37448014131
 20
-8734.754515967305
 10
-69937.9229514723
 20
-8643.669923009509
 10
-69937.9229514723
 20
-8194.767211257213
1001
REVIT
1002
{
1070
     1
1000
22663979
1002
}
1002
{
1070
     5
1000
383807
1002
}
1002
{
1070
     2
1000
-2000051
1002
}
1002
{
1070
     3
1000
-2000042
1002
}
  0
LWPOLYLINE
  5
377
330
70
100
AcDbEntity
  8
A-COB-___-___-EXI
100
AcDbPolyline
 90
        4
 70
     1
 43
0.0
 10
-62722.91881661604
 20
-8464.748216968859
 10
-63142.59448598771
 20
-8464.748216968859
 10
-63142.59448598771
 20
-8588.739401594819
 10
-62722.91881661604
 20
-8588.739401594819
1001
REVIT
1002
{
1070
     1
1000
22664439
1002
}
1002
{
1070
     5
1000
383807
1002
}
1002
{
1070
     2
1000
-2000051
1002
}
1002
{
1070
     3
1000
-2000042
1002
}
  0
LINE
  5
399
330
70
100
AcDbEntity
  8
A-ALV-___-___-EXI
100
AcDbLine
 10
-69939.43491846882
 20
-10940.6125095345
 30
0.0
 11
-69939.43491846882
 21
-8644.330589301205
 31
0.0
1001
REVIT
1002
{
1070
     1
1000
22664090
1002
}
1002
{
1070
     2
1000
-2000051
1002
}
1002
{
1070
     3
1000
-2000042
1002
}
  0
LINE
  5
39A
330
70
100
AcDbEntity
  8
A-ALV-___-___-EXI
100
AcDbLine
 10
-69939.43491846882
 20
-8644.330589301205
 30
0.0
 11
-70146.06312259799
 21
-8734.618465753239
 31
0.0
1001
REVIT
1002
{
1070
     1
1000
22664090
1002
}
1002
{
1070
     2
1000
-2000051
1002
}
1002
{
1070
     3
1000
-2000042
1002
}
  0
LINE
  5
39B
330
70
100
AcDbEntity
  8
A-POR-___-___-EXI
100
AcDbLine
 10
-70146.06312259799
 20
-8734.618465753239
 30
0.0
 11
-70146.06312259799
 21
-10940.6125095345
 31
0.0
1001
REVIT
1002
{
1070
     1
1000
22664090
1002
}
1002
{
1070
     2
1000
-2000051
1002
}
1002
{
1070
     3
1000
-2000042
1002
}
  0
LINE
  5
39C
330
70
100
AcDbEntity
  8
A-ALV-___-___-EXI
100
AcDbLine
 10
-70146.06312259799
 20
-10940.6125095345
 30
0.0
 11
-70221.08808766617
 21
-10940.6125095345
 31
0.0
1001
REVIT
1002
{
1070
     1
1000
22664090
1002
}
1002
{
1070
     2
1000
-2000051
1002
}
1002
{
1070
     3
1000
-2000042
1002
}
  0
LINE
  5
39D
330
70
100
AcDbEntity
  8
A-POR-___-___-EXI
100
AcDbLine
 10
-70221.08808766617
 20
-10940.6125095345
 30
0.0
 11
-70221.08808766617
 21
-8734.618465753239
 31
0.0
1001
REVIT
1002
{
1070
     1
1000
22664090
1002
}
1002
{
1070
     2
1000
-2000051
1002
}
1002
{
1070
     3
1000
-2000042
1002
}
  0
LINE
  5
39E
330
70
100
AcDbEntity
  8
A-COB-___-___-EXI
100
AcDbLine
 10
-70221.08808766617
 20
-8734.618465753239
 30
0.0
 11
-70146.06312259799
 21
-8734.618465753239
 31
0.0
1001
REVIT
1002
{
1070
     1
1000
22664090
1002
}
1002
{
1070
     2
1000
-2000051
1002
}
1002
{
1070
     3
1000
-2000042
1002
}
  0
LINE
  5
39F
330
70
100
AcDbEntity
  8
A-ALV-___-___-EXI
100
AcDbLine
 10
-70146.06312259799
 20
-8734.618465753239
 30
0.0
 11
-70441.48271470183
 21
-8734.618465753239
 31
0.0
1001
REVIT
1002
{
1070
     1
1000
22664090
1002
}
1002
{
1070
     2
1000
-2000051
1002
}
1002
{
1070
     3
1000
-2000042
1002
}
  0
LINE
  5
3A0
330
70
100
AcDbEntity
  8
A-ALV-___-___-EXI
100
AcDbLine
 10
-70441.48271470183
 20
-8734.618465753239
 30
0.0
 11
-70441.48271470183
 21
-10940.6125095345
 31
0.0
1001
REVIT
1002
{
1070
     1
1000
22664090
1002
}
1002
{
1070
     2
1000
-2000051
1002
}
1002
{
1070
     3
1000
-2000042
1002
}
  0
LINE
  5
3A1
330
70
100
AcDbEntity
  8
A-ALV-___-___-EXI
100
AcDbLine
 10
-70441.48271470183
 20
-10940.6125095345
 30
0.0
 11
-69939.43491846882
 21
-10940.6125095345
 31
0.0
1001
REVIT
1002
{
1070
     1
1000
22664090
1002
}
1002
{
1070
     2
1000
-2000051
1002
}
1002
{
1070
     3
1000
-2000042
1002
}
  0
LINE
  5
3A2
330
70
100
AcDbEntity
  8
A-COB-___-___-EXI
100
AcDbLine
 10
-62763.06986698454
 20
-4824.477839302989
 30
0.0
 11
-62903.06986698452
 21
-4824.477839302986
 31
0.0
1001
REVIT
1002
{
1070
     1
1000
22664439
1002
}
1002
{
1070
     5
1000
383807
1002
}
1002
{
1070
     2
1000
-2000051
1002
}
1002
{
1070
     3
1000
-2000042
1002
}
  0
LINE
  5
3A3
330
70
100
AcDbEntity
  8
A-COB-___-___-EXI
100
AcDbLine
 10
-62903.06986698452
 20
-4824.477839302986
 30
0.0
 11
-73217.68333699065
 21
-9451.40306319762
 31
0.0
1001
REVIT
1002
{
1070
     1
1000
22664439
1002
}
1002
{
1070
     5
1000
383807
1002
}
1002
{
1070
     2
1000
-2000051
1002
}
1002
{
1070
     3
1000
-2000042
1002
}
  0
LINE
  5
3A4
330
70
100
AcDbEntity
  8
A-COB-___-___-EXI
100
AcDbLine
 10
-73217.68333699065
 20
-9451.40306319762
 30
0.0
 11
-72639.46686120678
 21
-9192.026945570376
 31
0.0
1001
REVIT
1002
{
1070
     1
1000
22664439
1002
}
1002
{
1070
     5
1000
383807
1002
}
1002
{
1070
     2
1000
-2000051
1002
}
1002
{
1070
     3
1000
-2000042
1002
}
  0
LINE
  5
3A5
330
70
100
AcDbEntity
  8
A-COB-___-___-EXI
100
AcDbLine
 10
-72639.46686120678
 20
-9192.026945570376
 30
0.0
 11
-72639.46686120678
 21
-9313.294599898036
 31
0.0
1001
REVIT
1002
{
1070
     1
1000
22664439
1002
}
1002
{
1070
     5
1000
383807
1002
}
1002
{
1070
     2
1000
-2000051
1002
}
1002
{
1070
     3
1000
-2000042
1002
}
  0
LINE
  5
3A6
330
70
100
AcDbEntity
  8
A-PIL-___-___-EXI
100
AcDbLine
 10
-72639.46686120678
 20
-9313.294599898036
 30
0.0
 11
-72639.46686120678
 21
-11133.29459989803
 31
0.0
1001
REVIT
1002
{
1070
     1
1000
22664439
1002
}
1002
{
1070
     5
1000
383807
1002
}
1002
{
1070
     2
1000
-2000051
1002
}
1002
{
1070
     3
1000
-2000042
1002
}
  0
LINE
  5
3A7
330
70
100
AcDbEntity
  8
A-PIL-___-___-EXI
100
AcDbLine
 10
-72639.46686120678
 20
-11133.29459989803
 30
0.0
 11
-72499.46686120678
 21
-11133.29459989803
 31
0.0
1001
REVIT
1002
{
1070
     1
1000
22664439
1002
}
1002
{
1070
     5
1000
383807
1002
}
1002
{
1070
     2
1000
-2000051
1002
}
1002
{
1070
     3
1000
-2000042
1002
}
  0
LINE
  5
3A8
330
70
100
AcDbEntity
  8
A-PIL-___-___-EXI
100
AcDbLine
 10
-72499.46686120678
 20
-11133.29459989803
 30
0.0
 11
-72499.46686120678
 21
-9313.294599898036
 31
0.0
1001
REVIT
1002
{
1070
     1
1000
22664439
1002
}
1002
{
1070
     5
1000
383807
1002
}
1002
{
1070
     2
1000
-2000051
1002
}
1002
{
1070
     3
1000
-2000042
1002
}
  0
LINE
  5
3A9
330
70
100
AcDbEntity
  8
A-COB-___-___-EXI
100
AcDbLine
 10
-72499.46686120678
 20
-9313.294599898036
 30
0.0
 11
-70441.48271470183
 21
-9313.294599898036
 31
0.0
1001
REVIT
1002
{
1070
     1
1000
22664439
1002
}
1002
{
1070
     5
1000
383807
1002
}
1002
{
1070
     2
1000
-2000051
1002
}
1002
{
1070
     3
1000
-2000042
1002
}
  0
LINE
  5
3AA
330
70
100
AcDbEntity
  8
A-COB-___-___-EXI
100
AcDbLine
 10
-70441.48271470183
 20
-9313.294599898036
 30
0.0
 11
-70441.48271470183
 21
-9186.808482004002
 31
0.0
1001
REVIT
1002
{
1070
     1
1000
22664439
1002
}
1002
{
1070
     5
1000
383807
1002
}
1002
{
1070
     2
1000
-2000051
1002
}
1002
{
1070
     3
1000
-2000042
1002
}
  0
LINE
  5
3AB
330
70
100
AcDbEntity
  8
A-COB-___-___-EXI
100
AcDbLine
 10
-70441.48271470183
 20
-9186.808482004002
 30
0.0
 11
-72499.46686120678
 21
-9186.808482004002
 31
0.0
1001
REVIT
1002
{
1070
     1
1000
22664439
1002
}
1002
{
1070
     5
1000
383807
1002
}
1002
{
1070
     2
1000
-2000051
1002
}
1002
{
1070
     3
1000
-2000042
1002
}
  0
LINE
  5
3AC
330
70
100
AcDbEntity
  8
A-COB-___-___-EXI
100
AcDbLine
 10
-72499.46686120678
 20
-9186.808482004002
 30
0.0
 11
-72499.46686120678
 21
-9313.294599898036
 31
0.0
1001
REVIT
1002
{
1070
     1
1000
22664439
1002
}
1002
{
1070
     5
1000
383807
1002
}
1002
{
1070
     2
1000
-2000051
1002
}
1002
{
1070
     3
1000
-2000042
1002
}
  0
LINE
  5
3AD
330
70
100
AcDbEntity
  8
A-COB-___-___-EXI
100
AcDbLine
 10
-72499.46686120678
 20
-9313.294599898036
 30
0.0
 11
-72639.46686120678
 21
-9313.294599898036
 31
0.0
1001
REVIT
1002
{
1070
     1
1000
22664439
1002
}
1002
{
1070
     5
1000
383807
1002
}
1002
{
1070
     2
1000
-2000051
1002
}
1002
{
1070
     3
1000
-2000042
1002
}
  0
LINE
  5
3AE
330
70
100
AcDbEntity
  8
A-COB-___-___-EXI
100
AcDbLine
 10
-72639.46686120678
 20
-9313.294599898036
 30
0.0
 11
-72499.46686120678
 21
-9313.294599898036
 31
0.0
1001
REVIT
1002
{
1070
     1
1000
22664439
1002
}
1002
{
1070
     5
1000
383807
1002
}
1002
{
1070
     2
1000
-2000051
1002
}
1002
{
1070
     3
1000
-2000042
1002
}
  0
LINE
  5
3AF
330
70
100
AcDbEntity
  8
A-COB-___-___-EXI
100
AcDbLine
 10
-72499.46686120678
 20
-9313.294599898036
 30
0.0
 11
-72499.46686120678
 21
-9129.225801036083
 31
0.0
1001
REVIT
1002
{
1070
     1
1000
22664439
1002
}
1002
{
1070
     5
1000
383807
1002
}
1002
{
1070
     2
1000
-2000051
1002
}
1002
{
1070
     3
1000
-2000042
1002
}
  0
LINE
  5
3B0
330
70
100
AcDbEntity
  8
A-COB-___-___-EXI
100
AcDbLine
 10
-72499.46686120678
 20
-9129.225801036083
 30
0.0
 11
-70075.08008634693
 21
-8041.69534207174
 31
0.0
1001
REVIT
1002
{
1070
     1
1000
22664439
1002
}
1002
{
1070
     5
1000
383807
1002
}
1002
{
1070
     2
1000
-2000051
1002
}
1002
{
1070
     3
1000
-2000042
1002
}
  0
LINE
  5
3B1
330
70
100
AcDbEntity
  8
A-COB-___-___-EXI
100
AcDbLine
 10
-70075.08008634693
 20
-8041.69534207174
 30
0.0
 11
-70075.08008634693
 21
-8194.767211257213
 31
0.0
1001
REVIT
1002
{
1070
     1
1000
22664439
1002
}
1002
{
1070
     5
1000
383807
1002
}
1002
{
1070
     2
1000
-2000051
1002
}
1002
{
1070
     3
1000
-2000042
1002
}
  0
LINE
  5
3B2
330
70
100
AcDbEntity
  8
A-COB-___-___-EXI
100
AcDbLine
 10
-70075.08008634693
 20
-8194.767211257213
 30
0.0
 11
-69937.9229514723
 21
-8194.767211257213
 31
0.0
1001
REVIT
1002
{
1070
     1
1000
22664439
1002
}
1002
{
1070
     5
1000
383807
1002
}
1002
{
1070
     2
1000
-2000051
1002
}
1002
{
1070
     3
1000
-2000042
1002
}
  0
LINE
  5
3B3
330
70
100
AcDbEntity
  8
A-COB-___-___-EXI
100
AcDbLine
 10
-69937.9229514723
 20
-8194.767211257213
 30
0.0
 11
-69937.9229514723
 21
-7980.169448849086
 31
0.0
1001
REVIT
1002
{
1070
     1
1000
22664439
1002
}
1002
{
1070
     5
1000
383807
1002
}
1002
{
1070
     2
1000
-2000051
1002
}
1002
{
1070
     3
1000
-2000042
1002
}
  0
LINE
  5
3B4
330
70
100
AcDbEntity
  8
A-COB-___-___-EXI
100
AcDbLine
 10
-69937.9229514723
 20
-7980.169448849086
 30
0.0
 11
-68143.96727738656
 21
-7175.437523303528
 31
0.0
1001
REVIT
1002
{
1070
     1
1000
22664439
1002
}
1002
{
1070
     5
1000
383807
1002
}
1002
{
1070
     2
1000
-2000051
1002
}
1002
{
1070
     3
1000
-2000042
1002
}
  0
LINE
  5
3B5
330
70
100
AcDbEntity
  8
A-COB-___-___-EXI
100
AcDbLine
 10
-68143.96727738656
 20
-7175.437523303528
 30
0.0
 11
-68143.96727738656
 21
-7295.437523303528
 31
0.0
1001
REVIT
1002
{
1070
     1
1000
22664439
1002
}
1002
{
1070
     5
1000
383807
1002
}
1002
{
1070
     2
1000
-2000051
1002
}
1002
{
1070
     3
1000
-2000042
1002
}
  0
VIEWPORT
  5
2E9
330
6C
100
AcDbEntity
 67
     1
  8
A-JAN-___-___-EXI
100
AcDbViewport
 10
167.2342961226824
 20
208.9056563804235
 30
0.0
 40
202.7302481604842
 41
94.92628514795457
 68
     2
 69
     2
 12
-63944.54831796923
 22
-7738.172305847633
 13
0.0
 23
0.0
 14
0.0
 24
0.0
 15
0.0
 25
0.0
 16
0.0
 26
0.0
 36
1.0
 17
0.0
 27
0.0
 37
0.0
 42
0.0
 43
0.0
 44
0.0
 45
9492.628514795459
 50
0.0
 51
0.0
 72
  1000
 90
    32768
  1

281
     0
 71
     1
 74
     1
110
0.0
120
0.0
130
0.0
111
1.0
121
0.0
131
0.0
112
0.0
122
1.0
132
0.0
 79
     0
146
0.0
170
     0
 61
     5
292
     1
282
     1
141
0.0
142
0.0
 63
   250
421
  3355443
  0
VIEWPORT
  5
2EB
330
6C
100
AcDbEntity
 67
     1
  8
0
100
AcDbViewport
 10
166.7946533501132
 20
193.8872272640681
 30
0.0
 40
536.1307393454328
 41
211.808209195756
 68
     1
 69
     1
 12
166.7946533501132
 22
193.8872272640681
 13
0.0
 23
0.0
 14
0.0
 24
0.0
 15
0.0
 25
0.0
 16
0.0
 26
0.0
 36
1.0
 17
0.0
 27
0.0
 37
0.0
 42
50.0
 43
0.0
 44
0.0
 45
211.808209195756
 50
0.0
 51
0.0
 72
   100
 90
    32800
  1

281
     0
 71
     1
 74
     1
110
0.0
120
0.0
130
0.0
111
1.0
121
0.0
131
0.0
112
0.0
122
1.0
132
0.0
 79
     0
146
0.0
170
     0
 61
     5
348
2F
292
     1
282
     1
141
0.0
142
0.0
 63
   250
421
  3355443
  0
INSERT
  5
2F7
330
6C
100
AcDbEntity
 67
     1
  8
A-COB-___-___-EXI
100
AcDbBlockReference
  2
A4 HORIZONTAL - A4-22667833-Não nomeada
 10
0.0
 20
0.0
 30
0.0
1001
REVIT
1002
{
1070
     1
1000
22666432
1002
}
1002
{
1070
     5
1000
22667833
1002
}
1002
{
1070
     2
1000
-2000280
1002
}
  0
ENDSEC
  0
SECTION
  2
OBJECTS
  0
DICTIONARY
  5
C
330
0
100
AcDbDictionary
281
     1
  3
ACAD_CIP_PREVIOUS_PRODUCT_INFO
350
79
  3
ACAD_COLOR
350
63
  3
ACAD_DETAILVIEWSTYLE
350
6A
  3
ACAD_GROUP
350
D
  3
ACAD_IMAGE_VARS
350
7A
  3
ACAD_LAYOUT
350
62
  3
ACAD_MATERIAL
350
10
  3
ACAD_MLEADERSTYLE
350
66
  3
ACAD_MLINESTYLE
350
5F
  3
ACAD_PLOTSETTINGS
350
61
  3
ACAD_PLOTSTYLENAME
350
E
  3
ACAD_RENDER_ACTIVE_RAPIDRT_SETTINGS
350
317
  3
ACAD_RENDER_RAPIDRT_SETTINGS
350
310
  3
ACAD_SCALELIST
350
42
  3
ACAD_SECTIONVIEWSTYLE
350
68
  3
ACAD_TABLESTYLE
350
64
  3
ACAD_VISUALSTYLE
350
29
  3
ACDB_RECOMPOSE_DATA
350
3C9
  3
AcDbVariableDictionary
350
300
  3
REVIT_DICTIONARY
350
2F8
  0
SUN
  5
2FF
330
57
100
AcDbSun
 90
        1
290
     1
 63
     7
421
 16777215
 40
0.3
291
     1
 91
  2460364
 92
 46858000
292
     0
 70
     1
 71
   128
280
     1
  0
DICTIONARY
  5
31C
330
2
100
AcDbDictionary
280
     1
281
     1
  3
ACAD_LAYERSTATES
360
31D
  0
DICTIONARY
  5
2FD
330
70
100
AcDbDictionary
280
     1
281
     1
  3
ACAD_SORTENTS
360
2FE
  0
XRECORD
  5
79
102
{ACAD_REACTORS
330
C
102
}
330
C
100
AcDbXrecord
280
     1
300
ACD
300
2022
300

  0
DICTIONARY
  5
63
102
{ACAD_REACTORS
330
C
102
}
330
C
100
AcDbDictionary
281
     1
  0
DICTIONARY
  5
6A
102
{ACAD_REACTORS
330
C
102
}
330
C
100
AcDbDictionary
281
     1
  3
Imperial24
350
6B
  3
Metric50
350
308
  0
DICTIONARY
  5
D
102
{ACAD_REACTORS
330
C
102
}
330
C
100
AcDbDictionary
281
     1
  0
RASTERVARIABLES
  5
7A
102
{ACAD_REACTORS
330
C
102
}
330
C
100
AcDbRasterVariables
 90
        0
 70
     0
 71
     1
 72
     1
  0
DICTIONARY
  5
62
102
{ACAD_REACTORS
330
C
102
}
330
C
100
AcDbDictionary
281
     1
  3
Layout1
350
6F
  3
Model
350
73
  0
DICTIONARY
  5
10
102
{ACAD_REACTORS
330
C
102
}
330
C
100
AcDbDictionary
281
     1
  3
ByBlock
350
19
  3
ByLayer
350
11
  3
Global
350
21
  0
DICTIONARY
  5
66
102
{ACAD_REACTORS
330
C
102
}
330
C
100
AcDbDictionary
281
     1
  3
Standard
350
67
  0
DICTIONARY
  5
5F
102
{ACAD_REACTORS
330
C
102
}
330
C
100
AcDbDictionary
281
     1
  3
Standard
350
60
  0
DICTIONARY
  5
61
102
{ACAD_REACTORS
330
C
102
}
330
C
100
AcDbDictionary
281
     1
  0
ACDBDICTIONARYWDFLT
  5
E
102
{ACAD_REACTORS
330
C
102
}
330
C
100
AcDbDictionary
281
     1
  3
Normal
350
F
100
AcDbDictionaryWithDefault
340
F
  0
RAPIDRTRENDERSETTINGS
  5
317
102
{ACAD_REACTORS
330
C
102
}
330
C
100
AcDbRenderSettings
 90
        2
  1
Médio
290
     1
290
     0
290
     1
290
     1
  1

  1
Aplica 5 níveis de renderização
 90
        0
100
AcDbRapidRTRenderSettings
 90
        3
 70
     0
 90
        5
 90
        1
 70
     1
 70
     2
 40
3.0
 40
3.0
290
     1
  0
DICTIONARY
  5
310
102
{ACAD_REACTORS
330
C
102
}
330
C
100
AcDbDictionary
281
     1
  3
Alto
350
313
  3
Baixo
350
311
  3
Médio
350
312
  3
Qualidade de curta duração
350
314
  3
Qualidade de longa duração
350
316
  3
Qualidade de média duração
350
315
  0
DICTIONARY
  5
42
102
{ACAD_REACTORS
330
C
102
}
330
C
100
AcDbDictionary
281
     1
  3
A0
350
43
  3
A1
350
44
  3
A2
350
45
  3
A3
350
46
  3
A4
350
47
  3
A5
350
48
  3
A6
350
49
  3
A7
350
4A
  3
A8
350
4B
  3
A9
350
4C
  3
B0
350
4D
  3
B1
350
4E
  3
B2
350
4F
  3
B3
350
50
  3
B4
350
51
  3
B5
350
52
  3
B6
350
53
  0
DICTIONARY
  5
68
102
{ACAD_REACTORS
330
C
102
}
330
C
100
AcDbDictionary
281
     1
  3
Imperial24
350
69
  3
Metric50
350
307
  0
DICTIONARY
  5
64
102
{ACAD_REACTORS
330
C
102
}
330
C
100
AcDbDictionary
281
     1
  3
Standard
350
65
  0
DICTIONARY
  5
29
102
{ACAD_REACTORS
330
C
102
}
330
C
100
AcDbDictionary
281
     1
  3
2dWireframe
350
2F
  3
Basic
350
2E
  3
Brighten
350
35
  3
ColorChange
350
39
  3
Conceptual
350
32
  3
Dim
350
34
  3
EdgeColorOff
350
41
  3
Facepattern
350
38
  3
Flat
350
2A
  3
FlatWithEdges
350
2B
  3
Gouraud
350
2C
  3
GouraudWithEdges
350
2D
  3
Hidden
350
31
  3
JitterOff
350
3F
  3
Linepattern
350
37
  3
OverhangOff
350
40
  3
Realistic
350
33
  3
Shaded
350
3E
  3
Shaded with edges
350
3D
  3
Shades of Gray
350
3A
  3
Sketchy
350
3B
  3
Thicken
350
36
  3
Wireframe
350
30
  3
X-Ray
350
3C
  0
XRECORD
  5
3C9
102
{ACAD_REACTORS
330
C
102
}
330
C
100
AcDbXrecord
280
     1
 90
        1
330
65
  0
DICTIONARY
  5
300
102
{ACAD_REACTORS
330
C
102
}
330
C
100
AcDbDictionary
281
     1
  3
CANNOSCALE
350
305
  3
CMLEADERSTYLE
350
302
  3
CTABLESTYLE
350
301
  3
CVIEWDETAILSTYLE
350
303
  3
CVIEWSECTIONSTYLE
350
304
  0
DICTIONARY
  5
2F8
102
{ACAD_REACTORS
330
C
102
}
330
C
100
AcDbDictionary
281
     1
  3
DRAWING_TOOL
350
2FC
  3
REVIT_CATEGORY_MAPPING
350
2FA
  3
REVIT_SUB_CATEGORY_MAPPING
350
2FB
  3
REVIT_TYPE_MAPPING
350
2F9
  0
DICTIONARY
  5
31D
102
{ACAD_REACTORS
330
31C
102
}
330
31C
100
AcDbDictionary
281
     1
  0
SORTENTSTABLE
  5
2FE
102
{ACAD_REACTORS
330
2FD
102
}
330
2FD
100
AcDbSortentsTable
330
70
331
32C
  5
335
331
32D
  5
336
331
32E
  5
337
331
32F
  5
338
331
330
  5
339
331
331
  5
33A
331
332
  5
33B
331
333
  5
33C
331
334
  5
33D
331
335
  5
33E
331
337
  5
354
331
338
  5
355
331
339
  5
356
331
33A
  5
357
331
33B
  5
358
331
33C
  5
359
331
33D
  5
35A
331
33E
  5
35B
331
33F
  5
35C
331
340
  5
35D
331
341
  5
35E
331
342
  5
35F
331
343
  5
360
331
344
  5
361
331
345
  5
362
331
346
  5
363
331
347
  5
364
331
348
  5
365
331
349
  5
366
331
34A
  5
367
331
34B
  5
368
331
34C
  5
369
331
34D
  5
36A
331
34E
  5
36B
331
34F
  5
36C
331
350
  5
36D
331
351
  5
36E
331
352
  5
36F
331
353
  5
370
331
354
  5
371
331
355
  5
372
331
356
  5
373
331
357
  5
374
331
358
  5
375
331
359
  5
376
331
35A
  5
377
331
35B
  5
399
331
35C
  5
39A
331
35D
  5
39B
331
35E
  5
39C
331
35F
  5
39D
331
360
  5
39E
331
361
  5
39F
331
362
  5
3A0
331
363
  5
3A1
331
364
  5
3A2
331
365
  5
3A3
331
366
  5
3A4
331
367
  5
3A5
331
368
  5
3A6
331
369
  5
3A7
331
36A
  5
3A8
331
36B
  5
3A9
331
36C
  5
3AA
331
36D
  5
3AB
331
36E
  5
3AC
331
36F
  5
3AD
331
370
  5
3AE
331
371
  5
3AF
331
372
  5
3B0
331
373
  5
3B1
331
374
  5
3B2
331
375
  5
3B3
331
376
  5
3B4
331
377
  5
3B5
331
399
  5
32C
331
39A
  5
32D
331
39B
  5
32E
331
39C
  5
32F
331
39D
  5
330
331
39E
  5
331
331
39F
  5
332
331
3A0
  5
333
331
3A1
  5
334
331
3A2
  5
340
331
3A3
  5
341
331
3A4
  5
342
331
3A5
  5
343
331
3A6
  5
344
331
3A7
  5
345
331
3A8
  5
346
331
3A9
  5
347
331
3AA
  5
348
331
3AB
  5
349
331
3AC
  5
34A
331
3AD
  5
34B
331
3AE
  5
34C
331
3AF
  5
34D
331
3B0
  5
34E
331
3B1
  5
34F
331
3B2
  5
350
331
3B3
  5
351
331
3B4
  5
352
331
3B5
  5
353
  0
ACDBDETAILVIEWSTYLE
  5
6B
102
{ACAD_REACTORS
330
6A
102
}
330
6A
100
AcDbModelDocViewStyle
 70
     0
  3
Imperial24
290
     1
300
Imperial24
 90
        0
100
AcDbDetailViewStyle
 70
     0
 71
     0
 90
        3
 71
     1
340
55
 62
   256
 40
0.24
340
0
 62
   256
 40
0.24
300

 40
0.36
280
     3
 71
     2
340
5D
 90
       25
 62
   256
 71
     3
340
55
 62
   256
 40
0.24
 90
        1
 40
0.75
 90
        1
300
%<\AcVar ViewType \f "%tc1">% %<\AcVar ViewDetailId>%\PSCALE %<\AcVar ViewScale \f "%sn">%
 71
     4
340
5D
 90
       25
 62
   256
340
5D
 90
       25
 62
   256
280
     0
  0
ACDBDETAILVIEWSTYLE
  5
308
102
{ACAD_REACTORS
330
6A
102
}
330
6A
100
AcDbModelDocViewStyle
 70
     0
  3
Metric50
290
     1
300
Metric50
 90
        0
100
AcDbDetailViewStyle
 70
     0
 71
     0
 90
        3
 71
     1
340
55
 62
   256
 40
5.0
340
0
 62
   256
 40
5.0
300

 40
0.0
280
     1
 71
     2
340
5D
 90
       25
 62
   256
 71
     3
340
55
 62
   256
 40
5.0
 90
        0
 40
15.0
 90
        1
300
%<\AcVar ViewDetailId>% (%<\AcVar ViewScale \f "%sn">%)
 71
     4
340
5D
 90
       25
 62
   256
340
5D
 90
       25
 62
   256
280
     0
  0
LAYOUT
  5
6F
102
{ACAD_REACTORS
330
62
102
}
330
62
100
AcDbPlotSettings
  1

  2
PDF24
  4
A4
  6

 40
0.0
 41
0.0
 42
0.1113433837890625
 43
0.0
 44
210.0
 45
297.0
 46
0.0
 47
0.0
 48
0.0
 49
0.0
140
0.0
141
0.0
142
1.0
143
1.000647896891756
 70
   688
 72
     1
 73
     1
 74
     1
  7

 75
     0
147
0.9993525226068337
 76
     0
 77
     2
 78
   300
148
-20.76884200533789
149
-102.9849099062627
100
AcDbLayout
  1
Layout1
 70
     0
 71
     1
 10
20.76884200533789
 20
102.9849099062627
 11
317.9612673821897
 21
313.1209682535316
 12
0.0
 22
0.0
 32
0.0
 14
20.78244708689817
 24
102.9945296609012
 34
-0.0000000349181948
 15
317.8116197884872
 25
313.0151568236408
 35
0.0000000814935746
146
0.0
 13
0.0
 23
0.0
 33
0.0
 16
1.0
 26
0.0
 36
0.0
 17
0.0
 27
1.0
 37
0.0
 76
     0
330
6C
331
2EB
1001
ACAD_PSEXT
1000
PDF24
1000
PDF24
1000
\\.\pipe\PDFPrint
1000
PDF24 Printer
1070
     0
  0
LAYOUT
  5
73
102
{ACAD_REACTORS
330
62
102
}
330
62
100
AcDbPlotSettings
  1

  2

  4

  6

 40
0.0
 41
0.0
 42
0.0
 43
0.0
 44
0.0
 45
0.0
 46
0.0
 47
0.0
 48
0.0
 49
0.0
140
0.0
141
0.0
142
1.0
143
1.0
 70
  1712
 72
     0
 73
     0
 74
     0
  7

 75
     0
147
1.0
 76
     0
 77
     2
 78
   300
148
0.0
149
0.0
100
AcDbLayout
  1
Model
 70
     1
 71
     0
 10
0.0
 20
0.0
 11
12.0
 21
9.0
 12
0.0
 22
0.0
 32
0.0
 14
0.0
 24
0.0
 34
0.0
 15
0.0
 25
0.0
 35
0.0
146
0.0
 13
0.0
 23
0.0
 33
0.0
 16
1.0
 26
0.0
 36
0.0
 17
0.0
 27
1.0
 37
0.0
 76
     0
330
70
331
57
  0
MATERIAL
  5
19
102
{ACAD_XDICTIONARY
360
1A
102
}
102
{ACAD_REACTORS
330
10
102
}
330
10
100
AcDbMaterial
  1
ByBlock
 72
     0
 43
0.0208333333333333
 43
0.0
 43
0.0
 43
0.0
 43
0.0
 43
0.0208333333333333
 43
0.0
 43
0.0
 43
0.0
 43
0.0
 43
1.0
 43
0.0
 43
0.0
 43
0.0
 43
0.0
 43
1.0
 77
     0
 47
0.0208333333333333
 47
0.0
 47
0.0
 47
0.0
 47
0.0
 47
0.0208333333333333
 47
0.0
 47
0.0
 47
0.0
 47
0.0
 47
1.0
 47
0.0
 47
0.0
 47
0.0
 47
0.0
 47
1.0
171
     0
 49
0.0208333333333333
 49
0.0
 49
0.0
 49
0.0
 49
0.0
 49
0.0208333333333333
 49
0.0
 49
0.0
 49
0.0
 49
0.0
 49
1.0
 49
0.0
 49
0.0
 49
0.0
 49
0.0
 49
1.0
175
     0
142
0.0208333333333333
142
0.0
142
0.0
142
0.0
142
0.0
142
0.0208333333333333
142
0.0
142
0.0
142
0.0
142
0.0
142
1.0
142
0.0
142
0.0
142
0.0
142
0.0
142
1.0
179
     0
144
0.0208333333333333
144
0.0
144
0.0
144
0.0
144
0.0
144
0.0208333333333333
144
0.0
144
0.0
144
0.0
144
0.0
144
1.0
144
0.0
144
0.0
144
0.0
144
0.0
144
1.0
147
0.0208333333333333
147
0.0
147
0.0
147
0.0
147
0.0
147
0.0208333333333333
147
0.0
147
0.0
147
0.0
147
0.0
147
1.0
147
0.0
147
0.0
147
0.0
147
0.0
147
1.0
  0
MATERIAL
  5
11
102
{ACAD_XDICTIONARY
360
12
102
}
102
{ACAD_REACTORS
330
10
102
}
330
10
100
AcDbMaterial
  1
ByLayer
 72
     0
 43
0.0208333333333333
 43
0.0
 43
0.0
 43
0.0
 43
0.0
 43
0.0208333333333333
 43
0.0
 43
0.0
 43
0.0
 43
0.0
 43
1.0
 43
0.0
 43
0.0
 43
0.0
 43
0.0
 43
1.0
 77
     0
 47
0.0208333333333333
 47
0.0
 47
0.0
 47
0.0
 47
0.0
 47
0.0208333333333333
 47
0.0
 47
0.0
 47
0.0
 47
0.0
 47
1.0
 47
0.0
 47
0.0
 47
0.0
 47
0.0
 47
1.0
171
     0
 49
0.0208333333333333
 49
0.0
 49
0.0
 49
0.0
 49
0.0
 49
0.0208333333333333
 49
0.0
 49
0.0
 49
0.0
 49
0.0
 49
1.0
 49
0.0
 49
0.0
 49
0.0
 49
0.0
 49
1.0
175
     0
142
0.0208333333333333
142
0.0
142
0.0
142
0.0
142
0.0
142
0.0208333333333333
142
0.0
142
0.0
142
0.0
142
0.0
142
1.0
142
0.0
142
0.0
142
0.0
142
0.0
142
1.0
179
     0
144
0.0208333333333333
144
0.0
144
0.0
144
0.0
144
0.0
144
0.0208333333333333
144
0.0
144
0.0
144
0.0
144
0.0
144
1.0
144
0.0
144
0.0
144
0.0
144
0.0
144
1.0
147
0.0208333333333333
147
0.0
147
0.0
147
0.0
147
0.0
147
0.0208333333333333
147
0.0
147
0.0
147
0.0
147
0.0
147
1.0
147
0.0
147
0.0
147
0.0
147
0.0
147
1.0
  0
MATERIAL
  5
21
102
{ACAD_XDICTIONARY
360
22
102
}
102
{ACAD_REACTORS
330
10
102
}
330
10
100
AcDbMaterial
  1
Global
 72
     0
 43
0.0208333333333333
 43
0.0
 43
0.0
 43
0.0
 43
0.0
 43
0.0208333333333333
 43
0.0
 43
0.0
 43
0.0
 43
0.0
 43
1.0
 43
0.0
 43
0.0
 43
0.0
 43
0.0
 43
1.0
 77
     0
 47
0.0208333333333333
 47
0.0
 47
0.0
 47
0.0
 47
0.0
 47
0.0208333333333333
 47
0.0
 47
0.0
 47
0.0
 47
0.0
 47
1.0
 47
0.0
 47
0.0
 47
0.0
 47
0.0
 47
1.0
171
     0
 49
0.0208333333333333
 49
0.0
 49
0.0
 49
0.0
 49
0.0
 49
0.0208333333333333
 49
0.0
 49
0.0
 49
0.0
 49
0.0
 49
1.0
 49
0.0
 49
0.0
 49
0.0
 49
0.0
 49
1.0
175
     0
142
0.0208333333333333
142
0.0
142
0.0
142
0.0
142
0.0
142
0.0208333333333333
142
0.0
142
0.0
142
0.0
142
0.0
142
1.0
142
0.0
142
0.0
142
0.0
142
0.0
142
1.0
179
     0
144
0.0208333333333333
144
0.0
144
0.0
144
0.0
144
0.0
144
0.0208333333333333
144
0.0
144
0.0
144
0.0
144
0.0
144
1.0
144
0.0
144
0.0
144
0.0
144
0.0
144
1.0
147
0.0208333333333333
147
0.0
147
0.0
147
0.0
147
0.0
147
0.0208333333333333
147
0.0
147
0.0
147
0.0
147
0.0
147
1.0
147
0.0
147
0.0
147
0.0
147
0.0
147
1.0
  0
MLEADERSTYLE
  5
67
102
{ACAD_REACTORS
330
66
102
}
330
66
100
AcDbMLeaderStyle
179
     2
170
     2
171
     1
172
     0
 90
        2
 40
0.0
 41
0.0
173
     1
 91
-1056964608
340
5B
 92
       -2
290
     1
 42
0.09
291
     1
 43
0.36
  3
Standard
 44
0.18
300

342
55
174
     1
178
     6
175
     1
176
     0
 93
-1056964608
 45
0.18
292
     0
297
     0
 46
0.18
 94
-1056964608
 47
1.0
 49
1.0
140
1.0
293
     1
141
0.0
294
     1
177
     0
142
1.0
295
     1
296
     0
143
0.125
271
     0
272
     9
273
     9
298
     1
  0
MLINESTYLE
  5
60
102
{ACAD_REACTORS
330
5F
102
}
330
5F
100
AcDbMlineStyle
  2
STANDARD
 70
     0
  3

 62
   256
 51
90.0
 52
90.0
 71
     2
 49
0.5
 62
   256
  6
BYLAYER
 49
-0.5
 62
   256
  6
BYLAYER
  0
ACDBPLACEHOLDER
  5
F
102
{ACAD_REACTORS
330
E
102
}
330
E
  0
RAPIDRTRENDERSETTINGS
  5
313
102
{ACAD_REACTORS
330
310
102
}
330
310
100
AcDbRenderSettings
 90
        2
  1
Alto
290
     1
290
     0
290
     1
290
     1
  1

  1
Aplica 10 níveis de renderização
 90
        2
100
AcDbRapidRTRenderSettings
 90
        3
 70
     0
 90
       10
 90
        1
 70
     2
 70
     2
 40
3.0
 40
3.0
290
     1
  0
RAPIDRTRENDERSETTINGS
  5
311
102
{ACAD_REACTORS
330
310
102
}
330
310
100
AcDbRenderSettings
 90
        2
  1
Baixo
290
     1
290
     0
290
     1
290
     1
  1

  1
Aplica 1 nível de renderização
 90
        0
100
AcDbRapidRTRenderSettings
 90
        3
 70
     0
 90
        1
 90
        1
 70
     0
 70
     2
 40
3.0
 40
3.0
290
     1
  0
RAPIDRTRENDERSETTINGS
  5
312
102
{ACAD_REACTORS
330
310
102
}
330
310
100
AcDbRenderSettings
 90
        2
  1
Médio
290
     1
290
     0
290
     1
290
     1
  1

  1
Aplica 5 níveis de renderização
 90
        1
100
AcDbRapidRTRenderSettings
 90
        3
 70
     0
 90
        5
 90
        1
 70
     1
 70
     2
 40
3.0
 40
3.0
290
     1
  0
RAPIDRTRENDERSETTINGS
  5
314
102
{ACAD_REACTORS
330
310
102
}
330
310
100
AcDbRenderSettings
 90
        2
  1
Qualidade de curta duração
290
     1
290
     0
290
     1
290
     1
  1

  1
Renderiza por 10 minutos
 90
        3
100
AcDbRapidRTRenderSettings
 90
        3
 70
     1
 90
        1
 90
       10
 70
     1
 70
     2
 40
3.0
 40
3.0
290
     1
  0
RAPIDRTRENDERSETTINGS
  5
316
102
{ACAD_REACTORS
330
310
102
}
330
310
100
AcDbRenderSettings
 90
        2
  1
Qualidade de longa duração
290
     1
290
     0
290
     1
290
     1
  1

  1
Renderiza por 12 horas
 90
        5
100
AcDbRapidRTRenderSettings
 90
        3
 70
     1
 90
        1
 90
      720
 70
     2
 70
     2
 40
3.0
 40
3.0
290
     1
  0
RAPIDRTRENDERSETTINGS
  5
315
102
{ACAD_REACTORS
330
310
102
}
330
310
100
AcDbRenderSettings
 90
        2
  1
Qualidade de média duração
290
     1
290
     0
290
     1
290
     1
  1

  1
Renderiza por 60 minutos
 90
        4
100
AcDbRapidRTRenderSettings
 90
        3
 70
     1
 90
        1
 90
       60
 70
     2
 70
     2
 40
3.0
 40
3.0
290
     1
  0
SCALE
  5
43
102
{ACAD_REACTORS
330
42
102
}
330
42
100
AcDbScale
 70
     0
300
1:1
140
1.0
141
1.0
290
     1
  0
SCALE
  5
44
102
{ACAD_REACTORS
330
42
102
}
330
42
100
AcDbScale
 70
     0
300
1/128" = 1'-0"
140
0.0078125
141
12.0
290
     0
  0
SCALE
  5
45
102
{ACAD_REACTORS
330
42
102
}
330
42
100
AcDbScale
 70
     0
300
1/64" = 1'-0"
140
0.015625
141
12.0
290
     0
  0
SCALE
  5
46
102
{ACAD_REACTORS
330
42
102
}
330
42
100
AcDbScale
 70
     0
300
1/32" = 1'-0"
140
0.03125
141
12.0
290
     0
  0
SCALE
  5
47
102
{ACAD_REACTORS
330
42
102
}
330
42
100
AcDbScale
 70
     0
300
1/16" = 1'-0"
140
0.0625
141
12.0
290
     0
  0
SCALE
  5
48
102
{ACAD_REACTORS
330
42
102
}
330
42
100
AcDbScale
 70
     0
300
3/32" = 1'-0"
140
0.09375
141
12.0
290
     0
  0
SCALE
  5
49
102
{ACAD_REACTORS
330
42
102
}
330
42
100
AcDbScale
 70
     0
300
1/8" = 1'-0"
140
0.125
141
12.0
290
     0
  0
SCALE
  5
4A
102
{ACAD_REACTORS
330
42
102
}
330
42
100
AcDbScale
 70
     0
300
3/16" = 1'-0"
140
0.1875
141
12.0
290
     0
  0
SCALE
  5
4B
102
{ACAD_REACTORS
330
42
102
}
330
42
100
AcDbScale
 70
     0
300
1/4" = 1'-0"
140
0.25
141
12.0
290
     0
  0
SCALE
  5
4C
102
{ACAD_REACTORS
330
42
102
}
330
42
100
AcDbScale
 70
     0
300
3/8" = 1'-0"
140
0.375
141
12.0
290
     0
  0
SCALE
  5
4D
102
{ACAD_REACTORS
330
42
102
}
330
42
100
AcDbScale
 70
     0
300
1/2" = 1'-0"
140
0.5
141
12.0
290
     0
  0
SCALE
  5
4E
102
{ACAD_REACTORS
330
42
102
}
330
42
100
AcDbScale
 70
     0
300
3/4" = 1'-0"
140
0.75
141
12.0
290
     0
  0
SCALE
  5
4F
102
{ACAD_REACTORS
330
42
102
}
330
42
100
AcDbScale
 70
     0
300
1" = 1'-0"
140
1.0
141
12.0
290
     0
  0
SCALE
  5
50
102
{ACAD_REACTORS
330
42
102
}
330
42
100
AcDbScale
 70
     0
300
1-1/2" = 1'-0"
140
1.5
141
12.0
290
     0
  0
SCALE
  5
51
102
{ACAD_REACTORS
330
42
102
}
330
42
100
AcDbScale
 70
     0
300
3" = 1'-0"
140
3.0
141
12.0
290
     0
  0
SCALE
  5
52
102
{ACAD_REACTORS
330
42
102
}
330
42
100
AcDbScale
 70
     0
300
6" = 1'-0"
140
6.0
141
12.0
290
     0
  0
SCALE
  5
53
102
{ACAD_REACTORS
330
42
102
}
330
42
100
AcDbScale
 70
     0
300
1'-0" = 1'-0"
140
12.0
141
12.0
290
     0
  0
ACDBSECTIONVIEWSTYLE
  5
69
102
{ACAD_REACTORS
330
68
102
}
330
68
100
AcDbModelDocViewStyle
 70
     0
  3
Imperial24
290
     1
300
Imperial24
 90
        0
100
AcDbSectionViewStyle
 70
     0
 71
     0
 90
       78
 71
     1
340
55
 62
   256
 40
0.24
340
0
340
0
 62
   256
 40
0.24
300
I, O, Q, S, X, Z
 40
0.48
 90
        3
 40
0.18
 90
        1
 71
     2
340
5D
 90
       25
 62
   256
340
5D
 90
       50
 62
   256
 40
0.24
 40
0.0
 40
0.24
 71
     3
340
55
 62
   256
 40
0.24
 90
        1
 40
0.75
 90
        1
300
%<\AcVar ViewType \f "%tc1">% %<\AcVar ViewSectionStartId>%-%<\AcVar ViewSectionEndId>%\PSCALE %<\AcVar ViewScale \f "%sn">%
 71
     4
 62
   256
 62
   257
300
ANSI31
 40
1.0
 90
        0
290
     0
290
     0
 90
        6
 40
0.0
 40
1.570796326794896
 40
0.2617993877991494
 40
1.308996938995747
 40
-0.2617993877991494
 40
1.832595714594046
  0
ACDBSECTIONVIEWSTYLE
  5
307
102
{ACAD_REACTORS
330
68
102
}
330
68
100
AcDbModelDocViewStyle
 70
     0
  3
Metric50
290
     1
300
Metric50
 90
        0
100
AcDbSectionViewStyle
 70
     0
 71
     0
 90
      102
 71
     1
340
55
 62
   256
 40
5.0
340
0
340
0
 62
   256
 40
5.0
300
I, O, Q, S, X, Z
 40
10.0
 90
        0
 40
2.5
 90
        0
 71
     2
340
5D
 90
       25
 62
   256
340
5D
 90
       50
 62
   256
 40
5.0
 40
2.5
 40
5.0
 71
     3
340
55
 62
   256
 40
5.0
 90
        0
 40
15.0
 90
        1
300
%<\AcVar ViewSectionStartId>%-%<\AcVar ViewSectionEndId>% (%<\AcVar ViewScale \f "%sn">%)
 71
     4
 62
   256
 62
   257
300
ANSI31
 40
1.0
 90
        0
290
     0
290
     0
 90
        6
 40
0.0
 40
1.570796326794896
 40
0.2617993877991494
 40
1.308996938995747
 40
-0.2617993877991494
 40
1.832595714594046
  0
TABLESTYLE
  5
65
102
{ACAD_XDICTIONARY
360
3C7
102
}
102
{ACAD_REACTORS
330
64
102
}
330
64
100
AcDbTableStyle
280
     0
  3
Standard
 70
     0
 71
     0
 40
0.06
 41
0.06
280
     0
281
     0
  7
Standard
140
0.18
170
     2
 62
     0
 63
     7
283
     0
 90
      512
 91
        0
  1

274
    -2
284
     1
 64
     0
275
    -2
285
     1
 65
     0
276
    -2
286
     1
 66
     0
277
    -2
287
     1
 67
     0
278
    -2
288
     1
 68
     0
279
    -2
289
     1
 69
     0
  7
Standard
140
0.25
170
     5
 62
     0
 63
     7
283
     0
 90
      512
 91
        0
  1

274
    -2
284
     1
 64
     0
275
    -2
285
     1
 65
     0
276
    -2
286
     1
 66
     0
277
    -2
287
     1
 67
     0
278
    -2
288
     1
 68
     0
279
    -2
289
     1
 69
     0
  7
Standard
140
0.18
170
     5
 62
     0
 63
     7
283
     0
 90
      512
 91
        0
  1

274
    -2
284
     1
 64
     0
275
    -2
285
     1
 65
     0
276
    -2
286
     1
 66
     0
277
    -2
287
     1
 67
     0
278
    -2
288
     1
 68
     0
279
    -2
289
     1
 69
     0
  0
VISUALSTYLE
  5
2F
102
{ACAD_REACTORS
330
29
102
}
330
29
100
AcDbVisualStyle
  2
2dWireframe
 70
     4
177
     3
291
     0
 70
    58
 90
        0
176
     1
 90
        2
176
     1
 90
        0
176
     1
 90
        0
176
     1
 40
0.6
176
     1
 40
30.0
176
     1
 62
     7
420
 16777215
176
     1
 90
        1
176
     1
 90
        4
176
     1
 62
     7
176
     1
 62
   257
176
     1
 90
        1
176
     1
 90
        1
176
     1
 40
1.0
176
     1
 90
        0
176
     1
 62
   257
176
     1
 40
1.0
176
     1
 90
        1
176
     1
 90
        6
176
     1
 90
        2
176
     1
 62
     7
176
     1
 90
        5
176
     1
 90
        0
176
     1
 90
        0
176
     1
290
     0
176
     1
 90
        1
176
     1
 40
0.0
176
     1
 90
        0
176
     1
290
     1
176
     1
290
     1
176
     1
290
     0
176
     1
290
     0
176
     1
290
     0
176
     1
290
     0
176
     1
290
     0
176
     1
290
     0
176
     1
290
     0
176
     1
 90
       50
176
     1
 40
0.0
176
     1
 40
1.0
176
     1
 90
        0
176
     1
 62
    18
420
        0
176
     1
 90
       50
176
     1
 90
        3
176
     1
 62
     5
420
      255
176
     1
290
     0
176
     1
 90
       50
176
     1
 90
       50
176
     1
 90
       50
176
     1
290
     0
176
     1
 90
       50
176
     1
 62
   256
176
     0
 40
1.0
176
     0
 90
        2
176
     1
  1
strokes_ogs.tif
176
     1
290
     0
176
     1
 40
1.0
176
     1
 40
1.0
176
     1
  0
VISUALSTYLE
  5
2E
102
{ACAD_REACTORS
330
29
102
}
330
29
100
AcDbVisualStyle
  2
Basic
 70
     7
177
     3
291
     1
 70
    58
 90
        1
176
     1
 90
        0
176
     1
 90
        1
176
     1
 90
        0
176
     1
 40
0.6
176
     1
 40
30.0
176
     1
 62
     7
420
 16777215
176
     1
 90
        0
176
     1
 90
        4
176
     1
 62
     7
176
     1
 62
   257
176
     1
 90
        1
176
     1
 90
        1
176
     1
 40
1.0
176
     1
 90
        8
176
     1
 62
     7
176
     1
 40
1.0
176
     1
 90
        1
176
     1
 90
        6
176
     1
 90
        2
176
     1
 62
     7
176
     1
 90
        5
176
     1
 90
        0
176
     1
 90
        0
176
     1
290
     0
176
     1
 90
        1
176
     1
 40
0.0
176
     1
 90
        0
176
     1
290
     0
176
     1
290
     1
176
     1
290
     1
176
     1
290
     0
176
     1
290
     0
176
     1
290
     0
176
     1
290
     0
176
     1
290
     0
176
     1
290
     0
176
     1
 90
       50
176
     1
 40
0.0
176
     1
 40
1.0
176
     1
 90
        0
176
     1
 62
    18
420
        0
176
     1
 90
       50
176
     1
 90
        3
176
     1
 62
     5
420
      255
176
     1
290
     0
176
     1
 90
       50
176
     1
 90
       50
176
     1
 90
       50
176
     1
290
     0
176
     1
 90
       50
176
     1
 62
   256
176
     0
 40
1.0
176
     0
 90
        2
176
     1
  1
strokes_ogs.tif
176
     1
290
     0
176
     1
 40
1.0
176
     1
 40
1.0
176
     1
  0
VISUALSTYLE
  5
35
102
{ACAD_REACTORS
330
29
102
}
330
29
100
AcDbVisualStyle
  2
Brighten
 70
    12
177
     3
291
     1
 70
    58
 90
        2
176
     1
 90
        2
176
     1
 90
        0
176
     1
 90
        0
176
     1
 40
0.6
176
     1
 40
30.0
176
     1
 62
     7
420
 16777215
176
     1
 90
        1
176
     1
 90
        4
176
     1
 62
     7
176
     1
 62
   257
176
     1
 90
        1
176
     1
 90
        1
176
     1
 40
1.0
176
     1
 90
        8
176
     1
 62
     7
176
     1
 40
1.0
176
     1
 90
        1
176
     1
 90
        6
176
     1
 90
        2
176
     1
 62
     7
176
     1
 90
        5
176
     1
 90
        0
176
     1
 90
        0
176
     1
290
     0
176
     1
 90
        1
176
     1
 40
50.0
176
     1
 90
        0
176
     1
290
     0
176
     1
290
     1
176
     1
290
     1
176
     1
290
     0
176
     1
290
     0
176
     1
290
     0
176
     1
290
     0
176
     1
290
     0
176
     1
290
     0
176
     1
 90
       50
176
     1
 40
0.0
176
     1
 40
1.0
176
     1
 90
        0
176
     1
 62
    18
420
        0
176
     1
 90
       50
176
     1
 90
        3
176
     1
 62
     5
420
      255
176
     1
290
     0
176
     1
 90
       50
176
     1
 90
       50
176
     1
 90
       50
176
     1
290
     0
176
     1
 90
       50
176
     1
 62
   256
176
     0
 40
1.0
176
     0
 90
        2
176
     1
  1
strokes_ogs.tif
176
     1
290
     0
176
     1
 40
1.0
176
     1
 40
1.0
176
     1
  0
VISUALSTYLE
  5
39
102
{ACAD_REACTORS
330
29
102
}
330
29
100
AcDbVisualStyle
  2
ColorChange
 70
    16
177
     3
291
     1
 70
    58
 90
        2
176
     1
 90
        2
176
     1
 90
        3
176
     1
 90
        0
176
     1
 40
0.6
176
     1
 40
30.0
176
     1
 62
     8
420
  8421504
176
     1
 90
        1
176
     1
 90
        4
176
     1
 62
     7
176
     1
 62
   257
176
     1
 90
        1
176
     1
 90
        1
176
     1
 40
1.0
176
     1
 90
        8
176
     1
 62
     8
420
  8421504
176
     1
 40
1.0
176
     1
 90
        1
176
     1
 90
        6
176
     1
 90
        2
176
     1
 62
     7
176
     1
 90
        5
176
     1
 90
        0
176
     1
 90
        0
176
     1
290
     0
176
     1
 90
        1
176
     1
 40
0.0
176
     1
 90
        0
176
     1
290
     0
176
     1
290
     1
176
     1
290
     1
176
     1
290
     0
176
     1
290
     0
176
     1
290
     0
176
     1
290
     0
176
     1
290
     0
176
     1
290
     0
176
     1
 90
       50
176
     1
 40
0.0
176
     1
 40
1.0
176
     1
 90
        0
176
     1
 62
    18
420
        0
176
     1
 90
       50
176
     1
 90
        3
176
     1
 62
     5
420
      255
176
     1
290
     0
176
     1
 90
       50
176
     1
 90
       50
176
     1
 90
       50
176
     1
290
     0
176
     1
 90
       50
176
     1
 62
   256
176
     0
 40
1.0
176
     0
 90
        2
176
     1
  1
strokes_ogs.tif
176
     1
290
     0
176
     1
 40
1.0
176
     1
 40
1.0
176
     1
  0
VISUALSTYLE
  5
32
102
{ACAD_REACTORS
330
29
102
}
330
29
100
AcDbVisualStyle
  2
Conceptual
 70
     9
177
     3
291
     0
 70
    58
 90
        3
176
     1
 90
        2
176
     1
 90
        0
176
     1
 90
        0
176
     1
 40
0.6
176
     1
 40
30.0
176
     1
 62
     7
420
 16777215
176
     1
 90
        2
176
     1
 90
        2
176
     1
 62
     7
176
     1
 62
   257
176
     1
 90
        1
176
     1
 90
        1
176
     1
 40
179.0
176
     1
 90
        8
176
     1
 62
     7
176
     1
 40
1.0
176
     1
 90
        1
176
     1
 90
        6
176
     1
 90
        2
176
     1
 62
     7
176
     1
 90
        3
176
     1
 90
        0
176
     1
 90
        0
176
     1
290
     0
176
     1
 90
        1
176
     1
 40
0.0
176
     1
 90
        0
176
     1
290
     0
176
     1
290
     1
176
     1
290
     1
176
     1
290
     0
176
     1
290
     0
176
     1
290
     0
176
     1
290
     0
176
     1
290
     0
176
     1
290
     0
176
     1
 90
       50
176
     1
 40
0.0
176
     1
 40
1.0
176
     1
 90
        0
176
     1
 62
    18
420
        0
176
     1
 90
       50
176
     1
 90
        3
176
     1
 62
     5
420
      255
176
     1
290
     0
176
     1
 90
       50
176
     1
 90
       50
176
     1
 90
       50
176
     1
290
     0
176
     1
 90
       50
176
     1
 62
   256
176
     0
 40
1.0
176
     0
 90
        2
176
     1
  1
strokes_ogs.tif
176
     1
290
     0
176
     1
 40
1.0
176
     1
 40
1.0
176
     1
  0
VISUALSTYLE
  5
34
102
{ACAD_REACTORS
330
29
102
}
330
29
100
AcDbVisualStyle
  2
Dim
 70
    11
177
     3
291
     1
 70
    58
 90
        2
176
     1
 90
        2
176
     1
 90
        0
176
     1
 90
        0
176
     1
 40
0.6
176
     1
 40
30.0
176
     1
 62
     7
420
 16777215
176
     1
 90
        1
176
     1
 90
        4
176
     1
 62
     7
176
     1
 62
   257
176
     1
 90
        1
176
     1
 90
        1
176
     1
 40
1.0
176
     1
 90
        8
176
     1
 62
     7
176
     1
 40
1.0
176
     1
 90
        1
176
     1
 90
        6
176
     1
 90
        2
176
     1
 62
     7
176
     1
 90
        5
176
     1
 90
        0
176
     1
 90
        0
176
     1
290
     0
176
     1
 90
        1
176
     1
 40
-50.0
176
     1
 90
        0
176
     1
290
     0
176
     1
290
     1
176
     1
290
     1
176
     1
290
     0
176
     1
290
     0
176
     1
290
     0
176
     1
290
     0
176
     1
290
     0
176
     1
290
     0
176
     1
 90
       50
176
     1
 40
0.0
176
     1
 40
1.0
176
     1
 90
        0
176
     1
 62
    18
420
        0
176
     1
 90
       50
176
     1
 90
        3
176
     1
 62
     5
420
      255
176
     1
290
     0
176
     1
 90
       50
176
     1
 90
       50
176
     1
 90
       50
176
     1
290
     0
176
     1
 90
       50
176
     1
 62
   256
176
     0
 40
1.0
176
     0
 90
        2
176
     1
  1
strokes_ogs.tif
176
     1
290
     0
176
     1
 40
1.0
176
     1
 40
1.0
176
     1
  0
VISUALSTYLE
  5
41
102
{ACAD_REACTORS
330
29
102
}
330
29
100
AcDbVisualStyle
  2
EdgeColorOff
 70
    22
177
     3
291
     1
 70
    58
 90
        2
176
     0
 90
        2
176
     0
 90
        0
176
     0
 90
        0
176
     0
 40
0.6
176
     0
 40
30.0
176
     0
 62
     7
420
 16777215
176
     0
 90
        1
176
     0
 90
        4
176
     0
 62
     7
176
     0
 62
   257
176
     0
 90
        1
176
     0
 90
        1
176
     0
 40
1.0
176
     0
 90
        8
176
     2
 62
     7
176
     0
 40
1.0
176
     0
 90
        1
176
     0
 90
        6
176
     0
 90
        2
176
     0
 62
     7
176
     0
 90
        5
176
     0
 90
        0
176
     0
 90
        0
176
     0
290
     0
176
     0
 90
        1
176
     0
 40
0.0
176
     0
 90
        0
176
     0
290
     0
176
     0
290
     1
176
     0
290
     1
176
     0
290
     0
176
     0
290
     0
176
     0
290
     0
176
     0
290
     0
176
     0
290
     0
176
     0
290
     0
176
     0
 90
       50
176
     0
 40
0.0
176
     0
 40
1.0
176
     0
 90
        0
176
     0
 62
    18
420
        0
176
     0
 90
       50
176
     0
 90
        3
176
     0
 62
     5
420
      255
176
     0
290
     0
176
     0
 90
       50
176
     0
 90
       50
176
     0
 90
       50
176
     0
290
     0
176
     0
 90
       50
176
     0
 62
   256
176
     0
 40
1.0
176
     0
 90
        2
176
     0
  1
strokes_ogs.tif
176
     0
290
     0
176
     0
 40
1.0
176
     0
 40
1.0
176
     0
  0
VISUALSTYLE
  5
38
102
{ACAD_REACTORS
330
29
102
}
330
29
100
AcDbVisualStyle
  2
Facepattern
 70
    15
177
     3
291
     1
 70
    58
 90
        2
176
     1
 90
        2
176
     1
 90
        0
176
     1
 90
        0
176
     1
 40
0.6
176
     1
 40
30.0
176
     1
 62
     7
420
 16777215
176
     1
 90
        1
176
     1
 90
        4
176
     1
 62
     7
176
     1
 62
   257
176
     1
 90
        1
176
     1
 90
        1
176
     1
 40
1.0
176
     1
 90
        8
176
     1
 62
     7
176
     1
 40
1.0
176
     1
 90
        1
176
     1
 90
        6
176
     1
 90
        2
176
     1
 62
     7
176
     1
 90
        5
176
     1
 90
        0
176
     1
 90
        0
176
     1
290
     0
176
     1
 90
        1
176
     1
 40
0.0
176
     1
 90
        0
176
     1
290
     0
176
     1
290
     1
176
     1
290
     1
176
     1
290
     0
176
     1
290
     0
176
     1
290
     0
176
     1
290
     0
176
     1
290
     0
176
     1
290
     0
176
     1
 90
       50
176
     1
 40
0.0
176
     1
 40
1.0
176
     1
 90
        0
176
     1
 62
    18
420
        0
176
     1
 90
       50
176
     1
 90
        3
176
     1
 62
     5
420
      255
176
     1
290
     0
176
     1
 90
       50
176
     1
 90
       50
176
     1
 90
       50
176
     1
290
     0
176
     1
 90
       50
176
     1
 62
   256
176
     0
 40
1.0
176
     0
 90
        2
176
     1
  1
strokes_ogs.tif
176
     1
290
     0
176
     1
 40
1.0
176
     1
 40
1.0
176
     1
  0
VISUALSTYLE
  5
2A
102
{ACAD_REACTORS
330
29
102
}
330
29
100
AcDbVisualStyle
  2
Flat
 70
     0
177
     3
291
     1
 70
    58
 90
        2
176
     1
 90
        1
176
     1
 90
        1
176
     1
 90
        2
176
     1
 40
0.6
176
     1
 40
30.0
176
     1
 62
     7
420
 16777215
176
     1
 90
        0
176
     1
 90
        0
176
     1
 62
     7
176
     1
 62
   257
176
     1
 90
        1
176
     1
 90
        1
176
     1
 40
1.0
176
     1
 90
        8
176
     1
 62
     7
176
     1
 40
1.0
176
     1
 90
        1
176
     1
 90
        6
176
     1
 90
        2
176
     1
 62
     7
176
     1
 90
        5
176
     1
 90
        0
176
     1
 90
        0
176
     1
290
     0
176
     1
 90
       13
176
     1
 40
0.0
176
     1
 90
        0
176
     1
290
     0
176
     1
290
     1
176
     1
290
     1
176
     1
290
     0
176
     1
290
     0
176
     1
290
     0
176
     1
290
     0
176
     1
290
     0
176
     1
290
     0
176
     1
 90
       50
176
     1
 40
0.0
176
     1
 40
1.0
176
     1
 90
        0
176
     1
 62
    18
420
        0
176
     1
 90
       50
176
     1
 90
        3
176
     1
 62
     5
420
      255
176
     1
290
     0
176
     1
 90
       50
176
     1
 90
       50
176
     1
 90
       50
176
     1
290
     0
176
     1
 90
       50
176
     1
 62
   256
176
     0
 40
1.0
176
     0
 90
        2
176
     1
  1
strokes_ogs.tif
176
     1
290
     0
176
     1
 40
1.0
176
     1
 40
1.0
176
     1
  0
VISUALSTYLE
  5
2B
102
{ACAD_REACTORS
330
29
102
}
330
29
100
AcDbVisualStyle
  2
FlatWithEdges
 70
     1
177
     3
291
     1
 70
    58
 90
        2
176
     1
 90
        1
176
     1
 90
        1
176
     1
 90
        2
176
     1
 40
0.6
176
     1
 40
30.0
176
     1
 62
     7
420
 16777215
176
     1
 90
        1
176
     1
 90
        0
176
     1
 62
     7
176
     1
 62
   257
176
     1
 90
        1
176
     1
 90
        1
176
     1
 40
1.0
176
     1
 90
        0
176
     1
 62
   257
176
     1
 40
1.0
176
     1
 90
        1
176
     1
 90
        6
176
     1
 90
        2
176
     1
 62
     7
176
     1
 90
        5
176
     1
 90
        0
176
     1
 90
        0
176
     1
290
     0
176
     1
 90
       13
176
     1
 40
0.0
176
     1
 90
        0
176
     1
290
     0
176
     1
290
     1
176
     1
290
     1
176
     1
290
     0
176
     1
290
     0
176
     1
290
     0
176
     1
290
     0
176
     1
290
     0
176
     1
290
     0
176
     1
 90
       50
176
     1
 40
0.0
176
     1
 40
1.0
176
     1
 90
        0
176
     1
 62
    18
420
        0
176
     1
 90
       50
176
     1
 90
        3
176
     1
 62
     5
420
      255
176
     1
290
     0
176
     1
 90
       50
176
     1
 90
       50
176
     1
 90
       50
176
     1
290
     0
176
     1
 90
       50
176
     1
 62
   256
176
     0
 40
1.0
176
     0
 90
        2
176
     1
  1
strokes_ogs.tif
176
     1
290
     0
176
     1
 40
1.0
176
     1
 40
1.0
176
     1
  0
VISUALSTYLE
  5
2C
102
{ACAD_REACTORS
330
29
102
}
330
29
100
AcDbVisualStyle
  2
Gouraud
 70
     2
177
     3
291
     1
 70
    58
 90
        2
176
     1
 90
        2
176
     1
 90
        1
176
     1
 90
        2
176
     1
 40
0.6
176
     1
 40
30.0
176
     1
 62
     7
420
 16777215
176
     1
 90
        0
176
     1
 90
        0
176
     1
 62
     7
176
     1
 62
   257
176
     1
 90
        1
176
     1
 90
        1
176
     1
 40
1.0
176
     1
 90
        0
176
     1
 62
     7
176
     1
 40
1.0
176
     1
 90
        1
176
     1
 90
        6
176
     1
 90
        2
176
     1
 62
     7
176
     1
 90
        5
176
     1
 90
        0
176
     1
 90
        0
176
     1
290
     0
176
     1
 90
       13
176
     1
 40
0.0
176
     1
 90
        0
176
     1
290
     0
176
     1
290
     1
176
     1
290
     1
176
     1
290
     0
176
     1
290
     0
176
     1
290
     0
176
     1
290
     0
176
     1
290
     0
176
     1
290
     0
176
     1
 90
       50
176
     1
 40
0.0
176
     1
 40
1.0
176
     1
 90
        0
176
     1
 62
    18
420
        0
176
     1
 90
       50
176
     1
 90
        3
176
     1
 62
     5
420
      255
176
     1
290
     0
176
     1
 90
       50
176
     1
 90
       50
176
     1
 90
       50
176
     1
290
     0
176
     1
 90
       50
176
     1
 62
   256
176
     0
 40
1.0
176
     0
 90
        2
176
     1
  1
strokes_ogs.tif
176
     1
290
     0
176
     1
 40
1.0
176
     1
 40
1.0
176
     1
  0
VISUALSTYLE
  5
2D
102
{ACAD_REACTORS
330
29
102
}
330
29
100
AcDbVisualStyle
  2
GouraudWithEdges
 70
     3
177
     3
291
     1
 70
    58
 90
        2
176
     1
 90
        2
176
     1
 90
        1
176
     1
 90
        2
176
     1
 40
0.6
176
     1
 40
30.0
176
     1
 62
     7
420
 16777215
176
     1
 90
        1
176
     1
 90
        0
176
     1
 62
     7
176
     1
 62
   257
176
     1
 90
        1
176
     1
 90
        1
176
     1
 40
1.0
176
     1
 90
        0
176
     1
 62
   257
176
     1
 40
1.0
176
     1
 90
        1
176
     1
 90
        6
176
     1
 90
        2
176
     1
 62
     7
176
     1
 90
        5
176
     1
 90
        0
176
     1
 90
        0
176
     1
290
     0
176
     1
 90
       13
176
     1
 40
0.0
176
     1
 90
        0
176
     1
290
     0
176
     1
290
     1
176
     1
290
     1
176
     1
290
     0
176
     1
290
     0
176
     1
290
     0
176
     1
290
     0
176
     1
290
     0
176
     1
290
     0
176
     1
 90
       50
176
     1
 40
0.0
176
     1
 40
1.0
176
     1
 90
        0
176
     1
 62
    18
420
        0
176
     1
 90
       50
176
     1
 90
        3
176
     1
 62
     5
420
      255
176
     1
290
     0
176
     1
 90
       50
176
     1
 90
       50
176
     1
 90
       50
176
     1
290
     0
176
     1
 90
       50
176
     1
 62
   256
176
     0
 40
1.0
176
     0
 90
        2
176
     1
  1
strokes_ogs.tif
176
     1
290
     0
176
     1
 40
1.0
176
     1
 40
1.0
176
     1
  0
VISUALSTYLE
  5
31
102
{ACAD_REACTORS
330
29
102
}
330
29
100
AcDbVisualStyle
  2
Hidden
 70
     6
177
     3
291
     0
 70
    58
 90
        1
176
     1
 90
        2
176
     1
 90
        2
176
     1
 90
        0
176
     1
 40
0.6
176
     1
 40
30.0
176
     1
 62
     7
420
 16777215
176
     1
 90
        2
176
     1
 90
        2
176
     1
 62
     7
176
     1
 62
   257
176
     1
 90
        2
176
     1
 90
        1
176
     1
 40
40.0
176
     1
 90
        0
176
     1
 62
   257
176
     1
 40
1.0
176
     1
 90
        1
176
     1
 90
        6
176
     1
 90
        2
176
     1
 62
     7
176
     1
 90
        3
176
     1
 90
        0
176
     1
 90
        0
176
     1
290
     0
176
     1
 90
        1
176
     1
 40
0.0
176
     1
 90
        0
176
     1
290
     0
176
     1
290
     1
176
     1
290
     1
176
     1
290
     0
176
     1
290
     0
176
     1
290
     0
176
     1
290
     0
176
     1
290
     0
176
     1
290
     0
176
     1
 90
       50
176
     1
 40
0.0
176
     1
 40
1.0
176
     1
 90
        0
176
     1
 62
    18
420
        0
176
     1
 90
       50
176
     1
 90
        3
176
     1
 62
     5
420
      255
176
     1
290
     0
176
     1
 90
       50
176
     1
 90
       50
176
     1
 90
       50
176
     1
290
     0
176
     1
 90
       50
176
     1
 62
   256
176
     0
 40
1.0
176
     0
 90
        2
176
     1
  1
strokes_ogs.tif
176
     1
290
     0
176
     1
 40
1.0
176
     1
 40
1.0
176
     1
  0
VISUALSTYLE
  5
3F
102
{ACAD_REACTORS
330
29
102
}
330
29
100
AcDbVisualStyle
  2
JitterOff
 70
    20
177
     3
291
     1
 70
    58
 90
        2
176
     0
 90
        2
176
     0
 90
        0
176
     0
 90
        0
176
     0
 40
0.6
176
     0
 40
30.0
176
     0
 62
     7
420
 16777215
176
     0
 90
        1
176
     0
 90
        4
176
     0
 62
     7
176
     0
 62
   257
176
     0
 90
        1
176
     0
 90
        1
176
     0
 40
1.0
176
     0
 90
       10
176
     2
 62
     7
176
     0
 40
1.0
176
     0
 90
        1
176
     0
 90
        6
176
     0
 90
        2
176
     0
 62
     7
176
     0
 90
        5
176
     0
 90
        0
176
     0
 90
        0
176
     0
290
     0
176
     0
 90
        1
176
     0
 40
0.0
176
     0
 90
        0
176
     0
290
     0
176
     0
290
     1
176
     0
290
     1
176
     0
290
     0
176
     0
290
     0
176
     0
290
     0
176
     0
290
     0
176
     0
290
     0
176
     0
290
     0
176
     0
 90
       50
176
     0
 40
0.0
176
     0
 40
1.0
176
     0
 90
        0
176
     0
 62
    18
420
        0
176
     0
 90
       50
176
     0
 90
        3
176
     0
 62
     5
420
      255
176
     0
290
     0
176
     0
 90
       50
176
     0
 90
       50
176
     0
 90
       50
176
     0
290
     0
176
     0
 90
       50
176
     0
 62
   256
176
     0
 40
1.0
176
     0
 90
        2
176
     0
  1
strokes_ogs.tif
176
     0
290
     0
176
     0
 40
1.0
176
     0
 40
1.0
176
     0
  0
VISUALSTYLE
  5
37
102
{ACAD_REACTORS
330
29
102
}
330
29
100
AcDbVisualStyle
  2
Linepattern
 70
    14
177
     3
291
     1
 70
    58
 90
        2
176
     1
 90
        2
176
     1
 90
        0
176
     1
 90
        0
176
     1
 40
0.6
176
     1
 40
30.0
176
     1
 62
     7
420
 16777215
176
     1
 90
        1
176
     1
 90
        4
176
     1
 62
     7
176
     1
 62
   257
176
     1
 90
        7
176
     1
 90
        7
176
     1
 40
1.0
176
     1
 90
        8
176
     1
 62
     7
176
     1
 40
1.0
176
     1
 90
        1
176
     1
 90
        6
176
     1
 90
        2
176
     1
 62
     7
176
     1
 90
        5
176
     1
 90
        0
176
     1
 90
        0
176
     1
290
     0
176
     1
 90
        1
176
     1
 40
0.0
176
     1
 90
        0
176
     1
290
     0
176
     1
290
     1
176
     1
290
     1
176
     1
290
     0
176
     1
290
     0
176
     1
290
     0
176
     1
290
     0
176
     1
290
     0
176
     1
290
     0
176
     1
 90
       50
176
     1
 40
0.0
176
     1
 40
1.0
176
     1
 90
        0
176
     1
 62
    18
420
        0
176
     1
 90
       50
176
     1
 90
        3
176
     1
 62
     5
420
      255
176
     1
290
     0
176
     1
 90
       50
176
     1
 90
       50
176
     1
 90
       50
176
     1
290
     0
176
     1
 90
       50
176
     1
 62
   256
176
     0
 40
1.0
176
     0
 90
        2
176
     1
  1
strokes_ogs.tif
176
     1
290
     0
176
     1
 40
1.0
176
     1
 40
1.0
176
     1
  0
VISUALSTYLE
  5
40
102
{ACAD_REACTORS
330
29
102
}
330
29
100
AcDbVisualStyle
  2
OverhangOff
 70
    21
177
     3
291
     1
 70
    58
 90
        2
176
     0
 90
        2
176
     0
 90
        0
176
     0
 90
        0
176
     0
 40
0.6
176
     0
 40
30.0
176
     0
 62
     7
420
 16777215
176
     0
 90
        1
176
     0
 90
        4
176
     0
 62
     7
176
     0
 62
   257
176
     0
 90
        1
176
     0
 90
        1
176
     0
 40
1.0
176
     0
 90
        9
176
     2
 62
     7
176
     0
 40
1.0
176
     0
 90
        1
176
     0
 90
        6
176
     0
 90
        2
176
     0
 62
     7
176
     0
 90
        5
176
     0
 90
        0
176
     0
 90
        0
176
     0
290
     0
176
     0
 90
        1
176
     0
 40
0.0
176
     0
 90
        0
176
     0
290
     0
176
     0
290
     1
176
     0
290
     1
176
     0
290
     0
176
     0
290
     0
176
     0
290
     0
176
     0
290
     0
176
     0
290
     0
176
     0
290
     0
176
     0
 90
       50
176
     0
 40
0.0
176
     0
 40
1.0
176
     0
 90
        0
176
     0
 62
    18
420
        0
176
     0
 90
       50
176
     0
 90
        3
176
     0
 62
     5
420
      255
176
     0
290
     0
176
     0
 90
       50
176
     0
 90
       50
176
     0
 90
       50
176
     0
290
     0
176
     0
 90
       50
176
     0
 62
   256
176
     0
 40
1.0
176
     0
 90
        2
176
     0
  1
strokes_ogs.tif
176
     0
290
     0
176
     0
 40
1.0
176
     0
 40
1.0
176
     0
  0
VISUALSTYLE
  5
33
102
{ACAD_REACTORS
330
29
102
}
330
29
100
AcDbVisualStyle
  2
Realistic
 70
     8
177
     3
291
     0
 70
    58
 90
        2
176
     1
 90
        3
176
     1
 90
        0
176
     1
 90
        2
176
     1
 40
0.6
176
     1
 40
30.0
176
     1
 62
     7
420
 16777215
176
     1
 90
        0
176
     1
 90
        0
176
     1
 62
     7
176
     1
 62
   257
176
     1
 90
        1
176
     1
 90
        1
176
     1
 40
1.0
176
     1
 90
        8
176
     1
 62
   257
176
     1
 40
1.0
176
     1
 90
        1
176
     1
 90
        6
176
     1
 90
        2
176
     1
 62
     7
176
     1
 90
        3
176
     1
 90
        0
176
     1
 90
        0
176
     1
290
     0
176
     1
 90
       13
176
     1
 40
0.0
176
     1
 90
        0
176
     1
290
     0
176
     1
290
     1
176
     1
290
     1
176
     1
290
     0
176
     1
290
     0
176
     1
290
     0
176
     1
290
     0
176
     1
290
     0
176
     1
290
     0
176
     1
 90
       50
176
     1
 40
0.0
176
     1
 40
1.0
176
     1
 90
        0
176
     1
 62
    18
420
        0
176
     1
 90
       50
176
     1
 90
        3
176
     1
 62
     5
420
      255
176
     1
290
     0
176
     1
 90
       50
176
     1
 90
       50
176
     1
 90
       50
176
     1
290
     0
176
     1
 90
       50
176
     1
 62
   256
176
     0
 40
1.0
176
     0
 90
        2
176
     1
  1
strokes_ogs.tif
176
     1
290
     0
176
     1
 40
1.0
176
     1
 40
1.0
176
     1
  0
VISUALSTYLE
  5
3E
102
{ACAD_REACTORS
330
29
102
}
330
29
100
AcDbVisualStyle
  2
Shaded
 70
    27
177
     3
291
     0
 70
    58
 90
        2
176
     1
 90
        2
176
     1
 90
        1
176
     1
 90
        2
176
     1
 40
0.6
176
     1
 40
30.0
176
     1
 62
     7
420
 16777215
176
     1
 90
        0
176
     1
 90
        4
176
     1
 62
     7
176
     1
 62
   257
176
     1
 90
        1
176
     1
 90
        1
176
     1
 40
1.0
176
     1
 90
        8
176
     1
 62
   257
176
     1
 40
1.0
176
     1
 90
        1
176
     1
 90
        6
176
     1
 90
        2
176
     1
 62
     8
420
  7895160
176
     1
 90
        3
176
     1
 90
        0
176
     1
 90
        0
176
     1
290
     0
176
     1
 90
        5
176
     1
 40
0.0
176
     1
 90
        0
176
     1
290
     0
176
     1
290
     1
176
     1
290
     1
176
     1
290
     0
176
     1
290
     0
176
     1
290
     0
176
     1
290
     0
176
     1
290
     0
176
     1
290
     0
176
     1
 90
       50
176
     1
 40
0.0
176
     1
 40
1.0
176
     1
 90
        0
176
     1
 62
    18
420
        0
176
     1
 90
       50
176
     1
 90
        3
176
     1
 62
     5
420
      255
176
     1
290
     0
176
     1
 90
       50
176
     1
 90
       50
176
     1
 90
       50
176
     1
290
     0
176
     1
 90
       50
176
     1
 62
   256
176
     0
 40
1.0
176
     0
 90
        2
176
     1
  1
strokes_ogs.tif
176
     1
290
     0
176
     1
 40
1.0
176
     1
 40
1.0
176
     1
  0
VISUALSTYLE
  5
3D
102
{ACAD_REACTORS
330
29
102
}
330
29
100
AcDbVisualStyle
  2
Shaded with edges
 70
    26
177
     3
291
     0
 70
    58
 90
        2
176
     1
 90
        2
176
     1
 90
        1
176
     1
 90
        2
176
     1
 40
0.6
176
     1
 40
30.0
176
     1
 62
     7
420
 16777215
176
     1
 90
        1
176
     1
 90
        2
176
     1
 62
     7
176
     1
 62
   257
176
     1
 90
        2
176
     1
 90
        1
176
     1
 40
1.0
176
     1
 90
        8
176
     1
 62
   257
176
     1
 40
1.0
176
     1
 90
        1
176
     1
 90
        6
176
     1
 90
        2
176
     1
 62
     7
176
     1
 90
        3
176
     1
 90
        0
176
     1
 90
        0
176
     1
290
     0
176
     1
 90
        5
176
     1
 40
0.0
176
     1
 90
        0
176
     1
290
     0
176
     1
290
     1
176
     1
290
     1
176
     1
290
     0
176
     1
290
     0
176
     1
290
     0
176
     1
290
     0
176
     1
290
     0
176
     1
290
     0
176
     1
 90
       50
176
     1
 40
0.0
176
     1
 40
1.0
176
     1
 90
        0
176
     1
 62
    18
420
        0
176
     1
 90
       50
176
     1
 90
        3
176
     1
 62
     5
420
      255
176
     1
290
     0
176
     1
 90
       50
176
     1
 90
       50
176
     1
 90
       50
176
     1
290
     0
176
     1
 90
       50
176
     1
 62
   256
176
     0
 40
1.0
176
     0
 90
        2
176
     1
  1
strokes_ogs.tif
176
     1
290
     0
176
     1
 40
1.0
176
     1
 40
1.0
176
     1
  0
VISUALSTYLE
  5
3A
102
{ACAD_REACTORS
330
29
102
}
330
29
100
AcDbVisualStyle
  2
Shades of Gray
 70
    23
177
     3
291
     0
 70
    58
 90
        2
176
     1
 90
        2
176
     1
 90
        3
176
     1
 90
        0
176
     1
 40
0.6
176
     1
 40
30.0
176
     1
 62
     7
420
 16777215
176
     1
 90
        2
176
     1
 90
        2
176
     1
 62
     7
176
     1
 62
     7
176
     1
 90
        1
176
     1
 90
        1
176
     1
 40
40.0
176
     1
 90
        8
176
     1
 62
     7
176
     1
 40
1.0
176
     1
 90
        1
176
     1
 90
        6
176
     1
 90
        2
176
     1
 62
     7
176
     1
 90
        3
176
     1
 90
        0
176
     1
 90
        0
176
     1
290
     0
176
     1
 90
        1
176
     1
 40
0.0
176
     1
 90
        0
176
     1
290
     0
176
     1
290
     1
176
     1
290
     1
176
     1
290
     0
176
     1
290
     0
176
     1
290
     0
176
     1
290
     0
176
     1
290
     0
176
     1
290
     0
176
     1
 90
       50
176
     1
 40
0.0
176
     1
 40
1.0
176
     1
 90
        0
176
     1
 62
    18
420
        0
176
     1
 90
       50
176
     1
 90
        3
176
     1
 62
     5
420
      255
176
     1
290
     0
176
     1
 90
       50
176
     1
 90
       50
176
     1
 90
       50
176
     1
290
     0
176
     1
 90
       50
176
     1
 62
   256
176
     0
 40
1.0
176
     0
 90
        2
176
     1
  1
strokes_ogs.tif
176
     1
290
     0
176
     1
 40
1.0
176
     1
 40
1.0
176
     1
  0
VISUALSTYLE
  5
3B
102
{ACAD_REACTORS
330
29
102
}
330
29
100
AcDbVisualStyle
  2
Sketchy
 70
    24
177
     3
291
     0
 70
    58
 90
        1
176
     1
 90
        2
176
     1
 90
        2
176
     1
 90
        0
176
     1
 40
0.6
176
     1
 40
30.0
176
     1
 62
     7
420
 16777215
176
     1
 90
        2
176
     1
 90
        2
176
     1
 62
     7
176
     1
 62
     7
176
     1
 90
        1
176
     1
 90
        1
176
     1
 40
40.0
176
     1
 90
       11
176
     1
 62
     7
176
     1
 40
1.0
176
     1
 90
        1
176
     1
 90
        6
176
     1
 90
        2
176
     1
 62
     7
176
     1
 90
        6
176
     1
 90
        0
176
     1
 90
        0
176
     1
290
     0
176
     1
 90
        1
176
     1
 40
0.0
176
     1
 90
        0
176
     1
290
     0
176
     1
290
     1
176
     1
290
     1
176
     1
290
     0
176
     1
290
     0
176
     1
290
     0
176
     1
290
     0
176
     1
290
     0
176
     1
290
     0
176
     1
 90
       50
176
     1
 40
0.0
176
     1
 40
1.0
176
     1
 90
        0
176
     1
 62
    18
420
        0
176
     1
 90
       50
176
     1
 90
        3
176
     1
 62
     5
420
      255
176
     1
290
     0
176
     1
 90
       50
176
     1
 90
       50
176
     1
 90
       50
176
     1
290
     0
176
     1
 90
       50
176
     1
 62
   256
176
     0
 40
1.0
176
     0
 90
        2
176
     1
  1
strokes_ogs.tif
176
     1
290
     0
176
     1
 40
1.0
176
     1
 40
1.0
176
     1
  0
VISUALSTYLE
  5
36
102
{ACAD_REACTORS
330
29
102
}
330
29
100
AcDbVisualStyle
  2
Thicken
 70
    13
177
     3
291
     1
 70
    58
 90
        2
176
     1
 90
        2
176
     1
 90
        0
176
     1
 90
        0
176
     1
 40
0.6
176
     1
 40
30.0
176
     1
 62
     7
420
 16777215
176
     1
 90
        1
176
     1
 90
        4
176
     1
 62
     7
176
     1
 62
   257
176
     1
 90
        1
176
     1
 90
        1
176
     1
 40
1.0
176
     1
 90
       12
176
     1
 62
     7
176
     1
 40
1.0
176
     1
 90
        1
176
     1
 90
        6
176
     1
 90
        2
176
     1
 62
     7
176
     1
 90
        5
176
     1
 90
        0
176
     1
 90
        0
176
     1
290
     0
176
     1
 90
        1
176
     1
 40
0.0
176
     1
 90
        0
176
     1
290
     0
176
     1
290
     1
176
     1
290
     1
176
     1
290
     0
176
     1
290
     0
176
     1
290
     0
176
     1
290
     0
176
     1
290
     0
176
     1
290
     0
176
     1
 90
       50
176
     1
 40
0.0
176
     1
 40
1.0
176
     1
 90
        0
176
     1
 62
    18
420
        0
176
     1
 90
       50
176
     1
 90
        3
176
     1
 62
     5
420
      255
176
     1
290
     0
176
     1
 90
       50
176
     1
 90
       50
176
     1
 90
       50
176
     1
290
     0
176
     1
 90
       50
176
     1
 62
   256
176
     0
 40
1.0
176
     0
 90
        2
176
     1
  1
strokes_ogs.tif
176
     1
290
     0
176
     1
 40
1.0
176
     1
 40
1.0
176
     1
  0
VISUALSTYLE
  5
30
102
{ACAD_REACTORS
330
29
102
}
330
29
100
AcDbVisualStyle
  2
Wireframe
 70
     5
177
     3
291
     0
 70
    58
 90
        0
176
     1
 90
        2
176
     1
 90
        0
176
     1
 90
        0
176
     1
 40
0.6
176
     1
 40
30.0
176
     1
 62
     7
420
 16777215
176
     1
 90
        1
176
     1
 90
        4
176
     1
 62
     7
176
     1
 62
   257
176
     1
 90
        1
176
     1
 90
        1
176
     1
 40
1.0
176
     1
 90
        0
176
     1
 62
   257
176
     1
 40
1.0
176
     1
 90
        1
176
     1
 90
        6
176
     1
 90
        2
176
     1
 62
     7
176
     1
 90
        3
176
     1
 90
        0
176
     1
 90
        0
176
     1
290
     0
176
     1
 90
        1
176
     1
 40
0.0
176
     1
 90
        0
176
     1
290
     0
176
     1
290
     1
176
     1
290
     1
176
     1
290
     0
176
     1
290
     0
176
     1
290
     0
176
     1
290
     0
176
     1
290
     0
176
     1
290
     0
176
     1
 90
       50
176
     1
 40
0.0
176
     1
 40
1.0
176
     1
 90
        0
176
     1
 62
    18
420
        0
176
     1
 90
       50
176
     1
 90
        3
176
     1
 62
     5
420
      255
176
     1
290
     0
176
     1
 90
       50
176
     1
 90
       50
176
     1
 90
       50
176
     1
290
     0
176
     1
 90
       50
176
     1
 62
   256
176
     0
 40
1.0
176
     0
 90
        2
176
     1
  1
strokes_ogs.tif
176
     1
290
     0
176
     1
 40
1.0
176
     1
 40
1.0
176
     1
  0
VISUALSTYLE
  5
3C
102
{ACAD_REACTORS
330
29
102
}
330
29
100
AcDbVisualStyle
  2
X-Ray
 70
    25
177
     3
291
     0
 70
    58
 90
        2
176
     1
 90
        2
176
     1
 90
        1
176
     1
 90
        1
176
     1
 40
0.5
176
     1
 40
30.0
176
     1
 62
     7
420
 16777215
176
     1
 90
        1
176
     1
 90
        0
176
     1
 62
     7
176
     1
 62
   257
176
     1
 90
        1
176
     1
 90
        1
176
     1
 40
1.0
176
     1
 90
        8
176
     1
 62
     7
176
     1
 40
1.0
176
     1
 90
        1
176
     1
 90
        6
176
     1
 90
        2
176
     1
 62
     7
176
     1
 90
        3
176
     1
 90
        0
176
     1
 90
        0
176
     1
290
     0
176
     1
 90
       13
176
     1
 40
0.0
176
     1
 90
        0
176
     1
290
     0
176
     1
290
     1
176
     1
290
     1
176
     1
290
     0
176
     1
290
     0
176
     1
290
     0
176
     1
290
     0
176
     1
290
     0
176
     1
290
     0
176
     1
 90
       50
176
     1
 40
0.0
176
     1
 40
1.0
176
     1
 90
        0
176
     1
 62
    18
420
        0
176
     1
 90
       50
176
     1
 90
        3
176
     1
 62
     5
420
      255
176
     1
290
     0
176
     1
 90
       50
176
     1
 90
       50
176
     1
 90
       50
176
     1
290
     0
176
     1
 90
       50
176
     1
 62
   256
176
     0
 40
1.0
176
     0
 90
        2
176
     1
  1
strokes_ogs.tif
176
     1
290
     0
176
     1
 40
1.0
176
     1
 40
1.0
176
     1
  0
DICTIONARYVAR
  5
305
102
{ACAD_REACTORS
330
300
102
}
330
300
100
DictionaryVariables
280
     0
  1
1:1
  0
DICTIONARYVAR
  5
302
102
{ACAD_REACTORS
330
300
102
}
330
300
100
DictionaryVariables
280
     0
  1
STANDARD
  0
DICTIONARYVAR
  5
301
102
{ACAD_REACTORS
330
300
102
}
330
300
100
DictionaryVariables
280
     0
  1
STANDARD
  0
DICTIONARYVAR
  5
303
102
{ACAD_REACTORS
330
300
102
}
330
300
100
DictionaryVariables
280
     0
  1
Imperial24
  0
DICTIONARYVAR
  5
304
102
{ACAD_REACTORS
330
300
102
}
330
300
100
DictionaryVariables
280
     0
  1
Imperial24
  0
XRECORD
  5
2FC
102
{ACAD_REACTORS
330
2F8
102
}
330
2F8
100
AcDbXrecord
280
     1
  1
BUILDING_ID
  1
Fazenda Saco dos Pereira, Acarí, Rio Grande do Norte
  1
FLOOR_ID
  1
22666427
  0
XRECORD
  5
2FA
102
{ACAD_REACTORS
330
2F8
102
}
330
2F8
100
AcDbXrecord
280
     1
  1
-2000051
  1
Linhas
  1
-2000280
  1
Blocos de margens e carimbo
  1
-2002000
  1
Itens de detalhe
  0
XRECORD
  5
2FB
102
{ACAD_REACTORS
330
2F8
102
}
330
2F8
100
AcDbXrecord
280
     1
  1
-2000042
  1
<Linhas finas>
  1
-2000281
  1
<Linhas finas>
  0
XRECORD
  5
2F9
102
{ACAD_REACTORS
330
2F8
102
}
330
2F8
100
AcDbXrecord
280
     1
  1
22667833
  1
A4 HORIZONTAL : A4
  1
383807
  1
Região preenchida : Marcenaria corte
  0
DICTIONARY
  5
1A
330
19
100
AcDbDictionary
280
     1
281
     1
  3
BUMPTILE
360
1C
  3
DIFFUSETILE
360
1B
  3
OPACITYTILE
360
1F
  3
REFLECTIONTILE
360
1E
  3
REFRACTIONTILE
360
20
  3
SPECULARTILE
360
1D
  0
DICTIONARY
  5
12
330
11
100
AcDbDictionary
280
     1
281
     1
  3
BUMPTILE
360
14
  3
DIFFUSETILE
360
13
  3
OPACITYTILE
360
17
  3
REFLECTIONTILE
360
16
  3
REFRACTIONTILE
360
18
  3
SPECULARTILE
360
15
  0
DICTIONARY
  5
22
330
21
100
AcDbDictionary
280
     1
281
     1
  3
BUMPTILE
360
24
  3
DIFFUSETILE
360
23
  3
OPACITYTILE
360
27
  3
REFLECTIONTILE
360
26
  3
REFRACTIONTILE
360
28
  3
SPECULARTILE
360
25
  0
DICTIONARY
  5
3C7
330
65
100
AcDbDictionary
280
     1
281
     1
  3
ACAD_ROUNDTRIP_2008_TABLESTYLE_CELLSTYLEMAP
360
3C8
  0
XRECORD
  5
1C
102
{ACAD_REACTORS
330
1A
102
}
330
1A
100
AcDbXrecord
280
     1
270
     1
271
     1
  0
XRECORD
  5
1B
102
{ACAD_REACTORS
330
1A
102
}
330
1A
100
AcDbXrecord
280
     1
270
     1
271
     1
  0
XRECORD
  5
1F
102
{ACAD_REACTORS
330
1A
102
}
330
1A
100
AcDbXrecord
280
     1
270
     1
271
     1
  0
XRECORD
  5
1E
102
{ACAD_REACTORS
330
1A
102
}
330
1A
100
AcDbXrecord
280
     1
270
     1
271
     1
  0
XRECORD
  5
20
102
{ACAD_REACTORS
330
1A
102
}
330
1A
100
AcDbXrecord
280
     1
270
     1
271
     1
  0
XRECORD
  5
1D
102
{ACAD_REACTORS
330
1A
102
}
330
1A
100
AcDbXrecord
280
     1
270
     1
271
     1
  0
XRECORD
  5
14
102
{ACAD_REACTORS
330
12
102
}
330
12
100
AcDbXrecord
280
     1
270
     1
271
     1
  0
XRECORD
  5
13
102
{ACAD_REACTORS
330
12
102
}
330
12
100
AcDbXrecord
280
     1
270
     1
271
     1
  0
XRECORD
  5
17
102
{ACAD_REACTORS
330
12
102
}
330
12
100
AcDbXrecord
280
     1
270
     1
271
     1
  0
XRECORD
  5
16
102
{ACAD_REACTORS
330
12
102
}
330
12
100
AcDbXrecord
280
     1
270
     1
271
     1
  0
XRECORD
  5
18
102
{ACAD_REACTORS
330
12
102
}
330
12
100
AcDbXrecord
280
     1
270
     1
271
     1
  0
XRECORD
  5
15
102
{ACAD_REACTORS
330
12
102
}
330
12
100
AcDbXrecord
280
     1
270
     1
271
     1
  0
XRECORD
  5
24
102
{ACAD_REACTORS
330
22
102
}
330
22
100
AcDbXrecord
280
     1
270
     1
271
     1
  0
XRECORD
  5
23
102
{ACAD_REACTORS
330
22
102
}
330
22
100
AcDbXrecord
280
     1
270
     1
271
     1
  0
XRECORD
  5
27
102
{ACAD_REACTORS
330
22
102
}
330
22
100
AcDbXrecord
280
     1
270
     1
271
     1
  0
XRECORD
  5
26
102
{ACAD_REACTORS
330
22
102
}
330
22
100
AcDbXrecord
280
     1
270
     1
271
     1
  0
XRECORD
  5
28
102
{ACAD_REACTORS
330
22
102
}
330
22
100
AcDbXrecord
280
     1
270
     1
271
     1
  0
XRECORD
  5
25
102
{ACAD_REACTORS
330
22
102
}
330
22
100
AcDbXrecord
280
     1
270
     1
271
     1
  0
CELLSTYLEMAP
  5
3C8
102
{ACAD_REACTORS
330
3C7
102
}
330
3C7
100
AcDbCellStyleMap
 90
        3
300
CELLSTYLE
  1
TABLEFORMAT_BEGIN
 90
        5
170
     1
 91
        0
 92
    32768
 62
   257
 93
        1
300
CONTENTFORMAT
  1
CONTENTFORMAT_BEGIN
 90
        0
 91
        0
 92
      512
 93
        0
300

 40
0.0
140
1.0
 94
        5
 62
     0
340
55
144
0.25
309
CONTENTFORMAT_END
171
     0
 94
        0
309
TABLEFORMAT_END
  1
CELLSTYLE_BEGIN
 90
        1
 91
        1
300
_TITLE
309
CELLSTYLE_END
300
CELLSTYLE
  1
TABLEFORMAT_BEGIN
 90
        5
170
     1
 91
        0
 92
        0
 62
   257
 93
        1
300
CONTENTFORMAT
  1
CONTENTFORMAT_BEGIN
 90
        0
 91
        0
 92
      512
 93
        0
300

 40
0.0
140
1.0
 94
        5
 62
     0
340
55
144
0.18
309
CONTENTFORMAT_END
171
     0
 94
        0
309
TABLEFORMAT_END
  1
CELLSTYLE_BEGIN
 90
        2
 91
        1
300
_HEADER
309
CELLSTYLE_END
300
CELLSTYLE
  1
TABLEFORMAT_BEGIN
 90
        5
170
     1
 91
        0
 92
        0
 62
   257
 93
        1
300
CONTENTFORMAT
  1
CONTENTFORMAT_BEGIN
 90
        0
 91
        0
 92
      512
 93
        0
300

 40
0.0
140
1.0
 94
        2
 62
     0
340
55
144
0.18
309
CONTENTFORMAT_END
171
     0
 94
        0
309
TABLEFORMAT_END
  1
CELLSTYLE_BEGIN
 90
        3
 91
        2
300
_DATA
309
CELLSTYLE_END
  0
ENDSEC
  0
SECTION
  2
ACDSDATA
 70
     2
 71
     8
  0
ACDSSCHEMA
 90
        0
  1
AcDb_Thumbnail_Schema
  2
AcDbDs::ID
280
    10
 91
        8
  2
Thumbnail_Data
280
    15
 91
        0
101
ACDSRECORD
 95
        0
 90
        1
  2
AcDbDs::TreatedAsObjectData
280
     1
291
     1
101
ACDSRECORD
 95
        0
 90
        2
  2
AcDbDs::Legacy
280
     1
291
     1
101
ACDSRECORD
  1
AcDbDs::ID
 90
        3
  2
AcDs:Indexable
280
     1
291
     1
101
ACDSRECORD
  1
AcDbDs::ID
 90
        4
  2
AcDbDs::HandleAttribute
280
     7
282
     1
  0
ACDSSCHEMA
 90
        1
  1
AcDbDs::TreatedAsObjectDataSchema
  2
AcDbDs::TreatedAsObjectData
280
     1
 91
        0
  0
ACDSSCHEMA
 90
        2
  1
AcDbDs::LegacySchema
  2
AcDbDs::Legacy
280
     1
 91
        0
  0
ACDSSCHEMA
 90
        3
  1
AcDbDs::IndexedPropertySchema
  2
AcDs:Indexable
280
     1
 91
        0
  0
ACDSSCHEMA
 90
        4
  1
AcDbDs::HandleAttributeSchema
  2
AcDbDs::HandleAttribute
280
     7
 91
        1
284
     1
  0
ACDSRECORD
 90
        0
  2
AcDbDs::ID
280
    10
320
6F
  2
Thumbnail_Data
280
    15
 94
     1576
310
89504E470D0A1A0A0000000D4948445200000100000000B5080300000087DCD12600000300504C5445FFFFFFFFFFFFFFFFFF0000000000000000000000000000000000000000000000000000330000660000990000CC0000FF0033000033330033660033990033CC0033FF0066000066330066660066990066CC0066FF0099
310
000099330099660099990099CC0099FF00CC0000CC3300CC6600CC9900CCCC00CCFF00FF0000FF3300FF6600FF9900FFCC00FFFF3300003300333300663300993300CC3300FF3333003333333333663333993333CC3333FF3366003366333366663366993366CC3366FF3399003399333399663399993399CC3399FF33CC00
310
33CC3333CC6633CC9933CCCC33CCFF33FF0033FF3333FF6633FF9933FFCC33FFFF6600006600336600666600996600CC6600FF6633006633336633666633996633CC6633FF6666006666336666666666996666CC6666FF6699006699336699666699996699CC6699FF66CC0066CC3366CC6666CC9966CCCC66CCFF66FF0066
310
FF3366FF6666FF9966FFCC66FFFF9900009900339900669900999900CC9900FF9933009933339933669933999933CC9933FF9966009966339966669966999966CC9966FF9999009999339999669999999999CC9999FF99CC0099CC3399CC6699CC9999CCCC99CCFF99FF0099FF3399FF6699FF9999FFCC99FFFFCC0000CC00
310
33CC0066CC0099CC00CCCC00FFCC3300CC3333CC3366CC3399CC33CCCC33FFCC6600CC6633CC6666CC6699CC66CCCC66FFCC9900CC9933CC9966CC9999CC99CCCC99FFCCCC00CCCC33CCCC66CCCC99CCCCCCCCCCFFCCFF00CCFF33CCFF66CCFF99CCFFCCCCFFFFFF0000FF0033FF0066FF0099FF00CCFF00FFFF3300FF3333
310
FF3366FF3399FF33CCFF33FFFF6600FF6633FF6666FF6699FF66CCFF66FFFF9900FF9933FF9966FF9999FF99CCFF99FFFFCC00FFCC33FFCC66FFCC99FFCCCCFFCCFFFFFF00FFFF33FFFF66FFFF99FFFFCCFFFFFF0000000D0D0D1A1A1A2828283535354343435050505D5D5D6B6B6B787878868686939393A1A1A1AEAEAEBB
310
BBBBC9C9C9D6D6D6E4E4E4F1F1F1FFFFFF000000000000000000000000000000000000000000000000000000000000AD4AB4E4000002E34944415478DAEDDD5972842014405176CCC2B215BE5C472F229DB403C8A8CD2897CA509554221C9F8FA95421272F428AA90B00000000000000000000000000000000000000000000
310
000000000000000000000000000000000000000000000000000000000000000000005303FC8C550A000C755E0100000000000000000000000000008600F8DCC73D2B807E2FFB8400EB4DFC9F4F391FC0DAEA4F3DB245C128004783D7EFB9AE8421008CB6EEF5C843300280D94EAD1E3904BA07B01A69D4E3FB28E81CC0D1E9
310
9DEAF12D41D700FBE36B64A81E5BDFF83880E3DCC600DE1FCB5D825E018CD88F0288FBC3A33E014E17760280335D0C0B706E4912C0CD7CD81F80A3192680F401DC32E80C608B631500100180EB047D016C957F03041FEB1600B8DA2D7604A0B5EE5B800B04BD00986DFB033012BC99ED2300EABFF94B9A411F00E699B57280
310
559328407AB7D8058016FBCE24E85F187316252F2483F600C780FF38679722C0FAB5D2E7CB4B240A5A03B8D35B9E08D8D7D142048D013CA93D57046C5110206809E05FE3CE0B204204CD00824BFC3901D6A32DC26DD00A20BCC1911DC09F0F9B0044F7770A00ECC9A03940CAF6561180F54A381DB73640DAE65E290047B758
310
1920716FB31C803542AE09B08D53948AFDA792004A1904F5008E616E1240FA74F83A803E85AA06702CF1F60150F712384D766512C0BEE0BD7E597F341EC0E9AC596F2A706D7F25E780EB7F5C1DC0B5B71705904F01702DE15900F6BA8E0DE07BD38574982819E8706B0278667AB30084DE557207409BDDA60138170C2B0388
310
B9015CC7BF7F090C07E03E3E00000000C09D91A017C0371204601C00F7DC3911C03B1B040000000000A04F800E5E1EDA16E0D5BA140788F8B707D043A108C06B9022DB44404F6F12E6DE610000000000000000202FC0EC0F547C6A010000000000000000000000000000000000000000000000000000000000000000000000
310
00000000000000000000000000000000000000000000001E09307911AFC9CB2FFEE3A2BEAF12B8B10000000049454E44AE426082
  0
ACDSRECORD
 90
        0
  2
AcDbDs::ID
280
    10
320
73
  2
Thumbnail_Data
280
    15
 94
     1150
310
89504E470D0A1A0A0000000D494844520000010000000065080300000095E2CD0900000300504C5445FFFFFFFFFFFFFFFFFF0000000000000000000000000000000000000000000000000000330000660000990000CC0000FF0033000033330033660033990033CC0033FF0066000066330066660066990066CC0066FF0099
310
000099330099660099990099CC0099FF00CC0000CC3300CC6600CC9900CCCC00CCFF00FF0000FF3300FF6600FF9900FFCC00FFFF3300003300333300663300993300CC3300FF3333003333333333663333993333CC3333FF3366003366333366663366993366CC3366FF3399003399333399663399993399CC3399FF33CC00
310
33CC3333CC6633CC9933CCCC33CCFF33FF0033FF3333FF6633FF9933FFCC33FFFF6600006600336600666600996600CC6600FF6633006633336633666633996633CC6633FF6666006666336666666666996666CC6666FF6699006699336699666699996699CC6699FF66CC0066CC3366CC6666CC9966CCCC66CCFF66FF0066
310
FF3366FF6666FF9966FFCC66FFFF9900009900339900669900999900CC9900FF9933009933339933669933999933CC9933FF9966009966339966669966999966CC9966FF9999009999339999669999999999CC9999FF99CC0099CC3399CC6699CC9999CCCC99CCFF99FF0099FF3399FF6699FF9999FFCC99FFFFCC0000CC00
310
33CC0066CC0099CC00CCCC00FFCC3300CC3333CC3366CC3399CC33CCCC33FFCC6600CC6633CC6666CC6699CC66CCCC66FFCC9900CC9933CC9966CC9999CC99CCCC99FFCCCC00CCCC33CCCC66CCCC99CCCCCCCCCCFFCCFF00CCFF33CCFF66CCFF99CCFFCCCCFFFFFF0000FF0033FF0066FF0099FF00CCFF00FFFF3300FF3333
310
FF3366FF3399FF33CCFF33FFFF6600FF6633FF6666FF6699FF66CCFF66FFFF9900FF9933FF9966FF9999FF99CCFF99FFFFCC00FFCC33FFCC66FFCC99FFCCCCFFCCFFFFFF00FFFF33FFFF66FFFF99FFFFCCFFFFFF0000000D0D0D1A1A1A2828283535354343435050505D5D5D6B6B6B787878868686939393A1A1A1AEAEAEBB
310
BBBBC9C9C9D6D6D6E4E4E4F1F1F1FFFFFF000000000000000000000000000000000000000000000000000000000000AD4AB4E4000001384944415478DAEDD84D12C2300886616ECC457B140FE168ED0F91D856AB23F03EE3C24516F225D058110000000000000000000000000000009C4E8B977F57BBFAB2113C2AD7AAA760
310
AA5A6B36C252B1169C05A65AB503A14EF56D00A22A052258B6D90B40B247B03EE57E00B923509F0D20EB409C5B7F3B0049783B5A97DFFB33A0A6195245E06EF8CBC648D5096D597B0348320FDB7DECB780B326FC30707EFFA100827782BB7D8703081B4177E41D0E206404DDE67D2B8070093C5E750CBAEB36B8278041254C
310
007355F671B67C97E9337E7F7EE6F901847BD3D10BA0ED92540198236D0BDA0CC0AC699A234800FD1B9D1FC058772700331EA39C80F6D2572E00DBBE0440001B4F011B8059932B007F4113805D43000490238013457BFD7573399106A9FDF22DFF7F0CF417040000000000000000E04357DAD42A8FB3CAE712000000004945
310
4E44AE42608282
  0
ENDSEC
  0
EOF
