  0
SECTION
  2
HEADER
  9
$ACADVER
  1
AC1032
  9
$ACADMAINTVER
 90
      204
  9
$DWGCODEPAGE
  3
ANSI_1252
  9
$LASTSAVEDBY
  1
duda-
  9
$REQUIREDVERSIONS
160
                 0
  9
$INSBASE
 10
0.0
 20
0.0
 30
0.0
  9
$EXTMIN
 10
20534.9974220134
 20
14090.33267066921
 30
0.0
  9
$EXTMAX
 10
28186.87242201313
 20
27224.08267066939
 30
0.0
  9
$LIMMIN
 10
0.0
 20
0.0
  9
$LIMMAX
 10
12.0
 20
9.0
  9
$ORTHOMODE
 70
     0
  9
$REGENMODE
 70
     1
  9
$FILLMODE
 70
     1
  9
$QTEXTMODE
 70
     0
  9
$MIRRTEXT
 70
     0
  9
$LTSCALE
 40
1.0
  9
$ATTMODE
 70
     1
  9
$TEXTSIZE
 40
0.2
  9
$TRACEWID
 40
0.05
  9
$TEXTSTYLE
  7
Standard
  9
$CLAYER
  8
0
  9
$CELTYPE
  6
ByLayer
  9
$CECOLOR
 62
   256
  9
$CELTSCALE
 40
1.0
  9
$DISPSILH
 70
     0
  9
$DIMSCALE
 40
1.0
  9
$DIMASZ
 40
0.18
  9
$DIMEXO
 40
0.0625
  9
$DIMDLI
 40
0.38
  9
$DIMRND
 40
0.0
  9
$DIMDLE
 40
0.0
  9
$DIMEXE
 40
0.18
  9
$DIMTP
 40
0.0
  9
$DIMTM
 40
0.0
  9
$DIMTXT
 40
0.18
  9
$DIMCEN
 40
0.09
  9
$DIMTSZ
 40
0.0
  9
$DIMTOL
 70
     0
  9
$DIMLIM
 70
     0
  9
$DIMTIH
 70
     1
  9
$DIMTOH
 70
     1
  9
$DIMSE1
 70
     0
  9
$DIMSE2
 70
     0
  9
$DIMTAD
 70
     0
  9
$DIMZIN
 70
     0
  9
$DIMBLK
  1

  9
$DIMASO
 70
     1
  9
$DIMSHO
 70
     1
  9
$DIMPOST
  1

  9
$DIMAPOST
  1

  9
$DIMALT
 70
     0
  9
$DIMALTD
 70
     2
  9
$DIMALTF
 40
25.4
  9
$DIMLFAC
 40
1.0
  9
$DIMTOFL
 70
     0
  9
$DIMTVP
 40
0.0
  9
$DIMTIX
 70
     0
  9
$DIMSOXD
 70
     0
  9
$DIMSAH
 70
     0
  9
$DIMBLK1
  1

  9
$DIMBLK2
  1

  9
$DIMSTYLE
  2
Standard
  9
$DIMCLRD
 70
     0
  9
$DIMCLRE
 70
     0
  9
$DIMCLRT
 70
     0
  9
$DIMTFAC
 40
1.0
  9
$DIMGAP
 40
0.09
  9
$DIMJUST
 70
     0
  9
$DIMSD1
 70
     0
  9
$DIMSD2
 70
     0
  9
$DIMTOLJ
 70
     1
  9
$DIMTZIN
 70
     0
  9
$DIMALTZ
 70
     0
  9
$DIMALTTZ
 70
     0
  9
$DIMUPT
 70
     0
  9
$DIMDEC
 70
     4
  9
$DIMTDEC
 70
     4
  9
$DIMALTU
 70
     2
  9
$DIMALTTD
 70
     2
  9
$DIMTXSTY
  7
Standard
  9
$DIMAUNIT
 70
     0
  9
$DIMADEC
 70
     0
  9
$DIMALTRND
 40
0.0
  9
$DIMAZIN
 70
     0
  9
$DIMDSEP
 70
    46
  9
$DIMATFIT
 70
     3
  9
$DIMFRAC
 70
     0
  9
$DIMLDRBLK
  1

  9
$DIMLUNIT
 70
     2
  9
$DIMLWD
 70
    -2
  9
$DIMLWE
 70
    -2
  9
$DIMTMOVE
 70
     0
  9
$DIMFXL
 40
1.0
  9
$DIMFXLON
 70
     0
  9
$DIMJOGANG
 40
0.7853981633974483
  9
$DIMTFILL
 70
     0
  9
$DIMTFILLCLR
 70
     0
  9
$DIMARCSYM
 70
     0
  9
$DIMLTYPE
  6

  9
$DIMLTEX1
  6

  9
$DIMLTEX2
  6

  9
$DIMTXTDIRECTION
 70
     0
  9
$LUNITS
 70
     2
  9
$LUPREC
 70
     4
  9
$SKETCHINC
 40
0.1
  9
$FILLETRAD
 40
0.0
  9
$AUNITS
 70
     0
  9
$AUPREC
 70
     0
  9
$MENU
  1
.
  9
$ELEVATION
 40
0.0
  9
$PELEVATION
 40
0.0
  9
$THICKNESS
 40
0.0
  9
$LIMCHECK
 70
     0
  9
$CHAMFERA
 40
0.0
  9
$CHAMFERB
 40
0.0
  9
$CHAMFERC
 40
0.0
  9
$CHAMFERD
 40
0.0
  9
$SKPOLY
 70
     0
  9
$TDCREATE
 40
2460730.513067129
  9
$TDUCREATE
 40
2460730.638067130
  9
$TDUPDATE
 40
2460738.910277778
  9
$TDUUPDATE
 40
2460739.035277778
  9
$TDINDWG
 40
0.0524768519
  9
$TDUSRTIMER
 40
0.0524768519
  9
$USRTIMER
 70
     1
  9
$ANGBASE
 50
0.0
  9
$ANGDIR
 70
     0
  9
$PDMODE
 70
     0
  9
$PDSIZE
 40
0.0
  9
$PLINEWID
 40
0.0
  9
$SPLFRAME
 70
     0
  9
$SPLINETYPE
 70
     6
  9
$SPLINESEGS
 70
     8
  9
$HANDSEED
  5
3CA
  9
$SURFTAB1
 70
     6
  9
$SURFTAB2
 70
     6
  9
$SURFTYPE
 70
     6
  9
$SURFU
 70
     6
  9
$SURFV
 70
     6
  9
$UCSBASE
  2

  9
$UCSNAME
  2

  9
$UCSORG
 10
0.0
 20
0.0
 30
0.0
  9
$UCSXDIR
 10
1.0
 20
0.0
 30
0.0
  9
$UCSYDIR
 10
0.0
 20
1.0
 30
0.0
  9
$UCSORTHOREF
  2

  9
$UCSORTHOVIEW
 70
     0
  9
$UCSORGTOP
 10
0.0
 20
0.0
 30
0.0
  9
$UCSORGBOTTOM
 10
0.0
 20
0.0
 30
0.0
  9
$UCSORGLEFT
 10
0.0
 20
0.0
 30
0.0
  9
$UCSORGRIGHT
 10
0.0
 20
0.0
 30
0.0
  9
$UCSORGFRONT
 10
0.0
 20
0.0
 30
0.0
  9
$UCSORGBACK
 10
0.0
 20
0.0
 30
0.0
  9
$PUCSBASE
  2

  9
$PUCSNAME
  2

  9
$PUCSORG
 10
0.0
 20
0.0
 30
0.0
  9
$PUCSXDIR
 10
1.0
 20
0.0
 30
0.0
  9
$PUCSYDIR
 10
0.0
 20
1.0
 30
0.0
  9
$PUCSORTHOREF
  2

  9
$PUCSORTHOVIEW
 70
     0
  9
$PUCSORGTOP
 10
0.0
 20
0.0
 30
0.0
  9
$PUCSORGBOTTOM
 10
0.0
 20
0.0
 30
0.0
  9
$PUCSORGLEFT
 10
0.0
 20
0.0
 30
0.0
  9
$PUCSORGRIGHT
 10
0.0
 20
0.0
 30
0.0
  9
$PUCSORGFRONT
 10
0.0
 20
0.0
 30
0.0
  9
$PUCSORGBACK
 10
0.0
 20
0.0
 30
0.0
  9
$USERI1
 70
     0
  9
$USERI2
 70
     0
  9
$USERI3
 70
     0
  9
$USERI4
 70
     0
  9
$USERI5
 70
     0
  9
$USERR1
 40
0.0
  9
$USERR2
 40
0.0
  9
$USERR3
 40
0.0
  9
$USERR4
 40
0.0
  9
$USERR5
 40
0.0
  9
$WORLDVIEW
 70
     1
  9
$SHADEDGE
 70
     3
  9
$SHADEDIF
 70
    70
  9
$TILEMODE
 70
     1
  9
$MAXACTVP
 70
    64
  9
$PINSBASE
 10
0.0
 20
0.0
 30
0.0
  9
$PLIMCHECK
 70
     0
  9
$PEXTMIN
 10
29.69999999999999
 20
20.98886566162111
 30
0.0
  9
$PEXTMAX
 10
267.3
 20
188.8997909545898
 30
0.0
  9
$PLIMMIN
 10
0.0
 20
0.0
  9
$PLIMMAX
 10
297.0
 20
210.0
  9
$UNITMODE
 70
     0
  9
$VISRETAIN
 70
     1
  9
$PLINEGEN
 70
     0
  9
$PSLTSCALE
 70
     1
  9
$TREEDEPTH
 70
  3020
  9
$CMLSTYLE
  2
Standard
  9
$CMLJUST
 70
     0
  9
$CMLSCALE
 40
1.0
  9
$PROXYGRAPHICS
 70
     1
  9
$MEASUREMENT
 70
     1
  9
$CELWEIGHT
370
    -1
  9
$ENDCAPS
280
     0
  9
$JOINSTYLE
280
     0
  9
$LWDISPLAY
290
     0
  9
$INSUNITS
 70
     4
  9
$HYPERLINKBASE
  1

  9
$STYLESHEET
  1

  9
$XEDIT
290
     1
  9
$CEPSNTYPE
380
     0
  9
$PSTYLEMODE
290
     1
  9
$FINGERPRINTGUID
  2
{E296D95C-0549-1A49-BCD6-08FE588356B4}
  9
$VERSIONGUID
  2
{6F665DD6-0097-0845-B6FB-659E6730E577}
  9
$EXTNAMES
290
     1
  9
$PSVPSCALE
 40
0.0
  9
$OLESTARTUP
290
     0
  9
$SORTENTS
280
   127
  9
$INDEXCTL
280
     0
  9
$HIDETEXT
280
     1
  9
$XCLIPFRAME
280
     2
  9
$HALOGAP
280
     0
  9
$OBSCOLOR
 70
   257
  9
$OBSLTYPE
280
     0
  9
$INTERSECTIONDISPLAY
280
     0
  9
$INTERSECTIONCOLOR
 70
   257
  9
$DIMASSOC
280
     2
  9
$PROJECTNAME
  1

  9
$CAMERADISPLAY
290
     0
  9
$LENSLENGTH
 40
50.0
  9
$CAMERAHEIGHT
 40
0.0
  9
$STEPSPERSEC
 40
2.0
  9
$STEPSIZE
 40
6.0
  9
$3DDWFPREC
 40
2.0
  9
$PSOLWIDTH
 40
0.25
  9
$PSOLHEIGHT
 40
4.0
  9
$LOFTANG1
 40
1.570796326794896
  9
$LOFTANG2
 40
1.570796326794896
  9
$LOFTMAG1
 40
0.0
  9
$LOFTMAG2
 40
0.0
  9
$LOFTPARAM
 70
     7
  9
$LOFTNORMALS
280
     1
  9
$LATITUDE
 40
0.0
  9
$LONGITUDE
 40
0.0
  9
$NORTHDIRECTION
 40
0.0
  9
$TIMEZONE
 70
     0
  9
$LIGHTGLYPHDISPLAY
280
     1
  9
$TILEMODELIGHTSYNCH
280
     1
  9
$CMATERIAL
347
11
  9
$SOLIDHIST
280
     0
  9
$SHOWHIST
280
     1
  9
$DWFFRAME
280
     2
  9
$DGNFRAME
280
     0
  9
$REALWORLDSCALE
290
     1
  9
$INTERFERECOLOR
 62
     1
  9
$INTERFEREOBJVS
345
33
  9
$INTERFEREVPVS
346
30
  9
$CSHADOW
280
     0
  9
$SHADOWPLANELOCATION
 40
0.0
  0
ENDSEC
  0
SECTION
  2
CLASSES
  0
CLASS
  1
ACDBDICTIONARYWDFLT
  2
AcDbDictionaryWithDefault
  3
ObjectDBX Classes
 90
        0
 91
        1
280
     0
281
     0
  0
CLASS
  1
MATERIAL
  2
AcDbMaterial
  3
ObjectDBX Classes
 90
     1153
 91
        3
280
     0
281
     0
  0
CLASS
  1
VISUALSTYLE
  2
AcDbVisualStyle
  3
ObjectDBX Classes
 90
     4095
 91
       24
280
     0
281
     0
  0
CLASS
  1
SCALE
  2
AcDbScale
  3
ObjectDBX Classes
 90
     1153
 91
       17
280
     0
281
     0
  0
CLASS
  1
TABLESTYLE
  2
AcDbTableStyle
  3
ObjectDBX Classes
 90
     4095
 91
        1
280
     0
281
     0
  0
CLASS
  1
MLEADERSTYLE
  2
AcDbMLeaderStyle
  3
ACDB_MLEADERSTYLE_CLASS
 90
     4095
 91
        1
280
     0
281
     0
  0
CLASS
  1
ACDBSECTIONVIEWSTYLE
  2
AcDbSectionViewStyle
  3
ObjectDBX Classes
 90
     1025
 91
        2
280
     0
281
     0
  0
CLASS
  1
ACDBDETAILVIEWSTYLE
  2
AcDbDetailViewStyle
  3
ObjectDBX Classes
 90
     1025
 91
        2
280
     0
281
     0
  0
CLASS
  1
RASTERVARIABLES
  2
AcDbRasterVariables
  3
ISM
 90
        0
 91
        1
280
     0
281
     0
  0
CLASS
  1
DICTIONARYVAR
  2
AcDbDictionaryVar
  3
ObjectDBX Classes
 90
        0
 91
        5
280
     0
281
     0
  0
CLASS
  1
SORTENTSTABLE
  2
AcDbSortentsTable
  3
ObjectDBX Classes
 90
        0
 91
        1
280
     0
281
     0
  0
CLASS
  1
SUN
  2
AcDbSun
  3
SCENEOE
 90
     1153
 91
        1
280
     0
281
     0
  0
CLASS
  1
RAPIDRTRENDERSETTINGS
  2
AcDbRapidRTRenderSettings
  3
ObjectDBX Classes
 90
     1024
 91
        7
280
     0
281
     0
  0
CLASS
  1
CELLSTYLEMAP
  2
AcDbCellStyleMap
  3
ObjectDBX Classes
 90
     1152
 91
        1
280
     0
281
     0
  0
ENDSEC
  0
SECTION
  2
TABLES
  0
TABLE
  2
VPORT
  5
8
330
0
100
AcDbSymbolTable
 70
     1
  0
VPORT
  5
57
330
8
100
AcDbSymbolTableRecord
100
AcDbViewportTableRecord
  2
*Active
 70
     0
 10
0.0
 20
0.0
 11
1.0
 21
1.0
 12
22670.49200069856
 22
19007.84593358598
 13
0.0
 23
0.0
 14
1.0
 24
1.0
 15
0.0
 25
0.0
 16
0.0
 26
0.0
 36
1.0
 17
0.0
 27
0.0
 37
0.0
 40
23759.33783420466
 41
2.531208499335989
 42
50.0
 43
0.0
 44
0.0
 50
0.0
 51
0.0
 71
     0
 72
  1000
 73
     1
 74
     1
 75
     0
 76
     0
 77
     0
 78
     0
281
     0
 65
     1
110
0.0
120
0.0
130
0.0
111
1.0
121
0.0
131
0.0
112
0.0
122
1.0
132
0.0
 79
     0
146
0.0
348
2F
 60
     3
 61
     5
292
     1
282
     1
141
0.0
142
0.0
 63
   250
421
  3355443
361
220
1001
ACAD_NAV_VCDISPLAY
1070
     3
  0
ENDTAB
  0
TABLE
  2
LTYPE
  5
5
330
0
100
AcDbSymbolTable
 70
     1
  0
LTYPE
  5
5B
330
5
100
AcDbSymbolTableRecord
100
AcDbLinetypeTableRecord
  2
ByBlock
 70
     0
  3

 72
    65
 73
     0
 40
0.0
  0
LTYPE
  5
5C
330
5
100
AcDbSymbolTableRecord
100
AcDbLinetypeTableRecord
  2
ByLayer
 70
     0
  3

 72
    65
 73
     0
 40
0.0
  0
LTYPE
  5
5D
330
5
100
AcDbSymbolTableRecord
100
AcDbLinetypeTableRecord
  2
Continuous
 70
     0
  3
Solid line
 72
    65
 73
     0
 40
0.0
  0
ENDTAB
  0
TABLE
  2
LAYER
  5
2
102
{ACAD_XDICTIONARY
360
23F
102
}
330
0
100
AcDbSymbolTable
 70
     8
  0
LAYER
  5
54
330
2
100
AcDbSymbolTableRecord
100
AcDbLayerTableRecord
  2
0
 70
     0
 62
   250
  6
Continuous
370
    25
390
F
347
21
348
0
  0
LAYER
  5
81
330
2
100
AcDbSymbolTableRecord
100
AcDbLayerTableRecord
  2
A-TUB-___-___-EXI
 70
     0
 62
   250
  6
Continuous
370
    25
390
F
347
21
348
0
  0
LAYER
  5
82
330
2
100
AcDbSymbolTableRecord
100
AcDbLayerTableRecord
  2
A-ESC-___-___-EXI
 70
     0
 62
   250
  6
Continuous
370
    25
390
F
347
21
348
0
  0
LAYER
  5
83
330
2
100
AcDbSymbolTableRecord
100
AcDbLayerTableRecord
  2
A-POR-___-___-EXI
 70
     0
 62
   250
  6
Continuous
370
    25
390
F
347
21
348
0
  0
LAYER
  5
15B
330
2
100
AcDbSymbolTableRecord
100
AcDbLayerTableRecord
  2
A-JAN-___-___-EXI
 70
     0
 62
   250
  6
Continuous
370
    25
390
F
347
21
348
0
  0
LAYER
  5
208
330
2
100
AcDbSymbolTableRecord
100
AcDbLayerTableRecord
  2
A-ALV-___-___-EXI
 70
     0
 62
   250
  6
Continuous
370
    35
390
F
347
21
348
0
  0
LAYER
  5
20E
330
2
100
AcDbSymbolTableRecord
100
AcDbLayerTableRecord
  2
A-CER-___-___-EXI
 70
     0
 62
   250
  6
Continuous
370
    25
390
F
347
21
348
0
  0
LAYER
  5
210
330
2
100
AcDbSymbolTableRecord
100
AcDbLayerTableRecord
  2
A-PIL-___-___-EXI
 70
     0
 62
   250
  6
Continuous
370
    25
390
F
347
21
348
0
  0
ENDTAB
  0
TABLE
  2
STYLE
  5
3
330
0
100
AcDbSymbolTable
 70
     4
  0
STYLE
  5
55
330
3
100
AcDbSymbolTableRecord
100
AcDbTextStyleTableRecord
  2
Standard
 70
     0
 40
0.0
 41
1.0
 50
0.0
 71
     0
 42
0.2
  3
txt
  4

  0
STYLE
  5
5A
330
3
100
AcDbSymbolTableRecord
100
AcDbTextStyleTableRecord
  2
Annotative
 70
     0
 40
0.0
 41
1.0
 50
0.0
 71
     0
 42
0.2
  3
txt
  4

1001
AcadAnnotative
1000
AnnotativeData
1002
{
1070
     1
1070
     1
1002
}
  0
STYLE
  5
156
330
3
100
AcDbSymbolTableRecord
100
AcDbTextStyleTableRecord
  2
Arial
 70
     0
 40
2.217732667922973
 41
1.0
 50
0.0
 71
     0
 42
0.2
  3
arial.ttf
  4

1001
ACAD
1000
Arial
1071
       34
  0
STYLE
  5
158
330
3
100
AcDbSymbolTableRecord
100
AcDbTextStyleTableRecord
  2
Arial_1
 70
     0
 40
2.217721462249755
 41
1.0
 50
0.0
 71
     0
 42
0.2
  3
arial.ttf
  4

1001
ACAD
1000
Arial
1071
       34
  0
ENDTAB
  0
TABLE
  2
VIEW
  5
6
330
0
100
AcDbSymbolTable
 70
     1
  0
ENDTAB
  0
TABLE
  2
UCS
  5
7
330
0
100
AcDbSymbolTable
 70
     0
  0
ENDTAB
  0
TABLE
  2
APPID
  5
9
330
0
100
AcDbSymbolTable
 70
     6
  0
APPID
  5
56
330
9
100
AcDbSymbolTableRecord
100
AcDbRegAppTableRecord
  2
ACAD
 70
     0
  0
APPID
  5
5E
330
9
100
AcDbSymbolTableRecord
100
AcDbRegAppTableRecord
  2
AcadAnnotative
 70
     0
  0
APPID
  5
78
330
9
100
AcDbSymbolTableRecord
100
AcDbRegAppTableRecord
  2
REVIT
 70
     0
  0
APPID
  5
231
330
9
100
AcDbSymbolTableRecord
100
AcDbRegAppTableRecord
  2
ACAD_PSEXT
 70
     0
  0
APPID
  5
25D
330
9
100
AcDbSymbolTableRecord
100
AcDbRegAppTableRecord
  2
ACAD_NAV_VCDISPLAY
 70
     0
  0
APPID
  5
353
330
9
100
AcDbSymbolTableRecord
100
AcDbRegAppTableRecord
  2
ACAD_EXEMPT_FROM_CAD_STANDARDS
 70
     0
  0
ENDTAB
  0
TABLE
  2
DIMSTYLE
  5
A
330
0
100
AcDbSymbolTable
 70
     2
100
AcDbDimStyleTable
 71
     0
  0
DIMSTYLE
105
58
330
A
100
AcDbSymbolTableRecord
100
AcDbDimStyleTableRecord
  2
Standard
 70
     0
340
55
  0
DIMSTYLE
105
59
330
A
100
AcDbSymbolTableRecord
100
AcDbDimStyleTableRecord
  2
Annotative
 70
     0
340
55
1001
AcadAnnotative
1000
AnnotativeData
1002
{
1070
     1
1070
     1
1002
}
  0
ENDTAB
  0
TABLE
  2
BLOCK_RECORD
  5
1
330
0
100
AcDbSymbolTable
 70
     2
  0
BLOCK_RECORD
  5
70
102
{ACAD_XDICTIONARY
360
21D
102
}
330
1
100
AcDbSymbolTableRecord
100
AcDbBlockTableRecord
  2
*Model_Space
340
73
 70
     0
280
     1
281
     0
  0
BLOCK_RECORD
  5
74
330
1
100
AcDbSymbolTableRecord
100
AcDbBlockTableRecord
  2
*Paper_Space
340
77
 70
     0
280
     1
281
     0
  0
BLOCK_RECORD
  5
F5
330
1
100
AcDbSymbolTableRecord
100
AcDbBlockTableRecord
  2
page_1_cd2bbd76b14634229ba42b1e42fafada_65830cd3c4dd2_dwg-22395977-Planta baixa - Térreo_
340
0
 70
     0
280
     1
281
     0
  0
BLOCK_RECORD
  5
20F
330
1
100
AcDbSymbolTableRecord
100
AcDbBlockTableRecord
  2
SVG - A4-22440810-Não nomeada
340
0
 70
     0
280
     1
281
     0
  0
ENDTAB
  0
ENDSEC
  0
SECTION
  2
BLOCKS
  0
BLOCK
  5
71
330
70
100
AcDbEntity
  8
0
100
AcDbBlockBegin
  2
*Model_Space
 70
     0
 10
0.0
 20
0.0
 30
0.0
  3
*Model_Space
  1

  0
ENDBLK
  5
72
330
70
100
AcDbEntity
  8
0
100
AcDbBlockEnd
  0
BLOCK
  5
75
330
74
100
AcDbEntity
 67
     1
  8
0
100
AcDbBlockBegin
  2
*Paper_Space
 70
     0
 10
0.0
 20
0.0
 30
0.0
  3
*Paper_Space
  1

  0
ENDBLK
  5
76
330
74
100
AcDbEntity
 67
     1
  8
0
100
AcDbBlockEnd
  0
BLOCK
  5
153
330
F5
100
AcDbEntity
  8
0
100
AcDbBlockBegin
  2
page_1_cd2bbd76b14634229ba42b1e42fafada_65830cd3c4dd2_dwg-22395977-Planta baixa - Térreo_
 70
     0
 10
0.0
 20
0.0
 30
0.0
  3
page_1_cd2bbd76b14634229ba42b1e42fafada_65830cd3c4dd2_dwg-22395977-Planta baixa - Térreo_
  1

  0
HATCH
  5
F9
330
F5
100
AcDbEntity
  8
0
 62
     9
370
     9
100
AcDbHatch
 10
0.0
 20
0.0
 30
0.0
210
0.0
220
0.0
230
1.0
  2
SOLID
 70
     1
 71
     0
 91
        1
 92
        1
 93
        3
 72
     1
 10
137.2446721202909
 20
272.9230108449865
 11
136.4403387549892
 21
292.77734496726
 72
     1
 10
136.4403387549892
 20
292.77734496726
 11
136.4033867761208
 21
292.77734496726
 72
     1
 10
136.4033867761208
 20
292.77734496726
 11
137.2446721202909
 21
272.9230108449865
 97
        0
 75
     0
 76
     1
 98
        1
 10
0.0
 20
0.0
450
        0
451
        0
460
0.0
461
0.0
452
        0
462
0.0
453
        0
470

1001
REVIT
1002
{
1070
     1
1000
22396001
1002
}
1002
{
1070
     5
1000
22395977
1002
}
1002
{
1070
     3
1000
22395980
1002
}
  0
HATCH
  5
FD
330
F5
100
AcDbEntity
  8
0
 62
    18
370
     9
100
AcDbHatch
 10
0.0
 20
0.0
 30
0.0
210
0.0
220
0.0
230
1.0
  2
SOLID
 70
     1
 71
     0
 91
        1
 92
        1
 93
        3
 72
     1
 10
171.6031464039703
 20
243.8651401877826
 11
171.6616734878948
 21
243.9246763593625
 72
     1
 10
171.6616734878948
 20
243.9246763593625
 11
171.6031464039703
 21
243.9246763593625
 72
     1
 10
171.6031464039703
 20
243.9246763593625
 11
171.6031464039703
 21
243.8651401877826
 97
        0
 75
     0
 76
     1
 98
        1
 10
0.0
 20
0.0
450
        0
451
        0
460
0.0
461
0.0
452
        0
462
0.0
453
        0
470

1001
REVIT
1002
{
1070
     1
1000
22396001
1002
}
1002
{
1070
     5
1000
22395977
1002
}
1002
{
1070
     3
1000
22395980
1002
}
  0
HATCH
  5
101
330
F5
100
AcDbEntity
  8
0
 62
     9
370
     9
100
AcDbHatch
 10
0.0
 20
0.0
 30
0.0
210
0.0
220
0.0
230
1.0
  2
SOLID
 70
     1
 71
     0
 91
        1
 92
        1
 93
        3
 72
     1
 10
58.71633566651496
 20
348.276347172592
 11
58.99036061587215
 21
348.2974023224568
 72
     1
 10
58.99036061587215
 20
348.2974023224568
 11
58.71739025560007
 21
348.2764500137264
 72
     1
 10
58.71739025560007
 20
348.2764500137264
 11
58.71633566651496
 21
348.276347172592
 97
        0
 75
     0
 76
     1
 98
        1
 10
0.0
 20
0.0
450
        0
451
        0
460
0.0
461
0.0
452
        0
462
0.0
453
        0
470

1001
REVIT
1002
{
1070
     1
1000
22396001
1002
}
1002
{
1070
     5
1000
22395977
1002
}
1002
{
1070
     3
1000
22395980
1002
}
  0
SPLINE
  5
102
330
F5
100
AcDbEntity
  8
0
 62
    18
370
     9
100
AcDbSpline
210
0.0
220
0.0
230
1.0
 70
     8
 71
     3
 72
     8
 73
     4
 74
     0
 42
0.000000001
 43
0.0000000001
 40
0.6884764107771054
 40
0.6884764107771054
 40
0.6884764107771054
 40
0.6884764107771054
 40
0.7413406223086123
 40
0.7413406223086123
 40
0.7413406223086123
 40
0.7413406223086123
 10
172.0748145410132
 20
255.2286800346925
 30
0.0
 10
171.9311017088838
 20
255.3064676786528
 30
0.0
 10
171.7838488663708
 20
255.3785499511008
 30
0.0
 10
171.6333596859747
 20
255.4446231841101
 30
0.0
1001
REVIT
1002
{
1070
     1
1000
22396001
1002
}
1002
{
1070
     5
1000
22395977
1002
}
1002
{
1070
     3
1000
22395980
1002
}
  0
SPLINE
  5
103
330
F5
100
AcDbEntity
  8
0
 62
    18
370
     9
100
AcDbSpline
210
0.0
220
0.0
230
1.0
 70
     8
 71
     3
 72
     8
 73
     4
 74
     0
 42
0.000000001
 43
0.0000000001
 40
0.2586593776913879
 40
0.2586593776913879
 40
0.2586593776913879
 40
0.2586593776913879
 40
0.3885337632864562
 40
0.3885337632864562
 40
0.3885337632864562
 40
0.3885337632864562
 10
171.6333596859747
 20
244.4697269383054
 30
0.0
 10
172.0030746457961
 20
244.6320517959135
 30
0.0
 10
172.3532562277956
 20
244.8306449880569
 30
0.0
 10
172.6794015484224
 20
245.0610038349517
 30
0.0
1001
REVIT
1002
{
1070
     1
1000
22396001
1002
}
1002
{
1070
     5
1000
22395977
1002
}
1002
{
1070
     3
1000
22395980
1002
}
  0
LINE
  5
104
330
F5
100
AcDbEntity
  8
0
 62
    18
370
     9
100
AcDbLine
 10
57.24574073632662
 20
299.2830016354346
 30
0.0
 11
51.43500204385193
 21
399.0340158561872
 31
0.0
1001
REVIT
1002
{
1070
     1
1000
22396001
1002
}
1002
{
1070
     5
1000
22395977
1002
}
1002
{
1070
     3
1000
22395980
1002
}
  0
LWPOLYLINE
  5
105
330
F5
100
AcDbEntity
  8
0
 62
    18
370
     9
100
AcDbPolyline
 90
        6
 70
   128
 43
0.0
 10
33.65500133733629
 20
391.4140155533958
 10
104.7750041633902
 20
391.4140155533957
 10
107.2303375942948
 20
402.5900159974904
 10
111.2520044207688
 20
380.2380151093014
 10
113.7073378516648
 20
391.4140155533956
 10
163.4913398299052
 20
391.4140155533955
1001
REVIT
1002
{
1070
     1
1000
22396001
1002
}
1002
{
1070
     5
1000
22395977
1002
}
1002
{
1070
     3
1000
22395980
1002
}
  0
LINE
  5
106
330
F5
100
AcDbEntity
  8
0
 62
    18
370
     9
100
AcDbLine
 10
166.4970066160021
 20
391.4140155533955
 30
0.0
 11
180.8480071862616
 21
391.4140155533955
 31
0.0
1001
REVIT
1002
{
1070
     1
1000
22396001
1002
}
1002
{
1070
     5
1000
22395977
1002
}
1002
{
1070
     3
1000
22395980
1002
}
  0
LINE
  5
107
330
F5
100
AcDbEntity
  8
0
 62
   254
370
    15
100
AcDbLine
 10
160.3695101513033
 20
334.7409871730452
 30
0.0
 11
160.4010063737746
 21
334.7720133026439
 31
0.0
1001
REVIT
1002
{
1070
     1
1000
22396001
1002
}
1002
{
1070
     5
1000
22395977
1002
}
1002
{
1070
     3
1000
22395980
1002
}
  0
LINE
  5
108
330
F5
100
AcDbEntity
  8
0
 62
   254
370
    15
100
AcDbLine
 10
160.5414731569985
 20
332.2035774890069
 30
0.0
 11
160.5703397138331
 21
332.2320132017138
 31
0.0
1001
REVIT
1002
{
1070
     1
1000
22396001
1002
}
1002
{
1070
     5
1000
22395977
1002
}
1002
{
1070
     3
1000
22395980
1002
}
  0
LINE
  5
109
330
F5
100
AcDbEntity
  8
0
 62
   254
370
    15
100
AcDbLine
 10
160.7107741340828
 20
329.7054475159852
 30
0.0
 11
160.7396730538916
 21
329.7343464357988
 31
0.0
1001
REVIT
1002
{
1070
     1
1000
22396001
1002
}
1002
{
1070
     5
1000
22395977
1002
}
1002
{
1070
     3
1000
22395980
1002
}
  0
LINE
  5
10A
330
F5
100
AcDbEntity
  8
0
 62
   254
370
    15
100
AcDbLine
 10
158.0726729479204
 20
324.4003462238443
 30
0.0
 11
158.0956003317214
 21
324.4229314078893
 31
0.0
1001
REVIT
1002
{
1070
     1
1000
22396001
1002
}
1002
{
1070
     5
1000
22395977
1002
}
1002
{
1070
     3
1000
22395980
1002
}
  0
LINE
  5
10B
330
F5
100
AcDbEntity
  8
0
 62
   254
370
    15
100
AcDbLine
 10
160.8827097376261
 20
327.1684421659431
 30
0.0
 11
160.9090063939588
 21
327.1943463348681
 31
0.0
1001
REVIT
1002
{
1070
     1
1000
22396001
1002
}
1002
{
1070
     5
1000
22395977
1002
}
1002
{
1070
     3
1000
22395980
1002
}
  0
LINE
  5
10C
330
F5
100
AcDbEntity
  8
0
 62
   254
370
    15
100
AcDbLine
 10
158.2420062879789
 20
321.8603461229142
 30
0.0
 11
158.2682697451127
 21
321.8866095800481
 31
0.0
1001
REVIT
1002
{
1070
     1
1000
22396001
1002
}
1002
{
1070
     5
1000
22395977
1002
}
1002
{
1070
     3
1000
22395980
1002
}
  0
LINE
  5
10D
330
F5
100
AcDbEntity
  8
0
 62
   254
370
    15
100
AcDbLine
 10
161.0520082802259
 20
324.6703481151564
 30
0.0
 11
161.0783397340173
 21
324.6966795689532
 31
0.0
1001
REVIT
1002
{
1070
     1
1000
22396001
1002
}
1002
{
1070
     5
1000
22395977
1002
}
1002
{
1070
     3
1000
22395980
1002
}
  0
LINE
  5
10E
330
F5
100
AcDbEntity
  8
0
 62
   254
370
    15
100
AcDbLine
 10
158.411339628046
 20
319.3626793569988
 30
0.0
 11
158.4382883069098
 21
319.3892258167793
 31
0.0
1001
REVIT
1002
{
1070
     1
1000
22396001
1002
}
1002
{
1070
     5
1000
22395977
1002
}
1002
{
1070
     3
1000
22395980
1002
}
  0
LINE
  5
10F
330
F5
100
AcDbEntity
  8
0
 62
   254
370
    15
100
AcDbLine
 10
161.2239463182537
 20
322.1333068428788
 30
0.0
 11
161.2476730740845
 21
322.1566794680226
 31
0.0
1001
REVIT
1002
{
1070
     1
1000
22396001
1002
}
1002
{
1070
     5
1000
22395977
1002
}
1002
{
1070
     3
1000
22395980
1002
}
  0
LINE
  5
110
330
F5
100
AcDbEntity
  8
0
 62
   254
370
    15
100
AcDbLine
 10
161.3932652573229
 20
319.6349118307924
 30
0.0
 11
161.417006414143
 21
319.6590127021076
 31
0.0
1001
REVIT
1002
{
1070
     1
1000
22396001
1002
}
1002
{
1070
     5
1000
22395977
1002
}
1002
{
1070
     3
1000
22395980
1002
}
  0
LINE
  5
111
330
F5
100
AcDbEntity
  8
0
 62
   254
370
    15
100
AcDbLine
 10
162.2503581162725
 20
306.9880305342919
 30
0.0
 11
162.3060064494696
 21
307.0436788674858
 31
0.0
1001
REVIT
1002
{
1070
     1
1000
22396001
1002
}
1002
{
1070
     5
1000
22395977
1002
}
1002
{
1070
     3
1000
22395980
1002
}
  0
LINE
  5
112
330
F5
100
AcDbEntity
  8
0
 62
   254
370
    15
100
AcDbLine
 10
162.422267593368
 20
304.4514106945735
 30
0.0
 11
162.4753397895281
 21
304.5036787665551
 31
0.0
1001
REVIT
1002
{
1070
     1
1000
22396001
1002
}
1002
{
1070
     5
1000
22395977
1002
}
1002
{
1070
     3
1000
22395980
1002
}
  0
LINE
  5
113
330
F5
100
AcDbEntity
  8
0
 62
   254
370
    15
100
AcDbLine
 10
162.6023397945785
 20
301.963678665625
 30
0.0
 11
162.6446731295953
 21
302.0060120006402
 31
0.0
1001
REVIT
1002
{
1070
     1
1000
22396001
1002
}
1002
{
1070
     5
1000
22395977
1002
}
1002
{
1070
     3
1000
22395980
1002
}
  0
LINE
  5
114
330
F5
100
AcDbEntity
  8
0
 62
    18
370
     9
100
AcDbLine
 10
172.6806868189075
 20
244.9187280891667
 30
0.0
 11
171.6031464039703
 21
243.8357999721555
 31
0.0
1001
REVIT
1002
{
1070
     1
1000
22396001
1002
}
1002
{
1070
     5
1000
22395977
1002
}
1002
{
1070
     3
1000
22395980
1002
}
  0
LWPOLYLINE
  5
115
330
F5
100
AcDbEntity
  8
0
 62
    18
370
     9
100
AcDbPolyline
 90
        3
 70
   128
 43
0.0
 10
172.6750995247257
 20
245.0077999533703
 10
172.3390068481462
 20
244.5596763845954
 10
172.6817121923501
 20
244.9023817288009
1001
REVIT
1002
{
1070
     1
1000
22396001
1002
}
1002
{
1070
     5
1000
22395977
1002
}
1002
{
1070
     3
1000
22395980
1002
}
  0
LWPOLYLINE
  5
116
330
F5
100
AcDbEntity
  8
0
 62
    18
370
     9
100
AcDbPolyline
 90
        4
 70
   128
 43
0.0
 10
172.6817121923501
 20
244.9023817288009
 10
172.3390068481462
 20
244.5596763845954
 10
171.9156734979869
 20
244.5596763845954
 10
172.6731980532834
 20
245.038112945832
1001
REVIT
1002
{
1070
     1
1000
22396001
1002
}
1002
{
1070
     5
1000
22395977
1002
}
1002
{
1070
     3
1000
22395980
1002
}
  0
LWPOLYLINE
  5
117
330
F5
100
AcDbEntity
  8
0
 62
    18
370
     9
100
AcDbPolyline
 90
        3
 70
   129
 43
0.0
 10
172.3390068481462
 20
244.5596763845949
 10
171.9156734979869
 20
244.5596763845949
 10
171.9580068330037
 20
244.2210097044708
1001
REVIT
1002
{
1070
     1
1000
22396001
1002
}
1002
{
1070
     5
1000
22395977
1002
}
1002
{
1070
     3
1000
22395980
1002
}
  0
LWPOLYLINE
  5
118
330
F5
100
AcDbEntity
  8
0
 62
    18
370
     9
100
AcDbPolyline
 90
        3
 70
   128
 43
0.0
 10
171.9156734979869
 20
244.5596763845954
 10
171.9580068330037
 20
244.2210097044714
 10
171.6031464039703
 20
244.2210097044714
1001
REVIT
1002
{
1070
     1
1000
22396001
1002
}
1002
{
1070
     5
1000
22395977
1002
}
1002
{
1070
     3
1000
22395980
1002
}
  0
LINE
  5
119
330
F5
100
AcDbEntity
  8
0
 62
    18
370
     9
100
AcDbLine
 10
171.6031464039703
 20
244.4346655469878
 30
0.0
 11
171.9156734979869
 21
244.5596763845954
 31
0.0
1001
REVIT
1002
{
1070
     1
1000
22396001
1002
}
1002
{
1070
     5
1000
22395977
1002
}
1002
{
1070
     3
1000
22395980
1002
}
  0
LINE
  5
11A
330
F5
100
AcDbEntity
  8
0
 62
    18
370
     9
100
AcDbLine
 10
171.9580068330037
 20
244.2210097044714
 30
0.0
 11
171.6031464039703
 21
244.2210097044714
 31
0.0
1001
REVIT
1002
{
1070
     1
1000
22396001
1002
}
1002
{
1070
     5
1000
22395977
1002
}
1002
{
1070
     3
1000
22395980
1002
}
  0
LWPOLYLINE
  5
11B
330
F5
100
AcDbEntity
  8
0
 62
    18
370
     9
100
AcDbPolyline
 90
        3
 70
   128
 43
0.0
 10
171.6031464039703
 20
244.0540910775053
 10
171.7463401579284
 20
244.0093430293939
 10
171.9580068330037
 20
244.2210097044714
1001
REVIT
1002
{
1070
     1
1000
22396001
1002
}
1002
{
1070
     5
1000
22395977
1002
}
1002
{
1070
     3
1000
22395980
1002
}
  0
LWPOLYLINE
  5
11C
330
F5
100
AcDbEntity
  8
0
 62
    18
370
     9
100
AcDbPolyline
 90
        3
 70
   128
 43
0.0
 10
171.6031464039703
 20
244.0540910775053
 10
171.7463401579284
 20
244.0093430293939
 10
171.6031464039703
 20
244.0093430293939
1001
REVIT
1002
{
1070
     1
1000
22396001
1002
}
1002
{
1070
     5
1000
22395977
1002
}
1002
{
1070
     3
1000
22395980
1002
}
  0
LWPOLYLINE
  5
11D
330
F5
100
AcDbEntity
  8
0
 62
    18
370
     9
100
AcDbPolyline
 90
        3
 70
   128
 43
0.0
 10
171.6031464039703
 20
243.9246763593625
 10
171.6616734878948
 20
243.9246763593625
 10
171.6031464039703
 20
243.8651401877826
1001
REVIT
1002
{
1070
     1
1000
22396001
1002
}
1002
{
1070
     5
1000
22395977
1002
}
1002
{
1070
     3
1000
22395980
1002
}
  0
LWPOLYLINE
  5
11E
330
F5
100
AcDbEntity
  8
0
 62
    18
370
     9
100
AcDbPolyline
 90
        3
 70
   128
 43
0.0
 10
171.6031464039703
 20
244.0045699042617
 10
171.7463401579284
 20
244.0093430293939
 10
171.6031464039703
 20
244.0093430293939
1001
REVIT
1002
{
1070
     1
1000
22396001
1002
}
1002
{
1070
     5
1000
22395977
1002
}
1002
{
1070
     3
1000
22395980
1002
}
  0
LWPOLYLINE
  5
11F
330
F5
100
AcDbEntity
  8
0
 62
    18
370
     9
100
AcDbPolyline
 90
        4
 70
   128
 43
0.0
 10
171.6031464039703
 20
243.9279278640254
 10
171.6616734878948
 20
243.9246763593625
 10
171.7463401579284
 20
244.0093430293939
 10
171.6031464039703
 20
244.0093430293939
1001
REVIT
1002
{
1070
     1
1000
22396001
1002
}
1002
{
1070
     5
1000
22395977
1002
}
1002
{
1070
     3
1000
22395980
1002
}
  0
LWPOLYLINE
  5
120
330
F5
100
AcDbEntity
  8
0
 62
    18
370
     9
100
AcDbPolyline
 90
        3
 70
   128
 43
0.0
 10
57.53100228608809
 20
292.9799402134063
 10
57.31933561100413
 20
292.6926782972292
 10
57.53100228608809
 20
292.9175741394995
1001
REVIT
1002
{
1070
     1
1000
22396001
1002
}
1002
{
1070
     5
1000
22395977
1002
}
1002
{
1070
     3
1000
22395980
1002
}
  0
LWPOLYLINE
  5
121
330
F5
100
AcDbEntity
  8
0
 62
    18
370
     9
100
AcDbPolyline
 90
        4
 70
   128
 43
0.0
 10
57.53100228608809
 20
292.9175741394995
 10
57.31933561100413
 20
292.6926782972292
 10
57.23466894097922
 20
292.7773449672601
 10
57.53100228608809
 20
293.0921991464383
1001
REVIT
1002
{
1070
     1
1000
22396001
1002
}
1002
{
1070
     5
1000
22395977
1002
}
1002
{
1070
     3
1000
22395980
1002
}
  0
LWPOLYLINE
  5
122
330
F5
100
AcDbEntity
  8
0
 62
    18
370
     9
100
AcDbPolyline
 90
        3
 70
   128
 43
0.0
 10
57.53100228608809
 20
258.9614769568714
 10
57.27700227599601
 20
258.6566769447597
 10
57.53100228608809
 20
258.9265519554836
1001
REVIT
1002
{
1070
     1
1000
22396001
1002
}
1002
{
1070
     5
1000
22395977
1002
}
1002
{
1070
     3
1000
22395980
1002
}
  0
LWPOLYLINE
  5
123
330
F5
100
AcDbEntity
  8
0
 62
    18
370
     9
100
AcDbPolyline
 90
        4
 70
   128
 43
0.0
 10
57.53100228608809
 20
258.9265519554836
 10
57.27700227599601
 20
258.6566769447597
 10
57.19233560596243
 20
258.7413436147905
 10
57.53100228608809
 20
259.060088725496
1001
REVIT
1002
{
1070
     1
1000
22396001
1002
}
1002
{
1070
     5
1000
22395977
1002
}
1002
{
1070
     3
1000
22395980
1002
}
  0
LWPOLYLINE
  5
124
330
F5
100
AcDbEntity
  8
0
 62
    31
370
    25
100
AcDbPolyline
 90
        3
 70
   128
 43
0.0
 10
149.7330059498635
 20
299.0003452145395
 10
147.7856725391517
 20
300.8206786202063
 10
146.092339138532
 20
298.7040118694306
1001
REVIT
1002
{
1070
     1
1000
22396001
1002
}
1002
{
1070
     5
1000
22395977
1002
}
1002
{
1070
     3
1000
22395980
1002
}
  0
LINE
  5
125
330
F5
100
AcDbEntity
  8
0
 62
    31
370
    25
100
AcDbLine
 10
139.2343388660195
 20
182.5836739218903
 30
0.0
 11
137.1445447358648
 21
184.2137133434126
 31
0.0
1001
REVIT
1002
{
1070
     1
1000
22396001
1002
}
1002
{
1070
     5
1000
22395977
1002
}
1002
{
1070
     3
1000
22395980
1002
}
  0
LINE
  5
126
330
F5
100
AcDbEntity
  8
0
 62
    31
370
    25
100
AcDbLine
 10
137.1439719622542
 20
184.2370648826784
 30
0.0
 11
148.2936725593359
 21
185.2506740278675
 31
0.0
1001
REVIT
1002
{
1070
     1
1000
22396001
1002
}
1002
{
1070
     5
1000
22395977
1002
}
1002
{
1070
     3
1000
22395980
1002
}
  0
LINE
  5
127
330
F5
100
AcDbEntity
  8
0
 62
    31
370
    25
100
AcDbLine
 10
137.1433264383293
 20
184.2633823966628
 30
0.0
 11
138.8956721858939
 21
186.2243407332235
 31
0.0
1001
REVIT
1002
{
1070
     1
1000
22396001
1002
}
1002
{
1070
     5
1000
22395977
1002
}
1002
{
1070
     3
1000
22395980
1002
}
  0
LINE
  5
128
330
F5
100
AcDbEntity
  8
0
 62
    31
370
    25
100
AcDbLine
 10
137.8529429066882
 20
154.8553394867323
 30
0.0
 11
141.2840290876768
 21
154.8553394867323
 31
0.0
1001
REVIT
1002
{
1070
     1
1000
22396001
1002
}
1002
{
1070
     5
1000
22395977
1002
}
1002
{
1070
     3
1000
22395980
1002
}
  0
LINE
  5
129
330
F5
100
AcDbEntity
  8
0
 62
    31
370
    25
100
AcDbLine
 10
176.1369153882369
 20
154.8553394867322
 30
0.0
 11
178.0540070752399
 21
154.8553394867322
 31
0.0
1001
REVIT
1002
{
1070
     1
1000
22396001
1002
}
1002
{
1070
     5
1000
22395977
1002
}
1002
{
1070
     3
1000
22395980
1002
}
  0
LINE
  5
12A
330
F5
100
AcDbEntity
  8
0
 62
    31
370
    25
100
AcDbLine
 10
138.4723388357346
 20
303.1066787110438
 30
0.0
 11
154.3602619734545
 21
304.3288266447139
 31
0.0
1001
REVIT
1002
{
1070
     1
1000
22396001
1002
}
1002
{
1070
     5
1000
22395977
1002
}
1002
{
1070
     3
1000
22395980
1002
}
  0
LWPOLYLINE
  5
12B
330
F5
100
AcDbEntity
  8
0
 62
     9
370
     9
100
AcDbPolyline
 90
        3
 70
   128
 43
0.0
 10
136.3980054199811
 20
292.9043449723065
 10
136.4403387549892
 20
292.77734496726
 10
136.4033867761208
 20
292.77734496726
1001
REVIT
1002
{
1070
     1
1000
22396001
1002
}
1002
{
1070
     5
1000
22395977
1002
}
1002
{
1070
     3
1000
22395980
1002
}
  0
LWPOLYLINE
  5
12C
330
F5
100
AcDbEntity
  8
0
 62
     9
370
     9
100
AcDbPolyline
 90
        3
 70
   128
 43
0.0
 10
137.2446721202909
 20
272.9230108449865
 10
136.4403387549892
 20
292.77734496726
 10
136.4033867761208
 20
292.77734496726
1001
REVIT
1002
{
1070
     1
1000
22396001
1002
}
1002
{
1070
     5
1000
22395977
1002
}
1002
{
1070
     3
1000
22395980
1002
}
  0
LWPOLYLINE
  5
12D
330
F5
100
AcDbEntity
  8
0
 62
     9
370
     9
100
AcDbPolyline
 90
        3
 70
   128
 43
0.0
 10
58.77584888362742
 20
348.276347172592
 10
58.71633566651496
 20
348.276347172592
 10
82.59233661526677
 20
350.6046805984457
1001
REVIT
1002
{
1070
     1
1000
22396001
1002
}
1002
{
1070
     5
1000
22395977
1002
}
1002
{
1070
     3
1000
22395980
1002
}
  0
LWPOLYLINE
  5
12E
330
F5
100
AcDbEntity
  8
0
 62
     9
370
     9
100
AcDbPolyline
 90
        3
 70
   128
 43
0.0
 10
58.76174579161713
 20
348.275072502414
 10
58.71633566651496
 20
348.276347172592
 10
58.77584888362742
 20
348.276347172592
1001
REVIT
1002
{
1070
     1
1000
22396001
1002
}
1002
{
1070
     5
1000
22395977
1002
}
1002
{
1070
     3
1000
22395980
1002
}
  0
LINE
  5
12F
330
F5
100
AcDbEntity
  8
0
 62
     9
370
     9
100
AcDbLine
 10
58.76174579161713
 20
348.275072502414
 30
0.0
 11
58.71633566651496
 21
348.276347172592
 31
0.0
1001
REVIT
1002
{
1070
     1
1000
22396001
1002
}
1002
{
1070
     5
1000
22395977
1002
}
1002
{
1070
     3
1000
22395980
1002
}
  0
LINE
  5
130
330
F5
100
AcDbEntity
  8
0
 62
     9
370
     9
100
AcDbLine
 10
138.5753870854447
 20
301.6433935651786
 30
0.0
 11
138.599338840785
 21
301.6673453205162
 31
0.0
1001
REVIT
1002
{
1070
     1
1000
22396001
1002
}
1002
{
1070
     5
1000
22395977
1002
}
1002
{
1070
     3
1000
22395980
1002
}
  0
LINE
  5
131
330
F5
100
AcDbEntity
  8
0
 62
     9
370
     9
100
AcDbLine
 10
136.2414064977654
 20
296.6000795365052
 30
0.0
 11
136.2710054149307
 21
296.6296784536705
 31
0.0
1001
REVIT
1002
{
1070
     1
1000
22396001
1002
}
1002
{
1070
     5
1000
22395977
1002
}
1002
{
1070
     3
1000
22395980
1002
}
  0
LINE
  5
132
330
F5
100
AcDbEntity
  8
0
 62
     9
370
     9
100
AcDbLine
 10
141.2090157529586
 20
258.431869546177
 30
0.0
 11
141.2663389467649
 21
258.4873436046972
 31
0.0
1001
REVIT
1002
{
1070
     1
1000
22396001
1002
}
1002
{
1070
     5
1000
22395977
1002
}
1002
{
1070
     3
1000
22395980
1002
}
  0
SPLINE
  5
133
330
F5
100
AcDbEntity
  8
0
 62
    18
370
     9
100
AcDbSpline
210
0.0
220
0.0
230
1.0
 70
     8
 71
     3
 72
     8
 73
     4
 74
     0
 42
0.000000001
 43
0.0000000001
 40
0.8937614876323381
 40
0.8937614876323381
 40
0.8937614876323381
 40
0.8937614876323381
 40
1.0
 40
1.0
 40
1.0
 40
1.0
 10
141.0462706274812
 20
257.6859288083816
 30
0.0
 10
141.0713360947498
 20
257.7189205519506
 30
0.0
 10
141.0946556091803
 20
257.7535606248335
 30
0.0
 10
141.1160535404006
 20
257.7897530821857
 30
0.0
1001
REVIT
1002
{
1070
     1
1000
22396001
1002
}
1002
{
1070
     5
1000
22395977
1002
}
1002
{
1070
     3
1000
22395980
1002
}
  0
SPLINE
  5
134
330
F5
100
AcDbEntity
  8
0
 62
    18
370
     9
100
AcDbSpline
210
0.0
220
0.0
230
1.0
 70
     8
 71
     3
 72
     8
 73
     4
 74
     0
 42
0.000000001
 43
0.0000000001
 40
0.0
 40
0.0
 40
0.0
 40
0.0
 40
0.193481807223162
 40
0.193481807223162
 40
0.193481807223162
 40
0.193481807223162
 10
141.1160535404006
 20
257.7897530821857
 30
0.0
 10
141.1550234987594
 20
257.8556588645989
 30
0.0
 10
141.186412080461
 20
257.9246676141369
 30
0.0
 10
141.2102222798583
 20
257.9955709598264
 30
0.0
1001
REVIT
1002
{
1070
     1
1000
22396001
1002
}
1002
{
1070
     5
1000
22395977
1002
}
1002
{
1070
     3
1000
22395980
1002
}
  0
SPLINE
  5
135
330
F5
100
AcDbEntity
  8
0
 62
    18
370
     9
100
AcDbSpline
210
0.0
220
0.0
230
1.0
 70
     8
 71
     3
 72
     8
 73
     4
 74
     0
 42
0.000000001
 43
0.0000000001
 40
0.2475338906026947
 40
0.2475338906026947
 40
0.2475338906026947
 40
0.2475338906026947
 40
1.0
 40
1.0
 40
1.0
 40
1.0
 10
141.2284032057632
 20
258.0554119860719
 30
0.0
 10
141.3045364483196
 20
258.3349108152454
 30
0.0
 10
141.2660597766367
 20
258.6379594664539
 30
0.0
 10
141.1131493247878
 20
258.8934790375022
 30
0.0
1001
REVIT
1002
{
1070
     1
1000
22396001
1002
}
1002
{
1070
     5
1000
22395977
1002
}
1002
{
1070
     3
1000
22395980
1002
}
  0
SPLINE
  5
136
330
F5
100
AcDbEntity
  8
0
 62
    18
370
     9
100
AcDbSpline
210
0.0
220
0.0
230
1.0
 70
     8
 71
     3
 72
     8
 73
     4
 74
     0
 42
0.000000001
 43
0.0000000001
 40
0.0
 40
0.0
 40
0.0
 40
0.0
 40
0.639788396882239
 40
0.639788396882239
 40
0.639788396882239
 40
0.639788396882239
 10
141.1131493247878
 20
258.8934790375022
 30
0.0
 10
140.9831363824977
 20
259.1107359407585
 30
0.0
 10
140.7837384417213
 20
259.2713375242326
 30
0.0
 10
140.5534115426036
 20
259.3545292189607
 30
0.0
1001
REVIT
1002
{
1070
     1
1000
22396001
1002
}
1002
{
1070
     5
1000
22395977
1002
}
1002
{
1070
     3
1000
22395980
1002
}
  0
SPLINE
  5
137
330
F5
100
AcDbEntity
  8
0
 62
    18
370
     9
100
AcDbSpline
210
0.0
220
0.0
230
1.0
 70
     8
 71
     3
 72
     8
 73
     4
 74
     0
 42
0.000000001
 43
0.0000000001
 40
0.8937614876321674
 40
0.8937614876321674
 40
0.8937614876321674
 40
0.8937614876321674
 40
1.0
 40
1.0
 40
1.0
 40
1.0
 10
139.6916039069867
 20
208.7909268654688
 30
0.0
 10
139.7166693742556
 20
208.8239186090377
 30
0.0
 10
139.7399888886862
 20
208.8585586819208
 30
0.0
 10
139.7613868199065
 20
208.8947511392731
 30
0.0
1001
REVIT
1002
{
1070
     1
1000
22396001
1002
}
1002
{
1070
     5
1000
22395977
1002
}
1002
{
1070
     3
1000
22395980
1002
}
  0
SPLINE
  5
138
330
F5
100
AcDbEntity
  8
0
 62
    18
370
     9
100
AcDbSpline
210
0.0
220
0.0
230
1.0
 70
     8
 71
     3
 72
     8
 73
     4
 74
     0
 42
0.000000001
 43
0.0000000001
 40
0.0
 40
0.0
 40
0.0
 40
0.0
 40
0.1934818072237044
 40
0.1934818072237044
 40
0.1934818072237044
 40
0.1934818072237044
 10
139.7613868199065
 20
208.8947511392731
 30
0.0
 10
139.8003567782653
 20
208.9606569216863
 30
0.0
 10
139.831745359967
 20
209.0296656712248
 30
0.0
 10
139.8555555593643
 20
209.1005690169144
 30
0.0
1001
REVIT
1002
{
1070
     1
1000
22396001
1002
}
1002
{
1070
     5
1000
22395977
1002
}
1002
{
1070
     3
1000
22395980
1002
}
  0
SPLINE
  5
139
330
F5
100
AcDbEntity
  8
0
 62
    18
370
     9
100
AcDbSpline
210
0.0
220
0.0
230
1.0
 70
     8
 71
     3
 72
     8
 73
     4
 74
     0
 42
0.000000001
 43
0.0000000001
 40
0.2475338906022309
 40
0.2475338906022309
 40
0.2475338906022309
 40
0.2475338906022309
 40
1.0
 40
1.0
 40
1.0
 40
1.0
 10
139.8737364852691
 20
209.1604100431588
 30
0.0
 10
139.9498697278256
 20
209.4399088723323
 30
0.0
 10
139.9113930561426
 20
209.7429575235413
 30
0.0
 10
139.7584826042938
 20
209.9984770945895
 30
0.0
1001
REVIT
1002
{
1070
     1
1000
22396001
1002
}
1002
{
1070
     5
1000
22395977
1002
}
1002
{
1070
     3
1000
22395980
1002
}
  0
SPLINE
  5
13A
330
F5
100
AcDbEntity
  8
0
 62
    18
370
     9
100
AcDbSpline
210
0.0
220
0.0
230
1.0
 70
     8
 71
     3
 72
     8
 73
     4
 74
     0
 42
0.000000001
 43
0.0000000001
 40
0.0
 40
0.0
 40
0.0
 40
0.0
 40
0.6397883968825332
 40
0.6397883968825332
 40
0.6397883968825332
 40
0.6397883968825332
 10
139.7584826042938
 20
209.9984770945895
 30
0.0
 10
139.6284696620036
 20
210.2157339978458
 30
0.0
 10
139.4290717212273
 20
210.37633558132
 30
0.0
 10
139.1987448221095
 20
210.4595272760481
 30
0.0
1001
REVIT
1002
{
1070
     1
1000
22396001
1002
}
1002
{
1070
     5
1000
22395977
1002
}
1002
{
1070
     3
1000
22395980
1002
}
  0
LINE
  5
13B
330
F5
100
AcDbEntity
  8
0
 62
    18
370
     9
100
AcDbLine
 10
136.144005409889
 20
299.8893452498656
 30
0.0
 11
136.3980054199811
 21
292.9043449723065
 31
0.0
1001
REVIT
1002
{
1070
     1
1000
22396001
1002
}
1002
{
1070
     5
1000
22395977
1002
}
1002
{
1070
     3
1000
22395980
1002
}
  0
LINE
  5
13C
330
F5
100
AcDbEntity
  8
0
 62
    18
370
     9
100
AcDbLine
 10
132.2916719234735
 20
292.77734496726
 30
0.0
 11
132.2198818417744
 21
292.77734496726
 31
0.0
1001
REVIT
1002
{
1070
     1
1000
22396001
1002
}
1002
{
1070
     5
1000
22395977
1002
}
1002
{
1070
     3
1000
22395980
1002
}
  0
LINE
  5
13D
330
F5
100
AcDbEntity
  8
0
 62
    18
370
     9
100
AcDbLine
 10
132.2198818417744
 20
272.7536775049242
 30
0.0
 11
133.011338618733
 21
272.7536775049242
 31
0.0
1001
REVIT
1002
{
1070
     1
1000
22396001
1002
}
1002
{
1070
     5
1000
22395977
1002
}
1002
{
1070
     3
1000
22395980
1002
}
  0
LINE
  5
13E
330
F5
100
AcDbEntity
  8
0
 62
    18
370
     9
100
AcDbLine
 10
157.4471732502359
 20
333.8619435177743
 30
0.0
 11
157.7340062677946
 21
329.7343464357993
 31
0.0
1001
REVIT
1002
{
1070
     1
1000
22396001
1002
}
1002
{
1070
     5
1000
22395977
1002
}
1002
{
1070
     3
1000
22395980
1002
}
  0
LWPOLYLINE
  5
13F
330
F5
100
AcDbEntity
  8
0
 62
    18
370
     9
100
AcDbPolyline
 90
        3
 70
   128
 43
0.0
 10
159.6390063434897
 20
301.7520119905481
 10
162.6446731295953
 20
301.9636786656255
 10
160.6973397188835
 20
329.9036797758611
1001
REVIT
1002
{
1070
     1
1000
22396001
1002
}
1002
{
1070
     5
1000
22395977
1002
}
1002
{
1070
     3
1000
22395980
1002
}
  0
LINE
  5
140
330
F5
100
AcDbEntity
  8
0
 62
    18
370
     9
100
AcDbLine
 10
64.93933591380152
 20
213.5293418182274
 30
0.0
 11
65.01887907326775
 21
213.5293418182274
 31
0.0
1001
REVIT
1002
{
1070
     1
1000
22396001
1002
}
1002
{
1070
     5
1000
22395977
1002
}
1002
{
1070
     3
1000
22395980
1002
}
  0
LINE
  5
141
330
F5
100
AcDbEntity
  8
0
 62
    18
370
     9
100
AcDbLine
 10
65.01887907326775
 20
207.9413415961802
 30
0.0
 11
64.93933591380152
 21
207.9413415961802
 31
0.0
1001
REVIT
1002
{
1070
     1
1000
22396001
1002
}
1002
{
1070
     5
1000
22395977
1002
}
1002
{
1070
     3
1000
22395980
1002
}
  0
LINE
  5
142
330
F5
100
AcDbEntity
  8
0
 62
    18
370
     9
100
AcDbLine
 10
58.71633566651496
 20
348.276347172592
 30
0.0
 11
72.64400288662379
 21
349.6310138930887
 31
0.0
1001
REVIT
1002
{
1070
     1
1000
22396001
1002
}
1002
{
1070
     5
1000
22395977
1002
}
1002
{
1070
     3
1000
22395980
1002
}
  0
LINE
  5
143
330
F5
100
AcDbEntity
  8
0
 62
    18
370
     9
100
AcDbLine
 10
72.13600286643963
 20
157.8610062728331
 30
0.0
 11
72.13600286643963
 21
158.1259116959412
 31
0.0
1001
REVIT
1002
{
1070
     1
1000
22396001
1002
}
1002
{
1070
     5
1000
22395977
1002
}
1002
{
1070
     3
1000
22395980
1002
}
  0
LINE
  5
144
330
F5
100
AcDbEntity
  8
0
 62
    18
370
     9
100
AcDbLine
 10
72.13600286643963
 20
157.8610062728331
 30
0.0
 11
72.13600286643963
 21
158.1259116959412
 31
0.0
1001
REVIT
1002
{
1070
     1
1000
22396001
1002
}
1002
{
1070
     5
1000
22395977
1002
}
1002
{
1070
     3
1000
22395980
1002
}
  0
LINE
  5
145
330
F5
100
AcDbEntity
  8
0
 62
    18
370
     9
100
AcDbLine
 10
96.26600382527486
 20
158.1259116959417
 30
0.0
 11
96.26600382527486
 21
157.8610062728331
 31
0.0
1001
REVIT
1002
{
1070
     1
1000
22396001
1002
}
1002
{
1070
     5
1000
22395977
1002
}
1002
{
1070
     3
1000
22395980
1002
}
  0
LINE
  5
146
330
F5
100
AcDbEntity
  8
0
 62
    18
370
     9
100
AcDbLine
 10
96.26600382527486
 20
157.8610062728331
 30
0.0
 11
96.26600382527486
 21
158.1259116959417
 31
0.0
1001
REVIT
1002
{
1070
     1
1000
22396001
1002
}
1002
{
1070
     5
1000
22395977
1002
}
1002
{
1070
     3
1000
22395980
1002
}
  0
LINE
  5
147
330
F5
100
AcDbEntity
  8
0
 62
    18
370
     9
100
AcDbLine
 10
104.4363374832645
 20
158.1259116959417
 30
0.0
 11
104.4363374832645
 21
157.861006272833
 31
0.0
1001
REVIT
1002
{
1070
     1
1000
22396001
1002
}
1002
{
1070
     5
1000
22395977
1002
}
1002
{
1070
     3
1000
22395980
1002
}
  0
LINE
  5
148
330
F5
100
AcDbEntity
  8
0
 62
    18
370
     9
100
AcDbLine
 10
104.4363374832645
 20
157.861006272833
 30
0.0
 11
104.4363374832645
 21
158.1259116959417
 31
0.0
1001
REVIT
1002
{
1070
     1
1000
22396001
1002
}
1002
{
1070
     5
1000
22395977
1002
}
1002
{
1070
     3
1000
22395980
1002
}
  0
LINE
  5
149
330
F5
100
AcDbEntity
  8
0
 62
    18
370
     9
100
AcDbLine
 10
133.1189928821804
 20
173.228006883463
 30
0.0
 11
133.2791058654543
 21
173.228006883463
 31
0.0
1001
REVIT
1002
{
1070
     1
1000
22396001
1002
}
1002
{
1070
     5
1000
22395977
1002
}
1002
{
1070
     3
1000
22395980
1002
}
  0
LINE
  5
14A
330
F5
100
AcDbEntity
  8
0
 62
    18
370
     9
100
AcDbLine
 10
133.5193386389258
 20
243.713009684285
 30
0.0
 11
132.6208196333393
 21
243.7406564229187
 31
0.0
1001
REVIT
1002
{
1070
     1
1000
22396001
1002
}
1002
{
1070
     5
1000
22395977
1002
}
1002
{
1070
     3
1000
22395980
1002
}
  0
LINE
  5
14B
330
F5
100
AcDbEntity
  8
0
 62
    18
370
     9
100
AcDbLine
 10
132.6208196333393
 20
223.7410863974378
 30
0.0
 11
132.9266719487081
 21
223.731675556965
 31
0.0
1001
REVIT
1002
{
1070
     1
1000
22396001
1002
}
1002
{
1070
     5
1000
22395977
1002
}
1002
{
1070
     3
1000
22395980
1002
}
  0
SPLINE
  5
14C
330
F5
100
AcDbEntity
  8
0
 62
     8
370
     9
100
AcDbSpline
210
0.0
220
0.0
230
1.0
 70
     8
 71
     3
 72
     8
 73
     4
 74
     0
 42
0.000000001
 43
0.0000000001
 40
0.0457248287955883
 40
0.0457248287955883
 40
0.0457248287955883
 40
0.0457248287955883
 40
1.0
 40
1.0
 40
1.0
 40
1.0
 10
137.4229282065322
 20
173.27389746256
 30
0.0
 10
141.2749027494447
 20
173.3710650871816
 30
0.0
 10
144.8235688643191
 20
175.4469722753167
 30
0.0
 10
146.7902913960832
 20
178.7907063232543
 30
0.0
1001
REVIT
1002
{
1070
     1
1000
22396001
1002
}
1002
{
1070
     5
1000
22395977
1002
}
1002
{
1070
     3
1000
22395980
1002
}
  0
SPLINE
  5
14D
330
F5
100
AcDbEntity
  8
0
 62
     8
370
     9
100
AcDbSpline
210
0.0
220
0.0
230
1.0
 70
     8
 71
     3
 72
     8
 73
     4
 74
     0
 42
0.000000001
 43
0.0000000001
 40
0.0
 40
0.0
 40
0.0
 40
0.0
 40
1.0
 40
1.0
 40
1.0
 40
1.0
 10
146.7902913960832
 20
178.7907063232543
 30
0.0
 10
148.8512509506365
 20
182.2946579598843
 30
0.0
 10
148.8512509506365
 20
186.6403360297016
 30
0.0
 10
146.7902913960832
 20
190.1442876663321
 30
0.0
1001
REVIT
1002
{
1070
     1
1000
22396001
1002
}
1002
{
1070
     5
1000
22395977
1002
}
1002
{
1070
     3
1000
22395980
1002
}
  0
SPLINE
  5
14E
330
F5
100
AcDbEntity
  8
0
 62
     8
370
     9
100
AcDbSpline
210
0.0
220
0.0
230
1.0
 70
     8
 71
     3
 72
     8
 73
     4
 74
     0
 42
0.000000001
 43
0.0000000001
 40
0.0
 40
0.0
 40
0.0
 40
0.0
 40
1.0
 40
1.0
 40
1.0
 40
1.0
 10
146.7902913960832
 20
190.1442876663321
 30
0.0
 10
144.7293318415298
 20
193.6482393029626
 30
0.0
 10
140.9311965994632
 20
195.7599657866142
 30
0.0
 10
136.867268784975
 20
195.6613878204575
 30
0.0
1001
REVIT
1002
{
1070
     1
1000
22396001
1002
}
1002
{
1070
     5
1000
22395977
1002
}
1002
{
1070
     3
1000
22395980
1002
}
  0
LINE
  5
14F
330
F5
100
AcDbEntity
  8
0
 62
     8
370
     9
100
AcDbLine
 10
136.3136963108977
 20
294.8940399465312
 30
0.0
 11
157.2260062476105
 21
296.5450117836397
 31
0.0
1001
REVIT
1002
{
1070
     1
1000
22396001
1002
}
1002
{
1070
     5
1000
22395977
1002
}
1002
{
1070
     3
1000
22395980
1002
}
  0
LINE
  5
150
330
F5
100
AcDbEntity
  8
0
 62
     8
370
     9
100
AcDbLine
 10
136.5253629955542
 20
289.8987061887161
 30
0.0
 11
157.6070062627443
 21
291.5496782518098
 31
0.0
1001
REVIT
1002
{
1070
     1
1000
22396001
1002
}
1002
{
1070
     5
1000
22395977
1002
}
1002
{
1070
     3
1000
22395980
1002
}
  0
LWPOLYLINE
  5
151
330
F5
100
AcDbEntity
  8
0
 62
     8
370
     9
100
AcDbPolyline
 90
        4
 70
   128
 43
0.0
 10
136.7370296823851
 20
284.9033723794432
 10
158.0303396129036
 20
286.5543447199804
 10
156.845006232468
 20
301.4980119804549
 10
138.6840055108186
 20
300.1010119249431
1001
REVIT
1002
{
1070
     1
1000
22396001
1002
}
1002
{
1070
     5
1000
22395977
1002
}
1002
{
1070
     3
1000
22395980
1002
}
  0
LINE
  5
152
330
F5
100
AcDbEntity
  8
0
 62
     8
370
     9
100
AcDbLine
 10
147.7856725391517
 20
300.8206786202063
 30
0.0
 11
148.9286725845704
 21
285.8346780247161
 31
0.0
1001
REVIT
1002
{
1070
     1
1000
22396001
1002
}
1002
{
1070
     5
1000
22395977
1002
}
1002
{
1070
     3
1000
22395980
1002
}
  0
MTEXT
  5
157
330
F5
100
AcDbEntity
  8
0
 62
    18
370
    25
100
AcDbMText
 10
157.1783104723581
 20
332.1836336727506
 30
0.0
 40
2.217732667922973
 41
7.222416386184698
 46
0.0
 71
     1
 72
     1
  1
2,51
  7
Arial
 11
0.0701198905033224
 21
-0.9975385711619386
 31
0.0
 73
     2
 44
0.9417779076525878
1001
REVIT
1002
{
1070
     1
1000
22396001
1002
}
1002
{
1070
     5
1000
22395977
1002
}
1002
{
1070
     3
1000
22395980
1002
}
  0
MTEXT
  5
159
330
F5
100
AcDbEntity
  8
0
 62
    18
370
    25
100
AcDbMText
 10
154.801000229787
 20
309.7463075483235
 30
0.0
 40
2.217721462249755
 41
7.222378855802829
 46
0.0
 71
     1
 72
     1
  1
0,14
  7
Arial_1
 11
0.9969635002566763
 21
0.0778702713232498
 31
0.0
 73
     2
 44
0.9417779076525878
1001
REVIT
1002
{
1070
     1
1000
22396001
1002
}
1002
{
1070
     5
1000
22395977
1002
}
1002
{
1070
     3
1000
22395980
1002
}
  0
ENDBLK
  5
154
330
F5
100
AcDbEntity
  8
0
100
AcDbBlockEnd
  0
BLOCK
  5
215
330
20F
100
AcDbEntity
  8
0
100
AcDbBlockBegin
  2
SVG - A4-22440810-Não nomeada
 70
     0
 10
0.0
 20
0.0
 30
0.0
  3
SVG - A4-22440810-Não nomeada
  1

  0
LINE
  5
211
330
20F
100
AcDbEntity
  8
A-PIL-___-___-EXI
100
AcDbLine
 10
64.29285070883699
 20
356.4999999999859
 30
0.0
 11
64.29285070883699
 21
59.49999999998593
 31
0.0
1001
REVIT
1002
{
1070
     1
1000
22440849
1002
}
1002
{
1070
     5
1000
22440810
1002
}
1002
{
1070
     3
1000
-2000281
1002
}
  0
LINE
  5
212
330
20F
100
AcDbEntity
  8
A-PIL-___-___-EXI
100
AcDbLine
 10
64.29285070883699
 20
59.49999999998593
 30
0.0
 11
274.292850708837
 21
59.49999999998593
 31
0.0
1001
REVIT
1002
{
1070
     1
1000
22440849
1002
}
1002
{
1070
     5
1000
22440810
1002
}
1002
{
1070
     3
1000
-2000281
1002
}
  0
LINE
  5
213
330
20F
100
AcDbEntity
  8
A-PIL-___-___-EXI
100
AcDbLine
 10
274.292850708837
 20
59.49999999998593
 30
0.0
 11
274.292850708837
 21
356.4999999999859
 31
0.0
1001
REVIT
1002
{
1070
     1
1000
22440849
1002
}
1002
{
1070
     5
1000
22440810
1002
}
1002
{
1070
     3
1000
-2000281
1002
}
  0
LINE
  5
214
330
20F
100
AcDbEntity
  8
A-PIL-___-___-EXI
100
AcDbLine
 10
274.292850708837
 20
356.4999999999859
 30
0.0
 11
64.29285070883699
 21
356.4999999999859
 31
0.0
1001
REVIT
1002
{
1070
     1
1000
22440849
1002
}
1002
{
1070
     5
1000
22440810
1002
}
1002
{
1070
     3
1000
-2000281
1002
}
  0
ENDBLK
  5
216
330
20F
100
AcDbEntity
  8
0
100
AcDbBlockEnd
  0
ENDSEC
  0
SECTION
  2
ENTITIES
  0
HATCH
  5
F4
330
70
100
AcDbEntity
  8
A-ALV-___-___-EXI
 62
    11
100
AcDbHatch
 10
0.0
 20
0.0
 30
0.0
210
0.0
220
0.0
230
1.0
  2
SOLID
 70
     1
 71
     0
 91
        9
 92
        1
 93
       23
 72
     1
 10
22639.37242201303
 20
14090.33267066923
 11
22639.37242201303
 21
14317.83267066924
 72
     1
 10
22639.37242201303
 20
14317.83267066924
 11
22523.43492201303
 21
14317.83267066924
 72
     1
 10
22523.43492201303
 20
14317.83267066924
 11
22523.43492201303
 21
14578.14517066924
 72
     1
 10
22523.43492201303
 20
14578.14517066924
 11
22079.37242201303
 21
14578.14517066924
 72
     1
 10
22079.37242201303
 20
14578.14517066924
 11
22031.24742201303
 21
17165.95767066926
 72
     1
 10
22031.24742201303
 20
17165.95767066926
 11
22151.55992201303
 21
17165.95767066926
 72
     1
 10
22151.55992201303
 20
17165.95767066926
 11
22151.55992201303
 21
17445.95767066926
 72
     1
 10
22151.55992201303
 20
17445.95767066926
 11
21998.43492201303
 21
17445.95767066926
 72
     1
 10
21998.43492201303
 20
17445.95767066926
 11
21998.43492201302
 21
19440.95767066929
 72
     1
 10
21998.43492201302
 20
19440.95767066929
 11
22153.74742201302
 21
19440.95767066929
 72
     1
 10
22153.74742201302
 20
19440.95767066929
 11
22153.74742201304
 21
19734.08267066929
 72
     1
 10
22153.74742201304
 20
19734.08267066929
 11
22000.62242201303
 21
19734.08267066929
 72
     1
 10
22000.62242201303
 20
19734.08267066929
 11
22000.62242201303
 21
21631.47850400264
 72
     1
 10
22000.62242201303
 20
21631.47850400264
 11
22132.46419927701
 21
21630.69373151893
 72
     1
 10
22132.46419927701
 20
21630.69373151893
 11
22132.46419927701
 21
21921.58267066931
 72
     1
 10
22132.46419927701
 20
21921.58267066931
 11
22011.55992201302
 21
21921.58267066931
 72
     1
 10
22011.55992201302
 20
21921.58267066931
 11
21833.07266194812
 21
24417.52548480253
 72
     1
 10
21833.07266194812
 20
24417.52548480253
 11
21609.05992201301
 21
24395.64517066934
 72
     1
 10
21609.05992201301
 20
24395.64517066934
 11
21768.74742201305
 21
21630.64517066926
 72
     1
 10
21768.74742201305
 20
21630.64517066926
 11
21768.74742201302
 21
17445.95767066929
 72
     1
 10
21768.74742201302
 20
17445.95767066929
 11
21775.30992201302
 21
17165.95767066926
 72
     1
 10
21775.30992201302
 20
17165.95767066926
 11
21867.18492201323
 21
14090.3326706697
 72
     1
 10
21867.18492201323
 20
14090.3326706697
 11
22639.37242201303
 21
14090.33267066923
 97
        0
 92
        1
 93
        8
 72
     1
 10
25927.18492201306
 20
14090.33267066923
 11
25896.55992201308
 21
15372.20767066925
 72
     1
 10
25896.55992201308
 20
15372.20767066925
 11
25688.74742201308
 21
15372.20767066925
 72
     1
 10
25688.74742201308
 20
15372.20767066925
 11
25708.43492201306
 21
14578.14517066925
 72
     1
 10
25708.43492201306
 20
14578.14517066925
 11
25474.37242201306
 21
14578.14517066925
 72
     1
 10
25474.37242201306
 20
14578.14517066925
 11
25474.37242201306
 21
14317.83267066924
 72
     1
 10
25474.37242201306
 20
14317.83267066924
 11
25351.87242201306
 21
14317.83267066924
 72
     1
 10
25351.87242201306
 20
14317.83267066924
 11
25351.87242201306
 21
14090.33267066924
 72
     1
 10
25351.87242201306
 20
14090.33267066924
 11
25927.18492201306
 21
14090.33267066923
 97
        0
 92
        1
 93
        8
 72
     1
 10
24317.18492201305
 20
14090.33267066923
 11
24317.18492201305
 21
14317.83267066924
 72
     1
 10
24317.18492201305
 20
14317.83267066924
 11
24192.49742201305
 21
14317.83267066924
 72
     1
 10
24192.49742201305
 20
14317.83267066924
 11
24192.49742201305
 21
14578.14517066925
 72
     1
 10
24192.49742201305
 20
14578.14517066925
 11
23770.30992201304
 21
14578.14517066924
 72
     1
 10
23770.30992201304
 20
14578.14517066924
 11
23770.30992201304
 21
14317.83267066924
 72
     1
 10
23770.30992201304
 20
14317.83267066924
 11
23652.18492201304
 21
14317.83267066924
 72
     1
 10
23652.18492201304
 20
14317.83267066924
 11
23652.18492201304
 21
14090.33267066923
 72
     1
 10
23652.18492201304
 20
14090.33267066923
 11
24317.18492201305
 21
14090.33267066923
 97
        0
 92
        1
 93
        6
 72
     1
 10
27996.55992201308
 20
14090.33267066924
 11
28186.87242201309
 21
14090.33267066924
 72
     1
 10
28186.87242201309
 20
14090.33267066924
 11
27399.37242201308
 21
26646.58267066937
 72
     1
 10
27399.37242201308
 20
26646.58267066937
 11
27244.05992201308
 21
26646.58267066937
 72
     1
 10
27244.05992201308
 20
26646.58267066937
 11
27996.55992201308
 21
14650.33267066918
 72
     1
 10
27996.55992201308
 20
14650.33267066918
 11
27996.55992201308
 21
14203.03909409279
 72
     1
 10
27996.55992201308
 20
14203.03909409279
 11
27996.55992201308
 21
14090.33267066924
 97
        0
 92
        1
 93
       24
 72
     1
 10
25868.12242201307
 20
16531.58267066927
 11
25852.80992201307
 21
17185.64517066927
 72
     1
 10
25852.80992201307
 20
17185.64517066927
 11
25966.55992201307
 21
17185.64517066927
 72
     1
 10
25966.55992201307
 20
17185.64517066927
 11
25981.28025520326
 21
17187.58313929908
 72
     1
 10
25981.28025520326
 20
17187.58313929908
 11
25994.99742201305
 21
17193.26497582902
 72
     1
 10
25994.99742201305
 20
17193.26497582902
 11
26006.77662019303
 21
17202.30347248927
 72
     1
 10
26006.77662019303
 20
17202.30347248927
 11
26015.81511685329
 21
17214.08267066924
 72
     1
 10
26015.81511685329
 20
17214.08267066924
 11
26021.49695338325
 21
17227.79983747902
 72
     1
 10
26021.49695338325
 20
17227.79983747902
 11
26023.43492201307
 21
17242.52017066921
 72
     1
 10
26023.43492201307
 20
17242.52017066921
 11
26021.49695338328
 21
17257.24050385941
 72
     1
 10
26021.49695338328
 20
17257.24050385941
 11
26015.81511685336
 21
17270.9576706692
 72
     1
 10
26015.81511685336
 20
17270.9576706692
 11
26006.77662019313
 21
17282.73686884919
 72
     1
 10
26006.77662019313
 20
17282.73686884919
 11
25994.99742201317
 21
17291.77536550946
 72
     1
 10
25994.99742201317
 20
17291.77536550946
 11
25981.2802552034
 21
17297.45720203944
 72
     1
 10
25981.2802552034
 20
17297.45720203944
 11
25966.5599220132
 21
17299.39517066928
 72
     1
 10
25966.5599220132
 20
17299.39517066928
 11
25854.99742201307
 21
17295.02017066927
 72
     1
 10
25854.99742201307
 20
17295.02017066927
 11
25874.68492201307
 21
17979.70767066928
 72
     1
 10
25874.68492201307
 20
17979.70767066928
 11
25664.68492201306
 21
17981.89517066928
 72
     1
 10
25664.68492201306
 20
17981.89517066928
 11
25649.56442828265
 21
17445.95767066927
 72
     1
 10
25649.56442828265
 20
17445.95767066927
 11
25494.05992201306
 21
17445.95767066927
 72
     1
 10
25494.05992201306
 20
17445.95767066927
 11
25494.05992201306
 21
17165.95767066927
 72
     1
 10
25494.05992201306
 20
17165.95767066927
 11
25647.40112840842
 21
17165.95767066927
 72
     1
 10
25647.40112840842
 20
17165.95767066927
 11
25662.96126991785
 21
16531.58267066927
 72
     1
 10
25662.96126991785
 20
16531.58267066927
 11
25688.74742201307
 21
16531.58267066927
 72
     1
 10
25688.74742201307
 20
16531.58267066927
 11
25868.12242201307
 21
16531.58267066927
 97
        0
 92
        1
 93
       22
 72
     1
 10
25903.12242201306
 20
19012.20767066929
 11
25922.99623904777
 21
19712.20767066931
 72
     1
 10
25922.99623904777
 20
19712.20767066931
 11
26036.55992201308
 21
19712.2076706693
 72
     1
 10
26036.55992201308
 20
19712.2076706693
 11
26051.28025520327
 21
19714.14563929911
 72
     1
 10
26051.28025520327
 20
19714.14563929911
 11
26064.99742201306
 21
19719.82747582904
 72
     1
 10
26064.99742201306
 20
19719.82747582904
 11
26076.77662019304
 21
19728.86597248929
 72
     1
 10
26076.77662019304
 20
19728.86597248929
 11
26085.8151168533
 21
19740.64517066926
 72
     1
 10
26085.8151168533
 20
19740.64517066926
 11
26091.49695338325
 21
19754.36233747904
 72
     1
 10
26091.49695338325
 20
19754.36233747904
 11
26093.43492201308
 21
19769.08267066923
 72
     1
 10
26093.43492201308
 20
19769.08267066923
 11
26091.49695338329
 21
19783.80300385943
 72
     1
 10
26091.49695338329
 20
19783.80300385943
 11
26085.81511685337
 21
19797.52017066922
 72
     1
 10
26085.81511685337
 20
19797.52017066922
 11
26076.77662019314
 21
19809.29936884921
 72
     1
 10
26076.77662019314
 20
19809.29936884921
 11
26064.99742201318
 21
19818.33786550949
 72
     1
 10
26064.99742201318
 20
19818.33786550949
 11
26051.28025520341
 21
19824.01970203946
 72
     1
 10
26051.28025520341
 20
19824.01970203946
 11
26036.55992201322
 21
19825.95767066931
 72
     1
 10
26036.55992201322
 20
19825.95767066931
 11
25918.43492201307
 21
19821.5826706693
 72
     1
 10
25918.43492201307
 20
19821.5826706693
 11
25887.80992201307
 21
20523.7701706693
 72
     1
 10
25887.80992201307
 20
20523.7701706693
 11
25669.05992201307
 21
20515.02017066931
 72
     1
 10
25669.05992201307
 20
20515.02017066931
 11
25699.25976527326
 21
19712.2076706693
 72
     1
 10
25699.25976527326
 20
19712.2076706693
 11
25714.99742201307
 21
19712.2076706693
 72
     1
 10
25714.99742201307
 20
19712.2076706693
 11
25695.30992201306
 21
19014.39517066929
 72
     1
 10
25695.30992201306
 20
19014.39517066929
 11
25874.68492201306
 21
19012.50701277455
 72
     1
 10
25874.68492201306
 20
19012.50701277455
 11
25903.12242201306
 21
19012.20767066929
 97
        0
 92
        1
 93
        7
 72
     1
 10
25631.87242201307
 20
21549.70767066932
 11
25844.05992201307
 21
21556.27017066932
 72
     1
 10
25844.05992201307
 20
21556.27017066932
 11
25828.7735919638
 21
21917.02755983189
 72
     1
 10
25828.7735919638
 20
21917.02755983189
 11
25962.18492201307
 21
21928.14517066932
 72
     1
 10
25962.18492201307
 20
21928.14517066932
 11
25951.24742201306
 21
22083.45767066933
 72
     1
 10
25951.24742201306
 20
22083.45767066933
 11
25614.37242201307
 21
22057.20767066932
 72
     1
 10
25614.37242201307
 20
22057.20767066932
 11
25628.16279687581
 21
21657.28679964958
 72
     1
 10
25628.16279687581
 20
21657.28679964958
 11
25631.87242201307
 21
21549.70767066932
 97
        0
 92
        1
 93
        9
 72
     1
 10
26900.62242201307
 20
22000.33267066932
 11
27197.33213591974
 21
22027.30628102447
 72
     1
 10
27197.33213591974
 20
22027.30628102447
 11
27001.24742201308
 21
24920.64517066935
 72
     1
 10
27001.24742201308
 20
24920.64517066935
 11
26738.67715970045
 21
24895.09779379569
 72
     1
 10
26738.67715970045
 20
24895.09779379569
 11
26754.18357626652
 21
24740.03362813493
 72
     1
 10
26754.18357626652
 20
24740.03362813493
 11
26858.68513000891
 21
24750.18642386892
 72
     1
 10
26858.68513000891
 20
24750.18642386892
 11
27034.57039356916
 21
22166.61913292333
 72
     1
 10
27034.57039356916
 20
22166.61913292333
 11
26889.64112821928
 21
22156.26704254119
 72
     1
 10
26889.64112821928
 20
22156.26704254119
 11
26894.64353176865
 21
22085.23291214013
 72
     1
 10
26894.64353176865
 20
22085.23291214013
 11
26900.62242201307
 21
22000.33267066932
 97
        0
 92
        1
 93
        5
 72
     1
 10
23076.88138424362
 20
24382.41411760725
 11
25721.63229387825
 21
24639.61749018373
 72
     1
 10
25721.63229387825
 20
24639.61749018373
 11
25710.68444942328
 21
24795.0768814444
 72
     1
 10
25710.68444942328
 20
24795.0768814444
 11
23063.77219925384
 21
24537.5394733198
 72
     1
 10
23063.77219925384
 20
24537.5394733198
 11
23076.88078153066
 21
24382.42124971056
 72
     1
 10
23076.88078153066
 20
24382.42124971056
 11
23076.88138424362
 21
24382.41411760725
 97
        0
 75
     0
 76
     1
 98
        1
 10
0.0
 20
0.0
450
        0
451
        0
460
0.0
461
0.0
452
        0
462
0.0
453
        0
470

1001
REVIT
1002
{
1070
     1
1000
22420384
1002
}
1002
{
1070
     5
1000
383807
1002
}
1002
{
1070
     2
1000
-2002000
1002
}
  0
LINE
  5
166
330
70
100
AcDbEntity
  8
A-ALV-___-___-EXI
100
AcDbLine
 10
21768.74742201306
 20
18666.27017066926
 30
0.0
 11
21768.74742201306
 21
17445.95767066934
 31
0.0
1001
REVIT
1002
{
1070
     1
1000
22420384
1002
}
1002
{
1070
     5
1000
383807
1002
}
1002
{
1070
     2
1000
-2000051
1002
}
1002
{
1070
     3
1000
-2000042
1002
}
  0
LINE
  5
16B
330
70
100
AcDbEntity
  8
A-ALV-___-___-EXI
100
AcDbLine
 10
22069.76345213369
 20
15094.84568736533
 30
0.0
 11
22039.05672263109
 21
16746.03027834545
 31
0.0
1001
REVIT
1002
{
1070
     1
1000
22420384
1002
}
1002
{
1070
     5
1000
383807
1002
}
1002
{
1070
     2
1000
-2000051
1002
}
1002
{
1070
     3
1000
-2000042
1002
}
  0
LINE
  5
171
330
70
100
AcDbEntity
  8
A-ALV-___-___-EXI
100
AcDbLine
 10
22001.29710566359
 20
22065.09657026585
 30
0.0
 11
21897.09205237946
 21
23522.28658957755
 31
0.0
1001
REVIT
1002
{
1070
     1
1000
22420384
1002
}
1002
{
1070
     5
1000
383807
1002
}
1002
{
1070
     2
1000
-2000051
1002
}
1002
{
1070
     3
1000
-2000042
1002
}
  0
LINE
  5
173
330
70
100
AcDbEntity
  8
A-ALV-___-___-EXI
100
AcDbLine
 10
26932.03906593493
 20
23672.69041217308
 30
0.0
 11
27009.7219267407
 21
22531.6155012261
 31
0.0
1001
REVIT
1002
{
1070
     1
1000
22420384
1002
}
1002
{
1070
     5
1000
383807
1002
}
1002
{
1070
     2
1000
-2000051
1002
}
1002
{
1070
     3
1000
-2000042
1002
}
  0
LINE
  5
18C
330
70
100
AcDbEntity
  8
A-ALV-___-___-EXI
100
AcDbLine
 10
25269.42548747597
 20
24752.14357703867
 30
0.0
 11
23063.77219925388
 21
24537.53947331977
 31
0.0
1001
REVIT
1002
{
1070
     1
1000
22420384
1002
}
1002
{
1070
     5
1000
383807
1002
}
1002
{
1070
     2
1000
-2000051
1002
}
1002
{
1070
     3
1000
-2000042
1002
}
  0
LINE
  5
198
330
70
100
AcDbEntity
  8
A-POR-___-___-EXI
100
AcDbLine
 10
25674.62276512959
 20
15948.05906668914
 30
0.0
 11
25688.60737660561
 21
15377.91721420519
 31
0.0
1001
REVIT
1002
{
1070
     1
1000
22420595
1002
}
1002
{
1070
     5
1000
383807
1002
}
1002
{
1070
     2
1000
-2000051
1002
}
1002
{
1070
     3
1000
-2000042
1002
}
  0
LINE
  5
199
330
70
100
AcDbEntity
  8
A-ALV-___-___-EXI
100
AcDbLine
 10
25688.7474220131
 20
15372.20767066922
 30
0.0
 11
25896.5599220131
 21
15372.20767066922
 31
0.0
1001
REVIT
1002
{
1070
     1
1000
22420595
1002
}
1002
{
1070
     5
1000
383807
1002
}
1002
{
1070
     2
1000
-2000051
1002
}
1002
{
1070
     3
1000
-2000042
1002
}
  0
LINE
  5
1A3
330
70
100
AcDbEntity
  8
A-ALV-___-___-EXI
100
AcDbLine
 10
26754.18357626655
 20
24740.0336281349
 30
0.0
 11
26738.67715970047
 21
24895.09779379566
 31
0.0
1001
REVIT
1002
{
1070
     1
1000
22420595
1002
}
1002
{
1070
     5
1000
383807
1002
}
1002
{
1070
     2
1000
-2000051
1002
}
1002
{
1070
     3
1000
-2000042
1002
}
  0
LINE
  5
1A4
330
70
100
AcDbEntity
  8
A-ALV-___-___-EXI
100
AcDbLine
 10
25710.6844494233
 20
24795.07688144436
 30
0.0
 11
25721.63229387828
 21
24639.6174901837
 31
0.0
1001
REVIT
1002
{
1070
     1
1000
22420595
1002
}
1002
{
1070
     5
1000
383807
1002
}
1002
{
1070
     2
1000
-2000051
1002
}
1002
{
1070
     3
1000
-2000042
1002
}
  0
LINE
  5
1E1
330
70
100
AcDbEntity
  8
A-CER-___-___-EXI
100
AcDbLine
 10
25919.24123600626
 20
14422.83267066922
 30
0.0
 11
27996.5599220131
 21
14422.83267066921
 31
0.0
1001
REVIT
1002
{
1070
     1
1000
22428697
1002
}
1002
{
1070
     2
1000
-2000051
1002
}
1002
{
1070
     3
1000
-2000042
1002
}
  0
LINE
  5
1E5
330
70
100
AcDbEntity
  8
A-ALV-___-___-EXI
100
AcDbLine
 10
21768.74742201308
 20
19800.52798316927
 30
0.0
 11
21768.74742201306
 21
18020.52798316927
 31
0.0
1001
REVIT
1002
{
1070
     1
1000
22435212
1002
}
1002
{
1070
     2
1000
-2000051
1002
}
1002
{
1070
     3
1000
-2000042
1002
}
  0
HATCH
  5
277
330
70
100
AcDbEntity
  8
A-JAN-___-___-EXI
 62
     9
370
     9
100
AcDbHatch
 10
0.0
 20
0.0
 30
0.0
210
0.0
220
0.0
230
1.0
  2
SOLID
 70
     1
 71
     0
 91
        1
 92
        1
 93
        3
 72
     1
 10
25887.80992201368
 20
20523.77017066931
 11
25846.24742201332
 21
21549.70767066931
 72
     1
 10
25846.24742201332
 20
21549.70767066931
 11
25844.33799404727
 21
21549.70767066931
 72
     1
 10
25844.33799404727
 20
21549.70767066931
 11
25887.80992201368
 21
20523.77017066931
 97
        0
 75
     0
 76
     1
 98
        1
 10
18795.93492201304
 20
6420.957670669142
450
        0
451
        0
460
0.0
461
0.0
452
        0
462
0.0
453
        0
470

1001
REVIT
1002
{
1070
     1
1000
22396001
1002
}
1002
{
1070
     5
1000
22395977
1002
}
1002
{
1070
     3
1000
22395980
1002
}
  0
HATCH
  5
279
330
70
100
AcDbEntity
  8
A-ALV-___-___-EXI
 62
     9
370
     9
100
AcDbHatch
 10
0.0
 20
0.0
 30
0.0
210
0.0
220
0.0
230
1.0
  2
SOLID
 70
     1
 71
     0
 91
        1
 92
        1
 93
        3
 72
     1
 10
21829.99742201328
 20
24417.52017066933
 11
21844.15717523138
 21
24418.60815819294
 72
     1
 10
21844.15717523138
 20
24418.60815819294
 11
21830.05191603372
 21
24417.52548480254
 72
     1
 10
21830.05191603372
 20
24417.52548480254
 11
21829.99742201328
 21
24417.52017066933
 97
        0
 75
     0
 76
     1
 98
        1
 10
18795.93492201304
 20
6420.957670669142
450
        0
451
        0
460
0.0
461
0.0
452
        0
462
0.0
453
        0
470

1001
REVIT
1002
{
1070
     1
1000
22396001
1002
}
1002
{
1070
     5
1000
22395977
1002
}
1002
{
1070
     3
1000
22395980
1002
}
  0
SPLINE
  5
27A
330
70
100
AcDbEntity
  8
A-ALV-___-___-EXI
 62
    18
370
     9
100
AcDbSpline
210
0.0
220
0.0
230
1.0
 70
     8
 71
     3
 72
     8
 73
     4
 74
     0
 42
0.000000001
 43
0.0000000001
 40
0.6884764107771054
 40
0.6884764107771054
 40
0.6884764107771054
 40
0.6884764107771054
 40
0.7413406223086123
 40
0.7413406223086123
 40
0.7413406223086123
 40
0.7413406223086123
 10
27687.59575314223
 20
19609.44701060317
 30
0.0
 10
27680.16964744638
 20
19613.46654913235
 30
0.0
 10
27672.56061799289
 20
19617.19127270828
 30
0.0
 10
27664.78435651962
 20
19620.60548982949
 30
0.0
1001
REVIT
1002
{
1070
     1
1000
22396001
1002
}
1002
{
1070
     5
1000
22395977
1002
}
1002
{
1070
     3
1000
22395980
1002
}
  0
LINE
  5
27C
330
70
100
AcDbEntity
  8
A-ALV-___-___-EXI
 62
    18
370
     9
100
AcDbLine
 10
21754.0070374001
 20
21885.87593986942
 30
0.0
 11
21453.74742201351
 21
27040.33267066936
 31
0.0
1001
REVIT
1002
{
1070
     1
1000
22396001
1002
}
1002
{
1070
     5
1000
22395977
1002
}
1002
{
1070
     3
1000
22395980
1002
}
  0
LINE
  5
27E
330
70
100
AcDbEntity
  8
A-ALV-___-___-EXI
 62
    18
370
     9
100
AcDbLine
 10
27399.37242201342
 20
26646.58267066935
 30
0.0
 11
28140.93492201352
 21
26646.58267066935
 31
0.0
1001
REVIT
1002
{
1070
     1
1000
22396001
1002
}
1002
{
1070
     5
1000
22395977
1002
}
1002
{
1070
     3
1000
22395980
1002
}
  0
LINE
  5
27F
330
70
100
AcDbEntity
  8
A-ALV-___-___-EXI
 62
   254
370
    15
100
AcDbLine
 10
27082.74491058257
 20
23718.10445045353
 30
0.0
 11
27084.37242201371
 21
23719.70767066929
 31
0.0
1001
REVIT
1002
{
1070
     1
1000
22396001
1002
}
1002
{
1070
     5
1000
22395977
1002
}
1002
{
1070
     3
1000
22395980
1002
}
  0
LINE
  5
280
330
70
100
AcDbEntity
  8
A-ALV-___-___-EXI
 62
   254
370
    15
100
AcDbLine
 10
27091.63079388991
 20
23586.9883056518
 30
0.0
 11
27093.12242201353
 21
23588.4576706693
 31
0.0
1001
REVIT
1002
{
1070
     1
1000
22396001
1002
}
1002
{
1070
     5
1000
22395977
1002
}
1002
{
1070
     3
1000
22395980
1002
}
  0
LINE
  5
281
330
70
100
AcDbEntity
  8
A-ALV-___-___-EXI
 62
   254
370
    15
100
AcDbLine
 10
27100.37912159044
 20
23457.90187024615
 30
0.0
 11
27101.87242201334
 21
23459.39517066931
 31
0.0
1001
REVIT
1002
{
1070
     1
1000
22396001
1002
}
1002
{
1070
     5
1000
22395977
1002
}
1002
{
1070
     3
1000
22395980
1002
}
  0
LINE
  5
282
330
70
100
AcDbEntity
  8
A-ALV-___-___-EXI
 62
   254
370
    15
100
AcDbLine
 10
26964.05992201365
 20
23183.77017066929
 30
0.0
 11
26965.2446539051
 21
23184.93721999531
 31
0.0
1001
REVIT
1002
{
1070
     1
1000
22396001
1002
}
1002
{
1070
     5
1000
22395977
1002
}
1002
{
1070
     3
1000
22395980
1002
}
  0
LINE
  5
283
330
70
100
AcDbEntity
  8
A-ALV-___-___-EXI
 62
   254
370
    15
100
AcDbLine
 10
27109.26358894018
 20
23326.8066186865
 30
0.0
 11
27110.62242201362
 21
23328.1451706693
 31
0.0
1001
REVIT
1002
{
1070
     1
1000
22396001
1002
}
1002
{
1070
     5
1000
22395977
1002
}
1002
{
1070
     3
1000
22395980
1002
}
  0
LINE
  5
284
330
70
100
AcDbEntity
  8
A-ALV-___-___-EXI
 62
   254
370
    15
100
AcDbLine
 10
26972.80992201346
 20
23052.52017066931
 30
0.0
 11
26974.16703957718
 21
23053.87728823303
 31
0.0
1001
REVIT
1002
{
1070
     1
1000
22396001
1002
}
1002
{
1070
     5
1000
22395977
1002
}
1002
{
1070
     3
1000
22395980
1002
}
  0
LINE
  5
285
330
70
100
AcDbEntity
  8
A-ALV-___-___-EXI
 62
   254
370
    15
100
AcDbLine
 10
27118.01179084304
 20
23197.72203949863
 30
0.0
 11
27119.37242201343
 21
23199.08267066931
 31
0.0
1001
REVIT
1002
{
1070
     1
1000
22396001
1002
}
1002
{
1070
     5
1000
22395977
1002
}
1002
{
1070
     3
1000
22395980
1002
}
  0
LINE
  5
286
330
70
100
AcDbEntity
  8
A-ALV-___-___-EXI
 62
   254
370
    15
100
AcDbLine
 10
26981.55992201373
 20
22923.45767066928
 30
0.0
 11
26982.95244719496
 21
22924.82941189281
 31
0.0
1001
REVIT
1002
{
1070
     1
1000
22396001
1002
}
1002
{
1070
     5
1000
22395977
1002
}
1002
{
1070
     3
1000
22395980
1002
}
  0
LINE
  5
287
330
70
100
AcDbEntity
  8
A-ALV-___-___-EXI
 62
   254
370
    15
100
AcDbLine
 10
27126.89638399045
 20
23066.62493172118
 30
0.0
 11
27128.1224220137
 21
23067.8326706693
 31
0.0
1001
REVIT
1002
{
1070
     1
1000
22396001
1002
}
1002
{
1070
     5
1000
22395977
1002
}
1002
{
1070
     3
1000
22395980
1002
}
  0
LINE
  5
288
330
70
100
AcDbEntity
  8
A-ALV-___-___-EXI
 62
   254
370
    15
100
AcDbLine
 10
27135.64563984469
 20
22937.52480089197
 30
0.0
 11
27136.87242201351
 21
22938.7701706693
 31
0.0
1001
REVIT
1002
{
1070
     1
1000
22396001
1002
}
1002
{
1070
     5
1000
22395977
1002
}
1002
{
1070
     3
1000
22395980
1002
}
  0
LINE
  5
289
330
70
100
AcDbEntity
  8
A-ALV-___-___-EXI
 62
   254
370
    15
100
AcDbLine
 10
27179.93439309943
 20
22284.01964175532
 30
0.0
 11
27182.80992201356
 21
22286.89517066928
 31
0.0
1001
REVIT
1002
{
1070
     1
1000
22396001
1002
}
1002
{
1070
     5
1000
22395977
1002
}
1002
{
1070
     3
1000
22395980
1002
}
  0
LINE
  5
28A
330
70
100
AcDbEntity
  8
A-ALV-___-___-EXI
 62
   254
370
    15
100
AcDbLine
 10
27188.81751041132
 20
22152.94431075786
 30
0.0
 11
27191.55992201338
 21
22155.64517066928
 31
0.0
1001
REVIT
1002
{
1070
     1
1000
22396001
1002
}
1002
{
1070
     5
1000
22395977
1002
}
1002
{
1070
     3
1000
22395980
1002
}
  0
LINE
  5
28B
330
70
100
AcDbEntity
  8
A-ALV-___-___-EXI
 62
   254
370
    15
100
AcDbLine
 10
27198.12242201358
 20
22024.3951706693
 30
0.0
 11
27200.30992201365
 21
22026.58267066928
 31
0.0
1001
REVIT
1002
{
1070
     1
1000
22396001
1002
}
1002
{
1070
     5
1000
22395977
1002
}
1002
{
1070
     3
1000
22395980
1002
}
  0
LINE
  5
29D
330
70
100
AcDbEntity
  8
A-POR-___-___-EXI
 62
    31
370
    25
100
AcDbLine
 10
25990.62242201367
 20
15855.64517066926
 30
0.0
 11
25882.63601702009
 21
15939.87456656433
 31
0.0
1001
REVIT
1002
{
1070
     1
1000
22396001
1002
}
1002
{
1070
     5
1000
22395977
1002
}
1002
{
1070
     3
1000
22395980
1002
}
  0
LINE
  5
29E
330
70
100
AcDbEntity
  8
A-POR-___-___-EXI
 62
    31
370
    25
100
AcDbLine
 10
25882.6064199597
 20
15941.08121593711
 30
0.0
 11
26458.74742201354
 21
15993.45767066927
 31
0.0
1001
REVIT
1002
{
1070
     1
1000
22396001
1002
}
1002
{
1070
     5
1000
22395977
1002
}
1002
{
1070
     3
1000
22395980
1002
}
  0
LINE
  5
29F
330
70
100
AcDbEntity
  8
A-POR-___-___-EXI
 62
    31
370
    25
100
AcDbLine
 10
25882.57306365585
 20
15942.44112679269
 30
0.0
 11
25973.12242201359
 21
16043.77017066923
 31
0.0
1001
REVIT
1002
{
1070
     1
1000
22396001
1002
}
1002
{
1070
     5
1000
22395977
1002
}
1002
{
1070
     3
1000
22395980
1002
}
  0
LINE
  5
2A0
330
70
100
AcDbEntity
  8
A-ALV-___-___-EXI
 62
    31
370
    25
100
AcDbLine
 10
25919.2412360067
 20
14422.83267066925
 30
0.0
 11
26096.53652866822
 21
14422.83267066925
 31
0.0
1001
REVIT
1002
{
1070
     1
1000
22396001
1002
}
1002
{
1070
     5
1000
22395977
1002
}
1002
{
1070
     3
1000
22395980
1002
}
  0
LINE
  5
2A1
330
70
100
AcDbEntity
  8
A-ALV-___-___-EXI
 62
    31
370
    25
100
AcDbLine
 10
27897.4976094464
 20
14422.83267066925
 30
0.0
 11
27996.55992201362
 21
14422.83267066925
 31
0.0
1001
REVIT
1002
{
1070
     1
1000
22396001
1002
}
1002
{
1070
     5
1000
22395977
1002
}
1002
{
1070
     3
1000
22395980
1002
}
  0
LINE
  5
2A2
330
70
100
AcDbEntity
  8
A-POR-___-___-EXI
 62
    31
370
    25
100
AcDbLine
 10
25951.24742201337
 20
22083.4576706693
 30
0.0
 11
26772.22766963691
 21
22146.60999740954
 31
0.0
1001
REVIT
1002
{
1070
     1
1000
22396001
1002
}
1002
{
1070
     5
1000
22395977
1002
}
1002
{
1070
     3
1000
22395980
1002
}
  0
LINE
  5
2A8
330
70
100
AcDbEntity
  8
A-ALV-___-___-EXI
 62
     9
370
     9
100
AcDbLine
 10
25956.57225753975
 20
22007.8450061956
 30
0.0
 11
25957.80992201357
 21
22009.08267066928
 31
0.0
1001
REVIT
1002
{
1070
     1
1000
22396001
1002
}
1002
{
1070
     5
1000
22395977
1002
}
1002
{
1070
     3
1000
22395980
1002
}
  0
LINE
  5
2A9
330
70
100
AcDbEntity
  8
A-ALV-___-___-EXI
 62
     9
370
     9
100
AcDbLine
 10
25835.96795046878
 20
21747.24069912456
 30
0.0
 11
25837.4974220135
 21
21748.77017066928
 31
0.0
1001
REVIT
1002
{
1070
     1
1000
22396001
1002
}
1002
{
1070
     5
1000
22395977
1002
}
1002
{
1070
     3
1000
22395980
1002
}
  0
LINE
  5
2AA
330
70
100
AcDbEntity
  8
A-ALV-___-___-EXI
 62
     9
370
     9
100
AcDbLine
 10
26092.66034764832
 20
19774.96614708995
 30
0.0
 11
26095.62242201372
 21
19777.83267066927
 31
0.0
1001
REVIT
1002
{
1070
     1
1000
22396001
1002
}
1002
{
1070
     5
1000
22395977
1002
}
1002
{
1070
     3
1000
22395980
1002
}
  0
SPLINE
  5
2AC
330
70
100
AcDbEntity
  8
A-ALV-___-___-EXI
 62
    18
370
     9
100
AcDbSpline
210
0.0
220
0.0
230
1.0
 70
     8
 71
     3
 72
    11
 73
     7
 74
     0
 42
0.000000001
 43
0.0000000001
 40
0.0
 40
0.0
 40
0.0
 40
0.0
 40
0.1062385123676618
 40
0.1062385123676618
 40
0.1062385123676618
 40
0.2997203195908238
 40
0.2997203195908238
 40
0.2997203195908238
 40
0.2997203195908238
 10
26084.25078195142
 20
19736.42098254457
 30
0.0
 10
26085.54599551373
 20
19738.12577237582
 30
0.0
 10
26086.75099005994
 20
19739.91573670071
 30
0.0
 10
26087.8566902021
 20
19741.78591773958
 30
0.0
 10
26089.870393679
 20
19745.19148214824
 30
0.0
 10
26091.4923429643
 20
19748.75738687932
 30
0.0
 10
26092.72269278584
 20
19752.42119150608
 30
0.0
1001
REVIT
1002
{
1070
     1
1000
22396001
1002
}
1002
{
1070
     5
1000
22395977
1002
}
1002
{
1070
     3
1000
22395980
1002
}
  0
SPLINE
  5
2AE
330
70
100
AcDbEntity
  8
A-ALV-___-___-EXI
 62
    18
370
     9
100
AcDbSpline
210
0.0
220
0.0
230
1.0
 70
     8
 71
     3
 72
    11
 73
     7
 74
     0
 42
0.000000001
 43
0.0000000001
 40
0.0
 40
0.0
 40
0.0
 40
0.0
 40
0.7524661093973054
 40
0.7524661093973054
 40
0.7524661093973054
 40
1.392254506279544
 40
1.392254506279544
 40
1.392254506279544
 40
1.392254506279544
 10
26093.66215988433
 20
19755.51337039688
 30
0.0
 10
26097.59621015538
 20
19769.95597664542
 30
0.0
 10
26095.60799639251
 20
19785.61547817716
 30
0.0
 10
26087.70662001153
 20
19798.81899879426
 30
0.0
 10
26080.98843182354
 20
19810.04536391997
 30
0.0
 10
26070.68489690741
 20
19818.34416588587
 30
0.0
 10
26058.7831629279
 20
19822.64294915326
 30
0.0
1001
REVIT
1002
{
1070
     1
1000
22396001
1002
}
1002
{
1070
     5
1000
22395977
1002
}
1002
{
1070
     3
1000
22395980
1002
}
  0
SPLINE
  5
2B0
330
70
100
AcDbEntity
  8
A-ALV-___-___-EXI
 62
    18
370
     9
100
AcDbSpline
210
0.0
220
0.0
230
1.0
 70
     8
 71
     3
 72
    11
 73
     7
 74
     0
 42
0.000000001
 43
0.0000000001
 40
0.0
 40
0.0
 40
0.0
 40
0.0
 40
0.1062385123678324
 40
0.1062385123678324
 40
0.1062385123678324
 40
0.2997203195915368
 40
0.2997203195915368
 40
0.2997203195915368
 40
0.2997203195915368
 10
26014.25078195152
 20
17209.85848254454
 30
0.0
 10
26015.54599551384
 20
17211.56327237579
 30
0.0
 10
26016.75099006006
 20
17213.35323670069
 30
0.0
 10
26017.85669020221
 20
17215.22341773956
 30
0.0
 10
26019.87039367912
 20
17218.62898214822
 30
0.0
 10
26021.49234296441
 20
17222.19488687933
 30
0.0
 10
26022.72269278595
 20
17225.85869150609
 30
0.0
1001
REVIT
1002
{
1070
     1
1000
22396001
1002
}
1002
{
1070
     5
1000
22395977
1002
}
1002
{
1070
     3
1000
22395980
1002
}
  0
SPLINE
  5
2B2
330
70
100
AcDbEntity
  8
A-ALV-___-___-EXI
 62
    18
370
     9
100
AcDbSpline
210
0.0
220
0.0
230
1.0
 70
     8
 71
     3
 72
    11
 73
     7
 74
     0
 42
0.000000001
 43
0.0000000001
 40
0.0
 40
0.0
 40
0.0
 40
0.0
 40
0.7524661093977691
 40
0.7524661093977691
 40
0.7524661093977691
 40
1.392254506280302
 40
1.392254506280302
 40
1.392254506280302
 40
1.392254506280302
 10
26023.66215988445
 20
17228.95087039683
 30
0.0
 10
26027.5962101555
 20
17243.39347664538
 30
0.0
 10
26025.60799639262
 20
17259.05297817714
 30
0.0
 10
26017.70662001165
 20
17272.25649879424
 30
0.0
 10
26010.98843182365
 20
17283.48286391995
 30
0.0
 10
26000.68489690753
 20
17291.78166588585
 30
0.0
 10
25988.78316292802
 20
17296.08044915325
 30
0.0
1001
REVIT
1002
{
1070
     1
1000
22396001
1002
}
1002
{
1070
     5
1000
22395977
1002
}
1002
{
1070
     3
1000
22395980
1002
}
  0
LINE
  5
2B4
330
70
100
AcDbEntity
  8
A-ALV-___-___-EXI
 62
    18
370
     9
100
AcDbLine
 10
25631.87242201353
 20
21549.70767066931
 30
0.0
 11
25628.16279687629
 21
21549.70767066931
 31
0.0
1001
REVIT
1002
{
1070
     1
1000
22396001
1002
}
1002
{
1070
     5
1000
22395977
1002
}
1002
{
1070
     3
1000
22395980
1002
}
  0
LINE
  5
2B5
330
70
100
AcDbEntity
  8
A-ALV-___-___-EXI
 62
    18
370
     9
100
AcDbLine
 10
25628.16279687629
 20
20515.0201706693
 30
0.0
 11
25669.05992201331
 21
20515.0201706693
 31
0.0
1001
REVIT
1002
{
1070
     1
1000
22396001
1002
}
1002
{
1070
     5
1000
22395977
1002
}
1002
{
1070
     3
1000
22395980
1002
}
  0
LINE
  5
2B6
330
70
100
AcDbEntity
  8
A-ALV-___-___-EXI
 62
    18
370
     9
100
AcDbLine
 10
26931.7383345889
 20
23672.68142873316
 30
0.0
 11
26946.55992201356
 21
23459.39517066934
 31
0.0
1001
REVIT
1002
{
1070
     1
1000
22396001
1002
}
1002
{
1070
     5
1000
22395977
1002
}
1002
{
1070
     3
1000
22395980
1002
}
  0
LINE
  5
2B8
330
70
100
AcDbEntity
  8
A-ALV-___-___-EXI
 62
    18
370
     9
100
AcDbLine
 10
22151.55992201363
 20
17454.70767066927
 30
0.0
 11
22155.67017369281
 21
17454.70767066927
 31
0.0
1001
REVIT
1002
{
1070
     1
1000
22396001
1002
}
1002
{
1070
     5
1000
22395977
1002
}
1002
{
1070
     3
1000
22395980
1002
}
  0
LINE
  5
2B9
330
70
100
AcDbEntity
  8
A-ALV-___-___-EXI
 62
    18
370
     9
100
AcDbLine
 10
22155.67017369281
 20
17165.95767066927
 30
0.0
 11
22151.55992201363
 21
17165.95767066927
 31
0.0
1001
REVIT
1002
{
1070
     1
1000
22396001
1002
}
1002
{
1070
     5
1000
22395977
1002
}
1002
{
1070
     3
1000
22395980
1002
}
  0
LINE
  5
2C1
330
70
100
AcDbEntity
  8
A-ALV-___-___-EXI
 62
    18
370
     9
100
AcDbLine
 10
25674.62276512986
 20
15372.20767066926
 30
0.0
 11
25682.89631954704
 21
15372.20767066926
 31
0.0
1001
REVIT
1002
{
1070
     1
1000
22396001
1002
}
1002
{
1070
     5
1000
22395977
1002
}
1002
{
1070
     3
1000
22395980
1002
}
  0
LINE
  5
2C2
330
70
100
AcDbEntity
  8
A-ALV-___-___-EXI
 62
    18
370
     9
100
AcDbLine
 10
25695.30992201367
 20
19014.39517066928
 30
0.0
 11
25648.8805461093
 21
19015.82376685097
 31
0.0
1001
REVIT
1002
{
1070
     1
1000
22396001
1002
}
1002
{
1070
     5
1000
22395977
1002
}
1002
{
1070
     3
1000
22395980
1002
}
  0
LINE
  5
2C3
330
70
100
AcDbEntity
  8
A-ALV-___-___-EXI
 62
    18
370
     9
100
AcDbLine
 10
25648.8805461093
 20
17982.38145915864
 30
0.0
 11
25664.68492201363
 21
17981.89517066928
 31
0.0
1001
REVIT
1002
{
1070
     1
1000
22396001
1002
}
1002
{
1070
     5
1000
22395977
1002
}
1002
{
1070
     3
1000
22395980
1002
}
  0
SPLINE
  5
2C6
330
70
100
AcDbEntity
  8
A-POR-___-___-EXI
 62
     8
370
     9
100
AcDbSpline
210
0.0
220
0.0
230
1.0
 70
     8
 71
     3
 72
    14
 73
    10
 74
     0
 42
0.000000001
 43
0.0000000001
 40
0.0
 40
0.0
 40
0.0
 40
0.0
 40
0.9542751712044116
 40
0.9542751712044116
 40
0.9542751712044116
 40
1.954275171204411
 40
1.954275171204411
 40
1.954275171204411
 40
2.954275171204411
 40
2.954275171204411
 40
2.954275171204411
 40
2.954275171204411
 10
25897.02098909616
 20
15374.57898494766
 30
0.0
 10
26096.06494132752
 20
15379.5999496031
 30
0.0
 10
26279.43596852025
 20
15486.86877149918
 30
0.0
 10
26381.06286695993
 20
15659.65029762236
 30
0.0
 10
26487.55929640339
 20
15840.71078346219
 30
0.0
 10
26487.55929640339
 20
16065.26598976102
 30
0.0
 10
26381.06286695993
 20
16246.32647560088
 30
0.0
 10
26274.56643751647
 20
16427.38696144073
 30
0.0
 10
26078.30453566118
 20
16536.50668189969
 30
0.0
 10
25868.30827406412
 20
16531.41284034696
 30
0.0
1001
REVIT
1002
{
1070
     1
1000
22396001
1002
}
1002
{
1070
     5
1000
22395977
1002
}
1002
{
1070
     3
1000
22395980
1002
}
  0
LINE
  5
2C7
330
70
100
AcDbEntity
  8
A-ESC-___-___-EXI
 62
     8
370
     9
100
AcDbLine
 10
25839.70339834146
 20
21659.08412932676
 30
0.0
 11
26920.30992201366
 21
21744.39517066928
 31
0.0
1001
REVIT
1002
{
1070
     1
1000
22396001
1002
}
1002
{
1070
     5
1000
22395977
1002
}
1002
{
1070
     3
1000
22395980
1002
}
  0
LINE
  5
2C8
330
70
100
AcDbEntity
  8
A-ESC-___-___-EXI
 62
     8
370
     9
100
AcDbLine
 10
25850.64089883644
 20
21400.95911764939
 30
0.0
 11
26939.99742201336
 21
21486.27017066929
 31
0.0
1001
REVIT
1002
{
1070
     1
1000
22396001
1002
}
1002
{
1070
     5
1000
22395977
1002
}
1002
{
1070
     3
1000
22395980
1002
}
  0
LINE
  5
2E7
330
70
100
AcDbEntity
  8
A-ESC-___-___-EXI
 62
    31
370
    25
100
AcDbLine
 10
26533.12242201355
 20
21871.2701706693
 30
0.0
 11
26432.49742201364
 21
21965.3326706693
 31
0.0
1001
REVIT
1002
{
1070
     1
1000
22396001
1002
}
1002
{
1070
     5
1000
22395977
1002
}
1002
{
1070
     3
1000
22395980
1002
}
  0
LWPOLYLINE
  5
36A
330
70
100
AcDbEntity
  8
A-ALV-___-___-EXI
100
AcDbPolyline
 90
        8
 70
     0
 43
0.0
 10
25614.37242201309
 20
22057.20767066929
 10
25619.54176338905
 20
21907.29677076626
 10
25631.87242201309
 20
21549.70767066929
 10
25844.05992201309
 20
21556.27017066929
 10
25828.77359196383
 20
21917.02755983185
 10
25962.18492201309
 20
21928.14517066929
 10
25951.24742201309
 20
22083.45767066929
 10
26889.6849220131
 20
22155.64517066929
1001
REVIT
1002
{
1070
     1
1000
22420384
1002
}
1002
{
1070
     5
1000
383807
1002
}
1002
{
1070
     2
1000
-2000051
1002
}
1002
{
1070
     3
1000
-2000042
1002
}
  0
LWPOLYLINE
  5
36B
330
70
100
AcDbEntity
  8
A-ALV-___-___-EXI
100
AcDbPolyline
 90
       12
 70
     0
 43
0.0
 10
21844.15717523088
 20
24262.52108131663
 10
23076.88078153069
 20
24382.42124971054
 10
23063.75594972407
 20
24537.73175942248
 10
21833.07266194816
 20
24417.5254848025
 10
21844.15717523088
 20
24262.52108131663
 10
26858.68457194657
 20
24750.18642386889
 10
27034.57039356919
 20
22166.6191329233
 10
26889.6411282193
 20
22156.26704254116
 10
26900.62242201309
 20
22000.33267066929
 10
27197.33213591977
 20
22027.30628102444
 10
27001.2474220131
 20
24920.64517066931
 10
26981.00757631704
 20
24918.67588838537
1001
REVIT
1002
{
1070
     1
1000
22420384
1002
}
1002
{
1070
     5
1000
383807
1002
}
1002
{
1070
     2
1000
-2000051
1002
}
1002
{
1070
     3
1000
-2000042
1002
}
  0
LWPOLYLINE
  5
36C
330
70
100
AcDbEntity
  8
A-ALV-___-___-EXI
100
AcDbPolyline
 90
       13
 70
     0
 43
0.0
 10
25647.40112840845
 20
17165.95767066924
 10
25494.05992201309
 20
17165.95767066924
 10
25494.05992201309
 20
17445.95767066924
 10
25649.56442828268
 20
17445.95767066924
 10
25664.68492201309
 20
17981.89517066925
 10
25695.30992201308
 20
19014.39517066926
 10
25903.12242201308
 20
19012.20767066926
 10
25922.9962390478
 20
19712.20767066927
 10
26036.55992201311
 20
19712.20767066926
 42
0.9999999999988165
 10
26036.55992201325
 20
19825.95767066927
 10
25918.43492201309
 20
19821.58267066927
 10
25887.80992201309
 20
20523.77017066928
 10
25844.05992201309
 20
21556.27017066929
1001
REVIT
1002
{
1070
     1
1000
22420384
1002
}
1002
{
1070
     5
1000
383807
1002
}
1002
{
1070
     2
1000
-2000051
1002
}
1002
{
1070
     3
1000
-2000042
1002
}
  0
LWPOLYLINE
  5
36D
330
70
100
AcDbEntity
  8
A-ALV-___-___-EXI
100
AcDbPolyline
 90
        8
 70
     0
 43
0.0
 10
24317.18492201307
 20
14090.33267066921
 10
24317.18492201307
 20
14317.83267066921
 10
24192.49742201307
 20
14317.83267066921
 10
24192.49742201307
 20
14578.14517066922
 10
23770.30992201307
 20
14578.14517066922
 10
23770.30992201307
 20
14317.83267066921
 10
23652.18492201307
 20
14317.83267066921
 10
23652.18492201307
 20
14090.33267066921
1001
REVIT
1002
{
1070
     1
1000
22420384
1002
}
1002
{
1070
     5
1000
383807
1002
}
1002
{
1070
     2
1000
-2000051
1002
}
1002
{
1070
     3
1000
-2000042
1002
}
  0
LWPOLYLINE
  5
36E
330
70
100
AcDbEntity
  8
A-ALV-___-___-EXI
100
AcDbPolyline
 90
        3
 70
     0
 43
0.0
 10
23652.18492201307
 20
14317.83267066921
 10
22639.37242201306
 20
14317.83267066921
 10
22639.37242201306
 20
14090.33267066921
1001
REVIT
1002
{
1070
     1
1000
22420595
1002
}
1002
{
1070
     5
1000
383807
1002
}
1002
{
1070
     2
1000
-2000051
1002
}
1002
{
1070
     3
1000
-2000042
1002
}
  0
LWPOLYLINE
  5
36F
330
70
100
AcDbEntity
  8
A-JAN-___-___-EXI
100
AcDbPolyline
 90
        3
 70
     0
 43
0.0
 10
25351.87242201308
 20
14090.33267066921
 10
25351.87242201308
 20
14317.83267066921
 10
24317.18492201307
 20
14317.83267066921
1001
REVIT
1002
{
1070
     1
1000
22420595
1002
}
1002
{
1070
     5
1000
383807
1002
}
1002
{
1070
     2
1000
-2000051
1002
}
1002
{
1070
     3
1000
-2000042
1002
}
  0
LWPOLYLINE
  5
370
330
70
100
AcDbEntity
  8
A-POR-___-___-EXI
100
AcDbPolyline
 90
        8
 70
     0
 43
0.0
 10
25874.68492201309
 20
17979.70767066924
 10
25854.9974220131
 20
17295.02017066924
 10
25966.55992201323
 20
17299.39517066925
 42
-0.9999999999988805
 10
25966.55992201309
 20
17185.64517066924
 10
25852.80992201309
 20
17185.64517066924
 10
25868.1224220131
 20
16531.58267066923
 10
25662.96126991788
 20
16531.58267066923
 10
25688.60586308481
 20
15377.91721410311
1001
REVIT
1002
{
1070
     1
1000
22420595
1002
}
1002
{
1070
     5
1000
383807
1002
}
1002
{
1070
     2
1000
-2000051
1002
}
1002
{
1070
     3
1000
-2000042
1002
}
  0
LWPOLYLINE
  5
371
330
70
100
AcDbEntity
  8
A-JAN-___-___-EXI
100
AcDbPolyline
 90
        4
 70
     0
 43
0.0
 10
25649.56442828268
 20
17445.95767066924
 10
25664.68492201309
 20
17981.89517066925
 10
25874.68492201309
 20
17979.70767066924
 10
25903.12242201308
 20
19012.20767066926
1001
REVIT
1002
{
1070
     1
1000
22420595
1002
}
1002
{
1070
     5
1000
383807
1002
}
1002
{
1070
     2
1000
-2000051
1002
}
1002
{
1070
     3
1000
-2000042
1002
}
  0
LWPOLYLINE
  5
372
330
70
100
AcDbEntity
  8
A-POR-___-___-EXI
100
AcDbPolyline
 90
        5
 70
     0
 43
0.0
 10
27996.5599220131
 20
14650.33267066915
 10
27996.55992201311
 20
14090.33267066922
 10
25927.18492201309
 20
14090.33267066922
 10
25896.5599220131
 20
15372.20767066922
 10
25868.1224220131
 20
16531.58267066923
1001
REVIT
1002
{
1070
     1
1000
22428781
1002
}
1002
{
1070
     2
1000
-2000051
1002
}
1002
{
1070
     3
1000
-2000042
1002
}
  0
LWPOLYLINE
  5
373
330
70
100
AcDbEntity
  8
A-ALV-___-___-EXI
100
AcDbPolyline
 90
        8
 70
     0
 43
0.0
 10
22639.37242201306
 20
14317.83267066921
 10
22523.43492201306
 20
14317.83267066921
 10
22523.43492201306
 20
14578.14517066922
 10
22079.37242201306
 20
14578.14517066921
 10
22031.24742201306
 20
17165.95767066923
 10
22151.55992201306
 20
17165.95767066923
 10
22151.55992201306
 20
17445.95767066924
 10
22151.55992201306
 20
17165.95767066923
1001
REVIT
1002
{
1070
     1
1000
22435731
1002
}
1002
{
1070
     2
1000
-2000051
1002
}
1002
{
1070
     3
1000
-2000042
1002
}
  0
LWPOLYLINE
  5
374
330
70
100
AcDbEntity
  8
A-ALV-___-___-EXI
100
AcDbPolyline
 90
        4
 70
     0
 43
0.0
 10
21775.30992201305
 20
17165.95767066918
 10
21768.74742201306
 20
17445.95767066934
 10
21768.74742201306
 20
21630.64517066952
 10
21609.05992201304
 20
24395.6451706693
1001
REVIT
1002
{
1070
     1
1000
22435741
1002
}
1002
{
1070
     2
1000
-2000051
1002
}
1002
{
1070
     3
1000
-2000042
1002
}
  0
LWPOLYLINE
  5
375
330
70
100
AcDbEntity
  8
A-ALV-___-___-EXI
100
AcDbPolyline
 90
       18
 70
     0
 43
0.0
 10
21768.74742201308
 20
19666.27017066926
 10
21768.74742201308
 20
21630.64517066923
 10
21609.05992201304
 20
24395.6451706693
 10
21833.07266194816
 20
24417.5254848025
 10
22011.55992201305
 20
21921.58267066928
 10
22140.62242201306
 20
21921.58267066928
 10
22140.62242201306
 20
21630.64517066928
 10
22000.62242201306
 20
21630.64517066928
 10
22000.62242201306
 20
21150.64517066929
 10
22000.62242201306
 20
20130.64517066928
 10
22000.62242201306
 20
19734.08267066926
 10
22153.74742201307
 20
19734.08267066926
 10
22153.74742201305
 20
19440.95767066926
 10
21998.43492201305
 20
19440.95767066926
 10
21998.43492201306
 20
17445.95767066924
 10
22151.55992201306
 20
17445.95767066924
 10
21998.43492201306
 20
17445.95767066924
 10
21998.43492201305
 20
19214.6110259158
1001
REVIT
1002
{
1070
     1
1000
22435766
1002
}
1002
{
1070
     2
1000
-2000051
1002
}
1002
{
1070
     3
1000
-2000042
1002
}
  0
LWPOLYLINE
  5
376
330
70
100
AcDbEntity
  8
A-ALV-___-___-EXI
100
AcDbPolyline
 90
        3
 70
     0
 43
0.0
 10
22132.46419927704
 20
21630.6937315189
 10
22000.62242201306
 20
21631.47850400262
 10
22000.62242201306
 20
19734.08267066926
1001
REVIT
1002
{
1070
     1
1000
22435766
1002
}
1002
{
1070
     2
1000
-2000051
1002
}
1002
{
1070
     3
1000
-2000042
1002
}
  0
LWPOLYLINE
  5
377
330
70
100
AcDbEntity
  8
A-ALV-___-___-EXI
100
AcDbPolyline
 90
        5
 70
     0
 43
0.0
 10
25887.8099220131
 20
20523.77017066928
 10
25669.05992201309
 20
20515.02017066928
 10
25631.87242201309
 20
21549.70767066929
 10
25614.37242201309
 20
22057.20767066929
 10
25951.24742201309
 20
22083.45767066929
1001
REVIT
1002
{
1070
     1
1000
22435806
1002
}
1002
{
1070
     2
1000
-2000051
1002
}
1002
{
1070
     3
1000
-2000042
1002
}
  0
LWPOLYLINE
  5
378
330
70
100
AcDbEntity
  8
A-ALV-___-___-EXI
100
AcDbPolyline
 90
        6
 70
     0
 43
0.0
 10
25699.25976527328
 20
19712.20767066927
 10
25669.05992201309
 20
20515.02017066928
 10
25699.25976527328
 20
19712.20767066927
 10
25714.9974220131
 20
19712.20767066927
 10
25695.30992201308
 20
19014.39517066926
 10
25714.9974220131
 20
19712.20767066927
1001
REVIT
1002
{
1070
     1
1000
22435821
1002
}
1002
{
1070
     2
1000
-2000051
1002
}
1002
{
1070
     3
1000
-2000042
1002
}
  0
LWPOLYLINE
  5
379
330
70
100
AcDbEntity
  8
A-ALV-___-___-EXI
100
AcDbPolyline
 90
        5
 70
     0
 43
0.0
 10
25351.87242201308
 20
14317.83267066922
 10
25474.37242201309
 20
14317.83267066921
 10
25474.37242201309
 20
14578.14517066922
 10
25708.43492201309
 20
14578.14517066922
 10
25688.60586307748
 20
15377.91721440594
1001
REVIT
1002
{
1070
     1
1000
22435883
1002
}
1002
{
1070
     2
1000
-2000051
1002
}
1002
{
1070
     3
1000
-2000042
1002
}
  0
LWPOLYLINE
  5
37A
330
70
100
AcDbEntity
  8
A-ALV-___-___-EXI
100
AcDbPolyline
 90
        7
 70
     0
 43
0.0
 10
27996.5599220131
 20
14650.33267066937
 10
27244.0599220131
 20
26646.58267066933
 10
27399.3724220131
 20
26646.58267066933
 10
27626.16544301213
 20
23030.49394696259
 10
28186.87242201313
 20
14090.33267066922
 10
21867.18492201304
 20
14090.33267066924
 10
21772.83156195025
 20
17248.92372420004
1001
REVIT
1002
{
1070
     1
1000
22435893
1002
}
1002
{
1070
     2
1000
-2000051
1002
}
1002
{
1070
     3
1000
-2000042
1002
}
  0
LWPOLYLINE
  5
37B
330
70
100
AcDbEntity
  8
A-ALV-___-___-EXI
100
AcDbPolyline
 90
        2
 70
     1
 43
0.0
 10
25896.5599220131
 20
15372.20767066922
 10
25927.18492201309
 20
14090.33267066922
1001
REVIT
1002
{
1070
     1
1000
22435913
1002
}
1002
{
1070
     2
1000
-2000051
1002
}
1002
{
1070
     3
1000
-2000042
1002
}
  0
LWPOLYLINE
  5
37C
330
70
100
AcDbEntity
  8
A-ESC-___-___-EXI
 62
     8
370
     9
100
AcDbPolyline
 90
        3
 70
     0
 43
0.0
 10
26344.99742201367
 20
21855.95767066928
 10
26432.49742201364
 20
21965.3326706693
 10
26491.55992201364
 20
21190.95767066929
1001
REVIT
1002
{
1070
     1
1000
22396001
1002
}
1002
{
1070
     5
1000
22395977
1002
}
1002
{
1070
     3
1000
22395980
1002
}
  0
LWPOLYLINE
  5
37D
330
70
100
AcDbEntity
  8
A-POR-___-___-EXI
 62
     8
370
     9
100
AcDbPolyline
 90
        4
 70
     0
 43
0.0
 10
25861.57839944377
 20
21142.83410331301
 10
26961.87242201358
 20
21228.14517066933
 10
26900.62242201351
 20
22000.33267066932
 10
25962.1849220137
 20
21928.14517066932
1001
REVIT
1002
{
1070
     1
1000
22396001
1002
}
1002
{
1070
     5
1000
22395977
1002
}
1002
{
1070
     3
1000
22395980
1002
}
  0
LWPOLYLINE
  5
37E
330
70
100
AcDbEntity
  8
A-ALV-___-___-EXI
 62
    18
370
     9
100
AcDbPolyline
 90
        2
 70
     1
 43
0.0
 10
24192.4974220133
 20
14578.14517066924
 10
24192.4974220133
 20
14591.83368854382
1001
REVIT
1002
{
1070
     1
1000
22396001
1002
}
1002
{
1070
     5
1000
22395977
1002
}
1002
{
1070
     3
1000
22395980
1002
}
  0
LWPOLYLINE
  5
37F
330
70
100
AcDbEntity
  8
A-ALV-___-___-EXI
 62
    18
370
     9
100
AcDbPolyline
 90
        2
 70
     1
 43
0.0
 10
23770.30992201348
 20
14578.14517066924
 10
23770.30992201348
 20
14591.83368854382
1001
REVIT
1002
{
1070
     1
1000
22396001
1002
}
1002
{
1070
     5
1000
22395977
1002
}
1002
{
1070
     3
1000
22395980
1002
}
  0
LWPOLYLINE
  5
380
330
70
100
AcDbEntity
  8
A-ALV-___-___-EXI
 62
    18
370
     9
100
AcDbPolyline
 90
        2
 70
     1
 43
0.0
 10
22523.43492201372
 20
14578.14517066925
 10
22523.43492201372
 20
14591.83368854379
1001
REVIT
1002
{
1070
     1
1000
22396001
1002
}
1002
{
1070
     5
1000
22395977
1002
}
1002
{
1070
     3
1000
22395980
1002
}
  0
LWPOLYLINE
  5
381
330
70
100
AcDbEntity
  8
A-ALV-___-___-EXI
 62
    18
370
     9
100
AcDbPolyline
 90
        3
 70
     0
 43
0.0
 10
27044.99742201341
 20
22013.45767066933
 10
27200.30992201365
 20
22024.39517066933
 10
27099.68492201373
 20
23468.14517066932
1001
REVIT
1002
{
1070
     1
1000
22396001
1002
}
1002
{
1070
     5
1000
22395977
1002
}
1002
{
1070
     3
1000
22395980
1002
}
  0
LWPOLYLINE
  5
382
330
70
100
AcDbEntity
  8
A-ALV-___-___-EXI
 62
    18
370
     9
100
AcDbPolyline
 90
        6
 70
     0
 43
0.0
 10
25830.93492201375
 20
21917.20767066932
 10
25844.0599220137
 20
21556.27017066932
 10
25846.24742201332
 20
21549.70767066931
 10
25844.33799404727
 20
21549.70767066931
 10
25846.24742201332
 20
21549.70767066931
 10
25887.80992201368
 20
20523.77017066931
1001
REVIT
1002
{
1070
     1
1000
22396001
1002
}
1002
{
1070
     5
1000
22395977
1002
}
1002
{
1070
     3
1000
22395980
1002
}
  0
LWPOLYLINE
  5
383
330
70
100
AcDbEntity
  8
A-JAN-___-___-EXI
 62
     9
370
     9
100
AcDbPolyline
 90
        7
 70
     0
 43
0.0
 10
22549.68492201362
 20
24487.52017066936
 10
21829.99742201328
 20
24417.52017066933
 10
21832.34390968369
 20
24417.45430434878
 10
21829.99742201328
 20
24417.52017066933
 10
21833.07266194856
 20
24417.52017066933
 10
21829.99742201328
 20
24417.52017066933
 10
23063.74742201354
 20
24537.83267066937
1001
REVIT
1002
{
1070
     1
1000
22396001
1002
}
1002
{
1070
     5
1000
22395977
1002
}
1002
{
1070
     3
1000
22395980
1002
}
  0
LWPOLYLINE
  5
384
330
70
100
AcDbEntity
  8
A-ALV-___-___-EXI
 62
    18
370
     9
100
AcDbPolyline
 90
        6
 70
     0
 43
0.0
 10
21768.74742201367
 20
19802.33267066929
 10
21755.62242201371
 20
19786.58267066929
 10
21768.74742201367
 20
19800.52798316929
 10
21755.62242201371
 20
19786.58267066929
 10
21751.24742201358
 20
19790.95767066928
 10
21768.74742201367
 20
19807.4282589046
1001
REVIT
1002
{
1070
     1
1000
22396001
1002
}
1002
{
1070
     5
1000
22395977
1002
}
1002
{
1070
     3
1000
22395980
1002
}
  0
LWPOLYLINE
  5
385
330
70
100
AcDbEntity
  8
A-ALV-___-___-EXI
 62
    18
370
     9
100
AcDbPolyline
 90
        6
 70
     0
 43
0.0
 10
21768.74742201367
 20
21560.17642066935
 10
21757.80992201333
 20
21545.33267066933
 10
21768.74742201367
 20
21556.95376441935
 10
21757.80992201333
 20
21545.33267066933
 10
21753.43492201365
 20
21549.70767066932
 10
21768.74742201367
 20
21565.97720191934
1001
REVIT
1002
{
1070
     1
1000
22396001
1002
}
1002
{
1070
     5
1000
22395977
1002
}
1002
{
1070
     3
1000
22395980
1002
}
  0
LWPOLYLINE
  5
386
330
70
100
AcDbEntity
  8
A-ALV-___-___-EXI
 62
    18
370
     9
100
AcDbPolyline
 90
        6
 70
     0
 43
0.0
 10
20534.9974220134
 20
26646.58267066937
 10
24209.99742201339
 20
26646.58267066936
 10
24336.87242201366
 20
27224.08267066939
 10
24544.68492201369
 20
26069.08267066936
 10
24671.5599220135
 20
26646.58267066936
 10
27244.05992201363
 20
26646.58267066935
1001
REVIT
1002
{
1070
     1
1000
22396001
1002
}
1002
{
1070
     5
1000
22395977
1002
}
1002
{
1070
     3
1000
22395980
1002
}
  0
VIEWPORT
  5
398
102
{ACAD_XDICTIONARY
360
399
102
}
330
74
100
AcDbEntity
 67
     1
  8
0
100
AcDbViewport
 10
191.2674329896809
 20
87.82648981414785
 30
0.0
 40
686.3181950408574
 41
271.1424978309369
 68
     1
 69
     1
 12
191.2674329896809
 22
87.82648981414785
 13
0.0
 23
0.0
 14
10.0
 24
10.0
 15
10.0
 25
10.0
 16
0.0
 26
0.0
 36
1.0
 17
0.0
 27
0.0
 37
0.0
 42
50.0
 43
0.0
 44
0.0
 45
271.1424978309369
 50
0.0
 51
0.0
 72
   100
 90
   819232
  1

281
     0
 71
     1
 74
     0
110
0.0
120
0.0
130
0.0
111
1.0
121
0.0
131
0.0
112
0.0
122
1.0
132
0.0
 79
     0
146
0.0
170
     0
 61
     5
348
2F
292
     1
282
     1
141
0.0
142
0.0
 63
   250
421
  3355443
  0
VIEWPORT
  5
39C
102
{ACAD_XDICTIONARY
360
39D
102
}
330
74
100
AcDbEntity
 67
     1
  8
0
100
AcDbViewport
 10
148.5
 20
104.9443283081054
 30
0.0
 40
237.6
 41
167.9109252929687
 68
     2
 69
     2
 12
24360.93492201327
 22
20657.2076706693
 13
0.0
 23
0.0
 14
1.0
 24
1.0
 15
0.0
 25
0.0
 16
0.0
 26
0.0
 36
1.0
 17
0.0
 27
0.0
 37
0.0
 42
50.0
 43
0.0
 44
0.0
 45
13270.3227902948
 50
0.0
 51
0.0
 72
  1000
 90
   819232
  1

281
     0
 71
     1
 74
     0
110
0.0
120
0.0
130
0.0
111
1.0
121
0.0
131
0.0
112
0.0
122
1.0
132
0.0
 79
     0
146
0.0
170
     0
 61
     5
348
2F
292
     1
282
     1
141
0.0
142
0.0
 63
   250
421
  3355443
  0
ENDSEC
  0
SECTION
  2
OBJECTS
  0
DICTIONARY
  5
C
330
0
100
AcDbDictionary
281
     1
  3
ACAD_CIP_PREVIOUS_PRODUCT_INFO
350
79
  3
ACAD_COLOR
350
63
  3
ACAD_DETAILVIEWSTYLE
350
6A
  3
ACAD_GROUP
350
D
  3
ACAD_IMAGE_VARS
350
7A
  3
ACAD_LAYOUT
350
62
  3
ACAD_MATERIAL
350
10
  3
ACAD_MLEADERSTYLE
350
66
  3
ACAD_MLINESTYLE
350
5F
  3
ACAD_PLOTSETTINGS
350
61
  3
ACAD_PLOTSTYLENAME
350
E
  3
ACAD_RENDER_ACTIVE_RAPIDRT_SETTINGS
350
23A
  3
ACAD_RENDER_RAPIDRT_SETTINGS
350
233
  3
ACAD_SCALELIST
350
42
  3
ACAD_SECTIONVIEWSTYLE
350
68
  3
ACAD_TABLESTYLE
350
64
  3
ACAD_VISUALSTYLE
350
29
  3
ACDB_RECOMPOSE_DATA
350
3C9
  3
AcDbVariableDictionary
350
221
  3
REVIT_DICTIONARY
350
218
  0
SUN
  5
220
330
57
100
AcDbSun
 90
        1
290
     1
 63
     7
421
 16777215
 40
0.3
291
     1
 91
  2460364
 92
 44330000
292
     0
 70
     1
 71
   128
280
     1
  0
DICTIONARY
  5
23F
330
2
100
AcDbDictionary
280
     1
281
     1
  3
ACAD_LAYERSTATES
360
240
  0
DICTIONARY
  5
21D
330
70
100
AcDbDictionary
280
     1
281
     1
  3
ACAD_SORTENTS
360
21E
  0
DICTIONARY
  5
399
330
398
100
AcDbDictionary
280
     1
281
     1
  3
ASDK_XREC_ANNOTATION_SCALE_INFO
360
39A
  0
DICTIONARY
  5
39D
330
39C
100
AcDbDictionary
280
     1
281
     1
  3
ASDK_XREC_ANNOTATION_SCALE_INFO
360
39E
  0
XRECORD
  5
79
102
{ACAD_REACTORS
330
C
102
}
330
C
100
AcDbXrecord
280
     1
300
ACD
300
2022
300

  0
DICTIONARY
  5
63
102
{ACAD_REACTORS
330
C
102
}
330
C
100
AcDbDictionary
281
     1
  0
DICTIONARY
  5
6A
102
{ACAD_REACTORS
330
C
102
}
330
C
100
AcDbDictionary
281
     1
  3
Imperial24
350
6B
  3
Metric50
350
229
  0
DICTIONARY
  5
D
102
{ACAD_REACTORS
330
C
102
}
330
C
100
AcDbDictionary
281
     1
  0
RASTERVARIABLES
  5
7A
102
{ACAD_REACTORS
330
C
102
}
330
C
100
AcDbRasterVariables
 90
        0
 70
     0
 71
     1
 72
     1
  0
DICTIONARY
  5
62
102
{ACAD_REACTORS
330
C
102
}
330
C
100
AcDbDictionary
281
     1
  3
Layout2
350
77
  3
Model
350
73
  0
DICTIONARY
  5
10
102
{ACAD_REACTORS
330
C
102
}
330
C
100
AcDbDictionary
281
     1
  3
ByBlock
350
19
  3
ByLayer
350
11
  3
Global
350
21
  0
DICTIONARY
  5
66
102
{ACAD_REACTORS
330
C
102
}
330
C
100
AcDbDictionary
281
     1
  3
Standard
350
67
  0
DICTIONARY
  5
5F
102
{ACAD_REACTORS
330
C
102
}
330
C
100
AcDbDictionary
281
     1
  3
Standard
350
60
  0
DICTIONARY
  5
61
102
{ACAD_REACTORS
330
C
102
}
330
C
100
AcDbDictionary
281
     1
  0
ACDBDICTIONARYWDFLT
  5
E
102
{ACAD_REACTORS
330
C
102
}
330
C
100
AcDbDictionary
281
     1
  3
Normal
350
F
100
AcDbDictionaryWithDefault
340
F
  0
RAPIDRTRENDERSETTINGS
  5
23A
102
{ACAD_REACTORS
330
C
102
}
330
C
100
AcDbRenderSettings
 90
        2
  1
Médio
290
     1
290
     0
290
     1
290
     1
  1

  1
Aplica 5 níveis de renderização
 90
        0
100
AcDbRapidRTRenderSettings
 90
        3
 70
     0
 90
        5
 90
        1
 70
     1
 70
     2
 40
3.0
 40
3.0
290
     1
  0
DICTIONARY
  5
233
102
{ACAD_REACTORS
330
C
102
}
330
C
100
AcDbDictionary
281
     1
  3
Alto
350
236
  3
Baixo
350
234
  3
Médio
350
235
  3
Qualidade de curta duração
350
237
  3
Qualidade de longa duração
350
239
  3
Qualidade de média duração
350
238
  0
DICTIONARY
  5
42
102
{ACAD_REACTORS
330
C
102
}
330
C
100
AcDbDictionary
281
     1
  3
A0
350
43
  3
A1
350
44
  3
A2
350
45
  3
A3
350
46
  3
A4
350
47
  3
A5
350
48
  3
A6
350
49
  3
A7
350
4A
  3
A8
350
4B
  3
A9
350
4C
  3
B0
350
4D
  3
B1
350
4E
  3
B2
350
4F
  3
B3
350
50
  3
B4
350
51
  3
B5
350
52
  3
B6
350
53
  0
DICTIONARY
  5
68
102
{ACAD_REACTORS
330
C
102
}
330
C
100
AcDbDictionary
281
     1
  3
Imperial24
350
69
  3
Metric50
350
228
  0
DICTIONARY
  5
64
102
{ACAD_REACTORS
330
C
102
}
330
C
100
AcDbDictionary
281
     1
  3
Standard
350
65
  0
DICTIONARY
  5
29
102
{ACAD_REACTORS
330
C
102
}
330
C
100
AcDbDictionary
281
     1
  3
2dWireframe
350
2F
  3
Basic
350
2E
  3
Brighten
350
35
  3
ColorChange
350
39
  3
Conceptual
350
32
  3
Dim
350
34
  3
EdgeColorOff
350
41
  3
Facepattern
350
38
  3
Flat
350
2A
  3
FlatWithEdges
350
2B
  3
Gouraud
350
2C
  3
GouraudWithEdges
350
2D
  3
Hidden
350
31
  3
JitterOff
350
3F
  3
Linepattern
350
37
  3
OverhangOff
350
40
  3
Realistic
350
33
  3
Shaded
350
3E
  3
Shaded with edges
350
3D
  3
Shades of Gray
350
3A
  3
Sketchy
350
3B
  3
Thicken
350
36
  3
Wireframe
350
30
  3
X-Ray
350
3C
  0
XRECORD
  5
3C9
102
{ACAD_REACTORS
330
C
102
}
330
C
100
AcDbXrecord
280
     1
 90
        1
330
65
  0
DICTIONARY
  5
221
102
{ACAD_REACTORS
330
C
102
}
330
C
100
AcDbDictionary
281
     1
  3
CANNOSCALE
350
226
  3
CMLEADERSTYLE
350
223
  3
CTABLESTYLE
350
222
  3
CVIEWDETAILSTYLE
350
224
  3
CVIEWSECTIONSTYLE
350
225
  0
DICTIONARY
  5
218
102
{ACAD_REACTORS
330
C
102
}
330
C
100
AcDbDictionary
281
     1
  3
DRAWING_TOOL
350
21C
  3
REVIT_CATEGORY_MAPPING
350
21A
  3
REVIT_SUB_CATEGORY_MAPPING
350
21B
  3
REVIT_TYPE_MAPPING
350
219
  0
DICTIONARY
  5
240
102
{ACAD_REACTORS
330
23F
102
}
330
23F
100
AcDbDictionary
281
     1
  0
SORTENTSTABLE
  5
21E
102
{ACAD_REACTORS
330
21D
102
}
330
21D
100
AcDbSortentsTable
330
70
331
166
  5
2DF
331
16B
  5
2E0
331
171
  5
2E1
331
173
  5
2E2
331
18C
  5
2E3
331
198
  5
2E5
331
199
  5
2E6
331
1A3
  5
2E7
331
1A4
  5
2E8
331
1E1
  5
2E9
331
1E5
  5
2EA
331
277
  5
166
331
279
  5
171
331
27A
  5
173
331
27C
  5
197
331
27E
  5
244
331
27F
  5
245
331
280
  5
246
331
281
  5
248
331
282
  5
249
331
283
  5
24A
331
284
  5
24B
331
285
  5
24C
331
286
  5
24D
331
287
  5
280
331
288
  5
281
331
289
  5
282
331
28A
  5
283
331
28B
  5
284
331
29D
  5
29E
331
29E
  5
29F
331
29F
  5
2A0
331
2A0
  5
2A1
331
2A1
  5
2A2
331
2A2
  5
2A3
331
2A8
  5
2B3
331
2A9
  5
2B4
331
2AA
  5
2B5
331
2AC
  5
28F
331
2AE
  5
291
331
2B0
  5
293
331
2B2
  5
295
331
2B4
  5
2B7
331
2B5
  5
2B8
331
2B6
  5
2B9
331
2B8
  5
2CB
331
2B9
  5
2CC
331
2C1
  5
2D4
331
2C2
  5
2D5
331
2C3
  5
2D8
331
2C6
  5
2A9
331
2C7
  5
2D9
331
2C8
  5
2DA
331
2E7
  5
29C
  0
XRECORD
  5
39A
102
{ACAD_REACTORS
330
399
102
}
330
399
100
AcDbXrecord
280
     1
 90
        1
340
43
  0
XRECORD
  5
39E
102
{ACAD_REACTORS
330
39D
102
}
330
39D
100
AcDbXrecord
280
     1
 90
        1
340
43
  0
ACDBDETAILVIEWSTYLE
  5
6B
102
{ACAD_REACTORS
330
6A
102
}
330
6A
100
AcDbModelDocViewStyle
 70
     0
  3
Imperial24
290
     1
300
Imperial24
 90
        0
100
AcDbDetailViewStyle
 70
     0
 71
     0
 90
        3
 71
     1
340
55
 62
   256
 40
0.24
340
0
 62
   256
 40
0.24
300

 40
0.36
280
     3
 71
     2
340
5D
 90
       25
 62
   256
 71
     3
340
55
 62
   256
 40
0.24
 90
        1
 40
0.75
 90
        1
300
%<\AcVar ViewType \f "%tc1">% %<\AcVar ViewDetailId>%\PSCALE %<\AcVar ViewScale \f "%sn">%
 71
     4
340
5D
 90
       25
 62
   256
340
5D
 90
       25
 62
   256
280
     0
  0
ACDBDETAILVIEWSTYLE
  5
229
102
{ACAD_REACTORS
330
6A
102
}
330
6A
100
AcDbModelDocViewStyle
 70
     0
  3
Metric50
290
     1
300
Metric50
 90
        0
100
AcDbDetailViewStyle
 70
     0
 71
     0
 90
        3
 71
     1
340
55
 62
   256
 40
5.0
340
0
 62
   256
 40
5.0
300

 40
0.0
280
     1
 71
     2
340
5D
 90
       25
 62
   256
 71
     3
340
55
 62
   256
 40
5.0
 90
        0
 40
15.0
 90
        1
300
%<\AcVar ViewDetailId>% (%<\AcVar ViewScale \f "%sn">%)
 71
     4
340
5D
 90
       25
 62
   256
340
5D
 90
       25
 62
   256
280
     0
  0
LAYOUT
  5
77
102
{ACAD_REACTORS
330
62
102
}
330
62
100
AcDbPlotSettings
  1

  2
PDF24
  4
A4
  6

 40
0.0
 41
0.0
 42
0.1113433837890625
 43
0.0
 44
210.0
 45
297.0
 46
0.0
 47
0.0
 48
0.0
 49
0.0
140
0.0
141
0.0
142
1.0
143
1.0
 70
   688
 72
     1
 73
     1
 74
     5
  7

 75
    16
147
1.0
 76
     0
 77
     2
 78
   300
148
0.0
149
0.0
100
AcDbLayout
  1
Layout2
 70
     1
 71
     1
 10
0.0
 20
0.0
 11
297.0
 21
210.0
 12
0.0
 22
0.0
 32
0.0
 14
29.69999999999999
 24
20.98886566162111
 34
0.0
 15
267.3
 25
188.8997909545898
 35
0.0
146
0.0
 13
0.0
 23
0.0
 33
0.0
 16
1.0
 26
0.0
 36
0.0
 17
0.0
 27
1.0
 37
0.0
 76
     0
330
74
331
398
1001
ACAD_PSEXT
1000
PDF24
1000
PDF24
1000
\\.\pipe\PDFPrint
1000
PDF24 Printer
1070
     0
  0
LAYOUT
  5
73
102
{ACAD_REACTORS
330
62
102
}
330
62
100
AcDbPlotSettings
  1

  2

  4

  6

 40
0.0
 41
0.0
 42
0.0
 43
0.0
 44
0.0
 45
0.0
 46
0.0
 47
0.0
 48
0.0
 49
0.0
140
0.0
141
0.0
142
1.0
143
1.0
 70
  1712
 72
     0
 73
     0
 74
     0
  7

 75
     0
147
1.0
 76
     0
 77
     2
 78
   300
148
0.0
149
0.0
100
AcDbLayout
  1
Model
 70
     1
 71
     0
 10
0.0
 20
0.0
 11
12.0
 21
9.0
 12
0.0
 22
0.0
 32
0.0
 14
0.0
 24
0.0
 34
0.0
 15
0.0
 25
0.0
 35
0.0
146
0.0
 13
0.0
 23
0.0
 33
0.0
 16
1.0
 26
0.0
 36
0.0
 17
0.0
 27
1.0
 37
0.0
 76
     0
330
70
331
57
  0
MATERIAL
  5
19
102
{ACAD_XDICTIONARY
360
1A
102
}
102
{ACAD_REACTORS
330
10
102
}
330
10
100
AcDbMaterial
  1
ByBlock
 72
     0
 43
0.0208333333333333
 43
0.0
 43
0.0
 43
0.0
 43
0.0
 43
0.0208333333333333
 43
0.0
 43
0.0
 43
0.0
 43
0.0
 43
1.0
 43
0.0
 43
0.0
 43
0.0
 43
0.0
 43
1.0
 77
     0
 47
0.0208333333333333
 47
0.0
 47
0.0
 47
0.0
 47
0.0
 47
0.0208333333333333
 47
0.0
 47
0.0
 47
0.0
 47
0.0
 47
1.0
 47
0.0
 47
0.0
 47
0.0
 47
0.0
 47
1.0
171
     0
 49
0.0208333333333333
 49
0.0
 49
0.0
 49
0.0
 49
0.0
 49
0.0208333333333333
 49
0.0
 49
0.0
 49
0.0
 49
0.0
 49
1.0
 49
0.0
 49
0.0
 49
0.0
 49
0.0
 49
1.0
175
     0
142
0.0208333333333333
142
0.0
142
0.0
142
0.0
142
0.0
142
0.0208333333333333
142
0.0
142
0.0
142
0.0
142
0.0
142
1.0
142
0.0
142
0.0
142
0.0
142
0.0
142
1.0
179
     0
144
0.0208333333333333
144
0.0
144
0.0
144
0.0
144
0.0
144
0.0208333333333333
144
0.0
144
0.0
144
0.0
144
0.0
144
1.0
144
0.0
144
0.0
144
0.0
144
0.0
144
1.0
147
0.0208333333333333
147
0.0
147
0.0
147
0.0
147
0.0
147
0.0208333333333333
147
0.0
147
0.0
147
0.0
147
0.0
147
1.0
147
0.0
147
0.0
147
0.0
147
0.0
147
1.0
  0
MATERIAL
  5
11
102
{ACAD_XDICTIONARY
360
12
102
}
102
{ACAD_REACTORS
330
10
102
}
330
10
100
AcDbMaterial
  1
ByLayer
 72
     0
 43
0.0208333333333333
 43
0.0
 43
0.0
 43
0.0
 43
0.0
 43
0.0208333333333333
 43
0.0
 43
0.0
 43
0.0
 43
0.0
 43
1.0
 43
0.0
 43
0.0
 43
0.0
 43
0.0
 43
1.0
 77
     0
 47
0.0208333333333333
 47
0.0
 47
0.0
 47
0.0
 47
0.0
 47
0.0208333333333333
 47
0.0
 47
0.0
 47
0.0
 47
0.0
 47
1.0
 47
0.0
 47
0.0
 47
0.0
 47
0.0
 47
1.0
171
     0
 49
0.0208333333333333
 49
0.0
 49
0.0
 49
0.0
 49
0.0
 49
0.0208333333333333
 49
0.0
 49
0.0
 49
0.0
 49
0.0
 49
1.0
 49
0.0
 49
0.0
 49
0.0
 49
0.0
 49
1.0
175
     0
142
0.0208333333333333
142
0.0
142
0.0
142
0.0
142
0.0
142
0.0208333333333333
142
0.0
142
0.0
142
0.0
142
0.0
142
1.0
142
0.0
142
0.0
142
0.0
142
0.0
142
1.0
179
     0
144
0.0208333333333333
144
0.0
144
0.0
144
0.0
144
0.0
144
0.0208333333333333
144
0.0
144
0.0
144
0.0
144
0.0
144
1.0
144
0.0
144
0.0
144
0.0
144
0.0
144
1.0
147
0.0208333333333333
147
0.0
147
0.0
147
0.0
147
0.0
147
0.0208333333333333
147
0.0
147
0.0
147
0.0
147
0.0
147
1.0
147
0.0
147
0.0
147
0.0
147
0.0
147
1.0
  0
MATERIAL
  5
21
102
{ACAD_XDICTIONARY
360
22
102
}
102
{ACAD_REACTORS
330
10
102
}
330
10
100
AcDbMaterial
  1
Global
 72
     0
 43
0.0208333333333333
 43
0.0
 43
0.0
 43
0.0
 43
0.0
 43
0.0208333333333333
 43
0.0
 43
0.0
 43
0.0
 43
0.0
 43
1.0
 43
0.0
 43
0.0
 43
0.0
 43
0.0
 43
1.0
 77
     0
 47
0.0208333333333333
 47
0.0
 47
0.0
 47
0.0
 47
0.0
 47
0.0208333333333333
 47
0.0
 47
0.0
 47
0.0
 47
0.0
 47
1.0
 47
0.0
 47
0.0
 47
0.0
 47
0.0
 47
1.0
171
     0
 49
0.0208333333333333
 49
0.0
 49
0.0
 49
0.0
 49
0.0
 49
0.0208333333333333
 49
0.0
 49
0.0
 49
0.0
 49
0.0
 49
1.0
 49
0.0
 49
0.0
 49
0.0
 49
0.0
 49
1.0
175
     0
142
0.0208333333333333
142
0.0
142
0.0
142
0.0
142
0.0
142
0.0208333333333333
142
0.0
142
0.0
142
0.0
142
0.0
142
1.0
142
0.0
142
0.0
142
0.0
142
0.0
142
1.0
179
     0
144
0.0208333333333333
144
0.0
144
0.0
144
0.0
144
0.0
144
0.0208333333333333
144
0.0
144
0.0
144
0.0
144
0.0
144
1.0
144
0.0
144
0.0
144
0.0
144
0.0
144
1.0
147
0.0208333333333333
147
0.0
147
0.0
147
0.0
147
0.0
147
0.0208333333333333
147
0.0
147
0.0
147
0.0
147
0.0
147
1.0
147
0.0
147
0.0
147
0.0
147
0.0
147
1.0
  0
MLEADERSTYLE
  5
67
102
{ACAD_REACTORS
330
66
102
}
330
66
100
AcDbMLeaderStyle
179
     2
170
     2
171
     1
172
     0
 90
        2
 40
0.0
 41
0.0
173
     1
 91
-1056964608
340
5B
 92
       -2
290
     1
 42
0.09
291
     1
 43
0.36
  3
Standard
 44
0.18
300

342
55
174
     1
178
     6
175
     1
176
     0
 93
-1056964608
 45
0.18
292
     0
297
     0
 46
0.18
 94
-1056964608
 47
1.0
 49
1.0
140
1.0
293
     1
141
0.0
294
     1
177
     0
142
1.0
295
     1
296
     0
143
0.125
271
     0
272
     9
273
     9
298
     1
  0
MLINESTYLE
  5
60
102
{ACAD_REACTORS
330
5F
102
}
330
5F
100
AcDbMlineStyle
  2
STANDARD
 70
     0
  3

 62
   256
 51
90.0
 52
90.0
 71
     2
 49
0.5
 62
   256
  6
BYLAYER
 49
-0.5
 62
   256
  6
BYLAYER
  0
ACDBPLACEHOLDER
  5
F
102
{ACAD_REACTORS
330
E
102
}
330
E
  0
RAPIDRTRENDERSETTINGS
  5
236
102
{ACAD_REACTORS
330
233
102
}
330
233
100
AcDbRenderSettings
 90
        2
  1
Alto
290
     1
290
     0
290
     1
290
     1
  1

  1
Aplica 10 níveis de renderização
 90
        2
100
AcDbRapidRTRenderSettings
 90
        3
 70
     0
 90
       10
 90
        1
 70
     2
 70
     2
 40
3.0
 40
3.0
290
     1
  0
RAPIDRTRENDERSETTINGS
  5
234
102
{ACAD_REACTORS
330
233
102
}
330
233
100
AcDbRenderSettings
 90
        2
  1
Baixo
290
     1
290
     0
290
     1
290
     1
  1

  1
Aplica 1 nível de renderização
 90
        0
100
AcDbRapidRTRenderSettings
 90
        3
 70
     0
 90
        1
 90
        1
 70
     0
 70
     2
 40
3.0
 40
3.0
290
     1
  0
RAPIDRTRENDERSETTINGS
  5
235
102
{ACAD_REACTORS
330
233
102
}
330
233
100
AcDbRenderSettings
 90
        2
  1
Médio
290
     1
290
     0
290
     1
290
     1
  1

  1
Aplica 5 níveis de renderização
 90
        1
100
AcDbRapidRTRenderSettings
 90
        3
 70
     0
 90
        5
 90
        1
 70
     1
 70
     2
 40
3.0
 40
3.0
290
     1
  0
RAPIDRTRENDERSETTINGS
  5
237
102
{ACAD_REACTORS
330
233
102
}
330
233
100
AcDbRenderSettings
 90
        2
  1
Qualidade de curta duração
290
     1
290
     0
290
     1
290
     1
  1

  1
Renderiza por 10 minutos
 90
        3
100
AcDbRapidRTRenderSettings
 90
        3
 70
     1
 90
        1
 90
       10
 70
     1
 70
     2
 40
3.0
 40
3.0
290
     1
  0
RAPIDRTRENDERSETTINGS
  5
239
102
{ACAD_REACTORS
330
233
102
}
330
233
100
AcDbRenderSettings
 90
        2
  1
Qualidade de longa duração
290
     1
290
     0
290
     1
290
     1
  1

  1
Renderiza por 12 horas
 90
        5
100
AcDbRapidRTRenderSettings
 90
        3
 70
     1
 90
        1
 90
      720
 70
     2
 70
     2
 40
3.0
 40
3.0
290
     1
  0
RAPIDRTRENDERSETTINGS
  5
238
102
{ACAD_REACTORS
330
233
102
}
330
233
100
AcDbRenderSettings
 90
        2
  1
Qualidade de média duração
290
     1
290
     0
290
     1
290
     1
  1

  1
Renderiza por 60 minutos
 90
        4
100
AcDbRapidRTRenderSettings
 90
        3
 70
     1
 90
        1
 90
       60
 70
     2
 70
     2
 40
3.0
 40
3.0
290
     1
  0
SCALE
  5
43
102
{ACAD_REACTORS
330
42
102
}
330
42
100
AcDbScale
 70
     0
300
1:1
140
1.0
141
1.0
290
     1
  0
SCALE
  5
44
102
{ACAD_REACTORS
330
42
102
}
330
42
100
AcDbScale
 70
     0
300
1/128" = 1'-0"
140
0.0078125
141
12.0
290
     0
  0
SCALE
  5
45
102
{ACAD_REACTORS
330
42
102
}
330
42
100
AcDbScale
 70
     0
300
1/64" = 1'-0"
140
0.015625
141
12.0
290
     0
  0
SCALE
  5
46
102
{ACAD_REACTORS
330
42
102
}
330
42
100
AcDbScale
 70
     0
300
1/32" = 1'-0"
140
0.03125
141
12.0
290
     0
  0
SCALE
  5
47
102
{ACAD_REACTORS
330
42
102
}
330
42
100
AcDbScale
 70
     0
300
1/16" = 1'-0"
140
0.0625
141
12.0
290
     0
  0
SCALE
  5
48
102
{ACAD_REACTORS
330
42
102
}
330
42
100
AcDbScale
 70
     0
300
3/32" = 1'-0"
140
0.09375
141
12.0
290
     0
  0
SCALE
  5
49
102
{ACAD_REACTORS
330
42
102
}
330
42
100
AcDbScale
 70
     0
300
1/8" = 1'-0"
140
0.125
141
12.0
290
     0
  0
SCALE
  5
4A
102
{ACAD_REACTORS
330
42
102
}
330
42
100
AcDbScale
 70
     0
300
3/16" = 1'-0"
140
0.1875
141
12.0
290
     0
  0
SCALE
  5
4B
102
{ACAD_REACTORS
330
42
102
}
330
42
100
AcDbScale
 70
     0
300
1/4" = 1'-0"
140
0.25
141
12.0
290
     0
  0
SCALE
  5
4C
102
{ACAD_REACTORS
330
42
102
}
330
42
100
AcDbScale
 70
     0
300
3/8" = 1'-0"
140
0.375
141
12.0
290
     0
  0
SCALE
  5
4D
102
{ACAD_REACTORS
330
42
102
}
330
42
100
AcDbScale
 70
     0
300
1/2" = 1'-0"
140
0.5
141
12.0
290
     0
  0
SCALE
  5
4E
102
{ACAD_REACTORS
330
42
102
}
330
42
100
AcDbScale
 70
     0
300
3/4" = 1'-0"
140
0.75
141
12.0
290
     0
  0
SCALE
  5
4F
102
{ACAD_REACTORS
330
42
102
}
330
42
100
AcDbScale
 70
     0
300
1" = 1'-0"
140
1.0
141
12.0
290
     0
  0
SCALE
  5
50
102
{ACAD_REACTORS
330
42
102
}
330
42
100
AcDbScale
 70
     0
300
1-1/2" = 1'-0"
140
1.5
141
12.0
290
     0
  0
SCALE
  5
51
102
{ACAD_REACTORS
330
42
102
}
330
42
100
AcDbScale
 70
     0
300
3" = 1'-0"
140
3.0
141
12.0
290
     0
  0
SCALE
  5
52
102
{ACAD_REACTORS
330
42
102
}
330
42
100
AcDbScale
 70
     0
300
6" = 1'-0"
140
6.0
141
12.0
290
     0
  0
SCALE
  5
53
102
{ACAD_REACTORS
330
42
102
}
330
42
100
AcDbScale
 70
     0
300
1'-0" = 1'-0"
140
12.0
141
12.0
290
     0
  0
ACDBSECTIONVIEWSTYLE
  5
69
102
{ACAD_REACTORS
330
68
102
}
330
68
100
AcDbModelDocViewStyle
 70
     0
  3
Imperial24
290
     1
300
Imperial24
 90
        0
100
AcDbSectionViewStyle
 70
     0
 71
     0
 90
       78
 71
     1
340
55
 62
   256
 40
0.24
340
0
340
0
 62
   256
 40
0.24
300
I, O, Q, S, X, Z
 40
0.48
 90
        3
 40
0.18
 90
        1
 71
     2
340
5D
 90
       25
 62
   256
340
5D
 90
       50
 62
   256
 40
0.24
 40
0.0
 40
0.24
 71
     3
340
55
 62
   256
 40
0.24
 90
        1
 40
0.75
 90
        1
300
%<\AcVar ViewType \f "%tc1">% %<\AcVar ViewSectionStartId>%-%<\AcVar ViewSectionEndId>%\PSCALE %<\AcVar ViewScale \f "%sn">%
 71
     4
 62
   256
 62
   257
300
ANSI31
 40
1.0
 90
        0
290
     0
290
     0
 90
        6
 40
0.0
 40
1.570796326794896
 40
0.2617993877991494
 40
1.308996938995747
 40
-0.2617993877991494
 40
1.832595714594046
  0
ACDBSECTIONVIEWSTYLE
  5
228
102
{ACAD_REACTORS
330
68
102
}
330
68
100
AcDbModelDocViewStyle
 70
     0
  3
Metric50
290
     1
300
Metric50
 90
        0
100
AcDbSectionViewStyle
 70
     0
 71
     0
 90
      102
 71
     1
340
55
 62
   256
 40
5.0
340
0
340
0
 62
   256
 40
5.0
300
I, O, Q, S, X, Z
 40
10.0
 90
        0
 40
2.5
 90
        0
 71
     2
340
5D
 90
       25
 62
   256
340
5D
 90
       50
 62
   256
 40
5.0
 40
2.5
 40
5.0
 71
     3
340
55
 62
   256
 40
5.0
 90
        0
 40
15.0
 90
        1
300
%<\AcVar ViewSectionStartId>%-%<\AcVar ViewSectionEndId>% (%<\AcVar ViewScale \f "%sn">%)
 71
     4
 62
   256
 62
   257
300
ANSI31
 40
1.0
 90
        0
290
     0
290
     0
 90
        6
 40
0.0
 40
1.570796326794896
 40
0.2617993877991494
 40
1.308996938995747
 40
-0.2617993877991494
 40
1.832595714594046
  0
TABLESTYLE
  5
65
102
{ACAD_XDICTIONARY
360
3C7
102
}
102
{ACAD_REACTORS
330
64
102
}
330
64
100
AcDbTableStyle
280
     0
  3
Standard
 70
     0
 71
     0
 40
0.06
 41
0.06
280
     0
281
     0
  7
Standard
140
0.18
170
     2
 62
     0
 63
     7
283
     0
 90
      512
 91
        0
  1

274
    -2
284
     1
 64
     0
275
    -2
285
     1
 65
     0
276
    -2
286
     1
 66
     0
277
    -2
287
     1
 67
     0
278
    -2
288
     1
 68
     0
279
    -2
289
     1
 69
     0
  7
Standard
140
0.25
170
     5
 62
     0
 63
     7
283
     0
 90
      512
 91
        0
  1

274
    -2
284
     1
 64
     0
275
    -2
285
     1
 65
     0
276
    -2
286
     1
 66
     0
277
    -2
287
     1
 67
     0
278
    -2
288
     1
 68
     0
279
    -2
289
     1
 69
     0
  7
Standard
140
0.18
170
     5
 62
     0
 63
     7
283
     0
 90
      512
 91
        0
  1

274
    -2
284
     1
 64
     0
275
    -2
285
     1
 65
     0
276
    -2
286
     1
 66
     0
277
    -2
287
     1
 67
     0
278
    -2
288
     1
 68
     0
279
    -2
289
     1
 69
     0
  0
VISUALSTYLE
  5
2F
102
{ACAD_REACTORS
330
29
102
}
330
29
100
AcDbVisualStyle
  2
2dWireframe
 70
     4
177
     3
291
     0
 70
    58
 90
        0
176
     1
 90
        2
176
     1
 90
        0
176
     1
 90
        0
176
     1
 40
0.6
176
     1
 40
30.0
176
     1
 62
     7
420
 16777215
176
     1
 90
        1
176
     1
 90
        4
176
     1
 62
     7
176
     1
 62
   257
176
     1
 90
        1
176
     1
 90
        1
176
     1
 40
1.0
176
     1
 90
        0
176
     1
 62
   257
176
     1
 40
1.0
176
     1
 90
        1
176
     1
 90
        6
176
     1
 90
        2
176
     1
 62
     7
176
     1
 90
        5
176
     1
 90
        0
176
     1
 90
        0
176
     1
290
     0
176
     1
 90
        1
176
     1
 40
0.0
176
     1
 90
        0
176
     1
290
     1
176
     1
290
     1
176
     1
290
     0
176
     1
290
     0
176
     1
290
     0
176
     1
290
     0
176
     1
290
     0
176
     1
290
     0
176
     1
290
     0
176
     1
 90
       50
176
     1
 40
0.0
176
     1
 40
1.0
176
     1
 90
        0
176
     1
 62
    18
420
        0
176
     1
 90
       50
176
     1
 90
        3
176
     1
 62
     5
420
      255
176
     1
290
     0
176
     1
 90
       50
176
     1
 90
       50
176
     1
 90
       50
176
     1
290
     0
176
     1
 90
       50
176
     1
 62
   256
176
     0
 40
1.0
176
     0
 90
        2
176
     1
  1
strokes_ogs.tif
176
     1
290
     0
176
     1
 40
1.0
176
     1
 40
1.0
176
     1
  0
VISUALSTYLE
  5
2E
102
{ACAD_REACTORS
330
29
102
}
330
29
100
AcDbVisualStyle
  2
Basic
 70
     7
177
     3
291
     1
 70
    58
 90
        1
176
     1
 90
        0
176
     1
 90
        1
176
     1
 90
        0
176
     1
 40
0.6
176
     1
 40
30.0
176
     1
 62
     7
420
 16777215
176
     1
 90
        0
176
     1
 90
        4
176
     1
 62
     7
176
     1
 62
   257
176
     1
 90
        1
176
     1
 90
        1
176
     1
 40
1.0
176
     1
 90
        8
176
     1
 62
     7
176
     1
 40
1.0
176
     1
 90
        1
176
     1
 90
        6
176
     1
 90
        2
176
     1
 62
     7
176
     1
 90
        5
176
     1
 90
        0
176
     1
 90
        0
176
     1
290
     0
176
     1
 90
        1
176
     1
 40
0.0
176
     1
 90
        0
176
     1
290
     0
176
     1
290
     1
176
     1
290
     1
176
     1
290
     0
176
     1
290
     0
176
     1
290
     0
176
     1
290
     0
176
     1
290
     0
176
     1
290
     0
176
     1
 90
       50
176
     1
 40
0.0
176
     1
 40
1.0
176
     1
 90
        0
176
     1
 62
    18
420
        0
176
     1
 90
       50
176
     1
 90
        3
176
     1
 62
     5
420
      255
176
     1
290
     0
176
     1
 90
       50
176
     1
 90
       50
176
     1
 90
       50
176
     1
290
     0
176
     1
 90
       50
176
     1
 62
   256
176
     0
 40
1.0
176
     0
 90
        2
176
     1
  1
strokes_ogs.tif
176
     1
290
     0
176
     1
 40
1.0
176
     1
 40
1.0
176
     1
  0
VISUALSTYLE
  5
35
102
{ACAD_REACTORS
330
29
102
}
330
29
100
AcDbVisualStyle
  2
Brighten
 70
    12
177
     3
291
     1
 70
    58
 90
        2
176
     1
 90
        2
176
     1
 90
        0
176
     1
 90
        0
176
     1
 40
0.6
176
     1
 40
30.0
176
     1
 62
     7
420
 16777215
176
     1
 90
        1
176
     1
 90
        4
176
     1
 62
     7
176
     1
 62
   257
176
     1
 90
        1
176
     1
 90
        1
176
     1
 40
1.0
176
     1
 90
        8
176
     1
 62
     7
176
     1
 40
1.0
176
     1
 90
        1
176
     1
 90
        6
176
     1
 90
        2
176
     1
 62
     7
176
     1
 90
        5
176
     1
 90
        0
176
     1
 90
        0
176
     1
290
     0
176
     1
 90
        1
176
     1
 40
50.0
176
     1
 90
        0
176
     1
290
     0
176
     1
290
     1
176
     1
290
     1
176
     1
290
     0
176
     1
290
     0
176
     1
290
     0
176
     1
290
     0
176
     1
290
     0
176
     1
290
     0
176
     1
 90
       50
176
     1
 40
0.0
176
     1
 40
1.0
176
     1
 90
        0
176
     1
 62
    18
420
        0
176
     1
 90
       50
176
     1
 90
        3
176
     1
 62
     5
420
      255
176
     1
290
     0
176
     1
 90
       50
176
     1
 90
       50
176
     1
 90
       50
176
     1
290
     0
176
     1
 90
       50
176
     1
 62
   256
176
     0
 40
1.0
176
     0
 90
        2
176
     1
  1
strokes_ogs.tif
176
     1
290
     0
176
     1
 40
1.0
176
     1
 40
1.0
176
     1
  0
VISUALSTYLE
  5
39
102
{ACAD_REACTORS
330
29
102
}
330
29
100
AcDbVisualStyle
  2
ColorChange
 70
    16
177
     3
291
     1
 70
    58
 90
        2
176
     1
 90
        2
176
     1
 90
        3
176
     1
 90
        0
176
     1
 40
0.6
176
     1
 40
30.0
176
     1
 62
     8
420
  8421504
176
     1
 90
        1
176
     1
 90
        4
176
     1
 62
     7
176
     1
 62
   257
176
     1
 90
        1
176
     1
 90
        1
176
     1
 40
1.0
176
     1
 90
        8
176
     1
 62
     8
420
  8421504
176
     1
 40
1.0
176
     1
 90
        1
176
     1
 90
        6
176
     1
 90
        2
176
     1
 62
     7
176
     1
 90
        5
176
     1
 90
        0
176
     1
 90
        0
176
     1
290
     0
176
     1
 90
        1
176
     1
 40
0.0
176
     1
 90
        0
176
     1
290
     0
176
     1
290
     1
176
     1
290
     1
176
     1
290
     0
176
     1
290
     0
176
     1
290
     0
176
     1
290
     0
176
     1
290
     0
176
     1
290
     0
176
     1
 90
       50
176
     1
 40
0.0
176
     1
 40
1.0
176
     1
 90
        0
176
     1
 62
    18
420
        0
176
     1
 90
       50
176
     1
 90
        3
176
     1
 62
     5
420
      255
176
     1
290
     0
176
     1
 90
       50
176
     1
 90
       50
176
     1
 90
       50
176
     1
290
     0
176
     1
 90
       50
176
     1
 62
   256
176
     0
 40
1.0
176
     0
 90
        2
176
     1
  1
strokes_ogs.tif
176
     1
290
     0
176
     1
 40
1.0
176
     1
 40
1.0
176
     1
  0
VISUALSTYLE
  5
32
102
{ACAD_REACTORS
330
29
102
}
330
29
100
AcDbVisualStyle
  2
Conceptual
 70
     9
177
     3
291
     0
 70
    58
 90
        3
176
     1
 90
        2
176
     1
 90
        0
176
     1
 90
        0
176
     1
 40
0.6
176
     1
 40
30.0
176
     1
 62
     7
420
 16777215
176
     1
 90
        2
176
     1
 90
        2
176
     1
 62
     7
176
     1
 62
   257
176
     1
 90
        1
176
     1
 90
        1
176
     1
 40
179.0
176
     1
 90
        8
176
     1
 62
     7
176
     1
 40
1.0
176
     1
 90
        1
176
     1
 90
        6
176
     1
 90
        2
176
     1
 62
     7
176
     1
 90
        3
176
     1
 90
        0
176
     1
 90
        0
176
     1
290
     0
176
     1
 90
        1
176
     1
 40
0.0
176
     1
 90
        0
176
     1
290
     0
176
     1
290
     1
176
     1
290
     1
176
     1
290
     0
176
     1
290
     0
176
     1
290
     0
176
     1
290
     0
176
     1
290
     0
176
     1
290
     0
176
     1
 90
       50
176
     1
 40
0.0
176
     1
 40
1.0
176
     1
 90
        0
176
     1
 62
    18
420
        0
176
     1
 90
       50
176
     1
 90
        3
176
     1
 62
     5
420
      255
176
     1
290
     0
176
     1
 90
       50
176
     1
 90
       50
176
     1
 90
       50
176
     1
290
     0
176
     1
 90
       50
176
     1
 62
   256
176
     0
 40
1.0
176
     0
 90
        2
176
     1
  1
strokes_ogs.tif
176
     1
290
     0
176
     1
 40
1.0
176
     1
 40
1.0
176
     1
  0
VISUALSTYLE
  5
34
102
{ACAD_REACTORS
330
29
102
}
330
29
100
AcDbVisualStyle
  2
Dim
 70
    11
177
     3
291
     1
 70
    58
 90
        2
176
     1
 90
        2
176
     1
 90
        0
176
     1
 90
        0
176
     1
 40
0.6
176
     1
 40
30.0
176
     1
 62
     7
420
 16777215
176
     1
 90
        1
176
     1
 90
        4
176
     1
 62
     7
176
     1
 62
   257
176
     1
 90
        1
176
     1
 90
        1
176
     1
 40
1.0
176
     1
 90
        8
176
     1
 62
     7
176
     1
 40
1.0
176
     1
 90
        1
176
     1
 90
        6
176
     1
 90
        2
176
     1
 62
     7
176
     1
 90
        5
176
     1
 90
        0
176
     1
 90
        0
176
     1
290
     0
176
     1
 90
        1
176
     1
 40
-50.0
176
     1
 90
        0
176
     1
290
     0
176
     1
290
     1
176
     1
290
     1
176
     1
290
     0
176
     1
290
     0
176
     1
290
     0
176
     1
290
     0
176
     1
290
     0
176
     1
290
     0
176
     1
 90
       50
176
     1
 40
0.0
176
     1
 40
1.0
176
     1
 90
        0
176
     1
 62
    18
420
        0
176
     1
 90
       50
176
     1
 90
        3
176
     1
 62
     5
420
      255
176
     1
290
     0
176
     1
 90
       50
176
     1
 90
       50
176
     1
 90
       50
176
     1
290
     0
176
     1
 90
       50
176
     1
 62
   256
176
     0
 40
1.0
176
     0
 90
        2
176
     1
  1
strokes_ogs.tif
176
     1
290
     0
176
     1
 40
1.0
176
     1
 40
1.0
176
     1
  0
VISUALSTYLE
  5
41
102
{ACAD_REACTORS
330
29
102
}
330
29
100
AcDbVisualStyle
  2
EdgeColorOff
 70
    22
177
     3
291
     1
 70
    58
 90
        2
176
     0
 90
        2
176
     0
 90
        0
176
     0
 90
        0
176
     0
 40
0.6
176
     0
 40
30.0
176
     0
 62
     7
420
 16777215
176
     0
 90
        1
176
     0
 90
        4
176
     0
 62
     7
176
     0
 62
   257
176
     0
 90
        1
176
     0
 90
        1
176
     0
 40
1.0
176
     0
 90
        8
176
     2
 62
     7
176
     0
 40
1.0
176
     0
 90
        1
176
     0
 90
        6
176
     0
 90
        2
176
     0
 62
     7
176
     0
 90
        5
176
     0
 90
        0
176
     0
 90
        0
176
     0
290
     0
176
     0
 90
        1
176
     0
 40
0.0
176
     0
 90
        0
176
     0
290
     0
176
     0
290
     1
176
     0
290
     1
176
     0
290
     0
176
     0
290
     0
176
     0
290
     0
176
     0
290
     0
176
     0
290
     0
176
     0
290
     0
176
     0
 90
       50
176
     0
 40
0.0
176
     0
 40
1.0
176
     0
 90
        0
176
     0
 62
    18
420
        0
176
     0
 90
       50
176
     0
 90
        3
176
     0
 62
     5
420
      255
176
     0
290
     0
176
     0
 90
       50
176
     0
 90
       50
176
     0
 90
       50
176
     0
290
     0
176
     0
 90
       50
176
     0
 62
   256
176
     0
 40
1.0
176
     0
 90
        2
176
     0
  1
strokes_ogs.tif
176
     0
290
     0
176
     0
 40
1.0
176
     0
 40
1.0
176
     0
  0
VISUALSTYLE
  5
38
102
{ACAD_REACTORS
330
29
102
}
330
29
100
AcDbVisualStyle
  2
Facepattern
 70
    15
177
     3
291
     1
 70
    58
 90
        2
176
     1
 90
        2
176
     1
 90
        0
176
     1
 90
        0
176
     1
 40
0.6
176
     1
 40
30.0
176
     1
 62
     7
420
 16777215
176
     1
 90
        1
176
     1
 90
        4
176
     1
 62
     7
176
     1
 62
   257
176
     1
 90
        1
176
     1
 90
        1
176
     1
 40
1.0
176
     1
 90
        8
176
     1
 62
     7
176
     1
 40
1.0
176
     1
 90
        1
176
     1
 90
        6
176
     1
 90
        2
176
     1
 62
     7
176
     1
 90
        5
176
     1
 90
        0
176
     1
 90
        0
176
     1
290
     0
176
     1
 90
        1
176
     1
 40
0.0
176
     1
 90
        0
176
     1
290
     0
176
     1
290
     1
176
     1
290
     1
176
     1
290
     0
176
     1
290
     0
176
     1
290
     0
176
     1
290
     0
176
     1
290
     0
176
     1
290
     0
176
     1
 90
       50
176
     1
 40
0.0
176
     1
 40
1.0
176
     1
 90
        0
176
     1
 62
    18
420
        0
176
     1
 90
       50
176
     1
 90
        3
176
     1
 62
     5
420
      255
176
     1
290
     0
176
     1
 90
       50
176
     1
 90
       50
176
     1
 90
       50
176
     1
290
     0
176
     1
 90
       50
176
     1
 62
   256
176
     0
 40
1.0
176
     0
 90
        2
176
     1
  1
strokes_ogs.tif
176
     1
290
     0
176
     1
 40
1.0
176
     1
 40
1.0
176
     1
  0
VISUALSTYLE
  5
2A
102
{ACAD_REACTORS
330
29
102
}
330
29
100
AcDbVisualStyle
  2
Flat
 70
     0
177
     3
291
     1
 70
    58
 90
        2
176
     1
 90
        1
176
     1
 90
        1
176
     1
 90
        2
176
     1
 40
0.6
176
     1
 40
30.0
176
     1
 62
     7
420
 16777215
176
     1
 90
        0
176
     1
 90
        0
176
     1
 62
     7
176
     1
 62
   257
176
     1
 90
        1
176
     1
 90
        1
176
     1
 40
1.0
176
     1
 90
        8
176
     1
 62
     7
176
     1
 40
1.0
176
     1
 90
        1
176
     1
 90
        6
176
     1
 90
        2
176
     1
 62
     7
176
     1
 90
        5
176
     1
 90
        0
176
     1
 90
        0
176
     1
290
     0
176
     1
 90
       13
176
     1
 40
0.0
176
     1
 90
        0
176
     1
290
     0
176
     1
290
     1
176
     1
290
     1
176
     1
290
     0
176
     1
290
     0
176
     1
290
     0
176
     1
290
     0
176
     1
290
     0
176
     1
290
     0
176
     1
 90
       50
176
     1
 40
0.0
176
     1
 40
1.0
176
     1
 90
        0
176
     1
 62
    18
420
        0
176
     1
 90
       50
176
     1
 90
        3
176
     1
 62
     5
420
      255
176
     1
290
     0
176
     1
 90
       50
176
     1
 90
       50
176
     1
 90
       50
176
     1
290
     0
176
     1
 90
       50
176
     1
 62
   256
176
     0
 40
1.0
176
     0
 90
        2
176
     1
  1
strokes_ogs.tif
176
     1
290
     0
176
     1
 40
1.0
176
     1
 40
1.0
176
     1
  0
VISUALSTYLE
  5
2B
102
{ACAD_REACTORS
330
29
102
}
330
29
100
AcDbVisualStyle
  2
FlatWithEdges
 70
     1
177
     3
291
     1
 70
    58
 90
        2
176
     1
 90
        1
176
     1
 90
        1
176
     1
 90
        2
176
     1
 40
0.6
176
     1
 40
30.0
176
     1
 62
     7
420
 16777215
176
     1
 90
        1
176
     1
 90
        0
176
     1
 62
     7
176
     1
 62
   257
176
     1
 90
        1
176
     1
 90
        1
176
     1
 40
1.0
176
     1
 90
        0
176
     1
 62
   257
176
     1
 40
1.0
176
     1
 90
        1
176
     1
 90
        6
176
     1
 90
        2
176
     1
 62
     7
176
     1
 90
        5
176
     1
 90
        0
176
     1
 90
        0
176
     1
290
     0
176
     1
 90
       13
176
     1
 40
0.0
176
     1
 90
        0
176
     1
290
     0
176
     1
290
     1
176
     1
290
     1
176
     1
290
     0
176
     1
290
     0
176
     1
290
     0
176
     1
290
     0
176
     1
290
     0
176
     1
290
     0
176
     1
 90
       50
176
     1
 40
0.0
176
     1
 40
1.0
176
     1
 90
        0
176
     1
 62
    18
420
        0
176
     1
 90
       50
176
     1
 90
        3
176
     1
 62
     5
420
      255
176
     1
290
     0
176
     1
 90
       50
176
     1
 90
       50
176
     1
 90
       50
176
     1
290
     0
176
     1
 90
       50
176
     1
 62
   256
176
     0
 40
1.0
176
     0
 90
        2
176
     1
  1
strokes_ogs.tif
176
     1
290
     0
176
     1
 40
1.0
176
     1
 40
1.0
176
     1
  0
VISUALSTYLE
  5
2C
102
{ACAD_REACTORS
330
29
102
}
330
29
100
AcDbVisualStyle
  2
Gouraud
 70
     2
177
     3
291
     1
 70
    58
 90
        2
176
     1
 90
        2
176
     1
 90
        1
176
     1
 90
        2
176
     1
 40
0.6
176
     1
 40
30.0
176
     1
 62
     7
420
 16777215
176
     1
 90
        0
176
     1
 90
        0
176
     1
 62
     7
176
     1
 62
   257
176
     1
 90
        1
176
     1
 90
        1
176
     1
 40
1.0
176
     1
 90
        0
176
     1
 62
     7
176
     1
 40
1.0
176
     1
 90
        1
176
     1
 90
        6
176
     1
 90
        2
176
     1
 62
     7
176
     1
 90
        5
176
     1
 90
        0
176
     1
 90
        0
176
     1
290
     0
176
     1
 90
       13
176
     1
 40
0.0
176
     1
 90
        0
176
     1
290
     0
176
     1
290
     1
176
     1
290
     1
176
     1
290
     0
176
     1
290
     0
176
     1
290
     0
176
     1
290
     0
176
     1
290
     0
176
     1
290
     0
176
     1
 90
       50
176
     1
 40
0.0
176
     1
 40
1.0
176
     1
 90
        0
176
     1
 62
    18
420
        0
176
     1
 90
       50
176
     1
 90
        3
176
     1
 62
     5
420
      255
176
     1
290
     0
176
     1
 90
       50
176
     1
 90
       50
176
     1
 90
       50
176
     1
290
     0
176
     1
 90
       50
176
     1
 62
   256
176
     0
 40
1.0
176
     0
 90
        2
176
     1
  1
strokes_ogs.tif
176
     1
290
     0
176
     1
 40
1.0
176
     1
 40
1.0
176
     1
  0
VISUALSTYLE
  5
2D
102
{ACAD_REACTORS
330
29
102
}
330
29
100
AcDbVisualStyle
  2
GouraudWithEdges
 70
     3
177
     3
291
     1
 70
    58
 90
        2
176
     1
 90
        2
176
     1
 90
        1
176
     1
 90
        2
176
     1
 40
0.6
176
     1
 40
30.0
176
     1
 62
     7
420
 16777215
176
     1
 90
        1
176
     1
 90
        0
176
     1
 62
     7
176
     1
 62
   257
176
     1
 90
        1
176
     1
 90
        1
176
     1
 40
1.0
176
     1
 90
        0
176
     1
 62
   257
176
     1
 40
1.0
176
     1
 90
        1
176
     1
 90
        6
176
     1
 90
        2
176
     1
 62
     7
176
     1
 90
        5
176
     1
 90
        0
176
     1
 90
        0
176
     1
290
     0
176
     1
 90
       13
176
     1
 40
0.0
176
     1
 90
        0
176
     1
290
     0
176
     1
290
     1
176
     1
290
     1
176
     1
290
     0
176
     1
290
     0
176
     1
290
     0
176
     1
290
     0
176
     1
290
     0
176
     1
290
     0
176
     1
 90
       50
176
     1
 40
0.0
176
     1
 40
1.0
176
     1
 90
        0
176
     1
 62
    18
420
        0
176
     1
 90
       50
176
     1
 90
        3
176
     1
 62
     5
420
      255
176
     1
290
     0
176
     1
 90
       50
176
     1
 90
       50
176
     1
 90
       50
176
     1
290
     0
176
     1
 90
       50
176
     1
 62
   256
176
     0
 40
1.0
176
     0
 90
        2
176
     1
  1
strokes_ogs.tif
176
     1
290
     0
176
     1
 40
1.0
176
     1
 40
1.0
176
     1
  0
VISUALSTYLE
  5
31
102
{ACAD_REACTORS
330
29
102
}
330
29
100
AcDbVisualStyle
  2
Hidden
 70
     6
177
     3
291
     0
 70
    58
 90
        1
176
     1
 90
        2
176
     1
 90
        2
176
     1
 90
        0
176
     1
 40
0.6
176
     1
 40
30.0
176
     1
 62
     7
420
 16777215
176
     1
 90
        2
176
     1
 90
        2
176
     1
 62
     7
176
     1
 62
   257
176
     1
 90
        2
176
     1
 90
        1
176
     1
 40
40.0
176
     1
 90
        0
176
     1
 62
   257
176
     1
 40
1.0
176
     1
 90
        1
176
     1
 90
        6
176
     1
 90
        2
176
     1
 62
     7
176
     1
 90
        3
176
     1
 90
        0
176
     1
 90
        0
176
     1
290
     0
176
     1
 90
        1
176
     1
 40
0.0
176
     1
 90
        0
176
     1
290
     0
176
     1
290
     1
176
     1
290
     1
176
     1
290
     0
176
     1
290
     0
176
     1
290
     0
176
     1
290
     0
176
     1
290
     0
176
     1
290
     0
176
     1
 90
       50
176
     1
 40
0.0
176
     1
 40
1.0
176
     1
 90
        0
176
     1
 62
    18
420
        0
176
     1
 90
       50
176
     1
 90
        3
176
     1
 62
     5
420
      255
176
     1
290
     0
176
     1
 90
       50
176
     1
 90
       50
176
     1
 90
       50
176
     1
290
     0
176
     1
 90
       50
176
     1
 62
   256
176
     0
 40
1.0
176
     0
 90
        2
176
     1
  1
strokes_ogs.tif
176
     1
290
     0
176
     1
 40
1.0
176
     1
 40
1.0
176
     1
  0
VISUALSTYLE
  5
3F
102
{ACAD_REACTORS
330
29
102
}
330
29
100
AcDbVisualStyle
  2
JitterOff
 70
    20
177
     3
291
     1
 70
    58
 90
        2
176
     0
 90
        2
176
     0
 90
        0
176
     0
 90
        0
176
     0
 40
0.6
176
     0
 40
30.0
176
     0
 62
     7
420
 16777215
176
     0
 90
        1
176
     0
 90
        4
176
     0
 62
     7
176
     0
 62
   257
176
     0
 90
        1
176
     0
 90
        1
176
     0
 40
1.0
176
     0
 90
       10
176
     2
 62
     7
176
     0
 40
1.0
176
     0
 90
        1
176
     0
 90
        6
176
     0
 90
        2
176
     0
 62
     7
176
     0
 90
        5
176
     0
 90
        0
176
     0
 90
        0
176
     0
290
     0
176
     0
 90
        1
176
     0
 40
0.0
176
     0
 90
        0
176
     0
290
     0
176
     0
290
     1
176
     0
290
     1
176
     0
290
     0
176
     0
290
     0
176
     0
290
     0
176
     0
290
     0
176
     0
290
     0
176
     0
290
     0
176
     0
 90
       50
176
     0
 40
0.0
176
     0
 40
1.0
176
     0
 90
        0
176
     0
 62
    18
420
        0
176
     0
 90
       50
176
     0
 90
        3
176
     0
 62
     5
420
      255
176
     0
290
     0
176
     0
 90
       50
176
     0
 90
       50
176
     0
 90
       50
176
     0
290
     0
176
     0
 90
       50
176
     0
 62
   256
176
     0
 40
1.0
176
     0
 90
        2
176
     0
  1
strokes_ogs.tif
176
     0
290
     0
176
     0
 40
1.0
176
     0
 40
1.0
176
     0
  0
VISUALSTYLE
  5
37
102
{ACAD_REACTORS
330
29
102
}
330
29
100
AcDbVisualStyle
  2
Linepattern
 70
    14
177
     3
291
     1
 70
    58
 90
        2
176
     1
 90
        2
176
     1
 90
        0
176
     1
 90
        0
176
     1
 40
0.6
176
     1
 40
30.0
176
     1
 62
     7
420
 16777215
176
     1
 90
        1
176
     1
 90
        4
176
     1
 62
     7
176
     1
 62
   257
176
     1
 90
        7
176
     1
 90
        7
176
     1
 40
1.0
176
     1
 90
        8
176
     1
 62
     7
176
     1
 40
1.0
176
     1
 90
        1
176
     1
 90
        6
176
     1
 90
        2
176
     1
 62
     7
176
     1
 90
        5
176
     1
 90
        0
176
     1
 90
        0
176
     1
290
     0
176
     1
 90
        1
176
     1
 40
0.0
176
     1
 90
        0
176
     1
290
     0
176
     1
290
     1
176
     1
290
     1
176
     1
290
     0
176
     1
290
     0
176
     1
290
     0
176
     1
290
     0
176
     1
290
     0
176
     1
290
     0
176
     1
 90
       50
176
     1
 40
0.0
176
     1
 40
1.0
176
     1
 90
        0
176
     1
 62
    18
420
        0
176
     1
 90
       50
176
     1
 90
        3
176
     1
 62
     5
420
      255
176
     1
290
     0
176
     1
 90
       50
176
     1
 90
       50
176
     1
 90
       50
176
     1
290
     0
176
     1
 90
       50
176
     1
 62
   256
176
     0
 40
1.0
176
     0
 90
        2
176
     1
  1
strokes_ogs.tif
176
     1
290
     0
176
     1
 40
1.0
176
     1
 40
1.0
176
     1
  0
VISUALSTYLE
  5
40
102
{ACAD_REACTORS
330
29
102
}
330
29
100
AcDbVisualStyle
  2
OverhangOff
 70
    21
177
     3
291
     1
 70
    58
 90
        2
176
     0
 90
        2
176
     0
 90
        0
176
     0
 90
        0
176
     0
 40
0.6
176
     0
 40
30.0
176
     0
 62
     7
420
 16777215
176
     0
 90
        1
176
     0
 90
        4
176
     0
 62
     7
176
     0
 62
   257
176
     0
 90
        1
176
     0
 90
        1
176
     0
 40
1.0
176
     0
 90
        9
176
     2
 62
     7
176
     0
 40
1.0
176
     0
 90
        1
176
     0
 90
        6
176
     0
 90
        2
176
     0
 62
     7
176
     0
 90
        5
176
     0
 90
        0
176
     0
 90
        0
176
     0
290
     0
176
     0
 90
        1
176
     0
 40
0.0
176
     0
 90
        0
176
     0
290
     0
176
     0
290
     1
176
     0
290
     1
176
     0
290
     0
176
     0
290
     0
176
     0
290
     0
176
     0
290
     0
176
     0
290
     0
176
     0
290
     0
176
     0
 90
       50
176
     0
 40
0.0
176
     0
 40
1.0
176
     0
 90
        0
176
     0
 62
    18
420
        0
176
     0
 90
       50
176
     0
 90
        3
176
     0
 62
     5
420
      255
176
     0
290
     0
176
     0
 90
       50
176
     0
 90
       50
176
     0
 90
       50
176
     0
290
     0
176
     0
 90
       50
176
     0
 62
   256
176
     0
 40
1.0
176
     0
 90
        2
176
     0
  1
strokes_ogs.tif
176
     0
290
     0
176
     0
 40
1.0
176
     0
 40
1.0
176
     0
  0
VISUALSTYLE
  5
33
102
{ACAD_REACTORS
330
29
102
}
330
29
100
AcDbVisualStyle
  2
Realistic
 70
     8
177
     3
291
     0
 70
    58
 90
        2
176
     1
 90
        3
176
     1
 90
        0
176
     1
 90
        2
176
     1
 40
0.6
176
     1
 40
30.0
176
     1
 62
     7
420
 16777215
176
     1
 90
        0
176
     1
 90
        0
176
     1
 62
     7
176
     1
 62
   257
176
     1
 90
        1
176
     1
 90
        1
176
     1
 40
1.0
176
     1
 90
        8
176
     1
 62
   257
176
     1
 40
1.0
176
     1
 90
        1
176
     1
 90
        6
176
     1
 90
        2
176
     1
 62
     7
176
     1
 90
        3
176
     1
 90
        0
176
     1
 90
        0
176
     1
290
     0
176
     1
 90
       13
176
     1
 40
0.0
176
     1
 90
        0
176
     1
290
     0
176
     1
290
     1
176
     1
290
     1
176
     1
290
     0
176
     1
290
     0
176
     1
290
     0
176
     1
290
     0
176
     1
290
     0
176
     1
290
     0
176
     1
 90
       50
176
     1
 40
0.0
176
     1
 40
1.0
176
     1
 90
        0
176
     1
 62
    18
420
        0
176
     1
 90
       50
176
     1
 90
        3
176
     1
 62
     5
420
      255
176
     1
290
     0
176
     1
 90
       50
176
     1
 90
       50
176
     1
 90
       50
176
     1
290
     0
176
     1
 90
       50
176
     1
 62
   256
176
     0
 40
1.0
176
     0
 90
        2
176
     1
  1
strokes_ogs.tif
176
     1
290
     0
176
     1
 40
1.0
176
     1
 40
1.0
176
     1
  0
VISUALSTYLE
  5
3E
102
{ACAD_REACTORS
330
29
102
}
330
29
100
AcDbVisualStyle
  2
Shaded
 70
    27
177
     3
291
     0
 70
    58
 90
        2
176
     1
 90
        2
176
     1
 90
        1
176
     1
 90
        2
176
     1
 40
0.6
176
     1
 40
30.0
176
     1
 62
     7
420
 16777215
176
     1
 90
        0
176
     1
 90
        4
176
     1
 62
     7
176
     1
 62
   257
176
     1
 90
        1
176
     1
 90
        1
176
     1
 40
1.0
176
     1
 90
        8
176
     1
 62
   257
176
     1
 40
1.0
176
     1
 90
        1
176
     1
 90
        6
176
     1
 90
        2
176
     1
 62
     8
420
  7895160
176
     1
 90
        3
176
     1
 90
        0
176
     1
 90
        0
176
     1
290
     0
176
     1
 90
        5
176
     1
 40
0.0
176
     1
 90
        0
176
     1
290
     0
176
     1
290
     1
176
     1
290
     1
176
     1
290
     0
176
     1
290
     0
176
     1
290
     0
176
     1
290
     0
176
     1
290
     0
176
     1
290
     0
176
     1
 90
       50
176
     1
 40
0.0
176
     1
 40
1.0
176
     1
 90
        0
176
     1
 62
    18
420
        0
176
     1
 90
       50
176
     1
 90
        3
176
     1
 62
     5
420
      255
176
     1
290
     0
176
     1
 90
       50
176
     1
 90
       50
176
     1
 90
       50
176
     1
290
     0
176
     1
 90
       50
176
     1
 62
   256
176
     0
 40
1.0
176
     0
 90
        2
176
     1
  1
strokes_ogs.tif
176
     1
290
     0
176
     1
 40
1.0
176
     1
 40
1.0
176
     1
  0
VISUALSTYLE
  5
3D
102
{ACAD_REACTORS
330
29
102
}
330
29
100
AcDbVisualStyle
  2
Shaded with edges
 70
    26
177
     3
291
     0
 70
    58
 90
        2
176
     1
 90
        2
176
     1
 90
        1
176
     1
 90
        2
176
     1
 40
0.6
176
     1
 40
30.0
176
     1
 62
     7
420
 16777215
176
     1
 90
        1
176
     1
 90
        2
176
     1
 62
     7
176
     1
 62
   257
176
     1
 90
        2
176
     1
 90
        1
176
     1
 40
1.0
176
     1
 90
        8
176
     1
 62
   257
176
     1
 40
1.0
176
     1
 90
        1
176
     1
 90
        6
176
     1
 90
        2
176
     1
 62
     7
176
     1
 90
        3
176
     1
 90
        0
176
     1
 90
        0
176
     1
290
     0
176
     1
 90
        5
176
     1
 40
0.0
176
     1
 90
        0
176
     1
290
     0
176
     1
290
     1
176
     1
290
     1
176
     1
290
     0
176
     1
290
     0
176
     1
290
     0
176
     1
290
     0
176
     1
290
     0
176
     1
290
     0
176
     1
 90
       50
176
     1
 40
0.0
176
     1
 40
1.0
176
     1
 90
        0
176
     1
 62
    18
420
        0
176
     1
 90
       50
176
     1
 90
        3
176
     1
 62
     5
420
      255
176
     1
290
     0
176
     1
 90
       50
176
     1
 90
       50
176
     1
 90
       50
176
     1
290
     0
176
     1
 90
       50
176
     1
 62
   256
176
     0
 40
1.0
176
     0
 90
        2
176
     1
  1
strokes_ogs.tif
176
     1
290
     0
176
     1
 40
1.0
176
     1
 40
1.0
176
     1
  0
VISUALSTYLE
  5
3A
102
{ACAD_REACTORS
330
29
102
}
330
29
100
AcDbVisualStyle
  2
Shades of Gray
 70
    23
177
     3
291
     0
 70
    58
 90
        2
176
     1
 90
        2
176
     1
 90
        3
176
     1
 90
        0
176
     1
 40
0.6
176
     1
 40
30.0
176
     1
 62
     7
420
 16777215
176
     1
 90
        2
176
     1
 90
        2
176
     1
 62
     7
176
     1
 62
     7
176
     1
 90
        1
176
     1
 90
        1
176
     1
 40
40.0
176
     1
 90
        8
176
     1
 62
     7
176
     1
 40
1.0
176
     1
 90
        1
176
     1
 90
        6
176
     1
 90
        2
176
     1
 62
     7
176
     1
 90
        3
176
     1
 90
        0
176
     1
 90
        0
176
     1
290
     0
176
     1
 90
        1
176
     1
 40
0.0
176
     1
 90
        0
176
     1
290
     0
176
     1
290
     1
176
     1
290
     1
176
     1
290
     0
176
     1
290
     0
176
     1
290
     0
176
     1
290
     0
176
     1
290
     0
176
     1
290
     0
176
     1
 90
       50
176
     1
 40
0.0
176
     1
 40
1.0
176
     1
 90
        0
176
     1
 62
    18
420
        0
176
     1
 90
       50
176
     1
 90
        3
176
     1
 62
     5
420
      255
176
     1
290
     0
176
     1
 90
       50
176
     1
 90
       50
176
     1
 90
       50
176
     1
290
     0
176
     1
 90
       50
176
     1
 62
   256
176
     0
 40
1.0
176
     0
 90
        2
176
     1
  1
strokes_ogs.tif
176
     1
290
     0
176
     1
 40
1.0
176
     1
 40
1.0
176
     1
  0
VISUALSTYLE
  5
3B
102
{ACAD_REACTORS
330
29
102
}
330
29
100
AcDbVisualStyle
  2
Sketchy
 70
    24
177
     3
291
     0
 70
    58
 90
        1
176
     1
 90
        2
176
     1
 90
        2
176
     1
 90
        0
176
     1
 40
0.6
176
     1
 40
30.0
176
     1
 62
     7
420
 16777215
176
     1
 90
        2
176
     1
 90
        2
176
     1
 62
     7
176
     1
 62
     7
176
     1
 90
        1
176
     1
 90
        1
176
     1
 40
40.0
176
     1
 90
       11
176
     1
 62
     7
176
     1
 40
1.0
176
     1
 90
        1
176
     1
 90
        6
176
     1
 90
        2
176
     1
 62
     7
176
     1
 90
        6
176
     1
 90
        0
176
     1
 90
        0
176
     1
290
     0
176
     1
 90
        1
176
     1
 40
0.0
176
     1
 90
        0
176
     1
290
     0
176
     1
290
     1
176
     1
290
     1
176
     1
290
     0
176
     1
290
     0
176
     1
290
     0
176
     1
290
     0
176
     1
290
     0
176
     1
290
     0
176
     1
 90
       50
176
     1
 40
0.0
176
     1
 40
1.0
176
     1
 90
        0
176
     1
 62
    18
420
        0
176
     1
 90
       50
176
     1
 90
        3
176
     1
 62
     5
420
      255
176
     1
290
     0
176
     1
 90
       50
176
     1
 90
       50
176
     1
 90
       50
176
     1
290
     0
176
     1
 90
       50
176
     1
 62
   256
176
     0
 40
1.0
176
     0
 90
        2
176
     1
  1
strokes_ogs.tif
176
     1
290
     0
176
     1
 40
1.0
176
     1
 40
1.0
176
     1
  0
VISUALSTYLE
  5
36
102
{ACAD_REACTORS
330
29
102
}
330
29
100
AcDbVisualStyle
  2
Thicken
 70
    13
177
     3
291
     1
 70
    58
 90
        2
176
     1
 90
        2
176
     1
 90
        0
176
     1
 90
        0
176
     1
 40
0.6
176
     1
 40
30.0
176
     1
 62
     7
420
 16777215
176
     1
 90
        1
176
     1
 90
        4
176
     1
 62
     7
176
     1
 62
   257
176
     1
 90
        1
176
     1
 90
        1
176
     1
 40
1.0
176
     1
 90
       12
176
     1
 62
     7
176
     1
 40
1.0
176
     1
 90
        1
176
     1
 90
        6
176
     1
 90
        2
176
     1
 62
     7
176
     1
 90
        5
176
     1
 90
        0
176
     1
 90
        0
176
     1
290
     0
176
     1
 90
        1
176
     1
 40
0.0
176
     1
 90
        0
176
     1
290
     0
176
     1
290
     1
176
     1
290
     1
176
     1
290
     0
176
     1
290
     0
176
     1
290
     0
176
     1
290
     0
176
     1
290
     0
176
     1
290
     0
176
     1
 90
       50
176
     1
 40
0.0
176
     1
 40
1.0
176
     1
 90
        0
176
     1
 62
    18
420
        0
176
     1
 90
       50
176
     1
 90
        3
176
     1
 62
     5
420
      255
176
     1
290
     0
176
     1
 90
       50
176
     1
 90
       50
176
     1
 90
       50
176
     1
290
     0
176
     1
 90
       50
176
     1
 62
   256
176
     0
 40
1.0
176
     0
 90
        2
176
     1
  1
strokes_ogs.tif
176
     1
290
     0
176
     1
 40
1.0
176
     1
 40
1.0
176
     1
  0
VISUALSTYLE
  5
30
102
{ACAD_REACTORS
330
29
102
}
330
29
100
AcDbVisualStyle
  2
Wireframe
 70
     5
177
     3
291
     0
 70
    58
 90
        0
176
     1
 90
        2
176
     1
 90
        0
176
     1
 90
        0
176
     1
 40
0.6
176
     1
 40
30.0
176
     1
 62
     7
420
 16777215
176
     1
 90
        1
176
     1
 90
        4
176
     1
 62
     7
176
     1
 62
   257
176
     1
 90
        1
176
     1
 90
        1
176
     1
 40
1.0
176
     1
 90
        0
176
     1
 62
   257
176
     1
 40
1.0
176
     1
 90
        1
176
     1
 90
        6
176
     1
 90
        2
176
     1
 62
     7
176
     1
 90
        3
176
     1
 90
        0
176
     1
 90
        0
176
     1
290
     0
176
     1
 90
        1
176
     1
 40
0.0
176
     1
 90
        0
176
     1
290
     0
176
     1
290
     1
176
     1
290
     1
176
     1
290
     0
176
     1
290
     0
176
     1
290
     0
176
     1
290
     0
176
     1
290
     0
176
     1
290
     0
176
     1
 90
       50
176
     1
 40
0.0
176
     1
 40
1.0
176
     1
 90
        0
176
     1
 62
    18
420
        0
176
     1
 90
       50
176
     1
 90
        3
176
     1
 62
     5
420
      255
176
     1
290
     0
176
     1
 90
       50
176
     1
 90
       50
176
     1
 90
       50
176
     1
290
     0
176
     1
 90
       50
176
     1
 62
   256
176
     0
 40
1.0
176
     0
 90
        2
176
     1
  1
strokes_ogs.tif
176
     1
290
     0
176
     1
 40
1.0
176
     1
 40
1.0
176
     1
  0
VISUALSTYLE
  5
3C
102
{ACAD_REACTORS
330
29
102
}
330
29
100
AcDbVisualStyle
  2
X-Ray
 70
    25
177
     3
291
     0
 70
    58
 90
        2
176
     1
 90
        2
176
     1
 90
        1
176
     1
 90
        1
176
     1
 40
0.5
176
     1
 40
30.0
176
     1
 62
     7
420
 16777215
176
     1
 90
        1
176
     1
 90
        0
176
     1
 62
     7
176
     1
 62
   257
176
     1
 90
        1
176
     1
 90
        1
176
     1
 40
1.0
176
     1
 90
        8
176
     1
 62
     7
176
     1
 40
1.0
176
     1
 90
        1
176
     1
 90
        6
176
     1
 90
        2
176
     1
 62
     7
176
     1
 90
        3
176
     1
 90
        0
176
     1
 90
        0
176
     1
290
     0
176
     1
 90
       13
176
     1
 40
0.0
176
     1
 90
        0
176
     1
290
     0
176
     1
290
     1
176
     1
290
     1
176
     1
290
     0
176
     1
290
     0
176
     1
290
     0
176
     1
290
     0
176
     1
290
     0
176
     1
290
     0
176
     1
 90
       50
176
     1
 40
0.0
176
     1
 40
1.0
176
     1
 90
        0
176
     1
 62
    18
420
        0
176
     1
 90
       50
176
     1
 90
        3
176
     1
 62
     5
420
      255
176
     1
290
     0
176
     1
 90
       50
176
     1
 90
       50
176
     1
 90
       50
176
     1
290
     0
176
     1
 90
       50
176
     1
 62
   256
176
     0
 40
1.0
176
     0
 90
        2
176
     1
  1
strokes_ogs.tif
176
     1
290
     0
176
     1
 40
1.0
176
     1
 40
1.0
176
     1
  0
DICTIONARYVAR
  5
226
102
{ACAD_REACTORS
330
221
102
}
330
221
100
DictionaryVariables
280
     0
  1
1:1
  0
DICTIONARYVAR
  5
223
102
{ACAD_REACTORS
330
221
102
}
330
221
100
DictionaryVariables
280
     0
  1
STANDARD
  0
DICTIONARYVAR
  5
222
102
{ACAD_REACTORS
330
221
102
}
330
221
100
DictionaryVariables
280
     0
  1
STANDARD
  0
DICTIONARYVAR
  5
224
102
{ACAD_REACTORS
330
221
102
}
330
221
100
DictionaryVariables
280
     0
  1
Imperial24
  0
DICTIONARYVAR
  5
225
102
{ACAD_REACTORS
330
221
102
}
330
221
100
DictionaryVariables
280
     0
  1
Imperial24
  0
XRECORD
  5
21C
102
{ACAD_REACTORS
330
218
102
}
330
218
100
AcDbXrecord
280
     1
  1
BUILDING_ID
  1
Casa nº 51 na Travessa Manoel Pinho
  1
FLOOR_ID
  1
22440844
  0
XRECORD
  5
21A
102
{ACAD_REACTORS
330
218
102
}
330
218
100
AcDbXrecord
280
     1
  1
-2000051
  1
Linhas
  1
-2000280
  1
Blocos de margens e carimbo
  1
-2002000
  1
Itens de detalhe
  1
22395978
  1
page_1_cd2bbd76b14634229ba42b1e42fafada_65830cd3c4dd2.dwg
  0
XRECORD
  5
21B
102
{ACAD_REACTORS
330
218
102
}
330
218
100
AcDbXrecord
280
     1
  1
-2000042
  1
<Linhas finas>
  1
-2000281
  1
<Linhas finas>
  1
22395980
  1
0
  1
379903
  1
- Linha Invisível
  0
XRECORD
  5
219
102
{ACAD_REACTORS
330
218
102
}
330
218
100
AcDbXrecord
280
     1
  1
22395977
  1
Símbolo de importação : page_1_cd2bbd76b14634229ba42b1e42fafada_65830cd3c4dd2.dwg
  1
22440810
  1
SVG : A4
  1
383807
  1
Região preenchida : Marcenaria corte
  0
DICTIONARY
  5
1A
330
19
100
AcDbDictionary
280
     1
281
     1
  3
BUMPTILE
360
1C
  3
DIFFUSETILE
360
1B
  3
OPACITYTILE
360
1F
  3
REFLECTIONTILE
360
1E
  3
REFRACTIONTILE
360
20
  3
SPECULARTILE
360
1D
  0
DICTIONARY
  5
12
330
11
100
AcDbDictionary
280
     1
281
     1
  3
BUMPTILE
360
14
  3
DIFFUSETILE
360
13
  3
OPACITYTILE
360
17
  3
REFLECTIONTILE
360
16
  3
REFRACTIONTILE
360
18
  3
SPECULARTILE
360
15
  0
DICTIONARY
  5
22
330
21
100
AcDbDictionary
280
     1
281
     1
  3
BUMPTILE
360
24
  3
DIFFUSETILE
360
23
  3
OPACITYTILE
360
27
  3
REFLECTIONTILE
360
26
  3
REFRACTIONTILE
360
28
  3
SPECULARTILE
360
25
  0
DICTIONARY
  5
3C7
330
65
100
AcDbDictionary
280
     1
281
     1
  3
ACAD_ROUNDTRIP_2008_TABLESTYLE_CELLSTYLEMAP
360
3C8
  0
XRECORD
  5
1C
102
{ACAD_REACTORS
330
1A
102
}
330
1A
100
AcDbXrecord
280
     1
270
     1
271
     1
  0
XRECORD
  5
1B
102
{ACAD_REACTORS
330
1A
102
}
330
1A
100
AcDbXrecord
280
     1
270
     1
271
     1
  0
XRECORD
  5
1F
102
{ACAD_REACTORS
330
1A
102
}
330
1A
100
AcDbXrecord
280
     1
270
     1
271
     1
  0
XRECORD
  5
1E
102
{ACAD_REACTORS
330
1A
102
}
330
1A
100
AcDbXrecord
280
     1
270
     1
271
     1
  0
XRECORD
  5
20
102
{ACAD_REACTORS
330
1A
102
}
330
1A
100
AcDbXrecord
280
     1
270
     1
271
     1
  0
XRECORD
  5
1D
102
{ACAD_REACTORS
330
1A
102
}
330
1A
100
AcDbXrecord
280
     1
270
     1
271
     1
  0
XRECORD
  5
14
102
{ACAD_REACTORS
330
12
102
}
330
12
100
AcDbXrecord
280
     1
270
     1
271
     1
  0
XRECORD
  5
13
102
{ACAD_REACTORS
330
12
102
}
330
12
100
AcDbXrecord
280
     1
270
     1
271
     1
  0
XRECORD
  5
17
102
{ACAD_REACTORS
330
12
102
}
330
12
100
AcDbXrecord
280
     1
270
     1
271
     1
  0
XRECORD
  5
16
102
{ACAD_REACTORS
330
12
102
}
330
12
100
AcDbXrecord
280
     1
270
     1
271
     1
  0
XRECORD
  5
18
102
{ACAD_REACTORS
330
12
102
}
330
12
100
AcDbXrecord
280
     1
270
     1
271
     1
  0
XRECORD
  5
15
102
{ACAD_REACTORS
330
12
102
}
330
12
100
AcDbXrecord
280
     1
270
     1
271
     1
  0
XRECORD
  5
24
102
{ACAD_REACTORS
330
22
102
}
330
22
100
AcDbXrecord
280
     1
270
     1
271
     1
  0
XRECORD
  5
23
102
{ACAD_REACTORS
330
22
102
}
330
22
100
AcDbXrecord
280
     1
270
     1
271
     1
  0
XRECORD
  5
27
102
{ACAD_REACTORS
330
22
102
}
330
22
100
AcDbXrecord
280
     1
270
     1
271
     1
  0
XRECORD
  5
26
102
{ACAD_REACTORS
330
22
102
}
330
22
100
AcDbXrecord
280
     1
270
     1
271
     1
  0
XRECORD
  5
28
102
{ACAD_REACTORS
330
22
102
}
330
22
100
AcDbXrecord
280
     1
270
     1
271
     1
  0
XRECORD
  5
25
102
{ACAD_REACTORS
330
22
102
}
330
22
100
AcDbXrecord
280
     1
270
     1
271
     1
  0
CELLSTYLEMAP
  5
3C8
102
{ACAD_REACTORS
330
3C7
102
}
330
3C7
100
AcDbCellStyleMap
 90
        3
300
CELLSTYLE
  1
TABLEFORMAT_BEGIN
 90
        5
170
     1
 91
        0
 92
    32768
 62
   257
 93
        1
300
CONTENTFORMAT
  1
CONTENTFORMAT_BEGIN
 90
        0
 91
        0
 92
      512
 93
        0
300

 40
0.0
140
1.0
 94
        5
 62
     0
340
55
144
0.25
309
CONTENTFORMAT_END
171
     0
 94
        0
309
TABLEFORMAT_END
  1
CELLSTYLE_BEGIN
 90
        1
 91
        1
300
_TITLE
309
CELLSTYLE_END
300
CELLSTYLE
  1
TABLEFORMAT_BEGIN
 90
        5
170
     1
 91
        0
 92
        0
 62
   257
 93
        1
300
CONTENTFORMAT
  1
CONTENTFORMAT_BEGIN
 90
        0
 91
        0
 92
      512
 93
        0
300

 40
0.0
140
1.0
 94
        5
 62
     0
340
55
144
0.18
309
CONTENTFORMAT_END
171
     0
 94
        0
309
TABLEFORMAT_END
  1
CELLSTYLE_BEGIN
 90
        2
 91
        1
300
_HEADER
309
CELLSTYLE_END
300
CELLSTYLE
  1
TABLEFORMAT_BEGIN
 90
        5
170
     1
 91
        0
 92
        0
 62
   257
 93
        1
300
CONTENTFORMAT
  1
CONTENTFORMAT_BEGIN
 90
        0
 91
        0
 92
      512
 93
        0
300

 40
0.0
140
1.0
 94
        2
 62
     0
340
55
144
0.18
309
CONTENTFORMAT_END
171
     0
 94
        0
309
TABLEFORMAT_END
  1
CELLSTYLE_BEGIN
 90
        3
 91
        2
300
_DATA
309
CELLSTYLE_END
  0
ENDSEC
  0
SECTION
  2
ACDSDATA
 70
     2
 71
     8
  0
ACDSSCHEMA
 90
        0
  1
AcDb_Thumbnail_Schema
  2
AcDbDs::ID
280
    10
 91
        8
  2
Thumbnail_Data
280
    15
 91
        0
101
ACDSRECORD
 95
        0
 90
        1
  2
AcDbDs::TreatedAsObjectData
280
     1
291
     1
101
ACDSRECORD
 95
        0
 90
        2
  2
AcDbDs::Legacy
280
     1
291
     1
101
ACDSRECORD
  1
AcDbDs::ID
 90
        3
  2
AcDs:Indexable
280
     1
291
     1
101
ACDSRECORD
  1
AcDbDs::ID
 90
        4
  2
AcDbDs::HandleAttribute
280
     7
282
     1
  0
ACDSSCHEMA
 90
        1
  1
AcDbDs::TreatedAsObjectDataSchema
  2
AcDbDs::TreatedAsObjectData
280
     1
 91
        0
  0
ACDSSCHEMA
 90
        2
  1
AcDbDs::LegacySchema
  2
AcDbDs::Legacy
280
     1
 91
        0
  0
ACDSSCHEMA
 90
        3
  1
AcDbDs::IndexedPropertySchema
  2
AcDs:Indexable
280
     1
 91
        0
  0
ACDSSCHEMA
 90
        4
  1
AcDbDs::HandleAttributeSchema
  2
AcDbDs::HandleAttribute
280
     7
 91
        1
284
     1
  0
ACDSRECORD
 90
        0
  2
AcDbDs::ID
280
    10
320
77
  2
Thumbnail_Data
280
    15
 94
     1564
310
89504E470D0A1A0A0000000D4948445200000100000000B5080300000087DCD12600000300504C5445FFFFFFFFFFFFFFFFFF0000000000000000000000000000000000000000000000000000330000660000990000CC0000FF0033000033330033660033990033CC0033FF0066000066330066660066990066CC0066FF0099
310
000099330099660099990099CC0099FF00CC0000CC3300CC6600CC9900CCCC00CCFF00FF0000FF3300FF6600FF9900FFCC00FFFF3300003300333300663300993300CC3300FF3333003333333333663333993333CC3333FF3366003366333366663366993366CC3366FF3399003399333399663399993399CC3399FF33CC00
310
33CC3333CC6633CC9933CCCC33CCFF33FF0033FF3333FF6633FF9933FFCC33FFFF6600006600336600666600996600CC6600FF6633006633336633666633996633CC6633FF6666006666336666666666996666CC6666FF6699006699336699666699996699CC6699FF66CC0066CC3366CC6666CC9966CCCC66CCFF66FF0066
310
FF3366FF6666FF9966FFCC66FFFF9900009900339900669900999900CC9900FF9933009933339933669933999933CC9933FF9966009966339966669966999966CC9966FF9999009999339999669999999999CC9999FF99CC0099CC3399CC6699CC9999CCCC99CCFF99FF0099FF3399FF6699FF9999FFCC99FFFFCC0000CC00
310
33CC0066CC0099CC00CCCC00FFCC3300CC3333CC3366CC3399CC33CCCC33FFCC6600CC6633CC6666CC6699CC66CCCC66FFCC9900CC9933CC9966CC9999CC99CCCC99FFCCCC00CCCC33CCCC66CCCC99CCCCCCCCCCFFCCFF00CCFF33CCFF66CCFF99CCFFCCCCFFFFFF0000FF0033FF0066FF0099FF00CCFF00FFFF3300FF3333
310
FF3366FF3399FF33CCFF33FFFF6600FF6633FF6666FF6699FF66CCFF66FFFF9900FF9933FF9966FF9999FF99CCFF99FFFFCC00FFCC33FFCC66FFCC99FFCCCCFFCCFFFFFF00FFFF33FFFF66FFFF99FFFFCCFFFFFF0000000D0D0D1A1A1A2828283535354343435050505D5D5D6B6B6B787878868686939393A1A1A1AEAEAEBB
310
BBBBC9C9C9D6D6D6E4E4E4F1F1F1FFFFFF000000000000000000000000000000000000000000000000000000000000AD4AB4E4000002D74944415478DAEDDD4D9282301086E19C28F73F440E30EB5E5A597884111404410C3FFEA4BFB7A76A160E56258F9DD0D05213B2999D4EA6FA3B871CA4030000000000000000000000
310
00000000000000006018E628B6017CE213881FF99CBF0910010060F1AF1100003C02C4D26800160FB0FE489F9B600BB03474F3BD045E2E02FF002102E01BA0641300401AE0C5D09301200D70CC1A00000000000000000000A80CA02D0275012C0901B4EDAB94D2BDF0EF3B5A875C0CFC2C40D7BA4B5D8C9A798E011E273EDF
310
C47402701338F7D14FFC55F3D60B80D96DE6C3CF7EB167ED0DE0B69B97CEFBA104300F00ABE63D18807901D8973A00000040E5001B0500900788475542D502447100030000001C00C4ED9510006732E0904AE8CBCF0B34370436BE310200800B8004000000AC2C02AF9DA3832AA16A00C6BD83CBFBE400BA06716EE3B01B02
310
3F0060A58BDEAE73FF6B07D79D45EB0748C500D761E5A00A70EE049A700450BC04521CCC3D3B01886BCE0231DCE79E1D6540F1406F1930C803358049061C500AD6079047BBA0E012180D4B31031EB6469D8B210300000066DE6F008800C4BE1496CD80B923010000000000D00198A9FBAC7280989215DF14343B9B3780F103
310
718219B00E60B63ED406F090012BF600A7007B4E8300EC2E0400A8E87E807A06040000000000000038B81404000000AA2E8595322001200DF0ECC8BD850000007C1DA068159B5F80B21C68BF576FF20026BE04DEF12DA16A36C1A47E1600E0D9912602100000401CE072BACC591AE0F2936708A400BA27678501A683DA5908
310
D47753340B03FCC90334E10EA0FCC141A719B0022000E00E20D95A0067A7C1B016204B03E4375C0C540470B9187AC3E560450069E9FF8D0000000000C802EC2A0400F80100B387AE5F9CBCD254016E01D2A4433CD3335EB86A120278123E00C6539A4ED77B060C27614F5E01C025C021F1790047B109402200000000000000
310
000000000000000000004013E0241D3964F1F8070E1CB512A054963B0000000049454E44AE426082
  0
ACDSRECORD
 90
        0
  2
AcDbDs::ID
280
    10
320
73
  2
Thumbnail_Data
280
    15
 94
     1195
310
89504E470D0A1A0A0000000D494844520000010000000065080300000095E2CD0900000300504C5445FFFFFFFFFFFFFFFFFF0000000000000000000000000000000000000000000000000000330000660000990000CC0000FF0033000033330033660033990033CC0033FF0066000066330066660066990066CC0066FF0099
310
000099330099660099990099CC0099FF00CC0000CC3300CC6600CC9900CCCC00CCFF00FF0000FF3300FF6600FF9900FFCC00FFFF3300003300333300663300993300CC3300FF3333003333333333663333993333CC3333FF3366003366333366663366993366CC3366FF3399003399333399663399993399CC3399FF33CC00
310
33CC3333CC6633CC9933CCCC33CCFF33FF0033FF3333FF6633FF9933FFCC33FFFF6600006600336600666600996600CC6600FF6633006633336633666633996633CC6633FF6666006666336666666666996666CC6666FF6699006699336699666699996699CC6699FF66CC0066CC3366CC6666CC9966CCCC66CCFF66FF0066
310
FF3366FF6666FF9966FFCC66FFFF9900009900339900669900999900CC9900FF9933009933339933669933999933CC9933FF9966009966339966669966999966CC9966FF9999009999339999669999999999CC9999FF99CC0099CC3399CC6699CC9999CCCC99CCFF99FF0099FF3399FF6699FF9999FFCC99FFFFCC0000CC00
310
33CC0066CC0099CC00CCCC00FFCC3300CC3333CC3366CC3399CC33CCCC33FFCC6600CC6633CC6666CC6699CC66CCCC66FFCC9900CC9933CC9966CC9999CC99CCCC99FFCCCC00CCCC33CCCC66CCCC99CCCCCCCCCCFFCCFF00CCFF33CCFF66CCFF99CCFFCCCCFFFFFF0000FF0033FF0066FF0099FF00CCFF00FFFF3300FF3333
310
FF3366FF3399FF33CCFF33FFFF6600FF6633FF6666FF6699FF66CCFF66FFFF9900FF9933FF9966FF9999FF99CCFF99FFFFCC00FFCC33FFCC66FFCC99FFCCCCFFCCFFFFFF00FFFF33FFFF66FFFF99FFFFCCFFFFFF0000000D0D0D1A1A1A2828283535354343435050505D5D5D6B6B6B787878868686939393A1A1A1AEAEAEBB
310
BBBBC9C9C9D6D6D6E4E4E4F1F1F1FFFFFF000000000000000000000000000000000000000000000000000000000000AD4AB4E4000000B04944415478DAEDD9B10D83301086514FE4FD87B829AE76E11112129104A5A6FADF2BB028FD8933488C010000000000000000379897256EF77FAAE68C7C02CEB52A74040418026407
310
E87AEAE39A16A06AEFFAEC3B32C0F54E80EC009187C0EFCD4E0F903D0355ABA203ECB5D6481E81F800BD23BF85BF1BAEF8009519A004080F300438DF022D801170080E012A7B04B203ACEC00DD02380304080CF0FE25F6FA2DD67D2C020000000000000000DCE301C0CCAEE5F51A46010000000049454E44AE426082C8BA06
310
10707722E42EE07CCB50409808D06805282C048C526053F330CF0087CDC04D0DB8A83114D010E02DA0B82F8112E5F56980B3803818F01410E60296E59D027683D09E018714F01410C905DCFC3272298269D7C058804E6DD04FC0B53E22C0AD0F2200012E02DE65E07808241B01EDBDF13F9E106ED7CF23A905D417DA82DEAF
310
EBC77169DE3638E6794E81000000000000000000000000000000000080DFF3055974CE46747D86940000000049454E44AE426082
  0
ENDSEC
  0
EOF
